<?xml version="1.0" encoding="utf-8"?>
<!-- Generator: Adobe Illustrator 16.0.0, SVG Export Plug-In . SVG Version: 6.00 Build 0)  -->
<!DOCTYPE svg PUBLIC "-//W3C//DTD SVG 1.1//EN" "http://www.w3.org/Graphics/SVG/1.1/DTD/svg11.dtd">
<svg version="1.1" id="Layer_2" xmlns="http://www.w3.org/2000/svg" xmlns:xlink="http://www.w3.org/1999/xlink" x="0px" y="0px"
	 width="759px" height="439px" viewBox="0 0 759 439" style="enable-background:new 0 0 759 439;" xml:space="preserve">
<style type="text/css">
<![CDATA[
	.st0{fill:#4659A7;}
	.st1{fill:#7DA0D4;}
	.st2{fill:#7F5E26;}
	.st3{fill:#151943;}
	.st4{fill:#171719;}
	.st5{fill:#172919;}
	.st6{fill:#18331B;}
	.st7{fill:#E72834;}
	.st8{fill:#E7E9E9;}
	.st9{fill:#E8EAEA;}
	.st10{fill-rule:evenodd;clip-rule:evenodd;fill:none;stroke:#E4C54B;stroke-width:1.7463;stroke-miterlimit:10;}
	.st11{fill:#EAE71E;}
	.st12{fill:#EB185B;}
	.st13{fill:#EC2127;}
	.st14{fill:#503C2C;}
	.st15{fill:#507FC1;}
	.st16{fill:#542D8B;}
	.st17{fill:#8C6828;}
	.st18{fill:#BF2327;}
	.st19{fill:#231F20;}
	.st20{fill:#F7F3A3;}
	.st21{fill-rule:evenodd;clip-rule:evenodd;fill:none;stroke:#E4C54B;stroke-width:2.6195;stroke-miterlimit:10;}
	.st22{fill:#C2922E;}
	.st23{fill:#C597C5;}
	.st24{fill:#966828;}
	.st25{fill:#2B378B;}
	.st26{fill:#FAA532;}
	.st27{fill:#FBCA28;}
	.st28{fill:#FBCD36;}
	.st29{fill-rule:evenodd;clip-rule:evenodd;}
	.st30{fill:#FFFFFF;}
	.st31{fill-rule:evenodd;clip-rule:evenodd;fill:#F0CEE3;}
	.st32{fill:#FFFFFF;stroke:#7DA0D4;stroke-miterlimit:10;}
	.st33{fill:none;}
	.st34{fill:#231F20;stroke:#231F20;stroke-width:0.5;stroke-miterlimit:10;}
	.st35{fill:#679B9B;}
	.st36{fill:#9B732B;}
	.st37{fill:#CB7361;}
	.st38{fill:#CC2228;}
	.st39{fill:#311C10;}
	.st40{fill:#EC2127;stroke:#EC2127;stroke-width:0.5;stroke-miterlimit:10;}
	.st41{fill:#381414;}
	.st42{fill-rule:evenodd;clip-rule:evenodd;fill:#FBCDCD;}
	.st43{fill:#010101;}
	.st44{fill-rule:evenodd;clip-rule:evenodd;fill:#FFFFFF;}
	.st45{fill:#FFFFFF;stroke:#FFFFFF;stroke-miterlimit:10;}
	.st46{fill-rule:evenodd;clip-rule:evenodd;fill:#641E0F;}
	.st47{fill:#D3D3D3;}
	.st48{fill:#060707;}
	.st49{fill:#080908;}
	.st50{fill:#721212;}
	.st51{fill:#0E8141;}
	.st52{fill:#424143;}
	.st53{fill:#4259A8;}
]]>
</style>
<g id="band">
	<path id="Background" fill-rule="evenodd" clip-rule="evenodd" fill="#F0CEE3" d="M379.5,361.4c-19.2,0-37.8-11-52.6-30.9c-3.1,1.4-6.4,2.1-9.7,2.1
		c-12.7,0-23.1-10.1-23.6-22.7c-2.1,0.5-4.2,0.8-6.4,0.8c-14.6,0-26.5-11.5-27.2-25.8L-0.2,274.3V164.7l260.4-10.5
		c1.9-13.3,13.3-23.4,26.9-23.4c2.2,0,4.3,0.3,6.4,0.8c0.5-12.6,10.9-22.7,23.6-22.7c2.9,0,5.7,0.5,8.4,1.6
		c15.1-21.2,34.2-32.8,54-32.8c19.7,0,38.8,11.6,53.8,32.6c2.5-0.9,5.2-1.4,7.9-1.4c12.8,0,23.2,10.2,23.6,22.9
		c2.3-0.6,4.6-0.9,7-0.9c13.7,0,25.1,10.1,26.9,23.4l260.4,10.5v109.6l-260.1,10.5c-0.7,14.4-12.7,25.8-27.2,25.8
		c-2.4,0-4.8-0.3-7-0.9c-0.4,12.7-10.8,22.9-23.6,22.9c-3.2,0-6.3-0.6-9.2-1.9C417.1,350.5,398.6,361.4,379.5,361.4z"/>
	<g id="UpperLineDotter">
		<ellipse id="XMLID_6183_" transform="matrix(0.9992 -3.956098e-002 3.956098e-002 0.9992 -6.9483 0.464)" fill-rule="evenodd" clip-rule="evenodd" fill="#FFFFFF" cx="8.3" cy="175.8" rx="2.8" ry="2.8"/>
		<ellipse id="XMLID_6181_" transform="matrix(0.9992 -3.947474e-002 3.947474e-002 0.9992 -6.9067 0.9083)" fill-rule="evenodd" clip-rule="evenodd" fill="#FFFFFF" cx="19.5" cy="175.4" rx="2.8" ry="2.8"/>
		<ellipse id="XMLID_6179_" transform="matrix(0.9992 -3.948156e-002 3.948156e-002 0.9992 -6.8814 1.3541)" fill-rule="evenodd" clip-rule="evenodd" fill="#FFFFFF" cx="30.8" cy="174.9" rx="2.8" ry="2.8"/>
		<ellipse id="XMLID_6177_" transform="matrix(0.9992 -3.956098e-002 3.956098e-002 0.9992 -6.8687 1.8036)" fill-rule="evenodd" clip-rule="evenodd" fill="#FFFFFF" cx="42.1" cy="174.5" rx="2.8" ry="2.8"/>
		<ellipse id="XMLID_6175_" transform="matrix(0.9992 -3.956782e-002 3.956782e-002 0.9992 -6.8434 2.2506)" fill-rule="evenodd" clip-rule="evenodd" fill="#FFFFFF" cx="53.4" cy="174" rx="2.8" ry="2.8"/>
		<ellipse id="XMLID_6173_" transform="matrix(0.9992 -3.947474e-002 3.947474e-002 0.9992 -6.8009 2.6905)" fill-rule="evenodd" clip-rule="evenodd" fill="#FFFFFF" cx="64.7" cy="173.6" rx="2.8" ry="2.8"/>
		<ellipse id="XMLID_6171_" transform="matrix(0.9992 -3.956098e-002 3.956098e-002 0.9992 -6.7892 3.1433)" fill-rule="evenodd" clip-rule="evenodd" fill="#FFFFFF" cx="76" cy="173.1" rx="2.8" ry="2.8"/>
		<ellipse id="XMLID_6169_" transform="matrix(0.9992 -3.956098e-002 3.956098e-002 0.9992 -6.7626 3.5898)" fill-rule="evenodd" clip-rule="evenodd" fill="#FFFFFF" cx="87.3" cy="172.7" rx="2.8" ry="2.8"/>
		<ellipse id="XMLID_6167_" transform="matrix(0.9992 -3.947474e-002 3.947474e-002 0.9992 -6.7216 4.0273)" fill-rule="evenodd" clip-rule="evenodd" fill="#FFFFFF" cx="98.6" cy="172.2" rx="2.8" ry="2.8"/>
		<ellipse id="XMLID_6165_" transform="matrix(0.9992 -3.956098e-002 3.956098e-002 0.9992 -6.7096 4.4829)" fill-rule="evenodd" clip-rule="evenodd" fill="#FFFFFF" cx="109.9" cy="171.8" rx="2.8" ry="2.8"/>
		<ellipse id="XMLID_6163_" transform="matrix(0.9992 -3.947474e-002 3.947474e-002 0.9992 -6.6687 4.9184)" fill-rule="evenodd" clip-rule="evenodd" fill="#FFFFFF" cx="121.2" cy="171.3" rx="2.8" ry="2.8"/>
		<ellipse id="XMLID_6161_" transform="matrix(0.9992 -3.947474e-002 3.947474e-002 0.9992 -6.6423 5.364)" fill-rule="evenodd" clip-rule="evenodd" fill="#FFFFFF" cx="132.5" cy="170.9" rx="2.8" ry="2.8"/>
		<ellipse id="XMLID_6159_" transform="matrix(0.9992 -3.956098e-002 3.956098e-002 0.9992 -6.63 5.8225)" fill-rule="evenodd" clip-rule="evenodd" fill="#FFFFFF" cx="143.8" cy="170.4" rx="2.8" ry="2.8"/>
		<ellipse id="XMLID_6157_" transform="matrix(0.9992 -3.956782e-002 3.956782e-002 0.9992 -6.6046 6.2702)" fill-rule="evenodd" clip-rule="evenodd" fill="#FFFFFF" cx="155.1" cy="170" rx="2.8" ry="2.8"/>
		<ellipse id="XMLID_6155_" transform="matrix(0.9992 -3.947474e-002 3.947474e-002 0.9992 -6.5629 6.7007)" fill-rule="evenodd" clip-rule="evenodd" fill="#FFFFFF" cx="166.4" cy="169.5" rx="2.8" ry="2.8"/>
		<ellipse id="XMLID_6153_" transform="matrix(0.9992 -3.956098e-002 3.956098e-002 0.9992 -6.5505 7.1622)" fill-rule="evenodd" clip-rule="evenodd" fill="#FFFFFF" cx="177.7" cy="169.1" rx="2.8" ry="2.8"/>
		<ellipse id="XMLID_6151_" transform="matrix(0.9992 -3.956098e-002 3.956098e-002 0.9992 -6.524 7.6087)" fill-rule="evenodd" clip-rule="evenodd" fill="#FFFFFF" cx="189" cy="168.6" rx="2.8" ry="2.8"/>
		<ellipse id="XMLID_6149_" transform="matrix(0.9992 -3.947474e-002 3.947474e-002 0.9992 -6.4836 8.0374)" fill-rule="evenodd" clip-rule="evenodd" fill="#FFFFFF" cx="200.3" cy="168.2" rx="2.8" ry="2.8"/>
		<ellipse id="XMLID_6147_" transform="matrix(0.9992 -3.948156e-002 3.948156e-002 0.9992 -6.4583 8.4845)" fill-rule="evenodd" clip-rule="evenodd" fill="#FFFFFF" cx="211.6" cy="167.8" rx="2.8" ry="2.8"/>
		<ellipse id="XMLID_6145_" transform="matrix(0.9992 -3.956098e-002 3.956098e-002 0.9992 -6.4444 8.9483)" fill-rule="evenodd" clip-rule="evenodd" fill="#FFFFFF" cx="222.9" cy="167.3" rx="2.8" ry="2.8"/>
		<ellipse id="XMLID_6143_" transform="matrix(0.9992 -3.947474e-002 3.947474e-002 0.9992 -6.4043 9.3741)" fill-rule="evenodd" clip-rule="evenodd" fill="#FFFFFF" cx="234.2" cy="166.9" rx="2.8" ry="2.8"/>
		<ellipse id="XMLID_6141_" transform="matrix(0.9992 -3.956098e-002 3.956098e-002 0.9992 -6.3913 9.8414)" fill-rule="evenodd" clip-rule="evenodd" fill="#FFFFFF" cx="245.5" cy="166.4" rx="2.8" ry="2.8"/>
		<ellipse id="XMLID_6139_" transform="matrix(0.9992 -3.956782e-002 3.956782e-002 0.9992 -6.3659 10.2898)" fill-rule="evenodd" clip-rule="evenodd" fill="#FFFFFF" cx="256.8" cy="166" rx="2.8" ry="2.8"/>
		<path id="XMLID_6137_" fill-rule="evenodd" clip-rule="evenodd" fill="#FFFFFF" d="M270.1,162.9c1.2,1.1,0.9,3.2-0.9,4.2c-1.9,1-3.8,0-4-1.6c-0.2-1.5,0.4-3,1.3-3.5
		C267.5,161.6,269,161.8,270.1,162.9z"/>
		<path id="XMLID_6135_" fill-rule="evenodd" clip-rule="evenodd" fill="#FFFFFF" d="M274.4,152.6c1.4,0.7,2.1,2.2,1.8,3.4c-0.2,0.6-0.6,1.1-1.2,1.5
		c-0.6,0.5-1.4,0.7-2.1,0.5s-1.4-0.6-1.8-1.1c-0.4-0.6-0.6-1.5-0.3-2.4C271.2,152.7,273,151.9,274.4,152.6z"/>
		<path id="XMLID_6133_" fill-rule="evenodd" clip-rule="evenodd" fill="#FFFFFF" d="M282.1,144.6c0.7,1.4,0.3,3-0.7,3.8c-1,0.7-2.6,0.6-3.8-0.4c-1.1-1-1-3,0.5-4.1
		C279.6,142.7,281.5,143.2,282.1,144.6z"/>
		<path id="XMLID_6131_" fill-rule="evenodd" clip-rule="evenodd" fill="#FFFFFF" d="M293.1,143.3c-0.4,1.5-1.7,2.5-2.9,2.5c-1.2,0-2.4-1.2-2.7-2.7c-0.2-1.6,1.1-3,3-3
		C292.4,140.2,293.5,141.8,293.1,143.3z"/>
		<path id="XMLID_6129_" fill-rule="evenodd" clip-rule="evenodd" fill="#FFFFFF" d="M303.3,140c1.3,0.9,1.3,3.1-0.5,4.2c-1.7,1.2-3.7,0.4-4.1-1.1c-0.4-1.5,0.1-3,0.9-3.6
		C300.5,139,302.1,139.1,303.3,140z"/>
		<path id="XMLID_6127_" fill-rule="evenodd" clip-rule="evenodd" fill="#FFFFFF" d="M306.6,129.4c1.4,0.7,2.2,2.1,2,3.2c-0.1,0.6-0.5,1.1-1,1.5c-0.5,0.5-1.3,0.8-2.1,0.7
		c-0.8-0.1-1.5-0.4-1.9-0.9c-0.5-0.6-0.7-1.5-0.5-2.4C303.4,129.6,305.2,128.7,306.6,129.4z"/>
		<path id="XMLID_6125_" fill-rule="evenodd" clip-rule="evenodd" fill="#FFFFFF" d="M314.8,122.1c0.4,1.5-0.2,3-1.2,3.6c-1,0.6-2.6,0.3-3.7-0.8c-1.1-1.1-0.8-3.2,0.9-4.1
		C312.5,119.8,314.4,120.6,314.8,122.1z"/>
		<path id="XMLID_6123_" fill-rule="evenodd" clip-rule="evenodd" fill="#FFFFFF" d="M325.8,122.9c-0.1,0.8-0.5,1.5-1.2,1.8c-0.6,0.4-1.8,0.4-2.5,0.1
		c-1.1-0.4-1.9-1.8-1.8-3.3c0.1-1.6,1.8-2.7,3.7-2c0.8,0.3,1,0.7,1.3,1.3C325.7,121.4,325.9,122.2,325.8,122.9z"/>
		<path id="XMLID_6121_" fill-rule="evenodd" clip-rule="evenodd" fill="#FFFFFF" d="M335.4,118.2c0.6,0.5,1,1.1,1.1,1.8c0.1,0.8-0.3,1.7-1,2.4c-1.5,1.4-3.6,1-4.3-0.5
		c-0.6-1.4-0.4-3,0.4-3.7c0.4-0.4,0.9-0.5,1.6-0.6C334,117.6,334.8,117.7,335.4,118.2z"/>
		<path id="XMLID_6119_" fill-rule="evenodd" clip-rule="evenodd" fill="#FFFFFF" d="M342.6,109.5c1.1,1.1,1.2,2.9,0.2,4c-1,1.1-2.7,1.3-4,0.3c-1.2-1-1.4-2.8-0.3-4
		C339.7,108.5,341.5,108.4,342.6,109.5z"/>
		<path id="XMLID_6117_" fill-rule="evenodd" clip-rule="evenodd" fill="#FFFFFF" d="M350.9,101.8c0.9,1.2,0.8,3-0.4,4c-1.2,0.9-2.9,0.9-4-0.3c-1.1-1.1-1-3,0.3-4
		C348.2,100.4,350,100.6,350.9,101.8z"/>
		<path id="XMLID_6115_" fill-rule="evenodd" clip-rule="evenodd" fill="#FFFFFF" d="M360.5,95.8c0.7,1.4,0.2,3-1.1,3.8c-1.3,0.7-3,0.3-3.8-1c-0.9-1.3-0.4-3.1,1-3.9
		C358,93.8,359.8,94.4,360.5,95.8z"/>
		<path id="XMLID_6113_" fill-rule="evenodd" clip-rule="evenodd" fill="#FFFFFF" d="M371.1,92c0.3,1.5-0.6,3-2,3.4c-1.4,0.4-2.9-0.4-3.5-1.9c-0.5-1.4,0.3-3.2,1.9-3.6
		C369.2,89.5,370.8,90.4,371.1,92z"/>
		<path id="XMLID_6111_" fill-rule="evenodd" clip-rule="evenodd" fill="#FFFFFF" d="M382.3,91.2c-0.1,1.6-1.4,2.8-2.8,2.7c-1.4,0.1-2.7-1.2-2.8-2.7
		c-0.1-1.6,1.1-2.9,2.8-2.9C381.2,88.3,382.5,89.6,382.3,91.2z"/>
		<path id="XMLID_6109_" fill-rule="evenodd" clip-rule="evenodd" fill="#FFFFFF" d="M393.3,93.5c-0.6,1.5-2.1,2.2-3.5,1.9c-1.4-0.4-2.3-1.9-2-3.4c0.3-1.6,1.9-2.5,3.5-2
		C393,90.4,393.9,92.1,393.3,93.5z"/>
		<path id="XMLID_6107_" fill-rule="evenodd" clip-rule="evenodd" fill="#FFFFFF" d="M403.4,98.6c-0.8,1.3-2.6,1.7-3.8,1c-1.2-0.8-1.8-2.4-1.1-3.8c0.7-1.4,2.5-2,3.9-1.1
		C403.9,95.4,404.3,97.2,403.4,98.6z"/>
		<path id="XMLID_6105_" fill-rule="evenodd" clip-rule="evenodd" fill="#FFFFFF" d="M412.4,105.5c-1.1,1.2-2.8,1.2-4,0.3c-1.1-1-1.3-2.7-0.4-4c1-1.3,2.8-1.4,4-0.4
		C413.4,102.5,413.4,104.3,412.4,105.5z"/>
		<path id="XMLID_6103_" fill-rule="evenodd" clip-rule="evenodd" fill="#FFFFFF" d="M420.1,113.7c-1.2,1-2.9,0.8-4-0.3c-1-1.1-0.9-2.9,0.2-4c1.1-1.1,2.9-1,4,0.2
		C421.5,110.9,421.3,112.7,420.1,113.7z"/>
		<path id="XMLID_6101_" fill-rule="evenodd" clip-rule="evenodd" fill="#FFFFFF" d="M427.7,121.9c-0.6,1.5-2.7,2-4.2,0.6c-0.8-0.7-1.1-1.6-1.1-2.4c0.1-0.7,0.5-1.4,1.1-1.9
		c0.6-0.5,1.4-0.6,2.1-0.5c0.7,0,1.2,0.2,1.6,0.6C428,118.9,428.3,120.4,427.7,121.9z"/>
		<path id="XMLID_6099_" fill-rule="evenodd" clip-rule="evenodd" fill="#FFFFFF" d="M438.8,121.5c0,1.6-0.9,2.9-2,3.2c-0.4,0.1-1.6,0.2-2.3-0.2c-0.7-0.4-1.2-1-1.3-1.8
		c-0.1-0.8,0.1-1.5,0.4-2.1c0.3-0.6,0.5-1,1.6-1.3C437.1,118.7,438.7,119.9,438.8,121.5z"/>
		<path id="XMLID_6097_" fill-rule="evenodd" clip-rule="evenodd" fill="#FFFFFF" d="M449,125.4c-1.1,1.1-2.8,1.2-3.7,0.6c-1-0.6-1.5-2.2-1-3.7c0.5-1.5,2.4-2.1,4.1-1.1
		C450,122.4,450.1,124.4,449,125.4z"/>
		<path id="XMLID_6095_" fill-rule="evenodd" clip-rule="evenodd" fill="#FFFFFF" d="M453,135.7c-0.8,0.1-1.5-0.1-2.1-0.6c-0.6-0.7-0.9-1.2-1-1.8c-0.2-1.1,0.7-2.5,2.1-3.1
		c1.4-0.6,3.2,0.4,3.5,2.3c0.1,1-0.2,1.9-0.7,2.2C454.4,135.2,453.7,135.6,453,135.7z"/>
		<path id="XMLID_6093_" fill-rule="evenodd" clip-rule="evenodd" fill="#FFFFFF" d="M460.3,143.5c-0.3,1.5-2.2,2.5-4,1.4c-1.8-1.1-2-3.2-0.8-4.2c1.2-1,2.7-1.2,3.6-0.7
		C460,140.5,460.6,142,460.3,143.5z"/>
		<path id="XMLID_6091_" fill-rule="evenodd" clip-rule="evenodd" fill="#FFFFFF" d="M471.5,143c-0.2,1.5-1.4,2.7-2.7,2.7c-1.3,0.1-2.6-0.9-2.9-2.5
		c-0.4-1.5,0.8-3.1,2.7-3.2C470.4,140,471.7,141.5,471.5,143z"/>
		<path id="XMLID_6089_" fill-rule="evenodd" clip-rule="evenodd" fill="#FFFFFF" d="M481.4,148c-1.2,1.1-2.8,1.2-3.8,0.4c-1-0.7-1.4-2.3-0.7-3.8c0.6-1.4,2.6-1.9,4.1-0.8
		C482.5,144.9,482.6,146.9,481.4,148z"/>
		<path id="XMLID_6087_" fill-rule="evenodd" clip-rule="evenodd" fill="#FFFFFF" d="M486.1,158c-0.8,0.2-1.5,0-2.1-0.5c-0.6-0.4-1-0.9-1.2-1.5c-0.3-1.2,0.4-2.7,1.8-3.4
		c1.4-0.7,3.2,0.1,3.7,1.9c0.3,0.9,0,1.8-0.3,2.4C487.6,157.4,486.9,157.8,486.1,158z"/>
		<path id="XMLID_6085_" fill-rule="evenodd" clip-rule="evenodd" fill="#FFFFFF" d="M493.8,165.5c-0.2,1.6-2.1,2.5-4,1.6c-1.8-1-2.1-3.1-0.9-4.2c1.2-1.1,2.7-1.3,3.6-0.8
		C493.4,162.5,494,164,493.8,165.5z"/>
		<ellipse id="XMLID_6083_" transform="matrix(0.9992 3.948156e-002 -3.948156e-002 0.9992 6.9442 -19.6994)" fill-rule="evenodd" clip-rule="evenodd" fill="#FFFFFF" cx="502.2" cy="166" rx="2.8" ry="2.8"/>
		<ellipse id="XMLID_6081_" transform="matrix(0.9992 3.956782e-002 -3.956782e-002 0.9992 6.9868 -20.1888)" fill-rule="evenodd" clip-rule="evenodd" fill="#FFFFFF" cx="513.5" cy="166.4" rx="2.8" ry="2.8"/>
		<ellipse id="XMLID_6079_" transform="matrix(0.9992 3.956782e-002 -3.956782e-002 0.9992 7.0133 -20.6355)" fill-rule="evenodd" clip-rule="evenodd" fill="#FFFFFF" cx="524.8" cy="166.9" rx="2.8" ry="2.8"/>
		<ellipse id="XMLID_6077_" transform="matrix(0.9992 3.947474e-002 -3.947474e-002 0.9992 7.0223 -21.0328)" fill-rule="evenodd" clip-rule="evenodd" fill="#FFFFFF" cx="536.1" cy="167.3" rx="2.8" ry="2.8"/>
		<ellipse id="XMLID_6075_" transform="matrix(0.9992 3.947474e-002 -3.947474e-002 0.9992 7.0488 -21.4783)" fill-rule="evenodd" clip-rule="evenodd" fill="#FFFFFF" cx="547.4" cy="167.8" rx="2.8" ry="2.8"/>
		<ellipse id="XMLID_6073_" transform="matrix(0.9992 3.956098e-002 -3.956098e-002 0.9992 7.0916 -21.9715)" fill-rule="evenodd" clip-rule="evenodd" fill="#FFFFFF" cx="558.7" cy="168.2" rx="2.8" ry="2.8"/>
		<ellipse id="XMLID_6071_" transform="matrix(0.9992 3.956098e-002 -3.956098e-002 0.9992 7.1181 -22.4181)" fill-rule="evenodd" clip-rule="evenodd" fill="#FFFFFF" cx="570" cy="168.6" rx="2.8" ry="2.8"/>
		<ellipse id="XMLID_6069_" transform="matrix(0.9992 3.956098e-002 -3.956098e-002 0.9992 7.1447 -22.8646)" fill-rule="evenodd" clip-rule="evenodd" fill="#FFFFFF" cx="581.3" cy="169.1" rx="2.8" ry="2.8"/>
		<ellipse id="XMLID_6067_" transform="matrix(0.9992 3.947474e-002 -3.947474e-002 0.9992 7.1545 -23.2606)" fill-rule="evenodd" clip-rule="evenodd" fill="#FFFFFF" cx="592.6" cy="169.5" rx="2.8" ry="2.8"/>
		<ellipse id="XMLID_6065_" transform="matrix(0.9992 3.956098e-002 -3.956098e-002 0.9992 7.1977 -23.7577)" fill-rule="evenodd" clip-rule="evenodd" fill="#FFFFFF" cx="603.9" cy="170" rx="2.8" ry="2.8"/>
		<ellipse id="XMLID_6063_" transform="matrix(0.9992 3.956098e-002 -3.956098e-002 0.9992 7.2242 -24.2043)" fill-rule="evenodd" clip-rule="evenodd" fill="#FFFFFF" cx="615.2" cy="170.4" rx="2.8" ry="2.8"/>
		<ellipse id="XMLID_6061_" transform="matrix(0.9992 3.947474e-002 -3.947474e-002 0.9992 7.2339 -24.5974)" fill-rule="evenodd" clip-rule="evenodd" fill="#FFFFFF" cx="626.5" cy="170.9" rx="2.8" ry="2.8"/>
		<ellipse id="XMLID_6059_" transform="matrix(0.9992 3.947474e-002 -3.947474e-002 0.9992 7.2603 -25.0429)" fill-rule="evenodd" clip-rule="evenodd" fill="#FFFFFF" cx="637.8" cy="171.3" rx="2.8" ry="2.8"/>
		<ellipse id="XMLID_6057_" transform="matrix(0.9992 3.956098e-002 -3.956098e-002 0.9992 7.3037 -25.5439)" fill-rule="evenodd" clip-rule="evenodd" fill="#FFFFFF" cx="649.1" cy="171.8" rx="2.8" ry="2.8"/>
		<ellipse id="XMLID_6055_" transform="matrix(0.9992 3.947474e-002 -3.947474e-002 0.9992 7.3132 -25.9341)" fill-rule="evenodd" clip-rule="evenodd" fill="#FFFFFF" cx="660.4" cy="172.2" rx="2.8" ry="2.8"/>
		<ellipse id="XMLID_6053_" transform="matrix(0.9992 3.956098e-002 -3.956098e-002 0.9992 7.3568 -26.437)" fill-rule="evenodd" clip-rule="evenodd" fill="#FFFFFF" cx="671.7" cy="172.7" rx="2.8" ry="2.8"/>
		<ellipse id="XMLID_6051_" transform="matrix(0.9992 3.956098e-002 -3.956098e-002 0.9992 7.3834 -26.8835)" fill-rule="evenodd" clip-rule="evenodd" fill="#FFFFFF" cx="683" cy="173.1" rx="2.8" ry="2.8"/>
		<ellipse id="XMLID_6049_" transform="matrix(0.9992 3.947474e-002 -3.947474e-002 0.9992 7.3925 -27.2708)" fill-rule="evenodd" clip-rule="evenodd" fill="#FFFFFF" cx="694.3" cy="173.6" rx="2.8" ry="2.8"/>
		<ellipse id="XMLID_6047_" transform="matrix(0.9992 3.956782e-002 -3.956782e-002 0.9992 7.4377 -27.7814)" fill-rule="evenodd" clip-rule="evenodd" fill="#FFFFFF" cx="705.6" cy="174" rx="2.8" ry="2.8"/>
		<ellipse id="XMLID_6045_" transform="matrix(0.9992 3.956098e-002 -3.956098e-002 0.9992 7.4629 -28.2231)" fill-rule="evenodd" clip-rule="evenodd" fill="#FFFFFF" cx="716.9" cy="174.5" rx="2.8" ry="2.8"/>
		<ellipse id="XMLID_6043_" transform="matrix(0.9992 3.948156e-002 -3.948156e-002 0.9992 7.4732 -28.6124)" fill-rule="evenodd" clip-rule="evenodd" fill="#FFFFFF" cx="728.2" cy="174.9" rx="2.8" ry="2.8"/>
		<ellipse id="XMLID_6041_" transform="matrix(0.9992 3.947474e-002 -3.947474e-002 0.9992 7.4983 -29.053)" fill-rule="evenodd" clip-rule="evenodd" fill="#FFFFFF" cx="739.5" cy="175.4" rx="2.8" ry="2.8"/>
		<ellipse id="XMLID_6039_" transform="matrix(0.9992 3.956782e-002 -3.956782e-002 0.9992 7.5438 -29.5679)" fill-rule="evenodd" clip-rule="evenodd" fill="#FFFFFF" cx="750.8" cy="175.8" rx="2.8" ry="2.8"/>
		<path id="XMLID_6034_" class="st21" d="M-0.2,167.9l263.9-10.4l0.3-2.1c1.7-12,12.1-21,24.2-21c1.9,0,3.8,0.2,5.7,0.7l3,0.7l0.1-3
			c0.4-11.3,9.6-20.1,20.9-20.1c2.5,0,5,0.5,7.4,1.4l1.8,0.7l1.1-1.6c14.4-20.2,32.7-31.4,51.4-31.4c18.6,0,36.8,11.1,51.2,31.2
			l1.1,1.5l1.8-0.6c2.2-0.8,4.6-1.2,7-1.2c11.2,0,20.5,9.1,20.9,20.2l0.1,3.1l3-0.8c2-0.5,4.2-0.8,6.3-0.8c12.1,0,22.5,9,24.2,21
			l0.3,2.1l263.9,12.1"/>
		<g id="XMLID_6031_">
			<path id="XMLID_6033_" class="st10" d="M758.9,252.2l-260.9,10.1c-9.1,0.4-16.4,7.6-16.9,16.7c-0.3,5.1-4.5,9.1-9.6,9.1
				c-0.8,0-1.7-0.1-2.5-0.3c-1.5-0.4-3-0.6-4.6-0.6c-3.7,0-7.4,1.2-10.5,3.5c-4.3,3.2-6.9,8.2-7.1,13.6c-0.1,3.2-2.8,5.8-6,5.8
				c-0.8,0-1.6-0.2-2.4-0.5c-2.2-0.9-4.6-1.4-6.9-1.4c-5.4,0-10.7,2.5-14.1,7.1c-11.4,15.3-25,23.6-38.4,23.6
				c-13.4,0-27.1-8.5-38.5-23.8c-3.4-4.6-8.7-7.1-14.1-7.1c-2.4,0-4.9,0.5-7.3,1.6c-0.8,0.4-1.6,0.5-2.5,0.5c-3.2,0-5.9-2.6-6-5.8
				c-0.2-5.3-2.8-10.2-7-13.4c-3.1-2.3-6.8-3.6-10.6-3.6c-1.4,0-2.8,0.2-4.2,0.5c-0.7,0.2-1.5,0.3-2.2,0.3c-5.1,0-9.4-4-9.6-9.1
				c-0.5-9.1-7.8-16.3-16.9-16.7L-0.5,251.1"/>
			<path id="XMLID_6032_" class="st10" d="M0.1,188.5l261.1-12c8.5-0.3,15.5-6.7,16.7-15.1c0.7-4.7,4.8-8.3,9.5-8.3
				c0.7,0,1.5,0.1,2.2,0.3c1.4,0.3,2.8,0.5,4.2,0.5c3.8,0,7.5-1.2,10.6-3.6c4.2-3.2,6.8-8.1,7-13.4c0.1-3.2,2.8-5.8,6-5.8
				c0.7,0,1.4,0.1,2.1,0.4c2.1,0.8,4.2,1.2,6.3,1.2c5.6,0,11-2.6,14.3-7.4c11.7-16.4,25.8-25.4,39.6-25.4c13.8,0,27.9,9,39.5,25.2
				c3.4,4.7,8.8,7.4,14.3,7.4c2,0,4-0.3,5.9-1c0.6-0.2,1.3-0.3,2-0.3c3.2,0,5.9,2.6,6,5.8c0.2,5.4,2.8,10.4,7.1,13.6
				c3.1,2.3,6.8,3.5,10.5,3.5c1.5,0,3.1-0.2,4.6-0.6c0.8-0.2,1.6-0.3,2.5-0.3c4.8,0,8.9,3.6,9.5,8.3c1.2,8.4,8.2,14.8,16.7,15.1
				l261.1,12"/>
		</g>
	</g>
	<g id="LowerLineDotter">
		<circle id="XMLID_6030_" fill-rule="evenodd" clip-rule="evenodd" fill="#FFFFFF" cx="750.9" cy="264.3" r="2.8"/>
		<circle id="XMLID_6028_" fill-rule="evenodd" clip-rule="evenodd" fill="#FFFFFF" cx="739.9" cy="264.7" r="2.8"/>
		<circle id="XMLID_6026_" fill-rule="evenodd" clip-rule="evenodd" fill="#FFFFFF" cx="728.9" cy="265.1" r="2.8"/>
		<circle id="XMLID_6024_" fill-rule="evenodd" clip-rule="evenodd" fill="#FFFFFF" cx="717.8" cy="265.5" r="2.8"/>
		<circle id="XMLID_6022_" fill-rule="evenodd" clip-rule="evenodd" fill="#FFFFFF" cx="706.8" cy="265.9" r="2.8"/>
		<circle id="XMLID_6020_" fill-rule="evenodd" clip-rule="evenodd" fill="#FFFFFF" cx="695.8" cy="266.3" r="2.8"/>
		<circle id="XMLID_6018_" fill-rule="evenodd" clip-rule="evenodd" fill="#FFFFFF" cx="684.8" cy="266.6" r="2.8"/>
		<circle id="XMLID_6016_" fill-rule="evenodd" clip-rule="evenodd" fill="#FFFFFF" cx="673.7" cy="267" r="2.8"/>
		<circle id="XMLID_6014_" fill-rule="evenodd" clip-rule="evenodd" fill="#FFFFFF" cx="662.7" cy="267.4" r="2.8"/>
		<circle id="XMLID_6012_" fill-rule="evenodd" clip-rule="evenodd" fill="#FFFFFF" cx="651.7" cy="267.8" r="2.8"/>
		<circle id="XMLID_6010_" fill-rule="evenodd" clip-rule="evenodd" fill="#FFFFFF" cx="640.6" cy="268.2" r="2.8"/>
		<circle id="XMLID_6008_" fill-rule="evenodd" clip-rule="evenodd" fill="#FFFFFF" cx="629.6" cy="268.6" r="2.8"/>
		<circle id="XMLID_6006_" fill-rule="evenodd" clip-rule="evenodd" fill="#FFFFFF" cx="618.6" cy="269" r="2.8"/>
		<circle id="XMLID_6004_" fill-rule="evenodd" clip-rule="evenodd" fill="#FFFFFF" cx="607.5" cy="269.4" r="2.8"/>
		<circle id="XMLID_6002_" fill-rule="evenodd" clip-rule="evenodd" fill="#FFFFFF" cx="596.5" cy="269.8" r="2.8"/>
		<circle id="XMLID_6000_" fill-rule="evenodd" clip-rule="evenodd" fill="#FFFFFF" cx="585.5" cy="270.1" r="2.8"/>
		<circle id="XMLID_5998_" fill-rule="evenodd" clip-rule="evenodd" fill="#FFFFFF" cx="574.4" cy="270.5" r="2.8"/>
		<circle id="XMLID_5996_" fill-rule="evenodd" clip-rule="evenodd" fill="#FFFFFF" cx="563.4" cy="270.9" r="2.8"/>
		<circle id="XMLID_5994_" fill-rule="evenodd" clip-rule="evenodd" fill="#FFFFFF" cx="552.4" cy="271.3" r="2.8"/>
		<circle id="XMLID_5992_" fill-rule="evenodd" clip-rule="evenodd" fill="#FFFFFF" cx="541.3" cy="271.7" r="2.8"/>
		<circle id="XMLID_5990_" fill-rule="evenodd" clip-rule="evenodd" fill="#FFFFFF" cx="530.3" cy="272.1" r="2.8"/>
		<circle id="XMLID_5988_" fill-rule="evenodd" clip-rule="evenodd" fill="#FFFFFF" cx="519.3" cy="272.5" r="2.8"/>
		<circle id="XMLID_5986_" fill-rule="evenodd" clip-rule="evenodd" fill="#FFFFFF" cx="508.2" cy="272.9" r="2.8"/>
		<path id="XMLID_5984_" fill-rule="evenodd" clip-rule="evenodd" fill="#FFFFFF" d="M494.4,273.4c-0.3-1.5,1.2-2.9,2.6-2.9c1.5-0.1,2.8,1.1,2.9,2.7
		c0.1,1.5-1.1,2.8-2.7,2.9C495.7,276,494.8,274.9,494.4,273.4z"/>
		<path id="XMLID_5982_" fill-rule="evenodd" clip-rule="evenodd" fill="#FFFFFF" d="M486.6,280.3c-1.5-0.3-2.3-2.3-1.2-4c1.1-1.7,3.2-1.8,4.1-0.6c1,1.2,1.1,2.7,0.5,3.6
		C489.5,280.2,488.1,280.7,486.6,280.3z"/>
		<path id="XMLID_5980_" fill-rule="evenodd" clip-rule="evenodd" fill="#FFFFFF" d="M483.5,290.8c-1.2-0.9-1.7-2.4-1.2-3.5c0.5-1.1,1.9-1.8,3.4-1.5c1.5,0.3,2.4,2,1.6,3.7
		C486.6,291.1,484.8,291.7,483.5,290.8z"/>
		<path id="XMLID_5978_" fill-rule="evenodd" clip-rule="evenodd" fill="#FFFFFF" d="M475,297.5c-0.5-1.4,0.1-2.9,1.2-3.5c1.1-0.6,2.6-0.3,3.6,0.9c1,1.1,0.6,3.1-1,3.9
		C477.3,299.7,475.5,299,475,297.5z"/>
		<path id="XMLID_5976_" fill-rule="evenodd" clip-rule="evenodd" fill="#FFFFFF" d="M464.1,297.8c0.1-0.8,0.6-1.4,1.3-1.8c0.7-0.4,1.2-0.5,1.9-0.4c1.2,0.2,2.3,1.4,2.3,2.9
		c0.1,1.5-1.4,2.8-3.2,2.5c-0.9-0.1-1.7-0.7-1.9-1.2C464.2,299.2,464,298.5,464.1,297.8z"/>
		<path id="XMLID_5974_" fill-rule="evenodd" clip-rule="evenodd" fill="#FFFFFF" d="M454.5,301.8c-1.3-0.8-1.5-2.9,0.1-4.2c1.6-1.3,3.6-0.7,4.1,0.7
		c0.5,1.4,0.2,2.9-0.6,3.6C457.3,302.6,455.8,302.6,454.5,301.8z"/>
		<path id="XMLID_5972_" fill-rule="evenodd" clip-rule="evenodd" fill="#FFFFFF" d="M451.5,312.3c-1.3-0.7-2-2.1-1.8-3.2c0.3-1.1,1.5-2.1,3.1-2.1c1.5,0,2.8,1.5,2.3,3.4
		C454.7,312.2,452.9,313,451.5,312.3z"/>
		<path id="XMLID_5970_" fill-rule="evenodd" clip-rule="evenodd" fill="#FFFFFF" d="M443.4,319.3c-0.4-1.5,0.2-2.9,1.2-3.5c1-0.5,2.6-0.3,3.6,0.8c1,1.1,0.7,3.1-0.9,4
		C445.6,321.5,443.8,320.8,443.4,319.3z"/>
		<path id="XMLID_5968_" fill-rule="evenodd" clip-rule="evenodd" fill="#FFFFFF" d="M432.6,318.2c0.2-0.7,0.6-1.4,1.3-1.7c0.7-0.3,1.7-0.2,2.2-0.1c1.1,0.4,1.9,1.7,1.8,3.2
		c-0.1,1.5-1.8,2.6-3.6,2c-1-0.4-1.3-0.8-1.5-1.4C432.6,319.7,432.5,319,432.6,318.2z"/>
		<path id="XMLID_5966_" fill-rule="evenodd" clip-rule="evenodd" fill="#FFFFFF" d="M422.8,321.9c-1.3-0.8-1.3-2.9,0.3-4.2c1.6-1.2,3.6-0.5,4.1,0.9c0.5,1.5,0,2.9-0.8,3.5
		C425.6,322.8,424.1,322.8,422.8,321.9z"/>
		<path id="XMLID_5964_" fill-rule="evenodd" clip-rule="evenodd" fill="#FFFFFF" d="M415.7,330.3c-1.1-1.1-1.2-2.8-0.2-3.9c1-1.1,2.7-1.2,3.9-0.2c1.2,1,1.3,2.8,0.2,3.9
		C418.5,331.3,416.8,331.4,415.7,330.3z"/>
		<path id="XMLID_5962_" fill-rule="evenodd" clip-rule="evenodd" fill="#FFFFFF" d="M407.5,337.7c-0.9-1.2-0.7-2.9,0.4-3.9c1.1-0.9,2.8-0.8,3.8,0.3c1,1.1,0.9,2.9-0.3,3.9
		C410.1,339.1,408.4,338.9,407.5,337.7z"/>
		<path id="XMLID_5960_" fill-rule="evenodd" clip-rule="evenodd" fill="#FFFFFF" d="M398.1,343.4c-0.7-1.4-0.1-3,1.1-3.7c1.3-0.7,2.9-0.3,3.7,1c0.8,1.3,0.4,3-1,3.8
		C400.5,345.4,398.7,344.8,398.1,343.4z"/>
		<path id="XMLID_5958_" fill-rule="evenodd" clip-rule="evenodd" fill="#FFFFFF" d="M387.7,347.1c-0.3-1.5,0.6-3,1.9-3.3c1.4-0.4,2.9,0.4,3.4,1.8c0.5,1.4-0.3,3.1-1.9,3.5
		C389.5,349.5,388,348.6,387.7,347.1z"/>
		<path id="XMLID_5956_" fill-rule="evenodd" clip-rule="evenodd" fill="#FFFFFF" d="M376.7,347.8c0.1-1.5,1.4-2.7,2.8-2.7c1.4-0.1,2.6,1.1,2.8,2.7c0.1,1.5-1.1,2.8-2.8,2.9
		C377.8,350.7,376.6,349.4,376.7,347.8z"/>
		<path id="XMLID_5954_" fill-rule="evenodd" clip-rule="evenodd" fill="#FFFFFF" d="M365.9,345.5c0.5-1.5,2-2.2,3.4-1.8c1.4,0.4,2.2,1.9,1.9,3.3c-0.3,1.5-1.8,2.4-3.4,2
		C366.2,348.6,365.4,347,365.9,345.5z"/>
		<path id="XMLID_5952_" fill-rule="evenodd" clip-rule="evenodd" fill="#FFFFFF" d="M356,340.7c0.8-1.3,2.5-1.7,3.7-1c1.2,0.7,1.8,2.3,1.1,3.7c-0.6,1.4-2.4,2-3.8,1.1
		C355.7,343.8,355.2,342.1,356,340.7z"/>
		<path id="XMLID_5940_" fill-rule="evenodd" clip-rule="evenodd" fill="#FFFFFF" d="M347.2,334.1c1-1.1,2.7-1.2,3.8-0.3c1.1,0.9,1.3,2.6,0.4,3.9c-0.9,1.2-2.7,1.4-3.9,0.4
		C346.3,337,346.2,335.2,347.2,334.1z"/>
		<path id="XMLID_5938_" fill-rule="evenodd" clip-rule="evenodd" fill="#FFFFFF" d="M339.6,326.2c1.2-1,2.9-0.8,3.9,0.2c1,1.1,0.9,2.8-0.2,3.9s-2.9,1-3.9-0.2
		C338.3,328.9,338.4,327.1,339.6,326.2z"/>
		<path id="XMLID_5931_" fill-rule="evenodd" clip-rule="evenodd" fill="#FFFFFF" d="M331.8,318.5c0.5-1.5,2.5-2.1,4.1-0.8c1.6,1.3,1.5,3.3,0.2,4.2
		c-1.3,0.8-2.8,0.8-3.6,0.2C331.7,321.4,331.3,319.9,331.8,318.5z"/>
		<path id="XMLID_5929_" fill-rule="evenodd" clip-rule="evenodd" fill="#FFFFFF" d="M321.2,319.6c-0.2-1.5,0.5-2.9,1.6-3.3c0.5-0.2,1.7-0.4,2.4,0c0.7,0.3,1.2,1,1.3,1.7
		c0.1,0.8,0,1.5-0.3,2.1c-0.3,0.6-0.4,1-1.3,1.4C323.1,322.1,321.4,321.1,321.2,319.6z"/>
		<path id="XMLID_5927_" fill-rule="evenodd" clip-rule="evenodd" fill="#FFFFFF" d="M310.7,317.2c1-1.2,2.5-1.5,3.5-1.1c1,0.5,1.7,1.9,1.4,3.4c-0.3,1.5-2.1,2.4-3.8,1.6
		C310.2,320.3,309.8,318.3,310.7,317.2z"/>
		<path id="XMLID_5925_" fill-rule="evenodd" clip-rule="evenodd" fill="#FFFFFF" d="M305.6,307.8c1.5-0.1,2.8,0.8,3.2,1.9c0.3,1.1-0.3,2.5-1.6,3.3
		c-1.3,0.8-3.2,0.1-3.7-1.7C302.9,309.5,304.1,307.8,305.6,307.8z"/>
		<path id="XMLID_5923_" fill-rule="evenodd" clip-rule="evenodd" fill="#FFFFFF" d="M300.2,298.8c0.6-1.4,2.6-1.8,4.1-0.4c1.5,1.4,1.2,3.5-0.2,4.2
		c-1.4,0.7-2.9,0.6-3.6-0.1C299.8,301.7,299.6,300.2,300.2,298.8z"/>
		<path id="XMLID_5921_" fill-rule="evenodd" clip-rule="evenodd" fill="#FFFFFF" d="M289.4,298.4c0.1-1.5,1.1-2.7,2.3-2.9c0.6-0.1,1.2,0,2,0.5c0.7,0.4,1.1,1.1,1.1,1.8
		s-0.2,1.5-0.5,2c-0.2,0.5-0.9,1-1.8,1.1C290.8,301.3,289.3,300,289.4,298.4z"/>
		<path id="XMLID_5919_" fill-rule="evenodd" clip-rule="evenodd" fill="#FFFFFF" d="M279.2,294.9c1-1.2,2.5-1.5,3.6-0.9c1.1,0.6,1.6,2.1,1.2,3.5c-0.5,1.5-2.3,2.2-3.9,1.3
		C278.5,297.9,278.2,296,279.2,294.9z"/>
		<path id="XMLID_5917_" fill-rule="evenodd" clip-rule="evenodd" fill="#FFFFFF" d="M273.3,285.7c1.5-0.3,2.9,0.4,3.4,1.5c0.5,1.1,0,2.7-1.2,3.5c-1.3,0.9-3.1,0.3-3.8-1.3
		C270.9,287.8,271.8,286,273.3,285.7z"/>
		<path id="XMLID_5915_" fill-rule="evenodd" clip-rule="evenodd" fill="#FFFFFF" d="M269.5,275.7c0.9-1.2,3-1.1,4.1,0.6c1.1,1.7,0.3,3.6-1.2,4c-1.5,0.4-2.9-0.2-3.5-1
		C268.4,278.4,268.5,276.9,269.5,275.7z"/>
		<path id="XMLID_5913_" fill-rule="evenodd" clip-rule="evenodd" fill="#FFFFFF" d="M259,273.1c0.1-1.5,1.3-2.7,2.9-2.7c1.4,0,3,1.4,2.6,2.9c-0.3,1.5-1.2,2.6-2.9,2.6
		C260.2,275.9,259,274.7,259,273.1z"/>
		<circle id="XMLID_5911_" fill-rule="evenodd" clip-rule="evenodd" fill="#FFFFFF" cx="250.8" cy="272.8" r="2.8"/>
		<circle id="XMLID_5909_" fill-rule="evenodd" clip-rule="evenodd" fill="#FFFFFF" cx="239.7" cy="272.4" r="2.8"/>
		<circle id="XMLID_5907_" fill-rule="evenodd" clip-rule="evenodd" fill="#FFFFFF" cx="228.7" cy="272" r="2.8"/>
		<circle id="XMLID_5905_" fill-rule="evenodd" clip-rule="evenodd" fill="#FFFFFF" cx="217.7" cy="271.6" r="2.8"/>
		<circle id="XMLID_5903_" fill-rule="evenodd" clip-rule="evenodd" fill="#FFFFFF" cx="206.6" cy="271.2" r="2.8"/>
		<circle id="XMLID_5901_" fill-rule="evenodd" clip-rule="evenodd" fill="#FFFFFF" cx="195.6" cy="270.8" r="2.8"/>
		<circle id="XMLID_5899_" fill-rule="evenodd" clip-rule="evenodd" fill="#FFFFFF" cx="184.6" cy="270.4" r="2.8"/>
		<circle id="XMLID_5897_" fill-rule="evenodd" clip-rule="evenodd" fill="#FFFFFF" cx="173.5" cy="269.9" r="2.8"/>
		<circle id="XMLID_5895_" fill-rule="evenodd" clip-rule="evenodd" fill="#FFFFFF" cx="162.5" cy="269.5" r="2.8"/>
		<circle id="XMLID_5893_" fill-rule="evenodd" clip-rule="evenodd" fill="#FFFFFF" cx="151.5" cy="269.1" r="2.8"/>
		<circle id="XMLID_5891_" fill-rule="evenodd" clip-rule="evenodd" fill="#FFFFFF" cx="140.4" cy="268.7" r="2.8"/>
		<circle id="XMLID_5889_" fill-rule="evenodd" clip-rule="evenodd" fill="#FFFFFF" cx="129.4" cy="268.3" r="2.8"/>
		<circle id="XMLID_5887_" fill-rule="evenodd" clip-rule="evenodd" fill="#FFFFFF" cx="118.4" cy="267.9" r="2.8"/>
		<circle id="XMLID_5885_" fill-rule="evenodd" clip-rule="evenodd" fill="#FFFFFF" cx="107.3" cy="267.5" r="2.8"/>
		<circle id="XMLID_5883_" fill-rule="evenodd" clip-rule="evenodd" fill="#FFFFFF" cx="96.3" cy="267.1" r="2.8"/>
		<circle id="XMLID_5881_" fill-rule="evenodd" clip-rule="evenodd" fill="#FFFFFF" cx="85.3" cy="266.7" r="2.8"/>
		<circle id="XMLID_5879_" fill-rule="evenodd" clip-rule="evenodd" fill="#FFFFFF" cx="74.2" cy="266.2" r="2.8"/>
		<circle id="XMLID_5877_" fill-rule="evenodd" clip-rule="evenodd" fill="#FFFFFF" cx="63.2" cy="265.8" r="2.8"/>
		<circle id="XMLID_5875_" fill-rule="evenodd" clip-rule="evenodd" fill="#FFFFFF" cx="52.2" cy="265.4" r="2.8"/>
		<circle id="XMLID_5873_" fill-rule="evenodd" clip-rule="evenodd" fill="#FFFFFF" cx="41.1" cy="265" r="2.8"/>
		<circle id="XMLID_5871_" fill-rule="evenodd" clip-rule="evenodd" fill="#FFFFFF" cx="30.1" cy="264.6" r="2.8"/>
		<circle id="XMLID_5844_" fill-rule="evenodd" clip-rule="evenodd" fill="#FFFFFF" cx="19.1" cy="264.2" r="2.8"/>
		<circle id="XMLID_5842_" fill-rule="evenodd" clip-rule="evenodd" fill="#FFFFFF" cx="8.1" cy="263.8" r="2.8"/>
		<path id="XMLID_5837_" class="st21" d="M759.2,271.3l-263.8,10.4l-0.1,2.3c-0.7,13-11.4,23.2-24.4,23.2c-2.1,0-4.3-0.3-6.3-0.8
		l-3-0.8l-0.1,3.1c-0.3,11.2-9.7,20.2-20.9,20.2c-2.8,0-5.6-0.6-8.2-1.7l-1.8-0.8l-1.2,1.6c-14.2,18.9-31.9,29.4-49.9,29.4
		c-18.1,0-35.9-10.5-50.1-29.6l-1.2-1.6l-1.8,0.8c-2.7,1.2-5.7,1.9-8.6,1.9c-11.3,0-20.5-8.8-20.9-20.1l-0.1-3l-3,0.7
		c-1.9,0.5-3.8,0.7-5.7,0.7c-13,0-23.8-10.2-24.4-23.2l-0.1-2.3L-0.2,271.3"/>
		<g id="XMLID_5835_">
			<defs>
				<circle id="XMLID_5836_" cx="379.5" cy="220.7" r="76.2"/>
			</defs>
			<clipPath id="XMLID_3_">
				<use xlink:href="#XMLID_5836_"  style="overflow:visible;"/>
			</clipPath>
			<use xlink:href="#XMLID_5836_"  style="overflow:visible;fill:none;stroke:#E4C54B;stroke-width:2.2529;stroke-miterlimit:10;"/>
		</g>
	</g>
	<g id="CircleLineDotter">
		<path id="XMLID_5834_" fill-rule="evenodd" clip-rule="evenodd" fill="#FFFFFF" d="M467.2,229.4c-1.5-0.2-2.7-1.5-2.6-2.9c0.1-1.5,1.4-2.6,2.9-2.6c1.5,0,2.7,1.4,2.6,2.9
		C469.9,228.4,468.7,229.6,467.2,229.4z"/>
		<path id="XMLID_5832_" fill-rule="evenodd" clip-rule="evenodd" fill="#FFFFFF" d="M465.9,238.1c-1.5-0.3-2.5-1.7-2.3-3.2c0.2-1.4,1.6-2.5,3.1-2.3
		c1.5,0.2,2.5,1.6,2.3,3.2C468.7,237.4,467.3,238.4,465.9,238.1z"/>
		<path id="XMLID_5830_" fill-rule="evenodd" clip-rule="evenodd" fill="#FFFFFF" d="M463.7,246.6c-1.4-0.5-2.3-2-2-3.4c0.4-1.4,1.9-2.3,3.3-1.9s2.3,1.9,2,3.4
		S465.1,247.1,463.7,246.6z"/>
		<path id="XMLID_5828_" fill-rule="evenodd" clip-rule="evenodd" fill="#FFFFFF" d="M460.7,254.9c-1.4-0.6-2.1-2.2-1.6-3.6c0.5-1.4,2.1-2.1,3.5-1.6
		c1.4,0.5,2.2,2.1,1.6,3.6C463.7,254.8,462.1,255.5,460.7,254.9z"/>
		<path id="XMLID_5826_" fill-rule="evenodd" clip-rule="evenodd" fill="#FFFFFF" d="M456.9,262.8c-1.3-0.7-1.9-2.4-1.2-3.7c0.6-1.3,2.3-1.9,3.6-1.2s1.9,2.3,1.3,3.7
		C459.8,263,458.2,263.5,456.9,262.8z"/>
		<path id="XMLID_5824_" fill-rule="evenodd" clip-rule="evenodd" fill="#FFFFFF" d="M452.3,270.3c-1.2-0.8-1.6-2.5-0.8-3.8c0.8-1.2,2.4-1.6,3.7-0.9
		c1.3,0.8,1.7,2.5,0.9,3.8C455.2,270.8,453.6,271.1,452.3,270.3z"/>
		<path id="XMLID_5822_" fill-rule="evenodd" clip-rule="evenodd" fill="#FFFFFF" d="M447,277.2c-1.1-1-1.3-2.7-0.4-3.8c0.9-1.2,2.6-1.4,3.8-0.5c1.2,0.9,1.4,2.6,0.5,3.9
		C449.9,278.1,448.1,278.2,447,277.2z"/>
		<path id="XMLID_5820_" fill-rule="evenodd" clip-rule="evenodd" fill="#FFFFFF" d="M441,283.7c-1-1.1-1-2.7-0.1-3.9c1-1.1,2.7-1.1,3.8-0.1c1.1,1,1.2,2.8,0.1,3.9
		C443.9,284.8,442,284.8,441,283.7z"/>
		<path id="XMLID_5818_" fill-rule="evenodd" clip-rule="evenodd" fill="#FFFFFF" d="M434.4,289.5c-1-1.2-0.7-2.8,0.3-3.8c1.1-1,2.8-0.9,3.8,0.2c1,1.1,0.9,2.9-0.3,3.9
		C437.2,290.9,435.3,290.6,434.4,289.5z"/>
		<path id="XMLID_5816_" fill-rule="evenodd" clip-rule="evenodd" fill="#FFFFFF" d="M427.3,294.6c-0.8-1.3-0.4-2.8,0.7-3.8c1.2-0.9,2.9-0.6,3.8,0.6c0.9,1.2,0.6,3-0.6,3.9
		C429.9,296.3,428.1,295.8,427.3,294.6z"/>
		<path id="XMLID_5814_" fill-rule="evenodd" clip-rule="evenodd" fill="#FFFFFF" d="M419.7,299c-0.7-1.4-0.1-2.9,1.1-3.6c1.2-0.8,2.9-0.3,3.7,1c0.8,1.3,0.3,3-1,3.8
		C422.1,300.9,420.4,300.3,419.7,299z"/>
		<path id="XMLID_5812_" fill-rule="evenodd" clip-rule="evenodd" fill="#FFFFFF" d="M411.7,302.6c-0.6-1.4,0.1-2.9,1.5-3.5c1.3-0.6,2.9,0,3.6,1.3c0.6,1.4,0,3-1.4,3.7
		C413.9,304.7,412.2,304,411.7,302.6z"/>
		<path id="XMLID_5810_" fill-rule="evenodd" clip-rule="evenodd" fill="#FFFFFF" d="M403.4,305.4c-0.4-1.5,0.4-2.9,1.8-3.3c1.4-0.5,2.9,0.2,3.4,1.7c0.5,1.4-0.3,3-1.8,3.6
		C405.3,307.7,403.8,306.8,403.4,305.4z"/>
		<path id="XMLID_5808_" fill-rule="evenodd" clip-rule="evenodd" fill="#FFFFFF" d="M394.8,307.3c-0.3-1.5,0.7-2.9,2.2-3.1c1.4-0.4,2.9,0.5,3.2,2c0.4,1.5-0.6,3-2.1,3.4
		C396.5,309.8,395.1,308.8,394.8,307.3z"/>
		<path id="XMLID_5806_" fill-rule="evenodd" clip-rule="evenodd" fill="#FFFFFF" d="M386.1,308.4c-0.1-1.5,1-2.8,2.5-2.9c1.4-0.2,2.8,0.8,3,2.3c0.2,1.5-0.9,2.9-2.4,3.1
		C387.6,311.1,386.2,309.9,386.1,308.4z"/>
		<path id="XMLID_5804_" fill-rule="evenodd" clip-rule="evenodd" fill="#FFFFFF" d="M377.3,308.6c0-1.5,1.3-2.6,2.7-2.7c1.5-0.1,2.7,1.1,2.8,2.6c0.1,1.5-1.2,2.8-2.7,2.9
		C378.5,311.5,377.3,310.1,377.3,308.6z"/>
		<path id="XMLID_5802_" fill-rule="evenodd" clip-rule="evenodd" fill="#FFFFFF" d="M368.6,308c0.2-1.5,1.5-2.5,3-2.4c1.5,0.1,2.6,1.4,2.5,2.9c-0.1,1.5-1.4,2.7-3,2.6
		C369.5,311,368.4,309.4,368.6,308z"/>
		<path id="XMLID_5800_" fill-rule="evenodd" clip-rule="evenodd" fill="#FFFFFF" d="M359.9,306.5c0.4-1.5,1.8-2.3,3.2-2.1c1.4,0.2,2.4,1.6,2.2,3.1
		c-0.2,1.5-1.7,2.5-3.2,2.3C360.5,309.5,359.6,307.9,359.9,306.5z"/>
		<path id="XMLID_5798_" fill-rule="evenodd" clip-rule="evenodd" fill="#FFFFFF" d="M351.5,304.1c0.5-1.5,2-2.1,3.4-1.8c1.4,0.4,2.2,1.8,1.9,3.3c-0.4,1.5-1.9,2.3-3.4,1.9
		C351.8,307.2,351,305.5,351.5,304.1z"/>
		<path id="XMLID_5796_" fill-rule="evenodd" clip-rule="evenodd" fill="#FFFFFF" d="M343.3,300.9c0.6-1.4,2.2-1.9,3.5-1.4c1.4,0.5,2.1,2.1,1.5,3.5
		c-0.5,1.4-2.2,2.1-3.6,1.6C343.3,304,342.7,302.2,343.3,300.9z"/>
		<path id="XMLID_5794_" fill-rule="evenodd" clip-rule="evenodd" fill="#FFFFFF" d="M335.5,296.9c0.8-1.3,2.4-1.7,3.7-1c1.3,0.6,1.8,2.2,1.2,3.6s-2.4,1.9-3.8,1.2
		C335.2,299.9,334.8,298.2,335.5,296.9z"/>
		<path id="XMLID_5792_" fill-rule="evenodd" clip-rule="evenodd" fill="#FFFFFF" d="M328.2,292.1c0.9-1.2,2.6-1.5,3.7-0.6c1.2,0.8,1.6,2.4,0.8,3.7
		c-0.8,1.3-2.5,1.7-3.9,0.8C327.6,295.1,327.3,293.3,328.2,292.1z"/>
		<path id="XMLID_5790_" fill-rule="evenodd" clip-rule="evenodd" fill="#FFFFFF" d="M321.3,286.6c1-1.1,2.7-1.2,3.8-0.3c1.1,0.9,1.4,2.6,0.4,3.8c-0.9,1.2-2.7,1.4-3.9,0.4
		C320.4,289.5,320.3,287.8,321.3,286.6z"/>
		<path id="XMLID_5788_" fill-rule="evenodd" clip-rule="evenodd" fill="#FFFFFF" d="M315,280.5c1.1-1,2.8-1,3.8,0.1c1,1.1,1.1,2.7,0,3.8c-1,1.1-2.9,1.2-3.9,0
		C313.9,283.3,313.9,281.5,315,280.5z"/>
		<path id="XMLID_5786_" fill-rule="evenodd" clip-rule="evenodd" fill="#FFFFFF" d="M309.4,273.8c1.2-0.9,2.9-0.7,3.8,0.5c0.9,1.2,0.8,2.8-0.3,3.8c-1.1,1-3,0.9-3.9-0.4
		C308,276.4,308.2,274.7,309.4,273.8z"/>
		<path id="XMLID_5784_" fill-rule="evenodd" clip-rule="evenodd" fill="#FFFFFF" d="M304.5,266.5c1.3-0.8,3-0.4,3.7,0.8c0.7,1.3,0.5,2.9-0.7,3.8c-1.2,0.9-3.1,0.6-3.8-0.8
		C302.8,269,303.2,267.3,304.5,266.5z"/>
		<path id="XMLID_5782_" fill-rule="evenodd" clip-rule="evenodd" fill="#FFFFFF" d="M300.3,258.8c1.4-0.6,3-0.1,3.6,1.2c0.6,1.3,0.2,2.9-1.1,3.7c-1.3,0.7-3.1,0.3-3.7-1.1
		C298.3,261.2,298.9,259.5,300.3,258.8z"/>
		<path id="XMLID_5780_" fill-rule="evenodd" clip-rule="evenodd" fill="#FFFFFF" d="M296.9,250.8c1.4-0.5,3,0.2,3.5,1.6c0.5,1.4-0.1,2.9-1.5,3.6c-1.4,0.6-3.1,0-3.6-1.5
		C294.7,252.9,295.4,251.3,296.9,250.8z"/>
		<path id="XMLID_5778_" fill-rule="evenodd" clip-rule="evenodd" fill="#FFFFFF" d="M294.3,242.4c1.5-0.4,3,0.5,3.3,1.9c0.3,1.4-0.5,2.9-1.9,3.4c-1.5,0.5-3-0.3-3.4-1.9
		C291.9,244.3,292.8,242.7,294.3,242.4z"/>
		<path id="XMLID_5776_" fill-rule="evenodd" clip-rule="evenodd" fill="#FFFFFF" d="M292.5,233.8c1.5-0.2,2.9,0.8,3.1,2.2c0.2,1.5-0.8,2.9-2.2,3.2c-1.5,0.3-3-0.6-3.2-2.2
		C290,235.4,291,234,292.5,233.8z"/>
		<path id="XMLID_5774_" fill-rule="evenodd" clip-rule="evenodd" fill="#FFFFFF" d="M291.7,225c1.5-0.1,2.8,1.1,2.9,2.5c0,1.5-1,2.8-2.5,3c-1.5,0.2-2.9-0.9-3-2.5
		C289,226.4,290.2,225.1,291.7,225z"/>
		<path id="XMLID_5772_" fill-rule="evenodd" clip-rule="evenodd" fill="#FFFFFF" d="M291.7,216.3c1.5,0.1,2.7,1.3,2.6,2.8c-0.1,1.5-1.3,2.7-2.8,2.7c-1.5,0-2.8-1.2-2.7-2.8
		C288.9,217.4,290.2,216.2,291.7,216.3z"/>
		<path id="XMLID_5770_" fill-rule="evenodd" clip-rule="evenodd" fill="#FFFFFF" d="M292.5,207.5c1.5,0.2,2.5,1.6,2.3,3c-0.3,1.4-1.5,2.5-3,2.4c-1.5-0.1-2.7-1.5-2.4-3
		C289.6,208.4,291,207.3,292.5,207.5z"/>
		<path id="XMLID_5768_" fill-rule="evenodd" clip-rule="evenodd" fill="#FFFFFF" d="M294.3,198.9c1.5,0.4,2.4,1.8,2,3.2c-0.4,1.4-1.7,2.4-3.2,2.1c-1.5-0.3-2.6-1.8-2.1-3.3
		C291.3,199.5,292.8,198.6,294.3,198.9z"/>
		<path id="XMLID_5766_" fill-rule="evenodd" clip-rule="evenodd" fill="#FFFFFF" d="M296.9,190.6c1.4,0.5,2.2,2.1,1.7,3.4c-0.6,1.4-1.9,2.2-3.4,1.8c-1.4-0.4-2.4-2-1.8-3.5
		C293.8,190.8,295.4,190,296.9,190.6z"/>
		<path id="XMLID_5764_" fill-rule="evenodd" clip-rule="evenodd" fill="#FFFFFF" d="M300.3,182.5c1.4,0.7,1.9,2.3,1.3,3.6c-0.7,1.3-2.2,2-3.6,1.4c-1.4-0.6-2.1-2.2-1.4-3.6
		C297.2,182.4,298.9,181.8,300.3,182.5z"/>
		<path id="XMLID_5762_" fill-rule="evenodd" clip-rule="evenodd" fill="#FFFFFF" d="M304.5,174.8c1.3,0.8,1.7,2.5,1,3.7c-0.8,1.2-2.4,1.7-3.7,1c-1.4-0.7-1.9-2.4-1-3.7
		C301.5,174.4,303.2,174,304.5,174.8z"/>
		<path id="XMLID_5760_" fill-rule="evenodd" clip-rule="evenodd" fill="#FFFFFF" d="M309.4,167.5c1.2,0.9,1.5,2.6,0.6,3.8c-0.9,1.2-2.6,1.5-3.8,0.6
		c-1.3-0.8-1.6-2.6-0.6-3.8C306.5,166.9,308.2,166.6,309.4,167.5z"/>
		<path id="XMLID_5758_" fill-rule="evenodd" clip-rule="evenodd" fill="#FFFFFF" d="M315,160.8c1.1,1,1.2,2.8,0.2,3.8c-1,1.1-2.7,1.2-3.9,0.3c-1.2-1-1.3-2.7-0.2-3.9
		S313.9,159.8,315,160.8z"/>
		<path id="XMLID_5756_" fill-rule="evenodd" clip-rule="evenodd" fill="#FFFFFF" d="M321.3,154.7c1,1.1,0.9,2.9-0.2,3.8s-2.8,0.9-3.9-0.1c-1.1-1.1-1-2.8,0.2-3.8
		C318.6,153.5,320.3,153.6,321.3,154.7z"/>
		<path id="XMLID_5754_" fill-rule="evenodd" clip-rule="evenodd" fill="#FFFFFF" d="M328.2,149.2c0.9,1.2,0.6,2.9-0.5,3.8c-1.2,0.9-2.9,0.6-3.9-0.5c-1-1.2-0.7-2.9,0.5-3.8
		C325.6,147.7,327.3,148,328.2,149.2z"/>
		<path id="XMLID_5752_" fill-rule="evenodd" clip-rule="evenodd" fill="#FFFFFF" d="M335.5,144.4c0.8,1.3,0.3,3-0.9,3.8c-1.2,0.8-2.9,0.4-3.8-0.9c-0.8-1.3-0.4-2.9,0.9-3.8
		C333.1,142.7,334.8,143.1,335.5,144.4z"/>
		<path id="XMLID_5750_" fill-rule="evenodd" clip-rule="evenodd" fill="#FFFFFF" d="M343.3,140.4c0.6,1.4,0,3-1.3,3.6c-1.3,0.6-3,0.1-3.7-1.3c-0.7-1.3-0.1-3,1.3-3.6
		C341.1,138.5,342.7,139.1,343.3,140.4z"/>
		<path id="XMLID_5748_" fill-rule="evenodd" clip-rule="evenodd" fill="#FFFFFF" d="M351.5,137.2c0.5,1.4-0.3,3-1.6,3.5s-3-0.2-3.5-1.6c-0.6-1.4,0.1-3,1.6-3.5
		C349.4,135.1,351,135.8,351.5,137.2z"/>
		<path id="XMLID_5746_" fill-rule="evenodd" clip-rule="evenodd" fill="#FFFFFF" d="M359.9,134.9c0.3,1.5-0.6,3-2,3.3s-2.9-0.5-3.3-2c-0.4-1.4,0.4-2.9,2-3.3
		C358.1,132.5,359.6,133.4,359.9,134.9z"/>
		<path id="XMLID_5744_" fill-rule="evenodd" clip-rule="evenodd" fill="#FFFFFF" d="M368.6,133.3c0.2,1.5-0.8,2.9-2.3,3.1c-1.4,0.2-2.8-0.8-3.1-2.3
		c-0.3-1.5,0.7-2.9,2.3-3.1C367,130.8,368.4,131.8,368.6,133.3z"/>
		<path id="XMLID_5742_" fill-rule="evenodd" clip-rule="evenodd" fill="#FFFFFF" d="M377.3,132.7c0,1.5-1.1,2.8-2.6,2.9c-1.5,0.1-2.8-1.1-2.9-2.6c-0.1-1.5,1-2.8,2.6-2.9
		C376,130,377.3,131.2,377.3,132.7z"/>
		<path id="XMLID_5740_" fill-rule="evenodd" clip-rule="evenodd" fill="#FFFFFF" d="M386.1,132.9c-0.1,1.5-1.4,2.7-2.9,2.6c-1.5-0.1-2.6-1.4-2.6-2.9c0-1.5,1.3-2.7,2.9-2.6
		C385.1,130.1,386.2,131.4,386.1,132.9z"/>
		<path id="XMLID_5738_" fill-rule="evenodd" clip-rule="evenodd" fill="#FFFFFF" d="M394.8,134c-0.3,1.5-1.7,2.5-3.1,2.3c-1.4-0.2-2.5-1.6-2.3-3.1c0.2-1.5,1.5-2.5,3.1-2.3
		C394,131.1,395.1,132.5,394.8,134z"/>
		<path id="XMLID_5736_" fill-rule="evenodd" clip-rule="evenodd" fill="#FFFFFF" d="M403.4,135.9c-0.4,1.5-1.9,2.3-3.3,2c-1.4-0.4-2.3-1.9-2-3.3c0.3-1.5,1.8-2.4,3.3-2
		S403.8,134.5,403.4,135.9z"/>
		<path id="XMLID_5734_" fill-rule="evenodd" clip-rule="evenodd" fill="#FFFFFF" d="M411.7,138.7c-0.6,1.4-2.1,2.1-3.5,1.6c-1.4-0.5-2.1-2.1-1.7-3.5c0.5-1.4,2-2.2,3.5-1.6
		C411.5,135.8,412.2,137.3,411.7,138.7z"/>
		<path id="XMLID_5732_" fill-rule="evenodd" clip-rule="evenodd" fill="#FFFFFF" d="M419.7,142.3c-0.7,1.3-2.3,1.9-3.6,1.3c-1.3-0.6-1.9-2.3-1.3-3.7c0.6-1.4,2.2-2,3.6-1.3
		C419.8,139.4,420.4,141,419.7,142.3z"/>
		<path id="XMLID_5730_" fill-rule="evenodd" clip-rule="evenodd" fill="#FFFFFF" d="M427.3,146.7c-0.8,1.3-2.5,1.7-3.8,0.9s-1.7-2.4-0.9-3.8c0.7-1.3,2.4-1.7,3.8-0.9
		C427.7,143.8,428.1,145.5,427.3,146.7z"/>
		<path id="XMLID_5728_" fill-rule="evenodd" clip-rule="evenodd" fill="#FFFFFF" d="M434.4,151.8c-0.9,1.2-2.7,1.4-3.8,0.5c-1.2-0.9-1.4-2.6-0.6-3.8
		c0.9-1.2,2.6-1.5,3.8-0.5C435.1,149,435.4,150.7,434.4,151.8z"/>
		<path id="XMLID_5726_" fill-rule="evenodd" clip-rule="evenodd" fill="#FFFFFF" d="M441,157.6c-1.1,1.1-2.8,1.2-3.9,0.2c-1.1-1-1.2-2.7-0.2-3.9c1-1.2,2.7-1.2,3.9-0.2
		C442,154.8,442.1,156.6,441,157.6z"/>
		<path id="XMLID_5724_" fill-rule="evenodd" clip-rule="evenodd" fill="#FFFFFF" d="M447,164.1c-1.2,1-2.9,0.9-3.9-0.2c-1-1.1-0.9-2.8,0.2-3.9c1.1-1,2.8-1,3.9,0.2
		C448.2,161.4,448.1,163.1,447,164.1z"/>
		<path id="XMLID_5431_" fill-rule="evenodd" clip-rule="evenodd" fill="#FFFFFF" d="M452.3,171.1c-1.3,0.8-3,0.6-3.9-0.6s-0.6-2.9,0.6-3.8c1.2-0.9,2.9-0.7,3.9,0.6
		S453.5,170.2,452.3,171.1z"/>
		<path id="XMLID_5429_" fill-rule="evenodd" clip-rule="evenodd" fill="#FFFFFF" d="M456.9,178.5c-1.3,0.7-3,0.3-3.8-1c-0.8-1.2-0.3-2.9,0.9-3.7c1.3-0.8,3-0.4,3.8,1
		S458.2,177.8,456.9,178.5z"/>
		<path id="XMLID_5180_" fill-rule="evenodd" clip-rule="evenodd" fill="#FFFFFF" d="M460.7,186.4c-1.4,0.6-3,0-3.7-1.3c-0.6-1.3-0.1-2.9,1.3-3.6c1.3-0.7,3-0.1,3.7,1.3
		C462.7,184.2,462.1,185.9,460.7,186.4z"/>
		<path id="XMLID_4229_" fill-rule="evenodd" clip-rule="evenodd" fill="#FFFFFF" d="M463.7,194.7c-1.4,0.4-3-0.3-3.5-1.7c-0.5-1.4,0.2-2.9,1.6-3.5c1.4-0.5,3,0.2,3.5,1.7
		C465.9,192.7,465.2,194.2,463.7,194.7z"/>
		<path id="XMLID_4227_" fill-rule="evenodd" clip-rule="evenodd" fill="#FFFFFF" d="M465.9,203.2c-1.4,0.3-3-0.6-3.3-2c-0.4-1.4,0.5-2.9,2-3.3c1.5-0.4,3,0.5,3.3,2
		C468.3,201.4,467.4,202.9,465.9,203.2z"/>
		<path id="XMLID_4225_" fill-rule="evenodd" clip-rule="evenodd" fill="#FFFFFF" d="M467.2,211.9c-1.5,0.1-2.9-0.9-3.1-2.4c-0.2-1.4,0.8-2.8,2.3-3.1
		c1.5-0.3,2.9,0.8,3.1,2.4C469.7,210.4,468.7,211.7,467.2,211.9z"/>
		<path id="XMLID_2518_" fill-rule="evenodd" clip-rule="evenodd" fill="#FFFFFF" d="M467.6,220.7c-1.5,0-2.8-1.2-2.9-2.7s1.1-2.7,2.6-2.8c1.5-0.1,2.8,1.1,2.9,2.7
		S469.1,220.7,467.6,220.7z"/>
	</g>
	<text x="328.5" class="svg_element" y="191" onclick="choose_text('text1')" id="text1" font-size="36" font-family="Grand Hotel" fill="#FFFFFF" transform="rotate(null,null,null)">Jacaueline<title></title></text>
	<text x="349.5" class="svg_element" y="228" onclick="choose_text('text2')" id="text2" font-size="36" font-family="Grand Hotel" fill="#FFFFFF" transform="rotate(null,null,null)">Kate<title></title></text>
	<text x="315" class="svg_element" y="258.2550048828125" onclick="choose_text('text3')" id="text3" font-size="30" font-family="Grand Hotel" fill="#FFFFFF" transform="rotate(null,null,null)">April 27, 2017<title></title></text>
</g>
</svg>
