<?xml version="1.0" encoding="utf-8"?>
<!-- Generator: Adobe Illustrator 16.0.0, SVG Export Plug-In . SVG Version: 6.00 Build 0)  -->
<!DOCTYPE svg PUBLIC "-//W3C//DTD SVG 1.1//EN" "http://www.w3.org/Graphics/SVG/1.1/DTD/svg11.dtd">
<svg version="1.1" id="Layer_2" xmlns="http://www.w3.org/2000/svg" xmlns:xlink="http://www.w3.org/1999/xlink" x="0px" y="0px"
	 width="759px" height="439px" viewBox="0 0 759 439" style="enable-background:new 0 0 759 439;" xml:space="preserve">
<style type="text/css">
<![CDATA[
	.st0{fill:#4659A7;}
	.st1{fill:#7DA0D4;}
	.st2{fill:#7F5E26;}
	.st3{fill:#151943;}
	.st4{fill:#171719;}
	.st5{fill:#172919;}
	.st6{fill:#18331B;}
	.st7{fill:#E72834;}
	.st8{fill:#E7E9E9;}
	.st9{fill:#E8EAEA;}
	.st10{fill-rule:evenodd;clip-rule:evenodd;fill:none;stroke:#E4C54B;stroke-width:1.7463;stroke-miterlimit:10;}
	.st11{fill:#EAE71E;}
	.st12{fill:#EB185B;}
	.st13{fill:#EC2127;}
	.st14{fill:#503C2C;}
	.st15{fill:#507FC1;}
	.st16{fill:#542D8B;}
	.st17{fill:#8C6828;}
	.st18{fill:#BF2327;}
	.st19{fill:#231F20;}
	.st20{fill:#F7F3A3;}
	.st21{fill-rule:evenodd;clip-rule:evenodd;fill:none;stroke:#E4C54B;stroke-width:2.6195;stroke-miterlimit:10;}
	.st22{fill:#C2922E;}
	.st23{fill:#C597C5;}
	.st24{fill:#966828;}
	.st25{fill:#2B378B;}
	.st26{fill:#FAA532;}
	.st27{fill:#FBCA28;}
	.st28{fill:#FBCD36;}
	.st29{fill-rule:evenodd;clip-rule:evenodd;}
	.st30{fill:#FFFFFF;}
	.st31{fill-rule:evenodd;clip-rule:evenodd;fill:#F0CEE3;}
	.st32{fill:#FFFFFF;stroke:#7DA0D4;stroke-miterlimit:10;}
	.st33{fill:none;}
	.st34{fill:#231F20;stroke:#231F20;stroke-width:0.5;stroke-miterlimit:10;}
	.st35{fill:#679B9B;}
	.st36{fill:#9B732B;}
	.st37{fill:#CB7361;}
	.st38{fill:#CC2228;}
	.st39{fill:#311C10;}
	.st40{fill:#EC2127;stroke:#EC2127;stroke-width:0.5;stroke-miterlimit:10;}
	.st41{fill:#381414;}
	.st42{fill-rule:evenodd;clip-rule:evenodd;fill:#FBCDCD;}
	.st43{fill:#010101;}
	.st44{fill-rule:evenodd;clip-rule:evenodd;fill:#FFFFFF;}
	.st45{fill:#FFFFFF;stroke:#FFFFFF;stroke-miterlimit:10;}
	.st46{fill-rule:evenodd;clip-rule:evenodd;fill:#641E0F;}
	.st47{fill:#D3D3D3;}
	.st48{fill:#060707;}
	.st49{fill:#080908;}
	.st50{fill:#721212;}
	.st51{fill:#0E8141;}
	.st52{fill:#424143;}
	.st53{fill:#4259A8;}
]]>
</style>
<g id="band">
	<path id="Background" fill="#F7F3A3" d="M759,151.8H472.2C452.7,116.4,418.5,93,379.5,93c-39,0-73.2,23.4-92.7,58.8H0v135.5h286.8
		c19.5,35.3,53.7,58.8,92.7,58.8c39,0,73.2-23.4,92.7-58.8H759V151.8z"/>
	<g id="Ring_1_">
		<path id="XMLID_2089_" d="M379.5,107.1C379.5,107.1,379.5,107.1,379.5,107.1C379.4,107.1,379.4,107.1,379.5,107.1
			C379.4,107.1,379.4,107.1,379.5,107.1c-0.1,0-0.1,0-0.1,0c0,0,0,0,0,0c0,0,0,0,0,0c0,0,0,0,0,0c0,0,0,0,0,0c0,0,0,0,0,0
			c0,0,0,0,0,0c0,0,0,0,0,0c0,0,0,0,0,0c0,0,0,0,0,0c0,0,0,0,0,0c0,0,0,0,0,0c0,0,0,0,0,0c0,0,0,0,0,0c0,0,0,0,0,0s0,0,0,0
			c0,0,0,0,0,0c0,0,0,0,0,0c0,0,0,0,0,0l0,0c-0.6,0-1.1,0-1.7,0l0.1,2.2c0.7,0,1.4,0,2.1,0L379.5,107.1L379.5,107.1L379.5,107.1z
			 M375.2,107.2c-0.7,0-1.4,0.1-2.2,0.1l0.2,2.2c0.7-0.1,1.4-0.1,2.1-0.1L375.2,107.2L375.2,107.2z M370.9,107.5
			c-0.7,0.1-1.4,0.2-2.1,0.2l0.3,2.2c0.7-0.1,1.4-0.2,2.1-0.2L370.9,107.5L370.9,107.5z M366.6,108.1L366.6,108.1
			C366.6,108.1,366.6,108.1,366.6,108.1C366.6,108.1,366.6,108.1,366.6,108.1C366.5,108.1,366.5,108.1,366.6,108.1
			C366.5,108.1,366.5,108.1,366.6,108.1c-0.1,0-0.1,0-0.1,0c0,0,0,0-0.1,0h0c0,0,0,0,0,0c0,0,0,0,0,0c0,0,0,0,0,0c0,0,0,0,0,0
			c0,0,0,0,0,0l0,0c-0.2,0-0.3,0.1-0.5,0.1c0,0,0,0,0,0c0,0,0,0,0,0c0,0,0,0,0,0c0,0,0,0,0,0c0,0,0,0,0,0c0,0,0,0,0,0c0,0,0,0,0,0
			c0,0,0,0,0,0c0,0,0,0,0,0s0,0,0,0c-0.4,0.1-0.8,0.1-1.2,0.2l0.4,2.2c0.7-0.1,1.4-0.2,2.1-0.3L366.6,108.1L366.6,108.1z
			 M362.3,108.8c-0.4,0.1-0.8,0.2-1.2,0.3l0,0c0,0,0,0,0,0c0,0,0,0,0,0c0,0,0,0,0,0c0,0,0,0,0,0c0,0,0,0,0,0c0,0,0,0,0,0
			c0,0,0,0,0,0c0,0,0,0,0,0c0,0,0,0,0,0c0,0,0,0,0,0c0,0,0,0,0,0c0,0,0,0,0,0h0c0,0,0,0,0,0c0,0,0,0,0,0c-0.2,0-0.4,0.1-0.7,0.1
			l0.5,2.2c0.7-0.2,1.4-0.3,2.1-0.5L362.3,108.8L362.3,108.8z M358.1,109.8c-0.4,0.1-0.8,0.2-1.2,0.3c0,0,0,0,0,0c0,0,0,0,0,0
			c0,0,0,0,0,0c0,0,0,0,0,0c0,0,0,0,0,0s0,0,0,0c0,0,0,0,0,0c0,0,0,0,0,0c0,0,0,0,0,0l0,0c-0.2,0.1-0.5,0.1-0.7,0.2l0.6,2.2
			c0.7-0.2,1.4-0.4,2-0.6L358.1,109.8L358.1,109.8z M354,111c-0.4,0.1-0.8,0.2-1.2,0.4c0,0,0,0,0,0c0,0,0,0,0,0c0,0,0,0,0,0
			c0,0,0,0,0,0c0,0,0,0,0,0c0,0,0,0,0,0c0,0,0,0,0,0c0,0,0,0,0,0c0,0,0,0,0,0h0c-0.2,0.1-0.5,0.2-0.7,0.2l0.7,2.1
			c0.7-0.2,1.3-0.4,2-0.7L354,111L354,111z M349.9,112.4c-0.3,0.1-0.6,0.2-0.9,0.3c0,0,0,0,0,0c0,0,0,0,0,0c0,0,0,0,0,0c0,0,0,0,0,0
			c0,0,0,0,0,0s0,0,0,0c0,0,0,0,0,0c0,0,0,0,0,0c-0.3,0.1-0.7,0.3-1,0.4l0.8,2.1c0.7-0.3,1.3-0.5,2-0.8L349.9,112.4L349.9,112.4z
			 M345.9,114c-0.7,0.3-1.3,0.6-2,0.9l0.9,2c0.6-0.3,1.3-0.6,1.9-0.9L345.9,114L345.9,114z M342,115.8c-0.6,0.3-1.3,0.6-1.9,1l1,2
			c0.6-0.3,1.3-0.6,1.9-0.9L342,115.8L342,115.8z M338.1,117.8c-0.3,0.1-0.5,0.3-0.8,0.4l0,0c-0.1,0-0.1,0.1-0.2,0.1h0c0,0,0,0,0,0
			l0,0c0,0,0,0,0,0c0,0,0,0,0,0c0,0,0,0,0,0c0,0,0,0,0,0c0,0,0,0,0,0c0,0,0,0,0,0c0,0,0,0,0,0c0,0,0,0,0,0c0,0,0,0-0.1,0
			c0,0,0,0,0,0c0,0,0,0,0,0c0,0,0,0,0,0c0,0,0,0,0,0c0,0,0,0,0,0c0,0,0,0,0,0c0,0,0,0,0,0c0,0,0,0,0,0c0,0,0,0,0,0c0,0,0,0,0,0
			c-0.2,0.1-0.4,0.2-0.5,0.3l1.1,1.9c0.6-0.4,1.2-0.7,1.8-1L338.1,117.8L338.1,117.8z M334.4,120c-0.6,0.4-1.2,0.8-1.8,1.1l1.2,1.9
			c0.6-0.4,1.2-0.8,1.8-1.1L334.4,120L334.4,120z M330.7,122.3c-0.5,0.4-1.1,0.7-1.6,1.1c0,0,0,0,0,0c0,0,0,0,0,0c0,0,0,0,0,0
			c0,0,0,0,0,0c0,0,0,0,0,0c0,0,0,0,0,0c0,0,0,0,0,0c0,0,0,0,0,0c0,0-0.1,0-0.1,0.1l1.3,1.8c0.6-0.4,1.2-0.8,1.7-1.2L330.7,122.3
			L330.7,122.3z M327.2,124.8c-0.2,0.1-0.3,0.3-0.5,0.4l0,0c0,0,0,0,0,0c0,0,0,0,0,0c0,0,0,0,0,0c0,0,0,0,0,0c0,0,0,0,0,0
			c0,0,0,0,0,0c0,0,0,0,0,0c-0.4,0.3-0.7,0.6-1.1,0.8l1.4,1.8c0.6-0.4,1.1-0.9,1.7-1.3L327.2,124.8L327.2,124.8z M323.8,127.4
			c-0.1,0.1-0.3,0.2-0.4,0.3l0,0c0,0,0,0,0,0c0,0,0,0,0,0c0,0,0,0,0,0c0,0,0,0,0,0c0,0,0,0,0,0c-0.3,0.3-0.6,0.5-0.9,0.8l0,0
			c0,0,0,0,0,0c0,0,0,0,0,0c0,0,0,0,0,0c0,0,0,0,0,0c0,0,0,0,0,0c0,0,0,0,0,0c0,0,0,0,0,0c-0.1,0-0.1,0.1-0.2,0.1l1.5,1.7
			c0.5-0.5,1.1-0.9,1.6-1.3L323.8,127.4L323.8,127.4z M320.5,130.2c-0.2,0.2-0.4,0.3-0.5,0.5l0,0c0,0,0,0,0,0c0,0,0,0,0,0
			c0,0,0,0,0,0c0,0,0,0,0,0c0,0,0,0,0,0c0,0,0,0,0,0c0,0,0,0,0,0c0,0,0,0,0,0c0,0,0,0,0,0c0,0,0,0,0,0c0,0,0,0,0,0c0,0,0,0,0,0
			c0,0,0,0,0,0c0,0,0,0,0,0c0,0,0,0,0,0c0,0,0,0,0,0c0,0,0,0,0,0c-0.1,0.1-0.1,0.1-0.2,0.2l0,0c0,0-0.1,0.1-0.1,0.1l0,0
			c0,0,0,0-0.1,0.1l0,0c0,0-0.1,0.1-0.1,0.1c0,0,0,0,0,0c0,0,0,0,0,0c0,0,0,0,0,0c0,0,0,0,0,0c0,0,0,0,0,0c0,0,0,0,0,0c0,0,0,0,0,0
			l0,0c-0.1,0.1-0.2,0.1-0.2,0.2l1.5,1.7c0.5-0.5,1-1,1.6-1.4L320.5,130.2L320.5,130.2z M317.3,133.2c-0.2,0.2-0.5,0.5-0.7,0.7l0,0
			c0,0,0,0,0,0c0,0,0,0,0,0c0,0,0,0,0,0c0,0,0,0,0,0c0,0-0.1,0.1-0.1,0.1l0,0c0,0,0,0,0,0c0,0,0,0,0,0c0,0,0,0,0,0c0,0,0,0,0,0
			c0,0,0,0,0,0c0,0,0,0,0,0c0,0,0,0,0,0c0,0,0,0,0,0c0,0,0,0,0,0l0,0c0,0,0,0,0,0c0,0,0,0,0,0c0,0,0,0,0,0c0,0,0,0,0,0c0,0,0,0,0,0
			c0,0,0,0,0,0s0,0,0,0c0,0,0,0,0,0c0,0,0,0,0,0c0,0,0,0,0,0c0,0,0,0,0,0c0,0,0,0,0,0c0,0,0,0,0,0c0,0,0,0,0,0c0,0,0,0,0,0s0,0,0,0
			c0,0,0,0,0,0c0,0,0,0,0,0c0,0,0,0,0,0c0,0,0,0,0,0c0,0,0,0,0,0c0,0,0,0,0,0l0,0c-0.1,0.1-0.2,0.2-0.2,0.2l1.6,1.6
			c0.5-0.5,1-1,1.5-1.5L317.3,133.2L317.3,133.2z M314.3,136.2c-0.5,0.5-1,1-1.5,1.6l1.7,1.5c0.5-0.5,1-1,1.4-1.5L314.3,136.2
			L314.3,136.2z M311.4,139.4c-0.4,0.5-0.8,1-1.3,1.5l0,0c0,0,0,0,0,0c0,0,0,0,0,0c0,0,0,0,0,0c0,0,0,0,0,0c0,0,0,0,0,0c0,0,0,0,0,0
			l0,0l1.7,1.4c0.5-0.5,0.9-1.1,1.4-1.6L311.4,139.4L311.4,139.4z M308.6,142.7c-0.5,0.6-0.9,1.1-1.3,1.7l1.8,1.4
			c0.4-0.6,0.9-1.1,1.3-1.7L308.6,142.7L308.6,142.7z M305.9,146.1c0,0-0.1,0.1-0.1,0.1l0,0c0,0,0,0,0,0c0,0,0,0,0,0c0,0,0,0,0,0
			c0,0,0,0,0,0c0,0,0,0,0,0c-0.3,0.4-0.6,0.8-0.9,1.2c0,0,0,0,0,0c0,0,0,0,0,0c0,0,0,0,0,0c0,0,0,0,0,0c0,0,0,0,0,0c0,0,0,0,0,0
			c0,0,0,0,0,0c0,0,0,0,0,0c0,0,0,0,0,0c0,0,0,0,0,0l1.8,1.3c0.4-0.6,0.8-1.1,1.3-1.7L305.9,146.1L305.9,146.1z M303.4,149.6
			c-0.2,0.2-0.3,0.5-0.5,0.7l0,0c0,0,0,0.1-0.1,0.1c0,0,0,0,0,0c0,0,0,0,0,0c0,0,0,0,0,0c0,0,0,0,0,0c0,0,0,0,0,0c0,0,0,0,0,0
			c0,0,0,0,0,0c0,0,0,0,0,0c0,0,0,0,0,0c0,0,0,0,0,0c0,0,0,0,0,0c0,0,0,0,0,0c0,0,0,0,0,0c0,0,0,0,0,0c0,0,0,0,0,0s0,0,0,0
			c0,0,0,0,0,0c0,0,0,0,0,0c0,0,0,0,0,0c0,0,0,0,0,0c0,0,0,0,0,0c0,0,0,0,0,0c0,0,0,0,0,0c0,0,0,0,0,0c0,0,0,0,0,0c0,0,0,0,0,0
			c0,0,0,0,0,0c0,0,0,0,0,0c0,0,0,0,0,0.1c0,0,0,0,0,0c0,0,0,0,0,0.1c0,0,0,0,0,0c0,0,0,0,0,0.1l1.9,1.2c0.4-0.6,0.8-1.2,1.2-1.8
			L303.4,149.6L303.4,149.6z M301,153.2c-0.1,0.1-0.1,0.2-0.2,0.3l0,0c0,0,0,0,0,0c0,0,0,0,0,0c0,0,0,0,0,0c0,0,0,0,0,0c0,0,0,0,0,0
			c0,0,0,0,0,0c0,0,0,0,0,0c0,0,0,0,0,0c0,0,0,0,0,0c0,0,0,0,0,0.1c0,0,0,0,0,0c-0.2,0.4-0.5,0.8-0.7,1.2l1.9,1.2
			c0.4-0.6,0.7-1.2,1.1-1.8L301,153.2L301,153.2z M298.8,156.9C298.8,157,298.8,157,298.8,156.9C298.7,157,298.7,157,298.8,156.9
			c-0.4,0.6-0.7,1.1-1,1.7c0,0,0,0,0,0c0,0,0,0,0,0.1c0,0,0,0,0,0c0,0,0,0,0,0c0,0,0,0,0,0c0,0,0,0,0,0c0,0,0,0,0,0s0,0,0,0l2,1.1
			c0.3-0.6,0.7-1.2,1-1.8L298.8,156.9L298.8,156.9z M296.7,160.7c-0.2,0.3-0.3,0.6-0.5,0.9c0,0,0,0,0,0c0,0,0,0,0,0.1c0,0,0,0,0,0
			c0,0,0,0,0,0c0,0,0,0,0,0c0,0,0,0,0,0c0,0,0,0,0,0c0,0,0,0,0,0c0,0,0,0,0,0c0,0,0,0,0,0c0,0,0,0,0,0c0,0,0,0,0,0c0,0,0,0,0,0.1
			l0,0c0,0,0,0,0,0.1l0,0c-0.1,0.2-0.2,0.4-0.3,0.5l2,1c0.3-0.6,0.6-1.3,1-1.9L296.7,160.7L296.7,160.7z M294.7,164.6
			c-0.3,0.6-0.6,1.2-0.9,1.8v0c0,0,0,0,0,0.1c0,0,0,0,0,0c0,0,0,0,0,0c0,0,0,0,0,0c0,0,0,0,0,0l2,0.9c0.3-0.6,0.6-1.3,0.9-1.9
			L294.7,164.6L294.7,164.6z M292.9,168.5C292.9,168.5,292.9,168.5,292.9,168.5c0,0.1,0,0.1,0,0.1c0,0,0,0,0,0c0,0,0,0,0,0
			c0,0,0,0,0,0c0,0,0,0,0,0c0,0,0,0,0,0c0,0,0,0,0,0c0,0,0,0,0,0c0,0,0,0,0,0c0,0,0,0,0,0c0,0,0,0,0,0c0,0,0,0,0,0c0,0,0,0,0,0
			c0,0,0,0,0,0c0,0,0,0,0,0c0,0,0,0,0,0c0,0,0,0,0,0c0,0,0,0,0,0c0,0,0,0,0,0c0,0,0,0,0,0c0,0,0,0,0,0c0,0,0,0,0,0.1c0,0,0,0,0,0
			c-0.2,0.4-0.3,0.8-0.5,1.2c0,0,0,0,0,0c0,0,0,0,0,0l2.1,0.9c0.3-0.7,0.6-1.3,0.8-1.9L292.9,168.5L292.9,168.5z M291.2,172.5
			c-0.3,0.7-0.5,1.3-0.8,2l2.1,0.8c0.3-0.7,0.5-1.3,0.8-2L291.2,172.5L291.2,172.5z M289.7,176.5
			C289.7,176.5,289.7,176.5,289.7,176.5C289.7,176.5,289.7,176.5,289.7,176.5C289.7,176.5,289.7,176.6,289.7,176.5
			C289.7,176.6,289.7,176.6,289.7,176.5c0,0.1,0,0.1-0.1,0.1c0,0,0,0,0,0c0,0,0,0,0,0c0,0,0,0,0,0c0,0,0,0,0,0c0,0,0,0,0,0
			c0,0,0,0,0,0c0,0,0,0,0,0c0,0,0,0,0,0c0,0,0,0,0,0c0,0,0,0,0,0c0,0,0,0,0,0c0,0,0,0,0,0c0,0,0,0,0,0c0,0,0,0,0,0c0,0,0,0,0,0
			c0,0,0,0,0,0c0,0,0,0,0,0c0,0,0,0,0,0c0,0,0,0,0,0c0,0,0,0,0,0c0,0,0,0,0,0c0,0,0,0,0,0c0,0,0,0,0,0c0,0,0,0,0,0c0,0,0,0,0,0
			c0,0,0,0,0,0c0,0,0,0,0,0c0,0,0,0,0,0c0,0,0,0,0,0c0,0,0,0,0,0c0,0,0,0,0,0c0,0,0,0,0,0c0,0,0,0,0,0c0,0,0,0,0,0c0,0,0,0,0,0
			c0,0,0,0,0,0c0,0,0,0,0,0c0,0,0,0,0,0c0,0,0,0,0,0c0,0,0,0,0,0c0,0,0,0,0,0c0,0,0,0,0,0c0,0,0,0,0,0c0,0,0,0,0,0c0,0,0,0,0,0
			c0,0,0,0,0,0c0,0,0,0,0,0c0,0,0,0,0,0c0,0,0,0,0,0c0,0,0,0,0,0c0,0,0,0,0,0c0,0,0,0,0,0c0,0,0,0,0,0c0,0,0,0,0,0c0,0,0,0,0,0
			c0,0,0,0,0,0c0,0,0,0,0,0.1c0,0,0,0,0,0c0,0,0,0,0,0.1v0l2.1,0.7c0.2-0.7,0.5-1.3,0.7-2L289.7,176.5L289.7,176.5z M288.3,180.6
			c-0.1,0.4-0.3,0.9-0.4,1.3c0,0,0,0,0,0c0,0,0,0,0,0c0,0,0,0,0,0c0,0,0,0,0,0c0,0,0,0,0,0c0,0,0,0,0,0c0,0,0,0,0,0c0,0,0,0,0,0
			c0,0,0,0,0,0.1c0,0,0,0,0,0c0,0,0,0,0,0c0,0,0,0,0,0c0,0,0,0,0,0.1c0,0,0,0,0,0c0,0,0,0,0,0c0,0,0,0,0,0c0,0,0,0,0,0.1
			c0,0,0,0,0,0c0,0,0,0,0,0.1c0,0,0,0,0,0c0,0,0,0,0,0c0,0,0,0,0,0c0,0,0,0,0,0c0,0,0,0,0,0l2.1,0.6c0.2-0.7,0.4-1.4,0.6-2
			L288.3,180.6L288.3,180.6z M287.1,184.7c-0.2,0.7-0.4,1.4-0.6,2.1l2.2,0.6c0.2-0.7,0.4-1.4,0.6-2L287.1,184.7L287.1,184.7z
			 M286,188.9c0,0.1-0.1,0.3-0.1,0.4c0,0,0,0,0,0c0,0,0,0,0,0c0,0,0,0,0,0c0,0,0,0,0,0c0,0,0,0,0,0c0,0,0,0,0,0c0,0,0,0,0,0
			c0,0,0,0,0,0c0,0,0,0,0,0c0,0,0,0,0,0c0,0,0,0.1,0,0.1v0c-0.1,0.5-0.2,0.9-0.3,1.4l2.2,0.5c0.2-0.7,0.3-1.4,0.5-2.1L286,188.9
			L286,188.9z M285,193.1c-0.1,0.7-0.3,1.4-0.4,2.1l2.2,0.4c0.1-0.7,0.3-1.4,0.4-2.1L285,193.1L285,193.1z M284.2,197.4
			c0,0.2-0.1,0.3-0.1,0.5c0,0,0,0,0,0c0,0,0,0,0,0c0,0,0,0,0,0c0,0,0,0,0,0c0,0,0,0,0,0c0,0,0,0,0,0c0,0,0,0,0,0c0,0,0,0,0,0
			c0,0,0,0,0,0c0,0,0,0,0,0c0,0.3-0.1,0.6-0.1,0.9c0,0,0,0,0,0c0,0,0,0,0,0c0,0,0,0,0,0c0,0,0,0,0,0c0,0.2-0.1,0.3-0.1,0.5l2.2,0.3
			c0.1-0.7,0.2-1.4,0.3-2.1L284.2,197.4L284.2,197.4z M283.5,201.6c0,0.1,0,0.1,0,0.2l0,0c0,0,0,0,0,0v0c0,0,0,0.1,0,0.1
			c0,0,0,0,0,0c0,0,0,0,0,0c0,0,0,0,0,0c0,0,0,0,0,0c0,0,0,0,0,0c0,0,0,0,0,0c0,0,0,0,0,0c0,0,0,0,0,0c0,0,0,0,0,0c0,0,0,0,0,0
			c0,0,0,0,0,0c0,0,0,0.1,0,0.1c0,0,0,0,0,0c0,0,0,0,0,0v0c-0.1,0.4-0.1,0.8-0.2,1.3c0,0,0,0,0,0c0,0,0,0,0,0c0,0,0,0,0,0
			c0,0,0,0,0,0c0,0,0,0,0,0v0c0,0,0,0.1,0,0.1l2.2,0.3c0.1-0.7,0.2-1.4,0.3-2.1L283.5,201.6L283.5,201.6z M283,205.9
			c0,0.2,0,0.3,0,0.5c0,0,0,0,0,0c0,0,0,0,0,0c0,0,0,0,0,0c0,0,0,0,0,0c0,0,0,0,0,0c0,0,0,0,0,0c0,0,0,0,0,0c0,0,0,0,0,0
			c0,0.4-0.1,0.8-0.1,1.1c0,0,0,0,0,0c0,0,0,0,0,0c0,0,0,0,0,0c0,0,0,0,0,0c0,0,0,0,0,0c0,0,0,0,0,0c0,0.1,0,0.2,0,0.3l2.2,0.2
			c0.1-0.7,0.1-1.4,0.2-2.1L283,205.9L283,205.9z M282.6,210.2c-0.1,0.7-0.1,1.4-0.1,2.2l2.2,0.1c0-0.7,0.1-1.4,0.1-2.1L282.6,210.2
			L282.6,210.2z M282.4,214.5c0,0.7,0,1.4-0.1,2.2l2.2,0c0-0.7,0-1.4,0.1-2.1L282.4,214.5L282.4,214.5z M282.3,218.8
			c0,0.2,0,0.4,0,0.6c0,0,0,0,0,0c0,0,0,0,0,0c0,0,0,0,0,0c0,0,0,0,0,0c0,0,0,0,0,0c0,0,0,0,0,0c0,0,0,0,0,0c0,0,0,0,0,0
			c0,0,0,0,0,0s0,0,0,0c0,0,0,0,0,0s0,0,0,0c0,0,0,0,0,0c0,0,0,0,0,0c0,0,0,0,0,0c0,0,0,0,0,0c0,0,0,0,0,0c0,0,0,0,0,0c0,0,0,0,0,0
			c0,0,0,0,0,0c0,0,0,0,0,0c0,0,0,0,0,0c0,0,0,0,0,0c0,0,0,0,0,0c0,0,0,0,0,0c0,0,0,0,0,0s0,0,0,0c0,0,0,0,0,0s0,0,0,0c0,0,0,0,0,0
			c0,0,0,0,0,0c0,0,0,0,0,0c0,0,0,0,0,0c0,0,0,0,0,0c0,0,0,0,0,0c0,0,0,0,0,0c0,0,0,0,0,0c0,0,0,0,0,0c0,0,0,0,0,0c0,0,0,0,0,0l0,0
			c0,0.2,0,0.4,0,0.6l2.2,0c0-0.5,0-1,0-1.5l0-0.6L282.3,218.8L282.3,218.8z M284.6,223.1l-2.2,0.1c0,0.3,0,0.7,0,1c0,0,0,0,0,0
			c0,0,0,0,0,0c0,0,0,0,0,0c0,0,0,0,0,0c0,0,0,0,0,0l0,0c0,0.3,0,0.7,0,1l2.2-0.1C284.6,224.5,284.6,223.8,284.6,223.1L284.6,223.1z
			 M284.8,227.3l-2.2,0.1c0,0.7,0.1,1.4,0.1,2.2l2.2-0.2C284.9,228.8,284.8,228.1,284.8,227.3L284.8,227.3z M285.1,231.6l-2.2,0.2
			c0,0.5,0.1,1,0.1,1.5c0,0,0,0,0,0c0,0,0,0,0,0c0,0,0,0,0,0c0,0,0,0,0,0c0,0.2,0,0.4,0.1,0.6l2.2-0.2
			C285.3,233,285.2,232.3,285.1,231.6L285.1,231.6z M285.6,235.8l-2.2,0.3c0,0.2,0,0.4,0.1,0.5c0,0,0,0,0,0c0,0,0,0,0,0c0,0,0,0,0,0
			c0,0,0,0,0,0c0,0,0,0,0,0v0c0,0,0,0,0,0c0,0,0,0,0,0c0.1,0.5,0.1,1,0.2,1.5l2.2-0.3C285.8,237.2,285.7,236.5,285.6,235.8
			L285.6,235.8z M286.2,240l-2.2,0.4c0,0.1,0,0.2,0.1,0.3c0,0,0,0,0,0c0,0,0,0,0,0c0,0,0,0,0,0c0,0,0,0,0,0c0.1,0.3,0.1,0.7,0.2,1
			l0,0c0,0,0,0,0,0c0,0,0,0,0,0c0,0,0,0,0,0c0,0,0,0,0,0c0,0,0,0,0,0c0,0,0,0,0,0c0,0,0,0,0,0c0,0.2,0.1,0.4,0.1,0.6l2.2-0.4
			C286.4,241.4,286.3,240.7,286.2,240L286.2,240z M286.9,244.2l-2.2,0.4c0.1,0.7,0.3,1.4,0.4,2.1l2.2-0.5
			C287.2,245.6,287.1,244.9,286.9,244.2L286.9,244.2z M287.8,248.3l-2.2,0.5c0,0,0,0,0,0c0,0,0,0,0,0c0,0,0,0,0,0c0,0,0,0,0,0
			c0,0,0,0,0,0c0,0,0,0,0,0c0,0,0,0,0,0c0.2,0.7,0.3,1.3,0.5,2l2.2-0.5C288.2,249.7,288,249,287.8,248.3L287.8,248.3z M288.9,252.4
			l-2.2,0.6c0,0.1,0,0.2,0.1,0.3c0,0,0,0,0,0c0,0,0,0,0,0.1c0,0,0,0,0,0c0,0,0,0,0,0c0,0,0,0,0,0c0,0,0,0,0,0c0,0,0,0,0,0
			c0,0,0,0,0,0c0,0,0,0,0,0c0,0,0,0,0,0c0,0,0,0,0,0c0,0,0,0,0,0c0,0,0,0,0,0c0,0,0,0,0,0c0,0,0,0,0,0c0,0,0,0,0,0c0,0,0,0,0,0
			c0,0,0,0,0,0c0,0,0,0,0,0c0,0,0,0,0,0c0,0,0,0,0,0c0,0,0,0,0,0c0,0,0,0,0,0c0,0,0,0,0,0s0,0,0,0c0,0,0,0,0,0.1c0,0,0,0,0,0
			c0,0,0,0.1,0,0.1l0,0c0.1,0.3,0.2,0.5,0.2,0.8l2.2-0.6C289.3,253.8,289.1,253.1,288.9,252.4L288.9,252.4z M290.1,256.5l-2.1,0.7
			c0,0.1,0.1,0.2,0.1,0.3c0,0,0,0,0,0c0,0,0,0.1,0,0.1c0,0,0,0,0,0c0,0,0,0,0,0.1c0,0,0,0,0,0c0,0,0,0,0,0c0,0,0,0,0,0c0,0,0,0,0,0
			c0,0,0,0,0,0c0,0,0,0,0,0c0,0,0,0,0,0.1c0,0,0,0,0,0c0,0,0,0,0,0c0,0,0,0,0,0c0,0,0,0,0,0.1c0,0,0,0,0,0c0.1,0.4,0.3,0.8,0.4,1.2
			l2.1-0.7C290.5,257.9,290.3,257.2,290.1,256.5L290.1,256.5z M291.4,260.5l-2.1,0.7c0,0,0,0,0,0c0,0,0,0,0,0
			c0.1,0.3,0.2,0.6,0.3,0.9v0c0,0,0,0,0,0.1c0,0,0,0,0,0c0,0,0,0.1,0,0.1c0,0,0,0,0,0c0,0,0,0,0,0c0,0,0,0,0,0c0,0,0,0,0,0
			c0,0,0,0,0,0c0,0,0,0,0,0c0,0,0,0,0,0c0,0,0,0,0,0c0,0,0,0,0,0c0,0,0,0,0,0c0,0,0,0,0,0.1c0,0,0,0,0,0c0,0,0,0,0,0.1c0,0,0,0,0,0
			c0.1,0.2,0.1,0.3,0.2,0.5l2.1-0.8C291.9,261.9,291.6,261.2,291.4,260.5L291.4,260.5z M292.8,264.5l-2.1,0.8
			c0.1,0.3,0.2,0.5,0.3,0.8c0,0,0,0,0,0c0,0,0,0.1,0,0.1c0,0,0,0,0,0c0,0,0,0,0,0c0,0,0,0,0,0c0,0,0,0,0,0c0,0,0,0,0,0c0,0,0,0,0,0
			c0,0,0,0,0,0c0,0,0,0,0,0c0,0,0,0,0,0.1c0,0,0,0,0,0c0.1,0.3,0.2,0.6,0.3,0.8l2.1-0.9C293.4,265.8,293.1,265.2,292.8,264.5
			L292.8,264.5z M294.4,268.4l-2.1,0.9c0.2,0.4,0.4,0.8,0.5,1.2l0,0c0,0,0,0,0,0.1c0,0,0,0,0,0c0,0,0,0,0,0c0,0,0,0,0,0c0,0,0,0,0,0
			c0,0,0,0,0,0c0,0,0,0,0,0c0.1,0.2,0.2,0.3,0.2,0.5l2-0.9C295,269.7,294.7,269.1,294.4,268.4L294.4,268.4z M296.2,272.3l-2,1
			c0.1,0.2,0.2,0.3,0.2,0.5c0,0,0,0,0,0c0,0,0,0,0,0.1c0,0,0,0,0,0c0,0,0,0,0,0c0,0,0,0,0,0c0,0,0,0,0,0c0,0,0,0,0,0c0,0,0,0,0,0
			c0,0,0,0,0,0c0,0,0,0,0,0c0,0,0,0,0,0c0,0,0,0,0,0c0,0,0,0,0,0c0,0,0,0,0,0c0,0,0,0,0,0c0,0,0,0,0,0c0,0,0,0,0,0c0,0,0,0,0,0
			c0,0,0,0,0,0c0,0,0,0,0,0c0,0,0,0,0,0c0,0,0,0,0,0c0,0,0,0,0,0c0,0,0,0,0,0c0,0,0,0,0,0c0,0,0,0,0,0c0,0,0,0,0,0c0,0,0,0,0,0
			c0,0,0,0,0,0c0,0,0,0,0,0c0,0,0,0,0,0c0,0,0,0,0,0c0,0,0,0,0,0c0,0,0,0,0,0c0,0,0,0,0,0c0,0,0,0,0,0c0,0,0,0,0,0c0,0,0,0,0,0
			c0,0,0,0,0,0c0,0,0,0,0,0c0,0,0,0,0,0c0,0,0,0,0,0c0,0,0,0,0,0c0,0,0,0,0,0.1c0,0,0,0,0,0c0,0,0,0.1,0,0.1l2-1
			C296.8,273.6,296.5,272.9,296.2,272.3L296.2,272.3z M298.1,276.1l-2,1c0,0,0,0,0,0c0,0,0,0,0,0c0,0,0,0,0,0c0,0,0,0,0,0
			c0,0,0,0,0,0c0,0,0,0,0,0c0,0,0,0,0,0c0,0,0,0,0,0c0,0,0,0,0,0c0,0,0,0,0,0c0,0,0,0,0,0c0,0,0,0,0,0c0,0,0,0,0,0c0,0,0,0,0,0
			c0,0,0,0,0,0c0,0,0,0,0,0c0,0,0,0,0,0c0,0,0,0,0,0c0,0,0,0,0,0c0,0,0,0,0,0c0,0,0,0,0,0c0,0,0,0,0,0c0,0,0,0,0,0c0,0,0,0,0,0
			c0,0,0,0,0,0c0,0,0,0,0,0c0,0,0,0.1,0.1,0.1c0,0,0,0,0,0c0.2,0.4,0.4,0.7,0.6,1l2-1.1C298.7,277.4,298.4,276.7,298.1,276.1
			L298.1,276.1z M300.1,279.8l-2,1.1c0.1,0.3,0.3,0.5,0.4,0.8c0,0,0,0,0,0c0,0,0,0,0,0.1c0,0,0,0,0,0c0,0,0,0,0,0c0,0,0,0,0,0
			c0,0,0,0,0,0c0,0,0,0,0,0c0,0,0,0,0,0c0,0,0,0,0,0c0,0,0,0,0,0c0,0,0,0,0,0c0,0,0,0,0,0c0,0,0,0,0,0c0,0,0,0,0,0c0,0,0,0,0,0
			c0,0,0,0,0,0c0,0,0,0,0,0c0,0,0,0,0,0c0,0,0,0,0,0c0,0,0,0,0,0c0,0,0,0,0,0c0,0,0,0,0,0c0,0,0,0,0,0c0,0,0,0,0,0.1c0,0,0,0,0,0
			c0.1,0.1,0.2,0.3,0.2,0.4l1.9-1.1C300.8,281.1,300.4,280.4,300.1,279.8L300.1,279.8z M302.2,283.5l-1.9,1.2
			c0.1,0.1,0.1,0.2,0.2,0.3c0,0,0,0,0,0c0,0,0,0,0,0c0,0,0,0,0,0c0,0,0,0,0,0c0,0,0,0,0,0c0,0,0,0,0,0c0,0,0,0,0,0c0,0,0,0,0,0
			c0,0,0,0,0,0c0,0,0,0,0,0c0,0,0,0,0,0c0,0,0,0,0,0c0,0,0,0,0,0c0,0,0,0,0,0c0,0,0,0,0,0c0,0,0,0,0,0c0,0,0,0,0,0c0,0,0,0,0,0
			c0,0,0,0,0,0c0,0,0,0,0,0c0,0,0,0,0,0c0,0,0,0.1,0.1,0.1c0,0,0,0,0,0c0,0,0,0,0,0.1c0,0,0,0,0,0c0.2,0.2,0.3,0.5,0.5,0.7l1.9-1.2
			C303,284.7,302.6,284.1,302.2,283.5L302.2,283.5z M304.5,287l-1.9,1.3c0.1,0.2,0.3,0.4,0.4,0.6c0,0,0,0,0,0c0,0,0,0,0,0
			c0,0,0,0,0,0c0,0,0,0,0,0c0,0,0,0,0,0c0,0,0,0,0,0c0,0,0,0,0,0c0,0,0,0,0,0c0,0,0,0,0,0c0,0,0,0,0,0c0,0,0,0,0,0c0,0,0,0,0,0
			c0,0,0,0,0,0c0,0,0,0,0,0c0,0,0,0,0,0c0,0,0,0,0,0c0,0,0,0,0,0c0,0,0,0,0,0c0,0,0,0.1,0.1,0.1l0,0c0,0,0,0,0,0l0,0
			c0,0.1,0.1,0.1,0.1,0.2v0c0.1,0.1,0.2,0.2,0.2,0.3h0l1.8-1.3C305.3,288.2,304.9,287.6,304.5,287L304.5,287z M307,290.5l-1.8,1.3
			c0.2,0.3,0.5,0.6,0.7,0.9l0,0c0,0,0,0,0,0.1c0,0,0,0,0,0c0,0,0,0,0,0c0,0,0,0,0,0c0,0,0,0,0,0c0,0,0,0,0,0c0,0,0,0,0,0
			c0,0,0,0,0,0c0,0,0,0,0,0c0.1,0.2,0.3,0.4,0.4,0.6l1.8-1.4C307.8,291.6,307.4,291.1,307,290.5L307,290.5z M309.5,293.9l-1.8,1.4
			c0,0,0,0,0,0.1c0,0,0,0,0,0c0,0,0,0,0,0c0,0,0,0,0,0c0,0,0,0,0,0c0,0,0,0,0,0c0,0,0,0,0,0c0,0,0,0,0,0c0,0,0,0,0,0
			c0,0,0,0.1,0.1,0.1c0,0,0,0,0,0c0.2,0.3,0.5,0.6,0.7,0.9c0,0,0,0,0,0c0,0,0,0,0,0c0,0,0,0,0,0c0,0,0,0,0,0c0,0,0,0,0,0
			c0,0,0,0,0,0c0,0,0,0,0,0c0,0,0,0,0,0c0,0,0,0,0,0c0,0,0,0,0,0c0,0,0,0,0,0c0,0,0,0,0,0c0,0,0,0,0,0c0,0,0,0,0,0
			c0,0,0.1,0.1,0.1,0.1l1.7-1.4C310.4,295,310,294.4,309.5,293.9L309.5,293.9z M312.2,297.1l-1.7,1.5c0.1,0.1,0.2,0.3,0.3,0.4
			c0,0,0,0,0,0c0,0,0,0,0,0c0,0,0,0,0,0c0,0,0,0,0,0c0,0,0,0,0,0c0,0,0,0,0,0c0,0,0,0,0,0c0,0,0,0,0,0c0,0,0,0,0,0c0,0,0,0,0,0
			c0,0,0,0,0,0c0,0,0,0,0,0c0,0,0,0,0,0c0,0,0,0,0,0c0,0,0,0,0,0c0,0,0,0,0,0c0,0,0,0,0,0l0,0c0,0,0,0,0,0l0,0c0,0,0,0,0,0v0
			c0.2,0.2,0.4,0.5,0.6,0.7l1.7-1.5C313.1,298.2,312.7,297.7,312.2,297.1L312.2,297.1z M315,300.3l-1.6,1.5c0.3,0.3,0.5,0.5,0.8,0.8
			c0,0,0,0,0,0c0,0,0,0,0,0c0,0,0,0,0,0c0,0,0,0,0,0c0,0,0,0,0,0c0,0,0,0,0,0c0,0,0,0,0,0c0,0,0,0,0,0c0,0,0,0,0,0c0,0,0,0,0,0
			c0,0,0,0,0,0c0,0,0,0,0,0c0,0,0,0,0,0c0,0,0,0,0,0c0,0,0,0,0,0l0,0c0.2,0.2,0.3,0.4,0.5,0.5l1.6-1.6
			C316,301.3,315.5,300.8,315,300.3L315,300.3z M318,303.3l-1.6,1.6c0.1,0.1,0.1,0.1,0.2,0.2l0,0c0,0,0,0,0,0v0c0,0,0,0,0,0
			c0,0,0,0,0,0c0,0,0.1,0,0.1,0.1c0,0,0,0,0,0c0,0,0,0,0,0c0,0,0,0,0,0c0,0,0,0,0,0c0,0,0,0,0,0c0,0,0,0,0,0c0,0,0,0,0,0
			c0,0,0,0,0,0c0,0,0,0,0,0c0,0,0.1,0,0.1,0.1v0c0.3,0.3,0.7,0.7,1,1l1.5-1.6C319,304.3,318.5,303.8,318,303.3L318,303.3z
			 M321,306.2l-1.5,1.7c0.4,0.4,0.8,0.7,1.2,1.1l0,0c0,0,0,0,0,0c0,0,0,0,0,0c0,0,0,0,0,0c0,0,0,0,0,0c0,0,0,0,0,0c0,0,0,0,0,0
			c0,0,0,0,0,0c0,0,0,0,0,0c0,0,0,0,0,0c0,0,0,0,0,0c0,0,0,0,0,0c0,0,0,0,0,0c0,0,0,0,0,0c0,0,0,0,0,0c0,0,0,0,0,0c0,0,0,0,0,0
			c0,0,0,0,0,0s0,0,0,0c0,0,0,0,0,0c0,0,0,0,0.1,0.1c0,0,0,0,0,0c0,0,0,0,0,0c0,0,0,0,0,0c0,0,0,0,0,0c0,0,0,0,0,0l1.5-1.7
			C322.1,307.2,321.6,306.7,321,306.2L321,306.2z M324.2,309l-1.4,1.7c0.4,0.3,0.8,0.7,1.3,1c0,0,0,0,0,0c0,0,0,0,0,0c0,0,0,0,0,0
			c0,0,0,0,0,0c0,0,0,0,0,0s0,0,0,0c0.1,0.1,0.2,0.2,0.3,0.3l1.4-1.8C325.3,309.9,324.8,309.5,324.2,309L324.2,309z M327.5,311.6
			l-1.4,1.8c0.5,0.4,0.9,0.7,1.4,1.1l0,0c0,0,0.1,0.1,0.1,0.1c0,0,0,0,0,0c0,0,0,0,0,0s0,0,0,0c0,0,0,0,0,0c0,0,0,0,0,0c0,0,0,0,0,0
			c0,0,0,0,0,0c0,0,0,0,0,0c0,0,0.1,0,0.1,0.1l1.3-1.8C328.6,312.5,328.1,312.1,327.5,311.6L327.5,311.6z M330.9,314.1l-1.3,1.8
			c0.2,0.1,0.4,0.3,0.6,0.4c0,0,0,0,0,0c0,0,0,0,0,0c0,0,0,0,0,0c0,0,0,0,0,0c0,0,0,0,0,0c0,0,0,0,0,0c0,0,0,0,0,0c0,0,0,0,0,0
			c0,0,0,0,0,0c0,0,0,0,0,0c0,0,0,0,0,0c0,0,0,0,0,0c0,0,0,0,0,0c0,0,0,0,0,0c0,0,0,0,0,0c0,0,0,0,0,0c0,0,0,0,0,0c0,0,0,0,0,0
			c0,0,0,0,0,0c0,0,0,0,0,0c0,0,0,0,0,0c0,0,0,0,0,0c0.1,0,0.1,0.1,0.2,0.1c0,0,0,0,0,0c0,0,0,0,0,0l0,0c0,0,0,0,0,0c0,0,0,0,0,0
			c0,0,0,0,0,0c0,0,0,0,0,0c0,0,0,0,0,0l0,0c0,0,0,0,0.1,0c0,0,0,0,0,0c0,0,0,0,0,0c0,0,0,0,0,0c0,0,0,0,0,0c0,0,0,0,0,0
			c0,0,0,0,0,0c0,0,0,0,0,0c0,0,0,0,0,0c0,0,0,0,0,0c0,0,0,0,0,0c0.1,0.1,0.2,0.2,0.3,0.2l1.2-1.9
			C332.1,314.9,331.5,314.5,330.9,314.1L330.9,314.1z M334.4,316.4l-1.2,1.9c0.5,0.3,1,0.6,1.4,0.9l0,0c0,0,0,0,0,0c0,0,0,0,0,0
			c0,0,0,0,0,0c0,0,0,0,0,0c0,0,0,0,0,0c0,0,0,0,0,0c0,0,0,0,0,0c0,0,0,0,0,0c0,0,0,0,0,0c0.1,0,0.2,0.1,0.3,0.1l1.2-1.9
			C335.6,317.2,335,316.8,334.4,316.4L334.4,316.4z M338.1,318.6l-1.1,2c0.3,0.1,0.5,0.3,0.8,0.5c0,0,0,0,0,0c0,0,0,0,0,0
			c0,0,0,0,0,0c0,0,0,0,0,0c0,0,0,0,0,0c0,0,0,0,0,0c0,0,0,0,0,0v0c0.3,0.2,0.7,0.4,1,0.5l1.1-2C339.3,319.3,338.7,319,338.1,318.6
			L338.1,318.6z M341.8,320.6l-1,2c0.4,0.2,0.7,0.4,1.1,0.6l0,0c0,0,0,0,0,0l0,0c0,0,0,0,0,0c0,0,0,0,0,0c0,0,0,0,0,0c0,0,0,0,0,0
			c0,0,0,0,0,0c0.2,0.1,0.5,0.2,0.7,0.3l1-2C343,321.2,342.4,320.9,341.8,320.6L341.8,320.6z M345.6,322.4l-0.9,2
			c0.7,0.3,1.3,0.6,2,0.9l0.9-2.1C346.9,323,346.2,322.7,345.6,322.4L345.6,322.4z M349.5,324l-0.8,2.1c0.7,0.3,1.3,0.5,2,0.8
			l0.8-2.1C350.8,324.5,350.1,324.3,349.5,324L349.5,324z M353.4,325.4l-0.7,2.1c0.4,0.1,0.8,0.3,1.2,0.4l0,0c0,0,0,0,0,0h0
			c0,0,0,0,0,0l0,0c0,0,0,0,0,0c0,0,0,0,0,0c0,0,0,0,0,0c0,0,0,0,0,0c0,0,0,0,0,0l0,0c0,0,0.1,0,0.1,0c0,0,0,0,0,0c0,0,0,0,0,0
			c0,0,0,0,0,0c0,0,0,0,0,0c0,0,0,0,0,0c0,0,0,0,0,0c0,0,0,0,0,0c0,0,0,0,0,0c0,0,0,0,0,0c0,0,0,0,0,0c0,0,0,0,0,0c0,0,0,0,0,0
			c0,0,0,0,0,0c0,0,0,0,0,0c0,0,0,0,0.1,0c0,0,0,0,0,0c0,0,0,0,0,0c0,0,0,0,0,0c0,0,0,0,0,0c0,0,0,0,0,0c0,0,0,0,0,0c0,0,0,0,0,0
			c0,0,0,0,0,0c0,0,0,0,0,0c0,0,0,0,0,0c0,0,0,0,0,0c0,0,0,0,0,0c0,0,0,0,0,0c0,0,0,0,0,0c0,0,0,0,0,0c0,0,0,0,0,0c0,0,0,0,0,0
			c0,0,0,0,0,0c0,0,0,0,0,0c0,0,0,0,0,0l0.7-2.1C354.8,325.9,354.1,325.7,353.4,325.4L353.4,325.4z M357.5,326.7l-0.6,2.2
			c0.4,0.1,0.8,0.2,1.2,0.3l0,0c0,0,0,0,0,0h0c0,0,0,0,0,0h0c0,0,0,0,0,0l0,0c0,0,0.1,0,0.1,0c0,0,0,0,0,0c0,0,0,0,0,0c0,0,0,0,0,0
			c0,0,0,0,0,0c0,0,0,0,0,0c0,0,0,0,0,0c0,0,0,0,0,0c0,0,0,0,0,0c0,0,0,0,0,0c0,0,0,0,0,0c0,0,0,0,0,0c0,0,0,0,0,0c0,0,0,0,0.1,0
			l0,0c0,0,0,0,0,0c0,0,0,0,0,0c0,0,0,0,0,0c0,0,0,0,0,0c0,0,0,0,0,0l0,0c0.1,0,0.2,0,0.3,0.1l0.5-2.2
			C358.8,327,358.1,326.9,357.5,326.7L357.5,326.7z M361.5,327.7l-0.5,2.2c0.4,0.1,0.8,0.2,1.2,0.3c0,0,0,0,0,0c0,0,0,0,0,0
			c0,0,0,0,0,0c0,0,0,0,0,0c0,0,0,0,0,0c0,0,0,0,0,0c0,0,0,0,0,0c0,0,0,0,0,0c0,0,0,0,0,0c0,0,0,0,0,0c0.2,0,0.5,0.1,0.7,0.1
			l0.4-2.2C362.9,328,362.2,327.8,361.5,327.7L361.5,327.7z M365.7,328.5l-0.4,2.2c0.1,0,0.3,0,0.4,0.1c0,0,0,0,0,0c0,0,0,0,0,0
			c0,0,0,0,0,0c0,0,0,0,0,0s0,0,0,0c0,0,0,0,0,0c0,0,0,0,0,0c0,0,0,0,0,0c0,0,0,0,0,0c0,0,0,0,0,0c0,0,0,0,0.1,0c0,0,0,0,0,0
			c0,0,0,0,0,0c0,0,0,0,0,0c0,0,0,0,0,0c0,0,0,0,0,0c0,0,0,0,0,0h0c0.2,0,0.3,0,0.5,0.1l0,0c0,0,0,0,0,0c0,0,0,0,0,0c0,0,0,0,0,0
			c0,0,0,0,0,0c0,0,0,0,0,0c0,0,0,0,0,0c0,0,0,0,0,0c0,0,0,0,0,0c0,0,0,0,0,0c0,0,0,0,0,0c0,0,0,0,0,0c0,0,0,0,0,0l0,0c0,0,0,0,0,0
			h0c0,0,0,0,0,0c0,0,0,0,0,0c0,0,0,0,0,0h0c0.2,0,0.4,0.1,0.5,0.1l0.3-2.2C367,328.7,366.4,328.6,365.7,328.5L365.7,328.5z
			 M369.8,329.1l-0.3,2.2c0.7,0.1,1.4,0.2,2.1,0.2l0.2-2.2C371.2,329.2,370.5,329.2,369.8,329.1L369.8,329.1z M374,329.5l-0.1,2.2
			c0.1,0,0.1,0,0.2,0c0,0,0,0,0,0c0,0,0,0,0,0s0,0,0,0c0,0,0,0,0,0c0,0,0,0,0,0c0,0,0,0,0,0c0.6,0,1.2,0.1,1.9,0.1l0.1-2.2
			C375.4,329.6,374.7,329.5,374,329.5L374,329.5z M378.2,329.6l0,2.2c0,0,0.1,0,0.1,0c0,0,0,0,0,0c0,0,0,0,0,0c0,0,0,0,0,0
			c0,0,0,0,0,0c0,0,0,0,0,0c0,0,0,0,0,0c0.2,0,0.4,0,0.7,0l0,0c0,0,0,0,0,0h0c0,0,0,0,0,0c0,0,0,0,0,0c0,0,0,0,0,0c0,0,0,0,0,0
			s0,0,0,0c0,0,0,0,0,0c0,0,0,0,0,0c0,0,0,0,0,0c0,0,0,0,0,0c0,0,0,0,0,0c0,0,0,0,0,0c0,0,0,0,0,0c0,0,0,0,0,0s0,0,0,0c0,0,0,0,0,0
			s0,0,0,0c0,0,0,0,0,0c0,0,0,0,0,0c0,0,0,0,0,0c0,0,0,0,0,0c0,0,0,0,0,0c0,0,0,0,0,0c0,0,0,0,0,0c0,0,0,0,0,0c0,0,0,0,0,0
			c0,0,0,0,0,0c0,0,0,0,0,0c0,0,0,0,0,0c0,0,0,0,0,0c0,0,0,0,0,0s0,0,0,0c0,0,0,0,0,0c0,0,0.1,0,0.1,0c0,0,0,0,0,0c0,0,0,0,0,0
			c0,0,0,0,0,0c0.1,0,0.2,0,0.3,0l0-2.2l-0.8,0C379.1,329.7,378.6,329.7,378.2,329.6L378.2,329.6z M384.5,329.5
			c-0.7,0-1.4,0.1-2.1,0.1l0.1,2.2c0.2,0,0.4,0,0.6,0h0c0,0,0,0,0,0c0,0,0,0,0,0c0,0,0,0,0,0h0c0,0,0,0,0.1,0c0,0,0,0,0,0
			c0,0,0,0,0,0c0,0,0,0,0,0c0,0,0,0,0,0c0,0,0,0,0,0c0,0,0,0,0,0c0,0,0,0,0,0c0,0,0,0,0,0c0,0,0,0,0,0c0,0,0,0,0,0c0,0,0.1,0,0.1,0
			h0c0,0,0,0,0,0c0,0,0,0,0,0c0,0,0,0,0,0c0,0,0,0,0,0c0.1,0,0.2,0,0.2,0l0,0c0.3,0,0.5,0,0.8,0L384.5,329.5L384.5,329.5z
			 M388.7,329.1c-0.7,0.1-1.4,0.1-2.1,0.2l0.2,2.2c0,0,0.1,0,0.1,0c0,0,0,0,0,0c0,0,0,0,0,0c0,0,0,0,0,0c0,0,0,0,0,0c0,0,0,0,0,0
			c0,0,0,0,0,0c0,0,0,0,0,0h0c0.6,0,1.2-0.1,1.8-0.2h0c0,0,0,0,0,0c0,0,0,0,0,0c0,0,0,0,0,0c0,0,0,0,0,0c0,0,0,0,0,0c0,0,0,0,0,0
			L388.7,329.1L388.7,329.1z M392.9,328.6c-0.7,0.1-1.4,0.2-2.1,0.3l0.3,2.2c0,0,0,0,0,0c0,0,0,0,0,0c0,0,0,0,0,0c0,0,0,0,0,0
			c0,0,0,0,0,0c0,0,0,0,0,0c0,0,0,0,0,0c0,0,0,0,0,0c0,0,0,0,0,0c0,0,0,0,0,0c0,0,0,0,0,0c0,0,0,0,0,0c0,0,0,0,0,0c0,0,0,0,0,0
			c0,0,0,0,0,0c0,0,0,0,0,0c0,0,0,0,0,0c0,0,0.1,0,0.1,0c0,0,0,0,0,0c0,0,0,0,0,0c0,0,0,0,0,0c0,0,0,0,0,0c0,0,0,0,0,0c0,0,0,0,0,0
			c0,0,0,0,0,0c0,0,0,0,0,0c0,0,0,0,0,0c0,0,0,0,0,0l0,0c0,0,0.1,0,0.1,0h0c0,0,0,0,0,0c0,0,0,0,0,0c0,0,0,0,0,0l0,0c0,0,0,0,0,0
			c0,0,0,0,0,0c0.4-0.1,0.9-0.1,1.3-0.2L392.9,328.6L392.9,328.6z M397,327.8c-0.7,0.1-1.4,0.3-2.1,0.4l0.4,2.2
			c0.6-0.1,1.1-0.2,1.6-0.3v0c0,0,0,0,0,0v0c0,0,0,0,0.1,0c0,0,0,0,0,0c0,0,0,0,0,0c0,0,0,0,0,0c0,0,0,0,0,0c0,0,0,0,0,0l0,0
			c0.1,0,0.2,0,0.3-0.1L397,327.8L397,327.8z M401.1,326.8c-0.7,0.2-1.4,0.4-2,0.5l0.5,2.2c0.1,0,0.2,0,0.3-0.1c0,0,0,0,0,0
			c0,0,0,0,0,0c0,0,0,0,0,0c0,0,0,0,0,0c0.6-0.1,1.2-0.3,1.8-0.5L401.1,326.8L401.1,326.8z M405.1,325.6c-0.7,0.2-1.3,0.4-2,0.6
			l0.6,2.1c0.1,0,0.2-0.1,0.3-0.1c0,0,0,0,0,0c0,0,0,0,0,0c0,0,0,0,0,0c0,0,0,0,0,0c0,0,0,0,0,0c0,0,0,0,0,0c0,0,0,0,0,0h0
			c0,0,0,0,0,0c0,0,0,0,0,0c0.3-0.1,0.5-0.2,0.8-0.3c0,0,0,0,0,0c0,0,0,0,0,0h0c0,0,0,0,0,0c0,0,0,0,0,0c0,0,0,0,0,0l0,0
			c0.1,0,0.1,0,0.2,0c0,0,0,0,0,0c0,0,0,0,0,0c0,0,0,0,0,0c0,0,0,0,0,0c0,0,0,0,0,0c0,0,0,0,0,0c0,0,0,0,0,0c0,0,0,0,0,0
			c0,0,0,0,0,0c0.1,0,0.3-0.1,0.4-0.1L405.1,325.6L405.1,325.6z M409.1,324.2c-0.7,0.3-1.3,0.5-2,0.7l0.7,2.1c0.7-0.2,1.4-0.5,2-0.7
			L409.1,324.2L409.1,324.2z M413,322.6c-0.6,0.3-1.3,0.6-1.9,0.8l0.9,2.1c0.1-0.1,0.3-0.1,0.4-0.2c0,0,0,0,0,0c0,0,0,0,0,0l0,0
			c0,0,0.1,0,0.2-0.1c0,0,0,0,0,0c0,0,0,0,0,0c0,0,0,0,0,0c0,0,0,0,0,0c0,0,0,0,0,0c0,0,0,0,0,0c0,0,0,0,0,0c0,0,0,0,0,0
			c0,0,0,0,0,0c0.1,0,0.1,0,0.2-0.1c0,0,0,0,0,0c0,0,0,0,0,0c0,0,0,0,0,0c0,0,0,0,0,0c0,0,0,0,0,0c0,0,0,0,0,0l0,0
			c0.3-0.1,0.6-0.3,0.9-0.4L413,322.6L413,322.6z M416.8,320.8c-0.6,0.3-1.3,0.6-1.9,0.9l1,2c0,0,0.1,0,0.1-0.1l0,0
			c0.6-0.3,1.2-0.6,1.8-0.9L416.8,320.8L416.8,320.8z M420.5,318.8c-0.6,0.3-1.2,0.7-1.9,1l1,2c0.6-0.3,1.3-0.7,1.9-1L420.5,318.8
			L420.5,318.8z M424.2,316.7c-0.6,0.4-1.2,0.7-1.8,1.1l1.1,1.9c0.6-0.4,1.2-0.7,1.9-1.1L424.2,316.7L424.2,316.7z M427.7,314.4
			c-0.6,0.4-1.2,0.8-1.8,1.2l1.2,1.9c0,0,0,0,0,0c0,0,0,0,0,0c0,0,0,0,0,0c0,0,0,0,0,0l0,0c0,0,0,0,0,0l0,0c0.3-0.2,0.6-0.4,0.9-0.6
			l0,0c0,0,0,0,0,0l0,0c0,0,0,0,0,0c0,0,0,0,0,0c0,0,0,0,0,0l0,0c0,0,0,0,0.1,0c0,0,0,0,0,0c0,0,0,0,0,0c0,0,0,0,0,0c0,0,0,0,0,0
			c0,0,0,0,0,0c0,0,0,0,0,0c0,0,0,0,0,0c0,0,0,0,0,0c0,0,0,0,0,0c0,0,0,0,0,0c0,0,0.1-0.1,0.2-0.1l0,0c0,0,0,0,0,0h0c0,0,0,0,0,0
			c0,0,0,0,0,0c0,0,0.1-0.1,0.1-0.1c0,0,0,0,0,0c0,0,0,0,0,0c0,0,0,0,0,0c0,0,0,0,0,0c0,0,0,0,0,0c0,0,0,0,0,0c0,0,0,0,0,0
			c0,0,0,0,0,0L427.7,314.4L427.7,314.4z M431.1,311.9c-0.6,0.4-1.1,0.8-1.7,1.3l1.3,1.8c0,0,0,0,0,0c0,0,0,0,0,0c0,0,0,0,0,0
			c0,0,0,0,0,0c0,0,0,0,0,0c0,0,0,0,0,0c0,0,0,0,0,0c0.5-0.4,1.1-0.8,1.6-1.2L431.1,311.9L431.1,311.9z M434.4,309.3
			c-0.5,0.5-1.1,0.9-1.6,1.3l1.4,1.8c0,0,0,0,0,0c0,0,0,0,0,0c0.6-0.4,1.1-0.9,1.7-1.3L434.4,309.3L434.4,309.3z M437.6,306.5
			c-0.5,0.5-1,0.9-1.6,1.4l1.5,1.7c0.5-0.4,1-0.9,1.5-1.3c0,0,0,0,0,0c0,0,0,0,0,0c0,0,0,0,0,0c0,0,0,0,0,0c0,0,0.1,0,0.1-0.1
			L437.6,306.5L437.6,306.5z M440.7,303.6c-0.5,0.5-1,1-1.5,1.5l1.5,1.6c0.5-0.5,1-1,1.6-1.5L440.7,303.6L440.7,303.6z M443.7,300.6
			c-0.5,0.5-1,1-1.5,1.5l1.6,1.6c0.1,0,0.1-0.1,0.2-0.2c0,0,0,0,0,0c0,0,0,0,0,0c0,0,0,0,0,0c0,0,0,0,0,0c0,0,0,0,0,0c0,0,0,0,0,0
			c0,0,0,0,0,0c0,0,0,0,0,0c0,0,0,0,0,0c0,0,0,0,0,0c0,0,0,0,0,0c0,0,0,0,0,0c0,0,0,0,0,0l0,0c0,0,0.1-0.1,0.1-0.1h0c0,0,0,0,0,0
			c0,0,0,0,0,0c0,0,0,0,0,0l0,0c0,0,0,0,0,0c0,0,0,0,0,0c0,0,0,0,0.1-0.1c0,0,0,0,0,0c0,0,0,0,0,0c0,0,0,0,0,0c0,0,0,0,0,0
			c0,0,0,0,0,0c0,0,0,0,0,0c0,0,0,0,0,0c0,0,0,0,0,0c0,0,0,0,0,0c0,0,0,0,0,0c0.2-0.3,0.5-0.5,0.7-0.8L443.7,300.6L443.7,300.6z
			 M446.5,297.5c-0.5,0.5-0.9,1.1-1.4,1.6l1.7,1.5c0,0,0,0,0,0c0,0,0,0,0,0c0,0,0,0,0,0c0,0,0,0,0,0c0,0,0,0,0,0c0,0,0,0,0,0
			c0,0,0,0,0,0c0,0,0,0,0,0c0.4-0.4,0.7-0.8,1.1-1.2c0,0,0,0,0,0c0,0,0,0,0,0c0,0,0,0,0,0c0,0,0,0,0,0c0,0,0,0,0,0c0,0,0,0,0,0
			c0,0,0,0,0,0c0,0,0,0,0,0c0,0,0,0,0,0c0,0,0,0,0,0L446.5,297.5L446.5,297.5z M449.2,294.2c-0.4,0.5-0.9,1.1-1.3,1.6l1.7,1.4
			c0,0,0,0,0,0c0,0,0,0,0,0c0,0,0,0,0,0c0,0,0,0,0,0c0,0,0,0,0,0c0,0,0,0,0,0c0,0,0,0,0,0c0,0,0,0,0,0c0,0,0,0,0,0c0,0,0,0,0,0
			c0,0,0,0,0,0c0,0,0,0,0,0c0,0,0,0,0,0c0,0,0,0,0,0c0,0,0,0,0,0c0,0,0,0,0,0c0,0,0,0,0,0c0,0,0,0,0,0l0,0c0,0,0,0,0,0l0,0
			c0.2-0.3,0.5-0.6,0.7-0.8l0,0c0,0,0,0,0,0c0,0,0,0,0,0c0,0,0,0,0,0c0,0,0,0,0,0c0,0,0,0,0,0c0,0,0,0,0,0c0,0,0,0,0,0
			c0,0,0.1-0.1,0.1-0.1L449.2,294.2L449.2,294.2z M451.8,290.9c-0.4,0.6-0.8,1.1-1.3,1.7l1.8,1.4c0,0,0,0,0,0c0,0,0-0.1,0.1-0.1
			c0,0,0,0,0,0c0,0,0,0,0,0c0,0,0,0,0,0c0,0,0,0,0,0c0,0,0,0,0,0c0,0,0,0,0,0c0,0,0,0,0,0c0,0,0,0,0,0c0,0,0,0,0,0c0,0,0,0,0,0
			c0,0,0,0,0,0c0,0,0,0,0,0c0,0,0,0,0,0c0,0,0,0,0,0c0,0,0,0,0,0c0,0,0,0,0,0c0,0,0,0,0,0c0,0,0,0,0,0c0,0,0,0,0,0c0,0,0,0,0,0
			c0,0,0,0,0,0c0,0,0,0,0,0c0,0,0,0,0,0c0,0,0,0,0,0c0,0,0,0,0,0c0,0,0,0,0,0c0,0,0,0,0,0c0,0,0,0,0,0c0,0,0,0,0,0c0,0,0,0,0,0
			c0,0,0,0,0,0c0,0,0,0,0,0c0,0,0,0,0,0c0,0,0,0,0,0c0,0,0,0,0,0c0,0,0,0,0,0c0,0,0,0,0,0c0,0,0,0,0,0c0,0,0,0,0,0c0,0,0,0,0,0
			c0,0,0,0,0,0s0,0,0,0c0,0,0,0,0,0c0,0,0,0,0,0c0,0,0,0,0,0c0,0,0,0,0,0c0,0,0,0,0,0c0,0,0,0,0,0c0,0,0,0,0,0c0,0,0,0,0,0
			c0,0,0,0,0,0c0,0,0,0,0,0c0,0,0,0,0-0.1c0,0,0,0,0,0c0-0.1,0.1-0.1,0.1-0.2L451.8,290.9L451.8,290.9z M454.2,287.4
			c-0.4,0.6-0.8,1.2-1.2,1.7l1.8,1.3c0-0.1,0.1-0.2,0.2-0.2c0,0,0,0,0,0c0,0,0,0,0,0c0,0,0,0,0,0c0,0,0,0,0,0c0,0,0,0,0,0
			c0,0,0,0,0,0c0,0,0,0,0,0c0,0,0,0,0,0c0,0,0,0,0,0c0,0,0,0,0,0c0,0,0,0,0,0c0,0,0,0,0,0c0,0,0,0,0,0c0,0,0,0,0,0c0,0,0,0,0,0
			c0,0,0,0,0,0c0,0,0,0,0,0c0,0,0,0,0,0c0,0,0,0,0,0c0,0,0,0,0,0c0,0,0,0,0,0c0,0,0,0,0,0c0,0,0,0,0,0c0.2-0.3,0.4-0.6,0.6-0.9
			L454.2,287.4L454.2,287.4z M456.5,283.9c-0.4,0.6-0.8,1.2-1.1,1.8l1.9,1.2c0-0.1,0.1-0.1,0.1-0.2c0,0,0,0,0,0c0,0,0,0,0-0.1
			c0,0,0,0,0,0c0,0,0,0,0,0c0,0,0,0,0,0c0,0,0,0,0,0c0,0,0,0,0,0l0,0c0,0,0,0,0,0c0,0,0,0,0,0c0.3-0.5,0.6-0.9,0.9-1.4L456.5,283.9
			L456.5,283.9z M458.7,280.2c-0.4,0.6-0.7,1.2-1.1,1.8l1.9,1.1c0.1-0.2,0.3-0.4,0.4-0.6l0,0c0,0,0,0,0-0.1c0,0,0,0,0,0c0,0,0,0,0,0
			c0,0,0,0,0,0c0,0,0,0,0,0c0,0,0,0,0,0c0,0,0,0,0,0c0,0,0,0,0,0c0,0,0,0,0,0c0,0,0,0,0-0.1l0,0c0.2-0.3,0.3-0.6,0.5-0.9
			L458.7,280.2L458.7,280.2z M460.7,276.5c-0.3,0.6-0.7,1.3-1,1.9l2,1.1c0.1-0.1,0.1-0.3,0.2-0.4c0,0,0,0,0,0c0,0,0,0,0-0.1
			c0,0,0,0,0,0c0,0,0-0.1,0-0.1c0,0,0,0,0,0c0,0,0,0,0,0c0,0,0,0,0,0c0,0,0,0,0,0c0,0,0,0,0,0c0,0,0,0,0,0c0,0,0,0,0,0c0,0,0,0,0,0
			c0,0,0,0,0,0c0,0,0,0,0,0c0,0,0,0,0,0c0,0,0,0,0,0c0,0,0,0,0,0c0,0,0,0,0,0c0,0,0,0,0,0l0,0c0,0,0,0,0,0v0c0,0,0,0,0-0.1l0,0
			c0,0,0,0,0-0.1v0c0,0,0-0.1,0.1-0.1v0c0,0,0,0,0-0.1c0,0,0,0,0,0c0,0,0-0.1,0.1-0.1c0,0,0,0,0,0c0,0,0,0,0,0c0,0,0,0,0,0
			c0,0,0,0,0,0c0,0,0,0,0,0c0,0,0,0,0,0c0,0,0,0,0,0c0,0,0,0,0,0c0,0,0,0,0,0c0,0,0,0,0,0c0,0,0,0,0,0l0,0c0,0,0-0.1,0-0.1
			L460.7,276.5L460.7,276.5z M462.6,272.7c-0.3,0.6-0.6,1.3-0.9,1.9l2,1c0,0,0-0.1,0.1-0.1c0,0,0,0,0,0c0,0,0,0,0-0.1c0,0,0,0,0,0
			c0,0,0-0.1,0-0.1c0,0,0,0,0,0c0,0,0,0,0-0.1c0,0,0,0,0,0c0,0,0,0,0,0c0,0,0,0,0,0c0,0,0,0,0,0c0,0,0,0,0,0c0,0,0,0,0,0
			c0,0,0,0,0,0c0,0,0,0,0,0c0,0,0,0,0,0c0,0,0,0,0,0c0,0,0,0,0,0c0,0,0,0,0,0c0,0,0,0,0,0c0,0,0,0,0,0c0,0,0,0,0-0.1l0,0
			c0,0,0,0,0-0.1c0,0,0,0,0,0c0.2-0.3,0.3-0.7,0.5-1L462.6,272.7L462.6,272.7z M464.4,268.9c-0.3,0.6-0.6,1.3-0.9,1.9l2,0.9
			c0-0.1,0.1-0.2,0.2-0.3c0,0,0,0,0,0c0,0,0,0,0,0c0,0,0,0,0,0c0,0,0,0,0,0c0,0,0,0,0,0c0,0,0,0,0,0c0,0,0,0,0,0c0,0,0,0,0,0
			c0,0,0,0,0,0c0,0,0,0,0,0c0,0,0,0,0,0c0,0,0,0,0,0c0,0,0,0,0,0c0,0,0,0,0,0c0,0,0,0,0,0l0,0c0,0,0,0,0,0c0,0,0,0,0,0c0,0,0,0,0,0
			c0,0,0,0,0,0c0,0,0,0,0,0c0,0,0,0,0,0c0,0,0,0,0,0c0,0,0,0,0,0c0,0,0,0,0,0c0,0,0,0,0,0c0,0,0,0,0,0c0,0,0,0,0,0c0,0,0,0,0,0
			c0,0,0,0,0,0c0,0,0,0,0,0c0,0,0,0,0-0.1v0c0.1-0.2,0.2-0.4,0.3-0.6L464.4,268.9L464.4,268.9z M466,264.9c-0.3,0.7-0.5,1.3-0.8,2
			l2.1,0.9c0.3-0.7,0.5-1.3,0.8-2c0,0,0,0,0,0c0,0,0,0,0,0L466,264.9L466,264.9z M467.5,261c-0.2,0.7-0.5,1.3-0.7,2l2.1,0.8
			c0.2-0.6,0.4-1.2,0.6-1.8c0,0,0,0,0,0c0,0,0,0,0,0c0,0,0,0,0,0s0,0,0,0c0,0,0,0,0,0c0,0,0,0,0,0c0,0,0-0.1,0-0.1L467.5,261
			L467.5,261z M468.8,256.9c-0.2,0.7-0.4,1.4-0.6,2l2.1,0.7c0-0.1,0.1-0.2,0.1-0.3c0,0,0,0,0,0c0,0,0,0,0-0.1c0,0,0,0,0,0
			c0,0,0,0,0,0c0,0,0,0,0,0c0,0,0,0,0,0c0,0,0,0,0,0c0,0,0,0,0,0c0,0,0,0,0,0c0,0,0,0,0,0c0,0,0,0,0,0c0,0,0,0,0,0c0,0,0,0,0,0
			c0,0,0,0,0,0c0,0,0,0,0,0c0,0,0,0,0,0c0,0,0,0,0-0.1c0,0,0,0,0,0c0,0,0,0,0,0c0,0,0,0,0,0c0,0,0,0,0,0c0,0,0,0,0,0c0,0,0,0,0,0
			c0,0,0,0,0,0c0,0,0,0,0,0c0,0,0,0,0,0c0,0,0,0,0,0c0,0,0,0,0,0c0,0,0,0,0,0c0,0,0,0,0,0c0,0,0,0,0,0c0,0,0-0.1,0-0.1h0
			c0.1-0.2,0.1-0.4,0.2-0.6L468.8,256.9L468.8,256.9z M470,252.9c-0.2,0.7-0.4,1.4-0.6,2l2.2,0.6c0.1-0.4,0.3-0.9,0.4-1.3l0,0
			c0,0,0,0,0,0c0,0,0,0,0,0c0,0,0,0,0,0c0,0,0,0,0,0c0,0,0,0,0,0c0,0,0,0,0,0c0,0,0,0,0,0c0,0,0,0,0,0c0,0,0,0,0,0
			c0-0.2,0.1-0.4,0.2-0.6L470,252.9L470,252.9z M471,248.8c-0.2,0.7-0.3,1.4-0.5,2.1l2.2,0.6c0.2-0.7,0.4-1.4,0.5-2.1L471,248.8
			L471,248.8z M472,244.6c-0.1,0.7-0.3,1.4-0.4,2.1l2.2,0.5c0.1-0.6,0.3-1.3,0.4-1.9l0,0c0,0,0,0,0,0c0,0,0,0,0,0c0,0,0,0,0,0
			c0,0,0,0,0,0c0,0,0,0,0,0c0,0,0,0,0,0c0,0,0,0,0,0c0,0,0,0,0,0c0,0,0,0,0,0c0,0,0,0,0,0L472,244.6L472,244.6z M472.7,240.5
			c-0.1,0.7-0.2,1.4-0.4,2.1l2.2,0.4v0c0,0,0,0,0,0c0,0,0,0,0,0c0.1-0.7,0.3-1.4,0.4-2.1L472.7,240.5L472.7,240.5z M473.4,236.3
			c-0.1,0.7-0.2,1.4-0.3,2.1l2.2,0.3c0-0.3,0.1-0.6,0.1-0.9c0,0,0,0,0,0c0,0,0,0,0,0c0,0,0,0,0,0c0,0,0,0,0-0.1c0,0,0,0,0,0
			c0,0,0,0,0,0c0,0,0,0,0,0c0,0,0,0,0,0c0,0,0,0,0,0c0,0,0,0,0,0c0,0,0,0,0,0c0,0,0,0,0,0c0,0,0,0,0,0c0,0,0,0,0,0c0,0,0,0,0,0
			c0,0,0,0,0,0v0c0,0,0,0,0,0v0c0,0,0,0,0,0c0,0,0,0,0,0c0-0.3,0.1-0.5,0.1-0.7L473.4,236.3L473.4,236.3z M473.8,232
			c-0.1,0.7-0.1,1.4-0.2,2.1l2.2,0.3c0.1-0.6,0.1-1.3,0.2-2l0,0c0,0,0,0,0-0.1c0,0,0,0,0,0c0,0,0,0,0,0c0,0,0,0,0,0c0,0,0,0,0,0l0,0
			v0L473.8,232L473.8,232z M474.2,227.8c0,0.7-0.1,1.4-0.2,2.1l2.2,0.2c0.1-0.7,0.1-1.4,0.2-2.1L474.2,227.8L474.2,227.8z
			 M474.4,223.6c0,0.7,0,1.4-0.1,2.1l2.2,0.1c0-0.5,0-1,0.1-1.6c0,0,0,0,0,0c0,0,0,0,0,0c0,0,0,0,0,0c0,0,0,0,0,0c0,0,0-0.1,0-0.1
			l0,0c0-0.1,0-0.3,0-0.4L474.4,223.6L474.4,223.6z M476.7,219.3l-2.2,0v0.2c0,0.6,0,1.3,0,1.9l2.2,0c0-0.4,0-0.8,0-1.2c0,0,0,0,0,0
			c0,0,0-0.1,0-0.1c0,0,0,0,0,0c0,0,0,0,0,0c0,0,0,0,0,0c0,0,0,0,0,0c0,0,0,0,0,0c0,0,0,0,0-0.1c0,0,0,0,0,0c0,0,0,0,0,0
			c0,0,0,0,0,0c0,0,0,0,0,0c0,0,0,0,0,0c0,0,0,0,0,0c0,0,0,0,0,0c0,0,0,0,0,0c0,0,0,0,0,0c0,0,0,0,0,0c0,0,0,0,0-0.1c0,0,0,0,0,0
			c0,0,0,0,0,0c0,0,0,0,0,0c0,0,0,0,0-0.1C476.7,219.4,476.7,219.4,476.7,219.3C476.7,219.3,476.7,219.3,476.7,219.3L476.7,219.3z
			 M476.6,215l-2.2,0.1c0,0.7,0,1.4,0.1,2.1l2.2,0c0-0.2,0-0.4,0-0.5c0,0,0,0,0,0c0,0,0,0,0,0c0,0,0,0,0,0c0,0,0,0,0,0
			c0-0.5,0-0.9,0-1.4c0,0,0,0,0,0c0,0,0,0,0,0C476.6,215.1,476.6,215.1,476.6,215C476.6,215.1,476.6,215.1,476.6,215
			C476.6,215,476.6,215,476.6,215L476.6,215z M476.4,210.7l-2.2,0.1c0,0.7,0.1,1.4,0.1,2.1l2.2-0.1c0-0.3,0-0.6-0.1-1c0,0,0,0,0,0
			c0,0,0,0,0,0C476.5,211.5,476.4,211.1,476.4,210.7L476.4,210.7z M476,206.4l-2.2,0.2c0.1,0.7,0.1,1.4,0.2,2.1l2.2-0.2
			c0-0.3,0-0.6-0.1-1c0,0,0,0,0,0s0,0,0,0c0,0,0,0,0,0c0,0,0,0,0,0C476.1,207.1,476.1,206.7,476,206.4L476,206.4z M475.5,202.1
			l-2.2,0.3c0.1,0.7,0.2,1.4,0.3,2.1l2.2-0.3c0-0.1,0-0.2,0-0.3l0,0c0,0,0,0,0,0l0,0c0,0,0,0,0,0c0,0,0,0,0,0c0,0,0,0,0,0
			c0,0,0,0,0,0c0,0,0,0,0,0c0,0,0,0,0,0c0,0,0,0,0,0c0,0,0,0,0,0c0,0,0,0,0,0c0,0,0,0,0,0c0,0,0,0,0,0c0,0,0-0.1,0-0.1c0,0,0,0,0,0
			c0,0,0,0,0,0l0,0C475.7,203,475.6,202.6,475.5,202.1L475.5,202.1z M474.9,197.8l-2.2,0.4c0.1,0.7,0.2,1.4,0.3,2.1l2.2-0.3
			C475.1,199.2,475,198.5,474.9,197.8L474.9,197.8z M474.1,193.6l-2.2,0.5c0.1,0.7,0.3,1.4,0.4,2.1l2.2-0.4c0-0.2-0.1-0.3-0.1-0.5
			c0,0,0,0,0,0c0,0,0,0,0,0c0,0,0,0,0,0c0,0,0,0,0,0c0,0,0,0,0,0c0,0,0,0,0,0c0,0,0,0,0,0c0,0,0,0,0,0c0,0,0,0,0,0c0,0,0,0,0,0
			c0,0,0,0,0,0c0,0,0,0,0,0c0,0,0,0,0,0c0,0,0,0,0,0c0,0,0,0,0,0c0,0,0,0,0,0c0,0,0,0,0,0c0,0,0,0,0,0c0,0,0,0,0,0c0,0,0,0,0,0
			c0,0,0,0,0,0c0,0,0,0,0,0c0,0,0,0,0,0c0,0,0,0,0,0c0,0,0,0,0,0c0,0,0,0,0,0c0,0,0,0,0,0c0,0,0,0,0,0c0,0,0,0,0,0c0,0,0,0,0,0
			c0,0,0,0,0,0C474.2,194.2,474.2,193.9,474.1,193.6L474.1,193.6z M473.1,189.4l-2.2,0.5c0.2,0.7,0.3,1.4,0.5,2.1l2.2-0.5
			c-0.1-0.6-0.3-1.1-0.4-1.7v0c0,0,0,0,0,0c0,0,0,0,0,0c0,0,0,0,0,0c0,0,0,0,0,0c0,0,0,0,0,0c0,0,0,0,0,0c0,0,0,0,0,0
			C473.2,189.5,473.2,189.4,473.1,189.4L473.1,189.4z M472.1,185.2l-2.2,0.6c0.2,0.7,0.4,1.4,0.5,2l2.2-0.6c-0.2-0.7-0.3-1.3-0.5-2
			c0,0,0,0,0,0C472.1,185.3,472.1,185.3,472.1,185.2C472.1,185.3,472.1,185.2,472.1,185.2L472.1,185.2
			C472.1,185.2,472.1,185.2,472.1,185.2L472.1,185.2z M470.8,181l-2.1,0.7c0.2,0.7,0.4,1.3,0.6,2l2.2-0.6c0-0.2-0.1-0.3-0.2-0.5l0,0
			c0,0,0-0.1,0-0.1c0,0,0,0,0,0c0,0,0,0,0-0.1c0,0,0,0,0,0c0,0,0,0,0,0c0,0,0,0,0,0c0,0,0,0,0,0c0,0,0,0,0,0c0,0,0,0,0,0
			c0,0,0,0,0-0.1c0,0,0,0,0,0C471.1,181.8,470.9,181.4,470.8,181L470.8,181z M469.5,176.9l-2.1,0.8c0.2,0.7,0.5,1.3,0.7,2l2.1-0.7
			c-0.2-0.5-0.3-1-0.5-1.4c0,0,0,0,0,0c0,0,0,0,0,0c0,0,0,0,0,0c0,0,0,0,0,0c0,0,0,0,0,0c0,0,0,0,0,0c0,0,0,0,0-0.1c0,0,0,0,0,0
			C469.5,177.2,469.5,177.1,469.5,176.9L469.5,176.9z M467.9,172.9l-2.1,0.8c0.3,0.7,0.5,1.3,0.8,2l2.1-0.8
			c-0.1-0.1-0.1-0.3-0.2-0.4l0,0c0,0,0,0,0-0.1c0,0,0,0,0,0c0,0,0,0,0-0.1l0,0c0,0,0,0,0-0.1c0,0,0,0,0,0c0,0,0,0,0-0.1c0,0,0,0,0,0
			c0,0,0,0,0,0c0,0,0,0,0,0c0,0,0,0,0-0.1c0,0,0,0,0,0c0,0,0,0,0-0.1c0,0,0,0,0,0c0,0,0,0,0,0c0,0,0,0,0,0c0,0,0,0,0-0.1
			c0,0,0,0,0,0c0,0,0,0,0-0.1v0c0,0,0,0,0-0.1c0,0,0,0,0,0c0,0,0,0,0-0.1l0,0c0,0,0,0,0-0.1v0c0,0,0,0,0-0.1v0
			C468.1,173.3,468,173.1,467.9,172.9L467.9,172.9z M466.3,168.9l-2.1,0.9c0.3,0.6,0.6,1.3,0.8,1.9l2.1-0.9
			c-0.1-0.3-0.2-0.5-0.3-0.7v0c0,0,0,0,0-0.1l0,0c0,0,0,0,0-0.1c0,0,0,0,0,0c0,0,0,0,0-0.1c0,0,0,0,0,0c0,0,0,0,0-0.1c0,0,0,0,0,0
			c0,0,0,0,0,0c0,0,0,0,0,0c0,0,0,0,0,0c0,0,0,0,0,0c0,0,0,0,0,0c0,0,0,0,0,0c0,0,0,0,0,0c0,0,0,0,0,0c0,0,0,0,0,0c0,0,0,0,0,0
			c0,0,0,0,0,0c0,0,0,0,0-0.1c0,0,0,0,0,0c0,0,0,0,0,0c0,0,0,0,0,0c0,0,0,0,0-0.1l0,0C466.4,169.2,466.3,169.1,466.3,168.9
			L466.3,168.9z M464.5,165l-2,1c0.3,0.6,0.6,1.3,0.9,1.9l2-0.9c-0.1-0.3-0.2-0.5-0.4-0.8c0,0,0,0,0,0c0,0,0,0,0-0.1c0,0,0,0,0,0
			c0,0,0,0,0,0c0,0,0,0,0,0c0,0,0,0,0,0c0,0,0,0,0,0c0,0,0,0,0,0c0,0,0,0,0-0.1c0,0,0,0,0,0C464.8,165.6,464.6,165.3,464.5,165
			L464.5,165z M462.5,161.1l-2,1c0.3,0.6,0.7,1.3,1,1.9l2-1C463.2,162.4,462.9,161.8,462.5,161.1L462.5,161.1z M460.4,157.3l-2,1.1
			c0.4,0.6,0.7,1.2,1,1.8l2-1.1l0,0c0,0,0,0,0-0.1v0C461.1,158.5,460.8,157.9,460.4,157.3L460.4,157.3z M458.2,153.6l-1.9,1.2
			c0.4,0.6,0.7,1.2,1.1,1.8l1.9-1.2c0,0,0,0,0,0c0,0,0,0,0,0c0,0,0,0,0,0c0,0,0,0,0,0c0,0,0,0,0,0c0,0,0,0,0,0l0,0c0,0,0,0,0-0.1
			c0,0,0,0,0,0C458.9,154.7,458.6,154.2,458.2,153.6L458.2,153.6z M455.9,150l-1.9,1.3c0.4,0.6,0.8,1.2,1.2,1.8l1.9-1.2
			c-0.2-0.3-0.4-0.5-0.5-0.8c0,0,0,0,0,0c0,0,0,0,0,0c0,0,0,0,0,0c0,0,0,0,0,0c0,0,0,0,0,0c0,0,0,0,0,0c0,0,0,0,0,0c0,0,0,0,0,0
			c0,0,0,0,0,0c0,0,0,0,0,0c0,0,0,0,0,0c0,0,0,0,0,0c0,0,0-0.1-0.1-0.1c0,0,0,0,0,0C456.1,150.4,456,150.2,455.9,150L455.9,150z
			 M453.4,146.5l-1.8,1.3c0.4,0.6,0.8,1.1,1.2,1.7l1.8-1.3c-0.2-0.3-0.5-0.6-0.7-1c0,0,0,0,0,0c0,0,0,0,0,0c0,0,0,0,0,0c0,0,0,0,0,0
			c0,0,0,0,0,0c0,0,0,0,0,0c0,0,0,0,0,0c0,0,0,0,0,0c0,0,0,0,0,0c0,0,0,0,0,0c0,0,0,0,0,0c0,0,0,0,0,0c0,0,0,0,0,0c0,0,0,0,0,0
			c0,0,0,0,0,0c0,0,0,0,0,0c0,0,0,0,0,0c0,0,0,0,0,0c0,0,0,0,0,0c0,0,0,0,0,0c0,0,0,0,0,0l0,0c0,0,0,0,0,0c0,0,0,0,0,0c0,0,0,0,0,0
			c0,0,0,0,0,0C453.3,146.6,453.3,146.6,453.4,146.5C453.3,146.6,453.3,146.6,453.4,146.5C453.3,146.5,453.3,146.5,453.4,146.5
			C453.4,146.5,453.4,146.5,453.4,146.5L453.4,146.5z M450.7,143.1l-1.8,1.4c0.4,0.5,0.9,1.1,1.3,1.7l1.8-1.4
			c-0.1-0.1-0.1-0.2-0.2-0.3l0,0c0,0,0,0,0,0c0,0,0,0,0,0c0,0,0,0,0,0c0,0,0,0,0,0c0,0,0,0,0,0c0,0,0,0,0,0c0,0,0,0,0,0c0,0,0,0,0,0
			c0,0,0,0,0,0c0,0,0,0,0-0.1l0,0c-0.2-0.2-0.4-0.5-0.5-0.7c0,0,0,0,0,0c0,0,0,0,0,0c0,0,0,0,0,0c0,0,0,0,0,0c0,0,0,0,0,0
			c0,0,0,0,0,0c0,0,0,0,0,0c0,0,0,0,0,0c0,0,0,0,0,0c0,0,0,0,0,0c0,0,0,0,0,0c0,0,0,0,0,0C450.8,143.2,450.8,143.1,450.7,143.1
			L450.7,143.1z M447.9,139.8l-1.7,1.5c0.5,0.5,0.9,1.1,1.4,1.6l1.7-1.4c-0.1-0.1-0.2-0.3-0.3-0.4c0,0,0,0,0,0c0,0,0-0.1-0.1-0.1
			c0,0,0,0,0,0c0,0,0,0,0,0c0,0,0,0,0,0c0,0,0,0,0,0c0,0,0,0,0,0c0,0,0,0,0,0c0,0,0,0,0,0c0,0,0,0,0,0c0,0,0,0,0,0c0,0,0,0,0,0
			c0,0,0,0,0,0c0,0,0,0,0,0c0,0,0,0,0,0c0,0,0,0,0,0c0,0,0,0,0,0c0,0,0,0,0,0c0,0,0,0,0,0c0,0,0,0,0,0c0,0,0,0,0,0c0,0,0,0,0,0
			c0,0,0,0,0,0c0,0,0,0,0,0c0,0-0.1-0.1-0.1-0.1c0,0,0,0,0,0c0,0,0,0,0,0c0,0,0,0,0,0C448.2,140.1,448.1,139.9,447.9,139.8
			L447.9,139.8z M445,136.6l-1.6,1.5c0.5,0.5,1,1,1.4,1.6l1.7-1.5c-0.1-0.1-0.3-0.3-0.4-0.4l0,0c0,0,0-0.1-0.1-0.1c0,0,0,0,0,0
			c0,0,0,0,0,0c0,0,0,0,0,0s0,0,0,0c0,0,0,0,0,0c0,0,0,0,0,0c0,0,0,0,0,0c0,0,0,0,0,0c0,0,0,0,0,0c0,0,0,0,0,0c0,0,0,0,0,0
			c0,0,0,0,0,0c0,0,0,0,0,0c0,0,0,0,0,0c0,0,0,0,0,0c0,0,0,0,0,0c0,0,0,0,0,0c0,0,0,0,0,0s0,0,0,0c0,0,0,0,0,0c0,0,0,0,0,0
			c0,0,0,0,0,0c0,0,0,0,0,0c0,0,0,0,0,0c0,0,0,0,0,0c0,0,0,0,0,0c0,0,0,0,0,0c0,0,0,0,0,0c0,0,0,0,0,0c0,0,0,0,0,0c0,0,0,0,0,0
			C445.4,137,445.2,136.8,445,136.6L445,136.6z M442,133.5l-1.6,1.6c0.5,0.5,1,1,1.5,1.5l1.6-1.6c-0.4-0.4-0.7-0.7-1.1-1.1l0,0
			c0,0,0,0,0,0c0,0,0,0,0,0c0,0,0,0,0,0c0,0,0,0,0,0c0,0,0,0,0,0c0,0,0,0,0,0c0,0,0,0,0,0l0,0c0,0-0.1-0.1-0.1-0.1l0,0c0,0,0,0,0,0
			l0,0c0,0,0,0,0,0l0,0C442.1,133.6,442.1,133.5,442,133.5L442,133.5z M438.8,130.5l-1.5,1.7c0.5,0.5,1,0.9,1.6,1.4l1.5-1.6
			c-0.1-0.1-0.2-0.2-0.2-0.2c0,0,0,0,0,0c0,0,0,0,0,0c0,0,0,0,0,0c0,0,0,0,0,0C439.7,131.3,439.3,130.9,438.8,130.5L438.8,130.5z
			 M435.6,127.7l-1.4,1.7c0.5,0.4,1.1,0.9,1.6,1.4l1.5-1.7c-0.4-0.3-0.8-0.7-1.2-1c0,0,0,0,0,0c0,0,0,0,0,0c0,0,0,0,0,0c0,0,0,0,0,0
			c0,0,0,0,0,0c0,0,0,0,0,0l0,0c0,0,0,0-0.1-0.1c0,0,0,0,0,0c0,0,0,0,0,0c0,0,0,0,0,0c0,0,0,0,0,0c0,0,0,0,0,0c0,0,0,0,0,0
			c0,0,0,0,0,0c0,0,0,0,0,0c0,0,0,0,0,0c0,0,0,0,0,0c0,0,0,0,0,0c0,0,0,0,0,0c0,0,0,0,0,0c0,0,0,0,0,0
			C435.6,127.8,435.6,127.8,435.6,127.7C435.6,127.8,435.6,127.8,435.6,127.7C435.6,127.8,435.6,127.8,435.6,127.7
			C435.6,127.8,435.6,127.8,435.6,127.7C435.6,127.8,435.6,127.8,435.6,127.7C435.6,127.8,435.6,127.8,435.6,127.7
			C435.6,127.8,435.5,127.8,435.6,127.7C435.5,127.7,435.5,127.7,435.6,127.7C435.6,127.7,435.6,127.7,435.6,127.7L435.6,127.7z
			 M432.2,125.1l-1.3,1.8c0.6,0.4,1.1,0.8,1.7,1.3l1.4-1.8c0,0-0.1-0.1-0.1-0.1c0,0,0,0,0,0c0,0,0,0,0,0c0,0,0,0,0,0c0,0,0,0,0,0
			c0,0,0,0,0,0c0,0,0,0,0,0C433.2,125.8,432.7,125.5,432.2,125.1C432.2,125.1,432.2,125.1,432.2,125.1
			C432.2,125.1,432.2,125.1,432.2,125.1C432.2,125.1,432.2,125.1,432.2,125.1L432.2,125.1z M428.7,122.6l-1.3,1.9
			c0.6,0.4,1.1,0.8,1.7,1.2l1.3-1.8c-0.1-0.1-0.2-0.1-0.3-0.2c0,0,0,0,0,0c0,0,0,0,0,0c0,0,0,0,0,0c0,0,0,0,0,0c0,0,0,0,0,0
			c0,0,0,0,0,0c0,0,0,0,0,0h0c-0.3-0.2-0.6-0.4-0.9-0.6c0,0,0,0,0,0c0,0,0,0,0,0c0,0,0,0,0,0c0,0,0,0,0,0c0,0,0,0,0,0c0,0,0,0,0,0
			c0,0,0,0,0,0c0,0,0,0,0,0C428.9,122.7,428.8,122.6,428.7,122.6L428.7,122.6z M425,120.2l-1.2,1.9c0.6,0.4,1.2,0.7,1.8,1.1l1.2-1.9
			C426.2,121,425.6,120.6,425,120.2L425,120.2z M421.3,118l-1.1,2c0.6,0.3,1.2,0.7,1.8,1l1.1-1.9c-0.1-0.1-0.3-0.2-0.4-0.2
			c0,0,0,0,0,0c0,0,0,0,0,0c0,0,0,0,0,0c0,0,0,0,0,0c0,0,0,0,0,0c0,0,0,0,0,0C422.2,118.5,421.8,118.3,421.3,118L421.3,118z
			 M417.5,116l-1,2c0.6,0.3,1.3,0.6,1.9,1l1-2c-0.6-0.3-1.1-0.6-1.7-0.9c0,0,0,0,0,0c0,0,0,0,0,0h0
			C417.6,116.1,417.5,116.1,417.5,116L417.5,116z M413.6,114.2l-0.9,2.1c0.6,0.3,1.3,0.6,1.9,0.9l1-2
			C414.9,114.8,414.2,114.5,413.6,114.2L413.6,114.2z M409.5,112.6l-0.8,2.1c0.7,0.2,1.3,0.5,2,0.8l0.8-2.1
			C410.9,113.1,410.2,112.8,409.5,112.6L409.5,112.6z M405.5,111.2l-0.7,2.1c0.7,0.2,1.3,0.4,2,0.7l0.7-2.1
			c-0.6-0.2-1.1-0.4-1.7-0.6c0,0,0,0,0,0c0,0,0,0,0,0C405.7,111.2,405.6,111.2,405.5,111.2L405.5,111.2z M401.3,110l-0.6,2.2
			c0.7,0.2,1.4,0.4,2,0.6l0.6-2.2C402.7,110.3,402,110.1,401.3,110L401.3,110z M397.1,108.9l-0.5,2.2c0.7,0.1,1.4,0.3,2.1,0.5
			l0.5-2.2c-0.1,0-0.2,0-0.3-0.1c0,0,0,0,0,0c0,0,0,0,0,0c0,0,0,0,0,0c0,0,0,0,0,0c0,0,0,0,0,0c0,0,0,0,0,0
			c-0.3-0.1-0.5-0.1-0.8-0.2l0,0c0,0,0,0,0,0c0,0,0,0,0,0c0,0,0,0,0,0c0,0,0,0,0,0c0,0,0,0,0,0c0,0,0,0,0,0c0,0,0,0-0.1,0
			c0,0,0,0,0,0c0,0,0,0,0,0c0,0,0,0,0,0c0,0,0,0,0,0c0,0,0,0,0,0c0,0,0,0,0,0c0,0,0,0,0,0c0,0,0,0,0,0c0,0,0,0,0,0c0,0,0,0,0,0
			C397.5,109,397.3,109,397.1,108.9L397.1,108.9z M392.9,108.2l-0.4,2.2c0.7,0.1,1.4,0.2,2.1,0.4l0.4-2.2c-0.2,0-0.4-0.1-0.7-0.1
			c0,0,0,0,0,0c0,0,0,0,0,0h0c0,0,0,0-0.1,0c0,0,0,0,0,0c0,0,0,0,0,0c0,0,0,0,0,0c0,0,0,0,0,0c0,0,0,0,0,0c0,0,0,0,0,0c0,0,0,0,0,0
			l0,0C393.7,108.3,393.3,108.2,392.9,108.2L392.9,108.2z M388.6,107.6l-0.2,2.2c0.7,0.1,1.4,0.2,2.1,0.3l0.3-2.2
			C390,107.7,389.3,107.7,388.6,107.6L388.6,107.6z M384.3,107.2l-0.1,2.2c0.7,0,1.4,0.1,2.1,0.1l0.2-2.2
			C385.7,107.3,385,107.3,384.3,107.2L384.3,107.2z M380,107.1l0,2.2c0.7,0,1.4,0,2.1,0l0.1-2.2c-0.4,0-0.8,0-1.2,0h0c0,0,0,0,0,0
			c0,0,0,0,0,0c0,0,0,0,0,0c0,0,0,0,0,0s0,0,0,0c0,0,0,0,0,0c0,0,0,0,0,0c0,0,0,0,0,0c0,0,0,0,0,0c0,0,0,0,0,0c0,0,0,0,0,0
			c0,0,0,0,0,0c0,0,0,0,0,0c0,0,0,0,0,0h0c0,0,0,0,0,0c0,0,0,0,0,0C380.4,107.1,380.2,107.1,380,107.1L380,107.1z"/>
	</g>
	<text x="339" class="svg_element svg_element" y="161" onclick="choose_text('text1')" id="text1" font-size="27" font-family="Varela Round" fill="#FFFFFF" transform="rotate(null,null,null)">CAN'T<title></title></text>
	<text x="343.5" class="svg_element svg_element" y="198" onclick="choose_text('text2')" id="text2" font-size="27" font-family="Varela Round" fill="#FFFFFF" transform="rotate(null,null,null)">WAIT<title></title></text>
	<text x="359" class="svg_element svg_element" y="231" onclick="choose_text('text3')" id="text3" font-size="27" font-family="Varela Round" fill="#FFFFFF" transform="rotate(null,null,null)">TO<title></title></text>
	<text x="346.5" class="svg_element svg_element" y="266" onclick="choose_text('text4')" id="text4" font-size="27" font-family="Varela Round" fill="#75B6FF" transform="rotate(null,null,null)">FIND<title></title></text>
	<text x="349.5" class="svg_element svg_element" y="299" onclick="choose_text('text5')" id="text5" font-size="27" font-family="Varela Round" fill="#DC7AFF" transform="rotate(null,null,null)">OUT<title></title></text>
</g>
</svg>
