<?xml version="1.0" encoding="utf-8"?>
<!-- Generator: Adobe Illustrator 16.0.0, SVG Export Plug-In . SVG Version: 6.00 Build 0)  -->
<!DOCTYPE svg PUBLIC "-//W3C//DTD SVG 1.1//EN" "http://www.w3.org/Graphics/SVG/1.1/DTD/svg11.dtd">
<svg version="1.1" id="Layer_2" xmlns="http://www.w3.org/2000/svg" xmlns:xlink="http://www.w3.org/1999/xlink" x="0px" y="0px"
	 width="759px" height="439px" viewBox="0 0 759 439" style="enable-background:new 0 0 759 439;" xml:space="preserve">
<style type="text/css">
<![CDATA[
	.st0{fill:#4659A7;}
	.st1{fill:#7DA0D4;}
	.st2{fill:#7F5E26;}
	.st3{fill:#151943;}
	.st4{fill:#171719;}
	.st5{fill:#172919;}
	.st6{fill:#18331B;}
	.st7{fill:#E72834;}
	.st8{fill:#E7E9E9;}
	.st9{fill:#E8EAEA;}
	.st10{fill-rule:evenodd;clip-rule:evenodd;fill:none;stroke:#E4C54B;stroke-width:1.7463;stroke-miterlimit:10;}
	.st11{fill:#EAE71E;}
	.st12{fill:#EB185B;}
	.st13{fill:#EC2127;}
	.st14{fill:#503C2C;}
	.st15{fill:#507FC1;}
	.st16{fill:#542D8B;}
	.st17{fill:#8C6828;}
	.st18{fill:#BF2327;}
	.st19{fill:#231F20;}
	.st20{fill:#F7F3A3;}
	.st21{fill-rule:evenodd;clip-rule:evenodd;fill:none;stroke:#E4C54B;stroke-width:2.6195;stroke-miterlimit:10;}
	.st22{fill:#C2922E;}
	.st23{fill:#C597C5;}
	.st24{fill:#966828;}
	.st25{fill:#2B378B;}
	.st26{fill:#FAA532;}
	.st27{fill:#FBCA28;}
	.st28{fill:#FBCD36;}
	.st29{fill-rule:evenodd;clip-rule:evenodd;}
	.st30{fill:#FFFFFF;}
	.st31{fill-rule:evenodd;clip-rule:evenodd;fill:#F0CEE3;}
	.st32{fill:#FFFFFF;stroke:#7DA0D4;stroke-miterlimit:10;}
	.st33{fill:none;}
	.st34{fill:#231F20;stroke:#231F20;stroke-width:0.5;stroke-miterlimit:10;}
	.st35{fill:#679B9B;}
	.st36{fill:#9B732B;}
	.st37{fill:#CB7361;}
	.st38{fill:#CC2228;}
	.st39{fill:#311C10;}
	.st40{fill:#EC2127;stroke:#EC2127;stroke-width:0.5;stroke-miterlimit:10;}
	.st41{fill:#381414;}
	.st42{fill-rule:evenodd;clip-rule:evenodd;fill:#FBCDCD;}
	.st43{fill:#010101;}
	.st44{fill-rule:evenodd;clip-rule:evenodd;fill:#FFFFFF;}
	.st45{fill:#FFFFFF;stroke:#FFFFFF;stroke-miterlimit:10;}
	.st46{fill-rule:evenodd;clip-rule:evenodd;fill:#641E0F;}
	.st47{fill:#D3D3D3;}
	.st48{fill:#060707;}
	.st49{fill:#080908;}
	.st50{fill:#721212;}
	.st51{fill:#0E8141;}
	.st52{fill:#424143;}
	.st53{fill:#4259A8;}
]]>
</style>
<g id="band">
	<path id="Background" fill="#18331B" d="M759,151.8H472.2C452.7,116.4,418.5,93,379.5,93c-39,0-73.2,23.4-92.7,58.8H0v135.5h286.8
		c19.5,35.3,53.7,58.8,92.7,58.8c39,0,73.2-23.4,92.7-58.8H759V151.8z"/>
	<g id="Default">
		<g id="XMLID_272_">
			<g id="XMLID_300_">
				<g id="XMLID_1012_">
					<path id="XMLID_301_" fill="#0E8141" d="M414.3,218.1c0,0,8.3,0.5,20.3-7.8c0,0-28.3-6.7-38.3-37c0,0,8.3-0.2,15.8-2.7
						c0,0-20-10.3-32.5-42.3c-12.5,32-32.5,42.3-32.5,42.3c7.5,2.5,15.8,2.7,15.8,2.7c-10,30.3-38.3,37-38.3,37
						c12,8.3,20.3,7.8,20.3,7.8c-15.8,25.7-48,29.5-48,29.5c30.3,28.2,70,26.3,82.8,26.2s52.5,2.1,82.8-26.2
						C462.3,247.6,430,243.8,414.3,218.1z"/>
					<path id="XMLID_1009_" fill="#231F20" d="M372.4,274.8c-17,0-50.2-2.1-76.4-26.5l-1.6-1.5l2.1-0.3c0.3,0,30.7-3.9,46.3-27.6
						c-3.1-0.3-10.1-1.7-19-7.9l-1.9-1.3l2.2-0.5c0.3-0.1,27.1-6.8,37.1-35.1c-2.7-0.2-8.9-0.8-14.7-2.7l-2.3-0.8l2.1-1.1
						c0.2-0.1,19.9-10.5,32-41.7l0.9-2.4l0.9,2.4c12.2,31.2,31.8,41.6,32,41.7l2.1,1.1l-2.3,0.8c-5.8,1.9-12,2.6-14.7,2.7
						c10.1,28.3,36.8,35,37.1,35.1l2.2,0.5l-1.8,1.3c-9,6.2-15.9,7.6-19,7.9c15.6,23.7,46,27.5,46.3,27.6l2.1,0.3l-1.6,1.5
						c-28.4,26.5-64.8,26.4-80.3,26.4c-1.2,0-2.2,0-3.1,0l-1.8,0C376.2,274.8,374.4,274.8,372.4,274.8z M298.9,248.2
						c28.4,25.4,64.9,24.8,78.8,24.5l1.8,0c0.9,0,2,0,3.2,0c15,0,49.8,0.1,77.4-24.5c-7.5-1.4-33.2-7.6-46.6-29.6l-1-1.6l1.9,0.1
						c0.1,0,7.3,0.3,17.9-6.4c-6.8-2.3-28.4-11.4-36.9-37l-0.4-1.3l1.3,0c0.1,0,6.7-0.2,13.3-2c-5.3-3.4-19.8-14.5-30.1-39.3
						c-10.3,24.8-24.8,35.9-30.1,39.3c6.6,1.8,13.2,2,13.3,2l1.3,0l-0.4,1.3c-8.5,25.6-30.1,34.7-36.9,37c10.6,6.7,17.8,6.4,17.9,6.4
						l1.9-0.1l-1,1.6C332.1,240.6,306.4,246.8,298.9,248.2z"/>
				</g>
				<g id="XMLID_1008_">
					<path id="XMLID_299_" fill="#503C2C" d="M379.5,273.7c-8.1,0-16.2-0.2-16.2-0.2s0,15.2,0,19.6c0,4.8,16.2,5.3,16.2,5.3
						s16.2-0.5,16.2-5.3c0-4.3,0-19.7,0-19.7S387.6,273.7,379.5,273.7z"/>
					<path id="XMLID_1005_" fill="#231F20" d="M379.5,299.5c-2.9-0.1-17.2-0.8-17.2-6.3v-20.6l1,0c0.1,0,8.2,0.2,16.2,0.2
						c8,0,16.1-0.3,16.2-0.3l1,0v20.7C396.7,298.7,382.4,299.4,379.5,299.5z M364.3,274.6v18.6c0,2.6,9.1,4.1,15.2,4.3
						c6.1-0.2,15.2-1.7,15.2-4.3v-18.7c-2.4,0.1-8.8,0.2-15.2,0.2C373.1,274.7,366.7,274.6,364.3,274.6z"/>
				</g>
			</g>
			<g id="XMLID_1004_">
				<circle id="XMLID_298_" fill="#EAE71E" cx="325.1" cy="250.3" r="3.4"/>
				<path id="XMLID_1001_" fill="#231F20" d="M325.1,254.6c-2.4,0-4.4-2-4.4-4.4c0-2.4,2-4.4,4.4-4.4c2.4,0,4.4,2,4.4,4.4
					C329.5,252.7,327.5,254.6,325.1,254.6z M325.1,247.9c-1.3,0-2.4,1.1-2.4,2.4s1.1,2.4,2.4,2.4c1.3,0,2.4-1.1,2.4-2.4
					S326.4,247.9,325.1,247.9z"/>
			</g>
			<g id="XMLID_1000_">
				<circle id="XMLID_297_" fill="#EAE71E" cx="421.1" cy="253" r="3.4"/>
				<path id="XMLID_997_" fill="#231F20" d="M421.1,257.4c-2.4,0-4.4-2-4.4-4.4s2-4.4,4.4-4.4s4.4,2,4.4,4.4S423.5,257.4,421.1,257.4z
					 M421.1,250.7c-1.3,0-2.4,1.1-2.4,2.4s1.1,2.4,2.4,2.4c1.3,0,2.4-1.1,2.4-2.4S422.4,250.7,421.1,250.7z"/>
			</g>
			<g id="XMLID_996_">
				<circle id="XMLID_296_" fill="#EC2127" cx="353" cy="241.6" r="3.4"/>
				<path id="XMLID_993_" fill="#231F20" d="M353,246c-2.4,0-4.4-2-4.4-4.4s2-4.4,4.4-4.4c2.4,0,4.4,2,4.4,4.4S355.4,246,353,246z
					 M353,239.3c-1.3,0-2.4,1.1-2.4,2.4s1.1,2.4,2.4,2.4c1.3,0,2.4-1.1,2.4-2.4S354.3,239.3,353,239.3z"/>
			</g>
			<g id="XMLID_992_">
				<circle id="XMLID_295_" fill="#EAE71E" cx="378.5" cy="218" r="3.4"/>
				<path id="XMLID_989_" fill="#231F20" d="M378.5,222.4c-2.4,0-4.4-2-4.4-4.4s2-4.4,4.4-4.4s4.4,2,4.4,4.4S380.9,222.4,378.5,222.4z
					 M378.5,215.6c-1.3,0-2.4,1.1-2.4,2.4s1.1,2.4,2.4,2.4c1.3,0,2.4-1.1,2.4-2.4S379.8,215.6,378.5,215.6z"/>
			</g>
			<g id="XMLID_988_">
				<circle id="XMLID_293_" fill="#4259A8" cx="356.4" cy="204.9" r="3.4"/>
				<path id="XMLID_985_" fill="#231F20" d="M356.4,209.2c-2.4,0-4.4-2-4.4-4.4c0-2.4,2-4.4,4.4-4.4c2.4,0,4.4,2,4.4,4.4
					C360.7,207.3,358.8,209.2,356.4,209.2z M356.4,202.5c-1.3,0-2.4,1.1-2.4,2.4s1.1,2.4,2.4,2.4c1.3,0,2.4-1.1,2.4-2.4
					S357.7,202.5,356.4,202.5z"/>
			</g>
			<g id="XMLID_984_">
				<circle id="XMLID_292_" fill="#EAE71E" cx="373.1" cy="178.9" r="3.4"/>
				<path id="XMLID_981_" fill="#231F20" d="M373.1,183.2c-2.4,0-4.4-2-4.4-4.4c0-2.4,2-4.4,4.4-4.4c2.4,0,4.4,2,4.4,4.4
					C377.5,181.3,375.5,183.2,373.1,183.2z M373.1,176.5c-1.3,0-2.4,1.1-2.4,2.4s1.1,2.4,2.4,2.4c1.3,0,2.4-1.1,2.4-2.4
					S374.4,176.5,373.1,176.5z"/>
			</g>
			<g id="XMLID_980_">
				<circle id="XMLID_291_" fill="#EC2127" cx="394.4" cy="191.4" r="3.4"/>
				<path id="XMLID_977_" fill="#231F20" d="M394.4,195.7c-2.4,0-4.4-2-4.4-4.4c0-2.4,2-4.4,4.4-4.4c2.4,0,4.4,2,4.4,4.4
					C398.7,193.8,396.8,195.7,394.4,195.7z M394.4,189c-1.3,0-2.4,1.1-2.4,2.4s1.1,2.4,2.4,2.4c1.3,0,2.4-1.1,2.4-2.4
					S395.7,189,394.4,189z"/>
			</g>
			<g id="XMLID_976_">
				<circle id="XMLID_290_" fill="#4259A8" cx="379.5" cy="150" r="3.4"/>
				<path id="XMLID_973_" fill="#231F20" d="M379.5,154.4c-2.4,0-4.4-2-4.4-4.4s2-4.4,4.4-4.4s4.4,2,4.4,4.4S381.9,154.4,379.5,154.4z
					 M379.5,147.7c-1.3,0-2.4,1.1-2.4,2.4s1.1,2.4,2.4,2.4c1.3,0,2.4-1.1,2.4-2.4S380.8,147.7,379.5,147.7z"/>
			</g>
			<g id="XMLID_972_">
				<circle id="XMLID_289_" fill="#EC2127" cx="401.1" cy="229.4" r="3.4"/>
				<path id="XMLID_969_" fill="#231F20" d="M401.1,233.7c-2.4,0-4.4-2-4.4-4.4c0-2.4,2-4.4,4.4-4.4c2.4,0,4.4,2,4.4,4.4
					C405.4,231.8,403.5,233.7,401.1,233.7z M401.1,227c-1.3,0-2.4,1.1-2.4,2.4s1.1,2.4,2.4,2.4c1.3,0,2.4-1.1,2.4-2.4
					S402.4,227,401.1,227z"/>
			</g>
			<g id="XMLID_968_">
				<circle id="XMLID_288_" fill="#4259A8" cx="379.8" cy="256.4" r="3.4"/>
				<path id="XMLID_965_" fill="#231F20" d="M379.8,260.7c-2.4,0-4.4-2-4.4-4.4c0-2.4,2-4.4,4.4-4.4c2.4,0,4.4,2,4.4,4.4
					C384.2,258.8,382.2,260.7,379.8,260.7z M379.8,254c-1.3,0-2.4,1.1-2.4,2.4s1.1,2.4,2.4,2.4c1.3,0,2.4-1.1,2.4-2.4
					S381.1,254,379.8,254z"/>
			</g>
			<g id="XMLID_964_">
				<polygon id="XMLID_960_" fill="#EAE71E" points="379.5,112.8 383,119.9 390.8,121 385.1,126.5 386.5,134.2 379.5,130.6 
					372.5,134.2 373.9,126.5 368.2,121 376,119.9 			"/>
				<path id="XMLID_961_" fill="#231F20" d="M387.8,136.1l-8.3-4.4l-8.3,4.4l1.6-9.2l-6.7-6.5l9.3-1.3l4.1-8.4l4.1,8.4l9.3,1.3
					l-6.7,6.5L387.8,136.1z M379.5,129.4l5.6,3l-1.1-6.3l4.6-4.4l-6.3-0.9l-2.8-5.7l-2.8,5.7l-6.3,0.9l4.6,4.4l-1.1,6.3L379.5,129.4z
					"/>
			</g>
		</g>
	</g>
	<text x="498.5" class="svg_element" y="228.5" onclick="choose_text('text1')" id="text1" font-size="24" font-family="Crafty Girls" fill="#C40700" transform="rotate(null,null,null)">Merry Christmas!<title></title></text>
</g>
</svg>
