<?xml version="1.0" encoding="utf-8"?>
<!-- Generator: Adobe Illustrator 16.0.0, SVG Export Plug-In . SVG Version: 6.00 Build 0)  -->
<!DOCTYPE svg PUBLIC "-//W3C//DTD SVG 1.1//EN" "http://www.w3.org/Graphics/SVG/1.1/DTD/svg11.dtd">
<svg version="1.1" id="Layer_2" xmlns="http://www.w3.org/2000/svg" xmlns:xlink="http://www.w3.org/1999/xlink" x="0px" y="0px"
	 width="759px" height="439px" viewBox="0 0 759 439" style="enable-background:new 0 0 759 439;" xml:space="preserve">
<style type="text/css">
<![CDATA[
	.st0{fill:#4659A7;}
	.st1{fill:#7DA0D4;}
	.st2{fill:#7F5E26;}
	.st3{fill:#151943;}
	.st4{fill:#171719;}
	.st5{fill:#172919;}
	.st6{fill:#18331B;}
	.st7{fill:#E72834;}
	.st8{fill:#E7E9E9;}
	.st9{fill:#E8EAEA;}
	.st10{fill-rule:evenodd;clip-rule:evenodd;fill:none;stroke:#E4C54B;stroke-width:1.7463;stroke-miterlimit:10;}
	.st11{fill:#EAE71E;}
	.st12{fill:#EB185B;}
	.st13{fill:#EC2127;}
	.st14{fill:#503C2C;}
	.st15{fill:#507FC1;}
	.st16{fill:#542D8B;}
	.st17{fill:#8C6828;}
	.st18{fill:#BF2327;}
	.st19{fill:#231F20;}
	.st20{fill:#F7F3A3;}
	.st21{fill-rule:evenodd;clip-rule:evenodd;fill:none;stroke:#E4C54B;stroke-width:2.6195;stroke-miterlimit:10;}
	.st22{fill:#C2922E;}
	.st23{fill:#C597C5;}
	.st24{fill:#966828;}
	.st25{fill:#2B378B;}
	.st26{fill:#FAA532;}
	.st27{fill:#FBCA28;}
	.st28{fill:#FBCD36;}
	.st29{fill-rule:evenodd;clip-rule:evenodd;}
	.st30{fill:#FFFFFF;}
	.st31{fill-rule:evenodd;clip-rule:evenodd;fill:#F0CEE3;}
	.st32{fill:#FFFFFF;stroke:#7DA0D4;stroke-miterlimit:10;}
	.st33{fill:none;}
	.st34{fill:#231F20;stroke:#231F20;stroke-width:0.5;stroke-miterlimit:10;}
	.st35{fill:#679B9B;}
	.st36{fill:#9B732B;}
	.st37{fill:#CB7361;}
	.st38{fill:#CC2228;}
	.st39{fill:#311C10;}
	.st40{fill:#EC2127;stroke:#EC2127;stroke-width:0.5;stroke-miterlimit:10;}
	.st41{fill:#381414;}
	.st42{fill-rule:evenodd;clip-rule:evenodd;fill:#FBCDCD;}
	.st43{fill:#010101;}
	.st44{fill-rule:evenodd;clip-rule:evenodd;fill:#FFFFFF;}
	.st45{fill:#FFFFFF;stroke:#FFFFFF;stroke-miterlimit:10;}
	.st46{fill-rule:evenodd;clip-rule:evenodd;fill:#641E0F;}
	.st47{fill:#D3D3D3;}
	.st48{fill:#060707;}
	.st49{fill:#080908;}
	.st50{fill:#721212;}
	.st51{fill:#0E8141;}
	.st52{fill:#424143;}
	.st53{fill:#4259A8;}
]]>
</style>
<g id="band">
	<path id="Background" fill="#18331B" d="M759,151.8H472.2C452.7,116.4,418.5,93,379.5,93c-39,0-73.2,23.4-92.7,58.8H0v135.5h286.8
		c19.5,35.3,53.7,58.8,92.7,58.8c39,0,73.2-23.4,92.7-58.8H759V151.8z"/>
	<g id="Reindeer">
		<path id="XMLID_27_" class="st33" d="M593.8,193.2c0,0,2.3,1.1,4.1,1.5c0.8,0.2,1.2,0.6,1.5,0.9c0.2-0.1,0.4-0.1,0.5-0.1
			c0.5-0.1,0.6-3.8-3.7-6.9c-0.9-0.7-2-1.2-3.2-1.6C594,189.6,593.8,193.2,593.8,193.2z"/>
		<path id="XMLID_29_" class="st33" d="M581.8,194.2c0.4,0.4,3.4,0.6,5.1,0.4c1.7-0.2,3.2-0.7,4.3-2.9c0.8-1.5,0.5-3.5,0.3-5.1
			c-4-0.8-8.8-0.4-12.2-0.4c-0.2,0-0.4,0-0.7,0C577.9,193.1,581.4,193.9,581.8,194.2z"/>
		<path id="XMLID_30_" fill="#FFFFFF" d="M598.4,196.1c-0.5,0.3-1,0.9-1.2,1.7c0,0-4.4-0.8-5.8,0.3c-1.4,1.1-3.3,0.7-3.8,0.5
			s0.4,1.8,2.1,2.3c1.7,0.5,4.9,0.5,5.1,0.5s-0.6,1.3-0.7,3s-0.2,11.3-8.2,15.2s-17.1,0.9-21.3-0.5c-4.3-1.4-9.2-1.6-14.6,0.5
			c-1,0.4-4-6.3-9.6-5.2c0.6,1.3,0.7,1.6,0.9,3.3s1.3,4.1,4,5.2c-2.3,2.9-3.2,5.1-2.5,10.7c-0.5,1.4-2.8,4.2-4.8,5.7
			c-0.7,0.4-1.3,0.7-2,1c-0.2,0.1-0.4,0.1-0.6,0.2c-2.7,1-4.9,1.1-5.6,1.1c-0.9-0.1-3.9-0.2-4.5,1.3c-1.2,3.3-3.1,5.6-6.1,7.3
			c-4.3,2.5-5,1.8-5.7,1.8c-0.7,0-0.9,0.9-1.5,1.8c-0.6,0.9-1,1.3-1.9,1.3s-4.4,4-3.7,4s2.2-0.3,5.5-2.5c3.3-2.3,10.2-6.4,14.3-10.1
			c1.5-1.3,1.9-2.2,3.9-2c1,0.1,1.9,0.1,2.6,0.1c-0.1,0.2-0.1,0.3-0.2,0.5c-1.2,3.3-3.9,8.7-8.4,10.7s-5,1.8-5.7,1.8
			s-0.9,0.9-1.5,1.8c-0.6,0.9-1,1.3-1.9,1.3c-0.9,0-4.4,4-3.7,4s2.2-0.3,5.5-2.5c3.3-2.3,10.2-6.4,14.3-10.1
			c4.1-3.7,9.4-6.1,12.7-6.5s11.1-1.8,14.3-7.6c3-0.7,9.8,1.6,13.7,3c3.9,1.4,12.9,3.1,20.2,0.2c1.5-0.5,8,1.9,11.5,2.3
			c3.5,0.4,8.1,2,10.6,5.4c2.5,3.4,4.1,6.3,4.3,7.7c0.2,1.4,1.4,2.1,2.5,2.5c1.1,0.4,1.3,1.8,1.3,2.8s0.6,1.7,1.9,2.3
			c1.3,0.7,3.4,1.5,2.4-0.2s-9.3-15.1-10.2-16.6s-2-4.2-7.3-5.2c-1.8-0.4,2.6-1.8,6.8,1.5s7.2,6.1,7.7,6.8s0.5,2.5,2.5,2.6
			c2,0.1,3,0.3,3.5,1.7c0.5,1.3,3.3,1.8,4.1,1.2s-2.1-2.6-6-5.3s-10.2-8-12.3-10.3c-2.2-2.3-4.4-1.7-6.4-1.8c-2-0.1-6.2-2.3-7.7-3.3
			s1.6-4.4,2.4-7c0.8-2.6,0.5-10.4-0.3-14.9s-0.5-7-0.5-7s5.3-1.3,6.3-2.5c0.9-1.2,4.1-0.4,4.6-0.8c0.5-0.4,2.8-2.1,1.9-3.8
			s-2.4,0.2-5.6-0.9c-3.2-1.1-5.5-2.3-7.2-2.5c-1.7-0.2,0.1-3.4-1.1-5.1c-1.2-1.7-0.8-1.9,0.1-3.5s-0.1-6.7-2.8-7.8
			c0.1,1.8,1.1,3.2,0.2,5.1c-0.9,1.9-1.6,2.5-3.7,1.5s-3.3-2.5-4.4-5.2c-1.1-2.7-2-4.7-4.2-4.6c0.8,1.3,2.3,4.8,0.3,6.5
			c-2,1.7-5.4,2.3-7.6-0.4c-2.2-2.8-3.1-4.6-3.5-5.2c-0.4-0.6-0.2,1.8-0.2,3s-3.3,2.6-5.1-1.2s-1.5-5-1.5-5s-2.3,1.8-0.8,5.3
			c1.3,3.1,4.8,6.2,9,6.8c0.5-2,1.2-2.3,1.1-1.4c-0.1,0.5-0.1,1-0.2,1.5c0.2,0,0.4,0,0.7,0c3.4-0.1,8.2-0.4,12.2,0.4
			c-0.1-0.7-0.2-1.3-0.3-1.9c0.8,0.5,1.4,1.3,1.8,2.3c1.2,0.4,2.3,0.9,3.2,1.6c4.3,3.2,4.2,6.8,3.7,6.9c-0.1,0-0.3,0.1-0.5,0.1"/>
		<path id="XMLID_28_" fill="#FFFFFF" d="M599.4,195.6c-0.2-0.4-0.7-0.7-1.5-0.9c-1.8-0.4-4.1-1.5-4.1-1.5s0.2-3.6-0.9-6.2
			c-0.4-1-1-1.8-1.8-2.3c0,0.5,0.2,1.2,0.3,1.9c0.3,1.7,0.5,3.6-0.3,5.1c-1.1,2.2-2.6,2.7-4.3,2.9c-1.7,0.2-4.6,0-5.1-0.4
			c-0.4-0.4-3.9-1.1-3.3-8c0-0.5,0.1-1,0.2-1.5c0.2-0.9-0.5-0.6-1.1,1.4c-0.3,1.2-0.6,3.1-0.6,5.8c0,1.6-1.1,2-3.1,1.7
			s-10.1-4.6-10.5-14.7c-3.1,6.6,4.3,17.8,12.2,18.3s12.4-1.7,16.4-1.8c3.2-0.1,5,0,6.3,0.7"/>
	</g>
	<text x="338.5" class="svg_element" y="155" onclick="choose_text('text1')" id="text1" font-size="44" font-family="Grand Hotel" fill="#FFFFFF" transform="rotate(null,null,null)">Merry<title></title></text>
	<text x="302" class="svg_element" y="209.02833557128906" onclick="choose_text('text2')" id="text2" font-size="43" font-family="Grand Hotel" fill="#FFFFFF" transform="rotate(null,null,null)">Christmas,<title></title></text>
	<text x="265.5" class="svg_element" y="260.52833557128906" onclick="choose_text('text3')" id="text3" font-size="41" font-family="Grand Hotel" fill="#FFFFFF" transform="rotate(null,null,null)">Ya Filthy Animal<title></title></text>
</g>
</svg>
