<?xml version="1.0" encoding="utf-8"?>
<!-- Generator: Adobe Illustrator 16.0.0, SVG Export Plug-In . SVG Version: 6.00 Build 0)  -->
<!DOCTYPE svg PUBLIC "-//W3C//DTD SVG 1.1//EN" "http://www.w3.org/Graphics/SVG/1.1/DTD/svg11.dtd">
<svg version="1.1" id="Layer_2" xmlns="http://www.w3.org/2000/svg" xmlns:xlink="http://www.w3.org/1999/xlink" x="0px" y="0px"
	 width="759px" height="439px" viewBox="0 0 759 439" style="enable-background:new 0 0 759 439;" xml:space="preserve">
<style type="text/css">
<![CDATA[
	.st0{fill:#4659A7;}
	.st1{fill:#7DA0D4;}
	.st2{fill:#7F5E26;}
	.st3{fill:#151943;}
	.st4{fill:#171719;}
	.st5{fill:#172919;}
	.st6{fill:#18331B;}
	.st7{fill:#E72834;}
	.st8{fill:#E7E9E9;}
	.st9{fill:#E8EAEA;}
	.st10{fill-rule:evenodd;clip-rule:evenodd;fill:none;stroke:#E4C54B;stroke-width:1.7463;stroke-miterlimit:10;}
	.st11{fill:#EAE71E;}
	.st12{fill:#EB185B;}
	.st13{fill:#EC2127;}
	.st14{fill:#503C2C;}
	.st15{fill:#507FC1;}
	.st16{fill:#542D8B;}
	.st17{fill:#8C6828;}
	.st18{fill:#BF2327;}
	.st19{fill:#231F20;}
	.st20{fill:#F7F3A3;}
	.st21{fill-rule:evenodd;clip-rule:evenodd;fill:none;stroke:#E4C54B;stroke-width:2.6195;stroke-miterlimit:10;}
	.st22{fill:#C2922E;}
	.st23{fill:#C597C5;}
	.st24{fill:#966828;}
	.st25{fill:#2B378B;}
	.st26{fill:#FAA532;}
	.st27{fill:#FBCA28;}
	.st28{fill:#FBCD36;}
	.st29{fill-rule:evenodd;clip-rule:evenodd;}
	.st30{fill:#FFFFFF;}
	.st31{fill-rule:evenodd;clip-rule:evenodd;fill:#F0CEE3;}
	.st32{fill:#FFFFFF;stroke:#7DA0D4;stroke-miterlimit:10;}
	.st33{fill:none;}
	.st34{fill:#231F20;stroke:#231F20;stroke-width:0.5;stroke-miterlimit:10;}
	.st35{fill:#679B9B;}
	.st36{fill:#9B732B;}
	.st37{fill:#CB7361;}
	.st38{fill:#CC2228;}
	.st39{fill:#311C10;}
	.st40{fill:#EC2127;stroke:#EC2127;stroke-width:0.5;stroke-miterlimit:10;}
	.st41{fill:#381414;}
	.st42{fill-rule:evenodd;clip-rule:evenodd;fill:#FBCDCD;}
	.st43{fill:#010101;}
	.st44{fill-rule:evenodd;clip-rule:evenodd;fill:#FFFFFF;}
	.st45{fill:#FFFFFF;stroke:#FFFFFF;stroke-miterlimit:10;}
	.st46{fill-rule:evenodd;clip-rule:evenodd;fill:#641E0F;}
	.st47{fill:#D3D3D3;}
	.st48{fill:#060707;}
	.st49{fill:#080908;}
	.st50{fill:#721212;}
	.st51{fill:#0E8141;}
	.st52{fill:#424143;}
	.st53{fill:#4259A8;}
]]>
</style>
<g id="band">
	<path id="Background" fill="#000000" fill-rule="evenodd" clip-rule="evenodd" d="M379.5,334.9c-19.2,0-37.8-11-52.6-30.9c-3.1,1.4-6.4,2.1-9.7,2.1
			c-12.7,0-23.1-10.1-23.6-22.7c-2.1,0.5-4.2,0.8-6.4,0.8c-14.6,0-26.5-11.5-27.2-25.8L-0.2,247.8V138.2l260.4-10.5
			c1.9-13.3,13.3-23.4,26.9-23.4c2.2,0,4.3,0.3,6.4,0.8c0.5-12.6,10.9-22.7,23.6-22.7c2.9,0,5.7,0.5,8.4,1.6
			c15.1-21.2,34.2-32.8,54-32.8c19.7,0,38.8,11.6,53.8,32.6c2.5-0.9,5.2-1.4,7.9-1.4c12.8,0,23.2,10.2,23.6,22.9
			c2.3-0.6,4.6-0.9,7-0.9c13.7,0,25.1,10.1,26.9,23.4l260.4,10.5v109.6l-260.1,10.5c-0.7,14.4-12.7,25.8-27.2,25.8
			c-2.4,0-4.8-0.3-7-0.9c-0.4,12.7-10.8,22.9-23.6,22.9c-3.2,0-6.3-0.6-9.2-1.9C417.1,324,398.6,334.9,379.5,334.9z"/>
	<g id="UpperLineDotters">
		<ellipse id="XMLID_1494_" transform="matrix(0.9992 -3.956782e-002 3.956782e-002 0.9992 -5.9008 0.4065)" fill-rule="evenodd" clip-rule="evenodd" fill="#FFFFFF" cx="7.3" cy="149.3" rx="2.8" ry="2.8"/>
		<ellipse id="XMLID_1492_" transform="matrix(0.9992 -3.956098e-002 3.956098e-002 0.9992 -5.8733 0.8529)" fill-rule="evenodd" clip-rule="evenodd" fill="#FFFFFF" cx="18.6" cy="148.8" rx="2.8" ry="2.8"/>
		<ellipse id="XMLID_1490_" transform="matrix(0.9992 -3.948156e-002 3.948156e-002 0.9992 -5.835 1.2966)" fill-rule="evenodd" clip-rule="evenodd" fill="#FFFFFF" cx="29.9" cy="148.4" rx="2.8" ry="2.8"/>
		<ellipse id="XMLID_1488_" transform="matrix(0.9992 -3.947474e-002 3.947474e-002 0.9992 -5.8076 1.7419)" fill-rule="evenodd" clip-rule="evenodd" fill="#FFFFFF" cx="41.2" cy="147.9" rx="2.8" ry="2.8"/>
		<ellipse id="XMLID_1486_" transform="matrix(0.9992 -3.956098e-002 3.956098e-002 0.9992 -5.7937 2.1926)" fill-rule="evenodd" clip-rule="evenodd" fill="#FFFFFF" cx="52.5" cy="147.5" rx="2.8" ry="2.8"/>
		<ellipse id="XMLID_1484_" transform="matrix(0.9992 -3.948156e-002 3.948156e-002 0.9992 -5.7557 2.6336)" fill-rule="evenodd" clip-rule="evenodd" fill="#FFFFFF" cx="63.8" cy="147" rx="2.8" ry="2.8"/>
		<ellipse id="XMLID_1482_" transform="matrix(0.9992 -3.956098e-002 3.956098e-002 0.9992 -5.7406 3.0856)" fill-rule="evenodd" clip-rule="evenodd" fill="#FFFFFF" cx="75.1" cy="146.6" rx="2.8" ry="2.8"/>
		<ellipse id="XMLID_1480_" transform="matrix(0.9992 -3.947474e-002 3.947474e-002 0.9992 -5.7018 3.5242)" fill-rule="evenodd" clip-rule="evenodd" fill="#FFFFFF" cx="86.4" cy="146.1" rx="2.8" ry="2.8"/>
		<ellipse id="XMLID_1478_" transform="matrix(0.9992 -3.956098e-002 3.956098e-002 0.9992 -5.6876 3.9787)" fill-rule="evenodd" clip-rule="evenodd" fill="#FFFFFF" cx="97.7" cy="145.7" rx="2.8" ry="2.8"/>
		<ellipse id="XMLID_1476_" transform="matrix(0.9992 -3.956098e-002 3.956098e-002 0.9992 -5.6611 4.4253)" fill-rule="evenodd" clip-rule="evenodd" fill="#FFFFFF" cx="109" cy="145.3" rx="2.8" ry="2.8"/>
		<ellipse id="XMLID_1474_" transform="matrix(0.9992 -3.956098e-002 3.956098e-002 0.9992 -5.6346 4.8718)" fill-rule="evenodd" clip-rule="evenodd" fill="#FFFFFF" cx="120.3" cy="144.8" rx="2.8" ry="2.8"/>
		<ellipse id="XMLID_1472_" transform="matrix(0.9992 -3.938850e-002 3.938850e-002 0.9992 -5.584 5.2947)" fill-rule="evenodd" clip-rule="evenodd" fill="#FFFFFF" cx="131.6" cy="144.4" rx="2.8" ry="2.8"/>
		<ellipse id="XMLID_1470_" transform="matrix(0.9992 -3.956098e-002 3.956098e-002 0.9992 -5.5815 5.7649)" fill-rule="evenodd" clip-rule="evenodd" fill="#FFFFFF" cx="142.9" cy="143.9" rx="2.8" ry="2.8"/>
		<ellipse id="XMLID_1468_" transform="matrix(0.9992 -3.956098e-002 3.956098e-002 0.9992 -5.555 6.2114)" fill-rule="evenodd" clip-rule="evenodd" fill="#FFFFFF" cx="154.2" cy="143.5" rx="2.8" ry="2.8"/>
		<ellipse id="XMLID_1466_" transform="matrix(0.9992 -3.947474e-002 3.947474e-002 0.9992 -5.5167 6.6432)" fill-rule="evenodd" clip-rule="evenodd" fill="#FFFFFF" cx="165.5" cy="143" rx="2.8" ry="2.8"/>
		<ellipse id="XMLID_1464_" transform="matrix(0.9992 -3.956098e-002 3.956098e-002 0.9992 -5.502 7.1045)" fill-rule="evenodd" clip-rule="evenodd" fill="#FFFFFF" cx="176.8" cy="142.6" rx="2.8" ry="2.8"/>
		<ellipse id="XMLID_1462_" transform="matrix(0.9992 -3.956782e-002 3.956782e-002 0.9992 -5.4764 7.5524)" fill-rule="evenodd" clip-rule="evenodd" fill="#FFFFFF" cx="188.1" cy="142.1" rx="2.8" ry="2.8"/>
		<ellipse id="XMLID_1460_" transform="matrix(0.9992 -3.956782e-002 3.956782e-002 0.9992 -5.4498 7.999)" fill-rule="evenodd" clip-rule="evenodd" fill="#FFFFFF" cx="199.4" cy="141.7" rx="2.8" ry="2.8"/>
		<ellipse id="XMLID_1458_" transform="matrix(0.9992 -3.938850e-002 3.938850e-002 0.9992 -5.3995 8.4068)" fill-rule="evenodd" clip-rule="evenodd" fill="#FFFFFF" cx="210.7" cy="141.2" rx="2.8" ry="2.8"/>
		<ellipse id="XMLID_1456_" transform="matrix(0.9992 -3.956782e-002 3.956782e-002 0.9992 -5.3968 8.8923)" fill-rule="evenodd" clip-rule="evenodd" fill="#FFFFFF" cx="221.9" cy="140.8" rx="2.8" ry="2.8"/>
		<ellipse id="XMLID_1454_" transform="matrix(0.9992 -3.938850e-002 3.938850e-002 0.9992 -5.3467 9.2961)" fill-rule="evenodd" clip-rule="evenodd" fill="#FFFFFF" cx="233.2" cy="140.3" rx="2.8" ry="2.8"/>
		<ellipse id="XMLID_1452_" transform="matrix(0.9992 -3.956782e-002 3.956782e-002 0.9992 -5.3438 9.7855)" fill-rule="evenodd" clip-rule="evenodd" fill="#FFFFFF" cx="244.5" cy="139.9" rx="2.8" ry="2.8"/>
		<ellipse id="XMLID_1450_" transform="matrix(0.9992 -3.956098e-002 3.956098e-002 0.9992 -5.3163 10.2303)" fill-rule="evenodd" clip-rule="evenodd" fill="#FFFFFF" cx="255.8" cy="139.4" rx="2.8" ry="2.8"/>
		<path id="XMLID_1448_" fill-rule="evenodd" clip-rule="evenodd" fill="#FFFFFF" d="M269.2,136.4c1.2,1.1,0.9,3.2-0.9,4.2c-1.9,1-3.8,0-4-1.6c-0.2-1.5,0.4-3,1.3-3.5
		C266.5,135,268.1,135.3,269.2,136.4z"/>
		<path id="XMLID_1446_" fill-rule="evenodd" clip-rule="evenodd" fill="#FFFFFF" d="M273.5,126.1c1.4,0.7,2.1,2.2,1.8,3.4c-0.2,0.6-0.6,1.1-1.2,1.5
		c-0.6,0.5-1.4,0.7-2.1,0.5c-0.8-0.2-1.4-0.6-1.8-1.1c-0.4-0.6-0.6-1.5-0.3-2.4C270.2,126.2,272.1,125.4,273.5,126.1z"/>
		<path id="XMLID_1444_" fill-rule="evenodd" clip-rule="evenodd" fill="#FFFFFF" d="M281.2,118.1c0.7,1.4,0.3,3-0.7,3.8c-1,0.7-2.6,0.6-3.8-0.4c-1.1-1-1-3,0.5-4.1
		C278.6,116.2,280.5,116.7,281.2,118.1z"/>
		<path id="XMLID_1442_" fill-rule="evenodd" clip-rule="evenodd" fill="#FFFFFF" d="M292.2,116.8c-0.4,1.5-1.7,2.5-2.9,2.5c-1.2,0-2.4-1.2-2.7-2.7c-0.2-1.6,1.1-3,3-3
		C291.4,113.6,292.6,115.3,292.2,116.8z"/>
		<path id="XMLID_1440_" fill-rule="evenodd" clip-rule="evenodd" fill="#FFFFFF" d="M302.4,113.5c1.3,0.9,1.3,3.1-0.5,4.2c-1.7,1.2-3.7,0.4-4.1-1.1c-0.4-1.5,0.1-3,0.9-3.6
		C299.6,112.5,301.1,112.6,302.4,113.5z"/>
		<path id="XMLID_1438_" fill-rule="evenodd" clip-rule="evenodd" fill="#FFFFFF" d="M305.7,102.9c1.4,0.7,2.2,2.1,2,3.2c-0.1,0.6-0.5,1.1-1,1.5c-0.5,0.5-1.3,0.8-2.1,0.7
		c-0.8-0.1-1.5-0.4-1.9-0.9c-0.5-0.6-0.7-1.5-0.5-2.4C302.5,103.1,304.3,102.2,305.7,102.9z"/>
		<path id="XMLID_1436_" fill-rule="evenodd" clip-rule="evenodd" fill="#FFFFFF" d="M313.8,95.6c0.4,1.5-0.2,3-1.2,3.6c-1,0.6-2.6,0.3-3.7-0.8c-1.1-1.1-0.8-3.2,0.9-4.1
		C311.6,93.3,313.4,94.1,313.8,95.6z"/>
		<path id="XMLID_1434_" fill-rule="evenodd" clip-rule="evenodd" fill="#FFFFFF" d="M324.9,96.4c-0.1,0.8-0.5,1.5-1.2,1.8c-0.6,0.4-1.8,0.4-2.5,0.1
		c-1.1-0.4-1.9-1.8-1.8-3.3c0.1-1.6,1.8-2.7,3.7-2c0.8,0.3,1,0.7,1.3,1.3C324.8,94.9,325,95.6,324.9,96.4z"/>
		<path id="XMLID_1432_" fill-rule="evenodd" clip-rule="evenodd" fill="#FFFFFF" d="M334.5,91.7c0.6,0.5,1,1.1,1.1,1.8c0.1,0.8-0.3,1.7-1,2.4c-1.5,1.4-3.6,1-4.3-0.5
		c-0.6-1.4-0.4-3,0.4-3.7c0.4-0.4,0.9-0.5,1.6-0.6C333.1,91,333.9,91.2,334.5,91.7z"/>
		<path id="XMLID_1430_" fill-rule="evenodd" clip-rule="evenodd" fill="#FFFFFF" d="M341.7,82.9c1.1,1.1,1.2,2.9,0.2,4c-1,1.1-2.7,1.3-4,0.3c-1.2-1-1.4-2.8-0.3-4
		C338.7,82,340.5,81.8,341.7,82.9z"/>
		<path id="XMLID_1428_" fill-rule="evenodd" clip-rule="evenodd" fill="#FFFFFF" d="M350,75.3c0.9,1.2,0.8,3-0.4,4c-1.2,0.9-2.9,0.9-4-0.3c-1.1-1.1-1-3,0.3-4
		C347.2,73.9,349,74,350,75.3z"/>
		<path id="XMLID_1426_" fill-rule="evenodd" clip-rule="evenodd" fill="#FFFFFF" d="M359.5,69.3c0.7,1.4,0.2,3-1.1,3.8c-1.3,0.7-3,0.3-3.8-1c-0.9-1.3-0.4-3.1,1-3.9
		C357.1,67.3,358.9,67.9,359.5,69.3z"/>
		<path id="XMLID_1424_" fill-rule="evenodd" clip-rule="evenodd" fill="#FFFFFF" d="M370.1,65.5c0.3,1.5-0.6,3-2,3.4c-1.4,0.4-2.9-0.4-3.5-1.9c-0.5-1.4,0.3-3.2,1.9-3.6
		C368.2,63,369.8,63.9,370.1,65.5z"/>
		<path id="XMLID_1422_" fill-rule="evenodd" clip-rule="evenodd" fill="#FFFFFF" d="M381.4,64.6c-0.1,1.6-1.4,2.8-2.8,2.7c-1.4,0.1-2.7-1.2-2.8-2.7
		c-0.1-1.6,1.1-2.9,2.8-2.9C380.3,61.8,381.5,63.1,381.4,64.6z"/>
		<path id="XMLID_1420_" fill-rule="evenodd" clip-rule="evenodd" fill="#FFFFFF" d="M392.4,67c-0.6,1.5-2.1,2.2-3.5,1.9c-1.4-0.4-2.3-1.9-2-3.4c0.3-1.6,1.9-2.5,3.5-2
		C392.1,63.9,392.9,65.6,392.4,67z"/>
		<path id="XMLID_1418_" fill-rule="evenodd" clip-rule="evenodd" fill="#FFFFFF" d="M402.5,72c-0.8,1.3-2.6,1.7-3.8,1c-1.2-0.8-1.8-2.4-1.1-3.8c0.7-1.4,2.5-2,3.9-1.1
		C402.9,68.9,403.4,70.7,402.5,72z"/>
		<path id="XMLID_1416_" fill-rule="evenodd" clip-rule="evenodd" fill="#FFFFFF" d="M411.4,79c-1.1,1.2-2.8,1.2-4,0.3c-1.1-1-1.3-2.7-0.4-4c1-1.3,2.8-1.4,4-0.4
		C412.4,75.9,412.5,77.8,411.4,79z"/>
		<path id="XMLID_1414_" fill-rule="evenodd" clip-rule="evenodd" fill="#FFFFFF" d="M419.2,87.2c-1.2,1-2.9,0.8-4-0.3c-1-1.1-0.9-2.9,0.2-4c1.1-1.1,2.9-1,4,0.2
		C420.6,84.3,420.4,86.2,419.2,87.2z"/>
		<path id="XMLID_1412_" fill-rule="evenodd" clip-rule="evenodd" fill="#FFFFFF" d="M426.8,95.3c-0.6,1.5-2.7,2-4.2,0.6c-0.8-0.7-1.1-1.6-1.1-2.4c0.1-0.7,0.5-1.4,1.1-1.9
		c0.6-0.5,1.4-0.6,2.1-0.5c0.7,0,1.2,0.2,1.6,0.6C427.1,92.4,427.4,93.9,426.8,95.3z"/>
		<path id="XMLID_1410_" fill-rule="evenodd" clip-rule="evenodd" fill="#FFFFFF" d="M437.8,95c0,1.6-0.9,2.9-2,3.2c-0.4,0.1-1.6,0.2-2.3-0.2c-0.7-0.4-1.2-1-1.3-1.8
		c-0.1-0.8,0.1-1.5,0.4-2.1c0.3-0.6,0.5-1,1.6-1.3C436.1,92.2,437.8,93.4,437.8,95z"/>
		<path id="XMLID_1408_" fill-rule="evenodd" clip-rule="evenodd" fill="#FFFFFF" d="M448,98.9c-1.1,1.1-2.8,1.2-3.7,0.6c-1-0.6-1.5-2.2-1-3.7c0.5-1.5,2.4-2.1,4.1-1.1
		C449,95.9,449.2,97.9,448,98.9z"/>
		<path id="XMLID_1406_" fill-rule="evenodd" clip-rule="evenodd" fill="#FFFFFF" d="M452,109.2c-0.8,0.1-1.5-0.1-2.1-0.6c-0.6-0.7-0.9-1.2-1-1.8c-0.2-1.1,0.7-2.5,2.1-3.1
		c1.4-0.6,3.2,0.4,3.5,2.3c0.1,1-0.2,1.9-0.7,2.2C453.4,108.6,452.8,109.1,452,109.2z"/>
		<path id="XMLID_1404_" fill-rule="evenodd" clip-rule="evenodd" fill="#FFFFFF" d="M459.3,117c-0.3,1.5-2.2,2.5-4,1.4c-1.8-1.1-2-3.2-0.8-4.2c1.2-1,2.7-1.2,3.6-0.7
		C459.1,114,459.6,115.4,459.3,117z"/>
		<path id="XMLID_1402_" fill-rule="evenodd" clip-rule="evenodd" fill="#FFFFFF" d="M470.6,116.5c-0.2,1.5-1.4,2.7-2.7,2.7c-1.3,0.1-2.6-0.9-2.9-2.5
		c-0.4-1.5,0.8-3.1,2.7-3.2C469.5,113.5,470.8,115,470.6,116.5z"/>
		<path id="XMLID_1400_" fill-rule="evenodd" clip-rule="evenodd" fill="#FFFFFF" d="M480.5,121.4c-1.2,1.1-2.8,1.2-3.8,0.4c-1-0.7-1.4-2.3-0.7-3.8c0.6-1.4,2.6-1.9,4.1-0.8
		C481.5,118.4,481.6,120.4,480.5,121.4z"/>
		<path id="XMLID_1398_" fill-rule="evenodd" clip-rule="evenodd" fill="#FFFFFF" d="M485.2,131.5c-0.8,0.2-1.5,0-2.1-0.5c-0.6-0.4-1-0.9-1.2-1.5c-0.3-1.2,0.4-2.7,1.8-3.4
		c1.4-0.7,3.2,0.1,3.7,1.9c0.3,0.9,0,1.8-0.3,2.4C486.6,130.9,486,131.3,485.2,131.5z"/>
		<path id="XMLID_1396_" fill-rule="evenodd" clip-rule="evenodd" fill="#FFFFFF" d="M492.8,139c-0.2,1.6-2.1,2.5-4,1.6c-1.8-1-2.1-3.1-0.9-4.2c1.2-1.1,2.7-1.3,3.6-0.8
		C492.4,136,493.1,137.4,492.8,139z"/>
		<ellipse id="XMLID_1394_" transform="matrix(0.9992 3.956782e-002 -3.956782e-002 0.9992 5.9101 -19.7261)" fill-rule="evenodd" clip-rule="evenodd" fill="#FFFFFF" cx="501.3" cy="139.4" rx="2.8" ry="2.8"/>
		<ellipse id="XMLID_1392_" transform="matrix(0.9992 3.956098e-002 -3.956098e-002 0.9992 5.9356 -20.1692)" fill-rule="evenodd" clip-rule="evenodd" fill="#FFFFFF" cx="512.6" cy="139.9" rx="2.8" ry="2.8"/>
		<ellipse id="XMLID_1390_" transform="matrix(0.9992 3.956782e-002 -3.956782e-002 0.9992 5.9632 -20.6194)" fill-rule="evenodd" clip-rule="evenodd" fill="#FFFFFF" cx="523.9" cy="140.3" rx="2.8" ry="2.8"/>
		<ellipse id="XMLID_1388_" transform="matrix(0.9992 3.938850e-002 -3.938850e-002 0.9992 5.9607 -20.971)" fill-rule="evenodd" clip-rule="evenodd" fill="#FFFFFF" cx="535.2" cy="140.8" rx="2.8" ry="2.8"/>
		<ellipse id="XMLID_1386_" transform="matrix(0.9992 3.938170e-002 -3.938170e-002 0.9992 5.986 -21.4119)" fill-rule="evenodd" clip-rule="evenodd" fill="#FFFFFF" cx="546.5" cy="141.2" rx="2.8" ry="2.8"/>
		<ellipse id="XMLID_1384_" transform="matrix(0.9992 3.956782e-002 -3.956782e-002 0.9992 6.0427 -21.9592)" fill-rule="evenodd" clip-rule="evenodd" fill="#FFFFFF" cx="557.8" cy="141.7" rx="2.8" ry="2.8"/>
		<ellipse id="XMLID_1382_" transform="matrix(0.9992 3.956098e-002 -3.956098e-002 0.9992 6.0682 -22.4019)" fill-rule="evenodd" clip-rule="evenodd" fill="#FFFFFF" cx="569.1" cy="142.1" rx="2.8" ry="2.8"/>
		<ellipse id="XMLID_1380_" transform="matrix(0.9992 3.956782e-002 -3.956782e-002 0.9992 6.0958 -22.8524)" fill-rule="evenodd" clip-rule="evenodd" fill="#FFFFFF" cx="580.4" cy="142.6" rx="2.8" ry="2.8"/>
		<ellipse id="XMLID_1378_" transform="matrix(0.9992 3.947474e-002 -3.947474e-002 0.9992 6.1069 -23.2445)" fill-rule="evenodd" clip-rule="evenodd" fill="#FFFFFF" cx="591.7" cy="143" rx="2.8" ry="2.8"/>
		<ellipse id="XMLID_1376_" transform="matrix(0.9992 3.956098e-002 -3.956098e-002 0.9992 6.1477 -23.7416)" fill-rule="evenodd" clip-rule="evenodd" fill="#FFFFFF" cx="603" cy="143.5" rx="2.8" ry="2.8"/>
		<ellipse id="XMLID_1374_" transform="matrix(0.9992 3.956098e-002 -3.956098e-002 0.9992 6.1743 -24.1881)" fill-rule="evenodd" clip-rule="evenodd" fill="#FFFFFF" cx="614.3" cy="143.9" rx="2.8" ry="2.8"/>
		<ellipse id="XMLID_1372_" transform="matrix(0.9992 3.938850e-002 -3.938850e-002 0.9992 6.1716 -24.5278)" fill-rule="evenodd" clip-rule="evenodd" fill="#FFFFFF" cx="625.6" cy="144.4" rx="2.8" ry="2.8"/>
		<ellipse id="XMLID_1370_" transform="matrix(0.9992 3.956098e-002 -3.956098e-002 0.9992 6.2273 -25.0812)" fill-rule="evenodd" clip-rule="evenodd" fill="#FFFFFF" cx="636.9" cy="144.8" rx="2.8" ry="2.8"/>
		<ellipse id="XMLID_1368_" transform="matrix(0.9992 3.956098e-002 -3.956098e-002 0.9992 6.2538 -25.5278)" fill-rule="evenodd" clip-rule="evenodd" fill="#FFFFFF" cx="648.2" cy="145.3" rx="2.8" ry="2.8"/>
		<ellipse id="XMLID_1366_" transform="matrix(0.9992 3.956098e-002 -3.956098e-002 0.9992 6.2803 -25.9743)" fill-rule="evenodd" clip-rule="evenodd" fill="#FFFFFF" cx="659.4" cy="145.7" rx="2.8" ry="2.8"/>
		<ellipse id="XMLID_1364_" transform="matrix(0.9992 3.947474e-002 -3.947474e-002 0.9992 6.292 -26.3635)" fill-rule="evenodd" clip-rule="evenodd" fill="#FFFFFF" cx="670.7" cy="146.1" rx="2.8" ry="2.8"/>
		<ellipse id="XMLID_1362_" transform="matrix(0.9992 3.956782e-002 -3.956782e-002 0.9992 6.3345 -26.872)" fill-rule="evenodd" clip-rule="evenodd" fill="#FFFFFF" cx="682" cy="146.6" rx="2.8" ry="2.8"/>
		<ellipse id="XMLID_1360_" transform="matrix(0.9992 3.947474e-002 -3.947474e-002 0.9992 6.3448 -27.2547)" fill-rule="evenodd" clip-rule="evenodd" fill="#FFFFFF" cx="693.3" cy="147" rx="2.8" ry="2.8"/>
		<ellipse id="XMLID_1358_" transform="matrix(0.9992 3.956098e-002 -3.956098e-002 0.9992 6.3864 -27.7605)" fill-rule="evenodd" clip-rule="evenodd" fill="#FFFFFF" cx="704.6" cy="147.5" rx="2.8" ry="2.8"/>
		<ellipse id="XMLID_1356_" transform="matrix(0.9992 3.948156e-002 -3.948156e-002 0.9992 6.3989 -28.1506)" fill-rule="evenodd" clip-rule="evenodd" fill="#FFFFFF" cx="715.9" cy="147.9" rx="2.8" ry="2.8"/>
		<ellipse id="XMLID_1354_" transform="matrix(0.9992 3.947474e-002 -3.947474e-002 0.9992 6.4242 -28.5913)" fill-rule="evenodd" clip-rule="evenodd" fill="#FFFFFF" cx="727.2" cy="148.4" rx="2.8" ry="2.8"/>
		<ellipse id="XMLID_1352_" transform="matrix(0.9992 3.956782e-002 -3.956782e-002 0.9992 6.4672 -29.1051)" fill-rule="evenodd" clip-rule="evenodd" fill="#FFFFFF" cx="738.5" cy="148.8" rx="2.8" ry="2.8"/>
		<ellipse id="XMLID_1350_" transform="matrix(0.9992 3.956098e-002 -3.956098e-002 0.9992 6.4925 -29.5466)" fill-rule="evenodd" clip-rule="evenodd" fill="#FFFFFF" cx="749.8" cy="149.3" rx="2.8" ry="2.8"/>
		<path id="XMLID_1345_" class="st21" d="M0.1,141.3L264,130.9l0.3-2.1c1.7-12,12.1-21,24.2-21c1.9,0,3.8,0.2,5.7,0.7l3,0.7l0.1-3
		c0.4-11.3,9.6-20.1,20.9-20.1c2.5,0,5,0.5,7.4,1.4l1.8,0.7l1.1-1.6c14.4-20.2,32.7-31.4,51.4-31.4c18.6,0,36.8,11.1,51.2,31.2
		l1.1,1.5l1.8-0.6c2.2-0.8,4.6-1.2,7-1.2c11.2,0,20.5,9.1,20.9,20.2l0.1,3.1l3-0.8c2-0.5,4.2-0.8,6.3-0.8c12.1,0,22.5,9,24.2,21
		l0.3,2.1L759.5,143"/>
		<g id="XMLID_1342_">
			<path id="XMLID_1344_" class="st10" d="M758.9,225.7l-260.9,10.1c-9.1,0.4-16.4,7.6-16.9,16.7c-0.3,5.1-4.5,9.1-9.6,9.1
				c-0.8,0-1.7-0.1-2.5-0.3c-1.5-0.4-3-0.6-4.6-0.6c-3.7,0-7.4,1.2-10.5,3.5c-4.3,3.2-6.9,8.2-7.1,13.6c-0.1,3.2-2.8,5.8-6,5.8
				c-0.8,0-1.6-0.2-2.4-0.5c-2.2-0.9-4.6-1.4-6.9-1.4c-5.4,0-10.7,2.5-14.1,7.1c-11.4,15.2-25,23.6-38.4,23.6
				c-13.4,0-27.1-8.5-38.5-23.8c-3.4-4.6-8.7-7.1-14.1-7.1c-2.4,0-4.9,0.5-7.3,1.6c-0.8,0.4-1.6,0.5-2.5,0.5c-3.2,0-5.9-2.6-6-5.8
				c-0.2-5.3-2.8-10.2-7-13.4c-3.1-2.3-6.8-3.6-10.6-3.6c-1.4,0-2.8,0.2-4.2,0.5c-0.7,0.2-1.5,0.3-2.2,0.3c-5.1,0-9.4-4-9.6-9.1
				c-0.5-9.1-7.8-16.3-16.9-16.7L-0.5,224.6"/>
			<path id="XMLID_1343_" class="st10" d="M0.1,161.9l261.1-12c8.5-0.3,15.5-6.7,16.7-15.1c0.7-4.7,4.8-8.3,9.5-8.3
				c0.7,0,1.5,0.1,2.2,0.3c1.4,0.3,2.8,0.5,4.2,0.5c3.8,0,7.5-1.2,10.6-3.6c4.2-3.2,6.8-8.1,7-13.4c0.1-3.2,2.8-5.8,6-5.8
				c0.7,0,1.4,0.1,2.1,0.4c2.1,0.8,4.2,1.2,6.3,1.2c5.6,0,11-2.6,14.3-7.4c11.7-16.4,25.8-25.4,39.6-25.4c13.8,0,27.9,9,39.5,25.2
				c3.4,4.7,8.8,7.4,14.3,7.4c2,0,4-0.3,5.9-1c0.6-0.2,1.3-0.3,2-0.3c3.2,0,5.9,2.6,6,5.8c0.2,5.4,2.8,10.4,7.1,13.6
				c3.1,2.3,6.8,3.5,10.5,3.5c1.5,0,3.1-0.2,4.6-0.6c0.8-0.2,1.6-0.3,2.5-0.3c4.8,0,8.9,3.6,9.5,8.3c1.2,8.4,8.2,14.8,16.7,15.1
				l261.1,12"/>
		</g>
	</g>
	<g id="LowerLineDotters">
		<circle id="XMLID_1341_" fill-rule="evenodd" clip-rule="evenodd" fill="#FFFFFF" cx="750" cy="237.8" r="2.8"/>
		<circle id="XMLID_1339_" fill-rule="evenodd" clip-rule="evenodd" fill="#FFFFFF" cx="739" cy="238.2" r="2.8"/>
		<circle id="XMLID_1337_" fill-rule="evenodd" clip-rule="evenodd" fill="#FFFFFF" cx="728" cy="238.6" r="2.8"/>
		<circle id="XMLID_1335_" fill-rule="evenodd" clip-rule="evenodd" fill="#FFFFFF" cx="716.9" cy="239" r="2.8"/>
		<circle id="XMLID_1333_" fill-rule="evenodd" clip-rule="evenodd" fill="#FFFFFF" cx="705.9" cy="239.4" r="2.8"/>
		<circle id="XMLID_1331_" fill-rule="evenodd" clip-rule="evenodd" fill="#FFFFFF" cx="694.9" cy="239.7" r="2.8"/>
		<circle id="XMLID_1329_" fill-rule="evenodd" clip-rule="evenodd" fill="#FFFFFF" cx="683.8" cy="240.1" r="2.8"/>
		<circle id="XMLID_1327_" fill-rule="evenodd" clip-rule="evenodd" fill="#FFFFFF" cx="672.8" cy="240.5" r="2.8"/>
		<circle id="XMLID_1325_" fill-rule="evenodd" clip-rule="evenodd" fill="#FFFFFF" cx="661.8" cy="240.9" r="2.8"/>
		<circle id="XMLID_1323_" fill-rule="evenodd" clip-rule="evenodd" fill="#FFFFFF" cx="650.7" cy="241.3" r="2.8"/>
		<circle id="XMLID_1321_" fill-rule="evenodd" clip-rule="evenodd" fill="#FFFFFF" cx="639.7" cy="241.7" r="2.8"/>
		<circle id="XMLID_1319_" fill-rule="evenodd" clip-rule="evenodd" fill="#FFFFFF" cx="628.7" cy="242.1" r="2.8"/>
		<circle id="XMLID_1317_" fill-rule="evenodd" clip-rule="evenodd" fill="#FFFFFF" cx="617.6" cy="242.5" r="2.8"/>
		<circle id="XMLID_1315_" fill-rule="evenodd" clip-rule="evenodd" fill="#FFFFFF" cx="606.6" cy="242.8" r="2.8"/>
		<circle id="XMLID_1313_" fill-rule="evenodd" clip-rule="evenodd" fill="#FFFFFF" cx="595.6" cy="243.2" r="2.8"/>
		<circle id="XMLID_1311_" fill-rule="evenodd" clip-rule="evenodd" fill="#FFFFFF" cx="584.5" cy="243.6" r="2.8"/>
		<circle id="XMLID_1309_" fill-rule="evenodd" clip-rule="evenodd" fill="#FFFFFF" cx="573.5" cy="244" r="2.8"/>
		<circle id="XMLID_1307_" fill-rule="evenodd" clip-rule="evenodd" fill="#FFFFFF" cx="562.5" cy="244.4" r="2.8"/>
		<circle id="XMLID_1305_" fill-rule="evenodd" clip-rule="evenodd" fill="#FFFFFF" cx="551.4" cy="244.8" r="2.8"/>
		<circle id="XMLID_1303_" fill-rule="evenodd" clip-rule="evenodd" fill="#FFFFFF" cx="540.4" cy="245.2" r="2.8"/>
		<circle id="XMLID_1301_" fill-rule="evenodd" clip-rule="evenodd" fill="#FFFFFF" cx="529.4" cy="245.6" r="2.8"/>
		<circle id="XMLID_1299_" fill-rule="evenodd" clip-rule="evenodd" fill="#FFFFFF" cx="518.3" cy="245.9" r="2.8"/>
		<circle id="XMLID_1297_" fill-rule="evenodd" clip-rule="evenodd" fill="#FFFFFF" cx="507.3" cy="246.3" r="2.8"/>
		<path id="XMLID_1295_" fill-rule="evenodd" clip-rule="evenodd" fill="#FFFFFF" d="M493.5,246.9c-0.3-1.5,1.2-2.9,2.6-2.9c1.5-0.1,2.8,1.1,2.9,2.7
		c0.1,1.5-1.1,2.8-2.7,2.9C494.7,249.5,493.8,248.4,493.5,246.9z"/>
		<path id="XMLID_1293_" fill-rule="evenodd" clip-rule="evenodd" fill="#FFFFFF" d="M485.6,253.8c-1.5-0.3-2.3-2.3-1.2-4c1.1-1.7,3.2-1.8,4.1-0.6c1,1.2,1.1,2.7,0.5,3.6
		C488.5,253.6,487.1,254.2,485.6,253.8z"/>
		<path id="XMLID_1291_" fill-rule="evenodd" clip-rule="evenodd" fill="#FFFFFF" d="M482.6,264.3c-1.2-0.9-1.7-2.4-1.2-3.5c0.5-1.1,1.9-1.8,3.4-1.5c1.5,0.3,2.4,2,1.6,3.7
		C485.7,264.6,483.8,265.1,482.6,264.3z"/>
		<path id="XMLID_1289_" fill-rule="evenodd" clip-rule="evenodd" fill="#FFFFFF" d="M474.1,271c-0.5-1.4,0.1-2.9,1.2-3.5c1.1-0.6,2.6-0.3,3.6,0.9c1,1.1,0.6,3.1-1,3.9
		C476.3,273.2,474.5,272.4,474.1,271z"/>
		<path id="XMLID_1287_" fill-rule="evenodd" clip-rule="evenodd" fill="#FFFFFF" d="M463.2,271.2c0.1-0.8,0.6-1.4,1.3-1.8c0.7-0.4,1.2-0.5,1.9-0.4c1.2,0.2,2.3,1.4,2.3,2.9
		c0.1,1.5-1.4,2.8-3.2,2.5c-0.9-0.1-1.7-0.7-1.9-1.2C463.3,272.7,463.1,272,463.2,271.2z"/>
		<path id="XMLID_1285_" fill-rule="evenodd" clip-rule="evenodd" fill="#FFFFFF" d="M453.6,275.3c-1.3-0.8-1.5-2.9,0.1-4.2c1.6-1.3,3.6-0.7,4.1,0.7
		c0.5,1.4,0.2,2.9-0.6,3.6C456.4,276,454.9,276.1,453.6,275.3z"/>
		<path id="XMLID_1283_" fill-rule="evenodd" clip-rule="evenodd" fill="#FFFFFF" d="M450.6,285.8c-1.3-0.7-2-2.1-1.8-3.2c0.3-1.1,1.5-2.1,3.1-2.1c1.5,0,2.8,1.5,2.3,3.4
		C453.7,285.7,451.9,286.5,450.6,285.8z"/>
		<path id="XMLID_1281_" fill-rule="evenodd" clip-rule="evenodd" fill="#FFFFFF" d="M442.4,292.8c-0.4-1.5,0.2-2.9,1.2-3.5c1-0.5,2.6-0.3,3.6,0.8c1,1.1,0.7,3.1-0.9,4
		C444.6,295,442.8,294.2,442.4,292.8z"/>
		<path id="XMLID_1279_" fill-rule="evenodd" clip-rule="evenodd" fill="#FFFFFF" d="M431.7,291.7c0.2-0.7,0.6-1.4,1.3-1.7c0.7-0.3,1.7-0.2,2.2-0.1c1.1,0.4,1.9,1.7,1.8,3.2
		c-0.1,1.5-1.8,2.6-3.6,2c-1-0.4-1.3-0.8-1.5-1.4C431.7,293.2,431.5,292.5,431.7,291.7z"/>
		<path id="XMLID_1277_" fill-rule="evenodd" clip-rule="evenodd" fill="#FFFFFF" d="M421.9,295.4c-1.3-0.8-1.3-2.9,0.3-4.2c1.6-1.2,3.6-0.5,4.1,0.9c0.5,1.5,0,2.9-0.8,3.5
		C424.7,296.2,423.1,296.2,421.9,295.4z"/>
		<path id="XMLID_1275_" fill-rule="evenodd" clip-rule="evenodd" fill="#FFFFFF" d="M414.8,303.8c-1.1-1.1-1.2-2.8-0.2-3.9c1-1.1,2.7-1.2,3.9-0.2c1.2,1,1.3,2.8,0.2,3.9
		C417.6,304.8,415.8,304.8,414.8,303.8z"/>
		<path id="XMLID_1273_" fill-rule="evenodd" clip-rule="evenodd" fill="#FFFFFF" d="M406.5,311.1c-0.9-1.2-0.7-2.9,0.4-3.9c1.1-0.9,2.8-0.8,3.8,0.3c1,1.1,0.9,2.9-0.3,3.9
		C409.2,312.5,407.5,312.4,406.5,311.1z"/>
		<path id="XMLID_1271_" fill-rule="evenodd" clip-rule="evenodd" fill="#FFFFFF" d="M397.2,316.9c-0.7-1.4-0.1-3,1.1-3.7c1.3-0.7,2.9-0.3,3.7,1c0.8,1.3,0.4,3-1,3.8
		C399.5,318.9,397.8,318.3,397.2,316.9z"/>
		<path id="XMLID_1269_" fill-rule="evenodd" clip-rule="evenodd" fill="#FFFFFF" d="M386.8,320.5c-0.3-1.5,0.6-3,1.9-3.3c1.4-0.4,2.9,0.4,3.4,1.8c0.5,1.4-0.3,3.1-1.9,3.5
		C388.6,323,387.1,322.1,386.8,320.5z"/>
		<path id="XMLID_1267_" fill-rule="evenodd" clip-rule="evenodd" fill="#FFFFFF" d="M375.8,321.3c0.1-1.5,1.4-2.7,2.8-2.7c1.4-0.1,2.6,1.1,2.8,2.7c0.1,1.5-1.1,2.8-2.8,2.9
		C376.9,324.1,375.6,322.8,375.8,321.3z"/>
		<path id="XMLID_1265_" fill-rule="evenodd" clip-rule="evenodd" fill="#FFFFFF" d="M365,319c0.5-1.5,2-2.2,3.4-1.8c1.4,0.4,2.2,1.9,1.9,3.3c-0.3,1.5-1.8,2.4-3.4,2
		C365.3,322.1,364.5,320.4,365,319z"/>
		<path id="XMLID_1263_" fill-rule="evenodd" clip-rule="evenodd" fill="#FFFFFF" d="M355.1,314.2c0.8-1.3,2.5-1.7,3.7-1c1.2,0.7,1.8,2.3,1.1,3.7c-0.6,1.4-2.4,2-3.8,1.1
		C354.7,317.3,354.3,315.5,355.1,314.2z"/>
		<path id="XMLID_1261_" fill-rule="evenodd" clip-rule="evenodd" fill="#FFFFFF" d="M346.3,307.6c1-1.1,2.7-1.2,3.8-0.3c1.1,0.9,1.3,2.6,0.4,3.9c-0.9,1.2-2.7,1.4-3.9,0.4
		C345.4,310.5,345.3,308.7,346.3,307.6z"/>
		<path id="XMLID_1259_" fill-rule="evenodd" clip-rule="evenodd" fill="#FFFFFF" d="M338.7,299.6c1.2-1,2.9-0.8,3.9,0.2c1,1.1,0.9,2.8-0.2,3.9c-1.1,1.1-2.9,1-3.9-0.2
		C337.3,302.4,337.5,300.6,338.7,299.6z"/>
		<path id="XMLID_1257_" fill-rule="evenodd" clip-rule="evenodd" fill="#FFFFFF" d="M330.9,292c0.5-1.5,2.5-2.1,4.1-0.8c1.6,1.3,1.5,3.3,0.2,4.2c-1.3,0.8-2.8,0.8-3.6,0.2
		C330.8,294.9,330.4,293.4,330.9,292z"/>
		<path id="XMLID_1255_" fill-rule="evenodd" clip-rule="evenodd" fill="#FFFFFF" d="M320.2,293.1c-0.2-1.5,0.5-2.9,1.6-3.3c0.5-0.2,1.7-0.4,2.4,0c0.7,0.3,1.2,1,1.3,1.7
		c0.1,0.8,0,1.5-0.3,2.1c-0.3,0.6-0.4,1-1.3,1.4C322.2,295.6,320.5,294.6,320.2,293.1z"/>
		<path id="XMLID_1253_" fill-rule="evenodd" clip-rule="evenodd" fill="#FFFFFF" d="M309.8,290.7c1-1.2,2.5-1.5,3.5-1.1c1,0.5,1.7,1.9,1.4,3.4c-0.3,1.5-2.1,2.4-3.8,1.6
		C309.3,293.8,308.8,291.8,309.8,290.7z"/>
		<path id="XMLID_1251_" fill-rule="evenodd" clip-rule="evenodd" fill="#FFFFFF" d="M304.7,281.3c1.5-0.1,2.8,0.8,3.2,1.9c0.3,1.1-0.3,2.5-1.6,3.3
		c-1.3,0.8-3.2,0.1-3.7-1.7C302,282.9,303.1,281.3,304.7,281.3z"/>
		<path id="XMLID_1249_" fill-rule="evenodd" clip-rule="evenodd" fill="#FFFFFF" d="M299.3,272.3c0.6-1.4,2.6-1.8,4.1-0.4c1.5,1.4,1.2,3.5-0.2,4.2
		c-1.4,0.7-2.9,0.6-3.6-0.1C298.9,275.1,298.6,273.7,299.3,272.3z"/>
		<path id="XMLID_1247_" fill-rule="evenodd" clip-rule="evenodd" fill="#FFFFFF" d="M288.5,271.9c0.1-1.5,1.1-2.7,2.3-2.9c0.6-0.1,1.2,0,2,0.5c0.7,0.4,1.1,1.1,1.1,1.8
		c0.1,0.8-0.2,1.5-0.5,2c-0.2,0.5-0.9,1-1.8,1.1C289.8,274.7,288.4,273.5,288.5,271.9z"/>
		<path id="XMLID_1245_" fill-rule="evenodd" clip-rule="evenodd" fill="#FFFFFF" d="M278.2,268.3c1-1.2,2.5-1.5,3.6-0.9c1.1,0.6,1.6,2.1,1.2,3.5c-0.5,1.5-2.3,2.2-3.9,1.3
		C277.6,271.4,277.3,269.5,278.2,268.3z"/>
		<path id="XMLID_1243_" fill-rule="evenodd" clip-rule="evenodd" fill="#FFFFFF" d="M272.4,259.2c1.5-0.3,2.9,0.4,3.4,1.5c0.5,1.1,0,2.7-1.2,3.5c-1.3,0.9-3.1,0.3-3.8-1.3
		C270,261.3,270.9,259.5,272.4,259.2z"/>
		<path id="XMLID_1241_" fill-rule="evenodd" clip-rule="evenodd" fill="#FFFFFF" d="M268.5,249.2c0.9-1.2,3-1.1,4.1,0.6c1.1,1.7,0.3,3.6-1.2,4c-1.5,0.4-2.9-0.2-3.5-1
		C267.5,251.9,267.6,250.4,268.5,249.2z"/>
		<path id="XMLID_1239_" fill-rule="evenodd" clip-rule="evenodd" fill="#FFFFFF" d="M258.1,246.6c0.1-1.5,1.3-2.7,2.9-2.7c1.4,0,3,1.4,2.6,2.9c-0.3,1.5-1.2,2.6-2.9,2.6
		C259.2,249.4,258,248.1,258.1,246.6z"/>
		<circle id="XMLID_1237_" fill-rule="evenodd" clip-rule="evenodd" fill="#FFFFFF" cx="249.8" cy="246.3" r="2.8"/>
		<circle id="XMLID_1235_" fill-rule="evenodd" clip-rule="evenodd" fill="#FFFFFF" cx="238.8" cy="245.9" r="2.8"/>
		<circle id="XMLID_1233_" fill-rule="evenodd" clip-rule="evenodd" fill="#FFFFFF" cx="227.8" cy="245.5" r="2.8"/>
		<circle id="XMLID_1231_" fill-rule="evenodd" clip-rule="evenodd" fill="#FFFFFF" cx="216.7" cy="245.1" r="2.8"/>
		<circle id="XMLID_1229_" fill-rule="evenodd" clip-rule="evenodd" fill="#FFFFFF" cx="205.7" cy="244.7" r="2.8"/>
		<circle id="XMLID_1227_" fill-rule="evenodd" clip-rule="evenodd" fill="#FFFFFF" cx="194.7" cy="244.2" r="2.8"/>
		<circle id="XMLID_1225_" fill-rule="evenodd" clip-rule="evenodd" fill="#FFFFFF" cx="183.6" cy="243.8" r="2.8"/>
		<circle id="XMLID_1223_" fill-rule="evenodd" clip-rule="evenodd" fill="#FFFFFF" cx="172.6" cy="243.4" r="2.8"/>
		<circle id="XMLID_1221_" fill-rule="evenodd" clip-rule="evenodd" fill="#FFFFFF" cx="161.6" cy="243" r="2.8"/>
		<circle id="XMLID_1219_" fill-rule="evenodd" clip-rule="evenodd" fill="#FFFFFF" cx="150.5" cy="242.6" r="2.8"/>
		<circle id="XMLID_1217_" fill-rule="evenodd" clip-rule="evenodd" fill="#FFFFFF" cx="139.5" cy="242.2" r="2.8"/>
		<circle id="XMLID_1215_" fill-rule="evenodd" clip-rule="evenodd" fill="#FFFFFF" cx="128.5" cy="241.8" r="2.8"/>
		<circle id="XMLID_1213_" fill-rule="evenodd" clip-rule="evenodd" fill="#FFFFFF" cx="117.4" cy="241.4" r="2.8"/>
		<circle id="XMLID_1211_" fill-rule="evenodd" clip-rule="evenodd" fill="#FFFFFF" cx="106.4" cy="241" r="2.8"/>
		<circle id="XMLID_1209_" fill-rule="evenodd" clip-rule="evenodd" fill="#FFFFFF" cx="95.4" cy="240.5" r="2.8"/>
		<circle id="XMLID_1207_" fill-rule="evenodd" clip-rule="evenodd" fill="#FFFFFF" cx="84.3" cy="240.1" r="2.8"/>
		<circle id="XMLID_1205_" fill-rule="evenodd" clip-rule="evenodd" fill="#FFFFFF" cx="73.3" cy="239.7" r="2.8"/>
		<circle id="XMLID_1203_" fill-rule="evenodd" clip-rule="evenodd" fill="#FFFFFF" cx="62.3" cy="239.3" r="2.8"/>
		<circle id="XMLID_1201_" fill-rule="evenodd" clip-rule="evenodd" fill="#FFFFFF" cx="51.2" cy="238.9" r="2.8"/>
		<circle id="XMLID_1199_" fill-rule="evenodd" clip-rule="evenodd" fill="#FFFFFF" cx="40.2" cy="238.5" r="2.8"/>
		<circle id="XMLID_1197_" fill-rule="evenodd" clip-rule="evenodd" fill="#FFFFFF" cx="29.2" cy="238.1" r="2.8"/>
		<circle id="XMLID_1195_" fill-rule="evenodd" clip-rule="evenodd" fill="#FFFFFF" cx="18.2" cy="237.7" r="2.8"/>
		<circle id="XMLID_1193_" fill-rule="evenodd" clip-rule="evenodd" fill="#FFFFFF" cx="7.1" cy="237.3" r="2.8"/>
		<path id="XMLID_1188_" class="st21" d="M759.2,244.8l-263.8,10.4l-0.1,2.3c-0.7,13-11.4,23.2-24.4,23.2c-2.1,0-4.3-0.3-6.3-0.8
			l-3-0.8l-0.1,3.1c-0.3,11.2-9.7,20.2-20.9,20.2c-2.8,0-5.6-0.6-8.2-1.7l-1.8-0.8l-1.2,1.6c-14.2,18.9-31.9,29.4-49.9,29.4
			c-18.1,0-35.9-10.5-50.1-29.6l-1.2-1.6l-1.8,0.8c-2.7,1.2-5.7,1.9-8.6,1.9c-11.3,0-20.5-8.8-20.9-20.1l-0.1-3l-3,0.7
			c-1.9,0.5-3.8,0.7-5.7,0.7c-13,0-23.8-10.2-24.4-23.2l-0.1-2.3L-0.2,244.8"/>
		<g id="XMLID_1186_">
			<defs>
				<circle id="XMLID_1187_" cx="379.2" cy="194.1" r="76.2"/>
			</defs>
			<clipPath id="XMLID_3_">
				<use xlink:href="#XMLID_1187_"  style="overflow:visible;"/>
			</clipPath>
			<use xlink:href="#XMLID_1187_"  style="overflow:visible;fill:none;stroke:#E4C54B;stroke-width:2.2529;stroke-miterlimit:10;"/>
		</g>
	</g>
	<g id="CircleDotters">
		<path id="XMLID_1185_" fill-rule="evenodd" clip-rule="evenodd" fill="#FFFFFF" d="M466.9,202.9c-1.5-0.2-2.7-1.5-2.6-2.9s1.4-2.6,2.9-2.6c1.5,0,2.7,1.4,2.6,2.9
		C469.6,201.9,468.4,203.1,466.9,202.9z"/>
		<path id="XMLID_1183_" fill-rule="evenodd" clip-rule="evenodd" fill="#FFFFFF" d="M465.5,211.6c-1.5-0.3-2.5-1.7-2.3-3.2c0.2-1.4,1.6-2.5,3.1-2.3
		c1.5,0.2,2.5,1.6,2.3,3.2C468.4,210.9,467,211.9,465.5,211.6z"/>
		<path id="XMLID_1181_" fill-rule="evenodd" clip-rule="evenodd" fill="#FFFFFF" d="M463.4,220.1c-1.4-0.5-2.3-2-2-3.4c0.4-1.4,1.9-2.3,3.3-1.9c1.5,0.3,2.3,1.9,2,3.4
		C466.3,219.7,464.8,220.6,463.4,220.1z"/>
		<path id="XMLID_1179_" fill-rule="evenodd" clip-rule="evenodd" fill="#FFFFFF" d="M460.4,228.4c-1.4-0.6-2.1-2.2-1.6-3.6c0.5-1.4,2.1-2.1,3.5-1.6
		c1.4,0.5,2.2,2.1,1.6,3.6C463.4,228.2,461.8,228.9,460.4,228.4z"/>
		<path id="XMLID_1177_" fill-rule="evenodd" clip-rule="evenodd" fill="#FFFFFF" d="M456.6,236.3c-1.3-0.7-1.9-2.4-1.2-3.7c0.6-1.3,2.3-1.9,3.6-1.2
		c1.4,0.6,1.9,2.3,1.3,3.7C459.5,236.4,457.9,237,456.6,236.3z"/>
		<path id="XMLID_1175_" fill-rule="evenodd" clip-rule="evenodd" fill="#FFFFFF" d="M452,243.7c-1.2-0.8-1.6-2.5-0.8-3.8c0.8-1.2,2.4-1.6,3.7-0.9c1.3,0.8,1.7,2.5,0.9,3.8
		C454.9,244.2,453.3,244.6,452,243.7z"/>
		<path id="XMLID_1173_" fill-rule="evenodd" clip-rule="evenodd" fill="#FFFFFF" d="M446.7,250.7c-1.1-1-1.3-2.7-0.4-3.8c0.9-1.2,2.6-1.4,3.8-0.5c1.2,0.9,1.4,2.6,0.5,3.9
		C449.6,251.6,447.8,251.7,446.7,250.7z"/>
		<path id="XMLID_1171_" fill-rule="evenodd" clip-rule="evenodd" fill="#FFFFFF" d="M440.7,257.1c-1-1.1-1-2.7-0.1-3.9c1-1.1,2.7-1.1,3.8-0.1c1.1,1,1.2,2.8,0.1,3.9
		C443.6,258.3,441.7,258.2,440.7,257.1z"/>
		<path id="XMLID_1169_" fill-rule="evenodd" clip-rule="evenodd" fill="#FFFFFF" d="M434.1,262.9c-1-1.2-0.7-2.8,0.3-3.8c1.1-1,2.8-0.9,3.8,0.2c1,1.1,0.9,2.9-0.3,3.9
		C436.9,264.4,435,264.1,434.1,262.9z"/>
		<path id="XMLID_1167_" fill-rule="evenodd" clip-rule="evenodd" fill="#FFFFFF" d="M427,268.1c-0.8-1.3-0.4-2.8,0.7-3.8c1.2-0.9,2.9-0.6,3.8,0.6c0.9,1.2,0.6,3-0.6,3.9
		C429.6,269.8,427.8,269.3,427,268.1z"/>
		<path id="XMLID_1165_" fill-rule="evenodd" clip-rule="evenodd" fill="#FFFFFF" d="M419.4,272.5c-0.7-1.4-0.1-2.9,1.1-3.6c1.2-0.8,2.9-0.3,3.7,1c0.8,1.3,0.3,3-1,3.8
		C421.8,274.4,420,273.8,419.4,272.5z"/>
		<path id="XMLID_1163_" fill-rule="evenodd" clip-rule="evenodd" fill="#FFFFFF" d="M411.4,276.1c-0.6-1.4,0.1-2.9,1.5-3.5c1.3-0.6,2.9,0,3.6,1.3s0,3-1.4,3.7
		C413.6,278.2,411.9,277.5,411.4,276.1z"/>
		<path id="XMLID_1161_" fill-rule="evenodd" clip-rule="evenodd" fill="#FFFFFF" d="M403.1,278.9c-0.4-1.5,0.4-2.9,1.8-3.3c1.4-0.5,2.9,0.2,3.4,1.7c0.5,1.4-0.3,3-1.8,3.6
		C405,281.2,403.5,280.3,403.1,278.9z"/>
		<path id="XMLID_1159_" fill-rule="evenodd" clip-rule="evenodd" fill="#FFFFFF" d="M394.5,280.8c-0.3-1.5,0.7-2.9,2.2-3.1c1.4-0.4,2.9,0.5,3.2,2c0.4,1.5-0.6,3-2.1,3.4
		C396.2,283.3,394.8,282.3,394.5,280.8z"/>
		<path id="XMLID_1157_" fill-rule="evenodd" clip-rule="evenodd" fill="#FFFFFF" d="M385.8,281.9c-0.1-1.5,1-2.8,2.5-2.9c1.4-0.2,2.8,0.8,3,2.3c0.2,1.5-0.9,2.9-2.4,3.1
		C387.3,284.6,385.9,283.4,385.8,281.9z"/>
		<path id="XMLID_1155_" fill-rule="evenodd" clip-rule="evenodd" fill="#FFFFFF" d="M377,282.1c0-1.5,1.3-2.6,2.7-2.7c1.5-0.1,2.7,1.1,2.8,2.6c0.1,1.5-1.2,2.8-2.7,2.9
		C378.2,284.9,377,283.6,377,282.1z"/>
		<path id="XMLID_1153_" fill-rule="evenodd" clip-rule="evenodd" fill="#FFFFFF" d="M368.3,281.5c0.2-1.5,1.5-2.5,3-2.4c1.5,0.1,2.6,1.4,2.5,2.9c-0.1,1.5-1.4,2.7-3,2.6
		C369.2,284.4,368.1,282.9,368.3,281.5z"/>
		<path id="XMLID_1151_" fill-rule="evenodd" clip-rule="evenodd" fill="#FFFFFF" d="M359.6,279.9c0.4-1.5,1.8-2.3,3.2-2.1c1.4,0.2,2.4,1.6,2.2,3.1
		c-0.2,1.5-1.7,2.5-3.2,2.3C360.2,283,359.3,281.4,359.6,279.9z"/>
		<path id="XMLID_1149_" fill-rule="evenodd" clip-rule="evenodd" fill="#FFFFFF" d="M351.2,277.6c0.5-1.5,2-2.1,3.4-1.8c1.4,0.4,2.2,1.8,1.9,3.3c-0.4,1.5-1.9,2.3-3.4,1.9
		C351.5,280.7,350.7,279,351.2,277.6z"/>
		<path id="XMLID_1147_" fill-rule="evenodd" clip-rule="evenodd" fill="#FFFFFF" d="M343,274.4c0.6-1.4,2.2-1.9,3.5-1.4c1.4,0.5,2.1,2.1,1.5,3.5c-0.5,1.4-2.2,2.1-3.6,1.6
		C343,277.5,342.4,275.7,343,274.4z"/>
		<path id="XMLID_1145_" fill-rule="evenodd" clip-rule="evenodd" fill="#FFFFFF" d="M335.2,270.3c0.8-1.3,2.4-1.7,3.7-1c1.3,0.6,1.8,2.2,1.2,3.6c-0.7,1.4-2.4,1.9-3.8,1.2
		C334.9,273.4,334.5,271.6,335.2,270.3z"/>
		<path id="XMLID_1143_" fill-rule="evenodd" clip-rule="evenodd" fill="#FFFFFF" d="M327.9,265.6c0.9-1.2,2.6-1.5,3.7-0.6c1.2,0.8,1.6,2.4,0.8,3.7
		c-0.8,1.3-2.5,1.7-3.9,0.8C327.3,268.6,327,266.8,327.9,265.6z"/>
		<path id="XMLID_1141_" fill-rule="evenodd" clip-rule="evenodd" fill="#FFFFFF" d="M321,260.1c1-1.1,2.7-1.2,3.8-0.3c1.1,0.9,1.4,2.6,0.4,3.8c-0.9,1.2-2.7,1.4-3.9,0.4
		C320.1,263,320,261.2,321,260.1z"/>
		<path id="XMLID_1139_" fill-rule="evenodd" clip-rule="evenodd" fill="#FFFFFF" d="M314.7,254c1.1-1,2.8-1,3.8,0.1c1,1.1,1.1,2.7,0,3.8c-1,1.1-2.9,1.2-3.9,0
		C313.6,256.8,313.6,255,314.7,254z"/>
		<path id="XMLID_1137_" fill-rule="evenodd" clip-rule="evenodd" fill="#FFFFFF" d="M309.1,247.3c1.2-0.9,2.9-0.7,3.8,0.5c0.9,1.2,0.8,2.8-0.3,3.8c-1.1,1-3,0.9-3.9-0.4
		C307.7,249.9,307.9,248.2,309.1,247.3z"/>
		<path id="XMLID_1135_" fill-rule="evenodd" clip-rule="evenodd" fill="#FFFFFF" d="M304.2,240c1.3-0.8,3-0.4,3.7,0.8c0.7,1.3,0.5,2.9-0.7,3.8c-1.2,0.9-3.1,0.6-3.8-0.8
		C302.5,242.5,302.9,240.8,304.2,240z"/>
		<path id="XMLID_1133_" fill-rule="evenodd" clip-rule="evenodd" fill="#FFFFFF" d="M300,232.3c1.4-0.6,3-0.1,3.6,1.2c0.6,1.3,0.2,2.9-1.1,3.7c-1.3,0.7-3.1,0.3-3.7-1.1
		C298,234.6,298.6,233,300,232.3z"/>
		<path id="XMLID_1131_" fill-rule="evenodd" clip-rule="evenodd" fill="#FFFFFF" d="M296.5,224.2c1.4-0.5,3,0.2,3.5,1.6c0.5,1.4-0.1,2.9-1.5,3.6c-1.4,0.6-3.1,0-3.6-1.5
		C294.4,226.3,295.1,224.7,296.5,224.2z"/>
		<path id="XMLID_1129_" fill-rule="evenodd" clip-rule="evenodd" fill="#FFFFFF" d="M294,215.8c1.5-0.4,3,0.5,3.3,1.9c0.3,1.4-0.5,2.9-1.9,3.4c-1.5,0.5-3-0.3-3.4-1.9
		C291.6,217.7,292.5,216.2,294,215.8z"/>
		<path id="XMLID_1127_" fill-rule="evenodd" clip-rule="evenodd" fill="#FFFFFF" d="M292.2,207.2c1.5-0.2,2.9,0.8,3.1,2.2c0.2,1.5-0.8,2.9-2.2,3.2c-1.5,0.3-3-0.6-3.2-2.2
		C289.7,208.9,290.7,207.5,292.2,207.2z"/>
		<path id="XMLID_1125_" fill-rule="evenodd" clip-rule="evenodd" fill="#FFFFFF" d="M291.4,198.5c1.5-0.1,2.8,1.1,2.9,2.5c0,1.5-1,2.8-2.5,3c-1.5,0.2-2.9-0.9-3-2.5
		C288.7,199.9,289.9,198.6,291.4,198.5z"/>
		<path id="XMLID_1123_" fill-rule="evenodd" clip-rule="evenodd" fill="#FFFFFF" d="M291.4,189.8c1.5,0.1,2.7,1.3,2.6,2.8c-0.1,1.5-1.3,2.7-2.8,2.7c-1.5,0-2.8-1.2-2.7-2.8
		C288.6,190.9,289.9,189.7,291.4,189.8z"/>
		<path id="XMLID_1121_" fill-rule="evenodd" clip-rule="evenodd" fill="#FFFFFF" d="M292.2,181c1.5,0.2,2.5,1.6,2.3,3c-0.3,1.4-1.5,2.5-3,2.4c-1.5-0.1-2.7-1.5-2.4-3
		C289.3,181.9,290.7,180.8,292.2,181z"/>
		<path id="XMLID_1119_" fill-rule="evenodd" clip-rule="evenodd" fill="#FFFFFF" d="M294,172.4c1.5,0.4,2.4,1.8,2,3.2c-0.4,1.4-1.7,2.4-3.2,2.1c-1.5-0.3-2.6-1.8-2.1-3.3
		C291,173,292.5,172,294,172.4z"/>
		<path id="XMLID_1117_" fill-rule="evenodd" clip-rule="evenodd" fill="#FFFFFF" d="M296.5,164c1.4,0.5,2.2,2.1,1.7,3.4c-0.6,1.4-1.9,2.2-3.4,1.8c-1.4-0.4-2.4-2-1.8-3.5
		C293.5,164.3,295.1,163.5,296.5,164z"/>
		<path id="XMLID_1115_" fill-rule="evenodd" clip-rule="evenodd" fill="#FFFFFF" d="M300,156c1.4,0.7,1.9,2.3,1.3,3.6c-0.7,1.3-2.2,2-3.6,1.4c-1.4-0.6-2.1-2.2-1.4-3.6
		C296.9,155.9,298.6,155.3,300,156z"/>
		<path id="XMLID_1113_" fill-rule="evenodd" clip-rule="evenodd" fill="#FFFFFF" d="M304.2,148.3c1.3,0.8,1.7,2.5,1,3.7c-0.8,1.2-2.4,1.7-3.7,1c-1.4-0.7-1.9-2.4-1-3.7
		C301.2,147.9,302.9,147.5,304.2,148.3z"/>
		<path id="XMLID_1111_" fill-rule="evenodd" clip-rule="evenodd" fill="#FFFFFF" d="M309.1,141c1.2,0.9,1.5,2.6,0.6,3.8c-0.9,1.2-2.6,1.5-3.8,0.6c-1.3-0.8-1.6-2.6-0.6-3.8
		C306.2,140.4,307.9,140.1,309.1,141z"/>
		<path id="XMLID_1109_" fill-rule="evenodd" clip-rule="evenodd" fill="#FFFFFF" d="M314.7,134.3c1.1,1,1.2,2.8,0.2,3.8c-1,1.1-2.7,1.2-3.9,0.3c-1.2-1-1.3-2.7-0.2-3.9
		C311.9,133.4,313.6,133.3,314.7,134.3z"/>
		<path id="XMLID_1107_" fill-rule="evenodd" clip-rule="evenodd" fill="#FFFFFF" d="M321,128.2c1,1.1,0.9,2.9-0.2,3.8c-1.1,1-2.8,0.9-3.9-0.1c-1.1-1.1-1-2.8,0.2-3.8
		C318.3,127,320,127,321,128.2z"/>
		<path id="XMLID_1105_" fill-rule="evenodd" clip-rule="evenodd" fill="#FFFFFF" d="M327.9,122.7c0.9,1.2,0.6,2.9-0.5,3.8c-1.2,0.9-2.9,0.6-3.9-0.5c-1-1.2-0.7-2.9,0.5-3.8
		C325.3,121.2,327,121.5,327.9,122.7z"/>
		<path id="XMLID_1103_" fill-rule="evenodd" clip-rule="evenodd" fill="#FFFFFF" d="M335.2,117.9c0.8,1.3,0.3,3-0.9,3.8c-1.2,0.8-2.9,0.4-3.8-0.9s-0.4-2.9,0.9-3.8
		C332.8,116.2,334.5,116.6,335.2,117.9z"/>
		<path id="XMLID_1101_" fill-rule="evenodd" clip-rule="evenodd" fill="#FFFFFF" d="M343,113.9c0.6,1.4,0,3-1.3,3.6c-1.3,0.6-3,0.1-3.7-1.3c-0.7-1.3-0.1-3,1.3-3.6
		C340.8,112,342.4,112.5,343,113.9z"/>
		<path id="XMLID_1099_" fill-rule="evenodd" clip-rule="evenodd" fill="#FFFFFF" d="M351.2,110.7c0.5,1.4-0.3,3-1.6,3.5c-1.4,0.5-3-0.2-3.5-1.6c-0.6-1.4,0.1-3,1.6-3.5
		C349.1,108.5,350.7,109.3,351.2,110.7z"/>
		<path id="XMLID_1097_" fill-rule="evenodd" clip-rule="evenodd" fill="#FFFFFF" d="M359.6,108.3c0.3,1.5-0.6,3-2,3.3c-1.4,0.4-2.9-0.5-3.3-2s0.4-2.9,2-3.3
		C357.8,106,359.3,106.9,359.6,108.3z"/>
		<path id="XMLID_1095_" fill-rule="evenodd" clip-rule="evenodd" fill="#FFFFFF" d="M368.3,106.8c0.2,1.5-0.8,2.9-2.3,3.1s-2.8-0.8-3.1-2.3c-0.3-1.5,0.7-2.9,2.3-3.1
		C366.7,104.3,368.1,105.3,368.3,106.8z"/>
		<path id="XMLID_1093_" fill-rule="evenodd" clip-rule="evenodd" fill="#FFFFFF" d="M377,106.2c0,1.5-1.1,2.8-2.6,2.9s-2.8-1.1-2.9-2.6s1-2.8,2.6-2.9
		C375.7,103.5,377,104.7,377,106.2z"/>
		<path id="XMLID_1091_" fill-rule="evenodd" clip-rule="evenodd" fill="#FFFFFF" d="M385.8,106.4c-0.1,1.5-1.4,2.7-2.9,2.6s-2.6-1.4-2.6-2.9c0-1.5,1.3-2.7,2.9-2.6
		C384.7,103.6,385.9,104.9,385.8,106.4z"/>
		<path id="XMLID_1089_" fill-rule="evenodd" clip-rule="evenodd" fill="#FFFFFF" d="M394.5,107.5c-0.3,1.5-1.7,2.5-3.1,2.3c-1.4-0.2-2.5-1.6-2.3-3.1
		c0.2-1.5,1.5-2.5,3.1-2.3C393.7,104.6,394.8,106,394.5,107.5z"/>
		<path id="XMLID_1087_" fill-rule="evenodd" clip-rule="evenodd" fill="#FFFFFF" d="M403.1,109.4c-0.4,1.5-1.9,2.3-3.3,2c-1.4-0.4-2.3-1.9-2-3.3c0.3-1.5,1.8-2.4,3.3-2
		C402.6,106.5,403.5,108,403.1,109.4z"/>
		<path id="XMLID_1085_" fill-rule="evenodd" clip-rule="evenodd" fill="#FFFFFF" d="M411.4,112.2c-0.6,1.4-2.1,2.1-3.5,1.6c-1.4-0.5-2.1-2.1-1.7-3.5c0.5-1.4,2-2.2,3.5-1.6
		S411.9,110.8,411.4,112.2z"/>
		<path id="XMLID_1083_" fill-rule="evenodd" clip-rule="evenodd" fill="#FFFFFF" d="M419.4,115.8c-0.7,1.3-2.3,1.9-3.6,1.3c-1.3-0.6-1.9-2.3-1.3-3.7c0.6-1.4,2.2-2,3.6-1.3
		C419.5,112.8,420.1,114.5,419.4,115.8z"/>
		<path id="XMLID_1081_" fill-rule="evenodd" clip-rule="evenodd" fill="#FFFFFF" d="M427,120.2c-0.8,1.3-2.5,1.7-3.8,0.9c-1.2-0.8-1.7-2.4-0.9-3.8s2.4-1.7,3.8-0.9
		S427.8,118.9,427,120.2z"/>
		<path id="XMLID_1079_" fill-rule="evenodd" clip-rule="evenodd" fill="#FFFFFF" d="M434.1,125.3c-1,1.2-2.7,1.4-3.8,0.5c-1.2-0.9-1.4-2.6-0.6-3.8c0.9-1.2,2.6-1.5,3.8-0.5
		C434.8,122.4,435.1,124.1,434.1,125.3z"/>
		<path id="XMLID_1077_" fill-rule="evenodd" clip-rule="evenodd" fill="#FFFFFF" d="M440.7,131.1c-1.1,1.1-2.8,1.2-3.9,0.2c-1.1-1-1.2-2.7-0.2-3.9c1-1.2,2.7-1.2,3.9-0.2
		S441.7,130,440.7,131.1z"/>
		<path id="XMLID_1075_" fill-rule="evenodd" clip-rule="evenodd" fill="#FFFFFF" d="M446.7,137.5c-1.2,1-2.9,0.9-3.9-0.2c-1-1.1-0.9-2.8,0.2-3.9s2.8-1,3.9,0.2
		C447.9,134.9,447.8,136.6,446.7,137.5z"/>
		<path id="XMLID_1073_" fill-rule="evenodd" clip-rule="evenodd" fill="#FFFFFF" d="M452,144.5c-1.3,0.8-3,0.6-3.9-0.6s-0.6-2.9,0.6-3.8s2.9-0.7,3.9,0.6
		C453.5,142,453.2,143.7,452,144.5z"/>
		<path id="XMLID_1071_" fill-rule="evenodd" clip-rule="evenodd" fill="#FFFFFF" d="M456.6,152c-1.3,0.7-3,0.3-3.8-1c-0.8-1.2-0.3-2.9,0.9-3.7c1.3-0.8,3-0.4,3.8,1
		S457.9,151.3,456.6,152z"/>
		<path id="XMLID_1069_" fill-rule="evenodd" clip-rule="evenodd" fill="#FFFFFF" d="M460.4,159.9c-1.4,0.6-3,0-3.7-1.3c-0.6-1.3-0.1-2.9,1.3-3.6s3-0.1,3.7,1.3
		C462.4,157.7,461.8,159.3,460.4,159.9z"/>
		<path id="XMLID_1067_" fill-rule="evenodd" clip-rule="evenodd" fill="#FFFFFF" d="M463.4,168.2c-1.4,0.4-3-0.3-3.5-1.7c-0.5-1.4,0.2-2.9,1.6-3.5c1.4-0.5,3,0.2,3.5,1.7
		C465.6,166.2,464.9,167.7,463.4,168.2z"/>
		<path id="XMLID_1065_" fill-rule="evenodd" clip-rule="evenodd" fill="#FFFFFF" d="M465.5,176.7c-1.4,0.3-3-0.6-3.3-2c-0.4-1.4,0.5-2.9,2-3.3c1.5-0.4,3,0.5,3.3,2
		C467.9,174.9,467.1,176.4,465.5,176.7z"/>
		<path id="XMLID_1063_" fill-rule="evenodd" clip-rule="evenodd" fill="#FFFFFF" d="M466.9,185.4c-1.5,0.1-2.9-0.9-3.1-2.4c-0.2-1.4,0.8-2.8,2.3-3.1
		c1.5-0.3,2.9,0.8,3.1,2.4C469.4,183.9,468.4,185.2,466.9,185.4z"/>
		<path id="XMLID_1061_" fill-rule="evenodd" clip-rule="evenodd" fill="#FFFFFF" d="M467.3,194.1c-1.5,0-2.8-1.2-2.9-2.7c-0.1-1.5,1.1-2.7,2.6-2.8c1.5-0.1,2.8,1.1,2.9,2.7
		C470,192.9,468.8,194.1,467.3,194.1z"/>
	</g>
	<text x="332.5" class="svg_element" y="159" onclick="choose_text('text1')" id="text1" font-size="36" font-family="Alex Brush" fill="#FFFFFF" transform="rotate(null,null,null)">Thanks,<title></title></text>
	<text x="348.5" class="svg_element" y="192" onclick="choose_text('text2')" id="text2" font-size="36" font-family="Alex Brush" fill="#FFFFFF" transform="rotate(null,null,null)">Dad<title></title></text>
	<text x="324.5" class="svg_element" y="223" onclick="choose_text('text3')" id="text3" font-size="24" font-family="Alex Brush" fill="#FFFFFF" transform="rotate(null,null,null)">I turned Out<title></title></text>
	<text x="341" class="svg_element" y="249" onclick="choose_text('text4')" id="text4" font-size="24" font-family="Alex Brush" fill="#FFFFFF" transform="rotate(null,null,null)">Awesome<title></title></text>
</g>
</svg>
