<?xml version="1.0" encoding="utf-8"?>
<!-- Generator: Adobe Illustrator 16.0.0, SVG Export Plug-In . SVG Version: 6.00 Build 0)  -->
<!DOCTYPE svg PUBLIC "-//W3C//DTD SVG 1.1//EN" "http://www.w3.org/Graphics/SVG/1.1/DTD/svg11.dtd">
<svg version="1.1" id="Layer_2" xmlns="http://www.w3.org/2000/svg" xmlns:xlink="http://www.w3.org/1999/xlink" x="0px" y="0px"
	 width="759px" height="439px" viewBox="0 0 759 439" style="enable-background:new 0 0 759 439;" xml:space="preserve">
<style type="text/css">
<![CDATA[
	.st0{fill:#4659A7;}
	.st1{fill:#7DA0D4;}
	.st2{fill:#7F5E26;}
	.st3{fill:#151943;}
	.st4{fill:#171719;}
	.st5{fill:#172919;}
	.st6{fill:#18331B;}
	.st7{fill:#E72834;}
	.st8{fill:#E7E9E9;}
	.st9{fill:#E8EAEA;}
	.st10{fill-rule:evenodd;clip-rule:evenodd;fill:none;stroke:#E4C54B;stroke-width:1.7463;stroke-miterlimit:10;}
	.st11{fill:#EAE71E;}
	.st12{fill:#EB185B;}
	.st13{fill:#EC2127;}
	.st14{fill:#503C2C;}
	.st15{fill:#507FC1;}
	.st16{fill:#542D8B;}
	.st17{fill:#8C6828;}
	.st18{fill:#BF2327;}
	.st19{fill:#231F20;}
	.st20{fill:#F7F3A3;}
	.st21{fill-rule:evenodd;clip-rule:evenodd;fill:none;stroke:#E4C54B;stroke-width:2.6195;stroke-miterlimit:10;}
	.st22{fill:#C2922E;}
	.st23{fill:#C597C5;}
	.st24{fill:#966828;}
	.st25{fill:#2B378B;}
	.st26{fill:#FAA532;}
	.st27{fill:#FBCA28;}
	.st28{fill:#FBCD36;}
	.st29{fill-rule:evenodd;clip-rule:evenodd;}
	.st30{fill:#FFFFFF;}
	.st31{fill-rule:evenodd;clip-rule:evenodd;fill:#F0CEE3;}
	.st32{fill:#FFFFFF;stroke:#7DA0D4;stroke-miterlimit:10;}
	.st33{fill:none;}
	.st34{fill:#231F20;stroke:#231F20;stroke-width:0.5;stroke-miterlimit:10;}
	.st35{fill:#679B9B;}
	.st36{fill:#9B732B;}
	.st37{fill:#CB7361;}
	.st38{fill:#CC2228;}
	.st39{fill:#311C10;}
	.st40{fill:#EC2127;stroke:#EC2127;stroke-width:0.5;stroke-miterlimit:10;}
	.st41{fill:#381414;}
	.st42{fill-rule:evenodd;clip-rule:evenodd;fill:#FBCDCD;}
	.st43{fill:#010101;}
	.st44{fill-rule:evenodd;clip-rule:evenodd;fill:#FFFFFF;}
	.st45{fill:#FFFFFF;stroke:#FFFFFF;stroke-miterlimit:10;}
	.st46{fill-rule:evenodd;clip-rule:evenodd;fill:#641E0F;}
	.st47{fill:#D3D3D3;}
	.st48{fill:#060707;}
	.st49{fill:#080908;}
	.st50{fill:#721212;}
	.st51{fill:#0E8141;}
	.st52{fill:#424143;}
	.st53{fill:#4259A8;}
]]>
</style>
<g id="band">
	<path id="BackgroundBorder" fill="#231F20" d="M379.5,346.3c-37.8,0-72.5-22-92.8-58.8H-0.3v-136h286.9c20.3-36.8,55-58.8,92.8-58.8
		s72.5,22,92.8,58.8h286.9v136H472.3C452,324.3,417.3,346.3,379.5,346.3z M0.3,287H287l0.1,0.1c20.2,36.7,54.8,58.6,92.5,58.6
		s72.2-21.9,92.5-58.6l0.1-0.1h286.7V152H472l-0.1-0.1c-20.2-36.7-54.8-58.6-92.5-58.6s-72.2,21.9-92.5,58.6L287,152H0.3V287z"/>
	<path id="Background" fill="#FFFFFF" d="M759,151.8H472.2C452.7,116.4,418.5,93,379.5,93c-39,0-73.2,23.4-92.7,58.8H0v135.5h286.8
		c19.5,35.3,53.7,58.8,92.7,58.8c39,0,73.2-23.4,92.7-58.8H759V151.8z"/>
	<g id="DefaultCigar">
		<g id="cigar">
			<path id="XMLID_779_" fill="#E8EAEA" d="M555,257.7c0,0-7.2-4.6-8.5-17.9s2.8-17.3-14.3-31.3s-10.8-35.1-7.5-41.4
				c3.3-6.3,7.4-11.3,8.2-11.1s2.3,8.9,4.4,12.3s7.6,12.8,23,23.3s10.5,37.6,10.5,37.6S551.1,233.9,555,257.7z"/>
			<path id="XMLID_781_" fill="#D3D3D3" d="M553.5,250.3c0,0-3.8-5.4-4.4-17.8c-0.3-6.2-1.2-15.5-6.8-21.2c-9.9-10-16.8-14.3-17.5-24
				s6.2-22.8,7-22s3.7,14.7,12.2,20.5s21.3,10.9,23,22.5c1.9,13.4,0,21.3,0,21.3s-3.6,2.1-6.8,5.8S553.7,243.3,553.5,250.3z"/>
			<path id="XMLID_787_" fill="#E7E9E9" d="M572.9,227.3c0,0-1.3-9.7,3.5-14.7s13.3-9.9,15.8-14.8s5.1-9.4,5.3-11.3s0.9-1.6,3.1,2.1
					s9,13.9,5.3,22.4s-10.4,8.9-14.4,16.3C577.9,227.3,572.9,227.3,572.9,227.3z"/>
			<path id="XMLID_786_" fill="#D3D3D3" d="M588.5,227.3h-13c0,0,0.3-8.5,2.8-12.6s12.7-8.6,13.9-10.6s5.1-8.4,5.6-10.9
					s1.3-2.3,2.8,0.9s5.6,13.4,0.4,19.3S592.6,220.3,588.5,227.3z"/>
			<path id="XMLID_830_" fill="#231F20" stroke="#231F20" stroke-width="0.5" stroke-miterlimit="10" d="M573.5,226.8c-4.4,0-22.9,11.5-19.4,27.5s13.6,28.9,19.4,28.6s18.5-2.6,20.9-2.6
				s29.9-0.5,42.9-6.3s17.3-19.9,17-21.2s-0.6-11-19.1-21.4c-4.1-2.3-27-3.6-33-3.9S573.5,226.8,573.5,226.8z"/>
			<path id="XMLID_829_" fill="#9B732B" d="M574.9,231.5c0,0,8.5,11.7,9,21.5c0.5,9.8-7.5,25.3-7.5,25.3s43.5-3.8,47.5-4.3
				s25.3-7.7,25-20.3c-0.3-12.7-17.2-19.7-26.8-21.2S574.9,231.5,574.9,231.5z"/>
			<path id="XMLID_831_" fill="#EC2127" d="M560.2,242.4l7.8-7.8l2.2,8.4c0,0,3-3.3,3.3-4.8c0.1-0.8,1.3,1.9,0.9,6.6
				c-0.4,4.8-1.5,11.4-0.9,11.3c1.1-0.1,4.7-2.5,5.8-1.9c1.2,0.6-0.3,8.8-1.8,11.7c-1.5,2.8-5.1,5.5-5.1,5.5s2.1-5.3,2.5-7.1
				c0.4-1.8,0.3-3.4-2.5-1.3c-2.8,2.1-5.9,2.9-5.4,5.3c0.5,2.3,1.4,6.2,1,5.8c-0.4-0.4-4.9-7.8-5.3-9.5c-0.3-1.7-0.4-6.3-0.4-6.9
				s2.8,0.3,3.8,0.7c1,0.3,4.3,1.8,5,0.8s-0.7-4.9-1.5-5.2c-0.8-0.3-7.4-0.8-8.6-0.9c-1.2-0.1-0.4-0.7,1.3-1.9s5.5-3.8,5.9-4.5
				s0.3-1.8-2.9-2.7C562.1,243,560.2,242.4,560.2,242.4z"/>
			<path id="XMLID_1598_" fill="#7F5E26" d="M583.5,258.6c0,0,2.3-0.2,5.7,0.9c3,0.9,6.9,2.8,11.2,6.2c9,7.3,24.8,7.4,27.2,7.4
				c-5.2,2-39.1,5.9-50.9,5.2C574.8,278.2,580.7,272.9,583.5,258.6z"/>
			<path id="XMLID_1602_" fill="#7F5E26" d="M587.6,231.4l-12.7,0.1c2.7,4.4,3.5,5.4,5,8.5c2.8,5.7,3.8,11.2,3.8,11.2s1.4-3.6,1.9-7.3
				S587.6,231.4,587.6,231.4z"/>
			<path id="XMLID_1603_" fill="#8C6828" d="M583.9,254.3c1.4,0,9.1-1.7,17.6,5.6c8.5,7.3,11.5,8.8,21.3,9.2c1.3,0.1,13.8,0,13.8,0
				s-7.3,4.7-14.9,4.8c-7.6,0.2-13.4,0.8-19.5-4.7s-8.6-10.3-18.8-10.7C583.8,256.1,583.9,254.3,583.9,254.3z"/>
		</g>
	</g>
	<g id="Text">
		<path id="XMLID_8074_" fill="#FAA532" d="M247.1,176.8c0.9,0,1.8,0.1,2.7,0.1c-1.1,1.1-2.1,1.2-3,1.2c-0.4,1.8-0.8,3.5-1.1,4.9
			c-0.9,4.1-1.2,6.9-1.2,8.7c0,0.6,0,1,0.1,1.3c-1.9-0.2-2.5-1-2.5-2.8c0-1.3,0.3-3.2,0.9-5.4c0.4-1.4,1.1-4,1.9-6.7
			c-4.4,0-6.3,0.1-8.4,0.3c-1.8,5.6-3.6,11.4-3.9,12.3c-0.5,1.7-1.7,2.3-2.5,2.3c0.6-3.3,1.4-6.6,4-14.4l-2.4,0.3
			c0-1.2,1.2-1.8,3-2.2c0.8-2.5,1.8-5.5,3.1-9c0.2-0.5,0.5-1.4,0.5-2.1c0-0.4-0.1-0.5-0.5-0.5c-2.3,0-4.5,4.4-4.5,6.8
			c0,0.4,0.1,0.9,0.2,1.2c-1.6,0-2.2-0.9-2.2-2.1c0-3.3,4.5-6.9,7.2-6.9c1.3,0,1.7,0.9,1.7,1.7c0,0.5-0.1,1.1-0.3,1.5l-2.8,9.1
			c0.6,0,1.4-0.1,2.1-0.1c2.3,0,4.3,0.1,6.1,0.3c1.4-4.6,3-9.4,3.6-10.8c0.3-0.5,0.9-1.9,2-1.9C249.8,166.7,248.3,171.9,247.1,176.8
			z"/>
		<path id="XMLID_8076_" fill="#FAA532" d="M260.3,183.2c0,0.8-2.1,3.3-2.1,5c0,0.7,0.4,1.6,1.2,1.6c1.3,0,3.6-1.9,5.8-5.7l0.4,0.4
			c-1.5,3.9-4.6,6.6-7.1,6.6c-1.8,0-2.6-1.3-2.6-2.5c0-0.3,0-0.6,0.1-1c-2.1,2.8-3.7,4.2-5.4,4.2c-1.5,0-2.7-1-2.7-3
			c0-4.3,5.3-11.1,10-11.1c1.9,0,3.3,1.1,3.3,2.7c0,1.2-0.7,1.5-1.8,1.5c0.1-0.4,0.2-0.9,0.2-1.3c0-1.1-0.5-2-1.8-2
			c-3.4,0-7.4,6.7-7.4,10.2c0,1,0.3,1.4,1,1.4c2.2,0,5.8-5.3,7.6-7.8C259.2,182.4,260.3,182.7,260.3,183.2z"/>
		<path id="XMLID_8078_" fill="#FAA532" d="M265.7,180.8c0.3-0.3,1-0.8,1.7-0.8c0.6,0,1,0.4,1,0.9c0,0.8-0.5,2.8-1.2,4.8
			c1.9-2.9,4.8-6.3,7.5-6.3c1.9,0,2.7,1.6,2.7,3.2c0,2.2-1.5,3.9-1.5,5.7c0,1,0.5,1.4,1.1,1.4c1.8,0,3.7-3,5-5.6l0.4,0.5
			c-1.5,3.5-3.5,6.1-6.2,6.1c-1.7,0-2.5-1-2.5-2.3c0-1.5,1-3.3,1-5c0-1.3-0.6-1.8-1.4-1.8c-3,0-6.3,5.7-8.2,8.9
			c-0.8,0-1.5-0.3-1.9-0.8C263.1,189.3,265.6,184,265.7,180.8z"/>
		<path id="XMLID_8080_" fill="#FAA532" d="M282.5,180.8c0.3-0.3,1-0.8,1.7-0.8c0.6,0,1,0.4,1,0.9c0,0.8-0.5,2.8-1.2,4.8
			c1.9-2.9,4.8-6.3,7.5-6.3c1.9,0,2.7,1.6,2.7,3.2c0,2.2-1.5,3.9-1.5,5.7c0,1,0.5,1.4,1.1,1.4c1.8,0,3.7-3,5-5.6l0.4,0.5
			c-1.5,3.5-3.5,6.1-6.2,6.1c-1.7,0-2.5-1-2.5-2.3c0-1.5,1-3.3,1-5c0-1.3-0.6-1.8-1.4-1.8c-3,0-6.3,5.7-8.2,8.9
			c-0.8,0-1.5-0.3-1.9-0.8C279.9,189.3,282.4,184,282.5,180.8z"/>
		<path id="XMLID_8082_" fill="#FAA532" d="M309.8,181.1c0,0.4-2.4,5-2.4,7.4c0,0.9,0.3,1.4,1.2,1.4c1.5,0,4.2-2.1,6-5.8l0.5,0.3
			c-1.5,3.9-4.7,6.6-7.2,6.6c-1.9,0-2.5-1.2-2.5-2.7c0-0.6,0.1-1.2,0.3-1.8c-1.3,2.4-2.9,4.5-4.7,4.5c-1.6,0-2.7-1.7-2.7-3.6
			c0-2.7,2.1-8.2,3.2-8.2c0.3,0,0.9,0.3,1.3,0.7c-0.8,1.2-2.4,4.8-2.4,7.2c0,0.6,0.1,2.4,1.3,2.4c2.2,0,5.2-6.7,6.6-9.4
			C308.4,180.3,309.8,180.5,309.8,181.1z"/>
		<path id="XMLID_8084_" fill="#FAA532" d="M325.5,181.4c0-1-0.9-1.6-1.8-1.6c-4.2,0-6.8,9.9-7.2,10.7c-0.3,0.4-0.8,0.6-1.2,0.6
			c-1.2,0-1.3-1.7-1.3-3.4c0-7.5,8.4-23.4,10.9-23.4c0.6,0,1.1,1,1.1,2.3c0,3.3-3.1,8.5-7.3,11.1c-1.6,3.9-2.4,7.8-2.4,10.3
			c1.5-3.8,4.5-10.1,8.1-10.1c1.8,0,3.2,1.4,3.2,3.2c0,3.1-3.7,4.2-5.1,4.2c0.1,0.8,0.9,4.6,2.8,4.6c2.1,0,3.9-2.6,5.3-5.9l0.4,0.4
			c-1,3.5-3.9,6.9-6.4,6.9c-2.7,0-3.7-4.3-3.7-6.5C322,184.8,325.5,183.8,325.5,181.4z M319.3,176.2c3.3-2.7,5.5-6.9,5.5-8.7
			c0-0.3,0-0.3-0.1-0.3C324,167.2,321.4,171.4,319.3,176.2z"/>
		<path id="XMLID_8087_" fill="#FAA532" d="M341.5,183.2c0,0.8-2.1,3.3-2.1,5c0,0.7,0.4,1.6,1.2,1.6c1.3,0,3.6-1.9,5.8-5.7l0.4,0.4
			c-1.5,3.9-4.6,6.6-7.1,6.6c-1.8,0-2.6-1.3-2.6-2.5c0-0.3,0-0.6,0.1-1c-2.1,2.8-3.7,4.2-5.4,4.2c-1.5,0-2.7-1-2.7-3
			c0-4.3,5.3-11.1,10-11.1c1.9,0,3.3,1.1,3.3,2.7c0,1.2-0.7,1.5-1.8,1.5c0.1-0.4,0.2-0.9,0.2-1.3c0-1.1-0.5-2-1.8-2
			c-3.4,0-7.4,6.7-7.4,10.2c0,1,0.3,1.4,1,1.4c2.2,0,5.8-5.3,7.6-7.8C340.5,182.4,341.5,182.7,341.5,183.2z"/>
		<path id="XMLID_8089_" fill="#FAA532" d="M355.7,183.1c0-1.3-0.6-1.7-1.4-1.7c-3.6,0-4.9,9.9-6.9,9.9c-0.9,0-1.5-1.8-1.5-3.7
			c0-6.9,7.6-23.3,10.8-23.3c0.9,0,1.2,1.3,1.2,2.3c0,3.3-4,11.2-8.3,13.7c-0.9,2.1-1.3,5.1-1.3,7.1c0,0.5,0,0.9,0.1,1.2
			c1.7-4.9,4.1-9.3,7.3-9.3c2,0,2.7,1.7,2.7,3.2c0,2.2-1.5,4.3-1.5,6c0,1,0.5,1.4,1.1,1.4c1.6,0,4.2-2.6,5.6-5.8l0.5,0.4
			c-1.5,3.5-4.1,6.3-6.9,6.3c-1.7,0-2.5-1-2.5-2.3C354.6,187,355.7,184.8,355.7,183.1z M350.1,178.8c3.3-2.7,6.6-9.5,6.6-11.4
			c0-0.2,0-0.3-0.1-0.3C355.8,167.2,351.9,173,350.1,178.8z"/>
		<path id="XMLID_8092_" fill="#FAA532" d="M246.4,204.5c-6.2,0-13.5,11.4-13.5,20.2c0,3.9,1.4,7.2,4.8,7.2c6.7,0,11.6-11.6,11.6-20.1
			c0-2-0.4-5-1.6-5c-1.8,0-4.3,5-4.9,7.7c-1.2-0.3-1.7-1-1.7-1.8c0-2.6,4.1-6.9,6.5-6.9c2.5,0,3.1,4.1,3.1,6.9
			c0,13.1-8.2,20.3-14,20.3c-4.1,0-6.9-3.5-6.9-8.9c0-9.3,8-20.1,14.9-20.1c0.9,0,1.6,0.1,2.2,0.4H246.4z"/>
		<path id="XMLID_8094_" fill="#FAA532" d="M261.3,223.1c0-1.3-0.6-1.7-1.4-1.7c-3.6,0-4.9,9.9-6.9,9.9c-0.9,0-1.5-1.8-1.5-3.7
			c0-6.9,7.6-23.3,10.8-23.3c0.9,0,1.2,1.3,1.2,2.3c0,3.3-4,11.2-8.3,13.7c-0.9,2.1-1.3,5.1-1.3,7.1c0,0.5,0,0.9,0.1,1.2
			c1.7-4.9,4.1-9.3,7.3-9.3c2,0,2.7,1.7,2.7,3.2c0,2.2-1.5,4.3-1.5,6c0,1,0.5,1.4,1.1,1.4c1.6,0,4.2-2.6,5.6-5.8l0.5,0.4
			c-1.5,3.5-4.1,6.3-6.9,6.3c-1.7,0-2.5-1-2.5-2.3C260.2,227,261.3,224.8,261.3,223.1z M255.6,218.8c3.3-2.7,6.6-9.5,6.6-11.4
			c0-0.2,0-0.3-0.1-0.3C261.4,207.2,257.4,213,255.6,218.8z"/>
		<path id="XMLID_8097_" fill="#FAA532" d="M269.5,233.1c-0.4-0.3-0.6-0.8-0.6-1.3c0-1.5,1.1-3.9,2.2-3.9c0.5,0,0.9,0.5,0.9,1
			C270.6,230.3,270.1,231.7,269.5,233.1z"/>
		<path id="XMLID_8099_" fill="#FAA532" d="M302.2,216.8c0.9,0,1.8,0.1,2.7,0.1c-1.1,1.1-2.1,1.2-3,1.2c-0.4,1.8-0.8,3.5-1.1,4.9
			c-0.9,4.1-1.2,6.9-1.2,8.7c0,0.6,0,1,0.1,1.3c-1.9-0.2-2.5-1-2.5-2.8c0-1.3,0.3-3.2,0.9-5.4c0.4-1.4,1.1-4,1.9-6.7
			c-4.4,0-6.3,0.1-8.4,0.3c-1.8,5.6-3.6,11.4-3.9,12.3c-0.5,1.7-1.7,2.3-2.5,2.3c0.6-3.3,1.4-6.6,4-14.4l-2.4,0.3
			c0-1.2,1.2-1.8,3-2.2c0.8-2.5,1.8-5.5,3.1-9c0.2-0.5,0.5-1.4,0.5-2.1c0-0.4-0.1-0.5-0.5-0.5c-2.3,0-4.5,4.4-4.5,6.8
			c0,0.4,0.1,0.9,0.2,1.2c-1.6,0-2.2-0.9-2.2-2.1c0-3.3,4.5-6.9,7.2-6.9c1.3,0,1.7,0.9,1.7,1.7c0,0.5-0.1,1.1-0.3,1.5l-2.8,9.1
			c0.6,0,1.4-0.1,2.1-0.1c2.3,0,4.3,0.1,6.1,0.3c1.4-4.6,3-9.4,3.6-10.8c0.3-0.5,0.9-1.9,2-1.9C305,206.7,303.4,211.9,302.2,216.8z"
			/>
		<path id="XMLID_8101_" fill="#FAA532" d="M315.4,223.2c0,0.8-2.1,3.3-2.1,5c0,0.7,0.4,1.6,1.2,1.6c1.3,0,3.6-1.9,5.8-5.7l0.4,0.4
			c-1.5,3.9-4.6,6.6-7.1,6.6c-1.8,0-2.6-1.3-2.6-2.5c0-0.3,0-0.6,0.1-1c-2.1,2.8-3.7,4.2-5.4,4.2c-1.5,0-2.7-1-2.7-3
			c0-4.3,5.3-11.1,10-11.1c1.9,0,3.3,1.1,3.3,2.7c0,1.2-0.7,1.5-1.8,1.5c0.1-0.4,0.2-0.9,0.2-1.3c0-1.1-0.5-2-1.8-2
			c-3.4,0-7.4,6.7-7.4,10.2c0,1,0.3,1.4,1,1.4c2.2,0,5.8-5.3,7.6-7.8C314.4,222.4,315.4,222.7,315.4,223.2z"/>
		<path id="XMLID_8103_" fill="#FAA532" d="M320.8,220.8c0.3-0.3,1-0.8,1.7-0.8c0.6,0,1,0.4,1,0.9c0,0.8-0.5,2.8-1.2,4.8
			c1.9-2.9,4.8-6.3,7.5-6.3c1.9,0,2.7,1.6,2.7,3.2c0,2.2-1.5,3.9-1.5,5.7c0,1,0.5,1.4,1.1,1.4c1.8,0,3.7-3,5-5.6l0.4,0.5
			c-1.5,3.5-3.5,6.1-6.2,6.1c-1.7,0-2.5-1-2.5-2.3c0-1.5,1-3.3,1-5c0-1.3-0.6-1.8-1.4-1.8c-3,0-6.3,5.7-8.2,8.9
			c-0.8,0-1.5-0.3-1.9-0.8C318.2,229.3,320.7,224,320.8,220.8z"/>
		<path id="XMLID_8105_" fill="#FAA532" d="M337.6,220.8c0.3-0.3,1-0.8,1.7-0.8c0.6,0,1,0.4,1,0.9c0,0.8-0.5,2.8-1.2,4.8
			c1.9-2.9,4.8-6.3,7.5-6.3c1.9,0,2.7,1.6,2.7,3.2c0,2.2-1.5,3.9-1.5,5.7c0,1,0.5,1.4,1.1,1.4c1.8,0,3.7-3,5-5.6l0.4,0.5
			c-1.5,3.5-3.5,6.1-6.2,6.1c-1.7,0-2.5-1-2.5-2.3c0-1.5,1-3.3,1-5c0-1.3-0.6-1.8-1.4-1.8c-3,0-6.3,5.7-8.2,8.9
			c-0.8,0-1.5-0.3-1.9-0.8C335,229.3,337.5,224,337.6,220.8z"/>
		<path id="XMLID_8107_" fill="#FAA532" d="M364.9,221.1c0,0.4-2.4,5-2.4,7.4c0,0.9,0.3,1.4,1.2,1.4c1.5,0,4.2-2.1,6-5.8l0.5,0.3
			c-1.5,3.9-4.7,6.6-7.2,6.6c-1.9,0-2.5-1.2-2.5-2.7c0-0.6,0.1-1.2,0.3-1.8c-1.3,2.4-2.9,4.5-4.7,4.5c-1.6,0-2.7-1.7-2.7-3.6
			c0-2.7,2.1-8.2,3.2-8.2c0.3,0,0.9,0.3,1.3,0.7c-0.8,1.2-2.4,4.8-2.4,7.2c0,0.6,0.1,2.4,1.3,2.4c2.2,0,5.2-6.7,6.6-9.4
			C363.5,220.3,364.9,220.5,364.9,221.1z"/>
		<path id="XMLID_8109_" fill="#FAA532" d="M380.6,221.4c0-1-0.9-1.6-1.8-1.6c-4.2,0-6.8,9.9-7.2,10.7c-0.3,0.4-0.8,0.6-1.2,0.6
			c-1.2,0-1.3-1.7-1.3-3.4c0-7.5,8.4-23.4,10.9-23.4c0.6,0,1.1,1,1.1,2.3c0,3.3-3.1,8.5-7.3,11.1c-1.6,3.9-2.4,7.8-2.4,10.3
			c1.5-3.8,4.5-10.1,8.1-10.1c1.8,0,3.2,1.4,3.2,3.2c0,3.1-3.7,4.2-5.1,4.2c0.1,0.8,0.9,4.6,2.8,4.6c2.1,0,3.9-2.6,5.3-5.9l0.4,0.4
			c-1,3.5-3.9,6.9-6.4,6.9c-2.7,0-3.7-4.3-3.7-6.5C377.1,224.8,380.6,223.8,380.6,221.4z M374.4,216.2c3.3-2.7,5.5-6.9,5.5-8.7
			c0-0.3,0-0.3-0.1-0.3C379.1,207.2,376.5,211.4,374.4,216.2z"/>
		<path id="XMLID_8112_" fill="#FAA532" d="M396.6,223.2c0,0.8-2.1,3.3-2.1,5c0,0.7,0.4,1.6,1.2,1.6c1.3,0,3.6-1.9,5.8-5.7l0.4,0.4
			c-1.5,3.9-4.6,6.6-7.1,6.6c-1.8,0-2.6-1.3-2.6-2.5c0-0.3,0-0.6,0.1-1c-2.1,2.8-3.7,4.2-5.4,4.2c-1.5,0-2.7-1-2.7-3
			c0-4.3,5.3-11.1,10-11.1c1.9,0,3.3,1.1,3.3,2.7c0,1.2-0.7,1.5-1.8,1.5c0.1-0.4,0.2-0.9,0.2-1.3c0-1.1-0.5-2-1.8-2
			c-3.4,0-7.4,6.7-7.4,10.2c0,1,0.3,1.4,1,1.4c2.2,0,5.8-5.3,7.6-7.8C395.6,222.4,396.6,222.7,396.6,223.2z"/>
		<path id="XMLID_8114_" fill="#FAA532" d="M410.8,223.1c0-1.3-0.6-1.7-1.4-1.7c-3.6,0-4.9,9.9-6.9,9.9c-0.9,0-1.5-1.8-1.5-3.7
			c0-6.9,7.6-23.3,10.8-23.3c0.9,0,1.2,1.3,1.2,2.3c0,3.3-4,11.2-8.3,13.7c-0.9,2.1-1.3,5.1-1.3,7.1c0,0.5,0,0.9,0.1,1.2
			c1.7-4.9,4.1-9.3,7.3-9.3c2,0,2.7,1.7,2.7,3.2c0,2.2-1.5,4.3-1.5,6c0,1,0.5,1.4,1.1,1.4c1.6,0,4.2-2.6,5.6-5.8l0.5,0.4
			c-1.5,3.5-4.1,6.3-6.9,6.3c-1.7,0-2.5-1-2.5-2.3C409.7,227,410.8,224.8,410.8,223.1z M405.2,218.8c3.3-2.7,6.6-9.5,6.6-11.4
			c0-0.2,0-0.3-0.1-0.3C410.9,207.2,407,213,405.2,218.8z"/>
		<path id="XMLID_8117_" fill="#FAA532" d="M418.7,229.3c0-0.8,1.2-1.5,2.1-1.5c0.6,0,0.9,0.2,0.9,0.9c0,0.7-0.9,1.6-1.9,1.6
			C419.3,230.3,418.7,230,418.7,229.3z M422.9,219.4c2.7-6.9,5.9-15.4,7.9-15.4c0.4,0,0.7,0.4,0.7,0.8c0,2-7.9,17.5-10.6,21.4
			C420.9,224.5,422.1,221.4,422.9,219.4z"/>
		<path id="XMLID_8120_" fill="#151943" d="M232.6,264.9c0,3.6,1.4,6.9,5.1,6.9c3.8,0,7.9-3.6,9.8-7.7l0.5,0.4
			c-2.4,4.7-6.3,8.6-11.2,8.6c-5.1,0-7.1-4.4-7.1-8.8c0-9.5,8-20.2,14.8-20.2c1.9,0,3.3,0.9,3.3,3.1c0,2.8-2.2,7.7-4.2,7.7
			c-0.4,0-0.8-0.2-1.1-0.8c1.5-1.7,3.9-5.2,3.9-7.2c0-1-0.5-1.6-1.8-1.6C239.4,245.1,232.6,256.8,232.6,264.9z"/>
		<path id="XMLID_8122_" fill="#151943" d="M262.4,264.5c-1,2.4-2.4,3.1-3.6,3.1c-1.3,0-2.7-0.9-3.4-2.5c-1.5,3.5-3.8,6-6.3,6
			c-1.8,0-2.9-1.3-2.9-3.1c0-3.8,4.4-10.7,8.7-10.7c0.9,0,1.3,0.3,1.5,0.8c0.1,0,0.1,0,0.3,0c0.9,0,1.2,1,1.2,1.4
			c0,0.9-1.4,2.6-1.4,4.5c0,1.8,1.3,3,2.5,3c1,0,1.9-0.8,2.8-2.7L262.4,264.5z M255.1,264c-0.1-0.6-0.2-1.2-0.2-2.1
			c0-1.6,0.3-2.7,0.7-3.3c-4.1,0-7,6.3-7,9c0,1.1,0.5,1.8,1.4,1.8C251.6,269.5,253.8,267.1,255.1,264z"/>
		<path id="XMLID_8125_" fill="#151943" d="M268.8,270c0-0.6,2.3-5.8,2.3-8.3c0-0.8-0.3-1.4-0.9-1.4c-2.1,0-6.4,5.7-8.2,10.5
			c-0.7,0-1.9-0.4-1.9-0.8c0-0.5,2.4-6.4,2.5-9.6c0.3-0.3,1-0.8,1.7-0.8c0.6,0,1,0.4,1,0.9c0,0.6-0.4,2.3-0.9,4.1
			c1.9-3.1,5-6.8,7.6-6.8c1.5,0,1.9,1.3,1.9,2.7c0,1.8-0.7,4.1-1.1,5.1c1.5-2.7,3.5-5.5,6-5.5c1.5,0,2.1,1.1,2.1,2.3
			c0,1.9-1.3,4.5-1.3,6c0,0.6,0.3,1.2,1.1,1.2c2,0,3.7-3.2,4.8-5.7l0.4,0.5c-1.2,3-3.3,6.4-6.2,6.4c-1.7,0-2.4-1.2-2.4-2.6
			c0-1.8,1.1-3.7,1.1-5.1c0-0.9-0.5-1.3-1-1.3c-1.2,0-2.5,1.9-4.7,5.4c-0.8,1.2-1.3,2.4-1.7,3.3C270,270.7,268.8,270.5,268.8,270z"
			/>
		<path id="XMLID_8127_" fill="#151943" d="M286.5,266.2c-0.1,0.5-0.1,0.9-0.1,1.3c0,1.5,0.6,3,2.8,3c3.1,0,6.3-2.9,8.1-6.4l0.4,0.3
			c-1.9,4.3-5.7,7.1-9.3,7.1c-2.9,0-4.4-1.8-4.4-4.2c0-4.3,4.9-10.4,9.1-10.4c1.1,0,2.2,0.4,2.2,2.2
			C295.5,262.8,290.6,265.8,286.5,266.2z M286.7,265.5c2.6-0.9,7.2-3.5,7.2-6.6c0-0.5-0.1-0.8-0.8-0.8
			C290.8,258.1,287.7,262.1,286.7,265.5z"/>
		<path id="XMLID_8130_" fill="#151943" d="M309.6,263.5c-0.3,1.3-0.5,2.6-0.5,3.6c0,1.9,0.5,2.8,1.6,2.8c1.9,0,3.9-3,5.2-5.8l0.5,0.3
			c-1.9,4.1-4.2,6.6-6.8,6.6c-2.1,0-2.9-1.6-2.9-3.7c0-6.9,8.7-23.3,11.2-23.3c0.8,0,1.2,1.7,1.2,2.7
			C319.1,249.9,314.8,259.1,309.6,263.5z M309.9,262.2c4.2-4.2,8.1-12.3,8.1-14.7c0-0.5-0.1-0.6-0.3-0.6
			C316.8,246.9,311.9,255.3,309.9,262.2z"/>
		<path id="XMLID_8133_" fill="#151943" d="M321,258.5c0,1.2-3.7,5.5-3.7,8.9c0,1.7,0.6,2.2,1.8,2.2c1.6,0,3.5-1.4,5.5-5.5l0.3,0.4
			c-1.4,4.1-4.3,6.4-7.1,6.4c-1.9,0-2.8-1.3-2.8-3c0-2.7,2.7-10.1,5.2-10.1C320.6,257.7,321,258,321,258.5z M320.6,253.2
			c0-1,1.5-1.9,2.6-1.9c0.7,0,1.2,0.3,1.2,1.1c0,0.9-1.2,1.9-2.3,1.9C321.3,254.4,320.6,254,320.6,253.2z"/>
		<path id="XMLID_8136_" fill="#151943" d="M333.1,258.8c-3.8,0-7.2,5.1-7.2,8.2c0,1.2,0.5,1.8,1.3,1.8c1.4,0,3.5-2.1,5.3-4.8l0.4-1.9
			c0.1-0.7,0.6-1.8,1.8-1.8c0.2,0,0.5,0,0.8,0.1c0,1.2-1.1,5.6-2.8,9.9c2.3-1.1,4.8-3.3,5.9-6.1l0.5,0.4c-1.1,3.2-4.5,5.7-6.7,6.8
			c-2,4.9-4.3,8.8-7,8.8c-1,0-2.1-0.6-2.1-2.1c0-2.9,4-4.8,7-6.3c0.6-1.7,1.3-3.6,1.8-5.9c-1.8,2.6-3.9,4.6-5.9,4.6
			c-1.7,0-2.7-1.4-2.7-3.5c0-5,5.7-9.3,9.5-9.3c1.4,0,1.9,0.5,1.9,1.2c0,0.4-0.3,0.7-0.4,0.7C334.3,259,333.8,258.8,333.1,258.8z
			 M329.8,272.6c-2.8,1.4-5.5,3-5.5,5c0,0.8,0.4,1.3,0.9,1.3C326.1,278.9,327.9,277.2,329.8,272.6z"/>
		<path id="XMLID_8139_" fill="#151943" d="M347.9,263.1c0-1.3-0.6-1.7-1.4-1.7c-3.6,0-4.9,9.9-6.9,9.9c-0.9,0-1.5-1.8-1.5-3.7
			c0-6.9,7.6-23.3,10.8-23.3c0.9,0,1.2,1.3,1.2,2.3c0,3.3-4,11.2-8.3,13.7c-0.9,2.1-1.3,5.1-1.3,7.1c0,0.5,0,0.9,0.1,1.2
			c1.7-4.9,4.1-9.3,7.3-9.3c2,0,2.7,1.7,2.7,3.2c0,2.2-1.5,4.3-1.5,6c0,1,0.5,1.4,1.1,1.4c1.6,0,4.2-2.6,5.6-5.8l0.5,0.4
			c-1.5,3.5-4.1,6.3-6.9,6.3c-1.7,0-2.5-1-2.5-2.3C346.8,267,347.9,264.8,347.9,263.1z M342.3,258.8c3.3-2.7,6.6-9.5,6.6-11.4
			c0-0.2,0-0.3-0.1-0.3C348,247.2,344.1,253,342.3,258.8z"/>
		<path id="XMLID_8142_" fill="#151943" d="M366.1,259.1c-2.6,0.3-4.7,0.4-6.3,0.4h-0.5c-1.1,2.6-2,5.3-2,7.8c0,2.1,0.6,2.9,2,2.9
			c2.5,0,5-2.4,6.8-6.2l0.5,0.4c-1.7,4.1-5,7.1-8.4,7.1c-2.1,0-3.2-1.2-3.2-3.6c0-2.1,0.9-5.4,2.1-8.7c-0.5-0.1-0.9-0.1-1.3-0.3
			v-0.6c0.4,0,0.9,0.1,1.6,0.1c2-5.2,4.8-10.1,6.3-10.1c0.4,0,0.8,0.3,0.8,0.8c0,1.3-2.7,5-4.8,9.4h1.3c1.6,0,3.3,0,5.1-0.2V259.1z"
			/>
		<path id="XMLID_8144_" fill="#151943" d="M383.4,259c1.3,0,2.7-0.2,4.6-0.6c2.5-6.8,6.6-14.2,8.7-14.2c0.9,0,1.2,1.3,1.2,2.3
			c0,3.3-3.6,9.9-7.8,12.4c-0.9,2.1-1.8,6.4-1.8,8.4c0,0.5,0,0.9,0.1,1.2c1.7-4.9,4.1-9.3,7.3-9.3c2,0,2.7,1.7,2.7,3.2
			c0,2.2-1.5,4.3-1.5,6c0,1,0.5,1.4,1.1,1.4c1.6,0,4.2-2.6,5.6-5.8l0.5,0.4c-1.5,3.5-4.1,6.3-6.9,6.3c-1.7,0-2.5-1-2.5-2.3
			c0-1.5,1.1-3.7,1.1-5.4c0-1.3-0.6-1.7-1.4-1.7c-3.6,0-4.9,9.9-6.9,9.9c-0.9,0-1.5-1.8-1.5-3.7c0-0.4,0-0.9,0.1-1.5
			c-1.8,3.2-4.6,5.5-7.6,5.5c-2.1,0-3.2-1.2-3.2-3.6c0-2.1,1-5.9,2.3-9.1c-0.5-0.1-0.9-0.4-1.3-0.5v-0.6c0.4,0,0.9,0.3,1.6,0.4
			c2-5.2,4.6-9.6,6.1-9.6c0.4,0,0.8,0.3,0.8,0.8c0,1.3-2.7,5-4.8,9.4C381.1,258.9,382.2,259,383.4,259z M387.7,259.4
			c-1.7,0.4-3.1,0.5-4.4,0.5c-1.3,0-2.5-0.2-3.7-0.4c-1.1,2.6-2,5.3-2,7.8c0,2.1,0.6,2.9,2,2.9c2.5,0,5-2.4,6.8-6.2
			C386.7,262.5,387,261.2,387.7,259.4z M390.5,257.5c3.3-2.7,6.2-8.2,6.2-10.1c0-0.2,0-0.3-0.1-0.3
			C395.8,247.2,392.3,251.7,390.5,257.5z"/>
		<path id="XMLID_8148_" fill="#151943" d="M404.9,266.2c-0.1,0.5-0.1,0.9-0.1,1.3c0,1.5,0.6,3,2.8,3c3.1,0,6.3-2.9,8.1-6.4l0.4,0.3
			c-1.9,4.3-5.7,7.1-9.3,7.1c-2.9,0-4.4-1.8-4.4-4.2c0-4.3,4.9-10.4,9.1-10.4c1.1,0,2.2,0.4,2.2,2.2
			C413.8,262.8,409,265.8,404.9,266.2z M405,265.5c2.6-0.9,7.2-3.5,7.2-6.6c0-0.5-0.1-0.8-0.8-0.8C409.1,258.1,406,262.1,405,265.5z
			"/>
		<path id="XMLID_8151_" fill="#151943" d="M428.5,264.9c0,3.6,1.4,6.9,5.1,6.9c3.8,0,7.9-3.6,9.8-7.7l0.5,0.4
			c-2.4,4.7-6.3,8.6-11.2,8.6c-5.1,0-7.1-4.4-7.1-8.8c0-9.5,8-20.2,14.8-20.2c1.9,0,3.3,0.9,3.3,3.1c0,2.8-2.2,7.7-4.2,7.7
			c-0.4,0-0.8-0.2-1.1-0.8c1.5-1.7,3.9-5.2,3.9-7.2c0-1-0.5-1.6-1.8-1.6C435.4,245.1,428.5,256.8,428.5,264.9z"/>
		<path id="XMLID_8153_" fill="#151943" d="M448.5,258.5c0,1.2-3.7,5.5-3.7,8.9c0,1.7,0.6,2.2,1.8,2.2c1.6,0,3.5-1.4,5.5-5.5l0.3,0.4
			c-1.4,4.1-4.3,6.4-7.1,6.4c-1.9,0-2.8-1.3-2.8-3c0-2.7,2.7-10.1,5.2-10.1C448.1,257.7,448.5,258,448.5,258.5z M448.1,253.2
			c0-1,1.5-1.9,2.6-1.9c0.7,0,1.2,0.3,1.2,1.1c0,0.9-1.2,1.9-2.3,1.9C448.8,254.4,448.1,254,448.1,253.2z"/>
		<path id="XMLID_8156_" fill="#151943" d="M460.6,258.8c-3.8,0-7.2,5.1-7.2,8.2c0,1.2,0.5,1.8,1.3,1.8c1.4,0,3.5-2.1,5.3-4.8l0.4-1.9
			c0.1-0.7,0.6-1.8,1.8-1.8c0.2,0,0.5,0,0.8,0.1c0,1.2-1.1,5.6-2.8,9.9c2.3-1.1,4.8-3.3,5.9-6.1l0.5,0.4c-1.1,3.2-4.5,5.7-6.7,6.8
			c-2,4.9-4.3,8.8-7,8.8c-1,0-2.1-0.6-2.1-2.1c0-2.9,4-4.8,7-6.3c0.6-1.7,1.3-3.6,1.8-5.9c-1.8,2.6-3.9,4.6-5.9,4.6
			c-1.7,0-2.7-1.4-2.7-3.5c0-5,5.7-9.3,9.5-9.3c1.4,0,1.9,0.5,1.9,1.2c0,0.4-0.3,0.7-0.4,0.7C461.7,259,461.3,258.8,460.6,258.8z
			 M457.3,272.6c-2.8,1.4-5.5,3-5.5,5c0,0.8,0.4,1.3,0.9,1.3C453.6,278.9,455.4,277.2,457.3,272.6z"/>
		<path id="XMLID_8159_" fill="#151943" d="M476.9,263.2c0,0.8-2.1,3.3-2.1,5c0,0.7,0.4,1.6,1.2,1.6c1.3,0,3.6-1.9,5.8-5.7l0.4,0.4
			c-1.5,3.9-4.6,6.6-7.1,6.6c-1.8,0-2.6-1.3-2.6-2.5c0-0.3,0-0.6,0.1-1c-2.1,2.8-3.7,4.2-5.4,4.2c-1.5,0-2.7-1-2.7-3
			c0-4.3,5.3-11.1,10-11.1c1.9,0,3.3,1.1,3.3,2.7c0,1.2-0.7,1.5-1.8,1.5c0.1-0.4,0.2-0.9,0.2-1.3c0-1.1-0.5-2-1.8-2
			c-3.4,0-7.4,6.7-7.4,10.2c0,1,0.3,1.4,1,1.4c2.2,0,5.8-5.3,7.6-7.8C475.9,262.4,476.9,262.7,476.9,263.2z"/>
		<path id="XMLID_8161_" fill="#151943" d="M481.2,265.4c0.6-1.3,1.9-3.8,2.9-6.8c-0.2-0.2-0.4-0.5-0.4-0.9c0-1.4,1.1-2.4,1.5-2.4
			c0.5,0,0.5,0.6,0.5,0.9s-0.4,1.2-0.4,1.3c0,1.3,3.7,1.9,3.7,5c0,2.2-1.8,4.6-1.8,6.1c0,0.9,0.5,1.1,1.1,1.1c2.3,0,5.2-3.3,6.1-5.4
			l0.5,0.4c-1.4,3.1-4.5,6.3-7.5,6.3c-1.6,0-2.6-0.9-2.6-2.3c0-2.1,2-4.8,2-6.7c0-1.5-1.1-2.1-2-2.7c-1.1,2.8-2.4,5.6-3.2,6.9
			L481.2,265.4z"/>
		<path id="XMLID_8163_" fill="#151943" d="M503.2,263c2.6,0,5,0.2,6,0.3c-1.2,0.9-2.7,1-3.7,1h-3.4c-2.3,0-3.5,0-5.7,0.4
			C496.9,263.3,499.8,263,503.2,263z"/>
		<path id="XMLID_8165_" fill="#151943" d="M524.1,263.2c0,0.8-2.1,3.3-2.1,5c0,0.7,0.4,1.6,1.2,1.6c1.3,0,3.6-1.9,5.8-5.7l0.4,0.4
			c-1.5,3.9-4.6,6.6-7.1,6.6c-1.8,0-2.6-1.3-2.6-2.5c0-0.3,0-0.6,0.1-1c-2.1,2.8-3.7,4.2-5.4,4.2c-1.5,0-2.7-1-2.7-3
			c0-4.3,5.3-11.1,10-11.1c1.9,0,3.3,1.1,3.3,2.7c0,1.2-0.7,1.5-1.8,1.5c0.1-0.4,0.2-0.9,0.2-1.3c0-1.1-0.5-2-1.8-2
			c-3.4,0-7.4,6.7-7.4,10.2c0,1,0.3,1.4,1,1.4c2.2,0,5.8-5.3,7.6-7.8C523,262.4,524.1,262.7,524.1,263.2z"/>
	</g>
	<text x="230.5" class="svg_element" y="191" onclick="choose_text('text1')" id="text1" font-size="36" font-family="Satisfy" fill="#FFB940" transform="rotate(null,null,null)">Hannukah<title></title></text>
	<text x="230.5" class="svg_element" y="230.5" onclick="choose_text('text2')" id="text2" font-size="36" font-family="Satisfy" fill="#FFB940" transform="rotate(null,null,null)">Oh, Hannukah!<title></title></text>
	<text x="229" class="svg_element" y="271" onclick="choose_text('text3')" id="text3" font-size="36" font-family="Satisfy" fill="#000000" transform="rotate(null,null,null)">Come light the Cigar-a<title></title></text>
</g>
</svg>
