<?xml version="1.0" encoding="utf-8"?>
<!-- Generator: Adobe Illustrator 16.0.0, SVG Export Plug-In . SVG Version: 6.00 Build 0)  -->
<!DOCTYPE svg PUBLIC "-//W3C//DTD SVG 1.1//EN" "http://www.w3.org/Graphics/SVG/1.1/DTD/svg11.dtd">
<svg version="1.1" id="Layer_2" xmlns="http://www.w3.org/2000/svg" xmlns:xlink="http://www.w3.org/1999/xlink" x="0px" y="0px"
	 width="759px" height="439px" viewBox="0 0 759 439" style="enable-background:new 0 0 759 439;" xml:space="preserve">
<style type="text/css">
<![CDATA[
	.st0{fill:#4659A7;}
	.st1{fill:#7DA0D4;}
	.st2{fill:#7F5E26;}
	.st3{fill:#151943;}
	.st4{fill:#171719;}
	.st5{fill:#172919;}
	.st6{fill:#18331B;}
	.st7{fill:#E72834;}
	.st8{fill:#E7E9E9;}
	.st9{fill:#E8EAEA;}
	.st10{fill-rule:evenodd;clip-rule:evenodd;fill:none;stroke:#E4C54B;stroke-width:1.7463;stroke-miterlimit:10;}
	.st11{fill:#EAE71E;}
	.st12{fill:#EB185B;}
	.st13{fill:#EC2127;}
	.st14{fill:#503C2C;}
	.st15{fill:#507FC1;}
	.st16{fill:#542D8B;}
	.st17{fill:#8C6828;}
	.st18{fill:#BF2327;}
	.st19{fill:#231F20;}
	.st20{fill:#F7F3A3;}
	.st21{fill-rule:evenodd;clip-rule:evenodd;fill:none;stroke:#E4C54B;stroke-width:2.6195;stroke-miterlimit:10;}
	.st22{fill:#C2922E;}
	.st23{fill:#C597C5;}
	.st24{fill:#966828;}
	.st25{fill:#2B378B;}
	.st26{fill:#FAA532;}
	.st27{fill:#FBCA28;}
	.st28{fill:#FBCD36;}
	.st29{fill-rule:evenodd;clip-rule:evenodd;}
	.st30{fill:#FFFFFF;}
	.st31{fill-rule:evenodd;clip-rule:evenodd;fill:#F0CEE3;}
	.st32{fill:#FFFFFF;stroke:#7DA0D4;stroke-miterlimit:10;}
	.st33{fill:none;}
	.st34{fill:#231F20;stroke:#231F20;stroke-width:0.5;stroke-miterlimit:10;}
	.st35{fill:#679B9B;}
	.st36{fill:#9B732B;}
	.st37{fill:#CB7361;}
	.st38{fill:#CC2228;}
	.st39{fill:#311C10;}
	.st40{fill:#EC2127;stroke:#EC2127;stroke-width:0.5;stroke-miterlimit:10;}
	.st41{fill:#381414;}
	.st42{fill-rule:evenodd;clip-rule:evenodd;fill:#FBCDCD;}
	.st43{fill:#010101;}
	.st44{fill-rule:evenodd;clip-rule:evenodd;fill:#FFFFFF;}
	.st45{fill:#FFFFFF;stroke:#FFFFFF;stroke-miterlimit:10;}
	.st46{fill-rule:evenodd;clip-rule:evenodd;fill:#641E0F;}
	.st47{fill:#D3D3D3;}
	.st48{fill:#060707;}
	.st49{fill:#080908;}
	.st50{fill:#721212;}
	.st51{fill:#0E8141;}
	.st52{fill:#424143;}
	.st53{fill:#4259A8;}
]]>
</style>
<g id="band">
	<path id="Background" fill="#E72834" d="M751.9,178.1c-39.6,0-79.2,0.2-118.8,0c-2.5,0-6-1.1-7.4-2.9c-26.3-35-74.7-47.1-118.1-19.7
		c-1.4,0.9-2.8,1.6-4.7,2.7c0-2.2-0.1-3.6,0-5.1c1.1-25.6-5.1-48.8-23.3-67.7c-36.8-38.2-97.9-35.2-131.4,6.1
		c-1.4,1.7-3.5,3.5-5.5,4c-34.8,8.5-55.3,31.3-65.1,64.8c-0.5,1.6-0.9,3.1-1.6,5.4c-2.6-3-4.5-5.3-6.5-7.5
		c-41.1-46.4-113-38.7-142.3,15.3c-2.1,3.8-4.3,4.8-8.4,4.8c-37.4-0.1-74.8-0.2-112.2-0.2c-2.2,0-4.3,0-6.7,0c0,28.1,0,55.6,0,83.8
		c2.2,0,4.2,0,6.2,0c39.1,0,78.2,0,117.3-0.1c3.6,0,5.2,1.3,7,4.4c6.7,11.3,13,23,21.1,33.1c19.9,24.8,46.7,40.3,76.1,50.8
		c30.5,10.8,61.5,20.3,92.4,30.2c1.4,0.5,3.9-0.5,5.2-1.6c8.7-7.7,17.2-15.6,25.8-23.3c9.6-8.6,19.4-17,29.6-25.9
		c2.9,5.2,5.8,9.8,8,14.7c1.6,3.6,3.8,4.3,7.5,4.3c15.2-0.1,30.4,0.2,45.6,0.5c28.9,0.7,57.7,1.1,86.2-4.7
		c47.7-9.8,83.1-36.3,106.4-79c1.7-3.1,3.7-3.3,6.6-3.3c37.4,0,74.8,0,112.1,0c2,0,4,0,6,0c0-28.2,0-55.9,0-83.8
		C756.4,178.1,754.2,178.1,751.9,178.1z"/>
	<path id="Cupid" fill="#FFFFFF" d="M483,158.9c-1.3-2.8-4.6-4.2-6.2-4.7s-3.9-2.6-5.1-3.6s-3.3-0.2-3.9,1.3s-3.9,5.4-6.9,5.7
		s-5.8-2.8-7.7-6.2s-4.9-7.2-10.6-6.5s-10.3,1.9-11.3,1.8s-0.9-1.9,0.3-2.3s10.2-0.8,12.8-8.3s4.4-11.9,5.6-14.1s0.8-4.6,0.1-5.1
		s-3.2,0.3-5.1,2s-5.3,3.6-9.9,4.1s-12.7,1.6-14.1,6.8s1,11.7,1.3,13.4s0.4,2.1-1.9,1.5s-8.9-2.6-9.5-3.9s0.1-1.8,1.4-2.5
		s2.4-0.9,2.1-3.3s1.8-2.8,2.6-2.9s2.5-0.1,2.4-2.6s0.2-3.2,0.9-4.1s0.4-3.4-1.3-4s-1.6-1.8-1.5-2.9s-0.8-1.8-2.1-1.9
		s-0.7-2.4-1.1-3.3s-1.4-1.8-3.1-1.7s-2.6-1.2-2.9-2.2s-1.4-1.9-3.4-1.2s-2.8-0.4-3.7-0.9s-2.4-0.3-2.9,0.9s-1,1.3-2.9,0.7
		s-2.8,0.8-3.1,1.6s-1,1.4-2.4,1.3s-2.5-0.2-2.9,1.7s-0.9,2.3-2.2,2.4s-1.9,0.3-1.9,2.3s-1.1,2.6-1.8,3.2s-0.8,1.9,0.8,4
		c0.3,0.5-2.1,3.1,0.6,4.8s5,3.8,5.4,7.4s3.6,11.3,10.5,9s4,1.4,2.9,2s-6.4,5.6-7.5,5.8s-12.2-8.9-14-10.6
		c-1.9-1.8-11.5-11.3-14.4-11.9s-3.8,0.2-3.8,0.6c0,0.5,0.2,2.4,2.3,0.8c2-1.7,2.5,4.5,0.6,6.9c-1.8,2.3-9.7,9.9-6.6,16.1
		c3,6.2,5.5,7,4,7c-1.5,0-8.8,2.6-8.9,2.2s-0.5-1.6-0.6-2.5c-0.1-0.8-2.5,2.5-3.1,3.3c-0.7,0.9,0,1,1.2,1.5c1.2,0.5,3.7,1.9,3.5,1.2
		s-0.9-2.2-0.8-2.2s8.9-2.3,9.7-2.3s1.4,1,0.7,2.6s-4.3,9.3-0.1,13.1s13,9,13.3,10.6c0.3,1.7,0.3,3.8-0.7,3.8s-2.5-0.6-2.4,0.8
		c0.1,1.3,1.9,2.5,3.4,0.4c1.5-2,7.8-14.7,9.4-17.9s7.4-14,8.1-14.8s8.8-5.5,10.1-5.7s2.6,1,4.8,2.9s7,4.8,9.3,5.5s8.4,2.9,14.1,2.8
		c1.9,0,3.2,0.9,4.3,2.4s5.2,6.8,12.1,6.4s11.6-2.1,13.4-2.1s2.9,0.2,6.3,3.2s4.7,4.6,5,2.2s0.9-4-0.6-5.4s-3.7-2.6-4.4-4.6
		s-2.6-4.6-5.1-2.8s-2.5,2.1-3.6,2.2s-9.9-1.1-11.9-4.3s-0.8-3.4,1.8-1.9s6.9,4.2,12.6,2s6.2-5.4,8.4-6s4.4-0.9,7.8,0.4
		S484.3,161.7,483,158.9z M363.5,148.3c1-2.7,3.4-5.5,4.4-8.4s1-3.9,1.8-3.3s21.7,18.8,21.7,18.8c-0.3,0.8-5.2,1.9-6.8,2.2
		s-6.1,0.2-8.9-0.1s-2.9,1.9-3.3,2.9s-1.7,0.8-5.5,1.3C362.4,157.1,362.5,151,363.5,148.3z M391.7,165.2c0,0-11.9,22.8-12.2,23.3
		s-2.6-2.4-6.1-5s-5.8-5.5-6.1-8.9s0.5-11.3,0.5-11.3s4.4-0.8,5.3-0.8s1.4,1,3.9,2.5c2.6,1.5,3.6-1.5,4.2-1.6s6.4,0.1,8.6,0
		S392.8,163.3,391.7,165.2z"/>
	<g id="Outline">
		<rect id="XMLID_7830_" x="277" y="161.9" transform="matrix(0.2627 -0.9649 0.9649 0.2627 52.1537 394.2734)" class="st33" width="14.1" height="2.3"/>
		<path id="XMLID_7829_" fill="#FFFFFF" d="M281.4,168.4l3.1-11.4c0.2-0.6,0.8-1,1.4-0.8s1,0.8,0.8,1.4l-3.1,11.4
		c-0.2,0.6-0.8,1-1.4,0.8C281.6,169.6,281.3,169,281.4,168.4z"/>
		<rect id="XMLID_7827_" x="283.7" y="143.5" transform="matrix(0.5314 -0.8472 0.8472 0.5314 13.6957 314.0598)" class="st33" width="14.1" height="2.3"/>
		<path id="XMLID_7826_" fill="#FFFFFF" d="M286.6,149.1l6.3-10c0.3-0.5,1-0.7,1.6-0.4c0.5,0.3,0.7,1,0.4,1.6l-6.3,10
		c-0.3,0.5-1,0.7-1.6,0.4C286.4,150.3,286.3,149.6,286.6,149.1z"/>
		<rect id="XMLID_7824_" x="294.2" y="126.9" transform="matrix(0.6428 -0.766 0.766 0.6428 9.517 276.5114)" class="st33" width="14.1" height="2.3"/>
		<path id="XMLID_7823_" fill="#FFFFFF" d="M296.6,131.9l7.6-9c0.4-0.5,1.1-0.5,1.6-0.1c0.5,0.4,0.5,1.1,0.1,1.6l-7.6,9
		c-0.4,0.5-1.1,0.5-1.6,0.1C296.3,133,296.2,132.3,296.6,131.9z"/>
		<rect id="XMLID_7821_" x="308.8" y="113.7" transform="matrix(0.742 -0.6704 0.6704 0.742 4.4968 241.3888)" class="st33" width="14.1" height="2.2"/>
		<path id="XMLID_7820_" fill="#FFFFFF" d="M310.7,118l8.8-7.9c0.5-0.4,1.2-0.4,1.6,0.1c0.4,0.5,0.4,1.2-0.1,1.6l-8.8,7.9
		c-0.5,0.4-1.2,0.4-1.6-0.1C310.2,119.1,310.3,118.4,310.7,118z"/>
		<rect id="XMLID_7818_" x="326.3" y="104.8" transform="matrix(0.9486 -0.3165 0.3165 0.9486 -16.3753 110.9508)" class="st33" width="14.1" height="2.2"/>
		<path id="XMLID_7817_" fill="#FFFFFF" d="M327.4,106.7l11.2-3.7c0.6-0.2,1.2,0.1,1.4,0.7c0.2,0.6-0.1,1.2-0.7,1.4l-11.2,3.7
		c-0.6,0.2-1.2-0.1-1.4-0.7C326.5,107.5,326.8,106.9,327.4,106.7z"/>
		<rect id="XMLID_7815_" x="343.5" y="97" transform="matrix(0.5984 -0.8012 0.8012 0.5984 62.1833 320.2864)" class="st33" width="14.1" height="2.2"/>
		<path id="XMLID_7814_" fill="#FFFFFF" d="M346.1,102.2l7.1-9.5c0.4-0.5,1.1-0.6,1.6-0.2c0.5,0.4,0.6,1.1,0.2,1.6l-7.1,9.5
		c-0.4,0.5-1.1,0.6-1.6,0.2C345.9,103.4,345.8,102.7,346.1,102.2z"/>
		<rect id="XMLID_7812_" x="357.5" y="83.3" transform="matrix(0.8142 -0.5805 0.5805 0.8142 18.6854 227.3415)" class="st33" width="14.1" height="2.2"/>
		<path id="XMLID_7811_" fill="#FFFFFF" d="M359.1,87l9.6-6.9c0.5-0.4,1.2-0.2,1.6,0.3c0.4,0.5,0.2,1.2-0.3,1.6l-9.6,6.9
		c-0.5,0.4-1.2,0.2-1.6-0.3C358.5,88,358.6,87.3,359.1,87z"/>
		<rect id="XMLID_7809_" x="374.6" y="73.7" transform="matrix(0.9076 -0.4198 0.4198 0.9076 3.8533 167.1184)" class="st33" width="14.1" height="2.3"/>
		<path id="XMLID_7808_" fill="#FFFFFF" d="M375.8,76.3l10.7-5c0.6-0.3,1.2,0,1.5,0.5c0.3,0.6,0,1.2-0.5,1.5l-10.7,5
		c-0.6,0.3-1.2,0-1.5-0.5S375.2,76.5,375.8,76.3z"/>
		<rect id="XMLID_7806_" x="393.3" y="67.8" transform="matrix(0.9779 -0.2092 0.2092 0.9779 -5.57 85.2846)" class="st33" width="14.1" height="2.2"/>
		<path id="XMLID_7805_" fill="#FFFFFF" d="M394.3,69.1l11.6-2.5c0.6-0.1,1.2,0.3,1.3,0.9s-0.3,1.2-0.9,1.3l-11.6,2.5
		c-0.6,0.1-1.2-0.3-1.3-0.9S393.7,69.2,394.3,69.1z"/>
		<rect id="XMLID_7803_" x="412.7" y="66.5" transform="matrix(0.9975 7.076585e-002 -7.076585e-002 0.9975 5.8374 -29.5349)" class="st33" width="14.1" height="2.2"/>
		<path id="XMLID_7802_" fill="#FFFFFF" d="M413.9,66.1l11.8,0.8c0.6,0,1.1,0.6,1,1.2c0,0.6-0.6,1.1-1.2,1l-11.8-0.8
		c-0.6,0-1.1-0.6-1-1.2S413.3,66,413.9,66.1z"/>
		<rect id="XMLID_7800_" x="431.9" y="69.9" transform="matrix(0.9213 0.3887 -0.3887 0.9213 62.1279 -165.0416)" class="st33" width="14.1" height="2.3"/>
		<path id="XMLID_7799_" fill="#FFFFFF" d="M433.9,67.7l10.9,4.6c0.6,0.2,0.8,0.9,0.6,1.5c-0.2,0.6-0.9,0.8-1.5,0.6L433,69.8
		c-0.6-0.2-0.8-0.9-0.6-1.5C432.7,67.7,433.3,67.4,433.9,67.7z"/>
		<rect id="XMLID_7797_" x="449.6" y="79" transform="matrix(0.8816 0.4719 -0.4719 0.8816 91.8878 -206.027)" class="st33" width="14.1" height="2.3"/>
		<path id="XMLID_7796_" fill="#FFFFFF" d="M452,76.4l10.4,5.6c0.5,0.3,0.8,1,0.5,1.5s-1,0.8-1.5,0.5l-10.4-5.6
		c-0.5-0.3-0.8-1-0.5-1.5C450.8,76.3,451.4,76.1,452,76.4z"/>
		<rect id="XMLID_7794_" x="464.8" y="90.5" transform="matrix(0.7479 0.6638 -0.6638 0.7479 179.7291 -290.133)" class="st33" width="14.1" height="2.2"/>
		<path id="XMLID_7793_" fill="#FFFFFF" d="M468.2,86.8l8.8,7.8c0.5,0.4,0.5,1.1,0.1,1.6c-0.4,0.5-1.1,0.5-1.6,0.1l-8.8-7.8
		c-0.5-0.4-0.5-1.1-0.1-1.6C467,86.4,467.7,86.4,468.2,86.8z"/>
		<rect id="XMLID_7791_" x="476.4" y="106.1" transform="matrix(0.4937 0.8696 -0.8696 0.4937 337.9951 -366.132)" class="st33" width="14.1" height="2.2"/>
		<path id="XMLID_7790_" fill="#FFFFFF" d="M481.5,101.5l5.8,10.3c0.3,0.5,0.1,1.2-0.4,1.5s-1.2,0.1-1.5-0.4l-5.8-10.3
		c-0.3-0.5-0.1-1.2,0.4-1.5S481.2,101,481.5,101.5z"/>
		<rect id="XMLID_7788_" x="483.8" y="124.1" transform="matrix(0.2454 0.9694 -0.9694 0.2454 491.8339 -381.322)" class="st33" width="14.1" height="2.3"/>
		<path id="XMLID_7787_" fill="#FFFFFF" d="M490.5,119.3l2.9,11.5c0.2,0.6-0.2,1.2-0.8,1.4s-1.2-0.2-1.4-0.8l-2.9-11.5
		c-0.2-0.6,0.2-1.2,0.8-1.4C489.7,118.3,490.3,118.7,490.5,119.3z"/>
		<rect id="XMLID_7785_" x="487" y="143.5" transform="matrix(5.170050e-002 0.9987 -0.9987 5.170050e-002 612.8751 -356.2368)" class="st33" width="14.1" height="2.3"/>
		<path id="XMLID_7784_" fill="#FFFFFF" d="M494.8,138.6l0.6,11.8c0,0.6-0.4,1.2-1.1,1.2c-0.6,0-1.1-0.4-1.2-1.1l-0.6-11.8
		c0-0.6,0.4-1.1,1.1-1.2S494.8,138,494.8,138.6z"/>
		<rect id="XMLID_7782_" x="486.5" y="163.1" transform="matrix(-8.677492e-002 0.9962 -0.9962 -8.677492e-002 699.9288 -313.1566)" class="st33" width="14.1" height="2.2"/>
		<path id="XMLID_7781_" fill="#FFFFFF" d="M495.1,158.4l-1,11.8c-0.1,0.6-0.6,1.1-1.2,1c-0.6-0.1-1.1-0.6-1-1.2l1-11.8
		c0.1-0.6,0.6-1.1,1.2-1C494.7,157.3,495.2,157.8,495.1,158.4z"/>
		<rect id="XMLID_7779_" x="497.1" y="160.9" transform="matrix(0.8443 -0.5359 0.5359 0.8443 -8.3386 295.3817)" class="st33" width="14.1" height="2.2"/>
		<path id="XMLID_7778_" fill="#FFFFFF" d="M498.5,164.3l10-6.3c0.5-0.3,1.2-0.2,1.6,0.3c0.3,0.5,0.2,1.2-0.3,1.6l-10,6.3
		c-0.5,0.3-1.2,0.2-1.6-0.3C497.8,165.3,498,164.6,498.5,164.3z"/>
		<rect id="XMLID_7776_" x="514.8" y="152.4" transform="matrix(0.9102 -0.4141 0.4141 0.9102 -16.717 229.8505)" class="st33" width="14.1" height="2.2"/>
		<path id="XMLID_7775_" fill="#FFFFFF" d="M516,154.9l10.8-4.9c0.6-0.3,1.2,0,1.5,0.6c0.3,0.6,0,1.2-0.6,1.5l-10.8,4.9
		c-0.6,0.3-1.2,0-1.5-0.6C515.1,155.8,515.4,155.2,516,154.9z"/>
		<rect id="XMLID_7773_" x="533.8" y="147.6" transform="matrix(0.9731 -0.2305 0.2305 0.9731 -19.7103 128.6693)" class="st33" width="14.1" height="2.3"/>
		<path id="XMLID_7772_" fill="#FFFFFF" d="M534.9,149l11.5-2.7c0.6-0.1,1.2,0.2,1.4,0.8c0.1,0.6-0.2,1.2-0.8,1.4l-11.5,2.7
		c-0.6,0.1-1.2-0.2-1.4-0.8S534.3,149.1,534.9,149z"/>
		<rect id="XMLID_7770_" x="553.4" y="147.4" transform="matrix(0.9963 8.631796e-002 -8.631796e-002 0.9963 14.916 -47.8246)" class="st33" width="14.1" height="2.2"/>
		<path id="XMLID_7769_" fill="#FFFFFF" d="M554.7,146.9l11.8,1c0.6,0.1,1.1,0.6,1,1.2c-0.1,0.6-0.6,1.1-1.2,1l-11.8-1
		c-0.6-0.1-1.1-0.6-1-1.2C553.5,147.3,554.1,146.9,554.7,146.9z"/>
		<rect id="XMLID_7767_" x="572.4" y="152" transform="matrix(0.9394 0.3428 -0.3428 0.9394 87.6019 -189.3224)" class="st33" width="14.1" height="2.2"/>
		<path id="XMLID_7766_" fill="#FFFFFF" d="M574.2,150.1l11.1,4c0.6,0.2,0.9,0.9,0.7,1.4c-0.2,0.6-0.9,0.9-1.4,0.7l-11.1-4
		c-0.6-0.2-0.9-0.9-0.7-1.4C573,150.2,573.6,149.9,574.2,150.1z"/>
		<rect id="XMLID_7764_" x="590.2" y="160" transform="matrix(0.8043 0.5942 -0.5942 0.8043 212.6276 -323.3347)" class="st33" width="14.1" height="2.2"/>
		<path id="XMLID_7763_" fill="#FFFFFF" d="M593.1,156.7l9.5,7c0.5,0.4,0.6,1.1,0.2,1.6c-0.4,0.5-1.1,0.6-1.6,0.2l-9.5-7
		c-0.5-0.4-0.6-1.1-0.2-1.6C591.9,156.5,592.6,156.4,593.1,156.7z"/>
		<rect id="XMLID_7761_" x="604.1" y="173.8" transform="matrix(0.6165 0.7874 -0.7874 0.6165 372.1413 -414.1115)" class="st33" width="14.1" height="2.2"/>
		<path id="XMLID_7760_" fill="#FFFFFF" d="M608.4,169.6l7.3,9.3c0.4,0.5,0.3,1.2-0.2,1.6s-1.2,0.3-1.6-0.2l-7.3-9.3
		c-0.4-0.5-0.3-1.2,0.2-1.6S608,169.1,608.4,169.6z"/>
		<rect id="XMLID_7758_" x="615.2" y="190" transform="matrix(0.4474 0.8943 -0.8943 0.4474 514.7596 -450.8284)" class="st33" width="14.1" height="2.3"/>
		<path id="XMLID_7757_" fill="#FFFFFF" d="M620.6,185.4l5.3,10.6c0.3,0.6,0.1,1.2-0.5,1.5c-0.6,0.3-1.2,0.1-1.5-0.5l-5.3-10.6
		c-0.3-0.6-0.1-1.2,0.5-1.5C619.6,184.6,620.3,184.8,620.6,185.4z"/>
		<rect id="XMLID_7755_" x="622.4" y="208.2" transform="matrix(0.19 0.9818 -0.9818 0.19 715.353 -448.4681)" class="st33" width="14.1" height="2.2"/>
		<path id="XMLID_7754_" fill="#FFFFFF" d="M629.4,203.3l2.2,11.6c0.1,0.6-0.3,1.2-0.9,1.3c-0.6,0.1-1.2-0.3-1.3-0.9l-2.2-11.6
		c-0.1-0.6,0.3-1.2,0.9-1.3C628.7,202.3,629.3,202.7,629.4,203.3z"/>
		<rect id="XMLID_7752_" x="624.9" y="227.5" transform="matrix(-0.1426 0.9898 -0.9898 -0.1426 948.4309 -364.2583)" class="st33" width="14.1" height="2.2"/>
		<path id="XMLID_7751_" fill="#FFFFFF" d="M633.9,223l-1.7,11.7c-0.1,0.6-0.7,1-1.3,1c-0.6-0.1-1-0.7-1-1.3l1.7-11.7
		c0.1-0.6,0.7-1,1.3-1C633.6,221.8,634,222.3,633.9,223z"/>
		<rect id="XMLID_7749_" x="621.5" y="246.2" transform="matrix(-0.2372 0.9715 -0.9715 -0.2372 1017.9454 -304.5709)" class="st33" width="14.1" height="2.3"/>
		<path id="XMLID_7748_" fill="#FFFFFF" d="M631,241.9l-2.8,11.5c-0.1,0.6-0.8,1-1.4,0.8s-1-0.8-0.8-1.4l2.8-11.5
		c0.1-0.6,0.8-1,1.4-0.8C630.8,240.7,631.2,241.3,631,241.9z"/>
		<rect id="XMLID_7746_" x="613.6" y="264.7" transform="matrix(-0.4606 0.8876 -0.8876 -0.4606 1142.4894 -162.6815)" class="st33" width="14.1" height="2.3"/>
		<path id="XMLID_7745_" fill="#FFFFFF" d="M624.4,261.1l-5.4,10.5c-0.3,0.6-1,0.8-1.5,0.5c-0.6-0.3-0.8-1-0.5-1.5l5.4-10.5
		c0.3-0.6,1-0.8,1.5-0.5S624.7,260.5,624.4,261.1z"/>
		<rect id="XMLID_7743_" x="603.2" y="281.2" transform="matrix(-0.6767 0.7362 -0.7362 -0.6767 1230.9972 24.0764)" class="st33" width="14.1" height="2.3"/>
		<path id="XMLID_7742_" fill="#FFFFFF" d="M615,278.7l-8,8.7c-0.4,0.5-1.1,0.5-1.6,0.1c-0.5-0.4-0.5-1.1-0.1-1.6l8-8.7
		c0.4-0.5,1.1-0.5,1.6-0.1C615.4,277.5,615.5,278.2,615,278.7z"/>
		<rect id="XMLID_7740_" x="589.9" y="295.7" transform="matrix(-0.6767 0.7362 -0.7362 -0.6767 1219.3223 58.1721)" class="st33" width="14.1" height="2.2"/>
		<path id="XMLID_7739_" fill="#FFFFFF" d="M601.7,293.2l-8,8.7c-0.4,0.5-1.1,0.5-1.6,0.1c-0.5-0.4-0.5-1.1-0.1-1.6l8-8.7
		c0.4-0.5,1.1-0.5,1.6-0.1C602.1,292,602.1,292.7,601.7,293.2z"/>
		<rect id="XMLID_7737_" x="575.4" y="308.8" transform="matrix(-0.8316 0.5553 -0.5553 -0.8316 1238.8265 244.206)" class="st33" width="14.1" height="2.2"/>
		<path id="XMLID_7736_" fill="#FFFFFF" d="M587.9,307.6l-9.8,6.6c-0.5,0.3-1.2,0.2-1.6-0.3c-0.3-0.5-0.2-1.2,0.3-1.6l9.8-6.6
		c0.5-0.3,1.2-0.2,1.6,0.3S588.4,307.2,587.9,307.6z"/>
		<rect id="XMLID_7734_" x="559" y="319.7" transform="matrix(-0.8316 0.5553 -0.5553 -0.8316 1214.91 273.3246)" class="st33" width="14.1" height="2.2"/>
		<path id="XMLID_7733_" fill="#FFFFFF" d="M571.6,318.5l-9.8,6.6c-0.5,0.3-1.2,0.2-1.6-0.3c-0.3-0.5-0.2-1.2,0.3-1.6l9.8-6.6
		c0.5-0.3,1.2-0.2,1.6,0.3C572.2,317.5,572.1,318.2,571.6,318.5z"/>
		<rect id="XMLID_7731_" x="541.3" y="328.2" transform="matrix(-0.9279 0.3728 -0.3728 -0.9279 1179.8906 430.3728)" class="st33" width="14.1" height="2.3"/>
		<path id="XMLID_7730_" fill="#FFFFFF" d="M554.2,328.1l-11,4.4c-0.6,0.2-1.2,0-1.5-0.6s0-1.2,0.6-1.5l11-4.4c0.6-0.2,1.2,0,1.5,0.6
		C555.1,327.2,554.8,327.9,554.2,328.1z"/>
		<rect id="XMLID_7728_" x="522.8" y="334.8" transform="matrix(-0.9764 0.2161 -0.2161 -0.9764 1119.7979 549.4703)" class="st33" width="14.1" height="2.2"/>
		<path id="XMLID_7727_" fill="#FFFFFF" d="M535.9,335.8l-11.5,2.6c-0.6,0.1-1.2-0.2-1.3-0.9c-0.1-0.6,0.2-1.2,0.9-1.3l11.5-2.6
		c0.6-0.1,1.2,0.2,1.3,0.9S536.5,335.6,535.9,335.8z"/>
		<rect id="XMLID_7725_" x="503.6" y="339.1" transform="matrix(-0.9764 0.216 -0.216 -0.9764 1082.712 562.0704)" class="st33" width="14.1" height="2.3"/>
		<path id="XMLID_7701_" fill="#FFFFFF" d="M516.6,340l-11.5,2.6c-0.6,0.1-1.2-0.2-1.3-0.9s0.2-1.2,0.9-1.3l11.5-2.6
		c0.6-0.1,1.2,0.2,1.3,0.9C517.6,339.3,517.3,339.9,516.6,340z"/>
		<rect id="XMLID_7699_" x="484" y="341.1" transform="matrix(-0.9978 6.611115e-002 -6.611115e-002 -0.9978 1003.6558 651.1681)" class="st33" width="14.1" height="2.2"/>
		<path id="XMLID_7698_" fill="#FFFFFF" d="M497,342.9l-11.8,0.8c-0.6,0-1.2-0.4-1.2-1s0.4-1.2,1-1.2l11.8-0.8c0.6,0,1.2,0.4,1.2,1
		S497.6,342.9,497,342.9z"/>
		<rect id="XMLID_7696_" x="464.3" y="341.6" transform="matrix(-0.9999 1.472220e-002 -1.472220e-002 -0.9999 947.7401 678.3962)" class="st33" width="14.1" height="2.3"/>
		<path id="XMLID_7695_" fill="#FFFFFF" d="M477.3,343.7l-11.8,0.2c-0.6,0-1.1-0.5-1.1-1.1s0.5-1.1,1.1-1.1l11.8-0.2
		c0.6,0,1.1,0.5,1.1,1.1C478.4,343.2,477.9,343.7,477.3,343.7z"/>
		<rect id="XMLID_7693_" x="444.7" y="341.4" transform="matrix(-0.9999 -1.048632e-002 1.048632e-002 -0.9999 899.7559 689.8652)" class="st33" width="14.1" height="2.3"/>
		<path id="XMLID_7692_" fill="#FFFFFF" d="M457.6,343.8l-11.8-0.1c-0.6,0-1.1-0.5-1.1-1.1c0-0.6,0.5-1.1,1.1-1.1l11.8,0.1
		c0.6,0,1.1,0.5,1.1,1.1S458.2,343.8,457.6,343.8z"/>
		<rect id="XMLID_7690_" x="425" y="341.6" transform="matrix(-0.9999 -1.583358e-002 1.583358e-002 -0.9999 858.5219 692.1702)" class="st33" width="14.1" height="2.3"/>
		<path id="XMLID_7689_" fill="#FFFFFF" d="M437.9,343.9l-11.8-0.2c-0.6,0-1.1-0.5-1.1-1.1s0.5-1.1,1.1-1.1l11.8,0.2
		c0.6,0,1.1,0.5,1.1,1.1S438.5,343.9,437.9,343.9z"/>
		<rect id="XMLID_7687_" x="405.3" y="342" transform="matrix(-0.9994 3.541650e-002 -3.541650e-002 -0.9994 836.5278 671.509)" class="st33" width="14.1" height="2.3"/>
		<path id="XMLID_7686_" fill="#FFFFFF" d="M418.3,344.1l-11.8,0.4c-0.6,0-1.1-0.5-1.2-1.1c0-0.6,0.5-1.1,1.1-1.2l11.8-0.4
		c0.6,0,1.1,0.5,1.2,1.1C419.4,343.5,418.9,344.1,418.3,344.1z"/>
		<rect id="XMLID_7684_" x="387.6" y="338.2" transform="matrix(-0.6679 -0.7443 0.7443 -0.6679 405.6987 859.7311)" class="st33" width="14.1" height="2.3"/>
		<path id="XMLID_7683_" fill="#FFFFFF" d="M397.8,344.5l-7.9-8.8c-0.4-0.5-0.4-1.2,0.1-1.6c0.5-0.4,1.2-0.4,1.6,0.1l7.9,8.8
		c0.4,0.5,0.4,1.2-0.1,1.6C398.9,345,398.2,345,397.8,344.5z"/>
		<rect id="XMLID_7681_" x="376.4" y="323.4" transform="matrix(-0.4798 -0.8774 0.8774 -0.4798 282.6249 816.5295)" class="st33" width="14.1" height="2.3"/>
		<path id="XMLID_7673_" fill="#FFFFFF" d="M385.2,330.2l-5.7-10.4c-0.3-0.5-0.1-1.2,0.4-1.5s1.2-0.1,1.5,0.4l5.7,10.4
		c0.3,0.5,0.1,1.2-0.4,1.5S385.5,330.7,385.2,330.2z"/>
		<rect id="XMLID_7671_" x="362.6" y="328.9" transform="matrix(-0.7441 0.668 -0.668 -0.7441 865.1913 328.6317)" class="st33" width="14.1" height="2.2"/>
		<path id="XMLID_7670_" fill="#FFFFFF" d="M374.8,326.9l-8.8,7.9c-0.5,0.4-1.2,0.4-1.6-0.1c-0.4-0.5-0.4-1.2,0.1-1.6l8.8-7.9
		c0.5-0.4,1.2-0.4,1.6,0.1S375.3,326.5,374.8,326.9z"/>
		<rect id="XMLID_7668_" x="348" y="342" transform="matrix(-0.7442 0.668 -0.668 -0.7442 848.4248 361.3817)" class="st33" width="14.1" height="2.3"/>
		<path id="XMLID_7667_" fill="#FFFFFF" d="M360.2,340.1l-8.8,7.9c-0.5,0.4-1.2,0.4-1.6-0.1c-0.4-0.5-0.4-1.2,0.1-1.6l8.8-7.9
		c0.5-0.4,1.2-0.4,1.6,0.1C360.7,338.9,360.6,339.6,360.2,340.1z"/>
		<rect id="XMLID_7665_" x="333.3" y="355.2" transform="matrix(-0.7441 0.668 -0.668 -0.7441 831.6609 394.0822)" class="st33" width="14.1" height="2.2"/>
		<path id="XMLID_7656_" fill="#FFFFFF" d="M345.5,353.2l-8.8,7.9c-0.5,0.4-1.2,0.4-1.6-0.1c-0.4-0.5-0.4-1.2,0.1-1.6l8.8-7.9
		c0.5-0.4,1.2-0.4,1.6,0.1S346,352.8,345.5,353.2z"/>
		<rect id="XMLID_7654_" x="318.7" y="368.3" transform="matrix(-0.7442 0.668 -0.668 -0.7442 814.8916 426.8322)" class="st33" width="14.1" height="2.3"/>
		<path id="XMLID_7653_" fill="#FFFFFF" d="M330.9,366.4l-8.8,7.9c-0.5,0.4-1.2,0.4-1.6-0.1c-0.4-0.5-0.4-1.2,0.1-1.6l8.8-7.9
		c0.5-0.4,1.2-0.4,1.6,0.1C331.4,365.2,331.3,365.9,330.9,366.4z"/>
		<rect id="XMLID_7651_" x="300.8" y="368.1" transform="matrix(-0.9649 -0.2626 0.2626 -0.9649 507.8299 806.3463)" class="st33" width="14.1" height="2.2"/>
		<path id="XMLID_7650_" fill="#FFFFFF" d="M313.2,371.9l-11.4-3.1c-0.6-0.2-1-0.8-0.8-1.4c0.2-0.6,0.8-1,1.4-0.8l11.4,3.1
		c0.6,0.2,1,0.8,0.8,1.4C314.4,371.7,313.8,372,313.2,371.9z"/>
		<rect id="XMLID_7642_" x="281.9" y="362.6" transform="matrix(-0.954 -0.2998 0.2998 -0.954 455.4294 797.4011)" class="st33" width="14.1" height="2.2"/>
		<path id="XMLID_7641_" fill="#FFFFFF" d="M294.2,366.6l-11.3-3.5c-0.6-0.2-0.9-0.8-0.7-1.4c0.2-0.6,0.8-0.9,1.4-0.7l11.3,3.5
		c0.6,0.2,0.9,0.8,0.7,1.4C295.4,366.5,294.8,366.8,294.2,366.6z"/>
		<rect id="XMLID_7639_" x="263.1" y="356.7" transform="matrix(-0.9457 -0.3249 0.3249 -0.9457 409.2947 784.0231)" class="st33" width="14.1" height="2.2"/>
		<path id="XMLID_7638_" fill="#FFFFFF" d="M275.3,360.8l-11.2-3.8c-0.6-0.2-0.9-0.8-0.7-1.4c0.2-0.6,0.8-0.9,1.4-0.7l11.2,3.8
		c0.6,0.2,0.9,0.8,0.7,1.4C276.6,360.7,275.9,361,275.3,360.8z"/>
		<rect id="XMLID_7636_" x="244.6" y="349.8" transform="matrix(-0.9368 -0.3498 0.3498 -0.9368 364.68 767.7599)" class="st33" width="14.1" height="2.2"/>
		<path id="XMLID_7635_" fill="#FFFFFF" d="M256.8,354.1l-11.1-4.1c-0.6-0.2-0.9-0.9-0.7-1.4s0.9-0.9,1.4-0.7l11.1,4.1
		c0.6,0.2,0.9,0.9,0.7,1.4S257.4,354.3,256.8,354.1z"/>
		<rect id="XMLID_7633_" x="226.4" y="342.5" transform="matrix(-0.9081 -0.4188 0.4188 -0.9081 301.5236 753.3349)" class="st33" width="14.1" height="2.2"/>
		<path id="XMLID_7632_" fill="#FFFFFF" d="M238.3,347.1l-10.7-4.9c-0.6-0.3-0.8-0.9-0.6-1.5c0.3-0.6,0.9-0.8,1.5-0.5l10.7,4.9
		c0.6,0.3,0.8,0.9,0.6,1.5C239.6,347.1,238.9,347.3,238.3,347.1z"/>
		<rect id="XMLID_7630_" x="208.5" y="334.2" transform="matrix(-0.9081 -0.4187 0.4187 -0.9081 270.8667 730.1176)" class="st33" width="14.1" height="2.3"/>
		<path id="XMLID_7629_" fill="#FFFFFF" d="M220.4,338.8l-10.7-4.9c-0.6-0.3-0.8-0.9-0.6-1.5c0.3-0.6,0.9-0.8,1.5-0.6l10.7,4.9
		c0.6,0.3,0.8,0.9,0.6,1.5C221.7,338.8,221,339.1,220.4,338.8z"/>
		<rect id="XMLID_7627_" x="191.2" y="324.9" transform="matrix(-0.8557 -0.5174 0.5174 -0.8557 199.2339 707.5247)" class="st33" width="14.1" height="2.2"/>
		<path id="XMLID_7623_" fill="#FFFFFF" d="M202.7,330l-10.1-6.1c-0.5-0.3-0.7-1-0.4-1.5c0.3-0.5,1-0.7,1.5-0.4l10.1,6.1
		c0.5,0.3,0.7,1,0.4,1.5C204,330.2,203.3,330.3,202.7,330z"/>
		<rect id="XMLID_7621_" x="174.4" y="314.7" transform="matrix(-0.8557 -0.5174 0.5174 -0.8557 173.2422 679.9034)" class="st33" width="14.1" height="2.3"/>
		<path id="XMLID_7620_" fill="#FFFFFF" d="M185.9,319.8l-10.1-6.1c-0.5-0.3-0.7-1-0.4-1.5c0.3-0.5,1-0.7,1.5-0.4l10.1,6.1
		c0.5,0.3,0.7,1,0.4,1.5S186.4,320.1,185.9,319.8z"/>
		<rect id="XMLID_7586_" x="159.5" y="301.8" transform="matrix(-0.7297 -0.6838 0.6838 -0.7297 80.9611 637.9151)" class="st33" width="14.1" height="2.2"/>
		<path id="XMLID_7585_" fill="#FFFFFF" d="M170.1,307.8l-8.6-8.1c-0.5-0.4-0.5-1.1-0.1-1.6s1.1-0.5,1.6-0.1l8.6,8.1
		c0.5,0.4,0.5,1.1,0.1,1.6C171.3,308.2,170.6,308.2,170.1,307.8z"/>
		<rect id="XMLID_7583_" x="146.3" y="287.4" transform="matrix(-0.5952 -0.8036 0.8036 -0.5952 12.804 583.4947)" class="st33" width="14.1" height="2.2"/>
		<path id="XMLID_7582_" fill="#FFFFFF" d="M156,293.9l-7-9.5c-0.4-0.5-0.3-1.2,0.2-1.6c0.5-0.4,1.2-0.3,1.6,0.2l7,9.5
		c0.4,0.5,0.3,1.2-0.2,1.6C157,294.5,156.3,294.4,156,293.9z"/>
		<rect id="XMLID_7574_" x="135.5" y="270.9" transform="matrix(-0.5485 -0.8361 0.8361 -0.5485 -6.718 540.4946)" class="st33" width="14.1" height="2.3"/>
		<path id="XMLID_7572_" fill="#FFFFFF" d="M144.9,277.6l-6.5-9.9c-0.3-0.5-0.2-1.2,0.3-1.6c0.5-0.3,1.2-0.2,1.6,0.3l6.5,9.9
		c0.3,0.5,0.2,1.2-0.3,1.6C145.9,278.3,145.2,278.1,144.9,277.6z"/>
		<rect id="XMLID_7557_" x="127.8" y="252.9" transform="matrix(-0.3509 -0.9364 0.9364 -0.3509 -55.7054 469.4584)" class="st33" width="14.1" height="2.2"/>
		<path id="XMLID_7556_" fill="#FFFFFF" d="M135.9,260l-4.1-11.1c-0.2-0.6,0.1-1.2,0.7-1.4s1.2,0.1,1.4,0.7l4.1,11.1
		c0.2,0.6-0.1,1.2-0.7,1.4C136.7,260.8,136.1,260.5,135.9,260z"/>
		<rect id="XMLID_7544_" x="122.1" y="234.2" transform="matrix(-0.1177 -0.9931 0.9931 -0.1177 -89.3031 391.2587)" class="st33" width="14.1" height="2.2"/>
		<path id="XMLID_7538_" fill="#FFFFFF" d="M128.7,241.3l-1.4-11.7c-0.1-0.6,0.4-1.2,1-1.3c0.6-0.1,1.2,0.4,1.2,1L131,241
		c0.1,0.6-0.4,1.2-1,1.2S128.8,241.9,128.7,241.3z"/>
		<rect id="XMLID_7132_" x="119.8" y="214.6" transform="matrix(-0.1177 -0.9931 0.9931 -0.1177 -72.4783 367.106)" class="st33" width="14.1" height="2.2"/>
		<path id="XMLID_7131_" fill="#FFFFFF" d="M126.4,221.7L125,210c-0.1-0.6,0.4-1.2,1-1.3c0.6-0.1,1.2,0.4,1.3,1l1.4,11.7
		c0.1,0.6-0.4,1.2-1,1.2C127.1,222.8,126.5,222.4,126.4,221.7z"/>
		<rect id="XMLID_7129_" x="122.1" y="195.2" transform="matrix(0.1747 -0.9846 0.9846 0.1747 -86.7757 289.1381)" class="st33" width="14.1" height="2.3"/>
		<path id="XMLID_7128_" fill="#FFFFFF" d="M126.9,202l2.1-11.6c0.1-0.6,0.7-1,1.3-0.9s1,0.7,0.9,1.3l-2.1,11.6
		c-0.1,0.6-0.7,1-1.3,0.9C127.2,203.1,126.8,202.6,126.9,202z"/>
		<rect id="XMLID_7126_" x="128.1" y="176.8" transform="matrix(0.5173 -0.8558 0.8558 0.5173 -87.0466 201.4996)" class="st33" width="14.1" height="2.3"/>
		<path id="XMLID_7125_" fill="#FFFFFF" d="M131.1,182.4l6.1-10.1c0.3-0.5,1-0.7,1.5-0.4c0.5,0.3,0.7,1,0.4,1.5l-6.1,10.1
		c-0.3,0.5-1,0.7-1.5,0.4C130.9,183.6,130.8,182.9,131.1,182.4z"/>
		<rect id="XMLID_7122_" x="139.8" y="160.4" transform="matrix(0.6482 -0.7615 0.7615 0.6482 -71.3562 168.6047)" class="st33" width="14.1" height="2.3"/>
		<path id="XMLID_7121_" fill="#FFFFFF" d="M142.1,165.3l7.7-9c0.4-0.5,1.1-0.5,1.6-0.1c0.5,0.4,0.5,1.1,0.1,1.6l-7.7,9
		c-0.4,0.5-1.1,0.5-1.6,0.1C141.8,166.5,141.7,165.8,142.1,165.3z"/>
		<rect id="XMLID_7119_" x="154.2" y="148.5" transform="matrix(0.8155 -0.5788 0.5788 0.8155 -56.8254 120.9405)" class="st33" width="14.1" height="2.3"/>
		<path id="XMLID_6444_" fill="#FFFFFF" d="M155.8,152.1l9.6-6.8c0.5-0.4,1.2-0.2,1.6,0.3c0.4,0.5,0.2,1.2-0.3,1.6l-9.6,6.8
		c-0.5,0.4-1.2,0.2-1.6-0.3C155.2,153.2,155.3,152.4,155.8,152.1z"/>
		<rect id="XMLID_6442_" x="171.5" y="139.7" transform="matrix(0.9609 -0.277 0.277 0.9609 -32.0193 54.9797)" class="st33" width="14.1" height="2.3"/>
		<path id="XMLID_6441_" fill="#FFFFFF" d="M172.6,141.4l11.3-3.3c0.6-0.2,1.2,0.2,1.4,0.8s-0.2,1.2-0.8,1.4l-11.4,3.3
		c-0.6,0.2-1.2-0.2-1.4-0.8C171.6,142.2,172,141.5,172.6,141.4z"/>
		<rect id="XMLID_6439_" x="190.5" y="134.2" transform="matrix(0.993 -0.1178 0.1178 0.993 -14.5751 24.2163)" class="st33" width="14.1" height="2.3"/>
		<path id="XMLID_6438_" fill="#FFFFFF" d="M191.5,134.9l11.7-1.4c0.6-0.1,1.2,0.4,1.2,1c0.1,0.6-0.4,1.2-1,1.3l-11.7,1.4
		c-0.6,0.1-1.2-0.4-1.2-1S190.9,135,191.5,134.9z"/>
		<rect id="XMLID_6436_" x="210.1" y="134.8" transform="matrix(0.9959 9.090203e-002 -9.090203e-002 0.9959 13.253 -19.173)" class="st33" width="14.1" height="2.3"/>
		<path id="XMLID_6435_" fill="#FFFFFF" d="M211.3,134.2l11.8,1.1c0.6,0.1,1.1,0.6,1,1.2c-0.1,0.6-0.6,1.1-1.2,1l-11.8-1.1
		c-0.6-0.1-1.1-0.6-1-1.2C210.2,134.6,210.7,134.2,211.3,134.2z"/>
		<rect id="XMLID_6433_" x="228.9" y="139.9" transform="matrix(0.936 0.352 -0.352 0.936 64.7484 -74.0139)" class="st33" width="14.1" height="2.3"/>
		<path id="XMLID_6196_" fill="#FFFFFF" d="M230.8,137.9l11.1,4.2c0.6,0.2,0.9,0.9,0.7,1.4s-0.9,0.9-1.4,0.7L230,140
		c-0.6-0.2-0.9-0.9-0.7-1.4C229.5,138,230.2,137.7,230.8,137.9z"/>
		<rect id="XMLID_6194_" x="245.9" y="149.5" transform="matrix(0.8207 0.5713 -0.5713 0.8207 131.3889 -117.5186)" class="st33" width="14.1" height="2.3"/>
		<path id="XMLID_6193_" fill="#FFFFFF" d="M248.7,146.3l9.7,6.7c0.5,0.4,0.6,1.1,0.3,1.6s-1.1,0.6-1.6,0.3l-9.7-6.7
		c-0.5-0.4-0.6-1.1-0.3-1.6C247.5,146.1,248.2,145.9,248.7,146.3z"/>
		<rect id="XMLID_6191_" x="260.6" y="162.4" transform="matrix(0.7044 0.7098 -0.7098 0.7044 195.2159 -141.6469)" class="st33" width="14.1" height="2.3"/>
		<path id="XMLID_6190_" fill="#FFFFFF" d="M264.3,158.6l8.3,8.4c0.4,0.4,0.4,1.2,0,1.6c-0.4,0.4-1.2,0.4-1.6,0l-8.3-8.4
		c-0.4-0.4-0.4-1.2,0-1.6S263.9,158.1,264.3,158.6z"/>
		<rect id="XMLID_6186_" x="272.7" y="178" transform="matrix(0.5357 0.8444 -0.8444 0.5357 281.074 -153.0259)" class="st33" width="14.1" height="2.2"/>
		<path id="XMLID_6185_" fill="#FFFFFF" d="M277.5,173.5l6.3,10c0.3,0.5,0.2,1.2-0.3,1.6c-0.5,0.3-1.2,0.2-1.6-0.3l-6.3-10
		c-0.3-0.5-0.2-1.2,0.3-1.6C276.5,172.8,277.1,173,277.5,173.5z"/>
	</g>
	<text x="197" class="svg_element" y="231" onclick="choose_text('text1')" id="text1" font-size="48" font-family="Pontano Sans" fill="#FFFFFF" transform="rotate(null,null,null)">Happy<title></title></text>
	<text x="271.5" class="svg_element" y="292" onclick="choose_text('text2')" id="text2" font-size="48" font-family="Pontano Sans" fill="#FFFFFF" transform="rotate(null,null,null)">Valentine's Day<title></title></text>
</g>
</svg>
