<?xml version="1.0" encoding="utf-8"?>
<!-- Generator: Adobe Illustrator 16.0.0, SVG Export Plug-In . SVG Version: 6.00 Build 0)  -->
<!DOCTYPE svg PUBLIC "-//W3C//DTD SVG 1.1//EN" "http://www.w3.org/Graphics/SVG/1.1/DTD/svg11.dtd">
<svg version="1.1" id="Layer_1" xmlns="http://www.w3.org/2000/svg" xmlns:xlink="http://www.w3.org/1999/xlink" x="0px" y="0px"
	 width="760px" height="440px" viewBox="0 0 380 220" enable-background="new 0 0 380 220" xml:space="preserve">
	 <g><path id="Background" fill="#ffffff" stroke="none" stroke-width="0" stroke-miterlimit="10" d="M1.976,88.978l118.34-20.021
	 	c0-11.094,15.564-20.071,34.8-20.071c0-14.356,15.603-22.096,34.884-22.096c19.282,0,34.883,7.739,34.883,22.096
	 		c19.236,0,34.799,8.978,34.799,20.071l118.342,20.021v40.627l-118.342,20.021c0,11.094-15.562,20.07-34.799,20.07
	 			c0,14.355-15.602,23.512-34.883,23.512c-19.281,0-34.884-9.154-34.884-23.512c-19.234,0-34.8-8.977-34.8-20.07L1.976,129.605V88.978
	 				L1.976,88.978z"/></g>
	 				</svg>
