<?xml version="1.0" encoding="utf-8"?>
<!-- Generator: Adobe Illustrator 16.0.0, SVG Export Plug-In . SVG Version: 6.00 Build 0)  -->
<!DOCTYPE svg PUBLIC "-//W3C//DTD SVG 1.1//EN" "http://www.w3.org/Graphics/SVG/1.1/DTD/svg11.dtd">
<svg version="1.1" id="Layer_2" xmlns="http://www.w3.org/2000/svg" xmlns:xlink="http://www.w3.org/1999/xlink" x="0px" y="0px"
	 width="759px" height="439px" viewBox="0 0 759 439" style="enable-background:new 0 0 759 439;" xml:space="preserve">
<style type="text/css">
<![CDATA[
	.st0{fill:#4659A7;}
	.st1{fill:#7DA0D4;}
	.st2{fill:#7F5E26;}
	.st3{fill:#151943;}
	.st4{fill:#171719;}
	.st5{fill:#172919;}
	.st6{fill:#18331B;}
	.st7{fill:#E72834;}
	.st8{fill:#E7E9E9;}
	.st9{fill:#E8EAEA;}
	.st10{fill-rule:evenodd;clip-rule:evenodd;fill:none;stroke:#E4C54B;stroke-width:1.7463;stroke-miterlimit:10;}
	.st11{fill:#EAE71E;}
	.st12{fill:#EB185B;}
	.st13{fill:#EC2127;}
	.st14{fill:#503C2C;}
	.st15{fill:#507FC1;}
	.st16{fill:#542D8B;}
	.st17{fill:#8C6828;}
	.st18{fill:#BF2327;}
	.st19{fill:#231F20;}
	.st20{fill:#F7F3A3;}
	.st21{fill-rule:evenodd;clip-rule:evenodd;fill:none;stroke:#E4C54B;stroke-width:2.6195;stroke-miterlimit:10;}
	.st22{fill:#C2922E;}
	.st23{fill:#C597C5;}
	.st24{fill:#966828;}
	.st25{fill:#2B378B;}
	.st26{fill:#FAA532;}
	.st27{fill:#FBCA28;}
	.st28{fill:#FBCD36;}
	.st29{fill-rule:evenodd;clip-rule:evenodd;}
	.st30{fill:#FFFFFF;}
	.st31{fill-rule:evenodd;clip-rule:evenodd;fill:#F0CEE3;}
	.st32{fill:#FFFFFF;stroke:#7DA0D4;stroke-miterlimit:10;}
	.st33{fill:none;}
	.st34{fill:#231F20;stroke:#231F20;stroke-width:0.5;stroke-miterlimit:10;}
	.st35{fill:#679B9B;}
	.st36{fill:#9B732B;}
	.st37{fill:#CB7361;}
	.st38{fill:#CC2228;}
	.st39{fill:#311C10;}
	.st40{fill:#EC2127;stroke:#EC2127;stroke-width:0.5;stroke-miterlimit:10;}
	.st41{fill:#381414;}
	.st42{fill-rule:evenodd;clip-rule:evenodd;fill:#FBCDCD;}
	.st43{fill:#010101;}
	.st44{fill-rule:evenodd;clip-rule:evenodd;fill:#FFFFFF;}
	.st45{fill:#FFFFFF;stroke:#FFFFFF;stroke-miterlimit:10;}
	.st46{fill-rule:evenodd;clip-rule:evenodd;fill:#641E0F;}
	.st47{fill:#D3D3D3;}
	.st48{fill:#060707;}
	.st49{fill:#080908;}
	.st50{fill:#721212;}
	.st51{fill:#0E8141;}
	.st52{fill:#424143;}
	.st53{fill:#4259A8;}
]]>
</style>
<g id="XMLID_10579_">
	<g id="XMLID_9922_">
		<g id="XMLID_10234_">
			<path id="XMLID_10235_" class="st32" d="M0,155v129h284c-12.5-18.4-19.8-40.6-19.8-64.5c0-23.9,7.3-46.1,19.8-64.5H0z"/>
			<path id="XMLID_10236_" class="st32" d="M475,155c12.5,18.4,19.8,40.6,19.8,64.5c0,23.9-7.3,46.1-19.8,64.5h284V155H475z"/>
		</g>
		<path id="XMLID_9923_" class="st1" d="M475,155c-20.7-30.6-55.8-50.8-95.5-50.8c-39.7,0-74.8,20.2-95.5,50.8
			c-12.5,18.4-19.8,40.6-19.8,64.5c0,23.9,7.3,46.1,19.8,64.5c20.7,30.6,55.8,50.8,95.5,50.8c39.7,0,74.8-20.2,95.5-50.8
			c12.5-18.4,19.8-40.6,19.8-64.5C494.8,195.6,487.5,173.4,475,155z M379.5,324.8c-58.1,0-105.3-47.2-105.3-105.3
			s47.2-105.3,105.3-105.3s105.3,47.2,105.3,105.3S437.6,324.8,379.5,324.8z"/>
	</g>
	<g id="XMLID_9681_">
		<g id="XMLID_9907_">
			<g id="XMLID_9915_">
				<path id="XMLID_9921_" class="st1" d="M27.4,194.3c2.3-1.8,2.8-5.4-2.1-8.7c-4.9-3.3-15.6,1.2-15.3,10.7s12.4,19.6,17.1,18.8
					c4.7-0.8,6.3-5.1,3.7-6.8c-2.6-1.8-7.8-3.9-7.9-7.8C22.8,196.7,25.9,195.6,27.4,194.3z"/>
				<ellipse id="XMLID_9920_" class="st1" cx="27" cy="180" rx="3.7" ry="4.2"/>
				
					<ellipse id="XMLID_9919_" transform="matrix(0.9995 -3.074045e-002 3.074045e-002 0.9995 -5.5287 0.666)" class="st1" cx="18.9" cy="180.1" rx="2.4" ry="2.8"/>
				
					<ellipse id="XMLID_9918_" transform="matrix(0.9117 -0.4109 0.4109 0.9117 -73.8731 21.6468)" class="st1" cx="13.4" cy="182.7" rx="2.4" ry="2.8"/>
				
					<ellipse id="XMLID_9917_" transform="matrix(0.6849 -0.7286 0.7286 0.6849 -133.3953 65.7933)" class="st1" cx="9.4" cy="187.1" rx="2.1" ry="2.6"/>
				
					<ellipse id="XMLID_9916_" transform="matrix(0.3905 -0.9206 0.9206 0.3905 -172.5982 123.409)" class="st1" cx="6.9" cy="192.1" rx="2" ry="2.4"/>
			</g>
			<g id="XMLID_9908_">
				<path id="XMLID_9914_" class="st1" d="M38.2,194.3c-2.3-1.8-2.8-5.4,2.1-8.7s15.6,1.2,15.3,10.7s-12.4,19.6-17.1,18.8
					c-4.7-0.8-6.3-5.1-3.7-6.8c2.6-1.8,7.8-3.9,7.9-7.8S39.7,195.6,38.2,194.3z"/>
				<ellipse id="XMLID_9913_" class="st1" cx="38.6" cy="180" rx="3.7" ry="4.2"/>
				
					<ellipse id="XMLID_9912_" transform="matrix(-0.9995 -3.073414e-002 3.073414e-002 -0.9995 87.8281 361.6356)" class="st1" cx="46.7" cy="180.1" rx="2.4" ry="2.8"/>
				
					<ellipse id="XMLID_9911_" transform="matrix(-0.9117 -0.4108 0.4108 -0.9117 24.6916 370.631)" class="st1" cx="52.2" cy="182.7" rx="2.4" ry="2.8"/>
				
					<ellipse id="XMLID_9910_" transform="matrix(-0.6849 -0.7286 0.7286 -0.6849 -41.636 356.2617)" class="st1" cx="56.2" cy="187.1" rx="2.1" ry="2.6"/>
				
					<ellipse id="XMLID_9909_" transform="matrix(-0.3905 -0.9206 0.9206 -0.3905 -95.2081 321.0902)" class="st1" cx="58.7" cy="192.1" rx="2" ry="2.4"/>
			</g>
		</g>
		<g id="XMLID_9892_">
			<g id="XMLID_9900_">
				<path id="XMLID_9906_" class="st1" d="M94,194.3c2.3-1.8,2.8-5.4-2.1-8.7s-15.6,1.2-15.3,10.7s12.4,19.6,17.1,18.8
					c4.7-0.8,6.3-5.1,3.7-6.8c-2.6-1.8-7.8-3.9-7.9-7.8S92.5,195.6,94,194.3z"/>
				<ellipse id="XMLID_9905_" class="st1" cx="93.6" cy="180" rx="3.7" ry="4.2"/>
				
					<ellipse id="XMLID_9904_" transform="matrix(0.9995 -3.073414e-002 3.073414e-002 0.9995 -5.4962 2.7122)" class="st1" cx="85.5" cy="180.1" rx="2.4" ry="2.8"/>
				
					<ellipse id="XMLID_9903_" transform="matrix(0.9117 -0.4109 0.4109 0.9117 -67.9921 49.0066)" class="st1" cx="80" cy="182.7" rx="2.4" ry="2.8"/>
				
					<ellipse id="XMLID_9902_" transform="matrix(0.685 -0.7285 0.7285 0.685 -112.4041 114.2758)" class="st1" cx="76" cy="187.1" rx="2.1" ry="2.6"/>
				
					<ellipse id="XMLID_9901_" transform="matrix(0.3905 -0.9206 0.9206 0.3905 -132.0189 184.7045)" class="st1" cx="73.5" cy="192.1" rx="2" ry="2.4"/>
			</g>
			<g id="XMLID_9893_">
				<path id="XMLID_9899_" class="st1" d="M104.7,194.3c-2.3-1.8-2.8-5.4,2.1-8.7c4.9-3.3,15.6,1.2,15.3,10.7s-12.4,19.6-17.1,18.8
					c-4.7-0.8-6.3-5.1-3.7-6.8c2.6-1.8,7.8-3.9,7.9-7.8C109.4,196.7,106.3,195.6,104.7,194.3z"/>
				<ellipse id="XMLID_9898_" class="st1" cx="105.2" cy="180" rx="3.7" ry="4.2"/>
				
					<ellipse id="XMLID_9897_" transform="matrix(-0.9995 -3.074034e-002 3.074034e-002 -0.9995 220.9615 363.6826)" class="st1" cx="113.3" cy="180.1" rx="2.4" ry="2.8"/>
				
					<ellipse id="XMLID_9896_" transform="matrix(-0.9117 -0.4109 0.4109 -0.9117 151.9608 397.9885)" class="st1" cx="118.8" cy="182.7" rx="2.4" ry="2.8"/>
				
					<ellipse id="XMLID_9895_" transform="matrix(-0.685 -0.7285 0.7285 -0.685 70.5878 404.7844)" class="st1" cx="122.8" cy="187.1" rx="2.1" ry="2.6"/>
				
					<ellipse id="XMLID_9894_" transform="matrix(-0.3905 -0.9206 0.9206 -0.3905 -2.6211 382.3853)" class="st1" cx="125.3" cy="192.1" rx="2" ry="2.4"/>
			</g>
		</g>
		<g id="XMLID_9877_">
			<g id="XMLID_9885_">
				<path id="XMLID_9891_" class="st1" d="M160.6,194.3c2.3-1.8,2.8-5.4-2.1-8.7c-4.9-3.3-15.6,1.2-15.3,10.7s12.4,19.6,17.1,18.8
					c4.7-0.8,6.3-5.1,3.7-6.8s-7.8-3.9-7.9-7.8C155.9,196.7,159,195.6,160.6,194.3z"/>
				<ellipse id="XMLID_9890_" class="st1" cx="160.2" cy="180" rx="3.7" ry="4.2"/>
				
					<ellipse id="XMLID_9889_" transform="matrix(0.9995 -3.073414e-002 3.073414e-002 0.9995 -5.4647 4.7585)" class="st1" cx="152.1" cy="180.1" rx="2.4" ry="2.8"/>
				
					<ellipse id="XMLID_9888_" transform="matrix(0.9117 -0.4109 0.4109 0.9117 -62.1112 76.3663)" class="st1" cx="146.6" cy="182.7" rx="2.4" ry="2.8"/>
				
					<ellipse id="XMLID_9887_" transform="matrix(0.6849 -0.7286 0.7286 0.6849 -91.4369 162.8212)" class="st1" cx="142.5" cy="187.1" rx="2.1" ry="2.6"/>
				
					<ellipse id="XMLID_9886_" transform="matrix(0.3905 -0.9206 0.9206 0.3905 -91.4396 246.0001)" class="st1" cx="140.1" cy="192.1" rx="2" ry="2.4"/>
			</g>
			<g id="XMLID_9878_">
				<path id="XMLID_9884_" class="st1" d="M171.3,194.3c-2.3-1.8-2.8-5.4,2.1-8.7c4.9-3.3,15.6,1.2,15.3,10.7s-12.4,19.6-17.1,18.8
					c-4.7-0.8-6.3-5.1-3.7-6.8s7.8-3.9,7.9-7.8C176,196.7,172.9,195.6,171.3,194.3z"/>
				<ellipse id="XMLID_9883_" class="st1" cx="171.8" cy="180" rx="3.7" ry="4.2"/>
				
					<ellipse id="XMLID_9882_" transform="matrix(-0.9995 -3.073414e-002 3.073414e-002 -0.9995 354.0982 365.7284)" class="st1" cx="179.9" cy="180.1" rx="2.4" ry="2.8"/>
				
					<ellipse id="XMLID_9881_" transform="matrix(-0.9117 -0.4109 0.4109 -0.9117 279.2468 425.3484)" class="st1" cx="185.3" cy="182.7" rx="2.4" ry="2.8"/>
				
					<ellipse id="XMLID_9880_" transform="matrix(-0.6849 -0.7286 0.7286 -0.6849 182.7386 453.2896)" class="st1" cx="189.4" cy="187.1" rx="2.1" ry="2.6"/>
				
					<ellipse id="XMLID_9879_" transform="matrix(-0.3905 -0.9206 0.9206 -0.3905 89.9665 443.6809)" class="st1" cx="191.8" cy="192.1" rx="2" ry="2.4"/>
			</g>
		</g>
		<g id="XMLID_9862_">
			<g id="XMLID_9870_">
				<path id="XMLID_9876_" class="st1" d="M227.2,194.3c2.3-1.8,2.8-5.4-2.1-8.7c-4.9-3.3-15.6,1.2-15.3,10.7s12.4,19.6,17.1,18.8
					c4.7-0.8,6.3-5.1,3.7-6.8c-2.6-1.8-7.8-3.9-7.9-7.8C222.5,196.7,225.6,195.6,227.2,194.3z"/>
				<ellipse id="XMLID_9875_" class="st1" cx="226.7" cy="180" rx="3.7" ry="4.2"/>
				
					<ellipse id="XMLID_9874_" transform="matrix(0.9995 -3.074045e-002 3.074045e-002 0.9995 -5.4343 6.8064)" class="st1" cx="218.6" cy="180.1" rx="2.4" ry="2.8"/>
				
					<ellipse id="XMLID_9873_" transform="matrix(0.9117 -0.4109 0.4109 0.9117 -56.2302 103.7265)" class="st1" cx="213.2" cy="182.7" rx="2.4" ry="2.8"/>
				
					<ellipse id="XMLID_9872_" transform="matrix(0.6849 -0.7286 0.7286 0.6849 -70.4576 211.3353)" class="st1" cx="209.1" cy="187.1" rx="2.1" ry="2.6"/>
				
					<ellipse id="XMLID_9871_" transform="matrix(0.3905 -0.9206 0.9206 0.3905 -50.8605 307.2952)" class="st1" cx="206.7" cy="192.1" rx="2" ry="2.4"/>
			</g>
			<g id="XMLID_9863_">
				<path id="XMLID_9869_" class="st1" d="M237.9,194.3c-2.3-1.8-2.8-5.4,2.1-8.7s15.6,1.2,15.3,10.7s-12.4,19.6-17.1,18.8
					c-4.7-0.8-6.3-5.1-3.7-6.8c2.6-1.8,7.8-3.9,7.9-7.8S239.5,195.6,237.9,194.3z"/>
				<ellipse id="XMLID_9868_" class="st1" cx="238.3" cy="180" rx="3.7" ry="4.2"/>
				
					<ellipse id="XMLID_9867_" transform="matrix(-0.9995 -3.073414e-002 3.073414e-002 -0.9995 487.2338 367.7748)" class="st1" cx="246.4" cy="180.1" rx="2.4" ry="2.8"/>
				
					<ellipse id="XMLID_9866_" transform="matrix(-0.9117 -0.4108 0.4108 -0.9117 406.5556 452.6953)" class="st1" cx="251.9" cy="182.7" rx="2.4" ry="2.8"/>
				
					<ellipse id="XMLID_9865_" transform="matrix(-0.6849 -0.7286 0.7286 -0.6849 294.9262 501.8037)" class="st1" cx="256" cy="187.1" rx="2.1" ry="2.6"/>
				
					<ellipse id="XMLID_9864_" transform="matrix(-0.3905 -0.9206 0.9206 -0.3905 182.5542 504.9764)" class="st1" cx="258.4" cy="192.1" rx="2" ry="2.4"/>
			</g>
		</g>
		<g id="XMLID_9847_">
			<g id="XMLID_9855_">
				<path id="XMLID_9861_" class="st1" d="M27.4,242.3c2.3-1.8,2.8-5.4-2.1-8.7c-4.9-3.3-15.6,1.2-15.3,10.7s12.4,19.6,17.1,18.8
					c4.7-0.8,6.3-5.1,3.7-6.8c-2.6-1.8-7.8-3.9-7.9-7.8C22.8,244.7,25.9,243.6,27.4,242.3z"/>
				<ellipse id="XMLID_9860_" class="st1" cx="27" cy="228" rx="3.7" ry="4.2"/>
				
					<ellipse id="XMLID_9859_" transform="matrix(0.9995 -3.074045e-002 3.074045e-002 0.9995 -7.0043 0.6886)" class="st1" cx="18.9" cy="228.1" rx="2.4" ry="2.8"/>
				
					<ellipse id="XMLID_9858_" transform="matrix(0.9117 -0.4109 0.4109 0.9117 -93.5968 25.8864)" class="st1" cx="13.4" cy="230.7" rx="2.4" ry="2.8"/>
				
					<ellipse id="XMLID_9857_" transform="matrix(0.6849 -0.7286 0.7286 0.6849 -168.3691 80.9173)" class="st1" cx="9.4" cy="235.1" rx="2.1" ry="2.6"/>
				
					<ellipse id="XMLID_9856_" transform="matrix(0.3905 -0.9206 0.9206 0.3905 -216.7861 152.6626)" class="st1" cx="6.9" cy="240.1" rx="2" ry="2.4"/>
			</g>
			<g id="XMLID_9848_">
				<path id="XMLID_9854_" class="st1" d="M38.2,242.3c-2.3-1.8-2.8-5.4,2.1-8.7s15.6,1.2,15.3,10.7s-12.4,19.6-17.1,18.8
					c-4.7-0.8-6.3-5.1-3.7-6.8c2.6-1.8,7.8-3.9,7.9-7.8S39.7,243.6,38.2,242.3z"/>
				<ellipse id="XMLID_9853_" class="st1" cx="38.6" cy="228" rx="3.7" ry="4.2"/>
				
					<ellipse id="XMLID_9852_" transform="matrix(-0.9995 -3.073414e-002 3.073414e-002 -0.9995 86.3529 457.6129)" class="st1" cx="46.7" cy="228.1" rx="2.4" ry="2.8"/>
				
					<ellipse id="XMLID_9851_" transform="matrix(-0.9117 -0.4108 0.4108 -0.9117 4.9715 462.3931)" class="st1" cx="52.2" cy="230.7" rx="2.4" ry="2.8"/>
				
					<ellipse id="XMLID_9850_" transform="matrix(-0.6849 -0.7286 0.7286 -0.6849 -76.6098 437.1377)" class="st1" cx="56.2" cy="235.1" rx="2.1" ry="2.6"/>
				
					<ellipse id="XMLID_9849_" transform="matrix(-0.3905 -0.9206 0.9206 -0.3905 -139.3961 387.8366)" class="st1" cx="58.7" cy="240.1" rx="2" ry="2.4"/>
			</g>
		</g>
		<g id="XMLID_9832_">
			<g id="XMLID_9840_">
				<path id="XMLID_9846_" class="st1" d="M94,242.3c2.3-1.8,2.8-5.4-2.1-8.7s-15.6,1.2-15.3,10.7s12.4,19.6,17.1,18.8
					c4.7-0.8,6.3-5.1,3.7-6.8c-2.6-1.8-7.8-3.9-7.9-7.8S92.5,243.6,94,242.3z"/>
				<ellipse id="XMLID_9845_" class="st1" cx="93.6" cy="228" rx="3.7" ry="4.2"/>
				
					<ellipse id="XMLID_9844_" transform="matrix(0.9995 -3.073414e-002 3.073414e-002 0.9995 -6.9714 2.7349)" class="st1" cx="85.5" cy="228.1" rx="2.4" ry="2.8"/>
				
					<ellipse id="XMLID_9843_" transform="matrix(0.9117 -0.4109 0.4109 0.9117 -87.7159 53.2462)" class="st1" cx="80" cy="230.7" rx="2.4" ry="2.8"/>
				
					<ellipse id="XMLID_9842_" transform="matrix(0.685 -0.7285 0.7285 0.685 -147.3725 129.394)" class="st1" cx="76" cy="235.1" rx="2.1" ry="2.6"/>
				
					<ellipse id="XMLID_9841_" transform="matrix(0.3905 -0.9206 0.9206 0.3905 -176.2068 213.9581)" class="st1" cx="73.5" cy="240.1" rx="2" ry="2.4"/>
			</g>
			<g id="XMLID_9833_">
				<path id="XMLID_9839_" class="st1" d="M104.7,242.3c-2.3-1.8-2.8-5.4,2.1-8.7c4.9-3.3,15.6,1.2,15.3,10.7s-12.4,19.6-17.1,18.8
					c-4.7-0.8-6.3-5.1-3.7-6.8c2.6-1.8,7.8-3.9,7.9-7.8C109.4,244.7,106.3,243.6,104.7,242.3z"/>
				<ellipse id="XMLID_9838_" class="st1" cx="105.2" cy="228" rx="3.7" ry="4.2"/>
				
					<ellipse id="XMLID_9837_" transform="matrix(-0.9995 -3.074034e-002 3.074034e-002 -0.9995 219.486 459.66)" class="st1" cx="113.3" cy="228.1" rx="2.4" ry="2.8"/>
				
					<ellipse id="XMLID_9836_" transform="matrix(-0.9117 -0.4109 0.4109 -0.9117 132.237 489.7489)" class="st1" cx="118.8" cy="230.7" rx="2.4" ry="2.8"/>
				
					<ellipse id="XMLID_9835_" transform="matrix(-0.685 -0.7285 0.7285 -0.685 35.6195 485.6663)" class="st1" cx="122.8" cy="235.1" rx="2.1" ry="2.6"/>
				
					<ellipse id="XMLID_9834_" transform="matrix(-0.3905 -0.9206 0.9206 -0.3905 -46.8091 449.1317)" class="st1" cx="125.3" cy="240.1" rx="2" ry="2.4"/>
			</g>
		</g>
		<g id="XMLID_9817_">
			<g id="XMLID_9825_">
				<path id="XMLID_9831_" class="st1" d="M160.6,242.3c2.3-1.8,2.8-5.4-2.1-8.7c-4.9-3.3-15.6,1.2-15.3,10.7s12.4,19.6,17.1,18.8
					c4.7-0.8,6.3-5.1,3.7-6.8s-7.8-3.9-7.9-7.8C155.9,244.7,159,243.6,160.6,242.3z"/>
				<ellipse id="XMLID_9830_" class="st1" cx="160.2" cy="228" rx="3.7" ry="4.2"/>
				
					<ellipse id="XMLID_9829_" transform="matrix(0.9995 -3.073414e-002 3.073414e-002 0.9995 -6.9399 4.7812)" class="st1" cx="152.1" cy="228.1" rx="2.4" ry="2.8"/>
				
					<ellipse id="XMLID_9828_" transform="matrix(0.9117 -0.4109 0.4109 0.9117 -81.8349 80.6059)" class="st1" cx="146.6" cy="230.7" rx="2.4" ry="2.8"/>
				
					<ellipse id="XMLID_9827_" transform="matrix(0.6849 -0.7286 0.7286 0.6849 -126.4106 177.9452)" class="st1" cx="142.5" cy="235.1" rx="2.1" ry="2.6"/>
				
					<ellipse id="XMLID_9826_" transform="matrix(0.3905 -0.9206 0.9206 0.3905 -135.6275 275.2537)" class="st1" cx="140.1" cy="240.1" rx="2" ry="2.4"/>
			</g>
			<g id="XMLID_9818_">
				<path id="XMLID_9824_" class="st1" d="M171.3,242.3c-2.3-1.8-2.8-5.4,2.1-8.7c4.9-3.3,15.6,1.2,15.3,10.7s-12.4,19.6-17.1,18.8
					c-4.7-0.8-6.3-5.1-3.7-6.8s7.8-3.9,7.9-7.8C176,244.7,172.9,243.6,171.3,242.3z"/>
				<ellipse id="XMLID_9823_" class="st1" cx="171.8" cy="228" rx="3.7" ry="4.2"/>
				
					<ellipse id="XMLID_9822_" transform="matrix(-0.9995 -3.073414e-002 3.073414e-002 -0.9995 352.623 461.7057)" class="st1" cx="179.9" cy="228.1" rx="2.4" ry="2.8"/>
				
					<ellipse id="XMLID_9821_" transform="matrix(-0.9117 -0.4109 0.4109 -0.9117 259.523 517.1088)" class="st1" cx="185.3" cy="230.7" rx="2.4" ry="2.8"/>
				
					<ellipse id="XMLID_9820_" transform="matrix(-0.6849 -0.7286 0.7286 -0.6849 147.7648 534.1656)" class="st1" cx="189.4" cy="235.1" rx="2.1" ry="2.6"/>
				
					<ellipse id="XMLID_9819_" transform="matrix(-0.3905 -0.9206 0.9206 -0.3905 45.7786 510.4273)" class="st1" cx="191.8" cy="240.1" rx="2" ry="2.4"/>
			</g>
		</g>
		<g id="XMLID_9802_">
			<g id="XMLID_9810_">
				<path id="XMLID_9816_" class="st1" d="M227.2,242.3c2.3-1.8,2.8-5.4-2.1-8.7c-4.9-3.3-15.6,1.2-15.3,10.7s12.4,19.6,17.1,18.8
					c4.7-0.8,6.3-5.1,3.7-6.8c-2.6-1.8-7.8-3.9-7.9-7.8C222.5,244.7,225.6,243.6,227.2,242.3z"/>
				<ellipse id="XMLID_9815_" class="st1" cx="226.7" cy="228" rx="3.7" ry="4.2"/>
				
					<ellipse id="XMLID_9814_" transform="matrix(0.9995 -3.074045e-002 3.074045e-002 0.9995 -6.9099 6.8291)" class="st1" cx="218.6" cy="228.1" rx="2.4" ry="2.8"/>
				
					<ellipse id="XMLID_9813_" transform="matrix(0.9117 -0.4109 0.4109 0.9117 -75.9539 107.9661)" class="st1" cx="213.2" cy="230.7" rx="2.4" ry="2.8"/>
				
					<ellipse id="XMLID_9812_" transform="matrix(0.6849 -0.7286 0.7286 0.6849 -105.4313 226.4593)" class="st1" cx="209.1" cy="235.1" rx="2.1" ry="2.6"/>
				
					<ellipse id="XMLID_9811_" transform="matrix(0.3905 -0.9206 0.9206 0.3905 -95.0485 336.5488)" class="st1" cx="206.7" cy="240.1" rx="2" ry="2.4"/>
			</g>
			<g id="XMLID_9803_">
				<path id="XMLID_9809_" class="st1" d="M237.9,242.3c-2.3-1.8-2.8-5.4,2.1-8.7s15.6,1.2,15.3,10.7s-12.4,19.6-17.1,18.8
					c-4.7-0.8-6.3-5.1-3.7-6.8c2.6-1.8,7.8-3.9,7.9-7.8S239.5,243.6,237.9,242.3z"/>
				<ellipse id="XMLID_9808_" class="st1" cx="238.3" cy="228" rx="3.7" ry="4.2"/>
				
					<ellipse id="XMLID_9807_" transform="matrix(-0.9995 -3.073414e-002 3.073414e-002 -0.9995 485.7585 463.7521)" class="st1" cx="246.4" cy="228.1" rx="2.4" ry="2.8"/>
				
					<ellipse id="XMLID_9806_" transform="matrix(-0.9117 -0.4108 0.4108 -0.9117 386.8355 544.4574)" class="st1" cx="251.9" cy="230.7" rx="2.4" ry="2.8"/>
				
					<ellipse id="XMLID_9805_" transform="matrix(-0.6849 -0.7286 0.7286 -0.6849 259.9524 582.6797)" class="st1" cx="256" cy="235.1" rx="2.1" ry="2.6"/>
				
					<ellipse id="XMLID_9804_" transform="matrix(-0.3905 -0.9206 0.9206 -0.3905 138.3663 571.7228)" class="st1" cx="258.4" cy="240.1" rx="2" ry="2.4"/>
			</g>
		</g>
		<g id="XMLID_9787_">
			<g id="XMLID_9795_">
				<path id="XMLID_9801_" class="st1" d="M521.1,194.3c2.3-1.8,2.8-5.4-2.1-8.7s-15.6,1.2-15.3,10.7s12.4,19.6,17.1,18.8
					c4.7-0.8,6.3-5.1,3.7-6.8c-2.6-1.8-7.8-3.9-7.9-7.8S519.5,195.6,521.1,194.3z"/>
				<ellipse id="XMLID_9800_" class="st1" cx="520.7" cy="180" rx="3.7" ry="4.2"/>
				
					<ellipse id="XMLID_9799_" transform="matrix(0.9995 -3.074045e-002 3.074045e-002 0.9995 -5.2954 15.8414)" class="st1" cx="512.6" cy="180.1" rx="2.4" ry="2.8"/>
				
					<ellipse id="XMLID_9798_" transform="matrix(0.9117 -0.4109 0.4109 0.9117 -30.2704 224.4984)" class="st1" cx="507.1" cy="182.7" rx="2.4" ry="2.8"/>
				
					<ellipse id="XMLID_9797_" transform="matrix(0.685 -0.7285 0.7285 0.685 22.1096 425.4061)" class="st1" cx="503" cy="187.1" rx="2.1" ry="2.6"/>
				
					<ellipse id="XMLID_9796_" transform="matrix(0.3905 -0.9206 0.9206 0.3905 128.2646 577.8657)" class="st1" cx="500.6" cy="192.1" rx="2" ry="2.4"/>
			</g>
			<g id="XMLID_9788_">
				<path id="XMLID_9794_" class="st1" d="M531.8,194.3c-2.3-1.8-2.8-5.4,2.1-8.7c4.9-3.3,15.6,1.2,15.3,10.7s-12.4,19.6-17.1,18.8
					c-4.7-0.8-6.3-5.1-3.7-6.8c2.6-1.8,7.8-3.9,7.9-7.8C536.5,196.7,533.4,195.6,531.8,194.3z"/>
				<ellipse id="XMLID_9793_" class="st1" cx="532.3" cy="180" rx="3.7" ry="4.2"/>
				
					<ellipse id="XMLID_9792_" transform="matrix(-0.9995 -3.073414e-002 3.073414e-002 -0.9995 1074.9192 376.8079)" class="st1" cx="540.4" cy="180.1" rx="2.4" ry="2.8"/>
				
					<ellipse id="XMLID_9791_" transform="matrix(-0.9117 -0.4109 0.4109 -0.9117 968.3972 573.4803)" class="st1" cx="545.8" cy="182.7" rx="2.4" ry="2.8"/>
				
					<ellipse id="XMLID_9790_" transform="matrix(-0.685 -0.7285 0.7285 -0.685 790.2324 715.9147)" class="st1" cx="549.9" cy="187.1" rx="2.1" ry="2.6"/>
				
					<ellipse id="XMLID_9789_" transform="matrix(-0.3905 -0.9206 0.9206 -0.3905 591.2537 775.5466)" class="st1" cx="552.3" cy="192.1" rx="2" ry="2.4"/>
			</g>
		</g>
		<g id="XMLID_9772_">
			<g id="XMLID_9780_">
				<path id="XMLID_9786_" class="st1" d="M587.7,194.3c2.3-1.8,2.8-5.4-2.1-8.7c-4.9-3.3-15.6,1.2-15.3,10.7s12.4,19.6,17.1,18.8
					c4.7-0.8,6.3-5.1,3.7-6.8s-7.8-3.9-7.9-7.8C583,196.7,586.1,195.6,587.7,194.3z"/>
				<ellipse id="XMLID_9785_" class="st1" cx="587.2" cy="180" rx="3.7" ry="4.2"/>
				
					<ellipse id="XMLID_9784_" transform="matrix(0.9995 -3.073414e-002 3.073414e-002 0.9995 -5.2629 17.8845)" class="st1" cx="579.1" cy="180.1" rx="2.4" ry="2.8"/>
				
					<ellipse id="XMLID_9783_" transform="matrix(0.9117 -0.4109 0.4109 0.9117 -24.3895 251.8582)" class="st1" cx="573.7" cy="182.7" rx="2.4" ry="2.8"/>
				
					<ellipse id="XMLID_9782_" transform="matrix(0.6849 -0.7286 0.7286 0.6849 43.1284 473.9999)" class="st1" cx="569.6" cy="187.1" rx="2.1" ry="2.6"/>
				
					<ellipse id="XMLID_9781_" transform="matrix(0.3905 -0.9206 0.9206 0.3905 168.8436 639.1609)" class="st1" cx="567.2" cy="192.1" rx="2" ry="2.4"/>
			</g>
			<g id="XMLID_9773_">
				<path id="XMLID_9779_" class="st1" d="M598.4,194.3c-2.3-1.8-2.8-5.4,2.1-8.7c4.9-3.3,15.6,1.2,15.3,10.7s-12.4,19.6-17.1,18.8
					c-4.7-0.8-6.3-5.1-3.7-6.8s7.8-3.9,7.9-7.8C603.1,196.7,600,195.6,598.4,194.3z"/>
				<ellipse id="XMLID_9778_" class="st1" cx="598.8" cy="180" rx="3.7" ry="4.2"/>
				
					<ellipse id="XMLID_9777_" transform="matrix(-0.9995 -3.073414e-002 3.073414e-002 -0.9995 1208.0547 378.8543)" class="st1" cx="606.9" cy="180.1" rx="2.4" ry="2.8"/>
				
					<ellipse id="XMLID_9776_" transform="matrix(-0.9117 -0.4109 0.4109 -0.9117 1095.6833 600.8402)" class="st1" cx="612.4" cy="182.7" rx="2.4" ry="2.8"/>
				
					<ellipse id="XMLID_9775_" transform="matrix(-0.6849 -0.7286 0.7286 -0.6849 902.3315 764.4683)" class="st1" cx="616.5" cy="187.1" rx="2.1" ry="2.6"/>
				
					<ellipse id="XMLID_9774_" transform="matrix(-0.3905 -0.9206 0.9206 -0.3905 683.8413 836.8422)" class="st1" cx="618.9" cy="192.1" rx="2" ry="2.4"/>
			</g>
		</g>
		<g id="XMLID_9757_">
			<g id="XMLID_9765_">
				<path id="XMLID_9771_" class="st1" d="M654.3,194.3c2.3-1.8,2.8-5.4-2.1-8.7c-4.9-3.3-15.6,1.2-15.3,10.7s12.4,19.6,17.1,18.8
					c4.7-0.8,6.3-5.1,3.7-6.8c-2.6-1.8-7.8-3.9-7.9-7.8C649.6,196.7,652.7,195.6,654.3,194.3z"/>
				<ellipse id="XMLID_9770_" class="st1" cx="653.8" cy="180" rx="3.7" ry="4.2"/>
				
					<ellipse id="XMLID_9769_" transform="matrix(0.9995 -3.073414e-002 3.073414e-002 0.9995 -5.2315 19.9308)" class="st1" cx="645.7" cy="180.1" rx="2.4" ry="2.8"/>
				
					<ellipse id="XMLID_9768_" transform="matrix(0.9117 -0.4109 0.4109 0.9117 -18.5085 279.2181)" class="st1" cx="640.2" cy="182.7" rx="2.4" ry="2.8"/>
				
					<ellipse id="XMLID_9767_" transform="matrix(0.6849 -0.7286 0.7286 0.6849 64.1077 522.514)" class="st1" cx="636.2" cy="187.1" rx="2.1" ry="2.6"/>
				
					<ellipse id="XMLID_9766_" transform="matrix(0.3905 -0.9206 0.9206 0.3905 209.4229 700.4564)" class="st1" cx="633.7" cy="192.1" rx="2" ry="2.4"/>
			</g>
			<g id="XMLID_9758_">
				<path id="XMLID_9764_" class="st1" d="M665,194.3c-2.3-1.8-2.8-5.4,2.1-8.7s15.6,1.2,15.3,10.7s-12.4,19.6-17.1,18.8
					c-4.7-0.8-6.3-5.1-3.7-6.8c2.6-1.8,7.8-3.9,7.9-7.8S666.5,195.6,665,194.3z"/>
				<ellipse id="XMLID_9763_" class="st1" cx="665.4" cy="180" rx="3.7" ry="4.2"/>
				
					<ellipse id="XMLID_9762_" transform="matrix(-0.9995 -3.073414e-002 3.073414e-002 -0.9995 1341.1902 380.9007)" class="st1" cx="673.5" cy="180.1" rx="2.4" ry="2.8"/>
				
					<ellipse id="XMLID_9761_" transform="matrix(-0.9117 -0.4108 0.4108 -0.9117 1223.0068 628.1542)" class="st1" cx="679" cy="182.7" rx="2.4" ry="2.8"/>
				
					<ellipse id="XMLID_9760_" transform="matrix(-0.6849 -0.7286 0.7286 -0.6849 1014.5192 812.9824)" class="st1" cx="683" cy="187.1" rx="2.1" ry="2.6"/>
				
					<ellipse id="XMLID_9759_" transform="matrix(-0.3905 -0.9206 0.9206 -0.3905 776.4283 898.1372)" class="st1" cx="685.5" cy="192.1" rx="2" ry="2.4"/>
			</g>
		</g>
		<g id="XMLID_9742_">
			<g id="XMLID_9750_">
				<path id="XMLID_9756_" class="st1" d="M720.8,194.3c2.3-1.8,2.8-5.4-2.1-8.7s-15.6,1.2-15.3,10.7s12.4,19.6,17.1,18.8
					c4.7-0.8,6.3-5.1,3.7-6.8c-2.6-1.8-7.8-3.9-7.9-7.8S719.3,195.6,720.8,194.3z"/>
				<ellipse id="XMLID_9755_" class="st1" cx="720.4" cy="180" rx="3.7" ry="4.2"/>
				
					<ellipse id="XMLID_9754_" transform="matrix(0.9995 -3.074045e-002 3.074045e-002 0.9995 -5.201 21.9818)" class="st1" cx="712.3" cy="180.1" rx="2.4" ry="2.8"/>
				
					<ellipse id="XMLID_9753_" transform="matrix(0.9117 -0.4109 0.4109 0.9117 -12.6275 306.578)" class="st1" cx="706.8" cy="182.7" rx="2.4" ry="2.8"/>
				
					<ellipse id="XMLID_9752_" transform="matrix(0.685 -0.7285 0.7285 0.685 85.0232 570.9254)" class="st1" cx="702.8" cy="187.1" rx="2.1" ry="2.6"/>
				
					<ellipse id="XMLID_9751_" transform="matrix(0.3905 -0.9206 0.9206 0.3905 250.0022 761.752)" class="st1" cx="700.3" cy="192.1" rx="2" ry="2.4"/>
			</g>
			<g id="XMLID_9743_">
				<path id="XMLID_9749_" class="st1" d="M731.6,194.3c-2.3-1.8-2.8-5.4,2.1-8.7c4.9-3.3,15.6,1.2,15.3,10.7s-12.4,19.6-17.1,18.8
					c-4.7-0.8-6.3-5.1-3.7-6.8c2.6-1.8,7.8-3.9,7.9-7.8C736.2,196.7,733.1,195.6,731.6,194.3z"/>
				<ellipse id="XMLID_9748_" class="st1" cx="732" cy="180" rx="3.7" ry="4.2"/>
				
					<ellipse id="XMLID_9747_" transform="matrix(-0.9995 -3.073414e-002 3.073414e-002 -0.9995 1474.3247 382.9471)" class="st1" cx="740.1" cy="180.1" rx="2.4" ry="2.8"/>
				
					<ellipse id="XMLID_9746_" transform="matrix(-0.9117 -0.4109 0.4109 -0.9117 1350.2544 655.5599)" class="st1" cx="745.6" cy="182.7" rx="2.4" ry="2.8"/>
				
					<ellipse id="XMLID_9745_" transform="matrix(-0.685 -0.7285 0.7285 -0.685 1126.8187 861.434)" class="st1" cx="749.6" cy="187.1" rx="2.1" ry="2.6"/>
				
					<ellipse id="XMLID_9744_" transform="matrix(-0.3905 -0.9206 0.9206 -0.3905 869.016 959.4327)" class="st1" cx="752.1" cy="192.1" rx="2" ry="2.4"/>
			</g>
		</g>
		<g id="XMLID_9727_">
			<g id="XMLID_9735_">
				<path id="XMLID_9741_" class="st1" d="M521.1,242.3c2.3-1.8,2.8-5.4-2.1-8.7s-15.6,1.2-15.3,10.7s12.4,19.6,17.1,18.8
					c4.7-0.8,6.3-5.1,3.7-6.8c-2.6-1.8-7.8-3.9-7.9-7.8S519.5,243.6,521.1,242.3z"/>
				<ellipse id="XMLID_9740_" class="st1" cx="520.7" cy="228" rx="3.7" ry="4.2"/>
				
					<ellipse id="XMLID_9739_" transform="matrix(0.9995 -3.074045e-002 3.074045e-002 0.9995 -6.771 15.864)" class="st1" cx="512.6" cy="228.1" rx="2.4" ry="2.8"/>
				
					<ellipse id="XMLID_9738_" transform="matrix(0.9117 -0.4109 0.4109 0.9117 -49.9941 228.738)" class="st1" cx="507.1" cy="230.7" rx="2.4" ry="2.8"/>
				
					<ellipse id="XMLID_9737_" transform="matrix(0.685 -0.7285 0.7285 0.685 -12.8588 440.5242)" class="st1" cx="503" cy="235.1" rx="2.1" ry="2.6"/>
				
					<ellipse id="XMLID_9736_" transform="matrix(0.3905 -0.9206 0.9206 0.3905 84.0766 607.1194)" class="st1" cx="500.6" cy="240.1" rx="2" ry="2.4"/>
			</g>
			<g id="XMLID_9728_">
				<path id="XMLID_9734_" class="st1" d="M531.8,242.3c-2.3-1.8-2.8-5.4,2.1-8.7c4.9-3.3,15.6,1.2,15.3,10.7s-12.4,19.6-17.1,18.8
					c-4.7-0.8-6.3-5.1-3.7-6.8c2.6-1.8,7.8-3.9,7.9-7.8C536.5,244.7,533.4,243.6,531.8,242.3z"/>
				<ellipse id="XMLID_9733_" class="st1" cx="532.3" cy="228" rx="3.7" ry="4.2"/>
				
					<ellipse id="XMLID_9732_" transform="matrix(-0.9995 -3.073414e-002 3.073414e-002 -0.9995 1073.4438 472.7852)" class="st1" cx="540.4" cy="228.1" rx="2.4" ry="2.8"/>
				
					<ellipse id="XMLID_9731_" transform="matrix(-0.9117 -0.4109 0.4109 -0.9117 948.6735 665.2407)" class="st1" cx="545.8" cy="230.7" rx="2.4" ry="2.8"/>
				
					<ellipse id="XMLID_9730_" transform="matrix(-0.685 -0.7285 0.7285 -0.685 755.264 796.7965)" class="st1" cx="549.9" cy="235.1" rx="2.1" ry="2.6"/>
				
					<ellipse id="XMLID_9729_" transform="matrix(-0.3905 -0.9206 0.9206 -0.3905 547.0657 842.293)" class="st1" cx="552.3" cy="240.1" rx="2" ry="2.4"/>
			</g>
		</g>
		<g id="XMLID_9712_">
			<g id="XMLID_9720_">
				<path id="XMLID_9726_" class="st1" d="M587.7,242.3c2.3-1.8,2.8-5.4-2.1-8.7c-4.9-3.3-15.6,1.2-15.3,10.7s12.4,19.6,17.1,18.8
					c4.7-0.8,6.3-5.1,3.7-6.8s-7.8-3.9-7.9-7.8C583,244.7,586.1,243.6,587.7,242.3z"/>
				<ellipse id="XMLID_9725_" class="st1" cx="587.2" cy="228" rx="3.7" ry="4.2"/>
				
					<ellipse id="XMLID_9724_" transform="matrix(0.9995 -3.073414e-002 3.073414e-002 0.9995 -6.7382 17.9072)" class="st1" cx="579.1" cy="228.1" rx="2.4" ry="2.8"/>
				
					<ellipse id="XMLID_9723_" transform="matrix(0.9117 -0.4109 0.4109 0.9117 -44.1132 256.0977)" class="st1" cx="573.7" cy="230.7" rx="2.4" ry="2.8"/>
				
					<ellipse id="XMLID_9722_" transform="matrix(0.6849 -0.7286 0.7286 0.6849 8.1546 489.1239)" class="st1" cx="569.6" cy="235.1" rx="2.1" ry="2.6"/>
				
					<ellipse id="XMLID_9721_" transform="matrix(0.3905 -0.9206 0.9206 0.3905 124.6556 668.4145)" class="st1" cx="567.2" cy="240.1" rx="2" ry="2.4"/>
			</g>
			<g id="XMLID_9713_">
				<path id="XMLID_9719_" class="st1" d="M598.4,242.3c-2.3-1.8-2.8-5.4,2.1-8.7c4.9-3.3,15.6,1.2,15.3,10.7s-12.4,19.6-17.1,18.8
					c-4.7-0.8-6.3-5.1-3.7-6.8s7.8-3.9,7.9-7.8C603.1,244.7,600,243.6,598.4,242.3z"/>
				<ellipse id="XMLID_9718_" class="st1" cx="598.8" cy="228" rx="3.7" ry="4.2"/>
				
					<ellipse id="XMLID_9717_" transform="matrix(-0.9995 -3.073414e-002 3.073414e-002 -0.9995 1206.5793 474.8316)" class="st1" cx="606.9" cy="228.1" rx="2.4" ry="2.8"/>
				
					<ellipse id="XMLID_9716_" transform="matrix(-0.9117 -0.4109 0.4109 -0.9117 1075.9595 692.6006)" class="st1" cx="612.4" cy="230.7" rx="2.4" ry="2.8"/>
				
					<ellipse id="XMLID_9715_" transform="matrix(-0.6849 -0.7286 0.7286 -0.6849 867.3577 845.3444)" class="st1" cx="616.5" cy="235.1" rx="2.1" ry="2.6"/>
				
					<ellipse id="XMLID_9714_" transform="matrix(-0.3905 -0.9206 0.9206 -0.3905 639.6534 903.5885)" class="st1" cx="618.9" cy="240.1" rx="2" ry="2.4"/>
			</g>
		</g>
		<g id="XMLID_9697_">
			<g id="XMLID_9705_">
				<path id="XMLID_9711_" class="st1" d="M654.3,242.3c2.3-1.8,2.8-5.4-2.1-8.7c-4.9-3.3-15.6,1.2-15.3,10.7s12.4,19.6,17.1,18.8
					c4.7-0.8,6.3-5.1,3.7-6.8c-2.6-1.8-7.8-3.9-7.9-7.8C649.6,244.7,652.7,243.6,654.3,242.3z"/>
				<ellipse id="XMLID_9710_" class="st1" cx="653.8" cy="228" rx="3.7" ry="4.2"/>
				
					<ellipse id="XMLID_9709_" transform="matrix(0.9995 -3.073414e-002 3.073414e-002 0.9995 -6.7067 19.9535)" class="st1" cx="645.7" cy="228.1" rx="2.4" ry="2.8"/>
				
					<ellipse id="XMLID_9708_" transform="matrix(0.9117 -0.4109 0.4109 0.9117 -38.2322 283.4577)" class="st1" cx="640.2" cy="230.7" rx="2.4" ry="2.8"/>
				
					<ellipse id="XMLID_9707_" transform="matrix(0.6849 -0.7286 0.7286 0.6849 29.1339 537.638)" class="st1" cx="636.2" cy="235.1" rx="2.1" ry="2.6"/>
				
					<ellipse id="XMLID_9706_" transform="matrix(0.3905 -0.9206 0.9206 0.3905 165.235 729.71)" class="st1" cx="633.7" cy="240.1" rx="2" ry="2.4"/>
			</g>
			<g id="XMLID_9698_">
				<path id="XMLID_9704_" class="st1" d="M665,242.3c-2.3-1.8-2.8-5.4,2.1-8.7s15.6,1.2,15.3,10.7s-12.4,19.6-17.1,18.8
					c-4.7-0.8-6.3-5.1-3.7-6.8c2.6-1.8,7.8-3.9,7.9-7.8S666.5,243.6,665,242.3z"/>
				<ellipse id="XMLID_9703_" class="st1" cx="665.4" cy="228" rx="3.7" ry="4.2"/>
				
					<ellipse id="XMLID_9702_" transform="matrix(-0.9995 -3.073414e-002 3.073414e-002 -0.9995 1339.715 476.878)" class="st1" cx="673.5" cy="228.1" rx="2.4" ry="2.8"/>
				
					<ellipse id="XMLID_9701_" transform="matrix(-0.9117 -0.4108 0.4108 -0.9117 1203.2869 719.9163)" class="st1" cx="679" cy="230.7" rx="2.4" ry="2.8"/>
				
					<ellipse id="XMLID_9700_" transform="matrix(-0.6849 -0.7286 0.7286 -0.6849 979.5453 893.8585)" class="st1" cx="683" cy="235.1" rx="2.1" ry="2.6"/>
				
					<ellipse id="XMLID_9699_" transform="matrix(-0.3905 -0.9206 0.9206 -0.3905 732.2404 964.8836)" class="st1" cx="685.5" cy="240.1" rx="2" ry="2.4"/>
			</g>
		</g>
		<g id="XMLID_9682_">
			<g id="XMLID_9690_">
				<path id="XMLID_9696_" class="st1" d="M720.8,242.3c2.3-1.8,2.8-5.4-2.1-8.7s-15.6,1.2-15.3,10.7s12.4,19.6,17.1,18.8
					c4.7-0.8,6.3-5.1,3.7-6.8c-2.6-1.8-7.8-3.9-7.9-7.8S719.3,243.6,720.8,242.3z"/>
				<ellipse id="XMLID_9695_" class="st1" cx="720.4" cy="228" rx="3.7" ry="4.2"/>
				
					<ellipse id="XMLID_9694_" transform="matrix(0.9995 -3.074045e-002 3.074045e-002 0.9995 -6.6765 22.0045)" class="st1" cx="712.3" cy="228.1" rx="2.4" ry="2.8"/>
				
					<ellipse id="XMLID_9693_" transform="matrix(0.9117 -0.4109 0.4109 0.9117 -32.3513 310.8176)" class="st1" cx="706.8" cy="230.7" rx="2.4" ry="2.8"/>
				
					<ellipse id="XMLID_9692_" transform="matrix(0.685 -0.7285 0.7285 0.685 50.0548 586.0436)" class="st1" cx="702.8" cy="235.1" rx="2.1" ry="2.6"/>
				
					<ellipse id="XMLID_9691_" transform="matrix(0.3905 -0.9206 0.9206 0.3905 205.8143 791.0056)" class="st1" cx="700.3" cy="240.1" rx="2" ry="2.4"/>
			</g>
			<g id="XMLID_9683_">
				<path id="XMLID_9689_" class="st1" d="M731.6,242.3c-2.3-1.8-2.8-5.4,2.1-8.7c4.9-3.3,15.6,1.2,15.3,10.7s-12.4,19.6-17.1,18.8
					c-4.7-0.8-6.3-5.1-3.7-6.8c2.6-1.8,7.8-3.9,7.9-7.8C736.2,244.7,733.1,243.6,731.6,242.3z"/>
				<ellipse id="XMLID_9688_" class="st1" cx="732" cy="228" rx="3.7" ry="4.2"/>
				
					<ellipse id="XMLID_9687_" transform="matrix(-0.9995 -3.073414e-002 3.073414e-002 -0.9995 1472.8495 478.9244)" class="st1" cx="740.1" cy="228.1" rx="2.4" ry="2.8"/>
				
					<ellipse id="XMLID_9686_" transform="matrix(-0.9117 -0.4109 0.4109 -0.9117 1330.5305 747.3203)" class="st1" cx="745.6" cy="230.7" rx="2.4" ry="2.8"/>
				
					<ellipse id="XMLID_9685_" transform="matrix(-0.685 -0.7285 0.7285 -0.685 1091.8503 942.3158)" class="st1" cx="749.6" cy="235.1" rx="2.1" ry="2.6"/>
				
					<ellipse id="XMLID_9684_" transform="matrix(-0.3905 -0.9206 0.9206 -0.3905 824.8281 1026.1792)" class="st1" cx="752.1" cy="240.1" rx="2" ry="2.4"/>
			</g>
		</g>
	</g>
	<path id="XMLID_9680_" class="st30" d="M484.8,219.5c0-58.1-47.2-105.3-105.3-105.3s-105.3,47.2-105.3,105.3
		s47.2,105.3,105.3,105.3S484.8,277.6,484.8,219.5z"/>
	<g id="XMLID_7967_">
		<path id="XMLID_7968_" class="st1" d="M303.8,165.1h2l5.3,18.8h0.1l5.4-18.8h2.5l5.4,18.8h0.1l5.3-18.8h2l-6.2,21.2h-2.4
			l-5.4-18.9h-0.1l-5.4,18.9H310L303.8,165.1z"/>
		<path id="XMLID_7970_" class="st1" d="M334.9,165.1h13v1.8h-11v7.6h10.3v1.8h-10.3v8.3h11.5v1.8h-13.5V165.1z"/>
		<path id="XMLID_7972_" class="st1" d="M352.7,165.1h2v19.4h9.9v1.8h-11.9V165.1z"/>
		<path id="XMLID_7974_" class="st1" d="M385.2,183c-2,2.8-4.8,3.9-7.9,3.9c-6.5,0-11-4.7-11-11.2c0-6.5,4.5-11.2,11-11.2
			c2.9,0,5.5,1,7.3,3.3l-1.6,1.4c-1.3-2-3.6-2.9-5.7-2.9c-5.5,0-9,4.1-9,9.4c0,5.3,3.4,9.4,9,9.4c2.1,0,4.8-1,6.3-3.3L385.2,183z"/>
		<path id="XMLID_7976_" class="st1" d="M398.4,164.6c6.5,0,11,4.7,11,11.2c0,6.5-4.5,11.2-11,11.2c-6.5,0-11-4.7-11-11.2
			C387.4,169.3,391.9,164.6,398.4,164.6z M398.4,185.1c5.5,0,9-4.1,9-9.4c0-5.3-3.4-9.4-9-9.4s-9,4.1-9,9.4
			C389.4,181,392.8,185.1,398.4,185.1z"/>
		<path id="XMLID_7979_" class="st1" d="M413.6,165.1h3l7.7,17.8l7.7-17.8h2.8v21.2h-2v-18.7h-0.1l-8.1,18.7h-0.9l-8.2-18.7h-0.1
			v18.7h-2V165.1z"/>
		<path id="XMLID_7981_" class="st1" d="M440.5,165.1h13v1.8h-11v7.6h10.3v1.8h-10.3v8.3h11.5v1.8h-13.5V165.1z"/>
		<path id="XMLID_7983_" class="st1" d="M344.6,199.1h6.1c3.2,0,6.8,0.8,6.8,5.6c0,2.2-1.3,3.9-3.8,4.4v0.1c2.8,0.2,4.7,2.3,4.7,5.2
			c0,4.9-4.2,5.9-7.1,5.9h-6.8V199.1z M346.6,208.3h4.1c4.1,0,4.9-2.2,4.9-3.6c0-3-2.1-3.8-4.6-3.8h-4.4V208.3z M346.6,218.6h4.5
			c4.6,0,5.4-2.6,5.4-4.1c0-3.1-2.6-4.4-5.1-4.4h-4.8V218.6z"/>
		<path id="XMLID_7987_" class="st1" d="M370,199.1h2l8.9,21.2h-2.2l-2.3-5.6h-11.2l-2.4,5.6h-2.1L370,199.1z M371,201.3l-5,11.6
			h9.8L371,201.3z"/>
		<path id="XMLID_7990_" class="st1" d="M384.1,199.1h6.1c3.2,0,6.8,0.8,6.8,5.6c0,2.2-1.3,3.9-3.8,4.4v0.1c2.8,0.2,4.7,2.3,4.7,5.2
			c0,4.9-4.2,5.9-7.1,5.9h-6.8V199.1z M386.1,208.3h4.1c4.1,0,4.9-2.2,4.9-3.6c0-3-2.1-3.8-4.6-3.8h-4.4V208.3z M386.1,218.6h4.5
			c4.6,0,5.4-2.6,5.4-4.1c0-3.1-2.6-4.4-5.1-4.4h-4.8V218.6z"/>
		<path id="XMLID_7994_" class="st1" d="M407.7,211.2l-7.8-12.1h2.4l6.4,10.1l6.6-10.1h2.2l-7.8,12.1v9.1h-2V211.2z"/>
		<path id="XMLID_7996_" class="st15" d="M310.4,234.9h5.4V247h14.2v-12.1h5.4v30.4h-5.4v-13.4h-14.2v13.4h-5.4V234.9z"/>
		<path id="XMLID_7998_" class="st15" d="M342.3,234.9h20.2v4.9h-14.7v7.5h14v4.9h-14v8.3h15.5v4.9h-20.9V234.9z"/>
		<path id="XMLID_8000_" class="st15" d="M368.6,234.9h7.2l14.7,22.6h0.1v-22.6h5.4v30.4h-6.9l-15-23.3H374v23.3h-5.4V234.9z"/>
		<path id="XMLID_8002_" class="st15" d="M402.8,234.9h10.6c5.8,0,11.4,1.9,11.4,8.7c0,4.4-2.5,7.6-7.1,8.3l8.1,13.5h-6.5l-7.1-12.9
			h-4v12.9h-5.4V234.9z M412.4,247.8c3.1,0,6.6-0.3,6.6-4.2c0-3.6-3.4-4-6.1-4h-4.7v8.3H412.4z"/>
		<path id="XMLID_8005_" class="st15" d="M435.7,252.3l-11.4-17.4h6.8l7.5,12.1l7.6-12.1h6.4l-11.4,17.4v13h-5.4V252.3z"/>
		<path id="XMLID_8007_" class="st1" d="M354,279.7h-8.8l-0.1,6.7c0.9-0.5,2.1-0.6,3.1-0.6c4,0,6.6,3.2,6.6,7c0,4.6-3.7,6.8-6.8,6.8
			s-5.2-1.4-6.4-3.6l1.9-0.9c0.7,1.6,2.6,2.9,4.5,2.9c1.9,0,4.8-1.7,4.8-5.1c0-3.1-2.3-5.5-5.3-5.5c-1.5,0-3,0.6-4.2,1.4l0.2-10.8
			H354V279.7z"/>
		<path id="XMLID_8009_" class="st1" d="M360,296.7c0.8,0,1.4,0.6,1.4,1.4c0,0.8-0.6,1.4-1.4,1.4s-1.4-0.6-1.4-1.4
			C358.6,297.3,359.2,296.7,360,296.7z"/>
		<path id="XMLID_8011_" class="st1" d="M368.9,287.5L368.9,287.5c0.8-0.6,2.2-0.9,3.2-0.9c3.8,0,6.5,2.9,6.5,6.5
			c0,3.8-2.9,6.6-7,6.6c-4,0-7-2.8-7-6.6c0-2.2,1.1-4,1.9-5.4l5.8-9.6h2.3L368.9,287.5z M366.7,293.1c0,2.9,2,5,5,5s5-2,5-5
			c0-2.8-2.2-5-5-5S366.7,290.4,366.7,293.1z"/>
		<path id="XMLID_8014_" class="st1" d="M383.4,296.7c0.8,0,1.4,0.6,1.4,1.4c0,0.8-0.6,1.4-1.4,1.4c-0.8,0-1.4-0.6-1.4-1.4
			C382,297.3,382.6,296.7,383.4,296.7z"/>
		<path id="XMLID_8016_" class="st1" d="M395.1,280.6L395.1,280.6l-3.9,3.1l-1.1-1.4l5.3-4.3h1.5v21.2h-1.8V280.6z"/>
		<path id="XMLID_8018_" class="st1" d="M416.2,279.7l-8.5,19.6h-2l8.6-19.6h-10.2v-1.6h12.1V279.7z"/>
	</g>
</g>
</svg>
