<?xml version="1.0" encoding="utf-8"?>
<!-- Generator: Adobe Illustrator 16.0.0, SVG Export Plug-In . SVG Version: 6.00 Build 0)  -->
<!DOCTYPE svg PUBLIC "-//W3C//DTD SVG 1.1//EN" "http://www.w3.org/Graphics/SVG/1.1/DTD/svg11.dtd">
<svg version="1.1" id="Layer_2" xmlns="http://www.w3.org/2000/svg" xmlns:xlink="http://www.w3.org/1999/xlink" x="0px" y="0px"
	 width="759px" height="439px" viewBox="0 0 759 439" style="enable-background:new 0 0 759 439;" xml:space="preserve">
<style type="text/css">
<![CDATA[
	.st0{fill:#4659A7;}
	.st1{fill:#7DA0D4;}
	.st2{fill:#7F5E26;}
	.st3{fill:#151943;}
	.st4{fill:#171719;}
	.st5{fill:#172919;}
	.st6{fill:#18331B;}
	.st7{fill:#E72834;}
	.st8{fill:#E7E9E9;}
	.st9{fill:#E8EAEA;}
	.st10{fill-rule:evenodd;clip-rule:evenodd;fill:none;stroke:#E4C54B;stroke-width:1.7463;stroke-miterlimit:10;}
	.st11{fill:#EAE71E;}
	.st12{fill:#EB185B;}
	.st13{fill:#EC2127;}
	.st14{fill:#503C2C;}
	.st15{fill:#507FC1;}
	.st16{fill:#542D8B;}
	.st17{fill:#8C6828;}
	.st18{fill:#BF2327;}
	.st19{fill:#231F20;}
	.st20{fill:#F7F3A3;}
	.st21{fill-rule:evenodd;clip-rule:evenodd;fill:none;stroke:#E4C54B;stroke-width:2.6195;stroke-miterlimit:10;}
	.st22{fill:#C2922E;}
	.st23{fill:#C597C5;}
	.st24{fill:#966828;}
	.st25{fill:#2B378B;}
	.st26{fill:#FAA532;}
	.st27{fill:#FBCA28;}
	.st28{fill:#FBCD36;}
	.st29{fill-rule:evenodd;clip-rule:evenodd;}
	.st30{fill:#FFFFFF;}
	.st31{fill-rule:evenodd;clip-rule:evenodd;fill:#F0CEE3;}
	.st32{fill:#FFFFFF;stroke:#7DA0D4;stroke-miterlimit:10;}
	.st33{fill:none;}
	.st34{fill:#231F20;stroke:#231F20;stroke-width:0.5;stroke-miterlimit:10;}
	.st35{fill:#679B9B;}
	.st36{fill:#9B732B;}
	.st37{fill:#CB7361;}
	.st38{fill:#CC2228;}
	.st39{fill:#311C10;}
	.st40{fill:#EC2127;stroke:#EC2127;stroke-width:0.5;stroke-miterlimit:10;}
	.st41{fill:#381414;}
	.st42{fill-rule:evenodd;clip-rule:evenodd;fill:#FBCDCD;}
	.st43{fill:#010101;}
	.st44{fill-rule:evenodd;clip-rule:evenodd;fill:#FFFFFF;}
	.st45{fill:#FFFFFF;stroke:#FFFFFF;stroke-miterlimit:10;}
	.st46{fill-rule:evenodd;clip-rule:evenodd;fill:#641E0F;}
	.st47{fill:#D3D3D3;}
	.st48{fill:#060707;}
	.st49{fill:#080908;}
	.st50{fill:#721212;}
	.st51{fill:#0E8141;}
	.st52{fill:#424143;}
	.st53{fill:#4259A8;}
]]>
</style>
<g id="XMLID_273_">
	<path id="XMLID_276_" d="M0,117.7v215h759v-215H0z M442.5,144.5l-13.3,28.8l-1.5-0.6l-48.2,96.5L365,285v36.4h-2v-37.1l15.5-17
		l-47.3-94.6l-1.5,0.6l-13.3-28.8l0.3-0.5l-12.6-25.1h75.2h75.2l-12.6,25.1L442.5,144.5z"/>
	<path id="XMLID_279_" class="st30" d="M379.5,163c-8.3,5-14.2-3.3-14.2-3.3l-34,12.9l47.3,94.6l-15.5,17v37.1h2V285l14.5-15.8
		l48.2-96.5l-34-12.9C393.7,159.7,387.8,168,379.5,163z M379.5,235.3c-3.2,0-5.9-2.6-5.9-5.9c0-3.2,2.6-5.9,5.9-5.9s5.9,2.6,5.9,5.9
		C385.4,232.7,382.7,235.3,379.5,235.3z M379.5,212.1c-3.2,0-5.9-2.6-5.9-5.9c0-3.2,2.6-5.9,5.9-5.9s5.9,2.6,5.9,5.9
		C385.4,209.4,382.7,212.1,379.5,212.1z M379.5,188.8c-3.2,0-5.9-2.6-5.9-5.9c0-3.2,2.6-5.9,5.9-5.9s5.9,2.6,5.9,5.9
		C385.4,186.2,382.7,188.8,379.5,188.8z"/>
	<path id="XMLID_283_" class="st30" d="M379.5,118.8h-75.2l12.6,25.1l12.2-19c0,0,15,5.5,37.5,13.8c5.9-6,12-3.3,13-2.5
		c0.9-0.8,7.1-3.5,13,2.5C415,130.5,430,125,430,125l12.2,19l12.6-25.1H379.5z"/>
	<circle id="XMLID_284_" cx="379.5" cy="182.9" r="5.9"/>
	<circle id="XMLID_285_" cx="379.5" cy="206.2" r="5.9"/>
	<circle id="XMLID_286_" cx="379.5" cy="229.4" r="5.9"/>
	<path id="XMLID_287_" d="M392.5,138.7c-5.9-6-12-3.3-13-2.5c-0.9-0.8-7.1-3.5-13,2.5C344,130.5,329,125,329,125l-12.2,19l-0.3,0.5
		l13.3,28.8l1.5-0.6l34-12.9c0,0,5.9,8.3,14.2,3.3c8.3,5,14.2-3.3,14.2-3.3l34,12.9l1.5,0.6l13.3-28.8l-0.3-0.5L430,125
		C430,125,415,130.5,392.5,138.7z"/>
</g>
<path id="XMLID_193_" class="st30" d="M454.7,194L376,278.2c0,0,16.3-9.8,31.8-28S454.7,194,454.7,194z"/>
<polygon id="XMLID_196_" class="st30" points="314,197.5 374.5,265 371.3,269.2 "/>
<g id="XMLID_124_">
	<path id="XMLID_125_" class="st30" d="M256.8,319.8c-0.5,0-2.7,0-6.5-0.1l-4,0l-2.3,0c-0.6,0-0.9,0-1-0.1s-0.2-0.2-0.2-0.4
		c0-0.3,0.3-0.5,0.8-0.5c1,0,1.7-0.2,2.2-0.5c0.5-0.3,0.7-1,0.9-1.9c0.1-0.9,0.2-2.7,0.3-5.4c0.1-2.7,0.2-5.2,0.2-7.4
		c0-3.2-0.2-5.2-0.5-5.9c-0.3-0.7-1.1-1.1-2.3-1.2c-0.4,0-0.7-0.2-0.7-0.5s0.2-0.5,0.6-0.5c0.2,0,1,0.1,2.3,0.2
		c1.5,0.1,2.5,0.2,3.1,0.2l6.8-0.1c2.3,0,4.5,0.4,6.6,1.3c2.1,0.9,3.8,2.3,5,4.3c1.2,2,1.9,4.2,1.9,6.7c0,1.9-0.4,3.6-1.1,5.2
		c-0.7,1.6-1.8,3-3.2,4.1c-1.4,1.1-2.8,1.8-4.1,2.2C260.3,319.6,258.7,319.8,256.8,319.8z M255.6,318.5c2.5,0,4.5-0.9,6-2.7
		c1.5-1.8,2.2-4.3,2.2-7.6c0-3.3-0.8-6.1-2.4-8.3c-1.6-2.2-3.8-3.2-6.7-3.2c-1,0-1.6,0.1-1.8,0.2c-0.2,0.1-0.3,0.2-0.4,0.4
		c0,0.1-0.1,1.5-0.2,4l-0.2,6.1c0,1.5-0.1,3.4-0.1,5.6c0,1.7,0.1,2.8,0.2,3.5s0.5,1.1,1,1.5C253.7,318.3,254.5,318.5,255.6,318.5z"
		/>
	<path id="XMLID_128_" class="st30" d="M271.3,298.5l5.1,0.2c0.5,0,1,0,1.7-0.1c1-0.1,1.8-0.1,2.3-0.1c0.5,0,0.8,0.1,0.8,0.4
		c0,0.3-0.2,0.4-0.6,0.5c-0.8,0-1.3,0.3-1.7,0.8c-0.4,0.5-0.6,1.5-0.7,3.1s-0.2,3.2-0.2,5.1c0,3,0.1,5,0.4,6c0.3,1,0.9,1.8,1.8,2.4
		c0.9,0.6,2.2,0.9,3.7,0.9c1.6,0,2.7-0.3,3.5-1c0.8-0.7,1.3-1.7,1.6-3.1c0.3-1.4,0.4-4.1,0.4-7.9c0-2.3-0.2-3.9-0.5-4.7
		c-0.4-0.9-1-1.3-1.8-1.4c-0.6-0.1-0.9-0.2-0.9-0.6c0-0.3,0.3-0.5,0.8-0.5c0.2,0,0.6,0,1.2,0.1c0.6,0,1.2,0.1,1.8,0.1
		c0.6,0,1.2,0,2-0.1c0.5,0,0.9-0.1,1.1-0.1c0.5,0,0.8,0.2,0.8,0.5c0,0.2-0.2,0.4-0.6,0.4c-0.5,0.1-1,0.3-1.4,0.7
		c-0.4,0.4-0.7,1.2-0.8,2.2c-0.1,1-0.2,3.6-0.2,7.7c0,2.7-0.3,4.7-0.8,5.9c-0.5,1.2-1.5,2.2-2.9,2.8c-1.4,0.7-3,1-5.1,1
		c-1.6,0-2.9-0.1-4.1-0.4c-1.2-0.3-2.1-0.7-2.7-1.3c-0.7-0.6-1.2-1.2-1.5-2c-0.3-0.8-0.4-1.9-0.4-3.3l0.1-8.4c0-1.2-0.1-2.1-0.2-2.9
		c-0.1-0.8-0.3-1.3-0.6-1.5c-0.3-0.2-0.7-0.4-1.3-0.5c-0.4,0-0.6-0.1-0.7-0.2c-0.1-0.1-0.1-0.2-0.1-0.3
		C270.7,298.7,270.9,298.5,271.3,298.5z"/>
	<path id="XMLID_130_" class="st30" d="M305.3,319.8c-0.5,0-2.4,0-5.7-0.1l-3.5,0l-2,0c-0.5,0-0.8,0-0.9-0.1
		c-0.1-0.1-0.2-0.2-0.2-0.4c0-0.3,0.2-0.5,0.7-0.5c0.9,0,1.5-0.1,1.9-0.4c0.4-0.3,0.6-0.8,0.8-1.6c0.1-0.8,0.2-2.4,0.3-4.7
		c0.1-2.4,0.1-4.5,0.1-6.5c0-2.8-0.1-4.5-0.4-5.1c-0.3-0.6-0.9-1-2-1c-0.4,0-0.6-0.2-0.6-0.5s0.2-0.4,0.5-0.4c0.2,0,0.9,0.1,2,0.2
		c1.3,0.1,2.2,0.2,2.7,0.2l6-0.1c2,0,3.9,0.4,5.8,1.1c1.8,0.8,3.3,2,4.4,3.7s1.6,3.7,1.6,5.9c0,1.6-0.3,3.1-1,4.5
		c-0.6,1.4-1.6,2.6-2.8,3.5c-1.2,1-2.4,1.6-3.6,1.9C308.3,319.6,306.9,319.8,305.3,319.8z M304.2,318.6c2.2,0,3.9-0.8,5.2-2.3
		c1.3-1.5,1.9-3.7,1.9-6.6c0-2.9-0.7-5.3-2.1-7.2c-1.4-1.9-3.3-2.8-5.9-2.8c-0.9,0-1.4,0-1.6,0.1c-0.2,0.1-0.3,0.2-0.3,0.3
		c0,0.1-0.1,1.3-0.2,3.5l-0.2,5.3c0,1.3,0,2.9,0,4.9c0,1.5,0.1,2.5,0.2,3c0.1,0.6,0.4,1,0.8,1.3
		C302.6,318.5,303.3,318.6,304.2,318.6z"/>
	<path id="XMLID_133_" class="st30" d="M334.9,298.8c0.3,1.6,0.7,3.3,1,4.9c0,0.3-0.2,0.5-0.5,0.5c-0.2,0-0.4-0.1-0.6-0.4
		c-1.1-1.6-2.1-2.6-3-3.1c-0.9-0.5-2.2-0.8-3.9-0.8c-0.9,0-1.9,0.1-2.7,0.2c-0.2,1.9-0.3,3.9-0.3,6.1c0,0.4,0,1,0,1.9l1.2,0
		c0.7,0,1.4-0.1,1.9-0.3c0.5-0.2,1-0.6,1.4-1.3c0.4-0.7,0.6-1.1,0.6-1.3c0.1-0.3,0.3-0.5,0.5-0.5c0.3,0,0.4,0.1,0.4,0.4
		c0,0.1,0,0.2,0,0.3c-0.1,0.6-0.2,2.6-0.2,5.8c0,0.5,0,0.9,0.1,1.2c0,0.1,0,0.2,0,0.3c0,0.3-0.2,0.4-0.5,0.4c-0.2,0-0.4-0.3-0.5-0.8
		c-0.2-1-0.7-1.7-1.4-2.2c-0.7-0.5-1.9-0.8-3.5-0.8c-0.1,1.8-0.1,2.9-0.1,3.5c0,2.4,0,3.8,0.1,4.3c0.1,0.5,0.3,0.8,0.8,1.1
		s1.2,0.4,2.3,0.4c4,0,6.6-1.3,7.9-3.8c0.2-0.4,0.4-0.5,0.6-0.5c0.3,0,0.5,0.1,0.5,0.4c0,0.2,0,0.4-0.1,0.6l-1,4.5l-5.7,0
		c-1.6,0-3.1,0-4.5-0.1c-1.4-0.1-2.5-0.1-3.3-0.1c-0.9,0-2.2,0.1-4,0.2c-0.2,0-0.4,0-0.5,0c-0.5,0-0.7-0.2-0.7-0.5
		c0-0.3,0.2-0.4,0.6-0.4c1,0,1.7-0.3,2.1-0.8c0.4-0.6,0.5-1.7,0.5-3.4l0.1-8.1c0-2.8,0-4.5-0.1-5.1c-0.1-0.6-0.2-1.1-0.5-1.3
		c-0.3-0.2-0.8-0.4-1.7-0.5c-0.3,0-0.5-0.2-0.5-0.4c0-0.3,0.2-0.5,0.6-0.5l3.8,0.1L334.9,298.8z"/>
	<path id="XMLID_135_" class="st30" d="M346.2,317.8c0,1.2-0.4,2.4-1.3,3.8s-2,2.5-3.3,3.3c-1.3,0.9-2.3,1.3-2.7,1.3
		c-0.3,0-0.5-0.2-0.5-0.6c0-0.2,0.2-0.4,0.5-0.6c1.3-0.9,2.2-1.8,2.8-2.7c0.6-0.9,0.8-1.7,0.8-2.2c0-0.4-0.3-0.7-1-0.9
		c-1.8-0.4-2.7-1.3-2.7-2.7c0-0.8,0.3-1.5,1-2c0.7-0.5,1.4-0.8,2.3-0.8c1.3,0,2.3,0.4,3,1.3C345.8,315.8,346.2,316.8,346.2,317.8z"
		/>
	<path id="XMLID_137_" class="st30" d="M402.9,306.5c2.5,0.5,4.4,1.3,5.6,2.4c1.2,1.1,1.9,2.5,1.9,4.1c0,1.4-0.5,2.6-1.4,3.7
		c-0.9,1.1-2,1.9-3.3,2.2c-1.3,0.4-3.2,0.6-5.8,0.6c-0.6,0-1.6,0-2.9-0.1c-1.1-0.1-1.9-0.1-2.5-0.1c-0.8,0-1.9,0.1-3.3,0.2
		c-0.6,0-1,0.1-1.2,0.1c-0.5,0-0.7-0.2-0.7-0.5c0-0.3,0.2-0.4,0.6-0.5c0.8-0.1,1.3-0.2,1.7-0.4c0.3-0.2,0.6-0.4,0.8-0.8
		c0.2-0.4,0.3-1,0.3-1.9l0.1-8.4c0-2.6,0-4.7-0.1-6.3c-0.1-1.6-0.2-2.6-0.3-3c-0.2-0.5-0.4-0.8-0.6-1c-0.3-0.2-0.7-0.3-1.2-0.3
		c-0.5,0-0.8-0.1-0.9-0.2c-0.1-0.1-0.2-0.2-0.2-0.4c0-0.3,0.1-0.4,0.4-0.5c0.3-0.1,1.1-0.1,2.4-0.1c2.4,0,4.7-0.1,6.8-0.3
		c1.2-0.1,2.2-0.1,3-0.1c2.2,0,4,0.5,5.3,1.5c1.3,1,2,2.3,2,3.9C409.2,303.2,407.1,305.3,402.9,306.5z M397.9,306.2
		c4.1,0,6.2-1.8,6.2-5.3c0-1.6-0.4-2.7-1.1-3.5c-0.7-0.8-1.6-1.2-2.6-1.2c-0.7,0-1.5,0.2-2.5,0.5c-0.1,1.2-0.1,2.5-0.1,3.8
		C397.7,301.6,397.8,303.5,397.9,306.2z M397.9,307.6c-0.1,2.5-0.1,4.7-0.1,6.3c0,2.2,0.1,3.5,0.3,3.8c0.2,0.3,0.8,0.5,1.7,0.5
		c1.7,0,3-0.5,3.9-1.4c0.9-0.9,1.3-2.2,1.3-3.8c0-1.6-0.4-3-1.3-4c-0.9-1-2.2-1.6-4.1-1.6C399.1,307.5,398.6,307.6,397.9,307.6z"/>
	<path id="XMLID_141_" class="st30" d="M428.7,298.8c0.3,1.6,0.7,3.3,1,4.9c0,0.3-0.2,0.5-0.5,0.5c-0.2,0-0.4-0.1-0.6-0.4
		c-1.1-1.6-2.1-2.6-3-3.1c-0.9-0.5-2.2-0.8-3.9-0.8c-0.9,0-1.9,0.1-2.7,0.2c-0.2,1.9-0.3,3.9-0.3,6.1c0,0.4,0,1,0,1.9l1.2,0
		c0.7,0,1.4-0.1,1.9-0.3c0.5-0.2,1-0.6,1.4-1.3c0.4-0.7,0.6-1.1,0.6-1.3c0.1-0.3,0.3-0.5,0.5-0.5c0.3,0,0.4,0.1,0.4,0.4
		c0,0.1,0,0.2,0,0.3c-0.1,0.6-0.2,2.6-0.2,5.8c0,0.5,0,0.9,0.1,1.2c0,0.1,0,0.2,0,0.3c0,0.3-0.2,0.4-0.5,0.4c-0.2,0-0.4-0.3-0.5-0.8
		c-0.2-1-0.7-1.7-1.4-2.2c-0.7-0.5-1.9-0.8-3.5-0.8c-0.1,1.8-0.1,2.9-0.1,3.5c0,2.4,0,3.8,0.1,4.3c0.1,0.5,0.3,0.8,0.8,1.1
		c0.5,0.3,1.2,0.4,2.3,0.4c4,0,6.6-1.3,7.9-3.8c0.2-0.4,0.4-0.5,0.6-0.5c0.3,0,0.5,0.1,0.5,0.4c0,0.2,0,0.4-0.1,0.6l-1,4.5l-5.7,0
		c-1.6,0-3.1,0-4.5-0.1c-1.4-0.1-2.5-0.1-3.3-0.1c-0.9,0-2.2,0.1-4,0.2c-0.2,0-0.4,0-0.5,0c-0.5,0-0.7-0.2-0.7-0.5
		c0-0.3,0.2-0.4,0.6-0.4c1,0,1.7-0.3,2.1-0.8c0.4-0.6,0.5-1.7,0.5-3.4l0.1-8.1c0-2.8,0-4.5-0.1-5.1c-0.1-0.6-0.2-1.1-0.5-1.3
		c-0.3-0.2-0.8-0.4-1.7-0.5c-0.3,0-0.5-0.2-0.5-0.4c0-0.3,0.2-0.5,0.6-0.5l3.8,0.1L428.7,298.8z"/>
	<path id="XMLID_143_" class="st30" d="M447.5,295.7c0.3,0.7,0.9,1.9,1.7,3.5c0.8,1.6,1.7,3.3,2.5,4.9c0.8,1.7,1.8,3.4,2.8,5.3
		c0.8,1.5,1.3,2.3,1.4,2.6c3-6.8,5.3-12.2,6.9-16.3c2.9,0,5.6-0.1,8-0.2c0.2,0,0.4,0,0.5,0c0.5,0,0.7,0.2,0.7,0.6
		c0,0.3-0.2,0.5-0.6,0.5c-1.4,0-2.3,0.5-2.7,1.4c-0.4,0.9-0.6,3.2-0.6,6.8l0,8.9c0,1.8,0.2,3.1,0.7,3.8c0.5,0.7,1.2,1.1,2.3,1.1
		c0.5,0,0.8,0.2,0.8,0.5c0,0.2-0.1,0.3-0.3,0.5l-5.1,0c-1.6,0-3.7,0.1-6.4,0.2c-0.2-0.2-0.3-0.3-0.3-0.5c0-0.3,0.3-0.5,0.9-0.6
		c0.6-0.1,1.1-0.3,1.4-0.5s0.5-0.6,0.6-1.1c0.1-0.6,0.2-1.4,0.2-2.4l0.1-8.1c0-4.1,0-6.5,0-7.1c-3.3,7.6-5.3,12.5-6.1,14.6l-1.8,4.9
		c-0.2,0.5-0.4,0.8-0.6,0.8c-0.2,0-0.5-0.3-0.8-1c-0.9-1.9-4-8-9.4-18.4c-0.1,3-0.1,7-0.1,12.1c0,2.7,0.2,4.4,0.5,5.1
		c0.3,0.7,1.1,1.1,2.5,1.2c0.5,0,0.7,0.2,0.7,0.5c0,0.3-0.2,0.5-0.6,0.5c-0.1,0-0.3,0-0.4,0c-1.4-0.1-2.5-0.2-3.1-0.2
		c-1.7,0-3,0.1-3.9,0.2c-0.2,0-0.3,0-0.4,0c-0.4,0-0.6-0.2-0.6-0.5c0-0.2,0.1-0.3,0.2-0.4c0.1-0.1,0.4-0.1,0.8-0.2
		c1.2-0.2,1.9-0.6,2.3-1.2c0.4-0.6,0.5-1.6,0.5-3l0.1-10.3c0-2.4-0.1-3.9-0.2-4.7c-0.1-0.8-0.4-1.3-0.9-1.8
		c-0.5-0.4-1.2-0.7-2.3-0.9c-0.4-0.1-0.6-0.3-0.6-0.6c0-0.3,0.2-0.5,0.7-0.5c0.1,0,0.2,0,0.4,0C441.1,295.6,443.6,295.7,447.5,295.7
		z"/>
	<path id="XMLID_145_" class="st30" d="M484.2,307.9c2.9-3.8,4.4-6.1,4.4-7c0-0.2-0.1-0.5-0.2-0.7c-0.2-0.3-0.6-0.5-1.4-0.7
		c-0.3-0.1-0.5-0.2-0.5-0.4c0-0.3,0.2-0.5,0.6-0.5c0.1,0,0.2,0,0.4,0c1.3,0.1,2.4,0.2,3.1,0.2c0.8,0,1.7-0.1,2.7-0.2
		c0.2,0,0.4,0,0.5,0c0.3,0,0.5,0.1,0.5,0.4c0,0.3-0.2,0.4-0.5,0.4c-0.7,0.1-1.3,0.3-1.9,0.7s-1.3,1.1-2.2,2.2s-1.8,2.4-2.8,3.9
		c-1,1.5-1.6,2.4-1.7,2.8c-0.1,0.3-0.2,1.5-0.2,3.4c0,3,0.1,4.7,0.4,5.3c0.3,0.6,0.9,0.9,2,0.9c0.4,0,0.6,0.2,0.6,0.5
		c0,0.3-0.2,0.5-0.6,0.5c-0.3,0-1.2,0-2.6-0.1c-0.8-0.1-1.4-0.1-1.7-0.1c-1.1,0-2.4,0.1-3.9,0.2c-0.3,0-0.5,0-0.6,0
		c-0.4,0-0.6-0.2-0.6-0.5c0-0.3,0.2-0.4,0.5-0.4c1-0.1,1.7-0.5,1.9-1c0.3-0.6,0.4-1.8,0.4-3.7c0-1.7-0.1-2.9-0.3-3.4
		c-0.2-0.6-0.8-1.6-1.7-3.2c-1-1.5-1.9-3-2.9-4.4c-0.9-1.4-1.7-2.3-2.2-2.7s-1.1-0.6-1.6-0.8c-0.3-0.1-0.4-0.2-0.4-0.4
		c0-0.3,0.2-0.5,0.6-0.5c0.2,0,0.4,0,0.8,0c1.6,0.1,2.8,0.2,3.6,0.2c1.2,0,2.5-0.1,4-0.2c0.3,0,0.6,0,0.8,0c0.4,0,0.5,0.1,0.5,0.4
		c0,0.3-0.2,0.4-0.6,0.5c-1.1,0.1-1.6,0.5-1.6,1.1C479.5,301.2,481.1,303.7,484.2,307.9z"/>
	<path id="XMLID_147_" class="st30" d="M526.5,297.4l0.5,5.2c0,0.2,0,0.4,0,0.6c0,0.4-0.2,0.6-0.5,0.6c-0.3,0-0.6-0.2-0.8-0.6
		c-0.9-1.9-2.2-3.5-3.7-4.7c-1.5-1.2-3.3-1.8-5.3-1.8c-2.6,0-4.6,1.1-6,3.2c-1.5,2.2-2.2,4.7-2.2,7.6c0,3.3,0.8,6,2.4,8
		c1.6,2.1,3.5,3.1,5.7,3.1c0.9,0,1.9-0.2,2.8-0.6c1-0.4,1.6-0.9,1.8-1.4c0.3-0.5,0.4-1.2,0.4-2.1c0-2-0.1-3.3-0.2-3.8
		c-0.2-0.5-0.4-0.8-0.8-1c-0.4-0.2-1.1-0.4-2.3-0.5c-0.4,0-0.7-0.2-0.7-0.5c0-0.3,0.2-0.5,0.6-0.5h2.7l8.3-0.2
		c0.4,0,0.6,0.2,0.6,0.5c0,0.2-0.1,0.3-0.2,0.4c-0.1,0.1-0.7,0.2-1.5,0.4c-0.7,0.1-1.1,0.4-1.2,0.6c-0.2,0.3-0.3,2.1-0.4,5.4
		c0,0.7,0,1.2-0.1,1.3c0,0.1-0.7,0.5-2.1,1.2c-1.4,0.7-2.8,1.3-4.3,1.6c-1.5,0.4-3,0.5-4.4,0.5c-2.5,0-4.7-0.5-6.6-1.5
		c-2-1-3.5-2.4-4.7-4.1c-1.2-1.8-1.8-3.9-1.8-6.4c0-3.5,1.2-6.5,3.6-9c2.4-2.5,5.7-3.8,9.8-3.8c1.5,0,2.8,0.2,4,0.5
		c1.2,0.4,2.5,0.9,4,1.5c0.3,0.1,0.6,0.2,0.8,0.2c0.2,0,0.4-0.2,0.6-0.5c0.2-0.5,0.4-0.7,0.7-0.7
		C526.2,296.3,526.4,296.6,526.5,297.4z"/>
	<path id="XMLID_149_" class="st30" d="M542.4,308.3c1.5,0.2,2.7,0.7,3.7,1.4c1,0.7,1.7,2.1,2.2,4.1c0.5,1.9,1,3.2,1.5,3.8
		c0.5,0.6,1.3,1,2.2,1c0.5,0,0.8,0.2,0.8,0.5c0,0.3-0.4,0.5-1.3,0.5l-6.4-0.2c-0.7-0.7-1.1-1.9-1.4-3.6c-0.3-2.2-0.6-3.7-1-4.6
		c-0.3-0.9-0.8-1.5-1.5-1.9c-0.7-0.4-1.4-0.6-2.3-0.6c-0.3,0-0.6,0-1,0c0,3.9,0,6.3,0,7.2c0,0.9,0.2,1.5,0.5,1.9
		c0.3,0.4,1,0.6,1.9,0.7c0.5,0,0.7,0.2,0.7,0.5c0,0.3-0.2,0.4-0.6,0.4l-5.1-0.1c-0.7,0-1.6,0-2.6,0.1c-1,0.1-1.6,0.1-1.9,0.1
		c-0.5,0-0.7-0.2-0.7-0.5c0-0.3,0.2-0.5,0.6-0.5c0.6,0,1.2-0.2,1.7-0.5c0.5-0.3,0.8-1.6,0.8-3.9l0-3.1l0-6c0-3.1-0.1-5-0.4-5.6
		c-0.3-0.7-1-1-2.2-1.1c-0.5,0-0.7-0.2-0.7-0.5c0-0.3,0.3-0.5,0.9-0.5c3.1,0,5.8-0.1,7.9-0.2c1-0.1,1.8-0.1,2.6-0.1
		c2.5,0,4.5,0.5,5.9,1.5c1.4,1,2.1,2.3,2.1,3.9c0,1.1-0.3,2.1-1,2.9c-0.7,0.9-1.5,1.5-2.5,1.9C545,307.9,543.8,308.2,542.4,308.3z
		 M537.9,307.6c0.3,0,0.5,0,0.6,0c1,0,1.9-0.2,2.9-0.5c1-0.4,1.7-0.9,2.1-1.7c0.4-0.8,0.6-1.6,0.6-2.5c0-1.4-0.4-2.5-1.2-3.2
		c-0.8-0.8-1.9-1.2-3.2-1.2c-0.5,0-1.2,0.1-1.8,0.3V307.6z"/>
	<path id="XMLID_152_" class="st30" d="M563.8,297.2c2.2,0,4.2,0.4,5.9,1.3c1.7,0.9,3,2.2,4,3.9c1,1.7,1.5,3.6,1.5,5.6
		c0,3.1-1.2,5.8-3.5,8.2c-2.3,2.4-5.2,3.6-8.6,3.6c-3.1,0-5.8-1-8-3c-2.2-2-3.3-4.7-3.3-8c0-3.2,1.1-5.9,3.4-8.2
		C557.6,298.3,560.4,297.2,563.8,297.2z M569.6,308.5c0-3.4-0.6-5.9-1.7-7.6c-1.1-1.7-2.6-2.5-4.3-2.5c-1.7,0-3.2,0.8-4.3,2.5
		c-1.1,1.7-1.7,4.2-1.7,7.6c0,3.2,0.5,5.7,1.6,7.5s2.6,2.7,4.4,2.7c1.6,0,3-0.8,4.2-2.4C569,314.6,569.6,312,569.6,308.5z"/>
	<path id="XMLID_155_" class="st30" d="M588.7,297.2c2.2,0,4.2,0.4,5.9,1.3c1.7,0.9,3,2.2,4,3.9c1,1.7,1.5,3.6,1.5,5.6
		c0,3.1-1.2,5.8-3.5,8.2c-2.3,2.4-5.2,3.6-8.6,3.6c-3.1,0-5.8-1-8-3c-2.2-2-3.3-4.7-3.3-8c0-3.2,1.1-5.9,3.4-8.2
		C582.4,298.3,585.3,297.2,588.7,297.2z M594.5,308.5c0-3.4-0.6-5.9-1.7-7.6c-1.1-1.7-2.6-2.5-4.3-2.5c-1.7,0-3.2,0.8-4.3,2.5
		c-1.1,1.7-1.7,4.2-1.7,7.6c0,3.2,0.5,5.7,1.6,7.5c1.1,1.8,2.6,2.7,4.4,2.7c1.6,0,3-0.8,4.2-2.4C593.9,314.6,594.5,312,594.5,308.5z
		"/>
	<path id="XMLID_158_" class="st30" d="M608.8,297.6c0.3,0.7,0.8,1.8,1.6,3.3c0.8,1.5,1.5,3,2.3,4.5c0.8,1.5,1.6,3.1,2.6,4.8
		c0.8,1.3,1.2,2.1,1.3,2.4c2.8-6.2,4.9-11.2,6.3-15c2.7,0,5.1-0.1,7.4-0.2c0.2,0,0.4,0,0.5,0c0.5,0,0.7,0.2,0.7,0.5
		c0,0.3-0.2,0.5-0.5,0.5c-1.3,0-2.1,0.4-2.5,1.3c-0.4,0.9-0.6,2.9-0.6,6.3l0,8.1c0,1.7,0.2,2.8,0.7,3.5c0.4,0.7,1.1,1,2.1,1
		c0.5,0,0.7,0.2,0.7,0.5c0,0.2-0.1,0.3-0.3,0.4l-4.7,0c-1.4,0-3.4,0.1-5.9,0.2c-0.2-0.1-0.3-0.3-0.3-0.5c0-0.3,0.3-0.4,0.9-0.5
		c0.6-0.1,1-0.2,1.3-0.4c0.3-0.2,0.5-0.5,0.6-1c0.1-0.5,0.2-1.3,0.2-2.2l0.1-7.4c0-3.8,0-6,0-6.6c-3,7-4.9,11.5-5.6,13.4l-1.7,4.5
		c-0.2,0.5-0.4,0.7-0.6,0.7c-0.2,0-0.4-0.3-0.7-0.9c-0.8-1.7-3.7-7.3-8.7-16.9c-0.1,2.7-0.1,6.5-0.1,11.1c0,2.5,0.1,4,0.4,4.7
		c0.3,0.6,1.1,1,2.3,1.1c0.4,0,0.6,0.2,0.6,0.5c0,0.3-0.2,0.4-0.5,0.4c-0.1,0-0.3,0-0.4,0c-1.3-0.1-2.3-0.1-2.9-0.1
		c-1.6,0-2.8,0.1-3.6,0.2c-0.2,0-0.3,0-0.3,0c-0.4,0-0.6-0.2-0.6-0.5c0-0.2,0-0.3,0.1-0.3c0.1-0.1,0.3-0.1,0.8-0.2
		c1.1-0.2,1.8-0.6,2.1-1.1c0.3-0.6,0.5-1.5,0.5-2.8l0.1-9.5c0-2.2-0.1-3.6-0.2-4.3c-0.1-0.7-0.4-1.2-0.8-1.6
		c-0.4-0.4-1.1-0.7-2.1-0.8c-0.4-0.1-0.5-0.3-0.5-0.5c0-0.3,0.2-0.5,0.6-0.5c0.1,0,0.2,0,0.4,0C602.9,297.5,605.3,297.6,608.8,297.6
		z"/>
	<path id="XMLID_160_" class="st30" d="M644.3,298.2c0.1-0.1,0.3-0.4,0.4-0.7c0.2-0.3,0.4-0.5,0.6-0.5c0.3,0,0.5,0.2,0.5,0.7
		l0.6,4.5l0.1,0.5c0,0.3-0.1,0.4-0.4,0.4c-0.2,0-0.4-0.1-0.5-0.2c-0.1-0.1-0.3-0.4-0.6-1c-0.5-1-1.3-1.9-2.4-2.7s-2.2-1.2-3.3-1.2
		c-1.1,0-2,0.3-2.7,0.9c-0.7,0.6-1.1,1.4-1.1,2.3c0,0.7,0.3,1.4,1,2c0.7,0.6,1.9,1.2,3.8,1.7c3,0.8,5,1.9,6,3.1
		c1,1.2,1.6,2.6,1.6,4.1c0,1.5-0.4,2.8-1.1,3.9c-0.8,1.1-1.7,1.9-2.7,2.5c-1.1,0.6-2.4,0.9-4.1,0.9c-0.9,0-1.9-0.1-2.9-0.4
		c-1-0.3-2-0.7-3.1-1.2c-0.2,0.3-0.4,0.6-0.6,1c-0.2,0.5-0.4,0.7-0.7,0.7c-0.3,0-0.4-0.3-0.5-0.9l-0.5-6c0-0.3,0-0.4,0-0.5
		c0-0.3,0.2-0.5,0.5-0.5c0.2,0,0.5,0.3,0.7,0.8c0.7,1.7,1.6,3,2.8,4.2c1.2,1.1,2.5,1.7,4,1.7c1.3,0,2.4-0.4,3.2-1.2
		c0.8-0.8,1.2-1.7,1.2-2.6s-0.4-1.8-1.1-2.5c-0.7-0.7-2.1-1.3-4-1.9c-1.9-0.6-3.3-1.2-4.2-1.7c-0.9-0.6-1.6-1.3-2.2-2.3
		c-0.5-1-0.8-2-0.8-2.9c0-1.7,0.7-3.2,2-4.4c1.3-1.2,3.2-1.8,5.5-1.8C640.6,297.1,642.2,297.5,644.3,298.2z"/>
	<path id="XMLID_162_" class="st30" d="M656.4,297.6c0.3,0.7,0.8,1.8,1.6,3.3c0.8,1.5,1.5,3,2.3,4.5c0.8,1.5,1.6,3.1,2.6,4.8
		c0.8,1.3,1.2,2.1,1.3,2.4c2.8-6.2,4.9-11.2,6.3-15c2.7,0,5.1-0.1,7.4-0.2c0.2,0,0.4,0,0.5,0c0.5,0,0.7,0.2,0.7,0.5
		c0,0.3-0.2,0.5-0.5,0.5c-1.3,0-2.1,0.4-2.5,1.3c-0.4,0.9-0.6,2.9-0.6,6.3l0,8.1c0,1.7,0.2,2.8,0.7,3.5s1.1,1,2.1,1
		c0.5,0,0.7,0.2,0.7,0.5c0,0.2-0.1,0.3-0.3,0.4l-4.7,0c-1.4,0-3.4,0.1-5.9,0.2c-0.2-0.1-0.3-0.3-0.3-0.5c0-0.3,0.3-0.4,0.9-0.5
		c0.6-0.1,1-0.2,1.3-0.4c0.3-0.2,0.5-0.5,0.6-1c0.1-0.5,0.2-1.3,0.2-2.2l0.1-7.4c0-3.8,0-6,0-6.6c-3,7-4.9,11.5-5.6,13.4l-1.7,4.5
		c-0.2,0.5-0.4,0.7-0.6,0.7c-0.2,0-0.4-0.3-0.7-0.9c-0.8-1.7-3.7-7.3-8.7-16.9c-0.1,2.7-0.1,6.5-0.1,11.1c0,2.5,0.1,4,0.4,4.7
		s1.1,1,2.3,1.1c0.4,0,0.6,0.2,0.6,0.5c0,0.3-0.2,0.4-0.5,0.4c-0.1,0-0.3,0-0.4,0c-1.3-0.1-2.3-0.1-2.9-0.1c-1.6,0-2.8,0.1-3.6,0.2
		c-0.2,0-0.3,0-0.3,0c-0.4,0-0.6-0.2-0.6-0.5c0-0.2,0-0.3,0.1-0.3c0.1-0.1,0.3-0.1,0.8-0.2c1.1-0.2,1.8-0.6,2.1-1.1
		c0.3-0.6,0.5-1.5,0.5-2.8l0.1-9.5c0-2.2-0.1-3.6-0.2-4.3c-0.1-0.7-0.4-1.2-0.8-1.6c-0.4-0.4-1.1-0.7-2.1-0.8
		c-0.4-0.1-0.5-0.3-0.5-0.5c0-0.3,0.2-0.5,0.6-0.5c0.1,0,0.2,0,0.4,0C650.5,297.5,652.8,297.6,656.4,297.6z"/>
	<path id="XMLID_164_" class="st30" d="M689.2,296.9h1.1c1.5,3.2,3.5,8.1,6.2,14.9c1.2,3.1,2.1,5,2.5,5.7c0.5,0.7,1.2,1.1,2.2,1.2
		c0.3,0,0.5,0.2,0.5,0.4c0,0.3-0.2,0.5-0.6,0.5c-0.2,0-0.8,0-1.8-0.1c-1.2-0.1-2.1-0.1-2.9-0.1c-0.8,0-1.8,0-3,0.1
		c-0.9,0.1-1.5,0.1-1.8,0.1c-0.5,0-0.8-0.2-0.8-0.5c0-0.2,0.2-0.4,0.5-0.4c1.4-0.1,2-0.7,2-1.6c0-0.4-0.2-1.3-0.6-2.4
		s-0.8-2.3-1.3-3.2c-0.7,0-1.3,0-1.7,0c-2.2,0-4,0-5.2,0c-1,2.6-1.4,4.3-1.4,5.2c0,0.6,0.2,1.1,0.7,1.4c0.5,0.3,1,0.5,1.5,0.6
		c0.4,0,0.6,0.2,0.6,0.5c0,0.3-0.2,0.4-0.7,0.4c-0.2,0-0.6,0-1.4-0.1c-1-0.1-1.7-0.1-2.1-0.1c-0.9,0-1.7,0.1-2.5,0.2
		c-0.2,0-0.4,0-0.5,0c-0.4,0-0.6-0.2-0.6-0.5c0-0.2,0.1-0.4,0.4-0.5c0.7-0.2,1.2-0.4,1.6-0.7c0.4-0.3,0.8-0.8,1.2-1.6
		c0.4-0.8,1-2,1.6-3.8C684.4,308.7,686.5,303.5,689.2,296.9z M688,302.7l-2.9,7.4l5.9-0.1c-0.3-0.9-0.8-2.1-1.4-3.6
		C688.9,304.8,688.4,303.6,688,302.7z"/>
	<path id="XMLID_199_" class="st30" d="M707.5,297.5c5.3,6,9.7,10.9,13.3,14.5c0-0.8,0-1.2,0-1.5l0-6.6c0-1.5-0.1-2.7-0.3-3.3
		c-0.2-0.7-0.6-1.2-1.1-1.6c-0.6-0.4-1.2-0.6-2-0.7c-0.4,0-0.6-0.2-0.6-0.5c0-0.3,0.2-0.5,0.6-0.5c0.2,0,0.5,0,0.8,0.1
		c0.6,0.1,1.6,0.1,2.8,0.1c1.5,0,2.7,0,3.5-0.1c0.3,0,0.6,0,0.8,0c0.4,0,0.6,0.2,0.6,0.5c0,0.3-0.3,0.5-0.8,0.5
		c-0.7,0.1-1.3,0.4-2,0.9c-0.6,0.5-0.9,1.5-0.9,3.1l0.1,9.4l-0.1,7.1c0,0.6-0.2,0.9-0.6,0.9c-0.1,0-0.2,0-0.3-0.1s-0.9-0.8-2.3-2.3
		c-1.4-1.5-3.5-3.7-6.2-6.8c-2.7-3.1-4.7-5.3-5.8-6.6c0,0.3,0,3.1,0,8.4c0,1.6,0.1,2.9,0.2,3.8c0.1,0.9,0.6,1.6,1.3,2
		c0.7,0.4,1.4,0.6,2,0.6c0.4,0,0.6,0.1,0.6,0.4c0,0.3-0.2,0.5-0.6,0.5c-0.3,0-0.6,0-1-0.1c-0.7-0.1-1.5-0.1-2.5-0.1
		c-1.6,0-2.8,0-3.6,0.1c-0.5,0.1-0.8,0.1-1,0.1c-0.4,0-0.6-0.2-0.6-0.5c0-0.3,0.3-0.4,1-0.5c1.3-0.1,2-0.5,2.3-1.3
		c0.3-0.8,0.5-1.8,0.5-3.1c0-5.7,0-9.2-0.1-10.5c-0.1-1.3-0.5-2.4-1.2-3.5c-0.7-1-1.6-1.6-2.7-1.8c-0.4-0.1-0.6-0.2-0.6-0.5
		c0-0.4,0.2-0.5,0.7-0.5c0.1,0,0.3,0,0.5,0c0.3,0,0.7,0,1.4,0C704.9,297.4,706.3,297.4,707.5,297.5z"/>
	<path id="XMLID_201_" class="st30" d="M730.4,308.9l-0.4,4.5h-1.3l-0.1-7c1.2,1.1,2.3,1.6,3.2,1.6c0.9,0,1.7-0.5,2.3-1.5
		c0.6-1,0.9-2.2,0.9-3.7c0-1.5-0.3-2.6-1-3.5s-1.4-1.2-2.1-1.2c-0.7,0-1.1,0.2-1.1,0.7c0,0.1,0,0.2,0,0.3c0.1,0.3,0.2,0.6,0.2,0.8
		c0,0.5-0.2,1-0.6,1.4c-0.4,0.4-0.9,0.6-1.5,0.6c-0.6,0-1.1-0.2-1.5-0.5c-0.4-0.4-0.5-0.8-0.5-1.4c0-0.8,0.4-1.5,1.3-2
		c0.9-0.5,2-0.8,3.3-0.8c2.3,0,4.2,0.7,5.6,2.1c1.5,1.4,2.2,3,2.2,4.8c0,1.6-0.5,2.9-1.6,4s-2.4,1.7-3.9,1.7
		C732.5,309.7,731.4,309.4,730.4,308.9z M732,317.4c0,0.6-0.2,1.2-0.7,1.6c-0.5,0.5-1,0.7-1.6,0.7c-0.6,0-1.2-0.2-1.6-0.7
		c-0.5-0.5-0.7-1-0.7-1.6c0-0.6,0.2-1.2,0.7-1.6s1-0.7,1.6-0.7c0.6,0,1.2,0.2,1.6,0.7S732,316.8,732,317.4z"/>
</g>
<circle id="XMLID_191_" class="st30" cx="377.4" cy="297.5" r="7.3"/>
</svg>
