<?xml version="1.0" encoding="utf-8"?>
<!-- Generator: Adobe Illustrator 16.0.0, SVG Export Plug-In . SVG Version: 6.00 Build 0)  -->
<!DOCTYPE svg PUBLIC "-//W3C//DTD SVG 1.1//EN" "http://www.w3.org/Graphics/SVG/1.1/DTD/svg11.dtd">
<svg version="1.1" id="Layer_2" xmlns="http://www.w3.org/2000/svg" xmlns:xlink="http://www.w3.org/1999/xlink" x="0px" y="0px"
	 width="759px" height="439px" viewBox="0 0 759 439" style="enable-background:new 0 0 759 439;" xml:space="preserve">
<g>
	<g>
		<defs>
			<rect id="SVGID_1_" y="126.5" width="759" height="186.1"/>
		</defs>
		<clipPath id="SVGID_2_">
			<use xlink:href="#SVGID_1_"  style="overflow:visible;"/>
		</clipPath>
		<g style="clip-path:url(#SVGID_2_);">
			<g>
				<path style="fill:#EDDB13;" d="M0,141.8v12.6l18.6-19.7l46.8,48.1c1.8,1.8,4.6,1.8,6.4,0l46-47.1l45.4,47.1
					c1.8,1.8,4.6,1.8,6.4,0l46-47.3l49.8,49v-10.9l-49.7-50.2l-44,46.2c-2.7,2.7-7,2.7-9.8,0l-44.5-46.2l-43.9,46.2
					c-2.6,2.7-6.9,2.7-9.8,0l-44.9-47.2L0,141.8z"/>
				<path style="fill:#EDDB13;" d="M0,94.1v12.6L18.6,87l46.8,48.1c1.8,1.8,4.6,1.8,6.4,0l46-47.1l45.4,47.1c1.8,1.8,4.6,1.8,6.4,0
					l46-47.3l49.8,49v-10.9l-49.7-50.2l-44,46.2c-2.7,2.7-7,2.7-9.8,0l-44.5-46.2l-43.9,46.2c-2.6,2.7-6.9,2.7-9.8,0L18.8,74.6
					L0,94.1z"/>
				<path style="fill:#EDDB13;" d="M-0.1,189.7v12.6l18.6-19.7l46.8,48.1c1.8,1.8,4.6,1.8,6.4,0l46-47.1l45.4,47.1
					c1.8,1.8,4.6,1.8,6.4,0l46-47.3l49.8,49v-10.9l-49.7-50.2l-44.9,46c-2.7,2.7-5.8,2.9-8.5,0.2l-44.8-46.2l-44.5,45.9
					c-2.6,2.7-6,2.7-8.9-0.1l-45.2-46.9L-0.1,189.7z"/>
				<path style="fill:#EDDB13;" d="M-0.1,214.8v12.6l18.6-19.7l46.8,48.1c1.8,1.8,4.6,1.8,6.4,0l46-47.1l45.4,47.1
					c1.8,1.8,4.6,1.8,6.4,0l46-47.3l49.8,50.6v-12.5l-49.8-50.7l-44.8,46c-2.7,2.7-5.8,3.1-8.5,0.4l-44.5-46.2l-45,46
					c-2.6,2.7-5.7,2.7-8.6,0l-45.4-46.7L-0.1,214.8z"/>
				<path style="fill:#EDDB13;" d="M0,263.1v12.6L18.6,256l46.8,48.1c1.8,1.8,4.6,1.8,6.4,0l46-47.1l45.4,47.1
					c1.8,1.8,4.6,1.8,6.4,0l46-47.3l49.8,50.8v-12.7l-49.7-50.2l-44,46.2c-2.7,2.7-7,2.7-9.8,0l-44.5-46.2l-43.9,46.2
					c-2.6,2.7-6.9,2.7-9.8,0l-44.9-47.2L0,263.1z"/>
				<path style="fill:#EDDB13;" d="M0,310.9v12.6l18.6-19.7l46.8,48.1c1.8,1.8,4.6,1.8,6.4,0l46-47.1l45.4,47.1
					c1.8,1.8,4.6,1.8,6.4,0l46-47.3l49.8,50.4v-12.3l-49.7-50.2l-44,46.2c-2.7,2.7-7,2.7-9.8,0l-44.5-46.2l-43.9,46.2
					c-2.6,2.7-6.9,2.7-9.8,0l-44.9-47.2L0,310.9z"/>
				<path style="fill:#E42A34;" d="M0,152.8v12.6l18.6-19.7l46.8,48.1c1.8,1.8,4.6,1.8,6.4,0l46-47.1l45.4,47.1
					c1.8,1.8,4.6,1.8,6.4,0l46-47.3l49.8,49v-10.9L215.6,134l-45.2,46.4c-2.7,2.7-5.3,2.8-8.1,0.1l-44.6-46.3l-45.3,46.4
					c-2.6,2.7-4.9,2.7-7.8,0l-46.1-47.4L0,152.8z"/>
				<path style="fill:#E42A34;" d="M0,105.8v12.6l18.6-19.7l46.8,48.1c1.8,1.8,4.6,1.8,6.4,0l46-47.1l45.4,47.1
					c1.8,1.8,4.6,1.8,6.4,0l46-47.3l49.8,49v-10.9L215.6,87l-45.2,46.4c-2.7,2.7-5.3,2.8-8.1,0.1l-44.6-46.3l-45.3,46.4
					c-2.6,2.7-4.9,2.7-7.8,0L18.6,86.2L0,105.8z"/>
				<path style="fill:#E42A34;" d="M-0.1,202.2v12.6l18.6-19.7l46.8,48.1c1.8,1.8,4.6,1.8,6.4,0l46-47.1l45.4,47.1
					c1.8,1.8,4.6,1.8,6.4,0l46-47.3l49.8,50.7v-14.1l-49.8-49.1l-45.2,46.4c-2.7,2.7-5.3,2.8-8.1,0.1l-44.6-46.3L72.4,230
					c-2.6,2.7-4.9,2.7-7.8,0l-46.1-47.4L-0.1,202.2z"/>
				<path style="fill:#E42A34;" d="M0,251.7v12.6l18.6-19.7l46.8,48.1c1.8,1.8,4.6,1.8,6.4,0l46-47.1l45.4,47.1
					c1.8,1.8,4.6,1.8,6.4,0l46-46.7l49.8,49l0-11.6l-49.8-50.6l-45.2,46.4c-2.7,2.7-5.3,2.8-8.1,0.1L117.8,233l-45.3,46.4
					c-2.6,2.7-4.9,2.7-7.8,0l-46.1-47.4L0,251.7z"/>
				<path style="fill:#E42A34;" d="M0,299.9v12.6l18.6-19.7l46.8,48.1c1.8,1.8,4.6,1.8,6.4,0l46-47.1l45.4,47.1
					c1.8,1.8,4.6,1.8,6.4,0l46-47.3l49.8,49v-10.9l-49.8-50.6l-45.2,46.4c-2.7,2.7-5.3,2.8-8.1,0.1l-44.6-46.3l-45.3,46.4
					c-2.6,2.7-4.9,2.7-7.8,0l-46.1-47.4L0,299.9z"/>
				<path style="fill:#179A54;" d="M0,165.1v12.6l18.6-19.7l46.8,48.1c1.8,1.8,4.6,1.8,6.4,0l46-47.1l45.4,47.1
					c1.8,1.8,4.7,1.7,6.5-0.1l45.9-47.2l49.8,50.8v-14.1l-49.8-49.2l-45.2,46.4c-2.7,2.7-5.3,2.8-8.1,0.1l-44.6-46.3l-45.3,46.4
					c-2.6,2.7-4.9,2.7-7.8,0l-46.1-47.4L0,165.1z"/>
				<path style="fill:#179A54;" d="M0,118.2v12.6l18.6-19.7l46.8,48.1c1.8,1.8,4.6,1.8,6.4,0l46-47.1l45.4,47.1
					c1.8,1.8,4.7,1.7,6.5-0.1l45.9-47.2l49.8,50.8v-14.1l-49.8-49.2l-45.2,46.4c-2.7,2.7-5.3,2.8-8.1,0.1l-44.6-46.3l-45.3,46.4
					c-2.6,2.7-4.9,2.7-7.8,0L18.6,98.6L0,118.2z"/>
				<path style="fill:#179A54;" d="M0,239.8v12.6l18.6-19.7l46.8,48.1c1.8,1.8,4.6,1.8,6.4,0l46-47.1l45.4,47.1
					c1.8,1.8,4.6,1.8,6.4,0l46-47.3l49.8,50.7v-12.6L215.6,221l-45.2,46.4c-2.7,2.7-5.3,2.8-8.1,0.1l-44.6-46.3l-45.3,46.4
					c-2.6,2.7-4.9,2.7-7.8,0l-46.1-47.4L0,239.8z"/>
				<path style="fill:#179A54;" d="M0,287.5v12.6l18.6-19.7l46.8,48.1c1.8,1.8,4.6,1.8,6.4,0l46-47.1l45.4,47.1
					c1.8,1.8,4.6,1.8,6.4,0l46-47.3l49.8,50.4v-12.3l-49.8-50.6l-45.2,46.4c-2.7,2.7-5.3,2.8-8.1,0.1l-44.6-46.3l-45.3,46.4
					c-2.6,2.7-4.9,2.7-7.8,0L18.6,268L0,287.5z"/>
				<path style="fill:#E1207B;" d="M0,177.6v12.6l18.6-19.7l46.8,48.1c1.8,1.8,4.6,1.8,6.4,0l46-47.1l45.4,47.1
					c1.8,1.8,4.6,1.8,6.4,0l46-47.3l49.8,51.8v-13.7l-49.8-50.6l-45.2,46.4c-2.7,2.7-5.2,2.7-7.9,0L117.8,159l-45.3,46.4
					c-2.6,2.7-4.9,2.7-7.8,0l-46.1-47.4L0,177.6z"/>
				<path style="fill:#E1207B;" d="M-0.1,227.3v12.6l18.6-19.7l46.8,48.1c1.8,1.8,4.6,1.8,6.4,0l46-47.1l45.4,47.1
					c1.8,1.8,4.6,1.8,6.4,0l46-47.3l49.8,51.2v-13.1l-49.8-50.6l-45.2,46.4c-2.7,2.7-5.3,2.8-8.1,0.1l-44.6-46.3l-45.3,46.4
					c-2.6,2.7-4.9,2.7-7.8,0l-46.1-47.4L-0.1,227.3z"/>
				<path style="fill:#E1207B;" d="M0,275v12.6L18.6,268L65.4,316c1.8,1.8,4.6,1.8,6.4,0l46-47.1l45.4,47.1c1.8,1.8,4.6,1.8,6.4,0
					l46-47.3l49.8,50.6v-12.5l-49.8-50.6l-45.2,46.4c-2.7,2.7-5.3,2.8-8.1,0.1l-44.6-46.3l-45.3,46.4c-2.6,2.7-4.9,2.7-7.8,0
					l-46.1-47.4L0,275z"/>
				<path style="fill:#E1207B;" d="M0,323.1v12.6l18.6-19.7l46.8,48.1c1.8,1.8,4.6,1.8,6.4,0l46-47.1l45.4,47.1
					c1.8,1.8,4.6,1.8,6.4,0l46-47.3l49.8,49v-10.9l-49.8-50.6l-45.2,46.4c-2.7,2.7-5.3,2.8-8.1,0.1l-44.6-46.3l-45.3,46.4
					c-2.6,2.7-4.9,2.7-7.8,0l-46.1-47.4L0,323.1z"/>
				<path style="fill:#E1207B;" d="M0,130.6v12.6l18.6-19.7l46.8,48.1c1.8,1.8,4.6,1.8,6.4,0l46-47.1l45.4,47.1
					c1.8,1.8,4.6,1.8,6.4,0l46-47.3l49.8,49v-10.9l-49.8-50.6l-45.2,46.4c-2.7,2.7-5.3,2.8-8.1,0.1L117.8,112l-45.3,46.4
					c-2.6,2.7-4.9,2.7-7.8,0L18.6,111L0,130.6z"/>
			</g>
			<g>
				<path style="fill:#EDDB13;" d="M493.6,141.8v12.6l18.6-19.7l46.8,48.1c1.8,1.8,4.6,1.8,6.4,0l46-47.1l45.4,47.1
					c1.8,1.8,4.6,1.8,6.4,0l46-47.3l49.8,49v-10.9l-49.7-50.2l-44,46.2c-2.7,2.7-7,2.7-9.8,0l-44.5-46.2l-43.9,46.2
					c-2.6,2.7-6.9,2.7-9.8,0l-44.9-47.2L493.6,141.8z"/>
				<path style="fill:#EDDB13;" d="M493.6,94.1v12.6L512.2,87l46.8,48.1c1.8,1.8,4.6,1.8,6.4,0l46-47.1l45.4,47.1
					c1.8,1.8,4.6,1.8,6.4,0l46-47.3l49.8,49v-10.9l-49.7-50.2l-44,46.2c-2.7,2.7-7,2.7-9.8,0l-44.5-46.2l-43.9,46.2
					c-2.6,2.7-6.9,2.7-9.8,0l-44.9-47.2L493.6,94.1z"/>
				<path style="fill:#EDDB13;" d="M493.6,189.7v12.6l18.6-19.7l46.8,48.1c1.8,1.8,4.6,1.8,6.4,0l46-47.1l45.4,47.1
					c1.8,1.8,4.6,1.8,6.4,0l46-47.3l49.8,49v-10.9l-49.7-50.2l-44.9,46c-2.7,2.7-5.8,2.9-8.5,0.2L611,171.3l-44.5,45.9
					c-2.6,2.7-6,2.7-8.9-0.1l-45.2-46.9L493.6,189.7z"/>
				<path style="fill:#EDDB13;" d="M493.6,214.8v12.6l18.6-19.7l46.8,48.1c1.8,1.8,4.6,1.8,6.4,0l46-47.1l45.4,47.1
					c1.8,1.8,4.6,1.8,6.4,0l46-47.3l49.8,50.6v-12.5l-49.8-50.7l-44.8,46c-2.7,2.7-5.8,3.1-8.5,0.4l-44.6-46.2l-44.9,46
					c-2.6,2.7-5.7,2.7-8.6,0l-45.4-46.7L493.6,214.8z"/>
				<path style="fill:#EDDB13;" d="M493.6,263.1v12.6l18.6-19.7l46.8,48.1c1.8,1.8,4.6,1.8,6.4,0l46-47.1l45.4,47.1
					c1.8,1.8,4.6,1.8,6.4,0l46-47.3l49.8,50.8v-12.7l-49.7-50.2l-44,46.2c-2.7,2.7-7,2.7-9.8,0l-44.5-46.2l-43.9,46.2
					c-2.6,2.7-6.9,2.7-9.8,0l-44.9-47.2L493.6,263.1z"/>
				<path style="fill:#EDDB13;" d="M493.6,310.9v12.6l18.6-19.7l46.8,48.1c1.8,1.8,4.6,1.8,6.4,0l46-47.1l45.4,47.1
					c1.8,1.8,4.6,1.8,6.4,0l46-47.3l49.8,50.4v-12.3l-49.7-50.2l-44,46.2c-2.7,2.7-7,2.7-9.8,0l-44.5-46.2l-43.9,46.2
					c-2.6,2.7-6.9,2.7-9.8,0l-44.9-47.2L493.6,310.9z"/>
				<path style="fill:#E42A34;" d="M493.6,152.8v12.6l18.6-19.7l46.8,48.1c1.8,1.8,4.6,1.8,6.4,0l46-47.1l45.4,47.1
					c1.8,1.8,4.6,1.8,6.4,0l46-47.3l49.8,49v-10.9L709.3,134l-45.2,46.4c-2.7,2.7-5.3,2.8-8.1,0.1l-44.6-46.3l-45.3,46.4
					c-2.6,2.7-4.9,2.7-7.8,0l-46.1-47.4L493.6,152.8z"/>
				<path style="fill:#E42A34;" d="M493.6,105.8v12.6l18.6-19.7l46.8,48.1c1.8,1.8,4.6,1.8,6.4,0l46-47.1l45.4,47.1
					c1.8,1.8,4.6,1.8,6.4,0l46-47.3l49.8,49v-10.9L709.3,87l-45.2,46.4c-2.7,2.7-5.3,2.8-8.1,0.1l-44.6-46.3l-45.3,46.4
					c-2.6,2.7-4.9,2.7-7.8,0l-46.1-47.4L493.6,105.8z"/>
				<path style="fill:#E42A34;" d="M493.6,202.2v12.6l18.6-19.7l46.8,48.1c1.8,1.8,4.6,1.8,6.4,0l46-47.1l45.4,47.1
					c1.8,1.8,4.6,1.8,6.4,0l46-47.3l49.8,50.7v-14.1l-49.8-49.1L664,229.8c-2.7,2.7-5.3,2.8-8.1,0.1l-44.6-46.3L566,230
					c-2.6,2.7-4.9,2.7-7.8,0l-46.1-47.4L493.6,202.2z"/>
				<path style="fill:#E42A34;" d="M493.6,251.7v12.6l18.6-19.7l46.8,48.1c1.8,1.8,4.6,1.8,6.4,0l46-47.1l45.4,47.1
					c1.8,1.8,4.6,1.8,6.4,0l46-46.7l49.8,49l0-11.6l-49.8-50.6l-45.2,46.4c-2.7,2.7-5.3,2.8-8.1,0.1L611.4,233l-45.3,46.4
					c-2.6,2.7-4.9,2.7-7.8,0l-46.1-47.4L493.6,251.7z"/>
				<path style="fill:#E42A34;" d="M493.6,299.9v12.6l18.6-19.7l46.8,48.1c1.8,1.8,4.6,1.8,6.4,0l46-47.1l45.4,47.1
					c1.8,1.8,4.6,1.8,6.4,0l46-47.3l49.8,49v-10.9l-49.8-50.6l-45.2,46.4c-2.7,2.7-5.3,2.8-8.1,0.1l-44.6-46.3l-45.3,46.4
					c-2.6,2.7-4.9,2.7-7.8,0l-46.1-47.4L493.6,299.9z"/>
				<path style="fill:#179A54;" d="M493.6,165.1v12.6l18.6-19.7l46.8,48.1c1.8,1.8,4.6,1.8,6.4,0l46-47.1l45.4,47.1
					c1.8,1.8,4.7,1.7,6.5-0.1l45.9-47.2l49.8,50.8v-14.1l-49.8-49.2l-45.2,46.4c-2.7,2.7-5.3,2.8-8.1,0.1l-44.6-46.3l-45.3,46.4
					c-2.6,2.7-4.9,2.7-7.8,0l-46.1-47.4L493.6,165.1z"/>
				<path style="fill:#179A54;" d="M493.6,118.2v12.6l18.6-19.7l46.8,48.1c1.8,1.8,4.6,1.8,6.4,0l46-47.1l45.4,47.1
					c1.8,1.8,4.7,1.7,6.5-0.1l45.9-47.2l49.8,50.8v-14.1l-49.8-49.2l-45.2,46.4c-2.7,2.7-5.3,2.8-8.1,0.1l-44.6-46.3l-45.3,46.4
					c-2.6,2.7-4.9,2.7-7.8,0l-46.1-47.4L493.6,118.2z"/>
				<path style="fill:#179A54;" d="M493.6,239.8v12.6l18.6-19.7l46.8,48.1c1.8,1.8,4.6,1.8,6.4,0l46-47.1l45.4,47.1
					c1.8,1.8,4.6,1.8,6.4,0l46-47.3l49.8,50.7v-12.6L709.3,221l-45.2,46.4c-2.7,2.7-5.3,2.8-8.1,0.1l-44.6-46.3l-45.3,46.4
					c-2.6,2.7-4.9,2.7-7.8,0l-46.1-47.4L493.6,239.8z"/>
				<path style="fill:#179A54;" d="M493.6,287.5v12.6l18.6-19.7l46.8,48.1c1.8,1.8,4.6,1.8,6.4,0l46-47.1l45.4,47.1
					c1.8,1.8,4.6,1.8,6.4,0l46-47.3l49.8,50.4v-12.3l-49.8-50.6l-45.2,46.4c-2.7,2.7-5.3,2.8-8.1,0.1l-44.6-46.3l-45.3,46.4
					c-2.6,2.7-4.9,2.7-7.8,0L512.2,268L493.6,287.5z"/>
				<path style="fill:#E1207B;" d="M493.6,177.6v12.6l18.6-19.7l46.8,48.1c1.8,1.8,4.6,1.8,6.4,0l46-47.1l45.4,47.1
					c1.8,1.8,4.6,1.8,6.4,0l46-47.3l49.8,51.8v-13.7l-49.8-50.6l-45.2,46.4c-2.7,2.7-5.2,2.7-7.9,0L611.4,159l-45.3,46.4
					c-2.6,2.7-4.9,2.7-7.8,0l-46.1-47.4L493.6,177.6z"/>
				<path style="fill:#E1207B;" d="M493.6,227.3v12.6l18.6-19.7l46.8,48.1c1.8,1.8,4.6,1.8,6.4,0l46-47.1l45.4,47.1
					c1.8,1.8,4.6,1.8,6.4,0l46-47.3l49.8,51.2v-13.1l-49.8-50.6L664,254.9c-2.7,2.7-5.3,2.8-8.1,0.1l-44.6-46.3L566,255.1
					c-2.6,2.7-4.9,2.7-7.8,0l-46.1-47.4L493.6,227.3z"/>
				<path style="fill:#E1207B;" d="M493.6,275v12.6l18.6-19.7L559,316c1.8,1.8,4.6,1.8,6.4,0l46-47.1l45.4,47.1
					c1.8,1.8,4.6,1.8,6.4,0l46-47.3l49.8,50.6v-12.5l-49.8-50.6l-45.2,46.4c-2.7,2.7-5.3,2.8-8.1,0.1l-44.6-46.3l-45.3,46.4
					c-2.6,2.7-4.9,2.7-7.8,0l-46.1-47.4L493.6,275z"/>
				<path style="fill:#E1207B;" d="M493.6,323.1v12.6l18.6-19.7l46.8,48.1c1.8,1.8,4.6,1.8,6.4,0l46-47.1l45.4,47.1
					c1.8,1.8,4.6,1.8,6.4,0l46-47.3l49.8,49v-10.9l-49.8-50.6l-45.2,46.4c-2.7,2.7-5.3,2.8-8.1,0.1l-44.6-46.3l-45.3,46.4
					c-2.6,2.7-4.9,2.7-7.8,0l-46.1-47.4L493.6,323.1z"/>
				<path style="fill:#E1207B;" d="M493.6,130.6v12.6l18.6-19.7l46.8,48.1c1.8,1.8,4.6,1.8,6.4,0l46-47.1l45.4,47.1
					c1.8,1.8,4.6,1.8,6.4,0l46-47.3l49.8,49v-10.9l-49.8-50.6l-45.2,46.4c-2.7,2.7-5.3,2.8-8.1,0.1L611.4,112l-45.3,46.4
					c-2.6,2.7-4.9,2.7-7.8,0L512.2,111L493.6,130.6z"/>
			</g>
			<g>
				<path style="fill:#EDDB13;" d="M530.8,141.8v12.6l-18.6-19.7l-46.8,48.1c-1.8,1.8-4.6,1.8-6.4,0l-46-47.1l-45.4,47.1
					c-1.8,1.8-4.6,1.8-6.4,0l-46-47.3l-49.8,49v-10.9l49.7-50.2l44,46.2c2.7,2.7,7,2.7,9.8,0l44.5-46.2l43.9,46.2
					c2.6,2.7,6.9,2.7,9.8,0l44.9-47.2L530.8,141.8z"/>
				<path style="fill:#EDDB13;" d="M530.8,94.1v12.6L512.2,87l-46.8,48.1c-1.8,1.8-4.6,1.8-6.4,0l-46-47.1l-45.4,47.1
					c-1.8,1.8-4.6,1.8-6.4,0l-46-47.3l-49.8,49v-10.9l49.7-50.2l44,46.2c2.7,2.7,7,2.7,9.8,0l44.5-46.2l43.9,46.2
					c2.6,2.7,6.9,2.7,9.8,0l44.9-47.2L530.8,94.1z"/>
				<path style="fill:#EDDB13;" d="M530.9,189.7v12.6l-18.6-19.7l-46.8,48.1c-1.8,1.8-4.6,1.8-6.4,0l-46-47.1l-45.4,47.1
					c-1.8,1.8-4.6,1.8-6.4,0l-46-47.3l-49.8,49v-10.9l49.7-50.2l44.9,46c2.7,2.7,5.8,2.9,8.5,0.2l44.8-46.2l44.5,45.9
					c2.6,2.7,6,2.7,8.9-0.1l45.2-46.9L530.9,189.7z"/>
				<path style="fill:#EDDB13;" d="M530.9,214.8v12.6l-18.6-19.7l-46.8,48.1c-1.8,1.8-4.6,1.8-6.4,0l-46-47.1l-45.4,47.1
					c-1.8,1.8-4.6,1.8-6.4,0l-46-47.3l-49.8,50.6v-12.5l49.8-50.7l44.8,46c2.7,2.7,5.8,3.1,8.5,0.4l44.6-46.2l45,46
					c2.6,2.7,5.7,2.7,8.6,0l45.4-46.7L530.9,214.8z"/>
				<path style="fill:#EDDB13;" d="M530.8,263.1v12.6L512.2,256l-46.8,48.1c-1.8,1.8-4.6,1.8-6.4,0l-46-47.1l-45.4,47.1
					c-1.8,1.8-4.6,1.8-6.4,0l-46-47.3l-49.8,50.8v-12.7l49.7-50.2l44,46.2c2.7,2.7,7,2.7,9.8,0l44.5-46.2l43.9,46.2
					c2.6,2.7,6.9,2.7,9.8,0l44.9-47.2L530.8,263.1z"/>
				<path style="fill:#EDDB13;" d="M530.8,310.9v12.6l-18.6-19.7l-46.8,48.1c-1.8,1.8-4.6,1.8-6.4,0l-46-47.1l-45.4,47.1
					c-1.8,1.8-4.6,1.8-6.4,0l-46-47.3l-49.8,50.4v-12.3l49.7-50.2l44,46.2c2.7,2.7,7,2.7,9.8,0l44.5-46.2l43.9,46.2
					c2.6,2.7,6.9,2.7,9.8,0l44.9-47.2L530.8,310.9z"/>
				<path style="fill:#E42A34;" d="M530.8,152.8v12.6l-18.6-19.7l-46.8,48.1c-1.8,1.8-4.6,1.8-6.4,0l-46-47.1l-45.4,47.1
					c-1.8,1.8-4.6,1.8-6.4,0l-46-47.3l-49.8,49v-10.9l49.8-50.6l45.2,46.4c2.7,2.7,5.3,2.8,8.1,0.1l44.6-46.3l45.3,46.4
					c2.6,2.7,4.9,2.7,7.8,0l46.1-47.4L530.8,152.8z"/>
				<path style="fill:#E42A34;" d="M530.8,105.8v12.6l-18.6-19.7l-46.8,48.1c-1.8,1.8-4.6,1.8-6.4,0l-46-47.1l-45.4,47.1
					c-1.8,1.8-4.6,1.8-6.4,0l-46-47.3l-49.8,49v-10.9L315.2,87l45.2,46.4c2.7,2.7,5.3,2.8,8.1,0.1L413,87.2l45.3,46.4
					c2.6,2.7,4.9,2.7,7.8,0l46.1-47.4L530.8,105.8z"/>
				<path style="fill:#E42A34;" d="M530.9,202.2v12.6l-18.6-19.7l-46.8,48.1c-1.8,1.8-4.6,1.8-6.4,0l-46-47.1l-45.4,47.1
					c-1.8,1.8-4.6,1.8-6.4,0l-46-47.3l-49.8,50.7v-14.1l49.8-49.1l45.2,46.4c2.7,2.7,5.3,2.8,8.1,0.1l44.6-46.3l45.3,46.4
					c2.6,2.7,4.9,2.7,7.8,0l46.1-47.4L530.9,202.2z"/>
				<path style="fill:#E42A34;" d="M530.8,251.7v12.6l-18.6-19.7l-46.8,48.1c-1.8,1.8-4.6,1.8-6.4,0l-46-47.1l-45.4,47.1
					c-1.8,1.8-4.6,1.8-6.4,0l-46-46.7l-49.8,49l0-11.6l49.8-50.6l45.2,46.4c2.7,2.7,5.3,2.8,8.1,0.1L413,233l45.3,46.4
					c2.6,2.7,4.9,2.7,7.8,0l46.1-47.4L530.8,251.7z"/>
				<path style="fill:#E42A34;" d="M530.8,299.9v12.6l-18.6-19.7l-46.8,48.1c-1.8,1.8-4.6,1.8-6.4,0l-46-47.1l-45.4,47.1
					c-1.8,1.8-4.6,1.8-6.4,0l-46-47.3l-49.8,49v-10.9l49.8-50.6l45.2,46.4c2.7,2.7,5.3,2.8,8.1,0.1l44.6-46.3l45.3,46.4
					c2.6,2.7,4.9,2.7,7.8,0l46.1-47.4L530.8,299.9z"/>
				<path style="fill:#179A54;" d="M530.8,165.1v12.6l-18.6-19.7l-46.8,48.1c-1.8,1.8-4.6,1.8-6.4,0L413,159l-45.4,47.1
					c-1.8,1.8-4.7,1.7-6.5-0.1l-45.9-47.2l-49.8,50.8v-14.1l49.8-49.2l45.2,46.4c2.7,2.7,5.3,2.8,8.1,0.1l44.6-46.3l45.3,46.4
					c2.6,2.7,4.9,2.7,7.8,0l46.1-47.4L530.8,165.1z"/>
				<path style="fill:#179A54;" d="M530.8,118.2v12.6l-18.6-19.7l-46.8,48.1c-1.8,1.8-4.6,1.8-6.4,0L413,112l-45.4,47.1
					c-1.8,1.8-4.7,1.7-6.5-0.1l-45.9-47.2l-49.8,50.8v-14.1l49.8-49.2l45.2,46.4c2.7,2.7,5.3,2.8,8.1,0.1L413,99.5l45.3,46.4
					c2.6,2.7,4.9,2.7,7.8,0l46.1-47.4L530.8,118.2z"/>
				<path style="fill:#179A54;" d="M530.8,239.8v12.6l-18.6-19.7l-46.8,48.1c-1.8,1.8-4.6,1.8-6.4,0l-46-47.1l-45.4,47.1
					c-1.8,1.8-4.6,1.8-6.4,0l-46-47.3l-49.8,50.7v-12.6l49.8-50.6l45.2,46.4c2.7,2.7,5.3,2.8,8.1,0.1l44.6-46.3l45.3,46.4
					c2.6,2.7,4.9,2.7,7.8,0l46.1-47.4L530.8,239.8z"/>
				<path style="fill:#179A54;" d="M530.8,287.5v12.6l-18.6-19.7l-46.8,48.1c-1.8,1.8-4.6,1.8-6.4,0l-46-47.1l-45.4,47.1
					c-1.8,1.8-4.6,1.8-6.4,0l-46-47.3l-49.8,50.4v-12.3l49.8-50.6l45.2,46.4c2.7,2.7,5.3,2.8,8.1,0.1l44.6-46.3l45.3,46.4
					c2.6,2.7,4.9,2.7,7.8,0l46.1-47.4L530.8,287.5z"/>
				<path style="fill:#E1207B;" d="M530.8,177.6v12.6l-18.6-19.7l-46.8,48.1c-1.8,1.8-4.6,1.8-6.4,0l-46-47.1l-45.4,47.1
					c-1.8,1.8-4.6,1.8-6.4,0l-46-47.3l-49.8,51.8v-13.7l49.8-50.6l45.2,46.4c2.7,2.7,5.2,2.7,7.9,0L413,159l45.3,46.4
					c2.6,2.7,4.9,2.7,7.8,0l46.1-47.4L530.8,177.6z"/>
				<path style="fill:#E1207B;" d="M530.9,227.3v12.6l-18.6-19.7l-46.8,48.1c-1.8,1.8-4.6,1.8-6.4,0l-46-47.1l-45.4,47.1
					c-1.8,1.8-4.6,1.8-6.4,0l-46-47.3l-49.8,51.2v-13.1l49.8-50.6l45.2,46.4c2.7,2.7,5.3,2.8,8.1,0.1l44.6-46.3l45.3,46.4
					c2.6,2.7,4.9,2.7,7.8,0l46.1-47.4L530.9,227.3z"/>
				<path style="fill:#E1207B;" d="M530.8,275v12.6L512.2,268L465.4,316c-1.8,1.8-4.6,1.8-6.4,0l-46-47.1L367.6,316
					c-1.8,1.8-4.6,1.8-6.4,0l-46-47.3l-49.8,50.6v-12.5l49.8-50.6l45.2,46.4c2.7,2.7,5.3,2.8,8.1,0.1l44.6-46.3l45.3,46.4
					c2.6,2.7,4.9,2.7,7.8,0l46.1-47.4L530.8,275z"/>
				<path style="fill:#E1207B;" d="M530.8,323.1v12.6l-18.6-19.7l-46.8,48.1c-1.8,1.8-4.6,1.8-6.4,0L413,317l-45.4,47.1
					c-1.8,1.8-4.6,1.8-6.4,0l-46-47.3l-49.8,49v-10.9l49.8-50.6l45.2,46.4c2.7,2.7,5.3,2.8,8.1,0.1l44.6-46.3l45.3,46.4
					c2.6,2.7,4.9,2.7,7.8,0l46.1-47.4L530.8,323.1z"/>
				<path style="fill:#E1207B;" d="M530.8,130.6v12.6l-18.6-19.7l-46.8,48.1c-1.8,1.8-4.6,1.8-6.4,0l-46-47.1l-45.4,47.1
					c-1.8,1.8-4.6,1.8-6.4,0l-46-47.3l-49.8,49v-10.9l49.8-50.6l45.2,46.4c2.7,2.7,5.3,2.8,8.1,0.1L413,112l45.3,46.4
					c2.6,2.7,4.9,2.7,7.8,0l46.1-47.4L530.8,130.6z"/>
			</g>
		</g>
	</g>
	<g>
		<defs>
			<circle id="SVGID_3_" cx="379.5" cy="219.5" r="136.7"/>
		</defs>
		<clipPath id="SVGID_4_">
			<use xlink:href="#SVGID_3_"  style="overflow:visible;"/>
		</clipPath>
		<g style="clip-path:url(#SVGID_4_);">
			<g>
				<g>
					<path style="fill:#EDDB13;" d="M126.5-52.8l-6.7,10.7l26.2-6.7l13.9,65.6c0.6,2.5,2.9,4,5.4,3.4l64.1-15.3l13.3,64.1
						c0.6,2.5,3,4,5.4,3.4l64.2-15.5l16,68l5.8-9.2l-15.3-69L257,62.3c-3.8,0.8-7.4-1.5-8.3-5.2l-13-62.8L173.9,9.9
						c-3.6,0.9-7.3-1.4-8.3-5.2l-12.8-63.9L126.5-52.8z"/>
					<path style="fill:#EDDB13;" d="M152-93.2l-6.7,10.7l26.2-6.7l13.9,65.6c0.6,2.5,2.9,4,5.4,3.4l64.1-15.3l13.3,64.1
						c0.6,2.5,3,4,5.4,3.4l64.2-15.5l16,68l5.8-9.2l-15.3-69l-61.8,15.6c-3.8,0.8-7.4-1.5-8.3-5.2l-13-62.8l-61.8,15.6
						c-3.6,0.9-7.3-1.4-8.3-5.2l-12.8-63.9L152-93.2z"/>
					<path style="fill:#EDDB13;" d="M100.9-12.3L94.2-1.6l26.2-6.7l13.9,65.6c0.6,2.5,2.9,4,5.4,3.4l64.1-15.3l13.3,64.1
						c0.6,2.5,3,4,5.4,3.4l64.2-15.5l16,68l5.8-9.2l-15.3-69l-62.6,15c-3.8,0.8-6.4-0.6-7.3-4.4l-13.3-63L148,49.9
						c-3.6,0.9-6.5-1-7.5-4.8l-13.2-63.8L100.9-12.3z"/>
					<path style="fill:#EDDB13;" d="M87.5,8.9l-6.7,10.7l26.2-6.7L121,78.4c0.5,2.5,2.9,4,5.4,3.4l64.1-15.3l13.3,64.1
						c0.6,2.5,3,4,5.4,3.4l64.2-15.5l15.1,69.4l6.7-10.6L280,107.9L217.6,123c-3.8,0.8-6.5-0.5-7.4-4.2l-13-62.9l-62.6,15
						c-3.6,0.9-6.2-0.7-7.2-4.6L113.8,2.5L87.5,8.9z"/>
					<path style="fill:#EDDB13;" d="M61.9,49.8l-6.7,10.7l26.2-6.7l13.9,65.6c0.6,2.5,2.9,4,5.4,3.4l64.1-15.3l13.3,64.1
						c0.6,2.5,3,4,5.4,3.4l64.2-15.5l15,69.6l6.8-10.8l-15.3-69l-61.8,15.6c-3.8,0.8-7.4-1.5-8.3-5.2l-13-62.8l-61.8,15.6
						c-3.6,0.9-7.3-1.4-8.3-5.2L88.2,43.4L61.9,49.8z"/>
					<path style="fill:#EDDB13;" d="M36.4,90.2l-6.7,10.7l26.2-6.7l13.9,65.6c0.6,2.5,2.9,4,5.4,3.4l64.1-15.3l13.3,64.1
						c0.6,2.5,3,4,5.4,3.4l64.2-15.5l15.3,69.2l6.5-10.4l-15.3-69l-61.8,15.6c-3.8,0.8-7.4-1.5-8.3-5.2l-13-62.8l-61.8,15.6
						c-3.6,0.9-7.3-1.4-8.3-5.2L62.7,83.8L36.4,90.2z"/>
					<path style="fill:#E42A34;" d="M120.7-43.5l-6.7,10.7l26.2-6.7L154.1,26c0.6,2.5,2.9,4,5.4,3.4l64.1-15.3l13.3,64.1
						c0.6,2.5,3,4,5.4,3.4l64.2-15.5l16,68l5.8-9.2l-15.1-69.4l-63,15.2c-3.8,0.8-6-0.5-6.8-4.2l-13.1-63l-63.1,15.1
						c-3.6,0.9-5.6-0.3-6.6-4.1l-13.7-64.6L120.7-43.5z"/>
					<path style="fill:#E42A34;" d="M145.7-83.3L139-72.6l26.2-6.7l13.9,65.6c0.6,2.5,2.9,4,5.4,3.4l64.1-15.3l13.3,64.1
						c0.6,2.5,3,4,5.4,3.4l64.2-15.5l16,68l5.8-9.2l-15.1-69.4l-63,15.2c-3.8,0.8-6-0.5-6.8-4.2l-13.1-63l-63.1,15.1
						c-3.6,0.9-5.6-0.3-6.6-4.1l-13.7-64.6L145.7-83.3z"/>
					<path style="fill:#E42A34;" d="M94.2-1.7L87.5,8.9l26.2-6.7l13.9,65.6c0.5,2.5,2.9,4,5.4,3.4l64.1-15.3l13.3,64.1
						c0.6,2.5,3,4,5.4,3.4l64.2-15.5l15.1,69.4l7.5-11.9l-15.9-68.1l-63,15.2c-3.8,0.8-6-0.5-6.8-4.2l-13.1-63l-63.1,15.1
						c-3.6,0.9-5.6-0.3-6.6-4.1L120.4-8.4L94.2-1.7z"/>
					<path style="fill:#E42A34;" d="M67.9,40.1l-6.7,10.7l26.2-6.7l13.9,65.6c0.6,2.5,2.9,4,5.4,3.4l64.1-15.3l13.3,64.1
						c0.6,2.5,3,4,5.4,3.4l63.8-14.9l16,68l6.2-9.8l-15.1-69.4l-63,15.2c-3.8,0.8-6-0.5-6.8-4.2l-13.1-63l-63.1,15.1
						c-3.6,0.9-5.6-0.3-6.6-4.1L94.1,33.5L67.9,40.1z"/>
					<path style="fill:#E42A34;" d="M42.2,80.9l-6.7,10.7l26.2-6.7l13.9,65.6c0.6,2.5,2.9,4,5.4,3.4l64.1-15.3l13.3,64.1
						c0.6,2.5,3,4,5.4,3.4l64.2-15.5l16,68l5.8-9.2L234.7,180l-63,15.2c-3.8,0.8-6-0.5-6.8-4.2l-13.1-63L88.7,143
						c-3.6,0.9-5.6-0.3-6.6-4.1L68.4,74.3L42.2,80.9z"/>
					<path style="fill:#179A54;" d="M114.1-33.1l-6.7,10.7l26.2-6.7l13.9,65.6c0.6,2.5,2.9,4,5.4,3.4L217,24.6l13.3,64.1
						c0.6,2.5,3.1,3.9,5.6,3.4l64-15.4l15.1,69.5l7.5-11.9L306.5,66l-63,15.2c-3.8,0.8-6-0.5-6.8-4.2l-13.1-63l-63.1,15.1
						c-3.6,0.9-5.6-0.3-6.6-4.1l-13.7-64.6L114.1-33.1z"/>
					<path style="fill:#179A54;" d="M139.1-72.8l-6.7,10.7l26.2-6.7l13.9,65.6c0.6,2.5,2.9,4,5.4,3.4L242-15.2l13.3,64.1
						c0.6,2.5,3.1,3.9,5.6,3.4l64-15.4l15.1,69.5l7.5-11.9l-15.9-68.2l-63,15.2c-3.8,0.8-6-0.5-6.8-4.2l-13.1-63l-63.1,15.1
						c-3.6,0.9-5.6-0.3-6.6-4.1l-13.7-64.6L139.1-72.8z"/>
					<path style="fill:#179A54;" d="M74.3,30.1l-6.7,10.7L93.8,34l13.9,65.6c0.5,2.5,2.9,4,5.4,3.4l64.1-15.3l13.3,64.1
						c0.6,2.5,3,4,5.4,3.4l64.2-15.5l15.1,69.5l6.7-10.7l-15.1-69.4l-63,15.2c-3.8,0.8-6-0.5-6.8-4.2l-13.1-63l-63.1,15.1
						c-3.6,0.9-5.6-0.3-6.6-4.1l-13.7-64.6L74.3,30.1z"/>
					<path style="fill:#179A54;" d="M48.8,70.5l-6.7,10.7l26.2-6.7L82.2,140c0.6,2.5,2.9,4,5.4,3.4l64.1-15.3l13.3,64.1
						c0.6,2.5,3,4,5.4,3.4l64.2-15.5l15.2,69.2l6.6-10.4l-15.1-69.4l-63,15.2c-3.8,0.8-6-0.5-6.8-4.2l-13.1-63l-63.1,15.1
						c-3.6,0.9-5.6-0.3-6.6-4.1L75,63.8L48.8,70.5z"/>
					<path style="fill:#E1207B;" d="M107.4-22.5l-6.7,10.7l26.2-6.7l13.9,65.6c0.6,2.5,2.9,4,5.4,3.4l64.1-15.3l13.3,64.1
						c0.6,2.5,3,4,5.4,3.4l64.2-15.5l14.5,70.4L315,146l-15.1-69.4l-63,15.2c-3.8,0.8-5.8-0.4-6.7-4.2l-13.2-63l-63.1,15.1
						c-3.6,0.9-5.6-0.3-6.6-4.1l-13.7-64.6L107.4-22.5z"/>
					<path style="fill:#E1207B;" d="M80.9,19.5l-6.7,10.7l26.2-6.7L114.3,89c0.6,2.5,2.9,4,5.4,3.4l64.1-15.3l13.3,64.1
						c0.6,2.5,3,4,5.4,3.4l64.2-15.5l14.8,69.9l7-11.1l-15.1-69.4l-63,15.2c-3.8,0.8-6-0.5-6.8-4.2l-13.1-63l-63.1,15.1
						c-3.6,0.9-5.6-0.3-6.6-4.1L107,12.8L80.9,19.5z"/>
					<path style="fill:#E1207B;" d="M55.5,59.9l-6.7,10.7L75,63.8l13.9,65.6c0.5,2.5,2.9,4,5.4,3.4l64.1-15.3l13.3,64.1
						c0.6,2.5,3,4,5.4,3.4l64.2-15.5l15.1,69.4l6.7-10.6L247.9,159l-63,15.2c-3.8,0.8-6-0.5-6.8-4.2L165,107L101.9,122
						c-3.6,0.9-5.6-0.3-6.6-4.1L81.6,53.3L55.5,59.9z"/>
					<path style="fill:#E1207B;" d="M29.8,100.6l-6.7,10.7l26.2-6.7l13.9,65.6c0.6,2.5,2.9,4,5.4,3.4l64.1-15.3l13.3,64.1
						c0.6,2.5,3,4,5.4,3.4l64.2-15.5l16,68l5.8-9.2l-15.1-69.4l-63,15.2c-3.8,0.8-6-0.5-6.8-4.2l-13.1-63l-63.1,15.1
						c-3.6,0.9-5.6-0.3-6.6-4.1L56,94L29.8,100.6z"/>
					<path style="fill:#E1207B;" d="M132.5-62.3l-6.7,10.7l26.2-6.7l13.9,65.6c0.6,2.5,2.9,4,5.4,3.4l64.1-15.3l13.3,64.1
						c0.6,2.5,3,4,5.4,3.4l64.2-15.5l16,68l5.8-9.2l-15.1-69.4L262,52c-3.8,0.8-6-0.5-6.8-4.2l-13.1-63L179-0.1
						c-3.6,0.9-5.6-0.3-6.6-4.1l-13.7-64.6L132.5-62.3z"/>
				</g>
				<g>
					<path style="fill:#EDDB13;" d="M544.1,210.5l-6.7,10.7l26.2-6.7l13.9,65.6c0.6,2.5,2.9,4,5.4,3.4l64.1-15.3l13.3,64.1
						c0.6,2.5,3,4,5.4,3.4l64.2-15.5l16,68l5.8-9.2l-15.3-69l-61.8,15.6c-3.8,0.8-7.4-1.5-8.3-5.2l-13-62.8l-61.8,15.6
						c-3.6,0.9-7.3-1.4-8.3-5.2l-12.8-63.9L544.1,210.5z"/>
					<path style="fill:#EDDB13;" d="M569.6,170.1l-6.7,10.7l26.2-6.7l13.9,65.6c0.6,2.5,2.9,4,5.4,3.4l64.1-15.3l13.3,64.1
						c0.6,2.5,3,4,5.4,3.4l64.2-15.5l16,68l5.8-9.2l-15.3-69L700,285.2c-3.8,0.8-7.4-1.5-8.3-5.2l-13-62.8l-61.8,15.6
						c-3.6,0.9-7.3-1.4-8.3-5.2l-12.8-63.9L569.6,170.1z"/>
					<path style="fill:#EDDB13;" d="M518.5,250.9l-6.7,10.7l26.2-6.7l13.9,65.6c0.5,2.5,2.9,4,5.4,3.4l64.1-15.3l13.3,64.1
						c0.6,2.5,3,4,5.4,3.4l64.2-15.5l16,68l5.8-9.2l-15.3-69l-62.6,15c-3.8,0.8-6.4-0.6-7.3-4.4l-13.3-63l-62.1,15.1
						c-3.6,0.9-6.5-1-7.5-4.8l-13.2-63.8L518.5,250.9z"/>
					<path style="fill:#EDDB13;" d="M505.1,272.2l-6.7,10.7l26.2-6.7l13.9,65.6c0.5,2.5,2.9,4,5.4,3.4l64.1-15.3l13.3,64.1
						c0.6,2.5,3,4,5.4,3.4l64.2-15.5l15.1,69.4l6.7-10.6l-15.1-69.4l-62.4,15.1c-3.8,0.8-6.5-0.5-7.4-4.2l-13-62.9l-62.6,15
						c-3.6,0.9-6.2-0.7-7.2-4.6l-13.5-63.8L505.1,272.2z"/>
					<path style="fill:#EDDB13;" d="M479.5,313l-6.7,10.7l26.2-6.7l13.9,65.6c0.6,2.5,2.9,4,5.4,3.4l64.1-15.3l13.3,64.1
						c0.6,2.5,3,4,5.4,3.4l64.2-15.5l15,69.6l6.8-10.8l-15.3-69l-61.8,15.6c-3.8,0.8-7.4-1.5-8.3-5.2l-13-62.8l-61.8,15.6
						c-3.6,0.9-7.3-1.4-8.3-5.2l-12.8-63.9L479.5,313z"/>
					<path style="fill:#EDDB13;" d="M454,353.5l-6.7,10.7l26.2-6.7l13.9,65.6c0.6,2.5,2.9,4,5.4,3.4l64.1-15.3l13.3,64.1
						c0.6,2.5,3,4,5.4,3.4l64.2-15.5l15.3,69.2l6.5-10.4l-15.3-69l-61.8,15.6c-3.8,0.8-7.4-1.5-8.3-5.2l-13-62.8l-61.8,15.6
						c-3.6,0.9-7.3-1.4-8.3-5.2l-12.8-63.9L454,353.5z"/>
					<path style="fill:#E42A34;" d="M538.3,219.7l-6.7,10.7l26.2-6.7l13.9,65.6c0.5,2.5,2.9,4,5.4,3.4l64.1-15.3l13.3,64.1
						c0.6,2.5,3,4,5.4,3.4l64.2-15.5l16,68l5.8-9.2l-15.1-69.4l-63,15.2c-3.8,0.8-6-0.5-6.8-4.2l-13.1-63l-63.1,15.1
						c-3.6,0.9-5.6-0.3-6.6-4.1l-13.7-64.6L538.3,219.7z"/>
					<path style="fill:#E42A34;" d="M563.3,180l-6.7,10.7l26.2-6.7l13.9,65.6c0.6,2.5,2.9,4,5.4,3.4l64.1-15.3l13.3,64.1
						c0.6,2.5,3,4,5.4,3.4l64.2-15.5l16,68l5.8-9.2l-15.1-69.4l-63,15.2c-3.8,0.8-6-0.5-6.8-4.2l-13.1-63l-63.1,15.1
						c-3.6,0.9-5.6-0.3-6.6-4.1l-13.7-64.6L563.3,180z"/>
					<path style="fill:#E42A34;" d="M511.8,261.5l-6.7,10.7l26.2-6.7l13.9,65.6c0.6,2.5,2.9,4,5.4,3.4l64.1-15.3l13.3,64.1
						c0.6,2.5,3,4,5.4,3.4l64.2-15.5l15.1,69.4l7.5-11.9l-15.9-68.1l-63,15.2c-3.8,0.8-6-0.5-6.8-4.2l-13.1-63l-63.1,15.1
						c-3.6,0.9-5.6-0.3-6.6-4.1L538,254.9L511.8,261.5z"/>
					<path style="fill:#E42A34;" d="M485.5,303.4l-6.7,10.7l26.2-6.7l13.9,65.6c0.6,2.5,2.9,4,5.4,3.4l64.1-15.3l13.3,64.1
						c0.6,2.5,3,4,5.4,3.4l63.8-14.9l16,68l6.2-9.8L678,402.5l-63,15.2c-3.8,0.8-6-0.5-6.8-4.2l-13.1-63L532,365.5
						c-3.6,0.9-5.6-0.3-6.6-4.1l-13.7-64.6L485.5,303.4z"/>
					<path style="fill:#E42A34;" d="M459.8,344.2l-6.7,10.7l26.2-6.7l13.9,65.6c0.6,2.5,2.9,4,5.4,3.4l64.1-15.3l13.3,64.1
						c0.6,2.5,3,4,5.4,3.4l64.2-15.5l16,68l5.8-9.2l-15.1-69.4l-63,15.2c-3.8,0.8-6-0.5-6.8-4.2l-13.1-63l-63.1,15.1
						c-3.6,0.9-5.6-0.3-6.6-4.1L486,337.5L459.8,344.2z"/>
					<path style="fill:#179A54;" d="M531.7,230.2l-6.7,10.7l26.2-6.7l13.9,65.6c0.6,2.5,2.9,4,5.4,3.4l64.1-15.3l13.3,64.1
						c0.6,2.5,3.1,3.9,5.6,3.4l64-15.4l15.1,69.5l7.5-11.9l-15.9-68.2l-63,15.2c-3.8,0.8-6-0.5-6.8-4.2l-13.1-63l-63.1,15.1
						c-3.6,0.9-5.6-0.3-6.6-4.1l-13.7-64.6L531.7,230.2z"/>
					<path style="fill:#179A54;" d="M556.7,190.4l-6.7,10.7l26.2-6.7l13.9,65.6c0.6,2.5,2.9,4,5.4,3.4l64.1-15.3l13.3,64.1
						c0.6,2.5,3.1,3.9,5.6,3.4l64-15.4l15.1,69.5l7.5-11.9l-15.9-68.2l-63,15.2c-3.8,0.8-6-0.5-6.8-4.2l-13.1-63l-63.1,15.1
						c-3.6,0.9-5.6-0.3-6.6-4.1l-13.7-64.6L556.7,190.4z"/>
					<path style="fill:#179A54;" d="M491.9,293.3l-6.7,10.7l26.2-6.7l13.9,65.6c0.6,2.5,2.9,4,5.4,3.4l64.1-15.3l13.3,64.1
						c0.6,2.5,3,4,5.4,3.4l64.2-15.5l15.1,69.5l6.7-10.7l-15.1-69.4l-63,15.2c-3.8,0.8-6-0.5-6.8-4.2l-13.1-63l-63.1,15.1
						c-3.6,0.9-5.6-0.3-6.6-4.1L518,286.7L491.9,293.3z"/>
					<path style="fill:#179A54;" d="M466.4,333.7l-6.7,10.7l26.2-6.7l13.9,65.6c0.5,2.5,2.9,4,5.4,3.4l64.1-15.3l13.3,64.1
						c0.6,2.5,3,4,5.4,3.4l64.2-15.5l15.2,69.2l6.6-10.4l-15.1-69.4l-63,15.2c-3.8,0.8-6-0.5-6.8-4.2l-13.1-63l-63.1,15.1
						c-3.6,0.9-5.6-0.3-6.6-4.1l-13.7-64.6L466.4,333.7z"/>
					<path style="fill:#E1207B;" d="M525,240.8l-6.7,10.7l26.2-6.7l13.9,65.6c0.6,2.5,2.9,4,5.4,3.4l64.1-15.3l13.3,64.1
						c0.6,2.5,3,4,5.4,3.4l64.2-15.5l14.5,70.4l7.3-11.6l-15.1-69.4l-63,15.2c-3.8,0.8-5.8-0.4-6.7-4.2l-13.2-63l-63.1,15.1
						c-3.6,0.9-5.6-0.3-6.6-4.1l-13.7-64.6L525,240.8z"/>
					<path style="fill:#E1207B;" d="M498.5,282.7l-6.7,10.7l26.2-6.7l13.9,65.6c0.6,2.5,2.9,4,5.4,3.4l64.1-15.3l13.3,64.1
						c0.6,2.5,3,4,5.4,3.4l64.2-15.5l14.8,69.9l7-11.1l-15.1-69.4l-63,15.2c-3.8,0.8-6-0.5-6.8-4.2l-13.1-63l-63.1,15.1
						c-3.6,0.9-5.6-0.3-6.6-4.1l-13.7-64.6L498.5,282.7z"/>
					<path style="fill:#E1207B;" d="M473.1,323.2l-6.7,10.7l26.2-6.7l13.9,65.6c0.6,2.5,2.9,4,5.4,3.4l64.1-15.3l13.3,64.1
						c0.6,2.5,3,4,5.4,3.4l64.2-15.5l15.1,69.4l6.7-10.6l-15.1-69.4l-63,15.2c-3.8,0.8-6-0.5-6.8-4.2l-13.1-63l-63.1,15.1
						c-3.6,0.9-5.6-0.3-6.6-4.1l-13.7-64.6L473.1,323.2z"/>
					<path style="fill:#E1207B;" d="M447.4,363.8l-6.7,10.7l26.2-6.7l13.9,65.6c0.6,2.5,2.9,4,5.4,3.4l64.1-15.3l13.3,64.1
						c0.6,2.5,3,4,5.4,3.4l64.2-15.5l16,68l5.8-9.2l-15.1-69.4l-63,15.2c-3.8,0.8-6-0.5-6.8-4.2l-13.1-63L493.9,426
						c-3.6,0.9-5.6-0.3-6.6-4.1l-13.7-64.6L447.4,363.8z"/>
					<path style="fill:#E1207B;" d="M550.1,201l-6.7,10.7l26.2-6.7l13.9,65.6c0.6,2.5,2.9,4,5.4,3.4l64.1-15.3l13.3,64.1
						c0.6,2.5,3,4,5.4,3.4l64.2-15.5l16,68l5.8-9.2l-15.1-69.4l-63,15.2c-3.8,0.8-6-0.5-6.8-4.2l-13.1-63l-63.1,15.1
						c-3.6,0.9-5.6-0.3-6.6-4.1l-13.7-64.6L550.1,201z"/>
				</g>
				<g>
					<path style="fill:#EDDB13;" d="M575.5,230.3l-6.7,10.7l-5.2-26.6l-65.2,15.7c-2.5,0.6-4.8-0.9-5.4-3.4l-13.8-64.4l-63.6,15.7
						c-2.5,0.6-4.8-1-5.4-3.4l-13.7-64.6l-68.3,14.9l5.8-9.2l68.8-16l12.6,62.5c0.9,3.7,4.5,6,8.3,5.2l62.3-15.3l12.5,62.5
						c0.8,3.7,4.4,6,8.3,5.2l63.1-16L575.5,230.3z"/>
					<path style="fill:#EDDB13;" d="M601,189.9l-6.7,10.7L589,174l-65.2,15.7c-2.5,0.6-4.8-0.9-5.4-3.4l-13.8-64.4l-63.6,15.7
						c-2.5,0.6-4.8-1-5.4-3.4l-13.7-64.6l-68.3,14.9l5.8-9.2l68.8-16l12.6,62.5c0.9,3.7,4.5,6,8.3,5.2l62.3-15.3l12.5,62.5
						c0.8,3.7,4.4,6,8.3,5.2l63.1-16L601,189.9z"/>
					<path style="fill:#EDDB13;" d="M550,270.8l-6.7,10.7l-5.2-26.6l-65.2,15.7c-2.5,0.6-4.8-0.9-5.4-3.4l-13.8-64.4l-63.6,15.7
						c-2.5,0.6-4.8-1-5.4-3.4L371,150.5l-68.3,14.9l5.8-9.2l68.8-16l13.5,62.9c0.9,3.7,3.3,5.5,7.1,4.7l62.6-15.2l13.1,62.6
						c0.8,3.7,3.7,5.5,7.6,4.7l63.3-15.6L550,270.8z"/>
					<path style="fill:#EDDB13;" d="M536.7,292l-6.7,10.7l-5.2-26.6l-65.2,15.7c-2.5,0.6-4.8-0.9-5.4-3.4l-13.8-64.4l-63.6,15.7
						c-2.5,0.6-4.8-1-5.4-3.4l-13.7-64.6L288.5,188l6.7-10.6l69.2-16.3l13.3,62.8c0.9,3.7,3.3,5.7,7,4.9l62.3-15.3l13.5,62.9
						c0.8,3.7,3.3,5.3,7.2,4.6l63.4-15.3L536.7,292z"/>
					<path style="fill:#EDDB13;" d="M510.9,332.8l-6.7,10.7l-5.2-26.6l-65.2,15.7c-2.5,0.6-4.8-0.9-5.4-3.4l-13.8-64.4l-63.6,15.7
						c-2.5,0.6-4.9-1-5.4-3.4l-13.7-64.6l-69.2,16.4l6.8-10.8l68.8-16l12.6,62.5c0.9,3.7,4.5,6,8.3,5.2l62.3-15.3l12.5,62.5
						c0.8,3.7,4.4,6,8.3,5.2l63.1-16L510.9,332.8z"/>
					<path style="fill:#EDDB13;" d="M485.4,373.3l-6.7,10.7l-5.2-26.6l-65.2,15.7c-2.5,0.6-4.8-0.9-5.4-3.4L389,305.3l-63.6,15.7
						c-2.5,0.6-4.9-1-5.4-3.4l-13.7-64.6l-69,16.1l6.5-10.4l68.8-16l12.6,62.5c0.9,3.7,4.5,6,8.3,5.2l62.3-15.3l12.5,62.5
						c0.8,3.7,4.4,6,8.3,5.2l63.1-16L485.4,373.3z"/>
					<path style="fill:#E42A34;" d="M569.7,239.6l-6.7,10.7l-5.2-26.6l-65.2,15.7c-2.5,0.6-4.8-0.9-5.4-3.4l-13.8-64.4l-63.6,15.7
						c-2.5,0.6-4.8-1-5.4-3.4l-13.7-64.6l-68.3,14.9l5.8-9.2l69.1-16.3l13.5,63.4c0.9,3.7,3,5.2,6.8,4.4L480,161l13.6,63.4
						c0.8,3.7,2.7,4.9,6.6,4.2l64.2-15.5L569.7,239.6z"/>
					<path style="fill:#E42A34;" d="M594.7,199.8l-6.7,10.7l-5.2-26.6l-65.2,15.7c-2.5,0.6-4.8-0.9-5.4-3.4l-13.8-64.4l-63.6,15.7
						c-2.5,0.6-4.8-1-5.4-3.4l-13.7-64.6l-68.3,14.9l5.8-9.2l69.1-16.3l13.5,63.4c0.9,3.7,3,5.2,6.8,4.4l62.5-15.4l13.6,63.4
						c0.8,3.7,2.7,4.9,6.6,4.2l64.2-15.5L594.7,199.8z"/>
					<path style="fill:#E42A34;" d="M543.4,281.4l-6.7,10.7l-5.2-26.6l-65.2,15.7c-2.5,0.6-4.8-0.9-5.4-3.4L447,213.4l-63.6,15.7
						c-2.5,0.6-4.9-1-5.4-3.4l-13.7-64.6l-69.2,16.3l7.5-11.9l68.3-15l13.5,63.4c0.9,3.7,3,5.2,6.8,4.4l62.5-15.4l13.6,63.4
						c0.8,3.7,2.7,4.9,6.6,4.2l64.2-15.5L543.4,281.4z"/>
					<path style="fill:#E42A34;" d="M516.9,323.2l-6.7,10.7l-5.2-26.6L439.8,323c-2.5,0.6-4.8-0.9-5.4-3.4l-13.8-64.4L357,270.9
						c-2.5,0.6-4.9-1-5.4-3.4l-14-64l-68.3,14.9l6.2-9.8l69.1-16.3l13.5,63.4c0.9,3.7,3,5.2,6.8,4.4l62.5-15.4l13.6,63.4
						c0.8,3.7,2.7,4.9,6.6,4.2l64.2-15.5L516.9,323.2z"/>
					<path style="fill:#E42A34;" d="M491.2,364l-6.7,10.7l-5.2-26.6l-65.2,15.7c-2.5,0.6-4.8-0.9-5.4-3.4L394.9,296l-63.6,15.7
						c-2.5,0.6-4.9-1-5.4-3.4l-13.7-64.6l-68.3,14.9l5.8-9.2l69.1-16.3l13.5,63.4c0.9,3.7,3,5.2,6.8,4.4l62.5-15.4l13.6,63.4
						c0.8,3.7,2.7,4.9,6.6,4.2l64.2-15.5L491.2,364z"/>
					<path style="fill:#179A54;" d="M563.1,250l-6.7,10.7l-5.2-26.6l-65.2,15.7c-2.5,0.6-4.8-0.9-5.4-3.4L466.7,182l-63.6,15.7
						c-2.5,0.6-4.9-1.1-5.5-3.6L384,129.7l-69.2,16.4l7.5-11.9l68.3-15l13.5,63.4c0.9,3.7,3,5.2,6.8,4.4l62.5-15.4l13.6,63.4
						c0.8,3.7,2.7,4.9,6.6,4.2l64.2-15.5L563.1,250z"/>
					<path style="fill:#179A54;" d="M588.1,210.3l-6.7,10.7l-5.2-26.6L511,210.1c-2.5,0.6-4.8-0.9-5.4-3.4l-13.8-64.4l-63.6,15.7
						c-2.5,0.6-4.9-1.1-5.5-3.6l-13.7-64.4l-69.2,16.4l7.5-11.9l68.3-15l13.5,63.4c0.9,3.7,3,5.2,6.8,4.4l62.5-15.4l13.6,63.4
						c0.8,3.7,2.7,4.9,6.6,4.2l64.2-15.5L588.1,210.3z"/>
					<path style="fill:#179A54;" d="M523.3,313.1l-6.7,10.7l-5.2-26.6L446.1,313c-2.5,0.6-4.8-0.9-5.4-3.4l-13.8-64.4l-63.6,15.7
						c-2.5,0.6-4.8-1-5.4-3.4l-13.7-64.6L275,209.2l6.7-10.7l69.1-16.3l13.5,63.4c0.9,3.7,3,5.2,6.8,4.4l62.5-15.4l13.6,63.4
						c0.8,3.7,2.7,4.9,6.6,4.2l64.2-15.5L523.3,313.1z"/>
					<path style="fill:#179A54;" d="M497.8,353.5l-6.7,10.7l-5.2-26.6l-65.2,15.7c-2.5,0.6-4.8-0.9-5.4-3.4l-13.8-64.4l-63.6,15.7
						c-2.5,0.6-4.8-1-5.4-3.4l-13.7-64.6l-69,16.1l6.6-10.4l69.1-16.3l13.5,63.4c0.9,3.7,3,5.2,6.8,4.4l62.5-15.4l13.6,63.4
						c0.8,3.7,2.7,4.9,6.6,4.2l64.2-15.5L497.8,353.5z"/>
					<path style="fill:#E1207B;" d="M556.4,260.6l-6.7,10.7l-5.2-26.6l-65.2,15.7c-2.5,0.6-4.8-0.9-5.4-3.4l-13.8-64.4l-63.6,15.7
						c-2.5,0.6-4.9-1-5.4-3.4l-13.7-64.6l-69.7,17.2l7.3-11.6l69.1-16.3l13.5,63.4c0.9,3.7,2.9,5.1,6.7,4.3l62.6-15.3l13.6,63.4
						c0.8,3.7,2.7,4.9,6.6,4.2l64.2-15.5L556.4,260.6z"/>
					<path style="fill:#E1207B;" d="M530,302.6l-6.7,10.7l-5.2-26.6l-65.2,15.7c-2.5,0.6-4.8-0.9-5.4-3.4l-13.8-64.4l-63.6,15.7
						c-2.5,0.6-4.9-1-5.4-3.4L351,182.3L281.5,199l7-11.1l69.1-16.3l13.5,63.4c0.9,3.7,3,5.2,6.8,4.4l62.5-15.4l13.6,63.4
						c0.8,3.7,2.7,4.9,6.6,4.2l64.2-15.5L530,302.6z"/>
					<path style="fill:#E1207B;" d="M504.5,343l-6.7,10.7l-5.2-26.6l-65.2,15.7c-2.5,0.6-4.8-0.9-5.4-3.4L408.1,275l-63.6,15.7
						c-2.5,0.6-4.8-1-5.4-3.4l-13.7-64.6l-69.1,16.3l6.7-10.6l69.1-16.3l13.5,63.4c0.9,3.7,3,5.2,6.8,4.4l62.5-15.4l13.6,63.4
						c0.8,3.7,2.7,4.9,6.6,4.2l64.2-15.5L504.5,343z"/>
					<path style="fill:#E1207B;" d="M478.8,383.7l-6.7,10.7l-5.2-26.6l-65.2,15.7c-2.5,0.6-4.8-0.9-5.4-3.4l-13.8-64.4l-63.6,15.7
						c-2.5,0.6-4.8-1-5.4-3.4l-13.7-64.6l-68.3,14.9l5.8-9.2l69.1-16.3l13.5,63.4c0.9,3.7,3,5.2,6.8,4.4l62.5-15.4l13.6,63.4
						c0.8,3.7,2.7,4.9,6.6,4.2l64.2-15.5L478.8,383.7z"/>
					<path style="fill:#E1207B;" d="M581.5,220.8l-6.7,10.7l-5.2-26.6l-65.2,15.7c-2.5,0.6-4.8-0.9-5.4-3.4l-13.8-64.4l-63.6,15.7
						c-2.5,0.6-4.9-1-5.4-3.4l-13.7-64.6l-68.3,14.9l5.8-9.2l69.1-16.3l13.5,63.4c0.9,3.7,3,5.2,6.8,4.4l62.5-15.4l13.6,63.4
						c0.8,3.7,2.7,4.9,6.6,4.2l64.2-15.5L581.5,220.8z"/>
				</g>
			</g>
			<g>
				<g>
					<path style="fill:#EDDB13;" d="M-22.3,382.1l6.1,11l6.8-26.2l64.2,19.6c2.4,0.7,4.9-0.7,5.6-3.1L77.9,320l62.5,19.4
						c2.4,0.7,4.9-0.7,5.6-3.1l17.5-63.6l67.3,19l-5.3-9.6l-67.8-20l-16.3,61.7c-1.1,3.7-4.9,5.7-8.6,4.7l-61.3-19L55.5,371
						c-1,3.6-4.8,5.7-8.6,4.7L-15.2,356L-22.3,382.1z"/>
					<path style="fill:#EDDB13;" d="M-45.4,340.3l6.1,11l6.8-26.2l64.2,19.6c2.4,0.7,4.9-0.7,5.6-3.1l17.6-63.5l62.5,19.4
						c2.4,0.7,4.9-0.7,5.6-3.1l17.5-63.6l67.3,19l-5.3-9.6l-67.8-20l-16.3,61.7c-1.1,3.7-4.9,5.7-8.6,4.7l-61.3-19l-16.2,61.6
						c-1,3.6-4.7,5.7-8.6,4.7l-62.1-19.7L-45.4,340.3z"/>
					<path style="fill:#EDDB13;" d="M0.7,424.1l6.1,11l6.8-26.2l64.2,19.6c2.4,0.7,4.9-0.7,5.6-3.1l17.6-63.5l62.5,19.4
						c2.4,0.7,4.9-0.7,5.6-3.1l17.5-63.6l67.3,19l-5.3-9.6l-67.8-20l-17.2,62c-1.1,3.7-3.7,5.3-7.4,4.3l-61.5-18.9l-16.8,61.7
						c-1,3.6-4,5.3-7.9,4.3L7.8,398L0.7,424.1z"/>
					<path style="fill:#EDDB13;" d="M12.8,446.1l6.1,11l6.8-26.2l64.2,19.6c2.4,0.7,4.9-0.7,5.6-3.1l17.6-63.5l62.5,19.4
						c2.4,0.7,4.9-0.7,5.6-3.1l17.5-63.6l68,20.3l-6-11l-68.1-20.4l-17,61.9c-1.1,3.7-3.6,5.5-7.3,4.5l-61.3-19l-17.2,62
						c-1,3.6-3.7,5.1-7.5,4.1l-62.3-19L12.8,446.1z"/>
					<path style="fill:#EDDB13;" d="M36.1,488.3l6.1,11l6.8-26.2l64.2,19.6c2.4,0.7,4.9-0.7,5.6-3.1l17.6-63.5l62.5,19.4
						c2.4,0.7,4.9-0.7,5.6-3.1l17.5-63.6l68.1,20.5l-6.1-11.1l-67.8-20L200,429.9c-1.1,3.7-4.9,5.7-8.6,4.7l-61.3-19l-16.2,61.6
						c-1,3.6-4.7,5.7-8.6,4.7l-62.1-19.7L36.1,488.3z"/>
					<path style="fill:#EDDB13;" d="M59.1,530.2l6.1,11l6.8-26.2l64.2,19.6c2.4,0.7,4.9-0.7,5.6-3.1l17.6-63.5l62.5,19.4
						c2.4,0.7,4.9-0.7,5.6-3.1l17.5-63.6l67.9,20.1l-5.9-10.8l-67.8-20L223,471.8c-1.1,3.7-4.9,5.7-8.6,4.7l-61.3-19l-16.2,61.6
						c-1,3.6-4.7,5.7-8.6,4.7l-62.1-19.7L59.1,530.2z"/>
					<path style="fill:#E42A34;" d="M-17.1,391.7l6.1,11l6.8-26.2L60,396.1c2.4,0.7,4.9-0.7,5.6-3.1l17.6-63.5l62.5,19.4
						c2.4,0.7,4.9-0.7,5.6-3.1l17.5-63.6l67.3,19l-5.3-9.6l-68-20.3l-17.2,62.4c-1.1,3.7-3.3,5-7,3.9l-61.4-19.1l-17.3,62.5
						c-1,3.6-3,4.8-6.8,3.8l-63.2-19.3L-17.1,391.7z"/>
					<path style="fill:#E42A34;" d="M-39.7,350.5l6.1,11l6.8-26.2L37.3,355c2.4,0.7,4.9-0.7,5.6-3.1l17.6-63.5l62.5,19.4
						c2.4,0.7,4.9-0.7,5.6-3.1l17.5-63.6l67.3,19l-5.3-9.6l-68-20.3L123,292.6c-1.1,3.7-3.3,5-7,3.9l-61.4-19.1L37.2,340
						c-1,3.6-3,4.8-6.8,3.8l-63.2-19.3L-39.7,350.5z"/>
					<path style="fill:#E42A34;" d="M6.7,435.1l6.1,11l6.8-26.2l64.2,19.6c2.4,0.7,4.9-0.7,5.6-3.1l17.6-63.5l62.5,19.4
						c2.4,0.7,4.9-0.7,5.6-3.1l17.5-63.6l68.1,20.4l-6.8-12.3l-67.3-19l-17.2,62.4c-1.1,3.7-3.3,5-7,3.9L100.9,362l-17.3,62.5
						c-1,3.6-3,4.8-6.8,3.8L13.6,409L6.7,435.1z"/>
					<path style="fill:#E42A34;" d="M30.6,478.4l6.1,11l6.8-26.2l64.2,19.6c2.4,0.7,4.9-0.7,5.6-3.1l17.6-63.5l62.5,19.4
						c2.4,0.7,4.9-0.7,5.6-3.1l17.8-63.1l67.3,19l-5.6-10.1l-68-20.3l-17.2,62.4c-1.1,3.7-3.3,5-7,3.9l-61.4-19.1l-17.3,62.5
						c-1,3.6-3,4.8-6.8,3.8l-63.2-19.3L30.6,478.4z"/>
					<path style="fill:#E42A34;" d="M53.8,520.6l6.1,11l6.8-26.2l64.2,19.6c2.4,0.7,4.9-0.7,5.6-3.1l17.6-63.5l62.5,19.4
						c2.4,0.7,4.9-0.7,5.6-3.1l17.5-63.6l67.3,19l-5.3-9.6l-68-20.3l-17.2,62.4c-1.1,3.7-3.3,5-7,3.9l-61.4-19.1L130.7,510
						c-1,3.6-3,4.8-6.8,3.8l-63.2-19.3L53.8,520.6z"/>
					<path style="fill:#179A54;" d="M-11.1,402.5l6.1,11l6.8-26.2L65.9,407c2.4,0.7,4.9-0.7,5.6-3.1l17.6-63.5l62.5,19.4
						c2.4,0.7,4.9-0.8,5.7-3.3l17.5-63.5l68.1,20.5l-6.8-12.3l-67.3-19.1l-17.2,62.4c-1.1,3.7-3.3,5-7,3.9l-61.4-19.1L65.8,392
						c-1,3.6-3,4.8-6.8,3.8l-63.2-19.3L-11.1,402.5z"/>
					<path style="fill:#179A54;" d="M-33.7,361.4l6.1,11l6.8-26.2l64.2,19.6c2.4,0.7,4.9-0.7,5.6-3.1l17.6-63.5l62.5,19.4
						c2.4,0.7,4.9-0.8,5.7-3.3l17.5-63.5l68.1,20.5l-6.8-12.3L146.1,241l-17.2,62.4c-1.1,3.7-3.3,5-7,3.9l-61.4-19.1l-17.3,62.5
						c-1,3.6-3,4.8-6.8,3.8l-63.2-19.3L-33.7,361.4z"/>
					<path style="fill:#179A54;" d="M24.9,467.9l6.1,11l6.8-26.2l64.2,19.6c2.4,0.7,4.9-0.7,5.6-3.1l17.6-63.5l62.5,19.4
						c2.4,0.7,4.9-0.7,5.6-3.1l17.5-63.6l68.1,20.5l-6.1-11.1l-68-20.3L187.5,410c-1.1,3.7-3.3,5-7,3.9l-61.4-19.1l-17.3,62.5
						c-1,3.6-3,4.8-6.8,3.8l-63.2-19.3L24.9,467.9z"/>
					<path style="fill:#179A54;" d="M47.9,509.8l6.1,11l6.8-26.2l64.2,19.6c2.4,0.7,4.9-0.7,5.6-3.1l17.6-63.5l62.5,19.4
						c2.4,0.7,4.9-0.7,5.6-3.1l17.5-63.6l67.9,20.2l-5.9-10.8l-68-20.3l-17.2,62.4c-1.1,3.7-3.3,5-7,3.9l-61.4-19.1l-17.3,62.5
						c-1,3.6-3,4.8-6.8,3.8l-63.2-19.3L47.9,509.8z"/>
					<path style="fill:#E1207B;" d="M-5.1,413.5l6.1,11l6.8-26.2L72,417.9c2.4,0.7,4.9-0.7,5.6-3.1l17.6-63.5l62.5,19.4
						c2.4,0.7,4.9-0.7,5.6-3.1l17.5-63.6l68.6,21.4l-6.6-12l-68-20.3l-17.2,62.4c-1.1,3.7-3.2,4.9-6.9,3.9l-61.5-19l-17.3,62.5
						c-1,3.6-3,4.8-6.8,3.8L1.8,387.4L-5.1,413.5z"/>
					<path style="fill:#E1207B;" d="M18.8,457l6.1,11l6.8-26.2l64.2,19.6c2.4,0.7,4.9-0.7,5.6-3.1l17.6-63.5l62.5,19.4
						c2.4,0.7,4.9-0.7,5.6-3.1l17.5-63.6l68.3,20.8l-6.3-11.4l-68-20.3l-17.2,62.4c-1.1,3.7-3.3,5-7,3.9L113,383.9l-17.3,62.5
						c-1,3.6-3,4.8-6.8,3.8l-63.2-19.3L18.8,457z"/>
					<path style="fill:#E1207B;" d="M41.9,498.8l6.1,11l6.8-26.2l64.2,19.6c2.4,0.7,4.9-0.7,5.6-3.1l17.6-63.5l62.5,19.4
						c2.4,0.7,4.9-0.7,5.6-3.1l17.5-63.6l68,20.3l-6-11l-68-20.3l-17.2,62.4c-1.1,3.7-3.3,5-7,3.9l-61.4-19.1l-17.3,62.5
						c-1,3.6-3,4.8-6.8,3.8l-63.2-19.3L41.9,498.8z"/>
					<path style="fill:#E1207B;" d="M65.1,541l6.1,11l6.8-26.2l64.2,19.6c2.4,0.7,4.9-0.7,5.6-3.1l17.6-63.5l62.5,19.4
						c2.4,0.7,4.9-0.7,5.6-3.1l17.5-63.6l67.3,19l-5.3-9.6l-68-20.3L227.7,483c-1.1,3.7-3.3,5-7,3.9l-61.4-19.1l-17.3,62.5
						c-1,3.6-3,4.8-6.8,3.8l-63.2-19.3L65.1,541z"/>
					<path style="fill:#E1207B;" d="M-27.7,372.3l6.1,11l6.8-26.2l64.2,19.6c2.4,0.7,4.9-0.7,5.6-3.1l17.6-63.5l62.5,19.4
						c2.4,0.7,4.9-0.7,5.6-3.1l17.5-63.6l67.3,19l-5.3-9.6l-68-20.3l-17.2,62.4c-1.1,3.7-3.3,5-7,3.9l-61.4-19.1l-17.3,62.5
						c-1,3.6-3,4.8-6.8,3.8l-63.2-19.3L-27.7,372.3z"/>
				</g>
				<g>
					<path style="fill:#EDDB13;" d="M410.2,144.2l6.1,11l6.8-26.2l64.2,19.6c2.4,0.7,4.9-0.7,5.6-3.1L510.4,82l62.5,19.4
						c2.4,0.7,4.9-0.7,5.6-3.1l17.5-63.6l67.3,19l-5.3-9.6l-67.8-20l-16.3,61.7c-1.1,3.7-4.9,5.7-8.6,4.7l-61.3-19L488,133.1
						c-1,3.6-4.7,5.7-8.6,4.7l-62.1-19.7L410.2,144.2z"/>
					<path style="fill:#EDDB13;" d="M387.2,102.3l6.1,11l6.8-26.2l64.2,19.6c2.4,0.7,4.9-0.7,5.6-3.1l17.6-63.5l62.5,19.4
						c2.4,0.7,4.9-0.7,5.6-3.1l17.5-63.6l67.3,19l-5.3-9.6l-67.8-20L551,43.9c-1.1,3.7-4.9,5.7-8.6,4.7l-61.3-19L465,91.2
						c-1,3.6-4.7,5.7-8.6,4.7l-62.1-19.7L387.2,102.3z"/>
					<path style="fill:#EDDB13;" d="M433.2,186.2l6.1,11l6.8-26.2l64.2,19.6c2.4,0.7,4.9-0.7,5.6-3.1l17.6-63.5l62.5,19.4
						c2.4,0.7,4.9-0.7,5.6-3.1l17.5-63.6l67.3,19l-5.3-9.6l-67.8-20l-17.2,62c-1.1,3.7-3.7,5.3-7.4,4.3l-61.5-18.9l-16.8,61.7
						c-1,3.6-4,5.3-7.9,4.3l-62.2-19.3L433.2,186.2z"/>
					<path style="fill:#EDDB13;" d="M445.3,208.1l6.1,11l6.8-26.2l64.2,19.6c2.4,0.7,4.9-0.7,5.6-3.1l17.6-63.5l62.5,19.4
						c2.4,0.7,4.9-0.7,5.6-3.1l17.5-63.6l68,20.3l-6-11l-68.1-20.4l-17,61.9c-1.1,3.7-3.6,5.5-7.3,4.5l-61.3-19l-17.2,62
						c-1,3.6-3.7,5.1-7.5,4.1l-62.3-19L445.3,208.1z"/>
					<path style="fill:#EDDB13;" d="M468.6,250.4l6.1,11l6.8-26.2l64.2,19.6c2.4,0.7,4.9-0.7,5.6-3.1l17.6-63.5l62.5,19.4
						c2.4,0.7,4.9-0.7,5.6-3.1l17.5-63.6l68.1,20.5l-6.1-11.1l-67.8-20L632.5,192c-1.1,3.7-4.9,5.7-8.6,4.7l-61.3-19l-16.2,61.6
						c-1,3.6-4.7,5.7-8.6,4.7l-62.1-19.7L468.6,250.4z"/>
					<path style="fill:#EDDB13;" d="M491.7,292.3l6.1,11l6.8-26.2l64.2,19.6c2.4,0.7,4.9-0.7,5.6-3.1l17.6-63.5l62.5,19.4
						c2.4,0.7,4.9-0.7,5.6-3.1l17.5-63.6l67.9,20.1l-5.9-10.8l-67.8-20l-16.3,61.7c-1.1,3.7-4.9,5.7-8.6,4.7l-61.3-19l-16.2,61.6
						c-1,3.6-4.8,5.7-8.6,4.7l-62.1-19.7L491.7,292.3z"/>
					<path style="fill:#E42A34;" d="M415.5,153.8l6.1,11l6.8-26.2l64.2,19.6c2.4,0.7,4.9-0.7,5.6-3.1l17.6-63.5l62.5,19.4
						c2.4,0.7,4.9-0.7,5.6-3.1l17.5-63.6l67.3,19l-5.3-9.6l-68-20.3l-17.2,62.4c-1.1,3.7-3.3,5-7,3.9l-61.4-19.1l-17.3,62.5
						c-1,3.6-3,4.8-6.8,3.8l-63.2-19.3L415.5,153.8z"/>
					<path style="fill:#E42A34;" d="M392.8,112.6l6.1,11l6.8-26.2l64.2,19.6c2.4,0.7,4.9-0.7,5.6-3.1l17.6-63.5l62.5,19.4
						c2.4,0.7,4.9-0.7,5.6-3.1l17.5-63.6l67.3,19l-5.3-9.6l-68-20.3l-17.2,62.4c-1.1,3.7-3.3,5-7,3.9L487,39.5L469.7,102
						c-1,3.6-3,4.8-6.8,3.8l-63.2-19.3L392.8,112.6z"/>
					<path style="fill:#E42A34;" d="M439.2,197.1l6.1,11l6.8-26.2l64.2,19.6c2.4,0.7,4.9-0.7,5.6-3.1l17.6-63.5l62.5,19.4
						c2.4,0.7,4.9-0.7,5.6-3.1l17.5-63.6l68.1,20.4l-6.8-12.3l-67.3-19l-17.2,62.4c-1.1,3.7-3.3,5-7,3.9L533.4,124l-17.3,62.5
						c-1,3.6-3,4.8-6.8,3.8L446.1,171L439.2,197.1z"/>
					<path style="fill:#E42A34;" d="M463.1,240.4l6.1,11l6.8-26.2l64.2,19.6c2.4,0.7,4.9-0.7,5.6-3.1l17.6-63.5l62.5,19.4
						c2.4,0.7,4.9-0.7,5.6-3.1l17.8-63.1l67.3,19l-5.6-10.1L643,120l-17.2,62.4c-1.1,3.7-3.3,5-7,3.9l-61.4-19.1L540,229.8
						c-1,3.6-3,4.8-6.8,3.8L470,214.3L463.1,240.4z"/>
					<path style="fill:#E42A34;" d="M486.4,282.6l6.1,11l6.8-26.2l64.2,19.6c2.4,0.7,4.9-0.7,5.6-3.1l17.6-63.5l62.5,19.4
						c2.4,0.7,4.9-0.7,5.6-3.1l17.5-63.6l67.3,19l-5.3-9.6l-68-20.3L649,224.7c-1.1,3.7-3.3,5-7,3.9l-61.4-19.1l-17.3,62.5
						c-1,3.6-3,4.8-6.8,3.8l-63.2-19.3L486.4,282.6z"/>
					<path style="fill:#179A54;" d="M421.4,164.6l6.1,11l6.8-26.2l64.2,19.6c2.4,0.7,4.9-0.7,5.6-3.1l17.6-63.5l62.5,19.4
						c2.4,0.7,4.9-0.8,5.7-3.3l17.5-63.5l68.1,20.5l-6.8-12.3l-67.3-19.1l-17.2,62.4c-1.1,3.7-3.3,5-7,3.9l-61.4-19.1L498.3,154
						c-1,3.6-3,4.8-6.8,3.8l-63.2-19.3L421.4,164.6z"/>
					<path style="fill:#179A54;" d="M398.8,123.4l6.1,11l6.8-26.2l64.2,19.6c2.4,0.7,4.9-0.7,5.6-3.1L499,61.3l62.5,19.4
						c2.4,0.7,4.9-0.8,5.7-3.3L584.7,14l68.1,20.5L646,22.1L578.6,3l-17.2,62.4c-1.1,3.7-3.3,5-7,3.9L493,50.3l-17.3,62.5
						c-1,3.6-3,4.8-6.8,3.8l-63.2-19.3L398.8,123.4z"/>
					<path style="fill:#179A54;" d="M457.4,230l6.1,11l6.8-26.2l64.2,19.6c2.4,0.7,4.9-0.7,5.6-3.1l17.6-63.5l62.5,19.4
						c2.4,0.7,4.9-0.7,5.6-3.1l17.5-63.6l68.1,20.5l-6.1-11.1l-68-20.3L620.1,172c-1.1,3.7-3.3,5-7,3.9l-61.4-19.1l-17.3,62.5
						c-1,3.6-3,4.8-6.8,3.8l-63.2-19.3L457.4,230z"/>
					<path style="fill:#179A54;" d="M480.4,271.8l6.1,11l6.8-26.2l64.2,19.6c2.4,0.7,4.9-0.7,5.6-3.1l17.6-63.5l62.5,19.4
						c2.4,0.7,4.9-0.7,5.6-3.1l17.5-63.6l67.9,20.2l-5.9-10.8l-68-20.3l-17.2,62.4c-1.1,3.7-3.3,5-7,3.9l-61.4-19.1l-17.3,62.5
						c-1,3.6-3,4.8-6.8,3.8l-63.2-19.3L480.4,271.8z"/>
					<path style="fill:#E1207B;" d="M427.4,175.6l6.1,11l6.8-26.2l64.2,19.6c2.4,0.7,4.9-0.7,5.6-3.1l17.6-63.5l62.5,19.4
						c2.4,0.7,4.9-0.7,5.6-3.1l17.5-63.6l68.6,21.4l-6.6-12l-68-20.3l-17.2,62.4c-1.1,3.7-3.2,4.9-6.9,3.9l-61.5-19L504.3,165
						c-1,3.6-3,4.8-6.8,3.8l-63.2-19.3L427.4,175.6z"/>
					<path style="fill:#E1207B;" d="M451.3,219.1l6.1,11l6.8-26.2l64.2,19.6c2.4,0.7,4.9-0.7,5.6-3.1l17.6-63.5l62.5,19.4
						c2.4,0.7,4.9-0.7,5.6-3.1l17.5-63.6l68.3,20.8l-6.3-11.4l-68-20.3L614,161.1c-1.1,3.7-3.3,5-7,3.9L545.5,146l-17.3,62.5
						c-1,3.6-3,4.8-6.8,3.8L458.2,193L451.3,219.1z"/>
					<path style="fill:#E1207B;" d="M474.4,260.9l6.1,11l6.8-26.2l64.2,19.6c2.4,0.7,4.9-0.7,5.6-3.1l17.6-63.5l62.5,19.4
						c2.4,0.7,4.9-0.7,5.6-3.1l17.5-63.6l68,20.3l-6-11l-68-20.3l-17.2,62.4c-1.1,3.7-3.3,5-7,3.9l-61.4-19.1l-17.3,62.5
						c-1,3.6-3,4.8-6.8,3.8l-63.2-19.3L474.4,260.9z"/>
					<path style="fill:#E1207B;" d="M497.6,303l6.1,11l6.8-26.2l64.2,19.6c2.4,0.7,4.9-0.7,5.6-3.1l17.6-63.5l62.5,19.4
						c2.4,0.7,4.9-0.7,5.6-3.1l17.5-63.6l67.3,19l-5.3-9.6l-68-20.3l-17.2,62.4c-1.1,3.7-3.3,5-7,3.9l-61.4-19.1l-17.3,62.5
						c-1,3.6-3,4.8-6.8,3.8l-63.2-19.3L497.6,303z"/>
					<path style="fill:#E1207B;" d="M404.8,134.3l6.1,11l6.8-26.2l64.2,19.6c2.4,0.7,4.9-0.7,5.6-3.1L505,72.2l62.5,19.4
						c2.4,0.7,4.9-0.7,5.6-3.1l17.5-63.6l67.3,19l-5.3-9.6l-68-20.3l-17.2,62.4c-1.1,3.7-3.3,5-7,3.9L499,61.3l-17.3,62.5
						c-1,3.6-3,4.8-6.8,3.8l-63.2-19.3L404.8,134.3z"/>
				</g>
				<g>
					<path style="fill:#EDDB13;" d="M442.7,126.3l6.1,11L423,129l-17.8,64.7c-0.7,2.4-3.2,3.8-5.6,3.1l-63.1-19.1l-17.1,63.2
						c-0.7,2.4-3.2,3.8-5.6,3.1l-63.1-19.3l-20,67l-5.3-9.6l19.4-68l60.8,19.3c3.7,1,7.4-1,8.6-4.7l16.8-61.9l60.8,19.3
						c3.6,1.1,7.4-0.9,8.6-4.7l16.5-63L442.7,126.3z"/>
					<path style="fill:#EDDB13;" d="M419.7,84.4l6.1,11L400,87.2l-17.8,64.7c-0.7,2.4-3.2,3.8-5.6,3.1l-63.1-19.1L296.5,199
						c-0.7,2.4-3.2,3.8-5.6,3.1l-63.1-19.3l-20,67l-5.3-9.6l19.4-68l60.8,19.3c3.7,1,7.5-1,8.6-4.7l16.8-61.9l60.8,19.3
						c3.6,1.1,7.4-0.9,8.6-4.7l16.5-63L419.7,84.4z"/>
					<path style="fill:#EDDB13;" d="M465.9,168.2l6.1,11l-25.8-8.3l-17.8,64.7c-0.7,2.4-3.2,3.8-5.6,3.1l-63.1-19.1l-17.1,63.2
						c-0.7,2.4-3.2,3.8-5.6,3.1l-63.1-19.3l-20,67l-5.3-9.6l19.4-68l61.6,18.7c3.7,1,6.5-0.2,7.6-3.9l17-62.1l61.1,18.8
						c3.6,1.1,6.6-0.6,7.8-4.4l17-62.9L465.9,168.2z"/>
					<path style="fill:#EDDB13;" d="M478,190.2l6.1,11l-25.8-8.3l-17.8,64.7c-0.7,2.4-3.2,3.8-5.6,3.1l-63.1-19.1l-17.1,63.2
						c-0.7,2.4-3.2,3.8-5.6,3.1L286,288.6l-19.2,68.4l-6-11l19.2-68.4l61.4,18.7c3.7,1,6.6-0.1,7.7-3.8l16.8-62l61.6,18.7
						c3.6,1.1,6.3-0.4,7.5-4.1l17.3-62.8L478,190.2z"/>
					<path style="fill:#EDDB13;" d="M501.2,232.5l6.1,11l-25.8-8.3l-17.8,64.7c-0.7,2.4-3.2,3.8-5.6,3.1L395,283.9l-17.1,63.2
						c-0.7,2.4-3.2,3.8-5.6,3.1l-63.1-19.3l-19.1,68.5l-6.1-11.1l19.4-68l60.8,19.3c3.7,1,7.5-1,8.6-4.7l16.8-61.9l60.8,19.3
						c3.6,1.1,7.4-0.9,8.6-4.7l16.5-63L501.2,232.5z"/>
					<path style="fill:#EDDB13;" d="M524.2,274.4l6.1,11l-25.8-8.3l-17.8,64.7c-0.7,2.4-3.2,3.8-5.6,3.1L418,325.8L401,389
						c-0.7,2.4-3.2,3.8-5.6,3.1l-63.1-19.3l-19.3,68.2l-5.9-10.8l19.4-68l60.8,19.3c3.7,1,7.4-1,8.6-4.7l16.8-61.9l60.8,19.3
						c3.6,1.1,7.4-0.9,8.6-4.7l16.5-63L524.2,274.4z"/>
					<path style="fill:#E42A34;" d="M448,135.9l6.1,11l-25.8-8.3l-17.8,64.7c-0.7,2.4-3.2,3.8-5.6,3.1l-63.1-19.1l-17.1,63.2
						c-0.7,2.4-3.2,3.8-5.6,3.1L256,234.3l-20,67l-5.3-9.6l19.2-68.3l62,18.9c3.7,1,6-0.1,7.1-3.8l16.8-62.1l62.1,18.8
						c3.6,1.1,5.6,0,6.8-3.7l17.5-63.7L448,135.9z"/>
					<path style="fill:#E42A34;" d="M425.4,94.7l6.1,11l-25.8-8.3l-17.8,64.7c-0.7,2.4-3.2,3.8-5.6,3.1l-63.1-19.1l-17.1,63.2
						c-0.7,2.4-3.2,3.8-5.6,3.1l-63.1-19.3l-20,67l-5.3-9.6l19.2-68.3l62,18.9c3.7,1,6-0.1,7.1-3.8l16.8-62.1l62.1,18.8
						c3.6,1.1,5.6,0,6.8-3.7l17.5-63.7L425.4,94.7z"/>
					<path style="fill:#E42A34;" d="M471.9,179.1l6.1,11l-25.8-8.3l-17.8,64.7c-0.7,2.4-3.2,3.8-5.6,3.1l-63.1-19.1l-17.1,63.2
						c-0.7,2.4-3.2,3.8-5.6,3.1l-63.1-19.3L260.7,346l-6.8-12.3l20-67l62,18.9c3.7,1,6-0.1,7.1-3.8l16.8-62.1l62.1,18.8
						c3.6,1.1,5.6,0,6.8-3.7l17.5-63.7L471.9,179.1z"/>
					<path style="fill:#E42A34;" d="M495.7,222.5l6.1,11l-25.8-8.3l-17.8,64.7c-0.7,2.4-3.2,3.8-5.6,3.1l-63.1-19.1l-17.1,63.2
						c-0.7,2.4-3.2,3.8-5.6,3.1L304,321.5l-20,67l-5.6-10.1l19.2-68.3l62,18.9c3.7,1,6-0.1,7.1-3.8l16.8-62.1l62.1,18.8
						c3.6,1.1,5.6,0,6.8-3.7l17.5-63.7L495.7,222.5z"/>
					<path style="fill:#E42A34;" d="M518.9,264.7l6.1,11l-25.8-8.3l-17.8,64.7c-0.7,2.4-3.2,3.8-5.6,3.1l-63.1-19.1l-17.1,63.2
						c-0.7,2.4-3.2,3.8-5.6,3.1l-63.1-19.3l-20,67l-5.3-9.6l19.2-68.3l62,18.9c3.7,1,6-0.1,7.1-3.8l16.8-62.1l62.1,18.8
						c3.6,1.1,5.6,0,6.8-3.7l17.5-63.7L518.9,264.7z"/>
					<path style="fill:#179A54;" d="M454,146.7l6.1,11l-25.8-8.3l-17.8,64.7c-0.7,2.4-3.2,3.8-5.6,3.1l-63.1-19.1l-17.1,63.2
						c-0.7,2.4-3.3,3.7-5.8,3l-63-19.2l-19.2,68.5l-6.8-12.3l19.9-67.1l62,18.9c3.7,1,6-0.1,7.1-3.8l16.8-62.1l62.1,18.8
						c3.6,1.1,5.6,0,6.8-3.7l17.5-63.7L454,146.7z"/>
					<path style="fill:#179A54;" d="M431.3,105.5l6.1,11l-25.8-8.3L393.8,173c-0.7,2.4-3.2,3.8-5.6,3.1l-63.1-19.1l-17.1,63.2
						c-0.7,2.4-3.3,3.7-5.8,3l-63-19.2l-19.2,68.5l-6.8-12.3l19.9-67.1l62,18.9c3.7,1,6-0.1,7.1-3.8l16.8-62.1l62.1,18.8
						c3.6,1.1,5.6,0,6.8-3.7l17.5-63.7L431.3,105.5z"/>
					<path style="fill:#179A54;" d="M489.9,212.1l6.1,11l-25.8-8.3l-17.8,64.7c-0.7,2.4-3.2,3.8-5.6,3.1l-63.1-19.1l-17.1,63.2
						c-0.7,2.4-3.2,3.8-5.6,3.1L298,310.5L278.8,379l-6.1-11.1l19.2-68.3l62,18.9c3.7,1,6-0.1,7.1-3.8l16.8-62.1l62.1,18.8
						c3.6,1.1,5.6,0,6.8-3.7l17.5-63.7L489.9,212.1z"/>
					<path style="fill:#179A54;" d="M513,253.9l6.1,11l-25.8-8.3l-17.8,64.7c-0.7,2.4-3.2,3.8-5.6,3.1l-63.1-19.1l-17.1,63.2
						c-0.7,2.4-3.2,3.8-5.6,3.1L321,352.3l-19.3,68.2l-5.9-10.8l19.2-68.3l62,18.9c3.7,1,6-0.1,7.1-3.8l16.8-62.1l62.1,18.8
						c3.6,1.1,5.6,0,6.8-3.7l17.5-63.7L513,253.9z"/>
					<path style="fill:#E1207B;" d="M460,157.6l6.1,11l-25.8-8.3l-17.8,64.7c-0.7,2.4-3.2,3.8-5.6,3.1L353.8,209l-17.1,63.2
						c-0.7,2.4-3.2,3.8-5.6,3.1L268,256.1l-18.7,69.4l-6.6-12l19.2-68.3l62,18.9c3.7,1,5.9-0.1,7-3.8l16.9-62.1l62.1,18.8
						c3.6,1.1,5.6,0,6.8-3.7l17.5-63.7L460,157.6z"/>
					<path style="fill:#E1207B;" d="M484,201.1l6.1,11l-25.8-8.3l-17.8,64.7c-0.7,2.4-3.2,3.8-5.6,3.1l-63.1-19.1l-17.1,63.2
						c-0.7,2.4-3.2,3.8-5.6,3.1L292,299.5l-19,68.8l-6.3-11.4l19.2-68.3l62,18.9c3.7,1,6-0.1,7.1-3.8l16.8-62.1l62.1,18.8
						c3.6,1.1,5.6,0,6.8-3.7l17.5-63.7L484,201.1z"/>
					<path style="fill:#E1207B;" d="M506.9,243l6.1,11l-25.8-8.3l-17.8,64.7c-0.7,2.4-3.2,3.8-5.6,3.1l-63.1-19.1l-17.1,63.2
						c-0.7,2.4-3.2,3.8-5.6,3.1L315,341.4l-19.2,68.4l-6-11l19.2-68.3l62,18.9c3.7,1,6-0.1,7.1-3.8l16.8-62.1l62.1,18.8
						c3.6,1.1,5.6,0,6.8-3.7l17.5-63.7L506.9,243z"/>
					<path style="fill:#E1207B;" d="M530.1,285.1l6.1,11l-25.8-8.3l-17.8,64.7c-0.7,2.4-3.2,3.8-5.6,3.1L424,336.5l-17.1,63.2
						c-0.7,2.4-3.2,3.8-5.6,3.1l-63.1-19.3l-20,67l-5.3-9.6l19.2-68.3l62,18.9c3.7,1,6-0.1,7.1-3.8l16.8-62.1l62.1,18.8
						c3.6,1.1,5.6,0,6.8-3.7l17.5-63.7L530.1,285.1z"/>
					<path style="fill:#E1207B;" d="M437.3,116.4l6.1,11l-25.8-8.3l-17.8,64.7c-0.7,2.4-3.2,3.8-5.6,3.1l-63.1-19.1L314.1,231
						c-0.7,2.4-3.2,3.8-5.6,3.1l-63.1-19.3l-20,67l-5.3-9.6l19.2-68.3l62,18.9c3.7,1,6-0.1,7.1-3.8l16.8-62.1l62.1,18.8
						c3.6,1.1,5.6,0,6.8-3.7l17.5-63.7L437.3,116.4z"/>
				</g>
			</g>
			<g>
				<g>
					<path style="fill:#EDDB13;" d="M226.9,189.1l0.9,12.6l17.1-21l50.1,44.6c1.9,1.7,4.7,1.4,6.4-0.5l42.5-50.3l48.7,43.7
						c1.9,1.7,4.7,1.4,6.4-0.5l42.5-50.5l53.2,45.3l-0.8-10.9l-53.2-46.5l-40.5,49.2c-2.5,2.9-6.8,3.2-9.7,0.7l-47.8-42.8
						l-40.5,49.2c-2.4,2.9-6.7,3.2-9.8,0.7l-48.2-43.8L226.9,189.1z"/>
					<path style="fill:#EDDB13;" d="M223.5,141.5l0.9,12.6l17.1-21l50.1,44.6c1.9,1.7,4.7,1.4,6.4-0.5l42.5-50.4l48.7,43.7
						c1.9,1.7,4.7,1.4,6.4-0.5l42.5-50.5l53.2,45.3l-0.8-10.9l-53.2-46.5l-40.5,49.2c-2.5,2.9-6.8,3.2-9.7,0.7l-47.8-42.8
						l-40.5,49.2c-2.4,2.9-6.7,3.2-9.8,0.7l-48.2-43.8L223.5,141.5z"/>
					<path style="fill:#EDDB13;" d="M230.3,236.9l0.9,12.6l17.1-21l50.1,44.6c1.9,1.7,4.7,1.4,6.4-0.5l42.5-50.4l48.7,43.7
						c1.9,1.7,4.7,1.4,6.4-0.5l42.5-50.5l53.2,45.3l-0.8-10.9l-53.2-46.5l-41.5,49.2c-2.5,2.9-5.5,3.3-8.5,0.8l-48-42.9l-41,49
						c-2.4,2.9-5.8,3.1-8.9,0.6l-48.5-43.5L230.3,236.9z"/>
					<path style="fill:#EDDB13;" d="M232.1,261.9l0.9,12.6l17.1-21l50.1,44.6c1.9,1.7,4.7,1.4,6.4-0.5l42.5-50.3l48.7,43.7
						c1.9,1.7,4.7,1.4,6.4-0.5l42.5-50.5l53.3,46.9l-0.9-12.5l-53.3-46.9l-41.3,49.1c-2.5,2.9-5.6,3.5-8.5,1l-47.8-42.9l-41.5,49.2
						c-2.4,2.9-5.5,3.1-8.5,0.6l-48.7-43.3L232.1,261.9z"/>
					<path style="fill:#EDDB13;" d="M235.7,310l0.9,12.6l17.1-21l50.1,44.6c1.9,1.7,4.7,1.4,6.4-0.5l42.5-50.4l48.7,43.7
						c1.9,1.7,4.7,1.4,6.4-0.5l42.5-50.5l53.4,47.1l-0.9-12.7l-53.2-46.5L409,325.3c-2.5,2.9-6.8,3.2-9.7,0.7l-47.8-42.8l-40.5,49.2
						c-2.4,2.9-6.7,3.2-9.8,0.7l-48.2-43.8L235.7,310z"/>
					<path style="fill:#EDDB13;" d="M239.2,357.7l0.9,12.6l17.1-21l50.1,44.6c1.9,1.7,4.7,1.4,6.4-0.5l42.5-50.4l48.7,43.7
						c1.9,1.7,4.7,1.4,6.4-0.5l42.5-50.5l53.3,46.6l-0.9-12.2L453,323.7L412.5,373c-2.5,2.9-6.8,3.2-9.7,0.7L355,330.9l-40.5,49.2
						c-2.4,2.9-6.7,3.2-9.8,0.7L256.6,337L239.2,357.7z"/>
					<path style="fill:#E42A34;" d="M227.7,200.1l0.9,12.6l17.1-21l50.1,44.6c1.9,1.7,4.7,1.4,6.4-0.5l42.5-50.4l48.7,43.7
						c1.9,1.7,4.7,1.4,6.4-0.5l42.5-50.5l53.2,45.3l-0.8-10.9l-53.3-46.9l-41.7,49.6c-2.5,2.9-5.1,3.1-8,0.7l-47.9-43L302,222.5
						c-2.4,2.9-4.7,3.1-7.8,0.6l-49.4-43.9L227.7,200.1z"/>
					<path style="fill:#E42A34;" d="M224.3,153.2l0.9,12.6l17.1-21l50.1,44.6c1.9,1.7,4.7,1.4,6.4-0.5l42.5-50.4l48.7,43.7
						c1.9,1.7,4.7,1.4,6.4-0.5l42.5-50.5l53.2,45.3l-0.8-10.9L438,118.8l-41.7,49.6c-2.5,2.9-5.1,3.1-8,0.7l-47.9-43l-41.8,49.6
						c-2.4,2.9-4.7,3.1-7.8,0.6l-49.4-43.9L224.3,153.2z"/>
					<path style="fill:#E42A34;" d="M231.2,249.4l0.9,12.6l17.1-21l50.1,44.6c1.9,1.7,4.7,1.4,6.4-0.5l42.5-50.4l48.7,43.7
						c1.9,1.7,4.7,1.4,6.4-0.5l42.5-50.5l53.3,46.9l-1-14L444.9,215l-41.7,49.6c-2.5,2.9-5.1,3.1-8,0.7l-47.9-43l-41.8,49.6
						c-2.4,2.9-4.7,3.1-7.8,0.6l-49.4-43.9L231.2,249.4z"/>
					<path style="fill:#E42A34;" d="M234.9,298.7l0.9,12.6l17.1-21l50.1,44.6c1.9,1.7,4.7,1.4,6.4-0.5l42.5-50.4l48.7,43.7
						c1.9,1.7,4.7,1.4,6.4-0.5l42.5-49.9l53.2,45.3l-0.8-11.5l-53.3-46.9l-41.7,49.6c-2.5,2.9-5.1,3.1-8,0.7l-47.9-43l-41.8,49.6
						c-2.4,2.9-4.7,3.1-7.8,0.6L252,277.8L234.9,298.7z"/>
					<path style="fill:#E42A34;" d="M238.4,346.7l0.9,12.6l17.1-21l50.1,44.6c1.9,1.7,4.7,1.4,6.4-0.5l42.5-50.3l48.7,43.7
						c1.9,1.7,4.7,1.4,6.4-0.5l42.5-50.5l53.2,45.3l-0.8-10.9l-53.3-46.9l-41.7,49.6c-2.5,2.9-5.1,3.1-8,0.7l-47.9-43l-41.8,49.6
						c-2.4,2.9-4.7,3.1-7.8,0.6l-49.4-43.9L238.4,346.7z"/>
					<path style="fill:#179A54;" d="M228.6,212.4l0.9,12.6l17.1-21l50.1,44.6c1.9,1.7,4.7,1.4,6.4-0.5l42.5-50.3l48.7,43.7
						c1.9,1.7,4.8,1.3,6.5-0.6l42.4-50.4l53.3,47l-1-14L442.3,178l-41.7,49.6c-2.5,2.9-5.1,3.1-8,0.7l-47.9-43l-41.8,49.6
						c-2.4,2.9-4.7,3.1-7.8,0.6l-49.4-43.9L228.6,212.4z"/>
					<path style="fill:#179A54;" d="M225.2,165.5l0.9,12.6l17.1-21l50.1,44.6c1.9,1.7,4.7,1.4,6.4-0.5l42.5-50.4l48.7,43.7
						c1.9,1.7,4.8,1.3,6.5-0.6l42.4-50.4l53.3,47l-1-14l-53.2-45.4l-41.7,49.6c-2.5,2.9-5.1,3.1-8,0.7l-47.9-43L299.5,188
						c-2.4,2.9-4.7,3.1-7.8,0.6l-49.4-43.9L225.2,165.5z"/>
					<path style="fill:#179A54;" d="M234,286.8l0.9,12.6l17.1-21l50.1,44.6c1.9,1.7,4.7,1.4,6.4-0.5l42.5-50.4l48.7,43.7
						c1.9,1.7,4.7,1.4,6.4-0.5l42.5-50.5l53.3,47l-0.9-12.6l-53.3-46.9L406.1,302c-2.5,2.9-5.1,3.1-8,0.7l-47.9-43l-41.8,49.6
						c-2.4,2.9-4.7,3.1-7.8,0.6l-49.4-43.9L234,286.8z"/>
					<path style="fill:#179A54;" d="M237.5,334.4l0.9,12.6l17.1-21l50.1,44.6c1.9,1.7,4.7,1.4,6.4-0.5l42.5-50.4l48.7,43.7
						c1.9,1.7,4.7,1.4,6.4-0.5l42.5-50.5l53.3,46.7l-0.9-12.3l-53.3-46.9l-41.7,49.6c-2.5,2.9-5.1,3.1-8,0.7l-47.9-43l-41.8,49.6
						c-2.4,2.9-4.7,3.1-7.8,0.6l-49.4-43.9L237.5,334.4z"/>
					<path style="fill:#E1207B;" d="M229.5,224.8l0.9,12.6l17.1-21l50.1,44.6c1.9,1.7,4.7,1.4,6.4-0.5l42.5-50.3l48.7,43.7
						c1.9,1.7,4.7,1.4,6.4-0.5l42.5-50.5l53.4,48l-1-13.6l-53.3-46.9L401.6,240c-2.5,2.9-5,3.1-7.9,0.6l-48-42.9l-41.8,49.6
						c-2.4,2.9-4.7,3.1-7.8,0.6L246.7,204L229.5,224.8z"/>
					<path style="fill:#E1207B;" d="M233.1,274.4l0.9,12.6l17.1-21l50.1,44.6c1.9,1.7,4.7,1.4,6.4-0.5l42.5-50.4l48.7,43.7
						c1.9,1.7,4.7,1.4,6.4-0.5l42.5-50.5l53.4,47.4l-0.9-13L446.8,240l-41.7,49.6c-2.5,2.9-5.1,3.1-8,0.7l-47.9-43l-41.8,49.6
						c-2.4,2.9-4.7,3.1-7.8,0.6l-49.4-43.9L233.1,274.4z"/>
					<path style="fill:#E1207B;" d="M236.6,322l0.9,12.6l17.1-21l50.1,44.6c1.9,1.7,4.7,1.4,6.4-0.5l42.5-50.4l48.7,43.7
						c1.9,1.7,4.7,1.4,6.4-0.5l42.5-50.5l53.3,46.9l-0.9-12.5l-53.3-46.9l-41.7,49.6c-2.5,2.9-5.1,3.1-8,0.7l-47.9-43l-41.8,49.6
						c-2.4,2.9-4.7,3.1-7.8,0.6l-49.4-43.9L236.6,322z"/>
					<path style="fill:#E1207B;" d="M240.1,370l0.9,12.6l17.1-21l50.1,44.6c1.9,1.7,4.7,1.4,6.4-0.5l42.5-50.4l48.7,43.7
						c1.9,1.7,4.7,1.4,6.4-0.5l42.5-50.5l53.2,45.3l-0.8-10.9l-53.3-46.9l-41.7,49.6c-2.5,2.9-5.1,3.1-8,0.7l-47.9-43l-41.8,49.6
						c-2.4,2.9-4.7,3.1-7.8,0.6l-49.4-43.9L240.1,370z"/>
					<path style="fill:#E1207B;" d="M226.1,177.9l0.9,12.6l17.1-21l50.1,44.6c1.9,1.7,4.7,1.4,6.4-0.5l42.5-50.4l48.7,43.7
						c1.9,1.7,4.7,1.4,6.4-0.5l42.5-50.5l53.2,45.3l-0.8-10.9l-53.3-46.9l-41.7,49.6c-2.5,2.9-5.1,3.1-8,0.7l-47.9-43l-41.8,49.6
						c-2.4,2.9-4.7,3.1-7.8,0.6l-49.4-43.9L226.1,177.9z"/>
				</g>
				<g>
					<path style="fill:#EDDB13;" d="M719.3,153.3l0.9,12.6l17.1-21l50.1,44.6c1.9,1.7,4.7,1.4,6.4-0.5l42.5-50.4l48.7,43.7
						c1.9,1.7,4.7,1.4,6.4-0.5l42.5-50.5l53.2,45.3l-0.8-10.9l-53.2-46.5l-40.5,49.2c-2.5,2.9-6.8,3.2-9.7,0.7l-47.8-42.8
						l-40.5,49.2c-2.4,2.9-6.7,3.2-9.8,0.7l-48.2-43.8L719.3,153.3z"/>
					<path style="fill:#EDDB13;" d="M715.8,105.7l0.9,12.6l17.1-21l50.1,44.6c1.9,1.7,4.7,1.4,6.4-0.5l42.5-50.4l48.7,43.7
						c1.9,1.7,4.7,1.4,6.4-0.5l42.5-50.5l53.2,45.3l-0.8-10.9l-53.2-46.5L889.1,121c-2.5,2.9-6.8,3.2-9.7,0.7l-47.8-42.8l-40.5,49.2
						c-2.4,2.9-6.7,3.2-9.8,0.7L733.2,85L715.8,105.7z"/>
					<path style="fill:#EDDB13;" d="M722.7,201.1l0.9,12.6l17.1-21l50.1,44.6c1.9,1.7,4.7,1.4,6.4-0.5l42.5-50.4l48.7,43.7
						c1.9,1.7,4.7,1.4,6.4-0.5l42.5-50.5l53.2,45.3l-0.8-10.9l-53.2-46.5L895,216.3c-2.5,2.9-5.5,3.3-8.5,0.8l-48-42.9l-41,49
						c-2.4,2.9-5.8,3.1-8.9,0.6l-48.5-43.5L722.7,201.1z"/>
					<path style="fill:#EDDB13;" d="M724.5,226.1l0.9,12.6l17.1-21l50.1,44.6c1.9,1.7,4.7,1.4,6.4-0.5l42.5-50.4l48.7,43.7
						c1.9,1.7,4.7,1.4,6.4-0.5l42.5-50.5l53.3,46.9l-0.9-12.5l-53.3-46.9l-41.3,49.1c-2.5,2.9-5.6,3.5-8.5,1l-47.8-42.9l-41.5,49.2
						c-2.4,2.9-5.5,3.1-8.5,0.6l-48.7-43.3L724.5,226.1z"/>
					<path style="fill:#EDDB13;" d="M728.1,274.3l0.9,12.6l17.1-21l50.1,44.6c1.9,1.7,4.7,1.4,6.4-0.5l42.5-50.4l48.7,43.7
						c1.9,1.7,4.7,1.4,6.4-0.5l42.5-50.5l53.4,47.1l-0.9-12.7l-53.2-46.5l-40.5,49.2c-2.5,2.9-6.8,3.2-9.7,0.7l-47.8-42.8
						l-40.5,49.2c-2.4,2.9-6.7,3.2-9.8,0.7l-48.2-43.8L728.1,274.3z"/>
					<path style="fill:#EDDB13;" d="M731.5,321.9l0.9,12.6l17.1-21l50.1,44.6c1.9,1.7,4.7,1.4,6.4-0.5l42.5-50.4l48.7,43.7
						c1.9,1.7,4.7,1.4,6.4-0.5l42.5-50.5l53.3,46.6l-0.9-12.2L945.4,288l-40.5,49.2c-2.5,2.9-6.8,3.2-9.7,0.7l-47.8-42.8l-40.5,49.2
						c-2.4,2.9-6.7,3.2-9.8,0.7l-48.2-43.8L731.5,321.9z"/>
					<path style="fill:#E42A34;" d="M720.1,164.3l0.9,12.6l17.1-21l50.1,44.6c1.9,1.7,4.7,1.4,6.4-0.5l42.5-50.3l48.7,43.7
						c1.9,1.7,4.7,1.4,6.4-0.5l42.5-50.5l53.2,45.3l-0.8-10.9l-53.3-46.9l-41.7,49.6c-2.5,2.9-5.1,3.1-8,0.7l-47.9-43l-41.8,49.6
						c-2.4,2.9-4.7,3.1-7.8,0.6l-49.4-43.9L720.1,164.3z"/>
					<path style="fill:#E42A34;" d="M716.7,117.4l0.9,12.6l17.1-21l50.1,44.6c1.9,1.7,4.7,1.4,6.4-0.5l42.5-50.4l48.7,43.7
						c1.9,1.7,4.7,1.4,6.4-0.5l42.5-50.5l53.2,45.3l-0.8-10.9l-53.3-46.9l-41.7,49.6c-2.5,2.9-5.1,3.1-8,0.7l-47.9-43L791,139.9
						c-2.4,2.9-4.7,3.1-7.8,0.6l-49.4-43.9L716.7,117.4z"/>
					<path style="fill:#E42A34;" d="M723.6,213.6l0.9,12.6l17.1-21l50.1,44.6c1.9,1.7,4.7,1.4,6.4-0.5l42.5-50.3l48.7,43.7
						c1.9,1.7,4.7,1.4,6.4-0.5l42.5-50.5l53.3,46.9l-1-14l-53.2-45.4l-41.7,49.6c-2.5,2.9-5.1,3.1-8,0.7l-47.9-43l-41.8,49.6
						c-2.4,2.9-4.7,3.1-7.8,0.6l-49.4-43.9L723.6,213.6z"/>
					<path style="fill:#E42A34;" d="M727.3,262.9l0.9,12.6l17.1-21l50.1,44.6c1.9,1.7,4.7,1.4,6.4-0.5l42.5-50.4L893,292
						c1.9,1.7,4.7,1.4,6.4-0.5l42.5-49.9l53.2,45.3l-0.8-11.5L941,228.5l-41.7,49.6c-2.5,2.9-5.1,3.1-8,0.7l-47.9-43l-41.8,49.6
						c-2.4,2.9-4.7,3.1-7.8,0.6L744.4,242L727.3,262.9z"/>
					<path style="fill:#E42A34;" d="M730.7,311l0.9,12.6l17.1-21l50.1,44.6c1.9,1.7,4.7,1.4,6.4-0.5l42.5-50.4l48.7,43.7
						c1.9,1.7,4.7,1.4,6.4-0.5l42.5-50.5l53.2,45.3l-0.8-10.9l-53.3-46.9l-41.7,49.6c-2.5,2.9-5.1,3.1-8,0.7l-47.9-43L805,333.4
						c-2.4,2.9-4.7,3.1-7.8,0.6l-49.4-43.9L730.7,311z"/>
					<path style="fill:#179A54;" d="M721,176.6l0.9,12.6l17.1-21l50.1,44.6c1.9,1.7,4.7,1.4,6.4-0.5L838,162l48.7,43.7
						c1.9,1.7,4.8,1.3,6.5-0.6l42.4-50.4l53.3,47l-1-14l-53.2-45.4L893,191.8c-2.5,2.9-5.1,3.1-8,0.7l-47.9-43l-41.8,49.6
						c-2.4,2.9-4.7,3.1-7.8,0.6l-49.4-43.9L721,176.6z"/>
					<path style="fill:#179A54;" d="M717.6,129.7l0.9,12.6l17.1-21l50.1,44.6c1.9,1.7,4.7,1.4,6.4-0.5l42.5-50.4l48.7,43.7
						c1.9,1.7,4.8,1.3,6.5-0.6l42.4-50.4l53.3,47l-1-14l-53.2-45.4l-41.7,49.6c-2.5,2.9-5.1,3.1-8,0.7l-47.9-43l-41.8,49.6
						c-2.4,2.9-4.7,3.1-7.8,0.6l-49.4-43.9L717.6,129.7z"/>
					<path style="fill:#179A54;" d="M726.4,251l0.9,12.6l17.1-21l50.1,44.6c1.9,1.7,4.7,1.4,6.4-0.5l42.5-50.4l48.7,43.7
						c1.9,1.7,4.7,1.4,6.4-0.5l42.5-50.5l53.3,47l-0.9-12.6l-53.3-46.9l-41.7,49.6c-2.5,2.9-5.1,3.1-8,0.7l-47.9-43l-41.8,49.6
						c-2.4,2.9-4.7,3.1-7.8,0.6l-49.4-43.9L726.4,251z"/>
					<path style="fill:#179A54;" d="M729.8,298.7l0.9,12.6l17.1-21l50.1,44.6c1.9,1.7,4.7,1.4,6.4-0.5l42.5-50.4l48.7,43.7
						c1.9,1.7,4.7,1.4,6.4-0.5l42.5-50.5l53.3,46.7l-0.9-12.3l-53.3-46.9l-41.7,49.6c-2.5,2.9-5.1,3.1-8,0.7l-47.9-43l-41.8,49.6
						c-2.4,2.9-4.7,3.1-7.8,0.6L747,277.8L729.8,298.7z"/>
					<path style="fill:#E1207B;" d="M721.9,189.1l0.9,12.6l17.1-21l50.1,44.6c1.9,1.7,4.7,1.4,6.4-0.5l42.5-50.3l48.7,43.7
						c1.9,1.7,4.7,1.4,6.4-0.5l42.5-50.5l53.4,48l-1-13.6l-53.3-46.9l-41.7,49.6c-2.5,2.9-5,3.1-7.9,0.6L838,162l-41.8,49.6
						c-2.4,2.9-4.7,3.1-7.8,0.6L739,168.2L721.9,189.1z"/>
					<path style="fill:#E1207B;" d="M725.4,238.6l0.9,12.6l17.1-21l50.1,44.6c1.9,1.7,4.7,1.4,6.4-0.5l42.5-50.4l48.7,43.7
						c1.9,1.7,4.7,1.4,6.4-0.5l42.5-50.5l53.4,47.4l-0.9-13l-53.3-46.9l-41.7,49.6c-2.5,2.9-5.1,3.1-8,0.7l-47.9-43l-41.8,49.6
						c-2.4,2.9-4.7,3.1-7.8,0.6l-49.4-43.9L725.4,238.6z"/>
					<path style="fill:#E1207B;" d="M728.9,286.2l0.9,12.6l17.1-21l50.1,44.6c1.9,1.7,4.7,1.4,6.4-0.5l42.5-50.4l48.7,43.7
						c1.9,1.7,4.7,1.4,6.4-0.5l42.5-50.5l53.3,46.9l-0.9-12.5l-53.3-46.9L901,301.4c-2.5,2.9-5.1,3.1-8,0.7l-47.9-43l-41.8,49.6
						c-2.4,2.9-4.7,3.1-7.8,0.6l-49.4-43.9L728.9,286.2z"/>
					<path style="fill:#E1207B;" d="M732.4,334.2l0.9,12.6l17.1-21l50.1,44.6c1.9,1.7,4.7,1.4,6.4-0.5l42.5-50.4l48.7,43.7
						c1.9,1.7,4.7,1.4,6.4-0.5l42.5-50.5l53.2,45.3l-0.8-10.9l-53.3-46.9l-41.7,49.6c-2.5,2.9-5.1,3.1-8,0.7l-47.9-43l-41.8,49.6
						c-2.4,2.9-4.7,3.1-7.8,0.6l-49.4-43.9L732.4,334.2z"/>
					<path style="fill:#E1207B;" d="M718.5,142.2l0.9,12.6l17.1-21l50.1,44.6c1.9,1.7,4.7,1.4,6.4-0.5l42.5-50.4l48.7,43.7
						c1.9,1.7,4.7,1.4,6.4-0.5l42.5-50.5l53.2,45.3l-0.8-10.9l-53.3-46.9l-41.7,49.6c-2.5,2.9-5.1,3.1-8,0.7l-47.9-43l-41.8,49.6
						c-2.4,2.9-4.7,3.1-7.8,0.6l-49.4-43.9L718.5,142.2z"/>
				</g>
				<g>
					<path style="fill:#EDDB13;" d="M756.3,150.7l0.9,12.6l-20-18.3l-43.2,51.4c-1.6,1.9-4.5,2.1-6.4,0.5l-49.3-43.7l-41.9,50.3
						c-1.6,1.9-4.5,2.1-6.4,0.5L540.8,160l-46.1,52.5l-0.8-10.9l45.9-53.7l47.2,42.9c2.9,2.5,7.2,2.2,9.7-0.7l41.1-49.3l47.2,42.9
						c2.8,2.5,7.1,2.2,9.8-0.7l41.3-50.3L756.3,150.7z"/>
					<path style="fill:#EDDB13;" d="M752.9,103l0.9,12.6l-20-18.3l-43.2,51.4c-1.6,1.9-4.5,2.1-6.4,0.5L635,105.5l-41.9,50.3
						c-1.6,1.9-4.5,2.1-6.4,0.5l-49.3-43.9l-46.1,52.5l-0.8-10.9l45.9-53.7l47.2,42.9c2.9,2.5,7.2,2.2,9.7-0.7l41.1-49.3l47.2,42.9
						c2.8,2.5,7.1,2.2,9.8-0.7L732.7,85L752.9,103z"/>
					<path style="fill:#EDDB13;" d="M759.9,198.4l0.9,12.6l-20-18.3l-43.2,51.4c-1.6,1.9-4.5,2.1-6.4,0.5L642,200.9l-41.9,50.3
						c-1.6,1.9-4.5,2.1-6.4,0.5l-49.3-43.9l-46.1,52.5l-0.8-10.9l45.9-53.7l48.2,42.6c2.9,2.5,6,2.5,8.5-0.4l41.3-49.4l47.7,42.6
						c2.8,2.5,6.2,2.2,8.9-0.7l41.7-50.1L759.9,198.4z"/>
					<path style="fill:#EDDB13;" d="M761.7,223.4l0.9,12.6l-20-18.3l-43.2,51.4c-1.6,1.9-4.5,2.1-6.4,0.5l-49.3-43.7l-41.9,50.3
						c-1.6,1.9-4.5,2.1-6.4,0.5l-49.3-43.9l-46,54.1l-0.9-12.5l46-54.2l48,42.7c2.9,2.5,6,2.6,8.6-0.2l41.1-49.3L691,256
						c2.8,2.5,5.9,2.3,8.5-0.6l41.9-49.9L761.7,223.4z"/>
					<path style="fill:#EDDB13;" d="M765.1,271.6l0.9,12.6l-20-18.3l-43.2,51.4c-1.6,1.9-4.5,2.1-6.4,0.5L647.2,274l-41.9,50.3
						c-1.6,1.9-4.5,2.1-6.4,0.5l-49.3-43.9l-46,54.3l-0.9-12.7l45.9-53.7l47.2,42.9c2.9,2.5,7.2,2.2,9.7-0.7l41.1-49.3l47.2,42.9
						c2.8,2.5,7.1,2.2,9.8-0.7l41.3-50.3L765.1,271.6z"/>
					<path style="fill:#EDDB13;" d="M768.6,319.3l0.9,12.6l-20-18.3l-43.2,51.4c-1.6,1.9-4.5,2.1-6.4,0.5l-49.3-43.7L608.8,372
						c-1.6,1.9-4.5,2.1-6.4,0.5l-49.3-43.9l-46,53.9l-0.9-12.2l45.9-53.7l47.2,42.9c2.9,2.5,7.2,2.2,9.7-0.7l41.1-49.3l47.2,42.9
						c2.8,2.5,7.1,2.2,9.8-0.7l41.3-50.3L768.6,319.3z"/>
					<path style="fill:#E42A34;" d="M757.1,161.6l0.9,12.6l-20-18.3l-43.2,51.4c-1.6,1.9-4.5,2.1-6.4,0.5L639.2,164l-41.9,50.3
						c-1.6,1.9-4.5,2.1-6.4,0.5l-49.3-43.9l-46.1,52.5l-0.8-10.9l46-54.1l48.4,43c2.9,2.5,5.5,2.4,8-0.5l41.2-49.4l48.6,43
						c2.8,2.5,5.1,2.4,7.8-0.6l42.5-50.6L757.1,161.6z"/>
					<path style="fill:#E42A34;" d="M753.7,114.7l0.9,12.6l-20-18.3l-43.2,51.4c-1.6,1.9-4.5,2.1-6.4,0.5l-49.3-43.7l-41.9,50.3
						c-1.6,1.9-4.5,2.1-6.4,0.5l-49.3-43.9l-46.1,52.5l-0.8-10.9l46-54.1l48.4,43c2.9,2.5,5.5,2.4,8-0.5l41.2-49.4l48.6,43
						c2.8,2.5,5.1,2.4,7.8-0.6l42.5-50.6L753.7,114.7z"/>
					<path style="fill:#E42A34;" d="M760.8,210.9l0.9,12.6l-20-18.3l-43.2,51.4c-1.6,1.9-4.5,2.1-6.4,0.5l-49.3-43.7L601,263.6
						c-1.6,1.9-4.5,2.1-6.4,0.5l-49.3-43.9l-46,54.2l-1-14l46.1-52.6l48.4,43c2.9,2.5,5.5,2.4,8-0.5l41.2-49.4l48.6,43
						c2.8,2.5,5.1,2.4,7.8-0.6l42.5-50.6L760.8,210.9z"/>
					<path style="fill:#E42A34;" d="M764.3,260.2l0.9,12.6l-20-18.3l-43.2,51.4c-1.6,1.9-4.5,2.1-6.4,0.5l-49.3-43.7l-41.9,50.3
						c-1.6,1.9-4.5,2.1-6.4,0.5l-49.3-43.2l-46.1,52.5l-0.8-11.5l46-54.1l48.4,43c2.9,2.5,5.5,2.4,8-0.5l41.2-49.4l48.6,43
						c2.8,2.5,5.1,2.4,7.8-0.6l42.5-50.6L764.3,260.2z"/>
					<path style="fill:#E42A34;" d="M767.8,308.3l0.9,12.6l-20-18.3l-43.2,51.4c-1.6,1.9-4.5,2.1-6.4,0.5l-49.3-43.7L608,361
						c-1.6,1.9-4.5,2.1-6.4,0.5l-49.3-43.9l-46.1,52.5l-0.8-10.9l46-54.1l48.4,43c2.9,2.5,5.5,2.4,8-0.5l41.2-49.4l48.6,43
						c2.8,2.5,5.1,2.4,7.8-0.6l42.5-50.6L767.8,308.3z"/>
					<path style="fill:#179A54;" d="M758,173.9l0.9,12.6l-20-18.3l-43.2,51.4c-1.6,1.9-4.5,2.1-6.4,0.5l-49.3-43.7l-41.9,50.3
						c-1.6,1.9-4.6,2-6.5,0.4l-49.2-43.7l-46,54.2l-1-14l46.1-52.6l48.4,43c2.9,2.5,5.5,2.4,8-0.5l41.2-49.4l48.6,43
						c2.8,2.5,5.1,2.4,7.8-0.6l42.5-50.6L758,173.9z"/>
					<path style="fill:#179A54;" d="M754.6,127.1l0.9,12.6l-20-18.3l-43.2,51.4c-1.6,1.9-4.5,2.1-6.4,0.5l-49.3-43.7l-41.9,50.3
						c-1.6,1.9-4.6,2-6.5,0.4l-49.2-43.7l-46,54.2l-1-14l46.1-52.6l48.4,43c2.9,2.5,5.5,2.4,8-0.5l41.2-49.4l48.6,43
						c2.8,2.5,5.1,2.4,7.8-0.6l42.5-50.6L754.6,127.1z"/>
					<path style="fill:#179A54;" d="M763.4,248.4l0.9,12.6l-20-18.3L701.2,294c-1.6,1.9-4.5,2.1-6.4,0.5l-49.3-43.7l-41.9,50.3
						c-1.6,1.9-4.5,2.1-6.4,0.5l-49.3-43.9l-46,54.2l-0.9-12.6l46-54.1l48.4,43c2.9,2.5,5.5,2.4,8-0.5l41.2-49.4l48.6,43
						c2.8,2.5,5.1,2.4,7.8-0.6l42.5-50.6L763.4,248.4z"/>
					<path style="fill:#179A54;" d="M766.9,296l0.9,12.6l-20-18.3l-43.2,51.4c-1.6,1.9-4.5,2.1-6.4,0.5L649,298.4l-41.9,50.3
						c-1.6,1.9-4.5,2.1-6.4,0.5l-49.3-43.9l-46,53.9l-0.9-12.3l46-54.1l48.4,43c2.9,2.5,5.5,2.4,8-0.5l41.2-49.4l48.6,43
						c2.8,2.5,5.1,2.4,7.8-0.6l42.5-50.6L766.9,296z"/>
					<path style="fill:#E1207B;" d="M758.9,186.4l0.9,12.6l-20-18.3L696.7,232c-1.6,1.9-4.5,2.1-6.4,0.5L641,188.8l-41.9,50.3
						c-1.6,1.9-4.5,2.1-6.4,0.5l-49.3-43.9L497.5,251l-1-13.6l46-54.1l48.4,43c2.9,2.5,5.4,2.4,7.9-0.5l41.3-49.4l48.6,43
						c2.8,2.5,5.1,2.4,7.8-0.6l42.5-50.6L758.9,186.4z"/>
					<path style="fill:#E1207B;" d="M762.6,235.9l0.9,12.6l-20-18.3l-43.2,51.4c-1.6,1.9-4.5,2.1-6.4,0.5l-49.3-43.7l-41.9,50.3
						c-1.6,1.9-4.5,2.1-6.4,0.5l-49.3-43.9l-46,54.7l-0.9-13l46-54.1l48.4,43c2.9,2.5,5.5,2.4,8-0.5l41.2-49.4l48.6,43
						c2.8,2.5,5.1,2.4,7.8-0.6l42.5-50.6L762.6,235.9z"/>
					<path style="fill:#E1207B;" d="M766,283.5l0.9,12.6l-20-18.3l-43.2,51.4c-1.6,1.9-4.5,2.1-6.4,0.5l-49.3-43.7l-41.9,50.3
						c-1.6,1.9-4.5,2.1-6.4,0.5l-49.3-43.9l-46,54.1l-0.9-12.5l46-54.1l48.4,43c2.9,2.5,5.5,2.4,8-0.5l41.2-49.4l48.6,43
						c2.8,2.5,5.1,2.4,7.8-0.6l42.5-50.6L766,283.5z"/>
					<path style="fill:#E1207B;" d="M769.5,331.5l0.9,12.6l-20-18.3l-43.2,51.4c-1.6,1.9-4.5,2.1-6.4,0.5l-49.3-43.7l-41.9,50.3
						c-1.6,1.9-4.5,2.1-6.4,0.5l-49.3-43.9l-46.1,52.5l-0.8-10.9l46-54.1l48.4,43c2.9,2.5,5.5,2.4,8-0.5l41.2-49.4l48.6,43
						c2.8,2.5,5.1,2.4,7.8-0.6l42.5-50.6L769.5,331.5z"/>
					<path style="fill:#E1207B;" d="M755.5,139.5l0.9,12.6l-20-18.3l-43.2,51.4c-1.6,1.9-4.5,2.1-6.4,0.5l-49.3-43.7l-41.9,50.3
						c-1.6,1.9-4.5,2.1-6.4,0.5L540,148.8l-46.1,52.5l-0.8-10.9l46-54.1l48.4,43c2.9,2.5,5.5,2.4,8-0.5l41.2-49.4l48.6,43
						c2.8,2.5,5.1,2.4,7.8-0.6l42.5-50.6L755.5,139.5z"/>
				</g>
			</g>
			<g>
				<g>
					<path style="fill:#EDDB13;" d="M-174.4,128.5l-3.2,12.2l23-14.3l32.9,58.5c1.3,2.2,4,2.9,6.2,1.6l56.6-33.7l31.8,57.2
						c1.3,2.2,4,2.9,6.2,1.6l56.6-33.9l35.5,60.2l2.8-10.6L38.8,166l-54.3,33.4c-3.3,1.9-7.5,0.8-9.4-2.5l-31.2-56.1l-54.3,33.4
						c-3.2,1.9-7.4,0.9-9.5-2.5l-31.2-57.1L-174.4,128.5z"/>
					<path style="fill:#EDDB13;" d="M-162.1,82.3l-3.2,12.2l23-14.3l32.9,58.5c1.3,2.2,4,2.9,6.2,1.6l56.6-33.7l31.8,57.2
						c1.3,2.2,4,2.9,6.2,1.6l56.6-33.9l35.5,60.2l2.8-10.6l-35.2-61.3l-54.3,33.4c-3.3,1.9-7.5,0.8-9.4-2.5l-31.2-56.1L-98.2,128
						c-3.2,1.9-7.4,0.9-9.5-2.5l-31.2-57.1L-162.1,82.3z"/>
					<path style="fill:#EDDB13;" d="M-186.7,174.7l-3.2,12.2l23-14.3l32.9,58.5c1.3,2.2,4,2.9,6.2,1.6l56.6-33.7l31.8,57.2
						c1.3,2.2,4,2.9,6.2,1.6L23.3,224l35.5,60.2l2.8-10.6l-35.2-61.3l-55.3,32.9c-3.3,1.9-6.3,1.3-8.3-2l-31.4-56.2l-54.8,33
						c-3.2,1.9-6.5,1-8.6-2.4l-31.7-56.9L-186.7,174.7z"/>
					<path style="fill:#EDDB13;" d="M-193.2,199l-3.2,12.2l23-14.3l32.9,58.5c1.3,2.2,4,2.9,6.2,1.6l56.6-33.7l31.8,57.2
						c1.3,2.2,4,2.9,6.2,1.6l56.6-33.9L52,309.9l3.2-12.1l-35.1-61.8L-35,269c-3.3,1.9-6.4,1.5-8.4-1.8l-31.2-56.1l-55.3,32.9
						c-3.2,1.9-6.2,1.2-8.3-2.2L-170,185L-193.2,199z"/>
					<path style="fill:#EDDB13;" d="M-205.5,245.6l-3.2,12.2l23-14.3l32.9,58.5c1.3,2.2,4,2.9,6.2,1.6l56.6-33.7l31.8,57.2
						c1.3,2.2,4,2.9,6.2,1.6l56.6-33.9l35.1,61.9l3.3-12.3L7.7,283.2l-54.3,33.4c-3.3,1.9-7.5,0.8-9.4-2.5L-87.3,258l-54.3,33.4
						c-3.2,1.9-7.4,0.9-9.5-2.5l-31.2-57.1L-205.5,245.6z"/>
					<path style="fill:#EDDB13;" d="M-217.8,291.8L-221,304l23-14.3l32.9,58.5c1.3,2.2,4,2.9,6.2,1.6l56.6-33.7l31.8,57.2
						c1.3,2.2,4,2.9,6.2,1.6l56.6-33.9l35.2,61.5l3.1-11.9l-35.2-61.3l-54.3,33.4c-3.3,1.9-7.5,0.8-9.4-2.5l-31.2-56.1l-54.3,33.4
						c-3.2,1.9-7.4,0.9-9.5-2.5l-31.2-57.2L-217.8,291.8z"/>
					<path style="fill:#E42A34;" d="M-177.2,139.1l-3.2,12.2l23-14.3l32.9,58.5c1.3,2.2,4,2.9,6.2,1.6l56.6-33.7l31.8,57.2
						c1.3,2.2,4,2.9,6.2,1.6l56.6-33.9l35.5,60.2l2.8-10.6L36,176.2l-55.6,33.3c-3.3,1.9-5.8,1.3-7.8-2l-31.3-56.2l-55.7,33.2
						c-3.2,1.9-5.4,1.4-7.5-2l-32.4-57.6L-177.2,139.1z"/>
					<path style="fill:#E42A34;" d="M-165.1,93.6l-3.2,12.2l23-14.3l32.9,58.5c1.3,2.2,4,2.9,6.2,1.6l56.6-33.7l31.8,57.2
						c1.3,2.2,4,2.9,6.2,1.6l56.6-33.9l35.5,60.2l2.8-10.6l-35.1-61.7l-55.6,33.3c-3.3,1.9-5.8,1.3-7.8-2l-31.3-56.2l-55.7,33.2
						c-3.2,1.9-5.4,1.4-7.5-2l-32.4-57.6L-165.1,93.6z"/>
					<path style="fill:#E42A34;" d="M-190,186.8l-3.2,12.2l23-14.3l32.9,58.5c1.3,2.2,4,2.9,6.2,1.6l56.6-33.7l31.8,57.2
						c1.3,2.2,4,2.9,6.2,1.6l56.6-33.9l35.1,61.8l3.6-13.6L23.3,224l-55.6,33.3c-3.3,1.9-5.8,1.3-7.8-2L-71.3,199l-55.7,33.2
						c-3.2,1.9-5.4,1.4-7.5-2l-32.4-57.6L-190,186.8z"/>
					<path style="fill:#E42A34;" d="M-202.6,234.6l-3.2,12.2l23-14.3l32.9,58.5c1.3,2.2,4,2.9,6.2,1.6l56.6-33.7l31.8,57.2
						c1.3,2.2,4,2.9,6.2,1.6l56.4-33.3l35.5,60.2l3-11.2l-35.1-61.7l-55.6,33.3c-3.3,1.9-5.8,1.3-7.8-2L-84,246.9l-55.7,33.2
						c-3.2,1.9-5.4,1.4-7.5-2l-32.4-57.6L-202.6,234.6z"/>
					<path style="fill:#E42A34;" d="M-214.9,281.2l-3.2,12.2l23-14.3l32.9,58.5c1.3,2.2,4,2.9,6.2,1.6l56.6-33.7l31.8,57.2
						c1.3,2.2,4,2.9,6.2,1.6l56.6-33.9l35.5,60.2l2.8-10.6l-35.1-61.7l-55.6,33.3c-3.3,1.9-5.8,1.3-7.8-2l-31.3-56.2l-55.7,33.2
						c-3.2,1.9-5.4,1.4-7.5-2l-32.4-57.6L-214.9,281.2z"/>
					<path style="fill:#179A54;" d="M-180.4,151l-3.2,12.2l23-14.3l32.9,58.5c1.3,2.2,4,2.9,6.2,1.6l56.6-33.7l31.8,57.2
						c1.3,2.2,4.1,2.8,6.3,1.6l56.5-33.8l35.1,61.8l3.6-13.6l-35.5-60.3l-55.6,33.3c-3.3,1.9-5.8,1.3-7.8-2l-31.3-56.2l-55.7,33.2
						c-3.2,1.9-5.4,1.4-7.5-2l-32.4-57.6L-180.4,151z"/>
					<path style="fill:#179A54;" d="M-168.3,105.6l-3.2,12.2l23-14.3l32.9,58.5c1.3,2.2,4,2.9,6.2,1.6l56.6-33.7l31.8,57.2
						c1.3,2.2,4.1,2.8,6.3,1.6l56.5-33.8l35.1,61.8l3.6-13.6l-35.5-60.3L-10.6,176c-3.3,1.9-5.8,1.3-7.8-2l-31.3-56.2l-55.7,33.2
						c-3.2,1.9-5.4,1.4-7.5-2l-32.4-57.6L-168.3,105.6z"/>
					<path style="fill:#179A54;" d="M-199.5,223.1l-3.2,12.2l23-14.3l32.9,58.5c1.3,2.2,4,2.9,6.2,1.6l56.6-33.7l31.8,57.2
						c1.3,2.2,4,2.9,6.2,1.6l56.6-33.9l35.1,61.8l3.2-12.2l-35.1-61.7l-55.6,33.3c-3.3,1.9-5.8,1.3-7.8-2l-31.3-56.2l-55.7,33.2
						c-3.2,1.9-5.4,1.4-7.5-2l-32.4-57.6L-199.5,223.1z"/>
					<path style="fill:#179A54;" d="M-211.8,269.3l-3.2,12.2l23-14.3l32.9,58.5c1.3,2.2,4,2.9,6.2,1.6l56.6-33.7l31.8,57.2
						c1.3,2.2,4,2.9,6.2,1.6l56.6-33.9l35.2,61.5l3.2-11.9L1.5,306.5l-55.6,33.3c-3.3,1.9-5.8,1.3-7.8-2l-31.3-56.2l-55.7,33.2
						c-3.2,1.9-5.4,1.4-7.5-2l-32.4-57.6L-211.8,269.3z"/>
					<path style="fill:#E1207B;" d="M-183.6,163.1l-3.2,12.2l23-14.3l32.9,58.5c1.3,2.2,4,2.9,6.2,1.6l56.6-33.7l31.8,57.2
						c1.3,2.2,4,2.9,6.2,1.6l56.6-33.9l34.8,62.8l3.5-13.2l-35.1-61.7l-55.6,33.3c-3.3,1.9-5.7,1.3-7.7-2L-65,175.3l-55.7,33.2
						c-3.2,1.9-5.4,1.4-7.5-2l-32.4-57.6L-183.6,163.1z"/>
					<path style="fill:#E1207B;" d="M-196.4,211l-3.2,12.2l23-14.3l32.9,58.5c1.3,2.2,4,2.9,6.2,1.6l56.6-33.7l31.8,57.2
						c1.3,2.2,4,2.9,6.2,1.6l56.6-33.9l35,62.2l3.4-12.6l-35.1-61.7l-55.6,33.3c-3.3,1.9-5.8,1.3-7.8-2l-31.3-56.2l-55.7,33.2
						c-3.2,1.9-5.4,1.4-7.5-2l-32.4-57.6L-196.4,211z"/>
					<path style="fill:#E1207B;" d="M-208.6,257.2l-3.2,12.2l23-14.3l32.9,58.5c1.3,2.2,4,2.9,6.2,1.6l56.6-33.7l31.8,57.2
						c1.3,2.2,4,2.9,6.2,1.6l56.6-33.9l35.1,61.7l3.2-12.1L4.7,294.4l-55.6,33.3c-3.3,1.9-5.8,1.3-7.8-2l-31.3-56.2l-55.7,33.2
						c-3.2,1.9-5.4,1.4-7.5-2l-32.4-57.6L-208.6,257.2z"/>
					<path style="fill:#E1207B;" d="M-220.9,303.7l-3.2,12.2l23-14.3l32.9,58.5c1.3,2.2,4,2.9,6.2,1.6l56.6-33.7l31.8,57.2
						c1.3,2.2,4,2.9,6.2,1.6l56.6-33.9l35.5,60.2l2.8-10.6l-35.1-61.7l-55.6,33.3c-3.3,1.9-5.8,1.3-7.8-2l-31.3-56.2l-55.7,33.2
						c-3.2,1.9-5.4,1.4-7.5-2l-32.4-57.6L-220.9,303.7z"/>
					<path style="fill:#E1207B;" d="M-171.5,117.6l-3.2,12.2l23-14.3l32.9,58.5c1.3,2.2,4,2.9,6.2,1.6l56.6-33.7l31.8,57.2
						c1.3,2.2,4,2.9,6.2,1.6l56.6-33.9L74.1,227l2.8-10.6l-35.1-61.7l-55.6,33.3c-3.3,1.9-5.8,1.3-7.8-2l-31.3-56.2l-55.7,33.2
						c-3.2,1.9-5.4,1.4-7.5-2l-32.4-57.6L-171.5,117.6z"/>
				</g>
				<g>
					<path style="fill:#EDDB13;" d="M302.7,255.2l-3.2,12.2l23-14.3l32.9,58.5c1.3,2.2,4,2.9,6.2,1.6l56.6-33.7l31.8,57.2
						c1.3,2.2,4,2.9,6.2,1.6l56.6-33.9l35.5,60.2l2.8-10.6L516,292.7l-54.3,33.4c-3.3,1.9-7.5,0.8-9.4-2.5L421,267.5l-54.3,33.4
						c-3.2,1.9-7.4,0.9-9.5-2.5l-31.2-57.1L302.7,255.2z"/>
					<path style="fill:#EDDB13;" d="M315,209l-3.2,12.2l23-14.3l32.9,58.5c1.3,2.2,4,2.9,6.2,1.6l56.6-33.7l31.8,57.2
						c1.3,2.2,4,2.9,6.2,1.6l56.6-33.9l35.5,60.2l2.8-10.6l-35.2-61.3l-54.3,33.4c-3.3,1.9-7.5,0.8-9.4-2.5l-31.2-56.1l-54.3,33.4
						c-3.2,1.9-7.4,0.9-9.5-2.5l-31.2-57.2L315,209z"/>
					<path style="fill:#EDDB13;" d="M290.4,301.4l-3.2,12.2l23-14.3l32.9,58.5c1.3,2.2,4,2.9,6.2,1.6l56.6-33.7l31.8,57.2
						c1.3,2.2,4,2.9,6.2,1.6l56.6-33.9l35.5,60.2l2.8-10.6L503.6,339L448.3,372c-3.3,1.9-6.3,1.3-8.3-2l-31.4-56.2l-54.8,33
						c-3.2,1.9-6.5,1-8.6-2.4l-31.7-56.9L290.4,301.4z"/>
					<path style="fill:#EDDB13;" d="M283.9,325.7l-3.2,12.2l23-14.3l32.9,58.5c1.3,2.2,4,2.9,6.2,1.6l56.6-33.7l31.8,57.2
						c1.3,2.2,4,2.9,6.2,1.6l56.6-33.9l35.1,61.7l3.2-12.1l-35.1-61.8l-55.1,33c-3.3,1.9-6.4,1.5-8.4-1.8l-31.2-56.1l-55.3,32.9
						c-3.2,1.9-6.2,1.2-8.3-2.2l-31.9-56.8L283.9,325.7z"/>
					<path style="fill:#EDDB13;" d="M271.6,372.3l-3.2,12.2l23-14.3l32.9,58.5c1.3,2.2,4,2.9,6.2,1.6l56.6-33.7l31.8,57.2
						c1.3,2.2,4,2.9,6.2,1.6l56.6-33.9l35.1,61.9l3.3-12.3l-35.2-61.3l-54.3,33.4c-3.3,1.9-7.5,0.8-9.4-2.5l-31.2-56.1l-54.3,33.4
						c-3.2,1.9-7.4,0.9-9.5-2.5l-31.2-57.1L271.6,372.3z"/>
					<path style="fill:#EDDB13;" d="M259.4,418.5l-3.2,12.2l23-14.3l32.9,58.5c1.3,2.2,4,2.9,6.2,1.6l56.6-33.7l31.8,57.2
						c1.3,2.2,4,2.9,6.2,1.6l56.6-33.9l35.2,61.5l3.1-11.9l-35.2-61.3l-54.3,33.4c-3.3,1.9-7.5,0.8-9.4-2.5l-31.2-56.1l-54.3,33.4
						c-3.2,1.9-7.4,0.9-9.5-2.5l-31.2-57.1L259.4,418.5z"/>
					<path style="fill:#E42A34;" d="M299.9,265.8l-3.2,12.2l23-14.3l32.9,58.5c1.3,2.2,4,2.9,6.2,1.6l56.6-33.7l31.8,57.2
						c1.3,2.2,4,2.9,6.2,1.6L510,315l35.5,60.2l2.8-10.6l-35.1-61.7l-55.6,33.3c-3.3,1.9-5.8,1.3-7.8-2L418.5,278l-55.7,33.2
						c-3.2,1.9-5.4,1.4-7.5-2l-32.4-57.6L299.9,265.8z"/>
					<path style="fill:#E42A34;" d="M312,220.3l-3.2,12.2l23-14.3l32.9,58.5c1.3,2.2,4,2.9,6.2,1.6l56.6-33.7l31.8,57.2
						c1.3,2.2,4,2.9,6.2,1.6l56.6-33.9l35.5,60.2l2.8-10.6l-35.1-61.7l-55.6,33.3c-3.3,1.9-5.8,1.3-7.8-2l-31.3-56.2l-55.7,33.2
						c-3.2,1.9-5.4,1.4-7.5-2L335,206.2L312,220.3z"/>
					<path style="fill:#E42A34;" d="M287.2,313.5l-3.2,12.2l23-14.3l32.9,58.5c1.3,2.2,4,2.9,6.2,1.6l56.6-33.7l31.8,57.2
						c1.3,2.2,4,2.9,6.2,1.6l56.6-33.9l35.1,61.8l3.6-13.6l-35.5-60.3L444.8,384c-3.3,1.9-5.8,1.3-7.8-2l-31.3-56.2L350,359
						c-3.2,1.9-5.4,1.4-7.5-2l-32.4-57.6L287.2,313.5z"/>
					<path style="fill:#E42A34;" d="M274.5,361.3l-3.2,12.2l23-14.3l32.9,58.5c1.3,2.2,4,2.9,6.2,1.6l56.6-33.7l31.8,57.2
						c1.3,2.2,4,2.9,6.2,1.6l56.4-33.3l35.5,60.2l3-11.2l-35.1-61.7l-55.6,33.3c-3.3,1.9-5.8,1.3-7.8-2l-31.3-56.2l-55.7,33.2
						c-3.2,1.9-5.4,1.4-7.5-2l-32.4-57.6L274.5,361.3z"/>
					<path style="fill:#E42A34;" d="M262.2,407.9l-3.2,12.2l23-14.3l32.9,58.5c1.3,2.2,4,2.9,6.2,1.6l56.6-33.7l31.8,57.2
						c1.3,2.2,4,2.9,6.2,1.6l56.6-33.9l35.5,60.2l2.8-10.6l-35.1-61.7l-55.6,33.3c-3.3,1.9-5.8,1.3-7.8-2l-31.3-56.2l-55.7,33.2
						c-3.2,1.9-5.4,1.4-7.5-2l-32.4-57.6L262.2,407.9z"/>
					<path style="fill:#179A54;" d="M296.8,277.7l-3.2,12.2l23-14.3l32.9,58.5c1.3,2.2,4,2.9,6.2,1.6l56.6-33.7l31.8,57.2
						c1.3,2.2,4.1,2.8,6.3,1.6l56.5-33.8l35.1,61.8l3.6-13.6L510,314.9l-55.6,33.3c-3.3,1.9-5.8,1.3-7.8-2l-31.3-56.2l-55.7,33.2
						c-3.2,1.9-5.4,1.4-7.5-2l-32.4-57.6L296.8,277.7z"/>
					<path style="fill:#179A54;" d="M308.8,232.3l-3.2,12.2l23-14.3l32.9,58.5c1.3,2.2,4,2.9,6.2,1.6l56.6-33.7l31.8,57.2
						c1.3,2.2,4.1,2.8,6.3,1.6l56.5-33.8l35.1,61.8l3.6-13.6l-35.5-60.3l-55.6,33.3c-3.3,1.9-5.8,1.3-7.8-2l-31.3-56.2l-55.7,33.2
						c-3.2,1.9-5.4,1.4-7.5-2l-32.4-57.6L308.8,232.3z"/>
					<path style="fill:#179A54;" d="M277.6,349.8l-3.2,12.2l23-14.3l32.9,58.5c1.3,2.2,4,2.9,6.2,1.6l56.6-33.7l31.8,57.2
						c1.3,2.2,4,2.9,6.2,1.6l56.6-33.9l35.1,61.8l3.2-12.2L490.8,387l-55.6,33.3c-3.3,1.9-5.8,1.3-7.8-2l-31.3-56.2l-55.7,33.2
						c-3.2,1.9-5.4,1.4-7.5-2l-32.4-57.6L277.6,349.8z"/>
					<path style="fill:#179A54;" d="M265.3,396l-3.2,12.2l23-14.3l32.9,58.5c1.3,2.2,4,2.9,6.2,1.6l56.6-33.7l31.8,57.2
						c1.3,2.2,4,2.9,6.2,1.6l56.6-33.9l35.2,61.5l3.2-11.9l-35.1-61.7L423,466.4c-3.3,1.9-5.8,1.3-7.8-2L384,408.2l-55.7,33.2
						c-3.2,1.9-5.4,1.4-7.5-2l-32.4-57.6L265.3,396z"/>
					<path style="fill:#E1207B;" d="M293.5,289.8l-3.2,12.2l23-14.3l32.9,58.5c1.3,2.2,4,2.9,6.2,1.6l56.6-33.7l31.8,57.2
						c1.3,2.2,4,2.9,6.2,1.6l56.6-33.9l34.8,62.8l3.5-13.2L506.8,327l-55.6,33.3c-3.3,1.9-5.7,1.3-7.7-2L412.2,302l-55.7,33.2
						c-3.2,1.9-5.4,1.4-7.5-2l-32.4-57.6L293.5,289.8z"/>
					<path style="fill:#E1207B;" d="M280.7,337.7l-3.2,12.2l23-14.3l32.9,58.5c1.3,2.2,4,2.9,6.2,1.6l56.6-33.7l31.8,57.2
						c1.3,2.2,4,2.9,6.2,1.6l56.6-33.9l35,62.2l3.4-12.6L494,374.9l-55.6,33.3c-3.3,1.9-5.8,1.3-7.8-2L399.3,350l-55.7,33.2
						c-3.2,1.9-5.4,1.4-7.5-2l-32.4-57.6L280.7,337.7z"/>
					<path style="fill:#E1207B;" d="M268.6,383.9l-3.2,12.2l23-14.3l32.9,58.5c1.3,2.2,4,2.9,6.2,1.6l56.6-33.7l31.8,57.2
						c1.3,2.2,4,2.9,6.2,1.6l56.6-33.9l35.1,61.7l3.2-12.1l-35.1-61.7l-55.6,33.3c-3.3,1.9-5.8,1.3-7.8-2l-31.3-56.2l-55.7,33.2
						c-3.2,1.9-5.4,1.4-7.5-2l-32.4-57.6L268.6,383.9z"/>
					<path style="fill:#E1207B;" d="M256.2,430.4l-3.2,12.2l23-14.3l32.9,58.5c1.3,2.2,4,2.9,6.2,1.6l56.6-33.7l31.8,57.2
						c1.3,2.2,4,2.9,6.2,1.6l56.6-33.9l35.5,60.2l2.8-10.6l-35.1-61.7l-55.6,33.3c-3.3,1.9-5.8,1.3-7.8-2l-31.3-56.2l-55.7,33.2
						c-3.2,1.9-5.4,1.4-7.5-2l-32.4-57.6L256.2,430.4z"/>
					<path style="fill:#E1207B;" d="M305.6,244.3l-3.2,12.2l23-14.3l32.9,58.5c1.3,2.2,4,2.9,6.2,1.6l56.6-33.7l31.8,57.2
						c1.3,2.2,4,2.9,6.2,1.6l56.6-33.9l35.5,60.2l2.8-10.6l-35.1-61.7l-55.6,33.3c-3.3,1.9-5.8,1.3-7.8-2l-31.3-56.2l-55.7,33.2
						c-3.2,1.9-5.4,1.4-7.5-2l-32.4-57.6L305.6,244.3z"/>
				</g>
				<g>
					<path style="fill:#EDDB13;" d="M338.6,264.7l-3.2,12.2l-12.9-23.8l-57.5,34.5c-2.2,1.3-4.9,0.5-6.2-1.6l-32.4-57.4l-56,33.9
						c-2.2,1.3-4.9,0.5-6.2-1.6l-32.3-57.5l-60.7,34.6l2.8-10.6l60.9-35.8l30.6,55.9c2,3.3,6.1,4.4,9.4,2.5l54.9-33.2l30.6,55.9
						c1.8,3.3,6,4.4,9.5,2.5l55.5-34.1L338.6,264.7z"/>
					<path style="fill:#EDDB13;" d="M350.9,218.5l-3.2,12.2l-12.9-23.8l-57.5,34.5c-2.2,1.3-4.9,0.5-6.2-1.6l-32.4-57.4l-56,33.9
						c-2.2,1.3-4.9,0.5-6.2-1.6l-32.3-57.5l-60.7,34.6l2.8-10.6l60.9-35.8l30.6,55.9c2,3.3,6.1,4.4,9.4,2.5l54.9-33.2l30.6,55.9
						c1.8,3.3,6,4.4,9.5,2.5l55.5-34.1L350.9,218.5z"/>
					<path style="fill:#EDDB13;" d="M326.4,311l-3.2,12.2l-12.9-23.8l-57.5,34.5c-2.2,1.3-4.9,0.5-6.2-1.6l-32.4-57.4l-56,33.9
						c-2.2,1.3-4.9,0.5-6.2-1.6l-32.3-57.5l-60.7,34.6l2.8-10.6l60.9-35.8l31.6,56c2,3.3,4.8,4.3,8.2,2.4l55.2-33.2l31.2,55.8
						c1.8,3.3,5.2,4.1,8.7,2.2l55.7-33.7L326.4,311z"/>
					<path style="fill:#EDDB13;" d="M320,335.2l-3.2,12.2l-12.9-23.8l-57.5,34.5c-2.2,1.3-4.9,0.5-6.2-1.6l-32.4-57.4l-56,33.9
						c-2.2,1.3-4.9,0.5-6.2-1.6l-32.3-57.5l-61.1,36.1l3.2-12.1l61.1-36.2l31.5,56c2,3.3,4.8,4.5,8.2,2.6l54.9-33.2l31.6,56
						c1.8,3.3,4.8,4.1,8.3,2.2l55.9-33.5L320,335.2z"/>
					<path style="fill:#EDDB13;" d="M307.5,381.9l-3.2,12.2l-12.9-23.8l-57.5,34.5c-2.2,1.3-4.9,0.5-6.2-1.6l-32.4-57.4l-56,33.9
						c-2.2,1.3-4.9,0.5-6.2-1.6l-32.3-57.5l-61.2,36.4l3.3-12.3l60.9-35.8l30.6,55.9c2,3.3,6.1,4.4,9.4,2.5l54.9-33.2l30.6,55.9
						c1.8,3.3,6,4.4,9.5,2.5l55.5-34.1L307.5,381.9z"/>
					<path style="fill:#EDDB13;" d="M295.3,428.1l-3.2,12.2l-12.9-23.8l-57.5,34.5c-2.2,1.3-4.9,0.5-6.2-1.6L183,391.9l-56,33.9
						c-2.2,1.3-4.9,0.5-6.2-1.6l-32.3-57.5l-61.1,35.9l3.1-11.9l60.9-35.8l30.6,55.9c2,3.3,6.1,4.4,9.4,2.5l54.9-33.2l30.6,55.9
						c1.8,3.3,6,4.4,9.5,2.5l55.5-34.1L295.3,428.1z"/>
					<path style="fill:#E42A34;" d="M335.8,275.3l-3.2,12.2l-12.9-23.8l-57.5,34.5c-2.2,1.3-4.9,0.5-6.2-1.6l-32.4-57.4l-56,33.9
						c-2.2,1.3-4.9,0.5-6.2-1.6L129,213.9l-60.7,34.6l2.8-10.6l61.1-36.1l31.7,56.5c2,3.3,4.4,4,7.8,2.1l55-33.3l31.9,56.5
						c1.8,3.3,4,3.9,7.5,2l56.7-34L335.8,275.3z"/>
					<path style="fill:#E42A34;" d="M347.9,229.9l-3.2,12.2l-12.9-23.8l-57.5,34.5c-2.2,1.3-4.9,0.5-6.2-1.6l-32.4-57.4l-56,33.9
						c-2.2,1.3-4.9,0.5-6.2-1.6l-32.3-57.5L80.4,203l2.8-10.6l61.1-36.1l31.7,56.5c2,3.3,4.4,4,7.8,2.1l55-33.3l31.9,56.5
						c1.8,3.3,4,3.9,7.5,2l56.7-34L347.9,229.9z"/>
					<path style="fill:#E42A34;" d="M323.2,323.1l-3.2,12.2l-12.9-23.8l-57.5,34.5c-2.2,1.3-4.9,0.5-6.2-1.6L211,286.9l-56,33.9
						c-2.2,1.3-4.9,0.5-6.2-1.6l-32.3-57.5l-61.1,36.2l3.6-13.6l60.7-34.7l31.7,56.5c2,3.3,4.4,4,7.8,2.1l55-33.3l31.9,56.5
						c1.8,3.3,4,3.9,7.5,2l56.7-34L323.2,323.1z"/>
					<path style="fill:#E42A34;" d="M310.4,370.9l-3.2,12.2l-12.9-23.8l-57.5,34.5c-2.2,1.3-4.9,0.5-6.2-1.6l-32.4-57.4l-56,33.9
						c-2.2,1.3-4.9,0.5-6.2-1.6L103.5,310l-60.7,34.6l3-11.2l61.1-36.1l31.7,56.5c2,3.3,4.4,4,7.8,2.1l55-33.3l31.9,56.5
						c1.8,3.3,4,3.9,7.5,2l56.7-34L310.4,370.9z"/>
					<path style="fill:#E42A34;" d="M298.1,417.4l-3.2,12.2l-12.9-23.8l-57.5,34.5c-2.2,1.3-4.9,0.5-6.2-1.6l-32.4-57.4l-56,33.9
						c-2.2,1.3-4.9,0.5-6.2-1.6L91.3,356l-60.7,34.6l2.8-10.6l61.1-36.1l31.7,56.5c2,3.3,4.4,4,7.8,2.1l55-33.3l31.9,56.5
						c1.8,3.3,4,3.9,7.5,2l56.7-34L298.1,417.4z"/>
					<path style="fill:#179A54;" d="M332.6,287.2l-3.2,12.2l-12.9-23.8l-57.5,34.5c-2.2,1.3-4.9,0.5-6.2-1.6l-32.4-57.4l-56,33.9
						c-2.2,1.3-5,0.4-6.3-1.8l-32.3-57.4l-61.2,36.3l3.6-13.6l60.8-34.7l31.7,56.5c2,3.3,4.4,4,7.8,2.1l55-33.3l31.9,56.5
						c1.8,3.3,4,3.9,7.5,2l56.7-34L332.6,287.2z"/>
					<path style="fill:#179A54;" d="M344.7,241.8l-3.2,12.2l-12.9-23.8L271,264.7c-2.2,1.3-4.9,0.5-6.2-1.6l-32.4-57.4l-56,33.9
						c-2.2,1.3-5,0.4-6.3-1.8l-32.3-57.4l-61.2,36.3l3.6-13.6l60.8-34.7l31.7,56.5c2,3.3,4.4,4,7.8,2.1l55-33.3l31.9,56.5
						c1.8,3.3,4,3.9,7.5,2l56.7-34L344.7,241.8z"/>
					<path style="fill:#179A54;" d="M313.5,359.4l-3.2,12.2l-12.9-23.8l-57.5,34.5c-2.2,1.3-4.9,0.5-6.2-1.6l-32.4-57.4l-56,33.9
						c-2.2,1.3-4.9,0.5-6.2-1.6l-32.3-57.5l-61.2,36.3l3.2-12.2l61.1-36.1l31.7,56.5c2,3.3,4.4,4,7.8,2.1l55-33.3l31.9,56.5
						c1.8,3.3,4,3.9,7.5,2l56.7-34L313.5,359.4z"/>
					<path style="fill:#179A54;" d="M301.2,405.5l-3.2,12.2l-12.9-23.8l-57.5,34.5c-2.2,1.3-4.9,0.5-6.2-1.6L189,369.4l-56,33.9
						c-2.2,1.3-4.9,0.5-6.2-1.6l-32.3-57.5l-61.1,36l3.2-11.9L97.7,332l31.7,56.5c2,3.3,4.4,4,7.8,2.1l55-33.3l31.9,56.5
						c1.8,3.3,4,3.9,7.5,2l56.7-34L301.2,405.5z"/>
					<path style="fill:#E1207B;" d="M329.4,299.3l-3.2,12.2l-12.9-23.8l-57.5,34.5c-2.2,1.3-4.9,0.5-6.2-1.6l-32.4-57.4l-56,33.9
						c-2.2,1.3-4.9,0.5-6.2-1.6l-32.3-57.5l-61.4,37.3l3.5-13.2l61.1-36.1l31.7,56.5c2,3.3,4.3,4,7.6,2.1l55.1-33.3l31.9,56.5
						c1.8,3.3,4,3.9,7.5,2l56.7-34L329.4,299.3z"/>
					<path style="fill:#E1207B;" d="M316.8,347.3l-3.2,12.2l-12.9-23.8l-57.5,34.5c-2.2,1.3-4.9,0.5-6.2-1.6l-32.4-57.4l-56,33.9
						c-2.2,1.3-4.9,0.5-6.2-1.6L110,285.9l-61.3,36.7l3.4-12.6l61.1-36.1l31.7,56.5c2,3.3,4.4,4,7.8,2.1l55-33.3l31.9,56.5
						c1.8,3.3,4,3.9,7.5,2l56.7-34L316.8,347.3z"/>
					<path style="fill:#E1207B;" d="M304.4,393.4l-3.2,12.2l-12.9-23.8l-57.5,34.5c-2.2,1.3-4.9,0.5-6.2-1.6l-32.4-57.4l-56,33.9
						c-2.2,1.3-4.9,0.5-6.2-1.6L97.7,332l-61.1,36.1l3.2-12.1l61.1-36.1l31.7,56.5c2,3.3,4.4,4,7.8,2.1l55-33.3l31.9,56.5
						c1.8,3.3,4,3.9,7.5,2l56.7-34L304.4,393.4z"/>
					<path style="fill:#E1207B;" d="M292.1,439.9l-3.2,12.2l-12.9-23.8l-57.5,34.5c-2.2,1.3-4.9,0.5-6.2-1.6l-32.4-57.4l-56,33.9
						c-2.2,1.3-4.9,0.5-6.2-1.6l-32.3-57.5l-60.7,34.6l2.8-10.6l61.1-36.1l31.7,56.5c2,3.3,4.4,4,7.8,2.1l55-33.3l31.9,56.5
						c1.8,3.3,4,3.9,7.5,2l56.7-34L292.1,439.9z"/>
					<path style="fill:#E1207B;" d="M341.5,253.8l-3.2,12.2l-12.9-23.8l-57.5,34.5c-2.2,1.3-4.9,0.5-6.2-1.6l-32.4-57.4l-56,33.9
						c-2.2,1.3-4.9,0.5-6.2-1.6l-32.3-57.5L74,227l2.8-10.6l61.1-36.1l31.7,56.5c2,3.3,4.4,4,7.8,2.1l55-33.3l31.9,56.5
						c1.8,3.3,4,3.9,7.5,2l56.7-34L341.5,253.8z"/>
				</g>
			</g>
		</g>
	</g>
	<circle style="fill:#FFFFFF;" cx="379.5" cy="219.5" r="128.2"/>
	<g>
		<path style="fill:#51833C;" d="M307.7,161.7c-1.3,0-2.4-0.2-3.3-0.5c-0.9-0.3-1.6-0.7-2.2-1.1v-0.7h0.5c0.4,0.4,1,0.8,1.8,1.1
			c0.8,0.3,1.8,0.5,3.2,0.5c2.1,0,3.5-0.5,4.5-1.5s1.4-2.4,1.4-4.3v-23.5h0.9v23.5c0,2.1-0.5,3.7-1.6,4.8S310,161.7,307.7,161.7z"/>
		<path style="fill:#51833C;" d="M333.7,161.6c-1.8,0-3.5-0.3-5.1-1c-1.6-0.7-3-1.6-4.2-2.9c-1.2-1.3-2.1-2.8-2.8-4.7
			c-0.7-1.9-1-4-1-6.5c0-2.4,0.3-4.6,1-6.5c0.7-1.9,1.6-3.5,2.8-4.7c1.2-1.3,2.6-2.2,4.2-2.9c1.6-0.7,3.3-1,5.1-1
			c1.8,0,3.5,0.3,5.1,1c1.6,0.7,3,1.6,4.2,2.9c1.2,1.3,2.1,2.8,2.8,4.7c0.7,1.9,1,4,1,6.5c0,2.4-0.3,4.6-1,6.5
			c-0.7,1.9-1.6,3.5-2.8,4.7c-1.2,1.3-2.6,2.2-4.2,2.9C337.2,161.3,335.5,161.6,333.7,161.6z M333.7,160.9c1.7,0,3.3-0.3,4.8-0.9
			c1.5-0.6,2.8-1.5,3.9-2.7c1.1-1.2,2-2.7,2.6-4.5c0.6-1.8,0.9-3.9,0.9-6.2s-0.3-4.4-0.9-6.2c-0.6-1.8-1.5-3.3-2.6-4.5
			c-1.1-1.2-2.4-2.1-3.9-2.8c-1.5-0.6-3.1-0.9-4.8-0.9c-1.7,0-3.3,0.3-4.8,0.9c-1.5,0.6-2.8,1.5-3.9,2.8c-1.1,1.2-2,2.7-2.6,4.5
			c-0.6,1.8-0.9,3.8-0.9,6.2s0.3,4.4,0.9,6.2c0.6,1.8,1.5,3.3,2.6,4.5c1.1,1.2,2.4,2.1,3.9,2.7C330.4,160.6,332,160.9,333.7,160.9z"
			/>
		<path style="fill:#51833C;" d="M353,161.5v-29.9h0.9v14.1h19.3v-14.1h0.9v29.9h-0.9v-15.1h-19.3v15.1H353z"/>
		<path style="fill:#51833C;" d="M382.4,131.6h1.3l18.6,28.4h0v-28.4h0.9v29.9h-0.9l-19-29.1h0v29.1h-0.9V131.6z"/>
		<path style="fill:#51833C;" d="M418.3,161.5v-12.8l-9.8-16.6v-0.6h0.6l9.6,16.4h0l9.7-16.4h0.6v0.6l-9.8,16.6v12.8H418.3z"/>
		<path style="fill:#51833C;" d="M432.3,135.6c0.4-0.2,0.7-0.4,0.9-0.7c0.2-0.3,0.3-0.7,0.3-1.1c0-0.2,0-0.4-0.1-0.5
			c-0.1-0.1-0.2-0.2-0.3-0.3c-0.3-0.2-0.4-0.5-0.4-0.8c0-0.2,0.1-0.4,0.2-0.6s0.3-0.2,0.6-0.2c0.3,0,0.5,0.1,0.7,0.3
			c0.2,0.2,0.3,0.6,0.3,1.1c0,1-0.2,1.8-0.7,2.3c-0.5,0.5-1,0.9-1.5,1.1V135.6z"/>
		<path style="fill:#51833C;" d="M446.3,161.6c-1.2,0-2.3-0.1-3.2-0.2c-0.9-0.2-1.8-0.4-2.5-0.6c-0.7-0.3-1.4-0.5-2-0.9
			c-0.6-0.3-1.1-0.7-1.6-1v-0.7h0.6c0.4,0.3,0.9,0.7,1.4,1c0.5,0.3,1.1,0.6,1.8,0.9c0.7,0.3,1.5,0.5,2.4,0.6
			c0.9,0.2,1.9,0.2,3.1,0.2c1.2,0,2.4-0.1,3.4-0.4c1-0.3,1.9-0.7,2.7-1.3c0.8-0.6,1.3-1.4,1.8-2.3c0.4-0.9,0.6-2.1,0.6-3.5
			c0-1.3-0.2-2.3-0.7-3.1c-0.5-0.8-1.2-1.4-2-1.9c-0.8-0.5-1.8-0.9-2.8-1.3c-1.1-0.3-2.1-0.6-3.3-1c-1-0.3-2-0.6-3-0.9
			c-1-0.3-1.9-0.8-2.6-1.3c-0.8-0.5-1.4-1.2-1.8-2.1c-0.5-0.8-0.7-1.9-0.7-3.2c0-1,0.2-1.9,0.5-2.8c0.4-0.9,0.9-1.6,1.6-2.3
			c0.7-0.6,1.6-1.2,2.6-1.5c1.1-0.4,2.3-0.6,3.8-0.6c1,0,1.8,0.1,2.6,0.2c0.8,0.1,1.4,0.3,2.1,0.5c0.6,0.2,1.2,0.5,1.8,0.8
			c0.5,0.3,1.1,0.7,1.6,1.1v0.7h-0.6c-0.4-0.4-0.8-0.7-1.3-1c-0.5-0.3-1-0.6-1.6-0.8c-0.6-0.2-1.3-0.4-2-0.6
			c-0.7-0.1-1.6-0.2-2.5-0.2c-1.3,0-2.5,0.2-3.5,0.5c-1,0.3-1.8,0.8-2.4,1.4c-0.6,0.6-1.1,1.2-1.4,2c-0.3,0.8-0.4,1.6-0.4,2.5
			c0,1.2,0.2,2.2,0.6,2.9s1,1.4,1.7,1.9c0.7,0.5,1.5,0.9,2.4,1.2c0.9,0.3,1.9,0.6,2.9,0.9c1.2,0.3,2.4,0.7,3.5,1.1
			c1.1,0.4,2.1,0.8,3,1.4c0.9,0.6,1.6,1.3,2.1,2.2c0.5,0.9,0.8,2,0.8,3.4c0,1.5-0.2,2.7-0.7,3.7c-0.5,1-1.1,1.9-2,2.6
			c-0.8,0.7-1.8,1.2-2.9,1.5C448.8,161.5,447.6,161.6,446.3,161.6z"/>
	</g>
	<g>
		<path style="fill:#527A38;" d="M288.5,184.4h7.5c2.4,0,4.6,0.3,6.4,0.8c1.9,0.6,3.4,1.4,4.6,2.6c1.2,1.2,2.2,2.7,2.8,4.6
			s0.9,4.2,0.9,6.9c0,2.7-0.3,5-0.9,6.9s-1.6,3.4-2.8,4.6c-1.2,1.2-2.8,2.1-4.6,2.6c-1.9,0.5-4,0.8-6.4,0.8h-7.5V184.4z M296,213.6
			c2.4,0,4.4-0.3,6.2-0.8c1.8-0.5,3.2-1.3,4.4-2.5c1.2-1.1,2-2.6,2.6-4.4c0.6-1.8,0.9-4,0.9-6.6s-0.3-4.8-0.9-6.6
			c-0.6-1.8-1.4-3.3-2.6-4.4c-1.2-1.1-2.6-1.9-4.4-2.5c-1.8-0.5-3.8-0.8-6.2-0.8h-6.7v28.4H296z"/>
		<path style="fill:#527A38;" d="M317.2,214.3v-29.9h0.9v29.9H317.2z"/>
		<path style="fill:#527A38;" d="M337,199.9c-0.5,0.1-1,0.1-1.6,0.1c-0.6,0-1.1,0.1-1.7,0.1h-6.4v14.3h-0.9v-29.9h7.3
			c1.4,0,2.7,0.1,3.9,0.4c1.2,0.3,2.2,0.7,3.1,1.3c0.9,0.6,1.6,1.4,2,2.4c0.5,1,0.7,2.3,0.7,3.8c0,2.3-0.5,4-1.5,5.1
			c-1,1.1-2.4,1.9-4.1,2.3l7.5,14.1v0.6h-0.7L337,199.9z M327.3,199.3h6.4c1.4,0,2.6-0.1,3.7-0.3s2.1-0.5,2.8-1.1
			c0.8-0.5,1.4-1.2,1.8-2.1c0.4-0.9,0.6-2.1,0.6-3.6c0-1.4-0.2-2.6-0.7-3.5c-0.5-0.9-1.1-1.6-1.9-2.2c-0.8-0.5-1.8-0.9-2.8-1.1
			c-1.1-0.2-2.3-0.3-3.5-0.3h-6.4V199.3z"/>
		<path style="fill:#527A38;" d="M357.2,214.3v-29.2H347v-0.7h21.4v0.7h-10.3v29.2H357.2z"/>
		<path style="fill:#527A38;" d="M381,214.3v-12.8l-9.8-16.6v-0.6h0.6l9.6,16.4h0l9.7-16.4h0.6v0.6l-9.8,16.6v12.8H381z"/>
	</g>
	<g>
		<path style="fill:#527A38;" d="M297.3,237.3h1.7l11.3,28.7h0l11.3-28.7h1.7v29.9h-0.9v-29.3h-0.2l-11.5,29.3h-0.8l-11.5-29.3h-0.2
			v29.3h-0.9V237.3z"/>
		<path style="fill:#527A38;" d="M331.6,237.3h17.3v0.7h-16.4v13.3h12.5v0.7h-12.5v14.4h17v0.7h-17.9V237.3z"/>
		<path style="fill:#527A38;" d="M352.9,266.6l10-14.9l-9.2-13.9v-0.6h0.6l9.1,13.8l9-13.8h0.5v0.6l-9.1,14l9.8,14.8v0.6h-0.6
			l-9.8-14.8l-9.8,14.8h-0.6V266.6z"/>
		<path style="fill:#527A38;" d="M379.7,267.2v-29.9h0.9v29.9H379.7z"/>
		<path style="fill:#527A38;" d="M399.7,267.3c-1.8,0-3.5-0.3-5-1c-1.5-0.7-2.8-1.6-4-2.9c-1.1-1.3-2-2.9-2.6-4.8
			c-0.6-1.9-0.9-4.1-0.9-6.6c0-2.5,0.3-4.7,1-6.5c0.7-1.9,1.6-3.4,2.8-4.7s2.5-2.2,4.1-2.8c1.5-0.6,3.1-0.9,4.8-0.9
			c1.2,0,2.3,0.1,3.2,0.3c0.9,0.2,1.7,0.4,2.4,0.7c0.7,0.3,1.3,0.7,1.9,1.1c0.6,0.4,1.1,0.9,1.7,1.4v0.7h-0.6
			c-0.4-0.5-0.9-1-1.4-1.4c-0.5-0.4-1.1-0.8-1.8-1.1s-1.5-0.6-2.3-0.7c-0.9-0.2-1.9-0.3-3-0.3c-1.6,0-3.2,0.3-4.6,0.9
			c-1.5,0.6-2.7,1.5-3.8,2.7c-1.1,1.2-1.9,2.7-2.6,4.4c-0.6,1.8-0.9,3.8-0.9,6.2c0,2.4,0.3,4.4,0.8,6.3c0.6,1.8,1.3,3.3,2.4,4.5
			c1,1.2,2.2,2.1,3.7,2.8c1.4,0.6,3,0.9,4.7,0.9c2.4,0,4.3-0.4,5.8-1.2c1.5-0.8,2.7-1.7,3.6-2.9h0.6v0.7c-0.5,0.5-1.1,1.1-1.8,1.6
			c-0.6,0.5-1.3,0.9-2.1,1.3c-0.8,0.4-1.7,0.7-2.7,0.9C402.1,267.2,401,267.3,399.7,267.3z"/>
		<path style="fill:#527A38;" d="M413,266.6l10.6-29.3h1.2l10.5,29.3v0.6h-0.6l-3.6-10h-13.8l-3.6,10H413V266.6z M417.4,256.4h13.3
			l-6.5-18.3h-0.1L417.4,256.4z"/>
		<path style="fill:#527A38;" d="M440.9,237.3h1.3l18.6,28.4h0v-28.4h0.9v29.9h-0.9l-19-29.1h0v29.1h-0.9V237.3z"/>
	</g>
	<g>
		<path style="fill:#527A38;" d="M322.1,320v-29.9h17.1v0.7h-16.3V305h12v0.7h-12V320H322.1z"/>
		<path style="fill:#527A38;" d="M345.2,320v-29.9h0.9V320H345.2z"/>
		<path style="fill:#527A38;" d="M354.4,290.1h17.3v0.7h-16.4v13.3h12.5v0.7h-12.5v14.4h17v0.7h-17.9V290.1z"/>
		<path style="fill:#527A38;" d="M384.8,320.2c-1.2,0-2.3-0.1-3.2-0.2c-0.9-0.2-1.8-0.4-2.5-0.6c-0.7-0.3-1.4-0.5-2-0.9
			c-0.6-0.3-1.1-0.7-1.6-1v-0.7h0.6c0.4,0.3,0.9,0.7,1.4,1c0.5,0.3,1.1,0.6,1.8,0.9c0.7,0.3,1.5,0.5,2.4,0.6
			c0.9,0.2,1.9,0.2,3.1,0.2c1.2,0,2.4-0.1,3.4-0.4c1-0.3,1.9-0.7,2.7-1.3c0.8-0.6,1.3-1.4,1.8-2.3c0.4-0.9,0.6-2.1,0.6-3.5
			c0-1.3-0.3-2.3-0.7-3.1c-0.5-0.8-1.2-1.4-2-1.9c-0.8-0.5-1.8-0.9-2.8-1.3c-1.1-0.3-2.2-0.6-3.3-1c-1-0.3-2-0.6-3-0.9
			c-1-0.3-1.9-0.8-2.6-1.3c-0.8-0.5-1.4-1.2-1.8-2.1c-0.5-0.8-0.7-1.9-0.7-3.2c0-1,0.2-1.9,0.5-2.8c0.4-0.9,0.9-1.6,1.6-2.3
			c0.7-0.6,1.6-1.2,2.6-1.5c1.1-0.4,2.3-0.6,3.8-0.6c1,0,1.8,0.1,2.6,0.2c0.8,0.1,1.4,0.3,2.1,0.5c0.6,0.2,1.2,0.5,1.8,0.8
			c0.5,0.3,1.1,0.7,1.6,1.1v0.7h-0.6c-0.4-0.4-0.8-0.7-1.3-1c-0.5-0.3-1-0.6-1.6-0.8c-0.6-0.2-1.3-0.4-2-0.6
			c-0.7-0.1-1.6-0.2-2.5-0.2c-1.3,0-2.5,0.2-3.5,0.5c-1,0.3-1.8,0.8-2.4,1.4c-0.6,0.6-1.1,1.2-1.4,2c-0.3,0.8-0.4,1.6-0.4,2.5
			c0,1.2,0.2,2.2,0.6,2.9c0.4,0.8,1,1.4,1.7,1.9c0.7,0.5,1.5,0.9,2.4,1.2c0.9,0.3,1.9,0.6,2.9,0.9c1.2,0.3,2.4,0.7,3.5,1.1
			c1.1,0.4,2.1,0.8,3,1.4c0.9,0.6,1.6,1.3,2.1,2.2c0.5,0.9,0.8,2,0.8,3.4c0,1.5-0.2,2.7-0.7,3.7c-0.5,1-1.1,1.9-2,2.6
			c-0.8,0.7-1.8,1.2-2.9,1.5C387.3,320,386.1,320.2,384.8,320.2z"/>
		<path style="fill:#527A38;" d="M406.7,320v-29.2h-10.3v-0.7h21.4v0.7h-10.3V320H406.7z"/>
		<path style="fill:#527A38;" d="M417.3,319.4l10.6-29.3h1.2l10.5,29.3v0.6h-0.6l-3.6-10h-13.8l-3.6,10h-0.6V319.4z M421.7,309.3
			H435l-6.5-18.3h-0.1L421.7,309.3z"/>
	</g>
	<g>
		<path style="fill:#5A823A;" d="M430.4,205.3c0,1.8-0.3,3.5-1,5c-0.7,1.5-1.7,2.8-3,3.8c-1.3,1.1-2.9,1.9-4.6,2.4
			c-1.8,0.6-3.9,0.8-6.5,0.8c-2.9,0-5.4-0.2-7.5-0.7c-2.1-0.5-3.8-1-5.1-1.6v-8.1h0.9c1.4,0.9,3,1.6,4.8,2.3c1.8,0.6,3.5,1,5,1
			c0.9,0,1.9-0.1,2.9-0.2c1.1-0.2,1.9-0.5,2.7-1c0.6-0.4,1-0.9,1.4-1.5c0.3-0.6,0.5-1.5,0.5-2.6c0-1.1-0.2-1.9-0.7-2.5
			c-0.5-0.6-1.1-1-1.9-1.3c-0.8-0.3-1.8-0.4-2.9-0.5c-1.1,0-2.1,0-3,0h-1.6v-6.6h1.5c1.1,0,2.2,0,3.1-0.1c1-0.1,1.8-0.3,2.4-0.6
			c0.7-0.3,1.2-0.8,1.6-1.3c0.4-0.6,0.6-1.3,0.6-2.3c0-0.8-0.2-1.4-0.5-1.8c-0.4-0.5-0.8-0.8-1.3-1.1c-0.6-0.3-1.3-0.5-2.1-0.6
			c-0.8-0.1-1.5-0.2-2.1-0.2c-0.9,0-1.9,0.1-2.8,0.3c-1,0.2-1.9,0.5-2.8,0.8c-0.7,0.3-1.4,0.6-2.2,1c-0.8,0.4-1.3,0.7-1.7,1h-0.8v-8
			c1.3-0.6,3-1.1,5.2-1.6c2.2-0.5,4.4-0.8,6.7-0.8c2.2,0,4.1,0.2,5.8,0.6c1.6,0.4,3,0.9,4.2,1.7c1.3,0.8,2.2,1.8,2.9,3
			c0.6,1.2,1,2.6,1,4.1c0,2.1-0.6,4-1.8,5.6c-1.2,1.6-2.8,2.6-4.8,3.1v0.3c0.9,0.1,1.7,0.4,2.6,0.7c0.8,0.3,1.7,0.8,2.5,1.6
			c0.8,0.6,1.4,1.5,1.9,2.5C430.1,202.7,430.4,203.9,430.4,205.3z"/>
		<path style="fill:#5A823A;" d="M463.4,198c0,3.2-0.3,6-0.8,8.5c-0.5,2.4-1.3,4.4-2.5,6.1c-1.1,1.6-2.6,2.8-4.4,3.7
			c-1.8,0.8-4,1.2-6.7,1.2c-2.6,0-4.8-0.4-6.7-1.2c-1.8-0.8-3.3-2.1-4.5-3.7c-1.1-1.6-2-3.6-2.5-6c-0.5-2.4-0.8-5.2-0.8-8.4
			c0-3.3,0.3-6.1,0.8-8.5c0.5-2.3,1.4-4.3,2.5-6c1.2-1.7,2.7-2.9,4.5-3.7c1.8-0.8,4-1.2,6.6-1.2c2.7,0,4.9,0.4,6.7,1.3
			c1.8,0.8,3.3,2.1,4.4,3.8c1.1,1.6,2,3.7,2.5,6.1C463.2,192.1,463.4,194.8,463.4,198z M454.1,198c0-4.6-0.4-7.8-1.1-9.7
			c-0.8-1.9-2-2.8-3.8-2.8c-1.8,0-3.1,0.9-3.8,2.8c-0.8,1.9-1.2,5.1-1.2,9.7c0,4.5,0.4,7.8,1.2,9.6c0.8,1.9,2,2.8,3.8,2.8
			c1.8,0,3.1-0.9,3.8-2.8C453.7,205.8,454.1,202.5,454.1,198z"/>
	</g>
</g>
</svg>
