<?xml version="1.0" encoding="utf-8"?>
<!-- Generator: Adobe Illustrator 16.0.0, SVG Export Plug-In . SVG Version: 6.00 Build 0)  -->
<!DOCTYPE svg PUBLIC "-//W3C//DTD SVG 1.1//EN" "http://www.w3.org/Graphics/SVG/1.1/DTD/svg11.dtd">
<svg version="1.1" id="Layer_2" xmlns="http://www.w3.org/2000/svg" xmlns:xlink="http://www.w3.org/1999/xlink" x="0px" y="0px"
	 width="759px" height="439px" viewBox="0 0 759 439" style="enable-background:new 0 0 759 439;" xml:space="preserve">
<style type="text/css">
<![CDATA[
	.st0{fill:#4659A7;}
	.st1{fill:#7DA0D4;}
	.st2{fill:#7F5E26;}
	.st3{fill:#151943;}
	.st4{fill:#171719;}
	.st5{fill:#172919;}
	.st6{fill:#18331B;}
	.st7{fill:#E72834;}
	.st8{fill:#E7E9E9;}
	.st9{fill:#E8EAEA;}
	.st10{fill-rule:evenodd;clip-rule:evenodd;fill:none;stroke:#E4C54B;stroke-width:1.7463;stroke-miterlimit:10;}
	.st11{fill:#EAE71E;}
	.st12{fill:#EB185B;}
	.st13{fill:#EC2127;}
	.st14{fill:#503C2C;}
	.st15{fill:#507FC1;}
	.st16{fill:#542D8B;}
	.st17{fill:#8C6828;}
	.st18{fill:#BF2327;}
	.st19{fill:#231F20;}
	.st20{fill:#F7F3A3;}
	.st21{fill-rule:evenodd;clip-rule:evenodd;fill:none;stroke:#E4C54B;stroke-width:2.6195;stroke-miterlimit:10;}
	.st22{fill:#C2922E;}
	.st23{fill:#C597C5;}
	.st24{fill:#966828;}
	.st25{fill:#2B378B;}
	.st26{fill:#FAA532;}
	.st27{fill:#FBCA28;}
	.st28{fill:#FBCD36;}
	.st29{fill-rule:evenodd;clip-rule:evenodd;}
	.st30{fill:#FFFFFF;}
	.st31{fill-rule:evenodd;clip-rule:evenodd;fill:#F0CEE3;}
	.st32{fill:#FFFFFF;stroke:#7DA0D4;stroke-miterlimit:10;}
	.st33{fill:none;}
	.st34{fill:#231F20;stroke:#231F20;stroke-width:0.5;stroke-miterlimit:10;}
	.st35{fill:#679B9B;}
	.st36{fill:#9B732B;}
	.st37{fill:#CB7361;}
	.st38{fill:#CC2228;}
	.st39{fill:#311C10;}
	.st40{fill:#EC2127;stroke:#EC2127;stroke-width:0.5;stroke-miterlimit:10;}
	.st41{fill:#381414;}
	.st42{fill-rule:evenodd;clip-rule:evenodd;fill:#FBCDCD;}
	.st43{fill:#010101;}
	.st44{fill-rule:evenodd;clip-rule:evenodd;fill:#FFFFFF;}
	.st45{fill:#FFFFFF;stroke:#FFFFFF;stroke-miterlimit:10;}
	.st46{fill-rule:evenodd;clip-rule:evenodd;fill:#641E0F;}
	.st47{fill:#D3D3D3;}
	.st48{fill:#060707;}
	.st49{fill:#080908;}
	.st50{fill:#721212;}
	.st51{fill:#0E8141;}
	.st52{fill:#424143;}
	.st53{fill:#4259A8;}
]]>
</style>
<g id="XMLID_9083_">
	<path id="XMLID_74_" class="st6" d="M759,151.8H472.2C452.7,116.4,418.5,93,379.5,93c-39,0-73.2,23.4-92.7,58.8H0v135.5h286.8
		c19.5,35.3,53.7,58.8,92.7,58.8c39,0,73.2-23.4,92.7-58.8H759V151.8z"/>
	<g id="XMLID_8751_">
		<path id="XMLID_8752_" class="st40" d="M515.4,207.7v0.6h-1.8v19.1c0,0.7,0.2,1.1,0.5,1.3s0.9,0.3,1.7,0.3v0.5h-5.9v-0.5h1.9
			v-18.6l-4.8,13l-5.1-12.5l-0.1,15.5c0,1,0.2,1.7,0.7,2.1c0.4,0.3,1,0.5,1.7,0.5v0.5h-5.3v-0.5h2v-18.1c0-1-0.2-1.7-0.7-2
			c-0.4-0.3-1-0.5-1.7-0.5v-0.6h3.8l5,12l4.5-12H515.4z"/>
		<path id="XMLID_8754_" class="st40" d="M532.4,224.5l0.5,0.2c-0.7,1.6-1.7,2.9-3,3.8c-1.3,0.9-2.9,1.3-4.7,1.3c-2,0-3.7-0.7-5.2-2
			c-1.5-1.3-2.2-3-2.2-4.9c0-2.2,0.9-4.1,2.6-5.7c1.7-1.6,3.7-2.3,5.9-2.3c1.4,0,2.7,0.4,3.9,1.3c1.2,0.8,2,1.9,2.5,3.2h-13
			c-0.4,0.8-0.7,1.8-0.7,2.9v0.3c0,1.8,0.7,3.3,2.1,4.5c1.4,1.3,3,1.9,4.8,1.9h0.1c1.4,0,2.6-0.4,3.7-1.2
			C530.8,226.9,531.7,225.8,532.4,224.5z M520.2,218.5h10.4c-0.6-0.8-1.4-1.5-2.3-1.9c-0.9-0.5-1.9-0.7-3-0.7c-1,0-2,0.2-2.9,0.7
			C521.4,217.1,520.7,217.7,520.2,218.5z"/>
		<path id="XMLID_8757_" class="st40" d="M534.8,218.3l3.5-4.3l0.4,0.5l-0.9,1v1.2c0.6-0.6,1.1-1,1.5-1.3c0.6-0.4,1.2-0.5,1.9-0.5
			c0.3,0,0.6,0,0.9,0.1c0.3,0.1,0.6,0.2,1,0.3V214h0.6v6.1h-0.6v-1c0-0.4,0-0.8,0-1.1c0-0.3-0.1-0.5-0.2-0.9
			c-0.3-0.9-0.9-1.5-1.8-1.6h-0.3c-0.5,0-1.1,0.3-1.7,0.8s-1,1-1.3,1.6v9.3c0,0.7,0.2,1.1,0.5,1.3c0.2,0.1,0.7,0.2,1.5,0.2v0.5h-5
			v-0.5h1.5v-11.6l-1.1,1.4L534.8,218.3z"/>
		<path id="XMLID_8759_" class="st40" d="M546.3,218.3l3.5-4.3l0.4,0.5l-0.9,1v1.2c0.6-0.6,1.1-1,1.5-1.3c0.6-0.4,1.2-0.5,1.9-0.5
			c0.3,0,0.6,0,0.9,0.1c0.3,0.1,0.6,0.2,1,0.3V214h0.6v6.1h-0.6v-1c0-0.4,0-0.8,0-1.1c0-0.3-0.1-0.5-0.2-0.9
			c-0.3-0.9-0.9-1.5-1.8-1.6h-0.3c-0.5,0-1.1,0.3-1.7,0.8c-0.6,0.5-1,1-1.3,1.6v9.3c0,0.7,0.2,1.1,0.5,1.3c0.2,0.1,0.7,0.2,1.5,0.2
			v0.5h-5v-0.5h1.5v-11.6l-1.1,1.4L546.3,218.3z"/>
		<path id="XMLID_8761_" class="st40" d="M569.1,215.8l-3.4,9.1c-0.9,2.3-1.5,3.7-1.7,4.4c-0.7,1.6-1.3,3-2,4.2
			c-1,1.7-1.9,2.9-2.8,3.7c-0.8,0.7-1.6,1.2-2.4,1.3v-2.3h0.4c0.2,0.2,0.3,0.3,0.5,0.3c0.4,0,1.1-0.5,1.9-1.4c0.5-0.6,1-1.3,1.5-2
			c0.6-0.9,1.1-1.8,1.6-2.7c0.5-0.9,0.9-1.8,1.2-2.8l-3.1-9c-0.3-1-0.6-1.7-0.8-2c-0.4-0.6-1-0.9-1.7-0.9h-0.3v-0.5h4.9v0.5h-1.4
			l3.4,9.8c0.8-2.1,1.3-3.6,1.5-4.3c0.7-2,1-3.4,1-4.3c0-0.6-0.2-0.9-0.5-1.1c-0.1-0.1-0.6-0.1-1.3-0.2v-0.5h5v0.5H569.1z"/>
		<path id="XMLID_8763_" class="st40" d="M598.5,206.7v8.4h-0.6c0-1.5-0.1-2.6-0.2-3.3c-0.1-0.7-0.4-1.3-0.7-1.8
			c-0.5-0.7-1.4-1.2-2.4-1.6c-1.1-0.4-2.1-0.6-3.2-0.6c-2.8,0-5.2,1-7.1,3c-1.9,2-2.9,4.5-2.9,7.3c0,2.9,1,5.5,3.1,7.7
			c2,2.3,4.5,3.4,7.3,3.4h0.1c1.3,0,2.5-0.3,3.7-0.8c1.2-0.6,2.3-1.3,3.2-2.3l0.7,0.7c-1.1,1-2.3,1.7-3.8,2.3
			c-1.4,0.5-2.9,0.8-4.3,0.8c-3.2,0-6-1.1-8.3-3.2c-2.3-2.2-3.5-4.8-3.5-8c0-1.5,0.3-2.9,1-4.4c0.6-1.5,1.5-2.7,2.5-3.8
			c1.1-1.2,2.5-2,4-2.6s3.1-0.9,4.9-0.9c1.1,0,2.2,0.1,3.1,0.3c0.9,0.2,1.9,0.6,2.8,1.2v-1.9H598.5z"/>
		<path id="XMLID_8765_" class="st40" d="M602,229.4v-0.5h1.5v-20.7l-1.4,1.6l-0.5-0.4l3.6-4.2l0.4,0.4l-0.7,0.7v10.2
			c0.5-0.5,1.1-0.9,1.6-1.2c0.7-0.3,1.3-0.5,1.9-0.5c0.6,0,1.2,0.1,1.7,0.4c0.5,0.3,1,0.7,1.3,1.2c0.3,0.5,0.6,1.1,0.6,1.7
			c0.1,0.6,0.1,1.4,0.1,2.3v6.9c0,0.7,0.1,1.1,0.4,1.3s0.8,0.2,1.5,0.2v0.5h-5v-0.5h1.5v-8.5V220c0-0.6,0-1.1-0.1-1.5
			c-0.1-0.4-0.2-0.8-0.4-1.2c-0.4-1.1-1.3-1.7-2.4-1.7c-0.9,0-1.6,0.4-2.2,1.2c-0.5,0.8-0.8,1.7-0.8,2.7v7.8c0,0.7,0.2,1.1,0.5,1.3
			c0.2,0.1,0.7,0.2,1.5,0.2v0.5H602z"/>
		<path id="XMLID_8767_" class="st40" d="M616.3,218.3l3.5-4.3l0.4,0.5l-0.9,1v1.2c0.6-0.6,1.1-1,1.5-1.3c0.6-0.4,1.2-0.5,1.9-0.5
			c0.3,0,0.6,0,0.9,0.1c0.3,0.1,0.6,0.2,1,0.3V214h0.6v6.1h-0.6v-1c0-0.4,0-0.8,0-1.1c0-0.3-0.1-0.5-0.2-0.9
			c-0.3-0.9-0.9-1.5-1.8-1.6h-0.3c-0.5,0-1.1,0.3-1.7,0.8s-1,1-1.3,1.6v9.3c0,0.7,0.2,1.1,0.5,1.3c0.2,0.1,0.7,0.2,1.5,0.2v0.5h-5
			v-0.5h1.5v-11.6l-1.1,1.4L616.3,218.3z"/>
		<path id="XMLID_8769_" class="st40" d="M630.9,215.4v11.9c0,0.7,0.1,1.1,0.4,1.3c0.2,0.1,0.5,0.2,1.1,0.2v0.5h-4.6v-0.5h1.5v-11.6
			l-1.2,1.5l-0.5-0.4l3.6-4.2l0.5,0.3L630.9,215.4z M630.1,211c-0.4,0-0.7-0.1-1-0.4c-0.3-0.3-0.4-0.6-0.4-1s0.1-0.7,0.4-1
			c0.3-0.3,0.6-0.4,1-0.4c0.4,0,0.7,0.1,0.9,0.4c0.3,0.3,0.4,0.6,0.4,0.9c0,0.4-0.1,0.8-0.4,1C630.8,210.8,630.4,211,630.1,211z"/>
		<path id="XMLID_8772_" class="st40" d="M643.5,214.1h0.6v5.6h-0.6v-0.5c0-1.1-0.2-2-0.5-2.6c-0.5-0.8-1.2-1.2-2.3-1.2
			c-0.7,0-1.3,0.2-1.7,0.6c-0.5,0.4-0.7,1-0.7,1.7c0,0.7,0.4,1.3,1.3,1.7c0.6,0.3,1,0.5,1.3,0.6c1.9,0.7,3.1,1.2,3.7,1.6
			c1.2,0.8,1.7,1.9,1.7,3.4c0,1.5-0.6,2.8-1.8,3.6c-1.1,0.8-2.4,1.2-4,1.2c-2,0-3.6-0.5-4.7-1.5c-0.9-0.8-1.3-1.7-1.3-2.8
			c0-1.1,0.3-2,1-2.7c0.7-0.7,1.6-1.1,2.6-1.1c0.8,0,1.4,0.2,2,0.6c0.6,0.4,0.9,1,0.9,1.8c0,0.5-0.1,0.9-0.4,1.3
			c-0.3,0.4-0.6,0.6-1.1,0.6c-0.4,0-0.5-0.1-0.5-0.3c0-0.1,0.1-0.3,0.2-0.6c0.1-0.3,0.2-0.5,0.2-0.7c0-0.5-0.2-0.8-0.6-1.1
			s-0.8-0.4-1.3-0.4c-0.6,0-1.2,0.2-1.6,0.6c-0.4,0.4-0.6,0.9-0.6,1.6c0,1.1,0.6,2.2,1.8,3c1.2,0.9,2.5,1.3,4.1,1.3h0.1
			c1.1,0,2-0.4,2.7-1.1c0.7-0.7,1.1-1.7,1.1-2.8s-0.4-2-1.2-2.6c-0.5-0.3-1.4-0.7-2.8-1.2c-1.4-0.5-2.3-0.8-2.6-1.1
			c-0.8-0.6-1.2-1.4-1.2-2.5c0-1,0.4-1.8,1.1-2.3c0.8-0.6,1.6-0.9,2.6-0.9c0.4,0,0.8,0.1,1.2,0.2c0.4,0.1,0.8,0.3,1.3,0.5h0.2V214.1
			z"/>
		<path id="XMLID_8774_" class="st40" d="M651.7,215.8v9.3c0,1.2,0.2,2.1,0.6,2.9c0.4,0.8,1,1.1,1.9,1.1h0.1c0.7,0,1.3-0.2,1.8-0.6
			c0.5-0.4,1-0.9,1.5-1.6l0.5,0.2c0,0.8-0.3,1.4-1,1.9c-0.7,0.5-1.4,0.7-2.3,0.7c-0.7,0-1.4-0.1-2-0.4c-0.6-0.3-1.1-0.6-1.5-1.1
			c-0.4-0.5-0.6-1-0.9-1.7c-0.2-0.6-0.3-1.3-0.3-1.9v-0.2v-8.7h-1.7v-0.7h1.7v-5.5l1.5-1.7v7.2h2.9v0.7H651.7z"/>
		<path id="XMLID_8776_" class="st40" d="M672.6,228.9v-9c0-1.1-0.1-2-0.3-2.6c-0.3-1.1-0.9-1.6-1.8-1.6c-0.7,0-1.1,0.2-1.4,0.7
			c-0.3,0.5-0.4,1-0.4,1.8v9.3c0,0.7,0.2,1.1,0.5,1.3c0.2,0.1,0.7,0.2,1.5,0.2v0.5h-5v-0.5h1.5v-9.9c0-0.9-0.1-1.6-0.2-2.1
			c-0.2-0.8-0.7-1.3-1.4-1.3c-0.6,0-1.2,0.2-1.6,0.7c-0.4,0.5-0.7,1-0.9,1.7v9.3c0,0.7,0.2,1.1,0.5,1.3c0.2,0.1,0.7,0.2,1.5,0.2v0.5
			H660v-0.5h1.6v-11.7l-1.2,1.5l-0.4-0.4l3.6-4.2l0.4,0.4l-0.9,1v0.7c0.3-0.4,0.7-0.6,1.2-0.9s0.9-0.4,1.4-0.4
			c0.5,0,1.1,0.1,1.5,0.4c0.5,0.3,0.8,0.6,1.1,1.1c0.5-1,1.4-1.5,2.6-1.5c1.1,0,1.9,0.4,2.6,1.3c0.3,0.4,0.5,0.9,0.5,1.4
			c0.1,0.5,0.1,1.2,0.1,1.9v7.9c0,0.7,0.1,1.1,0.4,1.3s0.8,0.2,1.5,0.2v0.5h-5v-0.5H672.6z"/>
		<path id="XMLID_8778_" class="st40" d="M686.4,229.4v-0.7c-0.5,0.3-1.1,0.6-1.7,0.8c-0.6,0.2-1.2,0.3-1.8,0.3
			c-1.3,0-2.5-0.4-3.4-1.3s-1.4-2-1.4-3.3c0-1.5,0.6-2.8,1.8-3.8c1.2-1,2.6-1.6,4.1-1.6c0.4,0,0.8,0,1.2,0.1
			c0.3,0.1,0.7,0.3,1.1,0.5v-1.3c0-0.6,0-1-0.1-1.3c-0.1-0.3-0.2-0.6-0.3-0.9c-0.6-1-1.4-1.5-2.6-1.5c-1.2,0-2.1,0.5-2.8,1.6
			s-1,2.2-1,3.4H679v-5.8h0.6v2c0.6-0.6,1.2-1.1,1.9-1.4c0.7-0.3,1.4-0.5,2.2-0.5c0.8,0,1.5,0.1,2,0.4c0.6,0.3,1.1,0.7,1.5,1.4
			c0.2,0.4,0.4,0.8,0.5,1.4c0.1,0.6,0.2,1.4,0.2,2.4v6.9c0,0.7,0.2,1.1,0.5,1.3c0.2,0.1,0.7,0.2,1.5,0.2v0.5H686.4z M686.4,227.7
			v-5.4c-0.5-0.5-0.9-0.9-1.3-1.1c-0.5-0.3-1.1-0.4-1.7-0.4c-1.1,0-2,0.4-2.8,1.1c-0.8,0.7-1.3,1.6-1.3,2.6v0.2
			c0,1.1,0.4,2.1,1.2,3.1s1.8,1.4,2.9,1.4C684.6,229,685.6,228.6,686.4,227.7z"/>
		<path id="XMLID_8781_" class="st40" d="M701.1,214.1h0.6v5.6h-0.6v-0.5c0-1.1-0.2-2-0.5-2.6c-0.5-0.8-1.2-1.2-2.3-1.2
			c-0.7,0-1.3,0.2-1.7,0.6s-0.7,1-0.7,1.7c0,0.7,0.4,1.3,1.3,1.7c0.6,0.3,1,0.5,1.3,0.6c1.9,0.7,3.1,1.2,3.7,1.6
			c1.2,0.8,1.7,1.9,1.7,3.4c0,1.5-0.6,2.8-1.8,3.6c-1.1,0.8-2.4,1.2-4,1.2c-2,0-3.6-0.5-4.7-1.5c-0.9-0.8-1.3-1.7-1.3-2.8
			c0-1.1,0.3-2,1-2.7c0.7-0.7,1.6-1.1,2.6-1.1c0.8,0,1.4,0.2,2,0.6c0.6,0.4,0.9,1,0.9,1.8c0,0.5-0.1,0.9-0.4,1.3
			c-0.3,0.4-0.6,0.6-1.1,0.6c-0.4,0-0.5-0.1-0.5-0.3c0-0.1,0.1-0.3,0.2-0.6c0.1-0.3,0.2-0.5,0.2-0.7c0-0.5-0.2-0.8-0.6-1.1
			c-0.4-0.3-0.8-0.4-1.3-0.4c-0.6,0-1.2,0.2-1.6,0.6c-0.4,0.4-0.6,0.9-0.6,1.6c0,1.1,0.6,2.2,1.8,3c1.2,0.9,2.5,1.3,4.1,1.3h0.1
			c1.1,0,2-0.4,2.7-1.1c0.7-0.7,1.1-1.7,1.1-2.8s-0.4-2-1.2-2.6c-0.5-0.3-1.4-0.7-2.8-1.2c-1.4-0.5-2.3-0.8-2.6-1.1
			c-0.8-0.6-1.2-1.4-1.2-2.5c0-1,0.4-1.8,1.1-2.3c0.8-0.6,1.6-0.9,2.6-0.9c0.4,0,0.8,0.1,1.2,0.2c0.4,0.1,0.8,0.3,1.3,0.5h0.2V214.1
			z"/>
		<path id="XMLID_8783_" class="st40" d="M707.8,230c-0.4,0-0.6-0.1-0.9-0.3c-0.2-0.2-0.4-0.5-0.4-0.9c0-0.4,0.1-0.7,0.4-0.9
			c0.3-0.3,0.6-0.4,0.9-0.4c0.4,0,0.6,0.1,0.9,0.4c0.2,0.3,0.4,0.6,0.4,0.9c0,0.3-0.1,0.6-0.3,0.8C708.4,229.8,708.1,230,707.8,230z
			 M708.2,225.8h-0.9l-0.5-13l-0.1-1c0-1.1,0.1-2.1,0.2-3.1c0.2-1,0.4-1.5,0.8-1.5c0.4,0,0.6,0.6,0.8,1.9c0.1,0.8,0.2,1.8,0.2,3v0.6
			L708.2,225.8z"/>
	</g>
	<g id="XMLID_272_">
		<g id="XMLID_300_">
			<g id="XMLID_1012_">
				<path id="XMLID_301_" class="st51" d="M414.3,218.1c0,0,8.3,0.5,20.3-7.8c0,0-28.3-6.7-38.3-37c0,0,8.3-0.2,15.8-2.7
					c0,0-20-10.3-32.5-42.3c-12.5,32-32.5,42.3-32.5,42.3c7.5,2.5,15.8,2.7,15.8,2.7c-10,30.3-38.3,37-38.3,37
					c12,8.3,20.3,7.8,20.3,7.8c-15.8,25.7-48,29.5-48,29.5c30.3,28.2,70,26.3,82.8,26.2s52.5,2.1,82.8-26.2
					C462.3,247.6,430,243.8,414.3,218.1z"/>
				<path id="XMLID_1009_" class="st19" d="M372.4,274.8c-17,0-50.2-2.1-76.4-26.5l-1.6-1.5l2.1-0.3c0.3,0,30.7-3.9,46.3-27.6
					c-3.1-0.3-10.1-1.7-19-7.9l-1.9-1.3l2.2-0.5c0.3-0.1,27.1-6.8,37.1-35.1c-2.7-0.2-8.9-0.8-14.7-2.7l-2.3-0.8l2.1-1.1
					c0.2-0.1,19.9-10.5,32-41.7l0.9-2.4l0.9,2.4c12.2,31.2,31.8,41.6,32,41.7l2.1,1.1l-2.3,0.8c-5.8,1.9-12,2.6-14.7,2.7
					c10.1,28.3,36.8,35,37.1,35.1l2.2,0.5l-1.8,1.3c-9,6.2-15.9,7.6-19,7.9c15.6,23.7,46,27.5,46.3,27.6l2.1,0.3l-1.6,1.5
					c-28.4,26.5-64.8,26.4-80.3,26.4c-1.2,0-2.2,0-3.1,0l-1.8,0C376.2,274.8,374.4,274.8,372.4,274.8z M298.9,248.2
					c28.4,25.4,64.9,24.8,78.8,24.5l1.8,0c0.9,0,2,0,3.2,0c15,0,49.8,0.1,77.4-24.5c-7.5-1.4-33.2-7.6-46.6-29.6l-1-1.6l1.9,0.1
					c0.1,0,7.3,0.3,17.9-6.4c-6.8-2.3-28.4-11.4-36.9-37l-0.4-1.3l1.3,0c0.1,0,6.7-0.2,13.3-2c-5.3-3.4-19.8-14.5-30.1-39.3
					c-10.3,24.8-24.8,35.9-30.1,39.3c6.6,1.8,13.2,2,13.3,2l1.3,0l-0.4,1.3c-8.5,25.6-30.1,34.7-36.9,37c10.6,6.7,17.8,6.4,17.9,6.4
					l1.9-0.1l-1,1.6C332.1,240.6,306.4,246.8,298.9,248.2z"/>
			</g>
			<g id="XMLID_1008_">
				<path id="XMLID_299_" class="st14" d="M379.5,273.7c-8.1,0-16.2-0.2-16.2-0.2s0,15.2,0,19.6c0,4.8,16.2,5.3,16.2,5.3
					s16.2-0.5,16.2-5.3c0-4.3,0-19.7,0-19.7S387.6,273.7,379.5,273.7z"/>
				<path id="XMLID_1005_" class="st19" d="M379.5,299.5c-2.9-0.1-17.2-0.8-17.2-6.3v-20.6l1,0c0.1,0,8.2,0.2,16.2,0.2
					c8,0,16.1-0.3,16.2-0.3l1,0v20.7C396.7,298.7,382.4,299.4,379.5,299.5z M364.3,274.6v18.6c0,2.6,9.1,4.1,15.2,4.3
					c6.1-0.2,15.2-1.7,15.2-4.3v-18.7c-2.4,0.1-8.8,0.2-15.2,0.2C373.1,274.7,366.7,274.6,364.3,274.6z"/>
			</g>
		</g>
		<g id="XMLID_1004_">
			<circle id="XMLID_298_" class="st11" cx="325.1" cy="250.3" r="3.4"/>
			<path id="XMLID_1001_" class="st19" d="M325.1,254.6c-2.4,0-4.4-2-4.4-4.4c0-2.4,2-4.4,4.4-4.4c2.4,0,4.4,2,4.4,4.4
				C329.5,252.7,327.5,254.6,325.1,254.6z M325.1,247.9c-1.3,0-2.4,1.1-2.4,2.4s1.1,2.4,2.4,2.4c1.3,0,2.4-1.1,2.4-2.4
				S326.4,247.9,325.1,247.9z"/>
		</g>
		<g id="XMLID_1000_">
			<circle id="XMLID_297_" class="st11" cx="421.1" cy="253" r="3.4"/>
			<path id="XMLID_997_" class="st19" d="M421.1,257.4c-2.4,0-4.4-2-4.4-4.4s2-4.4,4.4-4.4s4.4,2,4.4,4.4S423.5,257.4,421.1,257.4z
				 M421.1,250.7c-1.3,0-2.4,1.1-2.4,2.4s1.1,2.4,2.4,2.4c1.3,0,2.4-1.1,2.4-2.4S422.4,250.7,421.1,250.7z"/>
		</g>
		<g id="XMLID_996_">
			<circle id="XMLID_296_" class="st13" cx="353" cy="241.6" r="3.4"/>
			<path id="XMLID_993_" class="st19" d="M353,246c-2.4,0-4.4-2-4.4-4.4s2-4.4,4.4-4.4c2.4,0,4.4,2,4.4,4.4S355.4,246,353,246z
				 M353,239.3c-1.3,0-2.4,1.1-2.4,2.4s1.1,2.4,2.4,2.4c1.3,0,2.4-1.1,2.4-2.4S354.3,239.3,353,239.3z"/>
		</g>
		<g id="XMLID_992_">
			<circle id="XMLID_295_" class="st11" cx="378.5" cy="218" r="3.4"/>
			<path id="XMLID_989_" class="st19" d="M378.5,222.4c-2.4,0-4.4-2-4.4-4.4s2-4.4,4.4-4.4s4.4,2,4.4,4.4S380.9,222.4,378.5,222.4z
				 M378.5,215.6c-1.3,0-2.4,1.1-2.4,2.4s1.1,2.4,2.4,2.4c1.3,0,2.4-1.1,2.4-2.4S379.8,215.6,378.5,215.6z"/>
		</g>
		<g id="XMLID_988_">
			<circle id="XMLID_293_" class="st53" cx="356.4" cy="204.9" r="3.4"/>
			<path id="XMLID_985_" class="st19" d="M356.4,209.2c-2.4,0-4.4-2-4.4-4.4c0-2.4,2-4.4,4.4-4.4c2.4,0,4.4,2,4.4,4.4
				C360.7,207.3,358.8,209.2,356.4,209.2z M356.4,202.5c-1.3,0-2.4,1.1-2.4,2.4s1.1,2.4,2.4,2.4c1.3,0,2.4-1.1,2.4-2.4
				S357.7,202.5,356.4,202.5z"/>
		</g>
		<g id="XMLID_984_">
			<circle id="XMLID_292_" class="st11" cx="373.1" cy="178.9" r="3.4"/>
			<path id="XMLID_981_" class="st19" d="M373.1,183.2c-2.4,0-4.4-2-4.4-4.4c0-2.4,2-4.4,4.4-4.4c2.4,0,4.4,2,4.4,4.4
				C377.5,181.3,375.5,183.2,373.1,183.2z M373.1,176.5c-1.3,0-2.4,1.1-2.4,2.4s1.1,2.4,2.4,2.4c1.3,0,2.4-1.1,2.4-2.4
				S374.4,176.5,373.1,176.5z"/>
		</g>
		<g id="XMLID_980_">
			<circle id="XMLID_291_" class="st13" cx="394.4" cy="191.4" r="3.4"/>
			<path id="XMLID_977_" class="st19" d="M394.4,195.7c-2.4,0-4.4-2-4.4-4.4c0-2.4,2-4.4,4.4-4.4c2.4,0,4.4,2,4.4,4.4
				C398.7,193.8,396.8,195.7,394.4,195.7z M394.4,189c-1.3,0-2.4,1.1-2.4,2.4s1.1,2.4,2.4,2.4c1.3,0,2.4-1.1,2.4-2.4
				S395.7,189,394.4,189z"/>
		</g>
		<g id="XMLID_976_">
			<circle id="XMLID_290_" class="st53" cx="379.5" cy="150" r="3.4"/>
			<path id="XMLID_973_" class="st19" d="M379.5,154.4c-2.4,0-4.4-2-4.4-4.4s2-4.4,4.4-4.4s4.4,2,4.4,4.4S381.9,154.4,379.5,154.4z
				 M379.5,147.7c-1.3,0-2.4,1.1-2.4,2.4s1.1,2.4,2.4,2.4c1.3,0,2.4-1.1,2.4-2.4S380.8,147.7,379.5,147.7z"/>
		</g>
		<g id="XMLID_972_">
			<circle id="XMLID_289_" class="st13" cx="401.1" cy="229.4" r="3.4"/>
			<path id="XMLID_969_" class="st19" d="M401.1,233.7c-2.4,0-4.4-2-4.4-4.4c0-2.4,2-4.4,4.4-4.4c2.4,0,4.4,2,4.4,4.4
				C405.4,231.8,403.5,233.7,401.1,233.7z M401.1,227c-1.3,0-2.4,1.1-2.4,2.4s1.1,2.4,2.4,2.4c1.3,0,2.4-1.1,2.4-2.4
				S402.4,227,401.1,227z"/>
		</g>
		<g id="XMLID_968_">
			<circle id="XMLID_288_" class="st53" cx="379.8" cy="256.4" r="3.4"/>
			<path id="XMLID_965_" class="st19" d="M379.8,260.7c-2.4,0-4.4-2-4.4-4.4c0-2.4,2-4.4,4.4-4.4c2.4,0,4.4,2,4.4,4.4
				C384.2,258.8,382.2,260.7,379.8,260.7z M379.8,254c-1.3,0-2.4,1.1-2.4,2.4s1.1,2.4,2.4,2.4c1.3,0,2.4-1.1,2.4-2.4
				S381.1,254,379.8,254z"/>
		</g>
		<g id="XMLID_964_">
			<polygon id="XMLID_960_" class="st11" points="379.5,112.8 383,119.9 390.8,121 385.1,126.5 386.5,134.2 379.5,130.6 
				372.5,134.2 373.9,126.5 368.2,121 376,119.9 			"/>
			<path id="XMLID_961_" class="st19" d="M387.8,136.1l-8.3-4.4l-8.3,4.4l1.6-9.2l-6.7-6.5l9.3-1.3l4.1-8.4l4.1,8.4l9.3,1.3
				l-6.7,6.5L387.8,136.1z M379.5,129.4l5.6,3l-1.1-6.3l4.6-4.4l-6.3-0.9l-2.8-5.7l-2.8,5.7l-6.3,0.9l4.6,4.4l-1.1,6.3L379.5,129.4z
				"/>
		</g>
	</g>
</g>
</svg>
