<?xml version="1.0" encoding="utf-8"?>
<!-- Generator: Adobe Illustrator 16.0.0, SVG Export Plug-In . SVG Version: 6.00 Build 0)  -->
<!DOCTYPE svg PUBLIC "-//W3C//DTD SVG 1.1//EN" "http://www.w3.org/Graphics/SVG/1.1/DTD/svg11.dtd">
<svg version="1.1" id="Layer_2" xmlns="http://www.w3.org/2000/svg" xmlns:xlink="http://www.w3.org/1999/xlink" x="0px" y="0px"
	 width="759px" height="439px" viewBox="0 0 759 439" style="enable-background:new 0 0 759 439;" xml:space="preserve">
<style type="text/css">
<![CDATA[
	.st0{fill:#4659A7;}
	.st1{fill:#7DA0D4;}
	.st2{fill:#7F5E26;}
	.st3{fill:#151943;}
	.st4{fill:#171719;}
	.st5{fill:#172919;}
	.st6{fill:#18331B;}
	.st7{fill:#E72834;}
	.st8{fill:#E7E9E9;}
	.st9{fill:#E8EAEA;}
	.st10{fill-rule:evenodd;clip-rule:evenodd;fill:none;stroke:#E4C54B;stroke-width:1.7463;stroke-miterlimit:10;}
	.st11{fill:#EAE71E;}
	.st12{fill:#EB185B;}
	.st13{fill:#EC2127;}
	.st14{fill:#503C2C;}
	.st15{fill:#507FC1;}
	.st16{fill:#542D8B;}
	.st17{fill:#8C6828;}
	.st18{fill:#BF2327;}
	.st19{fill:#231F20;}
	.st20{fill:#F7F3A3;}
	.st21{fill-rule:evenodd;clip-rule:evenodd;fill:none;stroke:#E4C54B;stroke-width:2.6195;stroke-miterlimit:10;}
	.st22{fill:#C2922E;}
	.st23{fill:#C597C5;}
	.st24{fill:#966828;}
	.st25{fill:#2B378B;}
	.st26{fill:#FAA532;}
	.st27{fill:#FBCA28;}
	.st28{fill:#FBCD36;}
	.st29{fill-rule:evenodd;clip-rule:evenodd;}
	.st30{fill:#FFFFFF;}
	.st31{fill-rule:evenodd;clip-rule:evenodd;fill:#F0CEE3;}
	.st32{fill:#FFFFFF;stroke:#7DA0D4;stroke-miterlimit:10;}
	.st33{fill:none;}
	.st34{fill:#231F20;stroke:#231F20;stroke-width:0.5;stroke-miterlimit:10;}
	.st35{fill:#679B9B;}
	.st36{fill:#9B732B;}
	.st37{fill:#CB7361;}
	.st38{fill:#CC2228;}
	.st39{fill:#311C10;}
	.st40{fill:#EC2127;stroke:#EC2127;stroke-width:0.5;stroke-miterlimit:10;}
	.st41{fill:#381414;}
	.st42{fill-rule:evenodd;clip-rule:evenodd;fill:#FBCDCD;}
	.st43{fill:#010101;}
	.st44{fill-rule:evenodd;clip-rule:evenodd;fill:#FFFFFF;}
	.st45{fill:#FFFFFF;stroke:#FFFFFF;stroke-miterlimit:10;}
	.st46{fill-rule:evenodd;clip-rule:evenodd;fill:#641E0F;}
	.st47{fill:#D3D3D3;}
	.st48{fill:#060707;}
	.st49{fill:#080908;}
	.st50{fill:#721212;}
	.st51{fill:#0E8141;}
	.st52{fill:#424143;}
	.st53{fill:#4259A8;}
]]>
</style>
<g id="XMLID_9083_">
	<path id="XMLID_304_" class="st6" d="M759,151.8H472.2C452.7,116.4,418.5,93,379.5,93c-39,0-73.2,23.4-92.7,58.8H0v135.5h286.8
		c19.5,35.3,53.7,58.8,92.7,58.8c39,0,73.2-23.4,92.7-58.8H759V151.8z"/>
	<g id="XMLID_8683_">
		<path id="XMLID_8684_" class="st30" d="M356.7,157c-1.4,0-2.8-1.6-2.8-5.1v-20.2c0-3.3-1.5-3.3-2.1-3.3c-0.7,0-2.1,0-2.1,3.8v23.6
			c0.1,0,0.2,0.1,0.2,0.2c0,0.4-1.4,1-2.5,1c-0.6,0-1.1,0-1.1-0.8v-24.4c0-3.3-1.4-3.3-2.1-3.3c-0.6,0-2.1,0-2.1,3.3v19.3
			c0,3.8-1.3,5.9-3.8,5.9c-1.6,0-2.1-1.3-2.1-2.1c0-0.4,0.6-0.1,1.2-0.3c0.6-0.2,1.2-1.3,1.2-4.1v-18.2c0-5.1,2.8-6.9,5.4-6.9
			c0.7,0,2.7,0.2,4,1.8c1.1-1.6,2.7-1.8,3.5-1.8c2.7,0,5.5,1.8,5.5,6.9v19.4c0,1.8,0.9,2.8,2,3.4C360,155.4,358.2,157.1,356.7,157z"
			/>
		<path id="XMLID_8686_" class="st30" d="M366,151.4c0.6,1.5,1.8,2.7,4.1,2.7c3.4,0,4.8-2.8,5.3-5.5c0.4-2,2.8-1.1,2.7,0.4
			c-0.3,2.7-2.1,7.9-8.5,7.9c-4,0-7.7-3.2-7.7-8.6c0-5.5,3.3-9.7,6.7-9.7c2.4,0,3.9,1.8,3.9,4.4C372.4,146.3,370.2,150.2,366,151.4z
			 M365.5,149c2.2-1,3.6-3.3,3.6-5.9c0-1-0.3-1.5-0.9-1.5c-2.1,0-2.8,4.8-2.7,6.6C365.4,148.5,365.5,148.8,365.5,149z"/>
		<path id="XMLID_8689_" class="st30" d="M381.3,152.1c0-2.8,0.8-5.9,2.2-9.6h-3.3h-0.5c0,1.7-0.3,5.5-1.1,8
			c-0.6,1.8-2.8,0.3-2.4-1.2c0.5-1.7,0.7-5.4,0.7-7.6c-1.1-0.6-1.9-1.5-1.9-2.8c0-1.2,1-2,2.2-2c1,0,2.3,0.5,2.8,2.3
			c1.4,0.2,1.9,0.2,2.3,0.2h2.3c0.5,0,2.3,1.4,2.1,2.4c0,0.5-2,5.7-2,10c0,1.2,0.6,2.4,1.7,2.4c2,0,2.8-2.8,3.1-4.7
			c0.2-0.9,0.6-1.3,1-1.3c0.7,0,1.5,1,1.5,1.8c0,0.1,0,0.2,0,0.3c-0.8,2.9-2.5,6.8-6.2,6.8C383.7,157,381.3,155.9,381.3,152.1z"/>
		<path id="XMLID_8691_" class="st30" d="M395.5,152.1c0-2.8,0.8-5.9,2.2-9.6h-3.3h-0.5c0,1.7-0.3,5.5-1.1,8
			c-0.6,1.8-2.8,0.3-2.4-1.2c0.5-1.7,0.7-5.4,0.7-7.6c-1.1-0.6-1.9-1.5-1.9-2.8c0-1.2,1-2,2.2-2c1,0,2.3,0.5,2.8,2.3
			c1.4,0.2,1.9,0.2,2.3,0.2h2.3c0.5,0,2.3,1.4,2.1,2.4c0,0.5-2,5.7-2,10c0,1.2,0.6,2.4,1.7,2.4c2,0,2.8-2.8,3.1-4.7
			c0.2-0.9,0.6-1.3,1-1.3c0.7,0,1.5,1,1.5,1.8c0,0.1,0,0.2,0,0.3c-0.8,2.9-2.5,6.8-6.2,6.8C398,157,395.5,155.9,395.5,152.1z"/>
		<path id="XMLID_8693_" class="st30" d="M421.3,148.1c0.7,0,1.5,1,1.5,1.8c0,0,0,0.3,0,0.4c-1.5,5.1-4,7.6-6.4,9.7v7.6
			c0,4.6-2.3,6.2-4.5,6.2c-2.4,0-4.2-2.2-4.2-5c0-4.4,2.5-6.6,5.4-9.2v-5.5c-1,1.7-2.4,3-4.3,3c-2.9,0-4.6-2.5-4.6-6.3
			c0-4.6,1.6-9.8,1.6-9.8c0.3-0.7,0-1.6,2.3-1.6c2.1,0,0.9,1.7,0.7,2.4c-0.8,3.2-1.3,5.2-1.3,8.8c0,2.4,0.7,3.6,2,3.6
			c1.7,0,3.1-2.8,3.6-5.9v-7c0-0.8-0.2-1.1-0.2-1.4c0-0.4,0.5-0.7,1.1-0.7c1.4,0,2.4,0.9,2.4,1.9v15.3c1.6-1.7,3-3.9,3.8-6.9
			C420.5,148.5,420.9,148.1,421.3,148.1z M413.1,167.6v-4.7c-1.4,1.4-2.4,3.1-2.4,5.7c0,1.4,0.4,2.4,1.1,2.4
			C413.3,171,413.1,168.4,413.1,167.6z"/>
		<path id="XMLID_8696_" class="st30" d="M318.6,182.7c0-1-0.7-2.4-2.7-2.4c-5.8,0-10.2,8.8-10.2,15.9c0,5.4,1.8,10.6,6.8,10.6
			c3.7,0,6-2.6,6.1-2.6c1.1-1.9,3.3,1.2,2.2,2.3c-0.1,0.1-3.3,3.6-8.6,3.6c-6.2,0-10-5.4-10-13.8c0-8.5,5.5-19.1,14.2-19.1
			c3.1,0,5.5,2,5.5,5.8c0,5.4-6.7,10.3-11.6,10.3c-1,0-1.9-0.7-1.9-2.1c0-0.6,0.2-1.4,0.5-1.4s0.4,0.4,1.7,0.4
			C313.9,190,318.6,186.4,318.6,182.7z"/>
		<path id="XMLID_8698_" class="st30" d="M325,181.3c0-1.3-0.4-1.4-0.4-1.7c0-0.3,0.8-0.5,1.4-0.5c1.4,0,2.4,0.9,2.4,1.9v14.3
			c1.2-2.4,2.8-4.3,4.9-4.3c2.9,0,3.6,2.4,3.6,4.4v9c0,0.4,0,2,1.1,2c1.7,0,2.5-2.8,2.9-4.7c0.5-2.7,2.9-0.6,2.5,0.8
			c-0.8,2.9-2.5,6.8-6.2,6.8c-2.3,0-3.7-1.9-3.7-4.1v-8.9c0-1.4-0.1-2.5-0.9-2.5c-1.3,0-4,3.8-4.3,7.2v6.4c0,0.8,0,1.9-1.2,1.9
			c-0.9,0-2.1-0.3-2.1-1.9V181.3z"/>
		<path id="XMLID_8700_" class="st30" d="M346.9,204.4c0-2.8,0.8-5.9,2.2-9.6h-3.3h-0.5c0,1.7-0.3,5.5-1.1,8
			c-0.6,1.8-2.8,0.3-2.4-1.2c0.5-1.7,0.7-5.4,0.7-7.6c-1.1-0.6-1.9-1.5-1.9-2.8c0-1.2,1-2,2.2-2c1,0,2.3,0.5,2.8,2.3
			c1.4,0.2,1.9,0.2,2.3,0.2h2.3c0.5,0,2.3,1.4,2.1,2.4c0,0.5-2,5.7-2,10c0,1.2,0.6,2.4,1.7,2.4c2,0,2.8-2.8,3.1-4.7
			c0.2-0.9,0.6-1.3,1-1.3c0.7,0,1.5,1,1.5,1.8c0,0.1,0,0.2,0,0.3c-0.8,2.9-2.5,6.8-6.2,6.8C349.4,209.4,346.9,208.3,346.9,204.4z"/>
		<path id="XMLID_8702_" class="st30" d="M355.9,184.5c0-1.5,1.2-2.7,2.6-2.7c1.5,0,2.7,1.1,2.7,2.7c0,1.4-1.1,2.7-2.7,2.7
			C357.1,187.2,355.9,186,355.9,184.5z M359.5,204.5c0,0.4,0,2,1.1,2c1.7,0,2.5-2.8,2.9-4.7c0.5-2.7,2.9-0.6,2.5,0.8
			c-0.8,2.9-2.5,6.8-6.2,6.8c-2.3,0-3.7-1.9-3.7-4.1v-11.7c0-0.8-0.2-1.1-0.2-1.4c0-0.4,0.5-0.7,1.1-0.7c1.4,0,2.4,0.9,2.4,1.9
			V204.5z"/>
		<path id="XMLID_8705_" class="st30" d="M364.6,201.3c0.4-1.9,1.4-4.4,2.1-6.7c-0.4-0.7-0.7-1.3-0.7-2.1c0-1.5,2.5-3.4,3.7-3.4
			c1,0,1.6,0.8,1.6,2c0,1.3-1,2.7-1,3c2.1,3.6,4.7,5.2,4.7,9.3c0,0.5-0.1,1.1-0.2,1.6c2.1-0.4,3.1-1.7,3.6-3.1
			c0.3-0.8,0.6-1.2,1-1.2c0.7,0,1.6,1.1,1.6,1.7c0,0.9-1,2.5-2,3.4c-1.4,1.1-3.1,1.9-5.9,2.1c-1,0.9-2.5,1.6-4.3,1.6
			c-1.8,0-3.9-1-4.8-1.8c-2.1-2.1-1-4.4,0-4.4c0.9,0,4.8,2.5,7,2.5c0.5-0.6,1-1.6,1-2.7c0-2.8-1.6-4.6-3.1-6.2
			c-0.7,1.7-1.1,3.2-1.7,5.3C366.6,204,364.2,202.8,364.6,201.3z"/>
		<path id="XMLID_8707_" class="st30" d="M379.4,187.8v-7.4c0-1.3-0.4-1.4-0.4-1.7c0-0.3,0.8-0.5,1.4-0.5c1.4,0,2.4,0.9,2.4,1.9v7.6
			c2.7,0,5.7,0,8.7-0.2c1.2-1.3,0.8,2.9-0.3,2.9c-3.5,0.1-6.1,0.1-8.4,0.1v13.8c0,1.4,0.6,2,1.5,2c1.7,0,2.5-2.8,2.9-4.7
			c0.2-0.9,0.6-1.3,1-1.3c0.7,0,1.5,1,1.5,1.8c0,0,0,0.1,0,0.3c-0.7,2.9-2.5,6.8-6.2,6.8c-2.4,0-4-1.4-4-4.8v-13.9
			c-1.9,0-3-0.1-3-0.1c-1.4,0-2.2-2.9-0.9-2.9C375.5,187.7,377.1,187.8,379.4,187.8z"/>
		<path id="XMLID_8709_" class="st30" d="M408,209.4c-2.3,0-3.7-1.9-3.7-4.1v-8.9c0-1.4-0.1-2.5-0.8-2.5c-1.2,0-3.7,3.8-3.9,7.2v6.4
			c0,0.8,0,1.9-1.2,1.9c-0.9,0-2.1-0.3-2.1-1.9v-11c0-1.4-0.1-2.5-0.8-2.5c-1.2,0-3.7,3.8-3.9,7.2v6.4c0,0.8,0,1.9-1.2,1.9
			c-0.9,0-2.1-0.3-2.1-1.9v-13.8c0-0.8-0.2-1.1-0.2-1.4c0-0.4,0.5-0.7,1.1-0.7c1.4,0,2.4,0.9,2.4,1.9v1.8c1.1-2.4,2.7-4.2,4.6-4.2
			c2.6,0,3.4,2.1,3.4,4.1c1.1-2.3,2.6-4.1,4.6-4.1c2.8,0,3.5,2.4,3.5,4.4v9c0,0.4,0,2,1.1,2c1.7,0,2.5-2.8,2.9-4.7
			c0.2-0.9,0.6-1.3,1-1.3c0.7,0,1.5,1,1.5,1.8c0,0,0,0.1,0,0.3C413.5,205.5,411.8,209.4,408,209.4z"/>
		<path id="XMLID_8711_" class="st30" d="M428,201.8c0.2-0.9,0.6-1.3,1-1.3c0.7,0,1.5,1,1.5,1.8c0,0,0,0.1,0,0.3
			c-0.7,2.9-2.5,6.8-6.2,6.8c-1.5,0-2.7-0.7-3.4-1.8c-0.9,1-2.1,1.8-3.8,1.8c-3.4,0-5.2-2.9-5.2-6.6c0-7.3,5.1-11.7,10.4-11.7
			c1.2,0,2,0.7,2,1.8c0,0.7-0.1,1-0.6,1c-0.4,0-0.8-0.1-1.3-0.1c-3.3,0-7.2,2.8-7.2,9.1c0,2.3,1,3.6,2.5,3.6c1.2,0,2-1,2.4-2.3v-6.7
			c0-0.8-0.2-1.1-0.2-1.4c0-0.4,0.5-0.7,1.1-0.7c1.4,0,2.4,0.9,2.4,1.9v7.2c0,1,0.4,2,1.5,2C426.9,206.5,427.7,203.7,428,201.8z"/>
		<path id="XMLID_8713_" class="st30" d="M429,201.3c0.4-1.9,1.4-4.4,2.1-6.7c-0.4-0.7-0.7-1.3-0.7-2.1c0-1.5,2.5-3.4,3.7-3.4
			c1,0,1.6,0.8,1.6,2c0,1.3-1,2.7-1,3c2.1,3.6,4.7,5.2,4.7,9.3c0,0.5-0.1,1.1-0.2,1.6c2.1-0.4,3.1-1.7,3.6-3.1
			c0.3-0.8,0.6-1.2,1-1.2c0.7,0,1.6,1.1,1.6,1.7c0,0.9-1,2.5-2,3.4c-1.4,1.1-3.1,1.9-5.9,2.1c-1,0.9-2.5,1.6-4.3,1.6
			c-1.8,0-3.9-1-4.8-1.8c-2.1-2.1-1-4.4,0-4.4c0.9,0,4.8,2.5,7,2.5c0.5-0.6,1-1.6,1-2.7c0-2.8-1.6-4.6-3.1-6.2
			c-0.7,1.7-1.1,3.2-1.7,5.3C431.1,204,428.7,202.8,429,201.3z"/>
		<path id="XMLID_8715_" class="st30" d="M450.7,207.6c0,1.6-2.2,4.8-3.3,4.8c-0.7,0-1.3-0.8-1.3-1.4c0-0.2,0.1-0.2,0.3-0.3
			c0.3-0.1,1-0.8,1.6-1.7c-0.9-0.2-1.6-1-1.6-2c0-1.2,1-2.1,2.1-2.1C449.7,205,450.7,205.8,450.7,207.6z"/>
		<path id="XMLID_8717_" class="st30" d="M291.2,260.8v1.3c0.8-0.1,1.6-0.2,2.3-0.2c2.1-0.1,1,3.4-0.6,3.4c-0.7,0-1.2,0-1.8,0.1
			c-0.3,5-1.4,10.6-6.4,10.6c-3,0-4.9-2.2-4.9-5.2c0-4.4,3.9-6.8,7.9-8v-0.5v-6c-1.8,3-4.1,5.4-6.6,5.4c-1.2,0-3-0.9-3-3.8v-24.6
			c-3.9,0.5-7.2,3.4-7.2,8.9c0,3.5,1.7,5.7,2.3,5.7c0.3,0,0.5-0.2,0.7-0.2s0.3,0.2,0.3,0.5c0,1.8-1.9,3.5-3.1,2.6
			c-1.5-1-3.7-4.3-3.7-8.7c0-9.3,7.1-12.3,12.3-12.3c0.9,0,1.7,0.8,1.7,1.8v25.9c0,0.6,0.2,0.6,0.4,0.6c1.3,0,5.8-5.9,5.8-9.6v-16.6
			c0-0.8-0.2-1.1-0.2-1.4c0-0.4,0.5-0.7,1.1-0.7c1.4,0,2.4,0.9,2.4,1.9V260.8z M287.7,266.1c-2.9,0.9-4.5,2.5-4.5,4.7
			c0,1.3,0.7,1.9,1.6,1.9C286.8,272.7,287.5,269.6,287.7,266.1z"/>
		<path id="XMLID_8720_" class="st30" d="M309.6,254.2c0.2-0.9,0.6-1.3,1-1.3c0.7,0,1.5,1,1.5,1.8c0,0,0,0.1,0,0.3
			c-0.7,2.9-2.5,6.8-6.2,6.8c-1.5,0-2.7-0.7-3.4-1.8c-0.9,1-2.1,1.8-3.8,1.8c-3.4,0-5.2-2.9-5.2-6.6c0-7.3,5.1-11.7,10.4-11.7
			c1.2,0,2,0.7,2,1.8c0,0.7-0.1,1-0.6,1c-0.4,0-0.8-0.1-1.3-0.1c-3.3,0-7.2,2.8-7.2,9.1c0,2.3,1,3.6,2.5,3.6c1.2,0,2-1,2.4-2.3v-6.7
			c0-0.8-0.2-1.1-0.2-1.4c0-0.4,0.5-0.7,1.1-0.7c1.4,0,2.4,0.9,2.4,1.9v7.2c0,1,0.4,2,1.5,2C308.5,258.9,309.3,256.1,309.6,254.2z"
			/>
		<path id="XMLID_8722_" class="st30" d="M331.3,263.5c-1.1,0-2.8-1.7-2.8-2.5c0-0.6,0.3-0.2,0.7-0.2c0.8,0,1.1-1,1.1-3.2v-6.9H328
			c-0.9,0-1.6-1.3-1.6-2.2c0-0.5,0.2-0.9,0.7-0.9h3.2v-14.2c-6.1,0.4-10.3,2.6-10.3,9.4c0,3,1.4,4.8,2.5,5.9
			c0.5-0.1,0.7,0.2,0.7,0.6c0,1.1-1.1,2.6-2.1,2.6c-0.2,0-0.4,0-0.7-0.2c-1.3-0.9-3.8-4.3-3.8-8.9c0-8.4,5.4-12.9,15.9-12.9
			c2.4,0,9,0.1,9.9,0.1c0.9,0,1.1-0.3,1.2-0.3c0.3,0,0.6,0.8,0.6,1.4c0,1-0.7,2.3-2,2.3c-0.8,0-5.7-0.1-8.4-0.1v14.3h5.5
			c1.4-1,0.6,3.1-0.4,3.1h-5.1v7.4C333.7,262,332.7,263.5,331.3,263.5z"/>
		<path id="XMLID_8724_" class="st30" d="M341.3,236.9c0-1.5,1.2-2.7,2.6-2.7c1.5,0,2.7,1.1,2.7,2.7c0,1.4-1.1,2.7-2.7,2.7
			C342.5,239.6,341.3,238.3,341.3,236.9z M344.9,256.9c0,0.4,0,2,1.1,2c1.7,0,2.5-2.8,2.9-4.7c0.5-2.7,2.9-0.6,2.5,0.8
			c-0.8,2.9-2.5,6.8-6.2,6.8c-2.3,0-3.7-1.9-3.7-4.1V246c0-0.8-0.2-1.1-0.2-1.4c0-0.4,0.5-0.7,1.1-0.7c1.4,0,2.4,0.9,2.4,1.9V256.9z
			"/>
		<path id="XMLID_8727_" class="st30" d="M360.1,255c-0.8,2.4-2.9,6.8-6.9,6.8c-3.4,0-5.2-2.3-5.2-5.8v-19.9c0-3.3,1.8-5.6,4-5.6
			c3.8,0,3.9,4.6,3.9,7c0,6.4-4,15.2-4.5,15.8v2.5c0,1.7,0.7,3,2.3,3c2,0,3.5-2.8,3.9-4.7C358.1,251.7,360.5,253.6,360.1,255z
			 M351.4,247.6c0.9-1.8,1.8-7.6,1.8-10c0-2.9-0.5-4.2-1.2-4.2c-0.5,0-0.7,1-0.7,1.7V247.6z"/>
		<path id="XMLID_8730_" class="st30" d="M356.6,240.2v-7.4c0-1.3-0.4-1.4-0.4-1.7s0.8-0.5,1.4-0.5c1.4,0,2.4,0.9,2.4,1.9v7.6
			c2.7,0,5.7,0,8.7-0.2c1.2-1.3,0.8,2.9-0.3,2.9c-3.5,0.1-6.1,0.1-8.4,0.1v13.8c0,1.4,0.6,2,1.5,2c1.7,0,2.5-2.8,2.9-4.7
			c0.2-0.9,0.6-1.3,1-1.3c0.7,0,1.5,1,1.5,1.8c0,0,0,0.1,0,0.3c-0.7,2.9-2.5,6.8-6.2,6.8c-2.4,0-4-1.4-4-4.8v-13.9
			c-1.9,0-3-0.1-3-0.1c-1.4,0-2.2-2.9-0.9-2.9C352.6,240,354.2,240.1,356.6,240.2z"/>
		<path id="XMLID_8732_" class="st30" d="M363.4,233.7c0-1.3-0.4-1.4-0.4-1.7c0-0.3,0.8-0.5,1.4-0.5c1.4,0,2.4,0.9,2.4,1.9v14.3
			c1.2-2.4,2.8-4.3,4.9-4.3c2.9,0,3.6,2.4,3.6,4.4v9c0,0.4,0,2,1.1,2c1.7,0,2.5-2.8,2.9-4.7c0.5-2.7,2.9-0.6,2.5,0.8
			c-0.8,2.9-2.5,6.8-6.2,6.8c-2.3,0-3.7-1.9-3.7-4.1v-8.9c0-1.4-0.1-2.5-0.9-2.5c-1.3,0-4,3.8-4.3,7.2v6.4c0,0.8,0,1.9-1.2,1.9
			c-0.9,0-2.1-0.3-2.1-1.9V233.7z"/>
		<path id="XMLID_8734_" class="st30" d="M394.9,252.9c0.7,0,1.5,1,1.5,1.8c0,0,0,0.3,0,0.4c-1.5,5.1-4,7.6-6.4,9.7v7.6
			c0,4.6-2.3,6.2-4.5,6.2c-2.4,0-4.2-2.2-4.2-5c0-4.4,2.5-6.6,5.4-9.2v-5.5c-1,1.7-2.4,3-4.3,3c-2.9,0-4.6-2.5-4.6-6.3
			c0-4.6,1.6-9.8,1.6-9.8c0.3-0.7,0-1.6,2.3-1.6c2.1,0,0.9,1.7,0.7,2.4c-0.8,3.2-1.3,5.2-1.3,8.8c0,2.4,0.7,3.6,2,3.6
			c1.7,0,3.1-2.8,3.6-5.9v-7c0-0.8-0.2-1.1-0.2-1.4c0-0.4,0.5-0.7,1.1-0.7c1.4,0,2.4,0.9,2.4,1.9v15.3c1.6-1.7,3-3.9,3.8-6.9
			C394.1,253.3,394.5,252.9,394.9,252.9z M386.7,272.3v-4.7c-1.4,1.4-2.4,3.1-2.4,5.7c0,1.4,0.4,2.4,1.1,2.4
			C386.9,275.8,386.7,273.2,386.7,272.3z"/>
		<path id="XMLID_8737_" class="st30" d="M408.5,241.6c0-0.6,0.2-1.4,0.5-1.4s0.4,0.4,1.7,0.4c3.1,0,7-2.1,7-5.3
			c0-1.2-0.8-2.4-2.4-2.4c-6.8,0-10.3,9.7-10.3,16.5c0,5.5,1.2,9.5,5,9.5c5.1,0,6.4-8.3,7.3-15.1c0.1-0.6,1-0.9,1.8-0.9
			c0.7,0,1.5,0.3,1.4,1.1c-0.2,1.1-0.6,3.7-0.6,7.1c0,5.7,0.2,8.2,0.4,9.6c0.1,0.1,0.1,0.2,0.1,0.3c0,0.6-1.3,1-2.2,1
			c-1.5,0-1.4-1.1-1.6-4.7c-1.3,2.8-3.9,4.9-7,4.9c-4.8,0-8.1-3.4-8.1-12.8c0-9.6,5.7-20,14-20c3.6,0,5.7,2.4,5.7,5.5
			c0,5-5.3,8.6-10.7,8.6C409.3,243.8,408.5,243,408.5,241.6z"/>
		<path id="XMLID_8739_" class="st30" d="M422,246c0-0.8-0.2-1.1-0.2-1.4c0-0.4,0.5-0.7,1.1-0.7c1.4,0,2.4,0.9,2.4,1.9v2
			c1.2-2.4,2.8-4.3,4.9-4.3c2.9,0,3.6,2.4,3.6,4.4v9c0,0.4,0,2,1.1,2c1.7,0,2.5-2.8,2.9-4.7c0.2-0.9,0.6-1.3,1-1.3
			c0.7,0,1.5,1,1.5,1.8c0,0,0,0.1,0,0.3c-0.7,2.9-2.5,6.8-6.2,6.8c-2.3,0-3.7-1.9-3.7-4.1v-8.9c0-1.4-0.1-2.5-0.9-2.5
			c-1.3,0-4,3.8-4.3,7.2v6.4c0,0.8,0,1.9-1.2,1.9c-0.9,0-2.1-0.3-2.1-1.9V246z"/>
		<path id="XMLID_8741_" class="st30" d="M436.4,236.9c0-1.5,1.2-2.7,2.6-2.7c1.5,0,2.7,1.1,2.7,2.7c0,1.4-1.1,2.7-2.7,2.7
			C437.5,239.6,436.4,238.3,436.4,236.9z M440,256.9c0,0.4,0,2,1.1,2c1.7,0,2.5-2.8,2.9-4.7c0.5-2.7,2.9-0.6,2.5,0.8
			c-0.8,2.9-2.5,6.8-6.2,6.8c-2.3,0-3.7-1.9-3.7-4.1V246c0-0.8-0.2-1.1-0.2-1.4c0-0.4,0.5-0.7,1.1-0.7c1.4,0,2.4,0.9,2.4,1.9V256.9z
			"/>
		<path id="XMLID_8744_" class="st30" d="M462.9,261.8c-2.3,0-3.7-1.9-3.7-4.1v-8.9c0-1.4-0.1-2.5-0.8-2.5c-1.2,0-3.7,3.8-3.9,7.2
			v6.4c0,0.8,0,1.9-1.2,1.9c-0.9,0-2.1-0.3-2.1-1.9v-11c0-1.4-0.1-2.5-0.8-2.5c-1.2,0-3.7,3.8-3.9,7.2v6.4c0,0.8,0,1.9-1.2,1.9
			c-0.9,0-2.1-0.3-2.1-1.9V246c0-0.8-0.2-1.1-0.2-1.4c0-0.4,0.5-0.7,1.1-0.7c1.4,0,2.4,0.9,2.4,1.9v1.8c1.1-2.4,2.7-4.2,4.6-4.2
			c2.6,0,3.4,2.1,3.4,4.1c1.1-2.3,2.6-4.1,4.6-4.1c2.8,0,3.5,2.4,3.5,4.4v9c0,0.4,0,2,1.1,2c1.7,0,2.5-2.8,2.9-4.7
			c0.2-0.9,0.6-1.3,1-1.3c0.7,0,1.5,1,1.5,1.8c0,0,0,0.1,0,0.3C468.4,257.9,466.7,261.8,462.9,261.8z"/>
		<path id="XMLID_8746_" class="st30" d="M481,254.2c0.2-0.9,0.6-1.3,1-1.3c0.7,0,1.5,1,1.5,1.8c0,0,0,0.1,0,0.3
			c-0.7,2.9-2.5,6.8-6.2,6.8c-1.5,0-2.7-0.7-3.4-1.8c-0.9,1-2.1,1.8-3.8,1.8c-3.4,0-5.2-2.9-5.2-6.6c0-7.3,5.1-11.7,10.4-11.7
			c1.2,0,2,0.7,2,1.8c0,0.7-0.1,1-0.6,1c-0.4,0-0.8-0.1-1.3-0.1c-3.3,0-7.2,2.8-7.2,9.1c0,2.3,1,3.6,2.5,3.6c1.2,0,2-1,2.4-2.3v-6.7
			c0-0.8-0.2-1.1-0.2-1.4c0-0.4,0.5-0.7,1.1-0.7c1.4,0,2.4,0.9,2.4,1.9v7.2c0,1,0.4,2,1.5,2C479.8,258.9,480.6,256.1,481,254.2z"/>
		<path id="XMLID_8748_" class="st30" d="M492.1,255c-0.8,2.4-2.9,6.8-6.9,6.8c-3.4,0-5.2-2.3-5.2-5.8v-19.9c0-3.3,1.8-5.6,4-5.6
			c3.8,0,3.9,4.6,3.9,7c0,6.4-4,15.2-4.5,15.8v2.5c0,1.7,0.7,3,2.3,3c2,0,3.5-2.8,3.9-4.7C490.1,251.7,492.5,253.6,492.1,255z
			 M483.4,247.6c0.9-1.8,1.8-7.6,1.8-10c0-2.9-0.5-4.2-1.2-4.2c-0.5,0-0.7,1-0.7,1.7V247.6z"/>
	</g>
	<g id="XMLID_24_">
		<path id="XMLID_27_" class="st33" d="M593.8,193.2c0,0,2.3,1.1,4.1,1.5c0.8,0.2,1.2,0.6,1.5,0.9c0.2-0.1,0.4-0.1,0.5-0.1
			c0.5-0.1,0.6-3.8-3.7-6.9c-0.9-0.7-2-1.2-3.2-1.6C594,189.6,593.8,193.2,593.8,193.2z"/>
		<path id="XMLID_29_" class="st33" d="M581.8,194.2c0.4,0.4,3.4,0.6,5.1,0.4c1.7-0.2,3.2-0.7,4.3-2.9c0.8-1.5,0.5-3.5,0.3-5.1
			c-4-0.8-8.8-0.4-12.2-0.4c-0.2,0-0.4,0-0.7,0C577.9,193.1,581.4,193.9,581.8,194.2z"/>
		<path id="XMLID_30_" class="st30" d="M598.4,196.1c-0.5,0.3-1,0.9-1.2,1.7c0,0-4.4-0.8-5.8,0.3c-1.4,1.1-3.3,0.7-3.8,0.5
			s0.4,1.8,2.1,2.3c1.7,0.5,4.9,0.5,5.1,0.5s-0.6,1.3-0.7,3s-0.2,11.3-8.2,15.2s-17.1,0.9-21.3-0.5c-4.3-1.4-9.2-1.6-14.6,0.5
			c-1,0.4-4-6.3-9.6-5.2c0.6,1.3,0.7,1.6,0.9,3.3s1.3,4.1,4,5.2c-2.3,2.9-3.2,5.1-2.5,10.7c-0.5,1.4-2.8,4.2-4.8,5.7
			c-0.7,0.4-1.3,0.7-2,1c-0.2,0.1-0.4,0.1-0.6,0.2c-2.7,1-4.9,1.1-5.6,1.1c-0.9-0.1-3.9-0.2-4.5,1.3c-1.2,3.3-3.1,5.6-6.1,7.3
			c-4.3,2.5-5,1.8-5.7,1.8c-0.7,0-0.9,0.9-1.5,1.8c-0.6,0.9-1,1.3-1.9,1.3s-4.4,4-3.7,4s2.2-0.3,5.5-2.5c3.3-2.3,10.2-6.4,14.3-10.1
			c1.5-1.3,1.9-2.2,3.9-2c1,0.1,1.9,0.1,2.6,0.1c-0.1,0.2-0.1,0.3-0.2,0.5c-1.2,3.3-3.9,8.7-8.4,10.7s-5,1.8-5.7,1.8
			s-0.9,0.9-1.5,1.8c-0.6,0.9-1,1.3-1.9,1.3c-0.9,0-4.4,4-3.7,4s2.2-0.3,5.5-2.5c3.3-2.3,10.2-6.4,14.3-10.1
			c4.1-3.7,9.4-6.1,12.7-6.5s11.1-1.8,14.3-7.6c3-0.7,9.8,1.6,13.7,3c3.9,1.4,12.9,3.1,20.2,0.2c1.5-0.5,8,1.9,11.5,2.3
			c3.5,0.4,8.1,2,10.6,5.4c2.5,3.4,4.1,6.3,4.3,7.7c0.2,1.4,1.4,2.1,2.5,2.5c1.1,0.4,1.3,1.8,1.3,2.8s0.6,1.7,1.9,2.3
			c1.3,0.7,3.4,1.5,2.4-0.2s-9.3-15.1-10.2-16.6s-2-4.2-7.3-5.2c-1.8-0.4,2.6-1.8,6.8,1.5s7.2,6.1,7.7,6.8s0.5,2.5,2.5,2.6
			c2,0.1,3,0.3,3.5,1.7c0.5,1.3,3.3,1.8,4.1,1.2s-2.1-2.6-6-5.3s-10.2-8-12.3-10.3c-2.2-2.3-4.4-1.7-6.4-1.8c-2-0.1-6.2-2.3-7.7-3.3
			s1.6-4.4,2.4-7c0.8-2.6,0.5-10.4-0.3-14.9s-0.5-7-0.5-7s5.3-1.3,6.3-2.5c0.9-1.2,4.1-0.4,4.6-0.8c0.5-0.4,2.8-2.1,1.9-3.8
			s-2.4,0.2-5.6-0.9c-3.2-1.1-5.5-2.3-7.2-2.5c-1.7-0.2,0.1-3.4-1.1-5.1c-1.2-1.7-0.8-1.9,0.1-3.5s-0.1-6.7-2.8-7.8
			c0.1,1.8,1.1,3.2,0.2,5.1c-0.9,1.9-1.6,2.5-3.7,1.5s-3.3-2.5-4.4-5.2c-1.1-2.7-2-4.7-4.2-4.6c0.8,1.3,2.3,4.8,0.3,6.5
			c-2,1.7-5.4,2.3-7.6-0.4c-2.2-2.8-3.1-4.6-3.5-5.2c-0.4-0.6-0.2,1.8-0.2,3s-3.3,2.6-5.1-1.2s-1.5-5-1.5-5s-2.3,1.8-0.8,5.3
			c1.3,3.1,4.8,6.2,9,6.8c0.5-2,1.2-2.3,1.1-1.4c-0.1,0.5-0.1,1-0.2,1.5c0.2,0,0.4,0,0.7,0c3.4-0.1,8.2-0.4,12.2,0.4
			c-0.1-0.7-0.2-1.3-0.3-1.9c0.8,0.5,1.4,1.3,1.8,2.3c1.2,0.4,2.3,0.9,3.2,1.6c4.3,3.2,4.2,6.8,3.7,6.9c-0.1,0-0.3,0.1-0.5,0.1"/>
		<path id="XMLID_28_" class="st30" d="M599.4,195.6c-0.2-0.4-0.7-0.7-1.5-0.9c-1.8-0.4-4.1-1.5-4.1-1.5s0.2-3.6-0.9-6.2
			c-0.4-1-1-1.8-1.8-2.3c0,0.5,0.2,1.2,0.3,1.9c0.3,1.7,0.5,3.6-0.3,5.1c-1.1,2.2-2.6,2.7-4.3,2.9c-1.7,0.2-4.6,0-5.1-0.4
			c-0.4-0.4-3.9-1.1-3.3-8c0-0.5,0.1-1,0.2-1.5c0.2-0.9-0.5-0.6-1.1,1.4c-0.3,1.2-0.6,3.1-0.6,5.8c0,1.6-1.1,2-3.1,1.7
			s-10.1-4.6-10.5-14.7c-3.1,6.6,4.3,17.8,12.2,18.3s12.4-1.7,16.4-1.8c3.2-0.1,5,0,6.3,0.7"/>
	</g>
</g>
</svg>
