<?xml version="1.0" encoding="utf-8"?>
<!-- Generator: Adobe Illustrator 16.0.0, SVG Export Plug-In . SVG Version: 6.00 Build 0)  -->
<!DOCTYPE svg PUBLIC "-//W3C//DTD SVG 1.1//EN" "http://www.w3.org/Graphics/SVG/1.1/DTD/svg11.dtd">
<svg version="1.1" id="Layer_2" xmlns="http://www.w3.org/2000/svg" xmlns:xlink="http://www.w3.org/1999/xlink" x="0px" y="0px"
	 width="759px" height="439px" viewBox="0 0 759 439" style="enable-background:new 0 0 759 439;" xml:space="preserve">
<style type="text/css">
<![CDATA[
	.st0{fill:#4659A7;}
	.st1{fill:#7DA0D4;}
	.st2{fill:#7F5E26;}
	.st3{fill:#151943;}
	.st4{fill:#171719;}
	.st5{fill:#172919;}
	.st6{fill:#18331B;}
	.st7{fill:#E72834;}
	.st8{fill:#E7E9E9;}
	.st9{fill:#E8EAEA;}
	.st10{fill-rule:evenodd;clip-rule:evenodd;fill:none;stroke:#E4C54B;stroke-width:1.7463;stroke-miterlimit:10;}
	.st11{fill:#EAE71E;}
	.st12{fill:#EB185B;}
	.st13{fill:#EC2127;}
	.st14{fill:#503C2C;}
	.st15{fill:#507FC1;}
	.st16{fill:#542D8B;}
	.st17{fill:#8C6828;}
	.st18{fill:#BF2327;}
	.st19{fill:#231F20;}
	.st20{fill:#F7F3A3;}
	.st21{fill-rule:evenodd;clip-rule:evenodd;fill:none;stroke:#E4C54B;stroke-width:2.6195;stroke-miterlimit:10;}
	.st22{fill:#C2922E;}
	.st23{fill:#C597C5;}
	.st24{fill:#966828;}
	.st25{fill:#2B378B;}
	.st26{fill:#FAA532;}
	.st27{fill:#FBCA28;}
	.st28{fill:#FBCD36;}
	.st29{fill-rule:evenodd;clip-rule:evenodd;}
	.st30{fill:#FFFFFF;}
	.st31{fill-rule:evenodd;clip-rule:evenodd;fill:#F0CEE3;}
	.st32{fill:#FFFFFF;stroke:#7DA0D4;stroke-miterlimit:10;}
	.st33{fill:none;}
	.st34{fill:#231F20;stroke:#231F20;stroke-width:0.5;stroke-miterlimit:10;}
	.st35{fill:#679B9B;}
	.st36{fill:#9B732B;}
	.st37{fill:#CB7361;}
	.st38{fill:#CC2228;}
	.st39{fill:#311C10;}
	.st40{fill:#EC2127;stroke:#EC2127;stroke-width:0.5;stroke-miterlimit:10;}
	.st41{fill:#381414;}
	.st42{fill-rule:evenodd;clip-rule:evenodd;fill:#FBCDCD;}
	.st43{fill:#010101;}
	.st44{fill-rule:evenodd;clip-rule:evenodd;fill:#FFFFFF;}
	.st45{fill:#FFFFFF;stroke:#FFFFFF;stroke-miterlimit:10;}
	.st46{fill-rule:evenodd;clip-rule:evenodd;fill:#641E0F;}
	.st47{fill:#D3D3D3;}
	.st48{fill:#060707;}
	.st49{fill:#080908;}
	.st50{fill:#721212;}
	.st51{fill:#0E8141;}
	.st52{fill:#424143;}
	.st53{fill:#4259A8;}
]]>
</style>
<g id="XMLID_9083_">
	<path id="XMLID_231_" class="st38" d="M759,151.8H472.2C452.7,116.4,418.5,93,379.5,93c-39,0-73.2,23.4-92.7,58.8H0v135.5h286.8
		c19.5,35.3,53.7,58.8,92.7,58.8c39,0,73.2-23.4,92.7-58.8H759V151.8z"/>
	<g id="XMLID_8599_">
		<path id="XMLID_8600_" class="st30" d="M323.7,176.5c0,0.1,0,0.2-0.1,0.3c-0.1,0.1-0.2,0.2-0.3,0.2c-0.2,0.1-0.4,0.1-0.6,0.1
			c-0.3,0-0.6,0-1,0c-0.4,0-0.7,0-1,0c-0.3,0-0.5-0.1-0.6-0.1c-0.2-0.1-0.3-0.1-0.3-0.2c-0.1-0.1-0.1-0.2-0.1-0.3v-17.4h0l-6.2,17.4
			c0,0.1-0.1,0.3-0.2,0.4c-0.1,0.1-0.2,0.2-0.4,0.2s-0.4,0.1-0.7,0.1s-0.6,0-1,0c-0.4,0-0.7,0-1,0c-0.3,0-0.5-0.1-0.7-0.1
			c-0.2-0.1-0.3-0.1-0.4-0.2c-0.1-0.1-0.2-0.2-0.2-0.3l-6-17.4h0v17.4c0,0.1,0,0.2-0.1,0.3c-0.1,0.1-0.2,0.2-0.3,0.2
			c-0.2,0.1-0.4,0.1-0.6,0.1c-0.3,0-0.6,0-1,0c-0.4,0-0.7,0-1,0c-0.3,0-0.5-0.1-0.6-0.1c-0.2-0.1-0.3-0.1-0.3-0.2
			c-0.1-0.1-0.1-0.2-0.1-0.3v-19.1c0-0.6,0.1-1,0.4-1.3c0.3-0.3,0.7-0.4,1.2-0.4h2.8c0.5,0,0.9,0,1.3,0.1c0.4,0.1,0.7,0.2,0.9,0.4
			c0.3,0.2,0.5,0.4,0.7,0.8c0.2,0.3,0.3,0.7,0.5,1.2l4.6,12.7h0.1l4.8-12.7c0.1-0.5,0.3-0.9,0.5-1.2c0.2-0.3,0.4-0.6,0.6-0.8
			s0.5-0.3,0.8-0.4c0.3-0.1,0.7-0.1,1.1-0.1h2.9c0.3,0,0.6,0,0.8,0.1c0.2,0.1,0.4,0.2,0.5,0.3c0.1,0.1,0.2,0.3,0.3,0.5
			c0.1,0.2,0.1,0.5,0.1,0.7V176.5z"/>
		<path id="XMLID_8602_" class="st30" d="M332.6,156.8c0,0.8-0.2,1.4-0.5,1.7c-0.3,0.3-1,0.5-1.9,0.5c-0.9,0-1.6-0.2-1.9-0.5
			c-0.3-0.3-0.5-0.9-0.5-1.7c0-0.8,0.2-1.4,0.5-1.7c0.3-0.3,1-0.5,1.9-0.5c0.9,0,1.6,0.2,1.9,0.5S332.6,156,332.6,156.8z
			 M332.3,176.6c0,0.1,0,0.2-0.1,0.3c-0.1,0.1-0.2,0.2-0.3,0.2c-0.2,0.1-0.4,0.1-0.6,0.1s-0.6,0-1,0s-0.7,0-1,0
			c-0.3,0-0.5-0.1-0.6-0.1c-0.2-0.1-0.3-0.1-0.3-0.2s-0.1-0.2-0.1-0.3v-14.7c0-0.1,0-0.2,0.1-0.3c0.1-0.1,0.2-0.2,0.3-0.2
			c0.2-0.1,0.4-0.1,0.6-0.1c0.3,0,0.6,0,1,0s0.7,0,1,0c0.3,0,0.5,0.1,0.6,0.1c0.2,0.1,0.3,0.1,0.3,0.2c0.1,0.1,0.1,0.2,0.1,0.3
			V176.6z"/>
		<path id="XMLID_8605_" class="st30" d="M346.8,172.4c0,0.8-0.2,1.6-0.5,2.2c-0.3,0.6-0.8,1.2-1.3,1.6c-0.6,0.4-1.3,0.8-2,1
			s-1.6,0.3-2.5,0.3c-0.6,0-1.1,0-1.6-0.1c-0.5-0.1-1-0.2-1.3-0.3c-0.4-0.1-0.7-0.3-1-0.4c-0.3-0.1-0.5-0.3-0.6-0.4
			s-0.2-0.3-0.3-0.5s-0.1-0.6-0.1-1.1c0-0.3,0-0.6,0-0.8s0.1-0.3,0.1-0.5c0-0.1,0.1-0.2,0.2-0.2c0.1,0,0.1-0.1,0.2-0.1
			c0.1,0,0.3,0.1,0.5,0.2c0.2,0.1,0.5,0.3,0.9,0.5c0.4,0.2,0.8,0.3,1.2,0.5c0.5,0.1,1,0.2,1.6,0.2c0.4,0,0.7,0,1-0.1
			c0.3-0.1,0.5-0.2,0.8-0.3c0.2-0.1,0.4-0.3,0.5-0.5c0.1-0.2,0.2-0.5,0.2-0.8c0-0.3-0.1-0.6-0.3-0.9c-0.2-0.2-0.5-0.4-0.8-0.6
			c-0.3-0.2-0.7-0.3-1.1-0.5c-0.4-0.2-0.9-0.3-1.3-0.5c-0.4-0.2-0.9-0.4-1.3-0.6c-0.4-0.2-0.8-0.5-1.1-0.9c-0.3-0.4-0.6-0.8-0.8-1.3
			c-0.2-0.5-0.3-1.1-0.3-1.8c0-0.7,0.1-1.4,0.4-1.9s0.7-1.1,1.2-1.5c0.5-0.4,1.1-0.7,1.9-1c0.7-0.2,1.6-0.3,2.5-0.3
			c0.5,0,0.9,0,1.3,0.1c0.4,0.1,0.8,0.1,1.2,0.2s0.7,0.2,0.9,0.3c0.2,0.1,0.4,0.2,0.5,0.3c0.1,0.1,0.2,0.2,0.2,0.2
			c0,0.1,0.1,0.2,0.1,0.3c0,0.1,0,0.3,0.1,0.4c0,0.2,0,0.4,0,0.6c0,0.3,0,0.5,0,0.7c0,0.2,0,0.3-0.1,0.4c0,0.1-0.1,0.2-0.2,0.2
			c-0.1,0-0.1,0.1-0.2,0.1c-0.1,0-0.3-0.1-0.5-0.2c-0.2-0.1-0.5-0.2-0.8-0.4c-0.3-0.1-0.7-0.3-1.1-0.4c-0.4-0.1-0.9-0.2-1.4-0.2
			c-0.4,0-0.7,0-1,0.1c-0.3,0.1-0.5,0.2-0.7,0.3c-0.2,0.1-0.3,0.3-0.4,0.5c-0.1,0.2-0.1,0.4-0.1,0.6c0,0.3,0.1,0.6,0.3,0.9
			c0.2,0.2,0.5,0.4,0.8,0.6c0.3,0.2,0.7,0.3,1.2,0.5c0.4,0.2,0.9,0.3,1.3,0.5c0.4,0.2,0.9,0.4,1.3,0.6c0.4,0.2,0.8,0.5,1.2,0.9
			c0.3,0.4,0.6,0.8,0.8,1.3C346.7,171.1,346.8,171.7,346.8,172.4z"/>
		<path id="XMLID_8607_" class="st30" d="M358.3,175.1c0,0.5,0,0.9-0.1,1.1c-0.1,0.3-0.1,0.4-0.2,0.5c-0.1,0.1-0.2,0.2-0.4,0.3
			c-0.2,0.1-0.4,0.2-0.7,0.2c-0.3,0.1-0.5,0.1-0.8,0.1c-0.3,0-0.6,0-0.9,0c-0.8,0-1.5-0.1-2.1-0.3c-0.6-0.2-1.1-0.5-1.5-1
			c-0.4-0.4-0.7-1-0.9-1.6s-0.3-1.4-0.3-2.3v-7.6h-1.8c-0.2,0-0.4-0.1-0.5-0.4c-0.1-0.3-0.2-0.7-0.2-1.3c0-0.3,0-0.6,0-0.8
			c0-0.2,0.1-0.4,0.1-0.5c0.1-0.1,0.1-0.2,0.2-0.3c0.1-0.1,0.2-0.1,0.3-0.1h1.8V158c0-0.1,0-0.2,0.1-0.3c0.1-0.1,0.2-0.2,0.3-0.2
			s0.4-0.1,0.6-0.1c0.3,0,0.6,0,1,0c0.4,0,0.7,0,1,0c0.3,0,0.5,0.1,0.6,0.1c0.2,0.1,0.3,0.1,0.3,0.2c0.1,0.1,0.1,0.2,0.1,0.3v3.3
			h3.2c0.1,0,0.2,0,0.3,0.1c0.1,0.1,0.2,0.1,0.2,0.3c0.1,0.1,0.1,0.3,0.1,0.5c0,0.2,0,0.5,0,0.8c0,0.6-0.1,1-0.2,1.3
			s-0.3,0.4-0.5,0.4h-3.2v6.9c0,0.8,0.1,1.4,0.4,1.8c0.3,0.4,0.7,0.6,1.4,0.6c0.2,0,0.4,0,0.6-0.1c0.2,0,0.3-0.1,0.5-0.1
			c0.1,0,0.3-0.1,0.3-0.1c0.1,0,0.2-0.1,0.3-0.1c0.1,0,0.1,0,0.2,0.1c0.1,0,0.1,0.1,0.1,0.2c0,0.1,0.1,0.3,0.1,0.5
			C358.3,174.6,358.3,174.8,358.3,175.1z"/>
		<path id="XMLID_8609_" class="st30" d="M365.5,176.6c0,0.1,0,0.2-0.1,0.3s-0.2,0.2-0.3,0.2c-0.2,0.1-0.4,0.1-0.6,0.1
			c-0.3,0-0.6,0-1,0c-0.4,0-0.7,0-1,0c-0.3,0-0.5-0.1-0.6-0.1c-0.2-0.1-0.3-0.1-0.3-0.2c-0.1-0.1-0.1-0.2-0.1-0.3v-21.7
			c0-0.1,0-0.2,0.1-0.3c0.1-0.1,0.2-0.2,0.3-0.2c0.2-0.1,0.4-0.1,0.6-0.1c0.3,0,0.6,0,1,0c0.4,0,0.7,0,1,0c0.3,0,0.5,0.1,0.6,0.1
			c0.2,0.1,0.3,0.1,0.3,0.2c0.1,0.1,0.1,0.2,0.1,0.3V176.6z"/>
		<path id="XMLID_8611_" class="st30" d="M383.3,168.8c0,0.5-0.1,0.9-0.3,1.1c-0.2,0.2-0.5,0.4-0.9,0.4h-9c0,0.6,0.1,1.2,0.2,1.7
			c0.1,0.5,0.4,0.9,0.7,1.3c0.3,0.4,0.7,0.6,1.3,0.8c0.5,0.2,1.1,0.3,1.8,0.3c0.7,0,1.4-0.1,1.9-0.2c0.6-0.1,1-0.2,1.4-0.3
			c0.4-0.1,0.7-0.2,1-0.3c0.3-0.1,0.5-0.2,0.6-0.2c0.1,0,0.2,0,0.2,0.1c0.1,0,0.1,0.1,0.2,0.2s0.1,0.2,0.1,0.4c0,0.2,0,0.4,0,0.7
			c0,0.2,0,0.4,0,0.6s0,0.3,0,0.4s-0.1,0.2-0.1,0.3c0,0.1-0.1,0.2-0.2,0.2c-0.1,0.1-0.3,0.2-0.6,0.3c-0.3,0.1-0.7,0.3-1.2,0.4
			c-0.5,0.1-1.1,0.2-1.7,0.3c-0.6,0.1-1.3,0.1-2,0.1c-1.3,0-2.5-0.2-3.4-0.5c-1-0.3-1.8-0.8-2.5-1.5c-0.7-0.7-1.2-1.5-1.5-2.5
			c-0.3-1-0.5-2.2-0.5-3.6c0-1.3,0.2-2.5,0.5-3.5c0.3-1.1,0.8-1.9,1.5-2.7c0.6-0.7,1.4-1.3,2.4-1.7c0.9-0.4,2-0.6,3.1-0.6
			c1.2,0,2.3,0.2,3.2,0.5c0.9,0.4,1.6,0.9,2.2,1.5c0.6,0.6,1,1.4,1.2,2.3c0.3,0.9,0.4,1.8,0.4,2.9V168.8z M379.2,167.6
			c0-1.2-0.2-2.1-0.7-2.8c-0.5-0.7-1.3-1-2.3-1c-0.5,0-1,0.1-1.4,0.3c-0.4,0.2-0.7,0.5-1,0.8c-0.3,0.3-0.5,0.7-0.6,1.2
			c-0.1,0.5-0.2,0.9-0.2,1.5H379.2z"/>
		<path id="XMLID_8614_" class="st30" d="M395.2,175.1c0,0.5,0,0.9-0.1,1.1c-0.1,0.3-0.1,0.4-0.2,0.5c-0.1,0.1-0.2,0.2-0.4,0.3
			c-0.2,0.1-0.4,0.2-0.7,0.2c-0.3,0.1-0.5,0.1-0.8,0.1c-0.3,0-0.6,0-0.9,0c-0.8,0-1.5-0.1-2.1-0.3c-0.6-0.2-1.1-0.5-1.5-1
			c-0.4-0.4-0.7-1-0.9-1.6s-0.3-1.4-0.3-2.3v-7.6h-1.8c-0.2,0-0.4-0.1-0.5-0.4c-0.1-0.3-0.2-0.7-0.2-1.3c0-0.3,0-0.6,0-0.8
			c0-0.2,0.1-0.4,0.1-0.5c0.1-0.1,0.1-0.2,0.2-0.3c0.1-0.1,0.2-0.1,0.3-0.1h1.8V158c0-0.1,0-0.2,0.1-0.3c0.1-0.1,0.2-0.2,0.3-0.2
			s0.4-0.1,0.6-0.1c0.3,0,0.6,0,1,0c0.4,0,0.7,0,1,0c0.3,0,0.5,0.1,0.6,0.1s0.3,0.1,0.3,0.2c0.1,0.1,0.1,0.2,0.1,0.3v3.3h3.2
			c0.1,0,0.2,0,0.3,0.1c0.1,0.1,0.2,0.1,0.2,0.3c0.1,0.1,0.1,0.3,0.1,0.5c0,0.2,0,0.5,0,0.8c0,0.6-0.1,1-0.2,1.3
			c-0.1,0.3-0.3,0.4-0.5,0.4h-3.2v6.9c0,0.8,0.1,1.4,0.4,1.8c0.3,0.4,0.7,0.6,1.4,0.6c0.2,0,0.4,0,0.6-0.1c0.2,0,0.3-0.1,0.5-0.1
			c0.1,0,0.3-0.1,0.3-0.1c0.1,0,0.2-0.1,0.3-0.1c0.1,0,0.1,0,0.2,0.1s0.1,0.1,0.1,0.2c0,0.1,0.1,0.3,0.1,0.5
			C395.2,174.6,395.2,174.8,395.2,175.1z"/>
		<path id="XMLID_8616_" class="st30" d="M412.8,169c0,1.3-0.2,2.4-0.5,3.4c-0.3,1-0.8,1.9-1.5,2.7c-0.7,0.7-1.5,1.3-2.5,1.7
			s-2.2,0.6-3.6,0.6c-1.3,0-2.5-0.2-3.4-0.5c-1-0.4-1.8-0.9-2.4-1.6c-0.6-0.7-1.1-1.5-1.4-2.6c-0.3-1-0.5-2.2-0.5-3.5
			c0-1.3,0.2-2.4,0.5-3.4s0.8-1.9,1.5-2.7c0.7-0.7,1.5-1.3,2.5-1.7s2.2-0.6,3.5-0.6c1.3,0,2.5,0.2,3.4,0.5c1,0.4,1.8,0.9,2.4,1.6
			s1.1,1.5,1.4,2.6S412.8,167.7,412.8,169z M408.5,169.2c0-0.7-0.1-1.4-0.2-2c-0.1-0.6-0.3-1.1-0.6-1.6c-0.3-0.5-0.6-0.8-1.1-1.1
			c-0.5-0.3-1-0.4-1.7-0.4c-0.6,0-1.2,0.1-1.6,0.3c-0.5,0.2-0.8,0.6-1.1,1c-0.3,0.4-0.5,1-0.7,1.6c-0.1,0.6-0.2,1.3-0.2,2.1
			c0,0.7,0.1,1.4,0.2,2c0.1,0.6,0.3,1.1,0.6,1.6c0.3,0.5,0.6,0.8,1.1,1.1c0.5,0.2,1,0.4,1.7,0.4c0.6,0,1.2-0.1,1.6-0.3
			s0.8-0.6,1.1-1c0.3-0.4,0.5-1,0.7-1.6C408.4,170.7,408.5,170,408.5,169.2z"/>
		<path id="XMLID_8619_" class="st30" d="M429.7,168.8c0,0.5-0.1,0.9-0.3,1.1c-0.2,0.2-0.5,0.4-0.9,0.4h-9c0,0.6,0.1,1.2,0.2,1.7
			c0.1,0.5,0.4,0.9,0.7,1.3c0.3,0.4,0.7,0.6,1.3,0.8c0.5,0.2,1.1,0.3,1.8,0.3c0.7,0,1.4-0.1,1.9-0.2c0.6-0.1,1-0.2,1.4-0.3
			c0.4-0.1,0.7-0.2,1-0.3c0.3-0.1,0.5-0.2,0.6-0.2c0.1,0,0.2,0,0.2,0.1c0.1,0,0.1,0.1,0.2,0.2c0,0.1,0.1,0.2,0.1,0.4
			c0,0.2,0,0.4,0,0.7c0,0.2,0,0.4,0,0.6c0,0.2,0,0.3,0,0.4s-0.1,0.2-0.1,0.3s-0.1,0.2-0.2,0.2c-0.1,0.1-0.3,0.2-0.6,0.3
			s-0.7,0.3-1.2,0.4c-0.5,0.1-1.1,0.2-1.7,0.3c-0.6,0.1-1.3,0.1-2,0.1c-1.3,0-2.5-0.2-3.4-0.5c-1-0.3-1.8-0.8-2.5-1.5
			c-0.7-0.7-1.2-1.5-1.5-2.5c-0.3-1-0.5-2.2-0.5-3.6c0-1.3,0.2-2.5,0.5-3.5c0.3-1.1,0.8-1.9,1.5-2.7c0.6-0.7,1.4-1.3,2.4-1.7
			c0.9-0.4,2-0.6,3.1-0.6c1.2,0,2.3,0.2,3.2,0.5c0.9,0.4,1.6,0.9,2.2,1.5s1,1.4,1.2,2.3c0.3,0.9,0.4,1.8,0.4,2.9V168.8z
			 M425.6,167.6c0-1.2-0.2-2.1-0.7-2.8c-0.5-0.7-1.3-1-2.3-1c-0.5,0-1,0.1-1.4,0.3c-0.4,0.2-0.7,0.5-1,0.8c-0.3,0.3-0.5,0.7-0.6,1.2
			c-0.1,0.5-0.2,0.9-0.2,1.5H425.6z"/>
		<path id="XMLID_8622_" class="st30" d="M440,171.2c0-0.6,0.1-1.2,0.3-1.7c0.2-0.5,0.5-1.1,0.8-1.5c0.4-0.5,0.8-0.9,1.3-1.4
			c0.5-0.4,1.2-0.9,1.9-1.3c-0.4-0.5-0.7-1-1-1.4c-0.3-0.4-0.5-0.9-0.7-1.3c-0.2-0.4-0.3-0.8-0.4-1.2c-0.1-0.4-0.1-0.7-0.1-1.1
			c0-0.8,0.1-1.5,0.4-2.2c0.3-0.7,0.7-1.3,1.3-1.8c0.6-0.5,1.3-0.9,2.2-1.2c0.9-0.3,2-0.4,3.3-0.4c1.2,0,2.2,0.1,3,0.3
			c0.8,0.2,1.5,0.5,2.1,0.9c0.5,0.4,0.9,0.9,1.2,1.5c0.3,0.6,0.4,1.3,0.4,2c0,0.7-0.1,1.3-0.3,1.8c-0.2,0.6-0.6,1.1-1,1.6
			c-0.5,0.5-1,1-1.7,1.5c-0.7,0.5-1.5,0.9-2.4,1.4c0.3,0.3,0.6,0.7,1,1.1c0.4,0.4,0.8,0.8,1.1,1.1c0.4,0.4,0.8,0.8,1.2,1.1
			c0.4,0.4,0.8,0.7,1.2,1c0.1-0.2,0.3-0.5,0.4-0.8c0.1-0.3,0.2-0.6,0.3-0.9c0.1-0.3,0.1-0.6,0.2-1c0-0.3,0.1-0.7,0.1-1V166
			c0-0.1,0-0.2,0.1-0.3c0-0.1,0.1-0.2,0.3-0.2c0.1-0.1,0.3-0.1,0.6-0.1c0.3,0,0.6,0,1,0c0.4,0,0.7,0,1,0c0.3,0,0.5,0.1,0.6,0.1
			c0.1,0.1,0.3,0.1,0.3,0.2c0.1,0.1,0.1,0.2,0.1,0.4v0.5c0,0.5,0,1.1-0.1,1.6c-0.1,0.5-0.2,1.1-0.3,1.6c-0.1,0.5-0.3,1-0.6,1.5
			c-0.2,0.5-0.5,0.9-0.7,1.3c0.4,0.3,0.7,0.5,1,0.7c0.3,0.2,0.5,0.4,0.7,0.5c0.2,0.1,0.4,0.2,0.5,0.2c0.1,0,0.2,0.1,0.3,0.1
			c0.1,0,0.2,0,0.3,0c0.1,0,0.2,0,0.3,0.1c0.1,0.1,0.1,0.2,0.1,0.4c0,0.2,0,0.5,0,0.9c0,0.4,0,0.7,0,1s0,0.4-0.1,0.5
			s-0.1,0.2-0.2,0.3c-0.1,0.1-0.3,0.1-0.5,0.2c-0.2,0.1-0.5,0.1-0.8,0.1c-0.2,0-0.5,0-0.8-0.1c-0.3-0.1-0.6-0.2-0.9-0.3
			c-0.3-0.2-0.7-0.4-1.2-0.7c-0.5-0.3-1-0.6-1.6-1.1c-0.5,0.4-1.1,0.7-1.6,1c-0.6,0.3-1.1,0.5-1.7,0.7c-0.6,0.2-1.2,0.3-1.9,0.4
			s-1.3,0.1-2,0.1c-0.7,0-1.4-0.1-2.1-0.2c-0.7-0.1-1.3-0.3-1.9-0.5c-0.6-0.2-1.1-0.5-1.6-0.9c-0.5-0.3-0.9-0.7-1.3-1.2
			c-0.4-0.5-0.6-1-0.8-1.6C440.1,172.6,440,171.9,440,171.2z M444.5,170.9c0,0.5,0.1,0.9,0.3,1.3c0.2,0.4,0.4,0.7,0.8,1
			c0.3,0.3,0.7,0.5,1.2,0.7c0.5,0.2,1.1,0.2,1.7,0.2c0.3,0,0.7,0,1-0.1c0.3-0.1,0.6-0.1,1-0.2c0.3-0.1,0.6-0.2,0.9-0.4
			c0.3-0.1,0.5-0.3,0.8-0.5c-0.5-0.4-1-0.8-1.5-1.3c-0.5-0.4-1-0.9-1.5-1.3c-0.5-0.5-0.9-0.9-1.4-1.3c-0.4-0.4-0.8-0.9-1.2-1.3
			c-0.4,0.2-0.7,0.5-1,0.8s-0.5,0.5-0.6,0.8c-0.2,0.3-0.3,0.5-0.4,0.8C444.6,170.4,444.5,170.6,444.5,170.9z M446.4,160
			c0,0.2,0,0.5,0.1,0.7c0.1,0.2,0.2,0.5,0.3,0.8c0.1,0.3,0.3,0.6,0.5,0.9c0.2,0.3,0.4,0.6,0.7,1c0.7-0.4,1.2-0.7,1.6-1
			c0.4-0.3,0.8-0.6,1-0.9c0.3-0.3,0.5-0.6,0.6-0.8c0.1-0.3,0.2-0.6,0.2-0.9c0-0.3,0-0.5-0.1-0.7c-0.1-0.2-0.3-0.4-0.5-0.6
			c-0.2-0.2-0.5-0.3-0.8-0.4c-0.3-0.1-0.7-0.1-1.1-0.1c-0.5,0-0.9,0.1-1.2,0.2c-0.3,0.1-0.6,0.3-0.8,0.4s-0.4,0.4-0.5,0.7
			S446.4,159.7,446.4,160z"/>
		<path id="XMLID_8626_" class="st30" d="M311.5,209.4c0,0.3,0,0.6,0,0.8c0,0.2-0.1,0.4-0.1,0.5s-0.1,0.2-0.2,0.3
			c-0.1,0.1-0.2,0.1-0.3,0.1h-10.7c-0.4,0-0.7-0.1-0.9-0.3c-0.2-0.2-0.4-0.6-0.4-1v-18.6c0-0.5,0.1-0.8,0.4-1
			c0.2-0.2,0.6-0.3,0.9-0.3h10.7c0.1,0,0.2,0,0.3,0.1c0.1,0.1,0.1,0.2,0.2,0.3s0.1,0.3,0.1,0.5s0,0.5,0,0.8c0,0.3,0,0.6,0,0.8
			s-0.1,0.4-0.1,0.5c-0.1,0.1-0.1,0.2-0.2,0.3c-0.1,0.1-0.2,0.1-0.3,0.1h-7.6v5.2h6.5c0.1,0,0.2,0,0.3,0.1c0.1,0.1,0.2,0.2,0.2,0.3
			c0.1,0.1,0.1,0.3,0.1,0.5s0,0.5,0,0.8c0,0.3,0,0.6,0,0.8c0,0.2-0.1,0.4-0.1,0.5c-0.1,0.1-0.1,0.2-0.2,0.3
			c-0.1,0.1-0.2,0.1-0.3,0.1h-6.5v6h7.7c0.1,0,0.2,0,0.3,0.1c0.1,0.1,0.2,0.2,0.2,0.3c0.1,0.1,0.1,0.3,0.1,0.5
			C311.5,208.8,311.5,209.1,311.5,209.4z"/>
		<path id="XMLID_8628_" class="st30" d="M328.4,196.8c0,0.5-0.1,0.9-0.2,1.2s-0.3,0.4-0.4,0.4H326c0.2,0.3,0.4,0.6,0.5,0.9
			c0.1,0.3,0.2,0.7,0.2,1c0,0.9-0.1,1.6-0.4,2.3c-0.3,0.7-0.7,1.2-1.2,1.7c-0.5,0.5-1.2,0.8-1.9,1c-0.8,0.2-1.6,0.4-2.5,0.4
			c-0.5,0-0.9-0.1-1.4-0.2c-0.4-0.1-0.8-0.3-1-0.4c-0.1,0.1-0.3,0.3-0.4,0.5c-0.1,0.2-0.2,0.4-0.2,0.7c0,0.3,0.1,0.6,0.4,0.8
			c0.3,0.2,0.7,0.3,1.2,0.3l3.6,0.1c0.8,0,1.6,0.2,2.2,0.4c0.7,0.2,1.2,0.5,1.7,0.9c0.4,0.4,0.8,0.8,1,1.3c0.2,0.5,0.4,1.1,0.4,1.8
			c0,0.7-0.2,1.4-0.5,2.1c-0.3,0.6-0.8,1.2-1.4,1.7c-0.6,0.5-1.4,0.8-2.4,1.1c-1,0.3-2.1,0.4-3.4,0.4c-1.3,0-2.3-0.1-3.2-0.3
			c-0.9-0.2-1.6-0.5-2.2-0.8s-1-0.8-1.2-1.3c-0.3-0.5-0.4-1-0.4-1.6c0-0.4,0-0.7,0.1-1c0.1-0.3,0.2-0.6,0.4-1
			c0.2-0.3,0.4-0.6,0.7-0.9c0.3-0.3,0.6-0.5,0.9-0.8c-0.5-0.3-0.8-0.6-1.1-1c-0.3-0.4-0.4-0.9-0.4-1.4c0-0.7,0.1-1.2,0.4-1.8
			c0.3-0.5,0.7-1,1.2-1.4c-0.4-0.4-0.7-0.8-0.9-1.4c-0.2-0.5-0.3-1.2-0.3-2c0-0.9,0.2-1.6,0.5-2.3c0.3-0.7,0.7-1.3,1.3-1.7
			c0.5-0.5,1.2-0.8,1.9-1.1c0.7-0.2,1.6-0.4,2.5-0.4c0.5,0,0.9,0,1.3,0.1c0.4,0.1,0.8,0.1,1.2,0.2h4.7c0.2,0,0.3,0.1,0.5,0.4
			S328.4,196.3,328.4,196.8z M324,212.1c0-0.5-0.2-0.9-0.6-1.1c-0.4-0.3-0.9-0.4-1.6-0.4l-3-0.1c-0.3,0.2-0.5,0.4-0.7,0.6
			c-0.2,0.2-0.3,0.4-0.4,0.6c-0.1,0.2-0.2,0.3-0.2,0.5s0,0.3,0,0.5c0,0.6,0.3,1,0.8,1.3c0.6,0.3,1.3,0.4,2.4,0.4
			c0.6,0,1.2-0.1,1.6-0.2c0.4-0.1,0.8-0.3,1-0.5c0.3-0.2,0.5-0.4,0.6-0.7C323.9,212.7,324,212.4,324,212.1z M323,200.3
			c0-0.8-0.2-1.4-0.7-1.9c-0.4-0.4-1.1-0.7-1.9-0.7c-0.4,0-0.8,0.1-1.1,0.2s-0.6,0.3-0.8,0.6c-0.2,0.2-0.4,0.5-0.5,0.8
			c-0.1,0.3-0.1,0.6-0.1,1c0,0.7,0.2,1.3,0.7,1.8c0.4,0.4,1.1,0.7,1.8,0.7c0.4,0,0.8-0.1,1.1-0.2s0.6-0.3,0.8-0.5
			c0.2-0.2,0.4-0.5,0.5-0.8C323,201,323,200.7,323,200.3z"/>
		<path id="XMLID_8632_" class="st30" d="M344.7,196.8c0,0.5-0.1,0.9-0.2,1.2c-0.1,0.3-0.3,0.4-0.4,0.4h-1.7
			c0.2,0.3,0.4,0.6,0.5,0.9c0.1,0.3,0.2,0.7,0.2,1c0,0.9-0.1,1.6-0.4,2.3c-0.3,0.7-0.7,1.2-1.2,1.7c-0.5,0.5-1.2,0.8-1.9,1
			c-0.8,0.2-1.6,0.4-2.5,0.4c-0.5,0-0.9-0.1-1.4-0.2s-0.8-0.3-1-0.4c-0.1,0.1-0.3,0.3-0.4,0.5c-0.1,0.2-0.2,0.4-0.2,0.7
			c0,0.3,0.1,0.6,0.4,0.8c0.3,0.2,0.7,0.3,1.2,0.3l3.6,0.1c0.8,0,1.6,0.2,2.2,0.4s1.2,0.5,1.7,0.9c0.4,0.4,0.8,0.8,1,1.3
			c0.2,0.5,0.4,1.1,0.4,1.8c0,0.7-0.2,1.4-0.5,2.1c-0.3,0.6-0.8,1.2-1.4,1.7c-0.6,0.5-1.4,0.8-2.4,1.1c-1,0.3-2.1,0.4-3.4,0.4
			c-1.3,0-2.3-0.1-3.2-0.3s-1.6-0.5-2.2-0.8c-0.6-0.4-1-0.8-1.2-1.3c-0.3-0.5-0.4-1-0.4-1.6c0-0.4,0-0.7,0.1-1s0.2-0.6,0.4-1
			c0.2-0.3,0.4-0.6,0.7-0.9c0.3-0.3,0.6-0.5,0.9-0.8c-0.5-0.3-0.8-0.6-1.1-1c-0.3-0.4-0.4-0.9-0.4-1.4c0-0.7,0.1-1.2,0.4-1.8
			c0.3-0.5,0.7-1,1.2-1.4c-0.4-0.4-0.7-0.8-0.9-1.4c-0.2-0.5-0.3-1.2-0.3-2c0-0.9,0.2-1.6,0.5-2.3c0.3-0.7,0.7-1.3,1.3-1.7
			c0.5-0.5,1.2-0.8,1.9-1.1c0.7-0.2,1.6-0.4,2.5-0.4c0.5,0,0.9,0,1.3,0.1c0.4,0.1,0.8,0.1,1.2,0.2h4.7c0.2,0,0.3,0.1,0.5,0.4
			S344.7,196.3,344.7,196.8z M340.3,212.1c0-0.5-0.2-0.9-0.6-1.1s-0.9-0.4-1.6-0.4l-3-0.1c-0.3,0.2-0.5,0.4-0.7,0.6
			s-0.3,0.4-0.4,0.6c-0.1,0.2-0.2,0.3-0.2,0.5s0,0.3,0,0.5c0,0.6,0.3,1,0.8,1.3c0.6,0.3,1.3,0.4,2.4,0.4c0.6,0,1.2-0.1,1.6-0.2
			c0.4-0.1,0.8-0.3,1-0.5c0.3-0.2,0.5-0.4,0.6-0.7C340.3,212.7,340.3,212.4,340.3,212.1z M339.4,200.3c0-0.8-0.2-1.4-0.7-1.9
			c-0.4-0.4-1.1-0.7-1.9-0.7c-0.4,0-0.8,0.1-1.1,0.2s-0.6,0.3-0.8,0.6c-0.2,0.2-0.4,0.5-0.5,0.8c-0.1,0.3-0.1,0.6-0.1,1
			c0,0.7,0.2,1.3,0.7,1.8c0.4,0.4,1.1,0.7,1.8,0.7c0.4,0,0.8-0.1,1.1-0.2s0.6-0.3,0.8-0.5c0.2-0.2,0.4-0.5,0.5-0.8
			C339.3,201,339.4,200.7,339.4,200.3z"/>
		<path id="XMLID_8636_" class="st30" d="M361.5,210.6c0,0.1,0,0.2-0.1,0.3s-0.2,0.2-0.3,0.2c-0.2,0.1-0.4,0.1-0.6,0.1
			c-0.3,0-0.6,0-1,0c-0.4,0-0.7,0-1,0c-0.3,0-0.5-0.1-0.6-0.1c-0.2-0.1-0.3-0.1-0.3-0.2c-0.1-0.1-0.1-0.2-0.1-0.3v-8.4
			c0-0.7-0.1-1.3-0.2-1.7c-0.1-0.4-0.3-0.8-0.5-1.1c-0.2-0.3-0.5-0.5-0.8-0.7c-0.3-0.2-0.7-0.2-1.1-0.2c-0.5,0-1.1,0.2-1.6,0.6
			c-0.5,0.4-1.1,0.9-1.7,1.7v9.8c0,0.1,0,0.2-0.1,0.3c-0.1,0.1-0.2,0.2-0.3,0.2c-0.2,0.1-0.4,0.1-0.6,0.1c-0.3,0-0.6,0-1,0
			s-0.7,0-1,0s-0.5-0.1-0.6-0.1c-0.2-0.1-0.3-0.1-0.3-0.2c-0.1-0.1-0.1-0.2-0.1-0.3v-14.7c0-0.1,0-0.2,0.1-0.3
			c0.1-0.1,0.2-0.2,0.3-0.2c0.1-0.1,0.3-0.1,0.6-0.1c0.2,0,0.5,0,0.9,0c0.4,0,0.6,0,0.9,0s0.4,0.1,0.5,0.1c0.1,0.1,0.2,0.1,0.3,0.2
			c0.1,0.1,0.1,0.2,0.1,0.3v1.7c0.8-0.9,1.6-1.5,2.5-2c0.8-0.4,1.7-0.7,2.6-0.7c1,0,1.8,0.2,2.5,0.5c0.7,0.3,1.2,0.8,1.7,1.3
			s0.7,1.2,0.9,2c0.2,0.8,0.3,1.7,0.3,2.7V210.6z"/>
		<path id="XMLID_8638_" class="st30" d="M380.5,203c0,1.3-0.2,2.4-0.5,3.4c-0.3,1-0.8,1.9-1.5,2.7c-0.7,0.7-1.5,1.3-2.5,1.7
			s-2.2,0.6-3.6,0.6c-1.3,0-2.5-0.2-3.4-0.5c-1-0.4-1.8-0.9-2.4-1.6c-0.6-0.7-1.1-1.5-1.4-2.6c-0.3-1-0.5-2.2-0.5-3.5
			c0-1.3,0.2-2.4,0.5-3.4s0.8-1.9,1.5-2.7c0.7-0.7,1.5-1.3,2.5-1.7s2.2-0.6,3.5-0.6c1.3,0,2.5,0.2,3.4,0.5c1,0.4,1.8,0.9,2.4,1.6
			s1.1,1.5,1.4,2.6S380.5,201.7,380.5,203z M376.3,203.2c0-0.7-0.1-1.4-0.2-2c-0.1-0.6-0.3-1.1-0.6-1.6c-0.3-0.5-0.6-0.8-1.1-1.1
			s-1-0.4-1.7-0.4c-0.6,0-1.2,0.1-1.6,0.3c-0.5,0.2-0.8,0.6-1.1,1c-0.3,0.4-0.5,1-0.7,1.6c-0.1,0.6-0.2,1.3-0.2,2.1
			c0,0.7,0.1,1.4,0.2,2c0.1,0.6,0.3,1.1,0.6,1.6c0.3,0.5,0.6,0.8,1.1,1.1c0.5,0.2,1,0.4,1.7,0.4c0.6,0,1.2-0.1,1.6-0.3
			s0.8-0.6,1.1-1c0.3-0.4,0.5-1,0.7-1.6C376.2,204.7,376.3,204,376.3,203.2z"/>
		<path id="XMLID_8641_" class="st30" d="M397.1,196.8c0,0.5-0.1,0.9-0.2,1.2c-0.1,0.3-0.3,0.4-0.4,0.4h-1.7
			c0.2,0.3,0.4,0.6,0.5,0.9c0.1,0.3,0.2,0.7,0.2,1c0,0.9-0.1,1.6-0.4,2.3c-0.3,0.7-0.7,1.2-1.2,1.7c-0.5,0.5-1.2,0.8-1.9,1
			c-0.8,0.2-1.6,0.4-2.5,0.4c-0.5,0-0.9-0.1-1.4-0.2s-0.8-0.3-1-0.4c-0.1,0.1-0.3,0.3-0.4,0.5c-0.1,0.2-0.2,0.4-0.2,0.7
			c0,0.3,0.1,0.6,0.4,0.8c0.3,0.2,0.7,0.3,1.2,0.3l3.6,0.1c0.8,0,1.6,0.2,2.2,0.4s1.2,0.5,1.7,0.9c0.4,0.4,0.8,0.8,1,1.3
			c0.2,0.5,0.4,1.1,0.4,1.8c0,0.7-0.2,1.4-0.5,2.1c-0.3,0.6-0.8,1.2-1.4,1.7c-0.6,0.5-1.4,0.8-2.4,1.1c-1,0.3-2.1,0.4-3.4,0.4
			c-1.3,0-2.3-0.1-3.2-0.3c-0.9-0.2-1.6-0.5-2.2-0.8s-1-0.8-1.2-1.3c-0.3-0.5-0.4-1-0.4-1.6c0-0.4,0-0.7,0.1-1
			c0.1-0.3,0.2-0.6,0.4-1c0.2-0.3,0.4-0.6,0.7-0.9c0.3-0.3,0.6-0.5,0.9-0.8c-0.5-0.3-0.8-0.6-1.1-1c-0.3-0.4-0.4-0.9-0.4-1.4
			c0-0.7,0.1-1.2,0.4-1.8c0.3-0.5,0.7-1,1.2-1.4c-0.4-0.4-0.7-0.8-0.9-1.4c-0.2-0.5-0.3-1.2-0.3-2c0-0.9,0.2-1.6,0.5-2.3
			c0.3-0.7,0.7-1.3,1.3-1.7c0.5-0.5,1.2-0.8,1.9-1.1c0.7-0.2,1.6-0.4,2.5-0.4c0.5,0,0.9,0,1.3,0.1s0.8,0.1,1.2,0.2h4.7
			c0.2,0,0.3,0.1,0.5,0.4S397.1,196.3,397.1,196.8z M392.7,212.1c0-0.5-0.2-0.9-0.6-1.1c-0.4-0.3-0.9-0.4-1.6-0.4l-3-0.1
			c-0.3,0.2-0.5,0.4-0.7,0.6s-0.3,0.4-0.4,0.6c-0.1,0.2-0.2,0.3-0.2,0.5s0,0.3,0,0.5c0,0.6,0.3,1,0.8,1.3c0.6,0.3,1.3,0.4,2.4,0.4
			c0.6,0,1.2-0.1,1.6-0.2c0.4-0.1,0.8-0.3,1-0.5c0.3-0.2,0.5-0.4,0.6-0.7C392.7,212.7,392.7,212.4,392.7,212.1z M391.8,200.3
			c0-0.8-0.2-1.4-0.7-1.9c-0.4-0.4-1.1-0.7-1.9-0.7c-0.4,0-0.8,0.1-1.1,0.2c-0.3,0.1-0.6,0.3-0.8,0.6c-0.2,0.2-0.4,0.5-0.5,0.8
			c-0.1,0.3-0.1,0.6-0.1,1c0,0.7,0.2,1.3,0.7,1.8c0.4,0.4,1.1,0.7,1.8,0.7c0.4,0,0.8-0.1,1.1-0.2s0.6-0.3,0.8-0.5
			c0.2-0.2,0.4-0.5,0.5-0.8S391.8,200.7,391.8,200.3z"/>
		<path id="XMLID_8645_" class="st30" d="M406.8,205.2c0-0.6,0.1-1.2,0.3-1.7c0.2-0.5,0.5-1.1,0.8-1.5c0.4-0.5,0.8-0.9,1.3-1.4
			c0.5-0.4,1.2-0.9,1.9-1.3c-0.4-0.5-0.7-1-1-1.4c-0.3-0.4-0.5-0.9-0.7-1.3c-0.2-0.4-0.3-0.8-0.4-1.2c-0.1-0.4-0.1-0.7-0.1-1.1
			c0-0.8,0.1-1.5,0.4-2.2c0.3-0.7,0.7-1.3,1.3-1.8c0.6-0.5,1.3-0.9,2.2-1.2c0.9-0.3,2-0.4,3.3-0.4c1.2,0,2.2,0.1,3,0.3
			c0.8,0.2,1.5,0.5,2.1,0.9c0.5,0.4,0.9,0.9,1.2,1.5c0.3,0.6,0.4,1.3,0.4,2c0,0.7-0.1,1.3-0.3,1.8c-0.2,0.6-0.6,1.1-1,1.6
			s-1,1-1.7,1.5c-0.7,0.5-1.5,0.9-2.4,1.4c0.3,0.3,0.6,0.7,1,1.1c0.4,0.4,0.7,0.8,1.1,1.1c0.4,0.4,0.8,0.8,1.2,1.1
			c0.4,0.4,0.8,0.7,1.2,1c0.1-0.2,0.3-0.5,0.4-0.8c0.1-0.3,0.2-0.6,0.3-0.9c0.1-0.3,0.1-0.6,0.2-1c0-0.3,0.1-0.7,0.1-1V200
			c0-0.1,0-0.2,0.1-0.3c0-0.1,0.1-0.2,0.3-0.2c0.1-0.1,0.3-0.1,0.6-0.1c0.3,0,0.6,0,1,0c0.4,0,0.7,0,1,0c0.3,0,0.5,0.1,0.6,0.1
			c0.1,0.1,0.3,0.1,0.3,0.2c0.1,0.1,0.1,0.2,0.1,0.4v0.5c0,0.5,0,1.1-0.1,1.6c-0.1,0.5-0.2,1.1-0.3,1.6c-0.1,0.5-0.3,1-0.6,1.5
			c-0.2,0.5-0.5,0.9-0.7,1.3c0.4,0.3,0.7,0.5,1,0.7c0.3,0.2,0.5,0.4,0.7,0.5c0.2,0.1,0.4,0.2,0.5,0.2c0.1,0,0.2,0.1,0.3,0.1
			c0.1,0,0.2,0,0.3,0c0.1,0,0.2,0,0.3,0.1c0.1,0.1,0.1,0.2,0.1,0.4s0,0.5,0,0.9c0,0.4,0,0.7,0,1c0,0.2,0,0.4-0.1,0.5
			c0,0.1-0.1,0.2-0.2,0.3c-0.1,0.1-0.3,0.1-0.5,0.2c-0.2,0.1-0.5,0.1-0.8,0.1c-0.2,0-0.5,0-0.8-0.1c-0.3-0.1-0.6-0.2-0.9-0.3
			c-0.3-0.2-0.7-0.4-1.2-0.7c-0.5-0.3-1-0.6-1.6-1.1c-0.5,0.4-1.1,0.7-1.6,1c-0.6,0.3-1.1,0.5-1.7,0.7c-0.6,0.2-1.2,0.3-1.9,0.4
			c-0.6,0.1-1.3,0.1-2.1,0.1c-0.7,0-1.4-0.1-2.1-0.2c-0.7-0.1-1.3-0.3-1.9-0.5s-1.1-0.5-1.6-0.9c-0.5-0.3-0.9-0.7-1.3-1.2
			c-0.4-0.5-0.6-1-0.8-1.6S406.8,205.9,406.8,205.2z M411.3,204.9c0,0.5,0.1,0.9,0.3,1.3c0.2,0.4,0.4,0.7,0.8,1s0.7,0.5,1.2,0.7
			s1.1,0.2,1.7,0.2c0.3,0,0.7,0,1-0.1c0.3-0.1,0.6-0.1,1-0.2c0.3-0.1,0.6-0.2,0.9-0.4c0.3-0.1,0.5-0.3,0.8-0.5
			c-0.5-0.4-1-0.8-1.5-1.3c-0.5-0.4-1-0.9-1.5-1.3c-0.5-0.5-0.9-0.9-1.4-1.3c-0.4-0.4-0.8-0.9-1.2-1.3c-0.4,0.2-0.7,0.5-1,0.8
			c-0.3,0.3-0.5,0.5-0.6,0.8c-0.2,0.3-0.3,0.5-0.4,0.8S411.3,204.6,411.3,204.9z M413.1,194c0,0.2,0,0.5,0.1,0.7
			c0.1,0.2,0.2,0.5,0.3,0.8c0.1,0.3,0.3,0.6,0.5,0.9c0.2,0.3,0.4,0.6,0.7,1c0.6-0.4,1.2-0.7,1.6-1c0.4-0.3,0.8-0.6,1-0.9
			c0.3-0.3,0.5-0.6,0.6-0.8c0.1-0.3,0.2-0.6,0.2-0.9c0-0.3,0-0.5-0.1-0.7c-0.1-0.2-0.3-0.4-0.5-0.6c-0.2-0.2-0.5-0.3-0.8-0.4
			c-0.3-0.1-0.7-0.1-1.1-0.1c-0.5,0-0.9,0.1-1.2,0.2c-0.3,0.1-0.6,0.3-0.8,0.4c-0.2,0.2-0.4,0.4-0.5,0.7
			C413.2,193.4,413.1,193.7,413.1,194z"/>
		<path id="XMLID_8649_" class="st30" d="M311.5,238.7c0,1.1-0.2,2.1-0.6,3c-0.4,0.8-1,1.6-1.7,2.1c-0.7,0.6-1.6,1-2.5,1.3
			c-1,0.3-2,0.4-3.1,0.4c-0.7,0-1.4-0.1-2.1-0.2c-0.6-0.1-1.2-0.3-1.7-0.4c-0.5-0.2-0.9-0.3-1.2-0.5s-0.6-0.4-0.7-0.5
			c-0.1-0.1-0.2-0.3-0.3-0.6c-0.1-0.3-0.1-0.7-0.1-1.2c0-0.3,0-0.6,0-0.9c0-0.2,0.1-0.4,0.1-0.6c0-0.1,0.1-0.2,0.2-0.3
			c0.1-0.1,0.2-0.1,0.3-0.1c0.2,0,0.4,0.1,0.7,0.3c0.3,0.2,0.6,0.4,1.1,0.6c0.4,0.2,1,0.4,1.6,0.6c0.6,0.2,1.3,0.3,2.1,0.3
			c0.5,0,1-0.1,1.4-0.2c0.4-0.1,0.8-0.3,1.1-0.5s0.5-0.5,0.7-0.9c0.2-0.3,0.2-0.7,0.2-1.1c0-0.5-0.1-0.9-0.4-1.2
			c-0.3-0.3-0.6-0.7-1-0.9c-0.4-0.3-0.9-0.5-1.4-0.8c-0.5-0.2-1.1-0.5-1.7-0.8c-0.6-0.3-1.1-0.6-1.7-0.9c-0.5-0.3-1-0.7-1.4-1.2
			c-0.4-0.5-0.8-1-1-1.7c-0.3-0.6-0.4-1.4-0.4-2.3c0-1,0.2-1.9,0.6-2.7c0.4-0.8,0.9-1.4,1.5-1.9c0.6-0.5,1.4-0.9,2.3-1.1
			s1.8-0.4,2.8-0.4c0.5,0,1,0,1.5,0.1c0.5,0.1,1,0.2,1.4,0.3c0.4,0.1,0.8,0.3,1.2,0.4c0.3,0.2,0.6,0.3,0.7,0.4
			c0.1,0.1,0.2,0.2,0.2,0.3c0,0.1,0.1,0.2,0.1,0.3c0,0.1,0,0.3,0.1,0.5c0,0.2,0,0.4,0,0.7c0,0.3,0,0.6,0,0.8c0,0.2,0,0.4-0.1,0.5
			c0,0.1-0.1,0.2-0.2,0.3c-0.1,0.1-0.2,0.1-0.3,0.1c-0.1,0-0.3-0.1-0.6-0.2c-0.3-0.2-0.6-0.3-1-0.5c-0.4-0.2-0.8-0.3-1.3-0.5
			s-1.1-0.2-1.7-0.2c-0.5,0-0.9,0.1-1.2,0.2c-0.4,0.1-0.6,0.3-0.9,0.5c-0.2,0.2-0.4,0.4-0.5,0.7c-0.1,0.3-0.2,0.6-0.2,0.9
			c0,0.5,0.1,0.9,0.4,1.2c0.3,0.3,0.6,0.7,1,0.9c0.4,0.3,0.9,0.5,1.5,0.8c0.6,0.2,1.1,0.5,1.7,0.8c0.6,0.3,1.1,0.6,1.7,0.9
			c0.6,0.3,1,0.7,1.5,1.2c0.4,0.5,0.8,1,1,1.7C311.4,237.1,311.5,237.9,311.5,238.7z"/>
		<path id="XMLID_8651_" class="st30" d="M327.1,244.6c0,0.2-0.1,0.3-0.2,0.4c-0.1,0.1-0.3,0.2-0.5,0.2s-0.6,0.1-1,0.1
			c-0.5,0-0.9,0-1.1-0.1c-0.2,0-0.4-0.1-0.5-0.2c-0.1-0.1-0.1-0.2-0.1-0.4v-1.2c-0.6,0.6-1.3,1.2-2.1,1.5c-0.8,0.4-1.6,0.5-2.6,0.5
			c-0.8,0-1.5-0.1-2.2-0.3s-1.2-0.5-1.7-0.9c-0.5-0.4-0.9-0.9-1.1-1.5c-0.3-0.6-0.4-1.3-0.4-2.1c0-0.9,0.2-1.6,0.5-2.2
			c0.3-0.6,0.8-1.2,1.5-1.6c0.7-0.4,1.5-0.7,2.5-0.9c1-0.2,2.1-0.3,3.5-0.3h1.4v-0.9c0-0.5,0-0.9-0.1-1.2s-0.2-0.6-0.5-0.9
			c-0.2-0.2-0.5-0.4-0.9-0.5c-0.4-0.1-0.8-0.2-1.3-0.2c-0.7,0-1.3,0.1-1.9,0.2c-0.5,0.2-1,0.3-1.4,0.5c-0.4,0.2-0.8,0.4-1,0.5
			c-0.3,0.2-0.5,0.2-0.7,0.2c-0.1,0-0.2,0-0.3-0.1c-0.1-0.1-0.2-0.2-0.2-0.3c-0.1-0.1-0.1-0.3-0.1-0.5c0-0.2,0-0.4,0-0.7
			c0-0.3,0-0.6,0.1-0.8c0.1-0.2,0.2-0.4,0.3-0.5c0.2-0.2,0.4-0.3,0.8-0.5c0.4-0.2,0.8-0.4,1.4-0.5c0.5-0.2,1.1-0.3,1.7-0.4
			c0.6-0.1,1.2-0.2,1.9-0.2c1.2,0,2.1,0.1,3,0.3c0.8,0.2,1.5,0.6,2,1c0.5,0.5,0.9,1.1,1.2,1.8c0.2,0.7,0.4,1.6,0.4,2.6V244.6z
			 M323,238.3h-1.6c-0.7,0-1.2,0-1.7,0.1c-0.5,0.1-0.9,0.2-1.2,0.4c-0.3,0.2-0.5,0.4-0.7,0.7c-0.1,0.3-0.2,0.6-0.2,1
			c0,0.6,0.2,1.1,0.6,1.5s0.9,0.5,1.6,0.5c0.6,0,1.1-0.1,1.6-0.4c0.5-0.3,1-0.7,1.5-1.3V238.3z"/>
		<path id="XMLID_8654_" class="st30" d="M345.4,244.6c0,0.1,0,0.2-0.1,0.3s-0.2,0.2-0.3,0.2c-0.2,0.1-0.4,0.1-0.6,0.1
			c-0.3,0-0.6,0-1,0c-0.4,0-0.7,0-1,0c-0.3,0-0.5-0.1-0.6-0.1c-0.2-0.1-0.3-0.1-0.3-0.2c-0.1-0.1-0.1-0.2-0.1-0.3v-8.4
			c0-0.7-0.1-1.3-0.2-1.7c-0.1-0.4-0.3-0.8-0.5-1.1c-0.2-0.3-0.5-0.5-0.8-0.7c-0.3-0.2-0.7-0.2-1.1-0.2c-0.5,0-1.1,0.2-1.6,0.6
			c-0.5,0.4-1.1,0.9-1.7,1.7v9.8c0,0.1,0,0.2-0.1,0.3c-0.1,0.1-0.2,0.2-0.3,0.2c-0.2,0.1-0.4,0.1-0.6,0.1s-0.6,0-1,0s-0.7,0-1,0
			s-0.5-0.1-0.6-0.1c-0.2-0.1-0.3-0.1-0.3-0.2c-0.1-0.1-0.1-0.2-0.1-0.3v-14.7c0-0.1,0-0.2,0.1-0.3c0.1-0.1,0.2-0.2,0.3-0.2
			c0.1-0.1,0.3-0.1,0.6-0.1c0.2,0,0.5,0,0.9,0c0.4,0,0.6,0,0.9,0s0.4,0.1,0.5,0.1c0.1,0.1,0.2,0.1,0.3,0.2c0.1,0.1,0.1,0.2,0.1,0.3
			v1.7c0.8-0.9,1.6-1.5,2.5-2c0.8-0.4,1.7-0.7,2.6-0.7c1,0,1.8,0.2,2.5,0.5c0.7,0.3,1.2,0.8,1.7,1.3c0.4,0.6,0.7,1.2,0.9,2
			c0.2,0.8,0.3,1.7,0.3,2.7V244.6z"/>
		<path id="XMLID_8656_" class="st30" d="M357.9,243.1c0,0.5,0,0.9-0.1,1.1c-0.1,0.3-0.1,0.4-0.2,0.5c-0.1,0.1-0.2,0.2-0.4,0.3
			c-0.2,0.1-0.4,0.2-0.7,0.2c-0.3,0.1-0.5,0.1-0.8,0.1c-0.3,0-0.6,0-0.9,0c-0.8,0-1.5-0.1-2.1-0.3c-0.6-0.2-1.1-0.5-1.5-1
			c-0.4-0.4-0.7-1-0.9-1.6s-0.3-1.4-0.3-2.3v-7.6h-1.8c-0.2,0-0.4-0.1-0.5-0.4s-0.2-0.7-0.2-1.3c0-0.3,0-0.6,0-0.8
			c0-0.2,0.1-0.4,0.1-0.5c0.1-0.1,0.1-0.2,0.2-0.3c0.1-0.1,0.2-0.1,0.3-0.1h1.8V226c0-0.1,0-0.2,0.1-0.3c0.1-0.1,0.2-0.2,0.3-0.2
			s0.4-0.1,0.6-0.1c0.3,0,0.6,0,1,0c0.4,0,0.7,0,1,0c0.3,0,0.5,0.1,0.6,0.1c0.2,0.1,0.3,0.1,0.3,0.2c0.1,0.1,0.1,0.2,0.1,0.3v3.3
			h3.2c0.1,0,0.2,0,0.3,0.1c0.1,0.1,0.2,0.1,0.2,0.3c0.1,0.1,0.1,0.3,0.1,0.5c0,0.2,0,0.5,0,0.8c0,0.6-0.1,1-0.2,1.3
			c-0.1,0.3-0.3,0.4-0.5,0.4H354v6.9c0,0.8,0.1,1.4,0.4,1.8c0.3,0.4,0.7,0.6,1.4,0.6c0.2,0,0.4,0,0.6-0.1c0.2,0,0.3-0.1,0.5-0.1
			c0.1,0,0.3-0.1,0.3-0.1s0.2-0.1,0.3-0.1c0.1,0,0.1,0,0.2,0.1c0.1,0,0.1,0.1,0.1,0.2c0,0.1,0.1,0.3,0.1,0.5
			C357.8,242.6,357.9,242.8,357.9,243.1z"/>
		<path id="XMLID_8658_" class="st30" d="M373.1,244.6c0,0.2-0.1,0.3-0.2,0.4c-0.1,0.1-0.3,0.2-0.5,0.2c-0.2,0-0.6,0.1-1,0.1
			c-0.5,0-0.9,0-1.1-0.1c-0.2,0-0.4-0.1-0.5-0.2c-0.1-0.1-0.1-0.2-0.1-0.4v-1.2c-0.6,0.6-1.3,1.2-2.1,1.5c-0.8,0.4-1.6,0.5-2.6,0.5
			c-0.8,0-1.5-0.1-2.2-0.3c-0.7-0.2-1.2-0.5-1.7-0.9c-0.5-0.4-0.9-0.9-1.1-1.5c-0.3-0.6-0.4-1.3-0.4-2.1c0-0.9,0.2-1.6,0.5-2.2
			c0.3-0.6,0.8-1.2,1.5-1.6c0.7-0.4,1.5-0.7,2.5-0.9c1-0.2,2.1-0.3,3.5-0.3h1.4v-0.9c0-0.5,0-0.9-0.1-1.2s-0.2-0.6-0.5-0.9
			c-0.2-0.2-0.5-0.4-0.9-0.5c-0.4-0.1-0.8-0.2-1.3-0.2c-0.7,0-1.3,0.1-1.9,0.2c-0.5,0.2-1,0.3-1.4,0.5c-0.4,0.2-0.8,0.4-1,0.5
			c-0.3,0.2-0.5,0.2-0.7,0.2c-0.1,0-0.2,0-0.3-0.1c-0.1-0.1-0.2-0.2-0.2-0.3c-0.1-0.1-0.1-0.3-0.1-0.5c0-0.2,0-0.4,0-0.7
			c0-0.3,0-0.6,0.1-0.8c0.1-0.2,0.2-0.4,0.3-0.5c0.2-0.2,0.4-0.3,0.8-0.5s0.8-0.4,1.4-0.5c0.5-0.2,1.1-0.3,1.7-0.4
			c0.6-0.1,1.2-0.2,1.9-0.2c1.2,0,2.1,0.1,3,0.3c0.8,0.2,1.5,0.6,2,1c0.5,0.5,0.9,1.1,1.2,1.8c0.2,0.7,0.4,1.6,0.4,2.6V244.6z
			 M369,238.3h-1.6c-0.7,0-1.2,0-1.7,0.1c-0.5,0.1-0.9,0.2-1.2,0.4c-0.3,0.2-0.5,0.4-0.7,0.7c-0.1,0.3-0.2,0.6-0.2,1
			c0,0.6,0.2,1.1,0.6,1.5s0.9,0.5,1.6,0.5c0.6,0,1.1-0.1,1.6-0.4c0.5-0.3,1-0.7,1.5-1.3V238.3z"/>
		<path id="XMLID_8661_" class="st30" d="M384.2,239.2c0-0.6,0.1-1.2,0.3-1.7c0.2-0.5,0.5-1.1,0.8-1.5c0.4-0.5,0.8-0.9,1.3-1.4
			c0.5-0.4,1.2-0.9,1.9-1.3c-0.4-0.5-0.7-1-1-1.4c-0.3-0.4-0.5-0.9-0.7-1.3c-0.2-0.4-0.3-0.8-0.4-1.2c-0.1-0.4-0.1-0.7-0.1-1.1
			c0-0.8,0.1-1.5,0.4-2.2c0.3-0.7,0.7-1.3,1.3-1.8c0.6-0.5,1.3-0.9,2.2-1.2s2-0.4,3.3-0.4c1.2,0,2.2,0.1,3,0.3
			c0.8,0.2,1.5,0.5,2.1,0.9c0.5,0.4,0.9,0.9,1.2,1.5c0.3,0.6,0.4,1.3,0.4,2c0,0.7-0.1,1.3-0.3,1.8c-0.2,0.6-0.6,1.1-1,1.6
			s-1,1-1.7,1.5c-0.7,0.5-1.5,0.9-2.4,1.4c0.3,0.3,0.6,0.7,1,1.1c0.4,0.4,0.7,0.8,1.1,1.1c0.4,0.4,0.8,0.8,1.2,1.1
			c0.4,0.4,0.8,0.7,1.2,1c0.1-0.2,0.3-0.5,0.4-0.8c0.1-0.3,0.2-0.6,0.3-0.9c0.1-0.3,0.1-0.6,0.2-1c0-0.3,0.1-0.7,0.1-1V234
			c0-0.1,0-0.2,0.1-0.3c0-0.1,0.1-0.2,0.3-0.2c0.1-0.1,0.3-0.1,0.6-0.1c0.3,0,0.6,0,1,0c0.4,0,0.7,0,1,0c0.3,0,0.5,0.1,0.6,0.1
			c0.1,0.1,0.3,0.1,0.3,0.2c0.1,0.1,0.1,0.2,0.1,0.4v0.5c0,0.5,0,1.1-0.1,1.6c-0.1,0.5-0.2,1.1-0.3,1.6c-0.1,0.5-0.3,1-0.6,1.5
			c-0.2,0.5-0.5,0.9-0.7,1.3c0.4,0.3,0.7,0.5,1,0.7c0.3,0.2,0.5,0.4,0.7,0.5c0.2,0.1,0.4,0.2,0.5,0.2c0.1,0,0.2,0.1,0.3,0.1
			c0.1,0,0.2,0,0.3,0c0.1,0,0.2,0,0.3,0.1c0.1,0.1,0.1,0.2,0.1,0.4s0,0.5,0,0.9c0,0.4,0,0.7,0,1s0,0.4-0.1,0.5s-0.1,0.2-0.2,0.3
			s-0.3,0.1-0.5,0.2c-0.2,0.1-0.5,0.1-0.8,0.1c-0.2,0-0.5,0-0.8-0.1c-0.3-0.1-0.6-0.2-0.9-0.3c-0.3-0.2-0.7-0.4-1.2-0.7
			c-0.5-0.3-1-0.6-1.6-1.1c-0.5,0.4-1.1,0.7-1.6,1c-0.6,0.3-1.1,0.5-1.7,0.7s-1.2,0.3-1.9,0.4c-0.6,0.1-1.3,0.1-2,0.1
			c-0.7,0-1.4-0.1-2.1-0.2c-0.7-0.1-1.3-0.3-1.9-0.5s-1.1-0.5-1.6-0.9c-0.5-0.3-0.9-0.7-1.3-1.2c-0.4-0.5-0.6-1-0.8-1.6
			C384.3,240.6,384.2,239.9,384.2,239.2z M388.7,238.9c0,0.5,0.1,0.9,0.3,1.3c0.2,0.4,0.4,0.7,0.8,1s0.7,0.5,1.2,0.7
			s1.1,0.2,1.7,0.2c0.3,0,0.7,0,1-0.1c0.3-0.1,0.6-0.1,1-0.2c0.3-0.1,0.6-0.2,0.9-0.4s0.5-0.3,0.8-0.5c-0.5-0.4-1-0.8-1.5-1.3
			c-0.5-0.4-1-0.9-1.5-1.3c-0.5-0.5-0.9-0.9-1.4-1.3c-0.4-0.4-0.8-0.9-1.2-1.3c-0.4,0.2-0.7,0.5-1,0.8s-0.5,0.5-0.6,0.8
			c-0.2,0.3-0.3,0.5-0.4,0.8S388.7,238.6,388.7,238.9z M390.5,228c0,0.2,0,0.5,0.1,0.7c0.1,0.2,0.2,0.5,0.3,0.8s0.3,0.6,0.5,0.9
			c0.2,0.3,0.4,0.6,0.7,1c0.6-0.4,1.2-0.7,1.6-1c0.4-0.3,0.8-0.6,1-0.9c0.3-0.3,0.5-0.6,0.6-0.8s0.2-0.6,0.2-0.9
			c0-0.3,0-0.5-0.1-0.7s-0.3-0.4-0.5-0.6s-0.5-0.3-0.8-0.4c-0.3-0.1-0.7-0.1-1.1-0.1c-0.5,0-0.9,0.1-1.2,0.2
			c-0.3,0.1-0.6,0.3-0.8,0.4c-0.2,0.2-0.4,0.4-0.5,0.7S390.5,227.7,390.5,228z"/>
		<path id="XMLID_8665_" class="st30" d="M313.6,275.9c0,0.3,0,0.5,0,0.7c0,0.2,0,0.4-0.1,0.5c0,0.1-0.1,0.3-0.1,0.4
			s-0.1,0.2-0.3,0.3c-0.1,0.1-0.4,0.3-0.7,0.5c-0.3,0.2-0.8,0.4-1.3,0.6c-0.5,0.2-1.1,0.3-1.7,0.5c-0.6,0.1-1.3,0.2-2.1,0.2
			c-1.5,0-2.8-0.2-4-0.7c-1.2-0.5-2.2-1.1-3-2c-0.8-0.9-1.5-2-1.9-3.4c-0.4-1.3-0.7-2.9-0.7-4.7c0-1.8,0.2-3.4,0.7-4.8
			c0.5-1.4,1.2-2.6,2-3.6c0.9-1,1.9-1.7,3.1-2.2c1.2-0.5,2.6-0.7,4-0.7c0.6,0,1.2,0,1.7,0.1c0.6,0.1,1.1,0.2,1.5,0.4
			s0.9,0.3,1.3,0.6c0.4,0.2,0.6,0.4,0.8,0.5c0.1,0.1,0.3,0.3,0.3,0.4c0.1,0.1,0.1,0.2,0.1,0.4c0,0.2,0.1,0.3,0.1,0.5
			c0,0.2,0,0.5,0,0.8c0,0.3,0,0.6,0,0.8s-0.1,0.4-0.1,0.6c-0.1,0.1-0.1,0.2-0.2,0.3c-0.1,0.1-0.2,0.1-0.3,0.1
			c-0.2,0-0.4-0.1-0.6-0.3s-0.6-0.4-1-0.6c-0.4-0.2-0.9-0.5-1.4-0.6c-0.6-0.2-1.2-0.3-2-0.3c-0.8,0-1.6,0.2-2.3,0.5
			c-0.7,0.3-1.2,0.8-1.7,1.5c-0.5,0.6-0.8,1.4-1.1,2.3c-0.2,0.9-0.4,1.9-0.4,3.1c0,1.3,0.1,2.3,0.4,3.3c0.3,0.9,0.6,1.7,1.1,2.3
			c0.5,0.6,1.1,1,1.7,1.3s1.4,0.4,2.3,0.4c0.8,0,1.4-0.1,2-0.3c0.6-0.2,1-0.4,1.4-0.6c0.4-0.2,0.7-0.4,1-0.6
			c0.3-0.2,0.5-0.3,0.6-0.3c0.1,0,0.2,0,0.3,0.1c0.1,0,0.1,0.1,0.2,0.3c0,0.1,0.1,0.3,0.1,0.6C313.6,275.2,313.6,275.5,313.6,275.9z
			"/>
		<path id="XMLID_8667_" class="st30" d="M321,258.8c0,0.8-0.2,1.4-0.5,1.7s-1,0.5-1.9,0.5c-0.9,0-1.6-0.2-1.9-0.5
			c-0.3-0.3-0.5-0.9-0.5-1.7c0-0.8,0.2-1.4,0.5-1.7c0.3-0.3,1-0.5,1.9-0.5c0.9,0,1.6,0.2,1.9,0.5C320.8,257.5,321,258,321,258.8z
			 M320.6,278.6c0,0.1,0,0.2-0.1,0.3c-0.1,0.1-0.2,0.2-0.3,0.2c-0.2,0.1-0.4,0.1-0.6,0.1s-0.6,0-1,0c-0.4,0-0.7,0-1,0
			c-0.3,0-0.5-0.1-0.6-0.1c-0.2-0.1-0.3-0.1-0.3-0.2s-0.1-0.2-0.1-0.3v-14.7c0-0.1,0-0.2,0.1-0.3c0.1-0.1,0.2-0.2,0.3-0.2
			c0.2-0.1,0.4-0.1,0.6-0.1c0.3,0,0.6,0,1,0c0.4,0,0.7,0,1,0c0.3,0,0.5,0.1,0.6,0.1c0.2,0.1,0.3,0.1,0.3,0.2
			c0.1,0.1,0.1,0.2,0.1,0.3V278.6z"/>
		<path id="XMLID_8670_" class="st30" d="M338.1,264.8c0,0.5-0.1,0.9-0.2,1.2c-0.1,0.3-0.3,0.4-0.4,0.4h-1.7
			c0.2,0.3,0.4,0.6,0.5,0.9c0.1,0.3,0.2,0.7,0.2,1c0,0.9-0.1,1.6-0.4,2.3c-0.3,0.7-0.7,1.2-1.2,1.7c-0.5,0.5-1.2,0.8-1.9,1
			c-0.8,0.2-1.6,0.4-2.5,0.4c-0.5,0-0.9-0.1-1.4-0.2s-0.8-0.3-1-0.4c-0.1,0.1-0.3,0.3-0.4,0.5c-0.1,0.2-0.2,0.4-0.2,0.7
			c0,0.3,0.1,0.6,0.4,0.8c0.3,0.2,0.7,0.3,1.2,0.3l3.6,0.1c0.8,0,1.6,0.2,2.2,0.4c0.7,0.2,1.2,0.5,1.7,0.9c0.4,0.4,0.8,0.8,1,1.3
			c0.2,0.5,0.4,1.1,0.4,1.8c0,0.7-0.2,1.4-0.5,2.1c-0.3,0.6-0.8,1.2-1.4,1.7c-0.6,0.5-1.4,0.8-2.4,1.1c-1,0.3-2.1,0.4-3.4,0.4
			c-1.3,0-2.3-0.1-3.2-0.3c-0.9-0.2-1.6-0.5-2.2-0.8s-1-0.8-1.2-1.3c-0.3-0.5-0.4-1-0.4-1.6c0-0.4,0-0.7,0.1-1
			c0.1-0.3,0.2-0.6,0.4-1c0.2-0.3,0.4-0.6,0.7-0.9c0.3-0.3,0.6-0.5,0.9-0.8c-0.5-0.3-0.8-0.6-1.1-1c-0.3-0.4-0.4-0.9-0.4-1.4
			c0-0.7,0.1-1.2,0.4-1.8c0.3-0.5,0.7-1,1.2-1.4c-0.4-0.4-0.7-0.8-0.9-1.4c-0.2-0.5-0.3-1.2-0.3-2c0-0.9,0.2-1.6,0.5-2.3
			c0.3-0.7,0.7-1.3,1.3-1.7c0.5-0.5,1.2-0.8,1.9-1.1c0.7-0.2,1.6-0.4,2.5-0.4c0.5,0,0.9,0,1.3,0.1s0.8,0.1,1.2,0.2h4.7
			c0.2,0,0.3,0.1,0.5,0.4S338.1,264.3,338.1,264.8z M333.7,280.1c0-0.5-0.2-0.9-0.6-1.1c-0.4-0.3-0.9-0.4-1.6-0.4l-3-0.1
			c-0.3,0.2-0.5,0.4-0.7,0.6s-0.3,0.4-0.4,0.6c-0.1,0.2-0.2,0.3-0.2,0.5s0,0.3,0,0.5c0,0.6,0.3,1,0.8,1.3c0.6,0.3,1.3,0.4,2.4,0.4
			c0.6,0,1.2-0.1,1.6-0.2c0.4-0.1,0.8-0.3,1-0.5c0.3-0.2,0.5-0.4,0.6-0.7C333.7,280.7,333.7,280.4,333.7,280.1z M332.7,268.3
			c0-0.8-0.2-1.4-0.7-1.9c-0.4-0.4-1.1-0.7-1.9-0.7c-0.4,0-0.8,0.1-1.1,0.2c-0.3,0.1-0.6,0.3-0.8,0.6c-0.2,0.2-0.4,0.5-0.5,0.8
			c-0.1,0.3-0.1,0.6-0.1,1c0,0.7,0.2,1.3,0.7,1.8c0.4,0.4,1.1,0.7,1.8,0.7c0.4,0,0.8-0.1,1.1-0.2s0.6-0.3,0.8-0.5
			c0.2-0.2,0.4-0.5,0.5-0.8S332.7,268.7,332.7,268.3z"/>
		<path id="XMLID_8674_" class="st30" d="M352.8,278.6c0,0.2-0.1,0.3-0.2,0.4c-0.1,0.1-0.3,0.2-0.5,0.2c-0.2,0-0.6,0.1-1,0.1
			c-0.5,0-0.9,0-1.1-0.1c-0.2,0-0.4-0.1-0.5-0.2c-0.1-0.1-0.1-0.2-0.1-0.4v-1.2c-0.6,0.6-1.3,1.2-2.1,1.5c-0.8,0.4-1.6,0.5-2.6,0.5
			c-0.8,0-1.5-0.1-2.2-0.3c-0.7-0.2-1.2-0.5-1.7-0.9c-0.5-0.4-0.9-0.9-1.1-1.5c-0.3-0.6-0.4-1.3-0.4-2.1c0-0.9,0.2-1.6,0.5-2.2
			c0.3-0.6,0.8-1.2,1.5-1.6c0.7-0.4,1.5-0.7,2.5-0.9c1-0.2,2.1-0.3,3.5-0.3h1.4v-0.9c0-0.5,0-0.9-0.1-1.2s-0.2-0.6-0.5-0.9
			c-0.2-0.2-0.5-0.4-0.9-0.5s-0.8-0.2-1.3-0.2c-0.7,0-1.3,0.1-1.9,0.2c-0.5,0.2-1,0.3-1.4,0.5s-0.8,0.4-1,0.5
			c-0.3,0.2-0.5,0.2-0.7,0.2c-0.1,0-0.2,0-0.3-0.1c-0.1-0.1-0.2-0.2-0.2-0.3c-0.1-0.1-0.1-0.3-0.1-0.5c0-0.2-0.1-0.4-0.1-0.7
			c0-0.3,0-0.6,0.1-0.8c0.1-0.2,0.2-0.4,0.3-0.5s0.4-0.3,0.8-0.5c0.4-0.2,0.8-0.4,1.4-0.5c0.5-0.2,1.1-0.3,1.7-0.4
			c0.6-0.1,1.2-0.2,1.9-0.2c1.2,0,2.1,0.1,3,0.3c0.8,0.2,1.5,0.6,2,1c0.5,0.5,0.9,1.1,1.2,1.8c0.2,0.7,0.4,1.6,0.4,2.6V278.6z
			 M348.7,272.3h-1.6c-0.7,0-1.2,0-1.7,0.1c-0.5,0.1-0.9,0.2-1.2,0.4c-0.3,0.2-0.5,0.4-0.7,0.7s-0.2,0.6-0.2,1
			c0,0.6,0.2,1.1,0.6,1.5c0.4,0.4,0.9,0.5,1.6,0.5c0.6,0,1.1-0.1,1.6-0.4c0.5-0.3,1-0.7,1.5-1.3V272.3z"/>
		<path id="XMLID_8677_" class="st30" d="M366.4,265.2c0,0.4,0,0.7,0,1c0,0.3-0.1,0.5-0.1,0.6c0,0.1-0.1,0.2-0.2,0.3
			c-0.1,0.1-0.2,0.1-0.3,0.1c-0.1,0-0.2,0-0.3-0.1c-0.1,0-0.2-0.1-0.4-0.1c-0.1,0-0.3-0.1-0.5-0.1c-0.2,0-0.3-0.1-0.5-0.1
			c-0.2,0-0.5,0-0.7,0.1c-0.2,0.1-0.5,0.2-0.7,0.4c-0.2,0.2-0.5,0.5-0.8,0.8c-0.3,0.3-0.6,0.7-0.9,1.2v9.2c0,0.1,0,0.2-0.1,0.3
			c-0.1,0.1-0.2,0.2-0.3,0.2c-0.2,0.1-0.4,0.1-0.6,0.1c-0.3,0-0.6,0-1,0c-0.4,0-0.7,0-1,0c-0.3,0-0.5-0.1-0.6-0.1
			c-0.2-0.1-0.3-0.1-0.3-0.2s-0.1-0.2-0.1-0.3v-14.7c0-0.1,0-0.2,0.1-0.3c0.1-0.1,0.2-0.2,0.3-0.2c0.1-0.1,0.3-0.1,0.6-0.1
			c0.2,0,0.5,0,0.9,0c0.4,0,0.6,0,0.9,0c0.2,0,0.4,0.1,0.5,0.1c0.1,0.1,0.2,0.1,0.3,0.2c0.1,0.1,0.1,0.2,0.1,0.3v1.8
			c0.4-0.6,0.7-1,1.1-1.4c0.3-0.4,0.7-0.6,1-0.9c0.3-0.2,0.6-0.4,0.9-0.4c0.3-0.1,0.6-0.1,0.9-0.1c0.1,0,0.3,0,0.5,0s0.3,0,0.5,0.1
			c0.2,0,0.3,0.1,0.5,0.1c0.1,0,0.2,0.1,0.3,0.2c0.1,0.1,0.1,0.1,0.1,0.2c0,0.1,0.1,0.2,0.1,0.3c0,0.1,0,0.3,0,0.5
			C366.4,264.5,366.4,264.8,366.4,265.2z"/>
		<path id="XMLID_8679_" class="st30" d="M379,274.4c0,0.8-0.2,1.6-0.5,2.2c-0.3,0.6-0.8,1.2-1.3,1.6c-0.6,0.4-1.3,0.8-2,1
			c-0.8,0.2-1.6,0.3-2.5,0.3c-0.6,0-1.1,0-1.6-0.1c-0.5-0.1-1-0.2-1.3-0.3c-0.4-0.1-0.7-0.3-1-0.4c-0.3-0.1-0.5-0.3-0.6-0.4
			c-0.1-0.1-0.2-0.3-0.3-0.5c-0.1-0.2-0.1-0.6-0.1-1.1c0-0.3,0-0.6,0-0.8c0-0.2,0.1-0.3,0.1-0.5s0.1-0.2,0.2-0.2
			c0.1,0,0.1-0.1,0.2-0.1c0.1,0,0.3,0.1,0.5,0.2c0.2,0.1,0.5,0.3,0.9,0.5c0.4,0.2,0.8,0.3,1.2,0.5c0.5,0.1,1,0.2,1.6,0.2
			c0.4,0,0.7,0,1-0.1c0.3-0.1,0.5-0.2,0.8-0.3c0.2-0.1,0.4-0.3,0.5-0.5c0.1-0.2,0.2-0.5,0.2-0.8c0-0.3-0.1-0.6-0.3-0.9
			c-0.2-0.2-0.5-0.4-0.8-0.6c-0.3-0.2-0.7-0.3-1.1-0.5c-0.4-0.2-0.9-0.3-1.3-0.5s-0.9-0.4-1.3-0.6c-0.4-0.2-0.8-0.5-1.1-0.9
			c-0.3-0.4-0.6-0.8-0.8-1.3c-0.2-0.5-0.3-1.1-0.3-1.8c0-0.7,0.1-1.4,0.4-1.9c0.3-0.6,0.7-1.1,1.2-1.5c0.5-0.4,1.1-0.7,1.9-1
			c0.7-0.2,1.6-0.3,2.5-0.3c0.5,0,0.9,0,1.3,0.1c0.4,0.1,0.8,0.1,1.2,0.2s0.6,0.2,0.9,0.3c0.2,0.1,0.4,0.2,0.5,0.3
			c0.1,0.1,0.2,0.2,0.2,0.2c0,0.1,0.1,0.2,0.1,0.3c0,0.1,0,0.3,0.1,0.4c0,0.2,0,0.4,0,0.6c0,0.3,0,0.5,0,0.7c0,0.2,0,0.3-0.1,0.4
			c0,0.1-0.1,0.2-0.2,0.2c-0.1,0-0.1,0.1-0.2,0.1c-0.1,0-0.3-0.1-0.5-0.2c-0.2-0.1-0.5-0.2-0.8-0.4c-0.3-0.1-0.7-0.3-1.1-0.4
			c-0.4-0.1-0.9-0.2-1.4-0.2c-0.4,0-0.7,0-1,0.1c-0.3,0.1-0.5,0.2-0.7,0.3s-0.3,0.3-0.4,0.5c-0.1,0.2-0.1,0.4-0.1,0.6
			c0,0.3,0.1,0.6,0.3,0.9c0.2,0.2,0.5,0.4,0.8,0.6c0.3,0.2,0.7,0.3,1.2,0.5c0.4,0.2,0.9,0.3,1.3,0.5c0.4,0.2,0.9,0.4,1.3,0.6
			c0.4,0.2,0.8,0.5,1.2,0.9c0.3,0.4,0.6,0.8,0.8,1.3C378.9,273.1,379,273.7,379,274.4z"/>
		<path id="XMLID_8681_" class="st30" d="M387,276.7c0,1-0.2,1.7-0.5,2.1c-0.4,0.4-1,0.5-1.9,0.5c-0.9,0-1.6-0.2-1.9-0.5
			c-0.4-0.3-0.5-1-0.5-2c0-1,0.2-1.7,0.5-2.1c0.4-0.4,1-0.5,1.9-0.5c0.9,0,1.5,0.2,1.9,0.5C386.8,275.1,387,275.8,387,276.7z"/>
	</g>
</g>
</svg>
