<?xml version="1.0" encoding="utf-8"?>
<!-- Generator: Adobe Illustrator 16.0.0, SVG Export Plug-In . SVG Version: 6.00 Build 0)  -->
<!DOCTYPE svg PUBLIC "-//W3C//DTD SVG 1.1//EN" "http://www.w3.org/Graphics/SVG/1.1/DTD/svg11.dtd">
<svg version="1.1" id="Layer_2" xmlns="http://www.w3.org/2000/svg" xmlns:xlink="http://www.w3.org/1999/xlink" x="0px" y="0px"
	 width="759px" height="439px" viewBox="0 0 759 439" style="enable-background:new 0 0 759 439;" xml:space="preserve">
<style type="text/css">
<![CDATA[
	.st0{fill:#4659A7;}
	.st1{fill:#7DA0D4;}
	.st2{fill:#7F5E26;}
	.st3{fill:#151943;}
	.st4{fill:#171719;}
	.st5{fill:#172919;}
	.st6{fill:#18331B;}
	.st7{fill:#E72834;}
	.st8{fill:#E7E9E9;}
	.st9{fill:#E8EAEA;}
	.st10{fill-rule:evenodd;clip-rule:evenodd;fill:none;stroke:#E4C54B;stroke-width:1.7463;stroke-miterlimit:10;}
	.st11{fill:#EAE71E;}
	.st12{fill:#EB185B;}
	.st13{fill:#EC2127;}
	.st14{fill:#503C2C;}
	.st15{fill:#507FC1;}
	.st16{fill:#542D8B;}
	.st17{fill:#8C6828;}
	.st18{fill:#BF2327;}
	.st19{fill:#231F20;}
	.st20{fill:#F7F3A3;}
	.st21{fill-rule:evenodd;clip-rule:evenodd;fill:none;stroke:#E4C54B;stroke-width:2.6195;stroke-miterlimit:10;}
	.st22{fill:#C2922E;}
	.st23{fill:#C597C5;}
	.st24{fill:#966828;}
	.st25{fill:#2B378B;}
	.st26{fill:#FAA532;}
	.st27{fill:#FBCA28;}
	.st28{fill:#FBCD36;}
	.st29{fill-rule:evenodd;clip-rule:evenodd;}
	.st30{fill:#FFFFFF;}
	.st31{fill-rule:evenodd;clip-rule:evenodd;fill:#F0CEE3;}
	.st32{fill:#FFFFFF;stroke:#7DA0D4;stroke-miterlimit:10;}
	.st33{fill:none;}
	.st34{fill:#231F20;stroke:#231F20;stroke-width:0.5;stroke-miterlimit:10;}
	.st35{fill:#679B9B;}
	.st36{fill:#9B732B;}
	.st37{fill:#CB7361;}
	.st38{fill:#CC2228;}
	.st39{fill:#311C10;}
	.st40{fill:#EC2127;stroke:#EC2127;stroke-width:0.5;stroke-miterlimit:10;}
	.st41{fill:#381414;}
	.st42{fill-rule:evenodd;clip-rule:evenodd;fill:#FBCDCD;}
	.st43{fill:#010101;}
	.st44{fill-rule:evenodd;clip-rule:evenodd;fill:#FFFFFF;}
	.st45{fill:#FFFFFF;stroke:#FFFFFF;stroke-miterlimit:10;}
	.st46{fill-rule:evenodd;clip-rule:evenodd;fill:#641E0F;}
	.st47{fill:#D3D3D3;}
	.st48{fill:#060707;}
	.st49{fill:#080908;}
	.st50{fill:#721212;}
	.st51{fill:#0E8141;}
	.st52{fill:#424143;}
	.st53{fill:#4259A8;}
]]>
</style>
<rect id="Outline" y="136.6" class="st27" width="759" height="145.8"/>
<rect id="Background_3_" x="9" y="145.4" class="st52" width="740.9" height="128.4"/>
<g id="Tails">
	<polygon id="XMLID_5950_" class="st43" points="338.8,242.4 277.1,304.1 315.6,310.9 321.7,348.8 383.4,287 	"/>
	<polygon id="XMLID_5949_" class="st43" points="420.2,242.4 481.9,304.1 443.4,310.9 437.3,348.8 375.6,287 	"/>
</g>
<g id="FaceDesignOutline">
	<polygon id="XMLID_5948_" class="st28" points="277.1,304.1 283.9,305.3 342.8,246.4 338.9,242.4 	"/>
	<polygon id="XMLID_5947_" class="st28" points="379.5,283.1 320.6,341.9 321.7,348.8 383.5,287 	"/>
	<polygon id="XMLID_5946_" class="st28" points="481.9,304.1 475.1,305.3 416.2,246.4 420.2,242.4 	"/>
	<polygon id="XMLID_5945_" class="st28" points="379.6,283.1 438.4,341.9 437.3,348.8 375.6,287 	"/>
	<path id="XMLID_5944_" class="st27" d="M488,200c0,3.9-8.5,7.4-9,11.2c-0.4,3.9,7.1,9.2,6.3,12.9c-0.9,3.8-10,5.3-11.2,8.9
		c-1.3,3.7,4.9,10.5,3.2,14c-1.7,3.5-10.9,2.9-13,6.2c-2.1,3.3,2.4,11.3,0,14.4c-2.4,3.1-11.3,0.4-14,3.2c-2.8,2.8-0.1,11.6-3.2,14
		c-3,2.4-11.1-2.1-14.4,0c-3.3,2.1-2.7,11.3-6.2,13c-3.5,1.7-10.3-4.5-14-3.2c-3.7,1.3-5.1,10.4-8.9,11.2c-3.8,0.9-9-6.7-12.9-6.3
		c-3.8,0.4-7.3,9-11.2,9c-4,0-7.4-8.5-11.2-9c-3.9-0.4-9.2,7.1-12.9,6.3c-3.8-0.9-5.3-10-8.9-11.2c-3.7-1.3-10.5,4.9-14,3.2
		c-3.5-1.7-2.9-10.9-6.2-13c-3.3-2.1-11.3,2.5-14.4,0c-3.1-2.4-0.4-11.3-3.2-14c-2.8-2.8-11.6-0.1-14-3.2c-2.4-3.1,2.1-11.1,0-14.4
		c-2.1-3.3-11.3-2.7-13-6.2c-1.7-3.5,4.5-10.3,3.2-14c-1.3-3.7-10.4-5.1-11.2-8.9c-0.9-3.8,6.7-9,6.3-12.9c-0.4-3.8-9-7.3-9-11.2
		c0-4,8.5-7.4,9-11.2c0.4-3.9-7.1-9.2-6.3-12.9c0.9-3.8,10-5.3,11.2-8.9c1.3-3.7-4.9-10.5-3.2-14c1.7-3.5,10.9-2.9,13-6.2
		c2.1-3.3-2.4-11.3,0-14.4c2.4-3,11.3-0.4,14-3.2c2.8-2.8,0.1-11.6,3.2-14c3-2.4,11.1,2.1,14.4,0c3.3-2.1,2.7-11.3,6.2-13
		c3.5-1.7,10.3,4.5,14,3.2c3.7-1.3,5.1-10.4,8.9-11.2c3.8-0.9,9,6.7,12.9,6.3c3.8-0.4,7.3-9,11.2-9c4,0,7.4,8.5,11.2,9
		c3.9,0.4,9.2-7.1,12.9-6.3c3.8,0.9,5.3,10,8.9,11.2c3.7,1.3,10.5-4.9,14-3.2c3.5,1.7,2.9,10.9,6.2,13c3.3,2.1,11.3-2.4,14.4,0
		c3.1,2.4,0.4,11.3,3.2,14c2.8,2.8,11.6,0.1,14,3.2c2.4,3-2.1,11.1,0,14.4c2.1,3.3,11.3,2.7,13,6.2c1.7,3.5-4.5,10.3-3.2,14
		c1.3,3.7,10.4,5.1,11.2,8.9c0.9,3.8-6.7,9-6.3,12.9C479.5,192.7,488,196.1,488,200z"/>
	<path id="XMLID_5941_" class="st28" d="M379.5,104.3c-52.9,0-95.8,42.9-95.8,95.8c0,52.9,42.9,95.7,95.8,95.7
		c52.9,0,95.8-42.9,95.8-95.7C475.3,147.2,432.4,104.3,379.5,104.3z M379.5,280.7c-44.5,0-80.7-36.1-80.7-80.7
		c0-44.6,36.1-80.7,80.7-80.7c44.6,0,80.7,36.1,80.7,80.7C460.2,244.6,424,280.7,379.5,280.7z"/>
</g>
<path id="FaceOutline" class="st22" d="M372.9,305.1c-1.8-2.2-3.7-4.2-4.8-4.2l0,0c-0.1,0-0.1,0-0.2,0l0,0c-1.1-0.1-3.2,1.3-5.2,2.9
	l0,0c-2.1,1.6-4.2,3.4-6.7,3.4l0,0c-0.3,0-0.6,0-0.9-0.1l0,0c-2.8-0.8-4-3.6-5.4-6.1l0,0c-1.3-2.6-2.7-4.9-3.7-5.2l0,0
	c-0.2-0.1-0.4-0.1-0.7-0.1l0,0c-2.6-0.1-7.4,3.6-11.5,3.7l0,0c-0.7,0-1.3-0.1-1.9-0.4l0,0c-2.6-1.4-3.1-4.4-3.9-7.2l0,0
	c-0.6-2.8-1.5-5.4-2.5-5.9l0,0c-0.4-0.2-1-0.4-1.8-0.4l0,0c-2.4,0-6.1,1.3-9.3,1.3l0,0c-1.2,0-2.4-0.2-3.5-1l0,0
	c-2.2-1.9-2-5-2.2-7.8l0,0c0-2.9-0.3-5.6-1.1-6.3l0,0c-0.7-0.8-3.4-1.1-6.3-1.1l0,0c-2.8-0.1-5.9,0-7.8-2.2l0,0c-0.8-1-1-2.2-1-3.5
	l0,0c0-3.1,1.4-6.8,1.3-9.3l0,0c0-0.8-0.1-1.4-0.4-1.8l0,0c-0.5-1-3.1-1.8-5.9-2.5l0,0c-2.7-0.8-5.8-1.3-7.2-3.9l0,0
	c-0.3-0.6-0.4-1.3-0.4-2l0,0c0.1-4,3.8-8.8,3.7-11.4l0,0c0-0.3,0-0.5-0.1-0.7l0,0c-0.2-1-2.6-2.5-5.2-3.7l0,0
	c-2.5-1.4-5.3-2.6-6.1-5.4l0,0c-0.1-0.3-0.1-0.6-0.1-0.9l0,0c0.1-2.5,1.9-4.6,3.4-6.7l0,0c1.6-2.1,3-4.2,2.9-5.3l0,0
	c0-0.1,0-0.1,0-0.2l0,0c0-1-2-3-4.2-4.7l0,0c-2.1-1.9-4.7-3.7-4.8-6.6l0,0c0.1-2.9,2.6-4.7,4.8-6.6l0,0c2.2-1.8,4.2-3.7,4.2-4.7l0,0
	c0-0.1,0-0.1,0-0.2l0,0c0.1-1.1-1.3-3.2-2.9-5.3l0,0c-1.6-2.1-3.4-4.2-3.4-6.7l0,0c0-0.3,0-0.6,0.1-0.9l0,0c0.8-2.8,3.6-4,6.1-5.4
	l0,0c2.6-1.3,4.9-2.7,5.2-3.7l0,0c0.1-0.2,0.1-0.4,0.1-0.7l0,0c0.1-2.6-3.6-7.4-3.7-11.4l0,0c0-0.7,0.1-1.3,0.4-2l0,0
	c1.4-2.6,4.4-3.1,7.2-3.9l0,0c2.8-0.6,5.4-1.5,5.9-2.5l0,0c0.2-0.4,0.4-1,0.4-1.8l0,0c0-2.4-1.3-6.1-1.3-9.3l0,0
	c0-1.2,0.2-2.4,1-3.5l0,0c1.9-2.2,5-2,7.8-2.2l0,0c2.9,0,5.6-0.3,6.3-1.1l0,0c0.8-0.7,1.1-3.4,1.1-6.3l0,0c0.1-2.8,0-5.9,2.2-7.8
	l0,0c1-0.8,2.2-1,3.5-1l0,0c3.1,0,6.8,1.3,9.3,1.3l0,0c0.8,0,1.4-0.1,1.8-0.4l0,0c1-0.5,1.8-3.1,2.5-5.9l0,0
	c0.8-2.7,1.3-5.8,3.9-7.2l0,0c0.6-0.3,1.3-0.4,2-0.4l0,0c4,0.1,8.9,3.8,11.5,3.7l0,0c0.3,0,0.5,0,0.7-0.1l0,0c1-0.2,2.4-2.6,3.7-5.2
	l0,0c1.4-2.5,2.5-5.3,5.4-6.1l0,0c0.3-0.1,0.6-0.1,0.9-0.1l0,0c2.5,0.1,4.6,1.9,6.7,3.4l0,0c2.1,1.6,4.1,3,5.2,2.9l0,0
	c0.1,0,0.2,0,0.2,0l0,0c1,0,2.9-2,4.7-4.2l0,0c1.9-2.1,3.7-4.6,6.6-4.8l0,0c2.9,0.1,4.7,2.6,6.6,4.8l0,0c1.8,2.2,3.7,4.2,4.7,4.2
	l0,0c0.1,0,0.1,0,0.2,0l0,0c1.1,0.1,3.2-1.3,5.2-2.9l0,0c2.1-1.6,4.2-3.4,6.7-3.4l0,0c0.3,0,0.6,0,0.9,0.1l0,0
	c2.8,0.8,4,3.6,5.4,6.1l0,0c1.2,2.6,2.7,4.9,3.7,5.2l0,0c0.2,0.1,0.4,0.1,0.7,0.1l0,0c2.6,0.1,7.4-3.6,11.5-3.7l0,0
	c0.7,0,1.3,0.1,2,0.4l0,0c2.6,1.4,3.1,4.4,3.9,7.2l0,0c0.6,2.8,1.5,5.4,2.5,5.9l0,0c0.4,0.2,1,0.4,1.8,0.4l0,0
	c2.4,0,6.1-1.3,9.3-1.3l0,0c1.2,0,2.5,0.2,3.5,1l0,0c2.2,1.9,2,5,2.2,7.8l0,0c0,2.9,0.3,5.6,1.1,6.3l0,0c0.7,0.8,3.4,1.1,6.3,1.1
	l0,0c2.8,0.1,5.9,0,7.8,2.2l0,0c0.8,1,1,2.3,1,3.5l0,0c0,3.1-1.4,6.8-1.3,9.3l0,0c0,0.8,0.1,1.4,0.4,1.8l0,0c0.5,1,3.1,1.8,5.9,2.5
	l0,0c2.7,0.8,5.8,1.3,7.2,3.9l0,0c0.3,0.6,0.4,1.3,0.4,2l0,0c-0.1,4-3.8,8.9-3.7,11.4l0,0c0,0.3,0,0.5,0.1,0.7l0,0
	c0.2,1,2.6,2.5,5.2,3.7l0,0c2.5,1.4,5.3,2.6,6.1,5.4l0,0c0.1,0.3,0.1,0.6,0.1,0.9l0,0c-0.1,2.5-1.9,4.6-3.4,6.7l0,0
	c-1.6,2.1-3,4.1-2.9,5.2l0,0c0,0.1,0,0.1,0,0.2l0,0c0,1,2,3,4.2,4.7l0,0c2.1,1.9,4.6,3.7,4.8,6.6l0,0c-0.1,2.9-2.6,4.7-4.8,6.6l0,0
	c-2.2,1.8-4.2,3.7-4.2,4.8l0,0c0,0.1,0,0.1,0,0.2l0,0c-0.1,1.1,1.3,3.2,2.9,5.2l0,0c1.6,2.1,3.4,4.2,3.4,6.7l0,0
	c0,0.3,0,0.6-0.1,0.9l0,0c-0.8,2.8-3.6,4-6.1,5.4l0,0c-2.6,1.3-4.9,2.7-5.2,3.7l0,0c-0.1,0.2-0.1,0.4-0.1,0.7l0,0
	c-0.1,2.6,3.6,7.4,3.7,11.4l0,0c0,0.7-0.1,1.3-0.4,2l0,0c-1.4,2.6-4.4,3.1-7.2,3.9l0,0c-2.8,0.6-5.4,1.5-5.9,2.5l0,0
	c-0.2,0.4-0.4,1-0.4,1.8l0,0c0,2.4,1.3,6.1,1.3,9.2l0,0c0,1.2-0.2,2.4-1,3.5l0,0c-1.9,2.2-5,2-7.8,2.2l0,0c-2.9,0-5.6,0.3-6.3,1.1
	l0,0c-0.8,0.7-1.1,3.4-1.1,6.3l0,0c-0.1,2.9,0,5.9-2.2,7.8l0,0c-1,0.8-2.3,1-3.5,1l0,0c-3.1,0-6.8-1.3-9.3-1.3l0,0
	c-0.8,0-1.4,0.1-1.8,0.4l0,0c-1,0.5-1.8,3.1-2.5,5.9l0,0c-0.8,2.7-1.3,5.8-3.9,7.2l0,0c-0.6,0.3-1.3,0.4-2,0.4l0,0
	c-4-0.1-8.9-3.8-11.5-3.7l0,0c-0.3,0-0.5,0-0.7,0.1l0,0c-1,0.2-2.5,2.6-3.7,5.2l0,0c-1.4,2.5-2.5,5.3-5.4,6.1l0,0
	c-0.3,0.1-0.6,0.1-0.9,0.1l0,0c-2.5-0.1-4.6-1.9-6.7-3.4l0,0c-2.1-1.6-4.1-3-5.2-2.9l0,0c-0.1,0-0.1,0-0.2,0l0,0c-1,0-2.9,2-4.7,4.2
	l0,0c-1.9,2.1-3.7,4.6-6.6,4.8l0,0C376.6,309.7,374.8,307.2,372.9,305.1L372.9,305.1z M384.2,303.4c1.9-2.1,3.6-4.7,6.3-5.1l0,0
	c0.2,0,0.4,0,0.6,0l0,0c2.6,0.1,4.7,1.9,6.8,3.4l0,0c2.1,1.6,4.1,3,5.2,2.9l0,0c0.1,0,0.2,0,0.4,0l0,0c1-0.1,2.4-2.2,3.7-4.8l0,0
	c1.4-2.5,2.5-5.4,5.1-6.4l0,0c0.5-0.2,1.1-0.3,1.6-0.3l0,0c4,0.1,8.9,3.8,11.5,3.7l0,0c0.4,0,0.6-0.1,0.9-0.2l0,0
	c1-0.3,1.9-2.7,2.5-5.5l0,0c0.8-2.7,1.2-5.8,3.6-7.4l0,0c1-0.6,2-0.8,3.1-0.8l0,0c3.1,0,6.8,1.3,9.3,1.3l0,0c0.9,0,1.6-0.2,1.9-0.5
	l0,0c0.9-0.5,1.2-3.1,1.2-5.9l0,0c0.1-2.8-0.1-5.9,1.8-8l0,0c2.1-1.9,5.1-1.7,8-1.8l0,0c2.9,0,5.4-0.4,5.9-1.2l0,0
	c0.3-0.4,0.5-1,0.5-1.9l0,0c0-2.4-1.3-6.1-1.3-9.2l0,0c0-1.1,0.2-2.2,0.8-3.1l0,0c1.6-2.3,4.6-2.8,7.4-3.6l0,0
	c2.8-0.6,5.2-1.6,5.5-2.5l0,0c0.1-0.2,0.2-0.5,0.2-0.9l0,0c0.1-2.6-3.6-7.4-3.7-11.4l0,0c0-0.5,0.1-1,0.3-1.6l0,0
	c1-2.6,3.9-3.8,6.4-5.1l0,0c2.6-1.2,4.7-2.7,4.8-3.7l0,0c0-0.1,0-0.2,0-0.4l0,0c0.1-1.1-1.3-3.1-2.9-5.2l0,0
	c-1.6-2.1-3.4-4.2-3.4-6.8l0,0c0-0.2,0-0.4,0-0.5l0,0c0.4-2.8,2.9-4.5,5.1-6.4l0,0c2.2-1.8,4-3.7,3.9-4.7l0,0c0.1-1-1.6-2.9-3.9-4.7
	l0,0c-2.1-1.9-4.7-3.6-5.1-6.3l0,0c0-0.2,0-0.4,0-0.6l0,0c0.1-2.6,1.9-4.7,3.4-6.8l0,0c1.6-2.1,3-4.1,2.9-5.2l0,0c0-0.1,0-0.2,0-0.3
	l0,0c-0.1-1-2.2-2.5-4.8-3.7l0,0c-2.5-1.3-5.3-2.5-6.4-5.1l0,0c-0.2-0.5-0.3-1.1-0.3-1.6l0,0c0.1-4,3.8-8.9,3.7-11.4l0,0
	c0-0.4-0.1-0.6-0.2-0.9l0,0c-0.3-1-2.7-1.9-5.5-2.5l0,0c-2.7-0.8-5.8-1.2-7.4-3.6l0,0c-0.6-1-0.8-2.1-0.8-3.1l0,0
	c0-3.1,1.3-6.8,1.3-9.3l0,0c0-0.9-0.2-1.5-0.5-1.9l0,0c-0.5-0.9-3.1-1.2-5.9-1.2l0,0c-2.8-0.1-5.9,0.1-8-1.8l0,0
	c-1.9-2.1-1.7-5.2-1.8-8l0,0c0-2.9-0.4-5.4-1.2-5.9l0,0c-0.3-0.3-1-0.5-1.9-0.5l0,0c-2.4,0-6.1,1.3-9.3,1.3l0,0
	c-1.1,0-2.1-0.2-3.1-0.7l0,0c-2.3-1.6-2.8-4.6-3.6-7.4l0,0c-0.6-2.8-1.6-5.2-2.5-5.5l0,0c-0.2-0.1-0.5-0.2-0.9-0.2l0,0
	c-2.6-0.1-7.4,3.6-11.5,3.7l0,0c-0.5,0-1-0.1-1.6-0.2l0,0c-2.6-1-3.8-3.9-5.1-6.4l0,0c-1.2-2.6-2.7-4.7-3.7-4.8l0,0
	c-0.1,0-0.2,0-0.3,0l0,0c-1.1-0.1-3.1,1.3-5.2,2.9l0,0c-2.1,1.6-4.2,3.4-6.8,3.4l0,0c-0.1,0-0.3,0-0.5,0l0,0c-2.8-0.4-4.5-3-6.4-5.1
	l0,0c-1.8-2.2-3.7-4-4.7-3.9l0,0c-1-0.1-2.9,1.6-4.7,3.9l0,0c-1.9,2.1-3.6,4.7-6.4,5.1l0,0c-0.1,0-0.3,0-0.4,0l0,0
	c-2.6-0.1-4.7-1.9-6.8-3.4l0,0c-2.1-1.6-4.1-3-5.2-2.9l0,0c-0.1,0-0.2,0-0.3,0l0,0c-1,0.1-2.5,2.2-3.7,4.8l0,0
	c-1.4,2.5-2.5,5.3-5.1,6.4l0,0c-0.5,0.2-1,0.2-1.5,0.2l0,0c-4-0.1-8.9-3.8-11.5-3.7l0,0c-0.4,0-0.6,0.1-0.9,0.2l0,0
	c-0.9,0.3-1.9,2.7-2.5,5.5l0,0c-0.8,2.7-1.2,5.8-3.6,7.4l0,0c-1,0.6-2,0.7-3.1,0.7l0,0c-3.1,0-6.8-1.3-9.3-1.3l0,0
	c-0.9,0-1.5,0.2-1.9,0.5l0,0c-0.9,0.5-1.2,3.1-1.2,5.9l0,0c-0.1,2.8,0.1,5.9-1.8,8l0,0c-2.1,1.9-5.2,1.7-8,1.8l0,0
	c-2.9,0-5.4,0.4-5.9,1.2l0,0c-0.3,0.3-0.5,1-0.5,1.9l0,0c0,2.4,1.3,6.1,1.3,9.3l0,0c0,1.1-0.2,2.2-0.8,3.1l0,0
	c-1.6,2.3-4.6,2.8-7.4,3.6l0,0c-2.8,0.6-5.2,1.6-5.5,2.5l0,0c-0.1,0.2-0.2,0.5-0.2,0.8l0,0c-0.1,2.6,3.6,7.4,3.7,11.4l0,0
	c0,0.5-0.1,1-0.2,1.6l0,0c-1,2.6-3.9,3.8-6.4,5.1l0,0c-2.6,1.2-4.7,2.7-4.8,3.7l0,0c0,0.1,0,0.2,0,0.3l0,0c-0.1,1.1,1.3,3.1,2.9,5.2
	l0,0c1.6,2.1,3.4,4.2,3.4,6.8l0,0c0,0.2,0,0.3,0,0.5l0,0c-0.4,2.8-3,4.5-5.1,6.4l0,0c-2.2,1.8-4,3.7-3.9,4.7l0,0
	c-0.1,1,1.6,2.9,3.9,4.7l0,0c2.1,1.9,4.7,3.6,5.1,6.4l0,0c0,0.1,0,0.3,0,0.4l0,0c-0.1,2.6-1.9,4.6-3.4,6.8l0,0
	c-1.6,2.1-3,4.1-2.9,5.2l0,0c0,0.1,0,0.2,0,0.3l0,0c0.1,1,2.2,2.5,4.8,3.7l0,0c2.5,1.4,5.4,2.5,6.4,5.1l0,0c0.2,0.5,0.2,1,0.2,1.6
	l0,0c-0.1,4-3.8,8.9-3.7,11.4l0,0c0,0.4,0.1,0.6,0.2,0.9l0,0c0.3,1,2.7,1.9,5.5,2.5l0,0c2.7,0.8,5.8,1.2,7.4,3.6l0,0
	c0.6,1,0.8,2,0.8,3.1l0,0c0,3.1-1.3,6.8-1.3,9.3l0,0c0,0.9,0.2,1.6,0.5,1.9l0,0c0.5,0.9,3.1,1.2,5.9,1.2l0,0c2.8,0.1,5.9-0.1,8,1.8
	l0,0c1.9,2.1,1.7,5.2,1.8,8l0,0c0,2.9,0.4,5.4,1.2,5.9l0,0c0.3,0.3,1,0.5,1.9,0.5l0,0c2.4,0,6.1-1.3,9.3-1.3l0,0
	c1.1,0,2.2,0.2,3.1,0.8l0,0c2.3,1.6,2.8,4.6,3.6,7.4l0,0c0.6,2.8,1.6,5.2,2.5,5.5l0,0c0.2,0.1,0.5,0.2,0.9,0.2l0,0
	c2.6,0.1,7.4-3.6,11.5-3.7l0,0c0.5,0,1.1,0.1,1.6,0.2l0,0c2.6,1,3.8,3.9,5.1,6.4l0,0c1.2,2.6,2.7,4.7,3.7,4.8l0,0c0.1,0,0.2,0,0.4,0
	l0,0c1.1,0.1,3.1-1.3,5.2-2.9l0,0c2.1-1.6,4.2-3.4,6.8-3.4l0,0c0.2,0,0.3,0,0.5,0l0,0c2.8,0.4,4.5,3,6.4,5.1l0,0
	c1.8,2.2,3.7,4,4.7,3.9l0,0C380.5,307.5,382.4,305.7,384.2,303.4L384.2,303.4z"/>
<g id="BandRing">
	<path id="XMLID_5933_" class="st22" d="M282.5,200c0-53.6,43.4-97,97-97l0,0v1.3v1.3c-26.1,0-49.7,10.6-66.8,27.7l0,0
		C295.6,150.3,285,173.9,285,200l0,0c0,26.1,10.6,49.7,27.7,66.8l0,0c17.1,17.1,40.7,27.7,66.8,27.7l0,0c26.1,0,49.7-10.6,66.8-27.7
		l0,0c17.1-17.1,27.7-40.7,27.7-66.8l0,0c0-26.1-10.6-49.7-27.7-66.8l0,0c-17.1-17.1-40.7-27.7-66.8-27.7l0,0v-1.3V103
		c53.6,0,97,43.4,97,97l0,0c0,53.6-43.4,97-97,97l0,0C325.9,297,282.5,253.6,282.5,200L282.5,200z M297.6,200
		c0-45.2,36.7-81.9,81.9-81.9l0,0c45.2,0,81.9,36.7,81.9,81.9l0,0c0,45.2-36.7,81.9-81.9,81.9l0,0v-1.3v-1.3
		c43.9-0.1,79.3-35.5,79.4-79.4l0,0c-0.1-43.9-35.6-79.3-79.4-79.4l0,0c-43.9,0.1-79.3,35.5-79.4,79.4l0,0
		c0.1,43.9,35.5,79.3,79.4,79.4l0,0v1.3v1.3C334.3,282,297.6,245.3,297.6,200L297.6,200z"/>
</g>
<g id="FaceBackground">
	<path id="Badge_Background" class="st4" d="M460.2,200c0,44.6-36.1,80.7-80.7,80.7c-44.5,0-80.7-36.1-80.7-80.7
		c0-44.6,36.1-80.7,80.7-80.7C424,119.4,460.2,155.5,460.2,200z"/>
</g>
<g id="XMLID_8269_">
	<path id="XMLID_8270_" class="st30" d="M356.9,169.8h-7.2v-0.9c0.6,0,1.2-0.1,1.6-0.2c0.4-0.1,0.6-0.3,0.6-0.5c0-0.1,0-0.2,0-0.3
		c0-0.1,0-0.2-0.1-0.3l-1.4-3.9h-6.1c-0.2,0.6-0.4,1.1-0.6,1.5c-0.1,0.4-0.3,0.8-0.4,1.2c-0.1,0.4-0.2,0.6-0.2,0.9
		c0,0.2-0.1,0.4-0.1,0.5c0,0.3,0.3,0.6,0.8,0.8c0.5,0.2,1.1,0.3,1.7,0.3v0.9H339v-0.9c0.2,0,0.5-0.1,0.8-0.1s0.6-0.2,0.8-0.3
		c0.3-0.2,0.6-0.4,0.8-0.7c0.2-0.2,0.4-0.6,0.5-1c0.9-2.2,1.8-4.6,2.9-7.3s2-5.1,2.8-7.2h1l5.8,14.9c0.1,0.3,0.3,0.6,0.4,0.8
		c0.2,0.2,0.4,0.4,0.6,0.6c0.2,0.1,0.4,0.2,0.7,0.3c0.3,0.1,0.6,0.1,0.8,0.1V169.8z M349.9,162.7l-2.6-6.7l-2.6,6.7H349.9z"/>
	<path id="XMLID_8273_" class="st30" d="M370.5,169.8h-5.9V169c0.2,0,0.4,0,0.6,0c0.2,0,0.4,0,0.6-0.1c0.2-0.1,0.4-0.2,0.5-0.4
		c0.1-0.2,0.2-0.4,0.2-0.7v-6.2c0-0.9-0.2-1.5-0.6-2s-0.9-0.7-1.5-0.7c-0.4,0-0.8,0.1-1.2,0.2c-0.4,0.1-0.7,0.3-1,0.5
		c-0.3,0.2-0.5,0.4-0.6,0.6c-0.2,0.2-0.3,0.4-0.3,0.5v6.9c0,0.3,0.1,0.5,0.2,0.7c0.1,0.2,0.3,0.3,0.5,0.4c0.2,0.1,0.4,0.1,0.6,0.2
		c0.2,0,0.4,0.1,0.6,0.1v0.8h-5.9V169c0.2,0,0.4,0,0.6,0c0.2,0,0.4,0,0.5-0.1c0.2-0.1,0.4-0.2,0.5-0.4c0.1-0.2,0.2-0.4,0.2-0.7v-7.4
		c0-0.3-0.1-0.5-0.2-0.8c-0.1-0.2-0.3-0.4-0.5-0.6c-0.2-0.1-0.3-0.2-0.5-0.2c-0.2,0-0.4-0.1-0.7-0.1v-0.8l4-0.3l0.2,0.2v1.7h0.1
		c0.2-0.2,0.4-0.4,0.7-0.7c0.3-0.3,0.6-0.5,0.8-0.7c0.3-0.2,0.7-0.4,1.1-0.5c0.4-0.1,0.9-0.2,1.4-0.2c1.2,0,2,0.4,2.6,1.1
		s0.8,1.7,0.8,2.9v6.3c0,0.3,0,0.5,0.1,0.7s0.3,0.3,0.5,0.4c0.2,0.1,0.4,0.1,0.5,0.2c0.1,0,0.3,0.1,0.6,0.1V169.8z"/>
	<path id="XMLID_8275_" class="st30" d="M385.2,169.8h-5.9V169c0.2,0,0.4,0,0.6,0c0.2,0,0.4,0,0.6-0.1c0.2-0.1,0.4-0.2,0.5-0.4
		c0.1-0.2,0.2-0.4,0.2-0.7v-6.2c0-0.9-0.2-1.5-0.6-2s-0.9-0.7-1.5-0.7c-0.4,0-0.8,0.1-1.2,0.2c-0.4,0.1-0.7,0.3-1,0.5
		c-0.3,0.2-0.5,0.4-0.6,0.6c-0.2,0.2-0.3,0.4-0.3,0.5v6.9c0,0.3,0.1,0.5,0.2,0.7c0.1,0.2,0.3,0.3,0.5,0.4c0.2,0.1,0.4,0.1,0.6,0.2
		c0.2,0,0.4,0.1,0.6,0.1v0.8h-5.9V169c0.2,0,0.4,0,0.6,0c0.2,0,0.4,0,0.5-0.1c0.2-0.1,0.4-0.2,0.5-0.4c0.1-0.2,0.2-0.4,0.2-0.7v-7.4
		c0-0.3-0.1-0.5-0.2-0.8c-0.1-0.2-0.3-0.4-0.5-0.6c-0.2-0.1-0.3-0.2-0.5-0.2c-0.2,0-0.4-0.1-0.7-0.1v-0.8l4-0.3l0.2,0.2v1.7h0.1
		c0.2-0.2,0.4-0.4,0.7-0.7c0.3-0.3,0.6-0.5,0.8-0.7c0.3-0.2,0.7-0.4,1.1-0.5c0.4-0.1,0.9-0.2,1.4-0.2c1.2,0,2,0.4,2.6,1.1
		s0.8,1.7,0.8,2.9v6.3c0,0.3,0,0.5,0.1,0.7s0.3,0.3,0.5,0.4c0.2,0.1,0.4,0.1,0.5,0.2c0.1,0,0.3,0.1,0.6,0.1V169.8z"/>
	<path id="XMLID_8277_" class="st30" d="M399.6,169.5l-3.9,0.3l-0.2-0.2v-1.5h-0.1c-0.2,0.2-0.4,0.4-0.7,0.7
		c-0.2,0.2-0.5,0.4-0.8,0.6c-0.4,0.2-0.7,0.4-1.1,0.5s-0.8,0.2-1.4,0.2c-1.1,0-1.9-0.3-2.4-1c-0.6-0.7-0.8-1.7-0.8-3v-5.8
		c0-0.3-0.1-0.5-0.2-0.7c-0.1-0.2-0.3-0.4-0.5-0.5c-0.1-0.1-0.3-0.2-0.6-0.2c-0.2,0-0.5-0.1-0.7-0.1v-0.8l4-0.3l0.2,0.2v8.4
		c0,0.9,0.2,1.5,0.6,2c0.4,0.4,0.9,0.7,1.4,0.7c0.4,0,0.8-0.1,1.2-0.2s0.6-0.3,0.9-0.5c0.2-0.2,0.4-0.4,0.6-0.5
		c0.2-0.2,0.3-0.4,0.4-0.5v-6.8c0-0.3-0.1-0.5-0.2-0.7c-0.1-0.2-0.3-0.4-0.5-0.5c-0.1-0.1-0.4-0.2-0.7-0.2c-0.3,0-0.6,0-1-0.1v-0.8
		l4.4-0.3l0.2,0.2v9.5c0,0.3,0.1,0.5,0.2,0.7c0.1,0.2,0.3,0.4,0.5,0.5c0.1,0.1,0.3,0.1,0.5,0.2c0.2,0,0.4,0,0.7,0.1V169.5z"/>
	<path id="XMLID_8279_" class="st30" d="M412.5,169.5c-0.4,0.1-0.7,0.3-1,0.3c-0.3,0.1-0.6,0.1-1,0.1c-0.6,0-1.1-0.1-1.5-0.4
		s-0.6-0.7-0.7-1.3h-0.1c-0.5,0.6-1.1,1-1.7,1.3c-0.6,0.3-1.3,0.5-2.2,0.5c-0.9,0-1.6-0.3-2.2-0.8c-0.6-0.6-0.9-1.3-0.9-2.2
		c0-0.5,0.1-0.9,0.2-1.2c0.1-0.4,0.3-0.7,0.6-1c0.2-0.2,0.5-0.5,0.8-0.7c0.3-0.2,0.6-0.3,0.9-0.5c0.4-0.1,1.1-0.4,2.2-0.8
		c1.1-0.4,1.9-0.7,2.3-0.9v-1.2c0-0.1,0-0.3-0.1-0.6c0-0.3-0.1-0.6-0.3-0.9c-0.2-0.3-0.4-0.6-0.7-0.8s-0.7-0.3-1.3-0.3
		c-0.4,0-0.7,0.1-1,0.2s-0.5,0.3-0.7,0.4c0,0.2,0,0.4,0.1,0.7c0.1,0.3,0.1,0.6,0.1,0.9c0,0.3-0.1,0.5-0.4,0.8
		c-0.3,0.2-0.6,0.4-1.1,0.4c-0.4,0-0.7-0.1-0.9-0.4c-0.2-0.3-0.3-0.6-0.3-1c0-0.4,0.1-0.7,0.4-1.1c0.3-0.3,0.6-0.6,1-0.9
		c0.4-0.2,0.8-0.4,1.3-0.6c0.5-0.2,1-0.2,1.5-0.2c0.7,0,1.3,0,1.8,0.1c0.5,0.1,1,0.3,1.4,0.6c0.4,0.3,0.7,0.7,0.9,1.2
		c0.2,0.5,0.3,1.2,0.3,2c0,1.2,0,2.2,0,3.1s0,1.9,0,2.9c0,0.3,0.1,0.6,0.2,0.8c0.1,0.2,0.3,0.3,0.5,0.5c0.1,0.1,0.3,0.1,0.6,0.1
		c0.3,0,0.5,0,0.8,0V169.5z M408.2,163.1c-0.7,0.2-1.3,0.4-1.8,0.6c-0.5,0.2-1,0.4-1.5,0.7c-0.4,0.3-0.7,0.6-1,1
		c-0.2,0.4-0.4,0.8-0.4,1.4c0,0.7,0.2,1.2,0.5,1.5c0.4,0.3,0.8,0.5,1.3,0.5c0.6,0,1.1-0.1,1.5-0.4c0.4-0.3,0.8-0.6,1.1-1
		L408.2,163.1z"/>
	<path id="XMLID_8282_" class="st30" d="M419.3,169.8h-5.9V169c0.2,0,0.4,0,0.6-0.1c0.2,0,0.4-0.1,0.5-0.1c0.2-0.1,0.4-0.2,0.5-0.4
		c0.1-0.2,0.2-0.4,0.2-0.7v-14c0-0.3-0.1-0.6-0.2-0.8c-0.1-0.3-0.3-0.5-0.5-0.6c-0.1-0.1-0.4-0.2-0.8-0.3c-0.4-0.1-0.7-0.1-0.9-0.1
		v-0.8l4.5-0.3l0.2,0.2v16.5c0,0.3,0.1,0.5,0.2,0.7c0.1,0.2,0.3,0.3,0.5,0.4c0.2,0.1,0.4,0.1,0.5,0.2c0.2,0,0.4,0.1,0.6,0.1V169.8z"
		/>
	<path id="XMLID_8284_" class="st30" d="M358.4,208.8h-19.7v-2.9c0.4-0.4,0.9-0.9,1.6-1.5s1.5-1.1,2.4-1.8c0.6-0.4,1.2-0.8,2-1.2
		c0.8-0.4,1.7-0.9,2.7-1.5c1.1-0.6,2-1.1,2.6-1.6c0.6-0.4,1.1-1,1.6-1.7c0.3-0.4,0.6-1,0.8-1.6c0.2-0.6,0.3-1.6,0.3-2.8
		c0-1.7-0.5-3-1.4-3.8c-0.9-0.8-2.1-1.2-3.6-1.2c-0.9,0-1.8,0.2-2.6,0.5c-0.8,0.4-1.4,0.8-1.8,1.5c0.1,0.4,0.2,1,0.4,1.6
		c0.1,0.6,0.2,1.2,0.2,1.8c0,0.5-0.2,1-0.7,1.4c-0.4,0.4-1.1,0.6-2,0.6c-0.7,0-1.2-0.2-1.6-0.7c-0.4-0.5-0.6-1.1-0.6-1.9
		c0-0.8,0.2-1.5,0.6-2.3c0.4-0.8,1-1.5,1.8-2.1c0.8-0.6,1.7-1.1,2.9-1.5c1.1-0.4,2.4-0.6,3.7-0.6c2.9,0,5.1,0.6,6.8,1.9
		c1.7,1.3,2.5,3,2.5,5.1c0,1-0.2,2-0.5,2.8c-0.3,0.8-0.8,1.6-1.5,2.2c-0.7,0.7-1.6,1.3-2.6,1.8c-1,0.5-2.5,1.2-4.6,2.1
		c-1.2,0.5-2.4,1.1-3.4,1.7s-1.9,1.2-2.6,1.7h16.1V208.8z"/>
	<path id="XMLID_8286_" class="st30" d="M378.2,198.9c0.9,0.7,1.7,1.7,2.3,2.8c0.6,1.1,0.9,2.6,0.9,4.3c0,3-1,5.5-3.1,7.5
		c-2.1,2-4.7,2.9-7.8,2.9c-2.4,0-4.5-0.6-6.2-1.7c-1.7-1.2-2.5-2.5-2.5-4.1c0-0.7,0.2-1.3,0.5-1.9c0.3-0.5,0.9-0.8,1.6-0.8
		c0.8,0,1.5,0.2,1.9,0.7c0.4,0.4,0.7,0.9,0.7,1.4c0,0.4-0.1,1-0.2,1.7c-0.2,0.7-0.3,1.2-0.4,1.5c0.1,0.1,0.3,0.2,0.5,0.4
		c0.3,0.2,0.6,0.3,0.9,0.5c0.4,0.2,0.8,0.3,1.3,0.4c0.5,0.1,1.1,0.2,1.8,0.2c0.9,0,1.7-0.2,2.5-0.5c0.8-0.4,1.5-0.9,2-1.6
		c0.6-0.8,1.1-1.7,1.4-2.7c0.3-1,0.5-2.3,0.5-3.8c0-2-0.5-3.6-1.6-4.9c-1.1-1.3-2.5-1.9-4.3-1.9c-1.1,0-2.2,0.2-3.1,0.6
		c-1,0.4-1.8,1.1-2.6,2.1l-1.4-0.5l1.8-15.2h15v3.7h-13.3l-1.1,8.9c0.6-0.4,1.5-0.9,2.5-1.3c1-0.4,2.2-0.7,3.4-0.7
		c1,0,2.1,0.2,3.2,0.5C376.2,197.7,377.2,198.2,378.2,198.9z"/>
	<path id="XMLID_8288_" class="st30" d="M397.5,207.9c-0.9,0.4-1.8,0.7-2.6,1c-0.8,0.3-1.8,0.4-3,0.4c-1.7,0-3-0.4-3.7-1.3
		c-0.7-0.9-1.1-2.1-1.1-3.7v-14h-3.7v-2h3.8v-6.4h3.8v6.4h5.9v2h-5.9v11.6c0,0.9,0,1.6,0.1,2.2c0.1,0.6,0.2,1.1,0.5,1.5
		c0.2,0.4,0.6,0.7,1,0.9s1,0.3,1.8,0.3c0.4,0,0.9,0,1.5-0.1c0.7-0.1,1.2-0.1,1.4-0.2V207.9z"/>
	<path id="XMLID_8290_" class="st30" d="M422.1,208.8h-10.2v-1.4c0.3,0,0.7-0.1,1.1-0.1s0.7-0.1,1-0.2c0.4-0.1,0.7-0.3,0.9-0.7
		s0.3-0.7,0.3-1.2v-10.6c0-1.5-0.3-2.6-1-3.4c-0.7-0.8-1.5-1.2-2.5-1.2c-0.7,0-1.4,0.1-2,0.3s-1.2,0.5-1.7,0.9
		c-0.5,0.4-0.8,0.7-1.1,1c-0.3,0.4-0.4,0.6-0.6,0.9V205c0,0.5,0.1,0.9,0.3,1.2c0.2,0.3,0.5,0.5,0.9,0.7c0.3,0.1,0.6,0.2,1,0.3
		c0.3,0.1,0.7,0.1,1.1,0.1v1.4h-10.1v-1.4c0.3,0,0.7-0.1,1-0.1c0.3,0,0.6-0.1,0.9-0.2c0.4-0.1,0.7-0.3,0.9-0.7
		c0.2-0.3,0.3-0.7,0.3-1.2v-24.1c0-0.5-0.1-1-0.3-1.4c-0.2-0.5-0.5-0.8-0.9-1.1c-0.3-0.2-0.7-0.3-1.3-0.4c-0.6-0.1-1.2-0.1-1.5-0.2
		v-1.3l7.7-0.5l0.3,0.3V191h0.1c0.5-0.5,0.9-0.9,1.3-1.2c0.4-0.4,0.9-0.7,1.5-1.1c0.5-0.3,1.2-0.6,1.9-0.8c0.7-0.2,1.5-0.3,2.4-0.3
		c1.9,0,3.3,0.6,4.3,1.8c1,1.2,1.5,2.9,1.5,5v10.8c0,0.5,0.1,0.9,0.3,1.2c0.2,0.3,0.5,0.5,0.9,0.7c0.3,0.1,0.6,0.2,0.9,0.3
		c0.3,0.1,0.6,0.1,1,0.1V208.8z"/>
	<path id="XMLID_8292_" class="st30" d="M335.5,233.9c-0.2,0-0.5,0.1-0.8,0.1c-0.3,0.1-0.6,0.1-0.8,0.2c-0.2,0.1-0.4,0.3-0.5,0.5
		c-0.1,0.2-0.2,0.5-0.2,0.8v1.3c0,1,0,1.6,0,2c0,0.3,0,0.6,0,0.8c-1.1,0.5-2.2,0.9-3.2,1.1c-1.1,0.3-2.1,0.4-3.2,0.4
		c-1.1,0-2.2-0.2-3.2-0.6c-1-0.4-1.9-1-2.7-1.8c-0.8-0.8-1.4-1.7-1.8-2.8c-0.5-1.1-0.7-2.3-0.7-3.7c0-1.3,0.2-2.5,0.7-3.7
		c0.4-1.1,1.1-2.1,1.8-2.9c0.8-0.8,1.7-1.4,2.8-1.9c1.1-0.5,2.2-0.7,3.4-0.7c1,0,1.8,0.1,2.6,0.4c0.7,0.2,1.4,0.5,1.9,0.9l0.5-0.8h1
		l0.1,6.1h-1c-0.2-0.7-0.4-1.3-0.6-2s-0.6-1.2-1-1.7c-0.4-0.5-0.9-0.9-1.5-1.2c-0.6-0.3-1.3-0.5-2.1-0.5c-0.9,0-1.6,0.2-2.3,0.5
		c-0.7,0.4-1.3,0.9-1.8,1.6c-0.5,0.7-0.9,1.5-1.1,2.5c-0.3,1-0.4,2.1-0.4,3.4c0,1.1,0.1,2.1,0.4,3.1c0.3,1,0.6,1.8,1.2,2.5
		c0.5,0.7,1.1,1.3,1.9,1.7s1.6,0.6,2.6,0.6c0.7,0,1.4-0.1,2-0.3s1-0.5,1.3-0.7c0.1-0.4,0.1-0.9,0.1-1.3c0-0.4,0-0.8,0-1.1v-1
		c0-0.3,0-0.6-0.1-0.9c-0.1-0.3-0.3-0.5-0.6-0.6c-0.3-0.1-0.6-0.2-1.1-0.3c-0.5-0.1-0.8-0.1-1.1-0.1V233h7.6V233.9z"/>
	<path id="XMLID_8294_" class="st30" d="M347.8,234.6c0,0.8-0.1,1.7-0.4,2.5c-0.3,0.8-0.7,1.5-1.1,2.1c-0.6,0.7-1.2,1.1-2,1.5
		c-0.7,0.3-1.6,0.5-2.5,0.5c-0.8,0-1.5-0.1-2.2-0.4c-0.7-0.3-1.3-0.7-1.8-1.3c-0.5-0.5-1-1.2-1.3-2c-0.3-0.8-0.5-1.7-0.5-2.6
		c0-1.9,0.5-3.4,1.6-4.6c1.1-1.2,2.5-1.8,4.3-1.8c1.7,0,3.1,0.6,4.2,1.7C347.3,231.2,347.8,232.7,347.8,234.6z M345.3,234.6
		c0-0.6-0.1-1.3-0.2-1.9c-0.1-0.7-0.3-1.3-0.6-1.7c-0.3-0.5-0.6-0.9-1-1.2c-0.4-0.3-0.9-0.5-1.6-0.5c-0.6,0-1.2,0.2-1.6,0.5
		c-0.4,0.3-0.8,0.7-1.1,1.3c-0.3,0.5-0.4,1.1-0.6,1.7s-0.2,1.2-0.2,1.8c0,0.8,0.1,1.5,0.2,2.2c0.1,0.7,0.3,1.3,0.6,1.8
		c0.3,0.5,0.6,0.9,1,1.2c0.4,0.3,0.9,0.4,1.6,0.4c1,0,1.8-0.5,2.4-1.5S345.3,236.4,345.3,234.6z"/>
	<path id="XMLID_8297_" class="st30" d="M354.7,240.8h-5.9V240c0.2,0,0.4,0,0.6-0.1c0.2,0,0.4-0.1,0.5-0.1c0.2-0.1,0.4-0.2,0.5-0.4
		c0.1-0.2,0.2-0.4,0.2-0.7v-14c0-0.3-0.1-0.6-0.2-0.8c-0.1-0.3-0.3-0.5-0.5-0.6c-0.1-0.1-0.4-0.2-0.8-0.3s-0.7-0.1-0.9-0.1v-0.8
		l4.5-0.3l0.2,0.2v16.5c0,0.3,0.1,0.5,0.2,0.7c0.1,0.2,0.3,0.3,0.5,0.4c0.2,0.1,0.4,0.1,0.5,0.2c0.2,0,0.4,0.1,0.6,0.1V240.8z"/>
	<path id="XMLID_8299_" class="st30" d="M364.7,223.3c0,0.4-0.1,0.7-0.3,0.9c-0.2,0.3-0.5,0.4-0.9,0.4c-0.3,0-0.5-0.1-0.7-0.2
		c-0.2-0.1-0.4-0.2-0.5-0.4c-0.2-0.2-0.3-0.4-0.5-0.6s-0.3-0.4-0.4-0.5c-0.5,0-1,0.4-1.3,1.1c-0.3,0.7-0.4,1.9-0.4,3.5v1.2h3.1v1.2
		h-3.1v8.6c0,0.3,0.1,0.5,0.2,0.7c0.1,0.2,0.3,0.3,0.5,0.4c0.2,0.1,0.5,0.1,0.8,0.2c0.3,0,0.6,0.1,0.8,0.1v0.8h-6.3V240
		c0.2,0,0.4,0,0.6,0c0.2,0,0.4,0,0.5-0.1c0.2-0.1,0.4-0.2,0.5-0.4c0.1-0.2,0.2-0.4,0.2-0.7v-8.8h-2.4v-1.2h2.4V228
		c0-1.8,0.5-3.3,1.4-4.4c0.9-1.1,2.1-1.7,3.6-1.7c0.7,0,1.3,0.1,1.6,0.4S364.7,222.9,364.7,223.3z"/>
	<path id="XMLID_8301_" class="st30" d="M383.2,225.5c0.8,0.8,1.4,1.8,1.8,2.9c0.4,1.1,0.6,2.4,0.6,3.7c0,1.4-0.2,2.6-0.7,3.7
		c-0.4,1.1-1,2.1-1.8,2.9c-0.8,0.8-1.6,1.4-2.6,1.8s-2.1,0.6-3.2,0.6c-1.2,0-2.3-0.2-3.3-0.7c-1-0.5-1.9-1.1-2.6-1.9
		c-0.7-0.8-1.3-1.7-1.7-2.9c-0.4-1.1-0.6-2.3-0.6-3.6c0-1.4,0.2-2.7,0.7-3.8c0.4-1.1,1-2.1,1.8-2.9c0.8-0.8,1.7-1.4,2.7-1.8
		s2.1-0.6,3.2-0.6c1.1,0,2.2,0.2,3.2,0.6C381.6,224.1,382.4,224.7,383.2,225.5z M381.4,237.8c0.5-0.7,0.8-1.6,1-2.5
		c0.2-0.9,0.3-2,0.3-3.1c0-1.2-0.1-2.3-0.3-3.3c-0.2-1-0.6-1.8-1-2.5c-0.4-0.7-1-1.2-1.7-1.6c-0.7-0.4-1.4-0.6-2.3-0.6
		c-1,0-1.8,0.2-2.5,0.7s-1.2,1-1.7,1.8c-0.4,0.7-0.7,1.6-0.9,2.5c-0.2,1-0.3,2-0.3,3c0,1.2,0.1,2.2,0.3,3.2s0.5,1.8,1,2.5
		c0.4,0.7,1,1.3,1.7,1.7c0.7,0.4,1.5,0.6,2.4,0.6c0.9,0,1.7-0.2,2.4-0.6C380.3,239.1,380.9,238.5,381.4,237.8z"/>
	<path id="XMLID_8304_" class="st30" d="M399.9,240.5l-3.9,0.3l-0.2-0.2v-1.5h-0.1c-0.2,0.2-0.4,0.4-0.7,0.7
		c-0.2,0.2-0.5,0.4-0.8,0.6c-0.4,0.2-0.7,0.4-1.1,0.5c-0.3,0.1-0.8,0.2-1.5,0.2c-1.1,0-1.9-0.3-2.4-1c-0.6-0.7-0.8-1.7-0.8-3v-5.8
		c0-0.3-0.1-0.5-0.2-0.7c-0.1-0.2-0.3-0.4-0.5-0.5c-0.1-0.1-0.3-0.2-0.6-0.2c-0.2,0-0.5-0.1-0.7-0.1v-0.8l4-0.3l0.2,0.2v8.4
		c0,0.9,0.2,1.5,0.6,2s0.9,0.7,1.4,0.7c0.4,0,0.8-0.1,1.2-0.2c0.4-0.1,0.6-0.3,0.9-0.5c0.2-0.2,0.4-0.4,0.6-0.5
		c0.2-0.2,0.3-0.4,0.4-0.5v-6.8c0-0.3-0.1-0.5-0.2-0.7s-0.3-0.4-0.5-0.5c-0.1-0.1-0.4-0.2-0.7-0.2c-0.3,0-0.6,0-1-0.1v-0.8l4.4-0.3
		l0.2,0.2v9.5c0,0.3,0.1,0.5,0.2,0.7s0.3,0.4,0.5,0.5c0.1,0.1,0.3,0.1,0.5,0.2c0.2,0,0.4,0,0.7,0.1V240.5z"/>
	<path id="XMLID_8306_" class="st30" d="M408.3,240.2c-0.5,0.2-1,0.4-1.5,0.6c-0.5,0.2-1,0.2-1.7,0.2c-1,0-1.7-0.3-2.1-0.8
		c-0.4-0.5-0.6-1.2-0.6-2.2v-8.2h-2.2v-1.2h2.2V225h2.2v3.7h3.5v1.2h-3.4v6.7c0,0.5,0,0.9,0.1,1.3c0,0.3,0.1,0.6,0.3,0.9
		c0.1,0.2,0.3,0.4,0.6,0.5c0.3,0.1,0.6,0.2,1,0.2c0.2,0,0.5,0,0.9-0.1c0.4,0,0.7-0.1,0.8-0.1V240.2z"/>
	<path id="XMLID_8308_" class="st30" d="M414.8,240.8H409V240c0.2,0,0.4,0,0.6,0c0.2,0,0.4,0,0.5-0.1c0.2-0.1,0.4-0.2,0.5-0.4
		c0.1-0.2,0.2-0.4,0.2-0.7v-7.4c0-0.3-0.1-0.5-0.2-0.7c-0.1-0.2-0.3-0.4-0.5-0.5c-0.2-0.1-0.4-0.2-0.7-0.3c-0.3-0.1-0.6-0.1-0.8-0.1
		v-0.8l4.2-0.3l0.2,0.2v9.8c0,0.3,0.1,0.5,0.2,0.7c0.1,0.2,0.3,0.3,0.5,0.4c0.2,0.1,0.4,0.1,0.5,0.2c0.2,0,0.4,0.1,0.6,0.1V240.8z
		 M413.3,223.8c0,0.5-0.2,0.9-0.5,1.2c-0.3,0.3-0.7,0.5-1.1,0.5c-0.4,0-0.8-0.2-1.1-0.5s-0.5-0.7-0.5-1.1c0-0.4,0.2-0.8,0.5-1.2
		c0.3-0.3,0.7-0.5,1.1-0.5c0.5,0,0.8,0.2,1.1,0.5C413.1,223.1,413.3,223.4,413.3,223.8z"/>
	<path id="XMLID_8311_" class="st30" d="M429.1,240.8h-5.9V240c0.2,0,0.4,0,0.6,0c0.2,0,0.4,0,0.6-0.1c0.2-0.1,0.4-0.2,0.5-0.4
		c0.1-0.2,0.2-0.4,0.2-0.7v-6.2c0-0.9-0.2-1.5-0.6-2c-0.4-0.5-0.9-0.7-1.5-0.7c-0.4,0-0.8,0.1-1.2,0.2s-0.7,0.3-1,0.5
		c-0.3,0.2-0.5,0.4-0.6,0.6c-0.2,0.2-0.3,0.4-0.3,0.5v6.9c0,0.3,0.1,0.5,0.2,0.7c0.1,0.2,0.3,0.3,0.5,0.4c0.2,0.1,0.4,0.1,0.6,0.2
		c0.2,0,0.4,0.1,0.6,0.1v0.8h-5.9V240c0.2,0,0.4,0,0.6,0c0.2,0,0.4,0,0.5-0.1c0.2-0.1,0.4-0.2,0.5-0.4c0.1-0.2,0.2-0.4,0.2-0.7v-7.4
		c0-0.3-0.1-0.5-0.2-0.8c-0.1-0.2-0.3-0.4-0.5-0.6c-0.2-0.1-0.3-0.2-0.5-0.2c-0.2,0-0.4-0.1-0.7-0.1v-0.8l4-0.3l0.2,0.2v1.7h0.1
		c0.2-0.2,0.4-0.4,0.7-0.7c0.3-0.3,0.6-0.5,0.8-0.7c0.3-0.2,0.7-0.4,1.1-0.5s0.9-0.2,1.4-0.2c1.2,0,2,0.4,2.6,1.1
		c0.6,0.7,0.8,1.7,0.8,2.9v6.3c0,0.3,0,0.5,0.1,0.7c0.1,0.2,0.3,0.3,0.5,0.4c0.2,0.1,0.4,0.1,0.5,0.2c0.1,0,0.3,0.1,0.6,0.1V240.8z"
		/>
	<path id="XMLID_8313_" class="st30" d="M440.4,239.5c0.3,0.3,0.6,0.7,0.8,1s0.3,0.9,0.3,1.5c0,0.6-0.1,1.1-0.4,1.6
		c-0.3,0.5-0.6,1-1.1,1.3c-0.5,0.4-1.2,0.7-2,0.9c-0.8,0.2-1.7,0.3-2.8,0.3c-1.8,0-3.2-0.3-4.1-0.8c-0.9-0.5-1.4-1.3-1.4-2.3
		c0-0.8,0.3-1.5,1-2c0.7-0.5,1.5-0.7,2.5-0.8v-0.2c-0.2-0.1-0.5-0.2-0.8-0.3c-0.3-0.1-0.5-0.2-0.7-0.4c-0.2-0.2-0.4-0.4-0.5-0.6
		c-0.1-0.2-0.2-0.5-0.2-0.9c0-0.4,0.2-0.8,0.5-1.2c0.3-0.4,0.8-0.7,1.4-0.9v-0.2c-0.8-0.4-1.4-0.8-1.8-1.4c-0.4-0.6-0.6-1.2-0.6-2
		c0-1.1,0.4-2.1,1.3-2.8c0.8-0.7,1.9-1.1,3.3-1.1c0.4,0,0.7,0,1.1,0.1c0.4,0.1,0.7,0.2,1.1,0.3h4.2v1.2h-2.8v0.1
		c0.3,0.4,0.5,0.7,0.7,1.2s0.2,0.8,0.2,1.2c0,1.1-0.4,2-1.3,2.7c-0.9,0.7-1.9,1.1-3,1.1h-1.5c-0.2,0.1-0.4,0.2-0.6,0.4
		s-0.3,0.4-0.3,0.7c0,0.3,0.1,0.5,0.3,0.7s0.4,0.3,0.6,0.3c0.2,0.1,0.5,0.1,0.8,0.1c0.3,0,0.6,0,1,0c0.4,0,0.8,0,1.5,0.1
		s1.1,0.1,1.3,0.1c0.4,0,0.8,0.1,1.1,0.3C439.7,239,440.1,239.2,440.4,239.5z M439.4,242.5c0-0.5-0.1-0.8-0.3-1.1s-0.5-0.5-1-0.6
		c-0.2,0-0.7-0.1-1.4-0.1c-0.7,0-1.5-0.1-2.5-0.1c-0.9,0.2-1.5,0.5-1.9,0.9c-0.4,0.4-0.6,0.9-0.6,1.6c0,0.3,0.1,0.6,0.2,0.8
		c0.1,0.3,0.3,0.5,0.6,0.7c0.3,0.2,0.7,0.4,1.1,0.5c0.5,0.1,1.1,0.2,1.8,0.2c1.2,0,2.1-0.2,2.8-0.7
		C439.1,244.1,439.4,243.4,439.4,242.5z M437.1,232.4c0-1-0.2-1.7-0.6-2.3c-0.4-0.6-0.9-0.8-1.6-0.8c-0.4,0-0.7,0.1-1,0.2
		c-0.3,0.2-0.5,0.4-0.7,0.7c-0.2,0.3-0.3,0.6-0.3,1c-0.1,0.4-0.1,0.8-0.1,1.2c0,0.9,0.2,1.6,0.6,2.2c0.4,0.6,0.9,0.9,1.5,0.9
		c0.7,0,1.2-0.3,1.6-0.8C436.9,234,437.1,233.2,437.1,232.4z"/>
</g>
</svg>
