<?xml version="1.0" encoding="utf-8"?>
<!-- Generator: Adobe Illustrator 16.0.0, SVG Export Plug-In . SVG Version: 6.00 Build 0)  -->
<!DOCTYPE svg PUBLIC "-//W3C//DTD SVG 1.1//EN" "http://www.w3.org/Graphics/SVG/1.1/DTD/svg11.dtd">
<svg version="1.1" id="Layer_2" xmlns="http://www.w3.org/2000/svg" xmlns:xlink="http://www.w3.org/1999/xlink" x="0px" y="0px"
	 width="759px" height="439px" viewBox="0 0 759 439" style="enable-background:new 0 0 759 439;" xml:space="preserve">
<style type="text/css">
<![CDATA[
	.st0{fill:#4659A7;}
	.st1{fill:#7DA0D4;}
	.st2{fill:#7F5E26;}
	.st3{fill:#151943;}
	.st4{fill:#171719;}
	.st5{fill:#172919;}
	.st6{fill:#18331B;}
	.st7{fill:#E72834;}
	.st8{fill:#E7E9E9;}
	.st9{fill:#E8EAEA;}
	.st10{fill-rule:evenodd;clip-rule:evenodd;fill:none;stroke:#E4C54B;stroke-width:1.7463;stroke-miterlimit:10;}
	.st11{fill:#EAE71E;}
	.st12{fill:#EB185B;}
	.st13{fill:#EC2127;}
	.st14{fill:#503C2C;}
	.st15{fill:#507FC1;}
	.st16{fill:#542D8B;}
	.st17{fill:#8C6828;}
	.st18{fill:#BF2327;}
	.st19{fill:#231F20;}
	.st20{fill:#F7F3A3;}
	.st21{fill-rule:evenodd;clip-rule:evenodd;fill:none;stroke:#E4C54B;stroke-width:2.6195;stroke-miterlimit:10;}
	.st22{fill:#C2922E;}
	.st23{fill:#C597C5;}
	.st24{fill:#966828;}
	.st25{fill:#2B378B;}
	.st26{fill:#FAA532;}
	.st27{fill:#FBCA28;}
	.st28{fill:#FBCD36;}
	.st29{fill-rule:evenodd;clip-rule:evenodd;}
	.st30{fill:#FFFFFF;}
	.st31{fill-rule:evenodd;clip-rule:evenodd;fill:#F0CEE3;}
	.st32{fill:#FFFFFF;stroke:#7DA0D4;stroke-miterlimit:10;}
	.st33{fill:none;}
	.st34{fill:#231F20;stroke:#231F20;stroke-width:0.5;stroke-miterlimit:10;}
	.st35{fill:#679B9B;}
	.st36{fill:#9B732B;}
	.st37{fill:#CB7361;}
	.st38{fill:#CC2228;}
	.st39{fill:#311C10;}
	.st40{fill:#EC2127;stroke:#EC2127;stroke-width:0.5;stroke-miterlimit:10;}
	.st41{fill:#381414;}
	.st42{fill-rule:evenodd;clip-rule:evenodd;fill:#FBCDCD;}
	.st43{fill:#010101;}
	.st44{fill-rule:evenodd;clip-rule:evenodd;fill:#FFFFFF;}
	.st45{fill:#FFFFFF;stroke:#FFFFFF;stroke-miterlimit:10;}
	.st46{fill-rule:evenodd;clip-rule:evenodd;fill:#641E0F;}
	.st47{fill:#D3D3D3;}
	.st48{fill:#060707;}
	.st49{fill:#080908;}
	.st50{fill:#721212;}
	.st51{fill:#0E8141;}
	.st52{fill:#424143;}
	.st53{fill:#4259A8;}
]]>
</style>
<g id="XMLID_9664_">
	<path id="XMLID_2491_" d="M759,151.8H472.2C452.7,116.4,418.5,93,379.5,93c-39,0-73.2,23.4-92.7,58.8H0v135.5h286.8
		c19.5,35.3,53.7,58.8,92.7,58.8c39,0,73.2-23.4,92.7-58.8H759V151.8z"/>
	<g id="XMLID_8569_">
		<path id="XMLID_8570_" class="st30" d="M331.3,166.7l-11.5-17.5h5.3l8.3,13.4l8.6-13.4h5l-11.5,17.5v13h-4.1V166.7z"/>
		<path id="XMLID_8572_" class="st30" d="M348.5,164.5c0-9,6.6-16,15.9-16c9.3,0,15.9,7,15.9,16c0,9-6.6,16-15.9,16
			C355.1,180.5,348.5,173.5,348.5,164.5z M375.9,164.5c0-6.7-4.5-12.1-11.5-12.1c-7,0-11.5,5.5-11.5,12.1s4.5,12.1,11.5,12.1
			C371.4,176.6,375.9,171.1,375.9,164.5z"/>
		<path id="XMLID_8575_" class="st30" d="M389.8,149.2v18.7c0,3.8,1.9,8.7,7.7,8.7c5.8,0,7.7-4.9,7.7-8.7v-18.7h4.1v19.3
			c0,7.1-5.1,11.9-11.8,11.9c-6.7,0-11.8-4.9-11.8-11.9v-19.3H389.8z"/>
		<path id="XMLID_8577_" class="st30" d="M416.5,149.2h10.7c7.8,0,9.8,4.7,9.8,8.5c0,3.9-2.9,7.5-7.5,8l8.6,13.9h-5.2l-7.7-13.4
			h-4.6v13.4h-4.1V149.2z M420.6,162.7h5.4c3.3,0,6.5-0.8,6.5-4.9s-3.3-4.9-6.5-4.9h-5.4V162.7z"/>
		<path id="XMLID_8580_" class="st30" d="M319.8,200.8h4.1v26.6h14v3.9h-18.1V200.8z"/>
		<path id="XMLID_8582_" class="st30" d="M340.2,216.1c0-9,6.6-16,15.9-16s15.9,7,15.9,16c0,9-6.6,16-15.9,16
			S340.2,225.1,340.2,216.1z M367.5,216.1c0-6.7-4.5-12.1-11.5-12.1s-11.5,5.5-11.5,12.1c0,6.7,4.5,12.1,11.5,12.1
			S367.5,222.7,367.5,216.1z"/>
		<path id="XMLID_8585_" class="st30" d="M403.8,214.3v15c-3,1.8-7.8,2.8-11.5,2.8c-10.3,0-16.3-7.4-16.3-16c0-9,6.6-16,15.9-16
			c5.6,0,9,1.5,11.4,4l-2.9,3.1c-2.5-2.4-5.4-3.2-8.4-3.2c-7,0-11.5,5.5-11.5,12.1c0,6.9,5.1,12.1,11.8,12.1c2.9,0,5.6-0.6,7.5-1.6
			v-8.5h-6.8v-3.9H403.8z"/>
		<path id="XMLID_8587_" class="st30" d="M409.4,216.1c0-9,6.6-16,15.9-16c9.3,0,15.9,7,15.9,16c0,9-6.6,16-15.9,16
			C416,232.1,409.4,225.1,409.4,216.1z M436.8,216.1c0-6.7-4.5-12.1-11.5-12.1s-11.5,5.5-11.5,12.1c0,6.7,4.5,12.1,11.5,12.1
			S436.8,222.7,436.8,216.1z"/>
		<path id="XMLID_8590_" class="st30" d="M328.1,252.4h4.1v12.6H348v-12.6h4.1v30.4H348V269h-15.8v13.9h-4.1V252.4z"/>
		<path id="XMLID_8592_" class="st30" d="M359.9,252.4h19.7v3.9h-15.5v9.1h14.4v3.9h-14.4v9.8h16.3v3.9h-20.4V252.4z"/>
		<path id="XMLID_8594_" class="st30" d="M386.2,252.4h10.7c7.8,0,9.8,4.7,9.8,8.5c0,3.9-2.9,7.5-7.5,8l8.6,13.9h-5.2l-7.7-13.4
			h-4.6v13.4h-4.1V252.4z M390.3,265.9h5.4c3.3,0,6.5-0.8,6.5-4.9s-3.3-4.9-6.5-4.9h-5.4V265.9z"/>
		<path id="XMLID_8597_" class="st30" d="M412.5,252.4h19.7v3.9h-15.5v9.1h14.4v3.9h-14.4v9.8h16.3v3.9h-20.4V252.4z"/>
	</g>
</g>
</svg>
