<?xml version="1.0" encoding="utf-8"?>
<!-- Generator: Adobe Illustrator 16.0.0, SVG Export Plug-In . SVG Version: 6.00 Build 0)  -->
<!DOCTYPE svg PUBLIC "-//W3C//DTD SVG 1.1//EN" "http://www.w3.org/Graphics/SVG/1.1/DTD/svg11.dtd">
<svg version="1.1" id="Layer_2" xmlns="http://www.w3.org/2000/svg" xmlns:xlink="http://www.w3.org/1999/xlink" x="0px" y="0px"
	 width="759px" height="439px" viewBox="0 0 759 439" style="enable-background:new 0 0 759 439;" xml:space="preserve">
<style type="text/css">
<![CDATA[
	.st0{fill:#4659A7;}
	.st1{fill:#7DA0D4;}
	.st2{fill:#7F5E26;}
	.st3{fill:#151943;}
	.st4{fill:#171719;}
	.st5{fill:#172919;}
	.st6{fill:#18331B;}
	.st7{fill:#E72834;}
	.st8{fill:#E7E9E9;}
	.st9{fill:#E8EAEA;}
	.st10{fill-rule:evenodd;clip-rule:evenodd;fill:none;stroke:#E4C54B;stroke-width:1.7463;stroke-miterlimit:10;}
	.st11{fill:#EAE71E;}
	.st12{fill:#EB185B;}
	.st13{fill:#EC2127;}
	.st14{fill:#503C2C;}
	.st15{fill:#507FC1;}
	.st16{fill:#542D8B;}
	.st17{fill:#8C6828;}
	.st18{fill:#BF2327;}
	.st19{fill:#231F20;}
	.st20{fill:#F7F3A3;}
	.st21{fill-rule:evenodd;clip-rule:evenodd;fill:none;stroke:#E4C54B;stroke-width:2.6195;stroke-miterlimit:10;}
	.st22{fill:#C2922E;}
	.st23{fill:#C597C5;}
	.st24{fill:#966828;}
	.st25{fill:#2B378B;}
	.st26{fill:#FAA532;}
	.st27{fill:#FBCA28;}
	.st28{fill:#FBCD36;}
	.st29{fill-rule:evenodd;clip-rule:evenodd;}
	.st30{fill:#FFFFFF;}
	.st31{fill-rule:evenodd;clip-rule:evenodd;fill:#F0CEE3;}
	.st32{fill:#FFFFFF;stroke:#7DA0D4;stroke-miterlimit:10;}
	.st33{fill:none;}
	.st34{fill:#231F20;stroke:#231F20;stroke-width:0.5;stroke-miterlimit:10;}
	.st35{fill:#679B9B;}
	.st36{fill:#9B732B;}
	.st37{fill:#CB7361;}
	.st38{fill:#CC2228;}
	.st39{fill:#311C10;}
	.st40{fill:#EC2127;stroke:#EC2127;stroke-width:0.5;stroke-miterlimit:10;}
	.st41{fill:#381414;}
	.st42{fill-rule:evenodd;clip-rule:evenodd;fill:#FBCDCD;}
	.st43{fill:#010101;}
	.st44{fill-rule:evenodd;clip-rule:evenodd;fill:#FFFFFF;}
	.st45{fill:#FFFFFF;stroke:#FFFFFF;stroke-miterlimit:10;}
	.st46{fill-rule:evenodd;clip-rule:evenodd;fill:#641E0F;}
	.st47{fill:#D3D3D3;}
	.st48{fill:#060707;}
	.st49{fill:#080908;}
	.st50{fill:#721212;}
	.st51{fill:#0E8141;}
	.st52{fill:#424143;}
	.st53{fill:#4259A8;}
]]>
</style>
<g id="XMLID_10166_">
	<path id="XMLID_1517_" class="st25" d="M759,151.8H472.2C452.7,116.4,418.5,93,379.5,93c-39,0-73.2,23.4-92.7,58.8H0v135.5h286.8
		c19.5,35.3,53.7,58.8,92.7,58.8c39,0,73.2-23.4,92.7-58.8H759V151.8z"/>
	<g id="XMLID_914_">
		<rect id="XMLID_1039_" x="283.1" y="201.4" class="st30" width="11.2" height="64"/>
		<rect id="XMLID_1041_" x="305.8" y="201.4" class="st30" width="11.2" height="64"/>
		<rect id="XMLID_1042_" x="328.5" y="201.4" class="st30" width="11.2" height="64"/>
		<rect id="XMLID_1043_" x="351.2" y="201.4" class="st30" width="11.2" height="64"/>
		<g id="XMLID_1499_">
			<rect id="XMLID_1048_" x="396.6" y="201.4" class="st30" width="11.2" height="64"/>
			<rect id="XMLID_1047_" x="419.3" y="201.4" class="st30" width="11.2" height="64"/>
			<rect id="XMLID_1046_" x="441.9" y="201.4" class="st30" width="11.2" height="64"/>
			<rect id="XMLID_1045_" x="464.6" y="201.4" class="st30" width="11.2" height="64"/>
		</g>
		<rect id="XMLID_1044_" x="373.9" y="186.5" class="st30" width="11.2" height="78.9"/>
		<polygon id="XMLID_1040_" class="st30" points="296.3,186.9 288.7,198.7 281.2,186.9 288.7,174 		"/>
		<polygon id="XMLID_1050_" class="st30" points="319,186.9 311.4,198.7 303.9,186.9 311.4,174 		"/>
		<polygon id="XMLID_1051_" class="st30" points="341.7,186.9 334.1,198.7 326.6,186.9 334.1,174 		"/>
		<polygon id="XMLID_1052_" class="st30" points="364.4,186.9 356.8,198.7 349.3,186.9 356.8,174 		"/>
		<g id="XMLID_1049_">
			<polygon id="XMLID_1498_" class="st30" points="409.7,186.9 402.2,198.7 394.6,186.9 402.2,174 			"/>
			<polygon id="XMLID_1497_" class="st30" points="432.4,186.9 424.9,198.7 417.3,186.9 424.9,174 			"/>
			<polygon id="XMLID_1496_" class="st30" points="455.1,186.9 447.6,198.7 440,186.9 447.6,174 			"/>
			<polygon id="XMLID_1054_" class="st30" points="477.8,186.9 470.3,198.7 462.7,186.9 470.3,174 			"/>
		</g>
		<polygon id="XMLID_1053_" class="st30" points="387,171.3 379.5,183.2 372,171.3 379.5,158.5 		"/>
		<path id="XMLID_1504_" class="st30" d="M475.9,265.4h-95.1h-2.6h-95.1l13.2,14.5l66.1,17.8L339.7,335c0,0,3.9,3.3,16.7,6.9
			c12.8,3.6,21.7,3.1,21.7,3.1v0h2.6v0c0,0,8.9,0.5,21.7-3.1c12.8-3.6,16.7-6.9,16.7-6.9l-22.7-37.3l66.1-17.8L475.9,265.4z"/>
	</g>
	<g id="XMLID_8167_">
		<path id="XMLID_8168_" class="st30" d="M359.3,133.3c0.1,0.9-0.2,2.1-0.9,3.6s-1.5,2.5-2.6,3.2c0.6,3.4,0.7,6.5,0.1,9.4
			c-0.6,2.8-1.6,4.9-3.1,6.2c-1.5,1.3-2.6,2.1-3.4,2.2c-0.9,0.2-1.6,0-2.3-0.3c-0.7-0.4-1.1-0.8-1.4-1.2c-0.3-0.4-0.5-0.9-0.6-1.5
			c-0.1-0.8,0-1.9,0.4-3.5c0.4-1.5,1.2-3.2,2.3-4.9c1.1-1.8,2.8-3.5,4.9-5.3c0-0.3,0-0.9-0.1-2c-0.1-1,0-1.9,0.1-2.6
			c-0.7,1.2-1.7,2.2-3,3.1c-1.3,0.9-2.6,1.4-4,1.7c-0.6,0.1-1.1,0.2-1.6,0.2c-0.4,0-1.2-0.1-2.4-0.4s-2.2-1.1-3.2-2.5
			c-1-1.4-1.6-3-2-5c-0.6-3.4-0.5-6.7,0.3-9.7c0.8-3,2.1-5.4,3.9-7.2c1.7-1.8,3.1-3,4.1-3.6s2-1.1,3-1.2c0.7-0.1,1.4-0.1,2.1,0
			c0.7,0.1,1.4,0.4,2.2,0.9c0.8,0.5,1.4,1.1,1.8,1.8c0.5,0.8,0.8,1.6,1,2.6c0.1,0.7,0.2,2,0.1,4c0,1.9-0.8,3.4-2.3,4.4
			c-1.5,1-2.5,1.6-3,1.7c-0.7,0.1-1.4,0.1-2.1-0.2c-0.7-0.3-1.3-0.7-1.8-1.2c-0.5-0.5-0.8-1.1-0.9-1.8c-0.2-1-0.1-1.9,0.3-2.9
			c0.3-1,0.8-1.6,1.4-1.9c-0.3,0.3-0.5,0.7-0.6,1.3s-0.1,1.1,0,1.8c0.2,0.9,0.5,1.6,1,2.2c0.5,0.6,1.1,1.1,1.8,1.4
			c0.7,0.3,1.3,0.4,1.9,0.3c0.4-0.1,0.9-0.3,1.4-0.7c0.5-0.4,1-1.2,1.4-2.4c0.4-1.2,0.5-2.2,0.5-2.9c-0.1-0.8-0.1-1.2-0.1-1.3
			c0-0.1,0-0.2-0.1-0.3c-0.2-1.3-0.8-2.4-1.7-3.3c-0.9-0.9-1.7-1.4-2.5-1.6c-0.8-0.2-1.4-0.3-1.7-0.4c-0.3,0-0.7,0-1.1,0.1
			c-1.3,0.2-2.5,0.8-3.8,1.8s-2.2,2.1-2.9,3.5c-0.6,1.3-1.1,3.1-1.3,5.3c-0.2,2.2-0.2,4.4,0.2,6.6c0.3,1.4,0.6,2.8,1.1,4
			c0.5,1.3,1.1,2.5,1.9,3.6c0.7,0.7,1.5,1.2,2.4,1.5s1.8,0.3,2.8,0.1c0.7-0.1,1.4-0.4,2.1-0.7c1.6-0.8,2.8-2.3,3.6-4.6
			c0.5-1.5,0.8-2.7,1-3.3c0,0.7,0.1,1.7,0.2,2.8c0.1,1.2,0.2,2.1,0.4,2.8c0.2,0.9,0.4,1.8,0.6,2.4c0.9-0.5,1.7-1.4,2.3-2.6
			C358.5,135.5,358.9,134.4,359.3,133.3z M353,142c-1.8,1.3-3.2,3-4.4,5.2c-1.2,2.2-1.6,4.3-1.2,6.2c0,0.2,0.1,0.6,0.2,1
			s0.5,0.9,1.1,1.3s1.3,0.7,1.9,0.6c0.3-0.1,0.8-0.4,1.7-1c0.9-0.6,1.4-1.7,1.7-3.3c0.3-1.6,0.3-3.5-0.1-5.6
			c-0.1-0.7-0.3-1.6-0.6-2.7C353.1,142.6,353,142,353,142z"/>
		<path id="XMLID_8171_" class="st30" d="M371,132.6c-0.6,1.7-1.5,3-2.7,4.2s-2.6,1.7-4.3,1.9c-0.9,0.1-1.7-0.1-2.4-0.4
			c-0.7-0.3-1.3-0.9-1.6-1.7c-0.4-0.8-0.6-1.6-0.6-2.5c-0.1-0.9,0-1.8,0.3-2.7c0.3-0.9,0.7-1.7,1.3-2.5s1.2-1.4,1.9-1.9
			c0.7-0.5,1.5-0.8,2.2-0.9c0.5,0,0.9,0,1.3,0.2c0.4,0.2,0.6,0.5,0.9,0.9c0.2,0.4,0.3,0.8,0.4,1.1c0,0.4,0,0.9-0.2,1.3
			c-0.2,0.5-0.5,1-1,1.6c-0.4,0.6-1.1,1.1-2.1,1.5c-0.9,0.4-1.7,0.7-2.4,0.9c0,0.5,0.1,1,0.2,1.4c0.1,0.4,0.2,0.9,0.5,1.3
			c0.2,0.4,0.6,0.8,1.2,1c0.5,0.3,1.1,0.4,1.7,0.3c0.5,0,1-0.2,1.7-0.6c0.7-0.4,1.4-1,2-1.9C369.8,134.3,370.4,133.4,371,132.6z
			 M365.3,128.3c0-0.1,0-0.1,0-0.2c0-0.1,0-0.1,0-0.1c0-0.4-0.1-0.6-0.3-0.8c-0.2-0.2-0.5-0.2-0.8-0.2c-0.3,0-0.6,0.1-0.9,0.3
			c-0.3,0.2-0.6,0.6-0.9,1.1c-0.3,0.6-0.5,1.2-0.6,1.8c-0.1,0.6-0.1,1.4,0,2.3l0,0.6c0.9-0.4,1.6-1,2.3-1.8
			C364.8,130.5,365.2,129.5,365.3,128.3z"/>
		<path id="XMLID_8174_" class="st30" d="M378.1,130.8c-0.5,1.8-1,3.3-1.6,4.5c-0.6,1.2-1.4,2-2.1,2.3c-0.8,0.3-1.3,0.5-1.5,0.5
			c-0.5,0-1-0.2-1.5-0.5c-0.5-0.4-0.7-0.8-0.8-1.3l-0.5-16.4c0-0.2,0.2-0.4,0.5-0.5s0.7-0.2,1-0.2c0.4,0,0.6,0.1,0.7,0.3l0.2,6.3
			l2.9-0.1l-0.2,0.4l-2.6,0.1l0.3,9.9c0,0.1,0.1,0.3,0.4,0.5c0.3,0.2,0.6,0.3,0.9,0.3c0.6,0,1.3-0.5,2-1.4
			C376.7,134.6,377.4,133,378.1,130.8z"/>
		<path id="XMLID_8176_" class="st30" d="M408.8,133.3c-0.6,1.6-1.6,2.9-3.1,4.1c-1.5,1.2-3.1,1.7-4.9,1.5c-1.4-0.1-2.7-0.4-3.7-0.8
			c-1.1-0.4-2.4-1-3.8-1.7c-1,0.5-2,1-3,1.3c-1,0.3-2,0.4-2.9,0.3c-0.5,0-1-0.2-1.4-0.3s-0.8-0.4-1.2-0.7c-0.4-0.3-0.7-0.6-0.9-1
			c-0.2-0.4-0.3-0.7-0.2-1.1c0-0.4,0.3-0.8,0.7-1.3c0.4-0.5,1.1-0.8,1.9-1c0.8-0.2,1.8-0.3,2.9-0.2c0.5,0,0.9,0.1,1.2,0.2
			c0.3,0.1,0.7,0.2,1.4,0.3c0.6,0.2,1.2,0.3,1.7,0.6c0.5,0.2,1,0.5,1.4,0.7c0.3-0.6,0.6-1.2,0.8-1.8c0.2-0.6,0.3-1.2,0.4-1.9
			c0.1-1.1,0-2.4-0.3-3.8c-0.3-1.4-0.6-2.9-0.9-4.3c-0.3-1.5-0.4-2.7-0.3-3.7c0.1-1,0.3-1.8,0.7-2.6c0.4-0.8,0.9-1.6,1.7-2.4
			c0.8-0.8,1.9-1.5,3.2-2c1.3-0.5,2.6-0.7,3.9-0.6c0.8,0.1,1.5,0.3,2.2,0.6c0.6,0.4,1.3,1,1.8,1.9c0.6,0.9,0.8,2,0.7,3.4
			c-0.1,0.7-0.3,1.4-0.6,2.1c-0.3,0.7-0.7,1.4-1.2,2c-0.5,0.6-0.9,1-1.3,1.3c-0.4,0.3-1.4,0.8-3.1,1.6c1.2-0.9,2.2-1.8,2.9-2.8
			c0.7-0.9,1.2-2.1,1.3-3.4c0.1-1.4-0.1-2.6-0.6-3.8c-0.5-1.1-1.2-1.8-1.9-2.1c-0.8-0.2-1.3-0.4-1.8-0.4c-0.8-0.1-1.5,0-2.2,0.3
			c-0.7,0.3-1.3,0.7-1.8,1.2s-0.8,0.9-1,1.2c-0.2,0.3-0.3,0.6-0.4,0.8c-0.1,0.3-0.1,0.5-0.1,0.6c0,0.2,0,0.3,0,0.4
			c-0.1,1.2,0,2.6,0.4,4.1c0.4,1.6,0.8,3.1,1.2,4.7c0.4,1.6,0.5,2.9,0.4,4c-0.1,1.1-0.4,2-0.9,2.9c-0.5,0.9-1.3,1.7-2.5,2.4
			c1.1,0.7,2.2,1.4,3.4,1.9c1.2,0.5,2.3,0.8,3.5,1c0.8,0.1,1.6,0,2.3-0.1c0.7-0.2,1.3-0.4,1.8-0.8c0.5-0.4,1-0.9,1.4-1.5
			C408.2,134,408.5,133.5,408.8,133.3z M392.7,136.3c-0.2-0.1-0.9-0.7-2.1-1.6c-1.2-0.9-2.3-1.5-3.2-1.6c-0.4,0-0.8,0-1.1,0.1
			c-0.3,0.1-0.6,0.3-1,0.6c-0.4,0.3-0.6,0.7-0.6,1.1c-0.1,0.8,0.1,1.4,0.6,1.8c0.5,0.3,0.9,0.6,1.3,0.7c0.4,0.1,0.8,0.2,1.2,0.2
			c0.8,0.1,1.7,0,2.6-0.2C391.2,137.1,392,136.8,392.7,136.3z"/>
		<path id="XMLID_8179_" class="st30" d="M415,135.6c-0.1,0.4-0.3,0.7-0.4,0.9c-0.1,0.2-0.6,0.7-1.5,1.7c-0.9,0.9-1.6,1.6-2.2,2.2
			s-1.3,0.7-2.2,0.5c-0.3-0.1-0.7-0.2-1.2-0.5c-0.5-0.3-0.7-0.9-0.5-1.6l2-10.6l2.3,0.4c-0.2,1-0.5,2.6-0.9,4.8
			c-0.4,2.2-0.7,3.8-0.9,4.7c-0.1,0.5-0.1,0.9-0.1,1.2c0.1,0.3,0.2,0.5,0.6,0.4c0.8,0,1.6-0.5,2.5-1.4
			C413.3,137.3,414.2,136.4,415,135.6z M413,118.3l-0.5,2.5l-2.3-0.4l0.5-2.5L413,118.3z"/>
		<path id="XMLID_8182_" class="st30" d="M422.2,136.1c-0.9,1.6-1.8,2.9-2.7,3.9c-0.9,1-1.8,1.6-2.7,1.7c-0.9,0.1-1.4,0.2-1.6,0.1
			c-0.5-0.1-1-0.4-1.3-0.9c-0.4-0.5-0.5-1-0.4-1.5l3.7-16c0-0.2,0.2-0.3,0.6-0.4c0.3-0.1,0.7-0.1,1.1,0c0.4,0.1,0.6,0.3,0.5,0.5
			l-1.4,6.2l2.8,0.6l-0.3,0.4l-2.6-0.6l-2.2,9.7c0,0.1,0.1,0.3,0.3,0.6c0.2,0.3,0.5,0.4,0.8,0.5c0.6,0.1,1.4-0.1,2.3-0.8
			C419.9,139.4,421,138,422.2,136.1z"/>
	</g>
</g>
</svg>
