<?xml version="1.0" encoding="utf-8"?>
<!-- Generator: Adobe Illustrator 16.0.0, SVG Export Plug-In . SVG Version: 6.00 Build 0)  -->
<!DOCTYPE svg PUBLIC "-//W3C//DTD SVG 1.1//EN" "http://www.w3.org/Graphics/SVG/1.1/DTD/svg11.dtd">
<svg version="1.1" id="Layer_2" xmlns="http://www.w3.org/2000/svg" xmlns:xlink="http://www.w3.org/1999/xlink" x="0px" y="0px"
	 width="759px" height="439px" viewBox="0 0 759 439" style="enable-background:new 0 0 759 439;" xml:space="preserve">
<style type="text/css">
<![CDATA[
	.st0{fill:#4659A7;}
	.st1{fill:#7DA0D4;}
	.st2{fill:#7F5E26;}
	.st3{fill:#151943;}
	.st4{fill:#171719;}
	.st5{fill:#172919;}
	.st6{fill:#18331B;}
	.st7{fill:#E72834;}
	.st8{fill:#E7E9E9;}
	.st9{fill:#E8EAEA;}
	.st10{fill-rule:evenodd;clip-rule:evenodd;fill:none;stroke:#E4C54B;stroke-width:1.7463;stroke-miterlimit:10;}
	.st11{fill:#EAE71E;}
	.st12{fill:#EB185B;}
	.st13{fill:#EC2127;}
	.st14{fill:#503C2C;}
	.st15{fill:#507FC1;}
	.st16{fill:#542D8B;}
	.st17{fill:#8C6828;}
	.st18{fill:#BF2327;}
	.st19{fill:#231F20;}
	.st20{fill:#F7F3A3;}
	.st21{fill-rule:evenodd;clip-rule:evenodd;fill:none;stroke:#E4C54B;stroke-width:2.6195;stroke-miterlimit:10;}
	.st22{fill:#C2922E;}
	.st23{fill:#C597C5;}
	.st24{fill:#966828;}
	.st25{fill:#2B378B;}
	.st26{fill:#FAA532;}
	.st27{fill:#FBCA28;}
	.st28{fill:#FBCD36;}
	.st29{fill-rule:evenodd;clip-rule:evenodd;}
	.st30{fill:#FFFFFF;}
	.st31{fill-rule:evenodd;clip-rule:evenodd;fill:#F0CEE3;}
	.st32{fill:#FFFFFF;stroke:#7DA0D4;stroke-miterlimit:10;}
	.st33{fill:none;}
	.st34{fill:#231F20;stroke:#231F20;stroke-width:0.5;stroke-miterlimit:10;}
	.st35{fill:#679B9B;}
	.st36{fill:#9B732B;}
	.st37{fill:#CB7361;}
	.st38{fill:#CC2228;}
	.st39{fill:#311C10;}
	.st40{fill:#EC2127;stroke:#EC2127;stroke-width:0.5;stroke-miterlimit:10;}
	.st41{fill:#381414;}
	.st42{fill-rule:evenodd;clip-rule:evenodd;fill:#FBCDCD;}
	.st43{fill:#010101;}
	.st44{fill-rule:evenodd;clip-rule:evenodd;fill:#FFFFFF;}
	.st45{fill:#FFFFFF;stroke:#FFFFFF;stroke-miterlimit:10;}
	.st46{fill-rule:evenodd;clip-rule:evenodd;fill:#641E0F;}
	.st47{fill:#D3D3D3;}
	.st48{fill:#060707;}
	.st49{fill:#080908;}
	.st50{fill:#721212;}
	.st51{fill:#0E8141;}
	.st52{fill:#424143;}
	.st53{fill:#4259A8;}
]]>
</style>
<g id="XMLID_10194_">
	<path id="XMLID_1531_" class="st0" d="M759,151.8H472.2C452.7,116.4,418.5,93,379.5,93c-39,0-73.2,23.4-92.7,58.8H0v135.5h286.8
		c19.5,35.3,53.7,58.8,92.7,58.8c39,0,73.2-23.4,92.7-58.8H759V151.8z"/>
	<g id="XMLID_8184_">
		<path id="XMLID_8185_" class="st30" d="M310.6,175.3c0,0.3,0,0.6,0,0.8c0,0.2-0.1,0.4-0.1,0.6c-0.1,0.1-0.1,0.3-0.2,0.3
			c-0.1,0.1-0.2,0.1-0.3,0.1h-9.8c-0.4,0-0.7-0.1-0.9-0.3s-0.4-0.6-0.4-1v-19.4c0-0.1,0-0.2,0.1-0.3c0.1-0.1,0.2-0.2,0.4-0.2
			c0.2-0.1,0.4-0.1,0.7-0.1c0.3,0,0.6,0,1,0c0.4,0,0.8,0,1.1,0s0.5,0.1,0.7,0.1c0.2,0.1,0.3,0.1,0.4,0.2c0.1,0.1,0.1,0.2,0.1,0.3
			v17.2h6.7c0.1,0,0.2,0,0.3,0.1c0.1,0.1,0.2,0.2,0.2,0.3c0.1,0.1,0.1,0.3,0.1,0.5C310.5,174.7,310.6,175,310.6,175.3z"/>
		<path id="XMLID_8187_" class="st30" d="M325.4,176.6c0,0.2-0.1,0.3-0.2,0.4c-0.1,0.1-0.3,0.2-0.5,0.2c-0.2,0-0.6,0.1-1,0.1
			c-0.5,0-0.9,0-1.1-0.1c-0.2,0-0.4-0.1-0.5-0.2c-0.1-0.1-0.1-0.2-0.1-0.4v-1.2c-0.6,0.7-1.3,1.2-2.1,1.5c-0.8,0.4-1.6,0.5-2.6,0.5
			c-0.8,0-1.5-0.1-2.2-0.3c-0.7-0.2-1.2-0.5-1.7-0.9c-0.5-0.4-0.9-0.9-1.1-1.5c-0.3-0.6-0.4-1.3-0.4-2.1c0-0.9,0.2-1.6,0.5-2.2
			c0.3-0.6,0.8-1.2,1.5-1.6c0.7-0.4,1.5-0.7,2.5-0.9c1-0.2,2.1-0.3,3.5-0.3h1.4v-0.9c0-0.5,0-0.9-0.1-1.2c-0.1-0.3-0.2-0.6-0.5-0.9
			c-0.2-0.2-0.5-0.4-0.9-0.5c-0.4-0.1-0.8-0.2-1.3-0.2c-0.7,0-1.3,0.1-1.9,0.2s-1,0.3-1.4,0.5c-0.4,0.2-0.8,0.4-1,0.5
			c-0.3,0.2-0.5,0.2-0.7,0.2c-0.1,0-0.2,0-0.3-0.1c-0.1-0.1-0.2-0.2-0.2-0.3c-0.1-0.1-0.1-0.3-0.1-0.5c0-0.2,0-0.4,0-0.7
			c0-0.3,0-0.6,0.1-0.8c0.1-0.2,0.2-0.4,0.3-0.5c0.2-0.2,0.4-0.3,0.8-0.5c0.4-0.2,0.8-0.4,1.4-0.5c0.5-0.2,1.1-0.3,1.7-0.4
			c0.6-0.1,1.2-0.2,1.9-0.2c1.2,0,2.1,0.1,3,0.3c0.8,0.2,1.5,0.6,2,1c0.5,0.5,0.9,1.1,1.2,1.8s0.4,1.6,0.4,2.6V176.6z M321.4,170.3
			h-1.6c-0.7,0-1.2,0-1.7,0.1s-0.9,0.2-1.2,0.4c-0.3,0.2-0.5,0.4-0.7,0.7s-0.2,0.6-0.2,1c0,0.6,0.2,1.1,0.6,1.5
			c0.4,0.4,0.9,0.5,1.6,0.5c0.6,0,1.1-0.1,1.6-0.4c0.5-0.3,1-0.7,1.5-1.3V170.3z"/>
		<path id="XMLID_8190_" class="st30" d="M338,175.1c0,0.5,0,0.9-0.1,1.1c-0.1,0.3-0.1,0.4-0.2,0.5c-0.1,0.1-0.2,0.2-0.4,0.3
			c-0.2,0.1-0.4,0.2-0.7,0.2c-0.3,0.1-0.5,0.1-0.8,0.1c-0.3,0-0.6,0-0.9,0c-0.8,0-1.5-0.1-2.1-0.3c-0.6-0.2-1.1-0.5-1.5-1
			c-0.4-0.4-0.7-1-0.9-1.6s-0.3-1.4-0.3-2.3v-7.6h-1.8c-0.2,0-0.4-0.1-0.5-0.4c-0.1-0.3-0.2-0.7-0.2-1.3c0-0.3,0-0.6,0-0.8
			c0-0.2,0.1-0.4,0.1-0.5c0.1-0.1,0.1-0.2,0.2-0.3s0.2-0.1,0.3-0.1h1.8V158c0-0.1,0-0.2,0.1-0.3c0.1-0.1,0.2-0.2,0.3-0.2
			c0.2-0.1,0.4-0.1,0.6-0.1c0.3,0,0.6,0,1,0c0.4,0,0.7,0,1,0c0.3,0,0.5,0.1,0.6,0.1c0.2,0.1,0.3,0.1,0.3,0.2
			c0.1,0.1,0.1,0.2,0.1,0.3v3.3h3.2c0.1,0,0.2,0,0.3,0.1s0.2,0.1,0.2,0.3c0.1,0.1,0.1,0.3,0.1,0.5c0,0.2,0,0.5,0,0.8
			c0,0.6-0.1,1-0.2,1.3c-0.1,0.3-0.3,0.4-0.5,0.4h-3.2v6.9c0,0.8,0.1,1.4,0.4,1.8s0.7,0.6,1.4,0.6c0.2,0,0.4,0,0.6-0.1
			c0.2,0,0.3-0.1,0.5-0.1c0.1,0,0.3-0.1,0.3-0.1s0.2-0.1,0.3-0.1c0.1,0,0.1,0,0.2,0.1c0.1,0,0.1,0.1,0.1,0.2c0,0.1,0.1,0.3,0.1,0.5
			C338,174.5,338,174.8,338,175.1z"/>
		<path id="XMLID_8192_" class="st30" d="M354.7,176.6c0,0.1,0,0.2-0.1,0.3c-0.1,0.1-0.2,0.1-0.3,0.2c-0.2,0-0.4,0.1-0.7,0.1
			s-0.6,0-1.1,0c-0.5,0-0.8,0-1.1,0c-0.3,0-0.5-0.1-0.7-0.1c-0.2,0-0.3-0.1-0.4-0.2c-0.1-0.1-0.2-0.2-0.3-0.3l-4.9-7.8v7.8
			c0,0.1,0,0.2-0.1,0.3c-0.1,0.1-0.2,0.2-0.3,0.2c-0.2,0.1-0.4,0.1-0.6,0.1c-0.3,0-0.6,0-1,0s-0.7,0-1,0c-0.3,0-0.5-0.1-0.6-0.1
			c-0.2-0.1-0.3-0.1-0.3-0.2c-0.1-0.1-0.1-0.2-0.1-0.3v-21.7c0-0.1,0-0.2,0.1-0.3s0.2-0.2,0.3-0.2s0.4-0.1,0.6-0.1c0.3,0,0.6,0,1,0
			s0.7,0,1,0c0.3,0,0.5,0.1,0.6,0.1c0.2,0.1,0.3,0.1,0.3,0.2c0.1,0.1,0.1,0.2,0.1,0.3v12.9l4.4-5.9c0.1-0.1,0.2-0.2,0.3-0.3
			c0.1-0.1,0.3-0.2,0.4-0.2s0.4-0.1,0.7-0.1s0.6,0,1,0c0.4,0,0.8,0,1,0c0.3,0,0.5,0.1,0.7,0.1s0.3,0.1,0.4,0.2
			c0.1,0.1,0.1,0.2,0.1,0.3c0,0.2,0,0.3-0.1,0.5c-0.1,0.2-0.2,0.4-0.4,0.6l-4.3,4.9l5,7.7c0.1,0.2,0.2,0.4,0.3,0.6
			C354.7,176.3,354.7,176.5,354.7,176.6z"/>
		<path id="XMLID_8194_" class="st30" d="M370,168.8c0,0.5-0.1,0.9-0.3,1.1c-0.2,0.2-0.5,0.4-0.9,0.4h-9c0,0.6,0.1,1.2,0.2,1.7
			c0.1,0.5,0.4,0.9,0.7,1.3c0.3,0.4,0.7,0.6,1.3,0.8c0.5,0.2,1.1,0.3,1.8,0.3c0.7,0,1.4-0.1,1.9-0.2s1-0.2,1.4-0.3
			c0.4-0.1,0.7-0.2,1-0.3c0.3-0.1,0.5-0.2,0.6-0.2c0.1,0,0.2,0,0.2,0.1c0.1,0,0.1,0.1,0.2,0.2c0,0.1,0.1,0.2,0.1,0.4
			c0,0.2,0,0.4,0,0.7c0,0.2,0,0.4,0,0.6c0,0.2,0,0.3,0,0.4s-0.1,0.2-0.1,0.3c0,0.1-0.1,0.2-0.2,0.2c-0.1,0.1-0.3,0.2-0.6,0.3
			c-0.3,0.1-0.7,0.3-1.2,0.4c-0.5,0.1-1.1,0.2-1.7,0.3c-0.6,0.1-1.3,0.1-2,0.1c-1.3,0-2.5-0.2-3.4-0.5c-1-0.3-1.8-0.8-2.5-1.5
			c-0.7-0.7-1.2-1.5-1.5-2.5c-0.3-1-0.5-2.2-0.5-3.6c0-1.3,0.2-2.5,0.5-3.5c0.3-1.1,0.8-1.9,1.5-2.7c0.7-0.7,1.4-1.3,2.4-1.7
			c0.9-0.4,2-0.6,3.1-0.6c1.2,0,2.3,0.2,3.2,0.5c0.9,0.4,1.6,0.9,2.2,1.5c0.6,0.6,1,1.4,1.2,2.3c0.3,0.9,0.4,1.8,0.4,2.9V168.8z
			 M365.9,167.6c0-1.2-0.2-2.1-0.7-2.8c-0.5-0.7-1.3-1-2.3-1c-0.5,0-1,0.1-1.4,0.3c-0.4,0.2-0.7,0.5-1,0.8c-0.3,0.3-0.5,0.7-0.6,1.2
			c-0.1,0.5-0.2,0.9-0.2,1.5H365.9z"/>
		<path id="XMLID_8197_" class="st30" d="M383.8,172.4c0,0.8-0.2,1.6-0.5,2.2c-0.3,0.6-0.8,1.2-1.3,1.6c-0.6,0.4-1.3,0.8-2,1
			s-1.6,0.3-2.5,0.3c-0.6,0-1.1,0-1.6-0.1c-0.5-0.1-1-0.2-1.3-0.3c-0.4-0.1-0.7-0.3-1-0.4c-0.3-0.1-0.5-0.3-0.6-0.4
			c-0.1-0.1-0.2-0.3-0.3-0.5c-0.1-0.2-0.1-0.6-0.1-1.1c0-0.3,0-0.6,0-0.8c0-0.2,0.1-0.3,0.1-0.5c0-0.1,0.1-0.2,0.2-0.2
			c0.1,0,0.1-0.1,0.2-0.1c0.1,0,0.3,0.1,0.5,0.2c0.2,0.1,0.5,0.3,0.9,0.5c0.4,0.2,0.8,0.3,1.2,0.5c0.5,0.1,1,0.2,1.6,0.2
			c0.4,0,0.7,0,1-0.1c0.3-0.1,0.5-0.2,0.8-0.3c0.2-0.1,0.4-0.3,0.5-0.5c0.1-0.2,0.2-0.5,0.2-0.8c0-0.3-0.1-0.6-0.3-0.9
			c-0.2-0.2-0.5-0.4-0.8-0.6s-0.7-0.3-1.1-0.5s-0.9-0.3-1.3-0.5c-0.4-0.2-0.9-0.4-1.3-0.6c-0.4-0.2-0.8-0.5-1.1-0.9
			c-0.3-0.4-0.6-0.8-0.8-1.3c-0.2-0.5-0.3-1.1-0.3-1.8c0-0.7,0.1-1.4,0.4-1.9c0.3-0.6,0.7-1.1,1.2-1.5c0.5-0.4,1.1-0.7,1.9-1
			s1.6-0.3,2.5-0.3c0.5,0,0.9,0,1.3,0.1c0.4,0.1,0.8,0.1,1.2,0.2c0.4,0.1,0.7,0.2,0.9,0.3c0.2,0.1,0.4,0.2,0.5,0.3
			c0.1,0.1,0.2,0.2,0.2,0.2c0,0.1,0.1,0.2,0.1,0.3c0,0.1,0,0.3,0.1,0.4s0,0.4,0,0.6c0,0.3,0,0.5,0,0.7c0,0.2,0,0.3-0.1,0.4
			c0,0.1-0.1,0.2-0.2,0.2c-0.1,0-0.1,0.1-0.2,0.1c-0.1,0-0.3-0.1-0.5-0.2c-0.2-0.1-0.5-0.2-0.8-0.4s-0.7-0.3-1.1-0.4
			c-0.4-0.1-0.9-0.2-1.4-0.2c-0.4,0-0.7,0-1,0.1c-0.3,0.1-0.5,0.2-0.7,0.3c-0.2,0.1-0.3,0.3-0.4,0.5c-0.1,0.2-0.1,0.4-0.1,0.6
			c0,0.3,0.1,0.6,0.3,0.9c0.2,0.2,0.5,0.4,0.8,0.6c0.3,0.2,0.7,0.3,1.2,0.5s0.9,0.3,1.3,0.5s0.9,0.4,1.3,0.6
			c0.4,0.2,0.8,0.5,1.2,0.9c0.3,0.4,0.6,0.8,0.8,1.3C383.7,171.1,383.8,171.7,383.8,172.4z"/>
		<path id="XMLID_8199_" class="st30" d="M393.8,171.2c0-0.6,0.1-1.2,0.3-1.7c0.2-0.5,0.5-1.1,0.8-1.5c0.4-0.5,0.8-0.9,1.3-1.4
			c0.5-0.4,1.2-0.9,1.9-1.3c-0.4-0.5-0.7-1-1-1.4s-0.5-0.9-0.7-1.3c-0.2-0.4-0.3-0.8-0.4-1.2s-0.1-0.7-0.1-1.1
			c0-0.8,0.1-1.5,0.4-2.2c0.3-0.7,0.7-1.3,1.3-1.8s1.3-0.9,2.2-1.2c0.9-0.3,2-0.4,3.3-0.4c1.2,0,2.2,0.1,3,0.3
			c0.8,0.2,1.5,0.5,2.1,0.9c0.5,0.4,0.9,0.9,1.2,1.5c0.3,0.6,0.4,1.3,0.4,2c0,0.7-0.1,1.3-0.3,1.8c-0.2,0.6-0.6,1.1-1,1.6
			c-0.5,0.5-1,1-1.7,1.5c-0.7,0.5-1.5,0.9-2.4,1.4c0.3,0.3,0.6,0.7,1,1.1c0.4,0.4,0.7,0.8,1.1,1.1c0.4,0.4,0.8,0.8,1.2,1.1
			c0.4,0.4,0.8,0.7,1.2,1c0.1-0.2,0.3-0.5,0.4-0.8c0.1-0.3,0.2-0.6,0.3-0.9c0.1-0.3,0.1-0.6,0.2-1c0-0.3,0.1-0.7,0.1-1V166
			c0-0.1,0-0.2,0.1-0.3c0-0.1,0.1-0.2,0.3-0.2c0.1-0.1,0.3-0.1,0.6-0.1c0.3,0,0.6,0,1,0c0.4,0,0.7,0,1,0c0.3,0,0.5,0.1,0.6,0.1
			c0.1,0.1,0.3,0.1,0.3,0.2c0.1,0.1,0.1,0.2,0.1,0.4v0.5c0,0.5,0,1.1-0.1,1.6c-0.1,0.5-0.2,1.1-0.3,1.6c-0.1,0.5-0.3,1-0.6,1.5
			c-0.2,0.5-0.5,0.9-0.7,1.3c0.4,0.3,0.7,0.5,1,0.7c0.3,0.2,0.5,0.4,0.7,0.5c0.2,0.1,0.4,0.2,0.5,0.2c0.1,0,0.2,0.1,0.3,0.1
			c0.1,0,0.2,0,0.3,0s0.2,0,0.3,0.1c0.1,0.1,0.1,0.2,0.1,0.4c0,0.2,0,0.5,0,0.9c0,0.4,0,0.7,0,1s0,0.4-0.1,0.5s-0.1,0.2-0.2,0.3
			c-0.1,0.1-0.3,0.1-0.5,0.2c-0.2,0.1-0.5,0.1-0.8,0.1c-0.2,0-0.5,0-0.8-0.1c-0.3-0.1-0.6-0.2-0.9-0.3c-0.3-0.2-0.7-0.4-1.2-0.7
			c-0.5-0.3-1-0.6-1.6-1.1c-0.5,0.4-1.1,0.7-1.6,1c-0.6,0.3-1.1,0.5-1.7,0.7c-0.6,0.2-1.2,0.3-1.9,0.4c-0.6,0.1-1.3,0.1-2,0.1
			c-0.7,0-1.4-0.1-2.1-0.2c-0.7-0.1-1.3-0.3-1.9-0.5c-0.6-0.2-1.1-0.5-1.6-0.9c-0.5-0.3-0.9-0.7-1.3-1.2c-0.4-0.5-0.6-1-0.8-1.6
			C393.9,172.6,393.8,171.9,393.8,171.2z M398.3,170.9c0,0.5,0.1,0.9,0.3,1.3c0.2,0.4,0.4,0.7,0.8,1c0.3,0.3,0.7,0.5,1.2,0.7
			c0.5,0.2,1.1,0.2,1.7,0.2c0.3,0,0.7,0,1-0.1s0.6-0.1,1-0.2c0.3-0.1,0.6-0.2,0.9-0.4c0.3-0.1,0.5-0.3,0.8-0.5
			c-0.5-0.4-1-0.8-1.5-1.3c-0.5-0.4-1-0.9-1.5-1.3c-0.5-0.5-0.9-0.9-1.4-1.3c-0.4-0.4-0.8-0.9-1.2-1.3c-0.4,0.2-0.7,0.5-1,0.8
			c-0.3,0.3-0.5,0.5-0.6,0.8c-0.2,0.3-0.3,0.5-0.4,0.8C398.3,170.4,398.3,170.6,398.3,170.9z M400.2,160c0,0.2,0,0.5,0.1,0.7
			c0.1,0.2,0.2,0.5,0.3,0.8c0.1,0.3,0.3,0.6,0.5,0.9c0.2,0.3,0.4,0.6,0.7,1c0.7-0.4,1.2-0.7,1.6-1c0.4-0.3,0.8-0.6,1-0.9
			c0.3-0.3,0.5-0.6,0.6-0.8c0.1-0.3,0.2-0.6,0.2-0.9c0-0.3,0-0.5-0.1-0.7c-0.1-0.2-0.3-0.4-0.5-0.6c-0.2-0.2-0.5-0.3-0.8-0.4
			c-0.3-0.1-0.7-0.1-1.1-0.1c-0.5,0-0.9,0.1-1.2,0.2s-0.6,0.3-0.8,0.4s-0.4,0.4-0.5,0.7S400.2,159.7,400.2,160z"/>
		<path id="XMLID_8203_" class="st30" d="M316.6,200.1c0,2-0.3,3.6-0.8,5c-0.5,1.4-1.2,2.5-2.2,3.4c-1,0.9-2.1,1.5-3.5,1.9
			c-1.4,0.4-3,0.6-4.9,0.6h-5.1c-0.4,0-0.7-0.1-0.9-0.3s-0.4-0.6-0.4-1v-18.6c0-0.5,0.1-0.8,0.4-1c0.2-0.2,0.6-0.3,0.9-0.3h5.5
			c1.9,0,3.5,0.2,4.9,0.7c1.3,0.4,2.4,1.1,3.4,2c0.9,0.9,1.6,2,2.1,3.2C316.3,196.9,316.6,198.4,316.6,200.1z M312.1,200.3
			c0-1-0.1-2-0.4-2.8c-0.2-0.9-0.6-1.6-1.1-2.3c-0.5-0.6-1.2-1.1-2-1.5c-0.8-0.4-1.9-0.5-3.2-0.5h-2.2v14.5h2.3c1.2,0,2.2-0.2,3-0.5
			c0.8-0.3,1.5-0.8,2-1.4s1-1.4,1.2-2.3C311.9,202.6,312.1,201.5,312.1,200.3z"/>
		<path id="XMLID_8206_" class="st30" d="M329.4,197.2c0,0.4,0,0.7,0,1c0,0.3-0.1,0.5-0.1,0.6c0,0.1-0.1,0.2-0.2,0.3
			c-0.1,0.1-0.2,0.1-0.3,0.1c-0.1,0-0.2,0-0.3-0.1c-0.1,0-0.2-0.1-0.4-0.1c-0.1,0-0.3-0.1-0.5-0.1c-0.2,0-0.3-0.1-0.5-0.1
			c-0.2,0-0.5,0-0.7,0.1c-0.2,0.1-0.5,0.2-0.7,0.4c-0.2,0.2-0.5,0.5-0.8,0.8c-0.3,0.3-0.6,0.7-0.9,1.2v9.2c0,0.1,0,0.2-0.1,0.3
			c-0.1,0.1-0.2,0.2-0.3,0.2c-0.2,0.1-0.4,0.1-0.6,0.1c-0.3,0-0.6,0-1,0c-0.4,0-0.7,0-1,0c-0.3,0-0.5-0.1-0.6-0.1
			c-0.2-0.1-0.3-0.1-0.3-0.2c-0.1-0.1-0.1-0.2-0.1-0.3v-14.7c0-0.1,0-0.2,0.1-0.3c0.1-0.1,0.2-0.2,0.3-0.2c0.1-0.1,0.3-0.1,0.6-0.1
			c0.2,0,0.5,0,0.9,0c0.4,0,0.6,0,0.9,0c0.2,0,0.4,0.1,0.5,0.1c0.1,0.1,0.2,0.1,0.3,0.2c0.1,0.1,0.1,0.2,0.1,0.3v1.8
			c0.4-0.6,0.7-1,1.1-1.4c0.3-0.4,0.7-0.6,1-0.9c0.3-0.2,0.6-0.4,0.9-0.4c0.3-0.1,0.6-0.1,0.9-0.1c0.1,0,0.3,0,0.5,0s0.3,0,0.5,0.1
			c0.2,0,0.3,0.1,0.5,0.1c0.1,0,0.2,0.1,0.3,0.2c0.1,0.1,0.1,0.1,0.1,0.2c0,0.1,0.1,0.2,0.1,0.3s0,0.3,0,0.5
			C329.4,196.5,329.4,196.8,329.4,197.2z"/>
		<path id="XMLID_8208_" class="st30" d="M345.2,202.8c0,0.5-0.1,0.9-0.3,1.1c-0.2,0.2-0.5,0.4-0.9,0.4h-9c0,0.6,0.1,1.2,0.2,1.7
			c0.1,0.5,0.4,0.9,0.7,1.3c0.3,0.4,0.7,0.6,1.3,0.8c0.5,0.2,1.1,0.3,1.8,0.3c0.7,0,1.4-0.1,1.9-0.2c0.6-0.1,1-0.2,1.4-0.3
			s0.7-0.2,1-0.3c0.3-0.1,0.5-0.2,0.6-0.2c0.1,0,0.2,0,0.2,0.1c0.1,0,0.1,0.1,0.2,0.2s0.1,0.2,0.1,0.4c0,0.2,0,0.4,0,0.7
			c0,0.2,0,0.4,0,0.6c0,0.2,0,0.3,0,0.4c0,0.1-0.1,0.2-0.1,0.3c0,0.1-0.1,0.2-0.2,0.2c-0.1,0.1-0.3,0.2-0.6,0.3
			c-0.3,0.1-0.7,0.3-1.2,0.4c-0.5,0.1-1.1,0.2-1.7,0.3c-0.6,0.1-1.3,0.1-2,0.1c-1.3,0-2.5-0.2-3.4-0.5c-1-0.3-1.8-0.8-2.5-1.5
			c-0.7-0.7-1.2-1.5-1.5-2.5s-0.5-2.2-0.5-3.6c0-1.3,0.2-2.5,0.5-3.5c0.3-1.1,0.8-1.9,1.5-2.7c0.6-0.7,1.4-1.3,2.4-1.7
			c0.9-0.4,2-0.6,3.1-0.6c1.2,0,2.3,0.2,3.2,0.5c0.9,0.4,1.6,0.9,2.2,1.5c0.6,0.6,1,1.4,1.2,2.3c0.3,0.9,0.4,1.8,0.4,2.9V202.8z
			 M341.1,201.6c0-1.2-0.2-2.1-0.7-2.8c-0.5-0.7-1.3-1-2.3-1c-0.5,0-1,0.1-1.4,0.3c-0.4,0.2-0.7,0.5-1,0.8c-0.3,0.3-0.5,0.7-0.6,1.2
			c-0.1,0.5-0.2,0.9-0.2,1.5H341.1z"/>
		<path id="XMLID_8211_" class="st30" d="M353.1,190.8c0,0.8-0.2,1.4-0.5,1.7c-0.3,0.3-1,0.5-1.9,0.5c-0.9,0-1.6-0.2-1.9-0.5
			c-0.3-0.3-0.5-0.9-0.5-1.7c0-0.8,0.2-1.4,0.5-1.7c0.3-0.3,1-0.5,1.9-0.5c0.9,0,1.6,0.2,1.9,0.5C352.9,189.5,353.1,190,353.1,190.8
			z M352.8,210.6c0,0.1,0,0.2-0.1,0.3c-0.1,0.1-0.2,0.2-0.3,0.2c-0.2,0.1-0.4,0.1-0.6,0.1s-0.6,0-1,0s-0.7,0-1,0
			c-0.3,0-0.5-0.1-0.6-0.1c-0.2-0.1-0.3-0.1-0.3-0.2c-0.1-0.1-0.1-0.2-0.1-0.3v-14.7c0-0.1,0-0.2,0.1-0.3c0.1-0.1,0.2-0.2,0.3-0.2
			c0.2-0.1,0.4-0.1,0.6-0.1c0.3,0,0.6,0,1,0s0.7,0,1,0c0.3,0,0.5,0.1,0.6,0.1c0.2,0.1,0.3,0.1,0.3,0.2c0.1,0.1,0.1,0.2,0.1,0.3
			V210.6z"/>
		<path id="XMLID_8214_" class="st30" d="M370.9,210.6c0,0.1,0,0.2-0.1,0.3c-0.1,0.1-0.1,0.2-0.3,0.2c-0.1,0.1-0.3,0.1-0.5,0.1
			c-0.2,0-0.5,0-0.8,0c-0.4,0-0.6,0-0.9,0c-0.2,0-0.4-0.1-0.5-0.1c-0.1-0.1-0.2-0.1-0.3-0.2c-0.1-0.1-0.1-0.2-0.1-0.3v-1.6
			c-0.8,0.8-1.6,1.4-2.4,1.9c-0.8,0.5-1.8,0.7-2.8,0.7c-1.1,0-2.1-0.2-2.9-0.7c-0.8-0.4-1.4-1-1.9-1.8s-0.8-1.6-1.1-2.6
			c-0.2-1-0.3-2-0.3-3.1c0-1.3,0.1-2.5,0.4-3.5c0.3-1,0.7-1.9,1.2-2.7c0.5-0.7,1.2-1.3,2-1.7c0.8-0.4,1.7-0.6,2.8-0.6
			c0.8,0,1.6,0.2,2.2,0.5c0.7,0.3,1.3,0.8,2,1.5v-8c0-0.1,0-0.2,0.1-0.3c0.1-0.1,0.2-0.2,0.3-0.2s0.4-0.1,0.6-0.1c0.3,0,0.6,0,1,0
			s0.7,0,1,0c0.3,0,0.5,0.1,0.6,0.1s0.3,0.1,0.3,0.2c0.1,0.1,0.1,0.2,0.1,0.3V210.6z M366.8,200.7c-0.6-0.7-1.2-1.3-1.7-1.7
			c-0.5-0.4-1.1-0.6-1.7-0.6c-0.5,0-1,0.1-1.4,0.4c-0.4,0.3-0.7,0.6-0.9,1.1c-0.2,0.5-0.4,1-0.5,1.5c-0.1,0.6-0.2,1.1-0.2,1.7
			c0,0.6,0,1.2,0.1,1.8c0.1,0.6,0.3,1.1,0.5,1.6c0.2,0.5,0.5,0.8,0.9,1.1c0.4,0.3,0.8,0.4,1.4,0.4c0.3,0,0.6,0,0.8-0.1
			c0.3-0.1,0.5-0.2,0.8-0.4c0.3-0.2,0.6-0.4,0.9-0.7c0.3-0.3,0.6-0.7,1-1.1V200.7z"/>
		<path id="XMLID_8217_" class="st30" d="M388.7,202.8c0,0.5-0.1,0.9-0.3,1.1s-0.5,0.4-0.9,0.4h-9c0,0.6,0.1,1.2,0.2,1.7
			c0.1,0.5,0.4,0.9,0.7,1.3c0.3,0.4,0.7,0.6,1.3,0.8c0.5,0.2,1.1,0.3,1.8,0.3c0.7,0,1.4-0.1,1.9-0.2s1-0.2,1.4-0.3
			c0.4-0.1,0.7-0.2,1-0.3c0.3-0.1,0.5-0.2,0.6-0.2c0.1,0,0.2,0,0.2,0.1s0.1,0.1,0.2,0.2s0.1,0.2,0.1,0.4s0,0.4,0,0.7
			c0,0.2,0,0.4,0,0.6c0,0.2,0,0.3,0,0.4s-0.1,0.2-0.1,0.3c0,0.1-0.1,0.2-0.2,0.2c-0.1,0.1-0.3,0.2-0.6,0.3c-0.3,0.1-0.7,0.3-1.2,0.4
			c-0.5,0.1-1.1,0.2-1.7,0.3c-0.6,0.1-1.3,0.1-2,0.1c-1.3,0-2.5-0.2-3.4-0.5c-1-0.3-1.8-0.8-2.5-1.5c-0.7-0.7-1.2-1.5-1.5-2.5
			c-0.3-1-0.5-2.2-0.5-3.6c0-1.3,0.2-2.5,0.5-3.5c0.3-1.1,0.8-1.9,1.5-2.7c0.7-0.7,1.4-1.3,2.4-1.7c0.9-0.4,2-0.6,3.1-0.6
			c1.2,0,2.3,0.2,3.2,0.5c0.9,0.4,1.6,0.9,2.2,1.5c0.6,0.6,1,1.4,1.2,2.3c0.3,0.9,0.4,1.8,0.4,2.9V202.8z M384.7,201.6
			c0-1.2-0.2-2.1-0.7-2.8c-0.5-0.7-1.3-1-2.3-1c-0.5,0-1,0.1-1.4,0.3c-0.4,0.2-0.7,0.5-1,0.8c-0.3,0.3-0.5,0.7-0.6,1.2
			c-0.1,0.5-0.2,0.9-0.2,1.5H384.7z"/>
		<path id="XMLID_8220_" class="st30" d="M396.3,210.6c0,0.1,0,0.2-0.1,0.3c-0.1,0.1-0.2,0.2-0.3,0.2c-0.2,0.1-0.4,0.1-0.6,0.1
			c-0.3,0-0.6,0-1,0c-0.4,0-0.7,0-1,0c-0.3,0-0.5-0.1-0.6-0.1c-0.2-0.1-0.3-0.1-0.3-0.2c-0.1-0.1-0.1-0.2-0.1-0.3v-21.7
			c0-0.1,0-0.2,0.1-0.3s0.2-0.2,0.3-0.2s0.4-0.1,0.6-0.1c0.3,0,0.6,0,1,0c0.4,0,0.7,0,1,0c0.3,0,0.5,0.1,0.6,0.1s0.3,0.1,0.3,0.2
			c0.1,0.1,0.1,0.2,0.1,0.3V210.6z"/>
		<path id="XMLID_8222_" class="st30" d="M410.8,206.4c0,0.8-0.2,1.6-0.5,2.2c-0.3,0.6-0.8,1.2-1.3,1.6c-0.6,0.4-1.3,0.8-2,1
			c-0.8,0.2-1.6,0.3-2.5,0.3c-0.6,0-1.1,0-1.6-0.1c-0.5-0.1-1-0.2-1.3-0.3c-0.4-0.1-0.7-0.3-1-0.4s-0.5-0.3-0.6-0.4
			c-0.1-0.1-0.2-0.3-0.3-0.5c-0.1-0.2-0.1-0.6-0.1-1.1c0-0.3,0-0.6,0-0.8c0-0.2,0.1-0.3,0.1-0.5c0-0.1,0.1-0.2,0.2-0.2
			c0.1,0,0.1-0.1,0.2-0.1c0.1,0,0.3,0.1,0.5,0.2c0.2,0.1,0.5,0.3,0.9,0.5c0.4,0.2,0.8,0.3,1.2,0.5c0.5,0.1,1,0.2,1.6,0.2
			c0.4,0,0.7,0,1-0.1c0.3-0.1,0.5-0.2,0.8-0.3c0.2-0.1,0.4-0.3,0.5-0.5c0.1-0.2,0.2-0.5,0.2-0.8c0-0.3-0.1-0.6-0.3-0.9
			c-0.2-0.2-0.5-0.4-0.8-0.6c-0.3-0.2-0.7-0.3-1.1-0.5c-0.4-0.2-0.9-0.3-1.3-0.5c-0.4-0.2-0.9-0.4-1.3-0.6c-0.4-0.2-0.8-0.5-1.1-0.9
			c-0.3-0.4-0.6-0.8-0.8-1.3c-0.2-0.5-0.3-1.1-0.3-1.8c0-0.7,0.1-1.4,0.4-1.9c0.3-0.6,0.7-1.1,1.2-1.5c0.5-0.4,1.1-0.7,1.9-1
			c0.7-0.2,1.6-0.3,2.5-0.3c0.5,0,0.9,0,1.3,0.1c0.4,0.1,0.8,0.1,1.2,0.2c0.4,0.1,0.7,0.2,0.9,0.3s0.4,0.2,0.5,0.3
			c0.1,0.1,0.2,0.2,0.2,0.2c0,0.1,0.1,0.2,0.1,0.3c0,0.1,0,0.3,0.1,0.4s0,0.4,0,0.6c0,0.3,0,0.5,0,0.7c0,0.2,0,0.3-0.1,0.4
			c0,0.1-0.1,0.2-0.2,0.2c-0.1,0-0.1,0.1-0.2,0.1c-0.1,0-0.3-0.1-0.5-0.2c-0.2-0.1-0.5-0.2-0.8-0.4c-0.3-0.1-0.7-0.3-1.1-0.4
			s-0.9-0.2-1.4-0.2c-0.4,0-0.7,0-1,0.1c-0.3,0.1-0.5,0.2-0.7,0.3s-0.3,0.3-0.4,0.5c-0.1,0.2-0.1,0.4-0.1,0.6c0,0.3,0.1,0.6,0.3,0.9
			s0.5,0.4,0.8,0.6c0.3,0.2,0.7,0.3,1.2,0.5c0.4,0.2,0.9,0.3,1.3,0.5c0.4,0.2,0.9,0.4,1.3,0.6c0.4,0.2,0.8,0.5,1.2,0.9
			c0.3,0.4,0.6,0.8,0.8,1.3S410.8,205.7,410.8,206.4z"/>
		<path id="XMLID_8224_" class="st30" d="M420.9,205.2c0-0.6,0.1-1.2,0.3-1.7c0.2-0.5,0.5-1.1,0.8-1.5c0.4-0.5,0.8-0.9,1.3-1.4
			c0.5-0.4,1.2-0.9,1.9-1.3c-0.4-0.5-0.7-1-1-1.4s-0.5-0.9-0.7-1.3c-0.2-0.4-0.3-0.8-0.4-1.2c-0.1-0.4-0.1-0.7-0.1-1.1
			c0-0.8,0.1-1.5,0.4-2.2s0.7-1.3,1.3-1.8c0.6-0.5,1.3-0.9,2.2-1.2c0.9-0.3,2-0.4,3.3-0.4c1.2,0,2.2,0.1,3,0.3
			c0.8,0.2,1.5,0.5,2.1,0.9c0.5,0.4,0.9,0.9,1.2,1.5c0.3,0.6,0.4,1.3,0.4,2c0,0.7-0.1,1.3-0.3,1.8c-0.2,0.6-0.6,1.1-1,1.6
			s-1,1-1.7,1.5c-0.7,0.5-1.5,0.9-2.4,1.4c0.3,0.3,0.6,0.7,1,1.1c0.4,0.4,0.7,0.8,1.1,1.1c0.4,0.4,0.8,0.8,1.2,1.1s0.8,0.7,1.2,1
			c0.1-0.2,0.3-0.5,0.4-0.8c0.1-0.3,0.2-0.6,0.3-0.9c0.1-0.3,0.1-0.6,0.2-1c0-0.3,0.1-0.7,0.1-1V200c0-0.1,0-0.2,0.1-0.3
			c0-0.1,0.1-0.2,0.3-0.2s0.3-0.1,0.6-0.1c0.3,0,0.6,0,1,0c0.4,0,0.7,0,1,0s0.5,0.1,0.6,0.1c0.1,0.1,0.3,0.1,0.3,0.2
			c0.1,0.1,0.1,0.2,0.1,0.4v0.5c0,0.5,0,1.1-0.1,1.6c-0.1,0.5-0.2,1.1-0.3,1.6c-0.1,0.5-0.3,1-0.6,1.5c-0.2,0.5-0.5,0.9-0.7,1.3
			c0.4,0.3,0.7,0.5,1,0.7c0.3,0.2,0.5,0.4,0.7,0.5s0.4,0.2,0.5,0.2s0.2,0.1,0.3,0.1c0.1,0,0.2,0,0.3,0c0.1,0,0.2,0,0.3,0.1
			c0.1,0.1,0.1,0.2,0.1,0.4c0,0.2,0,0.5,0,0.9c0,0.4,0,0.7,0,1s0,0.4-0.1,0.5c0,0.1-0.1,0.2-0.2,0.3c-0.1,0.1-0.3,0.1-0.5,0.2
			c-0.2,0.1-0.5,0.1-0.8,0.1c-0.2,0-0.5,0-0.8-0.1c-0.3-0.1-0.6-0.2-0.9-0.3s-0.7-0.4-1.2-0.7c-0.5-0.3-1-0.6-1.6-1.1
			c-0.5,0.4-1.1,0.7-1.6,1c-0.6,0.3-1.1,0.5-1.7,0.7c-0.6,0.2-1.2,0.3-1.9,0.4c-0.6,0.1-1.3,0.1-2,0.1c-0.7,0-1.4-0.1-2.1-0.2
			c-0.7-0.1-1.3-0.3-1.9-0.5c-0.6-0.2-1.1-0.5-1.6-0.9c-0.5-0.3-0.9-0.7-1.3-1.2c-0.4-0.5-0.6-1-0.8-1.6
			C421,206.6,420.9,205.9,420.9,205.2z M425.4,204.9c0,0.5,0.1,0.9,0.3,1.3c0.2,0.4,0.4,0.7,0.8,1c0.3,0.3,0.7,0.5,1.2,0.7
			c0.5,0.2,1.1,0.2,1.7,0.2c0.3,0,0.7,0,1-0.1s0.6-0.1,1-0.2c0.3-0.1,0.6-0.2,0.9-0.4c0.3-0.1,0.5-0.3,0.8-0.5
			c-0.5-0.4-1-0.8-1.5-1.3c-0.5-0.4-1-0.9-1.5-1.3c-0.5-0.5-0.9-0.9-1.4-1.3c-0.4-0.4-0.8-0.9-1.2-1.3c-0.4,0.2-0.7,0.5-1,0.8
			c-0.3,0.3-0.5,0.5-0.6,0.8c-0.2,0.3-0.3,0.5-0.4,0.8S425.4,204.6,425.4,204.9z M427.2,194c0,0.2,0,0.5,0.1,0.7
			c0.1,0.2,0.2,0.5,0.3,0.8c0.1,0.3,0.3,0.6,0.5,0.9c0.2,0.3,0.4,0.6,0.7,1c0.6-0.4,1.2-0.7,1.6-1c0.4-0.3,0.8-0.6,1.1-0.9
			c0.3-0.3,0.5-0.6,0.6-0.8c0.1-0.3,0.2-0.6,0.2-0.9c0-0.3,0-0.5-0.1-0.7c-0.1-0.2-0.3-0.4-0.5-0.6s-0.5-0.3-0.8-0.4
			c-0.3-0.1-0.7-0.1-1.1-0.1c-0.5,0-0.9,0.1-1.2,0.2s-0.6,0.3-0.8,0.4c-0.2,0.2-0.4,0.4-0.5,0.7C427.3,193.4,427.2,193.7,427.2,194z
			"/>
		<path id="XMLID_8228_" class="st30" d="M323.7,244.5c0,0.1,0,0.2-0.1,0.3c-0.1,0.1-0.2,0.2-0.3,0.2c-0.2,0.1-0.4,0.1-0.6,0.1
			c-0.3,0-0.6,0-1,0c-0.4,0-0.7,0-1,0c-0.3,0-0.5-0.1-0.6-0.1c-0.2-0.1-0.3-0.1-0.3-0.2c-0.1-0.1-0.1-0.2-0.1-0.3v-17.4h0l-6.2,17.4
			c0,0.1-0.1,0.3-0.2,0.4c-0.1,0.1-0.2,0.2-0.4,0.2c-0.2,0.1-0.4,0.1-0.7,0.1c-0.3,0-0.6,0-1,0c-0.4,0-0.7,0-1,0
			c-0.3,0-0.5-0.1-0.7-0.1s-0.3-0.1-0.4-0.2c-0.1-0.1-0.2-0.2-0.2-0.3l-6-17.4h0v17.4c0,0.1,0,0.2-0.1,0.3c-0.1,0.1-0.2,0.2-0.3,0.2
			c-0.2,0.1-0.4,0.1-0.6,0.1c-0.3,0-0.6,0-1,0c-0.4,0-0.7,0-1,0s-0.5-0.1-0.6-0.1c-0.2-0.1-0.3-0.1-0.3-0.2
			c-0.1-0.1-0.1-0.2-0.1-0.3v-19.1c0-0.6,0.1-1,0.4-1.3c0.3-0.3,0.7-0.4,1.2-0.4h2.8c0.5,0,0.9,0,1.3,0.1c0.4,0.1,0.7,0.2,0.9,0.4
			c0.3,0.2,0.5,0.4,0.7,0.8c0.2,0.3,0.3,0.7,0.5,1.2l4.6,12.7h0.1l4.8-12.7c0.1-0.5,0.3-0.9,0.5-1.2c0.2-0.3,0.4-0.6,0.6-0.8
			c0.2-0.2,0.5-0.3,0.8-0.4s0.7-0.1,1.1-0.1h2.9c0.3,0,0.6,0,0.8,0.1c0.2,0.1,0.4,0.2,0.5,0.3c0.1,0.1,0.2,0.3,0.3,0.5
			c0.1,0.2,0.1,0.5,0.1,0.7V244.5z"/>
		<path id="XMLID_8230_" class="st30" d="M341.8,236.8c0,0.5-0.1,0.9-0.3,1.1c-0.2,0.2-0.5,0.4-0.9,0.4h-9c0,0.6,0.1,1.2,0.2,1.7
			c0.1,0.5,0.4,0.9,0.7,1.3c0.3,0.4,0.7,0.6,1.3,0.8c0.5,0.2,1.1,0.3,1.8,0.3c0.7,0,1.4-0.1,1.9-0.2c0.6-0.1,1-0.2,1.4-0.3
			c0.4-0.1,0.7-0.2,1-0.3c0.3-0.1,0.5-0.2,0.6-0.2c0.1,0,0.2,0,0.2,0.1c0.1,0,0.1,0.1,0.2,0.2c0,0.1,0.1,0.2,0.1,0.4s0,0.4,0,0.7
			c0,0.2,0,0.4,0,0.6c0,0.2,0,0.3,0,0.4c0,0.1-0.1,0.2-0.1,0.3c0,0.1-0.1,0.2-0.2,0.2c-0.1,0.1-0.3,0.2-0.6,0.3
			c-0.3,0.1-0.7,0.3-1.2,0.4c-0.5,0.1-1.1,0.2-1.7,0.3c-0.6,0.1-1.3,0.1-2,0.1c-1.3,0-2.5-0.2-3.4-0.5s-1.8-0.8-2.5-1.5
			c-0.7-0.7-1.2-1.5-1.5-2.5s-0.5-2.2-0.5-3.6c0-1.3,0.2-2.5,0.5-3.5c0.3-1.1,0.8-1.9,1.5-2.7c0.6-0.7,1.4-1.3,2.4-1.7
			c0.9-0.4,2-0.6,3.1-0.6c1.2,0,2.3,0.2,3.2,0.5s1.6,0.9,2.2,1.5c0.6,0.6,1,1.4,1.2,2.3c0.3,0.9,0.4,1.8,0.4,2.9V236.8z
			 M337.7,235.6c0-1.2-0.2-2.1-0.7-2.8c-0.5-0.7-1.3-1-2.3-1c-0.5,0-1,0.1-1.4,0.3c-0.4,0.2-0.7,0.5-1,0.8c-0.3,0.3-0.5,0.7-0.6,1.2
			c-0.1,0.5-0.2,0.9-0.2,1.5H337.7z"/>
		<path id="XMLID_8233_" class="st30" d="M359.3,244.6c0,0.1,0,0.2-0.1,0.3c-0.1,0.1-0.2,0.2-0.3,0.2c-0.2,0.1-0.4,0.1-0.6,0.1
			c-0.3,0-0.6,0-1,0c-0.4,0-0.7,0-1,0c-0.3,0-0.5-0.1-0.6-0.1c-0.2-0.1-0.3-0.1-0.3-0.2c-0.1-0.1-0.1-0.2-0.1-0.3v-8.4
			c0-0.7-0.1-1.3-0.2-1.7c-0.1-0.4-0.3-0.8-0.5-1c-0.2-0.3-0.5-0.5-0.8-0.7c-0.3-0.2-0.7-0.2-1.1-0.2c-0.5,0-1.1,0.2-1.6,0.6
			c-0.5,0.4-1.1,0.9-1.7,1.7v9.8c0,0.1,0,0.2-0.1,0.3c-0.1,0.1-0.2,0.2-0.3,0.2c-0.2,0.1-0.4,0.1-0.6,0.1s-0.6,0-1,0s-0.7,0-1,0
			c-0.3,0-0.5-0.1-0.6-0.1c-0.2-0.1-0.3-0.1-0.3-0.2c-0.1-0.1-0.1-0.2-0.1-0.3v-14.7c0-0.1,0-0.2,0.1-0.3c0.1-0.1,0.2-0.2,0.3-0.2
			c0.1-0.1,0.3-0.1,0.6-0.1c0.2,0,0.5,0,0.9,0c0.4,0,0.6,0,0.9,0c0.2,0,0.4,0.1,0.5,0.1s0.2,0.1,0.3,0.2c0.1,0.1,0.1,0.2,0.1,0.3
			v1.7c0.8-0.9,1.6-1.5,2.5-2c0.8-0.4,1.7-0.7,2.6-0.7c1,0,1.8,0.2,2.5,0.5c0.7,0.3,1.2,0.8,1.7,1.3c0.4,0.6,0.7,1.2,0.9,2
			c0.2,0.8,0.3,1.7,0.3,2.7V244.6z"/>
		<path id="XMLID_8235_" class="st30" d="M378.3,237c0,1.3-0.2,2.4-0.5,3.4c-0.3,1-0.8,1.9-1.5,2.7c-0.7,0.7-1.5,1.3-2.5,1.7
			c-1,0.4-2.2,0.6-3.6,0.6c-1.3,0-2.5-0.2-3.4-0.5c-1-0.4-1.8-0.9-2.4-1.6c-0.6-0.7-1.1-1.5-1.4-2.6c-0.3-1-0.5-2.2-0.5-3.5
			c0-1.3,0.2-2.4,0.5-3.4c0.3-1,0.8-1.9,1.5-2.7c0.7-0.7,1.5-1.3,2.5-1.7c1-0.4,2.2-0.6,3.5-0.6c1.3,0,2.5,0.2,3.4,0.5
			c1,0.4,1.8,0.9,2.4,1.6s1.1,1.5,1.4,2.6C378.1,234.6,378.3,235.7,378.3,237z M374,237.2c0-0.7-0.1-1.4-0.2-2
			c-0.1-0.6-0.3-1.1-0.6-1.6c-0.3-0.5-0.6-0.8-1.1-1.1c-0.5-0.3-1-0.4-1.7-0.4c-0.6,0-1.2,0.1-1.6,0.3c-0.5,0.2-0.8,0.6-1.1,1
			c-0.3,0.4-0.5,1-0.7,1.6c-0.1,0.6-0.2,1.3-0.2,2.1c0,0.7,0.1,1.4,0.2,2c0.1,0.6,0.3,1.1,0.6,1.6c0.3,0.5,0.6,0.8,1.1,1
			s1,0.4,1.7,0.4c0.6,0,1.2-0.1,1.6-0.3c0.5-0.2,0.8-0.6,1.1-1s0.5-1,0.7-1.6C373.9,238.7,374,238,374,237.2z"/>
		<path id="XMLID_8238_" class="st30" d="M391,231.2c0,0.4,0,0.7,0,1c0,0.3-0.1,0.5-0.1,0.6c0,0.1-0.1,0.2-0.2,0.3
			c-0.1,0.1-0.2,0.1-0.3,0.1c-0.1,0-0.2,0-0.3-0.1c-0.1,0-0.2-0.1-0.4-0.1s-0.3-0.1-0.5-0.1c-0.2,0-0.3-0.1-0.5-0.1
			c-0.2,0-0.5,0-0.7,0.1c-0.2,0.1-0.5,0.2-0.7,0.4c-0.2,0.2-0.5,0.5-0.8,0.8c-0.3,0.3-0.6,0.7-0.9,1.2v9.2c0,0.1,0,0.2-0.1,0.3
			c-0.1,0.1-0.2,0.2-0.3,0.2c-0.2,0.1-0.4,0.1-0.6,0.1c-0.3,0-0.6,0-1,0c-0.4,0-0.7,0-1,0c-0.3,0-0.5-0.1-0.6-0.1
			c-0.2-0.1-0.3-0.1-0.3-0.2c-0.1-0.1-0.1-0.2-0.1-0.3v-14.7c0-0.1,0-0.2,0.1-0.3c0.1-0.1,0.2-0.2,0.3-0.2c0.1-0.1,0.3-0.1,0.6-0.1
			c0.2,0,0.5,0,0.9,0c0.4,0,0.6,0,0.9,0c0.2,0,0.4,0.1,0.5,0.1c0.1,0.1,0.2,0.1,0.3,0.2c0.1,0.1,0.1,0.2,0.1,0.3v1.8
			c0.4-0.6,0.7-1,1.1-1.4c0.3-0.4,0.7-0.6,1-0.9c0.3-0.2,0.6-0.4,0.9-0.4c0.3-0.1,0.6-0.1,0.9-0.1c0.1,0,0.3,0,0.5,0s0.3,0,0.5,0.1
			c0.2,0,0.3,0.1,0.5,0.1c0.1,0,0.2,0.1,0.3,0.2c0.1,0.1,0.1,0.1,0.1,0.2c0,0.1,0.1,0.2,0.1,0.3s0,0.3,0,0.5
			C391,230.5,391,230.8,391,231.2z"/>
		<path id="XMLID_8240_" class="st30" d="M405.4,244.6c0,0.2-0.1,0.3-0.2,0.4c-0.1,0.1-0.3,0.2-0.5,0.2c-0.2,0-0.6,0.1-1,0.1
			c-0.5,0-0.9,0-1.1-0.1c-0.2,0-0.4-0.1-0.5-0.2c-0.1-0.1-0.1-0.2-0.1-0.4v-1.2c-0.6,0.7-1.3,1.2-2.1,1.5c-0.8,0.4-1.6,0.5-2.6,0.5
			c-0.8,0-1.5-0.1-2.2-0.3c-0.7-0.2-1.2-0.5-1.7-0.9c-0.5-0.4-0.9-0.9-1.1-1.5c-0.3-0.6-0.4-1.3-0.4-2.1c0-0.9,0.2-1.6,0.5-2.2
			c0.3-0.6,0.8-1.2,1.5-1.6s1.5-0.7,2.5-0.9c1-0.2,2.1-0.3,3.5-0.3h1.4v-0.9c0-0.5,0-0.9-0.1-1.2c-0.1-0.3-0.2-0.6-0.5-0.9
			c-0.2-0.2-0.5-0.4-0.9-0.5c-0.4-0.1-0.8-0.2-1.3-0.2c-0.7,0-1.3,0.1-1.9,0.2c-0.5,0.2-1,0.3-1.4,0.5c-0.4,0.2-0.8,0.4-1,0.5
			c-0.3,0.2-0.5,0.2-0.7,0.2c-0.1,0-0.2,0-0.3-0.1c-0.1-0.1-0.2-0.2-0.2-0.3c-0.1-0.1-0.1-0.3-0.1-0.5c0-0.2,0-0.4,0-0.7
			c0-0.3,0-0.6,0.1-0.8c0.1-0.2,0.2-0.4,0.3-0.5c0.2-0.2,0.4-0.3,0.8-0.5s0.8-0.4,1.4-0.5c0.5-0.2,1.1-0.3,1.7-0.4
			c0.6-0.1,1.2-0.2,1.9-0.2c1.2,0,2.1,0.1,3,0.3c0.8,0.2,1.5,0.6,2,1c0.5,0.5,0.9,1.1,1.2,1.8s0.4,1.6,0.4,2.6V244.6z M401.3,238.3
			h-1.6c-0.7,0-1.2,0-1.7,0.1s-0.9,0.2-1.2,0.4c-0.3,0.2-0.5,0.4-0.7,0.7c-0.1,0.3-0.2,0.6-0.2,1c0,0.6,0.2,1.1,0.6,1.5
			s0.9,0.5,1.6,0.5c0.6,0,1.1-0.1,1.6-0.4c0.5-0.3,1-0.7,1.5-1.3V238.3z"/>
		<path id="XMLID_8243_" class="st30" d="M423.6,244.6c0,0.1,0,0.2-0.1,0.3c-0.1,0.1-0.2,0.2-0.3,0.2c-0.2,0.1-0.4,0.1-0.6,0.1
			c-0.3,0-0.6,0-1,0c-0.4,0-0.7,0-1,0c-0.3,0-0.5-0.1-0.6-0.1c-0.2-0.1-0.3-0.1-0.3-0.2c-0.1-0.1-0.1-0.2-0.1-0.3v-8.4
			c0-0.7-0.1-1.3-0.2-1.7c-0.1-0.4-0.3-0.8-0.5-1c-0.2-0.3-0.5-0.5-0.8-0.7c-0.3-0.2-0.7-0.2-1.1-0.2c-0.5,0-1.1,0.2-1.6,0.6
			c-0.5,0.4-1.1,0.9-1.7,1.7v9.8c0,0.1,0,0.2-0.1,0.3c-0.1,0.1-0.2,0.2-0.3,0.2c-0.2,0.1-0.4,0.1-0.6,0.1c-0.3,0-0.6,0-1,0
			c-0.4,0-0.7,0-1,0c-0.3,0-0.5-0.1-0.6-0.1c-0.2-0.1-0.3-0.1-0.3-0.2c-0.1-0.1-0.1-0.2-0.1-0.3v-21.7c0-0.1,0-0.2,0.1-0.3
			c0.1-0.1,0.2-0.2,0.3-0.2s0.4-0.1,0.6-0.1c0.3,0,0.6,0,1,0c0.4,0,0.7,0,1,0c0.3,0,0.5,0.1,0.6,0.1c0.2,0.1,0.3,0.1,0.3,0.2
			c0.1,0.1,0.1,0.2,0.1,0.3v8.1c0.7-0.7,1.4-1.2,2.2-1.6s1.5-0.5,2.3-0.5c1,0,1.8,0.2,2.5,0.5c0.7,0.3,1.2,0.8,1.7,1.4
			c0.4,0.6,0.7,1.2,0.9,2c0.2,0.8,0.3,1.7,0.3,2.8V244.6z"/>
		<path id="XMLID_8245_" class="st30" d="M438.1,240.4c0,0.8-0.2,1.6-0.5,2.2c-0.3,0.6-0.8,1.2-1.3,1.6c-0.6,0.4-1.3,0.8-2,1
			c-0.8,0.2-1.6,0.3-2.5,0.3c-0.6,0-1.1,0-1.6-0.1c-0.5-0.1-1-0.2-1.3-0.3c-0.4-0.1-0.7-0.3-1-0.4c-0.3-0.1-0.5-0.3-0.6-0.4
			c-0.1-0.1-0.2-0.3-0.3-0.5c-0.1-0.2-0.1-0.6-0.1-1.1c0-0.3,0-0.6,0-0.8c0-0.2,0.1-0.3,0.1-0.5c0-0.1,0.1-0.2,0.2-0.2
			c0.1,0,0.1-0.1,0.2-0.1c0.1,0,0.3,0.1,0.5,0.2c0.2,0.1,0.5,0.3,0.9,0.5c0.4,0.2,0.8,0.3,1.2,0.5c0.5,0.1,1,0.2,1.6,0.2
			c0.4,0,0.7,0,1-0.1c0.3-0.1,0.5-0.2,0.8-0.3c0.2-0.1,0.4-0.3,0.5-0.5c0.1-0.2,0.2-0.5,0.2-0.8c0-0.3-0.1-0.6-0.3-0.9
			c-0.2-0.2-0.5-0.4-0.8-0.6c-0.3-0.2-0.7-0.3-1.1-0.5s-0.9-0.3-1.3-0.5c-0.4-0.2-0.9-0.4-1.3-0.6c-0.4-0.2-0.8-0.5-1.1-0.9
			c-0.3-0.4-0.6-0.8-0.8-1.3c-0.2-0.5-0.3-1.1-0.3-1.8c0-0.7,0.1-1.4,0.4-1.9c0.3-0.6,0.7-1.1,1.2-1.5c0.5-0.4,1.1-0.7,1.9-1
			c0.7-0.2,1.6-0.3,2.5-0.3c0.5,0,0.9,0,1.3,0.1c0.4,0.1,0.8,0.1,1.2,0.2c0.4,0.1,0.7,0.2,0.9,0.3s0.4,0.2,0.5,0.3
			c0.1,0.1,0.2,0.2,0.2,0.2c0,0.1,0.1,0.2,0.1,0.3c0,0.1,0,0.3,0.1,0.4s0,0.4,0,0.6c0,0.3,0,0.5,0,0.7c0,0.2,0,0.3-0.1,0.4
			c0,0.1-0.1,0.2-0.2,0.2c-0.1,0-0.1,0.1-0.2,0.1c-0.1,0-0.3-0.1-0.5-0.2c-0.2-0.1-0.5-0.2-0.8-0.4c-0.3-0.1-0.7-0.3-1.1-0.4
			c-0.4-0.1-0.9-0.2-1.4-0.2c-0.4,0-0.7,0-1,0.1c-0.3,0.1-0.5,0.2-0.7,0.3c-0.2,0.1-0.3,0.3-0.4,0.5c-0.1,0.2-0.1,0.4-0.1,0.6
			c0,0.3,0.1,0.6,0.3,0.9s0.5,0.4,0.8,0.6c0.3,0.2,0.7,0.3,1.2,0.5s0.9,0.3,1.3,0.5c0.4,0.2,0.9,0.4,1.3,0.6
			c0.4,0.2,0.8,0.5,1.2,0.9c0.3,0.4,0.6,0.8,0.8,1.3C438,239.1,438.1,239.7,438.1,240.4z"/>
		<path id="XMLID_8247_" class="st30" d="M448.2,239.2c0-0.6,0.1-1.2,0.3-1.7c0.2-0.5,0.5-1.1,0.8-1.5c0.4-0.5,0.8-0.9,1.3-1.4
			c0.5-0.4,1.2-0.9,1.9-1.3c-0.4-0.5-0.7-1-1-1.4s-0.5-0.9-0.7-1.3c-0.2-0.4-0.3-0.8-0.4-1.2c-0.1-0.4-0.1-0.7-0.1-1.1
			c0-0.8,0.1-1.5,0.4-2.2s0.7-1.3,1.3-1.8c0.6-0.5,1.3-0.9,2.2-1.2c0.9-0.3,2-0.4,3.3-0.4c1.2,0,2.2,0.1,3,0.3
			c0.8,0.2,1.5,0.5,2.1,0.9c0.5,0.4,0.9,0.9,1.2,1.5c0.3,0.6,0.4,1.3,0.4,2c0,0.7-0.1,1.3-0.3,1.8c-0.2,0.6-0.6,1.1-1,1.6
			s-1,1-1.7,1.5c-0.7,0.5-1.5,0.9-2.4,1.4c0.3,0.3,0.6,0.7,1,1.1c0.4,0.4,0.7,0.8,1.1,1.1c0.4,0.4,0.8,0.8,1.2,1.1s0.8,0.7,1.2,1
			c0.1-0.2,0.3-0.5,0.4-0.8c0.1-0.3,0.2-0.6,0.3-0.9c0.1-0.3,0.1-0.6,0.2-1c0-0.3,0.1-0.7,0.1-1V234c0-0.1,0-0.2,0.1-0.3
			c0-0.1,0.1-0.2,0.3-0.2s0.3-0.1,0.6-0.1c0.3,0,0.6,0,1,0c0.4,0,0.7,0,1,0s0.5,0.1,0.6,0.1c0.1,0.1,0.3,0.1,0.3,0.2
			c0.1,0.1,0.1,0.2,0.1,0.4v0.5c0,0.5,0,1.1-0.1,1.6c-0.1,0.5-0.2,1.1-0.3,1.6c-0.1,0.5-0.3,1-0.6,1.5c-0.2,0.5-0.5,0.9-0.7,1.3
			c0.4,0.3,0.7,0.5,1,0.7c0.3,0.2,0.5,0.4,0.7,0.5s0.4,0.2,0.5,0.2c0.1,0,0.2,0.1,0.3,0.1c0.1,0,0.2,0,0.3,0c0.1,0,0.2,0,0.3,0.1
			c0.1,0.1,0.1,0.2,0.1,0.4c0,0.2,0,0.5,0,0.9c0,0.4,0,0.7,0,1s0,0.4-0.1,0.5c0,0.1-0.1,0.2-0.2,0.3c-0.1,0.1-0.3,0.1-0.5,0.2
			c-0.2,0.1-0.5,0.1-0.8,0.1c-0.2,0-0.5,0-0.8-0.1c-0.3-0.1-0.6-0.2-0.9-0.3c-0.3-0.2-0.7-0.4-1.2-0.7c-0.5-0.3-1-0.6-1.6-1.1
			c-0.5,0.4-1.1,0.7-1.6,1c-0.6,0.3-1.1,0.5-1.7,0.7c-0.6,0.2-1.2,0.3-1.9,0.4c-0.6,0.1-1.3,0.1-2,0.1c-0.7,0-1.4-0.1-2.1-0.2
			c-0.7-0.1-1.3-0.3-1.9-0.5c-0.6-0.2-1.1-0.5-1.6-0.9c-0.5-0.3-0.9-0.7-1.3-1.2c-0.4-0.5-0.6-1-0.8-1.6
			C448.3,240.6,448.2,239.9,448.2,239.2z M452.7,238.9c0,0.5,0.1,0.9,0.3,1.3c0.2,0.4,0.4,0.7,0.8,1c0.3,0.3,0.7,0.5,1.2,0.7
			c0.5,0.2,1.1,0.2,1.7,0.2c0.3,0,0.7,0,1-0.1c0.3-0.1,0.6-0.1,1-0.2c0.3-0.1,0.6-0.2,0.9-0.4c0.3-0.1,0.5-0.3,0.8-0.5
			c-0.5-0.4-1-0.8-1.5-1.3c-0.5-0.4-1-0.9-1.5-1.3c-0.5-0.5-0.9-0.9-1.4-1.3c-0.4-0.4-0.8-0.9-1.2-1.3c-0.4,0.2-0.7,0.5-1,0.8
			c-0.3,0.3-0.5,0.5-0.6,0.8c-0.2,0.3-0.3,0.5-0.4,0.8S452.7,238.6,452.7,238.9z M454.5,228c0,0.2,0,0.5,0.1,0.7
			c0.1,0.2,0.2,0.5,0.3,0.8c0.1,0.3,0.3,0.6,0.5,0.9c0.2,0.3,0.4,0.6,0.7,1c0.6-0.4,1.2-0.7,1.6-1c0.4-0.3,0.8-0.6,1-0.9
			c0.3-0.3,0.5-0.6,0.6-0.8c0.1-0.3,0.2-0.6,0.2-0.9c0-0.3,0-0.5-0.1-0.7s-0.3-0.4-0.5-0.6c-0.2-0.2-0.5-0.3-0.8-0.4
			c-0.3-0.1-0.7-0.1-1.1-0.1c-0.5,0-0.9,0.1-1.2,0.2s-0.6,0.3-0.8,0.4c-0.2,0.2-0.4,0.4-0.5,0.7C454.6,227.4,454.5,227.7,454.5,228z
			"/>
		<path id="XMLID_8251_" class="st30" d="M313.6,275.9c0,0.3,0,0.5,0,0.7c0,0.2,0,0.4-0.1,0.5c0,0.1-0.1,0.3-0.1,0.4
			c-0.1,0.1-0.1,0.2-0.3,0.3c-0.1,0.1-0.4,0.3-0.7,0.5s-0.8,0.4-1.3,0.6c-0.5,0.2-1.1,0.3-1.7,0.5s-1.3,0.2-2.1,0.2
			c-1.5,0-2.8-0.2-4-0.7c-1.2-0.5-2.2-1.1-3-2s-1.5-2-1.9-3.4c-0.4-1.3-0.7-2.9-0.7-4.7c0-1.8,0.2-3.4,0.7-4.8s1.2-2.6,2-3.6
			c0.9-1,1.9-1.7,3.1-2.2c1.2-0.5,2.6-0.7,4-0.7c0.6,0,1.2,0,1.7,0.1c0.6,0.1,1.1,0.2,1.5,0.4c0.5,0.2,0.9,0.3,1.3,0.6
			c0.4,0.2,0.6,0.4,0.8,0.5c0.1,0.1,0.3,0.3,0.3,0.4c0.1,0.1,0.1,0.2,0.1,0.4c0,0.2,0.1,0.3,0.1,0.5c0,0.2,0,0.5,0,0.8
			c0,0.3,0,0.6,0,0.8c0,0.2-0.1,0.4-0.1,0.6s-0.1,0.2-0.2,0.3c-0.1,0.1-0.2,0.1-0.3,0.1c-0.2,0-0.4-0.1-0.6-0.3s-0.6-0.4-1-0.6
			c-0.4-0.2-0.9-0.5-1.4-0.6c-0.6-0.2-1.2-0.3-2-0.3c-0.8,0-1.6,0.2-2.3,0.5c-0.7,0.3-1.2,0.8-1.7,1.5c-0.5,0.6-0.8,1.4-1.1,2.3
			c-0.2,0.9-0.4,1.9-0.4,3.1c0,1.3,0.1,2.3,0.4,3.3c0.3,0.9,0.6,1.7,1.1,2.3c0.5,0.6,1.1,1,1.7,1.3c0.7,0.3,1.4,0.4,2.3,0.4
			c0.8,0,1.4-0.1,2-0.3c0.6-0.2,1-0.4,1.4-0.6c0.4-0.2,0.7-0.4,1-0.6c0.3-0.2,0.5-0.3,0.6-0.3c0.1,0,0.2,0,0.3,0.1
			c0.1,0,0.1,0.1,0.2,0.3c0,0.1,0.1,0.3,0.1,0.6C313.6,275.2,313.6,275.5,313.6,275.9z"/>
		<path id="XMLID_8253_" class="st30" d="M321,258.8c0,0.8-0.2,1.4-0.5,1.7c-0.3,0.3-1,0.5-1.9,0.5c-0.9,0-1.6-0.2-1.9-0.5
			s-0.5-0.9-0.5-1.7c0-0.8,0.2-1.4,0.5-1.7c0.3-0.3,1-0.5,1.9-0.5c0.9,0,1.6,0.2,1.9,0.5C320.8,257.5,321,258,321,258.8z
			 M320.6,278.6c0,0.1,0,0.2-0.1,0.3c-0.1,0.1-0.2,0.2-0.3,0.2c-0.2,0.1-0.4,0.1-0.6,0.1c-0.3,0-0.6,0-1,0c-0.4,0-0.7,0-1,0
			c-0.3,0-0.5-0.1-0.6-0.1c-0.2-0.1-0.3-0.1-0.3-0.2c-0.1-0.1-0.1-0.2-0.1-0.3v-14.7c0-0.1,0-0.2,0.1-0.3c0.1-0.1,0.2-0.2,0.3-0.2
			c0.2-0.1,0.4-0.1,0.6-0.1c0.3,0,0.6,0,1,0c0.4,0,0.7,0,1,0c0.3,0,0.5,0.1,0.6,0.1c0.2,0.1,0.3,0.1,0.3,0.2
			c0.1,0.1,0.1,0.2,0.1,0.3V278.6z"/>
		<path id="XMLID_8256_" class="st30" d="M338.1,264.8c0,0.5-0.1,0.9-0.2,1.2c-0.1,0.3-0.3,0.4-0.4,0.4h-1.7
			c0.2,0.3,0.4,0.6,0.5,0.9c0.1,0.3,0.2,0.7,0.2,1c0,0.9-0.1,1.6-0.4,2.3c-0.3,0.7-0.7,1.2-1.2,1.7c-0.5,0.5-1.2,0.8-1.9,1
			c-0.8,0.2-1.6,0.4-2.5,0.4c-0.5,0-0.9-0.1-1.4-0.2c-0.4-0.1-0.8-0.3-1-0.4c-0.1,0.1-0.3,0.3-0.4,0.5c-0.1,0.2-0.2,0.4-0.2,0.7
			c0,0.3,0.1,0.6,0.4,0.8c0.3,0.2,0.7,0.3,1.2,0.3l3.6,0.1c0.8,0,1.6,0.2,2.2,0.4c0.7,0.2,1.2,0.5,1.7,0.9s0.8,0.8,1,1.3
			s0.4,1.1,0.4,1.8c0,0.7-0.2,1.4-0.5,2.1s-0.8,1.2-1.4,1.7c-0.6,0.5-1.4,0.8-2.4,1.1c-1,0.3-2.1,0.4-3.4,0.4
			c-1.3,0-2.3-0.1-3.2-0.3c-0.9-0.2-1.6-0.5-2.2-0.8c-0.6-0.4-1-0.8-1.2-1.3c-0.3-0.5-0.4-1-0.4-1.6c0-0.4,0-0.7,0.1-1
			c0.1-0.3,0.2-0.6,0.4-1c0.2-0.3,0.4-0.6,0.7-0.9s0.6-0.5,0.9-0.8c-0.5-0.3-0.8-0.6-1.1-1c-0.3-0.4-0.4-0.9-0.4-1.4
			c0-0.7,0.1-1.2,0.4-1.8c0.3-0.5,0.7-1,1.2-1.4c-0.4-0.4-0.7-0.8-0.9-1.4c-0.2-0.5-0.3-1.2-0.3-2c0-0.9,0.2-1.6,0.5-2.3
			s0.7-1.3,1.3-1.7c0.5-0.5,1.2-0.8,1.9-1.1c0.7-0.2,1.6-0.4,2.5-0.4c0.5,0,0.9,0,1.3,0.1c0.4,0.1,0.8,0.1,1.2,0.2h4.7
			c0.2,0,0.3,0.1,0.5,0.4C338,263.9,338.1,264.3,338.1,264.8z M333.7,280.1c0-0.5-0.2-0.9-0.6-1.1c-0.4-0.3-0.9-0.4-1.6-0.4l-3-0.1
			c-0.3,0.2-0.5,0.4-0.7,0.6c-0.2,0.2-0.3,0.4-0.4,0.6c-0.1,0.2-0.2,0.3-0.2,0.5s0,0.3,0,0.5c0,0.6,0.3,1,0.8,1.3
			c0.6,0.3,1.3,0.4,2.4,0.4c0.6,0,1.2-0.1,1.6-0.2c0.4-0.1,0.8-0.3,1-0.5c0.3-0.2,0.5-0.4,0.6-0.7
			C333.7,280.7,333.7,280.4,333.7,280.1z M332.7,268.3c0-0.8-0.2-1.4-0.7-1.9c-0.4-0.4-1.1-0.7-1.9-0.7c-0.4,0-0.8,0.1-1.1,0.2
			c-0.3,0.1-0.6,0.3-0.8,0.6c-0.2,0.2-0.4,0.5-0.5,0.8c-0.1,0.3-0.1,0.6-0.1,1c0,0.7,0.2,1.3,0.7,1.8c0.4,0.4,1.1,0.7,1.8,0.7
			c0.4,0,0.8-0.1,1.1-0.2c0.3-0.1,0.6-0.3,0.8-0.5c0.2-0.2,0.4-0.5,0.5-0.8C332.7,269,332.7,268.7,332.7,268.3z"/>
		<path id="XMLID_8260_" class="st30" d="M352.8,278.6c0,0.2-0.1,0.3-0.2,0.4c-0.1,0.1-0.3,0.2-0.5,0.2c-0.2,0-0.6,0.1-1,0.1
			c-0.5,0-0.9,0-1.1-0.1c-0.2,0-0.4-0.1-0.5-0.2c-0.1-0.1-0.1-0.2-0.1-0.4v-1.2c-0.6,0.7-1.3,1.2-2.1,1.5c-0.8,0.4-1.6,0.5-2.6,0.5
			c-0.8,0-1.5-0.1-2.2-0.3c-0.7-0.2-1.2-0.5-1.7-0.9c-0.5-0.4-0.9-0.9-1.1-1.5c-0.3-0.6-0.4-1.3-0.4-2.1c0-0.9,0.2-1.6,0.5-2.2
			s0.8-1.2,1.5-1.6c0.7-0.4,1.5-0.7,2.5-0.9c1-0.2,2.1-0.3,3.5-0.3h1.4v-0.9c0-0.5,0-0.9-0.1-1.2c-0.1-0.3-0.2-0.6-0.5-0.9
			s-0.5-0.4-0.9-0.5c-0.4-0.1-0.8-0.2-1.3-0.2c-0.7,0-1.3,0.1-1.9,0.2s-1,0.3-1.4,0.5c-0.4,0.2-0.8,0.4-1,0.5
			c-0.3,0.2-0.5,0.2-0.7,0.2c-0.1,0-0.2,0-0.3-0.1c-0.1-0.1-0.2-0.2-0.2-0.3c-0.1-0.1-0.1-0.3-0.1-0.5c0-0.2,0-0.4,0-0.7
			c0-0.3,0-0.6,0.1-0.8c0.1-0.2,0.2-0.4,0.3-0.5c0.2-0.2,0.4-0.3,0.8-0.5s0.8-0.4,1.4-0.5c0.5-0.2,1.1-0.3,1.7-0.4
			c0.6-0.1,1.2-0.2,1.9-0.2c1.2,0,2.1,0.1,3,0.3c0.8,0.2,1.5,0.6,2,1c0.5,0.5,0.9,1.1,1.2,1.8c0.2,0.7,0.4,1.6,0.4,2.6V278.6z
			 M348.7,272.3h-1.6c-0.7,0-1.2,0-1.7,0.1c-0.5,0.1-0.9,0.2-1.2,0.4c-0.3,0.2-0.5,0.4-0.7,0.7c-0.1,0.3-0.2,0.6-0.2,1
			c0,0.6,0.2,1.1,0.6,1.5c0.4,0.4,0.9,0.5,1.6,0.5c0.6,0,1.1-0.1,1.6-0.4c0.5-0.3,1-0.7,1.5-1.3V272.3z"/>
		<path id="XMLID_8263_" class="st30" d="M366.4,265.2c0,0.4,0,0.7,0,1c0,0.3-0.1,0.5-0.1,0.6c0,0.1-0.1,0.2-0.2,0.3
			c-0.1,0.1-0.2,0.1-0.3,0.1c-0.1,0-0.2,0-0.3-0.1c-0.1,0-0.2-0.1-0.4-0.1s-0.3-0.1-0.5-0.1s-0.3-0.1-0.5-0.1c-0.2,0-0.5,0-0.7,0.1
			c-0.2,0.1-0.5,0.2-0.7,0.4s-0.5,0.5-0.8,0.8s-0.6,0.7-0.9,1.2v9.2c0,0.1,0,0.2-0.1,0.3c-0.1,0.1-0.2,0.2-0.3,0.2
			c-0.2,0.1-0.4,0.1-0.6,0.1c-0.3,0-0.6,0-1,0s-0.7,0-1,0c-0.3,0-0.5-0.1-0.6-0.1c-0.2-0.1-0.3-0.1-0.3-0.2
			c-0.1-0.1-0.1-0.2-0.1-0.3v-14.7c0-0.1,0-0.2,0.1-0.3c0.1-0.1,0.2-0.2,0.3-0.2c0.1-0.1,0.3-0.1,0.6-0.1s0.5,0,0.9,0
			c0.4,0,0.6,0,0.9,0s0.4,0.1,0.5,0.1c0.1,0.1,0.2,0.1,0.3,0.2c0.1,0.1,0.1,0.2,0.1,0.3v1.8c0.4-0.6,0.7-1,1.1-1.4
			c0.3-0.4,0.7-0.6,1-0.9c0.3-0.2,0.6-0.4,0.9-0.4c0.3-0.1,0.6-0.1,0.9-0.1c0.1,0,0.3,0,0.5,0c0.2,0,0.3,0,0.5,0.1
			c0.2,0,0.3,0.1,0.5,0.1c0.1,0,0.2,0.1,0.3,0.2c0.1,0.1,0.1,0.1,0.1,0.2c0,0.1,0.1,0.2,0.1,0.3c0,0.1,0,0.3,0,0.5
			C366.4,264.5,366.4,264.8,366.4,265.2z"/>
		<path id="XMLID_8265_" class="st30" d="M379,274.4c0,0.8-0.2,1.6-0.5,2.2c-0.3,0.6-0.8,1.2-1.3,1.6c-0.6,0.4-1.3,0.8-2,1
			c-0.8,0.2-1.6,0.3-2.5,0.3c-0.6,0-1.1,0-1.6-0.1c-0.5-0.1-1-0.2-1.3-0.3c-0.4-0.1-0.7-0.3-1-0.4c-0.3-0.1-0.5-0.3-0.6-0.4
			c-0.1-0.1-0.2-0.3-0.3-0.5c-0.1-0.2-0.1-0.6-0.1-1.1c0-0.3,0-0.6,0-0.8c0-0.2,0.1-0.3,0.1-0.5c0-0.1,0.1-0.2,0.2-0.2
			s0.1-0.1,0.2-0.1c0.1,0,0.3,0.1,0.5,0.2c0.2,0.1,0.5,0.3,0.9,0.5c0.4,0.2,0.8,0.3,1.2,0.5c0.5,0.1,1,0.2,1.6,0.2
			c0.4,0,0.7,0,1-0.1c0.3-0.1,0.5-0.2,0.8-0.3c0.2-0.1,0.4-0.3,0.5-0.5c0.1-0.2,0.2-0.5,0.2-0.8c0-0.3-0.1-0.6-0.3-0.9
			c-0.2-0.2-0.5-0.4-0.8-0.6c-0.3-0.2-0.7-0.3-1.1-0.5s-0.9-0.3-1.3-0.5c-0.4-0.2-0.9-0.4-1.3-0.6c-0.4-0.2-0.8-0.5-1.1-0.9
			c-0.3-0.4-0.6-0.8-0.8-1.3c-0.2-0.5-0.3-1.1-0.3-1.8c0-0.7,0.1-1.4,0.4-1.9c0.3-0.6,0.7-1.1,1.2-1.5s1.1-0.7,1.9-1
			s1.6-0.3,2.5-0.3c0.5,0,0.9,0,1.3,0.1c0.4,0.1,0.8,0.1,1.2,0.2c0.4,0.1,0.6,0.2,0.9,0.3c0.2,0.1,0.4,0.2,0.5,0.3
			c0.1,0.1,0.2,0.2,0.2,0.2c0,0.1,0.1,0.2,0.1,0.3c0,0.1,0,0.3,0.1,0.4c0,0.2,0,0.4,0,0.6c0,0.3,0,0.5,0,0.7c0,0.2,0,0.3-0.1,0.4
			c0,0.1-0.1,0.2-0.2,0.2c-0.1,0-0.1,0.1-0.2,0.1c-0.1,0-0.3-0.1-0.5-0.2c-0.2-0.1-0.5-0.2-0.8-0.4s-0.7-0.3-1.1-0.4
			s-0.9-0.2-1.4-0.2c-0.4,0-0.7,0-1,0.1c-0.3,0.1-0.5,0.2-0.7,0.3c-0.2,0.1-0.3,0.3-0.4,0.5c-0.1,0.2-0.1,0.4-0.1,0.6
			c0,0.3,0.1,0.6,0.3,0.9s0.5,0.4,0.8,0.6c0.3,0.2,0.7,0.3,1.2,0.5s0.9,0.3,1.3,0.5s0.9,0.4,1.3,0.6c0.4,0.2,0.8,0.5,1.2,0.9
			c0.3,0.4,0.6,0.8,0.8,1.3S379,273.7,379,274.4z"/>
		<path id="XMLID_8267_" class="st30" d="M387,276.7c0,1-0.2,1.7-0.5,2.1c-0.4,0.4-1,0.5-1.9,0.5c-0.9,0-1.6-0.2-1.9-0.5
			c-0.4-0.3-0.5-1-0.5-2c0-1,0.2-1.7,0.5-2.1c0.4-0.4,1-0.5,1.9-0.5c0.9,0,1.5,0.2,1.9,0.5C386.8,275.1,387,275.8,387,276.7z"/>
	</g>
</g>
</svg>
