<?xml version="1.0" encoding="utf-8"?>
<!-- Generator: Adobe Illustrator 16.0.0, SVG Export Plug-In . SVG Version: 6.00 Build 0)  -->
<!DOCTYPE svg PUBLIC "-//W3C//DTD SVG 1.1//EN" "http://www.w3.org/Graphics/SVG/1.1/DTD/svg11.dtd">
<svg version="1.1" id="Layer_2" xmlns="http://www.w3.org/2000/svg" xmlns:xlink="http://www.w3.org/1999/xlink" x="0px" y="0px"
	 width="759px" height="439px" viewBox="0 0 759 439" style="enable-background:new 0 0 759 439;" xml:space="preserve">
<style type="text/css">
<![CDATA[
	.st0{fill:#4659A7;}
	.st1{fill:#7DA0D4;}
	.st2{fill:#7F5E26;}
	.st3{fill:#151943;}
	.st4{fill:#171719;}
	.st5{fill:#172919;}
	.st6{fill:#18331B;}
	.st7{fill:#E72834;}
	.st8{fill:#E7E9E9;}
	.st9{fill:#E8EAEA;}
	.st10{fill-rule:evenodd;clip-rule:evenodd;fill:none;stroke:#E4C54B;stroke-width:1.7463;stroke-miterlimit:10;}
	.st11{fill:#EAE71E;}
	.st12{fill:#EB185B;}
	.st13{fill:#EC2127;}
	.st14{fill:#503C2C;}
	.st15{fill:#507FC1;}
	.st16{fill:#542D8B;}
	.st17{fill:#8C6828;}
	.st18{fill:#BF2327;}
	.st19{fill:#231F20;}
	.st20{fill:#F7F3A3;}
	.st21{fill-rule:evenodd;clip-rule:evenodd;fill:none;stroke:#E4C54B;stroke-width:2.6195;stroke-miterlimit:10;}
	.st22{fill:#C2922E;}
	.st23{fill:#C597C5;}
	.st24{fill:#966828;}
	.st25{fill:#2B378B;}
	.st26{fill:#FAA532;}
	.st27{fill:#FBCA28;}
	.st28{fill:#FBCD36;}
	.st29{fill-rule:evenodd;clip-rule:evenodd;}
	.st30{fill:#FFFFFF;}
	.st31{fill-rule:evenodd;clip-rule:evenodd;fill:#F0CEE3;}
	.st32{fill:#FFFFFF;stroke:#7DA0D4;stroke-miterlimit:10;}
	.st33{fill:none;}
	.st34{fill:#231F20;stroke:#231F20;stroke-width:0.5;stroke-miterlimit:10;}
	.st35{fill:#679B9B;}
	.st36{fill:#9B732B;}
	.st37{fill:#CB7361;}
	.st38{fill:#CC2228;}
	.st39{fill:#311C10;}
	.st40{fill:#EC2127;stroke:#EC2127;stroke-width:0.5;stroke-miterlimit:10;}
	.st41{fill:#381414;}
	.st42{fill-rule:evenodd;clip-rule:evenodd;fill:#FBCDCD;}
	.st43{fill:#010101;}
	.st44{fill-rule:evenodd;clip-rule:evenodd;fill:#FFFFFF;}
	.st45{fill:#FFFFFF;stroke:#FFFFFF;stroke-miterlimit:10;}
	.st46{fill-rule:evenodd;clip-rule:evenodd;fill:#641E0F;}
	.st47{fill:#D3D3D3;}
	.st48{fill:#060707;}
	.st49{fill:#080908;}
	.st50{fill:#721212;}
	.st51{fill:#0E8141;}
	.st52{fill:#424143;}
	.st53{fill:#4259A8;}
]]>
</style>
<g id="XMLID_10495_">
	<path id="XMLID_6188_" class="st48" d="M475,155c-20.7-30.6-55.8-50.8-95.5-50.8c-39.7,0-74.8,20.2-95.5,50.8H0v129h284
		c20.7,30.6,55.8,50.8,95.5,50.8c39.7,0,74.8-20.2,95.5-50.8h284V155H475z"/>
	<g id="XMLID_7607_">
		<path id="XMLID_7608_" class="st30" d="M350.1,170.9l-7-10.9h2.1l5.8,9.1l5.9-9.1h2l-7,10.9v8.2h-1.8V170.9z"/>
		<path id="XMLID_7610_" class="st30" d="M370,159.6c5.8,0,9.9,4.2,9.9,10s-4,10-9.9,10s-9.9-4.2-9.9-10S364.2,159.6,370,159.6z
			 M370,178c5,0,8.1-3.7,8.1-8.4s-3.1-8.4-8.1-8.4c-5,0-8.1,3.7-8.1,8.4S365,178,370,178z"/>
		<path id="XMLID_7613_" class="st30" d="M397.5,171.9c0,4.1-1.8,7.8-7,7.8c-5.2,0-7-3.7-7-7.8v-11.8h1.8v11.3
			c0,2.7,0.7,6.6,5.2,6.6c4.5,0,5.2-3.9,5.2-6.6v-11.3h1.8V171.9z"/>
		<path id="XMLID_7624_" class="st30" d="M402.4,160.1h5c1.5,0,6.8,0,6.8,5c0,3.6-2.8,4.6-4.9,4.9l5.6,9.2h-2l-5.4-9.1h-3.3v9.1
			h-1.8V160.1z M404.1,168.5h3.8c3.8,0,4.5-2.1,4.5-3.4c0-1.3-0.7-3.4-4.5-3.4h-3.8V168.5z"/>
		<path id="XMLID_7674_" class="st30" d="M314.4,194.1h1.8l4.8,16.9h0.1l4.8-16.9h2.3l4.8,16.9h0.1l4.8-16.9h1.8l-5.6,19.1h-2.2
			l-4.8-17h-0.1l-4.8,17h-2.2L314.4,194.1z"/>
		<path id="XMLID_7676_" class="st30" d="M342.3,194.1H354v1.6h-9.9v6.8h9.3v1.6h-9.3v7.4h10.3v1.6h-12.1V194.1z"/>
		<path id="XMLID_7678_" class="st30" d="M358.1,194.1h5.9c9.9,0,10.3,8.2,10.3,9.6s-0.4,9.6-10.3,9.6h-5.9V194.1z M359.9,211.6h3.7
			c5.1,0,9-2.5,9-7.9s-3.9-7.9-9-7.9h-3.7V211.6z"/>
		<path id="XMLID_7702_" class="st30" d="M378.1,194.1h5.9c9.9,0,10.3,8.2,10.3,9.6s-0.4,9.6-10.3,9.6h-5.9V194.1z M379.9,211.6h3.7
			c5.1,0,9-2.5,9-7.9s-3.9-7.9-9-7.9h-3.7V211.6z"/>
		<path id="XMLID_7705_" class="st30" d="M398.4,194.1h1.8v19.1h-1.8V194.1z"/>
		<path id="XMLID_7707_" class="st30" d="M405.4,194.1h2.3l11.6,16.7h0.1v-16.7h1.8v19.1h-2.3l-11.6-16.7h-0.1v16.7h-1.8V194.1z"/>
		<path id="XMLID_7709_" class="st30" d="M442.1,211.9c-2.2,1.3-4.6,1.7-7.1,1.7c-5.8,0-9.9-4.2-9.9-10s4-10,9.9-10
			c2.8,0,5.1,0.9,6.9,2.6l-1.3,1.3c-1.2-1.4-3.5-2.4-5.6-2.4c-5,0-8.1,3.7-8.1,8.4s3.1,8.4,8.1,8.4c2.1,0,3.9-0.3,5.3-1.1v-6.4h-4.6
			v-1.6h6.4V211.9z"/>
		<path id="XMLID_7711_" class="st30" d="M297.1,228.1h2.7l7,16l7-16h2.5v19.1h-1.8v-16.8h-0.1l-7.3,16.8h-0.8l-7.4-16.8h-0.1v16.8
			h-1.8V228.1z"/>
		<path id="XMLID_7713_" class="st30" d="M330,227.6c5.8,0,9.9,4.2,9.9,10s-4,10-9.9,10c-5.8,0-9.9-4.2-9.9-10
			S324.1,227.6,330,227.6z M330,246c5,0,8.1-3.7,8.1-8.4s-3.1-8.4-8.1-8.4c-5,0-8.1,3.7-8.1,8.4S325,246,330,246z"/>
		<path id="XMLID_7716_" class="st30" d="M343.9,228.1h2.3l11.6,16.7h0.1v-16.7h1.8v19.1h-2.3l-11.6-16.7h-0.1v16.7h-1.8V228.1z"/>
		<path id="XMLID_7718_" class="st30" d="M373.5,227.6c5.8,0,9.9,4.2,9.9,10s-4,10-9.9,10c-5.8,0-9.9-4.2-9.9-10
			S367.7,227.6,373.5,227.6z M373.5,246c5,0,8.1-3.7,8.1-8.4s-3.1-8.4-8.1-8.4c-5,0-8.1,3.7-8.1,8.4S368.5,246,373.5,246z"/>
		<path id="XMLID_7721_" class="st30" d="M403.1,245.9c-2.2,1.3-4.6,1.7-7.1,1.7c-5.8,0-9.9-4.2-9.9-10s4-10,9.9-10
			c2.8,0,5.1,0.9,6.9,2.6l-1.3,1.3c-1.2-1.4-3.5-2.4-5.6-2.4c-5,0-8.1,3.7-8.1,8.4s3.1,8.4,8.1,8.4c2.1,0,3.9-0.3,5.3-1.1v-6.4h-4.6
			v-1.6h6.4V245.9z"/>
		<path id="XMLID_7723_" class="st30" d="M408.4,228.1h5c1.5,0,6.8,0,6.8,5c0,3.6-2.8,4.6-4.9,4.9l5.6,9.2h-2l-5.4-9.1h-3.3v9.1
			h-1.8V228.1z M410.2,236.5h3.8c3.8,0,4.5-2.1,4.5-3.4c0-1.3-0.7-3.4-4.5-3.4h-3.8V236.5z"/>
		<path id="XMLID_7832_" class="st30" d="M430.3,228.1h1.8l8,19.1h-2l-2.1-5.1h-10.1l-2.2,5.1h-1.9L430.3,228.1z M431.1,230
			l-4.5,10.5h8.8L431.1,230z"/>
		<path id="XMLID_7835_" class="st30" d="M442.7,228.1h2.7l7,16l7-16h2.5v19.1h-1.8v-16.8H460l-7.3,16.8h-0.8l-7.4-16.8h-0.1v16.8
			h-1.8V228.1z"/>
		<path id="XMLID_7837_" class="st30" d="M348.4,262.1h1.8v8.4h10.7v-8.4h1.8v19.1h-1.8v-9.1h-10.7v9.1h-1.8V262.1z"/>
		<path id="XMLID_7839_" class="st30" d="M367.8,262.1h11.7v1.6h-9.9v6.8h9.3v1.6h-9.3v7.4H380v1.6h-12.1V262.1z"/>
		<path id="XMLID_7842_" class="st30" d="M383.9,262.1h5c1.5,0,6.8,0,6.8,5c0,3.6-2.8,4.6-4.9,4.9l5.6,9.2h-2l-5.4-9.1h-3.3v9.1
			h-1.8V262.1z M385.6,270.5h3.8c3.8,0,4.5-2.1,4.5-3.4c0-1.3-0.7-3.4-4.5-3.4h-3.8V270.5z"/>
		<path id="XMLID_7845_" class="st30" d="M399.9,262.1h11.7v1.6h-9.9v6.8h9.3v1.6h-9.3v7.4H412v1.6h-12.1V262.1z"/>
	</g>
</g>
</svg>
