<?xml version="1.0" encoding="utf-8"?>
<!-- Generator: Adobe Illustrator 16.0.0, SVG Export Plug-In . SVG Version: 6.00 Build 0)  -->
<!DOCTYPE svg PUBLIC "-//W3C//DTD SVG 1.1//EN" "http://www.w3.org/Graphics/SVG/1.1/DTD/svg11.dtd">
<svg version="1.1" id="Layer_2" xmlns="http://www.w3.org/2000/svg" xmlns:xlink="http://www.w3.org/1999/xlink" x="0px" y="0px"
	 width="759px" height="439px" viewBox="0 0 759 439" style="enable-background:new 0 0 759 439;" xml:space="preserve">
<style type="text/css">
<![CDATA[
	.st0{fill:#4659A7;}
	.st1{fill:#7DA0D4;}
	.st2{fill:#7F5E26;}
	.st3{fill:#151943;}
	.st4{fill:#171719;}
	.st5{fill:#172919;}
	.st6{fill:#18331B;}
	.st7{fill:#E72834;}
	.st8{fill:#E7E9E9;}
	.st9{fill:#E8EAEA;}
	.st10{fill-rule:evenodd;clip-rule:evenodd;fill:none;stroke:#E4C54B;stroke-width:1.7463;stroke-miterlimit:10;}
	.st11{fill:#EAE71E;}
	.st12{fill:#EB185B;}
	.st13{fill:#EC2127;}
	.st14{fill:#503C2C;}
	.st15{fill:#507FC1;}
	.st16{fill:#542D8B;}
	.st17{fill:#8C6828;}
	.st18{fill:#BF2327;}
	.st19{fill:#231F20;}
	.st20{fill:#F7F3A3;}
	.st21{fill-rule:evenodd;clip-rule:evenodd;fill:none;stroke:#E4C54B;stroke-width:2.6195;stroke-miterlimit:10;}
	.st22{fill:#C2922E;}
	.st23{fill:#C597C5;}
	.st24{fill:#966828;}
	.st25{fill:#2B378B;}
	.st26{fill:#FAA532;}
	.st27{fill:#FBCA28;}
	.st28{fill:#FBCD36;}
	.st29{fill-rule:evenodd;clip-rule:evenodd;}
	.st30{fill:#FFFFFF;}
	.st31{fill-rule:evenodd;clip-rule:evenodd;fill:#F0CEE3;}
	.st32{fill:#FFFFFF;stroke:#7DA0D4;stroke-miterlimit:10;}
	.st33{fill:none;}
	.st34{fill:#231F20;stroke:#231F20;stroke-width:0.5;stroke-miterlimit:10;}
	.st35{fill:#679B9B;}
	.st36{fill:#9B732B;}
	.st37{fill:#CB7361;}
	.st38{fill:#CC2228;}
	.st39{fill:#311C10;}
	.st40{fill:#EC2127;stroke:#EC2127;stroke-width:0.5;stroke-miterlimit:10;}
	.st41{fill:#381414;}
	.st42{fill-rule:evenodd;clip-rule:evenodd;fill:#FBCDCD;}
	.st43{fill:#010101;}
	.st44{fill-rule:evenodd;clip-rule:evenodd;fill:#FFFFFF;}
	.st45{fill:#FFFFFF;stroke:#FFFFFF;stroke-miterlimit:10;}
	.st46{fill-rule:evenodd;clip-rule:evenodd;fill:#641E0F;}
	.st47{fill:#D3D3D3;}
	.st48{fill:#060707;}
	.st49{fill:#080908;}
	.st50{fill:#721212;}
	.st51{fill:#0E8141;}
	.st52{fill:#424143;}
	.st53{fill:#4259A8;}
]]>
</style>
<g id="XMLID_10523_">
	<path id="XMLID_7046_" class="st42" d="M379.5,361.4c-19.2,0-37.8-11-52.6-30.9c-3.1,1.4-6.4,2.1-9.7,2.1
		c-12.7,0-23.1-10.1-23.6-22.7c-2.1,0.5-4.2,0.8-6.4,0.8c-14.6,0-26.5-11.5-27.2-25.8L-0.2,274.3V164.7l260.4-10.5
		c1.9-13.3,13.3-23.4,26.9-23.4c2.2,0,4.3,0.3,6.4,0.8c0.5-12.6,10.9-22.7,23.6-22.7c2.9,0,5.7,0.5,8.4,1.6
		c15.1-21.2,34.2-32.8,54-32.8c19.7,0,38.8,11.6,53.8,32.6c2.5-0.9,5.2-1.4,7.9-1.4c12.8,0,23.2,10.2,23.6,22.9
		c2.3-0.6,4.6-0.9,7-0.9c13.7,0,25.1,10.1,26.9,23.4l260.4,10.5v109.6l-260.1,10.5c-0.7,14.4-12.7,25.8-27.2,25.8
		c-2.4,0-4.8-0.3-7-0.9c-0.4,12.7-10.8,22.9-23.6,22.9c-3.2,0-6.3-0.6-9.2-1.9C417.1,350.5,398.6,361.4,379.5,361.4z"/>
	<g id="XMLID_6872_">
		<g id="XMLID_6873_">
			<g id="XMLID_6874_">
				<g id="XMLID_7044_">
					
						<ellipse id="XMLID_7045_" transform="matrix(0.9992 -3.956782e-002 3.956782e-002 0.9992 -6.9495 0.4641)" class="st44" cx="8.3" cy="175.8" rx="2.8" ry="2.8"/>
				</g>
				<g id="XMLID_7042_">
					
						<ellipse id="XMLID_7043_" transform="matrix(0.9992 -3.956098e-002 3.956098e-002 0.9992 -6.9218 0.9105)" class="st44" cx="19.5" cy="175.4" rx="2.8" ry="2.8"/>
				</g>
				<g id="XMLID_7040_">
					
						<ellipse id="XMLID_7041_" transform="matrix(0.9992 -3.956782e-002 3.956782e-002 0.9992 -6.8964 1.3573)" class="st44" cx="30.8" cy="174.9" rx="2.8" ry="2.8"/>
				</g>
				<g id="XMLID_7038_">
					
						<ellipse id="XMLID_7039_" transform="matrix(0.9992 -3.956098e-002 3.956098e-002 0.9992 -6.8687 1.8036)" class="st44" cx="42.1" cy="174.5" rx="2.8" ry="2.8"/>
				</g>
				<g id="XMLID_7036_">
					
						<ellipse id="XMLID_7037_" transform="matrix(0.9992 -3.956098e-002 3.956098e-002 0.9992 -6.8422 2.2502)" class="st44" cx="53.4" cy="174" rx="2.8" ry="2.8"/>
				</g>
				<g id="XMLID_7034_">
					
						<ellipse id="XMLID_7035_" transform="matrix(0.9992 -3.938850e-002 3.938850e-002 0.9992 -6.7862 2.6844)" class="st44" cx="64.7" cy="173.6" rx="2.8" ry="2.8"/>
				</g>
				<g id="XMLID_7032_">
					
						<ellipse id="XMLID_7033_" transform="matrix(0.9992 -3.956098e-002 3.956098e-002 0.9992 -6.7892 3.1433)" class="st44" cx="76" cy="173.1" rx="2.8" ry="2.8"/>
				</g>
				<g id="XMLID_7030_">
					
						<ellipse id="XMLID_7031_" transform="matrix(0.9992 -3.956098e-002 3.956098e-002 0.9992 -6.7626 3.5898)" class="st44" cx="87.3" cy="172.7" rx="2.8" ry="2.8"/>
				</g>
				<g id="XMLID_7028_">
					
						<ellipse id="XMLID_7029_" transform="matrix(0.9992 -3.956098e-002 3.956098e-002 0.9992 -6.7361 4.0364)" class="st44" cx="98.6" cy="172.2" rx="2.8" ry="2.8"/>
				</g>
				<g id="XMLID_7026_">
					
						<ellipse id="XMLID_7027_" transform="matrix(0.9992 -3.956098e-002 3.956098e-002 0.9992 -6.7096 4.4829)" class="st44" cx="109.9" cy="171.8" rx="2.8" ry="2.8"/>
				</g>
				<g id="XMLID_7024_">
					
						<ellipse id="XMLID_7025_" transform="matrix(0.9992 -3.956098e-002 3.956098e-002 0.9992 -6.6831 4.9294)" class="st44" cx="121.2" cy="171.3" rx="2.8" ry="2.8"/>
				</g>
				<g id="XMLID_7022_">
					
						<ellipse id="XMLID_7023_" transform="matrix(0.9992 -3.956098e-002 3.956098e-002 0.9992 -6.6565 5.376)" class="st44" cx="132.5" cy="170.9" rx="2.8" ry="2.8"/>
				</g>
				<g id="XMLID_7020_">
					
						<ellipse id="XMLID_7021_" transform="matrix(0.9992 -3.956098e-002 3.956098e-002 0.9992 -6.63 5.8225)" class="st44" cx="143.8" cy="170.4" rx="2.8" ry="2.8"/>
				</g>
				<g id="XMLID_7018_">
					
						<ellipse id="XMLID_7019_" transform="matrix(0.9992 -3.956098e-002 3.956098e-002 0.9992 -6.6035 6.2691)" class="st44" cx="155.1" cy="170" rx="2.8" ry="2.8"/>
				</g>
				<g id="XMLID_7016_">
					
						<ellipse id="XMLID_7017_" transform="matrix(0.9992 -3.938850e-002 3.938850e-002 0.9992 -6.5489 6.6858)" class="st44" cx="166.4" cy="169.5" rx="2.8" ry="2.8"/>
				</g>
				<g id="XMLID_7014_">
					
						<ellipse id="XMLID_7015_" transform="matrix(0.9992 -3.956098e-002 3.956098e-002 0.9992 -6.5505 7.1622)" class="st44" cx="177.7" cy="169.1" rx="2.8" ry="2.8"/>
				</g>
				<g id="XMLID_7012_">
					
						<ellipse id="XMLID_7013_" transform="matrix(0.9992 -3.974033e-002 3.974033e-002 0.9992 -6.5529 7.6438)" class="st44" cx="189" cy="168.6" rx="2.8" ry="2.8"/>
				</g>
				<g id="XMLID_7010_">
					
						<ellipse id="XMLID_7011_" transform="matrix(0.9992 -3.956098e-002 3.956098e-002 0.9992 -6.4974 8.0552)" class="st44" cx="200.3" cy="168.2" rx="2.8" ry="2.8"/>
				</g>
				<g id="XMLID_7008_">
					
						<ellipse id="XMLID_7009_" transform="matrix(0.9992 -3.939530e-002 3.939530e-002 0.9992 -6.4445 8.4657)" class="st44" cx="211.6" cy="167.8" rx="2.8" ry="2.8"/>
				</g>
				<g id="XMLID_7006_">
					
						<ellipse id="XMLID_7007_" transform="matrix(0.9992 -3.956098e-002 3.956098e-002 0.9992 -6.4444 8.9483)" class="st44" cx="222.9" cy="167.3" rx="2.8" ry="2.8"/>
				</g>
				<g id="XMLID_7004_">
					
						<ellipse id="XMLID_7005_" transform="matrix(0.9992 -3.956098e-002 3.956098e-002 0.9992 -6.4179 9.3949)" class="st44" cx="234.2" cy="166.9" rx="2.8" ry="2.8"/>
				</g>
				<g id="XMLID_7002_">
					
						<ellipse id="XMLID_7003_" transform="matrix(0.9992 -3.956098e-002 3.956098e-002 0.9992 -6.3914 9.8414)" class="st44" cx="245.5" cy="166.4" rx="2.8" ry="2.8"/>
				</g>
				<g id="XMLID_7000_">
					
						<ellipse id="XMLID_7001_" transform="matrix(0.9992 -3.956782e-002 3.956782e-002 0.9992 -6.3659 10.2898)" class="st44" cx="256.8" cy="166" rx="2.8" ry="2.8"/>
				</g>
				<g id="XMLID_6998_">
					<path id="XMLID_6999_" class="st44" d="M270.1,162.9c1.2,1.1,0.9,3.2-0.9,4.2c-1.9,1-3.8,0-4-1.6c-0.2-1.5,0.4-3,1.3-3.5
						C267.5,161.6,269,161.8,270.1,162.9z"/>
				</g>
				<g id="XMLID_6996_">
					<path id="XMLID_6997_" class="st44" d="M274.4,152.6c1.4,0.7,2.1,2.2,1.8,3.4c-0.2,0.6-0.6,1.1-1.2,1.5
						c-0.6,0.5-1.4,0.7-2.1,0.5s-1.4-0.6-1.8-1.1c-0.4-0.6-0.6-1.5-0.3-2.4C271.2,152.7,273,151.9,274.4,152.6z"/>
				</g>
				<g id="XMLID_6994_">
					<path id="XMLID_6995_" class="st44" d="M282.1,144.6c0.7,1.4,0.3,3-0.7,3.8c-1,0.7-2.6,0.6-3.8-0.4c-1.1-1-1-3,0.5-4.1
						C279.6,142.7,281.5,143.2,282.1,144.6z"/>
				</g>
				<g id="XMLID_6992_">
					<path id="XMLID_6993_" class="st44" d="M293.1,143.3c-0.4,1.5-1.7,2.5-2.9,2.5c-1.2,0-2.4-1.2-2.7-2.7c-0.2-1.6,1.1-3,3-3
						C292.4,140.2,293.5,141.8,293.1,143.3z"/>
				</g>
				<g id="XMLID_6990_">
					<path id="XMLID_6991_" class="st44" d="M303.3,140c1.3,0.9,1.3,3.1-0.5,4.2c-1.7,1.2-3.7,0.4-4.1-1.1c-0.4-1.5,0.1-3,0.9-3.6
						C300.5,139,302.1,139.1,303.3,140z"/>
				</g>
				<g id="XMLID_6988_">
					<path id="XMLID_6989_" class="st44" d="M306.6,129.4c1.4,0.7,2.2,2.1,2,3.2c-0.1,0.6-0.5,1.1-1,1.5c-0.5,0.5-1.3,0.8-2.1,0.7
						c-0.8-0.1-1.5-0.4-1.9-0.9c-0.5-0.6-0.7-1.5-0.5-2.4C303.4,129.6,305.2,128.7,306.6,129.4z"/>
				</g>
				<g id="XMLID_6986_">
					<path id="XMLID_6987_" class="st44" d="M314.8,122.1c0.4,1.5-0.2,3-1.2,3.6c-1,0.6-2.6,0.3-3.7-0.8c-1.1-1.1-0.8-3.2,0.9-4.1
						C312.5,119.8,314.4,120.6,314.8,122.1z"/>
				</g>
				<g id="XMLID_6984_">
					<path id="XMLID_6985_" class="st44" d="M325.8,122.9c-0.1,0.8-0.5,1.5-1.2,1.8c-0.6,0.4-1.8,0.4-2.5,0.1
						c-1.1-0.4-1.9-1.8-1.8-3.3c0.1-1.6,1.8-2.7,3.7-2c0.8,0.3,1,0.7,1.3,1.3C325.7,121.4,325.9,122.2,325.8,122.9z"/>
				</g>
				<g id="XMLID_6982_">
					<path id="XMLID_6983_" class="st44" d="M335.4,118.2c0.6,0.5,1,1.1,1.1,1.8c0.1,0.8-0.3,1.7-1,2.4c-1.5,1.4-3.6,1-4.3-0.5
						c-0.6-1.4-0.4-3,0.4-3.7c0.4-0.4,0.9-0.5,1.6-0.6C334,117.6,334.8,117.7,335.4,118.2z"/>
				</g>
				<g id="XMLID_6980_">
					<path id="XMLID_6981_" class="st44" d="M342.6,109.5c1.1,1.1,1.2,2.9,0.2,4c-1,1.1-2.7,1.3-4,0.3c-1.2-1-1.4-2.8-0.3-4
						C339.7,108.5,341.5,108.4,342.6,109.5z"/>
				</g>
				<g id="XMLID_6978_">
					<path id="XMLID_6979_" class="st44" d="M350.9,101.8c0.9,1.2,0.8,3-0.4,4c-1.2,0.9-2.9,0.9-4-0.3c-1.1-1.1-1-3,0.3-4
						C348.2,100.4,350,100.6,350.9,101.8z"/>
				</g>
				<g id="XMLID_6976_">
					<path id="XMLID_6977_" class="st44" d="M360.5,95.8c0.7,1.4,0.2,3-1.1,3.8c-1.3,0.7-3,0.3-3.8-1c-0.9-1.3-0.4-3.1,1-3.9
						C358,93.8,359.8,94.4,360.5,95.8z"/>
				</g>
				<g id="XMLID_6974_">
					<path id="XMLID_6975_" class="st44" d="M371.1,92c0.3,1.5-0.6,3-2,3.4c-1.4,0.4-2.9-0.4-3.5-1.9c-0.5-1.4,0.3-3.2,1.9-3.6
						C369.2,89.5,370.8,90.4,371.1,92z"/>
				</g>
				<g id="XMLID_6972_">
					<path id="XMLID_6973_" class="st44" d="M382.3,91.2c-0.1,1.6-1.4,2.8-2.8,2.7c-1.4,0.1-2.7-1.2-2.8-2.7
						c-0.1-1.6,1.1-2.9,2.8-2.9C381.2,88.3,382.5,89.6,382.3,91.2z"/>
				</g>
				<g id="XMLID_6970_">
					<path id="XMLID_6971_" class="st44" d="M393.3,93.5c-0.6,1.5-2.1,2.2-3.5,1.9c-1.4-0.4-2.3-1.9-2-3.4c0.3-1.6,1.9-2.5,3.5-2
						C393,90.4,393.9,92.1,393.3,93.5z"/>
				</g>
				<g id="XMLID_6968_">
					<path id="XMLID_6969_" class="st44" d="M403.4,98.5c-0.8,1.3-2.6,1.7-3.8,1c-1.2-0.8-1.8-2.4-1.1-3.8c0.7-1.4,2.5-2,3.9-1.1
						C403.9,95.4,404.3,97.2,403.4,98.5z"/>
				</g>
				<g id="XMLID_6966_">
					<path id="XMLID_6967_" class="st44" d="M412.4,105.5c-1.1,1.2-2.8,1.2-4,0.3c-1.1-1-1.3-2.7-0.4-4c1-1.3,2.8-1.4,4-0.4
						C413.4,102.5,413.4,104.3,412.4,105.5z"/>
				</g>
				<g id="XMLID_6964_">
					<path id="XMLID_6965_" class="st44" d="M420.1,113.7c-1.2,1-2.9,0.8-4-0.3c-1-1.1-0.9-2.9,0.2-4c1.1-1.1,2.9-1,4,0.2
						C421.5,110.9,421.3,112.7,420.1,113.7z"/>
				</g>
				<g id="XMLID_6937_">
					<path id="XMLID_6963_" class="st44" d="M427.7,121.9c-0.6,1.5-2.7,2-4.2,0.6c-0.8-0.7-1.1-1.6-1.1-2.4c0.1-0.7,0.5-1.4,1.1-1.9
						c0.6-0.5,1.4-0.6,2.1-0.5c0.7,0,1.2,0.2,1.6,0.6C428,118.9,428.3,120.4,427.7,121.9z"/>
				</g>
				<g id="XMLID_6935_">
					<path id="XMLID_6936_" class="st44" d="M438.8,121.5c0,1.6-0.9,2.9-2,3.2c-0.4,0.1-1.6,0.2-2.3-0.2c-0.7-0.4-1.2-1-1.3-1.8
						c-0.1-0.8,0.1-1.5,0.4-2.1c0.3-0.6,0.5-1,1.6-1.3C437.1,118.7,438.7,119.9,438.8,121.5z"/>
				</g>
				<g id="XMLID_6933_">
					<path id="XMLID_6934_" class="st44" d="M449,125.4c-1.1,1.1-2.8,1.2-3.7,0.6c-1-0.6-1.5-2.2-1-3.7c0.5-1.5,2.4-2.1,4.1-1.1
						C450,122.4,450.1,124.4,449,125.4z"/>
				</g>
				<g id="XMLID_6931_">
					<path id="XMLID_6932_" class="st44" d="M453,135.7c-0.8,0.1-1.5-0.1-2.1-0.6c-0.6-0.7-0.9-1.2-1-1.8c-0.2-1.1,0.7-2.5,2.1-3.1
						c1.4-0.6,3.2,0.4,3.5,2.3c0.1,1-0.2,1.9-0.7,2.2C454.4,135.2,453.7,135.6,453,135.7z"/>
				</g>
				<g id="XMLID_6929_">
					<path id="XMLID_6930_" class="st44" d="M460.3,143.5c-0.3,1.5-2.2,2.5-4,1.4c-1.8-1.1-2-3.2-0.8-4.2c1.2-1,2.7-1.2,3.6-0.7
						C460,140.5,460.6,142,460.3,143.5z"/>
				</g>
				<g id="XMLID_6927_">
					<path id="XMLID_6928_" class="st44" d="M471.5,143c-0.2,1.5-1.4,2.7-2.7,2.7c-1.3,0.1-2.6-0.9-2.9-2.5
						c-0.4-1.5,0.8-3.1,2.7-3.2C470.4,140,471.7,141.5,471.5,143z"/>
				</g>
				<g id="XMLID_6925_">
					<path id="XMLID_6926_" class="st44" d="M481.4,148c-1.2,1.1-2.8,1.2-3.8,0.4c-1-0.7-1.4-2.3-0.7-3.8c0.6-1.4,2.6-1.9,4.1-0.8
						C482.5,144.9,482.6,146.9,481.4,148z"/>
				</g>
				<g id="XMLID_6923_">
					<path id="XMLID_6924_" class="st44" d="M486.1,158c-0.8,0.2-1.5,0-2.1-0.5c-0.6-0.4-1-0.9-1.2-1.5c-0.3-1.2,0.4-2.7,1.8-3.4
						c1.4-0.7,3.2,0.1,3.7,1.9c0.3,0.9,0,1.8-0.3,2.4C487.6,157.4,486.9,157.8,486.1,158z"/>
				</g>
				<g id="XMLID_6921_">
					<path id="XMLID_6922_" class="st44" d="M493.8,165.5c-0.2,1.6-2.1,2.5-4,1.6c-1.8-1-2.1-3.1-0.9-4.2c1.2-1.1,2.7-1.3,3.6-0.8
						C493.4,162.5,494,164,493.8,165.5z"/>
				</g>
				<g id="XMLID_6919_">
					
						<ellipse id="XMLID_6920_" transform="matrix(0.9992 3.956782e-002 -3.956782e-002 0.9992 6.9602 -19.7422)" class="st44" cx="502.2" cy="166" rx="2.8" ry="2.8"/>
				</g>
				<g id="XMLID_6917_">
					
						<ellipse id="XMLID_6918_" transform="matrix(0.9992 3.956098e-002 -3.956098e-002 0.9992 6.9856 -20.1853)" class="st44" cx="513.5" cy="166.4" rx="2.8" ry="2.8"/>
				</g>
				<g id="XMLID_6915_">
					
						<ellipse id="XMLID_6916_" transform="matrix(0.9992 3.956782e-002 -3.956782e-002 0.9992 7.0133 -20.6355)" class="st44" cx="524.8" cy="166.9" rx="2.8" ry="2.8"/>
				</g>
				<g id="XMLID_6913_">
					
						<ellipse id="XMLID_6914_" transform="matrix(0.9992 3.938850e-002 -3.938850e-002 0.9992 7.006 -20.9871)" class="st44" cx="536.1" cy="167.3" rx="2.8" ry="2.8"/>
				</g>
				<g id="XMLID_6911_">
					
						<ellipse id="XMLID_6912_" transform="matrix(0.9992 3.938850e-002 -3.938850e-002 0.9992 7.0324 -21.4317)" class="st44" cx="547.4" cy="167.8" rx="2.8" ry="2.8"/>
				</g>
				<g id="XMLID_6909_">
					
						<ellipse id="XMLID_6910_" transform="matrix(0.9992 3.956098e-002 -3.956098e-002 0.9992 7.0916 -21.9715)" class="st44" cx="558.7" cy="168.2" rx="2.8" ry="2.8"/>
				</g>
				<g id="XMLID_6907_">
					
						<ellipse id="XMLID_6908_" transform="matrix(0.9992 3.973347e-002 -3.973347e-002 0.9992 7.1511 -22.5152)" class="st44" cx="570" cy="168.6" rx="2.8" ry="2.8"/>
				</g>
				<g id="XMLID_6905_">
					
						<ellipse id="XMLID_6906_" transform="matrix(0.9992 3.956098e-002 -3.956098e-002 0.9992 7.1447 -22.8646)" class="st44" cx="581.3" cy="169.1" rx="2.8" ry="2.8"/>
				</g>
				<g id="XMLID_6903_">
					
						<ellipse id="XMLID_6904_" transform="matrix(0.9992 3.938850e-002 -3.938850e-002 0.9992 7.1379 -23.2101)" class="st44" cx="592.6" cy="169.5" rx="2.8" ry="2.8"/>
				</g>
				<g id="XMLID_6901_">
					
						<ellipse id="XMLID_6902_" transform="matrix(0.9992 3.956098e-002 -3.956098e-002 0.9992 7.1977 -23.7577)" class="st44" cx="603.9" cy="170" rx="2.8" ry="2.8"/>
				</g>
				<g id="XMLID_6899_">
					
						<ellipse id="XMLID_6900_" transform="matrix(0.9992 3.956098e-002 -3.956098e-002 0.9992 7.2242 -24.2043)" class="st44" cx="615.2" cy="170.4" rx="2.8" ry="2.8"/>
				</g>
				<g id="XMLID_6897_">
					
						<ellipse id="XMLID_6898_" transform="matrix(0.9992 3.956098e-002 -3.956098e-002 0.9992 7.2507 -24.6508)" class="st44" cx="626.5" cy="170.9" rx="2.8" ry="2.8"/>
				</g>
				<g id="XMLID_6895_">
					
						<ellipse id="XMLID_6896_" transform="matrix(0.9992 3.956098e-002 -3.956098e-002 0.9992 7.2772 -25.0973)" class="st44" cx="637.8" cy="171.3" rx="2.8" ry="2.8"/>
				</g>
				<g id="XMLID_6893_">
					
						<ellipse id="XMLID_6894_" transform="matrix(0.9992 3.956782e-002 -3.956782e-002 0.9992 7.3051 -25.5483)" class="st44" cx="649.1" cy="171.8" rx="2.8" ry="2.8"/>
				</g>
				<g id="XMLID_6891_">
					
						<ellipse id="XMLID_6892_" transform="matrix(0.9992 3.956098e-002 -3.956098e-002 0.9992 7.3303 -25.9904)" class="st44" cx="660.4" cy="172.2" rx="2.8" ry="2.8"/>
				</g>
				<g id="XMLID_6889_">
					
						<ellipse id="XMLID_6890_" transform="matrix(0.9992 3.956098e-002 -3.956098e-002 0.9992 7.3568 -26.437)" class="st44" cx="671.7" cy="172.7" rx="2.8" ry="2.8"/>
				</g>
				<g id="XMLID_6887_">
					
						<ellipse id="XMLID_6888_" transform="matrix(0.9992 3.956098e-002 -3.956098e-002 0.9992 7.3834 -26.8835)" class="st44" cx="683" cy="173.1" rx="2.8" ry="2.8"/>
				</g>
				<g id="XMLID_6885_">
					
						<ellipse id="XMLID_6886_" transform="matrix(0.9992 3.938850e-002 -3.938850e-002 0.9992 7.3752 -27.2115)" class="st44" cx="694.3" cy="173.6" rx="2.8" ry="2.8"/>
				</g>
				<g id="XMLID_6883_">
					
						<ellipse id="XMLID_6884_" transform="matrix(0.9992 3.956782e-002 -3.956782e-002 0.9992 7.4377 -27.7814)" class="st44" cx="705.6" cy="174" rx="2.8" ry="2.8"/>
				</g>
				<g id="XMLID_6881_">
					
						<ellipse id="XMLID_6882_" transform="matrix(0.9992 3.956098e-002 -3.956098e-002 0.9992 7.463 -28.2231)" class="st44" cx="716.9" cy="174.5" rx="2.8" ry="2.8"/>
				</g>
				<g id="XMLID_6879_">
					
						<ellipse id="XMLID_6880_" transform="matrix(0.9992 3.956782e-002 -3.956782e-002 0.9992 7.4907 -28.6746)" class="st44" cx="728.2" cy="174.9" rx="2.8" ry="2.8"/>
				</g>
				<g id="XMLID_6877_">
					
						<ellipse id="XMLID_6878_" transform="matrix(0.9992 3.956098e-002 -3.956098e-002 0.9992 7.5159 -29.1162)" class="st44" cx="739.5" cy="175.4" rx="2.8" ry="2.8"/>
				</g>
				<g id="XMLID_6875_">
					
						<ellipse id="XMLID_6876_" transform="matrix(0.9992 3.956782e-002 -3.956782e-002 0.9992 7.5438 -29.5679)" class="st44" cx="750.8" cy="175.8" rx="2.8" ry="2.8"/>
				</g>
			</g>
		</g>
	</g>
	<path id="XMLID_6871_" class="st21" d="M-0.2,167.9l263.9-10.4l0.3-2.1c1.7-12,12.1-21,24.2-21c1.9,0,3.8,0.2,5.7,0.7l3,0.7l0.1-3
		c0.4-11.3,9.6-20.1,20.9-20.1c2.5,0,5,0.5,7.4,1.4l1.8,0.7l1.1-1.6c14.4-20.2,32.7-31.4,51.4-31.4c18.6,0,36.8,11.1,51.2,31.2
		l1.1,1.5l1.8-0.6c2.2-0.8,4.6-1.2,7-1.2c11.2,0,20.5,9.1,20.9,20.2l0.1,3.1l3-0.8c2-0.5,4.2-0.8,6.3-0.8c12.1,0,22.5,9,24.2,21
		l0.3,2.1l263.9,12.1"/>
	<g id="XMLID_6868_">
		<path id="XMLID_6870_" class="st10" d="M758.9,252.2l-260.9,10.1c-9.1,0.4-16.4,7.6-16.9,16.7c-0.3,5.1-4.5,9.1-9.6,9.1
			c-0.8,0-1.7-0.1-2.5-0.3c-1.5-0.4-3-0.6-4.6-0.6c-3.7,0-7.4,1.2-10.5,3.5c-4.3,3.2-6.9,8.2-7.1,13.6c-0.1,3.2-2.8,5.8-6,5.8
			c-0.8,0-1.6-0.2-2.4-0.5c-2.2-0.9-4.6-1.4-6.9-1.4c-5.4,0-10.7,2.5-14.1,7.1c-11.4,15.3-25,23.6-38.4,23.6
			c-13.4,0-27.1-8.5-38.5-23.8c-3.4-4.6-8.7-7.1-14.1-7.1c-2.4,0-4.9,0.5-7.3,1.6c-0.8,0.4-1.6,0.5-2.5,0.5c-3.2,0-5.9-2.6-6-5.8
			c-0.2-5.3-2.8-10.2-7-13.4c-3.1-2.3-6.8-3.6-10.6-3.6c-1.4,0-2.8,0.2-4.2,0.5c-0.7,0.2-1.5,0.3-2.2,0.3c-5.1,0-9.4-4-9.6-9.1
			c-0.5-9.1-7.8-16.3-16.9-16.7L-0.5,251.1"/>
		<path id="XMLID_6869_" class="st10" d="M0.1,188.5l261.1-12c8.5-0.3,15.5-6.7,16.7-15.1c0.7-4.7,4.8-8.3,9.5-8.3
			c0.7,0,1.5,0.1,2.2,0.3c1.4,0.3,2.8,0.5,4.2,0.5c3.8,0,7.5-1.2,10.6-3.6c4.2-3.2,6.8-8.1,7-13.4c0.1-3.2,2.8-5.8,6-5.8
			c0.7,0,1.4,0.1,2.1,0.4c2.1,0.8,4.2,1.2,6.3,1.2c5.6,0,11-2.6,14.3-7.4c11.7-16.4,25.8-25.4,39.6-25.4c13.8,0,27.9,9,39.5,25.2
			c3.4,4.7,8.8,7.4,14.3,7.4c2,0,4-0.3,5.9-1c0.6-0.2,1.3-0.3,2-0.3c3.2,0,5.9,2.6,6,5.8c0.2,5.4,2.8,10.4,7.1,13.6
			c3.1,2.3,6.8,3.5,10.5,3.5c1.5,0,3.1-0.2,4.6-0.6c0.8-0.2,1.6-0.3,2.5-0.3c4.8,0,8.9,3.6,9.5,8.3c1.2,8.4,8.2,14.8,16.7,15.1
			l261.1,12"/>
	</g>
	<g id="XMLID_6715_">
		<g id="XMLID_6716_">
			<g id="XMLID_6717_">
				<g id="XMLID_6866_">
					<circle id="XMLID_6867_" class="st44" cx="750.9" cy="264.3" r="2.8"/>
				</g>
				<g id="XMLID_6864_">
					<circle id="XMLID_6865_" class="st44" cx="739.9" cy="264.7" r="2.8"/>
				</g>
				<g id="XMLID_6862_">
					<circle id="XMLID_6863_" class="st44" cx="728.9" cy="265.1" r="2.8"/>
				</g>
				<g id="XMLID_6860_">
					<circle id="XMLID_6861_" class="st44" cx="717.8" cy="265.5" r="2.8"/>
				</g>
				<g id="XMLID_6858_">
					<circle id="XMLID_6859_" class="st44" cx="706.8" cy="265.9" r="2.8"/>
				</g>
				<g id="XMLID_6856_">
					<circle id="XMLID_6857_" class="st44" cx="695.8" cy="266.3" r="2.8"/>
				</g>
				<g id="XMLID_6854_">
					<circle id="XMLID_6855_" class="st44" cx="684.8" cy="266.6" r="2.8"/>
				</g>
				<g id="XMLID_6852_">
					<circle id="XMLID_6853_" class="st44" cx="673.7" cy="267" r="2.8"/>
				</g>
				<g id="XMLID_6850_">
					<circle id="XMLID_6851_" class="st44" cx="662.7" cy="267.4" r="2.8"/>
				</g>
				<g id="XMLID_6848_">
					<circle id="XMLID_6849_" class="st44" cx="651.7" cy="267.8" r="2.8"/>
				</g>
				<g id="XMLID_6846_">
					<circle id="XMLID_6847_" class="st44" cx="640.6" cy="268.2" r="2.8"/>
				</g>
				<g id="XMLID_6844_">
					<circle id="XMLID_6845_" class="st44" cx="629.6" cy="268.6" r="2.8"/>
				</g>
				<g id="XMLID_6842_">
					<circle id="XMLID_6843_" class="st44" cx="618.6" cy="269" r="2.8"/>
				</g>
				<g id="XMLID_6840_">
					<circle id="XMLID_6841_" class="st44" cx="607.5" cy="269.4" r="2.8"/>
				</g>
				<g id="XMLID_6838_">
					<circle id="XMLID_6839_" class="st44" cx="596.5" cy="269.8" r="2.8"/>
				</g>
				<g id="XMLID_6836_">
					<circle id="XMLID_6837_" class="st44" cx="585.5" cy="270.1" r="2.8"/>
				</g>
				<g id="XMLID_6834_">
					<circle id="XMLID_6835_" class="st44" cx="574.4" cy="270.5" r="2.8"/>
				</g>
				<g id="XMLID_6832_">
					<circle id="XMLID_6833_" class="st44" cx="563.4" cy="270.9" r="2.8"/>
				</g>
				<g id="XMLID_6830_">
					<circle id="XMLID_6831_" class="st44" cx="552.4" cy="271.3" r="2.8"/>
				</g>
				<g id="XMLID_6828_">
					<circle id="XMLID_6829_" class="st44" cx="541.3" cy="271.7" r="2.8"/>
				</g>
				<g id="XMLID_6826_">
					<circle id="XMLID_6827_" class="st44" cx="530.3" cy="272.1" r="2.8"/>
				</g>
				<g id="XMLID_6824_">
					<circle id="XMLID_6825_" class="st44" cx="519.3" cy="272.5" r="2.8"/>
				</g>
				<g id="XMLID_6822_">
					<circle id="XMLID_6823_" class="st44" cx="508.2" cy="272.9" r="2.8"/>
				</g>
				<g id="XMLID_6820_">
					<path id="XMLID_6821_" class="st44" d="M494.4,273.4c-0.3-1.5,1.2-2.9,2.6-2.9c1.5-0.1,2.8,1.1,2.9,2.7
						c0.1,1.5-1.1,2.8-2.7,2.9C495.7,276,494.8,274.9,494.4,273.4z"/>
				</g>
				<g id="XMLID_6818_">
					<path id="XMLID_6819_" class="st44" d="M486.6,280.3c-1.5-0.3-2.3-2.3-1.2-4c1.1-1.7,3.2-1.8,4.1-0.6c1,1.2,1.1,2.7,0.5,3.6
						C489.5,280.2,488.1,280.7,486.6,280.3z"/>
				</g>
				<g id="XMLID_6816_">
					<path id="XMLID_6817_" class="st44" d="M483.5,290.8c-1.2-0.9-1.7-2.4-1.2-3.5c0.5-1.1,1.9-1.8,3.4-1.5c1.5,0.3,2.4,2,1.6,3.7
						C486.6,291.1,484.8,291.7,483.5,290.8z"/>
				</g>
				<g id="XMLID_6814_">
					<path id="XMLID_6815_" class="st44" d="M475,297.5c-0.5-1.4,0.1-2.9,1.2-3.5c1.1-0.6,2.6-0.3,3.6,0.9c1,1.1,0.6,3.1-1,3.9
						C477.3,299.7,475.5,299,475,297.5z"/>
				</g>
				<g id="XMLID_6812_">
					<path id="XMLID_6813_" class="st44" d="M464.1,297.8c0.1-0.8,0.6-1.4,1.3-1.8c0.7-0.4,1.2-0.5,1.9-0.4c1.2,0.2,2.3,1.4,2.3,2.9
						c0.1,1.5-1.4,2.8-3.2,2.5c-0.9-0.1-1.7-0.7-1.9-1.2C464.2,299.2,464,298.5,464.1,297.8z"/>
				</g>
				<g id="XMLID_6810_">
					<path id="XMLID_6811_" class="st44" d="M454.5,301.8c-1.3-0.8-1.5-2.9,0.1-4.2c1.6-1.3,3.6-0.7,4.1,0.7
						c0.5,1.4,0.2,2.9-0.6,3.6C457.3,302.6,455.8,302.6,454.5,301.8z"/>
				</g>
				<g id="XMLID_6808_">
					<path id="XMLID_6809_" class="st44" d="M451.5,312.3c-1.3-0.7-2-2.1-1.8-3.2c0.3-1.1,1.5-2.1,3.1-2.1c1.5,0,2.8,1.5,2.3,3.4
						C454.7,312.2,452.9,313,451.5,312.3z"/>
				</g>
				<g id="XMLID_6806_">
					<path id="XMLID_6807_" class="st44" d="M443.4,319.3c-0.4-1.5,0.2-2.9,1.2-3.5c1-0.5,2.6-0.3,3.6,0.8c1,1.1,0.7,3.1-0.9,4
						C445.6,321.5,443.8,320.8,443.4,319.3z"/>
				</g>
				<g id="XMLID_6804_">
					<path id="XMLID_6805_" class="st44" d="M432.6,318.2c0.2-0.7,0.6-1.4,1.3-1.7c0.7-0.3,1.7-0.2,2.2-0.1c1.1,0.4,1.9,1.7,1.8,3.2
						c-0.1,1.5-1.8,2.6-3.6,2c-1-0.4-1.3-0.8-1.5-1.4C432.6,319.7,432.5,319,432.6,318.2z"/>
				</g>
				<g id="XMLID_6802_">
					<path id="XMLID_6803_" class="st44" d="M422.8,321.9c-1.3-0.8-1.3-2.9,0.3-4.2c1.6-1.2,3.6-0.5,4.1,0.9c0.5,1.5,0,2.9-0.8,3.5
						C425.6,322.8,424.1,322.8,422.8,321.9z"/>
				</g>
				<g id="XMLID_6800_">
					<path id="XMLID_6801_" class="st44" d="M415.7,330.3c-1.1-1.1-1.2-2.8-0.2-3.9c1-1.1,2.7-1.2,3.9-0.2c1.2,1,1.3,2.8,0.2,3.9
						C418.5,331.3,416.8,331.4,415.7,330.3z"/>
				</g>
				<g id="XMLID_6798_">
					<path id="XMLID_6799_" class="st44" d="M407.5,337.7c-0.9-1.2-0.7-2.9,0.4-3.9c1.1-0.9,2.8-0.8,3.8,0.3c1,1.1,0.9,2.9-0.3,3.9
						C410.1,339.1,408.4,338.9,407.5,337.7z"/>
				</g>
				<g id="XMLID_6796_">
					<path id="XMLID_6797_" class="st44" d="M398.1,343.4c-0.7-1.4-0.1-3,1.1-3.7c1.3-0.7,2.9-0.3,3.7,1c0.8,1.3,0.4,3-1,3.8
						C400.5,345.4,398.7,344.8,398.1,343.4z"/>
				</g>
				<g id="XMLID_6794_">
					<path id="XMLID_6795_" class="st44" d="M387.7,347.1c-0.3-1.5,0.6-3,1.9-3.3c1.4-0.4,2.9,0.4,3.4,1.8c0.5,1.4-0.3,3.1-1.9,3.5
						C389.5,349.5,388,348.6,387.7,347.1z"/>
				</g>
				<g id="XMLID_6792_">
					<path id="XMLID_6793_" class="st44" d="M376.7,347.8c0.1-1.5,1.4-2.7,2.8-2.7c1.4-0.1,2.6,1.1,2.8,2.7c0.1,1.5-1.1,2.8-2.8,2.9
						C377.8,350.7,376.6,349.4,376.7,347.8z"/>
				</g>
				<g id="XMLID_6790_">
					<path id="XMLID_6791_" class="st44" d="M365.9,345.5c0.5-1.5,2-2.2,3.4-1.8c1.4,0.4,2.2,1.9,1.9,3.3c-0.3,1.5-1.8,2.4-3.4,2
						C366.2,348.6,365.4,347,365.9,345.5z"/>
				</g>
				<g id="XMLID_6788_">
					<path id="XMLID_6789_" class="st44" d="M356,340.7c0.8-1.3,2.5-1.7,3.7-1c1.2,0.7,1.8,2.3,1.1,3.7c-0.6,1.4-2.4,2-3.8,1.1
						C355.7,343.8,355.2,342.1,356,340.7z"/>
				</g>
				<g id="XMLID_6786_">
					<path id="XMLID_6787_" class="st44" d="M347.2,334.1c1-1.1,2.7-1.2,3.8-0.3c1.1,0.9,1.3,2.6,0.4,3.9c-0.9,1.2-2.7,1.4-3.9,0.4
						C346.3,337,346.2,335.2,347.2,334.1z"/>
				</g>
				<g id="XMLID_6784_">
					<path id="XMLID_6785_" class="st44" d="M339.6,326.2c1.2-1,2.9-0.8,3.9,0.2c1,1.1,0.9,2.8-0.2,3.9c-1.1,1.1-2.9,1-3.9-0.2
						C338.3,328.9,338.4,327.1,339.6,326.2z"/>
				</g>
				<g id="XMLID_6782_">
					<path id="XMLID_6783_" class="st44" d="M331.8,318.5c0.5-1.5,2.5-2.1,4.1-0.8c1.6,1.3,1.5,3.3,0.2,4.2
						c-1.3,0.8-2.8,0.8-3.6,0.2C331.7,321.4,331.3,319.9,331.8,318.5z"/>
				</g>
				<g id="XMLID_6780_">
					<path id="XMLID_6781_" class="st44" d="M321.2,319.6c-0.2-1.5,0.5-2.9,1.6-3.3c0.5-0.2,1.7-0.4,2.4,0c0.7,0.3,1.2,1,1.3,1.7
						c0.1,0.8,0,1.5-0.3,2.1c-0.3,0.6-0.4,1-1.3,1.4C323.1,322.1,321.4,321.1,321.2,319.6z"/>
				</g>
				<g id="XMLID_6778_">
					<path id="XMLID_6779_" class="st44" d="M310.7,317.2c1-1.2,2.5-1.5,3.5-1.1c1,0.5,1.7,1.9,1.4,3.4c-0.3,1.5-2.1,2.4-3.8,1.6
						C310.2,320.3,309.8,318.3,310.7,317.2z"/>
				</g>
				<g id="XMLID_6776_">
					<path id="XMLID_6777_" class="st44" d="M305.6,307.8c1.5-0.1,2.8,0.8,3.2,1.9c0.3,1.1-0.3,2.5-1.6,3.3
						c-1.3,0.8-3.2,0.1-3.7-1.7C302.9,309.5,304.1,307.8,305.6,307.8z"/>
				</g>
				<g id="XMLID_6774_">
					<path id="XMLID_6775_" class="st44" d="M300.2,298.8c0.6-1.4,2.6-1.8,4.1-0.4c1.5,1.4,1.2,3.5-0.2,4.2
						c-1.4,0.7-2.9,0.6-3.6-0.1C299.8,301.7,299.6,300.2,300.2,298.8z"/>
				</g>
				<g id="XMLID_6772_">
					<path id="XMLID_6773_" class="st44" d="M289.4,298.4c0.1-1.5,1.1-2.7,2.3-2.9c0.6-0.1,1.2,0,2,0.5c0.7,0.4,1.1,1.1,1.1,1.8
						c0.1,0.8-0.2,1.5-0.5,2c-0.2,0.5-0.9,1-1.8,1.1C290.8,301.3,289.3,300,289.4,298.4z"/>
				</g>
				<g id="XMLID_6770_">
					<path id="XMLID_6771_" class="st44" d="M279.2,294.9c1-1.2,2.5-1.5,3.6-0.9c1.1,0.6,1.6,2.1,1.2,3.5c-0.5,1.5-2.3,2.2-3.9,1.3
						C278.5,297.9,278.2,296,279.2,294.9z"/>
				</g>
				<g id="XMLID_6768_">
					<path id="XMLID_6769_" class="st44" d="M273.3,285.7c1.5-0.3,2.9,0.4,3.4,1.5c0.5,1.1,0,2.7-1.2,3.5c-1.3,0.9-3.1,0.3-3.8-1.3
						C270.9,287.8,271.8,286,273.3,285.7z"/>
				</g>
				<g id="XMLID_6766_">
					<path id="XMLID_6767_" class="st44" d="M269.5,275.7c0.9-1.2,3-1.1,4.1,0.6c1.1,1.7,0.3,3.6-1.2,4c-1.5,0.4-2.9-0.2-3.5-1
						C268.4,278.4,268.5,276.9,269.5,275.7z"/>
				</g>
				<g id="XMLID_6764_">
					<path id="XMLID_6765_" class="st44" d="M259,273.1c0.1-1.5,1.3-2.7,2.9-2.7c1.4,0,3,1.4,2.6,2.9c-0.3,1.5-1.2,2.6-2.9,2.6
						C260.2,275.9,259,274.7,259,273.1z"/>
				</g>
				<g id="XMLID_6762_">
					<circle id="XMLID_6763_" class="st44" cx="250.8" cy="272.8" r="2.8"/>
				</g>
				<g id="XMLID_6760_">
					<circle id="XMLID_6761_" class="st44" cx="239.7" cy="272.4" r="2.8"/>
				</g>
				<g id="XMLID_6758_">
					<circle id="XMLID_6759_" class="st44" cx="228.7" cy="272" r="2.8"/>
				</g>
				<g id="XMLID_6756_">
					<circle id="XMLID_6757_" class="st44" cx="217.7" cy="271.6" r="2.8"/>
				</g>
				<g id="XMLID_6754_">
					<circle id="XMLID_6755_" class="st44" cx="206.6" cy="271.2" r="2.8"/>
				</g>
				<g id="XMLID_6752_">
					<circle id="XMLID_6753_" class="st44" cx="195.6" cy="270.8" r="2.8"/>
				</g>
				<g id="XMLID_6750_">
					<circle id="XMLID_6751_" class="st44" cx="184.6" cy="270.4" r="2.8"/>
				</g>
				<g id="XMLID_6748_">
					<circle id="XMLID_6749_" class="st44" cx="173.5" cy="269.9" r="2.8"/>
				</g>
				<g id="XMLID_6746_">
					<circle id="XMLID_6747_" class="st44" cx="162.5" cy="269.5" r="2.8"/>
				</g>
				<g id="XMLID_6744_">
					<circle id="XMLID_6745_" class="st44" cx="151.5" cy="269.1" r="2.8"/>
				</g>
				<g id="XMLID_6742_">
					<circle id="XMLID_6743_" class="st44" cx="140.4" cy="268.7" r="2.8"/>
				</g>
				<g id="XMLID_6740_">
					<circle id="XMLID_6741_" class="st44" cx="129.4" cy="268.3" r="2.8"/>
				</g>
				<g id="XMLID_6738_">
					<circle id="XMLID_6739_" class="st44" cx="118.4" cy="267.9" r="2.8"/>
				</g>
				<g id="XMLID_6736_">
					<circle id="XMLID_6737_" class="st44" cx="107.3" cy="267.5" r="2.8"/>
				</g>
				<g id="XMLID_6734_">
					<circle id="XMLID_6735_" class="st44" cx="96.3" cy="267.1" r="2.8"/>
				</g>
				<g id="XMLID_6732_">
					<circle id="XMLID_6733_" class="st44" cx="85.3" cy="266.7" r="2.8"/>
				</g>
				<g id="XMLID_6730_">
					<circle id="XMLID_6731_" class="st44" cx="74.2" cy="266.2" r="2.8"/>
				</g>
				<g id="XMLID_6728_">
					<circle id="XMLID_6729_" class="st44" cx="63.2" cy="265.8" r="2.8"/>
				</g>
				<g id="XMLID_6726_">
					<circle id="XMLID_6727_" class="st44" cx="52.2" cy="265.4" r="2.8"/>
				</g>
				<g id="XMLID_6724_">
					<circle id="XMLID_6725_" class="st44" cx="41.1" cy="265" r="2.8"/>
				</g>
				<g id="XMLID_6722_">
					<circle id="XMLID_6723_" class="st44" cx="30.1" cy="264.6" r="2.8"/>
				</g>
				<g id="XMLID_6720_">
					<circle id="XMLID_6721_" class="st44" cx="19.1" cy="264.2" r="2.8"/>
				</g>
				<g id="XMLID_6718_">
					<circle id="XMLID_6719_" class="st44" cx="8.1" cy="263.8" r="2.8"/>
				</g>
			</g>
		</g>
	</g>
	<path id="XMLID_6714_" class="st21" d="M759.2,271.3l-263.8,10.4l-0.1,2.3c-0.7,13-11.4,23.2-24.4,23.2c-2.1,0-4.3-0.3-6.3-0.8
		l-3-0.8l-0.1,3.1c-0.3,11.2-9.7,20.2-20.9,20.2c-2.8,0-5.6-0.6-8.2-1.7l-1.8-0.8l-1.2,1.6c-14.2,18.9-31.9,29.4-49.9,29.4
		c-18.1,0-35.9-10.5-50.1-29.6l-1.2-1.6l-1.8,0.8c-2.7,1.2-5.7,1.9-8.6,1.9c-11.3,0-20.5-8.8-20.9-20.1l-0.1-3l-3,0.7
		c-1.9,0.5-3.8,0.7-5.7,0.7c-13,0-23.8-10.2-24.4-23.2l-0.1-2.3L-0.2,271.3"/>
	<g id="XMLID_6461_">
		<g id="XMLID_6462_">
			<g id="XMLID_6463_">
				<g id="XMLID_6710_">
					<path id="XMLID_6711_" class="st44" d="M467.2,229.4c-1.5-0.2-2.7-1.5-2.6-2.9c0.1-1.5,1.4-2.6,2.9-2.6c1.5,0,2.7,1.4,2.6,2.9
						C469.9,228.4,468.7,229.6,467.2,229.4z"/>
				</g>
				<g id="XMLID_6708_">
					<path id="XMLID_6709_" class="st44" d="M465.9,238.1c-1.5-0.3-2.5-1.7-2.3-3.2c0.2-1.4,1.6-2.5,3.1-2.3
						c1.5,0.2,2.5,1.6,2.3,3.2C468.7,237.4,467.3,238.4,465.9,238.1z"/>
				</g>
				<g id="XMLID_6706_">
					<path id="XMLID_6707_" class="st44" d="M463.7,246.6c-1.4-0.5-2.3-2-2-3.4c0.4-1.4,1.9-2.3,3.3-1.9c1.5,0.3,2.3,1.9,2,3.4
						C466.6,246.2,465.1,247.1,463.7,246.6z"/>
				</g>
				<g id="XMLID_6704_">
					<path id="XMLID_6705_" class="st44" d="M460.7,254.9c-1.4-0.6-2.1-2.2-1.6-3.6c0.5-1.4,2.1-2.1,3.5-1.6s2.2,2.1,1.6,3.6
						S462.1,255.5,460.7,254.9z"/>
				</g>
				<g id="XMLID_6702_">
					<path id="XMLID_6703_" class="st44" d="M456.9,262.8c-1.3-0.7-1.9-2.4-1.2-3.7c0.6-1.3,2.3-1.9,3.6-1.2
						c1.4,0.6,1.9,2.3,1.3,3.7C459.8,263,458.2,263.5,456.9,262.8z"/>
				</g>
				<g id="XMLID_6700_">
					<path id="XMLID_6701_" class="st44" d="M452.3,270.3c-1.2-0.8-1.6-2.5-0.8-3.8c0.8-1.2,2.4-1.6,3.7-0.9
						c1.3,0.8,1.7,2.5,0.9,3.8C455.2,270.8,453.6,271.1,452.3,270.3z"/>
				</g>
				<g id="XMLID_6698_">
					<path id="XMLID_6699_" class="st44" d="M447,277.2c-1.1-1-1.3-2.7-0.4-3.8c0.9-1.2,2.6-1.4,3.8-0.5s1.4,2.6,0.5,3.9
						C449.9,278.1,448.1,278.2,447,277.2z"/>
				</g>
				<g id="XMLID_6696_">
					<path id="XMLID_6697_" class="st44" d="M441,283.7c-1-1.1-1-2.7-0.1-3.9c1-1.1,2.7-1.1,3.8-0.1s1.2,2.8,0.1,3.9
						C443.9,284.8,442,284.8,441,283.7z"/>
				</g>
				<g id="XMLID_6694_">
					<path id="XMLID_6695_" class="st44" d="M434.4,289.5c-1-1.2-0.7-2.8,0.3-3.8c1.1-1,2.8-0.9,3.8,0.2c1,1.1,0.9,2.9-0.3,3.9
						C437.2,290.9,435.3,290.6,434.4,289.5z"/>
				</g>
				<g id="XMLID_6692_">
					<path id="XMLID_6693_" class="st44" d="M427.3,294.6c-0.8-1.3-0.4-2.8,0.7-3.8c1.2-0.9,2.9-0.6,3.8,0.6c0.9,1.2,0.6,3-0.6,3.9
						C429.9,296.3,428.1,295.8,427.3,294.6z"/>
				</g>
				<g id="XMLID_6690_">
					<path id="XMLID_6691_" class="st44" d="M419.7,299c-0.7-1.4-0.1-2.9,1.1-3.6c1.2-0.8,2.9-0.3,3.7,1c0.8,1.3,0.3,3-1,3.8
						C422.1,300.9,420.4,300.3,419.7,299z"/>
				</g>
				<g id="XMLID_6688_">
					<path id="XMLID_6689_" class="st44" d="M411.7,302.6c-0.6-1.4,0.1-2.9,1.5-3.5c1.3-0.6,2.9,0,3.6,1.3c0.6,1.4,0,3-1.4,3.7
						C413.9,304.7,412.2,304,411.7,302.6z"/>
				</g>
				<g id="XMLID_6686_">
					<path id="XMLID_6687_" class="st44" d="M403.4,305.4c-0.4-1.5,0.4-2.9,1.8-3.3c1.4-0.5,2.9,0.2,3.4,1.7c0.5,1.4-0.3,3-1.8,3.6
						C405.3,307.7,403.8,306.8,403.4,305.4z"/>
				</g>
				<g id="XMLID_6684_">
					<path id="XMLID_6685_" class="st44" d="M394.8,307.3c-0.3-1.5,0.7-2.9,2.2-3.1c1.4-0.4,2.9,0.5,3.2,2c0.4,1.5-0.6,3-2.1,3.4
						C396.5,309.8,395.1,308.8,394.8,307.3z"/>
				</g>
				<g id="XMLID_6682_">
					<path id="XMLID_6683_" class="st44" d="M386.1,308.4c-0.1-1.5,1-2.8,2.5-2.9c1.4-0.2,2.8,0.8,3,2.3c0.2,1.5-0.9,2.9-2.4,3.1
						C387.6,311.1,386.2,309.9,386.1,308.4z"/>
				</g>
				<g id="XMLID_6680_">
					<path id="XMLID_6681_" class="st44" d="M377.3,308.6c0-1.5,1.3-2.6,2.7-2.7c1.5-0.1,2.7,1.1,2.8,2.6c0.1,1.5-1.2,2.8-2.7,2.9
						C378.5,311.5,377.3,310.1,377.3,308.6z"/>
				</g>
				<g id="XMLID_6678_">
					<path id="XMLID_6679_" class="st44" d="M368.6,308c0.2-1.5,1.5-2.5,3-2.4c1.5,0.1,2.6,1.4,2.5,2.9c-0.1,1.5-1.4,2.7-3,2.6
						C369.5,311,368.4,309.4,368.6,308z"/>
				</g>
				<g id="XMLID_6676_">
					<path id="XMLID_6677_" class="st44" d="M359.9,306.5c0.4-1.5,1.8-2.3,3.2-2.1c1.4,0.2,2.4,1.6,2.2,3.1
						c-0.2,1.5-1.7,2.5-3.2,2.3C360.5,309.5,359.6,307.9,359.9,306.5z"/>
				</g>
				<g id="XMLID_6674_">
					<path id="XMLID_6675_" class="st44" d="M351.5,304.1c0.5-1.5,2-2.1,3.4-1.8c1.4,0.4,2.2,1.8,1.9,3.3c-0.4,1.5-1.9,2.3-3.4,1.9
						C351.8,307.2,351,305.5,351.5,304.1z"/>
				</g>
				<g id="XMLID_6672_">
					<path id="XMLID_6673_" class="st44" d="M343.3,300.9c0.6-1.4,2.2-1.9,3.5-1.4c1.4,0.5,2.1,2.1,1.5,3.5
						c-0.5,1.4-2.2,2.1-3.6,1.6C343.3,304,342.7,302.2,343.3,300.9z"/>
				</g>
				<g id="XMLID_6670_">
					<path id="XMLID_6671_" class="st44" d="M335.5,296.9c0.8-1.3,2.4-1.7,3.7-1c1.3,0.6,1.8,2.2,1.2,3.6s-2.4,1.9-3.8,1.2
						C335.2,299.9,334.8,298.2,335.5,296.9z"/>
				</g>
				<g id="XMLID_6668_">
					<path id="XMLID_6669_" class="st44" d="M328.2,292.1c0.9-1.2,2.6-1.5,3.7-0.6c1.2,0.8,1.6,2.4,0.8,3.7
						c-0.8,1.3-2.5,1.7-3.9,0.8C327.6,295.1,327.3,293.3,328.2,292.1z"/>
				</g>
				<g id="XMLID_6666_">
					<path id="XMLID_6667_" class="st44" d="M321.3,286.6c1-1.1,2.7-1.2,3.8-0.3c1.1,0.9,1.4,2.6,0.4,3.8c-0.9,1.2-2.7,1.4-3.9,0.4
						C320.4,289.5,320.3,287.8,321.3,286.6z"/>
				</g>
				<g id="XMLID_6664_">
					<path id="XMLID_6665_" class="st44" d="M315,280.5c1.1-1,2.8-1,3.8,0.1c1,1.1,1.1,2.7,0,3.8c-1,1.1-2.9,1.2-3.9,0
						C313.9,283.3,313.9,281.5,315,280.5z"/>
				</g>
				<g id="XMLID_6662_">
					<path id="XMLID_6663_" class="st44" d="M309.4,273.8c1.2-0.9,2.9-0.7,3.8,0.5c0.9,1.2,0.8,2.8-0.3,3.8c-1.1,1-3,0.9-3.9-0.4
						C308,276.4,308.2,274.7,309.4,273.8z"/>
				</g>
				<g id="XMLID_6660_">
					<path id="XMLID_6661_" class="st44" d="M304.5,266.5c1.3-0.8,3-0.4,3.7,0.8c0.7,1.3,0.5,2.9-0.7,3.8c-1.2,0.9-3.1,0.6-3.8-0.8
						C302.8,269,303.2,267.3,304.5,266.5z"/>
				</g>
				<g id="XMLID_6658_">
					<path id="XMLID_6659_" class="st44" d="M300.3,258.8c1.4-0.6,3-0.1,3.6,1.2c0.6,1.3,0.2,2.9-1.1,3.7c-1.3,0.7-3.1,0.3-3.7-1.1
						C298.3,261.2,298.9,259.5,300.3,258.8z"/>
				</g>
				<g id="XMLID_6656_">
					<path id="XMLID_6657_" class="st44" d="M296.9,250.8c1.4-0.5,3,0.2,3.5,1.6c0.5,1.4-0.1,2.9-1.5,3.6c-1.4,0.6-3.1,0-3.6-1.5
						C294.7,252.9,295.4,251.3,296.9,250.8z"/>
				</g>
				<g id="XMLID_6654_">
					<path id="XMLID_6655_" class="st44" d="M294.3,242.4c1.5-0.4,3,0.5,3.3,1.9c0.3,1.4-0.5,2.9-1.9,3.4c-1.5,0.5-3-0.3-3.4-1.9
						C291.9,244.3,292.8,242.7,294.3,242.4z"/>
				</g>
				<g id="XMLID_6652_">
					<path id="XMLID_6653_" class="st44" d="M292.5,233.8c1.5-0.2,2.9,0.8,3.1,2.2c0.2,1.5-0.8,2.9-2.2,3.2c-1.5,0.3-3-0.6-3.2-2.2
						C290,235.4,291,234,292.5,233.8z"/>
				</g>
				<g id="XMLID_6650_">
					<path id="XMLID_6651_" class="st44" d="M291.7,225c1.5-0.1,2.8,1.1,2.9,2.5c0,1.5-1,2.8-2.5,3c-1.5,0.2-2.9-0.9-3-2.5
						C289,226.4,290.2,225.1,291.7,225z"/>
				</g>
				<g id="XMLID_6648_">
					<path id="XMLID_6649_" class="st44" d="M291.7,216.3c1.5,0.1,2.7,1.3,2.6,2.8c-0.1,1.5-1.3,2.7-2.8,2.7c-1.5,0-2.8-1.2-2.7-2.8
						C288.9,217.4,290.2,216.2,291.7,216.3z"/>
				</g>
				<g id="XMLID_6646_">
					<path id="XMLID_6647_" class="st44" d="M292.5,207.5c1.5,0.2,2.5,1.6,2.3,3c-0.3,1.4-1.5,2.5-3,2.4c-1.5-0.1-2.7-1.5-2.4-3
						C289.6,208.4,291,207.3,292.5,207.5z"/>
				</g>
				<g id="XMLID_6644_">
					<path id="XMLID_6645_" class="st44" d="M294.3,198.9c1.5,0.4,2.4,1.8,2,3.2c-0.4,1.4-1.7,2.4-3.2,2.1c-1.5-0.3-2.6-1.8-2.1-3.3
						C291.3,199.5,292.8,198.6,294.3,198.9z"/>
				</g>
				<g id="XMLID_6642_">
					<path id="XMLID_6643_" class="st44" d="M296.9,190.6c1.4,0.5,2.2,2.1,1.7,3.4c-0.6,1.4-1.9,2.2-3.4,1.8c-1.4-0.4-2.4-2-1.8-3.5
						C293.8,190.8,295.4,190,296.9,190.6z"/>
				</g>
				<g id="XMLID_6640_">
					<path id="XMLID_6641_" class="st44" d="M300.3,182.5c1.4,0.7,1.9,2.3,1.3,3.6c-0.7,1.3-2.2,2-3.6,1.4c-1.4-0.6-2.1-2.2-1.4-3.6
						C297.2,182.4,298.9,181.8,300.3,182.5z"/>
				</g>
				<g id="XMLID_6638_">
					<path id="XMLID_6639_" class="st44" d="M304.5,174.8c1.3,0.8,1.7,2.5,1,3.7c-0.8,1.2-2.4,1.7-3.7,1c-1.4-0.7-1.9-2.4-1-3.7
						C301.5,174.4,303.2,174,304.5,174.8z"/>
				</g>
				<g id="XMLID_6636_">
					<path id="XMLID_6637_" class="st44" d="M309.4,167.5c1.2,0.9,1.5,2.6,0.6,3.8c-0.9,1.2-2.6,1.5-3.8,0.6
						c-1.3-0.8-1.6-2.6-0.6-3.8C306.5,166.9,308.2,166.6,309.4,167.5z"/>
				</g>
				<g id="XMLID_6634_">
					<path id="XMLID_6635_" class="st44" d="M315,160.8c1.1,1,1.2,2.8,0.2,3.8c-1,1.1-2.7,1.2-3.9,0.3c-1.2-1-1.3-2.7-0.2-3.9
						C312.2,159.9,313.9,159.8,315,160.8z"/>
				</g>
				<g id="XMLID_6632_">
					<path id="XMLID_6633_" class="st44" d="M321.3,154.7c1,1.1,0.9,2.9-0.2,3.8s-2.8,0.9-3.9-0.1c-1.1-1.1-1-2.8,0.2-3.8
						C318.6,153.5,320.3,153.6,321.3,154.7z"/>
				</g>
				<g id="XMLID_6630_">
					<path id="XMLID_6631_" class="st44" d="M328.2,149.2c0.9,1.2,0.6,2.9-0.5,3.8c-1.2,0.9-2.9,0.6-3.9-0.5c-1-1.2-0.7-2.9,0.5-3.8
						C325.6,147.7,327.3,148,328.2,149.2z"/>
				</g>
				<g id="XMLID_6628_">
					<path id="XMLID_6629_" class="st44" d="M335.5,144.4c0.7,1.3,0.3,3-0.9,3.8c-1.2,0.8-2.9,0.4-3.8-0.9c-0.8-1.3-0.4-2.9,0.9-3.8
						S334.8,143.1,335.5,144.4z"/>
				</g>
				<g id="XMLID_6626_">
					<path id="XMLID_6627_" class="st44" d="M343.3,140.4c0.6,1.4,0,3-1.3,3.6c-1.3,0.6-3,0.1-3.7-1.3c-0.7-1.3-0.1-3,1.3-3.6
						S342.7,139.1,343.3,140.4z"/>
				</g>
				<g id="XMLID_6624_">
					<path id="XMLID_6625_" class="st44" d="M351.5,137.2c0.5,1.4-0.3,3-1.6,3.5c-1.4,0.5-3-0.2-3.5-1.6c-0.6-1.4,0.1-3,1.6-3.5
						C349.4,135.1,351,135.8,351.5,137.2z"/>
				</g>
				<g id="XMLID_6622_">
					<path id="XMLID_6623_" class="st44" d="M359.9,134.9c0.3,1.5-0.6,3-2,3.3s-2.9-0.5-3.3-2c-0.4-1.4,0.4-2.9,2-3.3
						C358.1,132.5,359.6,133.4,359.9,134.9z"/>
				</g>
				<g id="XMLID_6620_">
					<path id="XMLID_6621_" class="st44" d="M368.6,133.3c0.2,1.5-0.8,2.9-2.3,3.1c-1.4,0.2-2.8-0.8-3.1-2.3
						c-0.3-1.5,0.7-2.9,2.3-3.1C367,130.8,368.4,131.8,368.6,133.3z"/>
				</g>
				<g id="XMLID_6618_">
					<path id="XMLID_6619_" class="st44" d="M377.3,132.7c0,1.5-1.1,2.8-2.6,2.9c-1.5,0.1-2.8-1.1-2.9-2.6c-0.1-1.5,1-2.8,2.6-2.9
						C376,130,377.3,131.2,377.3,132.7z"/>
				</g>
				<g id="XMLID_6616_">
					<path id="XMLID_6617_" class="st44" d="M386.1,132.9c-0.1,1.5-1.4,2.7-2.9,2.6c-1.5-0.1-2.6-1.4-2.6-2.9s1.3-2.7,2.9-2.6
						S386.2,131.4,386.1,132.9z"/>
				</g>
				<g id="XMLID_6614_">
					<path id="XMLID_6615_" class="st44" d="M394.8,134c-0.3,1.5-1.7,2.5-3.1,2.3c-1.4-0.2-2.5-1.6-2.3-3.1c0.2-1.5,1.5-2.5,3.1-2.3
						C394,131.1,395.1,132.5,394.8,134z"/>
				</g>
				<g id="XMLID_6587_">
					<path id="XMLID_6613_" class="st44" d="M403.4,135.9c-0.4,1.5-1.9,2.3-3.3,2c-1.4-0.4-2.3-1.9-2-3.3c0.3-1.5,1.8-2.4,3.3-2
						C402.9,133,403.8,134.5,403.4,135.9z"/>
				</g>
				<g id="XMLID_6585_">
					<path id="XMLID_6586_" class="st44" d="M411.7,138.7c-0.6,1.4-2.1,2.1-3.5,1.6c-1.4-0.5-2.1-2.1-1.7-3.5c0.5-1.4,2-2.2,3.5-1.6
						S412.2,137.3,411.7,138.7z"/>
				</g>
				<g id="XMLID_6583_">
					<path id="XMLID_6584_" class="st44" d="M419.7,142.3c-0.7,1.3-2.3,1.9-3.6,1.3c-1.3-0.6-1.9-2.3-1.3-3.7c0.6-1.4,2.2-2,3.6-1.3
						C419.8,139.4,420.4,141,419.7,142.3z"/>
				</g>
				<g id="XMLID_6500_">
					<path id="XMLID_6501_" class="st44" d="M427.3,146.7c-0.8,1.3-2.5,1.7-3.8,0.9c-1.2-0.8-1.7-2.4-0.9-3.8
						c0.7-1.3,2.4-1.7,3.8-0.9S428.1,145.5,427.3,146.7z"/>
				</g>
				<g id="XMLID_6482_">
					<path id="XMLID_6483_" class="st44" d="M434.4,151.8c-1,1.2-2.7,1.4-3.8,0.5c-1.2-0.9-1.4-2.6-0.6-3.8s2.6-1.5,3.8-0.5
						S435.4,150.7,434.4,151.8z"/>
				</g>
				<g id="XMLID_6480_">
					<path id="XMLID_6481_" class="st44" d="M441,157.6c-1.1,1.1-2.8,1.2-3.9,0.2c-1.1-1-1.2-2.7-0.2-3.9c1-1.2,2.7-1.2,3.9-0.2
						S442.1,156.6,441,157.6z"/>
				</g>
				<g id="XMLID_6478_">
					<path id="XMLID_6479_" class="st44" d="M447,164.1c-1.2,1-2.9,0.9-3.9-0.2s-0.9-2.8,0.2-3.9c1.1-1,2.8-1,3.9,0.2
						C448.2,161.4,448.1,163.1,447,164.1z"/>
				</g>
				<g id="XMLID_6476_">
					<path id="XMLID_6477_" class="st44" d="M452.3,171.1c-1.3,0.8-3,0.6-3.9-0.6c-0.9-1.2-0.6-2.9,0.6-3.8c1.2-0.9,2.9-0.7,3.9,0.6
						C453.8,168.5,453.5,170.2,452.3,171.1z"/>
				</g>
				<g id="XMLID_6474_">
					<path id="XMLID_6475_" class="st44" d="M456.9,178.5c-1.3,0.7-3,0.3-3.8-1c-0.8-1.2-0.3-2.9,0.9-3.7s3-0.4,3.8,1
						C458.6,176.1,458.2,177.8,456.9,178.5z"/>
				</g>
				<g id="XMLID_6472_">
					<path id="XMLID_6473_" class="st44" d="M460.7,186.4c-1.4,0.6-3,0-3.7-1.3c-0.6-1.3-0.1-2.9,1.3-3.6s3-0.1,3.7,1.3
						C462.7,184.2,462.1,185.9,460.7,186.4z"/>
				</g>
				<g id="XMLID_6470_">
					<path id="XMLID_6471_" class="st44" d="M463.7,194.7c-1.4,0.4-3-0.3-3.5-1.7c-0.5-1.4,0.2-2.9,1.6-3.5s3,0.2,3.5,1.7
						C465.9,192.7,465.2,194.2,463.7,194.7z"/>
				</g>
				<g id="XMLID_6468_">
					<path id="XMLID_6469_" class="st44" d="M465.9,203.2c-1.4,0.3-3-0.6-3.3-2c-0.4-1.4,0.5-2.9,2-3.3c1.5-0.4,3,0.5,3.3,2
						C468.3,201.4,467.4,202.9,465.9,203.2z"/>
				</g>
				<g id="XMLID_6466_">
					<path id="XMLID_6467_" class="st44" d="M467.2,211.9c-1.5,0.1-2.9-0.9-3.1-2.4c-0.2-1.4,0.8-2.8,2.3-3.1
						c1.5-0.3,2.9,0.8,3.1,2.4C469.7,210.4,468.7,211.7,467.2,211.9z"/>
				</g>
				<g id="XMLID_6464_">
					<path id="XMLID_6465_" class="st44" d="M467.6,220.7c-1.5,0-2.8-1.2-2.9-2.7c-0.1-1.5,1.1-2.7,2.6-2.8c1.5-0.1,2.8,1.1,2.9,2.7
						S469.1,220.7,467.6,220.7z"/>
				</g>
			</g>
		</g>
	</g>
	<g id="XMLID_8786_">
		<path id="XMLID_8787_" class="st45" d="M348.6,186.5c-2.6,3.7-5.4,5.6-8.5,5.6c-2.3,0-4.1-0.9-5.5-2.8c-1.4-1.8-2.1-4.2-2.1-7.1
			c0-3.9,1-7.8,3.1-11.8s4.7-7.1,8-9.5c3.3-2.4,6.4-3.6,9.5-3.6c2,0,3.6,0.7,4.8,2c1.2,1.3,1.8,3.1,1.8,5.4c0,5.3-2.6,9.5-7.9,12.6
			v10.5c0,1,0.1,1.7,0.2,2s0.5,0.5,1,0.5c1.3,0,2.7-1.1,4.4-3.3l0.8,0.7c-1.2,1.7-2.2,2.9-3.2,3.5c-0.9,0.7-1.9,1-3,1
			c-1.2,0-2-0.3-2.6-0.9C348.9,190.6,348.6,189,348.6,186.5z M351.8,175.9c1.9-0.9,3.3-2.3,4.3-3.9s1.5-3.5,1.5-5.6
			c0-2.1-0.6-3.8-1.9-5.1c-1.3-1.3-2.9-1.9-5-1.9c-3.8,0-7.2,2-10.4,6s-4.7,8.8-4.7,14.4c0,3,0.5,5.5,1.7,7.4
			c1.1,1.9,2.5,2.8,4.3,2.8c0.5,0,1-0.1,1.6-0.2c0.5-0.2,1-0.4,1.5-0.7c0.5-0.3,1-0.7,1.5-1.2c0.5-0.5,1-1.2,1.6-2.1
			c0.6-0.9,0.9-1.5,0.9-1.7v-5.5c-0.6,0.1-1.1,0.1-1.5,0.1c-1.8,0-3.2-0.5-4.2-1.6s-1.6-2.4-1.6-4.2c0-1.7,0.5-3.3,1.5-4.9
			c1-1.6,2.4-2.8,4.2-3.7l0.4,0.6c-2.6,2.1-3.9,4.5-3.9,7.1c0,1.5,0.4,2.7,1.2,3.6c0.8,0.9,1.9,1.4,3.3,1.4h0.4v-10.2l3.2-1.7V175.9
			z"/>
		<path id="XMLID_8790_" class="st45" d="M363.1,175.2c0.4-0.2,0.9-0.4,1.6-0.4c1.3,0,2.5,0.6,3.5,1.7c1,1.2,1.5,2.6,1.5,4.3
			c0,4-2.2,7.9-6.6,11.5l-0.3-0.2c0.1-0.5,0.1-1,0.1-1.4c0-1.6-1-3.7-3-6.4c-0.4,0.4-0.9,1-1.5,2l-1.2,1.8l-0.8-0.7
			c0.3-0.4,0.7-1,1.2-1.8c0.5-0.8,0.9-1.4,1.1-1.8c0.9-1.2,1.4-2.5,1.6-3.8h0.4c0.2,0.9,0.7,2,1.7,3.5c1,1.4,1.6,2.5,1.8,3.3
			s0.3,1.5,0.3,2.1v0.7c2.7-2.7,4-5.7,4-8.7c0-1.2-0.3-2.1-0.8-2.7s-1.3-1-2.2-1c-0.7,0-1.3,0.2-2,0.5
			C363.3,177,363.1,176.1,363.1,175.2z M371.7,187.6c-1.8,3-4.1,4.6-6.9,4.8l-0.2-0.5c1.2-0.3,2.3-0.8,3.1-1.4
			c0.8-0.7,1.9-1.8,3.1-3.5L371.7,187.6z"/>
		<path id="XMLID_8793_" class="st45" d="M381.4,187.6c-1,1.5-2,2.6-3,3.4s-1.9,1.2-2.7,1.2c-0.9,0-1.5-0.2-1.7-0.7
			c-0.2-0.5-0.4-1.4-0.4-2.6v-4.6c-0.5,1.3-1.3,2.6-2.3,3.9l-0.8-0.6c1.6-2.2,2.6-4.3,3.1-6.3l2.5-1.3v8c0,1,0,1.7,0.1,2
			c0.1,0.3,0.3,0.5,0.7,0.5c0.8,0,2-1.1,3.7-3.3L381.4,187.6z M377.1,174.8l-1.8,2.3l-1.8-2.3l1.8-2.2L377.1,174.8z"/>
		<path id="XMLID_8796_" class="st45" d="M422.4,174.9c0.8,0.5,1.2,1.1,1.2,2c0,0.6-0.2,1.1-0.6,1.4s-0.9,0.6-1.6,0.6
			c-0.7,0-1.6-0.2-2.8-0.5c-1.2-0.3-2-0.5-2.5-0.6c1.6,1.3,2.4,2.9,2.4,4.8c0,2.5-1,4.7-3.1,6.6c-2.1,1.9-4.6,2.9-7.4,2.9
			c-2.7,0-5-0.9-6.9-2.8c-1.9-1.8-2.8-4.1-2.8-6.7c0-2.1,0.6-3.9,1.9-5.5c1.2-1.5,3.1-2.6,5.4-3.3c-3.7-1-5.6-2.8-5.6-5.3
			c0-1.9,0.9-3.6,2.6-5c1.8-1.4,3.8-2.1,6.2-2.1c1.1,0,2.6,0.2,4.5,0.6c1.9,0.4,3.1,0.6,3.8,0.6c1.1,0,2-0.3,2.9-0.8l0.4,0.7
			c-1.5,1.5-3.2,2.3-5.3,2.3c-1.1,0-2.6-0.3-4.3-1c-1.8-0.7-3-1-3.8-1c-1.2,0-2.3,0.5-3.1,1.4c-0.8,0.9-1.2,2.2-1.2,3.6
			c0,1.5,0.5,2.7,1.5,3.6c1,0.9,2.3,1.3,4,1.3c0.9,0,1.8-0.1,2.6-0.3l0.2,0.8c-3.1,0.4-5.5,1.4-7.1,3c-1.6,1.6-2.5,3.7-2.5,6.3
			c0,2.4,0.8,4.3,2.3,5.8c1.5,1.5,3.4,2.3,5.5,2.3c2,0,3.7-0.7,5.1-2.1c1.4-1.4,2.1-3.1,2.1-5.1c0-1.6-0.4-2.8-1.1-3.7
			s-1.7-1.4-3-1.4c-1,0-1.8,0.3-2.4,0.8c-0.6,0.5-0.9,1.3-0.9,2.1c0,0.6,0.2,1,0.5,1.4c0.3,0.3,0.8,0.5,1.4,0.5
			c0.7,0,1.2-0.3,1.7-0.8l0.3,0.7c-0.8,1.5-1.7,2.2-2.8,2.2c-0.8,0-1.4-0.3-2-0.9s-0.8-1.3-0.8-2.2c0-1.6,0.7-2.8,2-3.8
			c1.3-1,3.2-1.4,5.6-1.4l4.9,0.3c1.7,0,2.6-0.4,2.6-1.3c0-0.2-0.1-0.4-0.2-0.6L422.4,174.9z"/>
		<path id="XMLID_8798_" class="st45" d="M363.3,227c-2.2,3.5-4.7,5.3-7.4,5.3c-0.9,0-1.7-0.2-2.5-0.7c-0.8-0.5-1.5-1.1-2.1-2
			s-1-1.7-1.2-2.5l-0.8-3.8c-0.7-2.9-1.2-4.8-1.6-5.7s-1-1.5-1.9-1.7v-0.6c1.4-0.3,2.7-1.2,3.8-2.8c1.1-1.6,1.6-3.3,1.6-5.2
			c0-2.4-0.8-4.4-2.5-5.9c-1.7-1.5-3.9-2.3-6.5-2.3c-3.4,0-6.5,1.2-9.1,3.5c-2.7,2.3-4,5.2-4,8.5c0,1.8,0.4,3.2,1.3,4.3
			c0.8,1.1,1.9,1.7,3.1,1.7c1.4,0,2.5-0.6,3.4-1.8l0.5,0.4c-1.2,2.4-3,3.7-5.5,3.7c-1.6,0-2.9-0.6-3.9-1.7c-1-1.2-1.5-2.7-1.5-4.7
			c0-3.9,1.7-7.4,5-10.6c3.3-3.1,7.4-4.7,12.1-4.7c3.3,0,5.8,0.7,7.7,2.2c1.9,1.5,2.8,3.5,2.8,6.1c0,2.1-0.6,4-1.8,5.7
			c-1.2,1.8-2.8,3-4.8,3.6c0.7,0.3,1.5,0.8,2.2,1.6c0.7,0.8,1.2,1.6,1.4,2.2l1.2,3.7c0.9,3.1,1.7,5.1,2.2,5.9
			c0.5,0.9,1.4,1.3,2.6,1.3c1.7,0,3.4-1.4,5.3-4.1L363.3,227z M346.2,202.3c-1.7,1.6-2.5,3.6-2.5,6.1c0,1,0.2,2.7,0.6,5.3
			c0.4,2.5,0.6,4.6,0.6,6.3c0,3.5-1,6.4-2.9,8.8c-1.9,2.4-4.3,3.5-7.1,3.5c-1.9,0-3.6-0.6-5-1.8c-1.4-1.2-2.3-2.8-2.5-4.9l3.7-1
			l0.2,0.3c-0.4,0.7-0.6,1.4-0.6,2.2c0,1,0.4,2,1.2,2.8c0.8,0.8,1.9,1.2,3.2,1.2c1.9,0,3.5-0.8,4.7-2.3c1.2-1.5,1.9-3.5,1.9-5.8
			c0-1.9-0.2-3.9-0.5-6c-0.3-2.1-0.4-3.5-0.4-4c0-2.7,0.3-4.8,0.9-6.5c0.6-1.7,1.9-3.3,3.8-5L346.2,202.3z"/>
		<path id="XMLID_8801_" class="st45" d="M380.8,227.6c-1.9,3-3.8,4.5-5.7,4.5c-0.7,0-1.2-0.2-1.5-0.6s-0.5-1.2-0.5-2.3
			c-1,1.3-1.9,2.1-2.6,2.5c-0.7,0.4-1.5,0.6-2.4,0.6c-1.3,0-2.3-0.4-3.1-1.3c-0.8-0.9-1.2-2.1-1.2-3.6v-1.1
			c-0.2,0.2-0.6,0.8-1.3,1.8l-0.8-0.6c1.5-2.3,3.1-4.1,4.7-5.4s3.1-2,4.3-2c0.9,0,1.8,0.3,2.6,0.8l2.2-1.1v8.6c0,0.9,0,1.5,0.1,1.7
			c0.1,0.2,0.3,0.3,0.7,0.3c0.3,0,0.8-0.3,1.4-0.9c0.6-0.6,1.3-1.4,2.1-2.5L380.8,227.6z M373.1,227.3v-5.1c-0.7-0.7-1.5-1-2.4-1
			c-1,0-1.9,0.5-2.8,1.4c-0.8,0.9-1.2,2.1-1.2,3.5c0,1.2,0.3,2.2,0.9,2.8s1.4,1,2.4,1c0.8,0,1.5-0.4,2.2-1.2
			S373.1,227.5,373.1,227.3z"/>
		<path id="XMLID_8804_" class="st45" d="M393.8,227.6c-1.9,3-4.3,4.5-7.3,4.5c-1.5,0-2.6-0.5-3.5-1.4c-0.9-1-1.3-2.3-1.3-4l0.1-0.2
			l-1.1,1.6l-0.8-0.6c2.5-3.7,4.3-5.9,5.4-6.6c1.1-0.7,2.1-1,3.2-1c1.8,0,3,0.6,3.8,1.8c-0.2,0.9-0.8,1.6-1.7,2
			c-0.7-1.8-1.8-2.8-3.3-2.8c-0.8,0-1.6,0.4-2.3,1.2c-0.7,0.8-1,1.8-1,3c0,1.4,0.4,2.6,1.2,3.6s1.8,1.5,3.1,1.5
			c1.7,0,3.3-1.1,4.8-3.3L393.8,227.6z"/>
		<path id="XMLID_8806_" class="st45" d="M412.2,227.6c-2.1,3-4.1,4.5-6,4.5c-0.6,0-1-0.2-1.3-0.6c-0.3-0.4-0.4-1.3-0.4-2.7v-5.6
			c0-1-0.4-1.4-1.1-1.4c-0.6,0-1.2,0.3-1.9,0.9c-0.7,0.6-1.3,1.4-1.8,2.4s-0.8,1.7-0.8,2v3.9l-2.6,1.6v-8.9
			c-0.9,1.7-1.8,3.2-2.8,4.5l-0.8-0.6c0.4-0.6,0.8-1.2,1.2-1.8c0.4-0.6,0.8-1.5,1.5-2.7c0.6-1.2,0.9-2,0.9-2.2v-11
			c0-2.4,0.6-4.4,1.8-5.9c1.2-1.5,2.6-2.3,4.2-2.3c1.9,0,2.8,1.2,2.8,3.5c0,3-2.1,7.9-6.2,14.5v4.8c1.2-1.6,2.3-2.7,3.1-3.4
			s1.8-1,2.7-1c1.6,0,2.3,1.1,2.3,3.3v5.1c0,1.3,0.2,1.9,0.7,1.9c0.9,0,2.1-1.1,3.7-3.3L412.2,227.6z M398.8,217.3
			c1.7-3,2.8-5.4,3.5-7.2c0.6-1.8,1-3.4,1-4.8c0-0.8-0.2-1.5-0.5-2.1c-0.3-0.6-0.8-0.8-1.3-0.8c-0.8,0-1.4,0.5-1.9,1.6
			s-0.7,2.5-0.7,4.3V217.3z"/>
		<path id="XMLID_8809_" class="st45" d="M425.7,227.6c-1,1.6-2.1,2.8-3.3,3.5c-1.2,0.7-2.7,1.1-4.7,1.1c-1.4,0-2.5-0.4-3.3-1.3
			c-0.8-0.8-1.2-2-1.2-3.5c0-0.4,0-0.8,0.1-1.3c-0.6,0.8-1.1,1.4-1.4,1.9l-0.8-0.6c2.2-3.1,3.9-5.2,5.1-6.1c1.2-1,2.4-1.5,3.7-1.5
			c0.7,0,1.3,0.2,1.7,0.6c0.4,0.4,0.7,0.9,0.7,1.6c0,2.2-1.9,4.4-5.8,6.5c0.5,1.2,1.6,1.8,3.3,1.8c0.8,0,1.7-0.3,2.7-0.9
			c1-0.6,1.9-1.4,2.7-2.5L425.7,227.6z M415.9,227.5c2.8-1.4,4.2-2.9,4.2-4.6c0-0.5-0.1-0.9-0.4-1.2c-0.3-0.3-0.7-0.5-1.1-0.5
			c-0.9,0-1.6,0.4-2.2,1.2c-0.6,0.8-0.9,1.8-0.9,2.9c0,0.6,0.1,1.1,0.2,1.5C415.8,227.3,415.9,227.5,415.9,227.5z"/>
		<path id="XMLID_8812_" class="st45" d="M424.6,227.4c0.3-0.5,0.6-0.9,0.9-1.3c0.3-0.4,0.5-0.9,0.8-1.4c0.3-0.5,0.6-1.2,0.9-2
			s0.5-1.4,0.5-1.7v-9.8c0-2.4,0.8-4.6,2.3-6.6c1.5-2,3.1-2.9,4.8-2.9c0.9,0,1.6,0.3,2.1,0.9c0.5,0.6,0.7,1.4,0.7,2.4
			c0,1.4-0.6,3.2-1.7,5.5s-3,5.5-5.7,9.6v7.3c0,1,0,1.8,0.1,2.1c0.1,0.4,0.3,0.6,0.7,0.6c0.8,0,2-1.1,3.7-3.3l0.8,0.7
			c-2,3-4,4.5-6,4.5c-0.6,0-1-0.2-1.3-0.6s-0.5-1.3-0.5-2.7v-4.6c-0.5,1.3-1.3,2.6-2.3,3.9L424.6,227.4z M430.2,218.4
			c2.3-3.7,3.8-6.4,4.5-8.1c0.7-1.7,1.1-3.1,1.1-4.4c0-1.9-0.6-2.8-1.8-2.8c-1.1,0-2,0.6-2.7,1.8c-0.7,1.2-1.1,2.8-1.1,4.9V218.4z"
			/>
		<path id="XMLID_8815_" class="st45" d="M334.4,250.1l0.1,0.8c0,1.5-0.5,2.8-1.5,3.8c-1,1-2.2,1.5-3.7,1.5c-1.6,0-3-0.7-4.1-2
			c-1.1-1.3-1.7-3-1.7-5.1c0-2.5,0.8-4.6,2.4-6.3c1.6-1.7,3.4-2.6,5.4-2.6c2.1,0,3.8,1,5.3,2.9c1.5,1.9,2.2,4.4,2.2,7.4
			c0,3.8-1.1,7.3-3.4,10.2s-4.8,4.5-7.6,4.5c-1.1,0-1.9-0.2-2.6-0.7c-0.7-0.5-1-1.1-1-1.8c0-1.4,0.8-2.1,2.4-2.1l0.2,0.4
			c-0.3,0.1-0.5,0.4-0.5,0.9c0,0.6,0.2,1.1,0.7,1.5c0.4,0.4,1,0.6,1.7,0.6c2,0,3.9-1.2,5.5-3.6s2.5-5.2,2.5-8.5c0-2.8-0.7-5.1-2-6.8
			c-1.3-1.8-3-2.7-4.9-2.7c-1.5,0-2.6,0.5-3.5,1.4s-1.3,2.3-1.3,3.9c0,1.8,0.5,3.3,1.6,4.6c1.1,1.3,2.3,1.9,3.6,1.9
			c0.9,0,1.7-0.4,2.4-1.1c0.7-0.7,1.1-1.7,1.1-2.9H334.4z"/>
		<path id="XMLID_8817_" class="st45" d="M348,263.4l-2.3,2.4l-2.3-2.3l2.3-2.5L348,263.4z"/>
		<path id="XMLID_8819_" class="st45" d="M361.4,264.2l-2.7,1.4V245c-1.4,1-2.9,1.7-4.6,2l-0.5-0.9c3.5-1,5.9-3.2,7.4-6.4l0.4,0.3
			V264.2z"/>
		<path id="XMLID_8821_" class="st45" d="M375.9,256.4c-0.5-0.7-0.8-1.5-0.8-2.4c0-1.4,0.5-2.5,1.6-3.5c1.1-1,2.4-1.4,3.9-1.4
			c1.7,0,3.1,0.6,4.2,1.9c1.1,1.3,1.7,2.9,1.7,5c0,2.6-0.8,4.7-2.3,6.5c-1.5,1.8-3.4,2.7-5.5,2.7c-2.2,0-4.1-0.9-5.5-2.7
			c-1.4-1.8-2.1-4.2-2.1-7.2c0-4.1,1.1-7.6,3.4-10.5c2.3-2.9,4.8-4.4,7.8-4.4c1,0,1.7,0.2,2.3,0.5s0.8,0.8,0.8,1.4
			c0,0.6-0.2,1.1-0.7,1.5c-0.5,0.4-1,0.7-1.6,0.7c-0.2,0-0.4,0-0.6-0.1l-0.1-0.3c0.6-0.4,0.9-0.8,0.9-1.3c0-0.9-0.6-1.3-1.9-1.3
			c-2.1,0-3.9,1.2-5.5,3.6c-1.6,2.4-2.5,5.2-2.5,8.4c0,2.9,0.6,5.3,1.8,7.1c1.2,1.8,2.8,2.8,4.8,2.8c1.5,0,2.7-0.5,3.7-1.6
			c0.9-1.1,1.4-2.5,1.4-4.3c0-1.7-0.5-3.2-1.5-4.3c-1-1.1-2.2-1.7-3.7-1.7c-1.1,0-1.9,0.3-2.6,1c-0.7,0.7-1,1.5-1,2.5
			c0,0.6,0.1,1,0.2,1.2L375.9,256.4z"/>
		<path id="XMLID_8823_" class="st45" d="M395.7,263.4l-2.3,2.4l-2.3-2.3l2.3-2.5L395.7,263.4z"/>
		<path id="XMLID_8825_" class="st45" d="M409.1,264.2l-2.7,1.4V245c-1.4,1-2.9,1.7-4.6,2l-0.5-0.9c3.5-1,5.9-3.2,7.4-6.4l0.4,0.3
			V264.2z"/>
		<path id="XMLID_8827_" class="st45" d="M422.1,251c1.8-1.5,3.7-2.2,5.7-2.2c1.8,0,3.3,0.6,4.5,1.9c1.2,1.3,1.8,2.9,1.8,4.8
			c0,2.5-0.9,4.8-2.6,6.7s-3.9,2.9-6.4,2.9c-1.8,0-3.4-0.5-4.6-1.5c-1.2-1-1.8-2.2-1.8-3.6c0-1.1,0.4-2.1,1.1-2.8
			c0.7-0.8,1.7-1.2,2.8-1.2c1.4,0,2.7,0.8,3.7,2.5l-0.6,0.4c-0.7-0.7-1.4-1.1-2.2-1.1c-0.8,0-1.4,0.3-1.9,0.8
			c-0.5,0.5-0.8,1.2-0.8,2c0,0.9,0.4,1.7,1.3,2.4c0.9,0.7,2,1,3.2,1c1.8,0,3.2-0.7,4.4-2c1.2-1.3,1.7-3,1.7-5c0-1.8-0.5-3.3-1.4-4.5
			c-1-1.2-2.2-1.8-3.6-1.8c-1.7,0-3.4,0.8-4.8,2.4l-0.8-0.3c0.5-2.8,0.8-5.5,0.8-8.3l-0.1-4.1l0.6-0.6c1.6,1.9,3.4,2.9,5.6,2.9
			c2,0,3.6-1,4.8-2.9l0.8,0.4c-1.6,3.1-4,4.6-7.1,4.6c-1.3,0-2.5-0.3-3.5-0.8C422.6,245.4,422.4,247.7,422.1,251z"/>
	</g>
</g>
</svg>
