<?xml version="1.0" encoding="utf-8"?>
<!-- Generator: Adobe Illustrator 16.0.0, SVG Export Plug-In . SVG Version: 6.00 Build 0)  -->
<!DOCTYPE svg PUBLIC "-//W3C//DTD SVG 1.1//EN" "http://www.w3.org/Graphics/SVG/1.1/DTD/svg11.dtd">
<svg version="1.1" id="Layer_2" xmlns="http://www.w3.org/2000/svg" xmlns:xlink="http://www.w3.org/1999/xlink" x="0px" y="0px"
	 width="759px" height="439px" viewBox="0 0 759 439" style="enable-background:new 0 0 759 439;" xml:space="preserve">
<path id="XMLID_916_" style="fill:#060707;" d="M475,155c-20.7-30.6-55.8-50.8-95.5-50.8c-39.7,0-74.8,20.2-95.5,50.8H0v129h284
	c20.7,30.6,55.8,50.8,95.5,50.8c39.7,0,74.8-20.2,95.5-50.8h284V155H475z"/>
<g>
	<path style="fill:#FFFFFF;" d="M523,211.6c-0.8-0.2-1.5-0.3-2.1-0.3c-0.6,0-1.1,0.2-1.4,0.6c-0.3,0.4-0.5,0.9-0.5,1.7v0.6h2.8v3.8
		H519v11.2h-5.6v-11.2h-2.6v-3.8h2.6v-0.3c0-1.1,0.2-2.1,0.6-3.1c0.4-1,1.1-1.8,2.1-2.4c1-0.6,2.3-1,4-1c0.9,0,1.9,0.1,2.8,0.3
		V211.6z"/>
	<path style="fill:#FFFFFF;" d="M530,229.1h-5.6v-15.8h5.6V229.1z M529.6,209.7c0,0.6-0.2,1.2-0.7,1.7c-0.5,0.5-1,0.7-1.7,0.7
		c-0.4,0-0.8-0.1-1.2-0.3c-0.4-0.2-0.6-0.5-0.8-0.8s-0.3-0.8-0.3-1.2c0-0.6,0.2-1.2,0.7-1.7c0.5-0.5,1-0.7,1.7-0.7
		c0.6,0,1.2,0.2,1.7,0.7C529.3,208.5,529.6,209,529.6,209.7z"/>
	<path style="fill:#FFFFFF;" d="M550.7,229.1h-5.6v-8.2v-0.3c0-0.9-0.1-1.6-0.4-2.3c-0.3-0.6-0.9-1-1.9-1c-0.5,0-0.9,0.1-1.2,0.3
		c-0.3,0.2-0.7,0.4-0.9,0.7c-0.3,0.3-0.5,0.5-0.7,0.8c-0.2,0.2-0.4,0.5-0.6,0.8v9.3h-5.6v-15.8h5.6v2.3c0.9-0.9,1.8-1.6,2.6-2
		c0.9-0.4,1.9-0.6,2.9-0.6c3.8,0,5.7,2.3,5.7,6.8V229.1z"/>
	<path style="fill:#FFFFFF;" d="M570.3,228.3c-0.8,0.3-1.6,0.6-2.3,0.8c-0.7,0.2-1.5,0.3-2.5,0.3c-0.9,0-1.6-0.2-1.9-0.5
		c-0.4-0.3-0.6-0.7-0.8-1.2c-0.6,0.5-1.3,0.9-2,1.2c-0.7,0.3-1.7,0.5-2.9,0.5c-1.1,0-2.1-0.2-2.8-0.6c-0.7-0.4-1.2-0.9-1.5-1.5
		c-0.3-0.6-0.4-1.2-0.4-1.9c0-1,0.2-1.8,0.7-2.4c0.5-0.6,1.1-1.2,2-1.6s1.9-0.8,3.3-1.3c0.8-0.2,1.4-0.4,1.8-0.6
		c0.4-0.1,0.7-0.2,0.9-0.3c0.2-0.1,0.4-0.2,0.6-0.3c0-0.8-0.2-1.4-0.5-1.8c-0.3-0.4-1-0.6-2-0.6c-1.2,0-2.3,0.3-3.4,0.8
		s-2,1.2-2.9,2.1v-4.3c0.7-0.5,1.4-0.9,2.2-1.2s1.6-0.5,2.5-0.7c0.9-0.2,1.8-0.2,2.7-0.2c2.3,0,4,0.4,5.1,1.3s1.7,2.1,1.7,3.6v6.1
		c0,0.6,0.1,1,0.2,1.3c0.1,0.3,0.3,0.4,0.6,0.4c0.4,0,0.8-0.1,1.4-0.4V228.3z M562.6,225.3v-3.7c-1.3,0.5-2.3,1-2.9,1.4
		s-0.9,1-0.9,1.7c0,0.5,0.2,0.9,0.5,1.2c0.3,0.3,0.7,0.4,1.1,0.4c0.4,0,0.8-0.1,1.1-0.3C561.8,225.8,562.2,225.6,562.6,225.3z"/>
	<path style="fill:#FFFFFF;" d="M578,229.1h-5.6v-21.4h5.6V229.1z"/>
	<path style="fill:#FFFFFF;" d="M587.7,229.1h-5.6v-21.4h5.6V229.1z"/>
	<path style="fill:#FFFFFF;" d="M608.4,213.3l-10.7,22.9H592l4.3-9.2l-6.2-13.7h6l3.2,7.8l3.6-7.8H608.4z"/>
</g>
<g>
	<path style="fill:#FFFFFF;" d="M398.5,223.2c1-1.7,7.8-11.1,6.9-24.2c-1.1-15.9-11.7-35.4-36.6-39.5c-9.8-1.6-23.9,0.8-36.3,13.1
		s-20.6,45,10.1,65.4c1.3-1.4,10.8-10.6,10.8-10.6s-16.8-8.3-17.1-26.1c-0.2-9.6,6.5-27.6,29.3-26.9c11.8,0.4,22.5,11.4,24.1,22.5
		c1.9,13-6.1,20.8-7.4,22.3c-2.7,2.9-62,60.8-62,60.8h87.4v-15.1H358C358,264.9,393,232.4,398.5,223.2z M401.2,271.4v1.9h-64.6
		c0,0,29.4-28.3,33.8-32.6c3.9-3.8,20-16.5,25.1-30.4c4.2-11.6-2-24.8-3.8-27.2c-16.9-23.4-40.8-13.6-45-11.1
		c-18.9,11.4-16.9,30.7-16.8,33c0.5,12.7,12.9,23.2,12.9,23.2l-0.9,1.1C322,213,328.4,192.1,331,186.9c11.5-23.4,35.1-22.8,44.5-19
		c26.9,10.7,23.2,37.2,23,38.4c-1.8,13.8-19.4,28.6-23,32.1c-3.7,3.5-33.8,33.1-33.8,33.1H401.2z"/>
	<path style="fill:#FFFFFF;" d="M416.3,159v121h15V159H416.3z M424.6,273.4h-1.8V165.5h1.8V273.4z"/>
</g>
</svg>
