<?xml version="1.0" encoding="utf-8"?>
<!-- Generator: Adobe Illustrator 16.0.0, SVG Export Plug-In . SVG Version: 6.00 Build 0)  -->
<!DOCTYPE svg PUBLIC "-//W3C//DTD SVG 1.1//EN" "http://www.w3.org/Graphics/SVG/1.1/DTD/svg11.dtd">
<svg version="1.1" id="Layer_2" xmlns="http://www.w3.org/2000/svg" xmlns:xlink="http://www.w3.org/1999/xlink" xmlns:inkscape="http://www.inkscape.org/namespaces/inkscape" xmlns:sodipodi="http://sodipodi.sourceforge.net/DTD/sodipodi-0.dtd" x="0px" y="0px"
	 width="759px" height="439px" viewBox="0 0 759 439" style="enable-background:new 0 0 759 439;" xml:space="preserve">
<style type="text/css">
<![CDATA[
	.st0{fill:#4659A7;}
	.st1{fill:#7DA0D4;}
	.st2{fill:#7F5E26;}
	.st3{fill:#151943;}
	.st4{fill:#171719;}
	.st5{fill:#172919;}
	.st6{fill:#18331B;}
	.st7{fill:#E72834;}
	.st8{fill:#E7E9E9;}
	.st9{fill:#E8EAEA;}
	.st10{fill-rule:evenodd;clip-rule:evenodd;fill:none;stroke:#E4C54B;stroke-width:1.7463;stroke-miterlimit:10;}
	.st11{fill:#EAE71E;}
	.st12{fill:#EB185B;}
	.st13{fill:#EC2127;}
	.st14{fill:#503C2C;}
	.st15{fill:#507FC1;}
	.st16{fill:#542D8B;}
	.st17{fill:#8C6828;}
	.st18{fill:#BF2327;}
	.st19{fill:#231F20;}
	.st20{fill:#F7F3A3;}
	.st21{fill-rule:evenodd;clip-rule:evenodd;fill:none;stroke:#E4C54B;stroke-width:2.6195;stroke-miterlimit:10;}
	.st22{fill:#C2922E;}
	.st23{fill:#C597C5;}
	.st24{fill:#966828;}
	.st25{fill:#2B378B;}
	.st26{fill:#FAA532;}
	.st27{fill:#FBCA28;}
	.st28{fill:#FBCD36;}
	.st29{fill-rule:evenodd;clip-rule:evenodd;}
	.st30{fill:#FFFFFF;}
	.st31{fill-rule:evenodd;clip-rule:evenodd;fill:#F0CEE3;}
	.st32{fill:#FFFFFF;stroke:#7DA0D4;stroke-miterlimit:10;}
	.st33{fill:none;}
	.st34{fill:#231F20;stroke:#231F20;stroke-width:0.5;stroke-miterlimit:10;}
	.st35{fill:#679B9B;}
	.st36{fill:#9B732B;}
	.st37{fill:#CB7361;}
	.st38{fill:#CC2228;}
	.st39{fill:#311C10;}
	.st40{fill:#EC2127;stroke:#EC2127;stroke-width:0.5;stroke-miterlimit:10;}
	.st41{fill:#381414;}
	.st42{fill-rule:evenodd;clip-rule:evenodd;fill:#FBCDCD;}
	.st43{fill:#010101;}
	.st44{fill-rule:evenodd;clip-rule:evenodd;fill:#FFFFFF;}
	.st45{fill:#FFFFFF;stroke:#FFFFFF;stroke-miterlimit:10;}
	.st46{fill-rule:evenodd;clip-rule:evenodd;fill:#641E0F;}
	.st47{fill:#D3D3D3;}
	.st48{fill:#060707;}
	.st49{fill:#080908;}
	.st50{fill:#721212;}
	.st51{fill:#0E8141;}
	.st52{fill:#424143;}
	.st53{fill:#4259A8;}
]]>
</style>
<g id="band">
<path id="XMLID_23_" fill="#721212" d="M759,152H472.2c-19.5-35.3-53.7-58.8-92.7-58.8c-39,0-73.2,23.4-92.7,58.8H0v135.5h286.8
	c19.5,35.3,53.7,58.8,92.7,58.8c39,0,73.2-23.4,92.7-58.8H759V152z"/>
<g id="XMLID_9334_">
	<path id="XMLID_9335_" fill="#FFFFFF" d="M285.3,176.7h7.1c3.6,0,9,2.4,9,9.2c0,6.8-5.4,9.2-9,9.2h-7.1V176.7z M287.4,193.1h4.2
		c4.2,0,7.4-2.1,7.4-7.2c0-5-3.2-7.2-7.4-7.2h-4.2V193.1z"/>
	<path id="XMLID_9338_" fill="#FFFFFF" d="M310.8,176.7h2.1l7.8,18.4h-2.5l-1.9-4.5h-9.2l-1.9,4.5h-2.5L310.8,176.7z M311.8,179.5
		L311.8,179.5l-3.9,9h7.5L311.8,179.5z"/>
	<path id="XMLID_9341_" fill="#FFFFFF" d="M319.5,176.7h2.5l5.7,15.1h0.1l5.9-15.1h2.3l-7.2,18.4h-2.1L319.5,176.7z"/>
	<path id="XMLID_9343_" fill="#FFFFFF" d="M337.9,176.7h11.6v2H340v5.8h8.8v2H340v6.6h9.9v2h-12V176.7z"/>
	<path id="XMLID_9345_" fill="#FFFFFF" d="M293.2,210h-6.1v16.4H285V210h-6.1v-2h14.4V210z"/>
	<path id="XMLID_9347_" fill="#FFFFFF" d="M299.4,207.9h2.1l7.8,18.4h-2.5l-1.9-4.5h-9.2l-1.9,4.5h-2.5L299.4,207.9z M300.4,210.7
		L300.4,210.7l-3.9,9h7.5L300.4,210.7z"/>
	<path id="XMLID_9350_" fill="#FFFFFF" d="M311.7,207.9h2.2v8h0.3l8.4-8h3.1l-9.1,8.4l9.5,10H323l-8.8-9.4h-0.3v9.4h-2.2V207.9z"/>
	<path id="XMLID_9352_" fill="#FFFFFF" d="M328.1,207.9h11.6v2h-9.4v5.8h8.8v2h-8.8v6.6h9.9v2h-12V207.9z"/>
	<path id="XMLID_9354_" fill="#FFFFFF" d="M352.3,211.2c-0.7-1.2-2-1.7-3.4-1.7c-1.9,0-3.9,0.9-3.9,3.1c0,1.7,0.9,2.4,3.9,3.4
		c2.9,0.9,5.5,1.8,5.5,5.5c0,3.7-3.1,5.4-6.5,5.4c-2.1,0-4.4-0.7-5.7-2.5l1.9-1.5c0.8,1.4,2.3,2.1,3.9,2.1c1.9,0,4-1.1,4-3.2
		c0-2.3-1.5-2.7-4.8-3.7c-2.6-0.9-4.6-2-4.6-5.1c0-3.5,3-5.3,6.3-5.3c2.1,0,3.8,0.6,5.1,2.2L352.3,211.2z"/>
</g>
<g id="XMLID_9311_">
	<path id="XMLID_9312_" fill="#FFFFFF" d="M433.2,209.7h-6.1v16.4h-2.2v-16.4h-6.1v-2h14.4V209.7z"/>
	<path id="XMLID_9314_" fill="#FFFFFF" d="M435.8,207.7h2.2v7.8h9.8v-7.8h2.2v18.4h-2.2v-8.6h-9.8v8.6h-2.2V207.7z"/>
	<path id="XMLID_9316_" fill="#FFFFFF" d="M454.5,207.7h11.6v2h-9.4v5.8h8.8v2h-8.8v6.6h9.9v2h-12V207.7z"/>
	<path id="XMLID_9318_" fill="#FFFFFF" d="M386.1,238.9h5.5c3.4,0,6.4,1.2,6.4,5c0,4-3.4,5.1-6,5.1h-3.7v8.3h-2.2V238.9z M388.3,247
		h3.7c2.2,0,3.7-1,3.7-3c0-2.1-1.5-3-3.7-3h-3.7V247z"/>
	<path id="XMLID_9321_" fill="#FFFFFF" d="M401.6,238.9h2.2v16.4h8.4v2h-10.6V238.9z"/>
	<path id="XMLID_9323_" fill="#FFFFFF" d="M428.4,250.3c0,4-1.9,7.5-6.9,7.5s-6.9-3.5-6.9-7.5v-11.4h2.2v11.1c0,3,1.1,5.8,4.8,5.8
		s4.8-2.8,4.8-5.8v-11.1h2.2V250.3z"/>
	<path id="XMLID_9325_" fill="#FFFFFF" d="M432.9,238.9h2.8l10.7,15.3h0.1v-15.3h2.2v18.4h-2.8L435.1,242h-0.1v15.3h-2.2V238.9z"/>
	<path id="XMLID_9327_" fill="#FFFFFF" d="M468.8,256c-2.1,1.2-4.5,1.7-6.9,1.7c-5.7,0-9.8-3.9-9.8-9.7c0-5.8,4.4-9.7,9.9-9.7
		c2.4,0,4.8,0.7,6.5,2.4l-1.6,1.7c-1.2-1.4-3.1-2.1-5-2.1c-4.2,0-7.4,3.2-7.4,7.6c0,4.4,3.1,7.6,7.6,7.6c1.5,0,3.2-0.4,4.6-1.1V249
		h-4.2v-2h6.4V256z"/>
	<path id="XMLID_9329_" fill="#FFFFFF" d="M473.3,238.9h11.6v2h-9.4v5.8h8.8v2h-8.8v6.6h9.9v2h-12V238.9z"/>
	<path id="XMLID_9331_" fill="#FFFFFF" d="M488.7,238.9h4.7c3.6,0,7.3,0.5,7.3,5.1c0,2.7-1.7,4.4-4.6,4.9l5.2,8.5h-2.7l-5-8.3h-2.8
		v8.3h-2.2V238.9z M490.9,247h1.9c2.4,0,5.6,0,5.6-3c0-2.7-2.3-3-4.4-3h-3.1V247z"/>
</g>
<g id="layer1" transform="translate(86.217568,-209.59398)" inkscape:label="Layer 1" inkscape:groupmode="layer">
	<g id="g4666" transform="matrix(1.4992435,1.2266668,-1.2266668,1.4992435,2361.8796,1254.1826)">
		<g id="XMLID_71_">
			
				<path id="path4297_1_" sodipodi:cy="642.03607" sodipodi:rx="94.565216" sodipodi:cx="-993.47827" sodipodi:type="arc" sodipodi:ry="34.239132" fill="#CB7361" d="
				M-1079.4,379.7c0,3.2-6.9,5.7-15.4,5.7c-8.5,0-15.4-2.6-15.4-5.7s6.9-5.7,15.4-5.7C-1086.3,374-1079.4,376.5-1079.4,379.7
				L-1079.4,379.7z"/>
			<path id="XMLID_68_" fill="#010101" d="M-1080.7,382.3c-0.8,0.6-1.9,1.2-3.2,1.7c-2.9,1.1-6.8,1.7-11,1.7c-4.1,0-8.1-0.6-11-1.7
				c-3-1.1-4.7-2.6-4.7-4.3c0-1.6,1.7-3.2,4.7-4.3c2.9-1.1,6.8-1.7,11-1.7c4.1,0,8.1,0.6,11,1.7c3,1.1,4.7,2.6,4.7,4.3l0,0
				C-1079.2,380.6-1079.7,381.5-1080.7,382.3z M-1108.8,377.5c-0.8,0.7-1.3,1.4-1.3,2.2c0,1.4,1.6,2.8,4.4,3.8
				c2.9,1.1,6.7,1.7,10.8,1.7c4.1,0,7.9-0.6,10.8-1.7c2.8-1,4.4-2.4,4.4-3.8c0-1.4-1.6-2.8-4.4-3.8c-2.9-1.1-6.7-1.7-10.8-1.7
				c-4.1,0-7.9,0.6-10.8,1.7C-1107,376.4-1108,376.9-1108.8,377.5z"/>
		</g>
		<g id="XMLID_67_">
			<path id="path4299_1_" sodipodi:nodetypes="csssssc" fill="#CB7361" d="M-1081.1,375.5c0,1.7,0.8,3.8-0.2,5.2
				c-2.3,3.1-8.1,3.5-13.2,3.5c-5.5,0-12.2-0.9-14.3-4.3c-0.8-1.2,0.1-2.9,0.1-4.4c0-5.4,6.1-9.8,13.6-9.8
				C-1087.7,365.6-1081.1,370-1081.1,375.5L-1081.1,375.5z"/>
			<path id="XMLID_64_" fill="#010101" d="M-1082.1,381.8c-2.7,2.2-7.8,2.6-12.4,2.6c-2.2,0-5.5-0.2-8.5-0.9c-3-0.8-5-2-6-3.6
				c-0.6-0.9-0.3-2-0.1-3c0.1-0.5,0.2-1,0.2-1.5c0-2.7,1.4-5.3,4.1-7.2c2.6-1.9,6.1-2.9,9.7-2.9c3.6,0,7.3,1.1,10,2.9
				c2.8,1.9,4.3,4.5,4.3,7.2l0,0c0,0.5,0.1,1,0.1,1.6c0.2,1.3,0.4,2.7-0.4,3.8C-1081.4,381.2-1081.7,381.5-1082.1,381.8z
				 M-1105.2,369.1c-2.1,1.8-3.3,4-3.3,6.3c0,0.5-0.1,1.1-0.2,1.6c-0.2,1-0.4,1.9,0.1,2.6c2.4,3.8,10.6,4.2,14.1,4.2
				c5.2,0,10.8-0.4,13-3.4c0.7-0.9,0.5-2.2,0.3-3.4c-0.1-0.6-0.2-1.1-0.2-1.7c0-2.5-1.5-4.9-4.1-6.8c-2.6-1.8-6.2-2.8-9.7-2.8
				c-3.6,0-6.9,1-9.4,2.8C-1104.8,368.8-1105,369-1105.2,369.1z"/>
		</g>
		<g id="XMLID_63_">
			<path id="path4302_1_" fill="#CB7361" d="M-1099.3,363v4.2l0.1,0c0.1,1.1,2,2,4.3,2c2.4,0,4.3-0.9,4.3-2.1c0-0.1,0-0.2,0-0.3V363
				L-1099.3,363L-1099.3,363z"/>
			<path id="XMLID_60_" fill="#010101" d="M-1091,368.4c-0.8,0.7-2.2,1.1-3.9,1.1c-2.3,0-4.2-0.8-4.5-2l-0.2,0l0-4.7h9.2v4
				c0,0.1,0,0.2,0,0.3C-1090.3,367.6-1090.5,368-1091,368.4z M-1099,367h0.1l0,0.2c0.1,1,1.9,1.8,4.1,1.8c2.2,0,4.1-0.9,4.1-1.9
				c0-0.1,0-0.1,0-0.2l0,0l0-3.6h-8.2L-1099,367z"/>
		</g>
		<g id="XMLID_59_">
			
				<path id="path4302-9_1_" sodipodi:cy="543.13458" sodipodi:rx="27.588701" sodipodi:cx="-993.52563" sodipodi:type="arc" sodipodi:ry="13.295759" fill="#CB7361" d="
				M-1090.5,363c0,1.2-2,2.1-4.4,2.1c-2.4,0-4.4-0.9-4.4-2.1c0-1.2,2-2.1,4.4-2.1C-1092.5,360.9-1090.5,361.8-1090.5,363z"/>
			<path id="XMLID_56_" fill="#010101" d="M-1091,364.2c-0.2,0.2-0.4,0.3-0.7,0.5c-0.9,0.4-2,0.6-3.2,0.6c-1.2,0-2.3-0.2-3.2-0.6
				c-0.9-0.4-1.4-1.1-1.4-1.7c0-0.7,0.5-1.3,1.4-1.7c0.9-0.4,2-0.6,3.2-0.6c1.2,0,2.3,0.2,3.2,0.6c0.9,0.4,1.4,1.1,1.4,1.7
				C-1090.3,363.4-1090.5,363.9-1091,364.2z M-1098.5,362.1c-0.3,0.3-0.5,0.6-0.5,0.9c0,0.5,0.4,0.9,1.1,1.3c0.8,0.4,1.9,0.6,3,0.6
				c1.1,0,2.2-0.2,3-0.6c0.7-0.4,1.1-0.8,1.1-1.3l0,0c0-0.5-0.4-0.9-1.1-1.3c-0.8-0.4-1.9-0.6-3-0.6c-1.1,0-2.2,0.2-3,0.6
				C-1098.1,361.8-1098.3,362-1098.5,362.1z"/>
		</g>
		<g id="XMLID_55_">
			<path id="path4329-8_1_" fill="#966828" d="M-1094.9,298.5c-1.6,0-2.9,1.5-2.9,3.3c0,0.1,0,0.2,0,0.3l-0.1,0v59.3l0,0
				c0,0.1,0,0.2,0,0.3c0,1,1.3,1.8,3,1.8c1.7,0,3-0.8,3-1.8c0-0.1,0-0.2,0-0.3h0v-59.3l-0.1,0c0-0.1,0-0.2,0-0.3
				C-1092,300-1093.3,298.5-1094.9,298.5L-1094.9,298.5z"/>
			<path id="XMLID_8_" fill="#010101" d="M-1092.3,363c-0.1,0.1-0.2,0.2-0.3,0.2c-0.6,0.4-1.4,0.6-2.2,0.6s-1.6-0.2-2.2-0.6
				c-0.6-0.4-1-0.9-1-1.5c0-0.1,0-0.2,0-0.2v-59.6l0.1,0c0,0,0,0,0-0.1c0-1,0.3-1.8,0.9-2.5c0.6-0.7,1.4-1.1,2.2-1.1
				c0.8,0,1.6,0.4,2.2,1.1c0.6,0.7,0.9,1.6,0.9,2.5c0,0,0,0,0,0.1h0.1v59.8h0c0,0,0,0.1,0,0.1
				C-1091.6,362.2-1091.9,362.6-1092.3,363z M-1097.6,361.2l0.1,0l-0.1,0.3c0,0.1,0,0.2,0,0.3c0,0.4,0.3,0.8,0.8,1.1
				c0.5,0.3,1.2,0.5,2,0.5s1.5-0.2,2-0.5c0.5-0.3,0.8-0.7,0.8-1.1c0-0.1,0-0.2,0-0.3l-0.1-0.3l0.1,0v-58.8h-0.1l0-0.3
				c0-0.1,0-0.2,0-0.3c0-0.8-0.3-1.6-0.8-2.2c-0.5-0.6-1.1-0.9-1.8-0.9l0,0c-0.7,0-1.3,0.3-1.8,0.9c-0.5,0.6-0.8,1.4-0.8,2.2
				c0,0.1,0,0.2,0,0.3l0,0.3h-0.2V361.2z"/>
		</g>
	</g>
</g>
</g>
</svg>
