<svg enable-background="new 0 0 283.5 113.4" id="Layer_1" version="1.1" viewBox="0 0 283.5 113.4" x="0px" xml:space="preserve" xmlns="http://www.w3.org/2000/svg" xmlns:xlink="http://www.w3.org/1999/xlink" y="0px"> <g> <g> <path clip-rule="evenodd" d="M141.7,97.3c-5.5,0-10.8-3.1-15.1-8.9c-0.9,0.4-1.8,0.6-2.8,0.6
			c-3.6,0-6.6-2.9-6.8-6.5c-0.6,0.1-1.2,0.2-1.8,0.2c-4.2,0-7.6-3.3-7.8-7.4l-74.5-3V41l74.6-3c0.5-3.8,3.8-6.7,7.7-6.7
			c0.6,0,1.2,0.1,1.8,0.2c0.1-3.6,3.1-6.5,6.8-6.5c0.8,0,1.6,0.2,2.4,0.4c4.3-6.1,9.8-9.4,15.5-9.4c5.6,0,11.1,3.3,15.4,9.3
			c0.7-0.3,1.5-0.4,2.3-0.4c3.7,0,6.7,2.9,6.8,6.6c0.7-0.2,1.3-0.3,2-0.3c3.9,0,7.2,2.9,7.7,6.7l74.6,3v31.4l-74.5,3
			c-0.2,4.1-3.6,7.4-7.8,7.4c-0.7,0-1.4-0.1-2-0.3c-0.1,3.6-3.1,6.6-6.8,6.6c-0.9,0-1.8-0.2-2.6-0.5
			C152.5,94.2,147.2,97.3,141.7,97.3z" fill="#820A16" fill-rule="evenodd"/> <g> <defs> <path d="M141.8,97.3c-5.5,0-10.8-3.1-15.1-8.9c-0.9,0.4-1.8,0.6-2.8,0.6c-3.6,0-6.6-2.9-6.8-6.5
					c-0.6,0.1-1.2,0.2-1.8,0.2c-4.2,0-7.6-3.3-7.8-7.4l-74.5-3V41l74.6-3c0.5-3.8,3.8-6.7,7.7-6.7c0.6,0,1.2,0.1,1.8,0.2
					c0.1-3.6,3.1-6.5,6.8-6.5c0.8,0,1.6,0.2,2.4,0.4c4.3-6.1,9.8-9.4,15.5-9.4c5.6,0,11.1,3.3,15.4,9.3c0.7-0.3,1.5-0.4,2.3-0.4
					c3.7,0,6.7,2.9,6.8,6.6c0.7-0.2,1.3-0.3,2-0.3c3.9,0,7.2,2.9,7.7,6.7l74.6,3v31.4l-74.5,3c-0.2,4.1-3.6,7.4-7.8,7.4
					c-0.7,0-1.4-0.1-2-0.3c-0.1,3.6-3.1,6.6-6.8,6.6c-0.9,0-1.8-0.2-2.6-0.5C152.6,94.2,147.3,97.3,141.8,97.3z" id="SVGID_119_"/> </defs> <clipPath id="SVGID_2_"> <use overflow="visible" xlink:href="#SVGID_119_"/> </clipPath> </g> </g> <g> <g> <g> <g> <circle clip-rule="evenodd" cx="35.2" cy="44.2" fill="#E5C54B" fill-rule="evenodd" r="0.8"/> </g> <g> <circle clip-rule="evenodd" cx="38.4" cy="44.1" fill="#E5C54B" fill-rule="evenodd" r="0.8"/> </g> <g> <circle clip-rule="evenodd" cx="41.6" cy="43.9" fill="#E5C54B" fill-rule="evenodd" r="0.8"/> </g> <g> <circle clip-rule="evenodd" cx="44.9" cy="43.8" fill="#E5C54B" fill-rule="evenodd" r="0.8"/> </g> <g> <circle clip-rule="evenodd" cx="48.1" cy="43.7" fill="#E5C54B" fill-rule="evenodd" r="0.8"/> </g> <g> <circle clip-rule="evenodd" cx="51.3" cy="43.5" fill="#E5C54B" fill-rule="evenodd" r="0.8"/> </g> <g> <circle clip-rule="evenodd" cx="54.6" cy="43.4" fill="#E5C54B" fill-rule="evenodd" r="0.8"/> </g> <g> <circle clip-rule="evenodd" cx="57.8" cy="43.3" fill="#E5C54B" fill-rule="evenodd" r="0.8"/> </g> <g> <circle clip-rule="evenodd" cx="61" cy="43.2" fill="#E5C54B" fill-rule="evenodd" r="0.8"/> </g> <g> <circle clip-rule="evenodd" cx="64.3" cy="43" fill="#E5C54B" fill-rule="evenodd" r="0.8"/> </g> <g> <circle clip-rule="evenodd" cx="67.5" cy="42.9" fill="#E5C54B" fill-rule="evenodd" r="0.8"/> </g> <g> <circle clip-rule="evenodd" cx="70.7" cy="42.8" fill="#E5C54B" fill-rule="evenodd" r="0.8"/> </g> <g> <circle clip-rule="evenodd" cx="74" cy="42.6" fill="#E5C54B" fill-rule="evenodd" r="0.8"/> </g> <g> <circle clip-rule="evenodd" cx="77.2" cy="42.5" fill="#E5C54B" fill-rule="evenodd" r="0.8"/> </g> <g> <circle clip-rule="evenodd" cx="80.4" cy="42.4" fill="#E5C54B" fill-rule="evenodd" r="0.8"/> </g> <g> <circle clip-rule="evenodd" cx="83.7" cy="42.3" fill="#E5C54B" fill-rule="evenodd" r="0.8"/> </g> <g> <circle clip-rule="evenodd" cx="86.9" cy="42.1" fill="#E5C54B" fill-rule="evenodd" r="0.8"/> </g> <g> <circle clip-rule="evenodd" cx="90.2" cy="42" fill="#E5C54B" fill-rule="evenodd" r="0.8"/> </g> <g> <circle clip-rule="evenodd" cx="93.4" cy="41.9" fill="#E5C54B" fill-rule="evenodd" r="0.8"/> </g> <g> <circle clip-rule="evenodd" cx="96.6" cy="41.8" fill="#E5C54B" fill-rule="evenodd" r="0.8"/> </g> <g> <circle clip-rule="evenodd" cx="99.9" cy="41.6" fill="#E5C54B" fill-rule="evenodd" r="0.8"/> </g> <g> <circle clip-rule="evenodd" cx="103.1" cy="41.5" fill="#E5C54B" fill-rule="evenodd" r="0.8"/> </g> <g> <circle clip-rule="evenodd" cx="106.3" cy="41.4" fill="#E5C54B" fill-rule="evenodd" r="0.8"/> </g> <g> <path clip-rule="evenodd" d="M110.2,40.5c0.3,0.3,0.3,0.9-0.3,1.2c-0.5,0.3-1.1,0-1.1-0.4
						c-0.1-0.4,0.1-0.8,0.4-1C109.4,40.1,109.8,40.2,110.2,40.5z" fill="#E5C54B" fill-rule="evenodd"/> </g> <g> <path clip-rule="evenodd" d="M111.4,37.5c0.4,0.2,0.6,0.6,0.5,1c-0.1,0.2-0.2,0.3-0.3,0.4
						c-0.2,0.1-0.4,0.2-0.6,0.2c-0.2-0.1-0.4-0.2-0.5-0.3c-0.1-0.2-0.2-0.4-0.1-0.7C110.4,37.6,111,37.3,111.4,37.5z" fill="#E5C54B" fill-rule="evenodd"/> </g> <g> <path clip-rule="evenodd" d="M113.6,35.3c0.2,0.4,0.1,0.9-0.2,1.1
						c-0.3,0.2-0.8,0.2-1.1-0.1c-0.3-0.3-0.3-0.9,0.1-1.2C112.9,34.7,113.4,34.9,113.6,35.3z" fill="#E5C54B" fill-rule="evenodd"/> </g> <g> <path clip-rule="evenodd" d="M116.7,34.9c-0.1,0.4-0.5,0.7-0.8,0.7c-0.4,0-0.7-0.3-0.8-0.8
						c-0.1-0.4,0.3-0.9,0.8-0.8C116.5,34,116.8,34.4,116.7,34.9z" fill="#E5C54B" fill-rule="evenodd"/> </g> <g> <path clip-rule="evenodd" d="M119.7,33.9c0.4,0.3,0.4,0.9-0.1,1.2
						c-0.5,0.3-1.1,0.1-1.2-0.3c-0.1-0.4,0-0.9,0.3-1C118.8,33.7,119.3,33.7,119.7,33.9z" fill="#E5C54B" fill-rule="evenodd"/> </g> <g> <path clip-rule="evenodd" d="M120.6,30.9c0.4,0.2,0.6,0.6,0.6,0.9c0,0.2-0.1,0.3-0.3,0.4
						c-0.2,0.1-0.4,0.2-0.6,0.2c-0.2,0-0.4-0.1-0.6-0.3c-0.1-0.2-0.2-0.4-0.2-0.7C119.7,31,120.2,30.7,120.6,30.9z" fill="#E5C54B" fill-rule="evenodd"/> </g> <g> <path clip-rule="evenodd" d="M122.9,28.8c0.1,0.4,0,0.9-0.3,1c-0.3,0.2-0.7,0.1-1.1-0.2
						c-0.3-0.3-0.2-0.9,0.3-1.2C122.3,28.1,122.8,28.4,122.9,28.8z" fill="#E5C54B" fill-rule="evenodd"/> </g> <g> <path clip-rule="evenodd" d="M126.1,29c0,0.2-0.1,0.4-0.3,0.5c-0.2,0.1-0.5,0.1-0.7,0
						c-0.3-0.1-0.6-0.5-0.5-1c0-0.4,0.5-0.8,1.1-0.6c0.2,0.1,0.3,0.2,0.4,0.4C126.1,28.6,126.1,28.8,126.1,29z" fill="#E5C54B" fill-rule="evenodd"/> </g> <g> <path clip-rule="evenodd" d="M128.8,27.7c0.2,0.1,0.3,0.3,0.3,0.5c0,0.2-0.1,0.5-0.3,0.7
						c-0.4,0.4-1,0.3-1.2-0.1c-0.2-0.4-0.1-0.8,0.1-1.1c0.1-0.1,0.3-0.2,0.5-0.2C128.4,27.5,128.7,27.6,128.8,27.7z" fill="#E5C54B" fill-rule="evenodd"/> </g> <g> <path clip-rule="evenodd" d="M130.9,25.2c0.3,0.3,0.4,0.8,0.1,1.1
						c-0.3,0.3-0.8,0.4-1.1,0.1c-0.3-0.3-0.4-0.8-0.1-1.2C130.1,24.9,130.6,24.9,130.9,25.2z" fill="#E5C54B" fill-rule="evenodd"/> </g> <g> <path clip-rule="evenodd" d="M133.3,23c0.3,0.4,0.2,0.9-0.1,1.1c-0.3,0.3-0.8,0.2-1.1-0.1
						c-0.3-0.3-0.3-0.9,0.1-1.2C132.5,22.6,133,22.6,133.3,23z" fill="#E5C54B" fill-rule="evenodd"/> </g> <g> <path clip-rule="evenodd" d="M136,21.3c0.2,0.4,0,0.9-0.3,1.1c-0.4,0.2-0.9,0.1-1.1-0.3
						c-0.2-0.4-0.1-0.9,0.3-1.1C135.3,20.7,135.8,20.9,136,21.3z" fill="#E5C54B" fill-rule="evenodd"/> </g> <g> <path clip-rule="evenodd" d="M139.1,20.2c0.1,0.4-0.2,0.9-0.6,1c-0.4,0.1-0.8-0.1-1-0.5
						c-0.2-0.4,0.1-0.9,0.5-1C138.5,19.5,139,19.7,139.1,20.2z" fill="#E5C54B" fill-rule="evenodd"/> </g> <g> <path clip-rule="evenodd" d="M142.3,20c0,0.4-0.4,0.8-0.8,0.8c-0.4,0-0.8-0.3-0.8-0.8
						c0-0.4,0.3-0.8,0.8-0.8C141.9,19.1,142.3,19.5,142.3,20z" fill="#E5C54B" fill-rule="evenodd"/> </g> <g> <path clip-rule="evenodd" d="M145.4,20.6c-0.2,0.4-0.6,0.6-1,0.5c-0.4-0.1-0.6-0.5-0.6-1
						c0.1-0.4,0.5-0.7,1-0.6C145.3,19.7,145.6,20.2,145.4,20.6z" fill="#E5C54B" fill-rule="evenodd"/> </g> <g> <path clip-rule="evenodd" d="M148.3,22.1c-0.2,0.4-0.7,0.5-1.1,0.3
						c-0.4-0.2-0.5-0.7-0.3-1.1c0.2-0.4,0.7-0.6,1.1-0.3C148.4,21.2,148.6,21.7,148.3,22.1z" fill="#E5C54B" fill-rule="evenodd"/> </g> <g> <path clip-rule="evenodd" d="M150.9,24c-0.3,0.3-0.8,0.3-1.1,0.1c-0.3-0.3-0.4-0.8-0.1-1.1
						c0.3-0.4,0.8-0.4,1.2-0.1C151.2,23.2,151.2,23.7,150.9,24z" fill="#E5C54B" fill-rule="evenodd"/> </g> <g> <path clip-rule="evenodd" d="M153.1,26.4c-0.4,0.3-0.8,0.2-1.1-0.1
						c-0.3-0.3-0.3-0.8,0.1-1.1c0.3-0.3,0.8-0.3,1.2,0.1C153.5,25.6,153.4,26.1,153.1,26.4z" fill="#E5C54B" fill-rule="evenodd"/> </g> <g> <path clip-rule="evenodd" d="M155.3,28.7c-0.2,0.4-0.8,0.6-1.2,0.2
						c-0.2-0.2-0.3-0.5-0.3-0.7c0-0.2,0.1-0.4,0.3-0.5c0.2-0.1,0.4-0.2,0.6-0.2c0.2,0,0.3,0.1,0.5,0.2
						C155.4,27.9,155.4,28.3,155.3,28.7z" fill="#E5C54B" fill-rule="evenodd"/> </g> <g> <path clip-rule="evenodd" d="M158.4,28.6c0,0.4-0.2,0.8-0.6,0.9c-0.1,0-0.5,0.1-0.6-0.1
						c-0.2-0.1-0.3-0.3-0.4-0.5c0-0.2,0-0.4,0.1-0.6c0.1-0.2,0.1-0.3,0.4-0.4C157.9,27.8,158.4,28.2,158.4,28.6z" fill="#E5C54B" fill-rule="evenodd"/> </g> <g> <path clip-rule="evenodd" d="M161.4,29.8c-0.3,0.3-0.8,0.4-1.1,0.2c-0.3-0.2-0.4-0.6-0.3-1
						c0.1-0.4,0.7-0.6,1.2-0.3C161.6,28.9,161.7,29.5,161.4,29.8z" fill="#E5C54B" fill-rule="evenodd"/> </g> <g> <path clip-rule="evenodd" d="M162.5,32.7c-0.2,0-0.4,0-0.6-0.2c-0.2-0.2-0.3-0.3-0.3-0.5
						c0-0.3,0.2-0.7,0.6-0.9c0.4-0.2,0.9,0.1,1,0.7c0,0.3,0,0.5-0.2,0.6C162.9,32.5,162.7,32.7,162.5,32.7z" fill="#E5C54B" fill-rule="evenodd"/> </g> <g> <path clip-rule="evenodd" d="M164.6,34.9c-0.1,0.4-0.6,0.7-1.2,0.4
						c-0.5-0.3-0.6-0.9-0.2-1.2c0.3-0.3,0.8-0.3,1-0.2C164.5,34.1,164.7,34.5,164.6,34.9z" fill="#E5C54B" fill-rule="evenodd"/> </g> <g> <path clip-rule="evenodd" d="M167.8,34.8c-0.1,0.4-0.4,0.8-0.8,0.8c-0.4,0-0.7-0.3-0.8-0.7
						c-0.1-0.4,0.2-0.9,0.8-0.9C167.5,33.9,167.9,34.4,167.8,34.8z" fill="#E5C54B" fill-rule="evenodd"/> </g> <g> <path clip-rule="evenodd" d="M170.6,36.2c-0.3,0.3-0.8,0.3-1.1,0.1
						c-0.3-0.2-0.4-0.7-0.2-1.1c0.2-0.4,0.7-0.5,1.2-0.2C170.9,35.3,171,35.9,170.6,36.2z" fill="#E5C54B" fill-rule="evenodd"/> </g> <g> <path clip-rule="evenodd" d="M172,39.1c-0.2,0.1-0.4,0-0.6-0.2c-0.2-0.1-0.3-0.3-0.3-0.4
						c-0.1-0.3,0.1-0.8,0.5-1c0.4-0.2,0.9,0,1.1,0.5c0.1,0.3,0,0.5-0.1,0.7C172.4,38.9,172.2,39,172,39.1z" fill="#E5C54B" fill-rule="evenodd"/> </g> <g> <path clip-rule="evenodd" d="M174.2,41.2c-0.1,0.4-0.6,0.7-1.1,0.4
						c-0.5-0.3-0.6-0.9-0.3-1.2c0.3-0.3,0.8-0.4,1-0.2C174.1,40.4,174.2,40.8,174.2,41.2z" fill="#E5C54B" fill-rule="evenodd"/> </g> <g> <circle clip-rule="evenodd" cx="176.6" cy="41.4" fill="#E5C54B" fill-rule="evenodd" r="0.8"/> </g> <g> <circle clip-rule="evenodd" cx="179.8" cy="41.5" fill="#E5C54B" fill-rule="evenodd" r="0.8"/> </g> <g> <circle clip-rule="evenodd" cx="183.1" cy="41.6" fill="#E5C54B" fill-rule="evenodd" r="0.8"/> </g> <g> <circle clip-rule="evenodd" cx="186.3" cy="41.8" fill="#E5C54B" fill-rule="evenodd" r="0.8"/> </g> <g> <circle clip-rule="evenodd" cx="189.5" cy="41.9" fill="#E5C54B" fill-rule="evenodd" r="0.8"/> </g> <g> <circle clip-rule="evenodd" cx="192.8" cy="42" fill="#E5C54B" fill-rule="evenodd" r="0.8"/> </g> <g> <circle clip-rule="evenodd" cx="196" cy="42.1" fill="#E5C54B" fill-rule="evenodd" r="0.8"/> </g> <g> <circle clip-rule="evenodd" cx="199.2" cy="42.3" fill="#E5C54B" fill-rule="evenodd" r="0.8"/> </g> <g> <circle clip-rule="evenodd" cx="202.5" cy="42.4" fill="#E5C54B" fill-rule="evenodd" r="0.8"/> </g> <g> <circle clip-rule="evenodd" cx="205.7" cy="42.5" fill="#E5C54B" fill-rule="evenodd" r="0.8"/> </g> <g> <circle clip-rule="evenodd" cx="208.9" cy="42.6" fill="#E5C54B" fill-rule="evenodd" r="0.8"/> </g> <g> <circle clip-rule="evenodd" cx="212.2" cy="42.8" fill="#E5C54B" fill-rule="evenodd" r="0.8"/> </g> <g> <circle clip-rule="evenodd" cx="215.4" cy="42.9" fill="#E5C54B" fill-rule="evenodd" r="0.8"/> </g> <g> <circle clip-rule="evenodd" cx="218.6" cy="43" fill="#E5C54B" fill-rule="evenodd" r="0.8"/> </g> <g> <circle clip-rule="evenodd" cx="221.9" cy="43.2" fill="#E5C54B" fill-rule="evenodd" r="0.8"/> </g> <g> <circle clip-rule="evenodd" cx="225.1" cy="43.3" fill="#E5C54B" fill-rule="evenodd" r="0.8"/> </g> <g> <circle clip-rule="evenodd" cx="228.4" cy="43.4" fill="#E5C54B" fill-rule="evenodd" r="0.8"/> </g> <g> <circle clip-rule="evenodd" cx="231.6" cy="43.5" fill="#E5C54B" fill-rule="evenodd" r="0.8"/> </g> <g> <circle clip-rule="evenodd" cx="234.8" cy="43.7" fill="#E5C54B" fill-rule="evenodd" r="0.8"/> </g> <g> <circle clip-rule="evenodd" cx="238.1" cy="43.8" fill="#E5C54B" fill-rule="evenodd" r="0.8"/> </g> <g> <circle clip-rule="evenodd" cx="241.3" cy="43.9" fill="#E5C54B" fill-rule="evenodd" r="0.8"/> </g> <g> <circle clip-rule="evenodd" cx="244.5" cy="44.1" fill="#E5C54B" fill-rule="evenodd" r="0.8"/> </g> <g> <circle clip-rule="evenodd" cx="247.8" cy="44.2" fill="#E5C54B" fill-rule="evenodd" r="0.8"/> </g> </g> </g> </g> <path clip-rule="evenodd" d="
		M33.1,41.9l75.6-3l0.1-0.6c0.5-3.4,3.5-6,6.9-6c0.5,0,1.1,0.1,1.6,0.2l0.8,0.2l0-0.9c0.1-3.2,2.7-5.8,6-5.8c0.7,0,1.4,0.1,2.1,0.4
		l0.5,0.2l0.3-0.4c4.1-5.8,9.4-9,14.7-9c5.3,0,10.5,3.2,14.7,8.9l0.3,0.4l0.5-0.2c0.6-0.2,1.3-0.3,2-0.3c3.2,0,5.9,2.6,6,5.8l0,0.9
		l0.9-0.2c0.6-0.2,1.2-0.2,1.8-0.2c3.5,0,6.4,2.6,6.9,6l0.1,0.6l75.6,3.5" fill="none" fill-rule="evenodd" stroke="#E5C54B" stroke-miterlimit="10" stroke-width="0.75"/> <g> <path clip-rule="evenodd" d="
			M250.4,66.1L175.7,69c-2.6,0.1-4.7,2.2-4.8,4.8c-0.1,1.5-1.3,2.6-2.8,2.6c-0.2,0-0.5,0-0.7-0.1c-0.4-0.1-0.9-0.2-1.3-0.2
			c-1.1,0-2.1,0.3-3,1c-1.2,0.9-2,2.4-2,3.9c0,0.9-0.8,1.7-1.7,1.7c-0.2,0-0.5,0-0.7-0.1c-0.6-0.3-1.3-0.4-2-0.4c-1.6,0-3.1,0.7-4,2
			c-3.3,4.4-7.2,6.8-11,6.8c-3.8,0-7.8-2.4-11-6.8c-1-1.3-2.5-2-4-2c-0.7,0-1.4,0.1-2.1,0.5c-0.2,0.1-0.5,0.2-0.7,0.2
			c-0.9,0-1.7-0.7-1.7-1.7c-0.1-1.5-0.8-2.9-2-3.8c-0.9-0.7-2-1-3-1c-0.4,0-0.8,0-1.2,0.1c-0.2,0.1-0.4,0.1-0.6,0.1
			c-1.5,0-2.7-1.1-2.8-2.6c-0.1-2.6-2.2-4.7-4.8-4.8l-74.7-3.2" fill="none" fill-rule="evenodd" stroke="#E5C54B" stroke-miterlimit="10" stroke-width="0.5"/> <path clip-rule="evenodd" d="
			M33.1,47.8l74.8-3.4c2.4-0.1,4.4-1.9,4.8-4.3c0.2-1.3,1.4-2.4,2.7-2.4c0.2,0,0.4,0,0.6,0.1c0.4,0.1,0.8,0.1,1.2,0.1
			c1.1,0,2.2-0.4,3-1c1.2-0.9,1.9-2.3,2-3.8c0-0.9,0.8-1.7,1.7-1.7c0.2,0,0.4,0,0.6,0.1c0.6,0.2,1.2,0.3,1.8,0.3
			c1.6,0,3.1-0.8,4.1-2.1c3.3-4.7,7.4-7.3,11.3-7.3c4,0,8,2.6,11.3,7.2c1,1.3,2.5,2.1,4.1,2.1c0.6,0,1.1-0.1,1.7-0.3
			c0.2-0.1,0.4-0.1,0.6-0.1c0.9,0,1.7,0.7,1.7,1.7c0,1.5,0.8,3,2,3.9c0.9,0.7,1.9,1,3,1c0.4,0,0.9-0.1,1.3-0.2
			c0.2-0.1,0.5-0.1,0.7-0.1c1.4,0,2.5,1,2.7,2.4c0.3,2.4,2.4,4.2,4.8,4.3l74.8,3.4" fill="none" fill-rule="evenodd" stroke="#E5C54B" stroke-miterlimit="10" stroke-width="0.5"/> </g> <g> <g> <g> <g> <circle clip-rule="evenodd" cx="247.8" cy="69.5" fill="#E5C54B" fill-rule="evenodd" r="0.8"/> </g> <g> <circle clip-rule="evenodd" cx="244.7" cy="69.6" fill="#E5C54B" fill-rule="evenodd" r="0.8"/> </g> <g> <circle clip-rule="evenodd" cx="241.5" cy="69.8" fill="#E5C54B" fill-rule="evenodd" r="0.8"/> </g> <g> <circle clip-rule="evenodd" cx="238.3" cy="69.9" fill="#E5C54B" fill-rule="evenodd" r="0.8"/> </g> <g> <circle clip-rule="evenodd" cx="235.2" cy="70" fill="#E5C54B" fill-rule="evenodd" r="0.8"/> </g> <g> <circle clip-rule="evenodd" cx="232" cy="70.1" fill="#E5C54B" fill-rule="evenodd" r="0.8"/> </g> <g> <circle clip-rule="evenodd" cx="228.9" cy="70.2" fill="#E5C54B" fill-rule="evenodd" r="0.8"/> </g> <g> <circle clip-rule="evenodd" cx="225.7" cy="70.3" fill="#E5C54B" fill-rule="evenodd" r="0.8"/> </g> <g> <circle clip-rule="evenodd" cx="222.5" cy="70.4" fill="#E5C54B" fill-rule="evenodd" r="0.8"/> </g> <g> <circle clip-rule="evenodd" cx="219.4" cy="70.5" fill="#E5C54B" fill-rule="evenodd" r="0.8"/> </g> <g> <circle clip-rule="evenodd" cx="216.2" cy="70.6" fill="#E5C54B" fill-rule="evenodd" r="0.8"/> </g> <g> <circle clip-rule="evenodd" cx="213.1" cy="70.7" fill="#E5C54B" fill-rule="evenodd" r="0.8"/> </g> <g> <circle clip-rule="evenodd" cx="209.9" cy="70.9" fill="#E5C54B" fill-rule="evenodd" r="0.8"/> </g> <g> <circle clip-rule="evenodd" cx="206.7" cy="71" fill="#E5C54B" fill-rule="evenodd" r="0.8"/> </g> <g> <circle clip-rule="evenodd" cx="203.6" cy="71.1" fill="#E5C54B" fill-rule="evenodd" r="0.8"/> </g> <g> <circle clip-rule="evenodd" cx="200.4" cy="71.2" fill="#E5C54B" fill-rule="evenodd" r="0.8"/> </g> <g> <circle clip-rule="evenodd" cx="197.3" cy="71.3" fill="#E5C54B" fill-rule="evenodd" r="0.8"/> </g> <g> <circle clip-rule="evenodd" cx="194.1" cy="71.4" fill="#E5C54B" fill-rule="evenodd" r="0.8"/> </g> <g> <circle clip-rule="evenodd" cx="191" cy="71.5" fill="#E5C54B" fill-rule="evenodd" r="0.8"/> </g> <g> <circle clip-rule="evenodd" cx="187.8" cy="71.6" fill="#E5C54B" fill-rule="evenodd" r="0.8"/> </g> <g> <circle clip-rule="evenodd" cx="184.6" cy="71.7" fill="#E5C54B" fill-rule="evenodd" r="0.8"/> </g> <g> <circle clip-rule="evenodd" cx="181.5" cy="71.9" fill="#E5C54B" fill-rule="evenodd" r="0.8"/> </g> <g> <circle clip-rule="evenodd" cx="178.3" cy="72" fill="#E5C54B" fill-rule="evenodd" r="0.8"/> </g> <g> <path clip-rule="evenodd" d="M174.4,72.1c-0.1-0.4,0.3-0.8,0.8-0.8c0.4,0,0.8,0.3,0.8,0.8
						c0,0.4-0.3,0.8-0.8,0.8C174.7,72.9,174.5,72.6,174.4,72.1z" fill="#E5C54B" fill-rule="evenodd"/> </g> <g> <path clip-rule="evenodd" d="M172.1,74.1c-0.4-0.1-0.7-0.6-0.3-1.1
						c0.3-0.5,0.9-0.5,1.2-0.2c0.3,0.3,0.3,0.8,0.2,1C173,74.1,172.5,74.2,172.1,74.1z" fill="#E5C54B" fill-rule="evenodd"/> </g> <g> <path clip-rule="evenodd" d="M171.2,77.1c-0.4-0.2-0.5-0.7-0.4-1c0.1-0.3,0.5-0.5,1-0.4
						c0.4,0.1,0.7,0.6,0.5,1.1C172.1,77.2,171.6,77.4,171.2,77.1z" fill="#E5C54B" fill-rule="evenodd"/> </g> <g> <path clip-rule="evenodd" d="M168.8,79c-0.1-0.4,0-0.8,0.3-1c0.3-0.2,0.8-0.1,1,0.3
						c0.3,0.3,0.2,0.9-0.3,1.1C169.5,79.7,168.9,79.4,168.8,79z" fill="#E5C54B" fill-rule="evenodd"/> </g> <g> <path clip-rule="evenodd" d="M165.7,79.1c0-0.2,0.2-0.4,0.4-0.5c0.2-0.1,0.3-0.2,0.5-0.1
						c0.3,0.1,0.6,0.4,0.7,0.8c0,0.4-0.4,0.8-0.9,0.7c-0.2,0-0.5-0.2-0.6-0.3C165.7,79.5,165.7,79.3,165.7,79.1z" fill="#E5C54B" fill-rule="evenodd"/> </g> <g> <path clip-rule="evenodd" d="M162.9,80.3c-0.4-0.2-0.4-0.8,0-1.2c0.5-0.4,1-0.2,1.2,0.2
						c0.2,0.4,0.1,0.8-0.2,1C163.7,80.5,163.3,80.5,162.9,80.3z" fill="#E5C54B" fill-rule="evenodd"/> </g> <g> <path clip-rule="evenodd" d="M162.1,83.3c-0.4-0.2-0.6-0.6-0.5-0.9
						c0.1-0.3,0.4-0.6,0.9-0.6c0.4,0,0.8,0.4,0.7,1C163,83.2,162.5,83.5,162.1,83.3z" fill="#E5C54B" fill-rule="evenodd"/> </g> <g> <path clip-rule="evenodd" d="M159.8,85.3c-0.1-0.4,0.1-0.8,0.3-1c0.3-0.2,0.7-0.1,1,0.2
						c0.3,0.3,0.2,0.9-0.3,1.1C160.4,85.9,159.9,85.7,159.8,85.3z" fill="#E5C54B" fill-rule="evenodd"/> </g> <g> <path clip-rule="evenodd" d="M156.7,85c0-0.2,0.2-0.4,0.4-0.5c0.2-0.1,0.5-0.1,0.6,0
						c0.3,0.1,0.5,0.5,0.5,0.9c0,0.4-0.5,0.7-1,0.6c-0.3-0.1-0.4-0.2-0.4-0.4C156.7,85.4,156.6,85.2,156.7,85z" fill="#E5C54B" fill-rule="evenodd"/> </g> <g> <path clip-rule="evenodd" d="M153.9,86c-0.4-0.2-0.4-0.8,0.1-1.2c0.5-0.3,1-0.2,1.2,0.3
						c0.1,0.4,0,0.8-0.2,1C154.7,86.3,154.2,86.3,153.9,86z" fill="#E5C54B" fill-rule="evenodd"/> </g> <g> <path clip-rule="evenodd" d="M151.8,88.4c-0.3-0.3-0.3-0.8-0.1-1.1
						c0.3-0.3,0.8-0.4,1.1-0.1c0.3,0.3,0.4,0.8,0.1,1.1C152.6,88.7,152.1,88.7,151.8,88.4z" fill="#E5C54B" fill-rule="evenodd"/> </g> <g> <path clip-rule="evenodd" d="M149.5,90.5c-0.3-0.3-0.2-0.8,0.1-1.1
						c0.3-0.3,0.8-0.2,1.1,0.1c0.3,0.3,0.3,0.8-0.1,1.1C150.2,90.9,149.7,90.9,149.5,90.5z" fill="#E5C54B" fill-rule="evenodd"/> </g> <g> <path clip-rule="evenodd" d="M146.8,92.2c-0.2-0.4,0-0.8,0.3-1.1c0.4-0.2,0.8-0.1,1.1,0.3
						c0.2,0.4,0.1,0.9-0.3,1.1C147.5,92.7,147,92.6,146.8,92.2z" fill="#E5C54B" fill-rule="evenodd"/> </g> <g> <path clip-rule="evenodd" d="M143.8,93.2c-0.1-0.4,0.2-0.8,0.6-1c0.4-0.1,0.8,0.1,1,0.5
						c0.1,0.4-0.1,0.9-0.5,1C144.3,93.9,143.9,93.7,143.8,93.2z" fill="#E5C54B" fill-rule="evenodd"/> </g> <g> <path clip-rule="evenodd" d="M140.7,93.4c0-0.4,0.4-0.8,0.8-0.8c0.4,0,0.8,0.3,0.8,0.8
						c0,0.4-0.3,0.8-0.8,0.8C141,94.2,140.6,93.9,140.7,93.4z" fill="#E5C54B" fill-rule="evenodd"/> </g> <g> <path clip-rule="evenodd" d="M137.6,92.8c0.2-0.4,0.6-0.6,1-0.5c0.4,0.1,0.6,0.5,0.6,1
						c-0.1,0.4-0.5,0.7-1,0.6C137.7,93.7,137.4,93.2,137.6,92.8z" fill="#E5C54B" fill-rule="evenodd"/> </g> <g> <path clip-rule="evenodd" d="M134.7,91.4c0.2-0.4,0.7-0.5,1.1-0.3c0.4,0.2,0.5,0.7,0.3,1.1
						c-0.2,0.4-0.7,0.6-1.1,0.3C134.6,92.3,134.5,91.8,134.7,91.4z" fill="#E5C54B" fill-rule="evenodd"/> </g> <g> <path clip-rule="evenodd" d="M132.2,89.5c0.3-0.3,0.8-0.3,1.1-0.1c0.3,0.3,0.4,0.8,0.1,1.1
						c-0.3,0.4-0.8,0.4-1.1,0.1C132,90.3,131.9,89.8,132.2,89.5z" fill="#E5C54B" fill-rule="evenodd"/> </g> <g> <path clip-rule="evenodd" d="M130,87.2c0.3-0.3,0.8-0.2,1.1,0.1c0.3,0.3,0.3,0.8-0.1,1.1
						s-0.8,0.3-1.1-0.1C129.7,88,129.7,87.5,130,87.2z" fill="#E5C54B" fill-rule="evenodd"/> </g> <g> <path clip-rule="evenodd" d="M127.8,85c0.1-0.4,0.7-0.6,1.2-0.2c0.5,0.4,0.4,1,0.1,1.2
						c-0.4,0.2-0.8,0.2-1,0.1C127.8,85.9,127.7,85.5,127.8,85z" fill="#E5C54B" fill-rule="evenodd"/> </g> <g> <path clip-rule="evenodd" d="M124.8,85.4c-0.1-0.4,0.1-0.8,0.5-1c0.2-0.1,0.5-0.1,0.7,0
						c0.2,0.1,0.3,0.3,0.4,0.5c0,0.2,0,0.4-0.1,0.6c-0.1,0.2-0.1,0.3-0.4,0.4C125.3,86.1,124.8,85.8,124.8,85.4z" fill="#E5C54B" fill-rule="evenodd"/> </g> <g> <path clip-rule="evenodd" d="M121.8,84.7c0.3-0.3,0.7-0.4,1-0.3c0.3,0.1,0.5,0.5,0.4,1
						c-0.1,0.4-0.6,0.7-1.1,0.5C121.6,85.6,121.5,85,121.8,84.7z" fill="#E5C54B" fill-rule="evenodd"/> </g> <g> <path clip-rule="evenodd" d="M120.3,82c0.4,0,0.8,0.2,0.9,0.5c0.1,0.3-0.1,0.7-0.5,1
						c-0.4,0.2-0.9,0-1.1-0.5C119.5,82.5,119.9,82,120.3,82z" fill="#E5C54B" fill-rule="evenodd"/> </g> <g> <path clip-rule="evenodd" d="M118.8,79.4c0.2-0.4,0.8-0.5,1.2-0.1c0.4,0.4,0.3,1,0,1.2
						c-0.4,0.2-0.8,0.2-1,0C118.7,80.2,118.6,79.8,118.8,79.4z" fill="#E5C54B" fill-rule="evenodd"/> </g> <g> <path clip-rule="evenodd" d="M115.7,79.3c0-0.4,0.3-0.8,0.7-0.8c0.2,0,0.4,0,0.6,0.1
						c0.2,0.1,0.3,0.3,0.3,0.5c0,0.2,0,0.4-0.1,0.6c-0.1,0.1-0.3,0.3-0.5,0.3C116.1,80.1,115.6,79.7,115.7,79.3z" fill="#E5C54B" fill-rule="evenodd"/> </g> <g> <path clip-rule="evenodd" d="M112.7,78.3c0.3-0.3,0.7-0.4,1-0.3c0.3,0.2,0.5,0.6,0.3,1
						c-0.1,0.4-0.6,0.6-1.1,0.4C112.6,79.1,112.5,78.6,112.7,78.3z" fill="#E5C54B" fill-rule="evenodd"/> </g> <g> <path clip-rule="evenodd" d="M111.1,75.7c0.4-0.1,0.8,0.1,1,0.4c0.1,0.3,0,0.8-0.4,1
						c-0.4,0.2-0.9,0.1-1.1-0.4C110.4,76.2,110.6,75.7,111.1,75.7z" fill="#E5C54B" fill-rule="evenodd"/> </g> <g> <path clip-rule="evenodd" d="M110,72.8c0.3-0.3,0.9-0.3,1.2,0.2c0.3,0.5,0.1,1-0.3,1.1
						c-0.4,0.1-0.8,0-1-0.3C109.7,73.6,109.7,73.1,110,72.8z" fill="#E5C54B" fill-rule="evenodd"/> </g> <g> <path clip-rule="evenodd" d="M107,72.1c0-0.4,0.4-0.8,0.8-0.8c0.4,0,0.9,0.4,0.8,0.8
						c-0.1,0.4-0.4,0.8-0.8,0.7C107.3,72.9,107,72.5,107,72.1z" fill="#E5C54B" fill-rule="evenodd"/> </g> <g> <circle clip-rule="evenodd" cx="104.6" cy="72" fill="#E5C54B" fill-rule="evenodd" r="0.8"/> </g> <g> <circle clip-rule="evenodd" cx="101.4" cy="71.8" fill="#E5C54B" fill-rule="evenodd" r="0.8"/> </g> <g> <circle clip-rule="evenodd" cx="98.3" cy="71.7" fill="#E5C54B" fill-rule="evenodd" r="0.8"/> </g> <g> <circle clip-rule="evenodd" cx="95.1" cy="71.6" fill="#E5C54B" fill-rule="evenodd" r="0.8"/> </g> <g> <circle clip-rule="evenodd" cx="92" cy="71.5" fill="#E5C54B" fill-rule="evenodd" r="0.8"/> </g> <g> <circle clip-rule="evenodd" cx="88.8" cy="71.4" fill="#E5C54B" fill-rule="evenodd" r="0.8"/> </g> <g> <circle clip-rule="evenodd" cx="85.7" cy="71.3" fill="#E5C54B" fill-rule="evenodd" r="0.8"/> </g> <g> <circle clip-rule="evenodd" cx="82.5" cy="71.1" fill="#E5C54B" fill-rule="evenodd" r="0.8"/> </g> <g> <circle clip-rule="evenodd" cx="79.3" cy="71" fill="#E5C54B" fill-rule="evenodd" r="0.8"/> </g> <g> <circle clip-rule="evenodd" cx="76.2" cy="70.9" fill="#E5C54B" fill-rule="evenodd" r="0.8"/> </g> <g> <circle clip-rule="evenodd" cx="73" cy="70.8" fill="#E5C54B" fill-rule="evenodd" r="0.8"/> </g> <g> <circle clip-rule="evenodd" cx="69.9" cy="70.7" fill="#E5C54B" fill-rule="evenodd" r="0.8"/> </g> <g> <circle clip-rule="evenodd" cx="66.7" cy="70.6" fill="#E5C54B" fill-rule="evenodd" r="0.8"/> </g> <g> <circle clip-rule="evenodd" cx="63.5" cy="70.4" fill="#E5C54B" fill-rule="evenodd" r="0.8"/> </g> <g> <circle clip-rule="evenodd" cx="60.4" cy="70.3" fill="#E5C54B" fill-rule="evenodd" r="0.8"/> </g> <g> <circle clip-rule="evenodd" cx="57.2" cy="70.2" fill="#E5C54B" fill-rule="evenodd" r="0.8"/> </g> <g> <circle clip-rule="evenodd" cx="54.1" cy="70.1" fill="#E5C54B" fill-rule="evenodd" r="0.8"/> </g> <g> <circle clip-rule="evenodd" cx="50.9" cy="70" fill="#E5C54B" fill-rule="evenodd" r="0.8"/> </g> <g> <circle clip-rule="evenodd" cx="47.7" cy="69.8" fill="#E5C54B" fill-rule="evenodd" r="0.8"/> </g> <g> <circle clip-rule="evenodd" cx="44.6" cy="69.7" fill="#E5C54B" fill-rule="evenodd" r="0.8"/> </g> <g> <circle clip-rule="evenodd" cx="41.4" cy="69.6" fill="#E5C54B" fill-rule="evenodd" r="0.8"/> </g> <g> <circle clip-rule="evenodd" cx="38.3" cy="69.5" fill="#E5C54B" fill-rule="evenodd" r="0.8"/> </g> <g> <circle clip-rule="evenodd" cx="35.1" cy="69.4" fill="#E5C54B" fill-rule="evenodd" r="0.8"/> </g> </g> </g> </g> <path clip-rule="evenodd" d="
		M250.4,71.5l-75.5,3l0,0.6c-0.2,3.7-3.3,6.6-7,6.6c-0.6,0-1.2-0.1-1.8-0.2l-0.9-0.2l0,0.9c-0.1,3.2-2.8,5.8-6,5.8
		c-0.8,0-1.6-0.2-2.3-0.5l-0.5-0.2l-0.3,0.4c-4.1,5.4-9.1,8.4-14.3,8.4c-5.2,0-10.3-3-14.3-8.5l-0.3-0.5l-0.5,0.2
		c-0.8,0.4-1.6,0.5-2.5,0.5c-3.2,0-5.9-2.5-6-5.8l0-0.9l-0.8,0.2c-0.5,0.1-1.1,0.2-1.6,0.2c-3.7,0-6.8-2.9-7-6.6l0-0.6l-75.5-3" fill="none" fill-rule="evenodd" stroke="#E5C54B" stroke-miterlimit="10" stroke-width="0.75"/> <g> <g> <circle cx="141.5" cy="57.7" fill="none" r="10.8" stroke="#E5C54B" stroke-miterlimit="10" stroke-width="0.3648"/> <g> <g> <g> <g> <path clip-rule="evenodd" d="M153.4,60.9c-0.4-0.1-0.7-0.5-0.6-0.9
								c0.1-0.4,0.5-0.7,0.9-0.6c0.4,0.1,0.7,0.5,0.7,1C154.3,60.7,153.9,61,153.4,60.9z" fill="#E5C54B" fill-rule="evenodd"/> </g> <g> <path clip-rule="evenodd" d="M152.2,63.9c-0.4-0.2-0.5-0.7-0.3-1.1
								c0.2-0.4,0.7-0.5,1.1-0.4c0.4,0.2,0.6,0.7,0.4,1.1C153.1,64,152.6,64.1,152.2,63.9z" fill="#E5C54B" fill-rule="evenodd"/> </g> <g> <path clip-rule="evenodd" d="M150.2,66.5c-0.3-0.3-0.3-0.8-0.1-1.1
								c0.3-0.3,0.8-0.4,1.1-0.1c0.4,0.3,0.4,0.8,0.1,1.2C151.1,66.8,150.6,66.8,150.2,66.5z" fill="#E5C54B" fill-rule="evenodd"/> </g> <g> <path clip-rule="evenodd" d="M147.7,68.4c-0.2-0.4-0.1-0.9,0.2-1.1
								c0.3-0.2,0.8-0.2,1.1,0.2c0.3,0.4,0.2,0.9-0.2,1.2C148.4,68.9,147.9,68.8,147.7,68.4z" fill="#E5C54B" fill-rule="evenodd"/> </g> <g> <path clip-rule="evenodd" d="M144.7,69.7c-0.1-0.4,0.1-0.8,0.5-1c0.4-0.1,0.8,0.1,1,0.5
								c0.2,0.4,0,0.9-0.5,1C145.3,70.4,144.8,70.1,144.7,69.7z" fill="#E5C54B" fill-rule="evenodd"/> </g> <g> <path clip-rule="evenodd" d="M141.5,70.1c0-0.4,0.3-0.8,0.8-0.9c0.4,0,0.8,0.3,0.9,0.7
								c0.1,0.4-0.3,0.9-0.8,0.9C141.8,70.9,141.5,70.6,141.5,70.1z" fill="#E5C54B" fill-rule="evenodd"/> </g> <g> <path clip-rule="evenodd" d="M138.3,69.7c0.1-0.4,0.5-0.7,0.9-0.6
								c0.4,0.1,0.7,0.5,0.6,0.9c-0.1,0.4-0.5,0.7-1,0.7C138.4,70.6,138.1,70.1,138.3,69.7z" fill="#E5C54B" fill-rule="evenodd"/> </g> <g> <path clip-rule="evenodd" d="M135.3,68.4c0.2-0.4,0.7-0.5,1.1-0.3
								c0.4,0.2,0.5,0.7,0.4,1.1c-0.2,0.4-0.7,0.6-1.1,0.4C135.2,69.4,135,68.8,135.3,68.4z" fill="#E5C54B" fill-rule="evenodd"/> </g> <g> <path clip-rule="evenodd" d="M132.7,66.5c0.3-0.3,0.8-0.3,1.1-0.1
								c0.3,0.3,0.4,0.8,0.1,1.1c-0.3,0.4-0.8,0.4-1.2,0.1C132.4,67.3,132.4,66.8,132.7,66.5z" fill="#E5C54B" fill-rule="evenodd"/> </g> <g> <path clip-rule="evenodd" d="M130.7,63.9c0.4-0.2,0.9-0.1,1.1,0.2
								c0.2,0.3,0.2,0.8-0.2,1.1c-0.4,0.3-0.9,0.2-1.2-0.2C130.2,64.6,130.3,64.1,130.7,63.9z" fill="#E5C54B" fill-rule="evenodd"/> </g> <g> <path clip-rule="evenodd" d="M129.5,60.9c0.4-0.1,0.8,0.1,1,0.5c0.1,0.4-0.1,0.8-0.5,1
								c-0.4,0.2-0.9,0-1-0.5C128.8,61.5,129.1,61,129.5,60.9z" fill="#E5C54B" fill-rule="evenodd"/> </g> <g> <path clip-rule="evenodd" d="M129,57.7c0.4,0,0.8,0.3,0.9,0.8c0,0.4-0.3,0.8-0.7,0.9
								c-0.4,0.1-0.9-0.3-0.9-0.8C128.2,58.1,128.6,57.7,129,57.7z" fill="#E5C54B" fill-rule="evenodd"/> </g> <g> <path clip-rule="evenodd" d="M129.5,54.5c0.4,0.1,0.7,0.5,0.6,0.9
								c-0.1,0.4-0.5,0.7-0.9,0.6s-0.7-0.5-0.7-1C128.6,54.6,129,54.4,129.5,54.5z" fill="#E5C54B" fill-rule="evenodd"/> </g> <g> <path clip-rule="evenodd" d="M130.7,51.5c0.4,0.2,0.5,0.7,0.3,1.1
								c-0.2,0.4-0.7,0.5-1.1,0.4c-0.4-0.2-0.6-0.7-0.4-1.1C129.8,51.4,130.3,51.3,130.7,51.5z" fill="#E5C54B" fill-rule="evenodd"/> </g> <g> <path clip-rule="evenodd" d="M132.7,48.9c0.3,0.3,0.3,0.8,0.1,1.1
								c-0.3,0.3-0.8,0.4-1.1,0.1c-0.4-0.3-0.4-0.8-0.1-1.2C131.8,48.6,132.4,48.6,132.7,48.9z" fill="#E5C54B" fill-rule="evenodd"/> </g> <g> <path clip-rule="evenodd" d="M135.3,46.9c0.2,0.4,0.1,0.9-0.2,1.1
								c-0.3,0.2-0.8,0.2-1.1-0.2c-0.3-0.4-0.2-0.9,0.2-1.2C134.5,46.4,135,46.6,135.3,46.9z" fill="#E5C54B" fill-rule="evenodd"/> </g> <g> <path clip-rule="evenodd" d="M138.3,45.7c0.1,0.4-0.1,0.8-0.5,1c-0.4,0.1-0.8-0.1-1-0.5
								c-0.2-0.4,0-0.9,0.5-1C137.7,45,138.1,45.3,138.3,45.7z" fill="#E5C54B" fill-rule="evenodd"/> </g> <g> <path clip-rule="evenodd" d="M141.5,45.3c0,0.4-0.3,0.8-0.8,0.9c-0.4,0-0.8-0.3-0.9-0.7
								c-0.1-0.4,0.3-0.9,0.8-0.9C141.1,44.5,141.5,44.8,141.5,45.3z" fill="#E5C54B" fill-rule="evenodd"/> </g> <g> <path clip-rule="evenodd" d="M144.7,45.7c-0.1,0.4-0.5,0.7-0.9,0.6
								c-0.4-0.1-0.7-0.5-0.6-0.9c0.1-0.4,0.5-0.7,1-0.7C144.5,44.8,144.8,45.3,144.7,45.7z" fill="#E5C54B" fill-rule="evenodd"/> </g> <g> <path clip-rule="evenodd" d="M147.7,46.9c-0.2,0.4-0.7,0.5-1.1,0.3
								c-0.4-0.2-0.5-0.7-0.4-1.1c0.2-0.4,0.7-0.6,1.1-0.4C147.8,46,147.9,46.6,147.7,46.9z" fill="#E5C54B" fill-rule="evenodd"/> </g> <g> <path clip-rule="evenodd" d="M150.2,48.9c-0.3,0.3-0.8,0.3-1.1,0.1
								c-0.3-0.3-0.4-0.8-0.1-1.1c0.3-0.4,0.8-0.4,1.2-0.1C150.5,48.1,150.6,48.6,150.2,48.9z" fill="#E5C54B" fill-rule="evenodd"/> </g> <g> <path clip-rule="evenodd" d="M152.2,51.5c-0.4,0.2-0.9,0.1-1.1-0.2
								c-0.2-0.3-0.2-0.8,0.2-1.1c0.4-0.3,0.9-0.2,1.2,0.2C152.7,50.8,152.6,51.3,152.2,51.5z" fill="#E5C54B" fill-rule="evenodd"/> </g> <g> <path clip-rule="evenodd" d="M153.4,54.5c-0.4,0.1-0.8-0.1-1-0.5c-0.1-0.4,0.1-0.8,0.5-1
								c0.4-0.2,0.9,0,1,0.5C154.2,53.9,153.9,54.4,153.4,54.5z" fill="#E5C54B" fill-rule="evenodd"/> </g> <g> <path clip-rule="evenodd" d="M153.9,57.7c-0.4,0-0.8-0.3-0.9-0.8c0-0.4,0.3-0.8,0.7-0.9
								c0.4-0.1,0.9,0.3,0.9,0.8C154.7,57.3,154.3,57.7,153.9,57.7z" fill="#E5C54B" fill-rule="evenodd"/> </g> </g> </g> </g> </g> </g> </g> </svg>