<svg enable-background="new 0 0 380 220" height="440px" id="veloz" version="1.1" viewBox="0 0 380 220" width="760px" x="0px" xml:space="preserve" xmlns="http://www.w3.org/2000/svg" xmlns:xlink="http://www.w3.org/1999/xlink" y="0px"> <g id="VELOZ"> <rect fill="#1A1A1A" height="74.801" id="Background" width="374.012" x="2.994" y="72.479"/> <g id="Piping"> <rect fill="#D5B100" height="7.479" width="374.012" x="2.994" y="72.479"/> <rect fill="#D5B100" height="7.479" width="374.012" x="2.994" y="139.802"/> <rect fill="#D5B100" height="4.986" width="374.012" x="2.994" y="107.388"/> </g> <polygon fill="#D5B100" id="Diamond" points="258.414,109.52 189.708,146.852 121.478,109.88 190.428,72.188 	"/> <g> <path d="M2.994,102.4
			c13.758,0,25.28-17.454,37.402-17.454c5.354,0,10.824,3.406,16.349,7.21" fill="none" stroke="#D5B100" stroke-miterlimit="10" stroke-width="0.75"/> <path d="M58.932,93.673
			c6.266,4.363,12.585,8.727,18.865,8.727c12.56,0,24.959-17.454,37.4-17.454c5.496,0,11,3.405,16.507,7.208" fill="none" stroke="#D5B100" stroke-miterlimit="10" stroke-width="0.75"/> <path d="M133.887,93.673
			c6.235,4.363,12.476,8.727,18.712,8.727c12.475,0,24.938-17.454,37.401-17.454c5.504,0,11.01,3.405,16.516,7.207" fill="none" stroke="#D5B100" stroke-miterlimit="10" stroke-width="0.75"/> <path d="M208.696,93.673
			c6.233,4.363,12.468,8.727,18.703,8.727c12.476,0,24.961-17.454,37.403-17.454c5.495,0,10.982,3.405,16.479,7.209" fill="none" stroke="#D5B100" stroke-miterlimit="10" stroke-width="0.75"/> <path d="M283.459,93.673
			c6.224,4.363,12.464,8.727,18.744,8.727c12.561,0,25.279-17.454,37.401-17.454c5.349,0,10.58,3.398,15.939,7.196" fill="none" stroke="#D5B100" stroke-miterlimit="10" stroke-width="0.75"/> <path d="M357.691,93.673
			c6.114,4.363,12.436,8.727,19.314,8.727" fill="none" stroke="#D5B100" stroke-miterlimit="10" stroke-width="0.75"/> <path d="M2.994,104.894
			c6.608,0,12.367-3.386,17.641-6.997c5.271-3.61,10.196-7.534,14.658-9.341c3.79-1.534,7.005-1.425,10.966,0.279
			c2.618,1.126,5.4,2.884,8.278,4.838" fill="none" stroke="#D5B100" stroke-miterlimit="10" stroke-width="0.75"/> <path d="M56.745,95.192
			c0.761,0.527,1.527,1.062,2.299,1.595c4.698,3.246,9.558,6.475,14.879,7.663c4.775,1.066,9.77-0.164,14.207-2.455
			c4.438-2.29,8.637-5.484,12.711-8.275c5.194-3.556,10.117-6.3,14.411-6.279c4.239,0.021,9.125,2.733,14.261,6.233" fill="none" stroke="#D5B100" stroke-miterlimit="10" stroke-width="0.75"/> <path d="M131.704,95.194
			c4.59,3.222,9.336,6.679,14.465,8.502c3.867,1.375,8.142,1.509,12.044,0.274c3.9-1.234,7.546-3.481,11.097-5.884
			c5.59-3.784,11.008-7.97,15.896-9.722c3.931-1.411,7.321-1.111,11.364,0.723c2.482,1.125,5.076,2.77,7.742,4.586" fill="none" stroke="#D5B100" stroke-miterlimit="10" stroke-width="0.75"/> <path d="M206.516,95.194
			c0.961,0.669,1.929,1.35,2.903,2.022c4.655,3.216,9.457,6.349,14.752,7.361c5.099,0.976,10.323-0.735,14.993-3.378
			c4.671-2.643,9.124-6.143,13.42-8.925c5.14-3.329,9.675-5.4,14.128-4.675c3.754,0.611,7.971,3.093,12.367,6.073" fill="none" stroke="#D5B100" stroke-miterlimit="10" stroke-width="0.75"/> <path d="M281.281,95.193
			c0.088,0.061,0.176,0.122,0.263,0.184c5.279,3.698,10.726,7.72,16.81,9.077c4.957,1.105,10.151-0.288,14.778-2.746
			c4.626-2.459,9.021-5.836,13.251-8.664c5.221-3.491,9.951-5.939,14.165-5.561c3.837,0.345,8.186,2.947,12.835,6.19" fill="none" stroke="#D5B100" stroke-miterlimit="10" stroke-width="0.75"/> <path d="M355.544,95.205
			c4.946,3.541,10.204,7.398,16.245,8.989c1.68,0.442,3.424,0.7,5.217,0.7" fill="none" stroke="#D5B100" stroke-miterlimit="10" stroke-width="0.75"/> <path d="M2.994,117.36
			c13.758,0,25.28,17.455,37.402,17.455c5.354,0,10.824-3.408,16.349-7.211" fill="none" stroke="#D5B100" stroke-miterlimit="10" stroke-width="0.75"/> <path d="M58.932,126.087
			c6.266-4.363,12.585-8.727,18.865-8.727c12.56,0,24.959,17.455,37.4,17.455c5.496,0,11-3.406,16.507-7.207" fill="none" stroke="#D5B100" stroke-miterlimit="10" stroke-width="0.75"/> <path d="M133.887,126.087
			c6.235-4.363,12.476-8.727,18.712-8.727c12.475,0,24.938,17.455,37.401,17.455c5.504,0,11.01-3.406,16.516-7.207" fill="none" stroke="#D5B100" stroke-miterlimit="10" stroke-width="0.75"/> <path d="M208.696,126.087
			c6.233-4.363,12.468-8.727,18.703-8.727c12.476,0,24.961,17.455,37.403,17.455c5.495,0,10.982-3.406,16.479-7.209" fill="none" stroke="#D5B100" stroke-miterlimit="10" stroke-width="0.75"/> <path d="M283.459,126.087
			c6.224-4.363,12.464-8.727,18.744-8.727c12.561,0,25.279,17.455,37.401,17.455c5.349,0,10.58-3.398,15.939-7.197" fill="none" stroke="#D5B100" stroke-miterlimit="10" stroke-width="0.75"/> <path d="M357.691,126.087
			c6.114-4.363,12.436-8.727,19.314-8.727" fill="none" stroke="#D5B100" stroke-miterlimit="10" stroke-width="0.75"/> <path d="M2.994,114.866
			c6.608,0,12.367,3.387,17.641,6.998c5.271,3.609,10.196,7.533,14.658,9.342c3.79,1.533,7.005,1.424,10.966-0.281
			c2.618-1.127,5.4-2.881,8.278-4.838" fill="none" stroke="#D5B100" stroke-miterlimit="10" stroke-width="0.75"/> <path d="M56.745,124.569
			c0.761-0.529,1.527-1.064,2.299-1.596c4.698-3.246,9.558-6.473,14.879-7.662c4.775-1.066,9.77,0.164,14.207,2.455
			c4.438,2.289,8.637,5.484,12.711,8.275c5.194,3.555,10.117,6.301,14.411,6.279c4.239-0.021,9.125-2.732,14.261-6.234" fill="none" stroke="#D5B100" stroke-miterlimit="10" stroke-width="0.75"/> <path d="M131.704,124.567
			c4.59-3.223,9.336-6.68,14.465-8.502c3.867-1.375,8.142-1.51,12.044-0.275c3.9,1.234,7.546,3.482,11.097,5.885
			c5.59,3.783,11.008,7.969,15.896,9.721c3.931,1.41,7.321,1.111,11.364-0.723c2.482-1.125,5.076-2.768,7.742-4.586" fill="none" stroke="#D5B100" stroke-miterlimit="10" stroke-width="0.75"/> <path d="M206.516,124.565
			c0.961-0.668,1.929-1.348,2.903-2.021c4.655-3.215,9.457-6.348,14.752-7.361c5.099-0.975,10.323,0.734,14.993,3.377
			c4.671,2.643,9.124,6.145,13.42,8.926c5.14,3.328,9.675,5.402,14.128,4.676c3.754-0.611,7.971-3.092,12.367-6.074" fill="none" stroke="#D5B100" stroke-miterlimit="10" stroke-width="0.75"/> <path d="M281.281,124.567
			c0.088-0.061,0.176-0.121,0.263-0.182c5.279-3.699,10.726-7.721,16.81-9.08c4.957-1.105,10.151,0.289,14.778,2.748
			c4.626,2.457,9.021,5.834,13.251,8.664c5.221,3.49,9.951,5.939,14.165,5.561c3.837-0.346,8.186-2.947,12.835-6.191" fill="none" stroke="#D5B100" stroke-miterlimit="10" stroke-width="0.75"/> <path d="M355.544,124.556
			c4.946-3.541,10.204-7.396,16.245-8.988c1.68-0.441,3.424-0.701,5.217-0.701" fill="none" stroke="#D5B100" stroke-miterlimit="10" stroke-width="0.75"/> <path d="M2.994,84.946
			c6.879,0,13.199,4.363,19.314,8.728" fill="none" stroke="#D5B100" stroke-miterlimit="10" stroke-width="0.75"/> <path d="M24.464,95.208
			c5.356,3.797,10.586,7.191,15.933,7.191c12.121,0,24.84-17.454,37.4-17.454c6.279,0,12.52,4.363,18.744,8.728" fill="none" stroke="#D5B100" stroke-miterlimit="10" stroke-width="0.75"/> <path d="M98.719,95.194
			c5.497,3.802,10.983,7.206,16.479,7.206c12.442,0,24.927-17.454,37.401-17.454c6.237,0,12.472,4.363,18.705,8.728" fill="none" stroke="#D5B100" stroke-miterlimit="10" stroke-width="0.75"/> <path d="M173.491,95.198
			c5.504,3.8,11.007,7.202,16.509,7.202c12.464,0,24.926-17.454,37.399-17.454c6.238,0,12.479,4.363,18.715,8.728" fill="none" stroke="#D5B100" stroke-miterlimit="10" stroke-width="0.75"/> <path d="M248.297,95.195
			c5.507,3.801,11.01,7.205,16.506,7.205c12.441,0,24.842-17.454,37.4-17.454c6.28,0,12.601,4.363,18.866,8.728" fill="none" stroke="#D5B100" stroke-miterlimit="10" stroke-width="0.75"/> <path d="M323.255,95.192
			c5.523,3.802,10.994,7.208,16.35,7.208c12.121,0,23.644-17.454,37.401-17.454" fill="none" stroke="#D5B100" stroke-miterlimit="10" stroke-width="0.75"/> <path d="M2.994,82.453
			c6.608,0,12.367,3.385,17.641,6.996c1.297,0.889,2.574,1.798,3.829,2.688" fill="none" stroke="#D5B100" stroke-miterlimit="10" stroke-width="0.75"/> <path d="M26.639,93.673
			c3.039,2.126,5.933,4.016,8.654,5.116c3.79,1.535,7.005,1.427,10.966-0.279c3.963-1.705,8.305-4.854,12.785-7.951
			c4.698-3.245,9.558-6.474,14.879-7.662c4.775-1.065,9.77,0.165,14.207,2.454c3.672,1.896,7.18,4.41,10.589,6.803" fill="none" stroke="#D5B100" stroke-miterlimit="10" stroke-width="0.75"/> <path d="M100.909,93.673
			c5.169,3.533,10.068,6.255,14.343,6.232c4.294-0.021,9.254-2.804,14.463-6.371c5.21-3.566,10.581-7.795,16.454-9.885
			c3.867-1.375,8.142-1.509,12.044-0.273c3.9,1.234,7.546,3.48,11.097,5.884c1.406,0.953,2.803,1.93,4.182,2.889" fill="none" stroke="#D5B100" stroke-miterlimit="10" stroke-width="0.75"/> <path d="M175.706,93.673
			c3.312,2.248,6.504,4.234,9.499,5.309c3.931,1.41,7.321,1.111,11.364-0.722c4.043-1.834,8.384-5.045,12.85-8.13
			c4.655-3.217,9.457-6.349,14.752-7.362c5.099-0.976,10.323,0.735,14.993,3.378c3.135,1.774,6.174,3.936,9.133,6.007" fill="none" stroke="#D5B100" stroke-miterlimit="10" stroke-width="0.75"/> <path d="M250.49,93.673
			c0.701,0.479,1.4,0.949,2.094,1.397c5.14,3.33,9.675,5.401,14.128,4.676c4.45-0.726,9.552-4.078,14.832-7.776
			c5.279-3.699,10.726-7.72,16.81-9.077c4.957-1.106,10.151,0.288,14.778,2.746c3.497,1.857,6.863,4.241,10.123,6.517" fill="none" stroke="#D5B100" stroke-miterlimit="10" stroke-width="0.75"/> <path d="M325.452,93.673
			c0.311,0.212,0.621,0.422,0.931,0.63c5.221,3.49,9.951,5.939,14.165,5.562c4.216-0.381,9.046-3.481,14.218-7.167
			c5.173-3.686,10.665-7.87,17.023-9.544c1.68-0.443,3.424-0.701,5.217-0.701" fill="none" stroke="#D5B100" stroke-miterlimit="10" stroke-width="0.75"/> <path d="M2.994,134.815
			c6.879,0,13.199-4.363,19.314-8.729" fill="none" stroke="#D5B100" stroke-miterlimit="10" stroke-width="0.75"/> <path d="M24.464,124.552
			c5.356-3.795,10.586-7.191,15.933-7.191c12.121,0,24.84,17.455,37.4,17.455c6.279,0,12.52-4.363,18.744-8.729" fill="none" stroke="#D5B100" stroke-miterlimit="10" stroke-width="0.75"/> <path d="M98.719,124.567
			c5.497-3.803,10.983-7.207,16.479-7.207c12.442,0,24.927,17.455,37.401,17.455c6.237,0,12.472-4.363,18.705-8.729" fill="none" stroke="#D5B100" stroke-miterlimit="10" stroke-width="0.75"/> <path d="M173.491,124.563
			c5.504-3.799,11.007-7.203,16.509-7.203c12.464,0,24.926,17.455,37.399,17.455c6.238,0,12.479-4.363,18.715-8.729" fill="none" stroke="#D5B100" stroke-miterlimit="10" stroke-width="0.75"/> <path d="M248.297,124.565
			c5.507-3.801,11.01-7.205,16.506-7.205c12.441,0,24.842,17.455,37.4,17.455c6.28,0,12.601-4.363,18.866-8.729" fill="none" stroke="#D5B100" stroke-miterlimit="10" stroke-width="0.75"/> <path d="M323.255,124.569
			c5.523-3.803,10.994-7.209,16.35-7.209c12.121,0,23.644,17.455,37.401,17.455" fill="none" stroke="#D5B100" stroke-miterlimit="10" stroke-width="0.75"/> <path d="M2.994,137.308
			c6.608,0,12.367-3.385,17.641-6.996c1.297-0.889,2.574-1.797,3.829-2.688" fill="none" stroke="#D5B100" stroke-miterlimit="10" stroke-width="0.75"/> <path d="M26.639,126.087
			c3.039-2.125,5.933-4.016,8.654-5.115c3.79-1.535,7.005-1.428,10.966,0.279c3.963,1.703,8.305,4.854,12.785,7.951
			c4.698,3.246,9.558,6.475,14.879,7.662c4.775,1.064,9.77-0.166,14.207-2.455c3.672-1.896,7.18-4.41,10.589-6.801" fill="none" stroke="#D5B100" stroke-miterlimit="10" stroke-width="0.75"/> <path d="M100.909,126.087
			c5.169-3.533,10.068-6.254,14.343-6.232c4.294,0.021,9.254,2.805,14.463,6.371c5.21,3.568,10.581,7.795,16.454,9.885
			c3.867,1.375,8.142,1.51,12.044,0.273c3.9-1.234,7.546-3.48,11.097-5.885c1.406-0.951,2.803-1.928,4.182-2.889" fill="none" stroke="#D5B100" stroke-miterlimit="10" stroke-width="0.75"/> <path d="M175.706,126.087
			c3.312-2.248,6.504-4.234,9.499-5.309c3.931-1.41,7.321-1.111,11.364,0.723s8.384,5.045,12.85,8.129
			c4.655,3.217,9.457,6.348,14.752,7.363c5.099,0.975,10.323-0.736,14.993-3.379c3.135-1.775,6.174-3.934,9.133-6.006" fill="none" stroke="#D5B100" stroke-miterlimit="10" stroke-width="0.75"/> <path d="M250.49,126.087
			c0.701-0.479,1.4-0.947,2.094-1.396c5.14-3.33,9.675-5.402,14.128-4.676c4.45,0.725,9.552,4.076,14.832,7.777
			c5.279,3.697,10.726,7.719,16.81,9.076c4.957,1.105,10.151-0.289,14.778-2.746c3.497-1.857,6.863-4.24,10.123-6.516" fill="none" stroke="#D5B100" stroke-miterlimit="10" stroke-width="0.75"/> <path d="M325.452,126.087
			c0.311-0.211,0.621-0.422,0.931-0.629c5.221-3.49,9.951-5.939,14.165-5.561c4.216,0.379,9.046,3.48,14.218,7.164
			c5.173,3.688,10.665,7.871,17.023,9.545c1.68,0.445,3.424,0.701,5.217,0.701" fill="none" stroke="#D5B100" stroke-miterlimit="10" stroke-width="0.75"/> </g> <path d="
			M152.599,109.88c0-18.589,16.746-33.661,37.401-33.661c20.656,0,37.399,15.071,37.399,33.661c0,18.59-16.743,33.662-37.399,33.662
			C169.345,143.542,152.599,128.47,152.599,109.88" fill="#FFFFFF" id="CenterCircle"/> <text font-family="'Georgia-Bold'" font-size="13.8522" id="TEXT" x="146" y="115.8359">YOUR TEXT</text> </g> </svg>