<?xml version="1.0" encoding="utf-8"?>
<!-- Generator: Adobe Illustrator 18.1.1, SVG Export Plug-In . SVG Version: 6.00 Build 0)  -->
<svg version="1.1" id="Layer_1" xmlns="http://www.w3.org/2000/svg" xmlns:xlink="http://www.w3.org/1999/xlink" x="0px" y="0px"
	 viewBox="0 0 283.5 113.4" enable-background="new 0 0 283.5 113.4" xml:space="preserve">
<g>
	<g>
		<rect x="33.7" y="44.3" fill="#A96D29" width="216" height="24.7"/>
		<rect x="33.7" y="46.8" fill="#3B2314" width="216" height="19.7"/>
	</g>
	<path fill="#A96D29" d="M182.8,56.7c0-0.1,0-0.1,0-0.2h0c-0.1-8.9-4-14.2-4-14.2c-7.6,0-6.2-7.6-6.2-7.6l-30.8-9.1L111,34.7
		c0,0,1.3,7.6-6.2,7.6c0,0-3.9,5.3-4,14.2h0c0,0.1,0,0.1,0,0.2c0,0.1,0,0.1,0,0.2h0c0.1,8.9,4,14.2,4,14.2c7.6,0,6.2,7.6,6.2,7.6
		l30.8,9.1l30.8-9.1c0,0-1.3-7.6,6.2-7.6c0,0,3.9-5.3,4-14.2h0C182.8,56.8,182.8,56.8,182.8,56.7z"/>
	
		<radialGradient id="SVGID_2_" cx="141.7315" cy="79.2696" r="35.1503" gradientTransform="matrix(1 0 0 0.9417 0 -17.9531)" gradientUnits="userSpaceOnUse">
		<stop  offset="0.3736" style="stop-color:#E29C4B"/>
		<stop  offset="0.7473" style="stop-color:#B86534"/>
		<stop  offset="0.8516" style="stop-color:#783F23"/>
		<stop  offset="0.978" style="stop-color:#432213"/>
	</radialGradient>
	<path fill="url(#SVGID_2_)" d="M141.7,85.7l-28.5-8.4c-0.1-1.7-0.6-3.9-2.2-5.8c-1-1.1-2.6-2.3-5.4-2.7c-1-1.9-2.9-6.1-2.9-11.9
		l0-0.1l0-0.2c0.1-5.9,1.9-10.1,2.9-12c2.8-0.4,4.4-1.6,5.4-2.7c1.6-1.8,2.1-4.1,2.2-5.8l28.5-8.4l28.5,8.4c0.1,1.7,0.6,3.9,2.2,5.8
		c1,1.1,2.7,2.3,5.4,2.7c1,1.9,2.9,6.1,2.9,11.9v0c0,0,0,0.1,0,0.2v0.1l0,0.2c-0.1,5.8-1.9,10-2.9,11.8c-2.8,0.4-4.4,1.6-5.4,2.7
		c-1.6,1.8-2.1,4.1-2.2,5.8L141.7,85.7L141.7,85.7z"/>
	<path fill="#DFCAA3" d="M141.7,84.2l-27.1-8c-0.2-1.7-0.9-3.8-2.5-5.6c-1-1.1-2.7-2.5-5.5-3c-1-2-2.4-5.7-2.5-10.7l0-0.1l0-0.1
		l0-0.1l0-0.2c0.1-4.9,1.5-8.6,2.5-10.7c2.8-0.6,4.5-1.9,5.5-3c1.6-1.8,2.2-3.9,2.5-5.6l27.1-8l27.1,8c0.2,1.7,0.9,3.8,2.5,5.6
		c1,1.1,2.7,2.5,5.5,3c1,2,2.4,5.7,2.5,10.7v0l0,0.2l0,0.2c-0.1,4.9-1.5,8.5-2.5,10.6c-2.8,0.6-4.5,1.9-5.5,3
		c-1.6,1.8-2.2,3.9-2.5,5.6L141.7,84.2L141.7,84.2z"/>
	<path opacity="0.2" fill="#A96D29" d="M166.6,36.4l-3.6-1.1L145.6,52l12.5-18.1L155,33l-10.9,18.3l6.6-19.6l-3-0.9l-5.2,20.1
		l0.8-21.4l-1.6-0.5l-1.6,0.5l0.8,21.4l-5.2-20.1l-3,0.9l6.6,19.6L128.4,33l-3.1,0.9L137.8,52l-17.4-16.7l-3.6,1.1l19.8,16.7
		l-23-12.8c-0.4,0.8-0.9,1.6-1.6,2.4c-0.1,0.1-0.1,0.1-0.2,0.2l23.9,11.5l-29.5-8c-0.4,0.8-0.8,1.9-1.1,3.1l30.3,6.4l-31.2-0.9
		c0,0.5-0.1,1-0.1,1.5l0,0.2l0,0.1l0,0.1l0,0.1c0,0.5,0,1,0.1,1.5l31.2-0.9l-30.3,6.4c0.4,1.2,0.8,2.3,1.2,3.1l29.5-8L112,70.3
		c0.1,0.1,0.1,0.1,0.2,0.2c0.7,0.8,1.2,1.6,1.6,2.4l23-12.8l-19.8,16.7l3.6,1.1l17.4-16.7l-12.5,18.1l3.1,0.9l10.9-18.3l-6.6,19.6
		l3,0.9l5.2-20.1l-0.8,21.4l1.6,0.5l1.6-0.5l-0.8-21.4l5.2,20.1l3-0.9l-6.6-19.6l10.9,18.3l3.1-0.9l-12.5-18.1L163,77.8l3.6-1.1
		L146.8,60l23,12.8c0.4-0.8,0.9-1.7,1.6-2.4c0.1-0.1,0.1-0.1,0.2-0.2l-23.9-11.5l29.5,8.1c0.4-0.8,0.8-1.9,1.2-3.1L148,57.3
		l31.2,0.9c0-0.4,0.1-0.9,0.1-1.3l0-0.2l0-0.2v0c0-0.5,0-1-0.1-1.5L148,55.8l30.3-6.4c-0.4-1.2-0.8-2.3-1.2-3.1l-29.5,8l23.9-11.5
		c-0.1-0.1-0.1-0.1-0.2-0.2c-0.7-0.8-1.2-1.6-1.6-2.4l-23,12.8L166.6,36.4z"/>
	<polygon fill="#3B2314" points="129.3,37.1 130.5,39.3 133,39.7 131.1,41.5 131.6,43.9 129.3,42.8 127.1,43.9 127.5,41.5 
		125.7,39.7 128.2,39.3 	"/>
	<polygon fill="#3B2314" points="141.7,34.6 142.8,36.9 145.3,37.2 143.5,39 144,41.5 141.7,40.3 139.5,41.5 139.9,39 138.1,37.2 
		140.6,36.9 	"/>
	<polygon fill="#3B2314" points="154.5,37.1 155.6,39.3 158.1,39.7 156.3,41.5 156.7,43.9 154.5,42.8 152.3,43.9 152.7,41.5 
		150.9,39.7 153.4,39.3 	"/>
</g>
</svg>
