<?xml version="1.0" encoding="iso-8859-1"?>
<!-- Generator: Adobe Illustrator 19.2.1, SVG Export Plug-In . SVG Version: 6.00 Build 0)  -->
<svg version="1.1" xmlns="http://www.w3.org/2000/svg" xmlns:xlink="http://www.w3.org/1999/xlink" x="0px" y="0px"
	 viewBox="0 0 612 372" style="enable-background:new 0 0 612 372;" xml:space="preserve">
<g id="background">
	<g id="Layer_1_2_">
		<g id="Layer_1_1_">
			
				<radialGradient id="SVGID_1_" cx="334.4816" cy="-47.85" r="220.3666" gradientTransform="matrix(1 0 0 -1 -28.4816 136)" gradientUnits="userSpaceOnUse">
				<stop  offset="0" style="stop-color:#FFFFFF"/>
				<stop  offset="1" style="stop-color:#C9CFD4"/>
			</radialGradient>
			<rect y="124.8" style="fill:url(#SVGID_1_);stroke:#000000;stroke-width:2;stroke-miterlimit:10;" width="612" height="118.1"/>
		</g>
	</g>
	<g id="Layer_2_1_">
		<g id="Layer_5">
			
				<radialGradient id="SVGID_2_" cx="302.1" cy="-47.1" r="89.3759" gradientTransform="matrix(1 0 0 -1 0 136)" gradientUnits="userSpaceOnUse">
				<stop  offset="0" style="stop-color:#FFFFFF"/>
				<stop  offset="1" style="stop-color:#C9CFD4"/>
			</radialGradient>
			
				<ellipse style="fill:url(#SVGID_2_);stroke:#000000;stroke-width:2;stroke-miterlimit:10;" cx="302.1" cy="183.1" rx="82.8" ry="95.5"/>
		</g>
	</g>
</g>
<g id="circle_decoration">
	<g id="Layer_3_1_">
		<g id="Layer_2">
			<g>
				<ellipse style="fill:none;stroke:#000000;stroke-miterlimit:10;" cx="302" cy="182.8" rx="78.3" ry="91.4"/>
				<path style="fill:none;stroke:#000000;stroke-miterlimit:10;" d="M303.4,92.9c6,6.8,15.6,6.8,23.2,3.1
					c1.3,7.3,11.6,13.1,18.3,10.2c1.3,11.1,6.2,15.6,15.6,15.8c-3.5,10.9,2.7,17.8,10.7,19.8c-2.7,8.7-1.1,20.6,7,25.6
					c-6.8,6.2-6,18.8,0.1,27.6c-13.8,7.6-5.6,27.2-5.6,27.2s-16.7,0.4-12.2,18.6c-16.5,0-13.4,16.7-13.4,16.7s-14.1-6.3-18.7,11.5
					c-9.1-6.3-19-1.6-23.2,5.2c-7.6-9.5-14.4-10.5-23.2-3.1c-7.2-17.7-19.6-10.4-19.6-10.4s-2.1-18.2-17.9-16.7
					c1.5-6.3,2.7-20.8-13.4-22.9c4.9-6.9,1.8-20.7-6.2-26c5.8-6.9,7.6-17.8,0.9-28.1c8.9-2.9,10.7-14.8,6.2-24
					c8.9-0.4,14-8.9,11.6-19.8c9.9,0.5,16.6-6.3,16.1-16.7c6.7,4.2,18.3-1.6,21.4-11.5C289.5,101.7,297,100.1,303.4,92.9z"/>
				<path style="fill:none;stroke:#000000;stroke-miterlimit:10;" d="M308.9,93.2c5.6,7.3,15.2,8,23,5c0.9,7.4,10.8,14.1,17.6,11.7
					c0.7,11.2,5.3,16.1,14.7,17.1c-4.1,10.6,1.6,18,9.5,20.6c-3.2,8.5-2.4,20.5,5.5,26.1c-7.2,5.6-7.1,18.3-1.6,27.5
					c-14.3,6.5-7.3,26.7-7.3,26.7s-16.7-1-13.3,17.6c-16.4-1.4-14.4,15.5-14.4,15.5s-13.7-7.4-19.4,9.9c-8.7-7-18.8-3.1-23.5,3.3
					c-7-10.1-13.7-11.6-23-5c-6.1-18.3-19-12-19-12s-1-18.4-16.8-18.1c1.8-6.1,3.9-20.6-12-24c5.3-6.5,3-20.5-4.7-26.5
					c6.2-6.4,8.6-17.1,2.6-28c9.1-2.1,11.6-13.9,7.7-23.4c8.9,0.3,14.5-7.7,12.8-18.8c9.9,1.3,16.9-4.9,17-15.3
					c6.5,4.7,18.3-0.1,22.1-9.7C294.5,100.9,302,100,308.9,93.2z"/>
			</g>
		</g>
	</g>
</g>
<g id="band_decoration">
	<g id="Layer_5_1_">
		<g id="Layer_3">
			<line style="fill:none;stroke:#000000;stroke-miterlimit:10;" x1="373.6" y1="135.1" x2="612" y2="135.2"/>
			<g>
				<line style="fill:none;stroke:#000000;stroke-miterlimit:10;" x1="376.5" y1="139.1" x2="612.5" y2="139.2"/>
				<path style="fill:none;stroke:#000000;stroke-miterlimit:10;" d="M377.5,145.1c0,0,7.8,3.3,12.8-5.4c5.9,8,14.5,8.5,20.1,0
					c5.5,8.8,14.3,7.1,20.4,0c6,7.8,14.7,8.2,20.6,0c5.9,7.6,14.5,8.4,20.2,0c5.9,7.9,14.9,6.7,21.1,0c11.9,14.5,20.9,0.3,20.9,0.3
					s-4.1-2.2,4.3,3.7c8.3,6,16.7-4,16.7-4s-1.5,2.1,0,0c10.1,14.5,19.4,0.3,19.4,0.3s1.1,0,3.2,2.5c6.9,6.5,15.1,2.3,19.5-2.8
					c5.7,8.1,14.2,7.9,20.1,0c5.7,8.1,16.3,4.7,16.3,4.7"/>
				<path style="fill:none;stroke:#000000;stroke-miterlimit:10;" d="M379.3,145.1c0,0,3.3,1.1,6.8-5.4c5.9,8,14.5,8.5,20.1,0
					c5.5,8.8,14.3,7.1,20.4,0c6,7.8,14.7,8.2,20.6,0c5.9,7.6,14.5,8.4,20.2,0c5.9,7.9,14.9,6.7,21.1,0c11.9,14.5,20.9,0.3,20.9,0.3
					s-4.1-2.2,4.3,3.7c8.3,6,16.7-4,16.7-4s-1.5,2.1,0,0c10.1,14.5,19.4,0.3,19.4,0.3s1.1,0,3.2,2.5c6.9,6.5,15.1,2.3,19.5-2.8
					c5.7,8.1,14.2,7.9,20.1,0c8.1,10.5,19.4,2.7,19.4,2.7"/>
				<line style="fill:none;stroke:#000000;stroke-miterlimit:10;" x1="0" y1="135.1" x2="230.4" y2="135.2"/>
				<line style="fill:none;stroke:#000000;stroke-miterlimit:10;" x1="0" y1="139.1" x2="229" y2="139.2"/>
				<path style="fill:none;stroke:#000000;stroke-miterlimit:10;" d="M0,145.1c0,0,2.5-2.2,5.8-5.4c3.5,6.5,14.5,8.5,20.1,0
					c5.5,8.8,14.3,7.1,20.4,0c6,7.8,14.7,8.2,20.6,0c5.9,7.6,14.5,8.4,20.2,0c5.9,7.9,14.9,6.7,21.1,0c11.9,14.5,20.9,0.3,20.9,0.3
					s-4.1-2.2,4.3,3.7c8.3,6,16.7-4,16.7-4s-1.5,2.1,0,0c10.1,14.5,19.4,0.3,19.4,0.3s1.1,0,3.2,2.5c6.9,6.5,15.1,2.3,19.5-2.8
					c5.7,8.1,14.2,7.9,20.1,0c5.7,8.1,14.3,4.7,14.3,4.7"/>
				<path style="fill:none;stroke:#000000;stroke-miterlimit:10;" d="M0,143.1c0,0-2,3.1,1.6-3.4c5.9,8,14.5,8.5,20.1,0
					c5.5,8.8,14.3,7.1,20.4,0c6,7.8,14.7,8.2,20.6,0c5.9,7.6,14.5,8.4,20.2,0c5.9,7.9,14.9,6.7,21.1,0c11.9,14.5,20.9,0.3,20.9,0.3
					s-4.1-2.2,4.3,3.7c8.3,6,16.7-4,16.7-4s-1.5,2.1,0,0c10.1,14.5,19.4,0.3,19.4,0.3s1.1,0,3.2,2.5c6.9,6.5,15.1,2.3,19.5-2.8
					c5.7,8.1,14.2,7.9,20.1,0c8.1,10.5,19.4,1.7,19.4,1.7"/>
			</g>
			<g>
				<g>
					<line style="fill:none;stroke:#000000;stroke-miterlimit:10;" x1="231.6" y1="231.1" x2="0" y2="231.1"/>
					<line style="fill:none;stroke:#000000;stroke-miterlimit:10;" x1="228.6" y1="227.1" x2="0" y2="227.1"/>
					<path style="fill:none;stroke:#000000;stroke-miterlimit:10;" d="M226.6,221.2c0,0-6.8-3.3-11.8,5.4c-5.9-8-14.5-8.5-20.1,0
						c-5.5-8.8-14.3-7.1-20.4,0c-6-7.8-14.7-8.2-20.6,0c-5.9-7.6-14.5-8.4-20.2,0c-5.9-7.9-14.9-6.7-21.1,0
						c-11.9-14.5-20.9-0.3-20.9-0.3s4.1,2.2-4.3-3.7c-8.3-6-16.7,4-16.7,4s1.5-2.1,0,0c-10.1-14.5-19.4-0.3-19.4-0.3s-1.1,0-3.2-2.5
						c-6.9-6.5-15.1-2.3-19.5,2.8c-5.7-8.1-14.2-7.9-20.1,0c-5.7-8.1-9.3-4.7-9.3-4.7"/>
					<path style="fill:none;stroke:#000000;stroke-miterlimit:10;" d="M225.8,221.2c0,0-3.3-1.1-6.8,5.4c-5.9-8-14.5-8.5-20.1,0
						c-5.5-8.8-14.3-7.1-20.4,0c-6-7.8-14.7-8.2-20.6,0c-5.9-7.6-14.5-8.4-20.2,0c-5.9-7.9-14.9-6.7-21.1,0
						c-11.9-14.5-20.9-0.3-20.9-0.3s4.1,2.2-4.3-3.7c-8.3-6-16.7,4-16.7,4s1.5-2.1,0,0c-10.1-14.5-19.4-0.3-19.4-0.3s-1.1,0-3.2-2.5
						c-6.9-6.5-15.1-2.3-19.5,2.8c-5.7-8.1-14.2-7.9-20.1,0C4.4,216.1-1,221.9-1,221.9"/>
				</g>
				<g>
					<line style="fill:none;stroke:#000000;stroke-miterlimit:10;" x1="612" y1="231.1" x2="374.6" y2="231.1"/>
					<line style="fill:none;stroke:#000000;stroke-miterlimit:10;" x1="613.1" y1="227.1" x2="376" y2="227.1"/>
					<path style="fill:none;stroke:#000000;stroke-miterlimit:10;" d="M612.1,221.2c0,0-7.8-3.3-12.8,5.4c-5.9-8-14.5-8.5-20.1,0
						c-5.5-8.8-14.3-7.1-20.4,0c-6-7.8-14.7-8.2-20.6,0c-5.9-7.6-14.5-8.4-20.2,0c-5.9-7.9-14.9-6.7-21.1,0
						c-11.9-14.5-20.9-0.3-20.9-0.3s4.1,2.2-4.3-3.7c-8.3-6-16.7,4-16.7,4s1.5-2.1,0,0c-10.1-14.5-19.4-0.3-19.4-0.3s-1.1,0-3.2-2.5
						c-6.9-6.5-15.1-2.3-19.5,2.8c-5.7-8.1-14.2-7.9-20.1,0c-5.7-8.1-15.3-5.7-15.3-5.7"/>
					<path style="fill:none;stroke:#000000;stroke-miterlimit:10;" d="M610.3,221.2c0,0-3.3-1.1-6.8,5.4c-5.9-8-14.5-8.5-20.1,0
						c-5.5-8.8-14.3-7.1-20.4,0c-6-7.8-14.7-8.2-20.6,0c-5.9-7.6-14.5-8.4-20.2,0c-5.9-7.9-14.9-6.7-21.1,0
						c-11.9-14.5-20.9-0.3-20.9-0.3s4.1,2.2-4.3-3.7c-8.3-6-16.7,4-16.7,4s1.5-2.1,0,0c-10.1-14.5-19.4-0.3-19.4-0.3s-1.1,0-3.2-2.5
						c-6.9-6.5-15.1-2.3-19.5,2.8c-5.7-8.1-14.2-7.9-20.1,0c-8.1-10.5-19.4-2.7-19.4-2.7"/>
				</g>
			</g>
		</g>
	</g>
</g>
<g id="leaf_design">
	<g id="Layer_4_1_">
		<g id="Layer_4">
			<g>
				<g>
					<path d="M213.3,160.7c0,0,0.7,10-6.3,11.7c2.3,6.8-4.3,9-4.3,9s2.7,10-8.7,12c0,0,10.7-9.7,1-12c-7,3-11.3,22-21,25.3
						c-8.5,2.9-17.7,0.3-21.3,1.3s-1.6,5.7-3.7,6.3c-8,0.3-7-3.7-7-3.7s-4.7,4.3-8.7-1.7c-9,3.7-15.3,0.7-15.3,0.7
						s24.2-8.6,34.3-4.7c3.9,1.5,14,2.8,22.7-0.9c8.5-3.6,14.5-21.8,23.6-27.5S213.3,160.7,213.3,160.7z"/>
					<path d="M166.7,187c0,0-12-11.4-25.7-14.3c-17.9-3.9-39.7,7.3-39.7,7.3s11.1,9.7,26.7,13.3c16.7,3.7,35.7,0,35.7,0
						s-34.7,2.1-51.3-12C141.7,169.3,166.7,187,166.7,187z"/>
					<path d="M123,182.3c0,0,14.8,3.9,22,5.7c11.1,2.7,21.7,5.7,29.3,3.3c14.2-4.3,17.3-16.3,25.1-24.3c8.3-8.6,8.3-8.6,20.9-20
						c0,0-17.6,10.5-29.7,27.3c-8.7,12.1-17.1,17.4-24.7,16C144.7,186.3,123,182.3,123,182.3z"/>
					<path d="M129.7,202.8c0,0-13.9,8.4-27.9,8.4c-18.3,0.1-37.5-14.8-37.5-14.8s12.7-6.9,28.7-7.3c17-0.1,35,10.1,35,10.1
						s-33.6-11.9-52.6-1.9C101.8,214.5,129.7,202.8,129.7,202.8z"/>
					<path d="M87.3,198.2c0,0,20.8,2.4,28,2.2c16.4,0.6,37.5-1.2,47.4-3.4c21-4.8,23.8-15,23.8-15s-2,13.3-22.5,17.1
						c-17.1,3.1-45.3,2.8-52.6,2.8S87.3,198.2,87.3,198.2z"/>
					<path d="M185.9,173.6c-7.5,6-17.5,6.7-26.2-0.3c-8.3-6.7-20.9-5.8-20.9-5.8s8.6-6.2,13.3-0.8c5-5.2,10,0.7,10,0.7
						s7.6-7,14.6,2.2c0,0-15.8-2.6-10.1,5.6c7.2,4.9,16,0.5,30-14.7c4.3-4.7,9.1-8.7,14.2-11.3"/>
				</g>
				<g>
					<path d="M392.3,161.7c0,0-0.7,10,6.3,11.7c-2.3,6.8,4.3,9,4.3,9s-2.7,10,8.7,12c0,0-10.7-9.7-1-12c7,3,11.3,22,21,25.3
						c8.5,2.9,17.7,0.3,21.3,1.3c3.7,1,1.6,5.7,3.7,6.3c8,0.3,7-3.7,7-3.7s4.7,4.3,8.7-1.7c9,3.7,15.3,0.7,15.3,0.7
						s-24.2-8.6-34.3-4.7c-3.9,1.5-14,2.8-22.7-0.9c-8.5-3.6-14.5-21.8-23.6-27.5S392.3,161.7,392.3,161.7z"/>
					<path d="M439,188c0,0,12-11.4,25.7-14.3c17.9-3.9,39.7,7.3,39.7,7.3s-11.1,9.7-26.7,13.3c-16.7,3.7-35.7,0-35.7,0
						s34.7,2.1,51.3-12C464,170.3,439,188,439,188z"/>
					<path d="M482.6,183.3c0,0-14.8,3.9-22,5.7c-11.1,2.7-21.7,5.7-29.3,3.3C417.1,188,414,176,406.2,168c-8.3-8.6-8.3-8.6-20.9-20
						c0,0,17.6,10.5,29.7,27.3c8.7,12.1,17.1,17.4,24.7,16C461,187.3,482.6,183.3,482.6,183.3z"/>
					<path d="M476,203.8c0,0,13.9,8.4,27.9,8.4c18.3,0.1,37.5-14.8,37.5-14.8s-12.7-6.9-28.7-7.3c-17-0.1-35,10.1-35,10.1
						s33.6-11.9,52.6-1.9C503.9,215.5,476,203.8,476,203.8z"/>
					<path d="M518.3,199.2c0,0-20.8,2.4-28,2.2c-16.4,0.6-37.5-1.2-47.4-3.4c-21-4.8-23.8-15-23.8-15s2,13.3,22.5,17.1
						c17.1,3.1,45.3,2.8,52.6,2.8C501.6,202.8,518.3,199.2,518.3,199.2z"/>
					<path d="M419.8,174.6c7.5,6,17.5,6.7,26.2-0.3c8.3-6.7,20.9-5.8,20.9-5.8s-8.6-6.2-13.3-0.8c-5-5.2-10,0.7-10,0.7
						s-7.6-7-14.6,2.2c0,0,15.8-2.6,10.1,5.6c-7.2,4.9-16,0.5-30-14.7c-4.3-4.7-9.1-8.7-14.2-11.3"/>
				</g>
			</g>
		</g>
	</g>
</g>
</svg>
