<?xml version="1.0" encoding="utf-8"?>
<!-- Generator: Adobe Illustrator 18.1.0, SVG Export Plug-In . SVG Version: 6.00 Build 0)  -->
<svg version="1.1" id="Layer_1" xmlns="http://www.w3.org/2000/svg" xmlns:xlink="http://www.w3.org/1999/xlink" x="0px" y="0px"
	 viewBox="0 0 283.5 113.4" enable-background="new 0 0 283.5 113.4" xml:space="preserve">
<path fill-rule="evenodd" clip-rule="evenodd" fill="#EF5F7F" d="M249.5,42.7l-81.1,0.1c0-1.4-0.8-3.6-3.1-5c-1.6-1-3.4-1.3-4.8-1.1
	c-5-5.3-11.7-8.5-19-8.5c-7.4,0-14.1,3.3-19.2,8.7c-1.5-0.5-3.7-0.4-5.6,0.9c-2.2,1.4-3.1,3.5-3.1,5l-80.1-0.1v28l80.1-0.1
	c0,1.5,0.9,3.6,3.1,5c1.9,1.2,4.1,1.4,5.6,0.9c5,5.4,11.8,8.7,19.2,8.7c7.3,0,13.9-3.2,19-8.5c1.4,0.2,3.2-0.1,4.8-1.1
	c2.3-1.4,3.1-3.5,3.1-5l81.1,0.1V42.7z"/>
<g opacity="0.35">
	<path fill="none" d="M78.9,54.4c-2.3,2.2-5.1,5-8.8,7.1c-1.6,1.1-2.9,2.2-3.1,3.2c-0.1,0.4,0,0.8,0.3,1.1c0.3,0.4,0.8,0.6,1.4,0.7
		c1.3,0.1,2.9-0.6,4.1-1.6c0.1,0,0.1-0.1,0.2-0.1c0.2-0.1,0.3-0.2,0.4-0.4c2.4-2.1,4.4-4.2,5.9-6l0,0l0.3-0.3
		c3.9-4.3,9.3-9.8,15.6-13.3c1.4-0.8,2.9-1.5,4.4-2.1l-3.9,0c-7.5,3.3-13.2,8.2-16.2,11.1L78.9,54.4z M86.4,49.3
		c-0.1-0.1-1.6,1.7-1.7,1.8c-2.5,2.8-5,5.5-7.5,8.3c-1.1,1.2-2.3,2.5-3.6,3.6c-0.4,0.4-0.8,0.7-1.3,1.1c-0.4,0.3-2.1,0.9-2.5,0.3
		c-0.8-1.3,1.9-2.2,2.5-2.7c0.6-0.4,1.2-0.9,1.7-1.3c2.7-2.2,5.3-4.6,7.8-6.9C82.2,53.1,86,49.1,86.4,49.3z"/>
	<path fill="none" d="M237,55.8c-0.8,2.4-1.2,4.7-1.3,6.8c0.3-2.6,1-5.9,2.9-8.9c1.9-3.2,5.2-6.1,8.6-8c0.7-0.4,1.4-0.7,2.3-1V43
		c-1.5,0.6-3,1.3-4.3,2.2C241.3,47.9,238.6,51.5,237,55.8z"/>
	<path fill="none" d="M117.9,69.8c0.2-0.7,0.5-1.2,0.8-1.8c-0.2,0.3-0.4,0.6-0.6,0.9c-0.8,1.7-1.5,3.9-1.5,6.6c0,0,0.1,0.1,0.1,0.1
		c0.2,0.1,0.3,0.2,0.5,0.3C117.1,73.8,117.4,71.7,117.9,69.8z"/>
	<path fill="none" d="M235.2,43.8c0.9,0.4,1.1,1,1.1,1.6c0.3-0.5,1-1.5,1.8-2.6l-3.6,0c-0.4,0.5-0.8,1-1.1,1.4
		C234,43.7,234.6,43.5,235.2,43.8z"/>
	<path fill="none" d="M238.3,51c-1.8,3.4-2.6,7.2-2.8,10.7c0.1-1.9,0.5-3.9,1.3-6c1.5-4.3,4.3-7.9,8.3-10.7c1.3-0.9,2.8-1.7,4.4-2.2
		v-0.1l-1.3,0c-2.1,0.9-4.9,2.6-7.8,5.7l0,0c0,0,2-3,5.7-5.7l-0.9,0C242.6,44.8,240,47.6,238.3,51z"/>
	<path fill="none" d="M55.3,70.3c0,0,0.1,0,0.1,0c-0.1-0.1-0.3-0.1-0.4-0.1c-0.1,0-0.2,0-0.3,0.2c-0.1,0.1-0.1,0.2-0.2,0.4l0.4,0
		C55,70.5,55.1,70.3,55.3,70.3z"/>
	<path fill="none" d="M242,46.7c2.1-1.9,4.1-3.2,5.7-4l-1.1,0C244.5,44.1,243,45.6,242,46.7z"/>
	<path fill="none" d="M234.2,66.6c0.4,1.2,0.8,2.4,1.4,3.5c0.1,0.2,0.2,0.4,0.3,0.6l0.7,0c-0.4-1-0.9-2.2-1.2-3.6
		c-0.9-3.5-1.1-8.3,0.1-13.1c0.1-0.4,0.2-0.7,0.3-1.1c0.1-0.2,0.1-0.4,0.2-0.6c0.4-1.3,1-2.7,1.7-4.1c0-0.1,0.1-0.1,0.1-0.2
		c0.1-0.2,0.2-0.3,0.3-0.5c1-1.7,2.2-3.3,3.6-5l-2.1,0c-2,2.4-3.5,5.1-4.6,7.8C232.9,55.7,232.6,61.2,234.2,66.6z"/>
	<path fill="none" d="M191.1,70.6l0.2,0c-0.1-0.2-0.3-0.3-0.4-0.5C191,70.3,191,70.5,191.1,70.6z"/>
	<path fill="none" d="M238.8,53.8c-1.2,2-1.9,4.1-2.4,6c0,0,0,0,0,0c0.1-0.2,0.1-0.3,0.2-0.4l0.1-0.2c0-0.1,2.2-6.6,7.9-10.5
		c1.9-1.3,3.5-2.1,4.9-2.5v-1.3c-0.8,0.3-1.5,0.6-2.2,1C243.9,47.7,240.7,50.7,238.8,53.8z"/>
	<path fill="none" d="M245.1,70.7l4.4,0V65C247.6,65.4,245.6,67.8,245.1,70.7z"/>
	<path fill="none" d="M187.2,59.7c-1,1.4-2.2,2.6-3.5,4c-1.9,2-5.3,4.7-10.8,7l3.2,0c1.1-0.5,2.2-1.2,3.4-1.9
		C181,67.8,184.4,64.6,187.2,59.7z"/>
	<path fill="none" d="M36.5,69.7c-0.1-0.1-0.2-0.1-0.3-0.2c-1-0.6-1.9-1.2-2.8-1.9v3.1l5,0C37.8,70.4,37.2,70,36.5,69.7L36.5,69.7z"
		/>
	<path fill="none" d="M247.4,59.8c-2.3,0.2-3.8,1.4-4.6,2.3c0.1-0.1,0.3-0.3,0.5-0.4c0.7-0.5,1.4-0.7,2.1-0.5c0.6,0.2,1,0.6,1.4,1.2
		c0.4,0.6-0.3,2.5-1.1,3.6c-0.2,0.3-0.5,0.7-0.6,0.9c-0.4,0.9-0.8,2-0.9,3.7l0.7,0c0.5-3,2.6-5.5,4.6-5.9V60
		C249,59.8,248.3,59.7,247.4,59.8z"/>
	<path fill="none" d="M154.7,80.3c-0.3-0.1-0.8-0.3-1.2-1c-0.6-1-0.3-1.9,0.2-2.5c-0.5,0.1-1-0.1-1.5-0.6c-0.7-0.9-0.7-1.8-0.6-2.2
		c-0.5-0.1-1.9-0.5-2.6-0.6c-1.4-0.3-2.4-0.1-3.2,0.5c-0.4,0.3-0.7,0.7-0.8,1.1c0.4-0.3,0.9-0.4,1.4-0.3c0.8,0.2,1.4,1,1.4,1.8
		c0.1,0.8-0.3,1.6-0.9,2.1c-0.7,0.6-1.5,0.8-2.4,0.6c-1.8-0.4-3.4-2.3-3-4.8c0.3-1.9,2.1-3.1,3.1-3.5c-2.5-0.5-5.6-0.4-6.2,0.6
		c-0.2,0.4-0.3,0.7-0.1,0.9c0,0,0,0,0.1,0c0,0,0,0,0,0c-0.1-0.4,0.1-0.7,0.5-0.8c0.4-0.1,0.7,0.1,0.8,0.5c0.1,0.3-0.1,0.6-0.4,0.8
		l0,0c-0.5,0.2-1,0.2-1.3-0.2c-0.1-0.2-0.4-0.6,0.1-1.4c0.9-1.4,4.8-1.2,7.2-0.6l0.6,0.2l-0.6,0.2c0,0-3,1.1-3.4,3.5
		c-0.4,2.3,1.1,4,2.7,4.3c0.7,0.2,1.5,0,2-0.5c0.5-0.5,0.8-1.1,0.7-1.8c-0.1-0.7-0.6-1.3-1.2-1.5c-0.5-0.2-1.1,0.1-1.5,0.6l-0.4,0.6
		l0.1-0.7c0,0,0.1-1.2,1.2-2c0.8-0.6,2-0.8,3.5-0.5c0.9,0.2,2.8,0.7,2.8,0.7l0.2,0.1L152,74c0,0-0.3,1.1,0.5,2
		c0.7,0.9,1.9,0.3,2,0.3l0.1,0c-0.1,0-1.6,1.3-0.7,2.8c0.7,1,1.3,0.9,1.3,0.9l0.3,0l0-0.1l0,0l0,0l-0.2,0.3
		c-0.2,0.2-0.4,0.6-0.5,1.1c0.4-0.2,0.7-0.5,1.1-0.7c0.3-1.2,0.8-2.1,0.9-2.4c-0.8-0.4-1.7-1.3-1.4-2.7c0.2-0.9,0.8-1.4,1.3-1.8
		c-0.9-0.1-2.7-0.3-4-0.7l-0.1,0c-1.8-0.5-5-1.4-7.2-0.5c-2.1,0.8-2.3,2.1-2.3,2.8c0.1,1,0.8,1.9,1.7,2.1c0.3,0.1,0.6,0,0.9-0.1
		c-0.1,0-0.3-0.1-0.4-0.2c-0.3-0.3-0.2-0.8,0.2-1.1c0.4-0.3,0.9-0.3,1.1,0c0.2,0.2,0.1,0.5,0,0.8l0.1,0c0,0.1-0.1,0.1-0.2,0.2
		c0,0.1,0,0.1-0.1,0.2c0,0-0.1,0-0.1,0c-0.5,0.4-1,0.7-1.6,0.6c-1-0.2-1.9-1.3-2-2.5c-0.1-1.3,0.8-2.5,2.5-3.2
		c2.3-0.9,5.7,0,7.4,0.5l0.1,0c1.8,0.5,4.5,0.7,4.5,0.8l0.7,0.1l-0.7,0.3c0,0-1.4,0.7-1.6,1.8c-0.2,1.3,0.6,2.1,1.3,2.4l0.2,0.1
		l-0.1,0.2c0,0-0.4,0.8-0.8,2c1.5-1.1,2.9-2.3,4.2-3.6c0.1,0,0.2,0,0.3,0c1.8-1.4,4-2.2,6.6-2.9c0.4-0.5,0.7-1.1,0.8-1.7
		c-2.2,0.5-4.4,0.6-6.4,0.6c-0.5,0-0.9,0.1-1.4,0c-2.9-0.1-6-1-8.9-2c-5.7-2.4-10.6-4.5-15.1-4.2c-4.4,0.2-7.3,2.1-8.3,2.5
		c-1.8,1.2-3.5,1-4.2,0c-1.6-2.1,2-4.6,3.5-5.2c2.4-1,5.2-1.4,7.8-1.3c5.2,0.1,11.9,3.5,17.1,6.3c2.5,1.2,5,1.3,7.5,1.6
		c-0.7-0.1-1.5-0.4-2.3-0.6c-3-0.9-5.6-2.3-8.3-3.8l-1.5-0.8c-4.9-2.7-12.2-6.1-19.1-4.4c-2.3,0.6-4.4,1.6-6.2,3
		c-0.3,0.3-0.6,0.5-0.9,0.8c-0.2,0.2-0.5,0.4-0.7,0.7c-1.1,1.4-2,3-2.6,4.9c-0.6,2-0.8,4.1-0.7,6.2c0.7,0.3,1.4,0.5,2.1,0.6
		c-0.7-1.1-1.1-2.8-0.6-5.2c0.4-2.2,1.3-4.2,2.8-5.8c1-1.1,2.2-2,3.5-2.6c1.1-0.5,2.6-1.1,3.8-1.4c-2,1-4.1,1.8-5.6,3.7
		c-0.8,0.9-1.2,2-1,3.1c0.2,0.9,0.7,1.7,1.6,2.1c1.8,1,3.9-0.3,5.6-1.3c0.6-0.4,1.2-0.7,1.7-0.9c3.1-1.3,8.1-2.2,18.8,2.5l3.5,1.4
		c0,0-3.6-1.1-3.6-1.1c-0.2-0.1-6.5-2.5-12.2-2c-5.1,0.5-9.7,3.7-10.3,7.1c-0.2,1.1,0.1,2.8,0.9,3.8c0.4,0.5,0.9,0.8,1.5,0.8
		c0.5,0,0.9-0.1,1.2-0.3c-0.3,0-0.5-0.2-0.6-0.5c-0.1-0.4,0.1-0.8,0.5-0.9c0.2-0.1,0.4,0,0.6,0.1c0.3,0.1,0.4,0.4,0.4,0.7
		c-0.1,0.7-0.9,1.4-2.1,1.3c-0.7,0-1.3-0.4-1.8-1c-1-1.2-1.2-3-1-4.2c0.6-3.6,5.3-7,10.6-7.4c2.8-0.3,5.7,0.2,8,0.7
		c-7.7-2.7-11.7-1.9-14.3-0.8c-0.5,0.2-1,0.5-1.6,0.9c-1.8,1.1-5.1,2-6,1.3c-0.8-0.7-1.6-1.4-1.7-2.4c-0.2-1.2,0.2-2.4,1.1-3.4
		c0.2-0.3,0.5-0.5,0.7-0.7c-1.7,1.2-3.8,3.4-4.5,7.2c-0.4,2.5,0,4.2,0.8,5.2c0.5,0,1,0,1.4-0.1c0,0,0-0.1-0.1-0.1
		c-0.1-0.4,0.1-0.8,0.5-0.9c0.1,0,0.1,0,0.2,0v0c0.5,0,0.9,0.2,1.1,0.6c0.2,0.4,0.1,0.9-0.1,1.3c4.5,4.4,10.2,7.2,16.5,7.6
		c0.1-0.5,0.1-0.9,0-1.4c-0.1-1.3-0.7-2.6-1.8-3.2c-0.1-0.1-0.3-0.1-0.4-0.1c0,0,0,0.1,0,0.1c0.2,0.6-0.2,1.3-0.8,1.5
		c-0.6,0.2-1.3-0.2-1.5-0.8c-0.5-1.6,1.4-2.3,2.8-1.5c1.3,0.8,2,2.3,2.1,3.8c0,0.6,0,1.1-0.1,1.7c0.4,0,0.8,0,1.3,0
		c4.5,0,8.8-1.2,12.6-3.5C154.3,81.2,154.5,80.6,154.7,80.3z M155.3,78.2c0.1,0.4-0.1,0.7-0.5,0.8c-0.4,0.1-0.7-0.1-0.8-0.5
		c-0.1-0.4,0.1-0.7,0.5-0.8C154.8,77.6,155.2,77.8,155.3,78.2z M153.2,74.2c0.4-0.1,0.9,0.1,1,0.6c0.1,0.4-0.1,0.9-0.6,1
		c-0.4,0.1-0.9-0.1-1-0.6C152.6,74.8,152.8,74.3,153.2,74.2z M160.9,74.4c0.3-0.1,0.5,0.1,0.6,0.3c0.1,0.3-0.1,0.5-0.3,0.6
		c-0.3,0.1-0.5-0.1-0.6-0.3C160.5,74.7,160.7,74.4,160.9,74.4z M159.3,74c0.3-0.1,0.6,0.1,0.7,0.4c0.1,0.3-0.1,0.6-0.4,0.7
		c-0.3,0.1-0.6-0.1-0.7-0.4C158.8,74.4,159,74.1,159.3,74z M158.7,75.8c0.2,0.6-0.2,1.3-0.8,1.5c-0.6,0.2-1.3-0.2-1.5-0.8
		c-0.2-0.6,0.2-1.3,0.8-1.5C157.9,74.8,158.5,75.1,158.7,75.8z M145.9,81.5c-0.2,0.1-0.4-0.1-0.5-0.3c-0.1-0.2,0.1-0.4,0.3-0.5
		c0.2-0.1,0.4,0.1,0.5,0.3C146.2,81.2,146.1,81.4,145.9,81.5z M149.5,83.3c-0.3,0.1-0.5-0.1-0.6-0.3c-0.1-0.3,0.1-0.5,0.3-0.6
		c0.3-0.1,0.5,0.1,0.6,0.3C149.9,83,149.7,83.2,149.5,83.3z M150.1,81.1c-0.3,0.1-0.7-0.1-0.8-0.5c-0.1-0.4,0.1-0.7,0.5-0.8
		c0.4-0.1,0.7,0.1,0.8,0.5C150.7,80.7,150.5,81,150.1,81.1z"/>
	<path fill="none" d="M41.6,55.3c2.6,4.6,7.1,7.7,12.7,8.7c3.5,0.6,6.6,0.4,9.4-0.3c-3.4,0.6-7.1,0.4-10.3-0.5
		c-2.9-0.9-5.2-2.4-7.9-5c-2.5-2.5-4.6-7.5-4.4-11c0.1-1.6,0.5-2.7,1.4-3.5c0.7-0.6,1.4-0.5,1.9-0.2c0.6,0.4,0.7,1,0.7,1.6
		c-0.1,1.2-1.7,1.7-2.1,0.5c-0.1-0.4,0.1-0.9,0.5-1c0.4-0.1,0.9,0.1,1,0.5c0,0.1,0,0.1,0,0.2c0.1-0.1,0.1-0.2,0.2-0.4
		c0.1-0.5-0.1-0.9-0.5-1.2c-0.4-0.3-1-0.2-1.4,0.2c-0.8,0.6-1.2,1.7-1.2,3.2c-0.1,3.4,1.8,8.3,4.3,10.7c2.7,2.6,4.9,4,7.8,4.9
		c4.6,1.4,10.6,1.1,14.7-0.8l0,0c0.6-0.3,1.1-0.6,1.7-0.9c0.3-0.2,0.6-0.4,0.9-0.6c-3.7,1.8-8.3,2.8-12.4,2c-3.6-0.7-6.4-2.9-8-6.3
		c-0.6-1.2-0.6-2.6,0-3.6c0.4-0.7,0.9-1.1,1.6-1.2c0.7-0.1,1.2,0.1,1.4,0.6c0.2,0.5,0.1,1.1-0.3,1.5l0,0c-0.1,0.1-0.2,0.2-0.4,0.2
		c-0.4,0.1-0.9-0.1-1-0.5c-0.1-0.4,0.1-0.9,0.5-1c0.3-0.1,0.7,0,0.8,0.3c0-0.1,0-0.2-0.1-0.3c-0.2-0.3-0.5-0.5-1-0.4
		c-0.5,0.1-1,0.4-1.3,1c-0.5,0.9-0.5,2.1,0,3.3c1.5,3.3,4.1,5.3,7.7,6.1c5,1,10.8-0.8,14.7-3.3c2-1.6,3.8-3.2,5.3-4.7l0.6-0.6
		c2.9-2.8,8.4-7.5,15.5-10.8l-2.8,0l-2.2,1.2c-0.6,0.3-1.2,0.7-1.9,1l0,0l-1.4,0.8c-1.1,0.6-2.3,1.3-3.3,1.8c-0.5,0.3-1,0.6-1.5,0.9
		c-3.2,2-6.1,2.3-9,2.5l-0.6,0c-2,0.1-4.2,0.2-4.5,2.3c-0.1,0.8,0.1,1.5,0.6,1.9c0.5,0.4,1.2,0.6,1.9,0.4c0.9-0.3,1.2-0.9,1.3-1.4
		c-0.1,0.1-0.2,0.1-0.3,0.1c-0.4,0.1-0.9-0.1-1-0.5c-0.1-0.4,0.1-0.9,0.5-1c0.4-0.1,0.8,0.1,0.9,0.4l0.1,0.1
		c0.3,0.9,0.1,2.2-1.5,2.7c-0.8,0.2-1.7,0.1-2.3-0.4c-0.6-0.5-0.9-1.3-0.7-2.3c0.3-2.5,2.8-2.6,4.8-2.7l0.6,0
		c2.5-0.1,4.9-0.4,7.5-1.8C79.1,49,78,49.2,76.9,49c-1.6-0.2-2.2-1-2.5-1.6c-0.4-0.9-0.3-1.9,0.1-2.4c0.4-0.6,1.3-0.8,1.9-0.7
		c0.4,0.1,0.7,0.2,0.9,0.4c0.2,0.1,0.4,0.3,0.4,0.5c0.1,0.4-0.1,0.9-0.5,1c-0.4,0.1-0.9-0.1-1-0.5c-0.1-0.3,0-0.7,0.3-0.9
		c-0.1,0-0.1,0-0.2,0c-0.5-0.1-1.2,0-1.5,0.5c-0.2,0.3-0.4,1.2,0,2c0.4,0.8,1.1,1.3,2.2,1.4c2,0.3,4.1-0.5,6.3-1.6
		c2.1-1.2,4.2-2.4,6.3-3.5l1.5-0.8l-5.1,0c-0.1,0.1-0.3,0.2-0.5,0.2c-0.5,0.1-1,0-1.4-0.2l-44,0C39,46.8,39.5,51.4,41.6,55.3z
		 M50.1,57.7c0.1,0.5-0.1,1-0.6,1.2c-0.5,0.1-1-0.1-1.2-0.6c-0.1-0.5,0.1-1,0.6-1.2C49.5,56.9,50,57.2,50.1,57.7z M46,51.2L46,51.2
		c0,0.2-0.2,0.5-0.4,0.5c-0.3,0.1-0.6-0.1-0.7-0.4c-0.1-0.3,0.1-0.6,0.4-0.7c0.1,0,0.2,0,0.3,0c-0.1-0.1-0.2-0.2-0.3-0.3
		c-0.2-0.2-0.5-0.2-0.7-0.1c-0.4,0.2-0.4,1-0.1,2c0.7,2.7,2.5,4.4,3.1,5c0.3-0.7,1.1-1,1.5-1.1c-0.4-0.9-0.4-2.1-0.3-2.8
		c0.1-1.2,0.7-2.1,1.4-2.7c0.7-0.5,1.5-0.7,2.3-0.6c1,0.2,1.9,0.8,2.3,1.7c0.3,0.8,0.2,1.6-0.3,2.3c-0.5,0.6-1.2,1-1.9,1.1
		c-0.2,0-0.3,0-0.5,0c0.4,1,1.8,3.5,4.9,4.9c2.5,1.1,4.1,0.8,4.9,0.2c0.4-0.3,0.5-0.7,0.4-1.1c-0.1-0.3-0.3-0.5-0.5-0.6
		c-0.2,0-0.4,0-0.6,0.2c0,0,0,0-0.1,0.1c0,0,0.1-0.1,0.2-0.1c0.3-0.1,0.6,0.1,0.7,0.4c0.1,0.3-0.1,0.6-0.4,0.7c-0.1,0-0.2,0-0.3,0
		l0,0c-0.2-0.1-0.5-0.4-0.6-0.7c0-0.2,0-0.4,0.2-0.7c0.3-0.3,0.6-0.5,1-0.4c0.4,0.1,0.7,0.4,0.8,0.9c0.2,0.5,0,1.1-0.5,1.5
		c-0.8,0.7-2.7,1.1-5.3-0.1c-4.1-1.8-5.3-5.5-5.3-5.7l-0.2-0.7l0.5,0.5c0.2,0.2,0.5,0.2,0.7,0.2c0.6,0,1.2-0.4,1.6-0.9
		c0.4-0.6,0.5-1.2,0.3-1.9c-0.3-0.8-1.1-1.4-1.9-1.5c-0.7-0.1-1.5,0.1-2,0.5c-0.7,0.5-1.2,1.4-1.3,2.4c-0.1,0.8,0,2,0.4,2.8l0.1,0.2
		l-0.3,0.1c0,0-1.3,0.3-1.5,1.2l-0.1,0.3l-0.2-0.2c-0.1-0.1-2.6-1.9-3.4-5.3c-0.4-1.6,0-2.2,0.3-2.4c0.3-0.2,0.8-0.2,1.1,0.1
		C45.9,50.3,46.1,50.8,46,51.2z"/>
	<path fill="none" d="M237.5,58.7c0.1,0-0.3,0.4-0.1,0.5c0,0,0.1,0,0.1,0c0.1-0.4,0.3-0.7,0.5-1.1l0,0c0,0,0,0,0-0.1
		c0.7-1.5,1.6-3,2.1-3.6c1.7-2.2,3.2-3.5,3.2-3.5l0.1-0.1l0.1,0.1c0.1,0,0.9,0.5,1.6-0.3c0.6-0.6,0.1-1.2,0.1-1.3l-0.1-0.1l0.1-0.1
		c1.6-0.9,3-1.5,4.3-1.7v-0.9c-1.4,0.4-2.9,1.1-4.8,2.4C239.8,52.3,238,57.4,237.5,58.7z M244.8,50.1c-0.1,0.4-0.5,0.5-0.9,0.4
		c-0.1,0-0.2-0.1-0.2-0.1c0.3-0.3,0.6-0.6,1-0.8C244.9,49.8,244.9,49.9,244.8,50.1z"/>
	<path fill="none" d="M218.5,70.7l2.7,0C220.3,70.6,219.4,70.6,218.5,70.7z"/>
	<path fill="none" d="M152.8,55.6l0.3,0.4c1.4,1.5,4.2,4.7,8.2,7.1c4.9,3,10,4,14.9,2.8c0.9-0.2,3.3-0.9,5.6-2.3
		c-1,0.6-2.1,1-3.3,1.4c-5,1.5-11.1,1.1-14.9-1.7c-3.7-2.6-5.2-5.6-5.5-6.1c-1-1.9-0.6-4,0.6-4.3c1.2-0.3,2.5,0.7,3.3,2.2
		c0.2,0.3,1.2,2.8,3.8,5.1c2.5,2.4,7.4,3.4,12.2,2.5c2-0.3,3.8-1.1,5.3-2.1c-2.4,1.3-4.7,1.8-4.9,1.7c-0.9,0.1-1.7-0.4-1.8-1.2
		c-0.1-0.7,0.6-1.4,1.5-1.5c0.2,0,2.2-0.1,4.6-1c-1.3,0.5-2.5,0.6-3.6,0.3c-2.2-0.5-3.6-2.4-4-5.2c-0.3-1.7,0.4-3.4,1.8-4.4
		c1.3-0.9,2.8-1.1,4.3-0.4c1.1,0.5,1.7,1.5,1.8,2.5c0.1,0.7,0,1.7-0.5,2.4c-1,1.2-3.2,1.3-3.7,0.2c-0.5-1,0.6-1.1,1.3-0.8
		c0.5,0.2,1.5,0.3,2.1-0.4c0.4-0.5,0.6-1.5,0.1-2.4h0c-0.3-0.4-0.6-0.8-1.2-1.1c-1.3-0.6-2.7-0.5-3.9,0.3c-1.2,0.9-1.8,2.4-1.6,4
		c0.4,2.7,1.7,4.4,3.7,4.9c3,0.7,6.8-1.5,9.6-5.5c0.3-0.4,0.5-0.7,0.7-1.1c-0.3,0.4-0.6,0.7-0.9,1.1c-0.5,0.4-2.3,1.2-2.6,0.1
		c-0.3-1.1,1-1.5,1.6-2c1-0.8,1.9-1.7,2.7-2.6c0.6-0.7,1.2-1.4,1.7-2.1c0.9-1.3,1.8-2.5,2.9-3.6c0.1-0.1,0.1-0.1,0.2-0.2l-7.4,0
		c-0.2,1.2-1,2.1-2.3,2.4c-1.1,0.2-2-0.1-2.5-0.9c-0.3-0.5-0.4-1.1-0.3-1.6l-5.6,0c0.1,0.1,0.2,0.3,0.2,0.4c0.1,0.3,0,0.5-0.2,0.7
		c-0.1,0.1-0.1,0.1-0.2,0.2c-0.2,0.1-0.5-0.1-0.5-0.3c-0.1-0.2,0.1-0.5,0.3-0.5c0.1,0,0.1,0,0.2,0c-0.1-0.2-0.2-0.3-0.4-0.4l-0.8,0
		c-0.5,0.2-1.1,0.8-1.8,2.5c-1.1,2.6-0.3,5.8,0.3,7.4c0.1-2,1.4-4.1,3.7-4.8c1.5-0.4,2.9-0.2,4.1,0.6c2,1.3,2.2,4,1.6,5.4
		c-0.6,1.3-1.9,1.9-2.9,2.1c-0.7,0.1-1.8-0.2-2.4-0.8c-0.4-0.4-0.6-0.9-0.5-1.4c0-0.4,0.2-0.8,0.5-1c0.5-0.3,1.2-0.3,1.5-0.2
		c0.1-0.1,0-0.3,0-0.6c-0.2-0.5-0.6-1-1.4-1.2c-0.6-0.1-1.2,0.3-1.4,0.7c0,0,0,0,0,0c0.2,0,0.4,0.1,0.5,0.3c0.1,0.2-0.1,0.5-0.3,0.5
		c-0.1,0-0.3,0-0.4-0.1l0,0c0,0,0,0-0.1-0.1c0,0,0,0,0,0c-0.2-0.2-0.2-0.5-0.1-0.9c0.3-0.6,1-1.1,1.8-0.9c0.9,0.2,1.5,0.9,1.7,1.5
		c0.2,0.4,0.1,0.8-0.1,1.1l-0.1,0.1l-0.1,0c0,0-0.8-0.2-1.3,0.1c-0.2,0.1-0.3,0.4-0.3,0.7c0,0.4,0.1,0.8,0.4,1.1
		c0.6,0.5,1.5,0.8,2.1,0.7c0.9-0.1,2.1-0.7,2.6-1.8c0.5-1.1,0.4-3.7-1.5-4.9c-1.1-0.7-2.4-0.9-3.7-0.5c-2.6,0.7-4.2,3.9-3,7.3
		l-0.7-1.3c-0.1-0.2-2.4-5.2-0.8-9.1c0.5-1.2,1-1.9,1.4-2.3l-1.4,0c-0.3,0.6-0.6,1.1-0.7,1.7c-1.9,6,1.9,11.4,2.2,11.8l0.3,0.3
		l-0.4,0.1c0,0-0.7,0.1-0.9,0.5c-0.2,0.3-0.1,0.7,0.2,1.3l0.1,0.2l-0.2,0.1c-1.2,0.5-1.5,1.4-1.3,2.1c0.2,0.7,0.8,1.2,0.8,1.2
		l0.4,0.4l-0.6,0c-5.6,0-9-4.5-11.4-8.5c-0.8-1.3-1.8-2.1-2.8-2.2c-0.8-0.1-1.5,0.2-2.3,0.9c-1.6,1.6-0.2,5.5,0.7,6.9l0,0
		c-4.5-4.9-12.5-15-12.2-25.5c0.1-2,0.4-3.7,0.8-5.2c-1-0.2-2-0.3-3-0.4C140.4,39.8,147.8,50.1,152.8,55.6z M174.7,57.2
		c0.3-0.1,0.6,0.1,0.7,0.4c0.1,0.3-0.1,0.6-0.4,0.7c-0.3,0.1-0.6-0.1-0.7-0.4C174.2,57.6,174.4,57.3,174.7,57.2z M173.4,60.6
		c-0.1-0.5,0.1-1,0.6-1.1c0.5-0.1,1,0.1,1.1,0.6c0.1,0.5-0.1,1-0.6,1.1C174,61.4,173.6,61.1,173.4,60.6z"/>
	<path fill="none" d="M123.1,76.4c0,0.2-0.1,0.4-0.3,0.6c0.1,0.1,0.2,0.2,0.3,0.3C123.2,76.9,123.2,76.6,123.1,76.4z"/>
	<path fill="none" d="M245.2,50.7c-0.8,0.8-1.6,0.5-1.9,0.4c-0.3,0.3-1.6,1.5-3.1,3.4c-0.4,0.5-1,1.4-1.6,2.5
		c0.2-0.1,0.4-0.2,0.6-0.2c0.1-0.2,0.3-0.4,0.7-0.4c0.2,0,0.3,0.1,0.5,0.2c0-0.7,0.2-1.8,0.9-2.2c0.4-0.2,0.7-0.2,1,0
		c0.3,0.2,0.4,0.5,0.4,0.8c0,0.3-0.3,0.6-0.5,0.6c-0.1,0-0.2,0-0.2,0.1c-0.1,0-0.1,0-0.2,0c-0.2-0.1-0.3-0.3-0.2-0.4
		c0.1-0.2,0.3-0.3,0.4-0.2c0.1,0,0.2,0.2,0.2,0.3c0.1-0.1,0.2-0.2,0.2-0.4c0-0.2-0.1-0.4-0.3-0.5c-0.2-0.1-0.5-0.1-0.8,0.1
		c-0.9,0.5-0.8,2.4-0.8,2.4l0,0.1c0,0-0.3-0.5-0.7-0.5c-0.4,0-0.5,0.4-0.5,0.4l0,0.1l-0.1-0.1c-0.3-0.1-0.7,0.1-1.1,0.8
		c-0.3,0.5-0.5,1-0.6,1.5c0.1-0.1,0.2-0.4,0.6-0.6c0.4-0.3,1-0.2,1.3,0c0.2-0.4,0.3-0.7,0.5-0.9c0.4-0.7,1.1-1,1.8-1
		c0.5,0,0.9,0.3,1.1,0.8c0.2,0.4,0.1,0.8-0.2,1.2c0.1,0,0.2,0,0.3,0c0.2,0,0.4,0.1,0.5,0.3c0.2-0.2,0.9-0.8,1.8-1.4
		c0.8-0.6,1.6-1.5,1.6-2.2c0-0.2-0.1-0.3-0.2-0.5c-0.2-0.2-0.5-0.2-0.7-0.2c0,0-0.1,0-0.1,0.1c0,0,0,0,0.1,0
		c0.2,0.1,0.3,0.3,0.3,0.6c-0.1,0.2-0.3,0.3-0.6,0.3c-0.2-0.1-0.3-0.3-0.3-0.4l0,0c0.1-0.3,0.3-0.6,0.6-0.7c0.3-0.1,0.7,0,0.9,0.2
		c0.2,0.2,0.3,0.4,0.3,0.7c0,0.9-1.3,2-1.7,2.3c-1.1,0.9-1.9,1.5-1.9,1.5l-0.1,0.1l-0.1-0.1c-0.1-0.2-0.3-0.3-0.4-0.3
		c-0.3,0-0.8,0.3-0.8,0.3l0,0c0.5-0.6,0.7-1.1,0.5-1.6c-0.2-0.4-0.5-0.6-0.9-0.7c-0.6,0-1.1,0.3-1.5,0.9c-0.6,0.8-1.3,3.1-1.3,3.1
		l-0.1,0.1c0,0,0-0.4-0.5-0.8c-0.4-0.3-0.9,0-1,0l-0.1,0l-0.1-0.1c-0.1-0.2,0,1.7-0.1,2c0,0.1-0.1,0.2-0.1,0.2
		c-0.1,0.3-0.3,2.7-0.2,3.4c0.3,1.6,0.8,2.9,1.2,4.1c0.1,0.2,0.1,0.3,0.2,0.5l0.1,0c-0.1-0.2-0.1-0.3-0.2-0.5
		c-0.4-1.1-0.8-2.5-1.1-4c-0.1-0.8-0.2-1.6,0-2.4c0.1-0.8,0.6-1.9,1.4-1.7c0.1,0.1,0.3,0.2,0.3,0.3c0.6-2.1,1.4-3.7,1.6-3.8
		c0.5-0.6,1.1-0.9,1.5-0.6c0.3,0.3,0.3,1-0.1,1.5c-0.2,0.2-2.4,3.3-2.6,7.1c-0.1,1.5,0.1,3,0.4,4.2l0.2,0c-0.4-2-0.4-4,0.2-6
		c0.2-0.7,0.5-1.4,0.9-2l0,0c0.3-0.6,0.7-1.1,1.2-1.6c0.3-0.3,0.6-0.6,0.9-0.8c0,0,0.1-0.1,0.1-0.1c0.8-0.6,1.6-1.2,2.5-1.6
		c1-0.4,2.2-0.7,3.8-0.6V47.7c-1.2,0.1-2.5,0.7-4.1,1.6C245.5,49.5,245.8,50.1,245.2,50.7z M239.6,58c-0.1,0.3-0.4,0.4-0.7,0.3
		c-0.3-0.1-0.4-0.4-0.3-0.7c0.1-0.3,0.4-0.4,0.7-0.3C239.6,57.5,239.7,57.8,239.6,58z M239.9,57.4c-0.2-0.1-0.2-0.2-0.2-0.4
		c0.1-0.2,0.2-0.2,0.4-0.2c0.2,0.1,0.2,0.2,0.2,0.4C240.2,57.4,240.1,57.5,239.9,57.4z M243.3,53.2c-0.1,0-0.2-0.2-0.1-0.3
		c0-0.1,0.2-0.2,0.3-0.1c0.1,0,0.2,0.2,0.1,0.3C243.6,53.2,243.5,53.3,243.3,53.2z M243.8,57.3c-0.2-0.1-0.2-0.2-0.2-0.4
		c0.1-0.2,0.2-0.2,0.4-0.2c0.2,0.1,0.2,0.2,0.2,0.4C244.1,57.2,243.9,57.3,243.8,57.3z M244.1,55.7c-0.1,0-0.2-0.2-0.1-0.3
		c0-0.1,0.2-0.2,0.3-0.1c0.1,0,0.2,0.2,0.1,0.3C244.3,55.6,244.2,55.7,244.1,55.7z M238.2,61.3c-0.1,0.2-0.3,0.3-0.5,0.2
		c-0.2-0.1-0.3-0.3-0.2-0.5c0.1-0.2,0.3-0.3,0.5-0.2C238.2,60.8,238.3,61.1,238.2,61.3z M242.8,60c-0.1-0.1-0.2-0.2-0.2-0.3
		c0.1-0.1,0.2-0.2,0.4-0.2c0.1,0.1,0.2,0.2,0.2,0.3C243.1,60,242.9,60.1,242.8,60z"/>
	<path fill="none" d="M167.9,70.9c0,0,0-0.4,0-0.4c-0.7,0-1.4,0.2-2.3,0.2c-0.7,0-1.5,0.2-2.3,0.1c-0.2,0-0.4,0-0.6-0.1
		C164.7,71,166.4,71.2,167.9,70.9z"/>
	<path fill="none" d="M246.5,59c-1.2,0.3-2.2,0.7-3.1,1.3c-0.1,0.1-0.3,0.2-0.4,0.4c-0.2,0.2-0.4,0.3-0.5,0.5
		c-0.9,1-1.6,2.2-2.1,3.6c-0.6,1.9-0.6,4-0.2,5.9l1.1,0c-0.1-0.7-0.1-1.3-0.1-1.9c0.1-1.6,0.4-3.2,1.2-4.7c0.5-0.9,2.2-2.9,3.3-1.9
		c0.6,0.5,0.6,1.5-0.2,2.5c-0.3,0.6-1.6,2.2-1.9,4.9c-0.1,0.3-0.1,0.7-0.1,1l0.6,0c0-1.8,0.5-2.9,0.9-3.8c0.1-0.3,0.4-0.6,0.6-1
		c0.7-1,1.6-2.2,1.1-3.3c-0.2-0.5-0.7-0.9-1.2-1c-0.6-0.2-1.3,0-1.9,0.4c-1.2,0.8-1.8,2-2.5,3.2c0.2-0.7,0.7-1.6,1-2.2
		c0.4-0.8,1-1.4,1.7-2c1.1-0.8,2.3-1.3,3.7-1.4c0.9-0.1,1.6,0,2.1,0.2v-0.9C248.5,58.7,247.4,58.7,246.5,59z"/>
	<path fill="none" d="M187.1,61.6c1-2,1.8-4,2.5-5.8c-2.7,6.6-7.1,11.5-9.8,13.3c-0.9,0.6-1.8,1.1-2.7,1.6l0.8,0l0.3-0.2
		c-0.1,0.1-0.2,0.1-0.3,0.2l0.8,0c0.1-0.1,0.2-0.1,0.3-0.2l0,0c-0.1,0.1-0.1,0.1-0.2,0.2l1.5,0C182,69.1,185.1,65.8,187.1,61.6z"/>
	<path fill="none" d="M245.8,58.8c-0.2,0.1-0.4,0.2-0.6,0.3c0.4-0.1,0.7-0.3,1.1-0.4c1-0.2,2-0.3,3.1-0.2v-0.4
		C248,58.1,246.8,58.4,245.8,58.8z"/>
	<path fill="none" d="M165.3,75.6c0.6-0.4,1.1-0.8,1.6-1.3c-2.1,0.6-4,1.3-5.5,2.4C162.6,76.7,164,76.4,165.3,75.6z"/>
	<path fill="none" d="M120.7,64.8c0-0.1,0.1-0.1,0.2-0.2c0.5-0.5,1-1,1.5-1.4c0.8-0.7,1.8-1.3,2.8-1.7l0,0c1.1-0.5,2.2-0.9,3.4-1.2
		c4.6-1.1,9.5,0,13.6,1.7c-1.9-1-5.9-2.8-10.5-2.8c-6.3-0.3-11.7,2.9-12.1,3.3c-1,0.6-2.1,0.6-2.5,0c-0.4-0.6,0.1-1.7,1.2-2.4
		c0.3-0.2,2.9-1.5,6.5-2.1c-0.2-0.2-0.3-0.4-0.4-0.6c-0.2-1.4,1.6-2,2.9-2.1c1.4-0.1,2.7,0.1,4,0.4c2.5,0.6,4.7,1.6,6.5,2.3
		c3.6,1.6,5.6,3,5.7,3c0,0-1.9-1.5-5.5-3.2c-1.8-0.8-4-1.8-6.5-2.5c-1.3-0.3-5.2-0.3-5.7-0.2c0,0-0.3,0.1-0.4,0.1
		c-0.5,0.2-3.5-0.3-3.3-0.1l0.1,0.1l-0.1,0.1c0,0-0.5,0.9-0.1,1.6c0.5,0.9,1.2,0.9,1.2,0.9l-0.2,0.1c0,0-3.8,0.9-5.3,1.8
		c-1,0.6-1.6,1.5-1.6,2.4c0,0.7,0.3,1.2,1,1.6c0.7,0.4,1.6,0.1,2.6-0.6l0.1,0c0,0-0.6,0.7-0.6,1.3c0,0.3,0.2,0.5,0.5,0.8l0.2,0.1
		l-0.2,0.2c0,0-1.2,1.2-2.8,2.9c-0.5,0.6-2.2,2.3-3.7,2.5l0.3,0c0,1.4,0.8,3.2,2.6,4.6c0.1-2.7,0.8-4.9,1.6-6.5
		C118.5,67.2,119.5,65.9,120.7,64.8z M122.4,56.2c-0.1-0.4,0.1-0.8,0.5-0.9c0.4-0.1,0.8,0.1,0.9,0.5c0.1,0.4-0.1,0.7-0.5,0.9
		C122.9,56.8,122.5,56.6,122.4,56.2z M119.7,64.2c-0.1-0.2,0.1-0.5,0.3-0.6c0.2-0.1,0.5,0.1,0.6,0.3c0.1,0.2-0.1,0.5-0.3,0.6
		C120,64.6,119.8,64.5,119.7,64.2z"/>
	<path fill="none" d="M66.4,68.8c-0.2-0.5,0.1-1,0.1-1c-0.4,0.1-1.2-0.1-1.4-0.8c-0.4-1.1,0.6-1.7,0.6-1.7c-0.7-0.1-1-0.8-0.9-1.3
		c-0.5,0.1-1,0.2-1.4,0.3c0,0.5-0.2,1-0.7,1.1c-0.6,0.2-1.2-0.2-1.4-0.7c0,0,0,0,0,0c-2.1,0.3-4.4,0.3-6.9-0.2
		c-5.7-1-10.3-4.1-13-8.9c-2.2-4-2.7-8.6-1.6-12.8l-6.2,0v24c1,0.9,2,1.8,3,2.4c0.9,0.6,1.9,1,2.9,1.5l14.7,0c0-0.2,0.1-0.4,0.3-0.6
		c0.1-0.2,0.4-0.3,0.6-0.3c0.3,0,0.6,0.1,0.8,0.3c0.2,0.2,0.2,0.4,0.1,0.6l6.9,0c1-0.4,2-0.9,2.9-1.3c-0.2-0.3-0.2-0.6-0.2-0.9
		c-0.3,0-0.7,0-1.1-0.3c-0.6-0.5-0.7-1.2-0.8-1.5c-0.4-0.1-0.7-0.4-0.8-0.6c-0.2,0.1-0.6,0.2-0.9,0.1c-0.5-0.1-1.1-0.4-1.4-0.7
		c-0.8,0.2-2.4,0.8-2.3,1.6c0,0.5,0.3,0.8,0.6,0.9c0.2,0.1,0.4,0,0.6,0c-0.3,0-0.6-0.2-0.6-0.5c-0.1-0.3,0.1-0.7,0.4-0.8
		c0.2-0.1,0.4,0,0.6,0.1c0.1,0.1,0.2,0.2,0.3,0.3c0.1,0.3,0,0.7-0.2,0.9c-0.3,0.3-0.8,0.5-1.2,0.3c-0.5-0.2-0.8-0.6-0.9-1.3
		c-0.1-1.4,2.6-2.1,2.8-2.1l0.1,0l0.1,0.1c0.2,0.3,0.7,0.6,1.2,0.6c0.3,0.1,0.6,0,0.8-0.2l0.2-0.2l0.1,0.3c0,0,0.3,0.6,0.8,0.6
		l0.2,0l0,0.2c0,0,0,0.9,0.6,1.4c0.4,0.3,1,0.2,1,0.2l0.3-0.1L66,68.3c0,0-0.2,0.5,0.2,1l0.2,0.2l-0.2,0.1c-0.7,0.4-1.5,0.7-2.3,1.1
		l0.7,0c0.8-0.4,1.6-0.9,2.4-1.3C66.8,69.2,66.5,69.1,66.4,68.8z M64.3,65.7c-0.3,0.1-0.5-0.1-0.6-0.3c-0.1-0.3,0.1-0.5,0.3-0.6
		c0.3-0.1,0.5,0.1,0.6,0.3C64.7,65.3,64.6,65.6,64.3,65.7z"/>
	<path fill="none" d="M157.8,37.3c-0.1,0-0.2,0-0.3,0.1c0.5,0.7,2.1,2.8,5.6,2.3c1.8-0.3,2.6-0.9,2.9-1.4c-0.2-0.2-0.4-0.3-0.7-0.5
		c-0.1-0.1-0.2-0.1-0.3-0.2c-0.1,0.1-0.2,0.1-0.3,0.1c-0.2,0-0.4-0.1-0.5-0.3l-0.1,0c0-0.1,0-0.1,0-0.2c0-0.1-0.1-0.1-0.1-0.2
		c-1.2-0.5-2.5-0.6-3.5-0.4c-0.3-0.3-0.6-0.6-0.9-0.9C159.2,36.5,158.6,37.1,157.8,37.3z"/>
	<path fill="none" d="M157.6,36.3c-0.4,0.1-0.9,0.1-1.3-0.1c0,0.6,0.1,1.2,0.5,1.9c1.1,1.6,3,3,6,2.6c1.6-0.2,3-0.7,4.2-1.4
		c-0.2-0.2-0.4-0.5-0.7-0.7c-0.4,0.6-1.3,1.2-3.2,1.5c-4.4,0.6-6.1-2.7-6.2-2.7l-0.1-0.3l0.3,0c0.2,0,0.4,0,0.6-0.1
		c0.7-0.2,1.3-0.8,1.5-1.4c-0.2-0.2-0.3-0.3-0.5-0.5C158.6,35.6,158.2,36.1,157.6,36.3z"/>
	<path fill="none" d="M120.1,53.9l0.3-0.1c0.2-0.1,0.4-0.2,0.7-0.3c0,0,0,0,0,0c-3.2,0.5-6.8,1.4-10.2,3.1
		c-5.4,2.7-10.7,7.6-14.2,13c-0.2,0.3-0.4,0.6-0.6,1l2.1,0c0.9-1.6,2-3.3,3.5-5.1C109,56.6,120,53.9,120.1,53.9z"/>
	<path fill="none" d="M114.2,53.6c3.6-0.9,7-1.3,10.1-1.3c-5.7-0.2-12.1,0.6-18,3.1c-8.1,3.2-14.5,9.2-18.3,15.2l1,0
		c5.4-8.1,12.6-12,12.6-12.1l0,0c-5.4,4.3-8.6,8.7-10.4,12l1,0c0.9-1.7,2-3.3,3.2-4.8C100.6,59.7,106.8,55.5,114.2,53.6z"/>
	<path fill="none" d="M110.6,56.3c5.2-2.6,10.8-3.4,15-3.5c-3.4-0.1-7.3,0.1-11.4,1.2c-7.3,1.9-13.5,6-18.5,12.1
		c-1.2,1.4-2.2,2.9-3.1,4.6l2.8,0c0.2-0.4,0.5-0.8,0.7-1.2C99.8,63.9,105.2,59,110.6,56.3z"/>
	<path fill="none" d="M183.7,43.6c-0.1,0-0.1,0-0.2,0c0,0.1,0,0.2,0.1,0.3c0.1,0.3,0.7,0.9,1.7,0.7c1.1-0.2,1.7-0.9,2-2l-3,0
		C184.3,43.1,184,43.5,183.7,43.6z"/>
	<path fill="none" d="M140.5,35.7c0.4-0.1,0.7,0,0.9,0.1c-0.3-1.2-0.9-4.1-0.7-7.6c-1.4,0-2.8,0.2-4.2,0.5c0.8,2.4,1.9,4.9,3.3,7.5
		C139.9,36.1,140.1,35.8,140.5,35.7z M138.9,32.3c-0.3,0.1-0.5-0.1-0.6-0.3c-0.1-0.3,0.1-0.5,0.3-0.6c0.3-0.1,0.5,0.1,0.6,0.3
		C139.3,32,139.2,32.3,138.9,32.3z M139.1,30.1c-0.2,0.1-0.4-0.1-0.5-0.3c-0.1-0.2,0.1-0.4,0.3-0.5c0.2-0.1,0.4,0.1,0.5,0.3
		C139.4,29.8,139.3,30,139.1,30.1z"/>
	<path fill="none" d="M151.7,51.3c0.1-0.3,0.3-0.6,0.6-0.7c0.5-0.1,1,0.1,1.1,0.6c0,0.1,0,0.2,0,0.3c0.1-0.1,0.3-0.2,0.5-0.3
		c0.6-0.2,1.2,0,1.6,0.5c0-0.4,0.3-0.7,0.6-0.8c0.5-0.1,1,0.1,1.1,0.6c0,0.1,0,0.2,0,0.3c0.6-0.4,1.3-0.6,2-0.5
		c1.1,0.1,2.3,1,3.1,2.4c2.2,3.7,5.4,8,10.5,8.2c-0.2-0.3-0.5-0.6-0.6-1c-0.2-0.8,0-1.9,1.3-2.5c-0.3-0.6-0.3-1.1-0.1-1.4
		c0.2-0.4,0.6-0.6,0.9-0.7c-0.8-1.2-3.9-6.3-2.1-11.9c0.2-0.6,0.4-1.1,0.7-1.6l-4.7,0c0-0.9-0.3-2.1-1.1-3.2
		c-1.3,0.8-2.7,1.3-4.4,1.5c-2.7,0.3-5.5-0.9-6.9-3c-0.9-1.3-1.1-2.9-0.5-4.1c0.2-0.4,0.4-0.7,0.8-0.9c-0.2-0.1-0.4-0.3-0.6-0.4
		c-0.3,0.2-0.6,0.5-0.9,1c-0.2,0.3-1.6,2.9,1.7,6.2c2.4,2.4,2.5,4.4,2.4,5.2c-0.1,0.7-0.3,1.3-0.8,1.6c-0.5,0.3-1,0.5-1.3,0.3
		c-0.2-0.1-0.5-0.2-0.6-0.7c-0.1-0.4,0-0.7,0.2-1c0,0,0,0,0,0c0.1-0.1,0.2-0.2,0.3-0.3c0.1,0,0.2,0,0.2,0c0.1,0,0.1,0,0.2,0l0,0.1
		c0.1,0.1,0.2,0.2,0.2,0.3c0.1,0.3-0.1,0.5-0.3,0.6c-0.1,0-0.3,0-0.4-0.1c0,0.1-0.1,0.2-0.1,0.3c0.1,0.2,0.2,0.4,0.3,0.4
		c0.2,0.1,0.6,0,1-0.3c0.3-0.2,0.5-0.7,0.6-1.3c0.1-1.5-0.7-3.3-2.3-4.8c-3.5-3.4-1.9-6.3-1.7-6.7c0.2-0.4,0.5-0.8,0.9-1
		c-2.6-1.7-5.5-3-8.6-3.7c-0.5,1.5-0.8,3.2-0.8,5.2C145.8,40.3,148.5,46.4,151.7,51.3z M171.1,58.9c0.1,0.3-0.1,0.5-0.3,0.6
		c-0.3,0.1-0.5-0.1-0.6-0.3c-0.1-0.3,0.1-0.5,0.3-0.6C170.7,58.5,171,58.7,171.1,58.9z M170.3,52.2c0.2-0.1,0.4,0.1,0.5,0.3
		c0.1,0.2-0.1,0.4-0.3,0.5c-0.2,0.1-0.4-0.1-0.5-0.3C169.9,52.4,170.1,52.2,170.3,52.2z M162.1,51.9c0.6,0.7,1.2,1.5,1.7,2.4
		c0.9,1.4,1.8,2.7,2.6,2.8c0.7,0,1.2-0.5,1.4-1c0-0.2,0.1-0.4,0-0.5c-0.1,0.1-0.1,0.2-0.2,0.2c-0.3,0.1-0.5-0.1-0.6-0.3
		c-0.1-0.3,0.1-0.5,0.3-0.6c0.2,0,0.3,0,0.4,0.1l0-0.1c0.4,0.2,0.6,0.8,0.4,1.4c-0.2,0.7-0.9,1.4-1.8,1.3c-1-0.1-2-1.5-2.9-3
		c-0.5-0.8-1.1-1.7-1.7-2.3c-1.7-1.8-3.7-1.2-3.8-1.2l-0.2,0.1l-0.1-0.2c0,0-0.3-0.5-0.8-0.6c-0.9-0.2-1.5,0.4-1.5,0.4l-0.1,0.1
		l-0.1-0.1c-0.4-0.3-1.2-0.2-1.2-0.2l-0.1,0l-0.1-0.1c-0.1-0.1-0.3-0.5-0.5-0.6c-0.3-0.2-0.6-0.3-0.9-0.2c-0.4,0.1-0.5,0.6-0.5,0.6
		l-0.1,0.4l-0.2-0.4c-0.4-0.7-2.2-4.2-2.6-5.6c-0.3-0.9,0-1.8,0.6-2.4c0.4-0.4,0.9-0.5,1.5-0.3l0,0c0.2,0.1,0.3,0.2,0.4,0.4
		c0.1,0.3-0.1,0.7-0.4,0.8c-0.3,0.1-0.7-0.1-0.8-0.4c0-0.1,0-0.3,0-0.4c-0.2,0.1-0.3,0.1-0.4,0.2c-0.5,0.4-0.7,1.3-0.5,2
		c0.3,1.1,1.8,4.1,2.3,5.2c0.1-0.2,0.3-0.4,0.6-0.5c0.4-0.1,0.8-0.1,1.2,0.2c0.3,0.2,0.5,0.5,0.6,0.6c0.2,0,0.7,0,1.2,0.2
		c0.2-0.2,0.9-0.6,1.8-0.5c0.6,0.1,0.9,0.5,1,0.7C158.6,50.5,160.5,50.2,162.1,51.9z M154.6,47.4c0.6-0.2,1.2,0.2,1.4,0.7
		c0.2,0.6-0.2,1.2-0.8,1.4c-0.6,0.2-1.2-0.2-1.4-0.7C153.7,48.2,154.1,47.6,154.6,47.4z M148.5,30c0.6-0.1,1.2,0.3,1.4,0.9
		c0.1,0.4,0.1,0.7-0.1,1c0,0.2-0.1,0.3-0.3,0.4c0,0,0,0,0,0l0,0c0,0-0.1,0.1-0.1,0.1c-0.3,0.1-0.7-0.1-0.8-0.4
		c-0.1-0.3,0.1-0.7,0.4-0.8c0.2-0.1,0.4,0,0.5,0.1c0-0.1,0-0.2-0.1-0.3c-0.1-0.4-0.6-0.7-1-0.7c-0.7,0.1-1.2,1-1.4,2.4
		c-0.6,3.9,0.7,7.8,1.1,9c0.5-0.8,1.3-1.3,2.1-1.2c0.9,0.1,1.7,0.7,2,1.5c0.3,0.7,0,1.5-0.7,2.2c-0.5,0.5-1.1,0.2-1.5,0
		c0.2,1.1,1.2,2.9,1.5,3.5c0.2-0.1,0.4-0.2,0.5-0.2c0.2,0,0.4,0.1,0.5,0.3c0.1-0.4,0.3-0.8,0.7-1.1c0.4-0.4,1-0.5,1.6-0.4
		c2,0.3,2.2,1.8,2.2,2.4c0.3-0.1,0.6-0.1,0.9,0c0.4,0.2,0.7,0.5,0.8,0.8c1.4-1.1,1.1-2.5,0.9-3.8c-0.1-0.5-0.2-1-0.2-1.4
		c0-0.9,0.3-1.5,0.8-1.8c0.3-0.2,0.7-0.2,1.1,0.1l0,0c0.1,0.1,0.2,0.2,0.3,0.3c0.1,0.3-0.1,0.7-0.4,0.8c-0.3,0.1-0.7-0.1-0.8-0.4
		c-0.1-0.2,0-0.3,0.1-0.5c0,0,0,0,0,0c-0.3,0.2-0.6,0.8-0.6,1.5c0,0.4,0.1,0.9,0.2,1.4c0.3,1.5,0.6,3.1-1.2,4.4l-0.2,0.1l-0.1-0.2
		c0,0-0.2-0.6-0.7-0.8c-0.2-0.1-0.5-0.1-0.8,0.1l-0.3,0.2l0-0.4c0-0.1,0.2-2-1.9-2.3c-0.5-0.1-0.9,0-1.3,0.3
		c-0.4,0.4-0.7,0.9-0.7,1.2l0,0.7l-0.3-0.6c-0.1-0.1-0.2-0.4-0.5-0.4c-0.1,0-0.3,0.1-0.4,0.2l-0.2,0.2l-0.1-0.2
		c-0.1-0.1-1.8-3-1.7-4.3l0-0.4l0.3,0.3c0,0,0.8,0.7,1.4,0.3c0.6-0.5,0.8-1.1,0.6-1.7c-0.2-0.7-0.9-1.1-1.6-1.2
		c-0.5,0-1.3,0.1-2,1.3l-0.2,0.4l-0.2-0.4c0,0-2-4.9-1.3-9.6C147.1,30.5,148,30.1,148.5,30z"/>
	<path fill="none" d="M154.7,53.7c0.5-0.2,0.8-0.7,0.7-1.2c-0.2-0.5-0.7-0.8-1.2-0.7c-0.5,0.2-0.8,0.7-0.7,1.2
		C153.6,53.6,154.2,53.9,154.7,53.7z M154.3,52.2c0.3-0.1,0.6,0.1,0.7,0.4c0.1,0.3-0.1,0.6-0.4,0.7c-0.3,0.1-0.6-0.1-0.7-0.4
		C153.8,52.6,153.9,52.3,154.3,52.2z"/>
	<path fill="none" d="M98.7,60.9c-2.5,1.9-6.1,5.1-9.2,9.8l1.4,0C92.4,67.9,94.8,64.5,98.7,60.9z"/>
	<path fill="none" d="M73.9,64.6c-2.4,2.2-5.3,4.3-8.4,6l2,0C69.8,68.9,71.9,66.8,73.9,64.6z"/>
	<path fill="none" d="M81.3,70.6l0.5,0c0.9-1.3,1.9-2.5,3.1-3.8C83.7,68,82.5,69.3,81.3,70.6z"/>
	<path fill="none" d="M100.9,54.5c0.3-0.1,0.5-0.3,0.8-0.4c0.1,0,0.2-0.1,0.3-0.1c2.4-1.1,4.8-1.8,7-2.3c0.3-0.1,0.6-0.1,1-0.2
		c0.6-0.1,1.3-0.3,1.9-0.4c8-1.4,15.9-0.4,21.5,1.6c6.2,2.1,11,5.8,11,5.8c0,0,2.7,2.3,7.2,5.2c-1.3-1-2.7-2.1-4-3.3
		c-1.1-0.9-2.1-1.7-3.2-2.6c-0.6-0.5-1.3-1-2.1-1.5c-1.2-0.9-2.6-1.9-4-2.8c-1.8-1.1-3.6-2.1-5.6-2.8c-8.7-3.3-17.7-3.6-26.6-0.9
		c-8,2.4-15.7,7.2-22.4,13.9c-2.2,2.2-4.3,4.6-6.3,6.9l3.6,0C87.3,63.1,94,57.8,100.9,54.5z"/>
	<path fill="none" d="M105.8,49.5c8.8-2.6,17.6-2.4,26.2,0.7c-1.6-0.7-3.2-1.4-4.9-1.9c-5.9-1.9-12.4-2-17-1.3
		c-4.6,0.9-7.9,2.3-8.4,2.5c-2.2,0.8-4.3,0.7-4.9-0.4c-0.6-1.1,1-3,3.4-3.8c0.6-0.2,4.1-1.5,9.4-2c5.3-0.3,12.1,0.3,18.2,2.9
		c6.1,2.5,11.2,6.5,14.7,9.6c1,0.9,1.9,1.7,2.7,2.4c3.5,2.9,6.9,6.1,10.9,8.3c1.1,0.6,2.3,1.2,3.5,1.6c1.2,0.4,2.5,0.6,3.8,0.8
		c-6.7-2-12.8-6.7-17.8-11.6c-3-3-6.4-5.5-9.9-8.1c-6.5-4.2-13.5-7.4-20.5-8.2c-0.5,0-0.9-0.1-1.4-0.1c-0.3,0.6-0.4,1.2-0.4,1.8
		l-12.8,0c-1.8,0.6-3.6,1.4-5.3,2.4c-6.2,3.5-11.5,8.9-15.5,13.3L77.8,61c-2.9,3.3-6.1,6.9-9.6,9.7l6.1,0c0.9-1,1.9-2,2.8-3
		c2-2.2,3.9-4.3,5.9-6.2c4.9-4.8,12-8.8,14.4-10c-0.8-0.1-1.9-0.5-2.4-2c-0.3-1.1,0.1-2.1,0.8-2.9c-2.6,1.6-6.1,4.1-6.7,5.1
		c-0.3,0.5-0.3,0.9,0,1.2c0.3,0.3,0.7,0.4,1.1,0.2c0.3-0.1,0.4-0.3,0.4-0.6c0,0,0-0.1,0-0.1c-0.1,0.1-0.2,0.2-0.3,0.2
		c-0.3,0.1-0.6-0.1-0.7-0.4c-0.1-0.3,0.1-0.6,0.4-0.7c0.2,0,0.3,0,0.4,0l0,0c0.4,0.2,0.6,0.6,0.6,1c0,0.4-0.3,0.8-0.7,1
		c-0.5,0.2-1.2,0.1-1.6-0.3c-0.4-0.4-0.4-1-0.1-1.6c0.8-1.4,6.1-5,8.4-6.2l0.6-0.3c0,0-2.9,2.4-2.3,4.3c0.7,2.2,3.2,2,4,1.7
		l-0.9,0.4c-0.1,0-9.3,4.6-15.1,10.4c-1.9,1.9-3.8,4-5.8,6.2c-0.8,0.9-1.7,1.8-2.5,2.7l1.9,0c2.1-2.4,4.3-4.9,6.6-7.2
		C90,56.7,97.8,51.9,105.8,49.5z"/>
	<path fill="none" d="M231,65c0.1,0.3,0.3,0.5,0.5,0.8c-1.5-3.3-2.5-6.7-2.5-10.1c-0.1-4.4,1.1-8.3,3.5-11.9
		c0.3-0.4,0.5-0.7,0.8-1.1l-1.4,0c-0.7,1.2-1.4,2.5-2,3.9C227.4,52.9,227.7,59,231,65z"/>
	<path fill="none" d="M224.4,53.2c-0.2,4,1.5,8.3,3.2,11.9c0.9,2,2.2,3.9,3.7,5.6l0.2,0l0,0c-2.4-3.4-2.9-4.6-3-5
		c-0.2-0.6,0-1.2,0.6-1.4c0.5-0.2,0.9-0.1,1.4,0.2c-1.5-2.9-2.3-5.9-2.4-8.8c-0.1,0-0.5-0.1-0.6-0.3c-0.2-0.4,0.1-1,0.6-1
		c-0.4,0-0.8,0-1-0.6c-0.2-0.5,0.1-1,0.6-1.2c0,0,0,0,0,0c-0.1-0.4,0.2-0.8,0.7-0.8c0.3-1.7,0.7-3.4,1.4-5.2
		c0.6-1.4,1.2-2.7,1.9-3.8l-0.9,0c-2.4,4.2-2.8,8.5-2.8,8.5l0,0.1l-0.1,0c-0.6,0.2-0.6,0.9-0.6,0.9l0,0.1l-0.1,0c0,0-0.7,0.2-0.8,1
		c-0.1,0.7,0.6,1.1,0.6,1.2l0.1,0.1l0,0.1c-0.3,0.8,0.4,1.1,0.5,1.2l0.1,0l0,0.1c-0.1,3.3,1.9,7.5,1.9,7.5l0.2,0.3l-0.3-0.2
		c-0.3-0.2-0.6-0.2-0.8-0.1c-0.3,0.1-0.5,0.5-0.5,0.9l0,0.4l-0.2-0.3c0,0-0.6-1.1-1.6-3.9c-1.5-4.2-1.7-8.3-0.6-12.1
		c0.6-1.9,1.5-3.5,2.6-5.5l0.1-0.2c0-0.1,0.1-0.2,0.1-0.2l-0.6,0c-0.3,0.5-0.6,1.1-1,1.7C226.7,44.9,224.5,47.9,224.4,53.2z"/>
	<path fill="none" d="M129.6,44.3c-0.4-0.7-0.5-1.5-0.2-2.3c0.4-1,1.5-1.2,2.4-0.8c0.6,0.3,2.5,1.2,7.8,5.7c0.2,0.2,3.2,2.9,3.2,3
		c0.1-0.2-2.8-3-3-3.2c-2.6-2.7-5.5-5.1-8.8-6.9c-2.4-1.3-4.9-2.7-7.6-3.9c-0.2,0.2-0.4,0.4-0.6,0.6c0.3,0.1,0.7,0.3,1,0.4
		c4.5,2,6.1,3.1,6.2,3.1l0.5,0.3l-0.6,0c-0.7,0-1.2,0.3-1.5,0.8c-0.2,0.4-0.2,0.8,0,1.3l0.3,0.6l-0.5-0.3c-0.1,0-6.7-3.9-12.1-4.2
		l-0.1,0l0-0.1c-0.2,0.1-0.3,0.3-0.4,0.4c0,0.1,0,0.2,0,0.3C120.3,39.8,125,41.5,129.6,44.3z"/>
	<path fill="none" d="M215.2,45.7c0.9,3.9,2,7.2,2.8,9.2c-1-3.6-1.3-6.2-0.5-7.5c0.4-0.6,0.9-1,1.4-1c0.5,0,0.8,0.2,1,0.3
		c0-0.1,0.1-0.1,0.1-0.2c0.2-0.3,0.3-0.4,0.6-0.5c0.3-0.1,0.6,0,0.8,0.1c0.3-1.2,0.8-2.3,1.4-3.4l-7.9,0
		C214.9,43.5,215,44.5,215.2,45.7z"/>
	<path fill="none" d="M228.5,43.3c-1.1,1.9-2,3.5-2.6,5.4c-1.1,3.7-0.9,7.8,0.6,11.9c0.7,2,1.2,3.1,1.4,3.6c0.1-0.3,0.3-0.6,0.6-0.7
		c0.2-0.1,0.5-0.1,0.7-0.1c-0.4-1-1.9-4.4-1.8-7.3c-0.2-0.1-0.8-0.5-0.6-1.3c-0.2-0.1-0.7-0.6-0.6-1.3c0.1-0.8,0.6-1.1,0.9-1.2
		c0-0.3,0.1-0.8,0.7-1c0.1-0.6,0.5-4.5,2.7-8.4l-1.6,0c-0.1,0.1-0.2,0.3-0.2,0.4L228.5,43.3z"/>
	<path fill="none" d="M111.8,70.1c-0.3-0.5-0.4-1.1-0.2-1.6c0.2-0.5,0.7-0.8,1.2-0.9l0,0c0.3,0,0.6,0.2,0.7,0.5
		c0.1,0.4-0.1,0.8-0.5,0.9c-0.4,0.1-0.8-0.1-0.9-0.5c0,0,0-0.1,0-0.1c0,0.1-0.1,0.1-0.1,0.2c-0.2,0.4-0.1,0.8,0.2,1.2
		c0.2,0.3,0.4,0.4,0.7,0.4c1.1,0.1,2.6-1.2,3.8-2.4c1.2-1.3,2.2-2.3,2.6-2.7c-0.3-0.3-0.5-0.6-0.5-0.9c0-0.2,0-0.3,0.1-0.5
		c-0.7,0.4-1.4,0.5-2,0.1c-0.7-0.4-1.2-1.1-1.2-1.9c0-1.1,0.7-2.1,1.8-2.8c0.4-0.2,1-0.4,1.6-0.7c-0.4-0.5-0.4-1.5,0.1-2.1
		c0.5-0.6,0.9-0.9,1.1-1c-0.8,0.2-1.7,0.5-2.6,0.8c-1.2,0.5-1.7,1.1-1.5,1.7l0.1,0.2l-0.2,0c0,0-0.6,0.1-0.7,0.8
		c-0.1,0.6,0.6,1.2,0.7,1.2l-0.1,0c0,0-3.2-0.5-4.1,1c-0.3,0.5-0.4,0.9-0.2,1.3c0.2,0.4,0.6,0.5,0.9,0.6c0.3,0,0.5-0.2,0.6-0.3
		c-0.2,0-0.4-0.2-0.5-0.4c-0.1-0.3,0.1-0.6,0.4-0.7c0.3-0.1,0.6,0.1,0.7,0.4c0,0.1,0,0.2,0,0.3c0,0.1,0,0.3-0.1,0.4
		c-0.2,0.4-0.6,0.8-1.1,0.7c-0.5,0-1-0.3-1.2-0.8c-0.2-0.5-0.2-1.1,0.2-1.7c0.8-1.2,2.7-1.3,3.8-1.2c-0.1-0.2-0.2-0.4-0.2-0.8
		c0.1-0.7,0.5-1,0.8-1.1c-0.1-0.3,0.1-0.7,0.3-1c-1.8,0.8-3.5,1.7-4.3,2.2c-3.3,2.2-5.6,4.2-6,4.6c0.2,0.4,0.5,1.8-0.9,3
		c-1,0.8-2,0.4-2.4,0.1c-0.9,1.3-1.6,2.6-2.2,3.7l12.4,0C112.3,70.5,112,70.4,111.8,70.1z M117.2,56.9c0.5-0.1,0.9,0.1,1.1,0.6
		c0.1,0.5-0.1,0.9-0.6,1.1c-0.5,0.1-0.9-0.1-1.1-0.6C116.5,57.5,116.8,57.1,117.2,56.9z M115.7,59.2c-0.1-0.3,0.1-0.5,0.3-0.6
		c0.3-0.1,0.5,0.1,0.6,0.3c0.1,0.3-0.1,0.5-0.3,0.6C116,59.6,115.8,59.5,115.7,59.2z M115.3,65c0.3-0.1,0.6,0.1,0.6,0.4
		c0.1,0.3-0.1,0.6-0.4,0.6c-0.3,0.1-0.6-0.1-0.6-0.4C114.8,65.3,115,65,115.3,65z M112.7,65.3c0.2-0.1,0.4,0.1,0.5,0.3
		c0.1,0.2-0.1,0.4-0.3,0.5c-0.2,0.1-0.4-0.1-0.5-0.3C112.4,65.5,112.5,65.3,112.7,65.3z M109.1,64.5c-0.2,0.1-0.4-0.1-0.5-0.3
		c-0.1-0.2,0.1-0.4,0.3-0.5c0.2-0.1,0.4,0.1,0.5,0.3C109.4,64.2,109.3,64.4,109.1,64.5z"/>
	<path fill="none" d="M131.6,46.2c-0.4-0.4-0.7-0.7-1.2-1c-5-3.3-10.2-5.2-15.5-5.8c-0.3,0.4-0.5,0.7-0.7,1.1c0.4,0,0.8,0,1.2,0.1
		C120.9,41.2,126.4,43.3,131.6,46.2z"/>
	<path fill="none" d="M128.1,40.9c0.3-0.4,0.7-0.7,1.3-0.9c-0.8-0.4-2.5-1.4-5.7-2.8c-0.4-0.2-0.8-0.3-1.2-0.5
		c-0.1,0.1-0.1,0.1-0.2,0.2c-1.5-0.5-3.7-0.4-5.6,0.9c-0.2,0.1-0.4,0.3-0.5,0.4c4.7,0.3,10.1,3.1,11.7,4
		C127.8,41.7,127.9,41.3,128.1,40.9z"/>
	<path fill="none" d="M134.9,34.8c-0.2-0.3-0.4-0.7-0.6-1c-0.7-1.2-1.4-2.4-2-3.7c-0.5,0.2-1,0.4-1.5,0.7
		C132.2,32,133.6,33.4,134.9,34.8z"/>
	<path fill="none" d="M229.2,55.7c0.1,4.3,1.7,8.7,3.9,12.8c0.4,0.7,0.9,1.4,1.3,2.1l0.7,0c-1.3-2-2.7-4.4-3.5-7.1
		c-1.2-3.8-1.3-7.9-0.9-11.1c0.6-3.2,1.5-5.2,1.7-5.6c0.6-1.4,1.8-2.3,2.5-1.9c0.6,0.4,0.6,1.6,0,3c-0.1,0.3-1.2,2.2-1.9,5
		c-0.6,2.8-0.9,6.7-0.1,10.3c0.2,1,0.5,2.1,0.9,3c-1.4-5.4-1.2-10.7,0.9-15.8c1-2.7,2.6-5.3,4.5-7.7l-0.8,0
		c-1.3,1.8-2.2,3.2-2.2,3.2l-0.3,0.6c0.2-0.5,0.4-2-0.8-2.5c-1.1-0.5-2.7,1.2-2.7,1.2l0.2-0.3c0.3-0.5,0.9-1.3,1.6-2.2l-0.7,0
		c-0.3,0.4-0.6,0.8-0.9,1.2C230.2,47.5,229.1,51.4,229.2,55.7z"/>
	<path fill="none" d="M102.4,66.3l0.2,0.1c0,0,1.1,0.8,2.1,0c1.4-1.2,0.8-2.5,0.8-2.7l-0.1-0.1l0.1-0.1c0,0,2.4-2.3,6.2-4.8
		c1.1-0.7,3.8-2.1,6.3-3c0,0,0.1,0,0.1-0.1l0,0c0.7-0.2,1.3-0.4,1.9-0.6c0,0,0-0.1-0.1-0.2c-0.1-0.3-0.9,0.2-0.8,0.1
		c-2.2,0.6-10.7,2.9-17.1,10.7c-1.4,1.7-2.5,3.4-3.4,4.9l1.3,0c0.6-1.3,1.4-2.6,2.4-4.1L102.4,66.3z M104.6,64.2
		c0.1,0.1,0.1,0.2,0.2,0.4c0.2,0.6-0.2,1.2-0.8,1.4c-0.4,0.1-0.7,0.1-0.9-0.2C103.5,65.2,104.1,64.7,104.6,64.2z"/>
	<path fill="none" d="M141.1,45.1c3.9,4.5,7.7,9,11.4,12.8c3.8,3.8,8,6.5,12,8c3.4,1.2,6.3,1.5,8.7,1.5c2.5-0.3,5-1,7.3-2.3
		c0.5-0.3,0.9-0.6,1.3-0.9c-2.2,1.3-4.5,1.9-5.4,2.2c-5,1.2-10.2,0.2-15.2-2.9c-4-2.5-6.9-5.7-8.3-7.2l-0.3-0.4
		c-5.1-5.5-12.5-16-9.5-27.6c-0.5,0-1-0.1-1.6-0.1c-0.2,0-0.3,0-0.5,0c-0.2,4.3,0.7,8,0.8,8.4c0,0,0,0.1,0,0.1l0,0c0,0,0,0,0,0
		c-0.1-0.2-0.6-0.8-1.3-0.5c-0.5,0.2-0.6,0.7-0.6,0.7l-0.1,0.6l-0.3-0.5c-1.6-2.8-2.7-5.4-3.6-8c-0.2,0-0.3,0.1-0.5,0.1
		c0.4,1.2,0.8,2.3,1.3,3.5c4.3,10.1,11.3,18.8,11.1,18.9c0.1-0.1-6.1-6.1-11.6-14.3c-1.7-2.1-3.7-4.2-6-6.1
		c-0.7,0.3-1.3,0.7-1.9,1.1C133.1,36,136.9,40.4,141.1,45.1z M141.1,37.8c-0.3,0.1-0.6-0.1-0.7-0.4c-0.1-0.3,0.1-0.6,0.4-0.7
		c0.3-0.1,0.6,0.1,0.7,0.4C141.6,37.4,141.4,37.7,141.1,37.8z"/>
	<path fill="none" d="M225.7,68.2c1,0.8,2,1.7,2.9,2.5l1,0c-3.2-3.3-6-6.3-8.4-10.3c-2.8-4.8-3.7-10.8-3.4-11.4
		c0.1-1.2,0.9-1.9,1.6-1.8c0.7,0.2,1.2,1.1,1.1,2c-0.1,0.9-0.4,5.7,1.9,10.6c1.8,4.2,4.9,7.8,5.6,8.7c-3.6-4.7-6.5-10.1-6.6-15.2
		c-0.3-5.6,1.7-9.5,2.3-10.6l-0.6,0c-0.7,1.2-1.2,2.3-1.5,3.6l0,0.2l-0.1-0.1c0,0-0.4-0.2-0.7-0.1c-0.2,0-0.3,0.2-0.4,0.4
		c-0.1,0.2-0.2,0.3-0.2,0.3l-0.1,0.2l-0.1-0.1c0,0-0.4-0.4-1-0.4c-0.4,0-0.8,0.3-1.2,0.9c-1.1,1.6-0.1,5.5,1.1,9.5l0.7,2l-0.9-1.9
		c0,0-2.2-4.9-3.7-11.3c-0.3-1.2-0.3-2.2-0.2-3l-1.4,0c1.1,4.4,2.4,9.1,4.4,13.6C220,61.3,222.6,65.2,225.7,68.2z M220.5,46.9
		c0.1-0.3,0.4-0.4,0.6-0.3c0.3,0.1,0.4,0.4,0.3,0.6c-0.1,0.3-0.4,0.4-0.6,0.3C220.6,47.5,220.4,47.2,220.5,46.9z"/>
	<path fill="none" d="M127,32.9c-0.2,0.1-0.3,0.2-0.5,0.3c3.5,2.2,6.9,4.8,10,7.6C135.3,39.8,131.7,36.1,127,32.9z"/>
	<path fill="none" d="M193.3,47c-0.1,0.4-0.1,0.9-0.2,1.3c-0.1,0.5-0.1,1.1-0.1,1.6c0,0.7,0.1,1.5,0.3,2.2c0.1,0.3,0.2,0.5,0.2,0.8
		c0,0.2-0.1,0.5-0.3,0.6c-0.1,0.1-0.2,0.1-0.3,0.1c-0.5,0-0.7-0.6-0.8-1.1c-0.1-0.6-0.1-1.3-0.1-1.9c0-0.4,0.1-0.8,0.1-1.2
		c-0.3,1.4-0.6,3.1-0.6,4.8c-0.2,2.7,0.2,5.4,0.9,8c0.2,0.6,0.5,1.1,0.4,1.7c-0.1,0.5-0.4,0.9-0.8,1.1c-0.7,0.3-1.5-0.2-1.8-1.1
		c-0.1-0.2-0.4-1.8-0.5-3.8c-0.2,0.7-0.4,1.4-0.6,2.1c-0.8,3.1-2.3,6-3.8,8.2l2.3,0c-0.1-0.4-0.1-0.8,0.1-1.2
		c-0.9-0.4-0.3-1.3-0.3-1.3c0.3-0.6,1-2,1.1-2.2c0,0,0-0.1,0-0.1s0,0,0,0c0,0,0,0,0,0s0,0,0,0.1c0,0.5,0.1,3.2,0.5,4.7l0.6,0
		c-0.1-0.4-0.3-0.9-0.3-1.4c-0.7-3,0-5.9,0.1-6.4c0-0.2,0-0.3,0-0.3c0,0-0.2,2.6,0.8,4.9c0.2,0.5,0.5,1,0.8,1.5
		c0.5,0.6,1.1,1.2,1.8,1.5c0.1,0,0.2,0.1,0.3,0.1l1.1,0c-0.3-0.3-0.8-0.5-1.4-0.7c-0.9-0.3-1.7-1.3-1.8-2.2
		c-0.1-0.6,0.2-1.2,0.8-1.5c0.4-0.3,0.9-0.3,1.4,0c0.4,0.3,0.8,0.7,0.8,1.2c0,0.3-0.1,0.5-0.4,0.6l0,0c0,0-0.1,0-0.1,0.1
		c-0.3,0.1-0.5-0.1-0.6-0.3c-0.1-0.3,0.1-0.5,0.3-0.6c0.1,0,0.2,0,0.3,0c-0.1-0.2-0.3-0.4-0.5-0.6c-0.2-0.1-0.6-0.2-1,0
		c-0.5,0.3-0.7,0.7-0.6,1.2c0.1,0.8,0.8,1.6,1.6,1.9c0.7,0.3,1.4,0.6,1.9,1.1l22,0c2.1-0.5,4.1-0.3,5.7,0l2.1,0c0,0,0,0,0,0
		c0.1-0.2,0.2-0.3,0.4-0.4c-3.3-2.2-6-3.3-9.6-3.7c-1.2-0.2-2.5,0-3.7,0.1c-1.5,0.2-3,0.3-4-0.2c-0.9-0.4-1.5-1.6-1.4-2.6
		c0.1-0.7,0.6-1.8,2.9-2.2c2.3-0.4,4.8,0,6.8,0.6c0,0,0-0.1,0-0.1c0.1-0.4,0.5-0.7,0.9-0.7c0.2,0,0.4,0.2,0.5,0.3c0,0,0,0,0,0
		c0.2-0.5,0.7-0.7,1.2-0.6c0.1,0,0.1,0,0.2,0.1c-0.1-0.2-0.3-0.4-0.4-0.7l-0.1-0.2c-2-3.3-3.6-6.9-4.8-10.8c-0.3-1-0.6-2-0.8-2.9
		c-0.3-1.3-0.7-2.6-1.1-3.9l-4.1,0c0.2,0.3,0.4,0.6,0.6,0.9c1.7,2.7,1.1,5.3,0.5,6.6c-0.8,1.9-2.4,3.4-4,3.8
		c-2.4,0.6-4.3-0.5-5.2-1.6c-0.9-1.2-1.1-2.6-0.4-3.8c0.9-1.6,2.2-1.8,3.1-1.5c0.7,0.3,1,0.8,1,1.3c0,0.1,0,0.1,0,0.1
		c-0.1,0.5-0.5,0.8-0.8,0.7c-0.4-0.1-0.7-0.5-0.6-1c0.1-0.4,0.3-0.6,0.6-0.7c-0.1-0.1-0.2-0.2-0.3-0.2c-0.7-0.3-1.8-0.1-2.6,1.3
		c-0.6,1-0.4,2.3,0.4,3.4c0.8,1.1,2.5,2,4.8,1.5c1.5-0.4,3-1.7,3.7-3.5c0.5-1.2,1.1-3.6-0.5-6.2c-0.2-0.4-0.5-0.8-0.8-1.1l-6.6,0
		c0.5,0.7,0.6,1.7-0.2,2.6c-0.5,0.6-1.3,0.8-1.9,0.6c-0.4-0.1-0.8-0.5-0.8-1c-0.1-0.3,0.1-0.7,0.4-0.8c0.3-0.1,0.7,0.1,0.8,0.4
		c0.1,0.3-0.1,0.7-0.4,0.8c0,0-0.1,0-0.1,0c0.1,0,0.1,0.1,0.2,0.1c0.5,0.2,1,0,1.4-0.5c0.7-0.8,0.5-1.8,0-2.3c0,0,0,0,0,0l-3.1,0
		c0,0,0,0,0,0c-2.9,2.2-3.3,6.6-2.4,9.6c0.5,1.9-0.5,2.4-1,2.6c-0.5,0.1-0.9-0.2-1.1-0.5c0,1.7,0.2,6.2,1.8,7.9
		c0.6,0.6,1.1,0.8,1.6,0.7c0.2-0.1,0.3-0.2,0.5-0.4c-0.3,0-0.6-0.2-0.7-0.5c-0.1-0.3,0.1-0.7,0.4-0.8c0.5-0.2,0.9,0.3,0.8,0.8
		c0,0.5-0.4,1-0.9,1.2c-0.4,0.2-1.1,0.1-2-0.8c-2.1-2.2-1.8-8.7-1.8-8.9l0,0c0,0,0.7,1.1,1.3,0.9c0.5-0.1,1.1-0.6,0.7-2.1
		c-0.9-3.1-0.5-7.4,2.2-9.8l-0.6,0c-0.1,0.1-0.2,0.2-0.2,0.3C194.4,44.2,193.7,45.5,193.3,47z M222.6,69.1c0.2,0.1,0.2,0.2,0.2,0.4
		c-0.1,0.2-0.2,0.2-0.4,0.2c-0.2-0.1-0.2-0.2-0.2-0.4C222.2,69.2,222.4,69.1,222.6,69.1z M221.3,69.2c0.1,0,0.2,0.2,0.1,0.3
		c0,0.1-0.2,0.2-0.3,0.1c-0.1,0-0.2-0.2-0.1-0.3C221,69.3,221.1,69.2,221.3,69.2z M215.9,61.1c-0.1,0.2-0.3,0.3-0.4,0.2
		c-0.2-0.1-0.3-0.3-0.2-0.4c0.1-0.2,0.3-0.3,0.4-0.2C215.9,60.7,216,60.9,215.9,61.1z M217.4,60.9c-0.1,0.2-0.3,0.3-0.5,0.2
		c-0.2-0.1-0.3-0.3-0.2-0.5c0.1-0.2,0.3-0.3,0.6-0.2C217.3,60.4,217.4,60.6,217.4,60.9z M198.9,54.7c0.4-0.3,1-0.3,1.5,0
		c0.5,0.2,0.7,0.7,0.6,1.2c0,0.3-0.2,0.5-0.4,0.6c-0.1,0.2-0.4,0.2-0.6,0.2c-0.3-0.1-0.4-0.4-0.3-0.7c0.1-0.3,0.4-0.4,0.7-0.3
		c0.1,0.1,0.3,0.2,0.3,0.3c0,0,0-0.1,0-0.1c0-0.2,0.1-0.6-0.5-0.9c-0.4-0.2-0.9-0.2-1.2,0c-0.4,0.3-0.6,0.8-0.6,1.4
		c0,0.5,0.2,1,0.6,1.4c1.1,1,3.3,1.5,6.1,1.4c1.7-0.1,3.4,0.1,5,0.5c1.6,0.4,3.1,1,4.6,1.7c0-0.1,0-0.3,0-0.4c0-0.2,0.2-0.4,0.3-0.5
		c0.4-0.3,0.8-0.1,1,0c0.2-0.3,0.4-0.4,0.6-0.5c0.2,0,0.4,0,0.6,0c-0.8-1.1-2.1-3.8-3.1-6c-0.2-0.6-0.5-1.1-0.7-1.6
		c-0.7-1.7-1.2-2.9-1.9-3.2c-0.4-0.2-0.8-0.2-1.1,0c-0.1,0.1-0.2,0.1-0.3,0.3c0,0,0.1,0,0.1,0c0.2,0.1,0.3,0.3,0.2,0.4
		c-0.1,0.2-0.3,0.3-0.4,0.2c-0.1,0-0.2-0.2-0.2-0.3c0,0,0-0.1,0-0.1c0.1-0.3,0.2-0.5,0.5-0.7c0.4-0.2,0.9-0.3,1.4-0.1
		c0.8,0.4,1.3,1.6,2,3.3c0.2,0.5,0.4,1,0.7,1.6c1.3,3.1,2.9,6,3.3,6.8c0,0-0.4-0.6-1-0.4c-0.2,0.1-0.4,0.2-0.5,0.5l-0.1,0.1
		l-0.1-0.1c0,0-0.5-0.3-0.9-0.1c-0.1,0.1-0.2,0.2-0.2,0.4c0,0.2,0,0.5,0.3,0.8l0,0l-0.3-0.1c-1.6-0.7-3.2-1.3-4.8-1.8
		c-1.6-0.4-3.3-0.6-5-0.5c-2.9,0.1-5.2-0.4-6.3-1.5c-0.5-0.4-0.7-1-0.7-1.5C198.1,55.5,198.4,55,198.9,54.7z M212.9,58.7
		c-0.1,0.3-0.4,0.4-0.6,0.3c-0.3-0.1-0.4-0.4-0.3-0.6c0.1-0.3,0.4-0.4,0.6-0.3C212.9,58.2,213,58.5,212.9,58.7z M212.8,54.7
		c0.1-0.2,0.2-0.2,0.4-0.2c0.2,0.1,0.2,0.2,0.2,0.4c-0.1,0.2-0.2,0.2-0.4,0.2C212.8,55,212.8,54.9,212.8,54.7z M212.1,52.6
		c-0.1,0-0.2-0.2-0.1-0.3c0-0.1,0.2-0.2,0.3-0.1c0.1,0,0.2,0.2,0.1,0.3C212.4,52.5,212.3,52.6,212.1,52.6z M212.1,54.5
		c0.1,0,0.2,0.2,0.1,0.3c0,0.1-0.2,0.2-0.3,0.1c-0.1,0-0.2-0.2-0.1-0.3C211.9,54.5,212,54.4,212.1,54.5z M213.9,58.3
		c0.2-0.5,0.7-0.7,1.2-0.5c0.5,0.2,0.7,0.7,0.5,1.2c-0.2,0.5-0.7,0.7-1.2,0.5C213.9,59.3,213.7,58.8,213.9,58.3z"/>
	<path fill="none" d="M213.9,49.5c1.2,3.8,2.8,7.4,4.8,10.7l0.1,0.2c0.9,1.5,1.8,3.2,3.2,4.5l0,0c-0.1,0-6.7-4.1-12.6-3
		c-1.6,0.3-2.6,1-2.7,2c-0.1,0.9,0.4,1.9,1.3,2.3c0.9,0.5,2.4,0.3,3.9,0.2c1.2-0.1,2.5-0.3,3.8-0.1c3.6,0.5,6.5,1.6,9.9,3.9l0.3,0.2
		l-0.4,0c0,0-0.3,0-0.4,0.3l0.4,0c0.1,0,0.2-0.1,0.3,0c0,0,0,0,0,0l1.1,0c-1.2-0.8-2.6-1.6-4-2.4c-2.9-1.5-6.1-2.5-8.5-2.6
		c-2.4-0.2-4.2,0.3-4.5,0.3c-1.2,0.1-2.3-0.5-2.5-1.4c-0.2-1,0.8-2,2.2-2.1c0.3,0,2.3-0.3,5.3,0.3c2.9,0.5,6.2,2.1,9,4.1
		c0.2,0.1,0.4,0.3,0.6,0.4c-2.7-2.9-4.9-6.4-6.8-10.8c-2-4.5-3.3-9.3-4.4-13.6l-1.2,0c0.4,1.3,0.8,2.6,1.1,3.8
		C213.3,47.5,213.6,48.5,213.9,49.5z"/>
	<path fill="#D91C5C" d="M191.2,69c-0.4-0.5-0.6-1-0.8-1.5c-1-2.3-0.8-5-0.8-4.9c0,0,0,0.1,0,0.3c-0.1,0.5-0.8,3.4-0.1,6.4
		c0.1,0.5,0.2,0.9,0.3,1.4l1.4,0c-0.1-0.2-0.1-0.3-0.2-0.5c0.1,0.2,0.3,0.3,0.4,0.5l2,0c-0.1,0-0.2-0.1-0.3-0.1
		C192.3,70.1,191.7,69.6,191.2,69z"/>
	<path fill="#D91C5C" d="M161.2,75.3c0.3-0.1,0.4-0.4,0.3-0.6c-0.1-0.3-0.4-0.4-0.6-0.3c-0.3,0.1-0.4,0.4-0.3,0.6
		C160.7,75.2,160.9,75.4,161.2,75.3z"/>
	<path fill="#D91C5C" d="M159.6,75.1c0.3-0.1,0.5-0.4,0.4-0.7c-0.1-0.3-0.4-0.5-0.7-0.4c-0.3,0.1-0.5,0.4-0.4,0.7
		C159,75.1,159.3,75.2,159.6,75.1z"/>
	<path fill="#D91C5C" d="M157.2,74.9c-0.6,0.2-1,0.8-0.8,1.5c0.2,0.6,0.8,1,1.5,0.8c0.6-0.2,1-0.8,0.8-1.5
		C158.5,75.1,157.9,74.8,157.2,74.9z"/>
	<path fill="#D91C5C" d="M193.2,69.6c-0.8-0.3-1.5-1.2-1.6-1.9c-0.1-0.5,0.2-0.9,0.6-1.2c0.4-0.2,0.7-0.2,1,0
		c0.2,0.1,0.4,0.4,0.5,0.6c-0.1,0-0.2-0.1-0.3,0c-0.3,0.1-0.4,0.4-0.3,0.6c0.1,0.3,0.3,0.4,0.6,0.3c0,0,0.1,0,0.1-0.1l0,0
		c0.2-0.1,0.4-0.4,0.4-0.6c0-0.4-0.3-0.9-0.8-1.2c-0.4-0.2-0.9-0.2-1.4,0c-0.6,0.4-0.9,0.9-0.8,1.5c0.1,0.9,0.9,1.9,1.8,2.2
		c0.6,0.2,1.1,0.4,1.4,0.7l0.6,0C194.6,70.1,193.9,69.8,193.2,69.6z"/>
	<path fill="#D91C5C" d="M188.6,65.9C188.6,65.9,188.6,65.9,188.6,65.9C188.6,65.9,188.6,65.9,188.6,65.9
		C188.6,65.9,188.6,65.9,188.6,65.9c-0.1,0.3-0.8,1.7-1.2,2.3c0,0-0.5,0.9,0.3,1.3c-0.2,0.4-0.3,0.9-0.1,1.2l1.5,0
		C188.7,69.2,188.6,66.5,188.6,65.9C188.6,65.9,188.6,65.9,188.6,65.9z"/>
	<path fill="#D91C5C" d="M116,38.5c5.5,0.3,12.1,4.1,12.1,4.2l0.5,0.3l-0.3-0.6c-0.2-0.5-0.2-0.9,0-1.3c0.3-0.4,0.8-0.7,1.5-0.8
		l0.6,0L130,40c-0.1,0-1.7-1.1-6.2-3.1c-0.3-0.2-0.7-0.3-1-0.4c-0.1,0.1-0.2,0.2-0.3,0.3c0.4,0.2,0.8,0.3,1.2,0.5
		c3.2,1.4,4.9,2.4,5.7,2.8c-0.6,0.1-1,0.4-1.3,0.9c-0.2,0.4-0.3,0.8-0.2,1.2c-1.6-0.9-7-3.6-11.7-4c-0.1,0.1-0.3,0.2-0.4,0.3l0,0.1
		L116,38.5z"/>
	<path fill="#D91C5C" d="M83.2,47c-2.2,1.1-4.3,1.9-6.3,1.6c-1.1-0.1-1.8-0.6-2.2-1.4c-0.4-0.8-0.2-1.6,0-2c0.3-0.5,1-0.6,1.5-0.5
		c0.1,0,0.1,0,0.2,0c-0.3,0.2-0.4,0.5-0.3,0.9c0.1,0.4,0.6,0.7,1,0.5c0.4-0.1,0.7-0.6,0.5-1c-0.1-0.2-0.2-0.4-0.4-0.5
		c-0.2-0.2-0.5-0.3-0.9-0.4c-0.6-0.1-1.5,0-1.9,0.7c-0.3,0.5-0.5,1.5-0.1,2.4c0.3,0.6,0.9,1.4,2.5,1.6c1.1,0.2,2.2,0,3.3-0.3
		c-2.6,1.3-5.1,1.6-7.5,1.8l-0.6,0c-2,0.1-4.5,0.2-4.8,2.7c-0.1,0.9,0.1,1.8,0.7,2.3c0.6,0.5,1.5,0.7,2.3,0.4
		c1.5-0.4,1.8-1.8,1.5-2.7l-0.1-0.1c-0.2-0.3-0.6-0.5-0.9-0.4c-0.4,0.1-0.7,0.6-0.5,1c0.1,0.4,0.6,0.7,1,0.5c0.1,0,0.2-0.1,0.3-0.1
		c-0.1,0.5-0.4,1.1-1.3,1.4c-0.7,0.2-1.4,0.1-1.9-0.4c-0.5-0.4-0.7-1.1-0.6-1.9c0.3-2.2,2.4-2.3,4.5-2.3l0.6,0
		c2.9-0.2,5.8-0.5,9-2.5c0.5-0.3,1-0.6,1.5-0.9c1.1-0.5,2.2-1.2,3.3-1.8l1.4-0.8l0,0c0.6-0.3,1.2-0.7,1.9-1l2.2-1.2l-0.9,0l-1.5,0.8
		C87.5,44.6,85.3,45.8,83.2,47z"/>
	<path fill="#D91C5C" d="M194.1,52.5c0.4,1.5-0.3,1.9-0.7,2.1c-0.5,0.2-1.3-0.9-1.3-0.9l0,0c0,0.3-0.4,6.7,1.8,8.9
		c0.9,0.9,1.6,0.9,2,0.8c0.6-0.2,0.9-0.8,0.9-1.2c0-0.5-0.3-0.9-0.8-0.8c-0.3,0.1-0.5,0.5-0.4,0.8c0.1,0.3,0.4,0.5,0.7,0.5
		c-0.1,0.2-0.3,0.3-0.5,0.4c-0.4,0.2-1-0.1-1.6-0.7c-1.6-1.7-1.8-6.2-1.8-7.9c0.3,0.3,0.7,0.7,1.1,0.5c0.5-0.1,1.5-0.7,1-2.6
		c-0.9-3.1-0.5-7.4,2.4-9.6c0,0,0,0,0,0l-0.6,0C193.6,45.2,193.2,49.4,194.1,52.5z"/>
	<path fill="#D91C5C" d="M200.1,45.1c-0.4,0.4-1,0.6-1.4,0.5c-0.1,0-0.2-0.1-0.2-0.1c0,0,0.1,0,0.1,0c0.3-0.1,0.5-0.5,0.4-0.8
		c-0.1-0.3-0.5-0.5-0.8-0.4c-0.3,0.1-0.5,0.4-0.4,0.8c0,0.4,0.4,0.8,0.8,1c0.6,0.2,1.4,0,1.9-0.6c0.8-0.9,0.7-1.9,0.2-2.6l-0.5,0
		c0,0,0,0,0,0C200.6,43.4,200.8,44.3,200.1,45.1z"/>
	<path fill="#D91C5C" d="M123.5,76.2c-0.2-0.4-0.6-0.6-1.1-0.6v0c-0.1,0-0.1,0-0.2,0c-0.4,0.1-0.6,0.5-0.5,0.9c0,0,0,0.1,0.1,0.1
		c0.2,0,0.4-0.1,0.6-0.2c0.1,0.2,0.3,0.3,0.5,0.5c0.2-0.1,0.3-0.3,0.3-0.6c0.1,0.2,0.1,0.6,0,0.8c0.1,0.1,0.2,0.2,0.3,0.3
		C123.6,77.1,123.6,76.6,123.5,76.2z"/>
	<path fill="#D91C5C" d="M119.5,71.6c0.7-3.8,2.8-6,4.5-7.2c-0.3,0.2-0.5,0.5-0.7,0.7c-0.9,1-1.3,2.3-1.1,3.4c0.2,1,0.9,1.7,1.7,2.4
		c0.9,0.7,4.2-0.2,6-1.3c0.6-0.4,1.2-0.7,1.6-0.9c2.6-1.1,6.6-1.9,14.3,0.8c-2.3-0.5-5.2-1-8-0.7c-5.3,0.5-10.1,3.8-10.6,7.4
		c-0.2,1.2,0.1,3,1,4.2c0.5,0.6,1.1,0.9,1.8,1c1.2,0.1,2-0.6,2.1-1.3c0.1-0.3-0.1-0.6-0.4-0.7c-0.2-0.1-0.4-0.1-0.6-0.1
		c-0.4,0.1-0.6,0.5-0.5,0.9c0.1,0.3,0.3,0.5,0.6,0.5c-0.3,0.2-0.7,0.3-1.2,0.3c-0.6,0-1.1-0.3-1.5-0.8c-0.8-1-1.1-2.7-0.9-3.8
		c0.5-3.4,5.1-6.6,10.3-7.1c5.7-0.5,12,1.9,12.2,2c0,0,3.6,1.1,3.6,1.1l-3.5-1.4c-10.7-4.7-15.6-3.8-18.8-2.5
		c-0.5,0.2-1.1,0.6-1.7,0.9c-1.7,1-3.8,2.3-5.6,1.3c-0.8-0.5-1.4-1.2-1.6-2.1c-0.2-1.1,0.2-2.2,1-3.1c1.6-1.9,3.6-2.7,5.6-3.7
		c-1.1,0.3-2.7,0.9-3.8,1.4c-1.3,0.6-2.5,1.5-3.5,2.6c-1.5,1.6-2.4,3.7-2.8,5.8c-0.4,2.4-0.1,4.1,0.6,5.2c0.2,0,0.3,0,0.5,0
		C119.6,75.8,119.1,74.1,119.5,71.6z"/>
	<path fill="#D91C5C" d="M157.3,78.1L157,78c-0.8-0.3-1.6-1.1-1.3-2.4c0.2-1.1,1.6-1.8,1.6-1.8l0.7-0.3l-0.7-0.1
		c0,0-2.8-0.2-4.5-0.8l-0.1,0c-1.8-0.5-5.1-1.5-7.4-0.5c-1.7,0.7-2.6,1.8-2.5,3.2c0.1,1.1,1,2.2,2,2.5c0.6,0.1,1.2-0.1,1.6-0.6
		c0,0,0.1,0,0.1,0c0.1,0,0.1-0.1,0.1-0.2c0.1-0.1,0.1-0.1,0.2-0.2l-0.1,0c0.1-0.3,0.1-0.5,0-0.8c-0.3-0.3-0.8-0.3-1.1,0
		c-0.4,0.3-0.5,0.8-0.2,1.1c0.1,0.1,0.2,0.1,0.4,0.2c-0.3,0.1-0.6,0.2-0.9,0.1c-0.9-0.2-1.6-1.1-1.7-2.1c-0.1-0.7,0.2-1.9,2.3-2.8
		c2.2-0.9,5.4,0,7.2,0.5l0.1,0c1.3,0.4,3.1,0.6,4,0.7c-0.5,0.3-1.2,0.9-1.3,1.8c-0.3,1.4,0.6,2.3,1.4,2.7c-0.2,0.3-0.6,1.3-0.9,2.4
		c0.2-0.1,0.4-0.2,0.6-0.4c0.4-1.2,0.8-2,0.8-2L157.3,78.1z"/>
	<path fill="#D91C5C" d="M154,78.5c0.1,0.4,0.5,0.6,0.8,0.5c0.4-0.1,0.6-0.5,0.5-0.8c-0.1-0.4-0.5-0.6-0.8-0.5
		C154.1,77.8,153.9,78.2,154,78.5z"/>
	<path fill="#D91C5C" d="M177.8,70.6L177.8,70.6c0.2-0.1,0.2-0.1,0.3-0.2L177.8,70.6z"/>
	<circle fill="#D91C5C" cx="153.5" cy="75" r="0.8"/>
	<path fill="#D91C5C" d="M145.7,80.7c-0.2,0.1-0.3,0.3-0.3,0.5c0.1,0.2,0.3,0.3,0.5,0.3c0.2-0.1,0.3-0.3,0.3-0.5
		C146.1,80.8,145.9,80.7,145.7,80.7z"/>
	<path fill="#D91C5C" d="M149.2,82.3c-0.3,0.1-0.4,0.4-0.3,0.6c0.1,0.3,0.4,0.4,0.6,0.3c0.3-0.1,0.4-0.4,0.3-0.6
		C149.7,82.4,149.5,82.3,149.2,82.3z"/>
	<path fill="#D91C5C" d="M155.4,79.9l-0.3,0c0,0-0.6,0.1-1.3-0.9c-0.9-1.4,0.6-2.7,0.7-2.8l-0.1,0c0,0-1.2,0.6-2-0.3
		c-0.8-1-0.5-2-0.5-2l0.1-0.2l-0.2-0.1c-0.1,0-2-0.5-2.8-0.7c-1.5-0.3-2.7-0.1-3.5,0.5c-1,0.8-1.1,2-1.2,2l-0.1,0.7l0.4-0.6
		c0.4-0.6,1-0.8,1.5-0.6c0.6,0.2,1.1,0.8,1.2,1.5c0.1,0.7-0.2,1.3-0.7,1.8c-0.6,0.5-1.3,0.7-2,0.5c-1.6-0.4-3-2.1-2.7-4.3
		c0.4-2.3,3.3-3.5,3.4-3.5l0.6-0.2l-0.6-0.2c-2.4-0.6-6.4-0.8-7.2,0.6c-0.5,0.8-0.2,1.2-0.1,1.4c0.3,0.3,0.8,0.4,1.3,0.2l0,0
		c0.3-0.1,0.5-0.5,0.4-0.8c-0.1-0.4-0.5-0.6-0.8-0.5c-0.3,0.1-0.6,0.5-0.5,0.8c0,0,0,0,0,0c0,0-0.1,0-0.1,0
		c-0.2-0.2-0.1-0.5,0.1-0.9c0.6-1,3.7-1.1,6.2-0.6c-0.9,0.5-2.8,1.6-3.1,3.5c-0.4,2.5,1.2,4.4,3,4.8c0.9,0.2,1.7,0,2.4-0.6
		c0.6-0.5,0.9-1.3,0.9-2.1c-0.1-0.8-0.7-1.6-1.4-1.8c-0.5-0.1-1,0-1.4,0.3c0.1-0.3,0.4-0.7,0.8-1.1c0.7-0.6,1.8-0.7,3.2-0.5
		c0.7,0.1,2.1,0.5,2.6,0.6c-0.1,0.4-0.2,1.3,0.6,2.2c0.4,0.5,1,0.6,1.5,0.6c-0.5,0.6-0.8,1.5-0.2,2.5c0.4,0.7,0.9,0.9,1.2,1
		c-0.2,0.4-0.4,0.9-0.6,1.4c0.2-0.1,0.4-0.2,0.5-0.3c0.2-0.5,0.4-1,0.5-1.1L155.4,79.9z"/>
	<path fill="#D91C5C" d="M149.8,79.9c-0.4,0.1-0.6,0.5-0.5,0.8c0.1,0.4,0.5,0.6,0.8,0.5c0.4-0.1,0.6-0.5,0.5-0.8
		C150.5,80,150.1,79.8,149.8,79.9z"/>
	<polygon fill="#D91C5C" points="155.4,79.9 155.4,79.9 155.5,79.9 	"/>
	<path fill="#D91C5C" d="M123.8,55.8c-0.1-0.4-0.5-0.6-0.9-0.5c-0.4,0.1-0.6,0.5-0.5,0.9c0.1,0.4,0.5,0.6,0.9,0.5
		C123.7,56.6,123.9,56.2,123.8,55.8z"/>
	<path fill="#D91C5C" d="M83.2,61.8c5.9-5.8,15-10.3,15.1-10.4l0.9-0.4c-0.8,0.2-3.4,0.4-4-1.7c-0.6-1.9,2.3-4.3,2.3-4.3L97,45.3
		c-2.3,1.2-7.6,4.8-8.4,6.2c-0.3,0.6-0.3,1.2,0.1,1.6c0.4,0.4,1,0.5,1.6,0.3c0.4-0.2,0.7-0.5,0.7-1c0-0.4-0.3-0.8-0.6-1l0,0
		c-0.1-0.1-0.3-0.1-0.4,0c-0.3,0.1-0.5,0.4-0.4,0.7c0.1,0.3,0.4,0.5,0.7,0.4c0.1,0,0.3-0.1,0.3-0.2c0,0,0,0.1,0,0.1
		c0,0.3-0.2,0.5-0.4,0.6c-0.4,0.2-0.8,0.1-1.1-0.2c-0.3-0.3-0.3-0.7,0-1.2c0.6-1,4.1-3.6,6.7-5.1c-0.7,0.8-1.1,1.8-0.8,2.9
		c0.5,1.5,1.6,1.9,2.4,2c-2.4,1.3-9.5,5.2-14.4,10c-1.9,1.9-3.8,4-5.9,6.2c-0.9,1-1.8,2-2.8,3l0.5,0c0.9-0.9,1.7-1.8,2.5-2.7
		C79.3,65.7,81.2,63.7,83.2,61.8z"/>
	<path fill="#D91C5C" d="M112.9,66c0.2-0.1,0.3-0.3,0.3-0.5c-0.1-0.2-0.3-0.3-0.5-0.3c-0.2,0.1-0.3,0.3-0.3,0.5
		C112.5,65.9,112.7,66.1,112.9,66z"/>
	<path fill="#D91C5C" d="M155.5,34c-0.6,1.1-0.4,2.8,0.5,4.1c1.4,2.1,4.2,3.3,6.9,3c1.7-0.2,3.1-0.7,4.4-1.5
		c-0.1-0.1-0.2-0.2-0.3-0.3c-1.2,0.7-2.6,1.2-4.2,1.4c-3,0.3-4.9-1-6-2.6c-0.4-0.6-0.6-1.2-0.5-1.9c0.4,0.2,0.8,0.3,1.3,0.1
		c0.6-0.2,1-0.7,1.2-1.2c-0.8-0.7-1.6-1.3-2.4-2C156,33.3,155.7,33.6,155.5,34z"/>
	<path fill="#D91C5C" d="M33.5,66.7v0.9c0.9,0.7,1.8,1.3,2.8,1.9c0.1,0.1,0.2,0.1,0.3,0.2l0,0c0.6,0.4,1.3,0.7,1.9,1l0.9,0
		c-1-0.5-1.9-0.9-2.9-1.5C35.5,68.5,34.5,67.7,33.5,66.7z"/>
	<path fill="#D91C5C" d="M118.3,69.9c0.6-1.9,1.5-3.5,2.6-4.9c0.2-0.2,0.4-0.5,0.7-0.7c0.3-0.3,0.6-0.6,0.9-0.8
		c1.8-1.4,3.9-2.4,6.2-3c6.9-1.7,14.2,1.7,19.1,4.4l1.5,0.8c2.7,1.5,5.3,2.9,8.3,3.8c0.8,0.3,1.6,0.5,2.3,0.6
		c-2.5-0.3-5-0.5-7.5-1.6c-5.2-2.8-12-6.2-17.1-6.3c-2.6-0.1-5.4,0.3-7.8,1.3c-1.5,0.6-5.1,3.2-3.5,5.2c0.8,1,2.4,1.2,4.2,0
		c1-0.5,3.9-2.3,8.3-2.5c4.5-0.3,9.4,1.9,15.1,4.2c2.9,1.1,5.9,1.9,8.9,2c0.5,0,1,0,1.4,0c2,0,4.2-0.1,6.4-0.6
		c0.2-0.5,0.3-1,0.3-1.5l4.5,0c5.6-2.3,8.9-5,10.8-7c1.3-1.3,2.5-2.5,3.5-4c-2.8,4.9-6.3,8.1-7.7,9.1c-1.1,0.8-2.3,1.4-3.4,1.9
		l0.9,0c0.9-0.5,1.8-1,2.7-1.6c2.7-1.8,7.2-6.7,9.8-13.3c-0.7,1.8-1.5,3.9-2.5,5.8c-2,4.3-5.1,7.5-6.8,9.1l5.1,0
		c1.4-2.2,2.9-5.1,3.8-8.2c0.2-0.7,0.4-1.4,0.6-2.1c0.1,2,0.3,3.6,0.5,3.8c0.3,0.9,1.2,1.4,1.8,1.1c0.4-0.2,0.8-0.6,0.8-1.1
		c0.1-0.6-0.2-1.1-0.4-1.7c-0.7-2.6-1.1-5.3-0.9-8c0-1.7,0.3-3.4,0.6-4.8c-0.1,0.4-0.1,0.8-0.1,1.2c0,0.7,0,1.3,0.1,1.9
		c0.1,0.4,0.3,1,0.8,1.1c0.1,0,0.2,0,0.3-0.1c0.2-0.1,0.3-0.4,0.3-0.6c0-0.3-0.1-0.6-0.2-0.8c-0.2-0.7-0.3-1.5-0.3-2.2
		c0-0.5,0-1.1,0.1-1.6c0.1-0.5,0.1-0.9,0.2-1.3c0.3-1.5,1.1-2.8,2.1-3.9c0.1-0.1,0.2-0.2,0.2-0.3l-0.6,0c-0.1,0.1-0.2,0.1-0.2,0.2
		c-1.1,1.1-2,2.3-2.9,3.6c-0.5,0.7-1.1,1.5-1.7,2.1c-0.8,0.9-1.7,1.8-2.7,2.6c-0.7,0.6-1.9,0.9-1.6,2c0.3,1.1,2.1,0.3,2.6-0.1
		c0.4-0.3,0.7-0.7,0.9-1.1c-0.2,0.4-0.5,0.7-0.7,1.1c-2.9,4-6.6,6.2-9.6,5.5c-2-0.5-3.3-2.2-3.7-4.9c-0.2-1.5,0.4-3.1,1.6-4
		c1.1-0.8,2.5-1,3.9-0.3c0.5,0.3,0.9,0.6,1.2,1.1h0c0.5,0.9,0.3,1.9-0.1,2.4c-0.6,0.7-1.6,0.6-2.1,0.4c-0.6-0.3-1.8-0.2-1.3,0.8
		c0.5,1,2.8,1,3.7-0.2c0.6-0.8,0.7-1.7,0.5-2.4c-0.1-1-0.7-1.9-1.8-2.5c-1.4-0.7-3-0.5-4.3,0.4c-1.4,1-2,2.7-1.8,4.4
		c0.4,2.8,1.9,4.7,4,5.2c1.1,0.3,2.4,0.1,3.6-0.3c-2.3,1-4.3,1-4.6,1c-0.9,0.1-1.6,0.8-1.5,1.5c0.1,0.7,0.9,1.3,1.8,1.2
		c0.3,0,2.5-0.4,4.9-1.7c-1.6,1-3.3,1.8-5.3,2.1c-4.8,0.8-9.7-0.2-12.2-2.5c-2.6-2.3-3.6-4.8-3.8-5.1c-0.8-1.5-2.1-2.5-3.3-2.2
		c-1.2,0.3-1.6,2.4-0.6,4.3c0.3,0.4,1.7,3.4,5.5,6.1c3.8,2.8,9.9,3.2,14.9,1.7c1.2-0.3,2.3-0.8,3.3-1.4c-2.3,1.4-4.6,2.1-5.6,2.3
		c-4.9,1.2-10,0.2-14.9-2.8c-4-2.5-6.9-5.6-8.2-7.1l-0.3-0.4c-5.1-5.5-12.4-15.9-9.4-27.3c-0.1,0-0.3,0-0.4,0
		c-3,11.6,4.4,22.1,9.5,27.6l0.3,0.4c1.4,1.5,4.3,4.7,8.3,7.2c5,3.1,10.2,4.1,15.2,2.9c0.9-0.2,3.2-0.8,5.4-2.2
		c-0.4,0.3-0.9,0.7-1.3,0.9c-2.3,1.3-4.8,2-7.3,2.3c-2.3,0-5.3-0.3-8.7-1.5c-4-1.4-8.2-4.2-12-8c-3.7-3.8-7.5-8.3-11.4-12.8
		c-4.2-4.8-8-9.2-12.7-13.2c-0.5,0.3-1,0.6-1.4,0.9c4.8,3.2,8.4,6.9,9.5,8c-3.1-2.8-6.5-5.5-10-7.6c-1.1,0.8-2.1,1.7-3.1,2.6
		c2.6,1.2,5.2,2.5,7.6,3.9c3.3,1.9,6.2,4.2,8.8,6.9c0.2,0.2,3.1,3,3,3.2c0.1-0.1-3-2.8-3.2-3c-5.3-4.4-7.1-5.4-7.8-5.7
		c-0.9-0.4-2-0.2-2.4,0.8c-0.3,0.8-0.3,1.5,0.2,2.3c-4.6-2.8-9.3-4.5-14.2-5.2c0,0,0-0.2,0-0.3c-0.2,0.2-0.4,0.4-0.5,0.6
		c5.3,0.6,10.5,2.5,15.5,5.8c0.5,0.3,0.8,0.6,1.2,1c-5.2-2.9-10.8-5-16.2-5.5c-0.4,0-0.8-0.1-1.2-0.1c-0.1,0.1-0.1,0.3-0.2,0.4
		c0.5,0,0.9,0,1.4,0.1c7,0.7,14.1,4,20.5,8.2c3.4,2.5,6.8,5.1,9.9,8.1c5,4.9,11,9.7,17.8,11.6c-1.3-0.2-2.6-0.4-3.8-0.8
		c-1.2-0.4-2.4-1-3.5-1.6c-4-2.2-7.3-5.5-10.9-8.3c-0.8-0.7-1.7-1.5-2.7-2.4c-3.5-3.1-8.6-7.2-14.7-9.6c-6.1-2.6-12.9-3.2-18.2-2.9
		c-5.4,0.6-8.8,1.8-9.4,2c-2.4,0.8-4,2.7-3.4,3.8c0.6,1,2.6,1.1,4.9,0.4c0.5-0.2,3.8-1.6,8.4-2.5c4.7-0.7,11.1-0.6,17,1.3
		c1.7,0.5,3.3,1.2,4.9,1.9c-8.6-3.1-17.4-3.3-26.2-0.7c-8,2.4-15.8,7.3-22.6,14c-2.3,2.3-4.5,4.7-6.6,7.2l0.5,0
		c2-2.3,4.1-4.7,6.3-6.9C90.2,57,98,52.2,105.9,49.8c8.9-2.7,17.9-2.4,26.6,0.9c2,0.7,3.8,1.7,5.6,2.8c1.5,1,2.8,1.9,4,2.8
		c0.7,0.6,1.4,1.1,2.1,1.5c1.1,0.9,2.1,1.7,3.2,2.6c1.4,1.1,2.7,2.2,4,3.3c-4.5-2.9-7.2-5.2-7.2-5.2c-0.1,0-4.8-3.7-11-5.8
		c-5.6-2-13.5-3-21.5-1.6c-0.6,0.1-1.2,0.2-1.9,0.4c-0.3,0.1-0.6,0.1-1,0.2c-2.2,0.5-4.5,1.2-7,2.3c-0.1,0-0.2,0.1-0.3,0.1
		c-0.3,0.1-0.5,0.3-0.8,0.4c-6.9,3.2-13.5,8.6-20.1,16.1l0.6,0c1.2-1.3,2.4-2.6,3.6-3.8c-1.2,1.3-2.2,2.6-3.1,3.8l6.3,0
		c3.8-6,10.2-12,18.3-15.2c5.9-2.5,12.3-3.4,18-3.1c-3.1,0-6.5,0.3-10.1,1.3c-7.4,1.9-13.6,6.1-18.7,12.2c-1.2,1.5-2.3,3.1-3.2,4.8
		l0.4,0c0.9-1.6,1.9-3.1,3.1-4.6c5-6.1,11.2-10.2,18.5-12.1c4.1-1.1,8-1.3,11.4-1.2c-4.2,0.1-9.8,0.9-15,3.5
		c-5.4,2.7-10.8,7.7-14.3,13.2c-0.2,0.4-0.5,0.8-0.7,1.2l0.5,0c0.2-0.3,0.4-0.7,0.6-1c3.5-5.4,8.8-10.3,14.2-13
		c3.4-1.7,7-2.6,10.2-3.1c0,0,0,0,0,0c-0.3,0.1-0.5,0.2-0.7,0.3l-0.3,0.1c-0.1,0-11.1,2.7-18.4,11.6c-1.5,1.8-2.6,3.5-3.5,5.1l0.5,0
		c0.8-1.5,1.9-3.1,3.4-4.9c6.4-7.7,14.9-10,17.1-10.7c-0.1,0.2,0.8-0.4,0.8-0.1c0,0.1,0,0.1,0.1,0.2c-0.6,0.2-1.2,0.4-1.9,0.6l0,0
		c-0.1,0-0.1,0-0.1,0.1c-2.5,0.9-5.1,2.3-6.3,3c-3.8,2.5-6.2,4.7-6.2,4.8l-0.1,0.1l0.1,0.1c0.1,0.1,0.7,1.5-0.8,2.7
		c-1,0.8-2.1,0-2.1,0l-0.2-0.1l-0.1,0.2c-1,1.5-1.8,2.8-2.4,4.1l0.4,0c0.6-1.2,1.3-2.4,2.2-3.7c0.4,0.2,1.4,0.7,2.4-0.1
		c1.5-1.2,1.1-2.6,0.9-3c0.5-0.4,2.7-2.4,6-4.6c0.8-0.5,2.5-1.4,4.3-2.2c-0.3,0.3-0.4,0.6-0.3,1c-0.3,0.1-0.8,0.4-0.8,1.1
		c0,0.3,0.1,0.6,0.2,0.8c-1.1,0-3,0.1-3.8,1.2c-0.4,0.6-0.5,1.2-0.2,1.7c0.2,0.4,0.7,0.7,1.2,0.8c0.5,0,1-0.4,1.1-0.7
		c0.1-0.1,0.1-0.3,0.1-0.4c0-0.1,0-0.2,0-0.3c-0.1-0.3-0.4-0.5-0.7-0.4c-0.3,0.1-0.5,0.4-0.4,0.7c0.1,0.2,0.2,0.4,0.5,0.4
		c-0.1,0.2-0.4,0.4-0.6,0.3c-0.3,0-0.7-0.2-0.9-0.6c-0.2-0.4-0.1-0.8,0.2-1.3c1-1.5,4.1-1,4.1-1l0.1,0c-0.1,0-0.7-0.6-0.7-1.2
		c0.1-0.7,0.7-0.8,0.7-0.8l0.2,0l-0.1-0.2c-0.2-0.6,0.3-1.2,1.5-1.7c0.9-0.3,1.8-0.6,2.6-0.8c-0.2,0.1-0.6,0.3-1.1,1
		c-0.5,0.6-0.5,1.6-0.1,2.1c-0.6,0.2-1.2,0.4-1.6,0.7c-1.1,0.6-1.8,1.7-1.8,2.8c0,0.8,0.4,1.5,1.2,1.9c0.6,0.4,1.3,0.3,2-0.1
		c-0.1,0.1-0.1,0.3-0.1,0.5c0,0.3,0.2,0.7,0.5,0.9c-0.4,0.4-1.4,1.4-2.6,2.7c-1.1,1.2-2.7,2.5-3.8,2.4c-0.3,0-0.6-0.2-0.7-0.4
		c-0.3-0.4-0.3-0.8-0.2-1.2c0-0.1,0.1-0.1,0.1-0.2c0,0,0,0.1,0,0.1c0.1,0.4,0.5,0.6,0.9,0.5c0.4-0.1,0.6-0.5,0.5-0.9
		c-0.1-0.3-0.4-0.5-0.7-0.5l0,0c-0.5,0.1-1,0.4-1.2,0.9c-0.2,0.5-0.1,1.1,0.2,1.6c0.2,0.3,0.5,0.5,0.8,0.6l0.6,0
		c1.4-0.2,3.1-1.9,3.7-2.5c1.6-1.7,2.7-2.8,2.8-2.9l0.2-0.2l-0.2-0.1c-0.3-0.2-0.5-0.5-0.5-0.8c0-0.5,0.6-1.2,0.6-1.3l-0.1,0
		c-1,0.7-1.9,1-2.6,0.6c-0.6-0.3-1-0.9-1-1.6c0-0.9,0.6-1.8,1.6-2.4c1.4-0.8,5.2-1.7,5.3-1.8l0.2-0.1c0,0-0.7,0-1.2-0.9
		c-0.4-0.7,0.1-1.6,0.1-1.6l0.1-0.1l-0.1-0.1c-0.2-0.2,2.7,0.3,3.3,0.1c0.1,0,0.4-0.1,0.4-0.1c0.5-0.2,4.4-0.2,5.7,0.2
		c2.6,0.7,4.7,1.7,6.5,2.5c3.6,1.7,5.5,3.3,5.5,3.2c0,0-2-1.4-5.7-3c-1.8-0.7-4-1.7-6.5-2.3c-1.3-0.3-2.6-0.5-4-0.4
		c-1.3,0.1-3.1,0.7-2.9,2.1c0.1,0.2,0.2,0.4,0.4,0.6c-3.5,0.6-6.2,1.9-6.5,2.1c-1.1,0.7-1.6,1.8-1.2,2.4c0.4,0.6,1.6,0.6,2.5,0
		c0.4-0.3,5.8-3.6,12.1-3.3c4.5,0,8.6,1.8,10.5,2.8c-4.2-1.7-9-2.8-13.6-1.7c-1.2,0.3-2.4,0.7-3.4,1.2l0,0c-1,0.4-1.9,1.1-2.8,1.7
		c-0.6,0.4-1,0.9-1.5,1.4c0,0.1-0.1,0.1-0.2,0.2c-1.2,1.2-2.2,2.5-2.9,4c-0.8,1.6-1.5,3.8-1.6,6.5c0.1,0.1,0.3,0.2,0.4,0.3
		c0-2.7,0.7-5,1.5-6.6c0.2-0.3,0.4-0.6,0.6-0.9c-0.3,0.6-0.6,1.2-0.8,1.8c-0.6,1.9-0.8,4-0.7,6.1c0.1,0.1,0.3,0.1,0.4,0.2
		C117.5,74,117.7,71.9,118.3,69.9z M163.4,70.8c0.8,0.1,1.5-0.1,2.3-0.1c0.9,0,1.6-0.1,2.3-0.2c0,0,0,0.4,0,0.4
		c-1.5,0.3-3.3,0.1-5.1-0.2C163,70.8,163.2,70.8,163.4,70.8z"/>
	<path fill="#D91C5C" d="M208.5,50c-0.7,1.8-2.2,3.2-3.7,3.5c-2.3,0.5-3.9-0.4-4.8-1.5c-0.8-1-1-2.3-0.4-3.4
		c0.7-1.4,1.8-1.6,2.6-1.3c0.1,0.1,0.2,0.1,0.3,0.2c-0.3,0.1-0.5,0.3-0.6,0.7c-0.1,0.5,0.2,0.9,0.6,1c0.4,0.1,0.8-0.3,0.8-0.7
		c0-0.1,0-0.1,0-0.1c0.1-0.5-0.3-1.1-1-1.3c-0.9-0.3-2.2-0.2-3.1,1.5c-0.6,1.2-0.5,2.6,0.4,3.8c0.9,1.2,2.7,2.2,5.2,1.6
		c1.6-0.4,3.2-1.9,4-3.8c0.5-1.3,1.2-3.8-0.5-6.6c-0.2-0.3-0.4-0.6-0.6-0.9l-0.5,0c0.3,0.3,0.6,0.7,0.8,1.1
		C209.6,46.4,209,48.8,208.5,50z"/>
	<path fill="#D91C5C" d="M77.8,61l2.2-2.5c3.9-4.3,9.2-9.7,15.5-13.3c1.7-1,3.5-1.8,5.3-2.4l-1.1,0c-1.5,0.6-2.9,1.3-4.4,2.1
		c-6.3,3.6-11.6,9-15.6,13.3l-0.3,0.3l0,0c-1.5,1.8-3.5,3.9-5.9,6c-0.1,0.1-0.3,0.3-0.4,0.4c-0.1,0-0.1,0.1-0.2,0.1
		c-1.3,0.9-2.9,1.7-4.1,1.6c-0.6,0-1.1-0.3-1.4-0.7c-0.3-0.4-0.4-0.7-0.3-1.1c0.2-1,1.5-2.2,3.1-3.2c3.6-2.1,6.5-4.9,8.8-7.1
		l0.6-0.6c3-2.9,8.8-7.8,16.2-11.1l-1,0c-7.1,3.3-12.6,8-15.5,10.8l-0.6,0.6c-1.5,1.4-3.3,3.1-5.3,4.7c-3.9,2.5-9.7,4.4-14.7,3.3
		c-3.6-0.7-6.2-2.8-7.7-6.1c-0.5-1.1-0.5-2.3,0-3.3c0.3-0.6,0.8-0.9,1.3-1c0.5-0.1,0.8,0.1,1,0.4c0.1,0.1,0.1,0.2,0.1,0.3
		c-0.2-0.3-0.5-0.4-0.8-0.3c-0.4,0.1-0.7,0.6-0.5,1c0.1,0.4,0.6,0.7,1,0.5c0.2,0,0.3-0.1,0.4-0.2l0,0c0.4-0.4,0.5-1,0.3-1.5
		c-0.2-0.5-0.7-0.7-1.4-0.6c-0.6,0.1-1.2,0.5-1.6,1.2c-0.6,1-0.5,2.4,0,3.6c1.6,3.4,4.3,5.5,8,6.3c4.1,0.8,8.7-0.2,12.4-2
		c-0.3,0.2-0.6,0.4-0.9,0.6c-0.5,0.3-1.1,0.6-1.7,0.9l0,0c-4.2,1.9-10.1,2.2-14.7,0.8c-2.8-0.9-5.1-2.3-7.8-4.9
		c-2.5-2.4-4.4-7.3-4.3-10.7c0.1-1.4,0.5-2.5,1.2-3.2c0.5-0.4,1-0.5,1.4-0.2c0.4,0.3,0.6,0.7,0.5,1.2c0,0.1-0.1,0.3-0.2,0.4
		c0-0.1,0-0.1,0-0.2c-0.1-0.4-0.6-0.7-1-0.5c-0.4,0.1-0.7,0.6-0.5,1c0.4,1.2,2,0.7,2.1-0.5c0.1-0.6-0.1-1.3-0.7-1.6
		c-0.4-0.3-1.2-0.4-1.9,0.2c-0.8,0.7-1.3,1.9-1.4,3.5c-0.1,3.5,1.9,8.6,4.4,11c2.7,2.7,5,4.1,7.9,5c3.2,1,6.9,1.1,10.3,0.5
		c-2.8,0.7-5.9,0.9-9.4,0.3c-5.6-1-10.1-4-12.7-8.7c-2.1-3.9-2.7-8.5-1.5-12.6l-0.4,0c-1.2,4.2-0.6,8.9,1.6,12.8
		c2.6,4.7,7.2,7.9,13,8.9c2.5,0.4,4.8,0.4,6.9,0.2c0,0,0,0,0,0c0.2,0.6,0.8,0.9,1.4,0.7c0.5-0.1,0.8-0.6,0.7-1.1
		c0.5-0.1,1-0.2,1.4-0.3c0,0.5,0.2,1.2,0.9,1.3c0,0-1,0.5-0.6,1.7c0.3,0.7,1,0.9,1.4,0.8c0,0-0.3,0.6-0.1,1c0.1,0.3,0.3,0.4,0.6,0.5
		c-0.8,0.5-1.6,0.9-2.4,1.3l0.9,0c3.1-1.7,6-3.8,8.4-6c-2,2.2-4.2,4.3-6.4,6l0.7,0C71.7,67.9,74.8,64.3,77.8,61z"/>
	<path fill="#D91C5C" d="M140.3,83.4c-0.1-1.5-0.8-3.1-2.1-3.8c-1.4-0.8-3.3-0.1-2.8,1.5c0.2,0.6,0.8,1,1.5,0.8
		c0.6-0.2,1-0.8,0.8-1.5c0,0,0-0.1,0-0.1c0.2,0,0.3,0.1,0.4,0.1c1.1,0.6,1.7,1.9,1.8,3.2c0,0.5,0,1,0,1.4c0.1,0,0.3,0,0.4,0
		C140.3,84.6,140.4,84,140.3,83.4z"/>
	<path fill="#D91C5C" d="M161.4,76.7c1.5-1.1,3.4-1.8,5.5-2.4c0.2-0.2,0.3-0.4,0.5-0.5c-2.6,0.7-4.8,1.5-6.6,2.9
		C160.9,76.7,161.1,76.7,161.4,76.7z"/>
	<path fill="#D91C5C" d="M116.3,59.5c0.3-0.1,0.4-0.4,0.3-0.6c-0.1-0.3-0.4-0.4-0.6-0.3c-0.3,0.1-0.4,0.4-0.3,0.6
		C115.8,59.5,116,59.6,116.3,59.5z"/>
	<path fill="#D91C5C" d="M115.5,66c0.3-0.1,0.4-0.4,0.4-0.6c-0.1-0.3-0.4-0.4-0.6-0.4c-0.3,0.1-0.4,0.4-0.4,0.6
		C115,65.9,115.3,66,115.5,66z"/>
	<path fill="#D91C5C" d="M101.8,58.6L101.8,58.6c-0.1,0-7.3,3.9-12.7,12l0.5,0c3.1-4.6,6.7-7.9,9.2-9.8c-3.9,3.6-6.3,7-7.8,9.8
		l0.4,0C93.2,67.3,96.4,62.9,101.8,58.6z"/>
	<path fill="#D91C5C" d="M117.7,58.6c0.5-0.1,0.7-0.6,0.6-1.1c-0.1-0.5-0.6-0.7-1.1-0.6c-0.5,0.1-0.7,0.6-0.6,1.1
		C116.8,58.4,117.3,58.7,117.7,58.6z"/>
	<path fill="#D91C5C" d="M108.8,63.8c-0.2,0.1-0.3,0.3-0.3,0.5c0.1,0.2,0.3,0.3,0.5,0.3c0.2-0.1,0.3-0.3,0.3-0.5
		C109.3,63.8,109,63.7,108.8,63.8z"/>
	<path fill="#D91C5C" d="M72.3,61.7c-0.6,0.5-3.4,1.4-2.5,2.7c0.4,0.6,2.1,0,2.5-0.3c0.5-0.3,0.9-0.7,1.3-1.1
		c1.3-1.1,2.4-2.4,3.6-3.6c2.5-2.7,5-5.5,7.5-8.3c0.1-0.1,1.6-1.9,1.7-1.8c-0.3-0.2-4.2,3.7-4.5,4c-2.6,2.3-5.1,4.7-7.8,6.9
		C73.4,60.8,72.8,61.2,72.3,61.7z"/>
	<path fill="#D91C5C" d="M120.3,64.5c0.2-0.1,0.4-0.3,0.3-0.6c-0.1-0.2-0.3-0.4-0.6-0.3c-0.2,0.1-0.4,0.3-0.3,0.6
		C119.8,64.5,120,64.6,120.3,64.5z"/>
	<path fill="#D91C5C" d="M64,64.7c-0.3,0.1-0.4,0.4-0.3,0.6c0.1,0.3,0.3,0.4,0.6,0.3c0.3-0.1,0.4-0.4,0.3-0.6
		C64.6,64.8,64.3,64.7,64,64.7z"/>
	<path fill="#D91C5C" d="M55.8,70.1c-0.2-0.2-0.5-0.3-0.8-0.3c-0.3,0-0.5,0.1-0.6,0.3c-0.1,0.2-0.2,0.4-0.3,0.6l0.4,0
		c0-0.1,0.1-0.2,0.2-0.4c0.1-0.1,0.2-0.2,0.3-0.2c0.1,0,0.3,0.1,0.4,0.1c0,0-0.1,0-0.1,0c-0.2,0.1-0.3,0.2-0.3,0.4l0.9,0
		C56,70.5,56,70.3,55.8,70.1z"/>
	<path fill="#D91C5C" d="M66.4,69.5l-0.2-0.2c-0.4-0.5-0.2-1-0.2-1l0.1-0.3l-0.3,0.1c0,0-0.6,0.1-1-0.2c-0.6-0.5-0.6-1.3-0.6-1.4
		l0-0.2l-0.2,0c-0.5-0.1-0.8-0.6-0.8-0.6l-0.1-0.3l-0.2,0.2c-0.2,0.2-0.5,0.2-0.8,0.2c-0.5-0.1-1-0.4-1.2-0.6L60.8,65l-0.1,0
		c-0.1,0-2.9,0.7-2.8,2.1c0.1,0.7,0.4,1.1,0.9,1.3c0.4,0.1,0.9,0,1.2-0.3c0.2-0.2,0.3-0.6,0.2-0.9c-0.1-0.1-0.2-0.2-0.3-0.3
		c-0.2-0.1-0.4-0.2-0.6-0.1c-0.3,0.1-0.5,0.5-0.4,0.8c0.1,0.3,0.3,0.5,0.6,0.5c-0.2,0.1-0.4,0.1-0.6,0c-0.3-0.1-0.6-0.4-0.6-0.9
		c-0.1-0.8,1.6-1.4,2.3-1.6c0.3,0.3,0.9,0.6,1.4,0.7c0.4,0,0.7,0,0.9-0.1c0.1,0.2,0.4,0.5,0.8,0.6c0,0.3,0.2,1.1,0.8,1.5
		c0.4,0.3,0.8,0.3,1.1,0.3c0,0.2,0,0.5,0.2,0.9c-0.9,0.4-1.9,0.9-2.9,1.3l1,0c0.8-0.3,1.6-0.7,2.3-1.1L66.4,69.5z"/>
	<path fill="#D91C5C" d="M104,66c0.6-0.2,0.9-0.8,0.8-1.4c0-0.1-0.1-0.3-0.2-0.4c-0.6,0.5-1.1,1-1.5,1.6
		C103.4,66.1,103.6,66.1,104,66z"/>
	<path fill="#D91C5C" d="M49,57.1c-0.5,0.1-0.8,0.7-0.6,1.2c0.1,0.5,0.7,0.8,1.2,0.6c0.5-0.1,0.8-0.7,0.6-1.2
		C50,57.2,49.5,56.9,49,57.1z"/>
	<path fill="#D91C5C" d="M44.4,50c-0.3,0.2-0.7,0.8-0.3,2.4c0.9,3.4,3.3,5.3,3.4,5.3l0.2,0.2l0.1-0.3c0.2-0.9,1.5-1.2,1.5-1.2
		l0.3-0.1l-0.1-0.2c-0.4-0.7-0.5-2-0.4-2.8c0.1-1,0.6-1.9,1.3-2.4c0.6-0.4,1.3-0.6,2-0.5c0.9,0.1,1.6,0.7,1.9,1.5
		c0.3,0.7,0.2,1.3-0.3,1.9c-0.4,0.5-1,0.9-1.6,0.9c-0.2,0-0.5,0-0.7-0.2l-0.5-0.5l0.2,0.7c0,0.2,1.2,3.8,5.3,5.7
		c2.6,1.2,4.5,0.8,5.3,0.1c0.5-0.4,0.7-1,0.5-1.5c-0.1-0.5-0.4-0.8-0.8-0.9c-0.4-0.1-0.7,0.1-1,0.4c-0.2,0.3-0.2,0.5-0.2,0.7
		c0.1,0.3,0.4,0.6,0.6,0.7l0,0c0.1,0,0.2,0,0.3,0c0.3-0.1,0.5-0.4,0.4-0.7c-0.1-0.3-0.4-0.5-0.7-0.4c-0.1,0-0.1,0-0.2,0.1
		c0,0,0-0.1,0.1-0.1c0.2-0.2,0.4-0.3,0.6-0.2c0.2,0,0.4,0.3,0.5,0.6c0.1,0.4,0,0.8-0.4,1.1c-0.7,0.6-2.4,0.9-4.9-0.2
		c-3.1-1.4-4.5-3.9-4.9-4.9c0.1,0,0.3,0.1,0.5,0c0.7,0,1.4-0.5,1.9-1.1c0.5-0.7,0.6-1.5,0.3-2.3c-0.4-0.9-1.2-1.6-2.3-1.7
		c-0.8-0.1-1.7,0.1-2.3,0.6c-0.8,0.6-1.3,1.5-1.4,2.7c-0.1,0.7-0.1,1.9,0.3,2.8c-0.4,0.1-1.2,0.5-1.5,1.1c-0.6-0.5-2.4-2.3-3.1-5
		c-0.3-1-0.2-1.8,0.1-2c0.2-0.1,0.4-0.1,0.7,0.1c0.1,0.1,0.2,0.2,0.3,0.3c-0.1,0-0.2,0-0.3,0c-0.3,0.1-0.5,0.4-0.4,0.7
		c0.1,0.3,0.4,0.5,0.7,0.4c0.3-0.1,0.4-0.3,0.4-0.5l0,0c0.1-0.5-0.1-0.9-0.5-1.2C45.1,49.8,44.7,49.7,44.4,50z"/>
	<path fill="#D91C5C" d="M174.3,54.2l0.7,1.3c-1.2-3.4,0.4-6.5,3-7.3c1.4-0.4,2.6-0.2,3.7,0.5c1.8,1.2,1.9,3.8,1.5,4.9
		c-0.5,1.2-1.7,1.7-2.6,1.8c-0.6,0.1-1.6-0.2-2.1-0.7c-0.3-0.3-0.5-0.7-0.4-1.1c0-0.3,0.1-0.5,0.3-0.7c0.5-0.3,1.3-0.1,1.3-0.1
		l0.1,0l0.1-0.1c0.2-0.2,0.2-0.6,0.1-1.1c-0.2-0.6-0.7-1.3-1.7-1.5c-0.8-0.1-1.6,0.3-1.8,0.9c-0.2,0.3-0.1,0.6,0.1,0.9c0,0,0,0,0,0
		c0,0,0,0,0.1,0.1l0,0c0.1,0.1,0.2,0.1,0.4,0.1c0.2-0.1,0.4-0.3,0.3-0.5c-0.1-0.2-0.3-0.3-0.5-0.3c0,0,0,0,0,0
		c0.2-0.4,0.8-0.8,1.4-0.7c0.8,0.1,1.2,0.7,1.4,1.2c0.1,0.2,0.1,0.4,0,0.6c-0.3-0.1-1-0.2-1.5,0.2c-0.3,0.2-0.5,0.5-0.5,1
		c0,0.5,0.1,1,0.5,1.4c0.6,0.6,1.8,0.9,2.4,0.8c1-0.1,2.3-0.8,2.9-2.1c0.6-1.4,0.3-4.1-1.6-5.4c-1.2-0.8-2.6-1-4.1-0.6
		c-2.3,0.7-3.6,2.8-3.7,4.8c-0.6-1.7-1.4-4.8-0.3-7.4c0.7-1.7,1.3-2.3,1.8-2.5l-0.7,0c-0.5,0.4-0.9,1.1-1.4,2.3
		C171.9,49,174.2,54,174.3,54.2z"/>
	<path fill="#D91C5C" d="M176.8,43.2c-0.1,0-0.1,0-0.2,0c-0.2,0.1-0.4,0.3-0.3,0.5c0.1,0.2,0.3,0.4,0.5,0.3c0.1,0,0.2-0.1,0.2-0.2
		c0.2-0.2,0.2-0.4,0.2-0.7c0-0.1-0.1-0.3-0.2-0.4l-0.6,0C176.6,42.9,176.8,43,176.8,43.2z"/>
	<path fill="#D91C5C" d="M138.9,29.4c-0.2,0.1-0.3,0.3-0.3,0.5c0.1,0.2,0.3,0.3,0.5,0.3c0.2-0.1,0.3-0.3,0.3-0.5
		C139.3,29.4,139.1,29.3,138.9,29.4z"/>
	<path fill="#D91C5C" d="M170.4,58.6c-0.3,0.1-0.4,0.4-0.3,0.6c0.1,0.3,0.4,0.4,0.6,0.3c0.3-0.1,0.4-0.4,0.3-0.6
		C171,58.7,170.7,58.5,170.4,58.6z"/>
	<path fill="#D91C5C" d="M138.6,31.4c-0.3,0.1-0.4,0.4-0.3,0.6c0.1,0.3,0.4,0.4,0.6,0.3c0.3-0.1,0.4-0.4,0.3-0.6
		C139.2,31.5,138.9,31.3,138.6,31.4z"/>
	<path fill="#D91C5C" d="M179,70.4c-0.1,0.1-0.2,0.1-0.3,0.2h0.1C178.9,70.6,178.9,70.5,179,70.4L179,70.4z"/>
	<path fill="#D91C5C" d="M170.5,52.9c0.2-0.1,0.3-0.3,0.3-0.5c-0.1-0.2-0.3-0.3-0.5-0.3c-0.2,0.1-0.3,0.3-0.3,0.5
		C170.1,52.8,170.3,53,170.5,52.9z"/>
	<path fill="#D91C5C" d="M155.2,49.5c0.6-0.2,0.9-0.8,0.8-1.4c-0.2-0.6-0.8-0.9-1.4-0.7c-0.6,0.2-0.9,0.8-0.7,1.4
		C154.1,49.4,154.7,49.7,155.2,49.5z"/>
	<path fill="#D91C5C" d="M174.5,61.3c0.5-0.1,0.7-0.6,0.6-1.1c-0.1-0.5-0.6-0.8-1.1-0.6c-0.5,0.1-0.7,0.6-0.6,1.1
		C173.6,61.1,174,61.4,174.5,61.3z"/>
	<path fill="#D91C5C" d="M157.8,59.5L157.8,59.5c-0.9-1.4-2.3-5.3-0.7-6.9c0.7-0.7,1.5-1,2.3-0.9c1,0.1,2,0.9,2.8,2.2
		c2.3,3.9,5.8,8.5,11.4,8.5l0.6,0l-0.4-0.4c0,0-0.6-0.5-0.8-1.2c-0.2-0.7,0-1.6,1.3-2.1l0.2-0.1l-0.1-0.2c-0.3-0.5-0.4-0.9-0.2-1.3
		c0.2-0.5,0.9-0.6,0.9-0.5l0.4-0.1l-0.3-0.3c-0.3-0.4-4.1-5.8-2.2-11.8c0.2-0.6,0.5-1.2,0.7-1.7l-0.4,0c-0.3,0.5-0.5,1.1-0.7,1.6
		c-1.8,5.6,1.3,10.8,2.1,11.9c-0.3,0.1-0.7,0.3-0.9,0.7c-0.2,0.4-0.2,0.9,0.1,1.4c-1.3,0.6-1.5,1.7-1.3,2.5c0.1,0.4,0.4,0.8,0.6,1
		c-5.1-0.3-8.3-4.5-10.5-8.2c-0.8-1.4-1.9-2.3-3.1-2.4c-0.7-0.1-1.3,0.1-2,0.5c0-0.1,0-0.2,0-0.3c-0.1-0.5-0.6-0.7-1.1-0.6
		c-0.4,0.1-0.6,0.5-0.6,0.8c-0.4-0.5-1-0.7-1.6-0.5c-0.2,0.1-0.4,0.1-0.5,0.3c0-0.1,0-0.2,0-0.3c-0.1-0.5-0.6-0.7-1.1-0.6
		c-0.3,0.1-0.6,0.4-0.6,0.7c-3.2-4.9-5.9-11-5.7-17.3c0.1-2,0.4-3.7,0.8-5.2c-0.1,0-0.3,0-0.4-0.1c-0.5,1.5-0.8,3.2-0.8,5.2
		C145.3,44.5,153.2,54.6,157.8,59.5z M154.1,51.8c0.5-0.2,1.1,0.2,1.2,0.7c0.2,0.5-0.2,1.1-0.7,1.2c-0.5,0.2-1.1-0.2-1.2-0.7
		C153.3,52.5,153.6,52,154.1,51.8z"/>
	<path fill="#D91C5C" d="M182.9,44.3c0.5,0.8,1.4,1.1,2.5,0.9c1.2-0.3,2-1.2,2.3-2.4l-0.4,0c-0.2,1-0.9,1.8-2,2
		c-1.1,0.2-1.6-0.4-1.7-0.7c-0.1-0.1-0.1-0.2-0.1-0.3c0.1,0,0.2,0,0.2,0c0.4-0.1,0.6-0.5,0.6-0.9l-1.6,0
		C182.5,43.2,182.6,43.8,182.9,44.3z"/>
	<path fill="#D91C5C" d="M154.6,53.4c0.3-0.1,0.5-0.4,0.4-0.7c-0.1-0.3-0.4-0.5-0.7-0.4c-0.3,0.1-0.5,0.4-0.4,0.7
		C153.9,53.3,154.3,53.4,154.6,53.4z"/>
	<path fill="#D91C5C" d="M175,58.3c0.3-0.1,0.5-0.4,0.4-0.7c-0.1-0.3-0.4-0.5-0.7-0.4c-0.3,0.1-0.5,0.4-0.4,0.7
		C174.4,58.2,174.7,58.4,175,58.3z"/>
	<path fill="#D91C5C" d="M158.1,50.6c-0.1-0.2-0.5-0.6-1-0.7c-0.9-0.2-1.6,0.3-1.8,0.5c-0.4-0.2-1-0.2-1.2-0.2
		c-0.1-0.1-0.3-0.4-0.6-0.6c-0.4-0.3-0.9-0.3-1.2-0.2c-0.3,0.1-0.5,0.3-0.6,0.5c-0.6-1.1-2-4.1-2.3-5.2c-0.2-0.7,0-1.5,0.5-2
		c0.1-0.1,0.2-0.2,0.4-0.2c-0.1,0.1-0.1,0.3,0,0.4c0.1,0.3,0.4,0.5,0.8,0.4c0.3-0.1,0.5-0.4,0.4-0.8c-0.1-0.2-0.2-0.3-0.4-0.4l0,0
		c-0.6-0.2-1-0.1-1.5,0.3c-0.6,0.5-0.8,1.5-0.6,2.4c0.4,1.4,2.2,4.9,2.6,5.6l0.2,0.4l0.1-0.4c0,0,0.2-0.4,0.5-0.6
		c0.2-0.1,0.5,0,0.9,0.2c0.2,0.1,0.5,0.5,0.5,0.6l0.1,0.1l0.1,0c0,0,0.7-0.1,1.2,0.2l0.1,0.1l0.1-0.1c0,0,0.7-0.6,1.5-0.4
		c0.5,0.1,0.8,0.6,0.8,0.6l0.1,0.2l0.2-0.1c0.1,0,2.1-0.7,3.8,1.2c0.6,0.6,1.2,1.5,1.7,2.3c1,1.5,1.9,2.9,2.9,3
		c1,0.1,1.6-0.6,1.8-1.3c0.2-0.6,0-1.1-0.4-1.4l0,0.1c-0.1-0.1-0.3-0.2-0.4-0.1c-0.3,0.1-0.4,0.4-0.3,0.6c0.1,0.3,0.3,0.4,0.6,0.3
		c0.1,0,0.2-0.1,0.2-0.2c0,0.2,0,0.4,0,0.5c-0.2,0.5-0.7,1.1-1.4,1c-0.8-0.1-1.7-1.4-2.6-2.8c-0.6-0.8-1.1-1.7-1.7-2.4
		C160.5,50.2,158.6,50.5,158.1,50.6z"/>
	<path fill="#D91C5C" d="M148,42.4l0.2,0.4l0.2-0.4c0.6-1.2,1.5-1.4,2-1.3c0.7,0.1,1.4,0.5,1.6,1.2c0.2,0.6,0,1.2-0.6,1.7
		c-0.5,0.5-1.4-0.3-1.4-0.3l-0.3-0.3l0,0.4c-0.1,1.3,1.7,4.1,1.7,4.3l0.1,0.2l0.2-0.2c0.1-0.2,0.3-0.2,0.4-0.2
		c0.2,0,0.4,0.3,0.5,0.4l0.3,0.6l0-0.7c0-0.3,0.3-0.9,0.7-1.2c0.4-0.3,0.8-0.4,1.3-0.3c2.1,0.3,1.9,2.2,1.9,2.3l0,0.4l0.3-0.2
		c0.3-0.2,0.6-0.2,0.8-0.1c0.5,0.2,0.7,0.8,0.7,0.8l0.1,0.2l0.2-0.1c1.8-1.3,1.5-2.9,1.2-4.4c-0.1-0.5-0.2-1-0.2-1.4
		c0-0.7,0.2-1.3,0.6-1.5c0,0,0,0,0,0c-0.1,0.1-0.1,0.3-0.1,0.5c0.1,0.3,0.4,0.5,0.8,0.4c0.3-0.1,0.5-0.4,0.4-0.8
		c0-0.1-0.1-0.3-0.3-0.3l0,0c-0.4-0.2-0.8-0.3-1.1-0.1c-0.5,0.3-0.8,0.9-0.8,1.8c0,0.5,0.1,0.9,0.2,1.4c0.3,1.3,0.5,2.7-0.9,3.8
		c-0.1-0.2-0.4-0.6-0.8-0.8c-0.3-0.1-0.6-0.1-0.9,0c0-0.6-0.3-2.1-2.2-2.4c-0.6-0.1-1.1,0.1-1.6,0.4c-0.4,0.3-0.6,0.7-0.7,1.1
		c-0.1-0.1-0.3-0.2-0.5-0.3c-0.2,0-0.4,0.1-0.5,0.2c-0.3-0.6-1.3-2.4-1.5-3.5c0.4,0.2,1,0.5,1.5,0c0.7-0.6,1-1.4,0.7-2.2
		c-0.3-0.8-1.1-1.4-2-1.5c-0.8-0.1-1.6,0.4-2.1,1.2c-0.4-1.2-1.7-5.1-1.1-9c0.2-1.5,0.8-2.4,1.4-2.4c0.5-0.1,0.9,0.3,1,0.7
		c0,0.1,0.1,0.2,0.1,0.3c-0.2-0.1-0.3-0.2-0.5-0.1c-0.3,0.1-0.5,0.4-0.4,0.8c0.1,0.3,0.4,0.5,0.8,0.4c0,0,0.1-0.1,0.1-0.1l0,0
		c0,0,0,0,0,0c0.1-0.1,0.2-0.2,0.3-0.4c0.2-0.3,0.3-0.7,0.1-1c-0.2-0.6-0.8-1-1.4-0.9c-0.5,0.1-1.4,0.5-1.8,2.8
		C146,37.4,148,42.3,148,42.4z"/>
	<path fill="#D91C5C" d="M157.7,37c-0.2,0.1-0.4,0.1-0.6,0.1l-0.3,0l0.1,0.3c0,0,1.8,3.3,6.2,2.7c1.9-0.3,2.8-0.9,3.2-1.5
		c-0.1-0.1-0.2-0.2-0.3-0.3c-0.3,0.5-1.1,1.1-2.9,1.4c-3.5,0.5-5.1-1.6-5.6-2.3c0.1,0,0.2,0,0.3-0.1c0.8-0.2,1.4-0.8,1.7-1.5
		c-0.1-0.1-0.2-0.2-0.3-0.3C159,36.2,158.5,36.7,157.7,37z"/>
	<path fill="#D91C5C" d="M154.5,33.5c-0.2,0.3-1.7,3.2,1.7,6.7c1.6,1.6,2.4,3.4,2.3,4.8c-0.1,0.6-0.3,1.1-0.6,1.3
		c-0.4,0.3-0.7,0.4-1,0.3c-0.2-0.1-0.3-0.2-0.3-0.4c0-0.1,0-0.2,0.1-0.3c0.1,0.1,0.3,0.1,0.4,0.1c0.3-0.1,0.4-0.4,0.3-0.6
		c0-0.1-0.1-0.2-0.2-0.3l0-0.1c-0.1,0-0.1,0-0.2,0c-0.1,0-0.1,0-0.2,0c-0.1,0-0.2,0.1-0.3,0.3c0,0,0,0,0,0c-0.2,0.3-0.3,0.6-0.2,1
		c0.1,0.4,0.4,0.6,0.6,0.7c0.4,0.1,0.8,0,1.3-0.3c0.4-0.3,0.7-0.9,0.8-1.6c0.1-0.8,0-2.8-2.4-5.2c-3.2-3.2-1.9-5.9-1.7-6.2
		c0.3-0.4,0.5-0.7,0.9-1c-0.1-0.1-0.2-0.2-0.3-0.2C155.1,32.7,154.8,33.1,154.5,33.5z"/>
	<path fill="#D91C5C" d="M164.1,37.5L164.1,37.5c0.2,0.1,0.3,0.3,0.5,0.2c0.1,0,0.2-0.1,0.3-0.1c-0.3-0.2-0.6-0.3-0.9-0.4
		c0,0.1,0.1,0.1,0.1,0.2C164.1,37.4,164.1,37.4,164.1,37.5z"/>
	<path fill="#D91C5C" d="M136.3,37c5.5,8.2,11.8,14.2,11.6,14.3c0.2-0.1-6.7-8.8-11.1-18.9c-0.5-1.1-0.9-2.3-1.3-3.5
		c-1.1,0.3-2.2,0.6-3.3,1.1c0.6,1.3,1.3,2.5,2,3.7c0.2,0.3,0.4,0.7,0.6,1c-1.3-1.4-2.7-2.7-4.1-4c-0.1,0.1-0.2,0.1-0.4,0.2
		C132.6,32.8,134.5,34.9,136.3,37z"/>
	<path fill="#D91C5C" d="M85.5,43c0.2-0.1,0.3-0.1,0.5-0.2l-1.8,0C84.5,43,85,43.1,85.5,43z"/>
	<path fill="#D91C5C" d="M139.9,37.3l0.1-0.6c0,0,0.1-0.5,0.6-0.7c0.7-0.2,1.1,0.4,1.3,0.5c-0.1-0.4-1-4.1-0.8-8.4
		c-0.1,0-0.2,0-0.4,0c-0.1,3.4,0.5,6.4,0.7,7.6c-0.3-0.1-0.6-0.2-0.9-0.1c-0.4,0.1-0.6,0.3-0.7,0.6c-1.5-2.6-2.5-5.1-3.3-7.5
		c-0.1,0-0.3,0.1-0.4,0.1c0.8,2.6,2,5.2,3.6,8L139.9,37.3z"/>
	<path fill="#D91C5C" d="M140.7,36.6c-0.3,0.1-0.5,0.4-0.4,0.7c0.1,0.3,0.4,0.5,0.7,0.4c0.3-0.1,0.5-0.4,0.4-0.7
		C141.4,36.7,141.1,36.5,140.7,36.6z"/>
	<path fill="#D91C5C" d="M141.9,36.7C141.9,36.7,141.9,36.7,141.9,36.7C141.8,36.7,141.9,36.7,141.9,36.7L141.9,36.7z"/>
	<path fill="#D91C5C" d="M224.4,67.2c-0.2-0.1-0.4-0.3-0.6-0.4c-2.8-2-6.2-3.5-9-4.1c-2.9-0.6-4.9-0.3-5.3-0.3
		c-1.4,0.1-2.4,1.2-2.2,2.1c0.2,1,1.3,1.6,2.5,1.4c0.3,0,2.1-0.4,4.5-0.3c2.4,0.2,5.6,1.1,8.5,2.6c1.4,0.7,2.7,1.6,4,2.4l1.7,0
		c-0.9-0.8-1.9-1.7-2.9-2.5c-3.1-3-5.7-6.9-7.9-11.9c-2-4.5-3.3-9.1-4.4-13.6l-0.2,0c1.1,4.3,2.5,9.2,4.4,13.6
		C219.5,60.8,221.8,64.3,224.4,67.2z"/>
	<path fill="#D91C5C" d="M220.8,47.6c0.3,0.1,0.5,0,0.6-0.3c0.1-0.3,0-0.5-0.3-0.6c-0.3-0.1-0.5,0-0.6,0.3
		C220.4,47.2,220.6,47.5,220.8,47.6z"/>
	<path fill="#D91C5C" d="M225.4,70.7l0.3,0c0,0,0,0,0,0C225.6,70.6,225.5,70.6,225.4,70.7z"/>
	<path fill="#D91C5C" d="M228.3,43.1c-1.1,1.9-2.1,3.5-2.6,5.5c-1.1,3.8-0.9,7.9,0.6,12.1c1,2.8,1.6,3.8,1.6,3.9l0.2,0.3l0-0.4
		c0.1-0.4,0.2-0.7,0.5-0.9c0.2-0.1,0.5-0.1,0.8,0.1l0.3,0.2l-0.2-0.3c0,0-2-4.2-1.9-7.5l0-0.1l-0.1,0c0,0-0.8-0.3-0.5-1.2l0-0.1
		l-0.1-0.1c0,0-0.6-0.4-0.6-1.2c0.1-0.8,0.7-1,0.8-1l0.1,0l0-0.1c0,0,0-0.7,0.6-0.9l0.1,0l0-0.1c0,0,0.4-4.4,2.8-8.5l-0.3,0
		c-2.2,3.9-2.7,7.8-2.7,8.4c-0.5,0.2-0.7,0.7-0.7,1c-0.2,0.1-0.8,0.4-0.9,1.2c-0.1,0.7,0.4,1.2,0.6,1.3c-0.3,0.8,0.3,1.2,0.6,1.3
		c0,2.9,1.4,6.3,1.8,7.3c-0.3-0.1-0.5-0.1-0.7,0.1c-0.3,0.1-0.5,0.4-0.6,0.7c-0.2-0.5-0.7-1.6-1.4-3.6c-1.5-4.2-1.7-8.2-0.6-11.9
		c0.5-1.9,1.5-3.5,2.6-5.4l0.1-0.2c0.1-0.1,0.1-0.2,0.2-0.4l-0.3,0c0,0.1-0.1,0.2-0.1,0.2L228.3,43.1z"/>
	<path fill="#D91C5C" d="M215,45.8c1.5,6.4,3.7,11.3,3.7,11.3l0.9,1.9l-0.7-2c-1.2-4-2.2-7.9-1.1-9.5c0.4-0.6,0.8-0.9,1.2-0.9
		c0.6,0,1,0.4,1,0.4l0.1,0.1l0.1-0.2c0,0,0.1-0.1,0.2-0.3c0.1-0.2,0.3-0.3,0.4-0.4c0.4-0.1,0.7,0.1,0.7,0.1l0.1,0.1l0-0.2
		c0.4-1.3,0.9-2.4,1.5-3.6l-0.3,0c-0.6,1.1-1.1,2.2-1.4,3.4c-0.2-0.1-0.5-0.2-0.8-0.1c-0.2,0.1-0.4,0.2-0.6,0.5
		c-0.1,0.1-0.1,0.2-0.1,0.2c-0.2-0.2-0.6-0.4-1-0.3c-0.5,0-1,0.4-1.4,1c-0.9,1.3-0.5,4,0.5,7.5c-0.8-2-1.9-5.3-2.8-9.2
		c-0.3-1.2-0.3-2.2-0.2-3l-0.2,0C214.7,43.6,214.7,44.6,215,45.8z"/>
	<path fill="#D91C5C" d="M232.4,45.2c0,0,1.6-1.7,2.7-1.2c1.3,0.5,1,2,0.8,2.5l0.3-0.6c0,0,0.9-1.4,2.2-3.2l-0.3,0
		c-0.8,1.1-1.5,2.1-1.8,2.6c0-0.5-0.2-1.2-1.1-1.6c-0.7-0.3-1.3-0.1-1.8,0.3c0.3-0.4,0.7-0.9,1.1-1.4l-0.3,0
		c-0.7,0.8-1.3,1.6-1.6,2.2L232.4,45.2z"/>
	<path fill="#D91C5C" d="M247.4,59.5c-1.3,0.1-2.6,0.6-3.7,1.4c-0.7,0.5-1.3,1.2-1.7,2c-0.4,0.6-0.8,1.5-1,2.2
		c0.7-1.2,1.3-2.4,2.5-3.2c0.6-0.4,1.3-0.6,1.9-0.4c0.5,0.1,1,0.5,1.2,1c0.5,1.2-0.4,2.4-1.1,3.3c-0.3,0.4-0.5,0.7-0.6,1
		c-0.5,0.9-0.9,2.1-0.9,3.8l0.2,0c0-1.7,0.4-2.8,0.9-3.7c0.1-0.3,0.4-0.6,0.6-0.9c0.7-1,1.5-3,1.1-3.6c-0.4-0.5-0.7-1-1.4-1.2
		c-0.7-0.2-1.5,0-2.1,0.5c-0.2,0.1-0.3,0.3-0.5,0.4c0.8-1,2.2-2.1,4.6-2.3c0.9-0.1,1.6,0,2.1,0.2v-0.3
		C248.9,59.5,248.2,59.5,247.4,59.5z"/>
	<path fill="#D91C5C" d="M244.9,70.7l0.2,0c0.5-2.8,2.4-5.3,4.4-5.7v-0.2C247.4,65.2,245.4,67.7,244.9,70.7z"/>
	<path fill="#D91C5C" d="M243.7,50.4c0.1,0.1,0.1,0.1,0.2,0.1c0.4,0.1,0.8,0,0.9-0.4c0.1-0.2,0.1-0.4-0.1-0.6
		C244.3,49.8,244,50.1,243.7,50.4z"/>
	<circle fill="#D91C5C" cx="244.1" cy="55.4" r="0.2"/>
	<circle fill="#D91C5C" cx="240" cy="57.1" r="0.3"/>
	<path fill="#D91C5C" d="M243,59.5c-0.1-0.1-0.3,0-0.4,0.2c-0.1,0.1,0,0.3,0.2,0.3c0.1,0.1,0.3,0,0.4-0.2
		C243.2,59.7,243.1,59.6,243,59.5z"/>
	<circle fill="#D91C5C" cx="237.8" cy="61.2" r="0.4"/>
	<circle fill="#D91C5C" cx="239.2" cy="57.9" r="0.5"/>
	<path fill="#D91C5C" d="M240.4,48.4L240.4,48.4c2.9-3,5.7-4.7,7.8-5.7l-0.5,0c-1.6,0.8-3.6,2-5.7,4c1-1.1,2.5-2.6,4.6-4l-0.4,0
		C242.4,45.4,240.5,48.4,240.4,48.4z"/>
	<circle fill="#D91C5C" cx="243.9" cy="57" r="0.3"/>
	<path fill="#D91C5C" d="M243.5,52.8c-0.1,0-0.3,0-0.3,0.1c0,0.1,0,0.3,0.1,0.3c0.1,0,0.3,0,0.3-0.1C243.7,53,243.6,52.9,243.5,52.8
		z"/>
	<path fill="#D91C5C" d="M245.8,58.6c-0.9,0.4-1.8,0.9-2.5,1.6c0,0-0.1,0.1-0.1,0.1c-0.3,0.3-0.6,0.5-0.9,0.8
		c-0.5,0.5-0.9,1-1.2,1.6l0,0c-0.4,0.6-0.7,1.3-0.9,2c-0.7,2-0.6,4-0.2,6l0.2,0c-0.4-2-0.4-4,0.2-5.9c0.5-1.4,1.2-2.6,2.1-3.6
		c0.2-0.2,0.4-0.3,0.5-0.5c0.1-0.1,0.3-0.3,0.4-0.4c0.9-0.6,1.9-1.1,3.1-1.3c1-0.2,2-0.3,3-0.2v-0.2c-1-0.1-2.1,0-3.1,0.2
		c-0.4,0.1-0.8,0.2-1.1,0.4c0.2-0.1,0.4-0.2,0.6-0.3c1-0.4,2.2-0.7,3.7-0.6v-0.2C248,57.9,246.7,58.2,245.8,58.6z"/>
	<path fill="#D91C5C" d="M245.4,64.8c0.8-1,0.8-2,0.2-2.5c-1.2-1.1-2.9,1-3.3,1.9c-0.7,1.4-1.1,3.1-1.2,4.7c0,0.6,0,1.2,0.1,1.9
		l2.2,0c0-0.3,0-0.7,0.1-1C243.9,67,245.1,65.4,245.4,64.8z"/>
	<path fill="#D91C5C" d="M239.3,66.5c0.1-3.8,2.4-6.9,2.6-7.1c0.4-0.6,0.5-1.2,0.1-1.5c-0.3-0.3-1,0-1.5,0.6c-0.2,0.2-1,1.7-1.6,3.8
		c-0.1-0.1-0.2-0.2-0.3-0.3c-0.8-0.2-1.3,0.9-1.4,1.7c-0.1,0.8-0.1,1.7,0,2.4c0.2,1.6,0.7,2.9,1.1,4c0.1,0.2,0.1,0.3,0.2,0.5l1.2,0
		C239.3,69.5,239.1,68,239.3,66.5z"/>
	<path fill="#D91C5C" d="M237.7,48.1c0,0.1-0.1,0.1-0.1,0.2c-0.8,1.4-1.3,2.8-1.7,4.1c-0.1,0.2-0.1,0.4-0.2,0.6
		c-0.1,0.4-0.2,0.7-0.3,1.1c-1.2,4.8-1,9.6-0.1,13.1c0.3,1.3,0.8,2.5,1.2,3.6l1.7,0c-0.1-0.2-0.1-0.3-0.2-0.5
		c-0.4-1.1-0.9-2.5-1.2-4.1c-0.1-0.8,0.1-3.1,0.2-3.4c0,0,0.1-0.2,0.1-0.2c0.1-0.3,0-2.1,0.1-2l0.1,0.1l0.1,0c0,0,0.5-0.2,1,0
		c0.5,0.3,0.5,0.8,0.5,0.8l0.1-0.1c0,0,0.8-2.3,1.3-3.1c0.4-0.6,1-0.9,1.5-0.9c0.4,0,0.7,0.3,0.9,0.7c0.2,0.5,0,1-0.5,1.6l0,0
		c0,0,0.5-0.3,0.8-0.3c0.2,0,0.3,0.1,0.4,0.3l0.1,0.1l0.1-0.1c0,0,0.8-0.7,1.9-1.5c0.4-0.3,1.7-1.4,1.7-2.3c0-0.3-0.1-0.5-0.3-0.7
		c-0.3-0.2-0.6-0.3-0.9-0.2c-0.3,0.1-0.5,0.4-0.6,0.7l0,0c0,0.2,0.1,0.4,0.3,0.4c0.2,0.1,0.5,0,0.6-0.3c0.1-0.2,0-0.5-0.3-0.6
		c0,0,0,0-0.1,0c0,0,0.1,0,0.1-0.1c0.2-0.1,0.5,0,0.7,0.2c0.1,0.1,0.2,0.3,0.2,0.5c0,0.6-0.8,1.5-1.6,2.2c-0.9,0.7-1.5,1.2-1.8,1.4
		c-0.2-0.2-0.3-0.3-0.5-0.3c-0.1,0-0.2,0-0.3,0c0.3-0.4,0.4-0.8,0.2-1.2c-0.2-0.5-0.6-0.8-1.1-0.8c-0.6-0.1-1.3,0.3-1.8,1
		c-0.2,0.2-0.3,0.6-0.5,0.9c-0.3-0.3-0.9-0.3-1.3,0c-0.4,0.3-0.6,0.5-0.6,0.6c0.1-0.5,0.4-1,0.6-1.5c0.4-0.7,0.8-1,1.1-0.8l0.1,0.1
		l0-0.1c0,0,0.1-0.4,0.5-0.4c0.4,0,0.7,0.4,0.7,0.5l0-0.1c0,0-0.1-1.9,0.8-2.4c0.3-0.2,0.6-0.2,0.8-0.1c0.2,0.1,0.3,0.4,0.3,0.5
		c0,0.2-0.1,0.3-0.2,0.4c0-0.1-0.1-0.3-0.2-0.3c-0.2-0.1-0.4,0-0.4,0.2c-0.1,0.2,0,0.4,0.2,0.4c0.1,0,0.1,0,0.2,0
		c0.1,0,0.2,0,0.2-0.1c0.2-0.1,0.5-0.3,0.5-0.6c0-0.3-0.2-0.6-0.4-0.8c-0.3-0.2-0.6-0.2-1,0c-0.8,0.4-0.9,1.6-0.9,2.2
		c-0.1-0.1-0.3-0.2-0.5-0.2c-0.4,0-0.6,0.2-0.7,0.4c-0.2-0.1-0.4,0-0.6,0.2c0.6-1,1.2-2,1.6-2.5c1.5-1.9,2.8-3.1,3.1-3.4
		c0.3,0.1,1.1,0.4,1.9-0.4c0.5-0.6,0.3-1.2,0.2-1.5c1.6-0.9,2.9-1.5,4.1-1.6v-0.2c-1.3,0.1-2.7,0.8-4.3,1.7l-0.1,0.1l0.1,0.1
		c0,0,0.5,0.7-0.1,1.3c-0.8,0.8-1.6,0.4-1.6,0.3l-0.1-0.1l-0.1,0.1c0,0-1.5,1.3-3.2,3.5c-0.5,0.6-1.4,2.2-2.1,3.6c0,0,0,0,0,0.1l0,0
		c-0.2,0.4-0.3,0.8-0.5,1.1c0,0-0.1,0-0.1,0c-0.2,0,0.2-0.5,0.1-0.5c0.5-1.3,2.3-6.3,7.3-9.8c1.8-1.3,3.4-2,4.8-2.4v-0.3
		c-1.4,0.4-3,1.2-4.9,2.5c-5.7,4-7.9,10.5-7.9,10.5l-0.1,0.2c-0.1,0.1-0.1,0.2-0.2,0.4c0,0,0,0,0,0c0.4-1.9,1.2-4,2.4-6
		c1.9-3.1,5.1-6.1,8.6-7.9c0.6-0.3,1.4-0.7,2.2-1v-0.3c-0.8,0.3-1.6,0.7-2.3,1c-3.5,1.9-6.7,4.8-8.6,8c-1.9,3-2.6,6.3-2.9,8.9
		c0.1-2.1,0.4-4.4,1.3-6.8c1.5-4.3,4.3-7.8,8.2-10.5c1.3-0.9,2.8-1.6,4.3-2.2v-0.2c-1.6,0.6-3.1,1.3-4.4,2.2
		c-4,2.7-6.8,6.3-8.3,10.7c-0.7,2.1-1.1,4.2-1.3,6c0.1-3.5,1-7.3,2.8-10.7c1.7-3.4,4.2-6.3,6.9-8.3l-3.7,0c-1.4,1.6-2.6,3.3-3.6,5
		C237.9,47.8,237.8,48,237.7,48.1z"/>
	<path fill="#D91C5C" d="M228.3,51.7c-0.4,0-0.7,0.4-0.7,0.8c0,0,0,0,0,0c-0.5,0.2-0.8,0.7-0.6,1.2c0.3,0.7,0.7,0.7,1,0.6
		c-0.5,0-0.8,0.6-0.6,1c0.1,0.3,0.5,0.3,0.6,0.3c0.1,3,0.9,5.9,2.4,8.8c-0.4-0.3-0.9-0.4-1.4-0.2c-0.6,0.2-0.8,0.8-0.6,1.4
		c0.1,0.4,0.6,1.5,3,5l0,0l3,0c-0.5-0.7-0.9-1.4-1.3-2.1c-2.2-4.1-3.8-8.5-3.9-12.8c-0.1-4.4,1-8.2,3.5-11.8
		c0.3-0.4,0.6-0.8,0.9-1.2l-0.3,0c-0.3,0.4-0.5,0.7-0.8,1.1c-2.5,3.6-3.6,7.5-3.5,11.9c0.1,3.3,1.1,6.8,2.5,10.1
		c-0.2-0.3-0.4-0.5-0.5-0.8c-3.2-6-3.6-12.2-1.1-18.4c0.6-1.4,1.3-2.7,2-3.9l-0.3,0c-0.7,1.2-1.4,2.5-1.9,3.8
		C229,48.3,228.5,50,228.3,51.7z"/>
	<path fill="#D91C5C" d="M233.8,66.3c-0.4-1-0.7-2-0.9-3c-0.9-3.7-0.6-7.6,0.1-10.3c0.8-2.7,1.8-4.6,1.9-5c0.6-1.3,0.6-2.5,0-3
		c-0.6-0.4-1.8,0.4-2.5,1.9c-0.1,0.4-1.1,2.4-1.7,5.6c-0.5,3.2-0.4,7.3,0.9,11.1c0.8,2.7,2.2,5.1,3.5,7.1l0.8,0
		c-0.1-0.2-0.2-0.4-0.3-0.6c-0.6-1.1-1.1-2.3-1.4-3.5c-1.6-5.4-1.3-10.9,0.8-16.1c1.1-2.7,2.6-5.3,4.6-7.8l-0.3,0
		c-1.9,2.4-3.4,5-4.5,7.7C232.7,55.6,232.4,60.9,233.8,66.3z"/>
	<path fill="#D91C5C" d="M221.4,53.3c0.1,5,3,10.5,6.6,15.2c-0.8-0.9-3.9-4.5-5.6-8.7c-2.3-4.9-2-9.7-1.9-10.6
		c0.1-0.9-0.3-1.8-1.1-2c-0.7-0.2-1.5,0.6-1.6,1.8c-0.3,0.6,0.5,6.6,3.4,11.4c2.4,4,5.2,7,8.4,10.3l1.7,0c-1.5-1.7-2.7-3.5-3.7-5.6
		c-1.7-3.6-3.4-7.8-3.2-11.9c0-5.3,2.2-8.3,2.5-8.8c0.4-0.6,0.7-1.2,1-1.7l-4.1,0C223.2,43.8,221.1,47.7,221.4,53.3z"/>
	<path fill="#D91C5C" d="M221.1,69.7c0.1,0,0.3,0,0.3-0.1c0-0.1,0-0.3-0.1-0.3c-0.1,0-0.3,0-0.3,0.1C220.9,69.5,221,69.6,221.1,69.7
		z"/>
	<path fill="#D91C5C" d="M213.6,49.6c1.2,3.9,2.8,7.5,4.8,10.8l0.1,0.2c0.1,0.2,0.3,0.4,0.4,0.7c0,0-0.1-0.1-0.2-0.1
		c-0.5-0.2-1.1,0.1-1.2,0.6c0,0,0,0,0,0c-0.1-0.2-0.3-0.3-0.5-0.3c-0.4-0.1-0.9,0.2-0.9,0.7c0,0,0,0.1,0,0.1c-2.1-0.6-4.5-1-6.8-0.6
		c-2.3,0.4-2.8,1.6-2.9,2.2c-0.1,1,0.5,2.1,1.4,2.6c1,0.5,2.5,0.3,4,0.2c1.2-0.1,2.5-0.3,3.7-0.1c3.5,0.5,6.3,1.6,9.6,3.7
		c-0.1,0.1-0.3,0.2-0.4,0.4c0,0,0,0,0,0l0.3,0c0.1-0.2,0.4-0.3,0.4-0.3l0.4,0l-0.3-0.2c-3.4-2.3-6.3-3.4-9.9-3.9
		c-1.2-0.2-2.5,0-3.8,0.1c-1.5,0.2-2.9,0.3-3.9-0.2c-0.8-0.4-1.4-1.4-1.3-2.3c0.1-1,1.1-1.8,2.7-2c5.9-1,12.5,3,12.6,3l0,0
		c-1.3-1.2-2.2-2.9-3.2-4.5l-0.1-0.2c-2-3.3-3.6-6.9-4.8-10.7c-0.3-1-0.6-1.9-0.8-2.9c-0.3-1.3-0.7-2.6-1.1-3.8l-0.3,0
		c0.4,1.3,0.8,2.6,1.1,3.9C213.1,47.6,213.4,48.6,213.6,49.6z"/>
	<path fill="#D91C5C" d="M217,70.7l1.5,0c0.9-0.1,1.8-0.1,2.7,0l1.5,0C221.1,70.4,219,70.2,217,70.7z"/>
	<path fill="#D91C5C" d="M222.4,69.7c0.2,0.1,0.3,0,0.4-0.2c0.1-0.2,0-0.3-0.2-0.4c-0.2-0.1-0.3,0-0.4,0.2
		C222.1,69.5,222.2,69.7,222.4,69.7z"/>
	<circle fill="#D91C5C" cx="212.2" cy="52.3" r="0.2"/>
	<path fill="#D91C5C" d="M211.8,54.6c0,0.1,0,0.3,0.1,0.3c0.1,0,0.3,0,0.3-0.1c0-0.1,0-0.3-0.1-0.3C212,54.4,211.9,54.5,211.8,54.6z
		"/>
	<circle fill="#D91C5C" cx="213.1" cy="54.8" r="0.3"/>
	<path fill="#D91C5C" d="M215.7,60.6c-0.2-0.1-0.4,0-0.4,0.2c-0.1,0.2,0,0.4,0.2,0.4c0.2,0.1,0.4,0,0.4-0.2
		C216,60.9,215.9,60.7,215.7,60.6z"/>
	<path fill="#D91C5C" d="M205.2,59.3c1.7-0.1,3.4,0.1,5,0.5c1.6,0.4,3.2,1.1,4.8,1.8l0.3,0.1l0,0c-0.3-0.3-0.3-0.6-0.3-0.8
		c0-0.2,0.1-0.3,0.2-0.4c0.4-0.2,0.9,0.1,0.9,0.1l0.1,0.1l0.1-0.1c0.1-0.3,0.3-0.4,0.5-0.5c0.7-0.1,1,0.4,1,0.4
		c-0.4-0.7-2-3.6-3.3-6.8c-0.2-0.6-0.5-1.1-0.7-1.6c-0.7-1.8-1.2-2.9-2-3.3c-0.4-0.2-1-0.2-1.4,0.1c-0.3,0.2-0.4,0.4-0.5,0.7
		c0,0,0,0.1,0,0.1c0,0.1,0.1,0.2,0.2,0.3c0.2,0.1,0.4,0,0.4-0.2c0.1-0.2,0-0.4-0.2-0.4c0,0-0.1,0-0.1,0c0.1-0.1,0.2-0.2,0.3-0.3
		c0.3-0.2,0.8-0.2,1.1,0c0.8,0.3,1.2,1.5,1.9,3.2c0.2,0.5,0.4,1,0.7,1.6c1,2.3,2.3,4.9,3.1,6c-0.2,0-0.4-0.1-0.6,0
		c-0.3,0.1-0.5,0.2-0.6,0.5c-0.2-0.1-0.6-0.3-1,0c-0.2,0.1-0.3,0.3-0.3,0.5c0,0.1,0,0.3,0,0.4c-1.5-0.6-3-1.3-4.6-1.7
		c-1.6-0.4-3.3-0.6-5-0.5c-2.8,0.1-5.1-0.4-6.1-1.4c-0.4-0.4-0.6-0.9-0.6-1.4c0-0.7,0.2-1.2,0.6-1.4c0.4-0.2,0.8-0.2,1.2,0
		c0.6,0.3,0.5,0.7,0.5,0.9c0,0,0,0.1,0,0.1c0-0.1-0.2-0.2-0.3-0.3c-0.3-0.1-0.6,0-0.7,0.3c-0.1,0.3,0,0.6,0.3,0.7
		c0.2,0.1,0.4,0,0.6-0.2c0.2-0.1,0.3-0.3,0.4-0.6c0.1-0.5-0.1-0.9-0.6-1.2c-0.5-0.2-1-0.2-1.5,0c-0.5,0.3-0.7,0.9-0.7,1.6
		c0,0.6,0.3,1.1,0.7,1.5C200,58.9,202.3,59.4,205.2,59.3z"/>
	<circle fill="#D91C5C" cx="217" cy="60.7" r="0.4"/>
	<path fill="#D91C5C" d="M215.6,59c0.2-0.5-0.1-1-0.5-1.2c-0.5-0.2-1,0.1-1.2,0.5c-0.2,0.5,0.1,1,0.5,1.2
		C214.9,59.7,215.4,59.4,215.6,59z"/>
	<circle fill="#D91C5C" cx="212.4" cy="58.6" r="0.5"/>
</g>
<g>
	<g>
		<g>
			<path fill="#FFFFFF" d="M130.2,51.2l0,0.1l-0.2,0.1l0,0l-0.1,0l0,0l-0.1,0l0,0.1l-0.1,0l0,0.1l-0.1,0.1l0,0l0,0l0,0.1l0,0
				l1.1,3.8l0,0l0,0.1l0,0l0,0l0.3,0.2l0.1,0l0,0l0.1,0l0,0l0.2-0.1l0,0.1l-2.3,0.6l0-0.1l0.2-0.1l0,0l0.1,0l0.1-0.1l0.1-0.2l0,0
				l0,0l0-0.1l0,0l-1.1-3.8l0,0l0-0.1l0,0l0,0l-0.2-0.1l-0.2,0l-0.1,0l0,0L128,52l0-0.1L130.2,51.2z"/>
			<path fill="#FFFFFF" d="M132.1,51.3l0.3,1l0.8-0.2l0.1,0.2l-0.8,0.2l0.7,2.5l0,0l0,0.1l0.2,0.1l0,0l0,0l0.2-0.1l0,0l0.1,0l0-0.1
				l0,0l0.1-0.2l0.2,0.1l-0.1,0.2l0,0l-0.1,0.2l0,0l0,0.1l0,0l-0.1,0.1l-0.1,0l0,0l-0.1,0l0,0l-0.4,0.1l-0.1,0l-0.1,0l-0.2,0
				l-0.1-0.1l-0.1-0.1l0-0.1l0,0l-0.8-2.7l-0.5,0.1l0-0.1l0.2-0.2l0.1-0.1l0,0l0.2-0.4l0,0l0.1-0.1l0.1-0.2l0-0.2l0-0.1l0,0
				L132.1,51.3z"/>
			<path fill="#FFFFFF" d="M134.1,50L134.1,50l0.1,0l0,0l0,0l0.2,0.1l0.1,0.1l0,0.1l0,0l0.1,0.4l0,0l0,0.1l0,0l0,0.1l0,0.2l-0.1,0.1
				l0,0l-0.2,0.4l0,0l-0.2,0.2l-0.1,0.1l-0.1-0.1l0-0.1l0,0l0.1-0.2l0,0l0.2-0.4l0,0l0.1-0.1l0-0.2l0-0.1l0,0l-0.1-0.2l-0.1-0.1
				l-0.1,0l0,0l-0.2,0.1l-0.1,0l0,0l-0.2-0.1l0,0l0,0l-0.1-0.2l0-0.2l0-0.1l0,0l0,0l0.1,0l0,0L134.1,50z"/>
			<path fill="#FFFFFF" d="M137,50.9L137,50.9l0.2,0l0.2,0l0.1,0l0.1,0l0.1-0.2l0.1,0l0.1,0.2l0,0l0.1,0.5l0,0l0.1,0.2l-0.1,0l0,0
				l0,0l0-0.1l0,0l0,0l0,0l0-0.1l-0.1,0l0,0l-0.1-0.1l0,0l-0.3-0.2l0,0l-0.1-0.1l0,0l0,0l-0.1,0l0,0l-0.2,0.1l0,0l-0.1,0l0,0l0,0
				l-0.1,0.2l0,0l0,0l0,0l0,0l0.1,0.2l0.2,0.2l0.2,0.1l0,0l0.1,0.1l0,0l0,0l0,0l0.1,0.1l0,0l0.6,0.1l0.4,0.1l0.3,0.2l0,0l0.1,0.1
				l0,0l0,0l0,0.1l0,0l0,0.1l0,0l0.1,0.3l0,0l0,0.1l0,0l0,0.1l-0.1,0.2l-0.1,0.1l0,0l-0.1,0.1l0,0l-0.1,0.1l-0.1,0l0,0l-0.1,0l0,0
				l-0.1,0l0,0l-0.5,0.1l0,0l-0.2,0l0,0l-0.3,0l-0.1,0l0,0l0,0l0,0.1l0,0l-0.1,0l-0.2-0.6l0,0l-0.2-0.6l0.1,0l0.1,0.1l0,0.1l0,0l0,0
				l0.1,0l0,0.1l0,0l0,0l0.2,0.2l0.3,0.2l0,0l0.1,0.1l0.1,0l0.1,0l0.1,0l0,0l0.3-0.1l0,0l0.1,0l0.1-0.1l0.2-0.3l0,0l0,0l0-0.1l0,0
				l-0.1-0.2l-0.1,0l0,0l0,0l-0.2-0.2l0,0l-0.1-0.1l0,0l-0.1,0l0,0L137,53l-0.1,0l0,0l0,0l0,0l-0.1,0l0,0l-0.4-0.2l-0.2-0.2l0-0.1
				l0,0L136,52l0,0l0-0.1l0-0.2l0.1-0.1l0,0l0,0l0.1-0.1l0,0l0-0.1l0.1,0l0,0l0,0l0-0.1l0.1,0l0,0L137,50.9z"/>
			<path fill="#FFFFFF" d="M143.4,49.1L143.4,49.1l0.2,0l0.1,0l0.1,0l0,0l0,0l0,0l0.1,0l0.1,0.1l0,0l0.3,0.2l0.1,0.1l0,0.1l0,0
				l0.6,2.3l0,0l0,0l0.1,0l0,0l0,0l0.1,0l0,0l0,0l0.1-0.1l0.1,0.1l-0.1,0.1l0,0l-0.1,0.1l0,0l-0.1,0.1l0,0l-0.1,0.1l-0.1,0l0,0
				l-0.1,0l0,0l-0.2,0.1l0,0l-0.1,0l-0.1,0l0,0l-0.1,0l0,0l-0.1-0.1l-0.1-0.2l-0.1,0.1l0,0l-0.2,0.2l-0.1,0.1l-0.2,0.1l0,0l-0.1,0
				l0,0.1l-0.4,0.1l0,0l-0.2,0l0,0l-0.2-0.1l-0.2-0.2l0-0.1l0,0l-0.1-0.4l0,0l0-0.1l0-0.2l0.1-0.1l0,0l0,0l0,0l0.1-0.2l0,0l0.1-0.1
				l0.5-0.4l0.1,0l0,0l0.1-0.1l0.1,0l0,0l0,0l0-0.1l0.1,0l0,0l0,0l0.2-0.1l0.1-0.1l-0.2-0.6l0,0l0-0.1l-0.1-0.1l-0.2-0.1l-0.2,0
				l-0.1,0l0,0l-0.2,0.1l0,0l-0.1,0l0,0l0,0l0,0.1l0,0l-0.1,0.1l0,0l-0.1,0.1l0,0.1l0.1,0l0.1,0.2l0,0.1l0,0l-0.1,0.1l0,0l0,0
				l-0.2,0.1l0,0l0,0l-0.1-0.1l0,0l-0.1,0l-0.1-0.2l0-0.1l0-0.1l0,0l0,0l0.2-0.3l0,0l0.1-0.1l0.2-0.2l0.2-0.1l0.1,0l0,0L143.4,49.1z
				 M143.9,50.7L143.9,50.7L143.9,50.7l-0.1,0.1l-0.1,0l-0.1,0.1l0,0l-0.1,0l0,0l0,0l-0.1,0.1l0,0l0,0l0,0l-0.1,0.1l0,0l-0.2,0.3
				l0,0.2l0,0.1l0,0l0.1,0.3l0,0l0,0.1l0.2,0.2l0.1,0.1l0,0l0.1,0l0.1,0l0,0l0.3-0.1l0,0l0.2-0.1l0,0l0-0.1l0,0l0.2-0.3l-0.4-1.4
				L143.9,50.7z"/>
		</g>
		<g>
			<path fill="#FFFFFF" d="M139.7,63.8c-0.7,1.1-1.4,2-2.1,2.6c-0.7,0.6-1.3,1-2,1.2c-0.7,0.2-1.3,0.1-1.8-0.2
				c-0.5-0.3-0.9-0.9-1.1-1.6c0,0,0-0.1,0-0.1s0-0.1,0-0.1c-0.2,0.1-0.4,0.2-0.6,0.3c-0.2,0.1-0.4,0.1-0.6,0.2
				c-1,0.3-1.8,0.3-2.5,0.1c-0.7-0.2-1.1-0.6-1.3-1.3c-0.2-0.6,0-1.2,0.5-1.7c0.5-0.5,1.2-0.9,2.1-1.2c0.4-0.1,0.9-0.2,1.4-0.3
				c0.5-0.1,1.1-0.1,1.7-0.1c0.5-1.2,1.2-2.2,2.1-3.1c0.8-0.8,1.7-1.4,2.6-1.6c0.5-0.1,0.9-0.1,1.3,0c0.3,0.2,0.6,0.4,0.7,0.9
				c0.1,0.5,0.1,1-0.2,1.6c-0.2,0.6-0.7,1.3-1.3,2c-0.6,0.8-1.3,1.4-2.1,2c-0.8,0.6-1.7,1.2-2.7,1.7c0,0.1,0,0.2,0,0.3
				c0,0.1,0.1,0.3,0.1,0.4c0.2,0.6,0.4,0.9,0.8,1.2c0.4,0.2,0.9,0.3,1.4,0.1c0.6-0.2,1.3-0.7,2.1-1.5c0.8-0.9,1.5-2,2.3-3.4l0.1,0
				c0.2,1.1,0.3,2.1,0.3,3.1c0,1,0,1.8-0.1,2.3c-0.1,0.5-0.2,0.9-0.3,1.3c-0.2,0.4-0.4,0.8-0.7,1.3c-0.1,0.1-0.2,0.2-0.3,0.3
				c-0.1,0.1-0.2,0.1-0.2,0.2c-0.1,0-0.1,0-0.2-0.1c-0.1-0.1-0.1-0.2-0.2-0.4c-0.1-0.4-0.2-0.9-0.1-1.3c0-0.5,0.2-0.9,0.4-1.4l0.1,0
				l0.1,0l0,0.1c-0.1,0.4-0.2,0.7-0.2,0.9c0,0.3,0,0.5,0.1,0.7c0,0.1,0.1,0.2,0.1,0.4c0.1,0.1,0.1,0.2,0.2,0.3
				c0.3-0.3,0.5-0.9,0.6-1.7C140.2,67.3,140,65.9,139.7,63.8z M132.6,65.2c-0.1-0.5,0-1,0.1-1.6c0.1-0.6,0.3-1.2,0.5-1.8
				c-0.5,0-0.9,0-1.3,0.1c-0.4,0-0.8,0.1-1.1,0.2c-0.9,0.2-1.5,0.6-1.9,1.1c-0.4,0.5-0.6,1-0.4,1.5c0.1,0.5,0.5,0.9,1,1
				c0.5,0.2,1.2,0.1,2-0.1c0.2,0,0.4-0.1,0.5-0.2C132.1,65.4,132.3,65.3,132.6,65.2z M133.6,64.7c0.6-0.3,1.2-0.6,1.7-1
				c0.5-0.3,1-0.7,1.3-1c0.9-0.8,1.6-1.7,2-2.5c0.4-0.8,0.6-1.6,0.4-2.2c-0.1-0.3-0.3-0.6-0.5-0.7c-0.2-0.1-0.5-0.2-0.9-0.1
				c-0.6,0.2-1.1,0.6-1.8,1.4c-0.6,0.8-1.1,1.7-1.6,2.9c0.2,0,0.4,0,0.6,0c0.2,0,0.4,0,0.6,0.1l0.1,0.1l0,0.2l-0.1,0
				c-0.2,0-0.4,0-0.6-0.1c-0.2,0-0.4,0-0.7,0c-0.2,0.4-0.3,0.9-0.4,1.4C133.6,63.7,133.6,64.2,133.6,64.7z"/>
			<path fill="#FFFFFF" d="M143.3,59.2c-0.2,0-0.4,0-0.6,0c-0.2,0-0.3-0.1-0.3-0.2c0-0.1,0-0.2,0-0.4c0.1-0.2,0.1-0.3,0.1-0.3
				c0.1,0,0.1,0,0.2,0c0.1,0,0.2,0.1,0.2,0.1c0,0,0.1,0,0.1,0c0.1,0,0.2,0.1,0.2,0.1c0.1,0.2,0.1,0.4,0.1,0.5
				C143.5,59.1,143.4,59.1,143.3,59.2z M142.5,63.9l0.1-2.9c0-0.1,0-0.1,0.1-0.2c0,0,0.1-0.1,0.1-0.1l0.5-0.2l0.1,0c0,0,0.1,0,0.1,0
				c0,0,0,0,0,0.1c0,0,0,0,0,0.1c0,0,0,0,0,0l-0.1,3.1c0,0.3,0,0.5,0,0.6c0,0.2,0,0.3,0,0.3c0,0.1,0.1,0.2,0.2,0.3
				c0.1,0.1,0.2,0.1,0.3,0c0.3-0.1,0.6-0.5,0.9-1.2c0.4-0.7,0.8-1.7,1.2-3.1c0,0,0,0.1,0,0.1c0,0,0,0,0,0.1c0.1,0.2,0,0.6-0.3,1.3
				c0,0.1-0.1,0.2-0.1,0.2c-0.4,1-0.8,1.8-1.1,2.2c-0.3,0.5-0.7,0.8-1,0.9c-0.2,0.1-0.4,0-0.6-0.1c-0.2-0.1-0.3-0.3-0.4-0.5
				c0-0.1,0-0.2,0-0.4C142.5,64.3,142.5,64.1,142.5,63.9z"/>
			<path fill="#FFFFFF" d="M150.3,59.3C150.3,59.4,150.3,59.4,150.3,59.3c0.1,0.1,0.1,0.1,0.1,0.2c0.1,0.2,0,0.6-0.3,1.2
				c0,0.1-0.1,0.2-0.1,0.2c-0.5,1.3-0.8,2.1-1.1,2.5c-0.3,0.4-0.5,0.6-0.8,0.7c-0.3,0.1-0.5,0.1-0.7,0c-0.2-0.1-0.3-0.3-0.4-0.6
				c-0.1-0.3-0.1-0.8,0-1.4c0.1-0.6,0.3-1.3,0.5-2.1c-0.2,0.2-0.4,0.4-0.6,0.6c-0.2,0.2-0.4,0.3-0.5,0.3c-0.2,0-0.3,0-0.4,0
				c-0.1-0.1-0.2-0.2-0.2-0.3c-0.1-0.3-0.1-0.5,0-0.8c0.1-0.3,0.3-0.4,0.5-0.5l0,0c0,0.1,0,0.2-0.1,0.3c0,0.1,0,0.1,0,0.2
				c0,0.1,0.1,0.2,0.2,0.2c0.1,0,0.2,0,0.3,0c0.1,0,0.3-0.1,0.5-0.3c0.2-0.1,0.5-0.4,0.9-0.7l0.1,0c-0.3,1.6-0.4,2.6-0.5,3.1
				c0,0.5-0.1,0.8,0,1c0,0.1,0.1,0.2,0.2,0.3c0.1,0.1,0.2,0.1,0.3,0c0.2-0.1,0.5-0.4,0.7-0.9C149.2,62.2,149.7,61.1,150.3,59.3z"/>
			<path fill="#FFFFFF" d="M151.2,60.3c0,0.2,0,0.5,0.1,0.7c0,0.2,0.1,0.4,0.1,0.5c0.1,0.4,0.2,0.7,0.4,0.8c0.2,0.2,0.4,0.2,0.6,0.1
				c0.3-0.1,0.6-0.5,1-1.1s0.7-1.7,1.2-3.1c0,0,0,0.1,0.1,0.1c0,0,0,0.1,0,0.1c0,0.1,0,0.2-0.1,0.5c-0.1,0.3-0.2,0.6-0.3,1
				c-0.3,1-0.7,1.7-1,2.2c-0.3,0.5-0.7,0.8-1.1,0.9c-0.4,0.1-0.7,0-1-0.2c-0.3-0.2-0.5-0.6-0.7-1.1c-0.1-0.3-0.1-0.6-0.2-1.1
				c-0.1-0.5-0.1-1.1-0.1-1.8c0-0.6,0-1.1,0-1.7c0-0.6,0.1-1.2,0.2-1.8c0.1-0.5,0.2-1,0.4-1.4c0.1-0.4,0.3-0.7,0.4-0.9l0.1,0
				c0.1,0.1,0.2,0.2,0.3,0.3c0.1,0.2,0.2,0.4,0.2,0.6c0.3,0.9,0.3,1.9,0.2,3C151.9,58,151.7,59.1,151.2,60.3z M151.1,59.7
				c0.3-0.8,0.5-1.5,0.6-2.2c0.1-0.7,0-1.4-0.2-2c0-0.2-0.1-0.4-0.2-0.6c-0.1-0.2-0.2-0.4-0.3-0.6c-0.2,0.8-0.2,1.6-0.2,2.5
				C150.8,57.8,150.9,58.7,151.1,59.7z"/>
			<path fill="#FFFFFF" d="M156.5,61.7c-0.2,0.1-0.4,0.1-0.5,0.1c-0.1,0-0.2-0.1-0.2-0.2c-0.1-0.2-0.1-0.4-0.1-0.5
				c0-0.1,0-0.2,0.1-0.2c0,0,0.1,0,0.2,0c0.1,0,0.3,0,0.5,0c0.1,0,0.1,0,0.2,0.1c0.1,0.1,0.1,0.2,0.2,0.4c0,0.1,0,0.2,0,0.3
				C156.8,61.6,156.6,61.7,156.5,61.7z M156.3,60.1L156.3,60.1l-0.2,0.1l0-0.1l0-7.2c0-0.1,0-0.1,0-0.2c0,0,0.1-0.1,0.1-0.1l0.8-0.3
				c0,0,0.1,0,0.1,0c0,0,0.1,0,0.1,0.1c0,0,0,0,0,0.1c0,0,0,0.1,0,0.1L156.3,60.1z"/>
		</g>
	</g>
	<g>
		<path fill="#FFFFFF" d="M141.7,77.4c-10,0-18.4-7.5-19.5-17.4c-1.2-10.8,6.5-20.6,17.3-21.8c0.8-0.1,1.5-0.1,2.3-0.1
			c10,0,18.4,7.5,19.5,17.4c0.6,5.2-0.9,10.4-4.1,14.5c-3.3,4.1-7.9,6.7-13.2,7.3C143.2,77.3,142.5,77.4,141.7,77.4z M141.8,38.5
			c-0.7,0-1.5,0-2.2,0.1c-10.5,1.2-18.1,10.7-16.9,21.2c1.1,9.7,9.3,17,19,17c0.7,0,1.5,0,2.2-0.1c5.1-0.6,9.7-3.1,12.8-7.1
			c3.2-4,4.6-9,4-14.1C159.7,45.8,151.5,38.5,141.8,38.5z"/>
		<g>
			<path fill-rule="evenodd" clip-rule="evenodd" fill="#FFFFFF" d="M156.2,43.8c0-0.9-0.1-1.9-0.3-2.8c-0.3-0.9-0.7-1.9-1.8-2.1
				c-1.1-0.2-1.8,0.7-2.1,1.6c-0.6,1.7-0.6,4-0.2,5.7c0.4,1.6,1.4,3.1,3.2,3.1c1,0,2-0.3,2.9-0.7c1-0.4,2.1-0.9,3-1.6
				c0.7-0.6,1.5-1.4,1.3-2.4c-0.2-1.1-1.3-1.4-2.3-1.4c-1.1,0-2.3,0.4-3.3,0.8l-0.4,0.2V43.8z"/>
			<path fill-rule="evenodd" clip-rule="evenodd" fill="#FFFFFF" d="M148.2,43.1c-0.3-0.3-0.6-0.7-1-1c-0.4-0.3-0.9-0.5-1.3-0.2
				c-0.5,0.3-0.4,0.8-0.3,1.3c0.3,0.8,1,1.7,1.7,2.2c0.7,0.5,1.5,0.7,2.2,0.1c0.4-0.3,0.7-0.8,0.9-1.2c0.3-0.5,0.5-1,0.6-1.5
				c0.1-0.4,0.1-1-0.3-1.3c-0.4-0.3-0.9-0.1-1.3,0.2c-0.4,0.4-0.7,0.9-1,1.4l-0.1,0.2L148.2,43.1z"/>
		</g>
	</g>
	<g>
		<path fill="#FFFFFF" d="M141.7,79.4c-11,0-20.3-8.3-21.5-19.2c-0.7-5.8,1-11.4,4.6-16c3.6-4.5,8.8-7.4,14.5-8.1
			c0.8-0.1,1.7-0.1,2.5-0.1c11,0,20.3,8.3,21.5,19.2c0.7,5.8-1,11.4-4.6,16c-3.6,4.5-8.8,7.4-14.5,8.1
			C143.4,79.3,142.5,79.4,141.7,79.4z M141.8,36.6c-0.8,0-1.6,0-2.4,0.1c-5.6,0.6-10.6,3.4-14.1,7.8c-3.5,4.4-5.1,9.9-4.4,15.5
			c1.2,10.7,10.2,18.7,21,18.7c0.8,0,1.6,0,2.4-0.1c5.6-0.6,10.6-3.4,14.1-7.9c3.5-4.4,5.1-9.9,4.4-15.5
			C161.5,44.6,152.5,36.6,141.8,36.6z"/>
		<g>
			<path fill-rule="evenodd" clip-rule="evenodd" fill="#FFFFFF" d="M156.2,43.8c0-0.9-0.1-1.9-0.3-2.8c-0.3-0.9-0.7-1.9-1.8-2.1
				c-1.1-0.2-1.8,0.7-2.1,1.6c-0.6,1.7-0.6,4-0.2,5.7c0.4,1.6,1.4,3.1,3.2,3.1c1,0,2-0.3,2.9-0.7c1-0.4,2.1-0.9,3-1.6
				c0.7-0.6,1.5-1.4,1.3-2.4c-0.2-1.1-1.3-1.4-2.3-1.4c-1.1,0-2.3,0.4-3.3,0.8l-0.4,0.2V43.8z"/>
			<path fill-rule="evenodd" clip-rule="evenodd" fill="#FFFFFF" d="M148.2,43.1c-0.3-0.3-0.6-0.7-1-1c-0.4-0.3-0.9-0.5-1.3-0.2
				c-0.5,0.3-0.4,0.8-0.3,1.3c0.3,0.8,1,1.7,1.7,2.2c0.7,0.5,1.5,0.7,2.2,0.1c0.4-0.3,0.7-0.8,0.9-1.2c0.3-0.5,0.5-1,0.6-1.5
				c0.1-0.4,0.1-1-0.3-1.3c-0.4-0.3-0.9-0.1-1.3,0.2c-0.4,0.4-0.7,0.9-1,1.4l-0.1,0.2L148.2,43.1z"/>
		</g>
	</g>
</g>
<g>
	<g>
		<text transform="matrix(1 0 0 1 74.1094 59.0293)" fill="#FFFFFF" font-family="'ArialMT'" font-size="5">WELCOME BABY</text>
	</g>
	<g>
		<text transform="matrix(1 0 0 1 170.4731 59.0293)" fill="#FFFFFF" font-family="'ArialMT'" font-size="5">LUCY LEE</text>
	</g>
</g>
</svg>
