<?xml version="1.0" encoding="utf-8"?>
<!-- Generator: Adobe Illustrator 16.0.0, SVG Export Plug-In . SVG Version: 6.00 Build 0)  -->
<!DOCTYPE svg PUBLIC "-//W3C//DTD SVG 1.1//EN" "http://www.w3.org/Graphics/SVG/1.1/DTD/svg11.dtd">
<svg version="1.1" id="Layer_1" xmlns="http://www.w3.org/2000/svg" xmlns:xlink="http://www.w3.org/1999/xlink" x="0px" y="0px"
	 width="760px" height="440px" viewBox="0 0 380 220" enable-background="new 0 0 380 220" xml:space="preserve">
<g id="Suit">
	<rect id="Suit_Color" x="1" y="58.753" fill="#333333" width="377.62" height="107.507"/>
	<g id="Shirt">
		<path fill="#FEFEFE" d="M188.555,133.369c-0.135-0.368-0.244-0.749-0.408-1.105c-6.829-14.855-14.289-29.405-21.568-44.042
			c-0.77-1.547-0.669-2.093,1.014-2.686c4.501-1.588,8.939-3.355,13.376-5.12c0.893-0.355,1.396-0.333,2.067,0.455
			c1.315,1.539,3.007,2.145,4.936,1.112c0.633-0.34,1.073-0.275,1.681,0.037c1.855,0.956,3.519,0.391,4.787-1.062
			c0.756-0.866,1.289-1.044,2.388-0.6c4.678,1.892,9.396,3.692,14.13,5.439c1.173,0.433,1.41,0.792,0.818,1.999
			c-7.224,14.765-14.381,29.562-21.576,44.341c-0.309,0.635-0.37,1.506-1.271,1.729
			C188.663,133.805,188.637,133.566,188.555,133.369z"/>
		<path fill="#FDFDFD" d="M225.381,59.981c-1.865,3.686-3.73,7.371-5.734,11.331c-1.635-2.458-3.223-4.714-4.656-7.063
			c-0.684-1.12-1.268-1.399-2.572-0.891c-5.27,2.054-10.605,3.935-15.891,5.948c-1.022,0.39-1.789,0.47-2.452-0.514
			c-0.146-0.214-0.41-0.357-0.642-0.502c-0.714-0.449-1.644-0.903-2.314-0.524c-2.475,1.396-5.528-1.474-7.744,1.116
			c-0.677,0.79-1.296,0.668-2.141,0.349c-5.293-1.994-10.618-3.903-15.9-5.925c-1.098-0.421-1.646-0.301-2.275,0.738
			c-1.446,2.384-3.054,4.669-4.738,7.21c-2.02-3.883-3.945-7.586-5.871-11.288c0.251-1.264,1.286-0.77,1.971-0.776
			c5.049-0.053,10.097-0.029,15.146-0.029c17.806,0,35.61-0.008,53.417,0.028C223.803,59.191,224.938,58.662,225.381,59.981z"/>
		<path fill="#FAFAFA" d="M185.514,133.738c-0.47,0.318-0.812,0.846-1.454,0.055c-8.468-10.432-16.972-20.832-25.456-31.25
			c-0.104-0.126-0.069-0.364-0.119-0.68c0.925-0.131,1.193,0.626,1.584,1.065c7.214,8.097,14.405,16.214,21.609,24.318
			c0.402,0.452,0.872,0.848,1.31,1.268c0.688,0.084,0.601,0.821,0.983,1.161c0.503,1.267,2.046,1.736,2.391,3.125
			C186.331,133.341,186.027,133.633,185.514,133.738z"/>
		<path fill="#FAFAFA" d="M219.716,105.215c-6.28,7.628-12.269,15.489-18.971,22.784c-3.636,3.956-7.657,7.354-11.867,10.601
			c-0.771,0.594-0.777,0.588-2.129,0.838c8.813-7.922,16.257-16.897,24.034-25.562c2.777-3.094,5.576-6.17,8.365-9.253
			C219.634,104.535,219.827,104.729,219.716,105.215z"/>
		<path fill="#030303" d="M225.381,59.981c-0.34-0.955-1.158-0.533-1.753-0.534c-23.138-0.023-46.277-0.023-69.415-0.001
			c-0.597,0-1.41-0.423-1.765,0.521c-0.631-0.761-1.472-0.782-2.387-0.832c-2.224-0.12-4.479,0.438-6.671-0.311
			c3.62-0.024,7.239-0.069,10.859-0.07c26.785-0.003,53.569,0.001,80.354,0.007c0.611,0,1.227,0.041,1.84,0.062
			c-2.877,0.733-5.803,0.18-8.703,0.32C226.839,59.187,225.968,59.13,225.381,59.981z"/>
		<path fill="#FCFCFC" d="M188.949,152.496c-1.918,0.007-3.491-1.598-3.468-3.533c0.022-1.867,1.501-3.377,3.357-3.427
			c1.903-0.052,3.58,1.536,3.61,3.422C192.479,150.843,190.852,152.486,188.949,152.496z"/>
		<path fill="#E9E9E9" d="M181.568,161.225c-0.32-0.004-0.642-0.009-0.962-0.014c0.041-6.271,0.081-12.545,0.122-18.818
			c0.423-0.185,0.594,0.104,0.756,0.404C181.512,148.939,181.54,155.082,181.568,161.225z"/>
		<path fill="#EDEDED" d="M181.484,142.797c-0.252-0.136-0.504-0.27-0.756-0.404c2.608-3.008,5.218-6.016,7.826-9.022
			c0.124,0.165,0.247,0.332,0.371,0.497c0,0.775-0.362,1.35-0.892,1.908C185.829,138.094,183.664,140.453,181.484,142.797z"/>
		<path fill="#050505" d="M183.971,129.676c-0.327-0.387-0.655-0.773-0.983-1.16c0.457-0.27,0.888-0.604,1.377-0.789
			c0.51-0.193,0.909,0.121,1.144,0.568c0.175,0.333,0.49,0.703,0.096,1.084c-0.383,0.367-0.708,0.102-1.057-0.122
			C184.062,128.948,184.023,129.342,183.971,129.676z"/>
		<path fill="#DAD9D9" d="M219.716,105.215c-0.188-0.197-0.379-0.396-0.567-0.592c0.662-0.947,1.25-1.971,2.633-2.556
			C221.584,103.64,220.508,104.337,219.716,105.215z"/>
		<path fill="#CDCBCB" d="M156.035,98.923c0.377,0.107,0.615,0.102,0.714,0.216c0.51,0.594,1.265,1.02,1.385,1.884
			c0.012,0.086-0.347,0.331-0.394,0.3C156.936,100.767,156.241,100.121,156.035,98.923z"/>
		<path fill="#D4D3D3" d="M222.038,101.977c0.073-1.275,0.778-1.592,1.399-1.989C223.561,100.947,223.073,101.479,222.038,101.977z"
			/>
		<path fill="#050505" d="M185.514,133.738c0.282-0.313,0.565-0.627,0.848-0.938c0.072,0.462,0.97,0.634,0.608,1.124
			C186.539,134.511,186.002,133.863,185.514,133.738z"/>
		<path fill="#D2D1D1" d="M226.674,96.688c-0.469,0.872-0.761,1.414-1.795,1.647C225.284,97.449,225.562,96.924,226.674,96.688z"/>
		<path fill="#040404" d="M189.08,89.032c1.588,0.015,2.881,1.271,2.891,2.811c0.01,1.57-1.488,3.016-3.046,2.939
			c-1.489-0.073-2.814-1.5-2.777-2.992C186.187,90.241,187.486,89.02,189.08,89.032z"/>
		<path fill="#050505" d="M189.146,100.48c1.579,0.047,2.844,1.35,2.812,2.892c-0.03,1.52-1.382,2.854-2.899,2.865
			c-1.586,0.012-2.986-1.46-2.906-3.054C186.232,101.62,187.548,100.431,189.146,100.48z"/>
		<path fill="#040404" d="M189.239,112.062c1.555-0.018,2.859,1.248,2.9,2.813c0.041,1.603-1.142,2.874-2.735,2.938
			c-1.68,0.069-3.033-1.222-3.015-2.873C186.408,113.382,187.694,112.082,189.239,112.062z"/>
	</g>
	<text id = "text1" x="194.793" y="152.4961" fill="#FFFFFF" font-family="'LucidaCalligraphy-Italic'" font-size="12">Sacks </text>
	<text id = "text2" x="143.252" y="142.7969" fill="#F9F7F7" font-family="'LucidaCalligraphy-Italic'" font-size="12">Ryan</text>
</g>
</svg>
