<svg version="1.1" id="Layer_1" xmlns="http://www.w3.org/2000/svg" xmlns:xlink="http://www.w3.org/1999/xlink" x="0px" y="0px" viewBox="0 0 759 439" enable-background="new 0 0 759 439" xml:space="preserve">
<g id="band">
	<path id="background" fill-rule="evenodd" clip-rule="evenodd" fill="#00ADEE" d="M759.5,170.3l-285.3,0.2c0-5.1-2.8-12.5-11-17.5
		c-5.7-3.5-12-4.4-16.9-3.7c-17.7-18.6-41.1-29.9-66.7-29.9c-26,0-49.7,11.6-67.4,30.6c-5.2-1.9-13.1-1.4-19.8,3
		c-7.7,5-11,12.2-11,17.5l-281.8-0.2v98.4l281.8-0.2c0,5.4,3.3,12.6,11,17.5c6.8,4.3,14.6,4.9,19.8,3c17.7,19,41.4,30.6,67.4,30.6
		c25.7,0,49.1-11.3,66.7-29.9c4.9,0.7,11.2-0.2,16.9-3.7c8.2-5,11-12.4,11-17.5l285.3,0.2V170.3z"/>
	<g opacity="0.25">
		<path fill="none" d="M239.3,213.6c0.9-0.4,1.8-1,2.8-1.4c0.3-0.2,0.7-0.4,1-0.5c8.6-3.7,16.7-6.3,24.5-8.1
			c1.1-0.3,2.3-0.5,3.4-0.7c2.2-0.5,4.4-0.9,6.5-1.2c28.2-4.8,55.9-1.3,75.7,5.8c21.9,7.5,38.6,20.4,38.8,20.5c0,0,9.5,8,25.4,18.2
			c-4.7-3.6-9.4-7.5-14.2-11.4c-3.7-3-7.5-6.1-11.3-9.1c-2.2-1.7-4.7-3.5-7.3-5.4c-4.2-3.2-9-6.5-14.2-9.9
			c-6.3-3.8-12.8-7.2-19.8-9.9c-30.8-11.6-62.3-12.7-93.6-3.3c-28.1,8.4-55.3,25.4-78.9,49c-7.2,7.2-14,14.8-20.7,22.5l12.5,0
			C192.6,242.9,215.5,224.8,239.3,213.6z"/>
		<path fill="none" d="M144.4,249.3c-7.7,6.9-16.7,13.7-26.5,19.3l6.1,0C131.2,262.8,138,256.1,144.4,249.3z"/>
		<path fill="none" d="M347.4,184.4c-1.5-1.3-2.4-2.4-4.3-3.4c-18.7-12.2-38.3-19.1-58.4-20.7c-0.9,1.3-1.6,2.7-2.2,4.1
			c2.6,0.1,5.1,0.3,7.7,0.5C309.6,166.9,329,174.3,347.4,184.4z"/>
		<path fill="none" d="M747.2,200.2c-2.8,2.9-5.7,1.9-6.6,1.4c-1,0.9-5.7,5.3-10.9,12c-1.3,1.7-3.5,5-5.5,8.7
			c0.7-0.5,1.4-0.7,2.1-0.6c0.3-0.7,1.1-1.6,2.5-1.5c0.7,0,1.2,0.2,1.6,0.6c0.1-2.3,0.6-6.3,3.3-7.8c1.3-0.7,2.6-0.8,3.6-0.2
			c0.9,0.5,1.5,1.6,1.4,2.7c0,1.2-1,2-1.7,2.3c-0.3,0.1-0.6,0.2-0.9,0.2c-0.2,0.1-0.4,0-0.7,0c-0.6-0.2-0.9-0.9-0.7-1.5
			c0.2-0.6,0.9-0.9,1.5-0.7c0.5,0.2,0.7,0.6,0.8,1c0.4-0.3,0.8-0.7,0.8-1.3c0-0.6-0.3-1.5-1-1.9c-0.7-0.5-1.7-0.4-2.7,0.2
			c-3.3,1.8-2.9,8.5-2.9,8.6l0,0.3c0-0.1-1.1-1.6-2.4-1.6c-1.5,0-1.8,1.3-1.8,1.3l-0.1,0.5l-0.5-0.2c-1.2-0.5-2.5,0.5-3.8,2.9
			c-0.9,1.8-1.6,3.7-2.2,5.4c0.2-0.4,0.8-1.3,2.2-2.2c1.4-0.9,3.5-0.8,4.5,0.1c0.6-1.2,1.1-2.4,1.7-3.2c1.6-2.3,3.9-3.6,6.2-3.4
			c1.7,0.1,3.1,1.2,3.9,2.8c0.7,1.4,0.3,2.8-0.6,4.3c0.3-0.1,0.6-0.2,1-0.1c0.7,0.1,1.4,0.5,1.9,1.2c0.9-0.7,3.2-2.7,6.2-5.1
			c2.7-2.2,5.7-5.3,5.7-7.6c0-0.7-0.3-1.2-0.8-1.6c-0.8-0.6-1.7-0.8-2.5-0.6c-0.2,0.1-0.3,0.1-0.5,0.2c0.1,0,0.1,0,0.2,0.1
			c0.8,0.3,1.2,1.2,0.9,2c-0.3,0.8-1.2,1.2-2,0.9c-0.7-0.3-1-0.9-1-1.5l-0.1,0c0.2-1.1,1.1-2.1,2.2-2.4c1.1-0.4,2.3-0.1,3.3,0.7
			c0.7,0.6,1.1,1.4,1.1,2.3c0,3.2-4.6,7.1-6,8.3c-3.8,3-6.5,5.3-6.5,5.3l-0.4,0.3l-0.2-0.4c-0.5-0.7-1-1.2-1.5-1.2
			c-1.1-0.1-2.7,1-2.8,1l-0.1-0.1c1.6-2,2.4-3.9,1.7-5.5c-0.6-1.4-1.7-2.2-3.2-2.3c-2-0.2-4,1-5.4,3.1c-2,2.9-4.6,10.8-4.6,10.9
			l-0.2,0.4c0,0,0.1-1.5-1.7-2.7c-1.4-0.9-3.3-0.1-3.4,0l-0.3,0.2l-0.2-0.3c-0.4-0.5,0.1,5.9-0.3,7c-0.1,0.3-0.3,0.9-0.3,0.9
			c-0.5,1.1-1.1,9.4-0.6,12.1c1,5.5,2.8,10.1,4.2,14.1l0.6,0c0,0,0,0,0,0c-1.3-4-2.9-8.8-3.8-14.2c-0.4-2.7-0.6-5.6-0.1-8.6
			c0.4-2.7,2-6.6,4.9-5.9c0.5,0.2,0.9,0.5,1.2,0.9c2-7.4,5.1-12.9,5.6-13.4c1.6-2.2,4-3.2,5.2-2.1c1.2,1.1,1,3.4-0.4,5.4
			c-0.7,0.8-8.6,11.7-9,25.1c-0.4,4.6,0.1,9,0.9,12.8l0.9,0c-1-6.4-1-13,1.1-19.3c0.8-2.5,1.9-4.9,3.2-7.1l0,0
			c1.1-2.1,2.6-3.9,4.2-5.6c1-1.1,2.1-2,3.3-3c0.1-0.1,0.2-0.2,0.4-0.3c2.7-2.2,5.6-4.2,8.9-5.5c2.8-1.1,6.4-2,10.5-2.2v-35.7
			c-3.5,0.9-7.3,2.7-11.7,5.1C748.3,196,749.1,198.3,747.2,200.2z M727.5,226c-0.4,0.9-1.4,1.4-2.3,1.1c-0.9-0.4-1.4-1.4-1.1-2.4
			c0.4-0.9,1.4-1.4,2.4-1.1C727.4,224,727.9,225.1,727.5,226z M728.4,223.8c-0.6-0.2-0.8-0.8-0.6-1.4c0.2-0.6,0.8-0.8,1.4-0.6
			c0.5,0.2,0.8,0.8,0.6,1.4C729.6,223.8,729,224,728.4,223.8z M740.5,209.1c-0.4-0.1-0.6-0.6-0.5-1c0.1-0.4,0.6-0.6,1-0.5
			c0.4,0.2,0.6,0.6,0.5,1C741.4,209.1,741,209.3,740.5,209.1z M742.1,223.3c-0.6-0.2-0.9-0.9-0.6-1.4c0.2-0.6,0.9-0.9,1.4-0.6
			c0.6,0.2,0.9,0.9,0.6,1.4C743.3,223.2,742.7,223.5,742.1,223.3z M743.1,217.6c-0.4-0.2-0.6-0.6-0.5-1c0.2-0.4,0.6-0.6,1-0.5
			c0.4,0.2,0.6,0.6,0.5,1C743.9,217.6,743.5,217.8,743.1,217.6z M722.5,237.5c-0.3,0.8-1.1,1.2-1.9,0.9c-0.8-0.3-1.2-1.1-0.9-1.9
			c0.3-0.8,1.1-1.2,1.9-0.9C722.4,235.9,722.8,236.8,722.5,237.5z M738.5,233c-0.5-0.2-0.7-0.7-0.5-1.2c0.2-0.5,0.7-0.7,1.2-0.5
			c0.5,0.2,0.7,0.7,0.5,1.2C739.6,233,739,233.2,738.5,233z"/>
		<path fill="none" d="M256.7,195.8c30.9-9.3,61.9-8.4,92.2,2.5c-5.5-2.6-11.2-4.8-17.2-6.6c-20.8-6.8-43.5-6.9-59.9-4.6
			c-16.3,3.1-27.7,8.2-29.6,8.7c-7.9,2.7-15,2.4-17.1-1.3c-2.2-3.8,3.4-10.5,12-13.4c2.2-0.6,14.4-5.1,33.2-7.1
			c18.7-1.1,42.5,1.2,64.1,10.3c21.6,8.7,39.5,22.9,51.9,33.9c3.6,3.2,6.8,6.1,9.6,8.6c12.5,10,24.2,21.4,38.2,29.3
			c3.9,2.2,8.1,4.1,12.4,5.6c4.3,1.4,8.8,2.1,13.3,2.7c-23.7-7-45.1-23.7-62.6-41c-10.7-10.5-22.6-19.5-34.7-28.4
			c-22.7-14.7-47.6-26.2-72.3-28.8c-2.7-0.3-5.4-0.4-8.1-0.5c-0.5,1.7-0.8,3.3-0.8,4.7l-37,0c-8.2,2.5-16.2,5.9-24,10.4
			c-22,12.4-40.6,31.5-54.4,46.6l-7.9,8.9c-9.6,10.9-20.1,22.7-31.7,32.3l21,0c2.7-2.9,5.4-5.8,8.1-8.7c7.1-7.7,13.8-15,20.6-21.7
			c17.1-17,42.2-30.9,50.7-35.3c-2.9-0.4-6.8-1.7-8.5-7.1c-1.2-3.9,0.2-7.5,2.7-10.3c-9.1,5.6-21.5,14.6-23.5,18.1
			c-0.9,1.6-0.9,3.1,0,4.1c0.9,1,2.6,1.3,3.9,0.7c1-0.5,1.6-1.2,1.6-2.1c0-0.1,0-0.2,0-0.3c-0.3,0.4-0.7,0.7-1.2,0.8
			c-1.1,0.3-2.3-0.3-2.6-1.4c-0.3-1.1,0.3-2.3,1.4-2.6c0.5-0.2,1.1-0.1,1.6,0.2l0-0.1c1.3,0.6,2.2,2,2.2,3.4c0,1.4-0.9,2.7-2.4,3.4
			c-1.9,0.8-4.2,0.4-5.5-1c-1.3-1.4-1.4-3.5-0.2-5.7c2.7-4.9,21.4-17.6,29.5-21.8l2-1.2c-0.1,0.1-10.3,8.4-8.2,15.2
			c2.3,7.6,11.1,6.9,14.1,6l-3.3,1.4c-0.3,0.2-32.6,16.1-53.2,36.6c-6.8,6.7-13.5,14-20.6,21.7c-2.4,2.6-4.8,5.2-7.2,7.8l6.5,0
			c6.9-8,14-15.9,21.5-23.4C200.9,221.3,228.4,204.3,256.7,195.8z"/>
		<path fill="none" d="M463.2,286C463.2,286,463.2,286,463.2,286c-2.3,0.8-4.6,1.8-6.6,2.9C458.7,288.3,461,287.3,463.2,286z"/>
		<path fill="none" d="M161.9,213.4c-8.1,7.9-18.1,17.6-30.8,25c-5.5,3.8-10.1,7.7-10.7,11.4c-0.3,1.4,0.1,2.7,1,3.9
			c1.1,1.5,2.7,2.3,4.9,2.4c4.4,0.3,10.1-2.3,14.6-5.6c0.2-0.2,0.4-0.3,0.6-0.5c0.5-0.4,1-0.9,1.5-1.3c8.4-7.4,15.4-14.9,20.8-21.1
			l0.1,0.1l1-1.2c13.9-15.3,32.6-34.4,54.7-46.9c6.7-3.8,13.5-6.8,20.4-9.1l-14.5,0c-28.4,11.6-50.1,30.1-61.3,40.8L161.9,213.4z
			 M188.2,195.5c-0.5-0.3-5.6,6-6,6.4c-8.8,9.7-17.5,19.5-26.5,29.1c-4,4.3-8.1,8.8-12.6,12.6c-1.4,1.2-2.9,2.6-4.5,3.7
			c-1.6,1-7.4,3.3-8.9,1c-3-4.5,6.7-7.8,8.8-9.4c2.1-1.5,4.1-3.1,6.1-4.7c9.5-7.7,18.5-16.1,27.6-24.3
			C173.4,208.6,187.1,194.7,188.2,195.5z"/>
		<path fill="none" d="M118,263.9c-0.9-1.8,0.2-3.7,0.2-3.7c-1.6,0.3-4.1-0.3-5-2.9c-1.4-4,2-5.8,2-5.8c-2.4-0.4-3.3-2.8-3.3-4.7
			c-1.6,0.5-3.4,0.8-5,1.2c0.1,1.8-0.8,3.5-2.6,4c-2,0.6-4.2-0.6-4.8-2.6c0,0,0-0.1,0-0.1c-7.4,0.9-15.4,0.9-24.1-0.6
			C55,245,38.9,233.9,29.7,217.2c-8-14.5-9.7-31.7-5-46.9l-25.2,0v83.5c4.3,4.5,8.8,8.4,13.4,11.4c2.1,1.2,4.2,2.4,6.3,3.5l56.4,0
			c0-0.1,0.1-0.1,0.1-0.2c0.5-0.7,1.3-1.2,2.2-1.2c1-0.1,2.1,0.4,2.7,1.1c0.1,0.1,0.1,0.2,0.1,0.3l28.9,0c2.1-0.9,4.1-1.9,6-2.8
			c-0.7-1.2-0.7-2.3-0.6-3c-1,0-2.4-0.1-3.7-1.1c-2.1-1.6-2.5-4.2-2.7-5.3c-1.5-0.4-2.4-1.5-2.9-2.2c-0.9,0.5-2,0.6-3.2,0.5
			c-1.9-0.3-3.9-1.3-4.9-2.5c-2.7,0.7-8.5,2.8-8.2,5.8c0.1,1.7,0.9,2.9,2.1,3.3c0.7,0.2,1.4,0.1,2-0.2c-1,0-1.9-0.6-2.2-1.6
			c-0.4-1.2,0.3-2.5,1.6-2.8c0.8-0.2,1.6,0,2.1,0.5c0.5,0.3,0.8,0.6,1,1.1c0.4,1.1,0,2.5-0.6,3.2c-1,1.2-2.7,1.6-4.2,1.1
			c-1.8-0.6-2.9-2.2-3.1-4.5c-0.4-5,9.3-7.3,9.7-7.4l0.5-0.1l0.3,0.4c0.7,1,2.6,2,4.3,2.3c1.2,0.2,2.2,0,2.8-0.6l0.7-0.6l0.4,0.9
			c0,0,0.9,2.1,2.8,2.3l0.6,0.1l0,0.6c0,0,0.1,3.2,2.2,4.7c1.6,1.2,3.6,0.9,3.6,0.9l1-0.2l-0.3,1c0,0.1-0.7,1.8,0.7,3.4l0.5,0.7
			l-0.8,0.4c-1.3,0.6-2.6,1.3-4,1.9l2,0c1.7-0.9,3.4-1.9,5-2.9C119.2,265.5,118.4,264.8,118,263.9z M110.6,252.9
			c-0.9,0.3-1.9-0.3-2.2-1.2c-0.3-0.9,0.3-1.9,1.2-2.2c0.9-0.3,1.9,0.3,2.2,1.2C112.1,251.7,111.6,252.7,110.6,252.9z"/>
		<path fill="none" d="M724.6,211c-4.3,7-6.8,14.4-8.3,21.2c0,0,0.1,0,0.1,0c0.2-0.6,0.4-1.1,0.7-1.4l0.2-0.6
			c0.1-0.2,7.7-23.1,27.8-37.1c5.4-3.7,10.2-6.2,14.5-7.7v-4.5c-1.7,0.8-3.3,1.5-4.8,2.3C742.5,189.7,731.3,200.1,724.6,211z"/>
		<path fill="none" d="M30.9,216.6c9,16.3,24.8,27.2,44.6,30.6c12.4,2.1,23.3,1.4,33.1-1c-12,2-25,1.5-36.1-1.9
			c-10.2-3.2-18.3-8.3-27.9-17.7c-8.9-8.8-16-26.6-15.5-38.9c0.2-5.5,1.9-9.7,4.8-12.1c2.5-2.1,5-1.7,6.6-0.7c2,1.2,2.5,3.5,2.3,5.8
			c-0.5,4.3-6.1,6.1-7.4,1.7c-0.4-1.5,0.4-3,1.9-3.4c1.5-0.4,3,0.4,3.5,1.9c0.1,0.2,0.1,0.5,0.1,0.7c0.2-0.4,0.4-0.8,0.6-1.3
			c0.4-1.6-0.2-3.3-1.7-4.2c-1.5-0.9-3.4-0.7-5,0.6c-2.6,2.2-4.2,6.1-4.4,11.1c-0.5,12,6.5,29.3,15.1,37.8
			c9.4,9.2,17.3,14.2,27.3,17.3c16.3,5.1,37.2,4,51.8-2.6l0,0c2-1,4-2.1,5.9-3.2c1-0.7,2.2-1.4,3.3-2.2c-13,6.2-29.1,9.9-43.6,6.9
			c-12.8-2.6-22.5-10.3-28.1-22.1c-2-4.3-2.1-9.1-0.1-12.7c1.3-2.4,3.3-3.9,5.5-4.2c2.3-0.3,4.1,0.5,4.9,2.2c0.8,1.7,0.4,4-1.1,5.3
			l0,0c-0.4,0.4-0.8,0.7-1.3,0.9c-1.5,0.4-3.1-0.4-3.5-1.9c-0.4-1.5,0.4-3,1.9-3.4c1.1-0.3,2.3,0.1,3,1c0-0.4-0.1-0.8-0.3-1.2
			c-0.5-1.2-1.8-1.6-3.5-1.4c-1.8,0.3-3.4,1.5-4.5,3.5c-1.7,3.2-1.7,7.5,0.2,11.4c5.4,11.6,14.5,18.7,27.1,21.3
			c17.7,3.7,38.1-2.8,51.7-11.7c7.1-5.5,13.4-11.3,18.7-16.4l2.2-2.1c10.8-10.5,31.6-28.1,58.7-39.8l-10.3,0
			c-0.6,0.3-1.1,0.5-1.7,0.8l-9.6,5c-2.2,1.1-4.3,2.3-6.5,3.4l0.1,0.2l-4.9,2.8c-4,2.3-7.9,4.4-11.8,6.3c-1.7,1-3.4,1.9-5.1,3
			c-11.2,7.2-21.4,8.2-31.8,8.8l-2.2,0.1c-7.2,0.3-14.6,0.6-15.7,8.3c-0.4,2.8,0.4,5.2,2.1,6.8c1.7,1.5,4.3,2,6.8,1.3
			c3.3-1,4.3-3,4.5-4.9c-0.3,0.2-0.6,0.4-0.9,0.5c-1.5,0.4-3-0.4-3.5-1.9c-0.4-1.5,0.4-3,1.9-3.4c1.3-0.4,2.6,0.2,3.3,1.4l0.2,0.4
			c1.2,3.2,0.3,7.8-5.1,9.4c-3,0.9-6,0.3-8.1-1.5c-2.2-1.9-3.1-4.7-2.6-8c1.2-8.8,10-9.2,17-9.5l2.1-0.1c8.7-0.5,17.4-1.5,26.5-6.2
			c-4,1.2-7.9,1.7-11.7,1.1c-5.5-0.8-7.8-3.5-8.8-5.7c-1.4-3-0.9-6.5,0.2-8.3c1.5-2.3,4.5-2.7,6.7-2.4c1.3,0.2,2.4,0.7,3.1,1.3
			c0.7,0.3,1.3,0.9,1.5,1.8c0.4,1.5-0.4,3-1.9,3.5c-1.5,0.4-3-0.4-3.5-1.9c-0.4-1.2,0.2-2.5,1.2-3.1c-0.2-0.1-0.4-0.1-0.7-0.1
			c-1.9-0.3-4.2,0.2-5.3,1.8c-0.8,1.2-1.4,4.2-0.1,6.9c1.2,2.7,3.9,4.4,7.7,4.9c6.9,1,14.4-1.8,22.1-5.7c7.4-4.3,14.9-8.4,22.3-12.2
			l8.8-4.6l-19.9,0c-0.7,1.2-1.9,2.2-3.3,2.6c-2.5,0.7-5.2-0.4-6.4-2.6l-152.6-0.1C21.4,185.3,23,202.3,30.9,216.6z M60.8,224.9
			c0.5,1.8-0.5,3.6-2.3,4.1c-1.8,0.5-3.6-0.5-4.1-2.3c-0.5-1.8,0.5-3.6,2.3-4.1C58.4,222.2,60.3,223.2,60.8,224.9z M46.1,202.1
			L46.1,202.1c-0.1,0.9-0.6,1.7-1.5,1.9c-1.1,0.3-2.3-0.3-2.6-1.4c-0.3-1.1,0.3-2.3,1.4-2.6c0.4-0.1,0.8-0.1,1.1,0
			c-0.2-0.4-0.6-0.8-0.9-1c-0.8-0.6-1.7-0.6-2.4-0.2c-1.2,0.9-1.5,3.5-0.5,7.1c2.4,9.5,8.7,15.6,10.8,17.4c1.1-2.3,3.9-3.5,5.3-3.9
			c-1.4-3.1-1.5-7.4-1.2-9.7c0.5-4.1,2.3-7.4,5.1-9.5c2.3-1.8,5.3-2.5,8.2-2c3.6,0.6,6.7,2.9,7.9,6.1c1.1,2.8,0.7,5.7-1.2,8.1
			c-1.6,2.1-4.2,3.6-6.6,3.8c-0.6,0-1.2,0-1.7-0.1c1.6,3.6,6.3,12.4,17.3,17.4c8.7,3.9,14.5,2.8,17.2,0.5c1.3-1.1,1.8-2.5,1.4-3.9
			c-0.3-1.1-1-1.9-1.8-2c-0.7-0.2-1.5,0.2-2.1,0.9c-0.1,0.1-0.1,0.2-0.2,0.3c0.2-0.1,0.3-0.2,0.5-0.3c1.1-0.3,2.3,0.3,2.6,1.4
			c0.3,1.1-0.3,2.3-1.4,2.6c-0.4,0.1-0.8,0.1-1.1,0l-0.1,0.1c-0.8-0.5-1.9-1.4-2.1-2.6c-0.1-0.6-0.1-1.5,0.7-2.5
			c0.9-1.1,2.2-1.6,3.5-1.3c1.4,0.3,2.4,1.4,2.9,3c0.5,1.9-0.1,3.9-1.8,5.3c-3,2.6-9.4,3.8-18.7-0.3c-14.6-6.5-18.5-19.3-18.7-19.9
			l-0.8-2.6l1.9,1.9c0.7,0.7,1.7,0.8,2.4,0.7c2-0.2,4.2-1.4,5.6-3.2c1.6-2,1.9-4.4,1-6.7c-1.1-2.8-3.7-4.8-6.9-5.3
			c-2.6-0.4-5.1,0.2-7.2,1.7c-2.5,1.8-4.1,4.9-4.5,8.5c-0.3,2.8,0,7.2,1.4,9.7l0.4,0.8l-0.9,0.2c0,0-4.7,1.1-5.4,4.1l-0.2,1
			l-0.8-0.6c-0.4-0.3-9-6.9-12.1-18.8c-1.5-5.8,0-7.9,1.1-8.6c1.1-0.8,2.7-0.7,4,0.2C45.8,198.7,46.5,200.4,46.1,202.1z"/>
		<path fill="none" d="M12.9,267c-0.3-0.2-0.7-0.5-1-0.7c-4.4-2.6-8.5-5.6-12.4-8.8v11.2l16.8,0C15.2,268.1,14,267.5,12.9,267
			L12.9,267z"/>
		<path fill="none" d="M719.9,228.2c0.4-0.1-0.9,1.5-0.3,1.7c0.1,0.1,0.2,0.1,0.3,0.2c0.4-1.2,1-2.6,1.6-3.9l0,0
			c0.1-0.1,0.1-0.2,0.2-0.3c2.4-5.2,5.7-10.5,7.4-12.8c5.9-7.6,11.1-12.2,11.2-12.3l0.3-0.2l0.2,0.2c0.3,0.2,3,1.7,5.8-1.2
			c2-2,0.4-4.4,0.3-4.4l-0.3-0.4l0.4-0.2c4.6-2.6,8.7-4.5,12.4-5.4v-2.9c-4.1,1.5-8.8,3.9-14,7.5C728,206,721.6,223.7,719.9,228.2z
			 M745.7,198.3c-0.5,1.2-1.8,1.9-3.1,1.4c-0.3-0.1-0.5-0.3-0.8-0.5c1.1-1.1,2.2-2.1,3.6-2.9C746,196.9,746,197.4,745.7,198.3z"/>
		<path fill="none" d="M718.3,218c-3,8.4-4.2,16.7-4.6,23.9c1-9,3.5-20.7,10.1-31.3c6.8-11.1,18.2-21.6,30.4-28.1
			c1.6-0.9,3.4-1.7,5.2-2.5v-5.7c-4.3,1.8-8.5,4-12.3,6.7C733.4,190.4,723.7,202.9,718.3,218z"/>
		<path fill="none" d="M77.8,268.6l0.5,0c-0.1,0-0.2,0-0.3,0C77.9,268.6,77.9,268.6,77.8,268.6z"/>
		<path fill="none" d="M231.7,236c-8.3,6.3-20.5,17.1-31.1,32.5l4.6,0C210.6,259.2,218.9,247.8,231.7,236z"/>
		<path fill="none" d="M299.3,267.5c0.7-2.3,1.7-4.3,2.7-6.4c-0.6,1.1-1.5,2-2,3.2c-2.8,5.8-5.2,13.6-5.3,23.1
			c0.7,0.4,1.4,0.7,2.1,0.9C296.5,281.2,297.3,274.1,299.3,267.5z"/>
		<path fill="none" d="M309,249.7c0.2-0.2,0.4-0.4,0.6-0.6c1.7-1.7,3.4-3.5,5.3-5c3-2.4,6.2-4.6,9.7-6.1l0,0
			c3.8-1.9,7.9-3.3,12.1-4.4c16.4-4,33.3,0,48,5.9c-6.6-3.6-20.9-10-36.8-9.9c-22.1-1.1-41.2,10.3-42.6,11.4c-3.4,2.1-7.3,2.1-8.9,0
			c-1.6-2.1,0.3-5.9,4.2-8.3c1-0.9,10.4-5.2,22.8-7.5c-0.6-0.6-1.1-1.3-1.4-2.2c-0.7-5,5.8-7,10.3-7.3c4.9-0.4,9.6,0.3,14.1,1.3
			c8.9,2.2,16.5,5.6,22.9,8.2c12.8,5.5,19.8,10.6,19.9,10.5c0,0.1-6.8-5.4-19.5-11.3c-6.4-2.9-13.9-6.5-22.9-8.9
			c-4.5-1.1-18.1-1.2-20.1-0.6c0,0-1,0.3-1.5,0.5c-1.9,0.5-12.4-1.2-11.5-0.5l0.5,0.4l-0.3,0.5c0,0-1.7,3-0.4,5.5
			c1.7,3.1,4.2,3.2,4.2,3.2l-0.6,0.4c-0.1,0-13.5,3.3-18.5,6.2c-3.6,2-5.8,5.3-5.8,8.5c0,2.4,1.2,4.3,3.4,5.5
			c2.6,1.4,5.7,0.3,9.2-2.1l0.2,0.1c0,0-2,2.5-2,4.4c0,1,0.6,1.9,1.8,2.7l0.7,0.5l-0.6,0.6c0,0-4.2,4.2-9.7,10.1
			c-2,2.2-9.1,9.2-14.4,8.8c0,0,0,0-0.1,0c0.7,5.1,4.1,11.2,10.9,15.6c0.3,0.2,0.7,0.4,1,0.5c0.2-9.5,2.7-17.2,5.5-23
			C301.3,258.3,304.9,253.8,309,249.7z M315.1,219.5c-0.4-1.3,0.4-2.7,1.7-3c1.3-0.4,2.6,0.4,3,1.7c0.4,1.3-0.4,2.6-1.7,3
			C316.9,221.6,315.5,220.8,315.1,219.5z M305.5,247.9c-0.2-0.8,0.2-1.7,1.1-2c0.8-0.2,1.7,0.3,2,1.1c0.2,0.8-0.3,1.7-1.1,2
			C306.7,249.2,305.8,248.7,305.5,247.9z"/>
		<path fill="none" d="M172,268.6l1.4,0c2.8-3.8,6-7.8,9.6-11.7C179.3,260.6,175.7,264.5,172,268.6z"/>
		<path fill="none" d="M317.5,290.5c0,1-0.7,1.9-1.7,2.3c0.4,0.4,0.9,0.8,1.3,1.2C317.8,292.9,318,291.5,317.5,290.5z"/>
		<path fill="none" d="M740.7,234c-0.5,0.4-1,0.9-1.5,1.3c-0.7,0.6-1.3,1.1-1.9,1.7c-3.2,3.5-5.8,7.8-7.4,12.6
			c-2.1,6.2-2.1,12.8-1.1,19.1l4,0c-0.1-1.7-0.2-3.3-0.1-4.9c0.2-5.5,1.6-11.4,4.2-16.4c1.6-3,7.6-10.2,11.7-6.5
			c2,1.8,2.2,5.3-0.6,9c-1.2,2.1-5.6,7.8-6.8,17.1c-0.1,0.6-0.1,1.1-0.1,1.7l1.9,0c0.4-5.2,1.7-8.8,3.1-11.7c0.5-1,1.4-2.2,2.2-3.4
			c2.5-3.4,5.5-7.7,3.7-11.7c-0.8-1.9-2.3-3.2-4.2-3.7c-2.2-0.6-4.6,0-6.8,1.5c-4.3,3-6.3,7.2-8.7,11.3c0.8-2.4,2.3-5.5,3.6-7.8
			c1.5-2.7,3.6-5,6.1-6.9c3.7-2.9,8.2-4.5,12.9-5c1.8-0.2,3.4-0.1,4.8,0v-2.9c-2.7,0-5.4,0.2-8,0.8
			C747.5,230.2,743.8,231.8,740.7,234z"/>
		<path fill="none" d="M408,313.7c-0.3-0.9,0.3-1.9,1.2-2.2c0.9-0.3,1.9,0.3,2.2,1.2c0.1,0.3,0.1,0.5,0,0.8c6-2.4,11.6-5.3,17-8.9
			c0.1-0.1,0.1-0.2,0.2-0.3c-1.2-0.3-2.8-1.2-4.3-3.6c-2.2-3.4-1.1-6.6,0.7-8.7c-1.7,0.2-3.7-0.2-5.2-2c-2.6-3.1-2.3-6.3-2-7.7
			c-1.8-0.5-6.7-1.8-9.2-2.3c-4.8-0.9-8.6-0.3-11.2,1.6c-1.5,1.1-2.4,2.6-2.9,3.8c1.5-1,3.2-1.4,4.9-0.9c2.7,0.8,4.8,3.4,5.1,6.3
			c0.2,2.9-0.9,5.6-3.1,7.5c-2.3,2-5.3,2.8-8.3,2.1c-6.3-1.4-11.9-8.1-10.5-16.8c1.1-6.8,7.5-10.8,10.8-12.4
			c-8.8-1.8-19.7-1.5-21.9,1.9c-0.9,1.4-1.1,2.5-0.5,3.2c0.1,0.1,0.2,0.1,0.3,0.2c0-0.1-0.1-0.1-0.1-0.2c-0.3-1.3,0.4-2.5,1.6-2.9
			c1.2-0.3,2.5,0.4,2.9,1.6c0.3,1.1-0.2,2.3-1.3,2.7l0,0c-1.6,0.8-3.5,0.5-4.4-0.6c-0.5-0.5-1.4-2.1,0.3-4.8
			c3.1-4.8,17-4.2,25.5-2.1l2.2,0.6l-2.1,0.8c-0.1,0-10.5,4-11.9,12.2c-1.3,7.9,3.8,14,9.4,15.2c2.5,0.6,5.1-0.1,7.1-1.8
			c1.8-1.6,2.8-3.9,2.6-6.3c-0.2-2.3-1.9-4.5-4-5.1c-1.9-0.6-3.8,0.2-5.3,2.2l-1.5,2l0.2-2.4c0-0.2,0.4-4.3,4.1-7.1
			c2.9-2.2,7.1-2.9,12.3-1.9c3.1,0.6,9.7,2.4,10,2.5l0.7,0.2l-0.2,0.7c-0.1,0.2-1.2,3.7,1.6,7.1c2.5,3,6.7,1.1,6.9,1l0.2,0.1
			c-0.2,0.2-5.7,4.7-2.5,9.7c2.3,3.5,4.5,3,4.5,3l0.8,0c1.1-0.8,2.2-1.6,3.3-2.5c0.6-1.6,1.2-2.7,1.5-3.4c-3-1.4-5.8-4.5-4.9-9.5
			c0.6-3,2.9-5,4.6-6.2c-3.2-0.4-9.5-1.1-14.1-2.5l-0.3-0.1c-6.2-1.8-17.6-5-25.3-1.9c-7.3,3-8.1,7.4-7.9,9.7
			c0.3,3.4,2.9,6.7,5.9,7.4c1.1,0.3,2.1,0.1,3-0.3c-0.5-0.1-1-0.2-1.3-0.6c-0.9-1.2-0.7-2.9,0.6-4c1.3-1.1,3.1-1,4,0.2
			c0.6,0.8,0.5,1.8,0.1,2.7l0.2,0.1c-0.2,0.3-0.4,0.3-0.6,0.6c-0.2,0.2-0.2,0.5-0.4,0.6c-0.1,0.1-0.3,0.1-0.5,0.2
			c-1.6,1.6-3.5,2.5-5.6,2c-3.6-0.9-6.7-4.7-7-8.7c-0.4-4.6,2.9-8.7,8.8-11.1c8.1-3.3,19.9,0.1,26.2,1.9l0.3,0.1
			c6.2,1.8,15.8,2.6,15.9,2.6l2.6,0.2l-2.3,1.1c0,0-4.9,2.4-5.6,6.3c-0.8,4.5,2,7.3,4.7,8.3l0.7,0.3l-0.4,0.7c0,0-0.3,0.6-0.7,1.4
			c3.4-2.8,6.6-5.7,9.7-8.9c1.9,0.3,4,0.3,6.1,0c4.2-2.8,9.1-4.8,14.5-6.5c2.5-2.2,4.2-4.6,5.4-7c-6.4,1.1-12.7,1.5-18.6,1.4
			c-1.7,0.1-3.3,0.2-5,0.1c-10.3-0.3-21.1-3.4-31.2-7.1c-20.1-8.3-37.4-16-53.2-14.8c-15.5,0.8-25.5,7.3-29.1,8.9
			c-6.3,4.2-12.2,3.4-14.9-0.2c-5.6-7.3,7.1-16.2,12.3-18.4c8.6-3.7,18.4-5,27.6-4.7c18.3,0.2,41.9,12.3,60.3,22
			c8.7,4.1,17.6,4.7,26.3,5.7c-2.6-0.5-5.4-1.3-8.1-2.2c-10.5-3.2-19.6-8.2-29.1-13.5l-5.1-2.8c-17.3-9.5-43-21.5-67.3-15.6
			c-8.1,2-15.4,5.6-21.7,10.4c-1.1,0.9-2.1,1.9-3.1,2.9c-0.8,0.8-1.6,1.5-2.4,2.4c-4,4.8-7.2,10.6-9.2,17.2
			c-2,6.6-2.8,13.8-2.4,20.9c2.3,0.7,4.5,1.1,6.7,1.2c-1.8-3.8-2.6-9.2-1.4-16.6c1.3-7.6,4.6-14.8,9.9-20.6
			c3.5-3.8,7.6-6.9,12.3-9.1c3.8-1.8,9.3-3.9,13.3-4.9c-7.1,3.4-14.3,6.2-19.8,12.9c-2.7,3.3-4.1,7.2-3.4,10.9
			c0.6,3.2,2.5,5.9,5.5,7.5c6.4,3.5,13.8-1,19.8-4.5c2.2-1.3,4.2-2.5,6-3.2c11.1-4.5,28.6-7.6,66.1,8.8l12.2,5.1
			c0,0-12.7-3.8-12.7-3.8c-0.8-0.3-22.8-8.7-42.9-6.9c-18,1.6-34.2,12.9-36.1,25c-0.6,4,0.3,9.9,3.3,13.5c1.5,1.8,3.3,2.8,5.4,2.9
			c1.9,0.1,3.3-0.4,4.3-1.1c-0.9-0.2-1.7-0.8-2-1.8c-0.4-1.4,0.4-2.8,1.8-3.2c0.7-0.2,1.4-0.1,2,0.3c0.9,0.4,1.4,1.4,1.3,2.6
			c-0.4,2.4-3.1,4.8-7.4,4.6c-2.5-0.1-4.7-1.3-6.4-3.4c-3.3-4.1-4.2-10.4-3.6-14.6c2-12.7,18.7-24.5,37.4-26.2
			c9.9-0.9,20.2,0.6,28.3,2.5c-27.1-9.5-41-6.7-50.3-2.9c-1.7,0.7-3.7,1.9-5.8,3.1c-6.3,3.8-18,7.2-21.2,4.6
			c-2.9-2.4-5.5-4.8-6.2-8.4c-0.7-4.1,0.6-8.6,3.7-12.1c0.8-0.9,1.7-1.8,2.6-2.6c-6.1,4.3-13.4,12-15.8,25.4
			c-1.3,7.4-0.4,12.8,1.5,16.3c2.1-0.1,4-0.4,5.6-1c0.2,0.2,0.3,0.3,0.5,0.5c0.3-0.7,0.8-1.4,1.7-1.6c0.2-0.1,0.4-0.1,0.6-0.1v-0.1
			c1.8-0.1,3.2,0.7,3.9,2.1c0.8,1.5,0.5,3.5-0.6,5.1c16.2,14.8,36.4,23.8,58.3,24.6c0.1-1.1,0.1-2.2,0-3.3
			c-0.4-4.7-2.4-9.3-6.3-11.3c-0.4-0.2-0.9-0.3-1.4-0.5c0,0.1,0.1,0.2,0.1,0.3c0.6,2.2-0.6,4.5-2.9,5.2c-2.2,0.6-4.6-0.6-5.2-2.9
			c-1.6-5.7,5-8.1,10-5.2c4.6,2.7,7,8.2,7.4,13.4c0.1,1.4,0.1,2.9,0,4.3c0.5,0,1,0,1.5,0c10.1,0,19.9-1.8,29.1-5.1
			C408.3,314.4,408.1,314.1,408,313.7z M411.3,302.9c1.2-0.4,2.5,0.4,2.9,1.6c0.4,1.2-0.4,2.5-1.6,2.9c-1.2,0.4-2.5-0.4-2.9-1.6
			C409.4,304.5,410.1,303.2,411.3,302.9z M430.7,296.8c0.4,1.2-0.4,2.5-1.6,2.9c-1.2,0.4-2.5-0.4-2.9-1.6c-0.4-1.2,0.3-2.5,1.6-2.9
			C429,294.9,430.3,295.6,430.7,296.8z M423.5,282.8c1.5-0.4,3.1,0.4,3.5,1.9c0.4,1.5-0.4,3.1-1.9,3.5c-1.5,0.4-3.1-0.4-3.5-1.9
			C421.2,284.8,422,283.3,423.5,282.8z M450.6,283.4c0.9-0.3,1.9,0.3,2.2,1.2c0.3,0.9-0.3,1.9-1.2,2.2c-0.9,0.3-1.9-0.3-2.2-1.2
			C449.1,284.7,449.6,283.7,450.6,283.4z M444.8,282.2c1.1-0.3,2.3,0.3,2.6,1.4c0.3,1.1-0.3,2.3-1.4,2.6c-1.1,0.3-2.3-0.3-2.6-1.4
			C443,283.7,443.7,282.5,444.8,282.2z M442.8,288.3c0.7,2.2-0.6,4.5-2.9,5.2c-2.2,0.6-4.5-0.7-5.2-2.9c-0.6-2.2,0.7-4.5,2.9-5.2
			C439.8,284.8,442.2,286.1,442.8,288.3z M397.7,308.4c-0.7,0.2-1.4-0.2-1.6-0.9c-0.2-0.7,0.2-1.5,0.9-1.7c0.7-0.2,1.4,0.2,1.6,0.9
			C398.8,307.5,398.4,308.2,397.7,308.4z"/>
		<path fill="none" d="M542.6,238.5c3.5-6.9,6.4-14.1,8.7-20.5c-9.4,23.3-25.1,40.5-34.6,46.8c-2.1,1.4-4.2,2.6-6.2,3.8l10.1,0
			C526.8,262.6,536.2,251.9,542.6,238.5z"/>
		<path fill="none" d="M747.2,268.7l12.3,0v-17.3C754.1,254,749.1,260.8,747.2,268.7z"/>
		<path fill="none" d="M747.3,229.7c1.3-0.5,2.6-1,4-1.3c2.6-0.6,5.4-0.8,8.2-0.8v-1.1c-4,0.2-7.4,1.1-10.2,2.1
			C748.6,229,748,229.4,747.3,229.7z"/>
		<path fill="none" d="M294.8,260.6c4.4-4.7,7.9-8.3,9.2-9.6c-1.1-1-1.7-2.1-1.8-3.3c0-0.6,0.1-1.1,0.3-1.6
			c-2.5,1.3-4.8,1.6-7.1,0.4c-2.6-1.4-4.1-3.9-4.1-6.7c0-3.7,2.5-7.5,6.5-9.7c1.4-0.8,3.3-1.6,5.5-2.3c-1.3-1.6-1.3-5.3,0.4-7.4
			c1.7-2.2,3.3-3.1,3.9-3.4c-2.8,0.6-5.9,1.6-9.1,2.8c-4.2,1.9-6,3.9-5.3,5.9l0.3,0.8l-0.8,0.1c-0.1,0-2.2,0.4-2.4,2.8
			c-0.2,2.3,2.1,4.2,2.4,4.2l-0.5,0c-0.1,0-11.2-1.6-14.6,3.5c-1.1,1.7-1.3,3.2-0.7,4.5c0.6,1.3,2,1.9,3,2c1,0.1,1.8-0.5,2.3-1.2
			c-0.7-0.1-1.4-0.6-1.6-1.4c-0.3-1,0.3-2.1,1.3-2.4c1-0.3,2.1,0.3,2.4,1.3c0.1,0.4,0.1,0.8,0,1.1c0,0.4-0.2,0.9-0.4,1.4
			c-0.7,1.2-2.1,2.7-4,2.6c-1.7-0.1-3.4-1.2-4.2-2.7c-0.8-1.7-0.6-3.8,0.8-5.9c2.7-4.2,9.4-4.6,13.2-4.4c-0.5-0.7-0.8-1.5-0.7-2.7
			c0.2-2.3,1.7-3.4,2.9-3.8c-0.2-1.2,0.3-2.3,1.2-3.4c-6.3,2.8-12.2,5.9-15.1,7.8c-11.8,7.6-19.5,14.7-21.2,16.2
			c0.6,1.5,1.9,6.5-3.2,10.6c-3.5,2.9-7.1,1.3-8.5,0.4c-2.7,4-4.9,7.7-6.8,11.3l39.8,0c-0.1-0.1-0.1-0.1-0.2-0.2
			c-1.2-1.8-1.5-3.8-0.7-5.6c0.7-1.7,2.4-3,4.3-3.2l0,0.1c1.1,0,2.1,0.7,2.4,1.8c0.4,1.4-0.4,2.8-1.8,3.2c-1.4,0.4-2.8-0.4-3.2-1.8
			c0-0.1,0-0.2-0.1-0.3c-0.2,0.2-0.3,0.5-0.4,0.7c-0.6,1.3-0.4,2.8,0.6,4.2c0.3,0.4,0.6,0.7,1,1l1.2,0c0,0.1,0,0.3,0,0.4
			c0.1,0,0.2,0.1,0.3,0.1C285.3,269.3,290.9,264.9,294.8,260.6z M296.9,222.1c1.6-0.5,3.3,0.5,3.7,2.1c0.5,1.6-0.5,3.3-2.1,3.7
			c-1.6,0.5-3.3-0.5-3.7-2.1C294.3,224.3,295.3,222.6,296.9,222.1z M291.4,230.1c-0.3-0.9,0.3-1.9,1.2-2.2c0.9-0.3,1.9,0.3,2.2,1.2
			c0.3,0.9-0.3,1.9-1.2,2.2C292.6,231.6,291.7,231.1,291.4,230.1z M289.9,250.4c1-0.3,2,0.3,2.3,1.2c0.3,1-0.3,2-1.2,2.3
			c-1,0.3-2-0.3-2.3-1.2C288.3,251.7,288.9,250.6,289.9,250.4z M268.1,248.8c-0.7,0.2-1.4-0.2-1.6-0.9c-0.2-0.7,0.2-1.5,0.9-1.6
			c0.7-0.2,1.4,0.2,1.6,0.9C269.2,247.8,268.8,248.6,268.1,248.8z M281.7,254.1c-0.7,0.2-1.5-0.2-1.6-0.9c-0.2-0.7,0.2-1.4,0.9-1.6
			c0.7-0.2,1.4,0.2,1.7,0.9C282.8,253.1,282.4,253.8,281.7,254.1z"/>
		<path fill="none" d="M273.7,219.9c18.4-9.3,38-12,52.9-12.4c-12-0.4-25.8,0.5-40,4.3c-25.6,6.8-47.4,21.1-64.9,42.5
			c-3.6,4.4-6.9,9.2-9.8,14.2l10,0c0.5-0.8,1-1.6,1.5-2.4C235.7,246.8,254.5,229.5,273.7,219.9z"/>
		<path fill="none" d="M286.2,210.4c12.5-3.3,24.6-4.4,35.6-4.4c-20.1-0.8-42.6,2.1-63.2,11c-27.7,10.8-49.7,31.1-63.1,51.5l3.7,0
			c18.7-27.2,43-40.4,43.2-40.6l0.1,0.2c-18,14.4-29,28.9-35.6,40.4l3.5,0c3-5.3,6.5-10.4,10.3-15.1
			C238.2,231.7,260.3,217.2,286.2,210.4z"/>
		<path fill="none" d="M306.8,211.5l1-0.2c0.7-0.4,1.5-0.6,2.5-0.9c0-0.1,0-0.1,0-0.2c-11.4,1.6-23.9,4.8-36,10.9
			c-18.9,9.6-37.6,26.7-49.8,45.8c-0.3,0.5-0.7,1.1-1,1.7l7.3,0c2.9-5,6.5-10.4,11.3-16.2C267.7,221.1,306.4,211.6,306.8,211.5z"/>
		<path fill="none" d="M290.4,159.5c17.2,2.2,33.9,8.2,50,18.2c-1.4-2.5-1.8-5.1-0.6-7.9c1.4-3.5,5.1-4.2,8.4-2.9
			c2.2,1,8.6,4.3,27.3,19.9c0.7,0.6,11.3,10.1,11.1,10.5c0.4-0.8-9.9-10.5-10.6-11.2c-9.3-9.5-19.4-17.8-31.1-24.4
			c-9.3-5.2-19.3-10.6-29.8-14.9c-0.7,0.7-1.4,1.4-2.1,2.1c2.3,0.9,4.6,1.8,6.9,2.8c15.7,7,21.6,10.9,21.8,11l1.8,1.2l-2.1,0.1
			c-2.4,0.1-4.4,1.1-5.3,2.7c-0.8,1.3-0.8,2.9,0,4.6l0.9,2l-1.9-1.1c-0.2-0.1-23.4-13.6-42.7-14.7l-0.5,0l-0.1-0.5
			c0-0.1-0.5-1.4-1.6-2.4c-0.5,0.4-1,0.8-1.5,1.3c0,0,0.1,0,0.1,0.1C290.4,156.7,290.4,159.1,290.4,159.5z"/>
		<path fill="none" d="M244.6,255.2l0.6,0.5c0.2,0.1,3.8,3,7.4,0c5-4.1,2.9-8.9,2.7-9.4L255,246l0.4-0.4c0.1-0.1,8.3-8.1,21.7-16.7
			c4-2.6,13.2-7.3,22.1-10.5c0.2-0.1,0.3-0.1,0.5-0.2l0,0c2.3-0.8,4.6-1.6,6.7-2.1c-0.1-0.2-0.2-0.3-0.2-0.6c-0.2-1-3.1,0.9-2.9,0.2
			c-7.7,2.2-37.8,10.3-60.1,37.5c-4.5,5.4-8,10.5-10.7,15.3l4.3,0c2-4,4.6-8.1,7.6-12.7L244.6,255.2z M252.4,247.9
			c0.3,0.4,0.5,0.8,0.7,1.3c0.6,2.1-0.6,4.3-2.7,4.9c-1.4,0.4-2.3,0.3-3.3-0.7C248.7,251.3,250.5,249.5,252.4,247.9z"/>
		<path fill="none" d="M754.8,232.2c-8.2,0.8-13.2,4.8-16.1,8.3c0.5-0.5,1.1-1,1.7-1.4c2.3-1.7,5-2.3,7.5-1.6
			c2.2,0.6,3.5,2.3,4.8,4.1c1.4,2-1.2,9-3.8,12.6c-0.9,1.2-1.7,2.4-2.2,3.3c-1.4,2.8-2.7,6.3-3,11.3l2.6,0c2-8.4,7.3-15.5,13.2-18.2
			v-18.3C758.1,232,756.6,232,754.8,232.2z"/>
		<path fill="none" d="M459.3,270.9c-0.7-0.1-1.4-0.1-2-0.2c5.9,0.9,11.6,1.6,16.6,0.9c0.1-0.5,0.2-1,0.2-1.4
			c-2,0.2-4.3,0.5-6.8,0.4C464.7,270.5,462,271.2,459.3,270.9z"/>
		<path fill="none" d="M543.1,231.7c-3.6,5-7.8,9.3-12.3,14c-6.2,6.4-16.8,15.2-33.9,22.8l10.6,0c2.7-1.5,5.5-3.1,8.3-4.9
			C521,260.2,533.2,249.1,543.1,231.7z"/>
		<path fill="none" d="M722.9,201.3c-6.4,12-9.3,25.4-9.8,37.6c0.5-6.6,1.8-13.9,4.4-21.3c5.4-15.3,15.2-27.9,29.2-37.5
			c4-2.7,8.3-5,12.8-6.8v-2c-7.6,3.1-18.2,9.2-29.1,20.8l-0.1,0c0.1-0.2,8-12.1,22.9-21.8l-3.3,0
			C739.4,177.6,729.3,188.2,722.9,201.3z"/>
		<path fill="none" d="M378.5,147.5c1.3-0.4,2.4,0,3.3,0.4c-1.1-4.3-3.4-15.6-2.5-28.6c-5.3,0-10.6,0.5-15.7,1.5
			c2.8,9.3,6.8,18.5,12.4,28.6C376.5,148.7,377.2,147.9,378.5,147.5z M373.2,135.6c-0.9,0.3-1.9-0.3-2.2-1.2
			c-0.3-0.9,0.3-1.9,1.2-2.2c0.9-0.3,1.9,0.3,2.2,1.2C374.6,134.4,374.1,135.3,373.2,135.6z M373.8,127.7c-0.7,0.2-1.4-0.2-1.6-0.9
			c-0.2-0.7,0.2-1.4,0.9-1.7c0.7-0.2,1.4,0.2,1.6,0.9C374.9,126.8,374.5,127.5,373.8,127.7z"/>
		<path fill="none" d="M358.8,144.1c-0.7-1.2-1.5-2.3-2.3-3.5c-3-5-5.6-10.2-8-15.4c-1.1,0.4-2.1,0.8-3.2,1.3c0.6,1.4,1,2.2,1.1,2.2
			l0,0.1c-0.6-0.7-1.2-1.4-1.7-2c-0.9,0.4-1.9,0.8-2.8,1.3C348,133.1,353.7,138.5,358.8,144.1z"/>
		<path fill="none" d="M688.3,174.1c-4,6.7-7.2,12.3-9.1,19c-3.8,13.2-3.1,27.3,2,41.9c2.4,6.9,4.2,10.8,5,12.5
			c0.4-1.2,1.1-2.1,2.1-2.6c0.8-0.4,1.7-0.5,2.5-0.2c-1.5-3.5-6.5-15.5-6.4-25.6c-0.8-0.4-2.9-1.8-1.9-4.7c-0.7-0.5-2.4-2.1-2.2-4.7
			c0.3-2.8,2.2-3.9,3-4.2c0-1.1,0.5-2.9,2.3-3.7c0.2-2.2,2-17.3,10.7-31.5l-5.8,0c-0.6,1.2-1.3,2.2-1.8,3.1L688.3,174.1z"/>
		<path fill="none" d="M439.7,153.2c-0.4,0.1-0.8,0.1-1.2,0.2c1.6,2.5,7.5,9.7,19.7,8c5.9-0.8,8.7-2.7,10-4.4c-1-1-2.1-1.9-3.4-2.8
			c-0.3,0.3-0.7,0.5-1.2,0.5c-0.7,0-1.2-0.4-1.6-0.9l-0.3,0.1c0-0.2,0-0.4,0-0.6c-0.1-0.2-0.2-0.3-0.3-0.6c0-0.2,0-0.3,0.1-0.5
			c-5.2-2.7-10.8-3.5-15.3-2.8c-0.2-0.3-0.5-0.5-0.7-0.8C444.3,150.7,442.2,152.4,439.7,153.2z"/>
		<path fill="none" d="M422.1,217.5l1.2,1.3c4.8,5.3,14.9,16.4,28.9,25.1c17.4,10.7,35,14.1,52.4,10c3.3-0.8,11.6-3.1,19.6-8
			c-3.6,2-7.5,3.7-11.8,4.8c-17.8,5.3-39.2,4-52.6-6c-13.2-9.3-18.2-19.8-19.2-21.3c-3.7-6.9-2.1-14.1,2.1-15.2
			c4.1-1,8.8,2.5,11.7,7.9c0.8,1.2,4.1,10,13.4,18c8.7,8.4,26.1,11.8,43,8.9c7-0.9,13.3-3.7,18.7-7.4c-8.5,4.7-16.5,6.3-17.4,6.1
			c-3.3,0.3-6.1-1.6-6.3-4.2c-0.3-2.6,2.2-5,5.4-5.3c0.8,0,7.9-0.3,16-3.6c-4.4,1.6-8.8,2-12.8,1.1c-7.6-1.8-12.7-8.3-14.2-18.3
			c-0.9-6,1.5-11.9,6.2-15.4c4.4-3.3,10-3.7,15-1.3c3.8,1.9,5.8,5.2,6.2,8.6c0.4,2.6,0.2,5.8-1.9,8.5c-3.3,4.3-11.3,4.5-13.1,0.9
			c-1.8-3.6,2.2-4,4.5-3c1.8,0.8,5.4,1.1,7.4-1.4c1.5-1.9,2.1-5.4,0.4-8.6h0.1c-0.9-1.5-2.3-2.8-4.1-3.7c-4.6-2.2-9.5-1.8-13.6,1.2
			c-4.3,3.2-6.5,8.6-5.7,14c1.4,9.4,6.1,15.5,13.2,17.2c10.6,2.5,23.9-5.1,33.9-19.3c0.9-1.2,1.7-2.5,2.5-3.8
			c-1,1.3-2.1,2.6-3.3,3.7c-1.7,1.5-7.9,4.3-9.1,0.4c-1.1-3.7,3.4-5.1,5.7-7.1c3.4-2.9,6.5-5.9,9.5-9.2c2.1-2.4,4.1-4.9,5.9-7.5
			c3-4.5,6.4-8.7,10.1-12.7c0.8-0.9,1.7-1.8,2.6-2.6l-27.9,0c0,0.1,0,0.3,0,0.4c-0.4,5.1-3.4,8.9-8.2,10c-3.8,0.9-7.1-0.4-8.8-3.1
			c-1.4-2.2-1.5-5.1-0.2-6.8l0,0c0.1-0.2,0.3-0.3,0.5-0.5l-23.9,0c2,0.2,3.4,1.7,3.8,3.2c0.2,1,0,1.8-0.5,2.4
			c-0.2,0.2-0.4,0.4-0.7,0.5c-0.8,0.2-1.6-0.2-1.9-1c-0.2-0.8,0.2-1.6,1-1.9c0.2-0.1,0.4-0.1,0.6-0.1c-0.4-0.9-1.3-1.7-2.4-1.8
			c-1.2-0.1-4.4,0.6-8,9.1c-3.8,9.2-1.1,20.3,0.9,26.2c0.4-7.1,5-14.5,13-16.9c5.2-1.5,10.1-0.8,14.3,2c6.9,4.6,7.7,14.1,5.7,18.9
			c-2,4.6-6.7,6.8-10.2,7.3c-2.4,0.3-6.3-0.6-8.6-2.8c-1.4-1.3-2.1-3-1.9-4.9c0.1-1.6,0.7-2.7,1.8-3.5c1.8-1.2,4.2-0.9,5.3-0.7
			c0.2-0.5,0.2-1.2-0.1-2.1c-0.5-1.6-2.1-3.7-4.8-4.2c-2.2-0.4-4.2,0.9-4.9,2.4c0,0,0,0.1,0,0.1c0.7-0.1,1.5,0.3,1.7,1
			c0.2,0.8-0.2,1.6-1,1.9c-0.5,0.1-0.9,0-1.3-0.2l0,0c-0.1-0.1-0.1-0.2-0.2-0.2c0-0.1-0.1-0.1-0.2-0.2c-0.7-0.8-0.8-1.9-0.2-3
			c0.9-2,3.6-3.7,6.4-3.2c3.2,0.6,5.2,3.1,5.9,5.1c0.5,1.6,0.4,3-0.3,3.8l-0.3,0.3l-0.4-0.1c0,0-3-0.8-4.7,0.4
			c-0.7,0.5-1.1,1.3-1.2,2.4c-0.1,1.4,0.4,2.7,1.5,3.8c2,1.8,5.4,2.7,7.4,2.4c3.1-0.4,7.4-2.4,9.1-6.5c1.6-3.8,1.3-12.9-5.2-17.2
			c-3.9-2.6-8.3-3.2-13.1-1.8c-9.1,2.6-14.7,13.6-10.4,25.5l-2.5-4.7c-0.3-0.7-8.5-18.3-2.8-32c3.5-8.4,6.9-10.1,9.2-10l-8.1,0
			c-1.5,2.5-2.7,5.2-3.6,7.9c-6.7,21.1,6.6,40.1,7.6,41.4l1.1,1l-1.5,0.2c0,0-2.4,0.3-3.2,1.9c-0.6,1.1-0.3,2.6,0.7,4.4l0.4,0.7
			l-0.7,0.3c-4.4,1.8-5.2,5-4.5,7.5c0.7,2.4,2.9,4.2,2.9,4.2l1.5,1.2l-2,0c-19.7,0-31.7-15.9-40-29.7c-2.7-4.5-6.3-7.4-9.8-7.8
			c-2.7-0.4-5.4,0.7-7.9,3.2c-5.6,5.6-0.6,19.3,2.6,24.2l-0.1,0c-16-17.4-43.8-52.9-42.8-89.8c0.2-7.5,1.4-13.9,3.2-19.5
			c-3.4-0.8-6.8-1.5-10.3-1.9C377.8,160.8,404.1,197.9,422.1,217.5z M499,223c1.1-0.3,2.3,0.3,2.6,1.4c0.3,1.1-0.3,2.3-1.4,2.6
			c-1.1,0.3-2.3-0.3-2.6-1.4C497.3,224.5,497.9,223.3,499,223z M494.5,235.2c-0.5-1.7,0.5-3.4,2.2-3.9c1.7-0.5,3.4,0.5,3.9,2.2
			c0.5,1.7-0.5,3.4-2.2,3.9C496.7,237.8,495,236.8,494.5,235.2z"/>
		<path fill="none" d="M674.1,209c-0.7,14.2,5.3,29.1,11.2,41.8c3,6.5,6.9,12.4,11.4,17.8l1,0c-7.3-10.6-8.9-14.4-9.4-15.7
			c-0.6-2,0-4.2,2.2-4.9c1.8-0.6,3.3-0.3,4.8,0.7c-5.2-10.2-8-20.6-8.5-31.1c-0.3,0-1.7-0.2-2.1-1.2c-0.6-1.4,0.4-3.5,2.2-3.4
			c-1.3,0.1-2.8,0.2-3.7-2.3c-0.6-1.8,0.5-3.5,2.1-4.3c0,0,0,0,0,0c-0.3-1.3,0.9-2.8,2.3-2.8c0.9-6,2.5-12.1,5-18.2
			c2.3-5.5,5-10.6,8-15.3l-3.1,0c-9.4,15.2-10.8,31.6-10.8,31.8l0,0.3l-0.3,0.1c-2.1,0.7-2,3.1-2,3.2l0,0.3l-0.3,0.1
			c-0.1,0-2.4,0.8-2.7,3.6c-0.2,2.6,1.9,4,2,4.1l0.3,0.2l-0.1,0.3c-1.1,3,1.5,4,1.6,4.1l0.3,0.1l0,0.3c-0.3,11.7,6.7,26.4,6.7,26.5
			l0.6,1.2l-1.2-0.6c-1-0.6-2-0.6-2.8-0.2c-1,0.5-1.7,1.6-1.9,3.1l-0.2,1.3l-0.6-1.1c-0.1-0.2-2.1-3.9-5.6-13.7
			c-5.2-14.8-5.9-29.1-2-42.4c2-6.8,5.2-12.5,9.2-19.2l0.4-0.6c0.5-0.8,1-1.7,1.5-2.7l-2.3,0c-1.2,2.3-2.8,4.9-4.5,7.7
			C681.8,179.7,674.1,190.5,674.1,209z"/>
		<path fill="none" d="M690.8,217.9c0.3,15,6,30.6,13.8,45c1.2,1.9,2.4,3.8,3.6,5.7l2.5,0c-4.2-6.6-8.4-14.5-11.1-23.2
			c-4.4-13.4-4.6-28-3-39.2c2.1-11.3,5.4-18.4,5.9-19.7c2.2-5,6.5-8.1,8.7-6.6c2.1,1.5,1.9,5.7-0.1,10.4c-0.4,1.1-4.1,7.8-6.7,17.5
			c-2.2,9.8-3.3,23.5-0.2,36.4c0.8,3.7,1.9,7.3,3.2,10.7c-5.1-18.8-4.1-37.6,3.1-55.8c3.9-10.1,9.8-19.8,17.2-28.8l-2.8,0
			c-5.5,7.2-9,13.1-9.1,13.2l-1,1.9c0.7-1.8,1.5-7-2.9-8.8c-4-1.6-9.5,4.2-9.6,4.2l0.8-1.1c1.4-2.3,4.2-6,7.1-9.4l-2.3,0
			c-1.6,2-3.2,4-4.6,6.1C694.4,189,690.4,202.6,690.8,217.9z"/>
		<path fill="none" d="M418.2,202.2c0.2-1.1,1-2,2.2-2.4c1.7-0.5,3.4,0.5,3.9,2.1c0.1,0.4,0.1,0.7,0.1,1.1c0.5-0.4,1.1-0.7,1.8-0.9
			c2.2-0.6,4.4,0.1,5.8,1.7c0-1.3,0.9-2.5,2.3-2.9c1.7-0.5,3.4,0.5,3.9,2.2c0.1,0.4,0.1,0.7,0.1,1.1c2.2-1.5,4.5-2.1,6.9-1.8
			c4,0.5,7.9,3.6,10.8,8.5c7.8,13.1,19.1,28.1,37,29c-0.8-0.9-1.6-2.1-2-3.6c-0.8-2.9,0-6.6,4.6-8.8c-1-2-1.1-3.7-0.4-5.1
			c0.7-1.4,2.2-2.1,3.2-2.4c-2.7-4.1-13.6-22-7.3-41.9c0.8-2.6,1.9-5.1,3.3-7.5l-20,0c0-2.6-0.7-5.7-2.5-8.8
			c-4.2,2.3-8.9,3.9-14.3,4.5c-9.6,1.1-19.3-3.1-24.2-10.4c-3.1-4.6-3.9-10.4-1.8-14.4c0.5-1.3,1.5-2.3,2.7-3
			c-0.6-0.5-1.3-1-1.9-1.5c-1.1,0.8-2.1,1.9-2.9,3.4c-0.6,1-5.5,10.4,5.9,21.8c8.3,8.3,8.7,15.5,8.4,18.2c-0.2,2.5-1.2,4.6-2.7,5.6
			c-1.7,1.2-3.4,1.6-4.7,1.1c-0.7-0.2-1.6-0.9-2.1-2.4c-0.4-1.3-0.1-2.6,0.8-3.6c0,0,0.1,0,0.1-0.1c0.2-0.4,0.6-0.8,1.1-0.9
			c0.3-0.1,0.5,0,0.8,0.1c0.2,0,0.4-0.1,0.6-0.1l0,0.2c0.4,0.2,0.7,0.5,0.8,1c0.3,0.9-0.3,1.9-1.2,2.2c-0.5,0.1-1,0-1.4-0.2
			c-0.1,0.4-0.3,0.7-0.2,1c0.2,0.8,0.6,1.3,1.2,1.5c0.8,0.3,2.1-0.1,3.5-1c1.1-0.8,1.9-2.5,2.1-4.6c0.5-5.2-2.5-11.6-8-17
			c-12.2-12.1-6.8-22.3-6.1-23.4c0.8-1.5,1.8-2.6,2.9-3.5c-9.1-6.4-19.1-11.2-29.8-13.9c-1.8,5.4-3,11.8-3.2,19.2
			C397.4,163.5,407,185,418.2,202.2z M486.3,229.2c0.3,1-0.3,1.9-1.2,2.2c-0.9,0.3-1.9-0.3-2.2-1.2c-0.3-0.9,0.3-1.9,1.2-2.2
			C485,227.7,486,228.2,486.3,229.2z M483.4,205.4c0.7-0.2,1.4,0.2,1.6,0.9c0.2,0.7-0.2,1.4-0.9,1.6c-0.7,0.2-1.4-0.2-1.6-0.9
			C482.3,206.3,482.7,205.6,483.4,205.4z M454.7,204.5c2.2,2.4,4.2,5.4,6.1,8.4c3.2,4.9,6.3,9.5,9.2,9.7c2.6,0.2,4.4-1.8,5-3.7
			c0.2-0.6,0.2-1.3,0.1-1.9c-0.2,0.3-0.5,0.6-0.9,0.7c-0.9,0.3-1.9-0.3-2.2-1.2c-0.3-0.9,0.3-1.9,1.2-2.2c0.5-0.2,1.1,0,1.5,0.4
			l0.1-0.3c1.5,0.8,2.1,2.7,1.5,4.8c-0.7,2.4-3,4.9-6.4,4.7c-3.6-0.2-6.9-5.2-10.3-10.4c-1.9-2.9-3.9-5.9-6-8.2
			c-6-6.5-12.9-4.2-13.2-4.2l-0.6,0.2l-0.3-0.6c0,0-0.9-1.9-2.8-2.3c-3-0.6-5.4,1.5-5.4,1.6l-0.4,0.4l-0.4-0.3
			c-1.6-1.1-4.1-0.7-4.1-0.7l-0.4,0.1l-0.2-0.4c-0.3-0.4-1.1-1.6-1.9-2.1c-1.2-0.7-2.2-0.9-3.1-0.6c-1.3,0.5-1.9,2-1.9,2l-0.5,1.4
			l-0.7-1.3c-1.4-2.4-7.6-14.9-9-19.8c-0.9-3-0.1-6.4,2-8.3c1.5-1.4,3.1-1.8,5.1-1l0,0.1c0.6,0.2,1.1,0.7,1.3,1.3
			c0.3,1.2-0.3,2.4-1.5,2.7c-1.1,0.3-2.4-0.3-2.7-1.5c-0.1-0.5,0-1,0.2-1.4c-0.6,0.2-1.1,0.5-1.4,0.8c-1.6,1.5-2.3,4.4-1.6,6.9
			c1.2,4,6.2,14.4,8.3,18.4c0.4-0.6,1.1-1.3,2.1-1.7c1.3-0.5,2.7-0.2,4.3,0.8c1,0.6,1.8,1.7,2.1,2.2c0.8-0.1,2.6-0.1,4.2,0.8
			c0.8-0.6,3.2-2.2,6.3-1.6c1.9,0.4,3.1,1.8,3.5,2.6C442.5,199.4,449.1,198.4,454.7,204.5z M428.4,188.8c2-0.6,4.2,0.6,4.8,2.6
			c0.6,2-0.6,4.2-2.6,4.7c-2,0.6-4.2-0.6-4.8-2.6C425.2,191.5,426.4,189.3,428.4,188.8z M406.9,127.4c2.1-0.2,4.2,1.1,5.1,3.2
			c0.5,1.3,0.2,2.5-0.4,3.6c-0.1,0.6-0.4,1-0.9,1.3c0,0,0,0.1-0.1,0.1l0,0c-0.1,0.1-0.2,0.2-0.4,0.3c-1.2,0.3-2.4-0.3-2.7-1.5
			c-0.3-1.2,0.3-2.4,1.5-2.7c0.7-0.2,1.4,0.1,1.9,0.5c0-0.4-0.1-0.8-0.2-1.1c-0.5-1.3-2-2.5-3.6-2.3c-2.4,0.3-4.3,3.4-5.1,8.6
			c-2.1,13.6,2.5,27.5,4,31.6c1.9-2.9,4.5-4.5,7.5-4.3c3.1,0.2,6,2.3,6.9,5.1c0.9,2.6,0,5.4-2.5,7.6c-1.8,1.6-4,0.8-5.3,0
			c0.7,3.9,4.2,10.2,5.4,12.2c0.6-0.5,1.3-0.7,1.9-0.7c0.7,0.1,1.3,0.5,1.8,0.9c0.4-1.3,1.2-2.8,2.5-4c1.6-1.3,3.5-1.8,5.5-1.5
			c7,1.1,7.8,6.4,7.9,8.6c1.1-0.3,2.1-0.4,3,0c1.4,0.6,2.3,1.8,2.8,2.7c4.8-3.8,4-8.7,3.1-13.4c-0.4-1.8-0.7-3.5-0.7-5.1
			c0-3,1-5.4,2.7-6.3c1.2-0.7,2.6-0.5,3.9,0.3l-0.1,0.2c0.4,0.3,0.8,0.7,0.9,1.2c0.3,1.2-0.3,2.4-1.5,2.7c-1.2,0.3-2.4-0.3-2.7-1.5
			c-0.2-0.6-0.1-1.2,0.2-1.7c0,0-0.1,0-0.1,0c-1.2,0.7-2,2.7-2,5.1c0,1.5,0.3,3.1,0.7,4.8c1,5.1,2.2,11-4.2,15.4l-0.7,0.5l-0.3-0.8
			c0,0-0.8-2.1-2.4-2.8c-0.9-0.3-1.8-0.3-2.9,0.3l-1.2,0.6l0.2-1.3c0-0.3,0.7-6.9-6.7-8.1c-1.6-0.3-3.1,0.2-4.4,1.2
			c-1.5,1.2-2.4,3.2-2.4,4.3l-0.1,2.5l-1.2-2.1c-0.2-0.3-0.9-1.2-1.6-1.3c-0.5,0-0.9,0.2-1.4,0.8l-0.6,0.7l-0.5-0.8
			c-0.3-0.4-6.3-10.4-6.1-15l0.1-1.5l1.1,1c0,0,2.9,2.5,4.8,0.9c2.1-1.9,2.8-4,2.1-6.1c-0.8-2.3-3.1-4-5.7-4.2
			c-1.7-0.1-4.7,0.3-6.9,4.7l-0.7,1.4l-0.6-1.4c-0.1-0.2-7.1-17.3-4.5-33.6C401.8,129.2,405.1,127.6,406.9,127.4z"/>
		<path fill="none" d="M712,175.9c3.1,1.3,3.7,3.7,3.9,5.5c1.4-2.2,4.1-6.3,7.7-11.1l-12.5,0c-1.9,2.2-3.8,4.6-5.3,6.7
			C707.5,175.7,709.7,175,712,175.9z"/>
		<path fill="none" d="M428.6,210.9c1.9-0.5,2.9-2.5,2.4-4.3c-0.5-1.8-2.5-2.9-4.3-2.4c-1.8,0.5-2.9,2.5-2.4,4.3
			C424.8,210.3,426.8,211.4,428.6,210.9z M427.1,205.5c1.1-0.3,2.3,0.3,2.6,1.4c0.3,1.1-0.3,2.3-1.4,2.6c-1.1,0.3-2.3-0.3-2.6-1.4
			C425.3,207,426,205.8,427.1,205.5z"/>
		<path fill="none" d="M708.3,256.1c1.2,4.3,3,8.4,5,12.4c0,0.1,0.1,0.1,0.1,0.1l2.6,0c-1.3-3.2-2.6-6.8-3.6-10.7
			c-3.3-12.3-4-29.2,0.3-45.9c0.3-1.3,0.7-2.6,1.1-3.9c0.2-0.7,0.4-1.4,0.6-2c1.5-4.6,3.4-9.4,6.1-14.4c0.1-0.2,0.2-0.4,0.3-0.6
			c0.3-0.5,0.7-1.1,1-1.6c3.8-6.6,8.5-13,14.3-19.2l-7.6,0c-7.6,9.1-13.5,19-17.5,29.1C703.7,217.9,702.9,237,708.3,256.1z"/>
		<path fill="none" d="M697,250.6c0.5,1.1,1.1,1.8,1.8,2.7c-5.2-11.6-8.7-23.7-8.9-35.4c-0.3-15.5,3.7-29.2,12.4-41.9
			c1.3-1.9,2.7-3.8,4.2-5.6l-5,0c-3.1,4.8-5.9,10-8.2,15.7C684.3,207.8,685.6,229.5,697,250.6z"/>
		<path fill="none" d="M438.7,149.6c-1.6,0.4-3.1,0.2-4.4-0.5c-0.1,2.2,0.4,4.3,1.8,6.5c3.8,5.8,10.7,10.4,21.2,9.2
			c5.1-0.6,9.7-2.1,13.7-4.3c-0.6-0.9-1.2-1.7-1.9-2.6c-1.6,1.9-4.7,3.9-10.7,4.7c-15.3,2.2-21.6-9.4-21.6-9.5l-0.5-1l1.1,0
			c0.7,0,1.4-0.1,2-0.3c2.4-0.7,4.2-2.3,5.2-4.4c-0.6-0.6-1.1-1.1-1.7-1.7C442.1,147.5,440.7,149,438.7,149.6z"/>
		<path fill="none" d="M641.6,182.6c3.1,13.6,7.2,25.3,9.9,32.4c-3.4-12.5-4.7-21.8-1.6-26.5c1.4-2.2,3.1-3.4,4.8-3.6
			c1.7-0.2,3,0.7,3.6,1.2c0.1-0.2,0.2-0.5,0.4-0.8c0.5-0.9,1.2-1.5,2.1-1.7c1.1-0.3,2.2,0.1,2.8,0.4c1.4-4.9,3.4-9.3,6.1-13.7
			l-21.1,0c-0.6,0.3-1.3,0.3-2.1,0l0,0l-5.2,0C640.4,173.3,640.4,177.5,641.6,182.6z"/>
		<path fill="none" d="M293,156.1c16.7,1.1,35.8,10.9,41.3,14c-0.3-1.5-0.1-2.9,0.7-4.2c0.9-1.5,2.5-2.6,4.5-3
			c-2.7-1.6-8.9-5-20-9.9c-2.5-1.1-4.9-2.1-7.4-3c0,0,0,0-0.1,0.1c-5.2-1.9-13.1-1.4-19.8,3c-0.3,0.2-0.6,0.5-1,0.7
			C292.2,154.5,292.7,155.5,293,156.1z"/>
		<path fill="none" d="M328.4,135.9c-0.6,0.4-1.3,0.9-1.9,1.3c13.3,7.9,26.1,17.8,37.9,28.6C360.3,161.7,346.4,147.6,328.4,135.9z"/>
		<path fill="none" d="M678.5,261.7c2.9,2.3,5.6,4.7,8.2,6.9l3.7,0c-10.4-10.8-19.8-21-27.7-34.4c-10-16.9-12.9-38.1-11.9-40.1
			c0.4-4.1,3.2-6.8,5.6-6.2c2.6,0.6,4.1,3.7,3.7,7c-0.3,3.2-1.5,20,6.7,37.2c6.3,14.9,17.1,27.4,19.8,30.6
			c-12.8-16.4-23-35.7-23.2-53.4c-1.3-21.3,7.3-35.8,8.7-37.8c0.2-0.4,0.5-0.7,0.8-1.1l-2.1,0c-2.9,4.7-5,9.3-6.5,14.4l-0.2,0.5
			l-0.5-0.3c0,0-1.3-0.8-2.6-0.5c-0.6,0.2-1.2,0.6-1.6,1.3c-0.4,0.7-0.6,1.2-0.6,1.2l-0.2,0.6l-0.5-0.5c0,0-1.5-1.5-3.4-1.4
			c-1.5,0.1-2.9,1.2-4.2,3.2c-3.7,5.7-0.3,19.5,4,33.5l2.4,7l-3.2-6.7c-0.1-0.2-7.8-17.3-13-39.9c-1.2-5.1-1.3-9.3-0.4-12.4l-5.7,0
			c4,16.1,8.8,33.1,15.9,49.5C658.3,237.4,667.5,251.1,678.5,261.7z M660.3,187c0.3-0.9,1.3-1.4,2.3-1c0.9,0.3,1.3,1.4,1,2.2
			c-0.3,0.9-1.4,1.4-2.3,1C660.4,188.9,659.9,187.9,660.3,187z"/>
		<path fill="none" d="M636.9,195.9c4.1,13.5,9.7,26.2,16.8,37.7l0.4,0.6c3.3,5.4,6.5,11.4,11.2,15.7l-0.1,0
			c-0.2-0.2-23.4-14.3-44.3-10.7c-5.6,1-9,3.5-9.5,7.1c-0.4,3.2,1.5,6.8,4.4,8.2c3.3,1.6,8.4,1.1,13.7,0.6c4.4-0.4,8.9-0.9,13.2-0.3
			c12.8,1.7,22.9,5.7,34.7,13.7l2.4,0c-3.6-2.3-7.3-4.5-11.2-6.6c-10.3-5.5-21.5-8.8-30.1-9.3c-8.3-0.6-14.7,1-15.7,0.9
			c-4.3,0.5-8.2-1.6-8.9-5c-0.7-3.4,2.7-6.9,7.6-7.4c1.2,0,8.3-1,18.6,1.1c10,1.9,21.8,7.3,31.8,14.4c0.7,0.5,1.3,1,2,1.5
			c-9.3-10.1-17.3-22.6-24-38c-7.2-16.4-12.2-34.2-16-49.8l-4.3,0c1.8,5,3.1,10.2,4.5,15.3C634.9,189.1,635.9,192.6,636.9,195.9z"/>
		<path fill="none" d="M380.8,180.7c13.7,15.7,27,31.7,40,44.9c13.2,13.3,28.2,23,42.2,28.1c11.8,4.2,22.3,5.4,30.6,5.3
			c8.7-0.9,17.6-3.4,25.7-8c1.6-0.9,3.2-2,4.7-3.2c-7.8,4.6-15.8,6.8-19,7.6c-17.8,4.2-35.7,0.7-53.5-10.2
			c-14.2-8.8-24.4-20-29.2-25.4l-1.2-1.3c-18.2-19.8-44.7-57.3-32.9-98.6c-2.5-0.2-5-0.4-7.5-0.4c-1.2,15.9,2.4,29.8,2.8,31.3
			c0.1,0.1,0.2,0.2,0.2,0.2l-0.1-0.1c0,0,0,0,0-0.1c-0.5-0.7-2.2-2.7-4.5-1.9c-1.7,0.6-2,2.3-2,2.3l-0.3,2.1l-1-1.8
			c-6-10.7-10.3-20.4-13.2-30.3c-0.6,0.1-1.2,0.2-1.8,0.4c1.5,4.8,3.3,9.7,5.3,14.4c15.2,35.5,39.6,66.3,39,66.5
			c0.5-0.4-21.4-21.4-40.9-50.4c-6.8-8.3-14.6-16.1-23.3-23.4c-2.3,1.2-4.6,2.4-6.9,3.8C351.2,146.9,365.3,163,380.8,180.7z
			 M380.7,154.7c-1.1,0.3-2.3-0.3-2.6-1.4c-0.3-1.1,0.3-2.3,1.4-2.6c1.1-0.3,2.3,0.3,2.6,1.4C382.5,153.3,381.8,154.4,380.7,154.7z"/>
		<path fill="none" d="M735.7,186.1c9.1-8.3,17.5-13,23.8-15.6v-0.2l-4.9,0C745.9,175.6,739.6,181.7,735.7,186.1z"/>
		<path fill="none" d="M571.9,173.1c-3.5,4.1-6.1,8.6-7.3,13.9c-0.4,1.6-0.5,3.1-0.7,4.7c-0.3,1.9-0.4,3.8-0.3,5.7
			c0,2.6,0.4,5.2,1,7.7c0.2,1,0.8,1.9,0.7,3c0,0.8-0.5,1.7-1.1,2.2c-0.3,0.2-0.7,0.4-1.1,0.3c-1.7-0.2-2.5-2.3-2.7-3.7
			c-0.3-2.3-0.4-4.5-0.2-6.8c0.1-1.4,0.2-2.7,0.4-4.1c-1.1,5-2.1,10.8-2.1,16.9c-0.6,9.4,0.6,19,3.1,28c0.6,2,1.7,3.8,1.4,5.9
			c-0.3,1.7-1.3,3.3-2.9,4c-2.3,1.1-5.4-0.6-6.4-3.8c-0.5-0.8-1.4-6.2-1.7-13.4c-0.6,2.5-1.3,5-2.1,7.6
			c-2.7,10.1-7.4,19.6-12.1,27.2l6.6,0c0.1-0.8,0.2-1.7,0.7-2.5c-3-1.3-1.1-4.4-1.1-4.4c1.2-2.1,3.6-6.9,4-7.8c0-0.1,0-0.2,0-0.2
			s0,0.1,0,0.2c0-0.1,0-0.1,0-0.1s0,0.1,0,0.3c0,1.6,0.2,9.3,1.3,14.6l1.9,0c-0.3-1-0.5-2-0.7-3c-2.4-10.7-0.1-20.9,0.4-22.7
			c0.1-0.6,0.2-1,0.2-1c0-0.1-0.5,9.1,3,17.3c0.8,1.9,1.7,3.7,3,5.3c1.2,1.5,2.7,2.9,4.3,4.1l3.9,0c-0.5-0.2-1.1-0.4-1.7-0.7
			c-3.2-1.2-6.2-4.7-6.5-7.9c-0.2-2.2,0.8-4.2,2.9-5.4c1.6-1,3.3-1,4.8-0.2c1.6,0.9,2.7,2.6,2.6,4.1c0,1-0.5,1.8-1.3,2.2l0-0.1
			c-0.1,0.1-0.3,0.2-0.4,0.2c-0.9,0.3-1.9-0.3-2.1-1.2c-0.3-0.9,0.3-1.9,1.2-2.2c0.4-0.1,0.8-0.1,1.2,0.1c-0.3-0.8-0.9-1.5-1.7-2
			c-0.8-0.4-2-0.8-3.4,0.1c-1.6,1-2.4,2.4-2.2,4.1c0.3,2.6,2.8,5.7,5.6,6.7c1.6,0.6,3.1,1.2,4.4,2l107.5,0.1
			c-11.3-7.5-21-11.2-33.3-12.9c-4.2-0.6-8.7-0.1-13,0.3c-5.4,0.5-10.6,1.1-14.1-0.7c-3.2-1.6-5.4-5.5-4.9-9.1
			c0.3-2.3,2.1-6.5,10.2-7.9c8.2-1.4,16.7-0.1,24.1,2.1c-0.1-0.1-0.1-0.3-0.1-0.5c0.2-1.5,1.7-2.6,3.2-2.3c0.8,0.1,1.4,0.5,1.8,1.1
			c0-0.1,0-0.1,0-0.2c0.7-1.8,2.6-2.6,4.4-2c0.2,0.1,0.4,0.2,0.5,0.3c-0.5-0.8-1-1.5-1.4-2.3l-0.4-0.6
			c-7.1-11.6-12.8-24.4-16.9-37.9c-1-3.4-1.9-6.9-2.8-10.3c-1.4-5.2-2.8-10.4-4.6-15.5l-15.2,0c1.4,1.5,2.7,3.1,3.8,4.9
			c6,9.7,3.8,18.6,1.9,23.1c-2.8,6.7-8.3,12-14,13.3c-8.6,2.1-15-1.6-18.2-5.7c-3.2-4.1-3.8-9.2-1.6-13.4c3.1-5.8,7.7-6.4,10.8-5.2
			c2.3,0.9,3.7,2.8,3.5,4.7c0,0.2,0.1,0.3,0.1,0.5c-0.2,1.6-1.6,2.8-3,2.6c-1.4-0.2-2.3-1.7-2.1-3.4c0.2-1.3,1.1-2,2.1-2.3
			c-0.4-0.3-0.6-0.6-1.1-0.8c-2.5-1-6.4-0.4-9,4.5c-1.9,3.6-1.4,8.2,1.4,11.8c2.9,3.7,8.8,7.1,16.8,5.2c5.3-1.2,10.4-6.1,13-12.5
			c1.8-4.2,3.9-12.7-1.8-21.8c-1.3-2.1-2.9-4-4.6-5.6l-23.2,0c0.4,0.3,0.8,0.6,1.1,1c2.3,2.5,3.1,6.5,0,10.1c-1.8,2-4.4,2.8-6.6,2.1
			c-1.5-0.5-2.7-1.8-2.9-3.4c-0.3-1.2,0.4-2.4,1.6-2.8c1.2-0.3,2.5,0.4,2.8,1.5c0.4,1.2-0.3,2.5-1.6,2.8c-0.1,0-0.2,0-0.3,0.1
			c0.2,0.2,0.5,0.3,0.8,0.4c1.6,0.5,3.7-0.2,5.1-1.7c2.6-2.9,1.9-6.2,0-8.2c-0.8-0.9-1.9-1.6-3.1-1.9l-4.5,0
			c-1.2,0.3-2.3,0.9-3.6,1.8c-10.3,7.8-11.6,23.1-8.5,33.9c1.9,6.7-1.8,8.5-3.5,9c-1.6,0.5-3-0.7-3.9-1.8c0,6,0.5,21.8,6.2,27.7
			c2.1,2.1,4,3,5.5,2.4c0.7-0.2,1.2-0.7,1.6-1.3c-1.1,0.1-2.1-0.6-2.4-1.6c-0.3-1.2,0.4-2.5,1.6-2.8c1.8-0.5,3.1,1,2.9,2.7
			c-0.1,1.6-1.3,3.7-3.2,4.3c-1.5,0.5-3.9,0.5-7-2.8c-7.5-7.8-6.2-30.5-6.2-31.4l0,0c0,0,2.6,3.8,4.5,3.2c1.6-0.5,4-2,2.5-7.3
			c-3.3-11.3-1.8-27.2,9-35.4c0.4-0.3,0.8-0.5,1.1-0.7l-2.9,0C573.7,171.3,572.8,172.2,571.9,173.1z M667.5,265.1
			c0.5,0.2,0.8,0.8,0.6,1.4c-0.2,0.5-0.8,0.8-1.4,0.6c-0.5-0.2-0.8-0.8-0.6-1.4C666.3,265.2,666.9,264.9,667.5,265.1z M662.8,265.4
			c0.4,0.2,0.6,0.6,0.5,1c-0.2,0.4-0.6,0.6-1.1,0.5c-0.4-0.2-0.6-0.6-0.5-1C662,265.5,662.4,265.3,662.8,265.4z M644,236.7
			c-0.2,0.6-0.9,0.9-1.5,0.7c-0.6-0.2-0.9-0.9-0.7-1.5c0.2-0.6,0.9-0.9,1.5-0.7C643.9,235.4,644.2,236.1,644,236.7z M649.1,235.9
			c-0.3,0.8-1.2,1.2-1.9,0.9c-0.8-0.3-1.2-1.2-0.9-1.9c0.3-0.8,1.2-1.2,1.9-0.9C649,234.3,649.4,235.2,649.1,235.9z M584.1,214.1
			c1.5-0.9,3.5-1,5.1-0.2c1.7,0.9,2.5,2.4,2.2,4.1c-0.2,0.9-0.6,1.7-1.3,2.1c-0.5,0.6-1.3,0.9-2.1,0.6c-0.9-0.4-1.4-1.4-1.1-2.4
			c0.4-1,1.4-1.4,2.4-1.1c0.5,0.2,0.9,0.6,1.1,1.1c0.1-0.2,0.1-0.3,0.1-0.5c0.1-0.6,0.2-2.2-1.8-3.2c-1.4-0.7-3-0.7-4.3,0.1
			c-1.4,0.9-2.2,2.7-2.2,5c0,1.8,0.8,3.4,2.3,4.8c3.7,3.5,11.8,5.3,21.5,4.9c6-0.3,12,0.4,17.7,1.8c5.5,1.4,10.8,3.6,16.1,5.8
			c-0.1-0.4-0.1-0.9,0-1.4c0.1-0.8,0.6-1.4,1.2-1.8c1.4-0.9,2.9-0.3,3.6,0.1c0.6-0.9,1.3-1.5,2.2-1.7c0.7-0.2,1.5-0.1,2.1,0.1
			c-2.8-4-7.3-13.3-10.7-21.3c-0.9-2-1.6-3.9-2.3-5.6c-2.5-6-4.1-10-6.7-11.3c-1.3-0.6-2.9-0.5-4,0.2c-0.3,0.2-0.7,0.5-1,1
			c0.1,0,0.2,0,0.3,0.1c0.6,0.2,0.9,0.9,0.7,1.5c-0.2,0.6-0.9,0.9-1.5,0.7c-0.4-0.2-0.7-0.6-0.8-1c0-0.2,0-0.3,0.1-0.5
			c0.2-1,0.8-1.9,1.7-2.4c1.3-0.8,3.3-0.9,4.8-0.2c3,1.4,4.6,5.5,7.1,11.7c0.7,1.7,1.4,3.6,2.3,5.6c4.7,11,10.2,21.2,11.7,23.8
			c0,0-1.4-1.9-3.7-1.4c-0.8,0.2-1.4,0.7-1.9,1.6l-0.2,0.4l-0.4-0.3c0,0-1.7-1.1-3-0.3c-0.4,0.3-0.7,0.8-0.9,1.3
			c-0.1,0.6-0.1,1.8,1.1,2.8l-0.1,0l-1.2-0.4c-5.7-2.4-11.2-4.7-16.9-6.2c-5.6-1.4-11.5-2.1-17.4-1.8c-10.1,0.4-18.2-1.4-22.1-5.1
			c-1.6-1.5-2.5-3.4-2.5-5.4C581.5,217.2,582.4,215.2,584.1,214.1z M633.4,228.5c-0.3,0.9-1.3,1.3-2.2,1c-0.9-0.3-1.3-1.3-1-2.2
			c0.3-0.9,1.3-1.3,2.2-1C633.3,226.6,633.8,227.6,633.4,228.5z M633.1,214.3c0.2-0.5,0.8-0.8,1.4-0.6c0.6,0.2,0.8,0.8,0.6,1.4
			c-0.2,0.5-0.8,0.8-1.4,0.6C633.2,215.5,632.9,214.9,633.1,214.3z M630.8,206.8c-0.4-0.2-0.6-0.6-0.5-1c0.2-0.4,0.6-0.6,1-0.5
			c0.4,0.2,0.6,0.6,0.5,1C631.6,206.7,631.2,206.9,630.8,206.8z M630.6,213.4c0.4,0.2,0.6,0.6,0.5,1c-0.2,0.4-0.6,0.6-1,0.5
			c-0.4-0.2-0.6-0.6-0.5-1C629.8,213.5,630.2,213.3,630.6,213.4z M636.9,227.1c0.6-1.6,2.4-2.5,4.1-1.8c1.6,0.6,2.5,2.5,1.8,4.1
			c-0.6,1.6-2.5,2.5-4.1,1.8C637.1,230.5,636.2,228.7,636.9,227.1z"/>
		<path fill="none" d="M532.5,171.9c0.4,1.5-0.4,3-1.9,3.5c-0.3,0.1-0.5,0.1-0.8,0.1c0,0.4,0.1,0.7,0.3,1.1c0.5,1.1,2.3,3.3,6.1,2.6
			c4.2-0.8,6.8-4,7.2-8.5c0-0.1,0-0.2,0-0.3l-12,0C531.9,170.8,532.3,171.3,532.5,171.9z"/>
		<path fill="#1B75BB" d="M373.1,125.1c-0.7,0.2-1.1,0.9-0.9,1.7c0.2,0.7,0.9,1.1,1.6,0.9c0.7-0.2,1.1-0.9,0.9-1.7
			C374.5,125.4,373.8,124.9,373.1,125.1z"/>
		<path fill="#1B75BB" d="M138.6,238.7c-2.2,1.6-11.8,4.9-8.8,9.4c1.5,2.3,7.3,0,8.9-1c1.6-1.1,3.1-2.5,4.5-3.7
			c4.5-3.8,8.6-8.3,12.6-12.6c9-9.6,17.7-19.3,26.5-29.1c0.4-0.4,5.5-6.7,6-6.4c-1.2-0.7-14.8,13.2-16,14.2
			c-9.1,8.2-18.1,16.6-27.6,24.3C142.7,235.6,140.6,237.2,138.6,238.7z"/>
		<path fill="#1B75BB" d="M291.8,156.9l0.1,0.5l0.5,0c19.3,1.1,42.5,14.5,42.7,14.7l1.9,1.1l-0.9-2c-0.8-1.7-0.7-3.3,0-4.6
			c0.9-1.6,2.9-2.5,5.3-2.7l2.1-0.1l-1.8-1.2c-0.2-0.2-6.1-4-21.8-11c-2.3-1-4.6-1.9-6.9-2.8c-0.4,0.4-0.7,0.7-1.1,1.1
			c2.4,0.9,4.9,1.9,7.4,3c11.1,4.9,17.3,8.3,20,9.9c-2,0.5-3.6,1.5-4.5,3c-0.7,1.2-1,2.7-0.7,4.2c-5.5-3-24.7-12.9-41.3-14
			c-0.2-0.6-0.8-1.5-1.6-2.4c-0.4,0.3-0.8,0.5-1.1,0.8C291.3,155.5,291.8,156.8,291.8,156.9z"/>
		<path fill="#1B75BB" d="M372.2,132.2c-0.9,0.3-1.5,1.2-1.2,2.2c0.3,0.9,1.2,1.5,2.2,1.2c0.9-0.3,1.5-1.2,1.2-2.2
			C374.1,132.5,373.1,132,372.2,132.2z"/>
		<path fill="#1B75BB" d="M185.2,173.1c1.5-0.4,2.6-1.4,3.3-2.6l-9.7,0C180,172.6,182.7,173.8,185.2,173.1z"/>
		<path fill="#1B75BB" d="M177.2,187.3c-7.8,3.9-15.2,6.6-22.1,5.7c-3.8-0.5-6.5-2.2-7.7-4.9c-1.3-2.8-0.7-5.7,0.1-6.9
			c1.1-1.6,3.4-2.1,5.3-1.8c0.2,0,0.4,0.1,0.7,0.1c-1,0.7-1.5,1.9-1.2,3.1c0.4,1.5,2,2.3,3.5,1.9c1.5-0.4,2.3-2,1.9-3.5
			c-0.2-0.8-0.8-1.4-1.5-1.8c-0.7-0.7-1.8-1.1-3.1-1.3c-2.1-0.3-5.2,0.1-6.7,2.4c-1.1,1.8-1.6,5.2-0.2,8.3c1,2.2,3.3,5,8.8,5.7
			c3.8,0.5,7.7,0,11.7-1.1c-9.2,4.7-17.8,5.7-26.5,6.2l-2.1,0.1c-7,0.3-15.8,0.6-17,9.5c-0.4,3.3,0.5,6.2,2.6,8
			c2.1,1.8,5.1,2.4,8.1,1.5c5.4-1.6,6.3-6.2,5.1-9.4l-0.2-0.4c-0.6-1.1-2-1.7-3.3-1.4c-1.5,0.4-2.3,2-1.9,3.4c0.4,1.5,2,2.4,3.5,1.9
			c0.3-0.1,0.7-0.3,0.9-0.5c-0.2,1.9-1.3,3.9-4.5,4.9c-2.5,0.7-5,0.3-6.8-1.3c-1.8-1.5-2.5-3.9-2.1-6.8c1.1-7.7,8.5-8,15.7-8.3
			l2.2-0.1c10.3-0.6,20.5-1.6,31.8-8.8c1.7-1.1,3.4-2,5.1-3c3.9-1.9,7.8-4.1,11.8-6.3l4.9-2.8l-0.1-0.2c2.2-1.1,4.4-2.3,6.5-3.4
			l9.6-5c0.6-0.3,1.1-0.6,1.7-0.8l-3.1,0l-8.8,4.6C192.1,178.9,184.6,182.9,177.2,187.3z"/>
		<path fill="#1B75BB" d="M376.6,153.2l0.3-2.1c0,0,0.3-1.7,2-2.3c2.3-0.8,4,1.2,4.5,1.9c-0.4-1.6-3.9-15.4-2.8-31.3
			c-0.4,0-0.8,0-1.2,0c-0.1,0-0.1,0-0.2,0c-0.8,12.9,1.5,24.2,2.5,28.6c-0.9-0.5-2.1-0.8-3.3-0.4c-1.3,0.4-2,1.2-2.5,1.9
			c-5.6-10-9.6-19.3-12.4-28.6c-0.5,0.1-0.9,0.2-1.4,0.3c2.9,9.9,7.2,19.6,13.2,30.3L376.6,153.2z"/>
		<path fill="#1B75BB" d="M439.3,151.8c-0.7,0.2-1.3,0.3-2,0.3l-1.1,0l0.5,1c0.1,0.1,6.3,11.7,21.6,9.5c6.1-0.9,9.2-2.8,10.7-4.7
			c-0.3-0.4-0.6-0.7-0.9-1c-1.3,1.7-4.1,3.6-10,4.4c-12.2,1.7-18-5.5-19.7-8c0.4-0.1,0.8-0.1,1.2-0.2c2.6-0.7,4.6-2.5,5.8-4.6
			c-0.3-0.4-0.7-0.7-1.1-1.1C443.4,149.5,441.6,151.1,439.3,151.8z"/>
		<path fill="#1B75BB" d="M363.9,152.1c19.5,29,41.4,50,40.9,50.4c0.7-0.2-23.7-31-39-66.5c-2-4.8-3.8-9.6-5.3-14.4
			c-4.1,0.9-8.1,2.2-12,3.6c2.4,5.3,5.1,10.5,8,15.4c0.7,1.2,1.5,2.3,2.3,3.5c-5.1-5.6-10.8-11-16.9-16.2c-0.5,0.2-0.9,0.4-1.4,0.7
			C349.3,136,357.1,143.8,363.9,152.1z"/>
		<path fill="#1B75BB" d="M379.6,150.7c-1.1,0.3-1.8,1.5-1.4,2.6c0.3,1.1,1.5,1.8,2.6,1.4c1.1-0.3,1.8-1.5,1.4-2.6
			C381.8,151,380.7,150.4,379.6,150.7z"/>
		<path fill="#1B75BB" d="M346.4,128.6c0-0.1-0.4-0.9-1.1-2.2c-0.2,0.1-0.4,0.2-0.7,0.3C345.3,127.4,345.9,128,346.4,128.6
			L346.4,128.6z"/>
		<path fill="#1B75BB" d="M484.1,207.9c0.7-0.2,1.1-0.9,0.9-1.6c-0.2-0.7-0.9-1.1-1.6-0.9c-0.7,0.2-1.1,0.9-0.9,1.6
			C482.7,207.7,483.4,208.1,484.1,207.9z"/>
		<path fill="#1B75BB" d="M484.1,228c-0.9,0.3-1.5,1.2-1.2,2.2c0.3,0.9,1.3,1.5,2.2,1.2c0.9-0.3,1.5-1.2,1.2-2.2
			C486,228.2,485,227.7,484.1,228z"/>
		<path fill="#1B75BB" d="M527.6,170.9c-1.3,1.7-1.2,4.6,0.2,6.8c1.7,2.7,4.9,4,8.8,3.1c4.8-1.1,7.8-4.9,8.2-10c0-0.1,0-0.3,0-0.4
			l-1.4,0c0,0.1,0,0.2,0,0.3c-0.4,4.4-2.9,7.6-7.2,8.5c-3.8,0.7-5.7-1.5-6.1-2.6c-0.2-0.4-0.3-0.8-0.3-1.1c0.3,0,0.5,0,0.8-0.1
			c1.5-0.4,2.4-2,1.9-3.5c-0.2-0.6-0.6-1.1-1-1.4l-3.3,0C527.9,170.6,527.7,170.8,527.6,170.9L527.6,170.9z"/>
		<path fill="#1B75BB" d="M567.4,206.6c1.5,5.3-0.9,6.8-2.5,7.3c-1.9,0.5-4.4-3.2-4.5-3.2l0,0c0,1-1.3,23.6,6.2,31.4
			c3.1,3.2,5.5,3.3,7,2.8c1.9-0.7,3.1-2.7,3.2-4.3c0.1-1.7-1.1-3.2-2.9-2.7c-1.2,0.3-1.9,1.6-1.6,2.8c0.3,1.1,1.3,1.7,2.4,1.6
			c-0.4,0.6-0.9,1-1.6,1.3c-1.6,0.6-3.5-0.3-5.5-2.4c-5.7-5.9-6.2-21.7-6.2-27.7c0.9,1.2,2.3,2.3,3.9,1.8c1.7-0.5,5.4-2.3,3.5-9
			c-3.1-10.8-1.8-26.1,8.5-33.9c1.2-0.9,2.4-1.5,3.6-1.8l-3.3,0c-0.4,0.2-0.8,0.4-1.1,0.7C565.5,179.4,564.1,195.3,567.4,206.6z"/>
		<path fill="#1B75BB" d="M428.1,139.6c-0.7,1.1-6,11.3,6.1,23.4c5.5,5.5,8.5,11.8,8,17c-0.2,2.1-1,3.8-2.1,4.6
			c-1.4,0.9-2.6,1.3-3.5,1c-0.6-0.2-1-0.7-1.2-1.5c-0.1-0.4,0.2-0.7,0.2-1c0.4,0.3,0.9,0.4,1.4,0.2c0.9-0.3,1.5-1.2,1.2-2.2
			c-0.1-0.4-0.4-0.8-0.8-1l0-0.2c-0.2,0-0.4,0-0.6,0.1c-0.3-0.1-0.5-0.2-0.8-0.1c-0.5,0.1-0.8,0.5-1.1,0.9c0,0-0.1,0.1-0.1,0.1
			c-0.9,0.9-1.1,2.3-0.8,3.6c0.5,1.5,1.4,2.2,2.1,2.4c1.3,0.5,3,0.1,4.7-1.1c1.5-1,2.5-3.1,2.7-5.6c0.2-2.7-0.1-9.9-8.4-18.2
			c-11.4-11.4-6.5-20.7-5.9-21.8c0.9-1.5,1.8-2.6,2.9-3.4c-0.4-0.3-0.8-0.6-1.2-0.8C429.9,137,428.9,138.2,428.1,139.6z"/>
		<path fill="#1B75BB" d="M431.5,141.4c-2.1,4-1.3,9.8,1.8,14.4c4.9,7.3,14.7,11.5,24.2,10.4c5.3-0.6,10.1-2.2,14.3-4.5
			c-0.2-0.4-0.5-0.8-0.8-1.2c-4,2.2-8.6,3.7-13.7,4.3c-10.5,1.2-17.3-3.4-21.2-9.2c-1.5-2.2-2-4.4-1.8-6.5c1.3,0.7,2.9,0.9,4.4,0.5
			c1.9-0.6,3.4-2,4-3.8c-2.7-2.6-5.6-5.1-8.6-7.3C432.9,139.1,432,140.2,431.5,141.4z"/>
		<path fill="#1B75BB" d="M461.6,153.1c0,0.2-0.1,0.4,0,0.6l0.3-0.1c0.4,0.5,0.9,0.9,1.6,0.9c0.5,0,0.9-0.2,1.2-0.5
			c-0.5-0.4-1-0.8-1.6-1.1c-0.5-0.3-1.1-0.6-1.6-0.9c-0.1,0.1-0.1,0.3-0.1,0.5C461.4,152.8,461.6,152.9,461.6,153.1z"/>
		<path fill="#1B75BB" d="M494.8,180.5c-5.8,13.8,2.4,31.3,2.8,32l2.5,4.7c-4.3-12,1.3-22.9,10.4-25.5c4.8-1.4,9.2-0.8,13.1,1.8
			c6.5,4.3,6.8,13.4,5.2,17.2c-1.7,4.1-6,6-9.1,6.5c-2.1,0.3-5.5-0.5-7.4-2.4c-1.1-1.1-1.6-2.3-1.5-3.8c0.1-1.1,0.5-1.9,1.2-2.4
			c1.7-1.2,4.6-0.4,4.7-0.4l0.4,0.1l0.3-0.3c0.7-0.8,0.9-2.2,0.3-3.8c-0.7-2-2.6-4.5-5.9-5.1c-2.9-0.5-5.5,1.2-6.4,3.2
			c-0.5,1.1-0.4,2.2,0.2,3c0,0.1,0.1,0.1,0.2,0.2c0.1,0.1,0.1,0.1,0.2,0.2l0,0c0.4,0.2,0.8,0.3,1.3,0.2c0.8-0.2,1.3-1.1,1-1.9
			c-0.2-0.7-0.9-1.2-1.7-1c0,0,0-0.1,0-0.1c0.7-1.5,2.7-2.8,4.9-2.4c2.7,0.5,4.2,2.6,4.8,4.2c0.3,0.8,0.3,1.6,0.1,2.1
			c-1.1-0.2-3.5-0.5-5.3,0.7c-1.1,0.8-1.7,1.9-1.8,3.5c-0.2,1.8,0.5,3.5,1.9,4.9c2.3,2.2,6.2,3.1,8.6,2.8c3.5-0.5,8.2-2.7,10.2-7.3
			c2-4.8,1.2-14.3-5.7-18.9c-4.2-2.8-9.1-3.5-14.3-2c-8,2.3-12.5,9.8-13,16.9c-2-5.9-4.8-17-0.9-26.2c3.6-8.5,6.8-9.2,8-9.1
			c1.2,0.1,2.1,0.9,2.4,1.8c-0.2,0-0.4,0-0.6,0.1c-0.8,0.2-1.3,1.1-1,1.9c0.2,0.8,1.1,1.3,1.9,1c0.3-0.1,0.6-0.3,0.7-0.5
			c0.6-0.6,0.8-1.4,0.5-2.4c-0.4-1.5-1.8-3.1-3.8-3.2l-0.2,0C501.7,170.4,498.3,172.1,494.8,180.5z"/>
		<path fill="#1B75BB" d="M500.2,227c1.1-0.3,1.8-1.5,1.4-2.6c-0.3-1.1-1.5-1.7-2.6-1.4c-1.1,0.3-1.7,1.5-1.4,2.6
			C497.9,226.7,499,227.3,500.2,227z"/>
		<path fill="#1B75BB" d="M428.2,209.5c1.1-0.3,1.8-1.5,1.4-2.6c-0.3-1.1-1.5-1.8-2.6-1.4c-1.1,0.3-1.8,1.5-1.4,2.6
			C426,209.2,427.1,209.9,428.2,209.5z"/>
		<path fill="#1B75BB" d="M439.4,231.2l0.1,0c-3.2-4.9-8.2-18.6-2.6-24.2c2.5-2.5,5.2-3.6,7.9-3.2c3.5,0.5,7.1,3.3,9.8,7.8
			c8.3,13.9,20.3,29.8,40,29.7l2,0l-1.5-1.2c0,0-2.2-1.8-2.9-4.2c-0.7-2.4,0.1-5.7,4.5-7.5l0.7-0.3l-0.4-0.7c-1-1.8-1.3-3.3-0.7-4.4
			c0.8-1.6,3.2-1.9,3.2-1.9l1.5-0.2l-1.1-1c-1-1.4-14.3-20.4-7.6-41.4c0.9-2.8,2.1-5.4,3.6-7.9l-1.7,0c-1.4,2.4-2.5,4.9-3.3,7.5
			c-6.3,19.9,4.5,37.8,7.3,41.9c-1,0.3-2.5,1-3.2,2.4c-0.7,1.4-0.6,3.1,0.4,5.1c-4.6,2.2-5.4,5.9-4.6,8.8c0.4,1.5,1.3,2.7,2,3.6
			c-18-0.9-29.2-15.8-37-29c-2.9-4.9-6.9-8-10.8-8.5c-2.4-0.3-4.7,0.3-6.9,1.8c0-0.4,0-0.7-0.1-1.1c-0.5-1.7-2.2-2.6-3.9-2.2
			c-1.3,0.4-2.2,1.6-2.3,2.9c-1.4-1.6-3.6-2.3-5.8-1.7c-0.6,0.2-1.2,0.5-1.8,0.9c0-0.4,0-0.7-0.1-1.1c-0.5-1.7-2.2-2.6-3.9-2.1
			c-1.2,0.3-2,1.3-2.2,2.4C407,185,397.4,163.5,398,141.4c0.2-7.4,1.4-13.7,3.2-19.2c-0.4-0.1-0.9-0.2-1.3-0.3
			c-1.8,5.6-3,12-3.2,19.5C395.6,178.2,423.4,213.8,439.4,231.2z M426.7,204.2c1.8-0.5,3.8,0.5,4.3,2.4c0.5,1.9-0.5,3.8-2.4,4.3
			c-1.8,0.5-3.8-0.5-4.3-2.4C423.8,206.6,424.8,204.7,426.7,204.2z"/>
		<path fill="#1B75BB" d="M383.6,150.9c0,0-0.1-0.1-0.2-0.2c0,0.1,0,0.1,0,0.1L383.6,150.9z"/>
		<path fill="#1B75BB" d="M498.4,237.3c1.7-0.5,2.6-2.2,2.2-3.9c-0.5-1.7-2.2-2.6-3.9-2.2c-1.7,0.5-2.6,2.2-2.2,3.9
			C495,236.8,496.7,237.8,498.4,237.3z"/>
		<path fill="#1B75BB" d="M430.6,196.1c2-0.6,3.2-2.7,2.6-4.7c-0.6-2-2.7-3.2-4.8-2.6c-2,0.6-3.2,2.7-2.6,4.7
			C426.4,195.5,428.5,196.7,430.6,196.1z"/>
		<path fill="#1B75BB" d="M440.6,199.8c-0.5-0.8-1.6-2.2-3.5-2.6c-3.1-0.6-5.5,1-6.3,1.6c-1.6-0.9-3.4-0.9-4.2-0.8
			c-0.3-0.5-1.1-1.6-2.1-2.2c-1.6-1-3-1.2-4.3-0.8c-1,0.3-1.7,1-2.1,1.7c-2.1-3.9-7.1-14.3-8.3-18.4c-0.7-2.5,0-5.4,1.6-6.9
			c0.3-0.3,0.8-0.6,1.4-0.8c-0.2,0.4-0.3,0.9-0.2,1.4c0.3,1.2,1.5,1.8,2.7,1.5c1.2-0.3,1.8-1.5,1.5-2.7c-0.2-0.7-0.7-1.1-1.3-1.3
			l0-0.1c-2.1-0.8-3.6-0.4-5.1,1c-2,1.9-2.9,5.3-2,8.3c1.4,4.9,7.6,17.4,9,19.8l0.7,1.3l0.5-1.4c0,0,0.6-1.6,1.9-2
			c0.9-0.3,1.9-0.1,3.1,0.6c0.8,0.5,1.6,1.7,1.9,2.1l0.2,0.4l0.4-0.1c0,0,2.5-0.4,4.1,0.7l0.4,0.3l0.4-0.4c0,0,2.4-2.1,5.4-1.6
			c1.9,0.4,2.8,2.3,2.8,2.3l0.3,0.6l0.6-0.2c0.3-0.1,7.3-2.3,13.2,4.2c2.1,2.3,4.1,5.3,6,8.2c3.4,5.2,6.7,10.2,10.3,10.4
			c3.4,0.2,5.7-2.3,6.4-4.7c0.6-2.1,0-4-1.5-4.8l-0.1,0.3c-0.4-0.3-0.9-0.5-1.5-0.4c-0.9,0.3-1.5,1.2-1.2,2.2
			c0.3,0.9,1.2,1.4,2.2,1.2c0.4-0.1,0.7-0.4,0.9-0.7c0.1,0.6,0.1,1.3-0.1,1.9c-0.6,1.9-2.3,3.9-5,3.7c-2.9-0.2-6-4.8-9.2-9.7
			c-2-3-4-6-6.1-8.4C449.1,198.4,442.5,199.4,440.6,199.8z"/>
		<path fill="#1B75BB" d="M588.3,180.5c-1.4,1.6-3.5,2.3-5.1,1.7c-0.3-0.1-0.5-0.2-0.8-0.4c0.1,0,0.2,0,0.3-0.1
			c1.2-0.4,1.9-1.6,1.6-2.8c-0.4-1.2-1.6-1.9-2.8-1.5c-1.2,0.4-1.9,1.6-1.6,2.8c0.1,1.6,1.4,2.9,2.9,3.4c2.1,0.8,4.8-0.1,6.6-2.1
			c3.2-3.6,2.3-7.6,0-10.1c-0.3-0.4-0.7-0.7-1.1-1l-3,0c1.2,0.4,2.3,1.1,3.1,1.9C590.2,174.4,590.9,177.7,588.3,180.5z"/>
		<path fill="#1B75BB" d="M405.1,170.8l0.6,1.4l0.7-1.4c2.2-4.3,5.3-4.8,6.9-4.7c2.6,0.2,4.9,1.9,5.7,4.2c0.7,2.1,0,4.3-2.1,6.1
			c-1.8,1.6-4.8-0.9-4.8-0.9l-1.1-1l-0.1,1.5c-0.2,4.6,5.9,14.6,6.1,15l0.5,0.8l0.6-0.7c0.5-0.6,1-0.8,1.4-0.8
			c0.7,0.1,1.4,1,1.6,1.3l1.2,2.1l0.1-2.5c0-1.2,0.9-3.1,2.4-4.3c1.3-1.1,2.8-1.5,4.4-1.2c7.4,1.1,6.7,7.8,6.7,8.1l-0.2,1.3l1.2-0.6
			c1.1-0.5,2-0.6,2.9-0.3c1.6,0.7,2.4,2.8,2.4,2.8l0.3,0.8l0.7-0.5c6.4-4.4,5.3-10.3,4.2-15.4c-0.4-1.7-0.7-3.4-0.7-4.8
			c0-2.5,0.8-4.5,2-5.1c0,0,0.1,0,0.1,0c-0.3,0.5-0.4,1.1-0.2,1.7c0.3,1.1,1.5,1.8,2.7,1.5c1.2-0.3,1.8-1.5,1.5-2.7
			c-0.1-0.5-0.5-0.9-0.9-1.2l0.1-0.2c-1.4-0.9-2.7-1-3.9-0.3c-1.7,0.9-2.7,3.3-2.7,6.3c0,1.6,0.4,3.3,0.7,5.1
			c0.9,4.7,1.8,9.5-3.1,13.4c-0.5-0.9-1.3-2.1-2.8-2.7c-0.9-0.4-1.9-0.3-3,0c-0.1-2.2-0.9-7.5-7.9-8.6c-2-0.3-3.9,0.2-5.5,1.5
			c-1.4,1.1-2.1,2.6-2.5,4c-0.5-0.4-1-0.9-1.8-0.9c-0.7-0.1-1.3,0.2-1.9,0.7c-1.2-2-4.7-8.3-5.4-12.2c1.4,0.8,3.5,1.7,5.3,0
			c2.5-2.2,3.4-5,2.5-7.6c-1-2.8-3.8-4.9-6.9-5.1c-3-0.2-5.6,1.4-7.5,4.3c-1.5-4.1-6.1-18.1-4-31.6c0.8-5.2,2.7-8.3,5.1-8.6
			c1.7-0.2,3.1,1.1,3.6,2.3c0.1,0.2,0.2,0.6,0.2,1.1c-0.5-0.4-1.2-0.7-1.9-0.5c-1.2,0.3-1.8,1.5-1.5,2.7c0.3,1.2,1.5,1.8,2.7,1.5
			c0.2-0.1,0.2-0.2,0.4-0.3l0,0c0,0,0-0.1,0.1-0.1c0.5-0.3,0.8-0.7,0.9-1.3c0.7-1.1,0.9-2.3,0.4-3.6c-0.8-2.1-3-3.4-5.1-3.2
			c-1.8,0.2-5.1,1.8-6.3,9.8C398,153.6,405,170.7,405.1,170.8z"/>
		<path fill="#1B75BB" d="M300.7,267.9c2-6.6,5.1-12.3,9.2-17.2c0.8-0.8,1.6-1.6,2.4-2.4c1-1,2-2,3.1-2.9
			c6.2-4.8,13.6-8.4,21.7-10.4c24.2-5.9,50,6.1,67.3,15.6l5.1,2.8c9.5,5.3,18.6,10.4,29.1,13.5c2.8,0.9,5.5,1.7,8.1,2.2
			c-8.7-1-17.6-1.6-26.3-5.7c-18.4-9.7-42-21.8-60.3-22c-9.1-0.3-19,1-27.6,4.7c-5.2,2.2-17.9,11.1-12.3,18.4
			c2.6,3.5,8.5,4.3,14.9,0.2c3.6-1.6,13.6-8.1,29.1-8.9c15.8-1.2,33.1,6.5,53.2,14.8c10.2,3.7,20.9,6.7,31.2,7.1
			c1.7,0.1,3.4,0,5-0.1c5.9,0.1,12.2-0.3,18.6-1.4c0.8-1.6,1.3-3.2,1.6-4.7c-5,0.7-10.7,0-16.6-0.9c0.7,0.1,1.4,0.2,2,0.2
			c2.7,0.2,5.4-0.4,8-0.3c2.5,0.1,4.8-0.3,6.8-0.4c0.1-0.6,0.1-1.1,0.1-1.6l22.8,0c17.1-7.6,27.7-16.4,33.9-22.8
			c4.5-4.7,8.7-9,12.3-14c-10,17.3-22.1,28.5-27.2,31.9c-2.8,1.9-5.6,3.5-8.3,4.9l2.9,0c2-1.2,4.1-2.4,6.2-3.8
			c9.5-6.3,25.2-23.5,34.6-46.8c-2.3,6.4-5.2,13.6-8.7,20.5c-6.3,13.5-15.8,24.1-22,30.1l17.1,0c4.7-7.6,9.4-17.1,12.1-27.2
			c0.8-2.5,1.5-5.1,2.1-7.6c0.2,7.2,1.2,12.6,1.7,13.4c0.9,3.2,4.1,4.9,6.4,3.8c1.6-0.7,2.6-2.3,2.9-4c0.3-2.1-0.8-4-1.4-5.9
			c-2.5-9.1-3.7-18.7-3.1-28c0.1-6.1,1-12,2.1-16.9c-0.2,1.4-0.3,2.7-0.4,4.1c-0.1,2.3-0.1,4.6,0.2,6.8c0.2,1.5,1,3.6,2.7,3.7
			c0.4,0.1,0.8-0.1,1.1-0.3c0.7-0.5,1.1-1.5,1.1-2.2c0.1-1.1-0.5-2-0.7-3c-0.5-2.6-0.9-5.1-1-7.7c0-1.9,0.1-3.8,0.3-5.7
			c0.2-1.6,0.4-3.1,0.7-4.7c1.2-5.3,3.8-9.8,7.3-13.9c0.8-1,1.7-1.9,2.7-2.7l-2,0c-0.9,0.8-1.8,1.7-2.6,2.6
			c-3.7,3.9-7.1,8.1-10.1,12.7c-1.8,2.6-3.8,5.2-5.9,7.5c-3,3.3-6.1,6.3-9.5,9.2c-2.3,2-6.8,3.3-5.7,7.1c1.2,3.9,7.4,1.1,9.1-0.4
			c1.2-1.1,2.3-2.4,3.3-3.7c-0.8,1.3-1.7,2.6-2.5,3.8c-10.1,14.2-23.4,21.8-33.9,19.3c-7.1-1.7-11.7-7.8-13.2-17.2
			c-0.8-5.5,1.3-10.8,5.7-14c4-3,9-3.4,13.6-1.2c1.9,0.9,3.2,2.2,4.1,3.7h-0.1c1.6,3.2,1.1,6.7-0.4,8.6c-1.9,2.5-5.5,2.2-7.4,1.4
			c-2.2-1-6.2-0.6-4.5,3c1.8,3.6,9.7,3.5,13.1-0.9c2.1-2.7,2.3-5.9,1.9-8.5c-0.4-3.4-2.4-6.8-6.2-8.6c-5-2.4-10.6-1.9-15,1.3
			c-4.8,3.5-7.1,9.4-6.2,15.4c1.5,10,6.6,16.5,14.2,18.3c4,0.9,8.3,0.5,12.8-1.1c-8.1,3.4-15.3,3.7-16,3.6c-3.2,0.3-5.6,2.7-5.4,5.3
			c0.3,2.6,3.1,4.5,6.3,4.2c0.9,0.2,8.9-1.4,17.4-6.1c-5.5,3.7-11.8,6.4-18.7,7.4c-16.9,2.9-34.3-0.5-43-8.9
			c-9.2-8-12.6-16.9-13.4-18c-2.9-5.4-7.5-9-11.7-7.9c-4.2,1-5.7,8.3-2.1,15.2c1,1.5,6,12,19.2,21.3c13.4,10,34.8,11.3,52.6,6
			c4.3-1.1,8.1-2.8,11.8-4.8c-8,4.9-16.3,7.3-19.6,8c-17.4,4.1-35,0.7-52.4-10c-14.1-8.7-24.1-19.8-28.9-25.1l-1.2-1.3
			c-18-19.6-44.3-56.7-32.5-97.5c-0.5-0.1-0.9-0.1-1.4-0.1c-11.8,41.4,14.7,78.9,32.9,98.6l1.2,1.3c4.9,5.4,15,16.6,29.2,25.4
			c17.7,10.9,35.7,14.3,53.5,10.2c3.2-0.8,11.2-3,19-7.6c-1.5,1.2-3.1,2.3-4.7,3.2c-8.1,4.6-17,7.1-25.7,8c-8.2,0-18.7-1.1-30.6-5.3
			c-14-5.1-29-14.8-42.2-28.1c-13.1-13.2-26.3-29.2-40-44.9c-15.5-17.7-29.6-33.8-47.1-48.3c-1.8,1.1-3.6,2.3-5.3,3.5
			c18.1,11.7,32,25.8,36,29.9c-11.8-10.8-24.6-20.7-37.9-28.6c-3.9,2.9-7.7,6.1-11.2,9.6c10.4,4.3,20.5,9.7,29.8,14.9
			c11.6,6.5,21.8,14.8,31.1,24.4c0.6,0.6,10.9,10.4,10.6,11.2c0.2-0.4-10.4-9.8-11.1-10.5c-18.7-15.6-25.1-18.8-27.3-19.9
			c-3.3-1.3-6.9-0.6-8.4,2.9c-1.2,2.8-0.9,5.5,0.6,7.9c-16.1-9.9-32.8-16-50-18.2c0-0.5-0.1-2.8-1.6-3.7c0,0-0.1,0-0.1-0.1
			c-1.6,1.4-2.9,3-4,4.6c20.1,1.6,39.7,8.5,58.4,20.7c1.8,0.9,2.8,2.1,4.3,3.4c-18.4-10.1-37.8-17.5-57.1-19.5
			c-2.6-0.3-5.2-0.4-7.7-0.5c-0.2,0.5-0.3,0.9-0.5,1.4c2.7,0.1,5.4,0.3,8.1,0.5c24.7,2.5,49.5,14,72.3,28.8
			c12.1,8.8,24,17.8,34.7,28.4c17.5,17.2,38.8,34,62.6,41c-4.5-0.6-9-1.3-13.3-2.7c-4.3-1.4-8.4-3.4-12.4-5.6
			c-14-7.9-25.8-19.2-38.2-29.3c-2.8-2.5-6-5.4-9.6-8.6c-12.4-11-30.3-25.2-51.9-33.9c-21.5-9-45.4-11.4-64.1-10.3
			c-18.8,2-31,6.5-33.2,7.1c-8.6,2.9-14.1,9.6-12,13.4c2.1,3.7,9.2,4,17.1,1.3c1.9-0.5,13.4-5.7,29.6-8.7
			c16.4-2.3,39.1-2.2,59.9,4.6c5.9,1.8,11.7,4.1,17.2,6.6c-30.3-10.9-61.3-11.8-92.2-2.5c-28.3,8.5-55.7,25.5-79.4,49.3
			c-7.5,7.5-14.6,15.5-21.5,23.4l1.9,0c6.6-7.6,13.5-15.3,20.7-22.5c23.5-23.6,50.8-40.6,78.9-49c31.3-9.4,62.8-8.3,93.6,3.3
			c6.9,2.6,13.5,6,19.8,9.9c5.2,3.4,10,6.7,14.2,9.9c2.6,1.9,5,3.8,7.3,5.4c3.8,3,7.6,6.1,11.3,9.1c4.8,3.9,9.5,7.8,14.2,11.4
			C401.5,236,392,228,392,228c-0.3-0.1-16.9-12.9-38.8-20.5c-19.8-7.1-47.5-10.6-75.7-5.8c-2.1,0.3-4.3,0.8-6.5,1.2
			c-1.1,0.3-2.3,0.4-3.4,0.7c-7.8,1.8-16,4.3-24.5,8.1c-0.3,0.1-0.6,0.3-1,0.5c-0.9,0.4-1.8,0.9-2.8,1.4
			c-23.7,11.2-46.6,29.3-69.2,55l2,0c3.6-4.1,7.3-8,10.9-11.7c-3.5,3.9-6.7,7.9-9.6,11.7l22,0c13.4-20.4,35.5-40.7,63.1-51.5
			c20.7-8.9,43.1-11.9,63.2-11c-10.9-0.1-23,1.1-35.6,4.4c-25.9,6.8-48,21.3-65.7,43c-3.8,4.7-7.3,9.8-10.3,15.1l1.5,0
			c2.9-5,6.2-9.8,9.8-14.2c17.5-21.5,39.3-35.8,64.9-42.5c14.3-3.8,28-4.7,40-4.3c-14.9,0.4-34.5,3-52.9,12.4
			c-19.2,9.7-38,27-50.4,46.3c-0.5,0.8-1,1.6-1.5,2.4l1.6,0c0.3-0.6,0.7-1.1,1-1.7c12.3-19.1,30.9-36.2,49.8-45.8
			c12.1-6.1,24.6-9.3,36-10.9c0,0,0,0.1,0,0.2c-1,0.3-1.8,0.5-2.5,0.9l-1,0.2c-0.4,0.1-39.1,9.6-64.8,40.8
			c-4.7,5.8-8.4,11.2-11.3,16.2l1.6,0c2.8-4.8,6.3-9.9,10.7-15.3c22.4-27.2,52.4-35.3,60.1-37.5c-0.2,0.6,2.7-1.2,2.9-0.2
			c0.1,0.2,0.1,0.4,0.2,0.6c-2.1,0.5-4.4,1.3-6.7,2.1l0,0c-0.2,0.1-0.3,0.1-0.5,0.2c-8.8,3.2-18.1,7.9-22.1,10.5
			c-13.4,8.7-21.6,16.6-21.7,16.7L255,246l0.3,0.4c0.2,0.5,2.3,5.2-2.7,9.4c-3.6,2.9-7.2,0.1-7.4,0l-0.6-0.5l-0.4,0.6
			c-3,4.5-5.6,8.7-7.6,12.7l1.6,0c1.8-3.6,4.1-7.3,6.8-11.3c1.4,0.9,5,2.5,8.5-0.4c5.1-4.2,3.8-9.1,3.2-10.6
			c1.7-1.5,9.4-8.6,21.2-16.2c2.9-1.9,8.8-5,15.1-7.8c-0.9,1.1-1.4,2.2-1.2,3.4c-1.2,0.4-2.7,1.5-2.9,3.8c-0.1,1.2,0.2,2.1,0.7,2.7
			c-3.8-0.2-10.5,0.2-13.2,4.4c-1.3,2.1-1.6,4.2-0.8,5.9c0.8,1.5,2.5,2.6,4.2,2.7c1.9,0.1,3.3-1.3,4-2.6c0.2-0.5,0.4-1,0.4-1.4
			c0.1-0.3,0.1-0.7,0-1.1c-0.3-1-1.4-1.6-2.4-1.3c-1,0.3-1.6,1.4-1.3,2.4c0.2,0.8,0.9,1.3,1.6,1.4c-0.5,0.7-1.3,1.3-2.3,1.2
			c-1.1-0.1-2.4-0.7-3-2c-0.7-1.2-0.4-2.8,0.7-4.5c3.3-5.2,14.5-3.6,14.6-3.5l0.5,0c-0.2-0.1-2.5-2-2.4-4.2c0.2-2.4,2.3-2.8,2.4-2.8
			l0.8-0.1l-0.3-0.8c-0.7-2,1.1-4.1,5.3-5.9c3.2-1.2,6.3-2.2,9.1-2.8c-0.7,0.3-2.2,1.2-3.9,3.4c-1.7,2.1-1.7,5.7-0.4,7.4
			c-2.1,0.8-4.1,1.6-5.5,2.3c-4,2.2-6.5,6-6.5,9.7c0,2.9,1.5,5.3,4.1,6.7c2.3,1.3,4.6,0.9,7.1-0.4c-0.2,0.5-0.3,1-0.3,1.6
			c0,1.2,0.6,2.3,1.8,3.3c-1.3,1.3-4.8,4.9-9.2,9.6c-4,4.2-9.5,8.7-13.3,8.4c-0.1,0-0.2-0.1-0.3-0.1c0,0.5,0,1,0.1,1.5
			c0,0,0,0,0.1,0c5.3,0.4,12.4-6.7,14.4-8.8c5.5-5.9,9.6-10,9.7-10.1l0.6-0.6l-0.7-0.5c-1.2-0.8-1.8-1.7-1.8-2.7
			c0-1.9,1.9-4.4,2-4.4l-0.2-0.1c-3.5,2.4-6.7,3.5-9.2,2.1c-2.2-1.2-3.3-3.1-3.4-5.5c0-3.3,2.2-6.5,5.8-8.5
			c5.1-2.8,18.4-6.1,18.5-6.2l0.6-0.4c-0.1,0-2.6-0.1-4.2-3.2c-1.3-2.5,0.4-5.5,0.4-5.5l0.3-0.5l-0.5-0.4c-0.8-0.7,9.7,1,11.5,0.5
			c0.5-0.1,1.5-0.5,1.5-0.5c1.9-0.6,15.5-0.6,20.1,0.6c9,2.4,16.6,6,22.9,8.9c12.7,5.9,19.5,11.5,19.5,11.3
			c-0.1,0.1-7.1-5-19.9-10.5c-6.4-2.6-14.1-6-22.9-8.2c-4.4-1.1-9.2-1.8-14.1-1.3c-4.5,0.3-11.1,2.3-10.3,7.3
			c0.3,0.8,0.7,1.6,1.4,2.2c-12.5,2.2-21.9,6.6-22.8,7.5c-3.9,2.4-5.7,6.2-4.2,8.3c1.6,2.1,5.5,2.1,8.9,0
			c1.4-1.1,20.5-12.6,42.6-11.4c15.9-0.1,30.2,6.3,36.8,9.9c-14.7-5.9-31.6-9.9-48-5.9c-4.3,1-8.3,2.5-12.1,4.4l0,0
			c-3.6,1.6-6.7,3.7-9.7,6.1c-1.9,1.5-3.6,3.3-5.3,5c-0.2,0.2-0.4,0.4-0.6,0.6c-4,4.1-7.7,8.7-10.2,14c-2.8,5.8-5.3,13.5-5.5,23
			c0.5,0.3,0.9,0.6,1.4,0.8c0.1-9.6,2.5-17.4,5.3-23.1c0.5-1.1,1.4-2.1,2-3.2c-1,2.1-2,4.1-2.7,6.4c-2,6.6-2.8,13.7-2.5,20.8
			c0.5,0.2,1,0.4,1.4,0.5C297.9,281.7,298.6,274.5,300.7,267.9z"/>
		<path fill="#1B75BB" d="M616,176c5.7,9.1,3.6,17.6,1.8,21.8c-2.6,6.3-7.7,11.2-13,12.5c-8,1.9-13.9-1.4-16.8-5.2
			c-2.8-3.7-3.4-8.2-1.4-11.8c2.6-4.9,6.5-5.5,9-4.5c0.5,0.2,0.7,0.5,1.1,0.8c-1,0.3-1.9,1-2.1,2.3c-0.3,1.6,0.7,3.2,2.1,3.4
			c1.4,0.2,2.7-1,3-2.6c0-0.2-0.1-0.3-0.1-0.5c0.2-1.8-1.1-3.8-3.5-4.7c-3.1-1.2-7.7-0.6-10.8,5.2c-2.2,4.1-1.6,9.2,1.6,13.4
			c3.2,4.1,9.6,7.7,18.2,5.7c5.7-1.3,11.2-6.6,14-13.3c1.8-4.5,4.1-13.4-1.9-23.1c-1.1-1.8-2.4-3.4-3.8-4.9l-2,0
			C613.2,172,614.7,173.9,616,176z"/>
		<path fill="#1B75BB" d="M305,273.7c2.3-13.4,9.7-21.1,15.8-25.4c-0.9,0.8-1.8,1.6-2.6,2.6c-3.1,3.5-4.5,8-3.7,12.1
			c0.7,3.6,3.3,6.1,6.2,8.4c3.2,2.6,14.9-0.8,21.2-4.6c2.1-1.3,4.1-2.5,5.8-3.1c9.3-3.8,23.2-6.5,50.3,2.9
			c-8.1-1.9-18.4-3.4-28.3-2.5c-18.7,1.7-35.4,13.5-37.4,26.2c-0.6,4.2,0.2,10.5,3.6,14.6c1.7,2.1,4,3.3,6.4,3.4
			c4.3,0.2,7-2.2,7.4-4.6c0.2-1.2-0.3-2.2-1.3-2.6c-0.6-0.3-1.3-0.5-2-0.3c-1.4,0.4-2.2,1.8-1.8,3.2c0.3,1,1.1,1.6,2,1.8
			c-1,0.7-2.4,1.2-4.3,1.1c-2.1-0.1-3.9-1.1-5.4-2.9c-2.9-3.6-3.9-9.5-3.3-13.5c1.9-12.1,18.1-23.4,36.1-25
			c20.1-1.9,42.1,6.6,42.9,6.9c0,0,12.7,3.8,12.7,3.8l-12.2-5.1c-37.5-16.4-55-13.3-66.1-8.8c-1.8,0.7-3.8,1.9-6,3.2
			c-5.9,3.6-13.3,8-19.8,4.5c-2.9-1.6-4.9-4.2-5.5-7.5c-0.7-3.7,0.7-7.6,3.4-10.9c5.5-6.7,12.7-9.5,19.8-12.9c-4,1-9.4,3.1-13.3,4.9
			c-4.7,2.2-8.8,5.3-12.3,9.1c-5.3,5.7-8.5,12.9-9.9,20.6c-1.3,7.4-0.5,12.8,1.4,16.6c0.5,0,1,0,1.5,0
			C304.6,286.4,303.7,281.1,305,273.7z"/>
		<path fill="#1B75BB" d="M378.1,315.3c-0.4-5.2-2.8-10.7-7.4-13.4c-4.9-2.9-11.6-0.5-10,5.2c0.6,2.2,3,3.5,5.2,2.9
			c2.2-0.6,3.5-3,2.9-5.2c0-0.1-0.1-0.2-0.1-0.3c0.6,0.1,1.1,0.3,1.4,0.5c3.9,2,6,6.5,6.3,11.3c0.1,1.1,0.1,2.2,0,3.3
			c0.5,0,1.1,0,1.6,0C378.2,318.2,378.2,316.7,378.1,315.3z"/>
		<path fill="#1B75BB" d="M318.7,289.9c-0.7-1.4-2.1-2.2-3.9-2.1v0.1c-0.2,0-0.4,0-0.6,0.1c-0.8,0.2-1.4,0.9-1.7,1.6
			c1,1.1,2.1,2.2,3.2,3.3c1-0.3,1.7-1.2,1.7-2.3c0.5,1,0.3,2.4-0.4,3.5c0.3,0.3,0.7,0.6,1,1C319.2,293.4,319.5,291.4,318.7,289.9z"/>
		<path fill="#1B75BB" d="M281,251.5c-0.7,0.2-1.1,0.9-0.9,1.6c0.2,0.7,0.9,1.1,1.6,0.9c0.7-0.2,1.1-0.9,0.9-1.7
			C282.4,251.7,281.7,251.3,281,251.5z"/>
		<path fill="#1B75BB" d="M319.8,218.2c-0.4-1.3-1.7-2.1-3-1.7c-1.3,0.4-2.1,1.7-1.7,3c0.4,1.3,1.7,2.1,3,1.7
			C319.5,220.8,320.2,219.5,319.8,218.2z"/>
		<path fill="#1B75BB" d="M307.5,248.9c0.8-0.2,1.3-1.1,1.1-2c-0.2-0.8-1.1-1.3-2-1.1c-0.8,0.3-1.3,1.1-1.1,2
			C305.8,248.7,306.7,249.2,307.5,248.9z"/>
		<path fill="#1B75BB" d="M267.3,246.2c-0.7,0.2-1.1,0.9-0.9,1.6c0.2,0.7,0.9,1.1,1.6,0.9c0.7-0.2,1.1-0.9,0.9-1.7
			C268.8,246.4,268,246,267.3,246.2z"/>
		<path fill="#1B75BB" d="M437.6,285.5c-2.2,0.6-3.5,3-2.9,5.2c0.7,2.2,3,3.5,5.2,2.9c2.2-0.7,3.5-3,2.9-5.2
			C442.2,286.1,439.8,284.8,437.6,285.5z"/>
		<path fill="#1B75BB" d="M446,286.2c1.1-0.3,1.7-1.5,1.4-2.6c-0.3-1.1-1.5-1.8-2.6-1.4c-1.1,0.3-1.8,1.5-1.4,2.6
			C443.7,285.9,444.8,286.5,446,286.2z"/>
		<path fill="#1B75BB" d="M396.9,305.8c-0.7,0.2-1.1,1-0.9,1.7c0.2,0.7,0.9,1.1,1.6,0.9c0.7-0.2,1.1-0.9,0.9-1.6
			C398.4,306.1,397.6,305.7,396.9,305.8z"/>
		<path fill="#1B75BB" d="M425.1,288.3c1.5-0.4,2.4-2,1.9-3.5c-0.4-1.5-2-2.4-3.5-1.9c-1.5,0.4-2.4,2-1.9,3.5
			C422,287.8,423.6,288.7,425.1,288.3z"/>
		<path fill="#1B75BB" d="M426.2,298.1c0.4,1.2,1.6,2,2.9,1.6c1.2-0.4,1.9-1.6,1.6-2.9c-0.4-1.2-1.6-1.9-2.9-1.6
			C426.6,295.6,425.8,296.9,426.2,298.1z"/>
		<path fill="#1B75BB" d="M451.6,286.8c0.9-0.3,1.5-1.3,1.2-2.2c-0.3-0.9-1.3-1.5-2.2-1.2c-0.9,0.3-1.5,1.2-1.2,2.2
			C449.6,286.5,450.6,287.1,451.6,286.8z"/>
		<path fill="#1B75BB" d="M278.4,263.3c0.1-0.3,0.3-0.5,0.4-0.7c0,0.1,0,0.2,0.1,0.3c0.4,1.4,1.8,2.1,3.2,1.8
			c1.4-0.4,2.1-1.8,1.8-3.2c-0.3-1.1-1.3-1.8-2.4-1.8l0-0.1c-1.9,0.3-3.5,1.5-4.3,3.2c-0.8,1.8-0.5,3.8,0.7,5.6
			c0,0.1,0.1,0.1,0.2,0.2l2,0c-0.4-0.2-0.7-0.6-1-1C278,266.1,277.8,264.6,278.4,263.3z"/>
		<path fill="#1B75BB" d="M78,267.2c-0.9,0-1.7,0.5-2.2,1.2c-0.1,0.1-0.1,0.1-0.1,0.2l2.2,0c0.1,0,0.1,0,0.2,0c0.1,0,0.2,0,0.3,0
			l2.5,0c-0.1-0.1-0.1-0.2-0.1-0.3C80,267.6,79,267.2,78,267.2z"/>
		<path fill="#1B75BB" d="M117.9,266.3l-0.5-0.7c-1.4-1.7-0.7-3.4-0.7-3.4l0.3-1l-1,0.2c0,0-2,0.4-3.6-0.9c-2.1-1.6-2.2-4.7-2.2-4.7
			l0-0.6l-0.6-0.1c-1.8-0.2-2.8-2.2-2.8-2.3l-0.4-0.9l-0.7,0.6c-0.6,0.6-1.6,0.8-2.8,0.6c-1.7-0.2-3.6-1.2-4.3-2.3l-0.3-0.4
			l-0.5,0.1c-0.4,0.1-10.1,2.4-9.7,7.4c0.2,2.3,1.3,3.9,3.1,4.5c1.5,0.5,3.3,0,4.2-1.1c0.6-0.8,1-2.2,0.6-3.2
			c-0.2-0.5-0.6-0.8-1-1.1c-0.6-0.5-1.3-0.7-2.1-0.5c-1.2,0.3-1.9,1.6-1.6,2.8c0.3,1,1.2,1.6,2.2,1.6c-0.6,0.3-1.3,0.4-2,0.2
			c-1.2-0.4-2-1.6-2.1-3.3c-0.2-3,5.5-5.1,8.2-5.8c1,1.2,3,2.2,4.9,2.5c1.3,0.2,2.4,0,3.2-0.5c0.5,0.7,1.4,1.8,2.9,2.2
			c0.1,1.1,0.6,3.7,2.7,5.3c1.3,1,2.7,1.1,3.7,1.1c-0.1,0.8-0.1,1.9,0.6,3c-1.9,0.9-3.9,1.9-6,2.8l3.3,0c1.4-0.6,2.7-1.3,4-1.9
			L117.9,266.3z"/>
		<path fill="#1B75BB" d="M109.7,249.6c-0.9,0.3-1.5,1.2-1.2,2.2c0.3,0.9,1.2,1.5,2.2,1.2c0.9-0.3,1.5-1.2,1.2-2.2
			C111.6,249.8,110.6,249.3,109.7,249.6z"/>
		<path fill="#1B75BB" d="M40.5,197.6c-1,0.7-2.6,2.8-1.1,8.6c3.1,11.9,11.7,18.5,12.1,18.8l0.8,0.6l0.2-1c0.7-3,5.4-4.1,5.4-4.1
			l0.9-0.2l-0.4-0.8c-1.4-2.5-1.7-6.9-1.4-9.7c0.5-3.7,2.1-6.7,4.5-8.5c2.1-1.5,4.5-2.2,7.2-1.7c3.1,0.5,5.8,2.5,6.9,5.3
			c0.9,2.3,0.6,4.7-1,6.7c-1.4,1.8-3.6,3.1-5.6,3.2c-0.7,0.1-1.7,0-2.4-0.7l-1.9-1.9l0.8,2.6c0.2,0.5,4.1,13.4,18.7,19.9
			c9.3,4.1,15.7,2.9,18.7,0.3c1.7-1.4,2.4-3.4,1.8-5.3c-0.5-1.6-1.5-2.7-2.9-3c-1.2-0.3-2.5,0.2-3.5,1.3c-0.8,1-0.9,1.9-0.7,2.5
			c0.2,1.2,1.3,2.2,2.1,2.6l0.1-0.1c0.4,0.1,0.8,0.1,1.1,0c1.1-0.3,1.8-1.5,1.4-2.6c-0.3-1.1-1.5-1.7-2.6-1.4
			c-0.2,0.1-0.4,0.2-0.5,0.3c0.1-0.1,0.1-0.2,0.2-0.3c0.6-0.7,1.4-1,2.1-0.9c0.8,0.2,1.5,0.9,1.8,2c0.4,1.4-0.1,2.8-1.4,3.9
			c-2.6,2.3-8.5,3.3-17.2-0.5c-11-4.9-15.7-13.7-17.3-17.4c0.5,0.1,1.1,0.2,1.7,0.1c2.4-0.2,5-1.7,6.6-3.8c1.8-2.4,2.3-5.3,1.2-8.1
			c-1.3-3.2-4.3-5.5-7.9-6.1c-3-0.5-5.9,0.2-8.2,2c-2.8,2.1-4.6,5.4-5.1,9.5c-0.3,2.3-0.2,6.6,1.2,9.7c-1.4,0.4-4.2,1.6-5.3,3.9
			c-2.1-1.9-8.4-7.9-10.8-17.4c-0.9-3.6-0.7-6.2,0.5-7.1c0.6-0.4,1.6-0.4,2.4,0.2c0.4,0.2,0.7,0.6,0.9,1c-0.4-0.1-0.8-0.1-1.1,0
			c-1.1,0.3-1.8,1.5-1.4,2.6c0.3,1.1,1.5,1.8,2.6,1.4c0.9-0.2,1.5-1,1.5-1.9l0,0c0.4-1.6-0.2-3.3-1.7-4.3
			C43.1,196.9,41.6,196.8,40.5,197.6z"/>
		<path fill="#1B75BB" d="M158,236.3l7.9-8.9c13.8-15.2,32.4-34.2,54.4-46.6c7.9-4.4,15.8-7.9,24-10.4l-4.4,0
			c-6.9,2.4-13.7,5.4-20.4,9.1c-22.1,12.5-40.9,31.7-54.7,46.9l-1,1.2l-0.1-0.1c-5.4,6.3-12.4,13.8-20.8,21.1
			c-0.5,0.4-0.9,0.9-1.5,1.3c-0.2,0.2-0.4,0.3-0.6,0.5c-4.5,3.3-10.2,5.8-14.6,5.6c-2.2-0.1-3.8-0.9-4.9-2.4c-0.9-1.2-1.3-2.5-1-3.9
			c0.7-3.7,5.2-7.6,10.7-11.4c12.7-7.4,22.7-17.1,30.8-25l2.2-2.1c11.2-10.8,32.9-29.2,61.3-40.8l-3.5,0
			c-27.1,11.7-47.9,29.4-58.7,39.8l-2.2,2.1c-5.2,5.1-11.6,10.9-18.7,16.4c-13.6,8.9-34,15.4-51.7,11.7
			c-12.5-2.6-21.7-9.8-27.1-21.3c-1.9-3.9-1.9-8.2-0.2-11.4c1.1-2,2.7-3.3,4.5-3.5c1.7-0.2,2.9,0.3,3.5,1.4c0.2,0.4,0.3,0.8,0.3,1.2
			c-0.7-0.9-1.8-1.3-3-1c-1.5,0.4-2.3,2-1.9,3.4c0.4,1.5,2,2.3,3.5,1.9c0.5-0.2,1-0.5,1.3-0.9l0,0c1.5-1.3,1.9-3.6,1.1-5.3
			c-0.8-1.7-2.6-2.5-4.9-2.2c-2.2,0.3-4.2,1.9-5.5,4.2c-1.9,3.6-1.9,8.4,0.1,12.7c5.6,11.8,15.3,19.5,28.1,22.1
			c14.4,3,30.6-0.7,43.6-6.9c-1.1,0.7-2.2,1.4-3.3,2.2c-1.9,1.1-3.9,2.2-5.9,3.2l0,0c-14.6,6.7-35.4,7.7-51.8,2.6
			c-10-3.1-17.9-8.1-27.3-17.3c-8.7-8.5-15.6-25.8-15.1-37.8c0.2-5.1,1.7-8.9,4.4-11.1c1.6-1.4,3.5-1.6,5-0.6
			c1.4,0.9,2.1,2.6,1.7,4.2c-0.1,0.5-0.3,0.9-0.6,1.3c0-0.2,0-0.5-0.1-0.7c-0.4-1.5-2-2.3-3.5-1.9c-1.5,0.4-2.3,2-1.9,3.4
			c1.2,4.3,6.9,2.6,7.4-1.7c0.3-2.3-0.3-4.5-2.3-5.8c-1.6-1-4.1-1.3-6.6,0.7c-2.9,2.5-4.6,6.7-4.8,12.1
			c-0.5,12.3,6.6,30.1,15.5,38.9c9.6,9.4,17.6,14.5,27.9,17.7c11.1,3.4,24.2,3.9,36.1,1.9c-9.8,2.4-20.7,3.2-33.1,1
			c-19.8-3.4-35.6-14.2-44.6-30.6c-7.9-14.3-9.5-31.3-4.7-46.2l-1.5,0c-4.8,15.2-3,32.4,5,46.9c9.2,16.7,25.4,27.8,45.6,31.3
			c8.7,1.5,16.7,1.5,24.1,0.6c0,0.1,0,0.1,0,0.1c0.6,2,2.7,3.2,4.8,2.6c1.8-0.5,2.7-2.2,2.6-4c1.7-0.4,3.4-0.7,5-1.2
			c0,1.9,0.9,4.3,3.3,4.7c0,0-3.4,1.9-2,5.8c0.9,2.6,3.5,3.2,5,2.9c0,0-1.1,1.9-0.2,3.7c0.4,0.9,1.2,1.6,2.1,1.8
			c-1.6,1-3.3,1.9-5,2.9l2.9,0c9.8-5.6,18.7-12.5,26.5-19.3c-6.4,6.9-13.2,13.6-20.4,19.3l2.3,0C137.8,259,148.3,247.2,158,236.3z"/>
		<path fill="#1B75BB" d="M-0.5,253.8v1.9c0.1,0.1,0.2,0.2,0.3,0.3c-0.1-0.1-0.2-0.2-0.3-0.2v1.7c3.9,3.2,8.1,6.2,12.4,8.8
			c0.3,0.2,0.7,0.5,1,0.7l0-0.1c1.1,0.6,2.2,1.2,3.3,1.8l2.9,0c-2.1-1.1-4.2-2.2-6.3-3.5C8.3,262.3,3.8,258.3-0.5,253.8z"/>
		<path fill="#1B75BB" d="M250.4,254.1c2.1-0.6,3.3-2.8,2.7-4.9c-0.2-0.5-0.4-0.9-0.7-1.3c-2,1.7-3.8,3.4-5.3,5.5
			C248.1,254.4,248.9,254.5,250.4,254.1z"/>
		<path fill="#1B75BB" d="M56.7,222.6c-1.8,0.5-2.8,2.4-2.3,4.1c0.5,1.8,2.3,2.8,4.1,2.3c1.8-0.5,2.8-2.3,2.3-4.1
			C60.3,223.2,58.4,222.2,56.7,222.6z"/>
		<path fill="#1B75BB" d="M298.5,227.9c1.6-0.5,2.5-2.1,2.1-3.7c-0.5-1.6-2.1-2.5-3.7-2.1c-1.6,0.5-2.5,2.1-2.1,3.7
			C295.3,227.5,296.9,228.4,298.5,227.9z"/>
		<path fill="#1B75BB" d="M293.6,231.3c0.9-0.3,1.5-1.2,1.2-2.2c-0.3-0.9-1.2-1.5-2.2-1.2c-0.9,0.3-1.5,1.3-1.2,2.2
			C291.7,231.1,292.6,231.6,293.6,231.3z"/>
		<path fill="#1B75BB" d="M290.9,253.9c1-0.3,1.5-1.3,1.2-2.3c-0.3-1-1.3-1.5-2.3-1.2c-1,0.3-1.5,1.3-1.3,2.3
			C288.9,253.6,289.9,254.2,290.9,253.9z"/>
		<path fill="#1B75BB" d="M176.9,239.1c20.6-20.4,52.9-36.4,53.2-36.6l3.3-1.4c-3,0.9-11.8,1.6-14.1-6c-2.1-6.8,8.2-15.1,8.2-15.2
			l-2,1.2c-8.1,4.2-26.8,16.9-29.5,21.8c-1.2,2.2-1.1,4.3,0.2,5.7c1.3,1.4,3.6,1.9,5.5,1c1.5-0.7,2.4-1.9,2.4-3.4
			c0-1.4-0.9-2.9-2.2-3.4l0,0.1c-0.5-0.3-1-0.3-1.6-0.2c-1.1,0.3-1.8,1.5-1.4,2.6c0.3,1.1,1.5,1.8,2.6,1.4c0.5-0.1,0.9-0.5,1.2-0.8
			c0,0.1,0,0.2,0,0.3c0,0.9-0.6,1.6-1.6,2.1c-1.3,0.6-3,0.3-3.9-0.7c-0.9-1-0.9-2.4,0-4.1c2-3.5,14.3-12.5,23.5-18.1
			c-2.5,2.8-3.9,6.4-2.7,10.3c1.6,5.3,5.6,6.7,8.5,7.1c-8.5,4.5-33.5,18.4-50.7,35.3c-6.8,6.7-13.5,14-20.6,21.7
			c-2.7,2.9-5.4,5.8-8.1,8.7l1.9,0c2.4-2.6,4.8-5.2,7.2-7.8C163.4,253.1,170.1,245.8,176.9,239.1z"/>
		<path fill="#1B75BB" d="M242.4,228.1l-0.1-0.2c-0.3,0.2-24.6,13.4-43.2,40.6l1.5,0c10.6-15.4,22.7-26.2,31.1-32.5
			c-12.8,11.8-21.1,23.2-26.5,32.5l1.6,0C213.4,257,224.3,242.5,242.4,228.1z"/>
		<path fill="#1B75BB" d="M412.6,307.3c1.2-0.4,2-1.6,1.6-2.9c-0.4-1.2-1.7-1.9-2.9-1.6c-1.2,0.3-1.9,1.6-1.6,2.9
			C410.1,307,411.4,307.7,412.6,307.3z"/>
		<path fill="#1B75BB" d="M411.4,312.8c-0.3-0.9-1.3-1.5-2.2-1.2c-0.9,0.3-1.5,1.2-1.2,2.2c0.1,0.3,0.3,0.6,0.6,0.8
			c1-0.3,1.9-0.7,2.9-1.1C411.5,313.3,411.5,313,411.4,312.8z"/>
		<path fill="#1B75BB" d="M437.7,296.5l-0.7-0.3c-2.7-1-5.5-3.8-4.7-8.3c0.7-3.9,5.6-6.3,5.6-6.3l2.3-1.1l-2.6-0.2
			c-0.1,0-9.7-0.9-15.9-2.6l-0.3-0.1c-6.3-1.8-18.1-5.2-26.2-1.9c-5.9,2.4-9.1,6.5-8.8,11.1c0.3,4,3.4,7.8,7,8.7
			c2.2,0.5,4.1-0.4,5.6-2c0.1-0.1,0.3-0.1,0.5-0.2c0.2-0.2,0.2-0.4,0.4-0.6c0.2-0.2,0.4-0.3,0.6-0.6l-0.2-0.1
			c0.4-0.9,0.5-1.9-0.1-2.7c-0.9-1.1-2.8-1.2-4-0.2c-1.3,1.1-1.6,2.8-0.6,4c0.3,0.4,0.8,0.5,1.3,0.6c-0.9,0.4-1.9,0.5-3,0.3
			c-3.1-0.7-5.7-4-5.9-7.4c-0.2-2.3,0.6-6.7,7.9-9.7c7.7-3.1,19.1,0.1,25.3,1.9l0.3,0.1c4.6,1.3,10.9,2.1,14.1,2.5
			c-1.7,1.2-4.1,3.2-4.6,6.2c-0.9,4.9,2,8.1,4.9,9.5c-0.3,0.6-0.9,1.8-1.5,3.4c0.8-0.6,1.6-1.2,2.4-1.9c0.4-0.9,0.7-1.4,0.7-1.4
			L437.7,296.5z"/>
		<path fill="#1B75BB" d="M456.5,288.9c2.1-1.1,4.3-2.1,6.7-2.9c1.4-0.9,2.6-1.8,3.7-2.8c-5.4,1.7-10.3,3.7-14.5,6.5
			C453.7,289.6,455.1,289.3,456.5,288.9z"/>
		<path fill="#1B75BB" d="M548,253.7C548,253.7,548,253.7,548,253.7C547.9,253.7,547.9,253.6,548,253.7c0-0.1-0.1,0-0.1,0.1
			c-0.4,0.9-2.8,5.7-4,7.8c0,0-1.9,3.1,1.1,4.4c-0.4,0.8-0.6,1.7-0.7,2.5l4.9,0c-1.1-5.3-1.3-13.1-1.3-14.6
			C548,253.8,548,253.7,548,253.7z"/>
		<path fill="#1B75BB" d="M425.5,300c-3.2-5,2.3-9.6,2.5-9.7l-0.2-0.1c-0.2,0.1-4.4,2-6.9-1c-2.8-3.4-1.7-6.9-1.6-7.1l0.2-0.7
			l-0.7-0.2c-0.3-0.1-6.9-1.9-10-2.5c-5.2-1-9.4-0.3-12.3,1.9c-3.6,2.8-4,6.9-4.1,7.1l-0.2,2.4l1.5-2c1.5-2,3.4-2.8,5.3-2.2
			c2.1,0.6,3.9,2.8,4,5.1c0.2,2.4-0.7,4.7-2.6,6.3c-2,1.7-4.5,2.4-7.1,1.8c-5.6-1.3-10.7-7.3-9.4-15.2c1.3-8.2,11.8-12.2,11.9-12.2
			l2.1-0.8l-2.2-0.6c-8.5-2.2-22.4-2.7-25.5,2.1c-1.8,2.7-0.8,4.3-0.3,4.8c1,1.1,2.8,1.4,4.4,0.6l0,0c1-0.5,1.6-1.6,1.3-2.7
			c-0.4-1.3-1.6-2-2.9-1.6c-1.2,0.4-1.9,1.6-1.6,2.9c0,0.1,0,0.1,0.1,0.2c-0.1-0.1-0.2-0.1-0.3-0.2c-0.6-0.7-0.4-1.8,0.5-3.2
			c2.2-3.4,13.1-3.8,21.9-1.9c-3.3,1.7-9.7,5.6-10.8,12.4c-1.4,8.8,4.2,15.4,10.5,16.8c3,0.7,6-0.1,8.3-2.1c2.2-1.9,3.3-4.6,3.1-7.5
			c-0.2-2.9-2.4-5.6-5.1-6.3c-1.7-0.5-3.4-0.2-4.9,0.9c0.5-1.2,1.4-2.6,2.9-3.8c2.6-2,6.4-2.5,11.2-1.6c2.5,0.5,7.4,1.8,9.2,2.3
			c-0.3,1.4-0.5,4.6,2,7.7c1.5,1.8,3.5,2.2,5.2,2c-1.7,2.2-2.9,5.3-0.7,8.7c1.5,2.4,3.1,3.3,4.3,3.6c-0.1,0.1-0.1,0.2-0.2,0.3
			c0.8-0.5,1.6-1.1,2.3-1.6l-0.8,0C430,303.1,427.8,303.6,425.5,300z"/>
		<path fill="#1B75BB" d="M557,264.5c-1.3-1.6-2.2-3.4-3-5.3c-3.5-8.2-2.9-17.4-3-17.3c0,0-0.1,0.4-0.2,1c-0.5,1.8-2.8,12-0.4,22.7
			c0.2,1,0.4,2,0.7,3l10.1,0C559.7,267.4,558.3,266,557,264.5z"/>
		<path fill="#1B75BB" d="M558.4,259.9c-0.2-1.7,0.6-3.1,2.2-4.1c1.4-0.9,2.6-0.5,3.4-0.1c0.8,0.5,1.5,1.2,1.7,2
			c-0.4-0.2-0.8-0.2-1.2-0.1c-0.9,0.3-1.5,1.2-1.2,2.2c0.3,0.9,1.2,1.5,2.1,1.2c0.2,0,0.3-0.1,0.4-0.2l0,0.1
			c0.8-0.5,1.3-1.3,1.3-2.2c0-1.5-1.1-3.2-2.6-4.1c-1.5-0.9-3.2-0.8-4.8,0.2c-2.1,1.3-3.1,3.2-2.9,5.4c0.3,3.2,3.2,6.7,6.5,7.9
			c0.6,0.2,1.2,0.4,1.7,0.7l3.2,0c-1.3-0.8-2.8-1.4-4.4-2C561.2,265.6,558.7,262.5,558.4,259.9z"/>
		<path fill="#1B75BB" d="M707.1,254.9c-1.3-3.4-2.4-7-3.2-10.7c-3-12.9-2-26.6,0.2-36.4c2.6-9.7,6.3-16.3,6.7-17.5
			c2-4.6,2.2-8.9,0.1-10.4c-2.2-1.5-6.5,1.5-8.7,6.6c-0.5,1.3-3.8,8.4-5.9,19.7c-1.6,11.2-1.4,25.7,3,39.2
			c2.7,8.7,6.9,16.6,11.1,23.2l2.8,0c0,0-0.1-0.1-0.1-0.1c-2-4-3.7-8.1-5-12.4c-5.5-19.1-4.6-38.2,2.6-56.6c4-10.2,9.9-20,17.5-29.1
			l-1.1,0c-7.4,9-13.3,18.8-17.2,28.8C703.1,217.3,702.1,236.1,707.1,254.9z"/>
		<path fill="#1B75BB" d="M661.3,189.2c0.9,0.3,1.9-0.1,2.3-1c0.3-0.9-0.1-1.9-1-2.2c-0.9-0.3-1.9,0.1-2.3,1
			C659.9,187.9,660.4,188.9,661.3,189.2z"/>
		<path fill="#1B75BB" d="M640.8,182.8c5.2,22.6,12.9,39.7,13,39.9l3.2,6.7l-2.4-7c-4.3-14-7.7-27.8-4-33.5c1.3-2,2.7-3.1,4.2-3.2
			c1.9-0.2,3.4,1.4,3.4,1.4l0.5,0.5l0.2-0.6c0,0,0.2-0.5,0.6-1.2c0.4-0.7,0.9-1.1,1.6-1.3c1.3-0.3,2.6,0.5,2.6,0.5l0.5,0.3l0.2-0.5
			c1.5-5.2,3.5-9.7,6.5-14.4l-1,0c-2.7,4.4-4.7,8.8-6.1,13.7c-0.6-0.3-1.7-0.6-2.8-0.4c-0.9,0.2-1.6,0.8-2.1,1.7
			c-0.2,0.3-0.3,0.6-0.4,0.8c-0.7-0.5-2-1.4-3.6-1.2c-1.8,0.1-3.4,1.3-4.8,3.6c-3.1,4.7-1.8,14,1.6,26.5c-2.7-7.1-6.8-18.7-9.9-32.4
			c-1.2-5.2-1.3-9.3-0.3-12.2l-0.9,0C639.5,173.5,639.6,177.7,640.8,182.8z"/>
		<path fill="#1B75BB" d="M663.5,209.3c0.2,17.7,10.5,37,23.2,53.4c-2.7-3.2-13.6-15.7-19.8-30.6c-8.3-17.2-7.1-34.1-6.7-37.2
			c0.3-3.2-1.2-6.3-3.7-7c-2.5-0.6-5.2,2.1-5.6,6.2c-1,2,1.9,23.2,11.9,40.1c7.9,13.4,17.3,23.6,27.7,34.4l6.2,0
			c-4.5-5.5-8.4-11.3-11.4-17.8c-5.9-12.7-11.9-27.6-11.2-41.8c0.1-18.6,7.8-29.3,8.7-31c1.7-2.8,3.3-5.4,4.5-7.7l-14.4,0
			c-0.3,0.4-0.5,0.7-0.8,1.1C670.8,173.5,662.2,188,663.5,209.3z"/>
		<path fill="#1B75BB" d="M673.9,258.2c-0.7-0.5-1.3-1-2-1.5c-10-7.1-21.7-12.5-31.8-14.4c-10.3-2.1-17.4-1-18.6-1.1
			c-4.9,0.5-8.3,4.1-7.6,7.4c0.7,3.4,4.6,5.5,8.9,5c1,0,7.4-1.6,15.7-0.9c8.6,0.5,19.8,3.8,30.1,9.3c3.9,2.1,7.7,4.3,11.2,6.6l6.8,0
			c-2.6-2.3-5.3-4.6-8.2-6.9c-11-10.6-20.2-24.3-27.8-41.8c-7.2-16.3-11.9-33.3-15.9-49.5l-0.9,0c3.9,15.6,8.8,33.4,16,49.8
			C656.7,235.7,664.6,248.2,673.9,258.2z"/>
		<path fill="#1B75BB" d="M648.6,170.4l-2.1,0l0,0C647.3,170.7,648,170.7,648.6,170.4z"/>
		<path fill="#1B75BB" d="M662.3,266.9c0.4,0.2,0.9-0.1,1.1-0.5c0.2-0.4-0.1-0.9-0.5-1c-0.4-0.2-0.9,0.1-1.1,0.5
			C661.6,266.3,661.8,266.8,662.3,266.9z"/>
		<path fill="#1B75BB" d="M743.6,216.1c-0.4-0.2-0.9,0.1-1,0.5c-0.2,0.4,0,0.9,0.5,1c0.4,0.1,0.9-0.1,1-0.5
			C744.3,216.7,744,216.3,743.6,216.1z"/>
		<path fill="#1B75BB" d="M636.1,196.2c4.1,13.6,9.8,26.3,16.9,37.9l0.4,0.6c0.5,0.8,0.9,1.5,1.4,2.3c-0.2-0.1-0.3-0.2-0.5-0.3
			c-1.8-0.7-3.7,0.2-4.4,2c0,0,0,0.1,0,0.2c-0.4-0.6-1.1-1-1.8-1.1c-1.5-0.2-3,0.8-3.2,2.3c0,0.2,0,0.3,0.1,0.5
			c-7.4-2.2-15.9-3.5-24.1-2.1c-8.1,1.4-9.9,5.5-10.2,7.9c-0.5,3.5,1.6,7.5,4.9,9.1c3.5,1.7,8.7,1.2,14.1,0.7
			c4.3-0.4,8.8-0.9,13-0.3c12.3,1.6,22,5.4,33.3,12.9l1.5,0c-11.9-8-21.9-12-34.7-13.7c-4.3-0.6-8.8-0.1-13.2,0.3
			c-5.3,0.5-10.3,1-13.7-0.6c-2.9-1.4-4.9-5-4.4-8.2c0.5-3.6,3.9-6.2,9.5-7.1c20.9-3.6,44.1,10.5,44.3,10.7l0.1,0
			c-4.7-4.4-7.9-10.3-11.2-15.7l-0.4-0.6c-7.1-11.5-12.7-24.2-16.8-37.7c-1-3.4-1.9-6.9-2.8-10.2c-1.3-5.1-2.7-10.3-4.5-15.3l-0.9,0
			c1.8,5.1,3.2,10.3,4.6,15.5C634.1,189.3,635,192.8,636.1,196.2z"/>
		<path fill="#1B75BB" d="M666.7,267.1c0.5,0.2,1.2-0.1,1.4-0.6c0.2-0.5-0.1-1.2-0.6-1.4c-0.5-0.2-1.2,0.1-1.4,0.6
			C665.9,266.3,666.2,266.9,666.7,267.1z"/>
		<path fill="#1B75BB" d="M741.8,199.2c0.2,0.2,0.5,0.4,0.8,0.5c1.3,0.5,2.6-0.2,3.1-1.4c0.3-0.9,0.3-1.4-0.3-2
			C744.1,197.1,742.9,198.1,741.8,199.2z"/>
		<path fill="#1B75BB" d="M730.3,192.1L730.3,192.1c11-11.6,21.6-17.6,29.2-20.8v-0.9c-6.3,2.6-14.7,7.3-23.8,15.6
			c3.9-4.4,10.2-10.5,18.9-15.8l-1.4,0C738.3,180,730.4,191.9,730.3,192.1z"/>
		<path fill="#1B75BB" d="M739.2,231.2c-0.5-0.2-1,0.1-1.2,0.5c-0.2,0.5,0.1,1,0.5,1.2c0.5,0.2,1.1-0.1,1.2-0.6
			C739.9,232,739.7,231.4,739.2,231.2z"/>
		<path fill="#1B75BB" d="M721.6,235.6c-0.8-0.3-1.6,0.1-1.9,0.9c-0.3,0.8,0.1,1.6,0.9,1.9c0.8,0.3,1.6-0.1,1.9-0.9
			C722.8,236.8,722.4,235.9,721.6,235.6z"/>
		<path fill="#1B75BB" d="M720.8,191.2c-0.1,0.2-0.2,0.4-0.3,0.6c-2.7,5-4.6,9.8-6.1,14.4c-0.2,0.7-0.4,1.4-0.6,2
			c-0.4,1.3-0.8,2.6-1.1,3.9c-4.3,16.8-3.6,33.7-0.3,45.9c1,3.9,2.3,7.5,3.6,10.7l5.9,0c-1.4-4-3.2-8.6-4.2-14.1
			c-0.5-2.8,0.2-11,0.6-12.1c0,0,0.2-0.6,0.3-0.9c0.4-1.1-0.1-7.5,0.3-7l0.2,0.3l0.3-0.2c0,0,1.9-0.9,3.4,0c1.8,1.2,1.7,2.7,1.7,2.7
			l0.2-0.4c0-0.1,2.7-8,4.6-10.9c1.4-2.1,3.5-3.2,5.4-3.1c1.4,0.1,2.5,0.9,3.2,2.3c0.7,1.6-0.1,3.5-1.7,5.5l0.1,0.1
			c0,0,1.6-1.1,2.8-1c0.6,0.1,1.1,0.5,1.5,1.2l0.2,0.4l0.4-0.3c0,0,2.7-2.3,6.5-5.3c1.4-1.1,6-5,6-8.3c0-0.9-0.4-1.7-1.1-2.3
			c-1-0.8-2.2-1.1-3.3-0.7c-1.1,0.4-1.9,1.3-2.2,2.4l0.1,0c0,0.7,0.3,1.3,1,1.5c0.8,0.3,1.7-0.1,2-0.9c0.3-0.8-0.1-1.7-0.9-2
			c-0.1,0-0.1,0-0.2-0.1c0.1-0.1,0.3-0.2,0.5-0.2c0.8-0.3,1.7-0.1,2.5,0.6c0.5,0.4,0.8,1,0.8,1.6c0,2.3-3,5.4-5.7,7.6
			c-3,2.4-5.4,4.4-6.2,5.1c-0.5-0.7-1.2-1.2-1.9-1.2c-0.4,0-0.7,0-1,0.1c0.9-1.5,1.2-2.8,0.6-4.3c-0.7-1.6-2.1-2.6-3.9-2.8
			c-2.3-0.2-4.6,1.1-6.2,3.4c-0.5,0.8-1.1,1.9-1.7,3.2c-0.9-0.9-3.1-1-4.5-0.1c-1.4,0.9-2,1.8-2.2,2.2c0.5-1.7,1.3-3.5,2.2-5.4
			c1.3-2.4,2.7-3.4,3.8-2.9l0.5,0.2l0.1-0.5c0-0.1,0.3-1.3,1.8-1.3c1.4,0,2.4,1.5,2.4,1.6l0-0.3c0-0.1-0.4-6.9,2.9-8.6
			c1.1-0.6,2-0.6,2.7-0.2c0.7,0.4,1.1,1.3,1,1.9c0,0.6-0.4,1-0.8,1.3c0-0.5-0.3-0.9-0.8-1c-0.6-0.2-1.3,0.1-1.5,0.7
			c-0.2,0.6,0.1,1.3,0.7,1.5c0.2,0.1,0.5,0.1,0.7,0c0.3,0,0.6-0.1,0.9-0.2c0.8-0.3,1.7-1.1,1.7-2.3c0-1.1-0.6-2.1-1.4-2.7
			c-1-0.6-2.3-0.5-3.6,0.2c-2.7,1.4-3.2,5.5-3.3,7.8c-0.4-0.3-0.9-0.6-1.6-0.6c-1.4,0-2.2,0.9-2.5,1.5c-0.7-0.2-1.4,0.1-2.1,0.6
			c2-3.7,4.2-7.1,5.5-8.7c5.2-6.7,9.8-11.1,10.9-12c0.9,0.4,3.8,1.4,6.6-1.4c1.9-2,1.1-4.2,0.7-5.1c4.3-2.4,8.1-4.2,11.7-5.1v-0.9
			c-3.8,0.9-7.8,2.8-12.4,5.4l-0.4,0.2l0.3,0.4c0.1,0.1,1.6,2.4-0.3,4.4c-2.7,2.8-5.5,1.3-5.8,1.2l-0.2-0.2l-0.3,0.2
			c-0.1,0-5.3,4.6-11.2,12.3c-1.7,2.3-5.1,7.6-7.4,12.8c-0.1,0.1-0.1,0.2-0.2,0.3l0,0c-0.6,1.3-1.2,2.7-1.6,3.9
			c-0.1-0.1-0.2-0.1-0.3-0.2c-0.6-0.2,0.7-1.8,0.3-1.7c1.7-4.5,8.1-22.3,25.6-34.4c5.2-3.6,9.9-6,14-7.5v-0.9
			c-4.3,1.6-9.1,4-14.5,7.7c-20.1,14-27.8,36.9-27.8,37.1l-0.2,0.6c-0.2,0.4-0.5,0.9-0.7,1.4c0,0-0.1,0-0.1,0
			c1.5-6.8,4.1-14.2,8.3-21.2c6.7-11,18-21.4,30.1-27.8c1.5-0.8,3.1-1.6,4.8-2.3V180c-1.9,0.8-3.6,1.7-5.2,2.5
			c-12.3,6.5-23.6,17-30.4,28.1c-6.5,10.7-9.1,22.3-10.1,31.3c0.3-7.3,1.6-15.5,4.6-23.9c5.3-15.1,15.1-27.6,28.9-37.1
			c3.8-2.6,7.9-4.8,12.3-6.7v-0.8c-4.5,1.8-8.8,4.1-12.8,6.8c-14,9.6-23.8,22.2-29.2,37.5c-2.6,7.4-3.9,14.6-4.4,21.3
			c0.5-12.2,3.4-25.6,9.8-37.6c6.4-13.2,16.5-23.7,27-31l-13.8,0c-5.7,6.2-10.5,12.6-14.3,19.2C721.5,190.1,721.1,190.6,720.8,191.2
			z"/>
		<path fill="#1B75BB" d="M687.6,173.6c-4,6.7-7.3,12.4-9.2,19.2c-3.9,13.3-3.2,27.6,2,42.4c3.5,9.8,5.5,13.5,5.6,13.7l0.6,1.1
			l0.2-1.3c0.2-1.5,0.9-2.6,1.9-3.1c0.8-0.4,1.8-0.3,2.8,0.2l1.2,0.6l-0.6-1.2c-0.1-0.1-7-14.8-6.7-26.5l0-0.3l-0.3-0.1
			c-0.1,0-2.7-1.1-1.6-4.1l0.1-0.3l-0.3-0.2c-0.1-0.1-2.3-1.5-2-4.1c0.3-2.9,2.6-3.6,2.7-3.6l0.3-0.1l0-0.3c0-0.1-0.1-2.6,2-3.2
			l0.3-0.1l0-0.3c0-0.2,1.4-16.6,10.8-31.8l-1,0c-8.7,14.2-10.4,29.3-10.7,31.5c-1.8,0.7-2.3,2.5-2.3,3.7c-0.8,0.3-2.7,1.4-3,4.2
			c-0.2,2.5,1.5,4.1,2.2,4.7c-0.9,2.9,1.2,4.3,1.9,4.7c-0.2,10.1,4.8,22.2,6.4,25.6c-0.9-0.3-1.8-0.2-2.5,0.2
			c-0.9,0.5-1.7,1.4-2.1,2.6c-0.8-1.7-2.6-5.6-5-12.5c-5.1-14.6-5.8-28.7-2-41.9c1.9-6.7,5.1-12.3,9.1-19l0.4-0.6
			c0.5-0.9,1.2-1.9,1.8-3.1l-1,0c-0.5,1-1.1,1.9-1.5,2.7L687.6,173.6z"/>
		<path fill="#1B75BB" d="M687.5,203.8c-1.4,0-2.6,1.5-2.3,2.8c0,0,0,0,0,0c-1.7,0.8-2.8,2.5-2.1,4.3c0.9,2.4,2.4,2.4,3.7,2.3
			c-1.8-0.1-2.8,2-2.2,3.4c0.4,1,1.8,1.1,2.1,1.2c0.5,10.5,3.3,20.8,8.5,31.1c-1.4-1-3-1.3-4.8-0.7c-2.2,0.7-2.8,2.9-2.2,4.9
			c0.5,1.3,2.1,5.1,9.4,15.7l10.5,0c-1.2-1.9-2.4-3.8-3.6-5.7c-7.8-14.4-13.5-30-13.8-45c-0.3-15.3,3.7-28.9,12.2-41.4
			c1.4-2.1,3-4.1,4.6-6.1l-1.1,0c-1.5,1.8-2.9,3.7-4.2,5.6c-8.6,12.7-12.7,26.4-12.4,41.9c0.2,11.7,3.7,23.8,8.9,35.4
			c-0.7-1-1.4-1.6-1.8-2.7c-11.4-21.1-12.7-42.8-3.8-64.6c2.3-5.7,5.2-10.9,8.2-15.7l-1,0c-3,4.7-5.7,9.8-8,15.3
			C690,191.7,688.4,197.8,687.5,203.8z"/>
		<path fill="#1B75BB" d="M702,180.9c0.1,0,5.6-5.8,9.6-4.2c4.5,1.8,3.6,7.1,2.9,8.8l1-1.9c0.1-0.1,3.6-6,9.1-13.2l-1.1,0
			c-3.6,4.7-6.3,8.9-7.7,11.1c-0.1-1.8-0.7-4.2-3.9-5.5c-2.3-0.9-4.5-0.2-6.3,1.1c1.5-2.1,3.4-4.5,5.3-6.7l-1.1,0
			c-2.8,3.4-5.6,7.1-7.1,9.4L702,180.9z"/>
		<path fill="#1B75BB" d="M726.1,255.9c0.4-13.4,8.3-24.4,9-25.1c1.4-1.9,1.6-4.3,0.4-5.4c-1.2-1-3.6-0.1-5.2,2.1
			c-0.6,0.5-3.7,6-5.6,13.4c-0.3-0.4-0.7-0.7-1.2-0.9c-3-0.7-4.5,3.2-4.9,5.9c-0.5,2.9-0.3,5.8,0.1,8.6c0.9,5.5,2.5,10.2,3.8,14.2
			c0,0,0,0,0,0l4.6,0C726.3,264.8,725.7,260.4,726.1,255.9z"/>
		<path fill="#1B75BB" d="M726.4,223.7c-0.9-0.4-2,0.1-2.4,1.1c-0.4,0.9,0.1,2,1.1,2.4c0.9,0.4,2-0.1,2.3-1.1
			C727.9,225.1,727.4,224,726.4,223.7z"/>
		<path fill="#1B75BB" d="M742.9,221.2c-0.6-0.2-1.2,0.1-1.4,0.6c-0.2,0.6,0.1,1.2,0.6,1.4c0.6,0.2,1.2-0.1,1.4-0.6
			C743.8,222.1,743.5,221.5,742.9,221.2z"/>
		<path fill="#1B75BB" d="M741.1,207.6c-0.4-0.2-0.9,0.1-1,0.5c-0.2,0.4,0,0.9,0.5,1c0.4,0.2,0.9,0,1-0.5
			C741.7,208.2,741.5,207.8,741.1,207.6z"/>
		<path fill="#1B75BB" d="M740.1,233.4c-0.1,0.1-0.2,0.2-0.4,0.3c-1.1,1-2.3,1.9-3.3,3c-1.6,1.7-3.1,3.5-4.2,5.6l0,0
			c-1.3,2.2-2.4,4.6-3.2,7.1c-2.1,6.3-2.1,13-1.1,19.3l0.8,0c-1-6.3-1-12.9,1.1-19.1c1.6-4.8,4.1-9,7.4-12.6
			c0.6-0.6,1.3-1.2,1.9-1.7c0.5-0.5,1-0.9,1.5-1.3c3.1-2.2,6.7-3.8,10.8-4.7c2.6-0.6,5.3-0.8,8-0.8v-0.8c-2.8,0-5.5,0.2-8.2,0.8
			c-1.4,0.3-2.7,0.8-4,1.3c0.7-0.3,1.3-0.8,2-1.1c2.7-1.1,6.2-1.9,10.2-2.1v-0.9c-4.1,0.2-7.7,1.1-10.5,2.2
			C745.7,229.2,742.8,231.1,740.1,233.4z"/>
		<path fill="#1B75BB" d="M729.2,221.8c-0.6-0.2-1.2,0.1-1.4,0.6c-0.2,0.6,0.1,1.2,0.6,1.4c0.5,0.2,1.2-0.1,1.4-0.6
			C730,222.6,729.7,222,729.2,221.8z"/>
		<path fill="#1B75BB" d="M754.7,231.3c-4.7,0.4-9.2,2.1-12.9,5c-2.5,1.9-4.5,4.2-6.1,6.9c-1.3,2.2-2.8,5.4-3.6,7.8
			c2.4-4.1,4.5-8.3,8.7-11.3c2.1-1.5,4.5-2.1,6.8-1.5c1.9,0.5,3.4,1.8,4.2,3.7c1.8,4.1-1.3,8.3-3.7,11.7c-0.9,1.2-1.7,2.4-2.2,3.4
			c-1.4,2.9-2.8,6.5-3.1,11.7l0.9,0c0.3-5,1.6-8.5,3-11.3c0.5-1,1.3-2.1,2.2-3.3c2.6-3.6,5.2-10.5,3.8-12.6
			c-1.3-1.9-2.6-3.5-4.8-4.1c-2.5-0.7-5.2-0.1-7.5,1.6c-0.6,0.5-1.2,0.9-1.7,1.4c2.9-3.4,7.9-7.5,16.1-8.3c1.8-0.2,3.3-0.1,4.7,0
			v-0.8C758.1,231.2,756.5,231.2,754.7,231.3z"/>
		<path fill="#1B75BB" d="M747.9,249.8c2.8-3.6,2.6-7.2,0.6-9c-4.1-3.7-10.1,3.5-11.7,6.5c-2.6,5-3.9,10.9-4.2,16.4
			c-0.1,1.6-0.1,3.2,0.1,4.9l8.2,0c0.1-0.6,0.1-1.1,0.1-1.7C742.4,257.7,746.8,251.9,747.9,249.8z"/>
		<path fill="#1B75BB" d="M746.3,268.7l0.9,0c2-7.9,6.9-14.6,12.3-17.3v-0.9C753.7,253.2,748.3,260.3,746.3,268.7z"/>
		<path fill="#1B75BB" d="M648.3,234c-0.8-0.3-1.6,0.1-1.9,0.9c-0.3,0.8,0.1,1.6,0.9,1.9c0.8,0.3,1.6-0.1,1.9-0.9
			C649.4,235.2,649,234.3,648.3,234z"/>
		<path fill="#1B75BB" d="M606.2,230.3c6-0.3,11.8,0.4,17.4,1.8c5.7,1.5,11.1,3.8,16.9,6.2l1.2,0.4l0.1,0c-1.2-1.1-1.2-2.2-1.1-2.8
			c0.1-0.5,0.4-1,0.9-1.3c1.3-0.9,3,0.3,3,0.3l0.4,0.3l0.2-0.4c0.5-0.9,1.1-1.5,1.9-1.6c2.3-0.5,3.6,1.4,3.7,1.4
			c-1.5-2.5-7-12.7-11.7-23.8c-0.8-2-1.6-3.9-2.3-5.6c-2.5-6.2-4.2-10.3-7.1-11.7c-1.6-0.7-3.5-0.6-4.8,0.2
			c-0.9,0.6-1.5,1.4-1.7,2.4c-0.1,0.2-0.1,0.3-0.1,0.5c0,0.5,0.3,0.9,0.8,1c0.6,0.2,1.3-0.1,1.5-0.7c0.2-0.6-0.1-1.3-0.7-1.5
			c-0.1,0-0.2-0.1-0.3-0.1c0.3-0.5,0.6-0.8,1-1c1.1-0.7,2.7-0.8,4-0.2c2.7,1.2,4.3,5.2,6.7,11.3c0.7,1.7,1.4,3.6,2.3,5.6
			c3.4,8,7.9,17.3,10.7,21.3c-0.6-0.2-1.4-0.3-2.1-0.1c-0.9,0.2-1.6,0.8-2.2,1.7c-0.7-0.4-2.2-1-3.6-0.1c-0.6,0.4-1.1,1.1-1.2,1.8
			c-0.1,0.5-0.1,0.9,0,1.4c-5.2-2.2-10.6-4.4-16.1-5.8c-5.7-1.5-11.6-2.1-17.7-1.8c-9.8,0.4-17.8-1.4-21.5-4.9
			c-1.5-1.4-2.2-3-2.3-4.8c0-2.3,0.7-4.1,2.2-5c1.3-0.8,2.9-0.8,4.3-0.1c1.9,1,1.9,2.6,1.8,3.2c0,0.2-0.1,0.3-0.1,0.5
			c-0.2-0.5-0.5-0.9-1.1-1.1c-0.9-0.4-2,0.1-2.4,1.1c-0.4,0.9,0.1,2,1.1,2.4c0.7,0.3,1.6,0,2.1-0.6c0.6-0.5,1.1-1.2,1.3-2.1
			c0.3-1.7-0.5-3.2-2.2-4.1c-1.6-0.8-3.6-0.8-5.1,0.2c-1.7,1.1-2.6,3.1-2.6,5.7c0,2,0.9,3.8,2.5,5.4
			C588,228.9,596,230.8,606.2,230.3z"/>
		<path fill="#1B75BB" d="M632.4,226.3c-0.9-0.3-1.9,0.1-2.2,1c-0.3,0.9,0.1,1.9,1,2.2c0.9,0.3,1.9-0.1,2.2-1
			C633.8,227.6,633.3,226.6,632.4,226.3z"/>
		<path fill="#1B75BB" d="M642.8,229.3c0.6-1.6-0.2-3.5-1.8-4.1c-1.6-0.6-3.5,0.2-4.1,1.8c-0.6,1.6,0.2,3.5,1.8,4.1
			C640.4,231.8,642.2,230.9,642.8,229.3z"/>
		<path fill="#1B75BB" d="M643.3,235.2c-0.6-0.2-1.3,0.1-1.5,0.7c-0.2,0.6,0.1,1.3,0.7,1.5c0.6,0.2,1.3-0.1,1.5-0.7
			C644.2,236.1,643.9,235.4,643.3,235.2z"/>
		<path fill="#1B75BB" d="M629.6,213.9c-0.2,0.4,0,0.9,0.5,1c0.4,0.2,0.9-0.1,1-0.5c0.2-0.4-0.1-0.9-0.5-1
			C630.2,213.3,629.8,213.5,629.6,213.9z"/>
		<path fill="#1B75BB" d="M635.1,215.1c0.2-0.5-0.1-1.2-0.6-1.4c-0.5-0.2-1.2,0.1-1.4,0.6c-0.2,0.5,0.1,1.2,0.6,1.4
			C634.3,215.9,634.9,215.6,635.1,215.1z"/>
		<path fill="#1B75BB" d="M631.3,205.3c-0.4-0.2-0.9,0.1-1,0.5c-0.2,0.4,0.1,0.9,0.5,1c0.4,0.2,0.9-0.1,1-0.5
			C632,205.9,631.7,205.4,631.3,205.3z"/>
	</g>

		<path id="circle" fill="#FFFFFF" d="M379.4,292.3c-35.2,0-64.7-26.4-68.7-61.4c-4.4-37.9,23-72.4,60.9-76.7c2.6-0.3,5.3-0.5,8-0.5
			c35.2,0,64.7,26.4,68.7,61.4c2.1,18.4-3.1,36.5-14.6,51c-11.5,14.5-28,23.6-46.3,25.7C384.8,292.1,382.1,292.3,379.4,292.3z
			 M379.6,155.5c-2.6,0-5.2,0.1-7.8,0.4c-37,4.2-63.6,37.8-59.4,74.8c3.9,34.1,32.7,59.8,67,59.8c2.6,0,5.2-0.2,7.8-0.4
			c17.9-2.1,34-11,45.2-25.1c11.2-14.1,16.3-31.8,14.2-49.7C442.7,181.2,413.9,155.5,379.6,155.5z"/>
		<path id="outer_circle" fill="#FFFFFF" d="M379.4,298.7c-38.4,0-70.7-28.8-75.1-67c-2.3-20.1,3.3-39.8,15.9-55.7c12.6-15.8,30.5-25.8,50.6-28.1
			c2.9-0.3,5.8-0.5,8.7-0.5c38.4,0,70.7,28.8,75.1,67c2.3,20.1-3.3,39.8-15.9,55.7c-12.6,15.8-30.5,25.8-50.6,28.1
			C385.2,298.5,382.3,298.7,379.4,298.7z M379.6,149.3c-2.8,0-5.7,0.2-8.5,0.5c-19.6,2.2-37.1,12-49.3,27.4
			c-12.2,15.4-17.8,34.7-15.5,54.3c4.3,37.2,35.7,65.3,73.1,65.3c2.8,0,5.7-0.2,8.5-0.5c19.6-2.2,37.1-12,49.3-27.4
			c12.2-15.4,17.8-34.7,15.5-54.2C448.5,177.4,417,149.3,379.6,149.3z"/>
		<g id="love">
			<path fill-rule="evenodd" clip-rule="evenodd" fill="#FFFFFF" d="M430.3,174.3c0-3.3-0.3-6.8-1.2-10c-0.9-3.1-2.6-6.8-6.2-7.5
				c-3.8-0.7-6.3,2.5-7.5,5.6c-2.3,5.8-2.2,14.1-0.8,20.2c1.3,5.7,4.8,11,11.3,10.8c3.4-0.1,7.1-1.1,10.3-2.3
				c3.6-1.3,7.4-3.1,10.5-5.5c2.6-2,5.3-5,4.6-8.6c-0.8-3.8-4.7-4.9-8.1-4.8c-3.9,0.1-8.1,1.3-11.7,2.9l-1.3,0.5V174.3z"/>
			<path fill-rule="evenodd" clip-rule="evenodd" fill="#FFFFFF" d="M402.3,171.8c-1-1.2-2.3-2.5-3.6-3.4c-1.3-0.9-3.2-1.7-4.7-0.8
				c-1.6,1-1.6,2.9-1,4.5c1,2.9,3.7,6,6.1,7.8c2.3,1.7,5.3,2.6,7.6,0.4c1.3-1.1,2.3-2.7,3.1-4.1c0.9-1.6,1.8-3.5,2.2-5.4
				c0.3-1.6,0.4-3.6-1-4.6c-1.5-1.2-3.3-0.3-4.5,0.8c-1.4,1.3-2.6,3.1-3.5,4.8l-0.3,0.6L402.3,171.8z"/>
		</g>

	<text x="120" y="225" id="welcome" fill="#FFFFFF" font-family="'ArialMT'" font-size="18">WELCOME BABY</text>
			<text x="475" y="225" id="lucy" fill="#FFFFFF" font-family="'ArialMT'" font-size="18">MIKE SMITH</text>
		<text x="336" y="214" id="its" transform="rotate(345,363.5,205.02173913043478)" fill="#FFFFFF" font-family="'MongolianBaiti'" font-size="27">Its a</text>

	
<text x="322" y="262" id="girl" font-size="65" font-family="Scarlet" fill="#FFFFFF" transform="rotate(330,370.5,241.47826086956522)">Boy!</text>
</g>
</svg>