<svg id="Layer_1" style="enable-background:new 0 0 612 372;" version="1.1" viewBox="0 0 612 372" x="0px" xml:space="preserve" xmlns="http://www.w3.org/2000/svg" xmlns:xlink="http://www.w3.org/1999/xlink" y="0px"> <g id="background"> <g id="Layer_1_2_"> <g id="Layer_1_1_"> <radialGradient cx="334.4816" cy="659.85" gradientTransform="matrix(1 0 0 1 -28.4816 -476)" gradientUnits="userSpaceOnUse" id="SVGID_1_" r="220.3666"> <stop offset="0" style="stop-color:#FFFFFF"/> <stop offset="1" style="stop-color:#C9CFD4"/> </radialGradient> <rect class="st0" height="118.1" width="612" y="124.8"/> </g> </g> <g id="Layer_2_1_"> <g id="Layer_5"> <radialGradient cx="302.1" cy="659.1" gradientTransform="matrix(1 0 0 1 0 -476)" gradientUnits="userSpaceOnUse" id="SVGID_2_" r="89.3759"> <stop offset="0" style="stop-color:#FFFFFF"/> <stop offset="1" style="stop-color:#C9CFD4"/> </radialGradient> <ellipse class="st1" cx="302.1" cy="183.1" rx="82.8" ry="95.5"/> </g> </g> <g id="circle_decoration"> <g id="Layer_3_1_"> <g id="Layer_2"> <g id="Layer_11"> <ellipse class="st2" cx="302" cy="182.8" rx="78.3" ry="91.4"/> <path class="st2" d="M303.4,92.9c6,6.8,15.6,6.8,23.2,3.1c1.3,7.3,11.6,13.1,18.3,10.2c1.3,11.1,6.2,15.6,15.6,15.8&#10;&#9;&#9;&#9;&#9;&#9;&#9;&#9;c-3.5,10.9,2.7,17.8,10.7,19.8c-2.7,8.7-1.1,20.6,7,25.6c-6.8,6.2-6,18.8,0.1,27.6c-13.8,7.6-5.6,27.2-5.6,27.2&#10;&#9;&#9;&#9;&#9;&#9;&#9;&#9;s-16.7,0.4-12.2,18.6c-16.5,0-13.4,16.7-13.4,16.7s-14.1-6.3-18.7,11.5c-9.1-6.3-19-1.6-23.2,5.2c-7.6-9.5-14.4-10.5-23.2-3.1&#10;&#9;&#9;&#9;&#9;&#9;&#9;&#9;c-7.2-17.7-19.6-10.4-19.6-10.4s-2.1-18.2-17.9-16.7c1.5-6.3,2.7-20.8-13.4-22.9c4.9-6.9,1.8-20.7-6.2-26&#10;&#9;&#9;&#9;&#9;&#9;&#9;&#9;c5.8-6.9,7.6-17.8,0.9-28.1c8.9-2.9,10.7-14.8,6.2-24c8.9-0.4,14-8.9,11.6-19.8c9.9,0.5,16.6-6.3,16.1-16.7&#10;&#9;&#9;&#9;&#9;&#9;&#9;&#9;c6.7,4.2,18.3-1.6,21.4-11.5C289.5,101.7,297,100.1,303.4,92.9z"/> <path class="st2" d="M308.9,93.2c5.6,7.3,15.2,8,23,5c0.9,7.4,10.8,14.1,17.6,11.7c0.7,11.2,5.3,16.1,14.7,17.1&#10;&#9;&#9;&#9;&#9;&#9;&#9;&#9;c-4.1,10.6,1.6,18,9.5,20.6c-3.2,8.5-2.4,20.5,5.5,26.1c-7.2,5.6-7.1,18.3-1.6,27.5c-14.3,6.5-7.3,26.7-7.3,26.7&#10;&#9;&#9;&#9;&#9;&#9;&#9;&#9;s-16.7-1-13.3,17.6c-16.4-1.4-14.4,15.5-14.4,15.5s-13.7-7.4-19.4,9.9c-8.7-7-18.8-3.1-23.5,3.3c-7-10.1-13.7-11.6-23-5&#10;&#9;&#9;&#9;&#9;&#9;&#9;&#9;c-6.1-18.3-19-12-19-12s-1-18.4-16.8-18.1c1.8-6.1,3.9-20.6-12-24c5.3-6.5,3-20.5-4.7-26.5c6.2-6.4,8.6-17.1,2.6-28&#10;&#9;&#9;&#9;&#9;&#9;&#9;&#9;c9.1-2.1,11.6-13.9,7.7-23.4c8.9,0.3,14.5-7.7,12.8-18.8c9.9,1.3,16.9-4.9,17-15.3c6.5,4.7,18.3-0.1,22.1-9.7&#10;&#9;&#9;&#9;&#9;&#9;&#9;&#9;C294.5,100.9,302,100,308.9,93.2z"/> </g> </g> </g> </g> <g id="band_decoration"> <g id="Layer_5_1_"> <g id="Layer_3"> <line class="st2" x1="373.6" x2="612" y1="135.1" y2="135.2"/> <g id="layer_12"> <line class="st2" x1="376.5" x2="612.5" y1="139.1" y2="139.2"/> <path class="st2" d="M377.5,145.1c0,0,7.8,3.3,12.8-5.4c5.9,8,14.5,8.5,20.1,0c5.5,8.8,14.3,7.1,20.4,0c6,7.8,14.7,8.2,20.6,0&#10;&#9;&#9;&#9;&#9;&#9;&#9;&#9;c5.9,7.6,14.5,8.4,20.2,0c5.9,7.9,14.9,6.7,21.1,0c11.9,14.5,20.9,0.3,20.9,0.3s-4.1-2.2,4.3,3.7c8.3,6,16.7-4,16.7-4&#10;&#9;&#9;&#9;&#9;&#9;&#9;&#9;s-1.5,2.1,0,0c10.1,14.5,19.4,0.3,19.4,0.3s1.1,0,3.2,2.5c6.9,6.5,15.1,2.3,19.5-2.8c5.7,8.1,14.2,7.9,20.1,0&#10;&#9;&#9;&#9;&#9;&#9;&#9;&#9;c5.7,8.1,16.3,4.7,16.3,4.7"/> <path class="st2" d="M379.3,145.1c0,0,3.3,1.1,6.8-5.4c5.9,8,14.5,8.5,20.1,0c5.5,8.8,14.3,7.1,20.4,0c6,7.8,14.7,8.2,20.6,0&#10;&#9;&#9;&#9;&#9;&#9;&#9;&#9;c5.9,7.6,14.5,8.4,20.2,0c5.9,7.9,14.9,6.7,21.1,0c11.9,14.5,20.9,0.3,20.9,0.3s-4.1-2.2,4.3,3.7c8.3,6,16.7-4,16.7-4&#10;&#9;&#9;&#9;&#9;&#9;&#9;&#9;s-1.5,2.1,0,0c10.1,14.5,19.4,0.3,19.4,0.3s1.1,0,3.2,2.5c6.9,6.5,15.1,2.3,19.5-2.8c5.7,8.1,14.2,7.9,20.1,0&#10;&#9;&#9;&#9;&#9;&#9;&#9;&#9;c8.1,10.5,19.4,2.7,19.4,2.7"/> <line class="st2" x1="0" x2="230.4" y1="135.1" y2="135.2"/> <line class="st2" x1="0" x2="229" y1="139.1" y2="139.2"/> <path class="st2" d="M0,145.1c0,0,2.5-2.2,5.8-5.4c3.5,6.5,14.5,8.5,20.1,0c5.5,8.8,14.3,7.1,20.4,0c6,7.8,14.7,8.2,20.6,0&#10;&#9;&#9;&#9;&#9;&#9;&#9;&#9;c5.9,7.6,14.5,8.4,20.2,0c5.9,7.9,14.9,6.7,21.1,0c11.9,14.5,20.9,0.3,20.9,0.3s-4.1-2.2,4.3,3.7c8.3,6,16.7-4,16.7-4&#10;&#9;&#9;&#9;&#9;&#9;&#9;&#9;s-1.5,2.1,0,0c10.1,14.5,19.4,0.3,19.4,0.3s1.1,0,3.2,2.5c6.9,6.5,15.1,2.3,19.5-2.8c5.7,8.1,14.2,7.9,20.1,0&#10;&#9;&#9;&#9;&#9;&#9;&#9;&#9;c5.7,8.1,14.3,4.7,14.3,4.7"/> <path class="st2" d="M0,143.1c0,0-2,3.1,1.6-3.4c5.9,8,14.5,8.5,20.1,0c5.5,8.8,14.3,7.1,20.4,0c6,7.8,14.7,8.2,20.6,0&#10;&#9;&#9;&#9;&#9;&#9;&#9;&#9;c5.9,7.6,14.5,8.4,20.2,0c5.9,7.9,14.9,6.7,21.1,0c11.9,14.5,20.9,0.3,20.9,0.3s-4.1-2.2,4.3,3.7c8.3,6,16.7-4,16.7-4&#10;&#9;&#9;&#9;&#9;&#9;&#9;&#9;s-1.5,2.1,0,0c10.1,14.5,19.4,0.3,19.4,0.3s1.1,0,3.2,2.5c6.9,6.5,15.1,2.3,19.5-2.8c5.7,8.1,14.2,7.9,20.1,0&#10;&#9;&#9;&#9;&#9;&#9;&#9;&#9;c8.1,10.5,19.4,1.7,19.4,1.7"/> </g> <g id="layer_13"> <g id="layer_14"> <line class="st2" x1="231.6" x2="0" y1="231.1" y2="231.1"/> <line class="st2" x1="228.6" x2="0" y1="227.1" y2="227.1"/> <path class="st2" d="M226.6,221.2c0,0-6.8-3.3-11.8,5.4c-5.9-8-14.5-8.5-20.1,0c-5.5-8.8-14.3-7.1-20.4,0&#10;&#9;&#9;&#9;&#9;&#9;&#9;&#9;&#9;c-6-7.8-14.7-8.2-20.6,0c-5.9-7.6-14.5-8.4-20.2,0c-5.9-7.9-14.9-6.7-21.1,0c-11.9-14.5-20.9-0.3-20.9-0.3s4.1,2.2-4.3-3.7&#10;&#9;&#9;&#9;&#9;&#9;&#9;&#9;&#9;c-8.3-6-16.7,4-16.7,4s1.5-2.1,0,0c-10.1-14.5-19.4-0.3-19.4-0.3s-1.1,0-3.2-2.5c-6.9-6.5-15.1-2.3-19.5,2.8&#10;&#9;&#9;&#9;&#9;&#9;&#9;&#9;&#9;c-5.7-8.1-14.2-7.9-20.1,0c-5.7-8.1-9.3-4.7-9.3-4.7"/> <path class="st2" d="M225.8,221.2c0,0-3.3-1.1-6.8,5.4c-5.9-8-14.5-8.5-20.1,0c-5.5-8.8-14.3-7.1-20.4,0&#10;&#9;&#9;&#9;&#9;&#9;&#9;&#9;&#9;c-6-7.8-14.7-8.2-20.6,0c-5.9-7.6-14.5-8.4-20.2,0c-5.9-7.9-14.9-6.7-21.1,0c-11.9-14.5-20.9-0.3-20.9-0.3s4.1,2.2-4.3-3.7&#10;&#9;&#9;&#9;&#9;&#9;&#9;&#9;&#9;c-8.3-6-16.7,4-16.7,4s1.5-2.1,0,0c-10.1-14.5-19.4-0.3-19.4-0.3s-1.1,0-3.2-2.5c-6.9-6.5-15.1-2.3-19.5,2.8&#10;&#9;&#9;&#9;&#9;&#9;&#9;&#9;&#9;c-5.7-8.1-14.2-7.9-20.1,0C4.4,216.1-1,221.9-1,221.9"/> </g> <g id="layer_15"> <line class="st2" x1="612" x2="374.6" y1="231.1" y2="231.1"/> <line class="st2" x1="613.1" x2="376" y1="227.1" y2="227.1"/> <path class="st2" d="M612.1,221.2c0,0-7.8-3.3-12.8,5.4c-5.9-8-14.5-8.5-20.1,0c-5.5-8.8-14.3-7.1-20.4,0&#10;&#9;&#9;&#9;&#9;&#9;&#9;&#9;&#9;c-6-7.8-14.7-8.2-20.6,0c-5.9-7.6-14.5-8.4-20.2,0c-5.9-7.9-14.9-6.7-21.1,0c-11.9-14.5-20.9-0.3-20.9-0.3s4.1,2.2-4.3-3.7&#10;&#9;&#9;&#9;&#9;&#9;&#9;&#9;&#9;c-8.3-6-16.7,4-16.7,4s1.5-2.1,0,0c-10.1-14.5-19.4-0.3-19.4-0.3s-1.1,0-3.2-2.5c-6.9-6.5-15.1-2.3-19.5,2.8&#10;&#9;&#9;&#9;&#9;&#9;&#9;&#9;&#9;c-5.7-8.1-14.2-7.9-20.1,0c-5.7-8.1-15.3-5.7-15.3-5.7"/> <path class="st2" d="M610.3,221.2c0,0-3.3-1.1-6.8,5.4c-5.9-8-14.5-8.5-20.1,0c-5.5-8.8-14.3-7.1-20.4,0&#10;&#9;&#9;&#9;&#9;&#9;&#9;&#9;&#9;c-6-7.8-14.7-8.2-20.6,0c-5.9-7.6-14.5-8.4-20.2,0c-5.9-7.9-14.9-6.7-21.1,0c-11.9-14.5-20.9-0.3-20.9-0.3s4.1,2.2-4.3-3.7&#10;&#9;&#9;&#9;&#9;&#9;&#9;&#9;&#9;c-8.3-6-16.7,4-16.7,4s1.5-2.1,0,0c-10.1-14.5-19.4-0.3-19.4-0.3s-1.1,0-3.2-2.5c-6.9-6.5-15.1-2.3-19.5,2.8&#10;&#9;&#9;&#9;&#9;&#9;&#9;&#9;&#9;c-5.7-8.1-14.2-7.9-20.1,0c-8.1-10.5-19.4-2.7-19.4-2.7"/> </g> </g> </g> </g> </g> <g id="leaf_design"> <g id="Layer_4_1_"> <g id="Layer_4"> <g id="layer_16"> <g id="layer_17"> <path d="M213.3,160.7c0,0,0.7,10-6.3,11.7c2.3,6.8-4.3,9-4.3,9s2.7,10-8.7,12c0,0,10.7-9.7,1-12c-7,3-11.3,22-21,25.3&#10;&#9;&#9;&#9;&#9;&#9;&#9;&#9;&#9;c-8.5,2.9-17.7,0.3-21.3,1.3s-1.6,5.7-3.7,6.3c-8,0.3-7-3.7-7-3.7s-4.7,4.3-8.7-1.7c-9,3.7-15.3,0.7-15.3,0.7&#10;&#9;&#9;&#9;&#9;&#9;&#9;&#9;&#9;s24.2-8.6,34.3-4.7c3.9,1.5,14,2.8,22.7-0.9c8.5-3.6,14.5-21.8,23.6-27.5S213.3,160.7,213.3,160.7z"/> <path d="M166.7,187c0,0-12-11.4-25.7-14.3c-17.9-3.9-39.7,7.3-39.7,7.3s11.1,9.7,26.7,13.3c16.7,3.7,35.7,0,35.7,0&#10;&#9;&#9;&#9;&#9;&#9;&#9;&#9;&#9;s-34.7,2.1-51.3-12C141.7,169.3,166.7,187,166.7,187z"/> <path d="M123,182.3c0,0,14.8,3.9,22,5.7c11.1,2.7,21.7,5.7,29.3,3.3c14.2-4.3,17.3-16.3,25.1-24.3c8.3-8.6,8.3-8.6,20.9-20&#10;&#9;&#9;&#9;&#9;&#9;&#9;&#9;&#9;c0,0-17.6,10.5-29.7,27.3c-8.7,12.1-17.1,17.4-24.7,16C144.7,186.3,123,182.3,123,182.3z"/> <path d="M129.7,202.8c0,0-13.9,8.4-27.9,8.4c-18.3,0.1-37.5-14.8-37.5-14.8s12.7-6.9,28.7-7.3c17-0.1,35,10.1,35,10.1&#10;&#9;&#9;&#9;&#9;&#9;&#9;&#9;&#9;s-33.6-11.9-52.6-1.9C101.8,214.5,129.7,202.8,129.7,202.8z"/> <path d="M87.3,198.2c0,0,20.8,2.4,28,2.2c16.4,0.6,37.5-1.2,47.4-3.4c21-4.8,23.8-15,23.8-15s-2,13.3-22.5,17.1&#10;&#9;&#9;&#9;&#9;&#9;&#9;&#9;&#9;c-17.1,3.1-45.3,2.8-52.6,2.8S87.3,198.2,87.3,198.2z"/> <path d="M185.9,173.6c-7.5,6-17.5,6.7-26.2-0.3c-8.3-6.7-20.9-5.8-20.9-5.8s8.6-6.2,13.3-0.8c5-5.2,10,0.7,10,0.7&#10;&#9;&#9;&#9;&#9;&#9;&#9;&#9;&#9;s7.6-7,14.6,2.2c0,0-15.8-2.6-10.1,5.6c7.2,4.9,16,0.5,30-14.7c4.3-4.7,9.1-8.7,14.2-11.3"/> </g> <g id="layer_18"> <path d="M392.3,161.7c0,0-0.7,10,6.3,11.7c-2.3,6.8,4.3,9,4.3,9s-2.7,10,8.7,12c0,0-10.7-9.7-1-12c7,3,11.3,22,21,25.3&#10;&#9;&#9;&#9;&#9;&#9;&#9;&#9;&#9;c8.5,2.9,17.7,0.3,21.3,1.3c3.7,1,1.6,5.7,3.7,6.3c8,0.3,7-3.7,7-3.7s4.7,4.3,8.7-1.7c9,3.7,15.3,0.7,15.3,0.7&#10;&#9;&#9;&#9;&#9;&#9;&#9;&#9;&#9;s-24.2-8.6-34.3-4.7c-3.9,1.5-14,2.8-22.7-0.9c-8.5-3.6-14.5-21.8-23.6-27.5S392.3,161.7,392.3,161.7z"/> <path d="M439,188c0,0,12-11.4,25.7-14.3c17.9-3.9,39.7,7.3,39.7,7.3s-11.1,9.7-26.7,13.3c-16.7,3.7-35.7,0-35.7,0&#10;&#9;&#9;&#9;&#9;&#9;&#9;&#9;&#9;s34.7,2.1,51.3-12C464,170.3,439,188,439,188z"/> <path d="M482.6,183.3c0,0-14.8,3.9-22,5.7c-11.1,2.7-21.7,5.7-29.3,3.3C417.1,188,414,176,406.2,168&#10;&#9;&#9;&#9;&#9;&#9;&#9;&#9;&#9;c-8.3-8.6-8.3-8.6-20.9-20c0,0,17.6,10.5,29.7,27.3c8.7,12.1,17.1,17.4,24.7,16C461,187.3,482.6,183.3,482.6,183.3z"/> <path d="M476,203.8c0,0,13.9,8.4,27.9,8.4c18.3,0.1,37.5-14.8,37.5-14.8s-12.7-6.9-28.7-7.3c-17-0.1-35,10.1-35,10.1&#10;&#9;&#9;&#9;&#9;&#9;&#9;&#9;&#9;s33.6-11.9,52.6-1.9C503.9,215.5,476,203.8,476,203.8z"/> <path d="M518.3,199.2c0,0-20.8,2.4-28,2.2c-16.4,0.6-37.5-1.2-47.4-3.4c-21-4.8-23.8-15-23.8-15s2,13.3,22.5,17.1&#10;&#9;&#9;&#9;&#9;&#9;&#9;&#9;&#9;c17.1,3.1,45.3,2.8,52.6,2.8C501.6,202.8,518.3,199.2,518.3,199.2z"/> <path d="M419.8,174.6c7.5,6,17.5,6.7,26.2-0.3c8.3-6.7,20.9-5.8,20.9-5.8s-8.6-6.2-13.3-0.8c-5-5.2-10,0.7-10,0.7&#10;&#9;&#9;&#9;&#9;&#9;&#9;&#9;&#9;s-7.6-7-14.6,2.2c0,0,15.8-2.6,10.1,5.6c-7.2,4.9-16,0.5-30-14.7c-4.3-4.7-9.1-8.7-14.2-11.3"/> </g> </g> </g> </g> </g> </g> <g id="layer_19"> eJztvedWM7mTOPzegO/BBgwGHDoHMk7kHE0yNjZgMLZxmLAf/tf+ltRRanVweH67e87OnGGgW10l lUqVVCUlE+dXmd1Gt97MiFkuHksmC/1mbdjtr8Xx0/hBuz0aDPvoUepyOc6rWQ4a7R5oVbPhbbM/ aHU7a3FezwpZHl6W0depn2a71anFr2r/dDvL8dQyvLhuDdtNePXW+qj167VOI/N3s9FodT4yHJ8d /PWxbKEHeMXaEJqqOUHN8UqcF9ZkOX5+ghrUOn/VBoPWf8FrXhE1EZ7lu6MOgpPv/rMWzwhxXYgr vBQXNAVe7rcumwOyBZ8VFVmXFEVQZE3TdfggK+rwj6jpiqRJEnwuZgVZUGWe0zlO5gGWTDQBwMXu 2+in2Rme97tvzcGg0G13+4O1eOHfWid+UvuAN7V4pdlud/+O59u1t+8YkE2ullvtJlDopzaMAw4O PeSFan7UajdORz/1JtCOl1T0WKxikDcDgAVg0e/osVo9+IEnV83hEAYECNGEXO7l3d2Ah/jf1ONl 86OF5w9o+rxsgu13ez+1/vfAaKbwQlxUBePddfOn1wbaY0KJnJKV4zwMXXb/braEgRjkVAUgKQc0 V4S4pErGa4c6zb9azb/X4qfdTtMgwW5/eGXMnyRxnPHTeHM5ajf7N53W0BjW7oFu0OCk22i2ob39 fbld+xhYo+Sdn0aD61r/ozmEae+2R0PMnJqFAWh8XPu3iSYKQ+PVah5I1AE8nSF0t9p6r/5lsHT1 Y7jGq0YzvXrWa3auu7d4KBmJk+OyDHyJOq8BdGAQBfciA5TS7H7xzk8T2W572Ox3gMAWwplCL3Ua VXNBNhtuDDLGgOBbowcWS54DH531WzD8tYymwyQKvMFhe/1Ww2EwmF/N+IFpnAVion94Xhc4XdCj PtHxP6rCyxovCVGeGLSBuR7COKwJE6qFExfzc9mTKxgKjLzQ/UEMN0ACAU0pLIh298N4Z/+O38Dn o55BFmPygTfP+60Oghk7xW+06nl7BK/2+t1R76Dz3o2lDIEIvek348ZLkGv4T+v/2Vqrtxz4dbH5 Dmvf+dx4Wur81Wx3ey6wRrtweOftWqfWj+PnNrjj1l/wpgbjcQCihs3hfQSIwB295tsQw8BNKOgB DVyvwhEdtzoeAPhZrT/8u9v/thG6VFC21guBevXdHL590nDNp1NBvoWBdfsgtxrxs/oX/AFgsCSO X/drb8A5k4E9rw0/QT80O42BDcD405k8NKHGs3CyFmrtduujX+t9tt7i+f5o8Bm/7nbbNmzGexuP +x1+hb6MwDJoffY7Zx1jLF6cZgMaHchx45v/objsb1h44OX/FhwWSUqNFrCkz6oObHP1dw3Wz3Gr HoEBr94wKNZ4yFf2mMzHY4zoP4Lj3596t90a/DigXU/OQZa03trNq38Hw2agoEaT9d7qNKBPV6PW sOmsxO5PD5ml8avPWq+JYVotr2yAMtbpLv2UycSEeL7j0l57/VqjBYoPLOubTqf2AwLqw3y0HPM+ AiUOABqxx9hGjDO1NCdwIgdmB/yrcCqngdGrc7tcnitwRa7ElXkOTAOBF3mJl3mF1/ldPg//Fvgi XxY4eCUIoiAJckxQBFXQBF3YFfJCQSgKJaEsciIvCqIU23JjRDgNvAizg9vCj7Db+O1e8EQ/4L8Y r/Ia0SH0X8nolhujNU6BwikDPoTRwImwGuNGWPG/JlbewhvDqBUTL/rPhRcwcoCzXC6XysVyoZwv 75b1slZWy0pZLktlsSyU+TJXKpdKpWKpUMqXdkt6SSupJaUkl8SSUOJLXLFcLBWLxUIxX9wt6kWt qMaKSlEuSkWxKBT5IlcoF0qFYqFQyBd2CzoeJYGRhZON1cArUZgBd8xBbuJ2YXdjdEbpxmmP1IWV jdfGHCOG7eDG2AGjFE9W831gW85lACNe5uNKXEYP4D2YglXf9/lBjMvC/MuSJsDEy7KuI6OTF8Dg FFRO5yVOVTX0hFcUlQNXRuLB+VOx0atqmiDKgi7xvKpIKjJWjd84Gb8R0RNgdBXA6xyvK5zm4AYw du/++3oA488XbaFiiY1okiQuMGQJPPw/afJ/0uT/pMn/SROGNGF41brxBgWAhv+2m4NY7qjT/buD /4ivxVKP4PfWRu3h83I8dwqiJp6O5a5aPz2ws8wmXPyMmrL7Gjy4hLlQZViMOqw9UYLeopCDouoK kEYWNBRIkfATThB4XZNETZEk9ATGpkicoMs6jFrhTdD3uzErrgR//At/HMIvX/Dobxh8/CT++MzF G/D4/jKGO9GI5QyPez0Wz8Eo4P94vEAaZ7Q+9pxDsvNauwlmKh7heX3GY6KDgZiC9/8V8wQJz99i 53m7s1afxpnYYwDnnk0PLXCDUHIwEPGc8cqwxRGY/898DICohz7Azb5aAcpibViDlZSz/gYmQ3+1 3hA1av1/jb/vT45Pu40m8+V6PPXPT7sDrzPgZPRb9dGwCc58GjXd7fdr/xkQM4DvavX22Wo3+s2O 0UaI5w6AMvZb9GP4L3Ja0NvUYmdQ/avWH6zDsr0C6J0PsulftfbIaoueD3zaIevCaGb2ZED89b+U Op1upxmBMO3u23ezEYUyVsv0f++46i28pcJHGBswx1VzeIoHET4+d+sZTf+UlOADKRFp/K1avd2M wvihs/q/aaGv/RV5qaOm/80cjYb3NhoMuz//vZLsz/Hh2qCGrCmk82CJRWXHP74uoC//g7ry306W n+aw1oApmrYf+pT9mG+YNlEULnc1xh8rvJA1HGXX11e3e3j7Od/9567VGH6abcHLCGy732x9fJqA uXgu3+224ylk9cXfjc3BZj/eHQ3baPto2PzHbCkLkqCZJACzD23/1Lu1fiP+hvaUwZup20MNbfrR b1pUdXeAj1ujjn93QC1DJ6ApDpoHNG0NumiPHfA3sQolucaLnxRe6D0Y651BrwYz/fYvIGw14igj woNUj/dqPaDNoPUzamPzPhoNwRnofluCyd1YcTWugU0dr7VbNUuAUbJaMvsLQ+hTkH5qg2/jkWqN qtFrZW06GK0Gva45k6ISz102a/CsV2s0KGDQBUe67h7Ed0fDbvyyNhg2+zZNQue3bxlUiiyLsn9L foyWLp4JbeuwYoozl0KcY68JtIsPa+K+YtMBg0VLZbffrO3i/VeveUTNDvj/MkqLkA3KnndbyHmv xlM4B8PICiARFFuDXrv270mtb84d2owyRoFswJtO6w1kgtVTx3zjrbk73700qcEL4Hw6eC+b7evu pYET9+G8O2ihzuK3gtUNETFLxI94ipcOBlZnTaf01CtErRaYaOb3KMPInjfLRTRykK5s7uKJZX7e bw6a/b+a8WuQRHhDrVZvtVvDf0ly4ra204lTEuLHtc7HCG0pn3d7jgzJyBxHz5Jrqx0la1SBGjX0 R7nd7fZva53W4BOmAbcn0Xo+RJIVZwfctgYto6NXw9rQHBqKSMZVXeJDO2DDue72XHgxAE0aB0C+ OwQTzA1DUXlzLXACLwPfIqBR4LEooeoylzUSTXRNF8S4JvJKGLTj5rvRuUKz3S79M2yG0tVZRged RvOfq+Zbt2NKDk0S7fHwnKpF6oFDn0m7UG71ByGfYPbx5wa/z2zqTMdDNpgJWcj+3sNBqsrbc65q UjQOQuBYDMT7aM+etfC7fzX7PRRzMvUSCpfai979RR9rqcxfOLUkXq9B398YMsX9yVu71QOtgaz4 f0AXfYDAM7GkHk+ajdboJ+4kvj175TJL7JRt6Fh2DeMu4S1zlvhGeuukOfi0dSs2KFzYTF3NEV+c jYY9MIqCv0kZyaMuRfe9e1AetdtWR82kNnhrIhFURQ2SaHuEvebfLm/rXbeKZja9tBS/QxJmu7Ne 7c2W9pIc2LZce2vudj7azbDWiBfpxppvP5CJAGQEjT10OCryMkJL19KjFjOGf/RWa4dICZTYaVJQ 4wh5HkQit6SL+B0ilvszSdZUKUjiubgliLNwW4djQptG4BjcjuAYQRF4v86igbn6Kmu6xgc0JZk7 oGGEjqJmRD9DhvT+Pmha3OM7UUiTFboja55EX5iooWNvCf7d3Ecpet2O22EUfAZ+bXvC6wjaW7ff aDa8nkw8d9odjvM65RW6OSfYk/vq1rOW+Q9e3Ae1aOim/SZKR24i8P3gluBKtD2amm40+G716qBm vkmfk26GtVet3aYjBZ52YKy6BhEGzhq321/DFjPaOTvs1lHGVBxRl+U+l86vkDbBDuq17eSrstue Rm0MVZMz8jXjeT+lSgK8cnu8PA3yjFboZgNwx8rdzvBqVB8YGcl+aApIaxdMrX0ZQWsT6hpBCNDR pIOOGu8i13wXueaM6AI4X+Al00OygcCYcH4agj+ABe8lnR7vdB0bJ97qYHsEeV8MMmNk/sMn+468 d2/Xw0mEkQRZMXSHmNPO+bVicxtuEsBsYWLCvdkdIC/Qsm5iQMR4POtsMGxnGwZEPC+WuAgRR+gz s70TzovyTa/xg6oyOpE71WtEBm4E4e0vWMKs1+ubzfyxozYmdifwYCoOut3fTjhS1X1bfbr0Cq/5 tWqhtPBsGzRmtJbDrunry7oU3LLvoFdl314abevYCTJpDrwGnNyI1/+NF/ugAfvBk4CgdNwCxovo jaKaf6NPMnrrB6rrMhkCgFHNPJOOW+H4aLAmbDQHrY+OKygqBCmvOsrUDYGIG3bfW7QdzNaGg3pr +FPrRVoT6CtiOryjbvezaD0Gt3jrdmDqhyiwGjAW1NIW73VUumbFapmt+40sGF2o3I0IMDMbvoMi +Oz2/8tkd59WPTOSF8QLGOtHNpD5zDZ/ubxwdqsBcl4sWKHt/goe4+Ct1377118qGW3eOnQshm4z bLVtFeg/Ppindq0XTgezXUDfex8/39lmB22CBcld1GqAcngicS5ubshpZ2FE+QZYfojqRc2eZAWZ Ke1QUxDxSE2TsojdcRhb6ODe+t1eSBNk9rbAVg1p1nflVYUhRfsA9Vp/EDCPzghABrrUS4TGQ9eQ wtq6dIzi2xrXj5LdiNDY7kaEtq5usFbRe2eYbbSDRZ7Rptd/73aC5B1qNgAT3vJCWXM0gIH+1WwH 2BqDbL2FbL2AiR5kO82PmrM949MIWdNgwQ6CuQa1A3XTCYbV5hG0mu1gs+d/kB181sDBbAZQCTVq DlEgsgN9swnBhEa2Ully/p9eloh3ihwLKbTq96lgIQ5Jslp+0C192pla0NkoZs2n087YDA1uCWot ECXaK60RTo1Pw27vLUCq4AaDgBnHDRojf4MGGgxGPcxef3+Cw2YtyGjBYwpSsEnSb/QH4foEt3of dd4COMpoY7p3g4H/VLz9uIygEC2DgdY6HWuPOXWTvcrG75p1cFRrQzCVn1JXd2fnT8vxv4QQD+0H TLoQuw+3MbYHusNPyzfzGYPV8u3n32//qYSGyG2zg7TsKA0epttR8rNKDXOUsYTC9A== hdvPiCDX3c2ZgpQAPho0i923PPqTGTTatT70CRvJzl7HeeufZvu82X9vvlGW19XtXvG6SEp/eIYz lZ0ooSvoU/qpNxuG608FGOAlihYYNZreyIp1vIL3q/OPd2ZsycEvuPB3gBe94SYUuhkNu0fgynvf 3Fu+BoXguPvmMlBcL8/7zbfWwPPmGIZt7ZQfFD3xlavaX80TcLhbvXbTajbYbbevmiiKYUkCYlvJ iKRYFQTxWqdh7jMF7SwZH+GCcVQmiz7C++30RyQmI5Y2Lirjqwi4QshAtfJsoXRqdN6Qp8ln9+/9 VsOJW9NRJafsgMxvR6Mw8t5Rz613sRx67n6CIlW7V4WDA00uNpHAQ1BXt+RXdXX7tp7jcqsnmdXt z6GIfhOkjYs10X5xYf+GX6yL29fDfPFd3/ven7/crBXfucqW/VZY3bxUPhPL4v5mIpNbuowlE6tb 3xuJ5dMHPZH+bMGr1/dsYnW0dpVIn9wXExnuROBym5UURi8nCssX0kAYnEDnit/S9tnrlpjXRE15 UH4eNjKv5a56J3IN5y23X20WYsl+f2uzvpvunR7uHOmDLW1/4y5b7j5It6X+0wNXfChXrsubu5tv /Mqu2jGxiAvjDQ0oZgyu35cS6duXg0RGy2iJ1bfsFRqVhp6VEulqQ04st77bieVhvoWGtuwempS+ RL/loSNPu3gYW/r+wpczoFgSD2mQeF4qCktbc0WqUTY30PaE7fn9F/hzr801FitFaxjHg35/fXDb f2prR1xOujKI6tAJvkzeizsXqRRgaSzymBJnzrz1nwsrO1nxWButbu0lFp2JwEil7uVVxw/pS/+5 +nlFIbXGou1tvsq/Kz2OifRFeTj3Q7o/367nHthINxKPg/nbyjlgYY71YnNpa63weMhCurr+Jm34 IFXm528fTmUKKcKC0UqVB66cV86YSOfKX9pCR1w/ZyHlyu9v+75IFwWpUsKrkjFWqdLg9vb6FfZI y783QuG6juZU6nrmdOlnzUR6vrSEkWIs5qyK/dvcJ0YKLFkvkbP62H8u3p4jpMteVpKepWH2JsNG 2ts/jCUptA5S5ZRbn/dD+tZ/0fh7NtLT0sr8rzI6cZDGkg7awXwvX/ZDur8tdPgHNlJpubK63r45 ZSKdK9fkWJJC657Vo4u8D1JlPilr8rYP0kqVK3evrx2kMBYX2r2FzcXj5ucNE+nehXbrO9LFTCJr zmnp6btMLJq55VhysLSTHiC0K56x7ld/rJWq9mikxwenzybSSiZFjVSVs9kHBynwmHusD3nu+OdC ZSM9mBtpx5U3jYn0rN3c90UaSx5lf3tp9lilx1Xu6vh3xEZ6JL4cl8vbCSbS64PWgYMU5oVEe3Wi XL/6IS1yt9yLzkZ6nJm/blRX1llIQcLcvmwOfMd6m2pWe35IT7i7zHbeB2lp9W5H6xcw0liSHutD +vrFF+nX3PVx3gfpk8I9115XWUiBx+ZOb1rfa8nTNJPALy/3VV+k3eZ26sMP6Qn3WjouYqSIx+i1 esPP3Q8vDlhI+/3TzLyJtC4uU4tmVV8piQbS2txwz0GKrIuNxFp/JBY4hDbtQXq2mfp9Kd3vANLN Pq1p1rqVtIn0W1+hkCbfH+feMdJYUshX+ANSQFxypdPHPYQ04xWFpxlL0xSGNHlLpa+sgXQ7VUo7 SEEm5wby51Jj1ZRK4sJa4YgUhc3VTe30ESHNeZEqybnNyv4+ID1MUEgTQv7sEyNF87J2kaXG+tXd LH0bSLdvjo9JVQ40/vrsYvXG7b+eF9xvheFPQljr1Km3tkYWRosJsfHTY38tLcOi2ZKbfm/7wAwn LZ+32LoobZyVjPcetfywyR3viAJ+6xXwD9vc8eW25Pd2lztuHCn4bSzJeF/gThJ3mt/XJe7s7eDS 722Vuyp8D6m3jg3zmOaubucTPl8/ZrnrnZOU31uZu0n8ZtlvNxIcrJdRQjXfeyXVPnd7k9g03pIL Db095G4/Mtt+b4+5uwV916KY9/0pd6eUCn5fn3MP8+qz39sv7vn+YYV661DsSeWev97TPl8/6dzL zbro93aHqypV3edttQ9jya4cyT7vaylefxVOfN7W5/n84kvZ7+0Vf3Qxd+hLsbcuf/ottHy+bizz la+jRfZb+aVzvb4xfPCjmDA4TywtH2KbKgWeTGqfWNOD3UR2f2fLeEtLPmHYTmxIh1/st9LyE0iY DeHjwu/98+rG+s+l620hs3Jpenwg0bZ6qcb1ar47ODWk19ZmL+lyzUpPzbwpLSnnDEvBfn+bT+7k hkuF8vW2WsHOZfGhtJGFZ1y5kM++FQr53NEqfHbVMz97TbZRb0QDnwvzvLiErfHDH8Pduem1Hx25 mTvROkvgQ96PsLsDwvV9w/ZZ53OtzfoyrMC5Ejg7a+eEsO7PCUub5xnL2Tk7IfQ+QmshlT9XkhuJ LhupVLn3RzpXbuQopKDFbLRc+Tp/4YMUDOOz1knND+lrANK9jE7o/cbi4ryDtD9YWx3YSEUCqbYv 3X8er1tI99oEeedSbqTS1UIs6aDtj175rC9SzG0+SMGbBM/hiY1UqjxiL8mNliDwj+CLFPsOvkiR 59BwkMJYCLRNf6Ta6cW9P1Jkj/iSN5ZEFknVb6wXnlmdX0ub6PFvJp+vBbdDEsZsuR4JovR0HK3d 8rnRDkkLbPMfK2SEiFi65RH46UuPBZP7a5d5bP8ZwsWirLPid/j0DZ+2fzya82LaFGaEqOdeT6+r HQTi0hWK2zpf7KLuIVv+asctmBD6QzmZxD/QdN6RvpiJ4MzuTxF5jmXcyMJ3uG0Gm/ZuzuHPxaT5 o3ZfdIx8KkYHjR+LfOl5sGfEYcwBu7q8VUqaP9InXYM6hs1viWNnBMCBBYKAbrrnc5/NYhI4Gf4H LLnNHQR3ym7i06V0KW38MOnJuwKDjvdqEH0Ugej4hzk+7JMzx3eecMaHdaVnhPaPS7cLxJg/sLFP wuavOkJektl5wyOiQp8GU9mTPOn8oVifMcL11TGJ5c8M62kKlB0hCWJ3NrPvVXrBnOXwlcHJ/pzF vfNzlQiUD6Y70vtA+TA2jbxy1jkW3c15CScWKXqyXY/oqaR7BAJ79AA+lhxnNkpoGHsuEHaXCdGz vIi50m9VVtJD3/6YHQHZjn+YtMNBVwbtSk+31Kp0C272qjQcH8bQtvmj4whDiyWpwRFDy8wHD834 0TzPLm71ljd6bBrvnf/Ekn7qyBnVojEqNrO/lLjm4PsueEAx5mxRvIN1hN0Hkc3ne0eLlK3u5jGY qGJuFoSp+mtpGEtzeJMzecfmZMO/YQKrD3yB+YJyaWRy3fE9z7qrC78RxsxadYTND/0poxDUQcBc VkdLYOudpG2ZxNyWg8a1svA8yuNNJtGIwPtMKPphdt4IYnt5A8ZHykACVDqfwl3CnoWrZ6u+PePe C9lHn0GeXbCsMGd2DYqRUyL9eqbkW+sH67hg0ePWYjCq+4GfYmLajKTF6MzuHiVV8aokFVPk+W3s 8bWFpf0I1pNjXfCsjVVELD0RRqzNeiq4S8gTh04J+Qf9kN0p25rzM+nILs0H6Epn8iIoD6Dn90Kg YTEfYvO7ZzDEpBtj/pAcq1VvZgOMa341b1mg8LyMDYxUKOH9cklLD7D3pd/7mVEsxK4bZ5Dva6mH mVGMkmjjUsyMbFlxmOHWL+W4Cvn7F18hRFvHjm1sSEuytx/7pKIPMmjZCnof7c7sB8oxt4HNtBVg QN9zM1qV+2gP5WgcR3nZZyY/9mNJcWH96Hgq6oS7fbFw6lSzkcMI/mPxFQtjTFOV6bU4HYlF6UqY FAjtCNp9u68KU9PEd9njjsSSXt9w7ZetooZbgwBtx/IM8Zam6SXhIDdmIDu9C3XKCWdDf74OQArU StEREEENwoZ5HnQS44gPvwXydUCZHaTHF9opokvD+agCgMy68Sy5g9kIACz5vw6iC4Dg8Q1Xl1jj g7GMTfQwS4HmWalrS36Sa7dTxSG/kv8qz2B8g0/BsS2jxTp9fHLwePaefn2ZIZYcj1iBS5xFLAwF xZO9xBpziRPEIhd41tRixBL/OSSXuI+TFhpdEhfW5uaiREgCYwk/hwF+njck68pR9DIabwQKwgIB 4SFZpJHX+KUpwyQ/h+L27fWJ79BiUQIc4oL+y00T3jDW/iFgue1OPSBap7pisMFROmKaDkekRI8c 93HrF0QYebwYiE+85pCK1/hz8jw70kCa0ttr50PKlBa3b5IJivhWjmKgMe2dg97RWDEzW8KQTLV9 wwcHAWlL2E8NHmE1aOrKoOBmBEu4d0SqwcnWy/bN5vI0fI45uXdEq7+I0Wg3n69dJEi95xpQLBnM 6STvSBMKABePHXn03QQCAMhCKTrUJTNz2EfV+diyiDqkogvRQwiLZc0yVN0SYJ5fcm3Fwm8FeJb6 CR+za9X5RhXurybcn3CPau/8x7WXFEXfBcSrEDA73hq4XiLEWwFY8OKLJJPRouGnjcWjWVtOUVDY e3zhcFbG6g1zTxzDWZ3JqFw2zFRwMhF6E4ug+TCw7BRKtEdm274uL3tdyvvrqXcYHAkDwCi/a2J1 g/pFbPpE2+PzJWVjUYiyDxUjDNAgiQaui7xMSTR4thbBjJtHOyMhlsT9zdQSDc0LmJVjWfBBEg1A MSSakREx7g4SABtLorEtJRSXFqde+2gjfmUGa9+b/eDLY6FwosiQYCg4P3k9ivgI703O16lHnnh3 ddPiIk9kizFhq0FbQubWIfqRc2wUInZhKDhrqSCfZ4VO6oJnUSYiSs5VAV4d+O49R7TM7m8dIWvp yok3cgFYuJCNRRWzt1GzH1hixl77e5VesDcdwZTGs0YmNflKmFA4vqa9LxRSV9pwpk2BMKDYDnXg znsonKiJRzGmAqOBTRardnShK9K7BIp3b5XWhrW54wg+TYhXjT2++7tZ2PdP/lkLtjUeWRsCsED7 nqULfWKwCNiE9r17Tvk5eRZarDZ3MhMtBnCm1z64AuJk6gwi3Bv/QJ07Fy4cDu+rDYN1IUPC8HOZ 8bVhgC5cS6Fca1obrqXG9CJ8kgAL0JHHoeXvhyRPOWkYvkJoLeXvjmJSxhgL0m/3DZyFCS1db5wf Axt7dfv2C6/twKhCkKwlKaYEz2QsalgVzeVtFCuTtXvq8vjuA0PX/ul0fl1ycQQRtwxfXiwnTcjf VzKUWqIyJ6LEk32dtEqQWnJnroEcY+Su0ePP33/SgeixFhcRh3kvZEN8o6gJUwiUHDAvY+3eIGAh TBw9QiLkK3OL45gYdA6ii5MrOM4WFZjPYq8PWMm3DhY3T4QmRuIu+YeF6cVlzgsVA3Ivi090XEy5 ymRncw5wtdzW2ede+7ZWLc43RqWyvrDzUr7eOi/hCrpYcjY1dKuBFXSuiqGpaujcSVTeCjr3KQHT 1NAFV9A51YLT1dC5kDIq6FyZw1PV0AVX0LmrBaepoQuuoAuoFhyrhi64gs5dLThNDQ== XXAFHVktOHkNXXAFnaHFpq+hC66gQ5w8ixq64Ao6Yyzj1dCRCckBZW92XMDafQuz6/wrsH4jdClC pBc6FZa4fdINNs6NLIIiHcmfOBn2sUhav8IUkd7zpbFyyf33+B6LZIhpAjpZdWV0lY0304xwuYKK 8ALz8Vh7fAHAwvKwfMZH14xEqJyLPD46cjUF0avBZaJGlyJVPoZFrgK61CPt5HGL5saQNS8lVP00 ZfQQOn82DE4FMTyLCMkgpWn25tyWEh7c1PEqGNrTPDU0ZtZNaLHbuKkgDH8fFbuNHTH2DqiYjeYl hRW7RU8F8ZWWQBhGMshEbgji5KgVWlFSsLbqQpcyIXCoOKTyMZrMqgujsAhJ5CLT2lx1LnwimCWm jDq+oBLGsQJnKAYpBER6iTCJT+CMDBwiSzdNhkn2EFlKZHbHFKVp/prNVZUWqQ5MG4aZE2PU8b2M xqo4CajjIywvZh3fijto5V+a1vQtgqFN6ZAc+L2gHPizSzuyHDJ/Zh1fWA589Do+Zoa4u+Z9jDo+ KoIZxgw4I8IfWEiBTdR+YR/51n/PfOxBhp4SMA4w/92LCSgWUn4zHsXEaYCRgV/jeEki0QlXP4VU z0SyZffpmK+3YshZ7NHq5QKkhQ8ANC9hzh5e3XyodP7YZzl7jDzYCM7ecDuk/sOxnR0AZMXQcHtx fBAEgK0BxzgahfRe7Zn2o0lYoZzPDLks2H3PzkiAG+Zba8dcruTaDyVH5PiCX2w8rErOo958LBc0 IIkakCd3lHSvglL5U8U+XRX7PPgYskjuqrEi7UgfTgbVOVbYYtll9YUUyIVIHf+KKDqDaGJ77OvA d8U7Sz0WacUDnSIvV1YeksNjXwfjhXcCKsfIXRxgAdqvjMgC4ZVxRJfsE0GZnRorIhPQJZQRMRt+ CorI2Gd2RevUeBEZyksi47+bQzoig0qSponIODz2czh1REZcWEstsPw4t4SJ6DYcjh+R8fX3fw6n jsjA0KSUf3ZH9DK0iBGZoPOUcBnatBEZVIQmUhWpE0RkDiNEZGLR6vP8IzKRinMsGwZRZ6zynMAs iRxlLFs1ViF1qJGM5SPfBIlxahLXLkIm0dc38ORcids3aoTS0Qjnhh05mbN+Ob2RhrYclT9RfIzN oUcRUxfCysdQ6kKEasHQurpwIRuLUFcXpX40cOHiyseAsFuUBBEXdfxCoCQn+61fKlUPZOQSvY8K z/yZwZXZFb75MHE9HOmLWRVxs66Hm/b8sWj1cGE8Npt6OOMkPboibnw4wfVw0TNUp6mHc9nJroq4 WdfDhZ4IOpN6uIBsKMvUnEE9nPsmI8YynFE9nJEDT1fEzboezqeKc8b1cMG+mN+2zt5tdwaV9UjB heSSR86JBFB8NNsyQk4kABNmsPaB3lcRdqyYZoArE/JmFuYEhuLJDB5/hxfDIZ3n0N6w4jAYztQ1 9hiKuQhdutK1STNWxrPvGcCsHPhIGc9giG+t0Muw9FQIJqCR1xdhGVamOhTWilu+L4WdmhI9NXnp l1454XLMNzV56TdyOam/NV5gpTaMzWi3szkNGMMJO1smgveK4Yy5DJla7HYmy/DWVxf6n6blm2Z9 6zkSOOw0tNXA0xphfJ6sIvRsbIfapyK1Nnfpe4BxVALezbIi9W6WFal3s6lIffqdQUUqP5eZSUUq wJlJRSqCM31FKoIyi4pUVL0Wfgw0ldfnW78FCyTg0NRISUbkjTkgILzLsNqfOq5lSBhXMdzUGT2s Uji3FouS0UMOMqrbHn4W9CxK4ZxVaRbD/ZFSuIn9yrFK4fzPIJplKZyRERFSHjl1KRw+Q/UlWJdE 9M/qA1/BhC1YlzCIVvhEJkiEnwhv35XGmF/6aOGJD1QzKPbL3AAaO4CM+jVk2ncT2DAV+pDh8M0F 32p0VMQWYQsn6HReJMpzWOX51b2GFzdTXaJO+iY5wpUFHZyD6hjseXyyBwOf+1r01OWCmkh/fl2h S9GPY0l0gXg1sXK0zifSxcs7dIH4FbpA/Dqxcr2roN/OUctCInNUlbnc/bdqKqPN7re7y1bEibwu zqjFcvmVRLHbeY5zU5moOxssLXTdl6eSxW6p+sLlt1+FnbT8FFTs9pLxRYov1fZBqszjsij/CruX oGK3hOyPFF2qbSMVvffx+dedbSSeAy5Ru9i5dCGlrotDV037VtjJnys7dys9vxKwSlCx2wdHISXv 43ve96+wS37nbut+SGsBSPe4tcD7+D4O532RJp7mlRs/8qaDKuzmygeL1Kyi5ZrB6PFvViXeqBGp 3dl8k8zp9Ws5d7aZiACxP6p+uw/iRmN2DFE7PmYtXfg6naIUalDsODzl1mPBni/+0InydER1otIe 4x6rnm/giR018b/Haod5VLNvzpV/aU/oHS3ezS9WrG+6m+TILo2oTPtZ3STHmrqIUbjzpblpqiGd SO9jMfzGESKvL+AqM/oKufAo3BiXyPmOL/zet7DLRqKMj3WW2sQlqFHuGYlK9JCbGKKvF+79WHqK RCd3zNP/Ajrb45tZNR3LvRgzDhOhmo7lBzCjcFNV07Fq6cLPhxm3mo4VE4wlZ11Nx6qlQ+tlttV0 LM6JzbyazjdqPdNqOlYiyTgnhESrpgvLUZxNNR1rn4a99zpNNR05p0Ytnf/OyKTVdOy911lX0/nX jMyymi7iOVdTVtO5Eu/tWjrmruhU1XQsZRQjgoSzqKZjdcm1Wz2jajpWLR3jxpwpq+lY82efCTmz ajoWKHOHd4bVdKxaOkbNyJTVdJNSbLxquhCKzaiajlVLNybFIlTTsWrpfGqspqimY1medG319NV0 LIFD3pswi2o61m4J9itnWk1HAlgM814nrKZjzbPvzsjE1XTuGbK2VgL0y4TVdGy/0pccE1bTuYhh m5L+lVyTVtOxBuQ6g8jPKEWdmtIBxPv7awNP8U6qGGpiBBWIWX34OsAOIHFa46SFT6HSgrQuZnFf XYh1MaP76rYYt9WxrItodAq92dbFpDii6H8vXGgxfDQWQGcOh91EuxJt6j79lS0z0z7odrmwK2iZ XfJkd6BORVnOkbpkeZgRJUwAnZToEsbXIxIX9O8c6REd0h6RN/uIDoL53JZFXnQ3Yc2aEy/2y4eJ aJJHvOYuFiViPPU1dzh2EXbRXcRCuhmcnj3VNXfuKk7fi+6ilyn5XHM3ZkRxwmvumBFF+qK7MWuV vNfceU4CZ110N0GyB+gF113sk55zdTTDOove0WxO60bzsnYxdS3PUXAuhp0JGVpIx8o9HDPXGs35 1FfkHPnm/tKZKqEX1PkncUStSsN304Wkt0VLIkO0USNxsu8NW8QGyHLK6yijSjxC0bl9sbH2e1Bo PnJhV0B2OnRUCo6Ij5ENhW3+2WRD4dr/qXkM6B0lESpC5eMMtkIwFMJgZcx+RDjjqDzfzC4EZ6IV 6IECLmx4pXCES9MxMP+zBSPcwE4X1n41U57C2q9m6F5S9MKvr2akK38Z9p03oxuArUQSZi7d5UvK qw4m5Xj3vQZtLYG15s2gvjUOvQ2+JTNK6K/gyRyZrDLlZpY3GN7M7gbDG6qQYcK1f9sdy373r3xc ncaccKAEZnWOA2f6UwIMOJPdVk34LwhOQMrQeLmqsEAYhQxT7PCC7eVdhvCMUcgwQQR+ghvumPWV t1MvQxeo2d1bHXbDXTRrfNob7lyVj8w77sasvPG54W6im/LGrifyuSlv2mVI3XAXeD5/hPqQaDfc xfyB0YW1E91wF/VU872n36kLu9ApzfxcyIkW0Qtr+Tmm3+g+ezB6YS0/N94t6b6Vj80ItRehlY9W dfs051xhOJGiWcE5VxjOdIW1GArWldMX1t4Fngu3g3TlOPXtnuSaSNfluW0YuozJm1yD6rdughUY M67FvvctYBmOWcR0j3eafLUYu4wpqEit7h+8M8/ri+q4A7DPCOmCtNvOXpUA7DvCqoxQxHSPfffZ +JXVfrADT/uVPjppLZUNyGUMNQypqAJ0KrCMaVzDsG7st1JY4Okszm5D9WkN1wHp9E1549a4FrL+ eXaOKKDOgQ+oCJvmaCoPxWZ23WN94GzABtZWR7BhClk1gtaMeFPefTX6LaB+e0n4RrqZXfcIXQo6 uyNyjauzerfkkw4TnzkDx4N+XxguxJJmkd6hXkHVfdfox05i9S17iMr6Cri2Lyse6wv21C1SFDN/ I0rT+gM+2XeQIk4m72GbE9Z0dj3cxtyibz1cf/Sa9S/CAywbwgd959yqcw8b43Y9u0rsIajy74sn /Req9u/99MoX6SJ/WH3zQ9rwLU2LJQfaaf7KNVayNG0w/9n0q4fT9rd+F37skVL1cMuuIjz7rjQX gTcFX6RcWedOfZAq8wuXP8ILC2ksicYaUHA4Vx5I/kj30q+3vkiXmin104lc0WV42SCkx0u+SPuD m60EC2ksadT+7TxnrolZbeoWevybORHLhYfGT5R2L6OfjlvC+LRU5n9fSvdnoRDlT5PvTDWJSmSe dimj08mISP14oirlUd9fRdmKLkLapOGJM/aDHoszuYSgiHytMrljFZYyFHABHWHzsm4xi9qpqImY 3o0ut+SHeSsHn8cT1dItUuFcxs0skSNJj8XQS1CcTMhgOo2TWhVSlbbi616NV5Xml6FJndMbiZ/G zNLyze1B4wvNSY9adQd2d+B6iV51F5LNFhujU/4H3oy5XtYDbqU3euPNjSVda8ZhmPjmr1m4EqXg 42gjxmAr6eE0wS2CYqWn2+BUmKj71qWZ7PJUMvPTx8dKszi3EdUAWqt38nOt8Y16EQOaRnTUtwow 5MDOaDWAkevFwryWUmCWVqT4GJk0wnv3durCb/CYo0qYWnl2PnJdnIsyERHq4GtzJy5h5cm6GfOw KyBWwFH4VoDGqKyPFlX51nr0tTJ0gNHHHjFOoQmtbgPLzUfoRyokc3YSG3vBltsYhWTaiNIf09RY 1UPOOXDCZVha+le3+Z9zEMEad1tKnoDnuKWArvmjthNZ9fuRSzlD77zxzJ9fbs+31g8t1InMDP0I d6VFB+Zbr2rfLzYOsLE5PoBiobU841BsVmeOADDfnctJKBZQkOYpFyZ2eCesAoxqHZJ3pY1bBUiu Sv8aQMapGmNUAZJ98K8BpO5HHrMKMGoNoCn5fV0gPxDj3ajH2BcbowrQR9R5agAD70gNrQIMVy0+ uQpjVQH60NNTAxhUY+VLjrFv1GP7yFGrAKPWAPr6yGc37FFNdCnfhDeyjXkpn29F6kwv5QuJKszo Ur5YdKExxaV8lBz7Q5fyGdHRSW/Ai3opnxWF+7OX8iEeQ536s5fyjX9/5SSX8jGjCqhTTealmth2 NnoTdjaU+1Y/9y1mszgbin2r39iVXD73+k1wNtQE9/r5Dm0GZ0M59/pNk6cU/V6/4Kq7GZwNhe/1 m/5sqCj3+kWqr5z6Xj+HOqxQBoOTJ7rXbyvwVr9YMoLJblPH/16/8Sq5Jr3Xj+YI8g== Vj86U2XSe/2ChxZ4f+UY9/oF3+o39Q0g5r1+wQOKzehev7AM1dnc6xd8EVYsOUbOWcC9fsGr17LG 6fKjce/1C1Z0lD028b1+RIqS51a/KU6gIu71C06dis3oXr/wao5Z3OsXfKvfePfx+d/rN959fJPe 60dCoW/18zmpdex7/fzTyQwss7nXL3hDxZBj09/rF1iegvPGZ1Ul5n+rH133Oum9fsH7NEjvz+Je v+CEa9+K1DHv9fOrAnPtJkxZ9wDAQoRHLHrdQzPoXr/oa3+ae/1sRmPe6jfhfXxjnuLhex/f9HUP rlv9pqrmuPF1vakt4kjZthHu9QtObLXr9+1lONm9fsHneTj38kx3r59dcsUsjHZXDEUvP/Le6xcu x2Zxr1/wrX6zuY8vLEkj6n18Ex+m43ivM7jXz4LC9qXHO73Be69f6FV8/hJmgnv9gootnn4Nv3L6 e/2Y7GXf6jdtVVo0M8e1XznVvX7BZo6rsn6qe/0carOqcCe5j2/8Klyf+/imjWZRt/pNdx9f1Crc gJwrxr1+kxbDmzWJU9/rRyxDz61+GMsM7vWzitnYt/oZcmz6e/2CE52wBTuDe/2C3XaTYjOreWLf 6hc9bklSjL7Xb2K/cqx7/fxkoHGr34yyBwvBt/pRp81PfK9f8K1+sWQE09ApZ5uwIJapkSe41y/4 Vr8Qeyx6QWzgrX6uiOJU9/pNYMNMcK+f70ziDZzI1bUh9/pFybec/l6/YOWAoqO0emgOvTYaPPNX DqZe8GR82IFd04bh3m/WcnRoF54FCPjgxHuybBFXc7j4qUfFsGByzgvOsid2V1c7bhLgMgG7BKo2 1ymY9ARQZAZRtVno97cuWzu54cbhLq/dXQlLW3NF3ATVU+2vXp/X+onk0+piAgWCEksv+5+J7ObX 7ur61q++urF+WVm9bn13uVLpK8eVvjJrXPnoYhckf7nbOub2LvQMd3xwWuWOf94/uLN285O7OhF1 7vqgdcvdDD7fuVtu2OZuXzZH3F3mNsU9pG+Wuef63Bn38nL/zlUvxSH3Kt4vca8nqYt+v1/K9QdP 3fX+iO/cxpL9UVVLDZbURWQSXA5RbedSptXYP9s/1d93bp8fPhIri8n78wVtvZ1Pnl/tHS5+fifn 5vTcaWq+/ZY8kPTFs/rXfXFjxSoETIzSPen0FU8JLj2LJRO75evrJLfQbMDT8y5ThpjzgutLBwNU TnqcyOQrkusKSPMewbU8RSxMKqDY3sWaBOQY/XKvGy/L/f5pZtUZq2ek0vL96oa4tMOV80d5rvz+ dsjtnZ3+DOZflDqqXE2Y+LZ+S6ub2ukjlytXE0ZN4gVXulWr+Jo/LnfWTFPGFrl8iCv7XlM/TrzV NTRH+9h636i0XUwsb5xKiUxu6RZV3BYTC0Utl0gv7+ygZ4eJ1Yu5U1R2e4pebCcyu2IjkT6530+s /M7DSGu/msnTxvWZwiqSmwv8SoFfjyULrVqOR+Oq7qwfJ/p4csol4USD3656fPrjYwt+u/3Fbj2X +57L4q/FBf1nyHGpbA7/iYRiyvztq7kCX+wvG/jel35X8XrZXzUfrKUy6M+M+eexZIIAKTAsvX3/ 6lxOPuB2f7rHg92ju7tnkAJD3ezmlrrsvMAjsF5sAhbXq9pCYdN6Vcg4L4T8w8229eIg57wA2+tj 13pxxtsvXmDCkm0ut7e5gp8BFvTUjXuvkHaauzHvHWSB3ukVUGVPqwBnfll4HnyN4MUlj/8Ut28S 8Of5zooNoIpNRDT75+U0arQCVnYzj6UJEoUaSNNjDQTSGUzt+VkORZbTWPHCnzcY7IoxObnzRzF3 cvUtwrfXQPz5jXn0dhUQZH+4XOU446LYq4XlFSZeecgUc7WNxbWPztJNeaMkfblEpiFQ9+4v3I6r 5b1auvdYt0Tmq4ZmfxYQLamKe7h8qF3o2l55Z6l5XTxobCZMvxLGdc9b/HstrBbTyVE5tX9wICy3 q/Mme1Vqkj3wmpu96mcZRKI0EFXtwJ83OZPt6/ccXz8+WEbzUn/kDas3V38RtvQDoQu/1UTrt4aE QZhT+32JIWaw+oY/73Pmt9+PnPXbi8NtddCfx1v2qvxuiK5XLwmxWq4uPx4Jrye/SXMs3z8Kliti XhO19ebL8nvhUymf5dvavOYK1WyVR22sdo0BGaebGr8bwT8rXsflhvdZG+mbySzDF47f43dS8FuN t35rCE47UNCXML7hl0T1BsbyKQ9vyyvLW+vqbWbupPx6ktSxVhUXqwOVO9xblWGunpXV0u39/u7R PTcfor5Nm+J4jcwfI2NT+OLhlefyCKmRe3TFcAmE4t19Yvn0IWXKzdEavmd4H2Tp9nViudXeSmQ6 F09IluqsgwusPYvcZsUQdrBodlN4yZmuGYhMs0ntF0m5Sh9oLCFipbLwZ3Voseb+EkqB/UXSctWU luieUkJaVrpZBHtJWNpJPOOJR4ZjGh/eA17nxkGudT/MGtGsVnptFRvLIMdKh6zQrrh9e3rkmX30 6gawqH2PcMVLAOSq1eWjNJbYyI5EYznKrW6pt/uF1+/dBiFVjzlOrh+h2MQRD2OxVyC/l/9VYHI+ zuDV6Yo9vmWjwNxgPpClxjN00ZkhQbHcBP/sK9+e65T5/UyZRwB4BzJYffvbl0jOXaxQ8WvDgXBU 69ZmzzF3UcZLed+x6zxW3faHuvZ8fqLv7ivKDkjLfWUjn389nT/FD9YWu8W14nwzfVC6yzcvd96v +UV4K1yV9Xl5q6wvXDYKz4fz++ujDzDps1L/Flb3yp5lBiCtIl2lrHMFcgtoYrPGrbI/hLBbWNhZ K/0+rYmFYnX3uvDyVNo/b/E7v7u53eLBT2tQLrb5vGkuSMWWZcYNTs0jDFy2h4nUuVPYROtFOj8o rbYePnevb+/66029/717NUp8qr/7l8elWm0pW3pozH3iZQZYtJGx4JLd5wIyJnLuE9qDB+zFfCcU s9mNu3J1+MzvrB9+XwYPF8eTnQHrc6tbo8UE5QXihYSCdmi1Hf6YRz2Uq6t4zToyS5lfO74Eajdb +e9U6sLBHEuGkhowb69vLU6Ief1oofgEWPb2Nr93r4vi79hEF4R8hT+IQPIZ8thwKSvt55dIn9SW ls3zzVUkLU1uKz2Vf22Dd13cvh7uFFrlxf7O7dL97053v18pV9P787tnHxvHQAJpofh+MbjEa3GQ eF4qco1kpwircu3CmWePvz8WvaNSO5Z00XvlY5DEro1QfDvbZg19woGDhIk69CkYLZYca+isgYu7 /UTRdvCNSJlnX8xXkFJidGMjM9wojmp7xyBGr47Bjd4+2t2XE30QnsWrfEnY39FL2lu61H9Ze1l/ OO5s7bVv75+gySMXS+7kBr1PPELCTJhusVMcjz0+72KfSsz0CoX891LnqZhVlwZ4BmD2Iy72aWQb UCx8wFPLtlgywoB9hwuM1lvACwnHT7ZuqislFmbjZOMZTbIR9+hktDa11pAWm1KsR1hrgGVasR5B h0fnMUeLj48Ze3yzN1oiaLGpjBYmoc07U0JJPc5wvYyG9UukUU8z5liStbKm5DGPtRZLTixXcOCs 9psNCgwOFeTC6ej0ubcsPm4un0gL5VPjz+WVvJDIPJWukIt3jLy7I3iR6aOA2JURM4Mm6URGy7yQ Hh+HGm8bbp/tLyAeM6NmS8YRX+ZxXicdFHjJGD3jlhc0jhsUO/mz853nclGWX3ev179SxYNH5RBm IzW3s7FdztoR4V9nBnKfyU4f/JfS05NOjzo65tvmzu3R5gHMwXWi9KqcfbLsKHz6HGlObD7MT4pU eKuu7Kw/fVaL2cvXfuF9s1OPaMMgpJQRMbb1hCIkUxiOEeU5WvvRdHdk64lBbbxbPTG9o455Oi02 jqXko0anQ0+QHCzYmdgPwZhjyfH9hPHl60w98cTKS7tnu2Yph+4Te0ljMTvSL3QHJlRqATEAhicu DBfdCw1vexBER2GgivvsL0awMF28FJDWAE3ykNpB+qUtlRPpauMQPeAS6d/enbHNsnoxt440yFli +fVdM2OL1YZoHIX6h/TLpAIAxG3sz7ir0fTLtJhLtdfS907nN/cK6C8roF+iq9Zu+j+qX8bVbFjv hw04cLggYW4XisHBGDNXYYbBGCTUzynNFvNEBsYl+kXxfbE3jwzoOpDgrcoauLnzzjKipjKhyMUF sz/O8pqQxY0cxcnDYNEwx5JjLa8JF5eRpTZLaRIgx6YxHCMM18VjUZbXhGOOJcdaXhMO3MVjUZZX xMWFtuVuf53ggOd+ZPxhIZ/lhNJdvnK6m+5xO7tvF6fl4vaqfLib7q4tFR/Kw+fdfeX1dOf9urde 6j/Xz9a3+VutON8YlYrbKyWxfL2tVpzQH1h9ZPBvmtCfr1UXS8462s4y6MBHnnGcImqEZMzNFYL3 d39YQvaP+8jYijZ8sVnGKVgDd2Xd/AEnxvKhYskJQ5HTxWAnDvt77enx42MTReZszLHkH554l/ca 4kr8yRisr/9Gxsf4yeNjqYXHLIqFnaE/z8fyVVir3NTI9Drnl5rDwqf63Iy4xH9XzUxB+XN1KN2N jOwOYyfflTsadaFtX6487V7ffL1Ekm34Nyuvb61k+KxYwRmppGMq+t1y9bu9Ut5t174ieUn4N4Cz Wh4ktpu3Zh6EFQQdl9uWUoVW4nE5LELisLjBY+i3zMriwTpOixDy97VhBCsaZ9v+yYk3dxL/8MTj abci8H9s4vG0x5J/eOKj7/JMM/F42q2cqz828WPs8U0x8XjasYT5kxOPJxtFev/oxEeyYAMn3jDt ycCZN3/KJZONPG6TYiliBNmum5Vw+Y01tTCC1D6Ru+8pa3NOoqCuGDHSw3dcWnpR7pZdqPCzucLu nL3TdEvc0GMAWHYAgK5cTLdKFIjVwsJ2ybFChZReEZ0R4Gdzc1vbe5Z/2l1xjx7N+Vy5nHQAoHyY OTlHgbi/P9+1QbRSrsoGzHywBFJG2l3paT0jLq4/8uB3FdP83kvWKB7Ez2D+brP4GVhKz4MqyoV7 GliZe9Uh7SDh8aEbj+yrfZ4dtlhdfzs7QUntc9SdP066Lr7LRv5c2blbqblu/7HX9HJq+/EZOirt wQueZOzVjjUvo4STZJ+QBo+L1qpcvkcv5s098dX19s2pm5Uq6Y5Jsfzy0ap1b83+c3bu6wavK+Oy J5TKbvem7dDduITUIEFxcIUjJAYRntxEGD2e2US4J4mwas/q58pjX6xbJFjjXSQoPDReLBJkM1Qu nNoPJcLKAiaC0Zvtwq97NRkHhCISmEjNq3tiSWNKwokgLujfOQOpqJ59myQQRnwEPjCiPTmHte8T 3VzJIEI/X3l0iJCqL1w++fDBcspFxeRG4pViJJPHAkEsB4MIB7ASS04Lws0MfushlgxaEcvpafuQ IVblRCCyEYaBB4FrRZkgctMOg3NLy8mYih+LK1H1Ew0ivTz+6iYBrFAAsJ08HojpJQ== TDrtAyLqbKQzLACYYgRPuHtBg8hGmA1x5yKVMgHUts+oiGJ6WqZKc74ATO81HAQfgZS+CxzbMGnB AqHMO8trMLd3VCBQ5Vacdgsdcf3cunHuRyDb0QzC5rGgUeUmkDoUj+WYLDIGn+eYDII88cgrPjcp gzg8luOmHYa/1InKYzlhmj5gHsuJ4attX9o8KawaIPpbskj0QQiROqZ+CaKEkJ62DxlCI08yG0I2 AkfEkkGzIUQxbliCywbATayRscsFftXOgMvJm2mqyrh8vb32UOq/ZB9295XT/ULt4/ALn295LLur cORC1iiWQqYh5VLyq98quuey8mKVfJ50nPpDswzr7u4VfM02Lr9JW6edmAVNqCLOKmgyy53k7JL1 G59CRY8ps4BIVlewywGDPOjhARk1Tfn7x77RTfOzcg67K0b1E+cqG0ovfdq1qUfL7hf6sGa/WHW/ OF59s19k3C9e1CZ+gbEc5dyveoUP+xuerFpCMvl0xf3sJlW3Gp+m3S8+pIb9Au+/lEdtfn9hhzPq xfYzZbRIT3nDp3OqlhwQ9Y9VRNkLs9rqbUFdM92e9EnXqEZ/y2yipXCRw9EAkPxv2wfIz7swwb5d 3GCwoqvoc7/ax+clLAjLGQmJ7euMuzhye2fdjmdc5tvZj5Xd87f34+LRQeIK++REDBadz8A4RSkv LO+XN4LhBEMx8pQAzsXxpg0nLw/PF5p7zw/ax+7VaKFVemico+V1zTu8KjyPXnZM3q+8iHYFqOQa ZHFbfXNm/84oQBaKFwW02O9yxsFA8BvArj8jI/COt8r67nB5dhf9Jtq/SQaA0vqPAn8+mPCqb3iK H3L2WdDyA2f/5uIs4VV4aVnM8iC6XxS/F6zyzi/ZGsuD4k5YaF8lS2l9+SWW3FnnbheckIkrYGIM yPlhnkJjx1yesw5ScXH5DBH1GX5U7pBr9szbvwnuOj5x8eRDQk8lRn8uyq+3lUJxVVsul0snt5pV U/ojc836moImPisubGy8onrGByS2VG+myp8tsgRdicosV/9skaVVXftniywNOcb/4SLLWNKAzSiy /H9bMVXT5Lgmqmo8dzlqN/tn/dZHqxNPx9Zjud0Dnr/pNLrlfrN53fxnWOy+jX6anWF8LZ7bvSoc HGhysfnWbTTj+Mp6+dXhhozZWTNJz33aCJG9Z4iI4ru+970/f7lZK75zlS06t29Z3N9EuX2XxqXl G3iLLJH+bH2iFL4sKgW+QttixUSGOxEw77GOMnJFnB+Un4eNzGu5q96JXMO9/HCYH3T1Zn033Ts9 3DnSB1va/sZdttx9kG5L/acHrvhQrlyXN3c33zAHeM9LOdb9huuqbIaxULXNqUxtDo3vEP1YRydB nMOoF18Ytc1JT5h7uKNha8E5y4CY/NrCz5NRfb60WZENVZK/r2JOyliy82mA/sxZCxUtQPO3lFGC 3hx849MhVszTH/g5ZDDup60kAlh7iO/3s/aHOVvIP8Hq6uWtFSClXEdENFKpNevF2oprgZVe1jas Fztp9xERuNLeelXOul64VAmsM9cRES70e2vLeM24Me/trBJHRLhw75WdMyhe8EWI8OzYOgtg74xD Oyqr5rkNezcCFnfukwnAksMnPZgS4/wg4xTYjVbMpXJ+nDWOg1javAfj8fySE54HdR5+NNCf9wZY WC+drGkKLGSXTXuucoBnctV9sEXlLGtiGe90AVowOmcLVC5zLHix5OQQbzjXqrzZXCvs3iyuvxY+ 1aPe7vVu5844OyL/uPKCUq4Q/y6/3dt691p0bAj3/NaP064jIoxDEOqXhjWM7lNdNn6rzd0aJ0YA ya+woYsC8PkHcR9nHGMFgn8zp7b+IRvHQRjG+PdNFgWjeZg1bQm/sJVdxn2QyHdNcJ0DgfSAc0TE h2QbCLI9lrpV2T7WcR7o1Ejjh3n4hpM2frzh5sbhYw5rcuj37orxW+npcNX4zdXv4YeInwn5ymqJ 6o3y8LPfLr4nB9dgwmxs30vG0Q9gV8ggTS4M3S8utpKL2BQiZWTBfYQUkNJ9oI593s1YB+ps2HJz 2zgdIv3bO2MfqGOf2GNuj+YWzW0a84IpcKfMhX3WXDEWms0dmLFhQX5m0ErlMAhx+65UM0yPZq2a NaUlOg4CpGWalJY5oZh5xEmd4EnZdk4GOwfYnUIHft3bRt+yee4ceFfsw0blA84z+/gFyFfEyfeV LCVc8VhBtjUecZeRs5Ux/CzDcPnYzBUPN7ocJVXRfkPbMC4yCweftpO0bG4jG57N3vFcFo8QS1M0 vyfYRgT22uliMYokGmeeNoIkqHnUxClnelTKsQPbmCG+/pK0gqPBBzS55Yrn0E5aMLn98s3cl8vd 32ft8yWl0+KFtc/XX6W2Cvv9je0rJ+TAHTylsySAT7OWRLoc4jSlwQ1jT3PevSn6IBxSO5pcaeOs ZG+KXngBjObJTdH9xX33ypKulrCFgDUfsNypgA7URsy3v4p+y9rPcvYzmJf0FToZJtU3XBoulX3w mPyTh3exr2Oc5fXsOrJrY/3n0t5NrODkDmsrjd5NRAttmt1EfKa4SbGxt9IQEejtguB4Fw7AUxEv 6dcmwoubCHiD1yTCg5sE0Bs3CZCTRJLA5GQ3EWobpw4RxMc2r7n282FVZsffVXYd2xNlpyCID3ZG vhuqRuqoa1+ZzQd75w4rPfmxkj8AnKhy1ZkGBD4kNRgATlILBlHpRVgRQQDMI7qnGUa1HwFA4KpE h1pONwx8hqUhLScdxqc/U0VMVdhrJ6KC8JFOtw5LvRgUG3d1n1e6Y4kHGIsHxFNvOglzXqVFlEWx yLNxXu+z++AG8EABMCxYG0RzMFXaxdb555DF2DCW6MP4Hk24uKxrRrbOu4lwSgStjfO+lRslVX4c ANz+SeWNpFjlyeadiqu3XPl5nzgxtlKNwCD3JI/RWT313+mkTqVJM4jNY1HZtPIZziCePlAU+2ay yBjD6IxYpEQ8FnkY/Umljs1jldHcdCv+YX4+XCMLgycHRGLp9vOKSBmsTyV18KVMzd8wSoT04dNH 6lh9MPRLECXq34PpOKLeGTqHnE0muOq/UaQOUyP3TIcUGYnvayndFYVMPa5IqPL5HnnLx7iuwMqi 3ndtL+FDXk0fYrMi2TzmPY92hqfRGseNM8+jXZ3dabTEobPkebQzPI3WhYU+j3aGp9HiiyXZ59HO 8DRa7PGxz6Od4Wm0Mf/zaGd4Gq2xZ8E8j3aGp9Hi1B72ebQzPI3WPtzUex7tDE+jtde+9zzaGZ5G iw/OZ59HO8FptMj/JFMolrCMwPNixG2Xre2K865JxfvvVWuP5GVgSKrW3PmiLakGlnDJGpdPmMtM lpbxXYFmwEteW0WHmy58beFdEmcrBCV8c8ZGCbo+A13mnMXhO5QE/mDsm7DvPdznyI13Y/fd2Eg0 pDyf5jqvdi7EihnXKyR7Zpe3drAoSJk0BsFlH/iaJTMqOCsSaB6obe6MGIkA5l7k5oo1vtNVdyTw BcdcTjM415nf662hXfpTZz+0aW5rgPRy5B3mc3x49s6KdRPA4P9txdYB8wHPV0udhnsbMpZMwpOr 5nDUQw3kar750eoc1/5t9mN83PiXg3/RT1WP84IWF2QZ/pDR0+N6LIXbxvnl+HEnxsV3S7FkNbfb HxZbb8NWt1Pr/xtfQ4/uT45vDorxtbjxQRU+WI+noEtcFVrDq2W0AVqFblYRGPjv/m/0SzM28vzv DP67jHFZVeYETtc4TZR0hdPjXFZRdUWDDgoaL0mahJ9wgsDrmiRqiiShJzrHKxIn6LKuCaJiDA+w IZToDwH98S/8cQi/fMGff8d5Ln4Sf3zm4g3ULcAcFyQ1y+vwj6JLmiAJ8Z+Ywgvex8f4MS/oWZ6D fxSeE2Vegccc+yEDQL4e48w+5j9hTlI3nU7tp9mIf/RrjRZM4bL51pmqjKBlJY2XdaCNqoq6GM9I qgIv8h8xQeCyoqIoggZUUgEt+iTjeSpy0F7TsrwMPeRlQdZg9vM/sXpMiOfz7Dnm4rmDzjCeurrd q1591nrN6397TWNac+6m8dxpd3jZfOv2GzAM9Dqk47nLZq19Uhv2W/9A43iqsHuwZw7++r3b/zFe mQwETNXo1pvV3QMdcdbV8N92s+qgd7EZIth9gyKwEIXAxk+gJoeIocRTy/H7u9hNVNaHfwO53+bJ f6GPf+PeQT/HRyMEoyGg/nesMVhbMZETyGUgaFJWREtA1HQFwf+JibAqNEHndZEHVhQlbxsRHugA RJAkXuIUERYSn1UkEVgYGEiGB54WiLs1N4y3mLeNqMAKgAEDZhgPLAu6J7pIdAR6Qo/H0+ItJshK VlQ5jdc5nVd11dsGqJkVERSRk3lV1rw98bbwjsfTxkMVT0+8lA2dn7dwERUXWGvIEUoa9BP6p2iy qmuiIBlCyfPU6gsvqiJMgnfIIQJKnFpAcf8jBBKbnNOIJPk/II+EMLE3JtR67e37o98ddRqTSzny f39a3gH/wvLhsjLiWViCEi/wWLzJWUEyeRg43ttGhAcC+ltVdQFsg7gg6tALTRNheasaL3pb8LB6 CEsCiTe6jahlVYHnFU7TNEUV4p6e6GpWdb7QNLQEvQ+RRANIsiEiZEVgfCgIYlZx98eD3NvCOwRP Gw8hPD3xEpM1C2+xwdgyAzOYyJGyOy6oepajJpjT6TYCngldlmBESDvxOuOhoGQVQvSC6CnEREEl pZ6gaCRRRCCtgOQkmHUqJ/LQQsCKzbbkREmiYchZza0qAI+kYPJrvKLpkoxIK2VV1EaSVVUR1Th0 itINMocROy0UoDN6jODJKp4u4gsYJ9VVUSAnXVR5ugVHtgDQQAFAI/DwE9QZ1SmgPp5rDjSrKkCn VJo8nES2AIiAVSJMAV2jFCOaLjcUXpPdPK9jPEj98prIc7KkxnlVybo4g8c9B9Q22VVQ44rBK6oG 9FN0GeNRCTySTuKpAGkV/JjsIKY9L/LkLN7CxErex8iyIcjG81JWcqgsIDQi0AE8BYRdFWRR4kEg CBRdeFDSuvs7QAh2CCl4OOOBDMSWRR2tSZ2GYkyJKsuaDE+hhUx22JQwJggOrQwBnhEf8ZxK4hF0 jqQdz2lUC40nuw9EwUtFEWE+TTyq5MYNU8JrGLHCweLkJQ0vONH9Ec/zJJ5KTFA48hHyCCVn/SMj lpoCHpa+7m5xGxNAZJP9FSVqRKZPqYDlx8EP4BSN7L4AzMARdJONMYMvJnA8jxaEINJ4ZGMCJGih KEimwsrV3JzLwxpCVJFkTtFEGSScINEtFC8eDgsze55h9XjxSO5VxOsS/kQGCLyG9KcgEzyK1jdB NoTG+MYmCiwusivQkiQ+sqY9ZCNIIsBaoPFIFPcIgsHpDh56AgWR7okkkmwt0BMIeGSR6q1EM7bC 0eJcxrPuMK2sk6RHSkGixqMolCpTKMYWVJUaj6JiPLKg6KoqS3iJEewmmHLRjQd0Pw== TCTIctKBQS4KsBWpzEJVcMFPu6uh2p3yMASQ6YSeBO0OglLGvQJhDRxOKh8YAdFeBKahIIoezQsc TkgpRHWJ1N8CNVUwd6RuljABFcp7Q2qYo7SfzBn01HkU/AFVIEsUerAEUANOVQRdRDoJtBYJA5iY aIE0G62HYclJBB7T5rD1o4CVs0iqOyQ0iM+QcsZWBS9T/YYpIPStAIxBtdApna1rJIMh4CDbdIGy qFSKjrzGwUOVtM94erIRFUTKBgDSERhFk8edFhLFQ0i/ixQmoDdpR4E0dqAiOwKMRxkrew5/KiqK AGpXwjqEYEDMS0QLHqknpNjJYAhPW0CCYbtJYLlKyFfiOcoevDUWB9EvWFFkzzljfmUJhzZ4rPpJ 5tIN3rbxgJp38Q0wKFL9AtkGqX4yIqQpFIXA5iBMPCSGKBgCyaBI9XvIaYxZ4EUFdBcydlUKCpCA gFLBASCyjUibwZKxKEUdXCNNRmpdIMeDVD89ZrCuiSEiAwKhFsFA1EUR+AYYiZgOwZxlBw90jcBj 6EpynoGpScqJPAUFlgbZQqBhaBQMQ/VLBBRQAqSAEI0JkTQNlAhy7sA4o8ajUC143ovHEBw2x8Hc UVDAgSJ4ElkUpGgRDb42xK1iPKB5RRLJ8VgfGVJcQ4LVmDAHCkwp1ULFiJ3xmKLA5jek+1WStoIs UL1VJLqFhvHA9Gsaj9W4ROFRNA8fmOLN1cYAC/awImvIq6YkCWh8PD4HjaZQhAV9Sg9Ht/QpocOx 245iFKEqeWJtf0PGuiaNc80yyGWAFGccOntr9d/azWoDhThrqM3UEbQ/HjpTKQ2IzHOCDcwdOFEh meE4dsUmhxTCDObQwFFB3Gj6NiQ268VM8CFrQjbkF4lI1GQq+CeIVEBD94QHBfIBKGKdjuYIEtlG 4mizTxDJBxLPUYY2jacQk8AqI5enIJLumiRIlO0qUK49uGRUTxh4YKKp3koUHrCRZPyYcxNLkvnw QcgqTXKqz5LCGCbxQAIBRnGsF48559SOiqRhngOyENMs6VQkiAFRhkkksfIqSSeZFykhbbqxNuEq AEWnFaJEThE8p8wrQaNZDhw+yqgRqP7KokT3hWoBfQHTiCfbUI5sOBToiyRRtPPQBbweh3CywqSL LNN9odrIpi5WwRMUeBz31km2hL4ohoGvoz04pEYFgQKiCpQyFlRqyKap6qBhsAJoY6RrNRi7LvAG E5NQdMPIJFoQnCjrtDnlxaNwhs3iEI7Go/D0FAoqydoVP6kZprL5eDGGvTpytTKEqEDFUAQ6Wov8 A6IFS4h6Ij4eIcrReGghytGCmCVEeVpEeoQoR8V7PEIUOYCB40FC1EMVjxDlvZKQlKeSGj4eMFo5 Gg8lTxkjJuWpoobLbbASPL2lRKtAt6ClrKZlmXwOPE51wCNCPPs8LNFKa3OvaPVEQBiiVWBJU452 y7zSlPbqGdI0DAqSpkYAhh6/pNPSgiFCOboDHhEqUoKYIUJlnZZctAxVNK/MoWQoLbcYc25uFbnE OT1bGi2JvTKU9opYMpSj55wnaYvMTQ9VZiNDOZChHMugRrxB8fPsrGuGSQ1DmqFBzbH0ALbZBZ0U YebWJ8frMI1gfLFY3sykcbWhFYhgGOG6Logqp6BIEC36BdkduNaYdq3IuyO9ms4Q/eYeqx1r9Yp+ xR1iVNnWgUC3oUU/SGSMRgTnTdFV0Sv6FSV8PCoxnSpD9GusERPTphFbk+yVqovuALTEsKpRNM9D N2IF4c1AJx6jsvCg/U8yrE1LQU9iJ0MKgnCk+kJrARQRJMLeDC3Ag3KmpAbVX7SRR/XFoxLQdiDl qFAqIRwK9EWhtxU8dFHwjgSDGGZM1Z9gvErF4xkqgVcpeehRCbymkqLFoxJQ3J9ILWAxgE6nX9Aq QeDoPTKaFQVeoPa1vHgEnqFtBE9KyEwtaQ5zGSUyM4JX1pmuLahxUZN4tsS0XFuSIRWDkyypwhCS Bk+7l4aXNqpHBFJCUlRYFjERUWT6z7AWqDa0WJSNuIMl5hWGWCSZlclFikbkH/FesaiSmeACQyyS CpRpWGjGTrErp4DmRTOPwt3CIxbFLKnYGKvCE/bxikU65YglFjmiMwyxKFA5YSyxKBqsR8tCie4i SxbSK9UjC0OhQAdkllpQPIa/d/ye3XWPJATGIdiRKQllMoWIIQlFWlbSklBTyU+YklCkfTaPJBS8 QUdygJxGLh6mJFToOefp2J9KUUXkZiQWg/cE6DB48T+RNS/y9GYwR8tszvtwYjsarTAKn8TCJ80M H6XjcDaSW1v+4Mx24hEv04kX5q6r0wIWLmFQ3cYQ8xH5AWh7lDS6OCoBBbUgPzGTj5ysVRoPLBQ6 kRX1lsodpDwtMIbJjUBepfIGWHgUzdtbEg9K8SFpS2cWyHQWLgOPpNLUN6xvp7eiZ8RUlguyb2Um cMuisTb+0KfkqHiNbkFnZ/ACmS/DwsPh9EgzkGC/0HmzW4RhXYnpMqWweUkkZ0ijFTbKyKQ4TtUo lQ1vyDY4tcXT3UoMZaUA2QmM7La3MYWjPCrPKGWeMnMYI5Y571PJtH1VlYdZwLKAyqW9jaHMBUwH XpNFDtkPMhV7N9ObHJMDrXBy29tMNXHh8UygQJtZVnKDM2xDHekqCFYd9K+XlQzbQUflJIBJ55l4 jIlXZYGTJEXVvHgypqcsaMCAoJBlr8c0sf5B1hi11rzSUBAwK/PkJKO4GEvqmdF4YslTUk/KyixR R/kGrFVFlTKxRB2VbM0QdZqPaFAFs18kRIWWLV6hpob3XBYYckzyDMcjx9RweYly/ugOkiJNIJcE S6QplNBjiTRaF3mkm0yvGYak0+nVSUs6ndxBlViSThPddp2iMCSdxOgLLfUUj0ylZWAoFJCHEi27 PfJQJkovRKY8lDx9odrIpoMpKbIuCSiPmiEdDadUF0EBouA1QzoqhLcle6WjuWvjxuOVWopH09DS UaNn0cuV2KoGHGBoyxKT58zkTHgki4oqiXieibWW4WcoDiOa43/aBsdV3V6zW1SlENN8YqsY7aGS OfpeK1xUGcb5FBgFRlUAqXkUjo7v0HY4MKrXDafWp2wqDadagtZIskblpniUk+xJ7fXyqkznFnuU E9qaJ5NeaeUkyxrVEwYeWfD2lsQjSTRtKZUl0zVcLDy0r+zRX7LgGTGlv2SeKT5k7+RTwkHmPGYE pbIkXQnVupLGsMFxXbBXAEsaJUU8ignl3HhqpShmk+jkVY9ikmSmBS7JCjZLKAXEbA1o6HXoHaUo e5O66SGLEssdQfv2pFnCUDQojOfVLhKvercIyAHxQvi0cXS8iNYuoq5RdTw0A4k6vUq8eERN9bIh iQenUPF0JeJUYXAA4qWRR/KpXotb4ZhOLZJwdGWaV8KxhBqdJM0UaiotsjxCTSe3wr1CzQe0rLJE l+YVOqTokoTwXouKacpT8sozGFpeCXTZJUt4Kd4uUsJLpYouaOEl07UMTOFF6xzPGtc4b289Yk2i C0A8Yk2mqMISaypVmOAVa2EaEvqicLQA9Yi7MChI9um0avDIPiqznyn7NLovHjFIRwpZYlD36nwS Ci4bZohBuiCWwQA873UPSSgcLUy9YlBlSz7a2ZY95U50+ZGk/Ues7JuJ09hnnxkvz/xQiU5jlnnx 3u2Bs1m7JjVqe4CnGAxVwBAPUPgc7bxQjwWk0XQqPoyC5PRBMzqVoYN2eciwg05t6FcAikytFI1q wyOZpWpe9HRMQ6OD3CjeRmO8jaFcLLSLRSLR6Oi2Qm9uqBLeqqOqAtEjQKMI5DpF1VJkZ3CUkaaH gk7JQUKb2OrisX7jqYcyPTwcI6CCTCgGz+PHlBmIkFEyqYI3RKl9AZXCKtKuvyKSLYCgAr0DIdNF +8iXUAQPeonKquBVI2ZPYVQ9GGVq4w/PAklCD/1ph1SVMWgi/oO2ZLClZlaoO/Bw2TH6SVqmOs0l ukxuOL7FUAE5mYzDUUcshK/MSux9cqsV0YJaKTKsdaTvqNWp0FzD44VPdAXNt0hWYKFyWnI6aBEC ogHNt2f3RaPnWtCMte6Gdot338mu4smjlyz9Icob0PFZAuRc8rSTpHNejDyVWOSRZSyqTj5Pgoi5 i4D4gxcoGSDW6Ki/hNhSshYFKdPoWfB0WaVlimczUeM8AgbnQaPR8jq94awbmoLaNMDFe55VwNOF W+EtBLrqXzBA00lguPDeI/pRghY9zRrlqCH6ksyiYnmg0du9ikx/yHslsUdDydQD1qxPzEPIjEBp MBSbUhuuPzglh9xTUCgvFq3f4BY4ji/j5wQ6U8q64uWqTKt81RPHRjUYcV3EvxBUhRniOaycHbGh 6aaYoKyNSkyX6O1NjZoBVaZbUNsECCPn2ZTBkYRQyk48cRqhhdFGIn30A0waXR7PmwcRORzIy/Ri 5j22j8jTEsDQuOSAadIi3U36Sqps6krqMZ19gQrWCHrrHBLLmkTv7NGSSZGoKVcpfwnJaIVagwqt nnnaU1Q5yr4xq8DBEtAkRdG8Ld7w7hlRye9pEz6BkysGjdo18Zw3Bbyh0kct6bSGUzwtaEaQafbW NY9A81RIeox3UaNdACSKKzgzhNQKPEd3gD5PkpM9loes0sk8nGl9U59KtNDBvEFqF1p5maVzLjtN oAMYSN6RW+mcTPGpQocedIUWnR7uQLNBaRPBC4WyqOiEXx5FK5A2pLvoyZLjZDo7nDo4DZGVSoim JEIhVv6D+3T8f8QhRnFmMvGS52iHGBX2kYVwdOIXimeTEVzaJzBqrEnnQ6d0jBUOcna6NJ1mYVRC iKbJPs4KiVuiDQo7kX2hQ0G3GAqFiXICUTU3CYXuC0Dh6bi1RvEjip6ReBSqL5JI95Y+AqcQkySO ivMrlNpDMUUqk1yKSzJNTnxQBd6pIaEJ0JY+TE2mCeL5TFZo2SgpkrcNWWGoiDRyjvaIJcUTQ1eo qkqV3tpTBNo9ljSehkKJf0mjp88bHED9JTdfVS6OCjYp9IoHPX3gIK9QmT0oyktBocBKIs2DiueI RJgrijdUKrlX4qnSXV7TvEW3rokUcNom5cCLZmGHc1QbR+V+h0uSqYx6IBf28X6AgXkcYqAYiwpc ew6vQiwh0N4WFXuRzeOWXAdb4mC7Tp9TRXuV6KwCysjy+FmSwuMAmiQJ3teAhFa9yGugjjig+Y52 mxASI3hJPLZoN/EEeCiHeIhy09EeC7lroVFJxmj/hA44mkuF4V2iHQ7S6FNpkSRSR5phXUCJJM9G BWIWHhl/CmZ8+qxTtLug08c38NTwI7TQ6DORBAlvDQv0h8iFROeCkLazrnhm1sxWcB0S5ZEoArWV qeo0xXQahie0gdmU9hnDGWCq6BzOaUA1yRRLoSOuCBaQKd8K5VkEt8Dl4Iw8b2LZS/R5tnSqklEb Ti5PDdmaKBXE85hy3yVdptsIpMHMEB887TvJPM3tdLgeFadT4V2R5iIGwdBeM3MCJg== nlKZpzU47UzD3Oo4oKBylCVDn9bjqX+8xQcZUJKBw9YO6ffSJAS5S3+Gl6TA048p/03i6R1bDZVD SQK9Ca5SoS10PgTlXvG0Ay/JNF8ptHrW6EwhhdorkXQ6jZhugQ5ooPtCh27CZ21y/cF79gxU2oGX BDr3hsqkBenlacHRBGdEOJHJS+17IN+YMh8oGgs4WaWCp4f6lBIeEp3hgYFTloenihidIQTd9Xwq ehwe0fDwKb9Cx1qekVal0uMkBQ19xDgypCh5KdGHsPI65U0jVeSBQioaji7zxkEKpACpkwDRQaUE G8KY8GnC5DnnOl0fKfD/EWd84u18afbb+dKMt/Pbzdp7tdEctD7G2Mo/zhtXYZU6DdyrTCaWTJ7X PprX/Vqr3ezHPga1v5rxWqfTHdaGzR68iX/0m4Nht9+MDz67f6Mn8InVPJksnZVj/z8j3L0x </g> </svg>