<svg version="1.1" id="Layer_1" xmlns="http://www.w3.org/2000/svg" xmlns:xlink="http://www.w3.org/1999/xlink" x="0px" y="0px" viewBox="0 0 759 439" enable-background="new 0 0 759 439" xml:space="preserve">
	<g id="band">
	<path id="background" fill-rule="evenodd" clip-rule="evenodd" fill="#231F20" d="M379.5,346.1c-19.2,0-37.8-9.8-52.7-27.6
		c-3.1,1.2-6.4,1.9-9.7,1.9c-12.7,0-23.2-9-23.6-20.3c-2.1,0.5-4.2,0.7-6.4,0.7c-14.6,0-26.5-10.2-27.2-23l-260.3,0V161.3l260.6,0
		c1.9-11.9,13.3-20.9,27-20.9c2.2,0,4.3,0.2,6.4,0.7c0.5-11.3,10.9-20.3,23.6-20.3c2.9,0,5.7,0.5,8.4,1.4
		c15.1-18.9,34.2-29.3,54-29.3c19.7,0,38.8,10.3,53.9,29.1c2.5-0.8,5.2-1.2,7.9-1.2c12.8,0,23.3,9.1,23.6,20.4
		c2.3-0.5,4.6-0.8,7.1-0.8c13.7,0,25.1,9,27,20.9l260.6,0v116.4l-260.3,0c-0.7,12.8-12.7,23-27.2,23c-2.4,0-4.8-0.3-7.1-0.8
		c-0.4,11.3-10.8,20.4-23.6,20.4c-3.2,0-6.3-0.6-9.3-1.7C417.2,336.4,398.6,346.1,379.5,346.1z"/>
	<g id="blue">
		<path fill-rule="evenodd" clip-rule="evenodd" fill="#00ADEE" d="M169.5,176.3c-0.7-0.9-9.9-7.2-10.9-7.2h-3.3
			c-3.3,0-4.1-2.2-6.1-3c-0.5-0.2-1.2-0.5-2-0.9c-2.4,0.5-4.9,1-7.4,1.2c-0.2,1-0.6,2.2-1.4,2.2c-1.1,0,0.1-1-3.3-1
			c0.2,2.5,1.4,2.2,2.7,4.1l-0.5,1.6c1.8,1.9,3.3,2.3,4.4,3.6l3.8,0.3l0.6,3.8c1.2,0.3,1.2,0.5,2.7,0.5h0.5c2.1,0,6-2.5,6-3.6
			c0-0.1-3.4-3.8-3.8-4.1l-2.2-0.6l-0.6-2.5v-1l5.4,2.3c0.1,3.2,1.6,4.9,5,4.9h3.3c2.7,0,8.2,1.6,9.3,3.1c-1.2,0.3-2.2,0.5-2.2,2.1
			c0,0.7,0.7,1,1.6,1c1.3,0,1.1-1.4,1.1-2.6c3.7,0.3,12.7,3.6,13.1,3.6c1.3,0,1.1-1.4,1.1-2.6C181,181.3,175.9,176.4,169.5,176.3z"/>
		<path fill-rule="evenodd" clip-rule="evenodd" fill="#00ADEE" d="M70.7,170.4h2l-0.5-1.9h-3.6c-0.4-1.5-2.7-2.4-3.3-5
			c-2.1,0-4.2-0.1-6.2-0.4c0,0.2-0.1,0.5-0.1,0.8l-3,0.6l-1.1,1.2l-2,0.1l-0.5,1.4c-3.7-0.8-2.4-2.5-5.6-2.8l8.7-3H43.7
			c-0.7,0-2,0.3-2.6,0c-5.1,0-3.3-0.2-8.3,0c-1.9,0.1-6.3,0.1-8.4,0c-3.9,0-6.8,0.1-10.6,0c-3-0.1-10.7,0.1-13.9,0
			c0,4.8,0,6.6,0,9.8c0,2,0,4.2,0,5.2c1.5,0.7,3.2-1.9,4-0.9h2c0.5,0.7,0.7,1.4,2,1.4h1.5l1-2.3l1.5,0.6l1.7-1.4l1.9-0.1
			c0-2.8-1.8-4.3-3-6.5c2.5,0,4.6,1.3,4.6-0.9c0-0.8-2-3.8-2.5-4.6c3.2,0.7,6.7,5.2,12.7,6.5v0.9h-1v2.3c0,0.9,0.2,0.8,0.5,1.4
			l-4.1-0.7c-0.9,0.4-0.8,0.7-2,0.7c-1,0-0.3-0.9-2-0.9c-0.7,0-1,0.6-1,1.4v0.5c0,2,1,1.7,1,3.7v0.9c0,1.9,2.1,1.5,3.1,3.6
			c0.9,2,1.3,1.8,4,2.4c-0.4,1.5-1.5,2.7-1.5,3.7c0,1.7,0.3,0.9,0.5,2.8l5.1,1.9l2.3-2.1l1.3-0.2l0.4-3.3c-0.8-1.5-1.4-2.3-3.5-2.8
			v-0.9c1-0.3,3-1.3,3-2.3c0-0.9-0.2-0.8-0.5-1.4c1-1.9-0.2-2.1,2.5-2.3V176h-3v-1.9l-2.7-1.7l0.4-2.9c1.7,0.1,5.6,3.2,9.8,3.2
			c1.9,0,1.2-0.4,3.6-0.5c1.6-2.7,0.1-2.3,3-3.7c1.2,0.3,1.5,0.5,3,0.5h2l-0.9,2.8l0.3,1.3c-1.1-0.3-1.1-0.5-2.5-0.5
			c-1.3,0-3,1-3,2.3c0,3.9-2.2,4.1,2.5,5.1c1.1-0.2,1.2-0.5,2.5-0.5h1l1.8-3.1c1.7,1.2,0.5,0.7,0.2,3.1c2.9-0.2,1.9-1.4,3-1.4
			c0.9,0,0.8,0.7,1,1.4l4.6,0.5c0,1.5-0.2,2.3,1.5,2.3c0.7,0,1-0.6,1-1.4c0-0.8-1.2-0.8-2-1.4h1.5l4-2.4l0.1-0.8V175l1.8-1.2
			l1.3-0.2v-2.3h-2L70.7,170.4z"/>
		<path fill-rule="evenodd" clip-rule="evenodd" fill="#00ADEE" d="M63.3,220.4h-1.9c0.1-3,1-1.4,1-3.1v-1.3h-1.5
			c-1.3,0-1.4,0.6-1.9,1.3l-0.9,0.5l-0.5-1.4h-1v-0.9l-4.8-0.5c-0.9,0-2.7,3-4.9,3.2l0.9-0.5l-0.8-3.1c0.5-0.4,3.3-1.8,3.3-2.6
			c0-0.6-0.7-0.9-1.5-0.9c-1,0-0.7,1.3-2.4,1.3c-0.4,0-1-0.5-1-0.9c0-0.9,0.8,0.2,1-2.2c-1.5,0.1-1.7,0.4-3.4,0.4h-5.3v-1.3
			c0-1.5-0.9-1.3-2.4-1.3c-0.1-1.6-3.2-6.6-4.8-6.6c-0.7,0-1,0.6-1,1.3v0.4c0,1.6,2.8,2.8,3.4,5.3c-0.5,0.3-2.2,0.9-2.5,1.2
			c-0.8,0.9-0.1,1.9-1.8,1.9h-1.5c-0.9-2.1-1.9,0-1.9-2.2c0-1.6,1.4-2.7,2.9-3.1v-2.2H26c-0.9,1.6-0.5,2.2-2.4,2.7v-4.4
			c0-2.1,2.1-1,2.4-3.5h-3.4c-1.2-2-3.4-3.7-3.4-7.5c0-1-2-5.1-4.4-5.3c-0.5,1.2-1,1.2-2.9,1.3c-0.3,1.2-1,1.8-1,2.7
			c0,1,1.1,2.8,1.5,4h2.9c1.6,0,0.4,0.4,2.4,0.9l0.6,3.5l-2,0.5c-1.2-0.3-1.5-0.5-2.9-0.5c-2.4,0-3,0.9-4.4,1.8v0.9H8l-2.9,0.8l0,1
			v1.3h2.4v1.8l1.4,0.5l0,2.6h1l-1.3,2.3c0.8,1.6,0.2,1.3,1.8,2.6H8.5L8,210.6l-3-1.2c0.7-1.3,0.6,0.2,0.6-1.5v-0.4
			c0-0.9-3.2-3-4.4-3.1v-1.8c0-1.3-0.2-0.8-1-1.3c0-1.5,0.3-3.9-0.5-5.5c0,0.4,0,3.7,0,4c0,10.4,0,18.2,0,28.5c0,0.2,0,3.2,0,3.4
			c0.2,0.7,0,5.2,0,5.9c0.2,3.9-0.2,3.1,0,7c0,0.6,0,0.9,0,1.6c0.1,0.6-0.2,3-0.1,3.6c0.1,1.1,0,10.8,0.1,11.9
			c0.3-0.6,0.8-8.9,1.5-8.9l1.2-1c2.2,0,0.5,0,2.1,1.1c0,1.4,2.2,4.2,2.9,5.6c1.1,2.1,4.5,4.5-1.5,4.9v1.8h-1v3.1l-3.9-0.6l0,1.9
			h1.9c1.7,0,0.7,0.8,2.9,1.3l-0.5,1.8l0.6,1.8c-1.8,0.4-2.4,0.9-2.5,2.7c3.4-0.3,1.4-2,4.9-2.2l-0.6,1.8l1.6,0
			c1.1,0,1.1,0.3,1.4,0.6c1.2,0,2.3,0,3.5,0c0.1-0.1,0.3-0.1,0.5-0.2l0.4,0.2c0.4,0,0.8,0,1.2,0l2.6-0.9l0.1,0.9c0.3,0,0.6,0,1,0
			l1-0.2c0,0.1,0.1,0.1,0.1,0.2c1,0,2,0,2.9,0c-0.3-0.5-0.5-1-0.7-1.6c2,0.4,1.9,0,2.4,1.3h1c-0.1-1.4-0.3-3.1-1.9-3.1h-1.5
			c-1.1,0-1.5-0.3-1.5-1.3v-1.3l2.4,1.4l2,0c0,0,0,0,0,0l1,0.4v0.9l2.3,2.4l2,1c1,0,2.1,0,3.1,0c-1.4-1.8-5.4-2.4-5.5-5.7h2.4
			c0.1-1.2,0-1.8,1.5-1.8h1l0.6,1.3l1.4,0c0.2-1,0.5-1,0.5-2.2c0-0.8-1-0.3-1-1.8c0-0.9,0.2-0.6,0.5-1.8l6.3,1
			c-0.3-2.8-1.6-1-3.9-2.8c0.9-0.1,1.9,0,1.9-0.9c0-0.6-0.7-0.9-1.5-0.9h-2.4c0.4-1.3,2.9-2.3,4.4-2.7c-0.5-1.6,0-1.2-1.9-1.3v0.9
			h-1.9c-1.7,0-2.6-1.8-2.9-3.1h-1.9l-2.8-1.5l-0.1-1.6h-1.5v1.3l-1.5-0.4c-0.8,0.3-0.7,0.4-1.9,0.4h-1.5c0.6-1.2,0.5,0.4,0.5-1.3
			v-1.8l-1.9-0.9l-1,0.5l0,2.1c0,1.7,0.7,0.1,1,2.7l-2.4,1.4l-4.9-0.6c-0.5-1.5-0.1-1.1-2-1.2v2.2h1v0.9c-2.4-0.2-1.2-0.4-2.3-2.3
			c-0.5-0.9-1.6-1.6-1.6-2.6V250c0-1.5,1-0.7,1-2.2v-1.3H8.5l0.5-4l0.9-0.5l0-0.8l0-0.9l1-1.8l2,0.1l-2,2.1v1.3l0.6,0.4
			c-1.2,1.5-0.9,0.4-2,2.3L11,246l1.9-0.9l0-1.7l1.9-0.9l0-0.9v-0.4c0-1.3,0.2-1.6,0.5-2.7c-1.3-1.8-1.7-0.7-2.4-2.7
			c-0.4-1.3-0.9-2.7-1-3.9h2.4l0.3-1c0.4,0.6,4,5.8,4.6,5.8c0.7,0,1-0.6,1-1.3c0-1.3-6.3-9.6-6.3-11.1c0-0.8,0.7-0.7,1.5-0.9v0.9
			l5.3-0.5l1.5,0.1V223h1.5c2.5,0,0.4,2.2,2.9,2.2c1.1,0,1.5-0.3,1.5-1.3c0-1.3-0.8-1.5-1.9-1.8c0.6-0.7,0.1-0.9,1.5-0.9h0.5
			c0.8,0,1.5-0.3,1.5-0.9c0-0.9-1.6-1-2.4-1.3l1.4-1c0.3-1.9,0.5-1.3,2-2.1l-1-1.8l-0.9,0h-1.9c0.1-1.3,0-1.8,1.5-1.8h0.5
			c3.2,0,2.6-2.2,5.8-2.2c0.7,0,1,0.6,1,1.3v0.4c0,1.4-1.5,1.5-1.5,3.1c0,1.7,0.3,0.8,0.5,2.7l-3.4,0.8l0,1c0,1,0.1,1.1,0.5,1.8
			l-0.6,2.2l-1.5,1.3l0.7,3.2l-0.5-0.2l-1.2,1.9l0.6,1.3c1,0.2,3.7,0.9,4.8,0.9c1.1,0,2.4-1.2,2.4-2.2c0-0.9-0.7-1.4-1-2.7
			c4.3-0.1,2.5-2,5.3-2.7v-2.2c1.8-0.4,3.9-1,4.4-2.7c1.1,0.1,2.4,0.4,2.4,1.3c0,0.2-0.7,1-1,1.3c0.5,0.9,0.4,0.5,0.5,1.8l0.2,1.8
			c3.6,0,3,1.3,5.6,1.3h0.5c1.3,0,1.3,0.2,2.4,0.4l3.2-3.7l0.7-2.2c1,1.3,0.9-0.3,0.9,1.4v1.3l1.5,0.2c1.2-0.3,2.9-0.3,2.9-2
			C64.7,221.5,64,221.3,63.3,220.4z"/>
		<path fill-rule="evenodd" clip-rule="evenodd" fill="#00ADEE" d="M308.4,133.7c-0.2-2,0.3-1.6-1.6-2.1v-1.3
			c-0.8,0.2-1.6,0.4-2.5,0.6C305,132.7,306.2,133.6,308.4,133.7z"/>
		<path fill-rule="evenodd" clip-rule="evenodd" fill="#00ADEE" d="M164.1,213.2h2.2v-1.5c0-1.4-1.3-2-2.2-2.6l1.9-4l-2.5-0.1
			l-0.6,2.6c-5.6-0.1-4.3-3.5-6.9-4.8c-3.8-2-3.8-2-8.1-3.7c-0.9-0.4-15.1-10-15.1-4.8c0,2,8.9,5.7,10.9,6.7
			c-0.3,1.1-0.5,1.2-0.5,2.6v1c0,1.6,1,3,1.6,4.1h1.1c1.5,0,1.5,0.2,2.7,0.5l4.9-1.6c3.1,0.7,5.3,0.4,6,3.2h-3.3c-1.9,0-0.8,1-2.7,1
			h-2.7v1.5c0,2.8-1.1,2.8-1.1,5.6v1c0,1.5,0.2,0.9,1.1,1.5v2.1h1.1v1h2.2v3.6c-3-0.2-24.3-13.9-25.2-16.9c-4.4-0.1-8.7-6.2-12-6.2
			c-0.8,0-1.1,0.7-1.1,1.5v1c1.4,0.7,7.4,5.4,9.6,6.9c3.5,2.4,6.4,3.9,10,6.1c1.7,1.1,3.4,2,5,3c1.7,1,2.5,2.1,4.7,3.3
			c3,1.6,8.2,3.9,9,6.9l3.8,0.6c0.7-1.3,0.5,0.5,0.5-1.5v-0.5c0-1.6-0.9-1.7-2.2-2.1l0.6-4.1l2.1,0.6c1.7-1.2,3.4-2,4.4-3.7
			c1.3-2,3.3-2.8,3.3-4.1C166.8,218.9,164.2,215,164.1,213.2z"/>
		<path fill-rule="evenodd" clip-rule="evenodd" fill="#00ADEE" d="M84.1,175.8h1.6l0.6,4.6c0,0.6-0.5,1.2-0.6,2.6l1.6,0.6L88,185
			l3.3-0.5l0.6,1.5l3.2,0c2.4,0,3-0.6,4.9-1c1.3,0.8,2.4,2.6,3.8,2.6c2,0,1.3-1.5,3.3-1.5h1.6c1.3,0,1.6-0.4,1.6-1.5v-2.6h2.7v-1.5
			c-2.5-0.2-2-0.3-1.6-2.1h-1.1l0.4-2.6l-0.5-2c1.9,0.6,1.8,2,4.4,2h2.2c-0.8,1.1-1.6,1.7-1.6,3.6c0,0.6,1.6,2.1,2.7,2.1h1.6h1.1
			c0.4-0.6,1.1-1.7,1.1-2.6c0-1.8-2.4-3.4-4.4-3.6v-1.5h-1.6c-2.4,0-1.7-0.8-4.4-1l2.5-3.9c-3.5,0.6-0.4,1.4-4.7,2.4l-2.5-2.8
			l-0.3-0.8h-1.6l-0.6-1.5l-1.5,0.6l-3.9-0.7l0-1.4h-1.6v1.5c0,2.3-1.2,0.6-2.7,2.6c-2.7,0.1-2.7,0-2.7,2.6
			c-2.1,0.5-4.2,1.1-4.4,3.6l-3.2-1.1L84.1,175.8z"/>
		<path fill-rule="evenodd" clip-rule="evenodd" fill="#00ADEE" d="M166.8,250.7c0-2-4.8-3.4-6.7-5c-2.1-1.8-4.1-5.2-5.4-6.2
			c-2-1.5-4.8-2.7-7.2-4.5c-2.3-1.8-3.7-3.6-6.9-4.3c0-1.6,0.2-2.6-1.6-2.6h-1.1c-3.9,0-6.3-4.2-9.3-5.6c-1,0.8-2.2,1.1-2.2,2.6v1v1
			l2.2,1.1l2.2-1.1l3.6,2.9l0.3,1.3v1l1.8,1.4l1,0.1c3.7,0,3,2.3,6,3.1c-0.4,1.5-0.5,0.9-0.5,2.1c0,0.4,1.3,1.8,1.6,3.1h3.8
			c3.7,0,14.6,10.8,16.4,10.8h0.6c1.3,0,1.6-0.4,1.6-1.5V250.7z"/>
		<path fill-rule="evenodd" clip-rule="evenodd" fill="#00ADEE" d="M362.3,219.4c-0.3-2.9-4.7-3.1-7.7-3.1c-2.9,0-2.3-1.5-6-1.5
			c0.3-3,1.1-1.1,1.1-3.1c0-1.1-1.4-1.4-2.7-1.5v-1.5h-2.2c-1.8,0-1.1-1-2.2-1c-0.7,0-0.8,0.6-1.1,1h-2.2l-2,2.9l-4,0.2l-4.9-0.6
			c0.1,1.5,0,2.1,1.6,2.1h1.1c3,0,4.3,0.2,4.4,3.1c3.1,1.9,1.1,4.6,3.8,4.6h0.6h1.1c0.3,0.5,0.9,1.5,1.6,1.5c2.8,0,4.4-4.6,7.1-4.6
			h2.2c1.8,0,1.4,1.5,4.4,1.5H362.3z"/>
		<path fill-rule="evenodd" clip-rule="evenodd" fill="#00ADEE" d="M55.1,266.5c1.4-1.2,1.6-1.4,1.6-4c-4-0.9-3.2-2.3-6.6-2.6
			c-1.1-3.8-2.6,1-2.7-4.1c-1-0.3-1.6-0.4-1.6-2.1c0-0.1,0.5-1,0.6-1c-1-2-1.4-3.6-4.9-3.6h-2.7c-2.7,0-1.1,2.3-4.4,3.1l-3.2-3.2
			l-1.2,0.1c-1.1-1.5-0.8-1.6-2.7-2.6l-2.7,0.6c-0.4,1.4-0.6,0.8-0.6,1.9c0,1.5,1.1,2.6,2.7,2.6c0.4,0,2-1.6,2.7-2.1l0.5,1.5
			c1.1,1.5,1.1,2.3,2.6,3.7c1.2,1.1,2,1.7,2.9,2.9h1.1v1h-1.6c-0.6,0.5-0.5-0.6-0.5,1.5c0,1.2,0.4,1.5,1.6,1.5
			c0.8,0,1.3-1.1,1.6-1.5c0.8,0.4,3.8,2.1,4.4,2.1c2,0,1.3-1.5,3.3-1.5h0.5c1.1,0,1,0.2,1.6,0.5h1.6v-1h1.1c0.2,0.5,0.3,0.8,0.3,0.9
			c0.1,0,0.5,0.1,1.4,0.7l1.6,0.6l-0.6,3.5L55.1,266.5z"/>
		<path fill-rule="evenodd" clip-rule="evenodd" fill="#00ADEE" d="M141.6,272.8c0-1.3-0.8-0.6-0.9-2h-1.6l0.3-1.7h-0.6l-1.6-1.4
			l-2.4-0.4c-1-0.1-4,2.6-4,3c0,0.6,1.4,0.5,1.6,2.3c-1-0.1-2.2-0.8-2.2,0.6c0,0.7,0.2,0.9,0.9,0.9c0.6,0,0.2-0.6,1.2-0.6
			c0.9,0,0.6,0.1,0.9,0.6l2.8,0.4l0.3-0.1c1,0,0.6-0.6,1.2-0.6c0.4,0,0.5,0.3,0.6,0.6l1.9,0.3C140.6,274.2,141.6,273.6,141.6,272.8z
			"/>
		<path fill-rule="evenodd" clip-rule="evenodd" fill="#00ADEE" d="M115,229.5l0.8,0c-0.4,1.2-1.1,0.9-1.1,1.8
			c0,0.3,0.3,0.4,0.6,0.5l-0.2,0.6c1.3,0,2.6,0,3.9,0c0.3-0.3,0.4-0.6,0.4-1.1c0-0.2-0.8-0.8-1.1-1.8c1.1-0.3,1.9-0.8,1.9-2.1v-1
			c0-0.6-0.7-1.3-1.1-1.5v-0.5l0.3-0.8c-1.4,0.1-0.5-0.4-1.2,0.8c-1.6,0-2.2,0-3,0.8c-0.7,0.8-1.4,1.1-1.4,2h0.5L115,229.5z"/>
		<path fill-rule="evenodd" clip-rule="evenodd" fill="#00ADEE" d="M205.1,269.7c0-0.9-0.5-2.3-1.3-2.3c-1.1,0-1.1,0.2-2.1,0.4
			c-2.3-1.2-4.7-3.8-6.3-3.9c0.4-1.4,0.8-1,0.8-1.6c0-0.8-0.6-1.3-0.8-2.3h-2.1c-1.5,0-1.3,1.2-2.1,1.2c-0.2,0-3.8-3.1-5-3.1
			c-0.6,0-0.8,0.5-0.8,1.2c0,0.7,7.3,5.3,8.5,6.1c2,1.4,7.7,4.4,8.6,5.6l-2.1,0.5l0.1,2.6l-0.1,1.5l0.9,0.3l1.6-0.6l0-0.8
			c0-0.9-0.3-0.9-0.8-1.6l1.7-0.4C204,270,205.1,271.3,205.1,269.7z"/>
		<path fill-rule="evenodd" clip-rule="evenodd" fill="#00ADEE" d="M317.4,129.1c0,1.6,0.3,1.9,0.4,3.1l-0.5,2.6
			c2.7-0.2,1.9-0.4,2.9-2l2.1,1.6l3.9-0.7c1.1-1.3,2.2-2,2.2-4.5c0-1.2,0.2-1.3,0.5-2.1l-1.9-2.4c-3.2,1-9.3-1.7-9.6,2.9
			L317.4,129.1z"/>
		<path fill-rule="evenodd" clip-rule="evenodd" fill="#00ADEE" d="M164.1,266.1c-1.6-0.6-2-1.7-2.2-3.6c-1.5-0.3-2.2-1-3.3-1
			c-1.6,0-1.4,1-4.4,1c-0.3,3-1.1,1.1-1.1,3.1v3.1c0,1.6,1.6,1.6,2.7,3.6h1.1h1.6c2,0,5.5-3,5.5-4.6V266.1z"/>
		<path fill-rule="evenodd" clip-rule="evenodd" fill="#00ADEE" d="M404.4,330.3h2.2c1.4,0,2.1-1.3,3.3-2.1v-1v-1.5h1.1
			c-0.2-1.9-0.2-1.9-2.2-2.1l-0.7-3.1l-4.8,0.6l-1.7-0.1c-2.1,0-2.2,3.1-2.2,5.1v0.5C399.5,328.4,403.3,330.3,404.4,330.3z"/>
		<path fill-rule="evenodd" clip-rule="evenodd" fill="#00ADEE" d="M349.7,113.7v-1c-1.9-1-2.7-0.6-3.3-2.6l3.3-1l0-1.1v-0.5v-1
			c-1.1-0.5-1.6-1-3.3-1c-0.3,0-1.2,0.7-1.6,1l-1.1,5.7l-2.8,0.9c0.4,0.7,0.5,0.7,0.6,0.7c0,0.1,0,0.2,0,0.4l-0.1,2.1l0.1,1.5
			c0,1,0.2,0.9,0.5,1.5c1.9-0.4,1.9-1,3.7-1c1.3-0.5,2.6-0.9,4-1.4l0-0.1V113.7z"/>
		<path fill-rule="evenodd" clip-rule="evenodd" fill="#00ADEE" d="M122.5,259.9c1.1,0,2.8-2.2,3.3-3.1c-1-1.7-0.5-2-2.7-2.6v-3.6
			c0-1.7-2-2.6-3.8-2.6h-1.1c-1.5,0-3.3,2.1-3.3,3.6c0,3.2,1.7,4.4,4.9,4.6C120,257.5,121.2,259.9,122.5,259.9z"/>
		<path fill-rule="evenodd" clip-rule="evenodd" fill="#00ADEE" d="M209.1,270.9c2.3,0.3,4.5,1,6.6,1.9c2.9-0.2,5.8-0.2,8.7-0.1
			c-0.4-0.4-0.8-0.8-1.7-1.3c1.2-1.7,2.6-0.5,2.8-2.3l-3.7,0.7l0-2.1c-0.7-0.1-0.7-0.3-1.5-0.3H220c-1.1,0-0.7-0.9-1.8-0.9h-0.9
			c-1.1,0-0.4-0.5-1.8-0.9c-0.3,0.6-0.6,0.9-1.5,0.9c-0.7,0-1.4-0.6-2.5-0.6c-0.5,0-0.7,0.8-0.9,1.2c0.2,0.3,0.6,0.7,0.6,0.9
			c0,0.3-1.5,1.8-1.8,2l-0.4-0.8l-1.8,0.3l0,0.5l2.1,0.7L209.1,270.9z"/>
		<path fill-rule="evenodd" clip-rule="evenodd" fill="#00ADEE" d="M63.3,201.4c0-0.6-1.1-1.5-2.2-1.5H60c-3.7,0,1.7-2.5-3.8-2.6
			v2.1c0,1-0.2,0.9-0.5,1.5c-1.2-0.7-9.2-4.6-10.4-4.6c-0.8,0-2.6,1.4-2.7,3.1l3.3-0.5l10.4,3.6c0.5,0.8,0.8,1.5,2.2,1.5h2.2
			C61.9,204,63.3,202.6,63.3,201.4z"/>
		<path fill-rule="evenodd" clip-rule="evenodd" fill="#00ADEE" d="M293.3,280v-1c0-1.8-2.4-2.1-4.4-2.1c-1.2,0-0.7,0.2-2.2,0.5
			l-2.7,5.1c1,1.8,0.8,3.1,3.8,3.1C289.5,285.6,293.3,281.9,293.3,280z"/>
		<path fill-rule="evenodd" clip-rule="evenodd" fill="#00ADEE" d="M306.4,313h1.6c1.1,0,3.8-1.7,3.8-3.1v-1c0-1.4-0.3-1.4-0.5-2.6
			c-3.2-0.3-1.1-1-3.3-1H307c-2.8,0-3.8,1.6-3.8,4.1C303.1,310.8,304.9,313,306.4,313z"/>
		<path fill-rule="evenodd" clip-rule="evenodd" fill="#00ADEE" d="M526,183.5c0-0.7-3.6-3.1-4.9-3.1c-2.1,0-3.8,1.4-3.8,3.6v0.5
			c0,2.5,1.7,4.1,4.4,4.1C523.9,188.6,526,185.8,526,183.5z"/>
		<path fill-rule="evenodd" clip-rule="evenodd" fill="#00ADEE" d="M366,237.9c0.2-1.4-1.5-4.6-3.7-4.6c-1.1,0-3.6,1.2-4.4,1.5v1
			v2.1c0,1.7,0.5,0.4,1.1,2.8l7.1-0.1L366,237.9z"/>
		<path fill-rule="evenodd" clip-rule="evenodd" fill="#00ADEE" d="M89.9,206.5c-1.9,0-3.1,2.4-3.8,3.6l1.6,3.6l1.1,0H91
			c2.2,0,3.8-2.4,3.8-4.6h-1.1v-2.6H89.9z"/>
		<path fill-rule="evenodd" clip-rule="evenodd" fill="#00ADEE" d="M452.6,186c2.2,0,4.4-2.3,4.4-4.6c0,0-1.4-2.2-1.6-2.6l-4.4-0.6
			c-0.9,1.6-2.2,2.8-2.2,4.7C448.8,184.4,451.1,186,452.6,186z"/>
		<path fill-rule="evenodd" clip-rule="evenodd" fill="#00ADEE" d="M385.3,329.7h0.5c1.7,0,2.2-0.5,3.3-1v-1c0-2.7-1.3-5.1-4.4-5.1
			c-0.9,0-3.3,2.5-3.3,3.6C381.4,328.5,382.7,329.7,385.3,329.7z"/>
		<path fill-rule="evenodd" clip-rule="evenodd" fill="#00ADEE" d="M205.1,200.9c3.7-0.1,1.7-1,3.8-1c0.8,0,2.4,2.4,4.9,2.6v-2.1
			c-1.6-0.3-3.3-0.8-3.3-2.6v-1c0-1.2-0.9-2.1-2.2-2.1c-2.6,0-4.4,1.6-4.4,4.1C204,199.6,204.6,199.1,205.1,200.9z"/>
		<path fill-rule="evenodd" clip-rule="evenodd" fill="#00ADEE" d="M199.9,225.6V225c0-1.2-1.5-2.6-2.7-2.6c-2.1,0-1,0.3-3.3,0.5
			c-0.3,1.4-1.1,2.1-1.1,3.1c0,2.2,2,3.1,4.4,3.1C198.7,229.1,199.9,227.3,199.9,225.6z"/>
		<path fill-rule="evenodd" clip-rule="evenodd" fill="#00ADEE" d="M486.6,221.4c0-1.2-2-3.1-3.3-3.1c-2.6,0-3.8,1.2-3.8,3.6v0.5
			c0,1.2,1.5,2.6,2.7,2.6c2,0,4.4-1.4,4.4-3.1V221.4z"/>
		<path fill-rule="evenodd" clip-rule="evenodd" fill="#00ADEE" d="M83.6,238.9c1.5-0.9,2.7-1.2,2.7-3.6c0-1.4-0.3-1.4-0.6-2.6
			c-2.2-0.2-1.2-0.5-3.3-0.5c-0.8,0-2.7,1.2-2.7,2.6v0.5C79.7,238.2,81.2,238.4,83.6,238.9z"/>
		<path fill-rule="evenodd" clip-rule="evenodd" fill="#00ADEE" d="M216.6,252.2c0.4,0,3.6-1,3-3.3c-0.6-2-1.1-2.9-3.5-2.9h-0.5
			c-1.3,0-2.7,1.4-2.7,2.6C212.8,251,214.1,252.2,216.6,252.2z"/>
		<path fill-rule="evenodd" clip-rule="evenodd" fill="#00ADEE" d="M282.9,193.7c0.6-1,1.1-1.5,1.1-3.1c0-1.3-1.2-3.1-2.7-3.1h-1.1
			c-1.3,0-2.7,1.4-2.7,2.6c0,1.7,1,3.6,2.7,3.6h1.6H282.9z"/>
		<path fill-rule="evenodd" clip-rule="evenodd" fill="#00ADEE" d="M252.2,251.7c2.2-1.4,2-0.7,2.7-3.6c-0.3-0.5-3.6-4.6-3.8-4.6
			c-0.9,0-2.2,4.6-2.7,5.6C250.3,251.2,249.5,250.5,252.2,251.7z"/>
		<path fill-rule="evenodd" clip-rule="evenodd" fill="#00ADEE" d="M190.9,255.8c0-1.4-5.6-5.6-7.7-5.6c-0.5,0-1.6,1.1-1.6,1.5
			c0,0.9,7,5.6,8.2,5.6C190.6,257.4,190.9,256.7,190.9,255.8z"/>
		<path fill-rule="evenodd" clip-rule="evenodd" fill="#00ADEE" d="M327.2,153.2c-2.6,0-0.7,0.5-3.3,0.5c-1.3,0-1.6,0.4-1.6,1.5v1
			c0,1.2,0.4,1.5,1.6,1.5c1.5,0,1.5,0.2,2.7,0.5c1.6-0.4,2.7-0.8,2.7-2.6c0-0.9-0.7-1.9-1.1-2.6H327.2z"/>
		<path fill-rule="evenodd" clip-rule="evenodd" fill="#00ADEE" d="M110.3,243.6l-2.6-0.1l-0.6-2.6c-2.5,0.2-1.8,0.4-2.6,2l2,5.2
			l1.2,0c2.3,0,2.8-0.9,3.8-2.1L110.3,243.6z"/>
		<path fill-rule="evenodd" clip-rule="evenodd" fill="#00ADEE" d="M240.2,198.9c0-1.1,0.8,0.2,1.1-2.6c-2.4,0.1-2.5-0.2-2.7,2.1
			c-2.2-0.2-1.2-0.5-3.3-0.5c-0.8,0-1.1,0.7-1.1,1.5c0,1.8,6.2,3.1,8.8,3.1C242.6,199.2,240.2,200.6,240.2,198.9z"/>
		<path fill-rule="evenodd" clip-rule="evenodd" fill="#00ADEE" d="M523.3,205c1.6-1.1,3.1-1.1,3.3-3.6c-2.3-0.8-0.3-1.1-3.3-2.6
			c-1.7,0.4-3.3,0.3-3.3,2.1v1.5C520,204.4,521.8,204.4,523.3,205z"/>
		<path fill-rule="evenodd" clip-rule="evenodd" fill="#00ADEE" d="M536.1,265.3c-1.4-0.7,0.5-0.5-1.6-0.5h-1.6
			c0,1.6-0.2,2.6,1.6,2.6h1.1l0.6-1.5c1.3,0.3,1.4,0.6,1.6,0.8v-4.4c-0.7,0.1-0.9,0.5-1.7,1V265.3z"/>
		<path fill-rule="evenodd" clip-rule="evenodd" fill="#00ADEE" d="M292.7,203v-0.5c0-1.2-0.9-2.1-2.2-2.1H290
			c-1.3,0-3.3,0.6-3.3,1.5c0,1.9,1.6,5,3.8,5.1C290.8,203.8,292.7,205.2,292.7,203z"/>
		<path fill-rule="evenodd" clip-rule="evenodd" fill="#00ADEE" d="M259.3,226.6v-1c0-1.5-1.9-2.6-3.3-2.6c-1.5,0-2.7,1.8-2.7,3.6
			c0,0.6,1.6,2.1,2.7,2.1c1.7,0,2.2-0.5,3.3-1V226.6z"/>
		<path fill-rule="evenodd" clip-rule="evenodd" fill="#00ADEE" d="M437.8,296.4h1.1c1.3,0,2.7-1.4,2.7-2.6c0-2.2-1.7-2.4-3.3-3.1
			c-1.5,1-2.7,1.1-2.7,3.6C435.7,295.5,436.6,296.4,437.8,296.4z"/>
		<path fill-rule="evenodd" clip-rule="evenodd" fill="#00ADEE" d="M386.9,227.6c0,1.2,0.9,2.1,2.2,2.1h0.5c1.5,0,1.5-0.2,2.7-0.5
			l0.4-2.6c-1.1-2.2-0.8-1.4-3.1-2.5l-2.6,1.8L386.9,227.6z"/>
		<path fill-rule="evenodd" clip-rule="evenodd" fill="#00ADEE" d="M303.7,139.8c-1.3,0-2.2,0.9-2.2,2.1c0,1.3,1.2,3.1,2.7,3.1h1.6
			c1.3,0,1.6-0.4,1.6-1.5C307.5,143.2,305.1,139.8,303.7,139.8z"/>
		<path fill-rule="evenodd" clip-rule="evenodd" fill="#00ADEE" d="M121.4,192.7c0-0.6-1.6-2.1-2.7-2.1h-0.5c-1.6,0-1.9,1.2-2.7,2.1
			c1.7,3.4-0.3,1.5,3.3,3.1C120,195.1,121.4,194.6,121.4,192.7z"/>
		<path fill-rule="evenodd" clip-rule="evenodd" fill="#00ADEE" d="M406.1,304.1h1.1h1.1c0.6-1,1.1-1.5,1.1-3.1
			c0-1.2-0.4-1.5-1.6-1.5H405v1.5h-1.1C403.9,302.9,404.1,304.1,406.1,304.1z"/>
		<path fill-rule="evenodd" clip-rule="evenodd" fill="#00ADEE" d="M65,271.7l0,1l2.2,1.1c1-0.6,2.8-1.7,2.8-3.1v-1.5
			c0-1.2-0.4-1.5-1.6-1.5C67.4,267.6,65,270.7,65,271.7z"/>
		<path fill-rule="evenodd" clip-rule="evenodd" fill="#00ADEE" d="M57.8,208.6h-1.1c-0.6,1-1.1,1.5-1.1,3.1c0,0.6,1.6,2.1,2.7,2.1
			h1.1l1.4-2.2l-1.1-2.9L57.8,208.6z"/>
		<path fill-rule="evenodd" clip-rule="evenodd" fill="#00ADEE" d="M443.9,249.2c0-1.2-0.9-2.1-2.2-2.1c-1.3,0-2.7,1.4-2.7,2.6
			c0,1.2,1.5,2.6,2.7,2.6h0.5c1.3,0,1.6-0.4,1.6-1.5V249.2z"/>
		<path fill-rule="evenodd" clip-rule="evenodd" fill="#00ADEE" d="M234.8,188.8l-0.1,1.4c0,1.2,1.5,2.6,2.7,2.6
			c1.3,0,2.2-0.9,2.2-2.1v-0.5c0-1.7-1.6-2-2.7-2.6L234.8,188.8z"/>
		<path fill-rule="evenodd" clip-rule="evenodd" fill="#00ADEE" d="M315.7,127v-1c-0.7-0.3-1.8-1-2.7-1c-0.1,0-2,0.9-2.2,1v1v0.5
			c0,0.7,0.3,1.2,0.8,1.6c1.4-0.4,2.7-0.8,4.1-1.1v-0.5V127z"/>
		<path fill-rule="evenodd" clip-rule="evenodd" fill="#00ADEE" d="M313,129.6c0.9,0,2-0.7,2.7-1V128c-1.4,0.4-2.7,0.8-4.1,1.1
			C312,129.4,312.5,129.6,313,129.6z"/>
		<path fill-rule="evenodd" clip-rule="evenodd" fill="#00ADEE" d="M97.3,224v-0.5c0-1.2-0.4-1.5-1.6-1.5h-2.7
			c-0.2,2.1-0.5,1.1-0.5,3.1c0,0.8,1.5,1.2,2.2,1.5C95.7,226,97.3,225.7,97.3,224z"/>
		<path fill-rule="evenodd" clip-rule="evenodd" fill="#00ADEE" d="M173.4,266.1h1.1c0.4-0.6,1.1-1.7,1.1-2.6c0-1.1-0.2-0.7-0.5-2.1
			h-2.2c-1.9,0-1.5,1.1-2.2,2.6C171.3,264.9,171.8,266.1,173.4,266.1z"/>
		<path fill-rule="evenodd" clip-rule="evenodd" fill="#00ADEE" d="M8.6,199.4h0.6c1.1,0,2.2-0.9,2.2-1.5c0-1.3-1.2-3.1-2.7-3.1
			c-0.6,0-2.2,1.5-2.2,2.6C6.4,198.5,7.3,199.4,8.6,199.4z"/>
		<path fill-rule="evenodd" clip-rule="evenodd" fill="#00ADEE" d="M55.7,246.7c-0.4,1.3-0.6,0.8-0.6,1.9c0,1.2,2.3,1.6,3.3,2.1
			l1.5-1.2l0.1-2.9l-2.2-0.4L55.7,246.7z"/>
		<path fill-rule="evenodd" clip-rule="evenodd" fill="#00ADEE" d="M512.3,169.1v-1.5c-1.6-0.3-0.9-0.5-2.2-0.5
			c-1.2,0-0.7,0.2-2.2,0.5l-0.5,3.1c0.1,0.1,1,0.5,1.6,0.5h1.1C511.4,171.1,512.3,170.3,512.3,169.1z"/>
		<path fill-rule="evenodd" clip-rule="evenodd" fill="#00ADEE" d="M349.1,326.2h0.5c1.3,0,1.6-0.4,1.6-1.5v-1v-1
			c-0.7-0.3-1.8-1-2.7-1c-0.7,0-1.6,1.1-1.6,2.1v0.5C346.9,325.3,347.9,326.2,349.1,326.2z"/>
		<path fill-rule="evenodd" clip-rule="evenodd" fill="#00ADEE" d="M483.8,276.4v0.5c0,1.2,0.4,1.5,1.6,1.5h1.1
			c1.3,0,2.2-0.9,2.2-2.1v-1c-1.1-0.5-1.6-1-3.3-1C484.8,274.3,483.8,275.4,483.8,276.4z"/>
		<path fill-rule="evenodd" clip-rule="evenodd" fill="#00ADEE" d="M384.1,153.8l3.3,2.1l1.7-1.2l0-1v-0.5c0-1.2-0.9-2.1-2.2-2.1
			h-1.6L384.1,153.8z"/>
		<path fill-rule="evenodd" clip-rule="evenodd" fill="#00ADEE" d="M132.9,260.5c0,1.2,5.6,2.6,7.7,2.6c-0.2-1.8-1.7-3.1-3.3-3.1
			C136,259.9,132.9,258.5,132.9,260.5z"/>
		<path fill-rule="evenodd" clip-rule="evenodd" fill="#00ADEE" d="M322.9,135.7c-1.2,0-0.7,0.2-2.2,0.5v2.1l0,1.1l3.2,1.1
			c0.7-2.4,1.2-1.1,1.2-2.8C325,136.6,324.1,135.7,322.9,135.7z"/>
		<path fill-rule="evenodd" clip-rule="evenodd" fill="#00ADEE" d="M192,239.9h0.5c1.3,0,2.2-0.9,2.2-2.1c0-1.2-0.9-2.1-2.2-2.1H192
			h-1.1l-1.1,2.1l1.2,2L192,239.9z"/>
		<path fill-rule="evenodd" clip-rule="evenodd" fill="#00ADEE" d="M238.5,231.7c0-1.2-0.4-1.5-1.6-1.5h-1.1h-1.1l-1,2l1.9,2.2
			l2.9-0.8L238.5,231.7z"/>
		<path fill-rule="evenodd" clip-rule="evenodd" fill="#00ADEE" d="M362.8,303.6h0.5c1.3,0,2.2-0.9,2.2-2.1c0-1.2-0.9-2.1-2.2-2.1
			h-0.5c-1.3,0-1.6,0.4-1.6,1.5v1C361.2,303.2,361.6,303.6,362.8,303.6z"/>
		<path fill-rule="evenodd" clip-rule="evenodd" fill="#00ADEE" d="M53.5,259.4c0-3.7,0.4-6.1-3.3-6.2
			C50.2,256.2,50.4,259.2,53.5,259.4z"/>
		<path fill-rule="evenodd" clip-rule="evenodd" fill="#00ADEE" d="M445,146.5h-0.5h-1.1l-1.1,2.1c0.6,0.9,1.2,2.1,2.7,2.1
			c0.7,0,0.3-0.6,2.2-1C447.1,147.7,446.9,146.5,445,146.5z"/>
		<path fill-rule="evenodd" clip-rule="evenodd" fill="#00ADEE" d="M329.4,263v-0.5c0-1.2-0.4-1.5-1.6-1.5c-1.5,0-1.5,0.2-2.7,0.5
			v1.5v1c0.6,0.3,1.9,1,2.7,1C328.5,265.1,329.4,264,329.4,263z"/>
		<path fill-rule="evenodd" clip-rule="evenodd" fill="#00ADEE" d="M50.2,210.2h-1.1l-1.1,1.5c0.7,1.4,0.2,2.6,2.2,2.6h0.5
			c1.3,0,1.6-0.4,1.6-1.5c0-1.4-0.3-1.4-0.5-2.6H50.2z"/>
		<path fill-rule="evenodd" clip-rule="evenodd" fill="#00ADEE" d="M43.1,243.5c1.8,0,2.7,0.2,2.7-1.5c0-1.2-0.4-1.5-1.6-1.5
			c-1.2,0-0.7,0.2-2.2,0.5l-0.3,1.9l-1,2.1l2.4,0.1V243.5z"/>
		<path fill-rule="evenodd" clip-rule="evenodd" fill="#00ADEE" d="M349.7,120.3v2.1c3.8,0.9,0.8,2.8,4.9,3.1v-1.5v-1l-3-2.4
			L349.7,120.3z"/>
		<path fill-rule="evenodd" clip-rule="evenodd" fill="#00ADEE" d="M105.5,214.7l0-1v-0.5c0-1.2-0.4-1.5-1.6-1.5h-0.5h-1.1l-1.1,2.1
			c1.3,2.2-0.2,0.9,2.2,2.1L105.5,214.7z"/>
		<path fill-rule="evenodd" clip-rule="evenodd" fill="#00ADEE" d="M170.1,187.1V185c-1.5-0.3-0.9-0.5-2.2-0.5
			c-0.7,0-1.6,1.1-1.6,2.1v1.5c0.7,0.2,1.9,0.5,2.7,0.5C169.8,188.6,170.1,187.9,170.1,187.1z"/>
		<path fill-rule="evenodd" clip-rule="evenodd" fill="#00ADEE" d="M476.7,235.8v-1.5c-1.5-0.3-0.9-0.5-2.2-0.5
			c-1.3,0-1.8,1.3-2.3,2.2l2.2,2.1l2.3-1.2L476.7,235.8z"/>
		<path fill-rule="evenodd" clip-rule="evenodd" fill="#00ADEE" d="M266.5,212.7c0-0.6-1.1-1.5-2.2-1.5h-0.5c-1.3,0-1.6,0.4-1.6,1.5
			v0.5c0,1.2,0.4,1.5,1.6,1.5h0.5C265.6,214.8,266.5,213.9,266.5,212.7z"/>
		<path fill-rule="evenodd" clip-rule="evenodd" fill="#00ADEE" d="M481.6,214.8l0,1.4l2.2,0.5l2.1-1.1l0.1-1.9l-1.7-0.9
			C482.8,213.4,481.6,212.9,481.6,214.8z"/>
		<path fill-rule="evenodd" clip-rule="evenodd" fill="#00ADEE" d="M408.3,175.2h-1.1c-2,0-2.1,1.2-2.2,3.1c0.7,0.2,1.9,0.5,2.7,0.5
			c0.9,0,1.6-0.3,1.6-1C409.4,176.9,408.6,175.9,408.3,175.2z"/>
		<path fill-rule="evenodd" clip-rule="evenodd" fill="#00ADEE" d="M58.4,272.3v1.5l0,1l2.7,1.1l1.3-2.4
			C62.5,270.4,61.6,272.2,58.4,272.3z"/>
		<path fill-rule="evenodd" clip-rule="evenodd" fill="#00ADEE" d="M204.3,250.4c0-1.2-0.9-2.1-2.2-2.1c-1.3,0-1.6,0.4-1.6,1.5v0.5
			c0,1.2,0.9,2.1,2.2,2.1C203.3,252.5,204.3,251.4,204.3,250.4z"/>
		<path fill-rule="evenodd" clip-rule="evenodd" fill="#00ADEE" d="M367.8,112.6c0,1,1.1,0.4,1.1,2.1v2.1h2.2l-0.7-5.6
			C368.7,111.1,367.8,110.9,367.8,112.6z"/>
		<polygon fill-rule="evenodd" clip-rule="evenodd" fill="#00ADEE" points="342.1,312.3 343.7,311.3 343.7,310.3 343.7,309.3 
			341.5,308.2 339.2,310.2 339.9,311.7 		"/>
		<polygon fill-rule="evenodd" clip-rule="evenodd" fill="#00ADEE" points="262.4,181.6 264.2,180.8 264.3,179.4 264.3,178.3 
			262.1,177.3 259.7,179.1 		"/>
		<path fill-rule="evenodd" clip-rule="evenodd" fill="#00ADEE" d="M134,252.8c-2.7,0-0.2,1.1-2.7,2.1c0.2,2.1,0.5,2.4,2.7,2.6v-2.1
			c0.5-0.3,1.6-0.8,1.6-1.5C135.6,253.1,134.8,252.8,134,252.8z"/>
		<path fill-rule="evenodd" clip-rule="evenodd" fill="#00ADEE" d="M142.7,254.3c0,1.2,0.4,1.5,1.6,1.5h0.5c1.9,0,2.1-1.2,2.2-3.1
			l-1.7-0.2C143.9,252.9,142.7,252.5,142.7,254.3z"/>
		<path fill-rule="evenodd" clip-rule="evenodd" fill="#00ADEE" d="M316.8,168.1c0,1.2,0.4,1.5,1.6,1.5h0.6c1.3,0,1.6-0.4,1.6-1.5
			v-1.5c-1.5-0.3-0.9-0.5-2.2-0.5C317.8,166,316.8,167.1,316.8,168.1z"/>
		<path fill-rule="evenodd" clip-rule="evenodd" fill="#00ADEE" d="M451.3,305.5c0.7,0,1.6-1.1,1.6-2.1v-1l-1.7-0.9l-2.1,0.9l0,1
			C449.1,304.7,450,305.5,451.3,305.5z"/>
		<path fill-rule="evenodd" clip-rule="evenodd" fill="#00ADEE" d="M92.9,265.1c0-1.1-0.2-0.7-0.5-2.1c-2.9,0.1-3.2,0.4-3.3,3.1
			C90.8,266.3,92.9,267.5,92.9,265.1z"/>
		<path fill-rule="evenodd" clip-rule="evenodd" fill="#00ADEE" d="M445,316.4c1.3,0,2.2-0.9,2.2-2.1c0-0.7-0.7-1-1.6-1h-1.1
			c-1.3,0-1.6,0.4-1.6,1.5C442.8,315.5,443.9,316.4,445,316.4z"/>
		<path fill-rule="evenodd" clip-rule="evenodd" fill="#00ADEE" d="M218.8,195.3c0-0.7-0.7-1-1.6-1l-1.7,0l-0.6,3.6
			C217.1,197.8,218.8,197.1,218.8,195.3z"/>
		<path fill-rule="evenodd" clip-rule="evenodd" fill="#00ADEE" d="M46.3,190.6h2.2c0.9-2.5,1.9-0.2,2.2-3.6h-1.6
			C47.1,187.1,46.4,188.7,46.3,190.6z"/>
		<polygon fill-rule="evenodd" clip-rule="evenodd" fill="#00ADEE" points="68.2,257.9 73.2,258.5 73.2,256.3 68.3,255.7 		"/>
		<path fill-rule="evenodd" clip-rule="evenodd" fill="#00ADEE" d="M31,237.4v-1.5v-1l-1.9-1.3l-2-0.3
			C27.4,235.7,28.4,237.2,31,237.4z"/>
		<path fill-rule="evenodd" clip-rule="evenodd" fill="#00ADEE" d="M173.9,175.8c-0.2-2.5-3-2.9-5.5-3.1
			C168.7,175.3,171.1,175.7,173.9,175.8z"/>
		<path fill-rule="evenodd" clip-rule="evenodd" fill="#00ADEE" d="M393.5,259.4c0.4-0.6,1.1-1.7,1.1-2.6c0-0.5-0.6-1-1.1-1
			c-1.2,0-0.7,0.2-2.2,0.5l-0.3,2l0.4,1.1L393.5,259.4z"/>
		<path fill-rule="evenodd" clip-rule="evenodd" fill="#00ADEE" d="M66.6,200.9l0,3l2.2,0.5l1-0.5l0-1.5c0-1.2-0.4-1.5-1.6-1.5H66.6
			z"/>
		<path fill-rule="evenodd" clip-rule="evenodd" fill="#00ADEE" d="M310.8,245.6l1.1-2l-0.7-1l-1.6,0c-1.3,0-1.6,0.4-1.6,1.5v1.5
			h1.6H310.8z"/>
		<path fill-rule="evenodd" clip-rule="evenodd" fill="#00ADEE" d="M510.1,266.1h-0.5c-1.3,0-1.6,0.4-1.6,1.5c0,1.2,0.4,1.5,1.6,1.5
			c1.3,0,2.2-0.9,2.2-2.1C511.8,266.4,511,266.1,510.1,266.1z"/>
		<path fill-rule="evenodd" clip-rule="evenodd" fill="#00ADEE" d="M295.5,175.2c-1.4,0-1.6,1.6-1.6,3l2.2,0.5l1.6-0.5
			C297.5,177,296.8,175.2,295.5,175.2z"/>
		<path fill-rule="evenodd" clip-rule="evenodd" fill="#00ADEE" d="M278,244c0,1.2,0.4,1.5,1.6,1.5c1.3,0,1.6-0.4,1.6-1.5v-1.5
			l-1.7-0.5C278.7,242.5,278,242.7,278,244z"/>
		<path fill-rule="evenodd" clip-rule="evenodd" fill="#00ADEE" d="M328.9,275.3c1.3,0,1.6-0.4,1.6-1.5c0-1.8-1.6-1.7-3.3-2.1v2.1
			C327.2,275,327.6,275.3,328.9,275.3z"/>
		<path fill-rule="evenodd" clip-rule="evenodd" fill="#00ADEE" d="M185.4,190.1c0,1.2,0.4,1.5,1.6,1.5c1.5,0,1.6-0.7,2.2-1.5
			l-0.7-1.5l-1.5,0C185.8,188.6,185.4,189,185.4,190.1z"/>
		<path fill-rule="evenodd" clip-rule="evenodd" fill="#00ADEE" d="M118.6,170.6c0,2.9,1.8-0.1,2.7,3.1h1.1v-1.5h-1.1v-1.5
			c0-1.2-0.4-1.5-1.6-1.5C119,169.1,118.6,169.8,118.6,170.6z"/>
		<path fill-rule="evenodd" clip-rule="evenodd" fill="#00ADEE" d="M316.3,164.5v-1.5l-3.8,0.5c0.1,1.5,0.4,2.6,2.2,2.6
			C315.9,166,316.3,165.7,316.3,164.5z"/>
		<path fill-rule="evenodd" clip-rule="evenodd" fill="#00ADEE" d="M311.6,284.8c-0.1-1.5-0.4-2.6-2.2-2.6h-2.7
			C307.3,284.5,308.6,284.8,311.6,284.8z"/>
		<path fill-rule="evenodd" clip-rule="evenodd" fill="#00ADEE" d="M101.1,207.1h-3.3v1.5c0,1.2,0.4,1.5,1.6,1.5
			c1.3,0,1.6-0.4,1.6-1.5V207.1z"/>
		<path fill-rule="evenodd" clip-rule="evenodd" fill="#00ADEE" d="M281.2,258.4c0.8,0,1.1-0.7,1.1-1.5c0-1.1-4.9-2.3-4.9-0.5
			c0,1.2,1.5,1,2.7,1C280.2,257.8,280.7,258.4,281.2,258.4z"/>
		<path fill-rule="evenodd" clip-rule="evenodd" fill="#00ADEE" d="M35.4,197.8c-1.1,0-1.5,1.9-1.6,3.1h2.2c1.3,0,1.6-0.4,1.6-1.5
			C37.6,198.7,36.5,197.8,35.4,197.8z"/>
		<path fill-rule="evenodd" clip-rule="evenodd" fill="#00ADEE" d="M9.7,276.4c-0.3-0.4-2.9-3.6-3.3-3.6c-0.5,0-1.1,0.6-1.1,1
			c0,1.5,1.9,3.1,3.3,3.1C8.6,276.9,9.6,276.4,9.7,276.4z"/>
		<path fill-rule="evenodd" clip-rule="evenodd" fill="#00ADEE" d="M360.6,252.2c0.7,0,1.6-1.1,1.6-2.1c0-0.8-1.5-1.2-2.2-1.5
			l-1.6,1.5C359,251.3,359,252.2,360.6,252.2z"/>
		<path fill-rule="evenodd" clip-rule="evenodd" fill="#00ADEE" d="M325.6,240.9c0-0.7-0.7-1-1.6-1h-1.6l-0.3,2l0.4,1.1
			C324.3,243,325.6,242.8,325.6,240.9z"/>
		<path fill-rule="evenodd" clip-rule="evenodd" fill="#00ADEE" d="M109.9,270.7c-0.9,0-1.3,1.4-1.4,2l0.4,1.1l1.6,0
			c1.8,0,1.6-0.9,1.6-2.6C110.5,270.9,111.1,270.7,109.9,270.7z"/>
		<path fill-rule="evenodd" clip-rule="evenodd" fill="#00ADEE" d="M355.2,201.9c0,0.6,1,1,1.6,1.5c1.2-0.6,2.2-0.4,2.2-2.1
			c0-0.7-0.8-1-1.6-1h-0.5C355.5,200.4,355.2,200.8,355.2,201.9z"/>
		<path fill-rule="evenodd" clip-rule="evenodd" fill="#00ADEE" d="M207,214c-0.6-1.1-0.9-2.1-2.7-2.1c-0.8,0-1.1,0.7-1.1,1.5
			c0,1.2,0.4,1.5,1.6,1.5C206,215,206,214.6,207,214z"/>
		<path fill-rule="evenodd" clip-rule="evenodd" fill="#00ADEE" d="M55.1,209.1V206c-2,0-3.3,0.2-3.3,2.1c0,0.7,0.7,1,1.6,1H55.1z"/>
		<path fill-rule="evenodd" clip-rule="evenodd" fill="#00ADEE" d="M143.3,181.9c0-1.2-0.4-1.5-1.6-1.5c-1.3,0-1.6,0.4-1.6,1.5
			c0,1.2,0.4,1.5,1.6,1.5C142.9,183.5,143.3,183.1,143.3,181.9z"/>
		<path fill-rule="evenodd" clip-rule="evenodd" fill="#00ADEE" d="M67.6,263.5l2.9,0c0.4-1.5,0.5-0.9,0.5-2.1c0-1.2-1.5-1-2.8-1
			L67.6,263.5z"/>
		<path fill-rule="evenodd" clip-rule="evenodd" fill="#00ADEE" d="M205.1,184.5l0.6-2l-2.3,0.5c-1.7,1-1.6,0.6-1.6,3.1h2.7
			L205.1,184.5z"/>
		<path fill-rule="evenodd" clip-rule="evenodd" fill="#00ADEE" d="M393.5,270.7c0.4-1.5,0.5-0.9,0.5-2.1c0-0.7-0.7-1-1.6-1
			c-1.3,0-1.6,0.4-1.6,1.5C390.8,270.9,391.7,270.7,393.5,270.7z"/>
		<path fill-rule="evenodd" clip-rule="evenodd" fill="#00ADEE" d="M256.1,262.5c0-1.2-0.4-1.5-1.6-1.5c-1.3,0-1.6,0.4-1.6,1.5
			c0,1.3,1.7,1.5,3.3,1.5V262.5z"/>
		<path fill-rule="evenodd" clip-rule="evenodd" fill="#00ADEE" d="M436.2,186c0-1.2-0.4-1.5-1.6-1.5c-1.4,0-1.6,1.6-1.6,3.1h1.6
			C435.8,187.6,436.2,187.2,436.2,186z"/>
		<polygon fill-rule="evenodd" clip-rule="evenodd" fill="#00ADEE" points="259.3,272.3 263.1,272.9 263.2,270.2 259.3,270.7 		"/>
		<path fill-rule="evenodd" clip-rule="evenodd" fill="#00ADEE" d="M449.3,207.1c0-1.6-0.6-1.4-2.2-1.5l-1.1,1.5l0.6,1.5l2.6,0
			V207.1z"/>
		<path fill-rule="evenodd" clip-rule="evenodd" fill="#00ADEE" d="M61.7,267.6c0,1.2,0.4,1.5,1.6,1.5c1.3,0,1.6-0.4,1.6-1.5
			c0-0.6-1.1-1.5-2.2-1.5C62,266.1,61.7,266.8,61.7,267.6z"/>
		<path fill-rule="evenodd" clip-rule="evenodd" fill="#00ADEE" d="M400.1,336.4c0-0.4-1.2-1.5-1.6-1.5c-1.2,0-0.7,0.2-2.2,0.5v2.1
			h2.2C399.3,337.4,400.1,337.1,400.1,336.4z"/>
		<path fill-rule="evenodd" clip-rule="evenodd" fill="#00ADEE" d="M101.6,193.2l-2.2,0l-0.7,4.1c1.7-0.1,2.3,0,2.3-1.5
			C101.1,194.4,101.4,194.4,101.6,193.2z"/>
		<path fill-rule="evenodd" clip-rule="evenodd" fill="#00ADEE" d="M145.5,266.1c0-1.1-1.4-1.4-2.7-1.5l-0.5,3.1
			C144.1,267.6,145.5,268,145.5,266.1z"/>
		<path fill-rule="evenodd" clip-rule="evenodd" fill="#00ADEE" d="M47.4,240.4c0,1.9,0.2,3.1,2.2,3.1c0.8,0,1.1-0.7,1.1-1.5
			C50.7,240.7,49,240.5,47.4,240.4z"/>
		<path fill-rule="evenodd" clip-rule="evenodd" fill="#00ADEE" d="M176.7,245.1c0,1.2,0.4,1.5,1.6,1.5c0.8,0,1.3-1.1,1.6-1.5
			l-0.6-1.5C177.6,243.6,176.7,243.3,176.7,245.1z"/>
		<path fill-rule="evenodd" clip-rule="evenodd" fill="#00ADEE" d="M181.6,239.4c-1.3,0-1.6,0.4-1.6,1.5c0,0.3,0.8,1.1,1.1,1.5
			l2.2-0.6C183.2,240.3,183.4,239.4,181.6,239.4z"/>
		<path fill-rule="evenodd" clip-rule="evenodd" fill="#00ADEE" d="M219.9,236.8c0-1.2-2.9-1.5-4.4-1.5c0.2,2.7,0.9,1.9,3.8,2.6
			C220.1,236.6,219.9,238,219.9,236.8z"/>
		<path fill-rule="evenodd" clip-rule="evenodd" fill="#00ADEE" d="M76.5,189.1c2.7-0.1,3.6-0.7,3.8-3.1
			C77.6,186.1,76.7,186.8,76.5,189.1z"/>
		<path fill-rule="evenodd" clip-rule="evenodd" fill="#00ADEE" d="M213.9,216.3h1.6c-0.2-2.1-1-2.9-3.3-3.1v1.5
			C212.3,216,212.6,216.3,213.9,216.3z"/>
		<path fill-rule="evenodd" clip-rule="evenodd" fill="#00ADEE" d="M223.8,236.3c1.3,0,1.6-0.4,1.6-1.5c0-1-1.8-1.3-2.7-1.5
			c-0.4,1.5-0.5,0.9-0.5,2.1C222.1,236,222.9,236.3,223.8,236.3z"/>
		<path fill-rule="evenodd" clip-rule="evenodd" fill="#00ADEE" d="M124.6,273.8v-2.6H123c-1.3,0-1.6,0.4-1.6,1.5c0,0.7,0.7,1,1.6,1
			H124.6z"/>
		<path fill-rule="evenodd" clip-rule="evenodd" fill="#00ADEE" d="M320.1,213.7c0-0.7-0.7-1-1.6-1h-1.6v2.6h1.6
			C319.7,215.3,320.1,214.9,320.1,213.7z"/>
		<path fill-rule="evenodd" clip-rule="evenodd" fill="#00ADEE" d="M244.6,265.8c0-0.7-0.7-1-1.6-1h-1.6v2.6h1.6
			C244.2,267.4,244.6,267,244.6,265.8z"/>
		<path fill-rule="evenodd" clip-rule="evenodd" fill="#00ADEE" d="M265.4,231.2v-1.5c-1.8,0-2.7-0.2-2.7,1.5v1.5
			C264.4,232.7,265.4,232.9,265.4,231.2z"/>
		<path fill-rule="evenodd" clip-rule="evenodd" fill="#00ADEE" d="M449.3,130.1c-0.9,0-1.3,1.4-1.4,2l0.4,1.1
			c1.7,0,2.7,0.2,2.7-1.5C451,130.4,450.6,130.1,449.3,130.1z"/>
		<path fill-rule="evenodd" clip-rule="evenodd" fill="#00ADEE" d="M443.3,189.1c0-1.2-1.5-1-2.7-1l-0.3,2l0.4,1.1
			C442.2,191,443.3,190.8,443.3,189.1z"/>
		<path fill-rule="evenodd" clip-rule="evenodd" fill="#00ADEE" d="M492.6,248.1c0,0.8,0.3,1.5,1.1,1.5c0.5,0,2.2-1.6,2.2-2.1
			c0-0.7-0.8-1-1.6-1C493,246.6,492.6,247,492.6,248.1z"/>
		<path fill-rule="evenodd" clip-rule="evenodd" fill="#00ADEE" d="M337.1,281.5v1.5c1.8,0,2.7,0.2,2.7-1.5c0-1.2-0.4-1.5-1.6-1.5
			C337.4,280,337.1,280.7,337.1,281.5z"/>
		<path fill-rule="evenodd" clip-rule="evenodd" fill="#00ADEE" d="M301.5,159.9c0.8,0,1.1-0.7,1.1-1.5c0-1.7-1-1.5-2.7-1.5v1.5
			C299.9,159.5,300.2,159.9,301.5,159.9z"/>
		<path fill-rule="evenodd" clip-rule="evenodd" fill="#00ADEE" d="M328.9,288.7h1.6c0-1.6,0.2-2.6-1.6-2.6c-1.3,0-1.6,0.4-1.6,1.5
			C327.2,288.4,328,288.7,328.9,288.7z"/>
		<path fill-rule="evenodd" clip-rule="evenodd" fill="#00ADEE" d="M385.3,162.9c0-0.7-0.8-1-1.6-1c-1.8,0-1.6,0.9-1.6,2.6h1.6
			C384.9,164.5,385.3,164.1,385.3,162.9z"/>
		<path fill-rule="evenodd" clip-rule="evenodd" fill="#00ADEE" d="M376,240.4c-1.3,0-1.6,0.4-1.6,1.5c0,0.7,0.7,1,1.6,1
			c1.8,0,1.6-0.9,1.6-2.6H376z"/>
		<path fill-rule="evenodd" clip-rule="evenodd" fill="#00ADEE" d="M308.6,157.3c0-0.7-0.8-1-1.6-1c-0.8,0-1.1,0.7-1.1,1.5v1.5h2.2
			C308.4,157.9,308.6,158.5,308.6,157.3z"/>
		<path fill-rule="evenodd" clip-rule="evenodd" fill="#00ADEE" d="M378.7,263c0,1,1.8,1.1,2.7,1.5l1.1-0.6l0-1.5
			c-1.2-0.3-1.3-0.5-2.7-0.5C379.3,262,378.7,262.6,378.7,263z"/>
		<path fill-rule="evenodd" clip-rule="evenodd" fill="#00ADEE" d="M432.9,200.9c-1.5,0.1-2.2,0-2.2,1.5v1.5c1.2,0,2.7,0.2,2.7-1
			C433.5,201.9,433.3,202.3,432.9,200.9z"/>
		<path fill-rule="evenodd" clip-rule="evenodd" fill="#00ADEE" d="M407.7,137.3l3.3-0.5v-2.1h-1.6
			C407.5,134.7,407.8,135.6,407.7,137.3z"/>
		<path fill-rule="evenodd" clip-rule="evenodd" fill="#00ADEE" d="M403.9,133.2c-0.8,0-1.1,0.7-1.1,1.5c0,1.2,0.4,1.5,1.6,1.5
			c0.8,0,1.1-0.7,1.1-1.5C405.5,133.5,405.2,133.2,403.9,133.2z"/>
		<path fill-rule="evenodd" clip-rule="evenodd" fill="#00ADEE" d="M48.5,192.2c0,0.7,0.8,1,1.6,1c1.3,0,1.6-0.4,1.6-1.5
			c0-0.7-0.8-1-1.6-1C48.9,190.6,48.5,191,48.5,192.2z"/>
		<path fill-rule="evenodd" clip-rule="evenodd" fill="#00ADEE" d="M142.7,248.6c0.8,0,1.1-0.7,1.1-1.5c0-1.2-0.4-1.5-1.6-1.5
			c-0.8,0-1.1,0.7-1.1,1.5C141.1,248.3,141.5,248.6,142.7,248.6z"/>
		<polygon fill-rule="evenodd" clip-rule="evenodd" fill="#00ADEE" points="181.6,228.5 181.6,230.7 184.8,231.3 184.9,229.1 		"/>
		<path fill-rule="evenodd" clip-rule="evenodd" fill="#00ADEE" d="M226.5,186h-3.3c0,1.6-0.1,2.6,1.6,2.6
			C226,188.6,226.4,187.2,226.5,186z"/>
		<path fill-rule="evenodd" clip-rule="evenodd" fill="#00ADEE" d="M462.2,287.9c-1.1,0-1.5,1.4-1.6,2.6h3.3
			C463.8,288.8,464,287.9,462.2,287.9z"/>
		<path fill-rule="evenodd" clip-rule="evenodd" fill="#00ADEE" d="M170.1,225c0,1.1,0.2,0.7,0.6,2.1c1.5-0.1,2.2,0,2.2-1.5
			c0-1.2-0.4-1.5-1.6-1.5C170.7,224,170.1,224.6,170.1,225z"/>
		<path fill-rule="evenodd" clip-rule="evenodd" fill="#00ADEE" d="M396.8,237.4c0,0.7,0.7,1,1.6,1c1.3,0,1.1-1.4,1.1-2.6l-2.2-0.6
			C397,236.8,396.8,236.2,396.8,237.4z"/>
		<path fill-rule="evenodd" clip-rule="evenodd" fill="#00ADEE" d="M322.3,302.5c0-0.7-0.7-1-1.6-1c-1.1,0-1.5,1.4-1.6,2.6h1.6
			C321.9,304.1,322.3,303.7,322.3,302.5z"/>
		<path fill-rule="evenodd" clip-rule="evenodd" fill="#00ADEE" d="M257.1,256.3c0-0.8-1.5-1.2-2.2-1.5l-1.1,0.5v2.1h1.6
			C256.4,257.4,257.1,257.1,257.1,256.3z"/>
		<path fill-rule="evenodd" clip-rule="evenodd" fill="#00ADEE" d="M181.6,172.2c0.4-1.5,0.5-0.9,0.5-2.1c0-1.1-1.1-0.9-2.2-1
			l-0.5,1.5l0.6,1.5L181.6,172.2z"/>
		<path fill-rule="evenodd" clip-rule="evenodd" fill="#00ADEE" d="M78.7,214.8H77c-1.8,0-1.6,0.9-1.6,2.6
			C78.9,217.3,77.5,217,78.7,214.8z"/>
		<path fill-rule="evenodd" clip-rule="evenodd" fill="#00ADEE" d="M307,233.2c0,1,1.8,1.3,2.7,1.5v-1.5c0-1.2-0.4-1.5-1.6-1.5
			C307.3,231.7,307,232.4,307,233.2z"/>
		<path fill-rule="evenodd" clip-rule="evenodd" fill="#00ADEE" d="M345.3,199.9c1.3,0,1.6-0.4,1.6-1.5c0-0.7-0.7-1-1.6-1
			c-0.5,0-1.6,1.1-1.6,1.5C343.7,199.6,344.4,199.9,345.3,199.9z"/>
		<path fill-rule="evenodd" clip-rule="evenodd" fill="#00ADEE" d="M181.6,204c-1.3,0-1.6,0.4-1.6,1.5c0,0.7,0.8,1,1.6,1
			c0.5,0,1.6-1.1,1.6-1.5C183.2,204.3,182.5,204,181.6,204z"/>
		<path fill-rule="evenodd" clip-rule="evenodd" fill="#00ADEE" d="M498.6,175.2c-0.5,0-1.6,1.1-1.6,1.5c0,0.7,0.7,1,1.6,1
			c1.3,0,1.6-0.4,1.6-1.5C500.3,175.6,499.5,175.2,498.6,175.2z"/>
		<path fill-rule="evenodd" clip-rule="evenodd" fill="#00ADEE" d="M275.8,258.4c-0.7,0-1.6,1.1-1.6,2.1c0,0.7,0.7,1,1.6,1
			c0.8,0,1.1-0.7,1.1-1.5C276.9,259.1,276.5,258.4,275.8,258.4z"/>
		<path fill-rule="evenodd" clip-rule="evenodd" fill="#00ADEE" d="M335.5,130.6V128h-2.7C332.7,130.6,332.8,130.5,335.5,130.6z"/>
		<polygon fill-rule="evenodd" clip-rule="evenodd" fill="#00ADEE" points="76.5,196.8 73.7,196.3 73.2,198.4 76.4,199 		"/>
		<path fill-rule="evenodd" clip-rule="evenodd" fill="#00ADEE" d="M408.3,188.1c-2.7,0.1-2.7,0-2.7,2.6h2.7V188.1z"/>
		<path fill-rule="evenodd" clip-rule="evenodd" fill="#00ADEE" d="M109.9,194.2v2.6h2.7C112.5,194.3,112.6,194.3,109.9,194.2z"/>
		<path fill-rule="evenodd" clip-rule="evenodd" fill="#00ADEE" d="M430.2,237.4h2.7v-2.6C430.2,234.8,430.2,234.8,430.2,237.4z"/>
		<path fill-rule="evenodd" clip-rule="evenodd" fill="#00ADEE" d="M354.6,278.4c-2.7,0.1-2.7,0-2.7,2.6h2.7V278.4z"/>
		<path fill-rule="evenodd" clip-rule="evenodd" fill="#00ADEE" d="M437.8,148c0,2,0.3,1.9,1.1,3.1l1.6-0.6
			C440.5,148.1,440.5,148.1,437.8,148z"/>
		<path fill-rule="evenodd" clip-rule="evenodd" fill="#00ADEE" d="M153.7,252.8c-1.3,0-1.6,0.4-1.6,1.5c0,0.7,0.7,1,1.6,1
			c0.9,0,1.3-1.4,1.6-2.1C153.9,252.6,155.8,252.8,153.7,252.8z"/>
		<path fill-rule="evenodd" clip-rule="evenodd" fill="#00ADEE" d="M331.1,204.5c0,1.1,2.6,1.4,3.8,1.5v-1.5h-1.6v-1
			C332.2,203.6,331.1,203.5,331.1,204.5z"/>
		<path fill-rule="evenodd" clip-rule="evenodd" fill="#00ADEE" d="M270.8,204c0,1.2,1.5,1,2.7,1v-2.6
			C271.8,202.5,270.8,202.3,270.8,204z"/>
		<path fill-rule="evenodd" clip-rule="evenodd" fill="#00ADEE" d="M328.3,199.4h2.7c0-1.6,0.2-2.6-1.6-2.6
			C328.2,196.8,328.4,198.2,328.3,199.4z"/>
		<path fill-rule="evenodd" clip-rule="evenodd" fill="#00ADEE" d="M401.2,315.9c0-1.2-1.5-1-2.7-1v2.6
			C400.2,317.4,401.2,317.6,401.2,315.9z"/>
		<path fill-rule="evenodd" clip-rule="evenodd" fill="#00ADEE" d="M270.6,273.8c1.8,0,2.7,0.2,2.7-1.5c0-1.2-1.5-1-2.7-1V273.8z"/>
		<path fill-rule="evenodd" clip-rule="evenodd" fill="#00ADEE" d="M355.7,239.4c0-1.2-1.5-1-2.7-1v2.6
			C354.7,240.9,355.7,241.1,355.7,239.4z"/>
		<path fill-rule="evenodd" clip-rule="evenodd" fill="#00ADEE" d="M90.7,193.2c-1.4,0-1.6,1.6-1.6,3.1c1.6-0.1,2.7-0.4,2.7-2.1
			C91.8,193.8,91.2,193.2,90.7,193.2z"/>
		<path fill-rule="evenodd" clip-rule="evenodd" fill="#00ADEE" d="M260.4,161.9l-0.5,1l0.6,1.5c2.3-0.1,0.9,0.1,2.6-1l-0.6-1.5
			L260.4,161.9z"/>
		<path fill-rule="evenodd" clip-rule="evenodd" fill="#00ADEE" d="M317.4,293.8c0-0.7-0.7-1-1.6-1h-1.6v2.1h1.6
			C316.6,294.8,317.4,294.5,317.4,293.8z"/>
		<path fill-rule="evenodd" clip-rule="evenodd" fill="#00ADEE" d="M80.3,198.3c-1.4,0-1.6,1.6-1.6,3.1c2.4-0.2,2.2-0.4,2.7-2.6
			C80,198.2,81.5,198.3,80.3,198.3z"/>
		<polygon fill-rule="evenodd" clip-rule="evenodd" fill="#00ADEE" points="79.6,275.4 78.7,275.3 76.5,274.8 77,276.9 80.2,278.1 
					"/>
		<path fill-rule="evenodd" clip-rule="evenodd" fill="#00ADEE" d="M290.6,150.1c0,0,1.5,1,1.6,1c0.8,0,1.1-0.7,1.1-1.5V148
			C290.7,148.2,291.5,148.5,290.6,150.1z"/>
		<path fill-rule="evenodd" clip-rule="evenodd" fill="#00ADEE" d="M223.8,181.9c-2.7,0.1-2.7,0-2.7,2.6
			C223.7,184.4,223.7,184.5,223.8,181.9z"/>
		<path fill-rule="evenodd" clip-rule="evenodd" fill="#00ADEE" d="M340.4,184.5c2.2,0,2-0.2,3.3-1l-0.5-1.5
			C340.8,182.1,340.6,182.3,340.4,184.5z"/>
		<path fill-rule="evenodd" clip-rule="evenodd" fill="#00ADEE" d="M339.8,148c0,1.6-0.2,2.6,1.6,2.6c0.8,0,1.1-0.7,1.1-1.5
			C342.6,147.9,341,148.1,339.8,148z"/>
		<path fill-rule="evenodd" clip-rule="evenodd" fill="#00ADEE" d="M288.4,161.9c-0.8,0-1.1,0.7-1.1,1.5c0,1.2,1.5,1,2.7,1
			C290,162.8,290.2,161.9,288.4,161.9z"/>
		<path fill-rule="evenodd" clip-rule="evenodd" fill="#00ADEE" d="M331.9,308.9c0-0.7-0.8-1-1.6-1c-1.3,0-1.1,1.4-1.1,2.6
			C330.9,310.4,331.9,310.6,331.9,308.9z"/>
		<path fill-rule="evenodd" clip-rule="evenodd" fill="#00ADEE" d="M431.3,242c0-0.7-0.7-1-1.6-1c-1.3,0-1.1,1.4-1.1,2.6
			C430.3,243.5,431.3,243.7,431.3,242z"/>
		<path fill-rule="evenodd" clip-rule="evenodd" fill="#00ADEE" d="M519.4,206c0-0.7-0.8-1-1.6-1c-1.3,0-1.1,1.4-1.1,2.6
			C518.4,207.5,519.4,207.8,519.4,206z"/>
		<path fill-rule="evenodd" clip-rule="evenodd" fill="#00ADEE" d="M488.2,236.8c1.3,0,1.1-1.4,1.1-2.6c-1.8,0-2.7-0.2-2.7,1.5
			C486.6,236.5,487.3,236.8,488.2,236.8z"/>
		<path fill-rule="evenodd" clip-rule="evenodd" fill="#00ADEE" d="M531.5,169.1c1.3,0,1.1-1.4,1.1-2.6c-1.8,0-2.7-0.2-2.7,1.5
			C529.8,168.8,530.6,169.1,531.5,169.1z"/>
		<path fill-rule="evenodd" clip-rule="evenodd" fill="#00ADEE" d="M89.6,169.1c-1.8,0-2.7-0.2-2.7,1.5c0,0.7,0.7,1,1.6,1
			C89.8,171.7,89.6,170.2,89.6,169.1z"/>
		<path fill-rule="evenodd" clip-rule="evenodd" fill="#00ADEE" d="M190.9,174.2c0,1.1,1.5,1.4,2.7,1.5c-0.1-1.2-0.5-3.1-1.6-3.1
			C191.2,172.7,190.9,173.4,190.9,174.2z"/>
		<path fill-rule="evenodd" clip-rule="evenodd" fill="#00ADEE" d="M63.3,276.9h3.3c-0.1-1.4,0-2.1-1.6-2.1
			C63.3,274.8,63.5,275.4,63.3,276.9z"/>
		<path fill-rule="evenodd" clip-rule="evenodd" fill="#00ADEE" d="M311.9,251.2h-2.7c0,1.2-0.1,2.6,1.1,2.6
			C311.4,253.8,311.8,252.4,311.9,251.2z"/>
		<path fill-rule="evenodd" clip-rule="evenodd" fill="#00ADEE" d="M513.9,272.8c-1.1,0-1.5,1.4-1.6,2.6h2.7
			C515,274.2,515.2,272.8,513.9,272.8z"/>
		<path fill-rule="evenodd" clip-rule="evenodd" fill="#00ADEE" d="M287.8,194.8h-2.7c0.1,1.2,0.5,2.6,1.6,2.6
			C288,197.3,287.8,195.9,287.8,194.8z"/>
		<path fill-rule="evenodd" clip-rule="evenodd" fill="#00ADEE" d="M391.3,261c0-0.7-0.7-1-1.6-1c-0.8,0-1.1,0.7-1.1,1.5
			c0,0.7,0.7,1,1.6,1C391,262.5,391.3,261.8,391.3,261z"/>
		<path fill-rule="evenodd" clip-rule="evenodd" fill="#00ADEE" d="M454.8,214.8c-0.8,0-1.1,0.7-1.1,1.5c0,0.7,0.7,1,1.6,1
			c0.8,0,1.1-0.7,1.1-1.5C456.5,215.1,455.7,214.8,454.8,214.8z"/>
		<path fill-rule="evenodd" clip-rule="evenodd" fill="#00ADEE" d="M422,227.1c-0.8,0-1.1,0.7-1.1,1.5c0,0.7,0.8,1,1.6,1
			c0.8,0,1.1-0.7,1.1-1.5C423.6,227.4,422.9,227.1,422,227.1z"/>
		<path fill-rule="evenodd" clip-rule="evenodd" fill="#00ADEE" d="M187.6,213.2c0,0.7,0.7,1,1.6,1c0.8,0,1.1-0.7,1.1-1.5
			c0-0.7-0.7-1-1.6-1C187.9,211.7,187.6,212.4,187.6,213.2z"/>
		<path fill-rule="evenodd" clip-rule="evenodd" fill="#00ADEE" d="M478.4,261.5c0.8,0,1.1-0.7,1.1-1.5c0-0.7-0.7-1-1.6-1
			c-0.8,0-1.1,0.7-1.1,1.5C476.7,261.2,477.5,261.5,478.4,261.5z"/>
		<path fill-rule="evenodd" clip-rule="evenodd" fill="#00ADEE" d="M228.7,257.9c0-0.7-0.8-1-1.6-1c-0.8,0-1.1,0.7-1.1,1.5
			c0,0.7,0.8,1,1.6,1C228.3,259.4,228.7,258.7,228.7,257.9z"/>
		<path fill-rule="evenodd" clip-rule="evenodd" fill="#00ADEE" d="M25,235.3v-2.6l-2.2-0.4l0,1.5C22.8,235.3,23.4,235.2,25,235.3z"/>
		<rect x="440" y="284.1" fill-rule="evenodd" clip-rule="evenodd" fill="#00ADEE" width="2.2" height="2.6"/>
		<path fill-rule="evenodd" clip-rule="evenodd" fill="#00ADEE" d="M371.9,330.4l-0.3-1.5c-2.4,0.2-2.1,0.3-2.2,2.6h2.2L371.9,330.4
			z"/>
		<path fill-rule="evenodd" clip-rule="evenodd" fill="#00ADEE" d="M163.5,275.3l-1.2-0.3l-1.6,0.3v2.1
			C163.2,277.3,163.3,277.6,163.5,275.3z"/>
		<path fill-rule="evenodd" clip-rule="evenodd" fill="#00ADEE" d="M306.4,273.8c-2.3,0.2-2.5,0.4-2.7,2.6
			C306.4,276.3,306.4,276.3,306.4,273.8z"/>
		<path fill-rule="evenodd" clip-rule="evenodd" fill="#00ADEE" d="M27.7,258.4c0.1,1.2,0.5,3.1,1.6,3.1c0.5,0,1.1-0.6,1.1-1
			C30.5,259.3,29.1,258.5,27.7,258.4z"/>
		<path fill-rule="evenodd" clip-rule="evenodd" fill="#00ADEE" d="M35.4,242.5c0-0.1-0.5-1-0.5-1l-2.2,0.5c0,1.5,0.1,2.1,1.6,2.1
			C35.1,244,35.4,243.3,35.4,242.5z"/>
		<path fill-rule="evenodd" clip-rule="evenodd" fill="#00ADEE" d="M402.8,168.1c0-0.1-0.5-1-0.5-1l-2.2,0.5c0,1.5,0.1,2.1,1.6,2.1
			C402.5,169.6,402.8,168.9,402.8,168.1z"/>
		<path fill-rule="evenodd" clip-rule="evenodd" fill="#00ADEE" d="M434.6,310.2c0.8,0,1.1-0.7,1.1-1.5c0-0.8-0.3-1.5-1.1-1.5
			c-0.8,0-1.1,0.7-1.1,1.5C433.5,309.5,433.8,310.2,434.6,310.2z"/>
		<path fill-rule="evenodd" clip-rule="evenodd" fill="#00ADEE" d="M357.1,331.5c-0.1-1.2-0.5-2.6-1.6-2.6c-0.8,0-1.1,0.7-1.1,1.5
			C354.3,331.7,355.9,331.5,357.1,331.5z"/>
		<path fill-rule="evenodd" clip-rule="evenodd" fill="#00ADEE" d="M28.8,240.4l0.6-2c-1.4-0.7,0.1-0.5-1.2-0.5
			c-1.1,0-1.5,1.4-1.6,2.6H28.8z"/>
		<path fill-rule="evenodd" clip-rule="evenodd" fill="#00ADEE" d="M367.2,109.5l2.2-0.6l0-1.5l-2.2-0.6c-0.7,1.4-0.6-0.4-0.6,1.6
			C366.7,108.6,367.2,109.5,367.2,109.5z"/>
		<path fill-rule="evenodd" clip-rule="evenodd" fill="#00ADEE" d="M402.3,132.1l2.1,0.6l0.7-2.6
			C402.6,130.1,402.4,129.9,402.3,132.1z"/>
		<polygon fill-rule="evenodd" clip-rule="evenodd" fill="#00ADEE" points="78.4,223.8 75.6,223.4 75.7,225.2 78.4,225.9 		"/>
		<path fill-rule="evenodd" clip-rule="evenodd" fill="#00ADEE" d="M267.6,216.8c0,0.7,0.8,1,1.6,1c0.8,0,1.1-0.7,1.1-1.5
			c0-0.5-0.6-1-1.1-1C268.7,215.3,267.6,216.4,267.6,216.8z"/>
		<path fill-rule="evenodd" clip-rule="evenodd" fill="#00ADEE" d="M450,143.4c2.3-0.2,2-0.3,2.1-2.5c-2.4,0.2-1-0.1-2.7,1
			L450,143.4z"/>
		<path fill-rule="evenodd" clip-rule="evenodd" fill="#00ADEE" d="M175,200.9v-2.6h-2.2C172.8,200.6,172.7,200.7,175,200.9z"/>
		<path fill-rule="evenodd" clip-rule="evenodd" fill="#00ADEE" d="M528.2,214.8c-2.4,0.2-2.1,0.3-2.2,2.6h2.2V214.8z"/>
		<path fill-rule="evenodd" clip-rule="evenodd" fill="#00ADEE" d="M298.8,138.8h2.7v-2.1C299.1,136.8,299,136.6,298.8,138.8z"/>
		<path fill-rule="evenodd" clip-rule="evenodd" fill="#00ADEE" d="M378.2,157.3h-2.7v2.1C377.9,159.3,378,159.5,378.2,157.3z"/>
		<path fill-rule="evenodd" clip-rule="evenodd" fill="#00ADEE" d="M278.8,289.7v-2.1H276C276,289.7,276.6,289.7,278.8,289.7z"/>
		<path fill-rule="evenodd" clip-rule="evenodd" fill="#00ADEE" d="M142.2,242c-0.7,1.4-0.5-0.4-0.5,1.5c0,0.7,0.7,1,1.6,1
			c0.5,0,1.1-0.6,1.1-1C144.4,242.7,142.9,242.3,142.2,242z"/>
		<path fill-rule="evenodd" clip-rule="evenodd" fill="#00ADEE" d="M440.6,142.4c-1.1,0-1,1.1-1.1,2l1.6,0.6
			c0.3-0.4,1.1-1.2,1.1-1.5C442.2,142.7,441.5,142.4,440.6,142.4z"/>
		<path fill-rule="evenodd" clip-rule="evenodd" fill="#00ADEE" d="M166.3,226.6c-1.2,0-2.7-0.2-2.7,1s1.5,1,2.7,1V226.6z"/>
		<path fill-rule="evenodd" clip-rule="evenodd" fill="#00ADEE" d="M252,270.8c1.1,0,1.6-1.1,1.6-2.1c0,0-1.3-1.3-1.8-1.1
			C250.5,268.3,250.4,270.8,252,270.8z"/>
		<path fill-rule="evenodd" clip-rule="evenodd" fill="#00ADEE" d="M428,155.7c0,1.5,0.1,2.1,1.6,2.1c1.1,0,1-1.1,1.1-2.1H428z"/>
		<path fill-rule="evenodd" clip-rule="evenodd" fill="#00ADEE" d="M317.4,147c1.1,0,1-1.1,1.1-2.1h-2.7
			C315.7,146.4,315.8,147,317.4,147z"/>
		<path fill-rule="evenodd" clip-rule="evenodd" fill="#00ADEE" d="M528.2,221.4c2.5-0.2,2.5-0.1,2.7-2.1h-2.7V221.4z"/>
		<path fill-rule="evenodd" clip-rule="evenodd" fill="#00ADEE" d="M291.6,248.1h2.2v-2.6C291.8,245.8,291.8,245.7,291.6,248.1z"/>
		<path fill-rule="evenodd" clip-rule="evenodd" fill="#00ADEE" d="M434,275.3h2.7c-0.1-1.5,0-2.1-1.6-2.1
			C434,273.3,434.1,274.3,434,275.3z"/>
		<path fill-rule="evenodd" clip-rule="evenodd" fill="#00ADEE" d="M381.4,236.8c0-1.1-1.1-0.9-2.2-1v2.6
			C380.8,238.3,381.4,238.4,381.4,236.8z"/>
		<path fill-rule="evenodd" clip-rule="evenodd" fill="#00ADEE" d="M233.1,275.3v-2.6c-1.5,0.1-2.2,0-2.2,1.5
			C230.9,275.4,232,275.3,233.1,275.3z"/>
		<path fill-rule="evenodd" clip-rule="evenodd" fill="#00ADEE" d="M361.2,277.4c-1.5,0.1-2.2,0-2.2,1.5c0,1.1,1.1,0.9,2.2,1V277.4z
			"/>
		<path fill-rule="evenodd" clip-rule="evenodd" fill="#00ADEE" d="M422.5,162.4c-1.1,0-1,1.1-1.1,2.1h2.7
			C424,163,424.2,162.4,422.5,162.4z"/>
		<path fill-rule="evenodd" clip-rule="evenodd" fill="#00ADEE" d="M402.8,146c0,0.5,0.6,1,1.1,1c0.9,0,1.3-1.4,1.6-2.1
			C404.4,144.4,402.8,144,402.8,146z"/>
		<path fill-rule="evenodd" clip-rule="evenodd" fill="#00ADEE" d="M405.5,145l2.7,0.6l0-2.2C405.7,143.5,406.1,142.9,405.5,145z"/>
		<path fill-rule="evenodd" clip-rule="evenodd" fill="#00ADEE" d="M295,294.1c-0.1-2.3,0.2-2.4-2.2-2.6
			C292.8,293.8,292.7,293.9,295,294.1z"/>
		<path fill-rule="evenodd" clip-rule="evenodd" fill="#00ADEE" d="M494.2,264.3c-2.4,0.2-2.1,0.3-2.2,2.6
			C494.4,266.7,494.2,266.6,494.2,264.3z"/>
		<path fill-rule="evenodd" clip-rule="evenodd" fill="#00ADEE" d="M40.3,266.1c0.8,0,1.1-0.7,1.1-1.5c0-1-1.1-0.9-2.2-1
			C39.2,264.7,39.1,266.1,40.3,266.1z"/>
		<path fill-rule="evenodd" clip-rule="evenodd" fill="#00ADEE" d="M177.2,213.2c-1.1,0-1,1.1-1.1,2.1c1.2,0,2.7,0.2,2.7-1
			C178.9,213.5,178.1,213.2,177.2,213.2z"/>
		<path fill-rule="evenodd" clip-rule="evenodd" fill="#00ADEE" d="M413.2,139.8c0,0.7,0.8,1,1.6,1c1.1,0,1-1.1,1.1-2.1
			C414.7,138.8,413.2,138.6,413.2,139.8z"/>
		<path fill-rule="evenodd" clip-rule="evenodd" fill="#00ADEE" d="M97.3,189.1c0,0.5,0.6,1,1.1,1c1.3,0,1.1-1.4,1.1-2.6
			C97.9,187.7,97.3,187.6,97.3,189.1z"/>
		<rect x="352.4" y="127" fill-rule="evenodd" clip-rule="evenodd" fill="#00ADEE" width="2.2" height="2.1"/>
		<rect x="443.9" y="282.5" fill-rule="evenodd" clip-rule="evenodd" fill="#00ADEE" width="2.2" height="2.1"/>
		<rect x="267.6" y="193.2" fill-rule="evenodd" clip-rule="evenodd" fill="#00ADEE" width="2.2" height="2.1"/>
		<rect x="48.5" y="246.6" fill-rule="evenodd" clip-rule="evenodd" fill="#00ADEE" width="2.2" height="2.1"/>
		<rect x="221.6" y="170.1" fill-rule="evenodd" clip-rule="evenodd" fill="#00ADEE" width="2.2" height="2.1"/>
		<path fill-rule="evenodd" clip-rule="evenodd" fill="#00ADEE" d="M117,200.4c-0.2-2.4-0.1-2.4-2.2-2.6
			C114.8,200.1,114.7,200.2,117,200.4z"/>
		<path fill-rule="evenodd" clip-rule="evenodd" fill="#00ADEE" d="M18.4,264.6c0.2,2,1.2,2.5,2.2,3.6l0.5-1.5
			C18.9,265.1,21.3,265.3,18.4,264.6z"/>
		<path fill-rule="evenodd" clip-rule="evenodd" fill="#00ADEE" d="M167.9,258.9c-0.5,0-1.1,0.6-1.1,1c0,0.7,0.7,1,1.6,1
			c0.5,0,1.1-0.6,1.1-1C169.5,259.2,168.8,258.9,167.9,258.9z"/>
		<path fill-rule="evenodd" clip-rule="evenodd" fill="#00ADEE" d="M398.4,249.2c0.8,0,1.1-0.7,1.1-1.5c0-0.5-0.6-1-1.1-1
			c-0.8,0-1.1,0.7-1.1,1.5C397.3,248.6,397.9,249.2,398.4,249.2z"/>
		<path fill-rule="evenodd" clip-rule="evenodd" fill="#00ADEE" d="M509,248.6c0,0.1,0.5,1,0.6,1l1.6-0.6l0-2
			C509.7,247.2,509,247.1,509,248.6z"/>
		<path fill-rule="evenodd" clip-rule="evenodd" fill="#00ADEE" d="M354.6,175.2h2.2v-2.1C354.8,173.4,354.8,173.4,354.6,175.2z"/>
		<path fill-rule="evenodd" clip-rule="evenodd" fill="#00ADEE" d="M351.9,103.4h-2.2v2.1C351.7,105.3,351.7,105.3,351.9,103.4z"/>
		<path fill-rule="evenodd" clip-rule="evenodd" fill="#00ADEE" d="M430.7,246.1v2.1h2.2C432.7,246.2,432.7,246.2,430.7,246.1z"/>
		<path fill-rule="evenodd" clip-rule="evenodd" fill="#00ADEE" d="M258.8,171.7c2-0.2,2-0.2,2.2-2.1h-2.2V171.7z"/>
		<path fill-rule="evenodd" clip-rule="evenodd" fill="#00ADEE" d="M293.3,207.1c-2,0.2-2,0.2-2.2,2.1h2.2V207.1z"/>
		<path fill-rule="evenodd" clip-rule="evenodd" fill="#00ADEE" d="M97.3,269.2v2.1h2.2C99.3,269.3,99.3,269.3,97.3,269.2z"/>
		<path fill-rule="evenodd" clip-rule="evenodd" fill="#00ADEE" d="M532.6,234.8c2-0.2,2-0.2,2.2-2.1h-2.2V234.8z"/>
		<path fill-rule="evenodd" clip-rule="evenodd" fill="#00ADEE" d="M484.9,266.6h-2.2v2.1C484.8,268.5,484.8,268.5,484.9,266.6z"/>
		<path fill-rule="evenodd" clip-rule="evenodd" fill="#00ADEE" d="M353.5,117.8l-0.6,2l2.3-0.5
			C357.2,117.7,353.5,116.7,353.5,117.8z"/>
		<path fill-rule="evenodd" clip-rule="evenodd" fill="#00ADEE" d="M124.6,191.2c1.1,0,1-1.1,1.1-2.1h-2.2
			C123.6,190.1,123.6,191.2,124.6,191.2z"/>
		<path fill-rule="evenodd" clip-rule="evenodd" fill="#00ADEE" d="M108.2,220.9c0-1.1-1.1-0.9-2.2-1v2.1
			C107.1,221.9,108.2,222,108.2,220.9z"/>
		<path fill-rule="evenodd" clip-rule="evenodd" fill="#00ADEE" d="M63.9,231.2h2.2c-0.1-1,0-2.1-1.1-2.1
			C63.8,229.1,64,230.2,63.9,231.2z"/>
		<path fill-rule="evenodd" clip-rule="evenodd" fill="#00ADEE" d="M137.8,211.2c0-1-1.1-0.9-2.2-1v2.1
			C136.7,212.1,137.8,212.2,137.8,211.2z"/>
		<path fill-rule="evenodd" clip-rule="evenodd" fill="#00ADEE" d="M344.2,316.9v-2.1c-1.1,0.1-2.2,0-2.2,1
			C342,316.9,343.2,316.8,344.2,316.9z"/>
		<path fill-rule="evenodd" clip-rule="evenodd" fill="#00ADEE" d="M108.8,262v2.1c1.1-0.1,2.2,0,2.2-1
			C111,262,109.8,262.1,108.8,262z"/>
		<path fill-rule="evenodd" clip-rule="evenodd" fill="#00ADEE" d="M480.5,291.7c0-1.1-1.1-0.9-2.2-1v2.1
			C479.4,292.6,480.5,292.7,480.5,291.7z"/>
		<path fill-rule="evenodd" clip-rule="evenodd" fill="#00ADEE" d="M202.4,170.1c-1.1,0-1,1.1-1.1,2.1h2.2
			C203.4,171.2,203.5,170.1,202.4,170.1z"/>
		<path fill-rule="evenodd" clip-rule="evenodd" fill="#00ADEE" d="M97.8,237.4c0.5,0,1.1-0.6,1.1-1c0-1.1-1.1-0.9-2.2-1
			C96.7,236.3,96.8,237.4,97.8,237.4z"/>
		<path fill-rule="evenodd" clip-rule="evenodd" fill="#00ADEE" d="M171.2,207.6c1.1-0.1,2.2,0,2.2-1c0-0.5-0.6-1-1.1-1
			C171.2,205.5,171.3,206.6,171.2,207.6z"/>
		<path fill-rule="evenodd" clip-rule="evenodd" fill="#00ADEE" d="M497.5,214.3c1.1,0,1-1.1,1.1-2.1c-1.1,0.1-2.2,0-2.2,1
			C496.4,213.7,497,214.3,497.5,214.3z"/>
		<path fill-rule="evenodd" clip-rule="evenodd" fill="#00ADEE" d="M267.6,175.2c0-0.5-0.6-1-1.1-1c-1.1,0-1,1.1-1.1,2.1
			C266.4,176.2,267.6,176.3,267.6,175.2z"/>
		<path fill-rule="evenodd" clip-rule="evenodd" fill="#00ADEE" d="M50.2,271.7c0,0.5,0.6,1,1.1,1c1.1,0,1-1.1,1.1-2.1
			C51.3,270.8,50.2,270.7,50.2,271.7z"/>
		<path fill-rule="evenodd" clip-rule="evenodd" fill="#00ADEE" d="M274.7,185.5c-1.1,0.1-2.2,0-2.2,1c0,0.5,0.6,1,1.1,1
			C274.7,187.6,274.6,186.5,274.7,185.5z"/>
		<path fill-rule="evenodd" clip-rule="evenodd" fill="#00ADEE" d="M486,262c0-0.5-0.6-1-1.1-1c-1.1,0-1,1.1-1.1,2.1
			C484.9,262.9,486,263,486,262z"/>
		<path fill-rule="evenodd" clip-rule="evenodd" fill="#00ADEE" d="M348,193.2c2-0.2,2-0.2,2.2-2.1
			C348.2,191.3,348.2,191.3,348,193.2z"/>
		<rect x="406.6" y="209.1" fill-rule="evenodd" clip-rule="evenodd" fill="#00ADEE" width="1.6" height="2.1"/>
		<rect x="250" y="237.4" fill-rule="evenodd" clip-rule="evenodd" fill="#00ADEE" width="2.2" height="1.5"/>
		<rect x="339.3" y="130.1" fill-rule="evenodd" clip-rule="evenodd" fill="#00ADEE" width="2.2" height="1.5"/>
		<rect x="63.3" y="262.5" fill-rule="evenodd" clip-rule="evenodd" fill="#00ADEE" width="1.6" height="2.1"/>
		<rect x="42.5" y="176.8" fill-rule="evenodd" clip-rule="evenodd" fill="#00ADEE" width="1.6" height="2.1"/>
		<rect x="447.7" y="216.3" fill-rule="evenodd" clip-rule="evenodd" fill="#00ADEE" width="2.2" height="1.5"/>
		<rect x="110.4" y="189.1" fill-rule="evenodd" clip-rule="evenodd" fill="#00ADEE" width="2.2" height="1.5"/>
		<rect x="480.6" y="246.6" fill-rule="evenodd" clip-rule="evenodd" fill="#00ADEE" width="2.2" height="1.5"/>
		<rect x="425.2" y="196.8" fill-rule="evenodd" clip-rule="evenodd" fill="#00ADEE" width="2.2" height="1.5"/>
		<rect x="413.8" y="179.9" fill-rule="evenodd" clip-rule="evenodd" fill="#00ADEE" width="2.2" height="1.5"/>
		<rect x="287.8" y="246.6" fill-rule="evenodd" clip-rule="evenodd" fill="#00ADEE" width="1.6" height="2.1"/>
		<rect x="393.5" y="332.8" fill-rule="evenodd" clip-rule="evenodd" fill="#00ADEE" width="1.6" height="2.1"/>
		<rect x="415.9" y="270.2" fill-rule="evenodd" clip-rule="evenodd" fill="#00ADEE" width="1.6" height="2.1"/>
		<rect x="357.9" y="314.3" fill-rule="evenodd" clip-rule="evenodd" fill="#00ADEE" width="1.6" height="2.1"/>
		<path fill-rule="evenodd" clip-rule="evenodd" fill="#00ADEE" d="M146,217.3l-0.5-2.1c-2.4,1.2-1.4-0.4-1.6,2.1H146z"/>
		<path fill-rule="evenodd" clip-rule="evenodd" fill="#00ADEE" d="M255.5,176.3c0-0.5-0.6-1-1.1-1c-0.5,0-1.1,0.6-1.1,1
			s0.6,1,1.1,1C254.9,177.3,255.5,176.7,255.5,176.3z"/>
		<path fill-rule="evenodd" clip-rule="evenodd" fill="#00ADEE" d="M432.3,206.5c-0.5-1.8,0-1.3-2.3-1.4l0.6,2.1L432.3,206.5z"/>
		<path fill-rule="evenodd" clip-rule="evenodd" fill="#00ADEE" d="M108.8,166h-2.2v1.5C108.7,167.4,108.2,167.9,108.8,166z"/>
		<path fill-rule="evenodd" clip-rule="evenodd" fill="#00ADEE" d="M417,128.5c2-0.5,1.5,0,1.6-2.1H417V128.5z"/>
		<path fill-rule="evenodd" clip-rule="evenodd" fill="#00ADEE" d="M430.2,306.1c-2,0.5-1.5,0.1-1.6,2.1h1.6V306.1z"/>
		<path fill-rule="evenodd" clip-rule="evenodd" fill="#00ADEE" d="M350.2,164.5h2.2v-1.5C350.3,163.1,350.8,162.6,350.2,164.5z"/>
		<path fill-rule="evenodd" clip-rule="evenodd" fill="#00ADEE" d="M270.3,255.8c1,0,0.9-0.8,1.1-1.5h-2.2
			C269.2,255.1,269.5,255.8,270.3,255.8z"/>
		<path fill-rule="evenodd" clip-rule="evenodd" fill="#00ADEE" d="M341.5,156.3c-0.2-0.8-0.1-1.5-1.1-1.5c-1,0-0.9,0.8-1.1,1.5
			H341.5z"/>
		<path fill-rule="evenodd" clip-rule="evenodd" fill="#00ADEE" d="M528.7,244c-0.8,0.2-1.6,0.1-1.6,1c0,0.9,0.8,0.8,1.6,1V244z"/>
		<path fill-rule="evenodd" clip-rule="evenodd" fill="#00ADEE" d="M426.3,268.1c0,0.9,0.8,0.8,1.6,1v-2.1
			C427.2,267.3,426.3,267.2,426.3,268.1z"/>
		<path fill-rule="evenodd" clip-rule="evenodd" fill="#00ADEE" d="M250.6,235.3c0-0.9-0.8-0.8-1.6-1v2.1
			C249.7,236.1,250.6,236.2,250.6,235.3z"/>
		<path fill-rule="evenodd" clip-rule="evenodd" fill="#00ADEE" d="M96.2,201.9c0.8-0.2,1.6-0.1,1.6-1c0-0.9-0.8-0.8-1.6-1V201.9z"/>
		<path fill-rule="evenodd" clip-rule="evenodd" fill="#00ADEE" d="M147.5,216.9l0.6,2c1.8-1.2,1,0.3,1.2-2.1L147.5,216.9z"/>
		<path fill-rule="evenodd" clip-rule="evenodd" fill="#00ADEE" d="M183.1,231.7l0.6,2c1.8-1.2,1,0.3,1.2-2.1L183.1,231.7z"/>
		<path fill-rule="evenodd" clip-rule="evenodd" fill="#00ADEE" d="M469.3,270.7v-1l-2.2-0.5l-2.7-0.6l0,2.7l2.7-0.5
			C467.4,270.9,469.3,272,469.3,270.7z"/>
		<rect x="166.8" y="273.8" fill-rule="evenodd" clip-rule="evenodd" fill="#00ADEE" width="1.6" height="1.5"/>
		<rect x="98.9" y="262" fill-rule="evenodd" clip-rule="evenodd" fill="#00ADEE" width="1.6" height="1.5"/>
		<rect x="320.9" y="314.6" fill-rule="evenodd" clip-rule="evenodd" fill="#00ADEE" width="1.6" height="1.5"/>
		<rect x="88.5" y="251.2" fill-rule="evenodd" clip-rule="evenodd" fill="#00ADEE" width="1.6" height="1.5"/>
		<rect x="77" y="246.1" fill-rule="evenodd" clip-rule="evenodd" fill="#00ADEE" width="1.6" height="1.5"/>
		<rect x="71" y="198.3" fill-rule="evenodd" clip-rule="evenodd" fill="#00ADEE" width="1.6" height="1.5"/>
		<rect x="262.6" y="259.9" fill-rule="evenodd" clip-rule="evenodd" fill="#00ADEE" width="1.6" height="1.5"/>
		<rect x="399" y="206" fill-rule="evenodd" clip-rule="evenodd" fill="#00ADEE" width="1.6" height="1.5"/>
		<rect x="262.6" y="234.8" fill-rule="evenodd" clip-rule="evenodd" fill="#00ADEE" width="1.6" height="1.5"/>
		<rect x="522.4" y="262.5" fill-rule="evenodd" clip-rule="evenodd" fill="#00ADEE" width="1.6" height="1.5"/>
		<rect x="498.6" y="240.9" fill-rule="evenodd" clip-rule="evenodd" fill="#00ADEE" width="1.6" height="1.5"/>
		<rect x="267" y="284.6" fill-rule="evenodd" clip-rule="evenodd" fill="#00ADEE" width="1.6" height="1.5"/>
		<rect x="391.8" y="282" fill-rule="evenodd" clip-rule="evenodd" fill="#00ADEE" width="1.6" height="1.5"/>
		<rect x="46.6" y="273.3" fill-rule="evenodd" clip-rule="evenodd" fill="#00ADEE" width="1.6" height="1.5"/>
		<rect x="149.3" y="264.6" fill-rule="evenodd" clip-rule="evenodd" fill="#00ADEE" width="1.6" height="1.5"/>
		<rect x="119.7" y="262" fill-rule="evenodd" clip-rule="evenodd" fill="#00ADEE" width="1.6" height="1.5"/>
		<rect x="303.1" y="262" fill-rule="evenodd" clip-rule="evenodd" fill="#00ADEE" width="1.6" height="1.5"/>
		<rect x="461.4" y="258.9" fill-rule="evenodd" clip-rule="evenodd" fill="#00ADEE" width="1.6" height="1.5"/>
		<rect x="505.7" y="258.4" fill-rule="evenodd" clip-rule="evenodd" fill="#00ADEE" width="1.6" height="1.5"/>
		<rect x="241.3" y="256.3" fill-rule="evenodd" clip-rule="evenodd" fill="#00ADEE" width="1.6" height="1.5"/>
		<rect x="435.7" y="244.5" fill-rule="evenodd" clip-rule="evenodd" fill="#00ADEE" width="1.6" height="1.5"/>
		<rect x="137.2" y="239.4" fill-rule="evenodd" clip-rule="evenodd" fill="#00ADEE" width="1.6" height="1.5"/>
		<rect x="91.2" y="238.9" fill-rule="evenodd" clip-rule="evenodd" fill="#00ADEE" width="1.6" height="1.5"/>
		<rect x="535.9" y="229.1" fill-rule="evenodd" clip-rule="evenodd" fill="#00ADEE" width="0" height="1.5"/>
		<rect x="282.9" y="222.5" fill-rule="evenodd" clip-rule="evenodd" fill="#00ADEE" width="1.6" height="1.5"/>
		<rect x="317.4" y="222" fill-rule="evenodd" clip-rule="evenodd" fill="#00ADEE" width="1.6" height="1.5"/>
		<rect x="179.4" y="207.1" fill-rule="evenodd" clip-rule="evenodd" fill="#00ADEE" width="1.6" height="1.5"/>
		<rect x="110.4" y="198.9" fill-rule="evenodd" clip-rule="evenodd" fill="#00ADEE" width="1.6" height="1.5"/>
		<rect x="457" y="197.8" fill-rule="evenodd" clip-rule="evenodd" fill="#00ADEE" width="1.6" height="1.5"/>
		<rect x="493.7" y="193.7" fill-rule="evenodd" clip-rule="evenodd" fill="#00ADEE" width="1.6" height="1.5"/>
		<rect x="189.8" y="187.6" fill-rule="evenodd" clip-rule="evenodd" fill="#00ADEE" width="1.6" height="1.5"/>
		<rect x="489.3" y="187.6" fill-rule="evenodd" clip-rule="evenodd" fill="#00ADEE" width="1.6" height="1.5"/>
		<rect x="361.2" y="168.6" fill-rule="evenodd" clip-rule="evenodd" fill="#00ADEE" width="1.6" height="1.5"/>
		<rect x="337.1" y="140.3" fill-rule="evenodd" clip-rule="evenodd" fill="#00ADEE" width="1.6" height="1.5"/>
		<rect x="343.7" y="223.5" fill-rule="evenodd" clip-rule="evenodd" fill="#00ADEE" width="2.2" height="1"/>
		<path fill-rule="evenodd" clip-rule="evenodd" fill="#00ADEE" d="M44.7,263.5c-1,0-0.9,0.8-1.1,1.5l2.2-0.4
			C45.5,264.2,45.5,263.5,44.7,263.5z"/>
		<polygon fill-rule="evenodd" clip-rule="evenodd" fill="#00ADEE" points="491,247.6 488.8,248.1 488.8,249.7 490.9,250.3 		"/>
		<polygon fill-rule="evenodd" clip-rule="evenodd" fill="#00ADEE" points="124.6,241.5 123,241.5 123.7,243 124.6,243 		"/>
		<polygon fill-rule="evenodd" clip-rule="evenodd" fill="#00ADEE" points="81.9,272.3 82.5,273.3 83.6,272.8 84.2,270.7 
			81.4,270.7 		"/>
		<polygon fill-rule="evenodd" clip-rule="evenodd" fill="#00ADEE" points="487.1,202.5 487.7,204.5 488.8,204.5 489.4,202.5 		"/>
		<rect x="185.4" y="233.8" fill-rule="evenodd" clip-rule="evenodd" fill="#00ADEE" width="1.1" height="1.5"/>
		<rect x="424.1" y="283" fill-rule="evenodd" clip-rule="evenodd" fill="#00ADEE" width="1.1" height="1.5"/>
		<rect x="159.7" y="200.9" fill-rule="evenodd" clip-rule="evenodd" fill="#00ADEE" width="1.1" height="1.5"/>
		<rect x="363.9" y="123.4" fill-rule="evenodd" clip-rule="evenodd" fill="#00ADEE" width="1.1" height="1.5"/>
		<rect x="164.6" y="166" fill-rule="evenodd" clip-rule="evenodd" fill="#00ADEE" width="1.1" height="1.5"/>
		<rect x="104.9" y="259.9" fill-rule="evenodd" clip-rule="evenodd" fill="#00ADEE" width="1.1" height="1.5"/>
		<polygon fill-rule="evenodd" clip-rule="evenodd" fill="#00ADEE" points="329.2,292.5 327.5,294.1 329.4,294.3 		"/>
		<polygon fill-rule="evenodd" clip-rule="evenodd" fill="#00ADEE" points="365,293.3 363.1,293.6 364.7,295.1 		"/>
		<polygon fill-rule="evenodd" clip-rule="evenodd" fill="#00ADEE" points="227.3,267.4 227.6,265.6 225.7,265.8 		"/>
		<polygon fill-rule="evenodd" clip-rule="evenodd" fill="#00ADEE" points="173.1,239.7 173.4,237.9 171.5,238.1 		"/>
		<rect x="194.7" y="164" fill-rule="evenodd" clip-rule="evenodd" fill="#00ADEE" width="1.6" height="1"/>
		<rect x="239.6" y="182.9" fill-rule="evenodd" clip-rule="evenodd" fill="#00ADEE" width="1.6" height="1"/>
		<rect x="524.4" y="239.4" fill-rule="evenodd" clip-rule="evenodd" fill="#00ADEE" width="1.6" height="1"/>
		<rect x="481.1" y="240.4" fill-rule="evenodd" clip-rule="evenodd" fill="#00ADEE" width="1.6" height="1"/>
		<rect x="367.8" y="280.5" fill-rule="evenodd" clip-rule="evenodd" fill="#00ADEE" width="1.6" height="1"/>
		<rect x="374.3" y="288.7" fill-rule="evenodd" clip-rule="evenodd" fill="#00ADEE" width="1.6" height="1"/>
		<rect x="452.1" y="273.8" fill-rule="evenodd" clip-rule="evenodd" fill="#00ADEE" width="1.6" height="1"/>
		<rect x="42" y="185.5" fill-rule="evenodd" clip-rule="evenodd" fill="#00ADEE" width="1.1" height="1.5"/>
		<rect x="443.9" y="207.6" fill-rule="evenodd" clip-rule="evenodd" fill="#00ADEE" width="1.1" height="1.5"/>
		<rect x="90.7" y="255.8" fill-rule="evenodd" clip-rule="evenodd" fill="#00ADEE" width="1.1" height="1.5"/>
		<rect x="363.9" y="99.8" fill-rule="evenodd" clip-rule="evenodd" fill="#00ADEE" width="1.1" height="1.5"/>
		<rect x="85.8" y="199.9" fill-rule="evenodd" clip-rule="evenodd" fill="#00ADEE" width="1.1" height="1.5"/>
		<rect x="138.3" y="190.6" fill-rule="evenodd" clip-rule="evenodd" fill="#00ADEE" width="1.1" height="1.5"/>
		<rect x="317.9" y="175.2" fill-rule="evenodd" clip-rule="evenodd" fill="#00ADEE" width="1.1" height="1.5"/>
		<rect x="178.3" y="265.6" fill-rule="evenodd" clip-rule="evenodd" fill="#00ADEE" width="1.1" height="1.5"/>
		<rect x="285.6" y="264" fill-rule="evenodd" clip-rule="evenodd" fill="#00ADEE" width="1.1" height="1.5"/>
		<rect x="368" y="332.6" fill-rule="evenodd" clip-rule="evenodd" fill="#00ADEE" width="1.1" height="1.5"/>
		<rect x="314.6" y="252.8" fill-rule="evenodd" clip-rule="evenodd" fill="#00ADEE" width="1.1" height="1.5"/>
		<rect x="449.3" y="137.3" fill-rule="evenodd" clip-rule="evenodd" fill="#00ADEE" width="1.1" height="1.5"/>
		<rect x="415.9" y="314.3" fill-rule="evenodd" clip-rule="evenodd" fill="#00ADEE" width="1.1" height="1.5"/>
		<polygon fill-rule="evenodd" clip-rule="evenodd" fill="#00ADEE" points="302,202.5 300.1,202.7 301.8,204.2 		"/>
		<rect x="344.8" y="310.2" fill-rule="evenodd" clip-rule="evenodd" fill="#00ADEE" width="1.6" height="1"/>
		<polygon fill-rule="evenodd" clip-rule="evenodd" fill="#00ADEE" points="332.3,256.9 334.2,255.6 332.3,255.3 		"/>
		<polygon fill-rule="evenodd" clip-rule="evenodd" fill="#00ADEE" points="475.6,286.6 473.3,286.6 473.9,288.2 475,288.2 		"/>
		<polygon fill-rule="evenodd" clip-rule="evenodd" fill="#00ADEE" points="18.4,186 18.3,184.4 16.7,185.9 		"/>
		<polygon fill-rule="evenodd" clip-rule="evenodd" fill="#00ADEE" points="347.5,228.1 347.5,229.7 349.1,229.7 		"/>
		<rect x="235.8" y="243" fill-rule="evenodd" clip-rule="evenodd" fill="#00ADEE" width="1.1" height="1"/>
		<rect x="253.3" y="198.9" fill-rule="evenodd" clip-rule="evenodd" fill="#00ADEE" width="1.1" height="1"/>
		<rect x="364.5" y="307.2" fill-rule="evenodd" clip-rule="evenodd" fill="#00ADEE" width="1.1" height="1"/>
		<polygon fill-rule="evenodd" clip-rule="evenodd" fill="#00ADEE" points="303.1,292.3 301.5,291.7 301.5,293.8 303.1,293.3 		"/>
		<rect x="313.6" y="266.1" fill-rule="evenodd" clip-rule="evenodd" fill="#00ADEE" width="1.1" height="1"/>
		<rect x="94.5" y="239.4" fill-rule="evenodd" clip-rule="evenodd" fill="#00ADEE" width="1.1" height="1"/>
		<rect x="121.4" y="236.8" fill-rule="evenodd" clip-rule="evenodd" fill="#00ADEE" width="1.1" height="1"/>
		<polygon fill-rule="evenodd" clip-rule="evenodd" fill="#00ADEE" points="178.3,229.7 178.3,228.6 176.7,228 177.2,229.7 		"/>
		<rect x="223.8" y="224" fill-rule="evenodd" clip-rule="evenodd" fill="#00ADEE" width="1.1" height="1"/>
		<polygon fill-rule="evenodd" clip-rule="evenodd" fill="#00ADEE" points="278.5,217.9 279.1,216.3 276.9,216.3 277.4,217.9 		"/>
		<rect x="515.6" y="190.6" fill-rule="evenodd" clip-rule="evenodd" fill="#00ADEE" width="1.1" height="1"/>
		<rect x="331.1" y="149.1" fill-rule="evenodd" clip-rule="evenodd" fill="#00ADEE" width="1.1" height="1"/>
		<rect x="273" y="167.5" fill-rule="evenodd" clip-rule="evenodd" fill="#00ADEE" width="1.1" height="1"/>
		<path fill-rule="evenodd" clip-rule="evenodd" fill="#00ADEE" d="M435.6,165.1l-0.5-2.1c-2.5,0.2-1-0.6-2.2,1l0.5,0.5L435.6,165.1
			z"/>
		<polygon fill-rule="evenodd" clip-rule="evenodd" fill="#00ADEE" points="288.4,270.7 290,270.7 288.4,269.7 		"/>
		<polygon fill-rule="evenodd" clip-rule="evenodd" fill="#00ADEE" points="239.7,273.8 238,274.3 238,275.3 239.1,275.3 		"/>
		<path fill-rule="evenodd" clip-rule="evenodd" fill="#00ADEE" d="M644.7,233.3h0.6l0.5-1.6l-0.4-0.3v0c0-1.7,1.2-1.2,1.1-2.1
			l-0.6-5.1c2-0.2,3.9-0.8,3.9-2.6c0-1.2-0.9-2.1-2.2-2.1H647c-1.8,0-1.6,0.9-1.6,2.6l-3.3,0.6c0.5-2,0-1.5,2.2-1.7V219h-1.1v-4.6
			l1.7-0.5l-1.4-1.8l-0.3-1.3c1.7-0.4,3.3-0.3,3.3-2.1c0-1.1-1.1-0.9-2.2-1c0.5-1,0.9-2.1-1.1-2.1c-1.7,0-0.9,1.9-0.5,2.6
			c-3.3-0.8-1-1.9-4.4-3.6c0.8-1.1,1.6-1.3,1.6-2.6c0-1.5-1.5-0.8-2.2-0.5c0.5-1.8,1.4-3.1,3.8-3.1c2.2,0,3.1-0.5,3.3-2.6h-1.6v-1.5
			c-2.5,0.2-2.8,1.6-4.8,3.2c-2.4,2-2.2,1.7-5.1,2.9l-1.1,0.5V199l-2.3,0l0.6-1l0.6-1.5c-3.6,0.2-2.1,2-4.5,2H624
			c-1.6,0-3,2.2-3.8,3.1l-0.7-2.5l-1.5,0c-1.7,0-3.8-0.4-3.8,1.5v2.1h1.6v2.1c0,0.8-0.6,1.5-1.3,2c0.1-0.3,0.1-0.5,0.1-0.7
			c0-0.9-3.3-3.6-5.5-3.6h-0.5c-2.3,0-2.5,0.8-3.5,1.4c-0.2-0.1-0.4-0.3-0.5-0.4c0.6-0.5,1.3-1.4,1.3-2.1c0-0.4-0.2-0.8-0.4-1.2
			c0.4-0.2,0.6-0.2,0.6-1.3v-1c0-1.7-2-2.6-3.8-2.6c-2,0-0.9,1-2.7,1.4h-1.2v1.5h0.1v1.7c-3.7-0.1-3.2-2.1-6.6-2.1
			c-1.9,0-0.8-1-2.7-1h-1.1c-1.7,0-1.8-1.5-3.8-1.5c-1.1,0-1,1.1-1.1,2.1c5.1,1.1,14.4,6.7,18.1,6.7h0.5c0.5,0,1.2,0.5,2.1,1.1v2.4
			c0,0.4,0.1,0.8,0.1,1.2l0,0h-1.6c-1.7,0-1.5,0.6-1.6,2.1l3.8,0.6l-1.1,2c-0.6-0.3-2.2-0.9-2.2,0.5c0,1.1,0.8-0.2,1.1,2.6
			c3.6,0.3,3,3.1,5.5,3.1h1.6c0.2-1.4,1-2.5,2.1-3.1c0.1,0.7,0.6,0.9,1.6,0.9c0,0,0.1,0,0.1,0l0.5,1.2c-0.4,0.8-1,1.3-1.6,1.7
			l0.5-2.3l-2.3,0l-1.1,2.7l1.7,0.3c-1.6,0.7-3.2,1-3.2,2.8c0,1.2,0.4,1.1,1.1,2.1h1.1h1.6c0.1,3.6,2.2,4.1,2.2,5.6v1.5h1.6v-4.6
			l3.3,0.5c-0.2,2.4-1.7,5.5-1.7,7.2c0,1.4-0.3,1.4-0.5,2.6l2.2,0.6c0.2-1.7,0.6-1.9,0.6-3.7v-1.5l1.7-0.5l0-1.1v-0.5
			c0-0.8,0.3-1.5,1.1-1.5c1.5,0,2.9,1.5,6,1.5h0.5c1.1,0,3.4-1.2,3.8-2.6c1.8,0.4,4.6,2.9,5.5,4.1h2.2c0.6,0.8,0.1,1,1.6,1
			C642.2,234.4,643.7,233.7,644.7,233.3z M610.9,211.9h1.1v2.6C610.5,213.4,610.9,214.5,610.9,211.9z M617.4,202.6l-1,0l-0.6-1.5
			l1.6,0V202.6z"/>
		<path fill-rule="evenodd" clip-rule="evenodd" fill="#00ADEE" d="M759.3,252c-2.1-2.1-4.2-4.4-5.8-6.6c-1-1.4-2.6-2.3-4.2-4.3
			c-1.5-1.9-2.2-2.9-3.9-4.6c-2.8-2.6-5-7-9.4-7.1c0.3,2.9,10.3,13.7,12.7,16.3c1.7,1.8,6.9,6.1,10.5,9.8
			C759.1,254.4,759.2,253.2,759.3,252z"/>
		<path fill-rule="evenodd" clip-rule="evenodd" fill="#00ADEE" d="M682.3,277.4c1.3-0.1,2.6,0.1,4.1,0.2c0.4,0,0.8,0,1.2,0
			c0,0,0.1,0,0.1,0c0.3,0,0.6,0,0.9,0c0.5,0,1-0.1,1.5-0.1c0.5,0,1.1,0,1.7,0v-0.2c0-2.4-0.6-3.7-1.1-5.6h-1.6c-1.9,0-0.8-1-2.7-1
			h-2.2c-2.4,0-1.7,0.8-4.4,1l-1.4,1.8l-0.9,4.4l0,0C679.1,277.7,680.7,277.5,682.3,277.4z"/>
		<path fill-rule="evenodd" clip-rule="evenodd" fill="#00ADEE" d="M647.4,239.9c1.9,1.2,4.8,5.2,7.5,4.4l2.2,0.9l0.1-1.7
			c0-1.2,0.4-1.5,1.6-1.5c1.8,0,2.1,1.5,5.5,1.5c-1-1.8-1.4-2-3.8-2.6l0.9-1.7l0.2-1.9l1.7-2l-2.3,0c-0.9-1.6-3.1-4.6-5.5-4.6
			c-2.1,0-2.3-0.3-2.7-1.5h-2.2c-0.2,1.9-4.4,6.8-4.4,7.2c0,1,1.1,0.3,1.1,2.1v0.5V239.9z"/>
		<path fill-rule="evenodd" clip-rule="evenodd" fill="#00ADEE" d="M590.5,232.2c0.8,0,1.3-1.1,1.6-1.5l-1.1-2l-1.1,0h-1.1l-1.1,2
			l-2.7,0.4c-1.7-2.9-0.7-1.6-3.8-2.9l-4.4,0.6c-0.5,1.6-3.8,4.3-3.8,6c0,0.7,0.6,0.8,1.1,1l-0.6,4.1l3.4,0v1l6.9,0.4l2.4,1.2
			c0.7-0.6,1.7-1,1.7-1.6c0-0.9-1.3-1.3-2.2-1.5c0.6-2.1,1.4-1.5,2.2-4.6l-1-1.1l1-1.9C589,232,589,232.2,590.5,232.2z"/>
		<path fill-rule="evenodd" clip-rule="evenodd" fill="#00ADEE" d="M585.6,206.1c-0.8-1-1.3-1.5-3.3-1.5h-2.2c-2.6,0-6,1.8-6,4.6
			c0,1.4-0.3,1.4-0.5,2.6c0.5,2.2,3.7,5.6,6,5.6c2.1,0,1.2-0.5,3.8-0.5c1.8,0,3.8-3.5,3.8-4.6v-2.1h2.7v-2.1h-1.1
			C588.8,205.2,588.2,204.9,585.6,206.1z"/>
		<path fill-rule="evenodd" clip-rule="evenodd" fill="#00ADEE" d="M634.8,262.6c0-4.8-4.3-3.5-4.3-9.3c0-1.1-0.2-1.1-0.4-2
			c-0.8,0.1-1.7,0-1.7,0.8c0,2.1,1.1,4.2,1.3,6.5l-1.4,1.6l-1.7,0.1c-1.7,2.4-5.2,3.5-5.2,7.7c3.1-0.2,4.5-6,7.7-6h0.4
			c2.4,0,2.9,3,4.7,3.6v2.4c0,1.4,1.1,4.8,2.2,4.8c0.6,0,0.9-0.6,0.9-1.2c0-0.8-1.7-4.7-1.7-6.9C635.7,263.2,634.8,264,634.8,262.6z
			"/>
		<path fill-rule="evenodd" clip-rule="evenodd" fill="#00ADEE" d="M607.5,190.1v0.5v1l2.7,1.2l0.1,1.9l2.3,2l1.9,0.3l1.9,1.3
			c2.5-1.2,6-2.8,6-6.6c0-2.4-3-3-3.8-5.1h-2.2c-2.5,0-3.1,1.5-6.6,1.5C608.4,188.1,607.5,188.9,607.5,190.1z"/>
		<path fill-rule="evenodd" clip-rule="evenodd" fill="#00ADEE" d="M694,252.8h1.6c0.1-1.6,0.5-1.8,0.5-3.6c0-1.2,0.4-1.1,1.1-2.1
			c-0.4-0.8-0.5-0.7-0.5-2.1v-0.5c0-2-3-4.1-5.5-4.1c-3,0-3.6,3.5-4.4,5.1l0.7,2.5c2.1,0.6,1.7,1.6,4.3,1.6h1.6
			c1.5,0,1.3,0.4,1.6,1.5H694V252.8z"/>
		<path fill-rule="evenodd" clip-rule="evenodd" fill="#00ADEE" d="M733.8,276.8c1,0,2.1,0.2,3.1,0.3c0.2-0.2,0.4-0.4,0.7-0.5v-2.1
			c2-0.5,1.5,0,1.6-2.1c-2.7-0.7-1.8-3.1-4.4-3.1H732c-2,0-3.8,2.5-3.8,4.6v0.5c0,0.4,0.4,1,1.1,1.7
			C730.8,276.3,732.3,276.4,733.8,276.8z"/>
		<path fill-rule="evenodd" clip-rule="evenodd" fill="#00ADEE" d="M537.4,243c0,1.9,0.6,1.8,1.1,3.5l4.3,0.7c0.7,0,2.3-1.8,3.8-2.1
			c0-2.6-1.7-6.2-3.8-6.2C541.4,238.9,537.4,241.4,537.4,243z"/>
		<path fill-rule="evenodd" clip-rule="evenodd" fill="#00ADEE" d="M713.7,263c0-1.1-2.4-3.6-3.3-3.6c-1.6,0-2.8,0.7-4.4,1
			c-0.2,2.1-0.5,1.2-0.5,3.1c0,2.2,1.3,3.6,3.8,3.6h1.1C712.2,267.1,713.7,264.9,713.7,263z"/>
		<path fill-rule="evenodd" clip-rule="evenodd" fill="#00ADEE" d="M508.2,234.5h1.1c1.3,0,2.7-1.4,2.7-2.6v-0.5
			c0-2.5-1-2.8-2.7-3.6l-2.3,0.8c-2.1-0.8-3-0.9-3.2,1.7l1.7,0.5l0,2.1C506.5,233.7,506.9,234.5,508.2,234.5z"/>
		<path fill-rule="evenodd" clip-rule="evenodd" fill="#00ADEE" d="M686.3,176.8v-2.1c-4.5-2.2-9-9.4-13.1-9.8
			c0.1,2.8,3.9,5.4,5.9,6.8C681.3,173.4,683.2,176.7,686.3,176.8z"/>
		<path fill-rule="evenodd" clip-rule="evenodd" fill="#00ADEE" d="M656.2,266.9c0-1.3-3.4-3.9-4.9-4.1v2.6
			c-1.3,0.5-1.6,0.6-1.6,2.6v1.5c2.2,0.6,1.1,1,2.7,1C654.2,270.5,656.2,268.6,656.2,266.9z"/>
		<path fill-rule="evenodd" clip-rule="evenodd" fill="#00ADEE" d="M673.2,169.1c0-1.7-2-2.6-3.8-2.6c-0.6,0-2.2,1.5-2.2,2.6
			c0,2,0.3,2.1,1.6,2.6c-0.4,1.5-0.5,0.9-0.5,2.1c0,0.8,1.5,1.2,2.2,1.5l0.7-2l-1.9-0.8l2.3-0.2c0.8-1.1,1.6-1.3,1.6-2.6V169.1z"/>
		<path fill-rule="evenodd" clip-rule="evenodd" fill="#00ADEE" d="M715.9,232.2l-0.4-2.6c0.2-0.5,0.9-1.2,0.9-1.5
			c0-1.3-1.2-3.1-2.7-3.1h-1.1c-1.3,0-2.2,0.9-2.2,2.1v1c0,1.6,1.5,2.4,3.3,2.6v1.5H715.9z"/>
		<path fill-rule="evenodd" clip-rule="evenodd" fill="#00ADEE" d="M722.5,254.8l-1.1-2l-1.1,0h-1.6h-1.1l-1.6,2.6
			c0.8,1.4,1,3.1,3.3,3.1C721.6,258.4,722,256.7,722.5,254.8z"/>
		<path fill-rule="evenodd" clip-rule="evenodd" fill="#00ADEE" d="M751.5,260.5c0-1.7-2-2.6-3.8-2.6c-0.6,0-2.2,1.5-2.2,2.6
			c0,3,1.2,2.7,3.3,3.6C750.3,263.1,751.5,263,751.5,260.5z"/>
		<path fill-rule="evenodd" clip-rule="evenodd" fill="#00ADEE" d="M705.5,271.8c-1.3-2.2-0.4-1.9-2.7-3.1c-1.7,0.4-3.3,0.3-3.3,2.1
			v1.5v1c1,0.6,1.7,1,3.3,1C704.5,274.3,704.9,272.9,705.5,271.8z"/>
		<path fill-rule="evenodd" clip-rule="evenodd" fill="#00ADEE" d="M748.7,232.7c1.7-0.4,3.8-0.6,3.8-2.6v-0.5
			c0-1.5-1.9-2.6-3.3-2.6c-0.8,0-2.7,1.2-2.7,2.6v0.5C746.6,231.6,747.8,232.2,748.7,232.7z"/>
		<path fill-rule="evenodd" clip-rule="evenodd" fill="#00ADEE" d="M729.6,183l-0.5,1.5l-2.2,0c0.1,1.4,0,2,1.6,2h1.6v1h3.3l1.1-2.6
			c-1.6-2.8-0.4-1.3-3.3-2.6L729.6,183z"/>
		<path fill-rule="evenodd" clip-rule="evenodd" fill="#00ADEE" d="M398.7,115.2c-1.5,0-0.8,1.9-3.3,2.6v2.1c0,1.2,0.9,2.1,2.2,2.1
			h0.5c1.8,0,2.1-1.5,2.7-2.6C400.3,118.3,399.6,115.2,398.7,115.2z"/>
		<path fill-rule="evenodd" clip-rule="evenodd" fill="#00ADEE" d="M614.6,275.3h1.1h1.6h1.1c0.4-0.6,1.1-1.7,1.1-2.6
			c0-1.5-1.1-2.6-2.7-2.6c-1.8,0-3.3,1.4-3.3,3.1C613.5,273.4,614.5,275.1,614.6,275.3z"/>
		<path fill-rule="evenodd" clip-rule="evenodd" fill="#00ADEE" d="M562,231.7c0-0.6-1.1-1.5-2.2-1.5h-1.1c-1.3,0-2.2,0.9-2.2,2.1v1
			v1c1,0.6,1.7,1,3.3,1C560.9,235.3,562,233.2,562,231.7z"/>
		<path fill-rule="evenodd" clip-rule="evenodd" fill="#00ADEE" d="M628.8,192.7h1.6v-2.1c-1.2-0.6-2.2-1-3.4-1.5
			c-1.4-0.6-2.2-1.6-2.7-1.6c-1.3,0-1.1,1.4-1.1,2.6l3.3,0.5C626.9,191.8,627.2,192.7,628.8,192.7z"/>
		<path fill-rule="evenodd" clip-rule="evenodd" fill="#00ADEE" d="M686.3,188.6c-1.1,0-1.8,0.7-3.3,1c0.2,2.2,1.4,3.1,3.8,3.1
			c0.7,0,1.6-1.1,1.6-2.1C688.5,189.5,687.6,188.6,686.3,188.6z"/>
		<path fill-rule="evenodd" clip-rule="evenodd" fill="#00ADEE" d="M742.3,167.1l2.6-0.2l0.5-1.6l-0.6-1.5l-3.2,0
			c-0.2,2.1-0.2,2.1-1.6,1.5l-1.1,2.5l1.1,0.4L742.3,167.1z"/>
		<path fill-rule="evenodd" clip-rule="evenodd" fill="#00ADEE" d="M650.7,182.4h0.6c1.9,0,1.5-1.1,2.2-2.6l-1.1-1.5l-1.1,0h-0.6
			c-1.3,0-1.6,0.4-1.6,1.5v1C649.1,182.1,649.5,182.4,650.7,182.4z"/>
		<path fill-rule="evenodd" clip-rule="evenodd" fill="#00ADEE" d="M564.1,177.8l-2.1,0v1.5c0,2.4,1.1,1.6,1.2,5l2.1,1.2
			L564.1,177.8z"/>
		<path fill-rule="evenodd" clip-rule="evenodd" fill="#00ADEE" d="M574.6,174.2l-1.1-2l-1.1,0c-1.5,0-1.5,0.2-2.7,0.5
			c0,1.9,0.2,3.1,2.2,3.1h0.5C573.9,175.8,574.1,175,574.6,174.2z"/>
		<path fill-rule="evenodd" clip-rule="evenodd" fill="#00ADEE" d="M627.5,166.5c-0.3-3.2-2.2-1.8-4.9-3.1l-1.6,0.6l0,1.4
			c2,0.4,2.6,1,4.9,1H627.5z"/>
		<path fill-rule="evenodd" clip-rule="evenodd" fill="#00ADEE" d="M568,196.8l-1.1,0h-0.6c-1.3,0-1.6,0.4-1.6,1.5v0.5
			c0,1.2,0.4,1.5,1.6,1.5h0.6c1.5,0,1.6-0.7,2.2-1.5L568,196.8z"/>
		<path fill-rule="evenodd" clip-rule="evenodd" fill="#00ADEE" d="M723,218.4v-0.5c0-1.2-0.4-1.5-1.6-1.5h-2.2v2.1
			c0,1.2,0.4,1.5,1.6,1.5h0.5C722.6,219.9,723,219.6,723,218.4z"/>
		<path fill-rule="evenodd" clip-rule="evenodd" fill="#00ADEE" d="M663.3,172.7c1.2,0,0.7-0.2,2.2-0.5v-2.6l-3.3-0.6l-1.1,2.1
			C661.6,172,662,172.7,663.3,172.7z"/>
		<path fill-rule="evenodd" clip-rule="evenodd" fill="#00ADEE" d="M684.7,231.2v-1.5c0-1.2-0.4-1.5-1.6-1.5h-1.1
			c-1.3,0-1.6,0.4-1.6,1.5c0,0.6,1.1,1.5,2.2,1.5H684.7z"/>
		<path fill-rule="evenodd" clip-rule="evenodd" fill="#00ADEE" d="M651.8,215.8c1.3,0,1.1-1.4,1.1-2.6h1.1v-1.5
			c-2,0.2-4.4,0.6-4.4,2.6C649.6,214.9,650.8,215.8,651.8,215.8z"/>
		<path fill-rule="evenodd" clip-rule="evenodd" fill="#00ADEE" d="M587.8,194.2c1,0.6,1.7,1,3.3,1c0.3,0,1.2-0.7,1.6-1l-0.6-1.5
			l-4.3-0.7L587.8,194.2z"/>
		<path fill-rule="evenodd" clip-rule="evenodd" fill="#00ADEE" d="M630.5,183c-1.3,0-1.1,1.4-1,2.4l4,2.5
			C633.7,185.7,632.1,183,630.5,183z"/>
		<path fill-rule="evenodd" clip-rule="evenodd" fill="#00ADEE" d="M559.3,186.5l0.5,5.6v1.5h2.2l-0.5-3.6
			C561.5,187.5,561.7,186.8,559.3,186.5z"/>
		<path fill-rule="evenodd" clip-rule="evenodd" fill="#00ADEE" d="M669.1,245c-0.5-1.4,0-2.5-1.9-2.5c-1.2,0-0.7,0.2-2.2,0.5
			c0.2,2.4,1.3,2.9,3.8,3.1L669.1,245z"/>
		<path fill-rule="evenodd" clip-rule="evenodd" fill="#00ADEE" d="M558.7,171.2v-3.6c0-1.2-0.4-1.5-1.6-1.5c-0.1,0-1.1,0.5-1.1,0.5
			c0.3,1.2,0.5,1.2,0.5,2.6v0.5C556.6,171.2,557.2,171,558.7,171.2z"/>
		<path fill-rule="evenodd" clip-rule="evenodd" fill="#00ADEE" d="M667.2,258.1c0-1.2-0.4-1.5-1.6-1.5c-1.3,0-1.6,0.4-1.6,1.5v0.5
			c0,1.2,0.4,1.5,1.6,1.5h1.6V258.1z"/>
		<path fill-rule="evenodd" clip-rule="evenodd" fill="#00ADEE" d="M731.8,179.9v1.5c0.2,0.1,2.1,0.5,2.2,0.5c0.8,0,1.1-0.7,1.1-1.5
			v-0.5c0-1.2-0.4-1.5-1.6-1.5C732.2,178.3,731.8,178.7,731.8,179.9z"/>
		<path fill-rule="evenodd" clip-rule="evenodd" fill="#00ADEE" d="M564.8,257.4c-1.3,0-1.6,0.4-1.6,1.5v2.1c2,0,3.3-0.2,3.3-2.1
			C566.4,257.7,566,257.4,564.8,257.4z"/>
		<path fill-rule="evenodd" clip-rule="evenodd" fill="#00ADEE" d="M675.4,232.8l0,1.4c0,1.2,0.4,1.5,1.6,1.5c1.3,0,1.6-0.4,1.6-1.5
			v-1.5l-1.7-0.5L675.4,232.8z"/>
		<path fill-rule="evenodd" clip-rule="evenodd" fill="#00ADEE" d="M544,189.1c0.7,0,1.6-1.1,1.6-2.1c0-1.7-1.1-1.9-2.7-2.1
			c-0.4,1.5-0.6,0.9-0.6,2.1C542.3,187.3,543.2,189.1,544,189.1z"/>
		<path fill-rule="evenodd" clip-rule="evenodd" fill="#00ADEE" d="M731.2,170.6h1.6h1.1l1.1-2l-0.7-1l-1.6,0
			c-1.3,0-1.6,0.4-1.6,1.5V170.6z"/>
		<path fill-rule="evenodd" clip-rule="evenodd" fill="#00ADEE" d="M628.4,181.9c2.5,0,2.1,0.1,3.2-1.5c-0.6-1.1-0.5-2.1-2.2-2.1
			c-0.9,0-1.3,1.4-1.6,2L628.4,181.9z"/>
		<path fill-rule="evenodd" clip-rule="evenodd" fill="#00ADEE" d="M566.4,244v-0.5c0-1.7-1-1.5-2.7-1.5l-0.5,2.1
			c0.7,0.9,0.8,1.5,2.2,1.5C566.1,245.6,566.4,244.9,566.4,244z"/>
		<path fill-rule="evenodd" clip-rule="evenodd" fill="#00ADEE" d="M715.3,238.9l-1.1,2.1c0.5,0.4,1.3,1,2.2,1h1.6v-1.5
			c0-1.2-0.4-1.5-1.6-1.5H715.3z"/>
		<path fill-rule="evenodd" clip-rule="evenodd" fill="#00ADEE" d="M562.3,270.2c0-1.2-0.4-1.5-1.6-1.5c-1.3,0-1.6,0.4-1.6,1.5v1.5
			h3.3V270.2z"/>
		<path fill-rule="evenodd" clip-rule="evenodd" fill="#00ADEE" d="M603.1,223.9c0-1.3-0.3-3-1.6-3c-0.3,0-1.6,1.2-2.3,1.7l1.8,1.9
			L603.1,223.9z"/>
		<polygon fill-rule="evenodd" clip-rule="evenodd" fill="#00ADEE" points="555,178.4 553.8,178.9 552.2,177.3 551.5,181.4 
			554.4,181.4 		"/>
		<path fill-rule="evenodd" clip-rule="evenodd" fill="#00ADEE" d="M692.3,199.4c0.8,0,1.1-0.7,1.1-1.5v-1.5
			c-1.6-0.3-0.9-0.5-2.2-0.5c-0.8,0-1.1,0.7-1.1,1.5C690.2,197.8,691.9,199.4,692.3,199.4z"/>
		<path fill-rule="evenodd" clip-rule="evenodd" fill="#00ADEE" d="M592.1,267.4c-0.7,0-1.6,1.1-1.6,2.1c0,0.4,1.2,1.5,1.6,1.5
			c0.7,0,1.6-1.1,1.6-2.1C593.8,267.7,593.4,267.4,592.1,267.4z"/>
		<path fill-rule="evenodd" clip-rule="evenodd" fill="#00ADEE" d="M749.3,204.5c-1.8,0-1.6,0.9-1.6,2.6c0.2,0.1,2,0.5,2.2,0.5
			c0.8,0,1.1-0.7,1.1-1.5C750.9,204.9,750.6,204.5,749.3,204.5z"/>
		<path fill-rule="evenodd" clip-rule="evenodd" fill="#00ADEE" d="M743.3,243h-1.6l-1.1,3.5l2.2,0.6c0.7-1.4,0.6,0.4,0.6-1.6V243z"/>
		<path fill-rule="evenodd" clip-rule="evenodd" fill="#00ADEE" d="M652.9,219.4c1.7-0.4,4.2-3.2,4.4-5.1
			C655.1,214.4,653.1,217.6,652.9,219.4z"/>
		<path fill-rule="evenodd" clip-rule="evenodd" fill="#00ADEE" d="M547.2,174.7v3.1c2-0.5,3.8-4.6,1.1-4.6
			C547.6,173.2,547.2,173.9,547.2,174.7z"/>
		<path fill-rule="evenodd" clip-rule="evenodd" fill="#00ADEE" d="M590.6,239.3l-1.7,0.7l-0.6,2c0.1,0.1,1,0.5,1.6,0.5h1.1l1.1-2
			L590.6,239.3z"/>
		<path fill-rule="evenodd" clip-rule="evenodd" fill="#00ADEE" d="M697.3,232.2v3.1l3.3-0.5C700.3,232.5,699.9,232.3,697.3,232.2z"/>
		<path fill-rule="evenodd" clip-rule="evenodd" fill="#00ADEE" d="M640.9,256.9c0,1.2,0.4,1.5,1.6,1.5c0.7,0,1.6-1.1,1.6-2.1
			c0-0.7-0.8-1-1.6-1C641.3,255.3,640.9,255.7,640.9,256.9z"/>
		<path fill-rule="evenodd" clip-rule="evenodd" fill="#00ADEE" d="M694,212.7c0-0.7-0.8-1-1.6-1h-2.2c0.1,1.5,0.4,2.6,2.2,2.6
			C693.6,214.3,694,213.9,694,212.7z"/>
		<path fill-rule="evenodd" clip-rule="evenodd" fill="#00ADEE" d="M653.5,194.8c0.7,0,0.3-0.6,2.2-1c-0.1-1.4,0-2.1-1.6-2.1h-1.6
			v1.5C652.4,194.1,652.7,194.8,653.5,194.8z"/>
		<path fill-rule="evenodd" clip-rule="evenodd" fill="#00ADEE" d="M552.2,218.4c-1.4,0.1-3.3,1.5-3.3,2.6c0,0.7,0.7,1,1.6,1
			c0.7,0,1.6-1.1,1.6-2.1V218.4z"/>
		<path fill-rule="evenodd" clip-rule="evenodd" fill="#00ADEE" d="M552.2,253.3c0-0.7-0.7-1-1.6-1h-1.6v2.6h1.6
			C551.8,254.8,552.2,254.5,552.2,253.3z"/>
		<path fill-rule="evenodd" clip-rule="evenodd" fill="#00ADEE" d="M734,256.9c0.8,0,1.1-0.7,1.1-1.5v-1.5c-1.8,0-2.7-0.2-2.7,1.5
			C732.3,256.5,732.7,256.9,734,256.9z"/>
		<path fill-rule="evenodd" clip-rule="evenodd" fill="#00ADEE" d="M755.3,274.3c-2.7,0.1-2.7,0-2.7,2.6h1.6c1.1,0,1-0.2,1.6-0.5
			L755.3,274.3z"/>
		<path fill-rule="evenodd" clip-rule="evenodd" fill="#00ADEE" d="M712.1,182.4c-1.3,0-1.6,0.4-1.6,1.5c0,1.2,1.5,1,2.7,1l0.6-2
			C712.3,182.3,714.2,182.4,712.1,182.4z"/>
		<path fill-rule="evenodd" clip-rule="evenodd" fill="#00ADEE" d="M624.4,177.8c1.8-0.9,2-0.2,2.2-2.6l-3.3-0.5
			C623.4,176.8,623.6,176.6,624.4,177.8z"/>
		<path fill-rule="evenodd" clip-rule="evenodd" fill="#00ADEE" d="M674.5,209.9c0.5,0,1.1-0.6,1.1-1c0-1.1-0.2-0.7-0.5-2.1
			c-1.6,0.1-2.2,0-2.2,1.5C672.9,209.5,673.3,209.9,674.5,209.9z"/>
		<path fill-rule="evenodd" clip-rule="evenodd" fill="#00ADEE" d="M738.9,258.9c0,1.6-0.2,2.6,1.6,2.6c1.3,0,1.1-1.4,1.1-2.6H738.9
			z"/>
		<path fill-rule="evenodd" clip-rule="evenodd" fill="#00ADEE" d="M557.1,185c0-0.7-0.7-1-1.6-1c-1,0-1.4,1.2-1.6,2.1
			c0.2,0.1,2,0.5,2.2,0.5C556.8,186.5,557.1,185.9,557.1,185z"/>
		<path fill-rule="evenodd" clip-rule="evenodd" fill="#00ADEE" d="M651.3,198.4l1.6-0.6l-0.6-1.9l-2.7-0.5
			C649.9,197.6,650.1,196.7,651.3,198.4z"/>
		<path fill-rule="evenodd" clip-rule="evenodd" fill="#00ADEE" d="M569.7,251.7c-0.8,0-1.1,0.7-1.1,1.5c0,1.2,1.5,1,2.7,1
			C571.3,252.7,571.5,251.7,569.7,251.7z"/>
		<path fill-rule="evenodd" clip-rule="evenodd" fill="#00ADEE" d="M570.2,192.2c1.8,0,2.7,0.2,2.7-1.5c0-0.7-0.7-1-1.6-1
			C570.1,189.6,570.3,191.1,570.2,192.2z"/>
		<path fill-rule="evenodd" clip-rule="evenodd" fill="#00ADEE" d="M633.8,194.8c0.8,0,1.1-0.7,1.1-1.5c0-0.7-0.7-1-1.6-1
			c-0.8,0-1.1,0.7-1.1,1.5C632.1,194.5,632.9,194.8,633.8,194.8z"/>
		<path fill-rule="evenodd" clip-rule="evenodd" fill="#00ADEE" d="M747.6,169.6c0-0.7-0.7-1-1.6-1c-0.8,0-1.1,0.7-1.1,1.5
			c0,0.7,0.7,1,1.6,1C747.3,171.2,747.6,170.5,747.6,169.6z"/>
		<path fill-rule="evenodd" clip-rule="evenodd" fill="#00ADEE" d="M550,214.8c0-1.6,0.2-2.6-1.6-2.6c-0.1,0-1.1,0.5-1.1,0.5
			C548.2,214.5,547.5,214.6,550,214.8z"/>
		<path fill-rule="evenodd" clip-rule="evenodd" fill="#00ADEE" d="M644.7,245.6c0,1.5,0.1,2.1,1.6,2.1c0.5,0,1.1-0.6,1.1-1
			c0-0.3-0.8-1.1-1.1-1.5L644.7,245.6z"/>
		<path fill-rule="evenodd" clip-rule="evenodd" fill="#00ADEE" d="M712.1,214.3v-2.6h-2.2C709.9,214,709.7,214.1,712.1,214.3z"/>
		<path fill-rule="evenodd" clip-rule="evenodd" fill="#00ADEE" d="M684.7,213.8v-2.1h-2.7C681.9,213.8,682.5,213.7,684.7,213.8z"/>
		<path fill-rule="evenodd" clip-rule="evenodd" fill="#00ADEE" d="M673.7,185.5v2.1h2.7C676.2,185.6,676.3,185.7,673.7,185.5z"/>
		<path fill-rule="evenodd" clip-rule="evenodd" fill="#00ADEE" d="M556.6,246.6c0.8,0,1.1-0.7,1.1-1.5c0-1.1-1.1-0.9-2.2-1
			C555.5,245.2,555.3,246.6,556.6,246.6z"/>
		<polygon fill-rule="evenodd" clip-rule="evenodd" fill="#00ADEE" points="736.6,194.3 734.5,194.2 734.5,196.3 737.3,195.9 		"/>
		<rect x="702.2" y="265.1" fill-rule="evenodd" clip-rule="evenodd" fill="#00ADEE" width="2.2" height="2.1"/>
		<path fill-rule="evenodd" clip-rule="evenodd" fill="#00ADEE" d="M544.5,248.1c0,0.7,0.8,1,1.6,1c0.5,0,1.1-0.6,1.1-1
			c0-0.7-0.7-1-1.6-1C545.1,247.1,544.5,247.7,544.5,248.1z"/>
		<path fill-rule="evenodd" clip-rule="evenodd" fill="#00ADEE" d="M744.4,194.8c-0.5,0-1.1,0.6-1.1,1c0,0.7,0.8,1,1.6,1
			c0.5,0,1.1-0.6,1.1-1C746,195.1,745.3,194.8,744.4,194.8z"/>
		<polygon fill-rule="evenodd" clip-rule="evenodd" fill="#00ADEE" points="695.6,194.8 695.6,196.8 697.8,196.2 697.8,194.2 		"/>
		<path fill-rule="evenodd" clip-rule="evenodd" fill="#00ADEE" d="M548.9,263.5v2.1c2-0.2,2-0.2,2.2-2.1H548.9z"/>
		<path fill-rule="evenodd" clip-rule="evenodd" fill="#00ADEE" d="M652.9,224.5c0,0.5,0.6,1,1.1,1c1.3,0,1.1-1.4,1.1-2.6
			C654.4,223.3,652.9,223.7,652.9,224.5z"/>
		<path fill-rule="evenodd" clip-rule="evenodd" fill="#00ADEE" d="M565.3,174.7l2.2-0.6l0-1.9C565.6,172.7,565.5,172.7,565.3,174.7
			z"/>
		<path fill-rule="evenodd" clip-rule="evenodd" fill="#00ADEE" d="M604.3,258.9l1.6,0c-0.2-2,0.3-1.6-1.6-2v-1.5l0.6-1
			c-1.2-1.7-3.7-3.6-3.9-6.2c-1,1-1.8,1.5-3.8,1.5H596l-2.6,2.7l-0.7,3.5c1,1.3,4.1,4.1,6.1,4.1c1.1,0,4.2-2,4.9-2.6L604.3,258.9z"/>
		<path fill-rule="evenodd" clip-rule="evenodd" fill="#00ADEE" d="M728.5,223.5v2.1h2.2C730.4,223.6,731,224.1,728.5,223.5z"/>
		<path fill-rule="evenodd" clip-rule="evenodd" fill="#00ADEE" d="M580.6,247.1c-1.1,0.1-2.2,0-2.2,1c0,1.1,1.1,0.9,2.2,1V247.1z"/>
		<path fill-rule="evenodd" clip-rule="evenodd" fill="#00ADEE" d="M743.8,231.7c1.1-0.1,2.2,0,2.2-1c0-1.1-1.1-0.9-2.2-1V231.7z"/>
		<path fill-rule="evenodd" clip-rule="evenodd" fill="#00ADEE" d="M691.8,261.7v2.1c1.1-0.1,2.2,0,2.2-1
			C694,261.7,692.9,261.8,691.8,261.7z"/>
		<polygon fill-rule="evenodd" clip-rule="evenodd" fill="#00ADEE" points="658.4,249.7 657.7,247.7 655.7,248.1 656.3,249.6 		"/>
		<path fill-rule="evenodd" clip-rule="evenodd" fill="#00ADEE" d="M660,188.6c-0.1-2.3,0.2-2.4-2.2-2.6
			C658.1,188.1,658.1,187.4,660,188.6z"/>
		<path fill-rule="evenodd" clip-rule="evenodd" fill="#00ADEE" d="M700,195.3v-2.1l0.6-1c-0.1,0-2.8-3-2.8-1.1l-0.6,2.6l1.7,0v1.5
			H700z"/>
		<path fill-rule="evenodd" clip-rule="evenodd" fill="#00ADEE" d="M561.5,199.9v2.6h1.6C562.9,200.4,563,200.4,561.5,199.9z"/>
		<rect x="749.8" y="213.2" fill-rule="evenodd" clip-rule="evenodd" fill="#00ADEE" width="1.6" height="2.1"/>
		<rect x="576.3" y="226.1" fill-rule="evenodd" clip-rule="evenodd" fill="#00ADEE" width="1.6" height="2.1"/>
		<rect x="673.7" y="253.8" fill-rule="evenodd" clip-rule="evenodd" fill="#00ADEE" width="1.6" height="2.1"/>
		<rect x="563.7" y="248.7" fill-rule="evenodd" clip-rule="evenodd" fill="#00ADEE" width="1.6" height="2.1"/>
		<rect x="693.4" y="204" fill-rule="evenodd" clip-rule="evenodd" fill="#00ADEE" width="2.2" height="1.5"/>
		<path fill-rule="evenodd" clip-rule="evenodd" fill="#00ADEE" d="M672.6,189.6c-2.1,0.2-1.6-0.3-2.2,2.1
			C672.5,191.5,672.5,191.5,672.6,189.6z"/>
		<path fill-rule="evenodd" clip-rule="evenodd" fill="#00ADEE" d="M569.7,209.6c0,0.1,0.5,1,0.5,1c2.4-1.2,1.4,0.4,1.6-2.1
			C570.8,208.7,569.7,208.6,569.7,209.6z"/>
		<path fill-rule="evenodd" clip-rule="evenodd" fill="#00ADEE" d="M586.7,182.4c-0.2-1.9-0.2-1.9-2.2-2.1
			C585.1,182.8,584.5,182.2,586.7,182.4z"/>
		<path fill-rule="evenodd" clip-rule="evenodd" fill="#00ADEE" d="M678.7,214.3c0.9,1.8,0.2,1.9,2.7,2.1
			C680.9,214.5,680.8,214.7,678.7,214.3z"/>
		<path fill-rule="evenodd" clip-rule="evenodd" fill="#00ADEE" d="M585.6,245.1h-2.2v1.5C585.5,246.4,585,246.9,585.6,245.1z"/>
		<path fill-rule="evenodd" clip-rule="evenodd" fill="#00ADEE" d="M696.2,208.6v2.1h1.6C697.6,208.7,698.2,209.1,696.2,208.6z"/>
		<path fill-rule="evenodd" clip-rule="evenodd" fill="#00ADEE" d="M670.4,232.7h-1.6v2.1C670.8,234.3,670.3,234.8,670.4,232.7z"/>
		<path fill-rule="evenodd" clip-rule="evenodd" fill="#00ADEE" d="M665,232.7h-2.2v1.5C664.9,234.1,664.4,234.6,665,232.7z"/>
		<path fill-rule="evenodd" clip-rule="evenodd" fill="#00ADEE" d="M642.5,243v2.1h1.6C644,243.1,644.5,243.5,642.5,243z"/>
		<path fill-rule="evenodd" clip-rule="evenodd" fill="#00ADEE" d="M625,171.2c-0.8,0.2-1.6,0.1-1.6,1c0,0.9,0.8,0.8,1.6,1V171.2z"/>
		<path fill-rule="evenodd" clip-rule="evenodd" fill="#00ADEE" d="M593.8,204c0-0.9-0.8-0.8-1.6-1v2.1
			C593,204.8,593.8,204.9,593.8,204z"/>
		<path fill-rule="evenodd" clip-rule="evenodd" fill="#00ADEE" d="M666.6,190.7v-1.5h-2.2C665.6,190.6,664,190.4,666.6,190.7z"/>
		<polygon fill-rule="evenodd" clip-rule="evenodd" fill="#00ADEE" points="582.8,252.2 582.8,251.2 580.6,251.2 581.2,253.3 
			582.8,253.9 		"/>
		<rect x="670.4" y="269.2" fill-rule="evenodd" clip-rule="evenodd" fill="#00ADEE" width="1.6" height="1.5"/>
		<rect x="752" y="266.1" fill-rule="evenodd" clip-rule="evenodd" fill="#00ADEE" width="1.6" height="1.5"/>
		<rect x="552.7" y="263.5" fill-rule="evenodd" clip-rule="evenodd" fill="#00ADEE" width="1.6" height="1.5"/>
		<rect x="610.8" y="255.3" fill-rule="evenodd" clip-rule="evenodd" fill="#00ADEE" width="1.6" height="1.5"/>
		<rect x="615.7" y="241.5" fill-rule="evenodd" clip-rule="evenodd" fill="#00ADEE" width="1.6" height="1.5"/>
		<rect x="627.2" y="238.9" fill-rule="evenodd" clip-rule="evenodd" fill="#00ADEE" width="1.6" height="1.5"/>
		<rect x="626.6" y="232.2" fill-rule="evenodd" clip-rule="evenodd" fill="#00ADEE" width="1.6" height="1.5"/>
		<rect x="583.4" y="223.5" fill-rule="evenodd" clip-rule="evenodd" fill="#00ADEE" width="1.6" height="1.5"/>
		<rect x="707.1" y="197.8" fill-rule="evenodd" clip-rule="evenodd" fill="#00ADEE" width="1.6" height="1.5"/>
		<rect x="655.1" y="173.7" fill-rule="evenodd" clip-rule="evenodd" fill="#00ADEE" width="1.6" height="1.5"/>
		<rect x="754.2" y="165.5" fill-rule="evenodd" clip-rule="evenodd" fill="#00ADEE" width="1.6" height="1.5"/>
		<path fill-rule="evenodd" clip-rule="evenodd" fill="#00ADEE" d="M731.2,242.5l-0.5-2.1c-1.7,1.1-0.9-0.2-1.1,2.1H731.2z"/>
		<polygon fill-rule="evenodd" clip-rule="evenodd" fill="#00ADEE" points="706,196.3 703.8,196.3 704.4,197.8 706,198.4 		"/>
		<rect x="547.8" y="231.7" fill-rule="evenodd" clip-rule="evenodd" fill="#00ADEE" width="1.1" height="2.1"/>
		<polygon fill-rule="evenodd" clip-rule="evenodd" fill="#00ADEE" points="598.2,238.4 599.8,238.4 599.2,236.9 598.2,236.9 		"/>
		<polygon fill-rule="evenodd" clip-rule="evenodd" fill="#00ADEE" points="554.4,175.3 553.4,175.3 552.8,176.8 554.4,176.8 		"/>
		<rect x="689.1" y="205.5" fill-rule="evenodd" clip-rule="evenodd" fill="#00ADEE" width="1.6" height="1"/>
		<rect x="621.2" y="253.8" fill-rule="evenodd" clip-rule="evenodd" fill="#00ADEE" width="1.1" height="1.5"/>
		<rect x="601.5" y="189.6" fill-rule="evenodd" clip-rule="evenodd" fill="#00ADEE" width="1.6" height="1"/>
		<rect x="649.6" y="226.1" fill-rule="evenodd" clip-rule="evenodd" fill="#00ADEE" width="1.6" height="1"/>
		<rect x="701.7" y="190.7" fill-rule="evenodd" clip-rule="evenodd" fill="#00ADEE" width="1.1" height="1.5"/>
		<rect x="631" y="240.4" fill-rule="evenodd" clip-rule="evenodd" fill="#00ADEE" width="1.1" height="1.5"/>
		<rect x="579.6" y="187.1" fill-rule="evenodd" clip-rule="evenodd" fill="#00ADEE" width="1.1" height="1.5"/>
		<rect x="617.3" y="175.8" fill-rule="evenodd" clip-rule="evenodd" fill="#00ADEE" width="1.1" height="1.5"/>
		<rect x="673.2" y="263.5" fill-rule="evenodd" clip-rule="evenodd" fill="#00ADEE" width="1.1" height="1.5"/>
		<rect x="645.3" y="212.7" fill-rule="evenodd" clip-rule="evenodd" fill="#00ADEE" width="1.1" height="1.5"/>
		<rect x="725.2" y="228.1" fill-rule="evenodd" clip-rule="evenodd" fill="#00ADEE" width="1.1" height="1.5"/>
		<polygon fill-rule="evenodd" clip-rule="evenodd" fill="#00ADEE" points="597.1,235.8 595.2,236.1 596.8,237.6 		"/>
		<polygon fill-rule="evenodd" clip-rule="evenodd" fill="#00ADEE" points="732.3,217.9 733.4,217.3 733.4,215.3 731.8,215.3 
			731.8,217.3 730.7,217.9 730.1,219.4 732.3,219.4 		"/>
		<polygon fill-rule="evenodd" clip-rule="evenodd" fill="#00ADEE" points="726.8,167.6 728.8,166.3 726.8,166 		"/>
		<polygon fill-rule="evenodd" clip-rule="evenodd" fill="#00ADEE" points="552.2,170.1 552.2,171.7 553.8,171.7 		"/>
		<polygon fill-rule="evenodd" clip-rule="evenodd" fill="#00ADEE" points="659.5,189.1 659.5,190.7 661.1,190.7 		"/>
		<polygon fill-rule="evenodd" clip-rule="evenodd" fill="#00ADEE" points="657.9,175.3 659.5,175.3 657.9,173.7 		"/>
		<polygon fill-rule="evenodd" clip-rule="evenodd" fill="#00ADEE" points="535.8,201.4 534.9,201.1 534.9,201.4 534.9,202.5 
			534.9,202.7 535.8,202.5 		"/>
		<rect x="714.8" y="187.1" fill-rule="evenodd" clip-rule="evenodd" fill="#00ADEE" width="1.1" height="1"/>
		<polygon fill-rule="evenodd" clip-rule="evenodd" fill="#00ADEE" points="694.5,172.7 692.9,172.1 692.9,174.2 694.5,173.7 		"/>
		<rect x="535.2" y="257.9" fill-rule="evenodd" clip-rule="evenodd" fill="#00ADEE" width="1.1" height="1"/>
		<rect x="613.5" y="245.6" fill-rule="evenodd" clip-rule="evenodd" fill="#00ADEE" width="1.1" height="1"/>
		<polygon fill-rule="evenodd" clip-rule="evenodd" fill="#00ADEE" points="650.2,190.7 652,189.8 650.2,189.6 		"/>
		<polygon fill-rule="evenodd" clip-rule="evenodd" fill="#00ADEE" points="668.8,216.8 670.4,216.8 668.3,216.3 668.8,218.4 		"/>
	</g>
	<path id="circle" fill-rule="evenodd" clip-rule="evenodd" fill="#FFFFFF" d="M374.2,240.4c1.9-0.5,3-2,4.9-2.5c0.8-0.2,1.6-0.4,2.5-0.4
		c0.9,0,1.7,0.1,2.5,0.4c2,0.6,3.2,2.3,5.3,2.6c0.2,0,0.4,0.1,0.5,0.2c0.2,0,0.4,0,0.6,0.1c2.1,0.5,3.8-0.5,5.9-0.3
		c0.8,0.1,1.6,0.3,2.4,0.6c0.8,0.3,1.5,0.8,2.1,1.3c1.6,1.3,2.1,3.3,3.9,4.5c0.2,0.1,0.3,0.2,0.4,0.4c0.2,0.1,0.4,0.2,0.5,0.3
		c1.7,1.3,3.7,1,5.6,2c0.7,0.4,1.4,0.9,2,1.5c0.6,0.6,1.1,1.3,1.5,2c1,1.9,0.6,3.9,1.8,5.6c0.1,0.2,0.2,0.3,0.3,0.5
		c0.1,0.1,0.3,0.3,0.4,0.5c1.1,1.9,3,2.4,4.3,4c0.5,0.6,0.9,1.3,1.2,2.2c0.3,0.8,0.5,1.6,0.6,2.4c0.2,2.1-1,3.8-0.5,5.9
		c0,0.2,0.1,0.4,0,0.5c0.1,0.2,0.1,0.4,0.2,0.6c0.3,2.1,1.9,3.4,2.4,5.4c0.2,0.8,0.3,1.6,0.3,2.5c0,0.9-0.2,1.7-0.4,2.4
		c-0.7,2-2.4,3.1-2.8,5.2c0,0.2-0.1,0.4-0.2,0.5c0,0.2,0,0.4-0.1,0.6c-0.6,2.1,0.4,3.8,0.1,5.9c-0.1,0.8-0.3,1.6-0.7,2.4
		c-0.4,0.8-0.8,1.5-1.4,2.1c-1.4,1.6-3.4,1.9-4.6,3.7c-0.1,0.2-0.2,0.3-0.4,0.4c-0.1,0.2-0.2,0.3-0.3,0.5c-1.3,1.7-1.1,3.7-2.2,5.5
		c-0.4,0.7-0.9,1.3-1.6,1.9c-0.7,0.6-1.4,1-2.1,1.4c-1.9,0.9-3.9,0.5-5.7,1.6c-0.2,0.1-0.3,0.2-0.5,0.2c-0.1,0.1-0.3,0.3-0.5,0.4
		c-1.9,1-2.5,3-4.2,4.2c-0.6,0.5-1.4,0.8-2.2,1.1c-0.8,0.3-1.7,0.4-2.4,0.5c-2.1,0.1-3.8-1.1-5.9-0.7c-0.2,0-0.4,0-0.6,0
		c-0.2,0.1-0.4,0.1-0.6,0.1c-2.1,0.2-3.4,1.8-5.5,2.2c-0.8,0.2-1.6,0.3-2.5,0.2c-0.9-0.1-1.7-0.2-2.4-0.5c-2-0.7-3-2.5-5.1-3
		c-0.2,0-0.4-0.1-0.5-0.2c-0.2,0-0.4,0-0.6-0.1c-2-0.7-3.8,0.3-5.9-0.1c-0.8-0.1-1.6-0.4-2.3-0.8c-0.8-0.4-1.5-0.9-2-1.4
		c-1.4-1.4-1.8-3.2-3.3-4.5c-0.1,0-0.1-0.1-0.2-0.1c-1.7-1.4-3.7-1.1-5.5-2.2c-0.7-0.4-1.3-0.9-1.9-1.6c-0.6-0.7-1.1-1.4-1.4-2.1
		c-0.9-1.9-0.4-3.9-1.6-5.7c-0.1-0.1-0.1-0.2-0.2-0.3c-0.1-0.1-0.2-0.2-0.2-0.3c-1-1.9-3-2.5-4.2-4.2c-0.5-0.6-0.9-1.4-1.1-2.2
		c-0.3-0.8-0.4-1.7-0.5-2.4c-0.1-2.1,1.1-3.8,0.7-5.9c-0.1-0.3,0-0.6,0.1-0.9c-0.2-0.3-0.3-0.6-0.3-0.9c-0.2-2.1-1.7-3.4-2.1-5.5
		c-0.2-0.8-0.2-1.6-0.1-2.5c0.1-0.9,0.3-1.7,0.5-2.4c0.8-2,2.5-3,3-5.1c0.1-0.2,0.1-0.4,0.2-0.5c0-0.2,0-0.4,0.1-0.6
		c0.7-2-0.2-3.9,0.2-5.9c0.2-0.8,0.4-1.5,0.8-2.3c0.4-0.8,0.9-1.5,1.5-2c1.5-1.5,3.5-1.8,4.8-3.5c0-0.1,0.1-0.1,0.1-0.2
		c0-0.1,0.1-0.2,0.2-0.3c1.4-1.6,1.2-3.6,2.4-5.4c0.4-0.7,1-1.3,1.7-1.9c0.7-0.6,1.4-1,2.1-1.3c1.7-0.8,3.5-0.4,5.2-1.2
		c1.5-1.1,2.1-2.8,3.7-4c0.6-0.5,1.4-0.9,2.2-1.2c0.8-0.3,1.7-0.5,2.4-0.5C370.7,239.6,372.3,240.6,374.2,240.4z"/>
	
	   <rect id="text_bgd" x="266.5" y="185.6" transform="matrix(0.9945 0.1048 -0.1048 0.9945 24.5198 -38.0892)" fill-rule="evenodd" clip-rule="evenodd" fill="#00ADEE" width="216.8" height="57.4"/>
	   <text x="330" y="170" id="john" fill="#FFFFFF" font-family="'ArialMT'" font-size="34" transform="rotate(7,380.5,159.93478260869566)">Johns</text>
	   <text x="279" y="236" id="dirty" fill="#FFFFFF" font-family="'Abite'" font-size="50" transform="rotate(7,376.5,233.02173913043478)">dirty</text>
	   <text x="340" y="309" id="30" fill="#00ADEE" font-family="plane_crash" font-size="58" transform="rotate(15,380,292.0652173913044)">30</text>
</g>
</svg>