<svg enable-background="new 0 0 759 439" id="Layer_1" version="1.1" viewBox="0 0 759 439" x="0px" xml:space="preserve" xmlns="http://www.w3.org/2000/svg" xmlns:xlink="http://www.w3.org/1999/xlink" y="0px"> <g> <rect fill="#BA6A67" height="86.9" width="760" x="-0.5" y="176"/> <rect fill="#484155" height="69.4" width="760" x="-0.5" y="184.8"/> <path d="M523.9,219.5c0-0.2,0-0.4,0-0.6h0c-0.4-31.3-14.1-50-14.1-50c-26.7,0-22-26.9-22-26.9l-108.3-32l-108.3,32
		c0,0,4.7,26.9-22,26.9c0,0-13.7,18.7-14.1,50h0c0,0.2,0,0.4,0,0.6c0,0.2,0,0.4,0,0.6h0c0.4,31.3,14.1,50,14.1,50
		c26.7,0,22,26.9,22,26.9l108.3,32l108.3-32c0,0-4.7-26.9,22-26.9c0,0,13.7-18.7,14.1-50h0C523.9,219.9,523.9,219.7,523.9,219.5z" fill="#BA6A67"/> <path d="M379.5,321.4l-100.2-29.6c-0.3-5.9-2-13.9-7.8-20.3c-3.4-3.8-9.3-8.2-19-9.5c-3.6-6.6-10.1-21.4-10.3-42
		l0-0.3l0-0.6c0.3-20.7,6.8-35.6,10.4-42.1c9.7-1.3,15.6-5.7,19-9.5c5.8-6.4,7.5-14.3,7.8-20.3l100.2-29.6l100.2,29.6
		c0.3,5.9,2,13.9,7.8,20.3c3.4,3.8,9.3,8.1,19,9.5c3.6,6.6,10.1,21.4,10.3,42v0c0,0,0,0.3,0,0.5v0.3l0,0.6
		c-0.3,20.4-6.8,35.1-10.4,41.7c-9.7,1.3-15.6,5.7-19,9.5c-5.8,6.4-7.5,14.3-7.8,20.3L379.5,321.4L379.5,321.4z" fill="#484155"/> <path d="M379.5,316.3l-95.4-28.2c-0.8-6-3-13.5-8.7-19.7c-3.5-3.9-9.6-8.7-19.5-10.7c-3.6-7.2-8.5-20.2-8.7-37.7
		l0-0.2l0-0.2l0-0.2l0-0.6c0.2-17.3,5.1-30.3,8.7-37.5c9.8-2,16-6.8,19.5-10.7c5.7-6.3,7.9-13.8,8.7-19.7l95.4-28.2l95.4,28.2
		c0.8,6,3,13.4,8.7,19.7c3.5,3.9,9.6,8.7,19.5,10.7c3.6,7.2,8.5,20.2,8.7,37.7v0.1l0,0.9l0,0.6c-0.2,17.1-5.1,30-8.7,37.1
		c-9.9,2-16,6.8-19.5,10.7c-5.7,6.3-7.9,13.8-8.7,19.8L379.5,316.3L379.5,316.3z" fill="#DFCAA3"/> <radialGradient cx="379.5074" cy="257.9586" gradientTransform="matrix(1 0 0 0.9417 0 -23.8686)" gradientUnits="userSpaceOnUse" id="SVGID_1_" r="118.4795"> <stop offset="0" style="stop-color:#E5DBEC"/> <stop offset="9.651524e-002" style="stop-color:#CFC2D7"/> <stop offset="0.3419" style="stop-color:#9B88A6"/> <stop offset="0.5518" style="stop-color:#765E82"/> <stop offset="0.7156" style="stop-color:#5F446C"/> <stop offset="0.8132" style="stop-color:#563A64"/> <stop offset="1" style="stop-color:#3E1D51"/> </radialGradient> <path d="M466.9,148.1l-12.6-3.7L393,203.1l44.1-63.8l-10.8-3.2L388,200.5l23.2-68.9
		l-10.5-3.1l-18.3,70.6l2.7-75.3l-5.6-1.6l-5.7,1.7l2.7,75.2l-18.3-70.6l-10.5,3.1l23.2,68.9l-38.3-64.4l-10.9,3.2l44.1,63.8
		l-61.2-58.7l-12.6,3.7l69.7,58.7l-80.8-45.1c-1.3,2.9-3.1,5.8-5.5,8.5c-0.2,0.2-0.5,0.5-0.7,0.8l84.1,40.5l-103.9-28.3
		c-1.3,3-2.8,6.7-4,11l106.5,22.4l-109.9-3.2c-0.1,1.7-0.2,3.4-0.2,5.1l0,0.6l0,0.2l0,0.2l0,0.2c0,1.8,0.1,3.6,0.2,5.3l109.8-3.2
		L250.9,244c1.3,4.4,2.7,8.1,4,11l103.9-28.3l-84.1,40.5c0.2,0.2,0.5,0.5,0.7,0.7c2.4,2.7,4.2,5.6,5.5,8.5l80.8-45.1L292.1,290
		l12.6,3.7l61.3-58.8l-44.1,63.8l10.8,3.2l38.3-64.4l-23.2,68.9l10.5,3.1l18.3-70.6l-2.7,75.2l5.6,1.7l5.6-1.7l-2.7-75.2l18.3,70.6
		l10.5-3.1l-23.2-68.9l38.3,64.4l10.8-3.2L393.1,235l61.3,58.8L467,290l-69.7-58.8l80.8,45.2c1.3-2.9,3.1-5.8,5.5-8.5
		c0.2-0.2,0.5-0.5,0.7-0.7l-84.1-40.5l104,28.3c1.4-3,2.8-6.7,4.1-11l-106.5-22.4l109.9,3.2c0.1-1.5,0.2-3.1,0.2-4.7l0-0.6l0-0.9
		v-0.1c0-1.8-0.1-3.6-0.2-5.4l-109.8,3.2L508.1,194c-1.3-4.4-2.7-8.1-4.1-11l-103.9,28.3l84.1-40.5c-0.2-0.2-0.4-0.5-0.7-0.7
		c-2.4-2.7-4.2-5.6-5.5-8.6l-80.9,45.2L466.9,148.1z" fill="url(#SVGID_1_)" opacity="0.12"/> <polygon fill="#484155" points="335.9,150.5 339.8,158.5 348.6,159.7 342.3,165.9 343.8,174.6 335.9,170.5 328.1,174.6 
		329.6,165.9 323.2,159.7 332,158.5 	"/> <polygon fill="#484155" points="379.5,141.7 383.4,149.7 392.2,151 385.8,157.1 387.3,165.9 379.5,161.8 371.7,165.9 373.2,157.1 
		366.8,151 375.6,149.7 	"/> <polygon fill="#484155" points="424.4,150.5 428.3,158.5 437,159.7 430.7,165.9 432.2,174.6 424.4,170.5 416.5,174.6 418,165.9 
		411.7,159.7 420.4,158.5 	"/> </g> </svg>