<?xml version="1.0" encoding="utf-8"?>
<!-- Generator: Adobe Illustrator 18.1.1, SVG Export Plug-In . SVG Version: 6.00 Build 0)  -->
<svg version="1.1" id="Layer_1" xmlns="http://www.w3.org/2000/svg" xmlns:xlink="http://www.w3.org/1999/xlink" x="0px" y="0px"
	 viewBox="0 0 283.5 113.4" enable-background="new 0 0 283.5 113.4" xml:space="preserve">
<g>
	<rect x="33.7" y="44.3" fill="#26A9E0" width="216" height="24.7"/>
	<rect x="33.7" y="46.8" fill="#224099" width="216" height="19.7"/>
	<path fill="#26A9E0" d="M182.8,56.7c0-0.1,0-0.1,0-0.2h0c-0.1-8.9-4-14.2-4-14.2c-7.6,0-6.2-7.6-6.2-7.6l-30.8-9.1L111,34.7
		c0,0,1.3,7.6-6.2,7.6c0,0-3.9,5.3-4,14.2h0c0,0.1,0,0.1,0,0.2c0,0.1,0,0.1,0,0.2h0c0.1,8.9,4,14.2,4,14.2c7.6,0,6.2,7.6,6.2,7.6
		l30.8,9.1l30.8-9.1c0,0-1.3-7.6,6.2-7.6c0,0,3.9-5.3,4-14.2h0C182.8,56.8,182.8,56.8,182.8,56.7z"/>
	<path fill="#224099" d="M141.7,85.7l-28.5-8.4c-0.1-1.7-0.6-3.9-2.2-5.8c-1-1.1-2.6-2.3-5.4-2.7c-1-1.9-2.9-6.1-2.9-11.9l0-0.1
		l0-0.2c0.1-5.9,1.9-10.1,2.9-12c2.8-0.4,4.4-1.6,5.4-2.7c1.6-1.8,2.1-4.1,2.2-5.8l28.5-8.4l28.5,8.4c0.1,1.7,0.6,3.9,2.2,5.8
		c1,1.1,2.6,2.3,5.4,2.7c1,1.9,2.9,6.1,2.9,11.9v0c0,0,0,0.1,0,0.2v0.1l0,0.2c-0.1,5.8-1.9,10-2.9,11.8c-2.8,0.4-4.4,1.6-5.4,2.7
		c-1.6,1.8-2.1,4.1-2.2,5.8L141.7,85.7L141.7,85.7z"/>
	<path fill="#26A9E0" d="M141.7,84.2l-27.1-8c-0.2-1.7-0.9-3.8-2.5-5.6c-1-1.1-2.7-2.5-5.5-3c-1-2-2.4-5.7-2.5-10.7l0-0.1l0-0.1
		l0-0.1l0-0.2c0.1-4.9,1.5-8.6,2.5-10.7c2.8-0.6,4.5-1.9,5.5-3c1.6-1.8,2.2-3.9,2.5-5.6l27.1-8l27.1,8c0.2,1.7,0.9,3.8,2.5,5.6
		c1,1.1,2.7,2.5,5.5,3c1,2,2.4,5.7,2.5,10.7v0l0,0.2l0,0.2c-0.1,4.9-1.5,8.5-2.5,10.6c-2.8,0.6-4.5,1.9-5.5,3
		c-1.6,1.8-2.2,3.9-2.5,5.6L141.7,84.2L141.7,84.2z"/>
	<path opacity="0.25" fill="#FFFFFF" d="M164.8,37.9l-3.3-1l-16.1,15.5l11.6-16.8l-2.9-0.8l-10.1,17l6.1-18.2l-2.8-0.8l-4.8,18.6
		l0.7-19.8l-1.5-0.4l-1.5,0.4l0.7,19.8l-4.8-18.6l-2.8,0.8l6.1,18.1l-10.1-17l-2.9,0.8l11.6,16.8L122,36.9l-3.3,1L137,53.3
		l-21.3-11.9c-0.3,0.8-0.8,1.5-1.5,2.2c-0.1,0.1-0.1,0.1-0.2,0.2l22.2,10.7l-27.4-7.5c-0.4,0.8-0.7,1.8-1.1,2.9l28.1,5.9l-29-0.8
		c0,0.4-0.1,0.9-0.1,1.3l0,0.1l0,0.1l0,0.1l0,0c0,0.5,0,0.9,0.1,1.4l28.9-0.8l-28.1,5.9c0.3,1.2,0.7,2.1,1.1,2.9l27.4-7.5
		l-22.2,10.7c0.1,0.1,0.1,0.1,0.2,0.2c0.6,0.7,1.1,1.5,1.5,2.2l21.3-11.9l-18.4,15.5l3.3,1l16.1-15.5l-11.6,16.8l2.9,0.8l10.1-17
		l-6.1,18.2l2.8,0.8l4.8-18.6l-0.7,19.8l1.5,0.4l1.5-0.4l-0.7-19.8l4.8,18.6l2.8-0.8L144,61.5l10.1,17l2.9-0.8l-11.6-16.8l16.1,15.5
		l3.3-1l-18.4-15.5l21.3,11.9c0.3-0.8,0.8-1.5,1.5-2.2c0.1-0.1,0.1-0.1,0.2-0.2l-22.2-10.7l27.4,7.5c0.4-0.8,0.7-1.8,1.1-2.9
		l-28.1-5.9l29,0.8c0-0.4,0.1-0.8,0.1-1.2l0-0.2l0-0.2v0c0-0.5,0-1-0.1-1.4l-28.9,0.8l28.1-5.9c-0.3-1.2-0.7-2.1-1.1-2.9l-27.4,7.5
		l22.2-10.7c-0.1-0.1-0.1-0.1-0.2-0.2c-0.6-0.7-1.1-1.5-1.5-2.3l-21.3,11.9L164.8,37.9z"/>
	<g>
		<polygon fill="#224099" points="129.3,37.1 130.5,39.3 133,39.7 131.1,41.5 131.6,43.9 129.3,42.8 127.1,43.9 127.5,41.5 
			125.7,39.7 128.2,39.3 		"/>
		<polygon fill="#224099" points="141.7,34.6 142.8,36.9 145.3,37.2 143.5,39 144,41.5 141.7,40.3 139.5,41.5 139.9,39 138.1,37.2 
			140.6,36.9 		"/>
		<polygon fill="#224099" points="154.5,37.1 155.6,39.3 158.1,39.7 156.3,41.5 156.7,43.9 154.5,42.8 152.3,43.9 152.7,41.5 
			150.9,39.7 153.4,39.3 		"/>
	</g>
</g>
</svg>
