<?xml version="1.0" encoding="utf-8"?>
<!-- Generator: Adobe Illustrator 16.0.0, SVG Export Plug-In . SVG Version: 6.00 Build 0)  -->
<!DOCTYPE svg PUBLIC "-//W3C//DTD SVG 1.1//EN" "http://www.w3.org/Graphics/SVG/1.1/DTD/svg11.dtd">
<svg version="1.1" id="Layer_1" xmlns="http://www.w3.org/2000/svg" xmlns:xlink="http://www.w3.org/1999/xlink" x="0px" y="0px"
	width="760px" height="440px" viewBox="0 0 380 220" enable-background="new 0 0 380 220" xml:space="preserve">
	<g><g id="Background">
		<path fill="#ffffff" d="m 376.2907,353.08756 c -3.99692,-4.41656 -21.2806,-12.34484 -33.89024,-15.54595 -11.2723,-2.86162 -24.55966,-4.55869 -53.33234,-6.81164 -12.69663,-0.99417 -16.61608,-1.90861 -24.21499,-5.64953 -15.51348,-7.63727 -26.76184,-23.21445 -29.07568,-40.26515 -0.55257,-4.07199 -1.48636,-8.18298 -2.07507,-9.13554 -0.82988,-1.34277 -26.15574,-1.73193 -112.7098,-1.73193 l -111.639413,0 0,-53.74012 0,-53.74011 111.673113,0 c 126.60261,0 113.49062,1.43993 115.07766,-12.63753 1.97926,-17.55665 15.73919,-34.4976 33.50196,-41.24691 5.17723,-1.9672 13.64638,-3.16949 29.36464,-4.16866 35.34516,-2.2468 58.87604,-8.35546 74.30397,-19.289456 l 6.83243,-4.842239 4.84275,3.69374 c 14.5099,11.067244 41.04827,18.227765 75.72254,20.431275 24.63773,1.5657 33.7426,4.04156 43.37843,11.79578 11.75939,9.46311 17.76619,19.92652 20.23311,35.2446 0.76984,4.78027 1.72343,9.2152 2.1191,9.8554 0.39566,0.6402 50.95712,1.164 112.3588,1.164 l 111.6394,0 0,53.74011 0,53.74012 -111.6394,0 c -61.40168,0 -111.96314,0.5238 -112.3588,1.164 -0.39567,0.6402 -1.36314,5.16124 -2.14992,10.04677 -3.39018,21.0511 -17.51163,37.15935 -38.30981,43.69976 -2.72237,0.85611 -14.81389,2.19612 -26.87006,2.97781 -34.66638,2.2477 -58.98379,8.68907 -72.89748,19.30962 -3.47762,2.65453 -6.53702,4.82643 -6.79865,4.82643 -0.26161,0 -1.65043,-1.2981 -3.08625,-2.88465 l 0,0 z" transform="scale(0.5,0.5)" />
	</g></g>
</svg>
