<?xml version="1.0" encoding="utf-8"?>
<!-- Generator: Adobe Illustrator 16.0.0, SVG Export Plug-In . SVG Version: 6.00 Build 0)  -->
<!DOCTYPE svg PUBLIC "-//W3C//DTD SVG 1.1//EN" "http://www.w3.org/Graphics/SVG/1.1/DTD/svg11.dtd">
<svg version="1.1" id="Layer_4" xmlns="http://www.w3.org/2000/svg" xmlns:xlink="http://www.w3.org/1999/xlink" x="0px" y="0px"
	 width="760px" height="440px" viewBox="0 0 380 220" enable-background="new 0 0 380 220" xml:space="preserve">
<g id="Halloween">
	
		<rect id="Background" x="5.646" y="66.473" fill="#414042" stroke="#000000" stroke-width="2.2536" stroke-miterlimit="10" width="367.204" height="86.643"/>
	<rect id="Ribbon" x="5.646" y="90.41" fill="#852728" width="368.583" height="38.385"/>
	
		<circle id="Face_Background" stroke="#000000" stroke-width="1.1232" stroke-miterlimit="10" cx="189.246" cy="109.793" r="73.519"/>
	<path id="Pumpkin" fill-rule="evenodd" clip-rule="evenodd" fill="#852728" d="M195.578,65.702l10.25,1.936l9.199,2.977
		c18.625,9.809,28.367,26.15,27.389,50.381c-1.551,14.839-11.258,25.551-25.607,32.513c-8.193,3.383-15.387,4.28-21.889,3.475
		c-7.401,1.239-14.795,0.89-22.182-1.784c-21.278-1.081-36.604-21.118-37.28-39.335c-0.466-24.669,6.225-40.488,22.413-45.533
		l18.022-3.466L195.578,65.702z"/>
	<g id="Jack-O-Lantern">
		<path fill-rule="evenodd" clip-rule="evenodd" fill="#F6891F" d="M193.381,108.928c0.406-8.797,7.789-12.601,5.451-23.11
			c9.178,6.044,13.607,13.744,13.283,23.098L193.381,108.928z"/>
		<path fill-rule="evenodd" clip-rule="evenodd" fill="#F6891F" d="M179.9,108.861c-0.321-8.801-7.669-12.676-5.225-23.163
			c-9.243,5.953-13.746,13.607-13.513,22.964L179.9,108.861z"/>
		<path fill-rule="evenodd" clip-rule="evenodd" fill="#F6891F" d="M189.285,111.106c-1.316-1.688-2.714-1.628-4.188,0.188
			c-1.847,3.667-7.539,10.751-2.617,10.924l9.892,0.206C196.037,122.241,191.207,113.989,189.285,111.106z"/>
		<path fill-rule="evenodd" clip-rule="evenodd" fill="#F6891F" d="M220.143,117.674c-3.135,4.353-7.74,7.792-14.496,9.894
			l1.424,8.189l-9.543,2.782l-2.373-7.457l-14.236-0.598l-1.352,5.383c-4.605,1.135-8.544,1.266-12.848-2.92l1.125-5.985
			c-4.799-2.418-9.844-5.376-15.14-8.886c3.681,18.377,13.446,26.254,26.985,27.62l1.922-7.34l9.521,0.89l0.388,6.821
			C206.592,144.027,218.686,137.985,220.143,117.674z"/>
	</g>
	
		<path id="Stem" fill-rule="evenodd" clip-rule="evenodd" fill="#006838" stroke="#000000" stroke-width="0.216" stroke-miterlimit="22.9256" d="
		M205.828,67.638c-3.623,2.96-7.883,3.586-14.784,4.672c-6.896,1.087-21.496-5.178-20.184-5.135
		c1.926,1.243,10.227-1.797,10.798-2.672c-1.061-2.636,0.033-5.297,0.102-8.151c0.17-7.375,9.416-9.141,13.296-11.6
		c17.506-0.92,23.689,1.127,3.645,4.782c-1.174,0.449-1.305,3.238-3.648,2.729c-1.926-0.416-3.145,1.98-2.654,4.11
		c0.682,2.963-2.725,6.075-1.73,7.439C196.246,64.458,200.703,66.671,205.828,67.638z"/>
	<g id="Pumpkin_design_2">
		<path fill-rule="evenodd" clip-rule="evenodd" d="M198.531,69.049c16.586,6.373,28.805,21.701,34.486,46.59
			c-4.076-24.625-9.875-36.568-32.314-48.968L198.531,69.049z"/>
		<path fill-rule="evenodd" clip-rule="evenodd" d="M178.487,69.702c-16.65,6.21-30.437,22.094-36.36,46.917
			c4.32-24.575,10.227-36.462,32.791-48.642L178.487,69.702z"/>
		<path fill-rule="evenodd" clip-rule="evenodd" d="M192.049,70.09c-3.846,8.356-5.006,17.687-4.95,27.462
			c-0.944-8.957-1.337-17.91,0.235-26.855L192.049,70.09z"/>
		<path fill-rule="evenodd" clip-rule="evenodd" d="M172.738,155.198c-8.61-5.485-15.062-12.343-20.172-20.05
			c8.144,9.003,16.831,17.017,27.436,21.957C177.553,156.68,175.134,156.025,172.738,155.198z"/>
		<path fill-rule="evenodd" clip-rule="evenodd" d="M208.09,156.287c8.662-5.398,15.178-13.105,20.357-20.765
			c-8.227,8.922-16.451,18.073-27.881,21.715C202.619,157.299,205.703,157.006,208.09,156.287z"/>
		<path fill-rule="evenodd" clip-rule="evenodd" d="M189.97,53.486c-0.067-3.926,5.168-3.56,7.454-6.483
			c0.277-1.793,3.541-1.14,4.682-2.469c-0.75,0.09-2.764-0.173-3.566,0.069c-2.932,2.539-9.417,2.5-11.699,5.82
			c-0.888,1.451-3.08,2.063-2.668,4.354c1.049-2.849,5.564-5.625,7.092-5.771C189.862,50.321,189.274,52.546,189.97,53.486z"/>
		<path fill-rule="evenodd" clip-rule="evenodd" d="M182.84,64.766c-0.13-2.792,0.457-5.353,1.308-7.83
			c-1.153,2.523-2.004,5.035-2.122,7.504c0.105,0.015,0.219,0.033,0.343,0.045C182.508,64.583,182.67,64.678,182.84,64.766z"/>
		<path fill-rule="evenodd" clip-rule="evenodd" d="M184.966,65.26c-1.579-2.156,0.229-4.823,0.534-8.215
			c0.612-1.043,0.218-2.438-0.256-3.704c2.948,4.025-1.564,7.824,1.209,12.158c-0.216-0.058-0.251-0.147-0.492-0.183
			C185.56,65.319,185.375,65.333,184.966,65.26z"/>
		<path fill-rule="evenodd" clip-rule="evenodd" d="M190.611,63.983c-0.435-2.986,0.815-4.979,1.147-7.491
			c-0.771,2.309-2.838,4.647-2.106,7.732C190.016,64.392,190.184,63.815,190.611,63.983z"/>
		<path fill-rule="evenodd" clip-rule="evenodd" d="M204.426,68.513c-3.018-0.092-5.248-2.232-7.668-2.991
			c2.145,1.157,2.424,3.454,5.594,3.268C202.939,70,204.209,69.007,204.426,68.513z"/>
		<path fill-rule="evenodd" clip-rule="evenodd" d="M174.605,68.533c3.016-0.061,5.269-2.18,7.694-2.917
			c-2.153,1.138-2.456,3.433-5.619,3.215C176.076,70.033,174.815,69.03,174.605,68.533z"/>
		<path fill-rule="evenodd" clip-rule="evenodd" stroke="#000000" stroke-width="0.216" stroke-miterlimit="22.9256" d="
			M181.872,64.331c1.497,1.049,5.31,0.572,7.511,2.663c-1.867-0.635-5.529-1.378-7.187-2.067
			C181.543,64.656,181.5,64.461,181.872,64.331z"/>
	</g>
	<g id="Face_Design">
		<radialGradient id="SVGID_1_" cx="148.5596" cy="160.3496" r="10.7122" gradientUnits="userSpaceOnUse">
			<stop  offset="0" style="stop-color:#FFF200"/>
			<stop  offset="0.0383" style="stop-color:#FFE900"/>
			<stop  offset="0.2745" style="stop-color:#FFC50C"/>
			<stop  offset="0.4965" style="stop-color:#FAA71A"/>
			<stop  offset="0.6981" style="stop-color:#F7931E"/>
			<stop  offset="0.8726" style="stop-color:#F6861F"/>
			<stop  offset="1" style="stop-color:#F58220"/>
		</radialGradient>
		<path fill="url(#SVGID_1_)" d="M161.468,162.021c-0.695,0.414,0.104,1.014,0.61,1c0.689-0.015,0.974-0.608,1.137-1.185
			c0.817-2.892-2.812-4.516-5.068-4.756c-2.173-0.228-4.381-0.01-6.412,0.841c-1.731,0.729-3.245,1.884-5.03,2.497
			c-1.735,0.591-3.626,1.18-5.491,0.988c-1.468-0.154-2.929-0.941-4.128-1.736c-0.626-0.415-2.562-1.929-3.3-1.014
			c1.391-0.231,0.684,1.393,0.617,2.243c-0.047,0.563,0.17,1.173,0.811,1.299c0.66,0.129,1.075-0.467,1.556-0.73
			c-0.627,0.524-1.274,1.31-0.729,2.235c0.187-0.586,0.49-0.059,0.856-0.12c0.446-0.076,0.476-0.626,0.7-0.935
			c0.188-0.265,0.896-0.713,0.614-0.073c-0.024,0.056-0.381,0.121-0.459,0.244c-0.102,0.149-0.151,0.397-0.16,0.564
			c0.463-0.35,0.962,0.367,1.491-0.406c0.054,1.088,1.183-0.144,1.426-0.378c0.409-0.393,0.945-0.688,1.503-0.764
			c1.362-0.185,3.064-0.577,4.362-1.063c1.325-0.492,2.227-1.078,3.446-1.669c0.065-0.028,0.093-0.05,0.146-0.081
			c-0.293,0.188-0.811,0.804-0.492,1.192c0.364,0.439,1.272-0.394,1.592-0.61c0.86-0.582,1.724-1.196,2.669-1.636
			c1.348-0.625,4.376-1.229,5.623-0.439c-0.531,0.006-0.902-0.029-1.123,0.505c0.332,0.402,0.72,0.161,1.103,0.069
			c-0.17,0.208-0.738,0.027-0.601,0.607c0.083-0.041,0.2-0.066,0.286-0.109c0.231,0.22,0.616,0.133,0.83-0.11
			c-0.096,0.089-0.121,0.195-0.186,0.28c1.005,0.128,1.818-0.212,2.61,0.632c0.565,0.603,1.088,1.694,0.639,2.428
			c-0.017-0.059-0.012-0.115-0.023-0.172c-0.388-0.028-0.512,0.41-0.79,0.606c-0.021-0.318-0.272-0.539-0.572-0.37L161.468,162.021z
			"/>
		<radialGradient id="SVGID_2_" cx="146.6035" cy="159.3594" r="4.3081" gradientUnits="userSpaceOnUse">
			<stop  offset="0" style="stop-color:#FFF200"/>
			<stop  offset="0.0383" style="stop-color:#FFE900"/>
			<stop  offset="0.2745" style="stop-color:#FFC50C"/>
			<stop  offset="0.4965" style="stop-color:#FAA71A"/>
			<stop  offset="0.6981" style="stop-color:#F7931E"/>
			<stop  offset="0.8726" style="stop-color:#F6861F"/>
			<stop  offset="1" style="stop-color:#F58220"/>
		</radialGradient>
		<path fill="url(#SVGID_2_)" d="M150.471,158.531c-0.7,0.276-1.391,0.752-2.078,1.082c-1.01,0.482-2.012,0.935-3.128,1.109
			c-1.233,0.198-3.187,0.308-4.099-0.737c-0.294-0.338-0.906-1.89,0.028-1.865c0.004-0.005-0.003,0.113-0.003,0.113
			c-0.248,0.118-0.188,0.302,0.052,0.307c0.152,0.006,0.299-0.24,0.54-0.215c0.528,0.052,0.415,0.522,0.415,0.941
			c-0.045-0.223,0.086-0.421,0.294-0.484c0.212,0.614-0.312,1.205,0.411,1.652c0.383,0.236,1.491,0.411,1.898,0.255
			c-0.095,0.003-0.175-0.035-0.27-0.047c0.083-0.236,1.496-0.317,1.822-0.419c0.607-0.183,1.205-0.329,1.79-0.61
			c1.19-0.583,2.257-1.425,3.574-1.619c0.26-0.042,0.526-0.092,0.791-0.127L150.471,158.531z"/>
		<radialGradient id="SVGID_3_" cx="156.0244" cy="160.832" r="3.658" gradientUnits="userSpaceOnUse">
			<stop  offset="0" style="stop-color:#FFF200"/>
			<stop  offset="0.0383" style="stop-color:#FFE900"/>
			<stop  offset="0.2745" style="stop-color:#FFC50C"/>
			<stop  offset="0.4965" style="stop-color:#FAA71A"/>
			<stop  offset="0.6981" style="stop-color:#F7931E"/>
			<stop  offset="0.8726" style="stop-color:#F6861F"/>
			<stop  offset="1" style="stop-color:#F58220"/>
		</radialGradient>
		<path fill="url(#SVGID_3_)" d="M159.826,157.574c-1.735-0.63-3.87-0.081-4.695,1.746c-0.497,1.103-0.194,2.627-1.156,3.494
			c-0.333,0.303-0.561,0.326-0.964,0.289c-0.259-0.028-0.698-0.164-0.787,0.2c0.513-0.104,0.63,0.048,0.994,0.416
			c0.376,0.376,0.865,0.735,1.454,0.587c0.39-0.097,0.619-0.409,0.574-0.828c-0.05-0.432-0.624-0.729-0.526-1.16
			c0.187,0.12,0.145,0.521,0.328,0.735c0.225,0.262,0.53,0.396,0.856,0.47c-0.159-0.236,0.3-0.621,0.03-0.997
			c0.447,0.397,0.328-0.489,0.183-0.709c-0.23-0.357-0.584-0.594-0.79-0.96c-0.343-0.603-0.236-1.198,0.062-1.785
			c0.558-1.097,2.061-1.735,3.191-1.579c0.404,0.053,0.808,0.146,1.203,0.248L159.826,157.574z"/>
		<radialGradient id="SVGID_4_" cx="159.9912" cy="156.8281" r="2.9932" gradientUnits="userSpaceOnUse">
			<stop  offset="0" style="stop-color:#FFF200"/>
			<stop  offset="0.0383" style="stop-color:#FFE900"/>
			<stop  offset="0.2745" style="stop-color:#FFC50C"/>
			<stop  offset="0.4965" style="stop-color:#FAA71A"/>
			<stop  offset="0.6981" style="stop-color:#F7931E"/>
			<stop  offset="0.8726" style="stop-color:#F6861F"/>
			<stop  offset="1" style="stop-color:#F58220"/>
		</radialGradient>
		<path fill="url(#SVGID_4_)" d="M162.528,159.198c-0.572-0.85-1.703-1.539-2.615-1.998c-0.87-0.439-1.56-0.807-2.217-1.537
			c-0.178-0.201-1.159-1.917-0.326-1.867c-0.592,0.822,1.28,0.442,1.666,0.671c0.396,0.23,0.38,0.65,0.336,1.074
			c-0.023,0.229-0.293,0.848,0.158,0.864c-0.114-0.31-0.138-1.172,0.459-1.068c-0.131,0.281,0.15,0.61,0.135,0.934
			c0.307-0.241,0.541,0.587,0.669,0.809c0.219,0.366,0.501,0.788,0.832,1.069c0.612,0.524,1.021,0.927,1.319,1.713L162.528,159.198z
			"/>
		<radialGradient id="SVGID_5_" cx="161.7627" cy="160.9238" r="1.2977" gradientUnits="userSpaceOnUse">
			<stop  offset="0" style="stop-color:#FFF200"/>
			<stop  offset="0.0383" style="stop-color:#FFE900"/>
			<stop  offset="0.2745" style="stop-color:#FFC50C"/>
			<stop  offset="0.4965" style="stop-color:#FAA71A"/>
			<stop  offset="0.6981" style="stop-color:#F7931E"/>
			<stop  offset="0.8726" style="stop-color:#F6861F"/>
			<stop  offset="1" style="stop-color:#F58220"/>
		</radialGradient>
		<path fill="url(#SVGID_5_)" d="M162.863,162.021c0.334-0.549,0.047-1.317-0.458-1.7c-0.426-0.323-1.552-0.139-1.672-0.747
			c-0.128,0.146-0.312,0.542-0.149,0.74c0.201,0.234,0.551-0.036,0.747,0.048c-0.255,0.172-0.797,0.077-0.662,0.618
			c0.337,0,0.398,0.086,0.778-0.13c0.31-0.175,0.542-0.32,0.885-0.168c0.603,0.27,0.686,1.056,0.404,1.592L162.863,162.021z"/>
		<radialGradient id="SVGID_6_" cx="227.4395" cy="160.3496" r="10.7122" gradientUnits="userSpaceOnUse">
			<stop  offset="0" style="stop-color:#FFF200"/>
			<stop  offset="0.0383" style="stop-color:#FFE900"/>
			<stop  offset="0.2745" style="stop-color:#FFC50C"/>
			<stop  offset="0.4965" style="stop-color:#FAA71A"/>
			<stop  offset="0.6981" style="stop-color:#F7931E"/>
			<stop  offset="0.8726" style="stop-color:#F6861F"/>
			<stop  offset="1" style="stop-color:#F58220"/>
		</radialGradient>
		<path fill="url(#SVGID_6_)" d="M214.531,162.021c0.695,0.414-0.102,1.014-0.611,1c-0.689-0.015-0.973-0.608-1.137-1.185
			c-0.816-2.892,2.814-4.516,5.068-4.756c2.174-0.228,4.383-0.01,6.412,0.841c1.729,0.729,3.246,1.884,5.031,2.497
			c1.734,0.591,3.627,1.18,5.492,0.988c1.465-0.154,2.93-0.941,4.129-1.736c0.625-0.415,2.559-1.929,3.297-1.014
			c-1.393-0.231-0.686,1.393-0.615,2.243c0.045,0.563-0.17,1.173-0.812,1.299c-0.662,0.129-1.07-0.467-1.555-0.73
			c0.625,0.524,1.27,1.31,0.727,2.235c-0.184-0.586-0.488-0.059-0.854-0.12c-0.447-0.076-0.475-0.626-0.703-0.935
			c-0.186-0.265-0.893-0.713-0.613-0.073c0.027,0.056,0.381,0.121,0.459,0.244c0.102,0.149,0.148,0.397,0.162,0.564
			c-0.465-0.35-0.961,0.367-1.49-0.406c-0.055,1.088-1.188-0.144-1.432-0.378c-0.406-0.393-0.941-0.688-1.496-0.764
			c-1.365-0.185-3.068-0.577-4.369-1.063c-1.32-0.492-2.221-1.078-3.443-1.669c-0.064-0.028-0.09-0.05-0.146-0.081
			c0.299,0.188,0.814,0.804,0.494,1.192c-0.363,0.439-1.273-0.394-1.596-0.61c-0.857-0.582-1.721-1.196-2.668-1.636
			c-1.344-0.625-4.375-1.229-5.623-0.439c0.533,0.006,0.9-0.029,1.125,0.505c-0.332,0.402-0.719,0.161-1.104,0.069
			c0.174,0.208,0.74,0.027,0.604,0.607c-0.084-0.041-0.201-0.066-0.287-0.109c-0.232,0.22-0.619,0.133-0.83-0.11
			c0.094,0.089,0.119,0.195,0.186,0.28c-1.008,0.128-1.818-0.212-2.609,0.632c-0.566,0.603-1.086,1.694-0.639,2.428
			c0.016-0.059,0.008-0.115,0.02-0.172c0.387-0.028,0.518,0.41,0.791,0.606c0.023-0.318,0.27-0.539,0.574-0.37L214.531,162.021z"/>
		<radialGradient id="SVGID_7_" cx="229.3984" cy="159.3594" r="4.3077" gradientUnits="userSpaceOnUse">
			<stop  offset="0" style="stop-color:#FFF200"/>
			<stop  offset="0.0383" style="stop-color:#FFE900"/>
			<stop  offset="0.2745" style="stop-color:#FFC50C"/>
			<stop  offset="0.4965" style="stop-color:#FAA71A"/>
			<stop  offset="0.6981" style="stop-color:#F7931E"/>
			<stop  offset="0.8726" style="stop-color:#F6861F"/>
			<stop  offset="1" style="stop-color:#F58220"/>
		</radialGradient>
		<path fill="url(#SVGID_7_)" d="M225.527,158.531c0.701,0.276,1.393,0.752,2.078,1.082c1.012,0.482,2.012,0.935,3.131,1.109
			c1.23,0.198,3.184,0.308,4.096-0.737c0.295-0.338,0.91-1.89-0.023-1.865c-0.004-0.005,0,0.113,0,0.113
			c0.246,0.118,0.186,0.302-0.049,0.307c-0.154,0.006-0.301-0.24-0.547-0.215c-0.523,0.052-0.41,0.522-0.41,0.941
			c0.043-0.223-0.09-0.421-0.295-0.484c-0.215,0.614,0.311,1.205-0.41,1.652c-0.385,0.236-1.492,0.411-1.902,0.255
			c0.096,0.003,0.174-0.035,0.273-0.047c-0.088-0.236-1.498-0.317-1.824-0.419c-0.609-0.183-1.209-0.329-1.789-0.61
			c-1.186-0.583-2.262-1.425-3.576-1.619c-0.26-0.042-0.527-0.092-0.787-0.127L225.527,158.531z"/>
		<radialGradient id="SVGID_8_" cx="219.9746" cy="160.832" r="3.6567" gradientUnits="userSpaceOnUse">
			<stop  offset="0" style="stop-color:#FFF200"/>
			<stop  offset="0.0383" style="stop-color:#FFE900"/>
			<stop  offset="0.2745" style="stop-color:#FFC50C"/>
			<stop  offset="0.4965" style="stop-color:#FAA71A"/>
			<stop  offset="0.6981" style="stop-color:#F7931E"/>
			<stop  offset="0.8726" style="stop-color:#F6861F"/>
			<stop  offset="1" style="stop-color:#F58220"/>
		</radialGradient>
		<path fill="url(#SVGID_8_)" d="M216.176,157.574c1.736-0.63,3.867-0.081,4.693,1.746c0.498,1.103,0.195,2.627,1.158,3.494
			c0.334,0.303,0.559,0.326,0.961,0.289c0.256-0.028,0.701-0.164,0.785,0.2c-0.506-0.104-0.631,0.048-0.99,0.416
			c-0.379,0.376-0.865,0.735-1.455,0.587c-0.389-0.097-0.617-0.409-0.572-0.828c0.049-0.432,0.623-0.729,0.523-1.16
			c-0.188,0.12-0.146,0.521-0.324,0.735c-0.229,0.262-0.531,0.396-0.859,0.47c0.16-0.236-0.301-0.621-0.031-0.997
			c-0.449,0.397-0.326-0.489-0.184-0.709c0.232-0.357,0.586-0.594,0.791-0.96c0.344-0.603,0.238-1.198-0.061-1.785
			c-0.559-1.097-2.064-1.735-3.191-1.579c-0.404,0.053-0.809,0.146-1.207,0.248L216.176,157.574z"/>
		<radialGradient id="SVGID_9_" cx="216.0078" cy="156.8281" r="2.9939" gradientUnits="userSpaceOnUse">
			<stop  offset="0" style="stop-color:#FFF200"/>
			<stop  offset="0.0383" style="stop-color:#FFE900"/>
			<stop  offset="0.2745" style="stop-color:#FFC50C"/>
			<stop  offset="0.4965" style="stop-color:#FAA71A"/>
			<stop  offset="0.6981" style="stop-color:#F7931E"/>
			<stop  offset="0.8726" style="stop-color:#F6861F"/>
			<stop  offset="1" style="stop-color:#F58220"/>
		</radialGradient>
		<path fill="url(#SVGID_9_)" d="M213.469,159.198c0.574-0.85,1.707-1.539,2.621-1.998c0.871-0.439,1.555-0.807,2.213-1.537
			c0.178-0.201,1.162-1.917,0.33-1.867c0.59,0.822-1.281,0.442-1.672,0.671c-0.393,0.23-0.375,0.65-0.336,1.074
			c0.025,0.229,0.297,0.848-0.156,0.864c0.117-0.31,0.143-1.172-0.461-1.068c0.135,0.281-0.148,0.61-0.131,0.934
			c-0.307-0.241-0.543,0.587-0.67,0.809c-0.219,0.366-0.502,0.788-0.83,1.069c-0.617,0.524-1.025,0.927-1.322,1.713L213.469,159.198
			z"/>
		<radialGradient id="SVGID_10_" cx="214.2354" cy="160.9238" r="1.2979" gradientUnits="userSpaceOnUse">
			<stop  offset="0" style="stop-color:#FFF200"/>
			<stop  offset="0.0383" style="stop-color:#FFE900"/>
			<stop  offset="0.2745" style="stop-color:#FFC50C"/>
			<stop  offset="0.4965" style="stop-color:#FAA71A"/>
			<stop  offset="0.6981" style="stop-color:#F7931E"/>
			<stop  offset="0.8726" style="stop-color:#F6861F"/>
			<stop  offset="1" style="stop-color:#F58220"/>
		</radialGradient>
		<path fill="url(#SVGID_10_)" d="M213.137,162.021c-0.338-0.549-0.049-1.317,0.455-1.7c0.428-0.323,1.553-0.139,1.676-0.747
			c0.129,0.146,0.311,0.542,0.146,0.74c-0.199,0.234-0.549-0.036-0.744,0.048c0.26,0.172,0.799,0.077,0.664,0.618
			c-0.338,0-0.402,0.086-0.777-0.13c-0.316-0.175-0.547-0.32-0.889-0.168c-0.604,0.27-0.686,1.056-0.406,1.592L213.137,162.021z"/>
		<radialGradient id="SVGID_11_" cx="175.1826" cy="171.3145" r="6.4177" gradientUnits="userSpaceOnUse">
			<stop  offset="0" style="stop-color:#FFF200"/>
			<stop  offset="0.0383" style="stop-color:#FFE900"/>
			<stop  offset="0.2745" style="stop-color:#FFC50C"/>
			<stop  offset="0.4965" style="stop-color:#FAA71A"/>
			<stop  offset="0.6981" style="stop-color:#F7931E"/>
			<stop  offset="0.8726" style="stop-color:#F6861F"/>
			<stop  offset="1" style="stop-color:#F58220"/>
		</radialGradient>
		<path fill="url(#SVGID_11_)" d="M167.837,168.958c-0.299,0.517-0.623-0.323-0.494-0.647c0.141-0.35,0.607-0.577,0.947-0.669
			c0.969-0.255,2.05-0.059,2.773,0.669c0.671,0.677,0.974,1.681,1.413,2.527c0.79,1.509,1.813,3.135,3.378,3.97
			c2.274,1.22,5.412,0.664,6.811-1.615c0.534-0.865,0.69-2.009,0.557-3.021c-0.069-0.529-0.542-1.243-1.156-1.106
			c0.005,0.015,0.005,0.121,0,0.138c0.548-0.035,0.896,0.584,0.499,0.969c-0.292,0.279-0.76,0.214-1.046,0.561
			c-0.681,0.813,0.733,1.636,0.642,2.547c0.054-0.522-0.551-1.258-1.093-1.237c0.161,0.237-0.043,0.79-0.028,1.103
			c0.021,0.377,0.063,0.995-0.335,1.152c0.124-0.305,0.43-0.635,0.096-0.933c-0.318,0.338-0.546,0.441-0.699,0.921
			c0.234-0.439-0.097-0.323-0.298-0.172c-0.26,0.191-0.416,0.506-0.721,0.688c-0.476,0.274-1.149,0.476-1.714,0.399
			c-0.963-0.128-2.249-0.813-2.805-1.638c0.299,0.416,0.562,0.193,0.322-0.206c-0.177-0.293-0.544-0.368-0.794-0.581
			c-0.442-0.372-0.783-0.991-1.048-1.497c-0.531-1.012-0.912-2.486-1.86-3.235c0.137,0.075,0.238,0.028,0.378,0.049
			c0.175-0.631-1.267-0.846-1.668-0.889c-0.686-0.071-1.101,0.225-1.682,0.385c0.017-0.028,0.024-0.056,0.024-0.085
			c-0.8-0.075-1.489,0.943-0.943,1.644c0.233,0.301,0.784,0.241,0.849-0.188c0.078-0.513-0.67-0.55-0.557,0H167.837z"/>
		<radialGradient id="SVGID_12_" cx="169.3057" cy="170.8652" r="2.704" gradientUnits="userSpaceOnUse">
			<stop  offset="0" style="stop-color:#FFF200"/>
			<stop  offset="0.0383" style="stop-color:#FFE900"/>
			<stop  offset="0.2745" style="stop-color:#FFC50C"/>
			<stop  offset="0.4965" style="stop-color:#FAA71A"/>
			<stop  offset="0.6981" style="stop-color:#F7931E"/>
			<stop  offset="0.8726" style="stop-color:#F6861F"/>
			<stop  offset="1" style="stop-color:#F58220"/>
		</radialGradient>
		<path fill="url(#SVGID_12_)" d="M167.585,168.046c1.211-1.075,2.861,0.095,3.416,1.274c0.457,0.964,0.376,1.885,0.128,2.875
			c-0.111,0.438-0.536,1.583,0.081,1.815c-0.322,0.288-0.951-0.109-1.043-0.518c-0.12-0.529,0.762-0.764,0.494-1.166
			c-0.17,0.513-0.757,0.813-1.295,0.527c0.151-0.175-0.008-0.388,0.146-0.609c0.122-0.175,0.42-0.204,0.595-0.311
			c0.485-0.297,0.826-0.657,0.918-1.215c0.133-0.804-0.457-2.007-1.123-2.503c0.038,0.082,0.021,0.198,0.045,0.273
			c-0.151,0.08-0.96-0.39-1.303-0.444c-0.482-0.073-0.99-0.007-1.363,0.354L167.585,168.046z"/>
		<radialGradient id="SVGID_13_" cx="175.3496" cy="170.0684" r="3.5079" gradientUnits="userSpaceOnUse">
			<stop  offset="0" style="stop-color:#FFF200"/>
			<stop  offset="0.0383" style="stop-color:#FFE900"/>
			<stop  offset="0.2745" style="stop-color:#FFC50C"/>
			<stop  offset="0.4965" style="stop-color:#FAA71A"/>
			<stop  offset="0.6981" style="stop-color:#F7931E"/>
			<stop  offset="0.8726" style="stop-color:#F6861F"/>
			<stop  offset="1" style="stop-color:#F58220"/>
		</radialGradient>
		<path fill="url(#SVGID_13_)" d="M170.966,167.848c1.244,0.617,1.852,2.453,2.861,3.38c0.879,0.81,1.966,1.216,3.175,1.159
			c0.791-0.04,2.004-0.905,2.73-0.357c-0.14-0.314-0.504-1.066-0.901-1.11c-0.479-0.045-0.489,0.598-0.903,0.753
			c0.381-0.281,0.956-1.259,0.197-1.354c-0.648-0.083-0.735,1-1.19,1.345c0.095-0.143,0.05-0.231,0.072-0.378
			c-0.668,0.057-1.189,0.403-1.908,0.193c-0.562-0.165-1.059-0.564-1.497-0.97c-0.887-0.82-1.482-2.155-2.538-2.763L170.966,167.848
			z"/>
		<radialGradient id="SVGID_14_" cx="183.5195" cy="173.2314" r="3.0177" gradientUnits="userSpaceOnUse">
			<stop  offset="0" style="stop-color:#FFF200"/>
			<stop  offset="0.0383" style="stop-color:#FFE900"/>
			<stop  offset="0.2745" style="stop-color:#FFC50C"/>
			<stop  offset="0.4965" style="stop-color:#FAA71A"/>
			<stop  offset="0.6981" style="stop-color:#F7931E"/>
			<stop  offset="0.8726" style="stop-color:#F6861F"/>
			<stop  offset="1" style="stop-color:#F58220"/>
		</radialGradient>
		<path fill="url(#SVGID_14_)" d="M180.966,174.843c0.451-0.346,0.946-0.596,1.346-1.012c0.551-0.574,0.943-1.225,1.548-1.759
			c0.644-0.563,1.749-1.076,2.614-0.754c0.258,0.099,0.586,0.312,0.722,0.562c0.099,0.176,0.167,0.499-0.104,0.499
			c0.255-0.314-0.205-0.423-0.416-0.196c-0.263,0.284-0.218,0.748-0.664,0.885c-0.411,0.125-1.688-1.06-1.913-0.521
			c0.402-0.012,0.877,0.158,0.832,0.642c-0.259-0.005-0.508,0.068-0.77,0.028c-0.284-0.039-0.511-0.194-0.805-0.129
			c-0.454,0.093-0.673,0.587-0.977,0.91c-0.678,0.717-1.63,1.246-2.623,1.246L180.966,174.843z"/>
		<radialGradient id="SVGID_15_" cx="184.874" cy="170.2852" r="2.195" gradientUnits="userSpaceOnUse">
			<stop  offset="0" style="stop-color:#FFF200"/>
			<stop  offset="0.0383" style="stop-color:#FFE900"/>
			<stop  offset="0.2745" style="stop-color:#FFC50C"/>
			<stop  offset="0.4965" style="stop-color:#FAA71A"/>
			<stop  offset="0.6981" style="stop-color:#F7931E"/>
			<stop  offset="0.8726" style="stop-color:#F6861F"/>
			<stop  offset="1" style="stop-color:#F58220"/>
		</radialGradient>
		<path fill="url(#SVGID_15_)" d="M183.321,172.452c0.704-0.726,1.589-1.127,2.362-1.779c0.467-0.395,0.876-1.068,0.961-1.682
			c0.05-0.38,0.039-1.122-0.427-1.241c-0.078,0.332,0.382,0.582-0.104,0.835c-0.361,0.189-0.865,0.048-1.253,0.133
			c-0.438,0.104-0.749,0.42-0.767,0.879c-0.011,0.296,0.275,0.89-0.062,1.071c-0.036-0.311,0.155-0.797-0.334-0.832
			c-0.075,0.273-0.126,0.531-0.08,0.806c0.045,0.289,0.137,0.497,0.08,0.802c-0.085,0.487-0.423,0.922-0.612,1.378L183.321,172.452z
			"/>
		<radialGradient id="SVGID_16_" cx="182.4443" cy="177.7881" r="3.7412" gradientUnits="userSpaceOnUse">
			<stop  offset="0" style="stop-color:#FFF200"/>
			<stop  offset="0.0383" style="stop-color:#FFE900"/>
			<stop  offset="0.2745" style="stop-color:#FFC50C"/>
			<stop  offset="0.4965" style="stop-color:#FAA71A"/>
			<stop  offset="0.6981" style="stop-color:#F7931E"/>
			<stop  offset="0.8726" style="stop-color:#F6861F"/>
			<stop  offset="1" style="stop-color:#F58220"/>
		</radialGradient>
		<path fill="url(#SVGID_16_)" d="M178.541,175.412c0.308,0.097,0.778-0.021,1.1-0.063c0.614-0.085,1.228-0.223,1.851-0.281
			c1.625-0.153,3.277,0.07,4.546,1.193c0.675,0.594,0.983,1.513,0.908,2.402c-0.033,0.369-0.172,0.782-0.404,1.062
			c-0.092,0.105-0.208,0.179-0.303,0.283c-0.099,0.118-0.122,0.286-0.201,0.383c-0.035,0.04-0.028,0.113-0.039,0.161
			c-0.268-0.188-0.525-0.508-0.163-0.797c0.233-0.178,0.836-0.076,0.736-0.574c-0.017,0-0.075,0.005-0.092,0
			c-0.065,0.293-0.293,0.444-0.6,0.402c0.153-0.183-0.314-0.32,0.112-0.577c-0.328,0.175-0.213-0.191-0.122-0.334
			c0.122-0.187,0.333-0.313,0.463-0.503c0.246-0.366,0.255-0.827,0.068-1.213c-0.283-0.569-1.062-1.234-1.699-1.338
			c0.177,0.05,0.511,0.459,0.321,0.624c-0.177,0.153-0.466-0.293-0.594-0.401c-0.373-0.32-0.86-0.487-1.319-0.596
			c-0.954-0.225-2.044-0.071-2.962,0.167c0.265,0.229-0.808,0.183-0.971,0.17c-0.457-0.049-0.812-0.087-1.244-0.236L178.541,175.412
			z"/>
		<radialGradient id="SVGID_17_" cx="200.8164" cy="171.3145" r="6.4171" gradientUnits="userSpaceOnUse">
			<stop  offset="0" style="stop-color:#FFF200"/>
			<stop  offset="0.0383" style="stop-color:#FFE900"/>
			<stop  offset="0.2745" style="stop-color:#FFC50C"/>
			<stop  offset="0.4965" style="stop-color:#FAA71A"/>
			<stop  offset="0.6981" style="stop-color:#F7931E"/>
			<stop  offset="0.8726" style="stop-color:#F6861F"/>
			<stop  offset="1" style="stop-color:#F58220"/>
		</radialGradient>
		<path fill="url(#SVGID_17_)" d="M208.164,168.958c0.297,0.517,0.621-0.323,0.49-0.647c-0.137-0.35-0.607-0.577-0.949-0.669
			c-0.969-0.255-2.045-0.059-2.771,0.669c-0.67,0.677-0.973,1.681-1.41,2.527c-0.789,1.509-1.812,3.135-3.377,3.97
			c-2.275,1.22-5.416,0.664-6.816-1.615c-0.527-0.865-0.688-2.009-0.551-3.021c0.068-0.529,0.539-1.243,1.15-1.106
			c-0.002,0.015,0,0.121,0,0.138c-0.545-0.035-0.891,0.584-0.492,0.969c0.289,0.279,0.758,0.214,1.045,0.561
			c0.678,0.813-0.736,1.636-0.646,2.547c-0.053-0.522,0.555-1.258,1.094-1.237c-0.158,0.237,0.047,0.79,0.029,1.103
			c-0.016,0.377-0.066,0.995,0.334,1.152c-0.119-0.305-0.426-0.635-0.092-0.933c0.314,0.338,0.543,0.441,0.695,0.921
			c-0.23-0.439,0.1-0.323,0.299-0.172c0.26,0.191,0.416,0.506,0.721,0.688c0.475,0.274,1.15,0.476,1.713,0.399
			c0.963-0.128,2.252-0.813,2.811-1.638c-0.303,0.416-0.566,0.193-0.328-0.206c0.178-0.293,0.547-0.368,0.795-0.581
			c0.445-0.372,0.785-0.991,1.051-1.497c0.529-1.012,0.912-2.486,1.863-3.235c-0.145,0.075-0.24,0.028-0.383,0.049
			c-0.174-0.631,1.266-0.846,1.666-0.889c0.689-0.071,1.102,0.225,1.688,0.385c-0.02-0.028-0.029-0.056-0.029-0.085
			c0.799-0.075,1.49,0.943,0.943,1.644c-0.236,0.301-0.779,0.241-0.848-0.188c-0.078-0.513,0.668-0.55,0.559,0H208.164z"/>
		<radialGradient id="SVGID_18_" cx="206.6914" cy="170.8652" r="2.7036" gradientUnits="userSpaceOnUse">
			<stop  offset="0" style="stop-color:#FFF200"/>
			<stop  offset="0.0383" style="stop-color:#FFE900"/>
			<stop  offset="0.2745" style="stop-color:#FFC50C"/>
			<stop  offset="0.4965" style="stop-color:#FAA71A"/>
			<stop  offset="0.6981" style="stop-color:#F7931E"/>
			<stop  offset="0.8726" style="stop-color:#F6861F"/>
			<stop  offset="1" style="stop-color:#F58220"/>
		</radialGradient>
		<path fill="url(#SVGID_18_)" d="M208.416,168.046c-1.211-1.075-2.863,0.095-3.416,1.274c-0.461,0.964-0.379,1.885-0.127,2.875
			c0.105,0.438,0.531,1.583-0.086,1.815c0.322,0.288,0.957-0.109,1.047-0.518c0.117-0.529-0.764-0.764-0.496-1.166
			c0.17,0.513,0.756,0.813,1.297,0.527c-0.154-0.175,0.004-0.388-0.146-0.609c-0.125-0.175-0.418-0.204-0.596-0.311
			c-0.488-0.297-0.826-0.657-0.918-1.215c-0.137-0.804,0.459-2.007,1.123-2.503c-0.041,0.082-0.023,0.198-0.047,0.273
			c0.158,0.08,0.963-0.39,1.305-0.444c0.48-0.073,0.988-0.007,1.359,0.354L208.416,168.046z"/>
		<radialGradient id="SVGID_19_" cx="200.6504" cy="170.0684" r="3.51" gradientUnits="userSpaceOnUse">
			<stop  offset="0" style="stop-color:#FFF200"/>
			<stop  offset="0.0383" style="stop-color:#FFE900"/>
			<stop  offset="0.2745" style="stop-color:#FFC50C"/>
			<stop  offset="0.4965" style="stop-color:#FAA71A"/>
			<stop  offset="0.6981" style="stop-color:#F7931E"/>
			<stop  offset="0.8726" style="stop-color:#F6861F"/>
			<stop  offset="1" style="stop-color:#F58220"/>
		</radialGradient>
		<path fill="url(#SVGID_19_)" d="M205.037,167.848c-1.248,0.617-1.852,2.453-2.865,3.38c-0.879,0.81-1.967,1.216-3.178,1.159
			c-0.785-0.04-2-0.905-2.73-0.357c0.145-0.314,0.506-1.066,0.902-1.11c0.482-0.045,0.494,0.598,0.906,0.753
			c-0.381-0.281-0.957-1.259-0.199-1.354c0.648-0.083,0.73,1,1.195,1.345c-0.098-0.143-0.053-0.231-0.078-0.378
			c0.672,0.057,1.193,0.403,1.91,0.193c0.562-0.165,1.057-0.564,1.498-0.97c0.889-0.82,1.479-2.155,2.535-2.763L205.037,167.848z"/>
		<radialGradient id="SVGID_20_" cx="192.4805" cy="173.2314" r="3.0167" gradientUnits="userSpaceOnUse">
			<stop  offset="0" style="stop-color:#FFF200"/>
			<stop  offset="0.0383" style="stop-color:#FFE900"/>
			<stop  offset="0.2745" style="stop-color:#FFC50C"/>
			<stop  offset="0.4965" style="stop-color:#FAA71A"/>
			<stop  offset="0.6981" style="stop-color:#F7931E"/>
			<stop  offset="0.8726" style="stop-color:#F6861F"/>
			<stop  offset="1" style="stop-color:#F58220"/>
		</radialGradient>
		<path fill="url(#SVGID_20_)" d="M195.031,174.843c-0.451-0.346-0.943-0.596-1.34-1.012c-0.559-0.574-0.945-1.225-1.553-1.759
			c-0.643-0.563-1.748-1.076-2.615-0.754c-0.258,0.099-0.584,0.312-0.719,0.562c-0.1,0.176-0.168,0.499,0.104,0.499
			c-0.256-0.314,0.205-0.423,0.416-0.196c0.262,0.284,0.218,0.748,0.662,0.885c0.413,0.125,1.69-1.06,1.915-0.521
			c-0.404-0.012-0.875,0.158-0.833,0.642c0.256-0.005,0.506,0.068,0.766,0.028c0.283-0.039,0.512-0.194,0.807-0.129
			c0.457,0.093,0.674,0.587,0.979,0.91c0.678,0.717,1.631,1.246,2.621,1.246L195.031,174.843z"/>
		<radialGradient id="SVGID_21_" cx="191.125" cy="170.2852" r="2.1946" gradientUnits="userSpaceOnUse">
			<stop  offset="0" style="stop-color:#FFF200"/>
			<stop  offset="0.0383" style="stop-color:#FFE900"/>
			<stop  offset="0.2745" style="stop-color:#FFC50C"/>
			<stop  offset="0.4965" style="stop-color:#FAA71A"/>
			<stop  offset="0.6981" style="stop-color:#F7931E"/>
			<stop  offset="0.8726" style="stop-color:#F6861F"/>
			<stop  offset="1" style="stop-color:#F58220"/>
		</radialGradient>
		<path fill="url(#SVGID_21_)" d="M192.678,172.452c-0.703-0.726-1.586-1.127-2.362-1.779c-0.464-0.395-0.874-1.068-0.958-1.682
			c-0.054-0.38-0.042-1.122,0.422-1.241c0.078,0.332-0.381,0.582,0.105,0.835c0.362,0.189,0.868,0.048,1.256,0.133
			c0.435,0.104,0.748,0.42,0.763,0.879c0.012,0.296-0.273,0.89,0.062,1.071c0.037-0.311-0.154-0.797,0.338-0.832
			c0.07,0.273,0.125,0.531,0.082,0.806c-0.047,0.289-0.141,0.497-0.086,0.802c0.086,0.487,0.422,0.922,0.613,1.378L192.678,172.452z
			"/>
		<radialGradient id="SVGID_22_" cx="193.5547" cy="177.7881" r="3.7412" gradientUnits="userSpaceOnUse">
			<stop  offset="0" style="stop-color:#FFF200"/>
			<stop  offset="0.0383" style="stop-color:#FFE900"/>
			<stop  offset="0.2745" style="stop-color:#FFC50C"/>
			<stop  offset="0.4965" style="stop-color:#FAA71A"/>
			<stop  offset="0.6981" style="stop-color:#F7931E"/>
			<stop  offset="0.8726" style="stop-color:#F6861F"/>
			<stop  offset="1" style="stop-color:#F58220"/>
		</radialGradient>
		<path fill="url(#SVGID_22_)" d="M197.459,175.412c-0.309,0.097-0.779-0.021-1.102-0.063c-0.613-0.085-1.223-0.223-1.85-0.281
			c-1.627-0.153-3.275,0.07-4.546,1.193c-0.676,0.594-0.983,1.513-0.908,2.402c0.035,0.369,0.171,0.782,0.407,1.062
			c0.09,0.105,0.206,0.179,0.298,0.283c0.104,0.118,0.122,0.286,0.203,0.383c0.037,0.04,0.031,0.113,0.042,0.161
			c0.265-0.188,0.523-0.508,0.161-0.797c-0.233-0.178-0.834-0.076-0.737-0.574c0.019,0,0.076,0.005,0.092,0
			c0.066,0.293,0.293,0.444,0.599,0.402c-0.149-0.183,0.318-0.32-0.111-0.577c0.331,0.175,0.215-0.191,0.123-0.334
			c-0.123-0.187-0.331-0.313-0.463-0.503c-0.247-0.366-0.253-0.827-0.066-1.213c0.28-0.569,1.061-1.234,1.697-1.338
			c-0.173,0.05-0.514,0.459-0.319,0.624c0.173,0.153,0.465-0.293,0.588-0.401c0.379-0.32,0.865-0.487,1.324-0.596
			c0.953-0.225,2.039-0.071,2.959,0.167c-0.26,0.229,0.807,0.183,0.971,0.17c0.461-0.049,0.814-0.087,1.246-0.236L197.459,175.412z"
			/>
	</g>
	<g id="Spiders">
		<path fill-rule="evenodd" clip-rule="evenodd" d="M9.064,116.494l7.39-7.742h3.263c-0.561,1.948-2.114,1.354-2.918,2.835
			c-0.87,1.607-0.271,4.903,1.727,5.531c1.997,0.629,4.851-1.167,5.316-3.045c0.385-1.541-0.121-2.686-0.063-3.746l2.789,1.979
			l1.539,10.591l0.752-0.816l-1.497-10.054l-3.262-2.796c0.185-0.337,0.418-0.625,0.657-0.89l0.017,0.314l4.151,0.263l4.562,7.965
			l0.475-0.422l-4.598-8.505l-3.397-0.201l4.137-2.213l6.236,2.624l-0.692-1.062l-5.615-2.639l-4.108,2.183
			c0.183-0.529,0.204-0.513-0.6-0.997l3.961-3.242l5.081-2.536l-1.149-0.054l-4.283,2.139l-4.278,3.286
			c-0.499-0.273-1.13-0.333-1.771-0.206l-1.298-6.38l-2.391-5.756l-1.178-0.932l2.838,6.839l1.12,6.522l-3.401-4.421l-6.083,0.076
			l-1.05,0.669l6.634,0.187l3.085,4.032c-0.22,0.183-0.423,0.397-0.603,0.632l-3.551-2.246l-8.7,4.217l0.137,0.62l8.354-3.801
			l3.276,2.057c-0.047,0.112-0.089,0.227-0.123,0.345l-3.98,0.361l-7.045,7.331L9.064,116.494z"/>
		<path fill-rule="evenodd" clip-rule="evenodd" d="M368.291,116.494l-7.387-7.742h-3.264c0.562,1.948,2.117,1.354,2.916,2.835
			c0.875,1.607,0.273,4.903-1.727,5.531c-1.994,0.629-4.848-1.167-5.314-3.045c-0.385-1.541,0.121-2.686,0.062-3.746l-2.787,1.979
			l-1.539,10.591l-0.754-0.816l1.496-10.054l3.264-2.796c-0.186-0.337-0.418-0.625-0.658-0.89l-0.016,0.314l-4.152,0.263
			l-4.562,7.965l-0.475-0.422l4.6-8.505l3.398-0.201l-4.139-2.213l-6.236,2.624l0.693-1.062l5.615-2.639l4.105,2.183
			c-0.182-0.529-0.203-0.513,0.602-0.997l-3.961-3.242l-5.08-2.536l1.15-0.054l4.279,2.139l4.277,3.286
			c0.504-0.273,1.135-0.333,1.775-0.206l1.295-6.38l2.393-5.756l1.176-0.932L356.5,98.81l-1.121,6.522l3.402-4.421l6.082,0.076
			l1.053,0.669l-6.633,0.187l-3.09,4.032c0.223,0.183,0.424,0.397,0.605,0.632l3.553-2.246l8.699,4.217l-0.137,0.62l-8.357-3.801
			l-3.27,2.057c0.043,0.112,0.086,0.227,0.119,0.345l3.98,0.361l7.043,7.331L368.291,116.494z"/>
	</g>
</g>
</svg>
