<svg enable-background="new 0 0 380 220" height="440px" id="Layer_1" version="1.1" viewBox="0 0 380 220" width="760px" x="0px" xml:space="preserve" xmlns="http://www.w3.org/2000/svg" xmlns:xlink="http://www.w3.org/1999/xlink" y="0px"> <g id="Conquistador"> <rect fill="#F1C618" height="71" id="Outline" width="379" x="0" y="74"/> <rect fill="#5B1D23" height="63.559" id="Background" width="371.5" x="3.9" y="77.933"/> <g id="FaceBackground"> <path d="M130.012,131.079c0,10.956-3.671,20.168-8.651,22.857c1.151-0.231,2.347-0.358,3.582-0.358
			c8.815,0,15.957,6.224,15.957,13.903c0,2.401-0.697,4.658-1.928,6.63c0.035,0.007,0.065,0.01,0.099,0.023
			c2.314-5.185,24.179-9.245,50.811-9.245c25.416,0,46.483,3.698,50.375,8.541c-0.984-1.805-1.534-3.823-1.534-5.949
			c0-7.68,7.145-13.903,15.959-13.903c1.197,0,2.368,0.12,3.491,0.338c-4.967-2.709-8.62-11.904-8.62-22.837
			c0-13.062,5.224-23.652,11.658-23.652V72.769c-2.007,0.796-4.237,1.242-6.589,1.242c-8.813,0-15.958-6.226-15.958-13.902
			c0-2.172,0.573-4.224,1.593-6.055c-5.615-1.464-12.036-2.295-18.857-2.295h-63.232c-6.82,0-13.243,0.831-18.854,2.295
			c1.016,1.831,1.587,3.883,1.587,6.055c0,7.677-7.142,13.902-15.957,13.902c-2.351,0-4.579-0.446-6.59-1.242v34.658
			C124.79,107.427,130.012,118.017,130.012,131.079z" fill="#431211"/> <path d="M118.353,107.85c6.151,0,11.149,10.412,11.149,23.213c0,10.56-3.456,19.809-8.41,22.479l-2.599,1.408
			l2.981-0.601c1.147-0.231,2.314-0.345,3.468-0.345c8.521,0,15.454,6.039,15.454,13.461c0,2.24-0.646,4.457-1.866,6.419
			l-0.297,0.473l1.138,0.305l0.17-0.382c2.248-5.03,24.359-8.968,50.34-8.968c24.656,0,46.135,3.595,49.961,8.357l0.18,0.221
			l0.417-0.214l0.147,0.124l-0.075-0.158l0.339-0.171l-0.141-0.248c-0.983-1.811-1.479-3.749-1.479-5.758
			c0-7.422,6.929-13.461,15.451-13.461c1.132,0,2.269,0.11,3.381,0.325l2.879,0.563l-2.5-1.368
			c-4.935-2.693-8.382-11.933-8.382-22.462c0-12.801,5.005-23.213,11.151-23.213h0.509V72.063l-0.72,0.285
			c-2.014,0.801-4.158,1.204-6.378,1.204c-8.521,0-15.455-6.04-15.455-13.461c0-2.054,0.521-4.028,1.543-5.863l0.258-0.467
			l-0.566-0.149c-5.811-1.514-12.38-2.312-19.002-2.312h-63.232c-6.622,0-13.195,0.799-19.002,2.312l-0.565,0.149l0.257,0.469
			c1.021,1.833,1.541,3.808,1.541,5.861c0,7.421-6.933,13.461-15.454,13.461c-2.219,0-4.366-0.403-6.379-1.204l-0.716-0.282v35.783
			H118.353z M141.406,60.092c0-2.014-0.465-3.954-1.39-5.777c5.57-1.393,11.838-2.132,18.149-2.132h63.232
			c6.313,0,12.578,0.739,18.151,2.132c-0.926,1.823-1.394,3.764-1.394,5.777c0,7.909,7.385,14.344,16.465,14.344
			c2.104,0,4.149-0.343,6.086-1.017v33.569c-6.564,0.517-11.658,10.972-11.658,24.074c0,9.711,2.897,18.384,7.304,22.133
			c-0.56-0.05-1.12-0.077-1.672-0.077c-9.081,0-16.466,6.436-16.466,14.347c0,1.441,0.242,2.854,0.72,4.209
			c-6.657-4.3-26.33-7.244-49.054-7.244c-23.084,0-42.771,2.988-49.244,7.364c0.506-1.398,0.77-2.874,0.77-4.329
			c0-7.911-7.386-14.347-16.464-14.347c-0.575,0-1.156,0.027-1.736,0.084c4.409-3.746,7.31-12.418,7.31-22.14
			c0-13.103-5.093-23.558-11.656-24.074V73.419c1.936,0.674,3.977,1.017,6.083,1.017C134.021,74.436,141.406,68.001,141.406,60.092z
			" fill="#431211"/> </g> <g id="BadgeRings"> <path clip-rule="evenodd" d="M160.316,132.651
			c-1.177,0.117-2.251,0.171-3.429,0.171c-16.523,0-29.906-11.714-29.906-26c0-14.288,13.383-26.002,29.906-26.002
			c1.178,0,2.193,0.121,3.291,0.224c-0.141-0.938-0.281-1.896-0.281-2.972c0-14.286,13.467-26.001,29.928-26.001
			c16.454,0,29.844,11.715,29.844,26.001c0,1.076-0.06,2.034-0.198,2.972c1.018-0.103,2.117-0.224,3.27-0.224
			c16.461,0,29.863,11.661,29.863,26.002c0,14.337-13.402,26.067-29.863,26.067c-1.152,0-2.312-0.121-3.412-0.238
			c0.199,0.956,0.281,1.908,0.281,2.921c0,14.337-13.33,26-29.784,26c-16.461,0-29.928-11.663-29.928-26
			C159.897,134.56,160.038,133.607,160.316,132.651L160.316,132.651z M154.569,137.588c-18.373-1.013-33.056-14.39-33.056-30.718
			c0-16.232,14.543-29.562,32.998-30.519c1.156-16.008,16.599-28.991,35.313-28.991c18.652,0,34.07,12.861,35.17,28.87
			c18.376,1.008,33.055,14.46,33.055,30.712c0,16.256-14.737,29.761-33.113,30.709c-1.1,16.01-16.539,28.737-35.191,28.737
			C171.11,166.389,155.668,153.595,154.569,137.588L154.569,137.588z" fill="#F1C618" fill-rule="evenodd" id="Badge Ring"/> <path clip-rule="evenodd" d="M169.472,124.791c-3.688,1.969-7.996,3.099-12.584,3.099
			c-13.31,0-24.104-9.406-24.104-20.947c0-11.542,10.795-21.015,24.104-21.015c4.508,0,8.755,1.374,12.367,3.286
			c-2.254-3.216-3.612-7.039-3.612-11.021c0-11.61,10.855-21.013,24.183-21.013c13.245,0,24.038,9.402,24.038,21.013
			c0,3.928-1.299,7.614-3.412,10.774c3.688-1.962,7.638-3.091,12.228-3.091c13.389,0,24.184,9.454,24.184,21.065
			c0,11.541-10.795,20.947-24.184,20.947c-4.445,0-8.676-1.13-12.307-2.975c2.256,3.216,3.491,6.657,3.491,10.657
			c0,11.587-10.793,20.993-24.038,20.993c-13.248,0-24.123-9.406-24.123-20.993C165.702,131.643,167.279,127.89,169.472,124.791
			L169.472,124.791z M164.484,129.02c-0.696,2.083-1.313,4.289-1.313,6.553c0,12.787,11.888,23.149,26.516,23.149
			c14.68,0,26.634-10.362,26.634-23.149c0-2.334-0.485-4.35-1.22-6.492c2.394,0.597,4.987,0.942,7.578,0.942
			c14.687,0,26.633-10.339,26.633-23.152c0-12.721-11.946-23.13-26.633-23.13c-2.672,0-4.985,0.348-7.438,1.006
			c0.679-2.086,1.08-4.291,1.08-6.603c0-12.743-11.954-23.155-26.634-23.155c-14.628,0-26.516,10.412-26.516,23.155
			c0,2.312,0.358,4.567,1.177,6.724c-2.473-0.661-4.927-1.127-7.521-1.127c-14.685,0-26.576,10.409-26.576,23.13
			c0,12.746,11.892,23.152,26.576,23.152C159.501,130.022,162.094,129.61,164.484,129.02L164.484,129.02z" fill="#FFCD05" fill-rule="evenodd"/> </g> <path d="M222.643,85.859c-4.591,0-8.541,1.128-12.229,3.092
		c2.111-3.161,3.409-6.846,3.409-10.773c0-11.614-10.792-21.014-24.043-21.014c-13.32,0-24.179,9.399-24.179,21.014
		c0,3.978,1.356,7.803,3.611,11.019c-3.611-1.909-7.859-3.286-12.367-3.286c-13.308,0-24.103,9.474-24.103,21.013
		c0,11.543,10.795,20.946,24.103,20.946c4.591,0,8.898-1.13,12.587-3.092c-2.194,3.092-3.771,6.845-3.771,10.775
		c0,11.593,10.876,20.996,24.119,20.996c13.251,0,24.043-9.403,24.043-20.996c0-4.001-1.237-7.441-3.487-10.654
		c3.628,1.841,7.854,2.971,12.307,2.971c13.383,0,24.175-9.403,24.175-20.946C246.817,95.313,236.025,85.859,222.643,85.859z" fill="#F2F2F2" id="BadgeBackground"/> <g id="Crown"> <path clip-rule="evenodd" d="M185.964,77.385c0.01-0.002,0.023-0.004,0.032-0.005
			c0.354-4.74,1.21-9.477,1.567-14.218c0.924,4.649,1.366,9.325,2.285,13.979c0.011,0,0.021-0.003,0.04-0.003
			c0.965-4.657,1.748-9.309,2.727-13.961c0.309,4.729,0.812,9.458,1.122,14.188c0.005,0,0.01,0.002,0.017,0.002
			c1.194-4.465,2.406-8.925,3.634-13.384c-0.126,4.603-0.257,9.205-0.386,13.81c2.083-3.803,4.269-7.528,6.64-11.202
			c-0.912,3.201-1.829,6.45-2.738,9.739c-0.688,2.503-1.374,5.033-2.057,7.583l-1.097-0.319c-4.992-1.465-10.757-1.465-15.733,0.042
			l-1.104,0.331c-0.702-2.552-1.399-5.079-2.109-7.581c-0.924-3.286-1.867-6.526-2.798-9.724c2.392,3.66,4.603,7.379,6.717,11.167
			c-0.164-4.602-0.325-9.205-0.486-13.807C183.504,68.474,184.743,72.927,185.964,77.385L185.964,77.385z M198.599,84.857
			c-0.142,0.528-0.29,1.056-0.427,1.587c-5.258-1.54-11.317-1.542-16.564,0.045c-0.143-0.528-0.288-1.056-0.431-1.583l0.84-0.255
			c4.98-1.505,10.745-1.502,15.733-0.04L198.599,84.857L198.599,84.857z" fill="#FFCD05" fill-rule="evenodd"/> <path clip-rule="evenodd" d="M193.457,62.443c0,0.397-0.37,0.719-0.823,0.719
			c-0.458,0-0.828-0.321-0.828-0.719s0.37-0.72,0.828-0.72C193.087,61.724,193.457,62.046,193.457,62.443z" fill="#F1C618" fill-rule="evenodd"/> <path clip-rule="evenodd" d="M198.358,63.297c0,0.396-0.37,0.719-0.821,0.719
			c-0.458,0-0.832-0.322-0.832-0.719c0-0.398,0.374-0.721,0.832-0.721C197.988,62.576,198.358,62.898,198.358,63.297z" fill="#F1C618" fill-rule="evenodd"/> <path clip-rule="evenodd" d="M204.731,65.926c0,0.398-0.373,0.719-0.83,0.719
			c-0.456,0-0.821-0.32-0.821-0.719c0-0.396,0.365-0.719,0.821-0.719C204.358,65.207,204.731,65.529,204.731,65.926z" fill="#F1C618" fill-rule="evenodd"/> <ellipse clip-rule="evenodd" cx="187.491" cy="62.443" fill="#F1C618" fill-rule="evenodd" rx="0.825" ry="0.719"/> <ellipse clip-rule="evenodd" cx="182.09" cy="63.328" fill="#F1C618" fill-rule="evenodd" rx="0.825" ry="0.719"/> <ellipse clip-rule="evenodd" cx="175.662" cy="65.994" fill="#F1C618" fill-rule="evenodd" rx="0.824" ry="0.718"/> </g> <g id="Banner"> <path d="M237.001,133.701c1.225-0.952,14.859-1.244,16.246,0.07c-2.736,2.311-5.471,4.618-8.166,6.932
			c2.695,2.532,5.43,5.061,8.166,7.556c-1.179-1.287-14.772-1.361-16.204-0.077c-3.115,3.119-10.688,1.908-11.195,0.077v-14.595
			C225.932,135.68,233.848,136.928,237.001,133.701L237.001,133.701z M142.603,133.701c-1.22-0.952-14.812-1.244-16.202,0.07
			c2.734,2.311,5.429,4.618,8.165,6.932c-2.736,2.532-5.431,5.061-8.165,7.556c1.179-1.287,14.771-1.361,16.163-0.077
			c3.112,3.119,10.689,1.908,11.192,0.077v-14.595C153.673,135.68,145.801,136.928,142.603,133.701z" fill="#F1C618"/> <path d="M237.001,133.701c1.225-0.952,14.859-1.244,16.246,0.07c-2.736,2.311-5.471,4.618-8.166,6.932
			c2.695,2.532,5.43,5.061,8.166,7.556c-1.179-1.287-14.772-1.361-16.204-0.077c-3.115,3.119-10.688,1.908-11.195,0.077v-14.595
			C225.932,135.68,233.848,136.928,237.001,133.701L237.001,133.701z M142.603,133.701c-1.22-0.952-14.812-1.244-16.202,0.07
			c2.734,2.311,5.429,4.618,8.165,6.932c-2.736,2.532-5.431,5.061-8.165,7.556c1.179-1.287,14.771-1.361,16.163-0.077
			c3.112,3.119,10.689,1.908,11.192,0.077v-14.595C153.673,135.68,145.801,136.928,142.603,133.701z" fill="#F1C618"/> <path d="M153.756,148.329c0-1.029-2.611-1.904-5.641-1.904c-3.072,0-5.682-0.846-5.682-1.941
			c0-0.993,2.82-2.02,5.682-2.566c1.77-0.331,3.747-0.442,5.641-0.331V148.329z" fill="#E0D37E"/> <path d="M225.848,148.329c0-1.029,2.654-1.904,5.683-1.904c3.071,0,5.684-0.846,5.684-1.941
			c0-0.993-2.867-2.02-5.557-2.566c-1.895-0.331-3.87-0.442-5.81-0.331V148.329z" fill="#E0D37E"/> <path d="M189.825,133.041c-17.426,0-30.807-7.885-41.71-5.5c-1.261,0.218-5.64,1.174-5.723,2.568l0.041,14.48
			c0.042-1.539,4.042-2.273,5.682-2.602c10.903-2.455,24.284,5.426,41.71,5.426c17.425,0,30.762-7.881,41.705-5.426
			c1.596,0.328,5.642,1.062,5.684,2.602v-14.48c-0.042-1.395-4.463-2.351-5.684-2.568
			C220.587,125.156,207.25,133.041,189.825,133.041z" fill="#F1C618"/> </g> <g id="BandDesign"> <path d="M72.068,109.497c5.528-2.577,12.176-0.335,13.85,4.11c1.505,4.313-1.071,9.656-5.848,8.959
			c-1.71-0.366-3.246-1.665-3.748-3.103c-0.375-1.604,0.1-3.634,2.17-3.92c-1.942,0.122-2.672,2.481-2.17,3.92
			c0.562,1.887,2.229,3.014,3.769,3.248c4.204,0.927,8.028-4.128,6.102-9.293C84.268,108.257,77.554,106.623,72.068,109.497
			L72.068,109.497z" fill="#F1C618"/> <path d="M72.068,109.497c5.528-2.577,12.176-0.335,13.85,4.11c1.505,4.313-1.071,9.656-5.848,8.959
			c-1.71-0.366-3.246-1.665-3.748-3.103c-0.375-1.604,0.1-3.634,2.17-3.92c-1.942,0.122-2.672,2.481-2.17,3.92
			c0.562,1.887,2.229,3.014,3.769,3.248c4.204,0.927,8.028-4.128,6.102-9.293C84.268,108.257,77.554,106.623,72.068,109.497
			L72.068,109.497z" fill="#F1C618"/> <path d="M71.095,110.086c2.814-1.449,5.835-0.364,6.862,1.609c0.901,2.137,0.026,4.521-2.574,4.279
			c-0.91-0.023-1.731-0.515-1.98-1.23c-0.4-0.698-0.1-1.801,0.936-1.94c-1.035,0.14-1.336,1.242-1.084,1.957
			c0.419,0.85,1.391,1.317,2.151,1.363c2.153,0.304,4.085-2.076,2.847-4.469c-0.249-0.721-0.774-1.253-1.449-1.759
			c1.118,0.444,1.539,1.293,1.977,2.285c0.061,0.449,0.547,0.679,0.655,0.367c-0.021-0.152-0.042-0.299-0.062-0.447
			c-0.21-0.421-0.589-0.975-1.096-1.356c-0.527-0.532-1.179-0.895-2.11-1.063c0.932,0.169,1.901,0.639,2.596,1.301
			c0.864,0.783,1.156,1.796,0.712,1.861c0.209,0.42,1.076,0.151,1.183-0.169l0,0c-0.15,1.08,1.054,1.064,1.744,2.778
			c0.42,0.845,0.139,2.089-0.35,2.916c2.064-3.608,0.622-7.48-2.289-8.889C77.295,108.017,73.467,108.697,71.095,110.086
			L71.095,110.086z" fill="#F1C618"/> <path d="M71.095,110.086c2.814-1.449,5.835-0.364,6.862,1.609c0.901,2.137,0.026,4.521-2.574,4.279
			c-0.91-0.023-1.731-0.515-1.98-1.23c-0.4-0.698-0.1-1.801,0.936-1.94c-1.035,0.14-1.336,1.242-1.084,1.957
			c0.419,0.85,1.391,1.317,2.151,1.363c2.153,0.304,4.085-2.076,2.847-4.469c-0.249-0.721-0.774-1.253-1.449-1.759
			c1.118,0.444,1.539,1.293,1.977,2.285c0.061,0.449,0.547,0.679,0.655,0.367c-0.021-0.152-0.042-0.299-0.062-0.447
			c-0.21-0.421-0.589-0.975-1.096-1.356c-0.527-0.532-1.179-0.895-2.11-1.063c0.932,0.169,1.901,0.639,2.596,1.301
			c0.864,0.783,1.156,1.796,0.712,1.861c0.209,0.42,1.076,0.151,1.183-0.169l0,0c-0.15,1.08,1.054,1.064,1.744,2.778
			c0.42,0.845,0.139,2.089-0.35,2.916c2.064-3.608,0.622-7.48-2.289-8.889C77.295,108.017,73.467,108.697,71.095,110.086
			L71.095,110.086z" fill="#F1C618"/> <path d="M97.229,117.918c-2.731,0.982-6.174,0.104-7.987-1.003c-1.981-1.229-2.987-3.055-3.53-4.789
			c0.669,1.566,1.657,3.24,3.64,4.473c1.836,1.256,5.128,2.156,7.331,0.642c1.121-0.606,1.421-1.707,0.958-1.792
			c0.235-0.486,0.719-0.248,0.911,0.025l0,0c0.001-1.057,1.207-1.075,2.038-2.7c1.299-2.594-1.542-6.724-4.67-6.44
			c-1.965-0.03-3.555,1.55-3.627,3.222c-0.126,0.164-0.104,0.316-0.086,0.461c1.031,0.915,2.891,1.259,4.249,0.166
			c-1.19,1.219-3.046,0.877-4.228-0.014c0.078,1.644,1.679,3.387,3.477,3.285c1.794-0.101,2.924-1.763,2.4-3.351
			c-0.293-1.015-1.325-1.929-2.361-1.786c1.332-0.184,2.405,1.024,2.568,2.21c0.249,1.772-1.365,3.205-3.202,3.01
			c-1.688-0.218-2.972-1.849-2.903-3.521c-0.314-0.105-0.504-0.383-0.693-0.656c-0.969-1.525-0.621-3.385,0.102-4.694
			c2.044-3.752,8.068-3.834,10.838,0.91C105.373,110.301,101.989,116.352,97.229,117.918L97.229,117.918z M99.392,116.108
			c3.224-2.863,4.783-6.85,2.618-10.471c-2.162-3.623-7.628-4.974-10.226-0.842c-0.852,1.477-0.899,3.293-0.123,4.542
			c0.19,0.275,0.357,0.402,0.528,0.533c-0.022-0.152-0.063-0.447,0.042-0.765c0.219-1.688,2.001-2.989,3.817-2.944
			c2.261-0.012,4.494,1.94,4.929,3.992C101.434,112.353,100.664,114.425,99.392,116.108L99.392,116.108z" fill="#F1C618"/> <path d="M97.229,117.918c-2.731,0.982-6.174,0.104-7.987-1.003c-1.981-1.229-2.987-3.055-3.53-4.789
			c0.669,1.566,1.657,3.24,3.64,4.473c1.836,1.256,5.128,2.156,7.331,0.642c1.121-0.606,1.421-1.707,0.958-1.792
			c0.235-0.486,0.719-0.248,0.911,0.025l0,0c0.001-1.057,1.207-1.075,2.038-2.7c1.299-2.594-1.542-6.724-4.67-6.44
			c-1.965-0.03-3.555,1.55-3.627,3.222c-0.126,0.164-0.104,0.316-0.086,0.461c1.031,0.915,2.891,1.259,4.249,0.166
			c-1.19,1.219-3.046,0.877-4.228-0.014c0.078,1.644,1.679,3.387,3.477,3.285c1.794-0.101,2.924-1.763,2.4-3.351
			c-0.293-1.015-1.325-1.929-2.361-1.786c1.332-0.184,2.405,1.024,2.568,2.21c0.249,1.772-1.365,3.205-3.202,3.01
			c-1.688-0.218-2.972-1.849-2.903-3.521c-0.314-0.105-0.504-0.383-0.693-0.656c-0.969-1.525-0.621-3.385,0.102-4.694
			c2.044-3.752,8.068-3.834,10.838,0.91C105.373,110.301,101.989,116.352,97.229,117.918L97.229,117.918z M99.392,116.108
			c3.224-2.863,4.783-6.85,2.618-10.471c-2.162-3.623-7.628-4.974-10.226-0.842c-0.852,1.477-0.899,3.293-0.123,4.542
			c0.19,0.275,0.357,0.402,0.528,0.533c-0.022-0.152-0.063-0.447,0.042-0.765c0.219-1.688,2.001-2.989,3.817-2.944
			c2.261-0.012,4.494,1.94,4.929,3.992C101.434,112.353,100.664,114.425,99.392,116.108L99.392,116.108z" fill="#F1C618"/> <path d="M72.998,109.668c1.946-0.117,3.778,1.136,4.492,2.997c0.021,0.147,0.04,0.296,0.04,0.296
			c-0.796-2.454-2.81-0.667-2.993-1.998l0,0c0.041,0.295-0.213,0.632-0.847,0.422c0.296-0.045,0.381-0.506,0.318-0.952
			c-0.188-0.276-0.525-0.529-0.841-0.637c-0.781-0.191-1.777,0.246-2.474,0.647C71.371,109.896,72.089,109.644,72.998,109.668
			L72.998,109.668z" fill="#F1C618"/> <path d="M72.998,109.668c1.946-0.117,3.778,1.136,4.492,2.997c0.021,0.147,0.04,0.296,0.04,0.296
			c-0.796-2.454-2.81-0.667-2.993-1.998l0,0c0.041,0.295-0.213,0.632-0.847,0.422c0.296-0.045,0.381-0.506,0.318-0.952
			c-0.188-0.276-0.525-0.529-0.841-0.637c-0.781-0.191-1.777,0.246-2.474,0.647C71.371,109.896,72.089,109.644,72.998,109.668
			L72.998,109.668z" fill="#F1C618"/> <path d="M99.749,116.511c1.739-1.6,4.296-1.651,5.393-0.297c1.241,1.339,0.937,3.493-0.82,3.889
			c-0.592,0.082-1.372-0.112-1.751-0.664c-0.357-0.404-0.312-1.163,0.388-1.56c-0.721,0.249-0.745,1.155-0.368,1.709
			c0.529,0.53,1.16,0.743,1.752,0.662c1.628-0.228,2.357-2.59,0.924-4.2C104.004,114.564,101.321,114.784,99.749,116.511
			L99.749,116.511z" fill="#F1C618"/> <path d="M99.749,116.511c1.739-1.6,4.296-1.651,5.393-0.297c1.241,1.339,0.937,3.493-0.82,3.889
			c-0.592,0.082-1.372-0.112-1.751-0.664c-0.357-0.404-0.312-1.163,0.388-1.56c-0.721,0.249-0.745,1.155-0.368,1.709
			c0.529,0.53,1.16,0.743,1.752,0.662c1.628-0.228,2.357-2.59,0.924-4.2C104.004,114.564,101.321,114.784,99.749,116.511
			L99.749,116.511z" fill="#F1C618"/> <path d="M52.524,109.497c-5.524-2.577-12.172-0.335-13.845,4.11c-1.506,4.313,1.073,9.656,5.845,8.959
			c1.711-0.366,3.249-1.665,3.753-3.103c0.369-1.604-0.103-3.634-2.174-3.92c1.946,0.122,2.675,2.481,2.174,3.92
			c-0.565,1.887-2.23,3.014-3.771,3.248c-4.203,0.927-8.029-4.128-6.104-9.293C40.327,108.257,47.042,106.623,52.524,109.497
			L52.524,109.497z" fill="#F1C618"/> <path d="M52.524,109.497c-5.524-2.577-12.172-0.335-13.845,4.11c-1.506,4.313,1.073,9.656,5.845,8.959
			c1.711-0.366,3.249-1.665,3.753-3.103c0.369-1.604-0.103-3.634-2.174-3.92c1.946,0.122,2.675,2.481,2.174,3.92
			c-0.565,1.887-2.23,3.014-3.771,3.248c-4.203,0.927-8.029-4.128-6.104-9.293C40.327,108.257,47.042,106.623,52.524,109.497
			L52.524,109.497z" fill="#F1C618"/> <path d="M53.5,110.086c-2.815-1.449-5.835-0.364-6.859,1.609c-0.902,2.137-0.026,4.521,2.572,4.279
			c0.908-0.023,1.73-0.515,1.98-1.23c0.401-0.698,0.101-1.801-0.937-1.94c1.037,0.14,1.338,1.242,1.085,1.957
			c-0.42,0.85-1.388,1.317-2.151,1.363c-2.151,0.304-4.087-2.076-2.848-4.469c0.249-0.721,0.776-1.253,1.45-1.759
			c-1.12,0.444-1.537,1.293-1.977,2.285c-0.062,0.449-0.546,0.679-0.655,0.367c0.021-0.152,0.043-0.299,0.064-0.447
			c0.209-0.421,0.584-0.975,1.093-1.356c0.526-0.532,1.179-0.895,2.107-1.063c-0.929,0.169-1.898,0.639-2.592,1.301
			c-0.863,0.783-1.155,1.796-0.712,1.861c-0.211,0.42-1.076,0.151-1.183-0.169l0,0c0.149,1.08-1.056,1.064-1.746,2.778
			c-0.42,0.845-0.14,2.089,0.351,2.916c-2.066-3.608-0.619-7.48,2.29-8.889C47.3,108.017,51.128,108.697,53.5,110.086L53.5,110.086z
			" fill="#F1C618"/> <path d="M53.5,110.086c-2.815-1.449-5.835-0.364-6.859,1.609c-0.902,2.137-0.026,4.521,2.572,4.279
			c0.908-0.023,1.73-0.515,1.98-1.23c0.401-0.698,0.101-1.801-0.937-1.94c1.037,0.14,1.338,1.242,1.085,1.957
			c-0.42,0.85-1.388,1.317-2.151,1.363c-2.151,0.304-4.087-2.076-2.848-4.469c0.249-0.721,0.776-1.253,1.45-1.759
			c-1.12,0.444-1.537,1.293-1.977,2.285c-0.062,0.449-0.546,0.679-0.655,0.367c0.021-0.152,0.043-0.299,0.064-0.447
			c0.209-0.421,0.584-0.975,1.093-1.356c0.526-0.532,1.179-0.895,2.107-1.063c-0.929,0.169-1.898,0.639-2.592,1.301
			c-0.863,0.783-1.155,1.796-0.712,1.861c-0.211,0.42-1.076,0.151-1.183-0.169l0,0c0.149,1.08-1.056,1.064-1.746,2.778
			c-0.42,0.845-0.14,2.089,0.351,2.916c-2.066-3.608-0.619-7.48,2.29-8.889C47.3,108.017,51.128,108.697,53.5,110.086L53.5,110.086z
			" fill="#F1C618"/> <path d="M27.367,117.918c-4.763-1.566-8.144-7.617-5.225-12.343c2.771-4.744,8.793-4.662,10.838-0.91
			c0.722,1.31,1.071,3.169,0.104,4.694c-0.192,0.273-0.378,0.551-0.697,0.656c0.069,1.672-1.21,3.303-2.903,3.521
			c-1.836,0.195-3.447-1.237-3.202-3.01c0.167-1.186,1.237-2.394,2.571-2.21c-1.036-0.143-2.067,0.771-2.361,1.786
			c-0.521,1.588,0.604,3.25,2.401,3.351c1.798,0.102,3.397-1.642,3.476-3.285c-1.184,0.891-3.039,1.232-4.228,0.014
			c1.358,1.093,3.215,0.749,4.246-0.166c0.021-0.145,0.041-0.297-0.083-0.461c-0.071-1.672-1.663-3.252-3.628-3.222
			c-3.131-0.283-5.971,3.847-4.667,6.44c0.829,1.625,2.034,1.644,2.036,2.7l0,0c0.189-0.273,0.676-0.512,0.913-0.025
			c-0.467,0.085-0.168,1.186,0.956,1.792c2.201,1.515,5.497,0.614,7.329-0.642c1.984-1.232,2.971-2.906,3.642-4.473
			c-0.543,1.734-1.551,3.561-3.533,4.789C33.538,118.021,30.099,118.9,27.367,117.918L27.367,117.918z M25.204,116.108
			c-1.273-1.684-2.042-3.756-1.586-5.954c0.435-2.052,2.669-4.004,4.929-3.992c1.819-0.045,3.6,1.256,3.815,2.944
			c0.106,0.317,0.065,0.612,0.045,0.765c0.168-0.131,0.339-0.258,0.528-0.533c0.775-1.249,0.727-3.065-0.125-4.542
			c-2.594-4.132-8.061-2.781-10.226,0.842C20.424,109.259,21.981,113.245,25.204,116.108L25.204,116.108z" fill="#F1C618"/> <path d="M27.367,117.918c-4.763-1.566-8.144-7.617-5.225-12.343c2.771-4.744,8.793-4.662,10.838-0.91
			c0.722,1.31,1.071,3.169,0.104,4.694c-0.192,0.273-0.378,0.551-0.697,0.656c0.069,1.672-1.21,3.303-2.903,3.521
			c-1.836,0.195-3.447-1.237-3.202-3.01c0.167-1.186,1.237-2.394,2.571-2.21c-1.036-0.143-2.067,0.771-2.361,1.786
			c-0.521,1.588,0.604,3.25,2.401,3.351c1.798,0.102,3.397-1.642,3.476-3.285c-1.184,0.891-3.039,1.232-4.228,0.014
			c1.358,1.093,3.215,0.749,4.246-0.166c0.021-0.145,0.041-0.297-0.083-0.461c-0.071-1.672-1.663-3.252-3.628-3.222
			c-3.131-0.283-5.971,3.847-4.667,6.44c0.829,1.625,2.034,1.644,2.036,2.7l0,0c0.189-0.273,0.676-0.512,0.913-0.025
			c-0.467,0.085-0.168,1.186,0.956,1.792c2.201,1.515,5.497,0.614,7.329-0.642c1.984-1.232,2.971-2.906,3.642-4.473
			c-0.543,1.734-1.551,3.561-3.533,4.789C33.538,118.021,30.099,118.9,27.367,117.918L27.367,117.918z M25.204,116.108
			c-1.273-1.684-2.042-3.756-1.586-5.954c0.435-2.052,2.669-4.004,4.929-3.992c1.819-0.045,3.6,1.256,3.815,2.944
			c0.106,0.317,0.065,0.612,0.045,0.765c0.168-0.131,0.339-0.258,0.528-0.533c0.775-1.249,0.727-3.065-0.125-4.542
			c-2.594-4.132-8.061-2.781-10.226,0.842C20.424,109.259,21.981,113.245,25.204,116.108L25.204,116.108z" fill="#F1C618"/> <path d="M51.596,109.668c-1.943-0.117-3.775,1.136-4.49,2.997c-0.019,0.147-0.04,0.296-0.04,0.296
			c0.795-2.454,2.81-0.667,2.993-1.998l0,0c-0.043,0.295,0.213,0.632,0.849,0.422c-0.297-0.045-0.384-0.506-0.321-0.952
			c0.188-0.276,0.526-0.529,0.845-0.637c0.776-0.191,1.775,0.246,2.474,0.647C53.225,109.896,52.505,109.644,51.596,109.668
			L51.596,109.668z" fill="#F1C618"/> <path d="M51.596,109.668c-1.943-0.117-3.775,1.136-4.49,2.997c-0.019,0.147-0.04,0.296-0.04,0.296
			c0.795-2.454,2.81-0.667,2.993-1.998l0,0c-0.043,0.295,0.213,0.632,0.849,0.422c-0.297-0.045-0.384-0.506-0.321-0.952
			c0.188-0.276,0.526-0.529,0.845-0.637c0.776-0.191,1.775,0.246,2.474,0.647C53.225,109.896,52.505,109.644,51.596,109.668
			L51.596,109.668z" fill="#F1C618"/> <path d="M24.847,116.511c-1.739-1.6-4.296-1.651-5.392-0.297c-1.241,1.339-0.937,3.493,0.819,3.889
			c0.591,0.082,1.372-0.112,1.75-0.664c0.361-0.404,0.314-1.163-0.385-1.56c0.72,0.249,0.746,1.155,0.366,1.709
			c-0.526,0.53-1.162,0.743-1.752,0.662c-1.628-0.228-2.355-2.59-0.924-4.2C20.591,114.564,23.276,114.784,24.847,116.511
			L24.847,116.511z" fill="#F1C618"/> <path d="M24.847,116.511c-1.739-1.6-4.296-1.651-5.392-0.297c-1.241,1.339-0.937,3.493,0.819,3.889
			c0.591,0.082,1.372-0.112,1.75-0.664c0.361-0.404,0.314-1.163-0.385-1.56c0.72,0.249,0.746,1.155,0.366,1.709
			c-0.526,0.53-1.162,0.743-1.752,0.662c-1.628-0.228-2.355-2.59-0.924-4.2C20.591,114.564,23.276,114.784,24.847,116.511
			L24.847,116.511z" fill="#F1C618"/> <path d="M74.679,117.673c7.001,3.267,15.426,0.425,17.545-5.211c1.909-5.472-1.357-12.23-7.407-11.351
			c-2.165,0.462-4.114,2.104-4.75,3.926c-0.476,2.037,0.124,4.606,2.751,4.972c-2.464-0.154-3.386-3.149-2.751-4.972
			c0.711-2.383,2.823-3.812,4.778-4.115c5.324-1.173,10.167,5.237,7.729,11.779C90.137,119.244,81.629,121.315,74.679,117.673
			L74.679,117.673z" fill="#F1C618"/> <path d="M74.679,117.673c7.001,3.267,15.426,0.425,17.545-5.211c1.909-5.472-1.357-12.23-7.407-11.351
			c-2.165,0.462-4.114,2.104-4.75,3.926c-0.476,2.037,0.124,4.606,2.751,4.972c-2.464-0.154-3.386-3.149-2.751-4.972
			c0.711-2.383,2.823-3.812,4.778-4.115c5.324-1.173,10.167,5.237,7.729,11.779C90.137,119.244,81.629,121.315,74.679,117.673
			L74.679,117.673z" fill="#F1C618"/> <path d="M73.443,116.924c3.567,1.834,7.395,0.456,8.695-2.041c1.14-2.706,0.032-5.729-3.26-5.424
			c-1.151,0.035-2.191,0.653-2.511,1.564c-0.506,0.885-0.127,2.275,1.185,2.459c-1.312-0.184-1.69-1.574-1.373-2.484
			c0.532-1.073,1.761-1.667,2.726-1.722c2.727-0.39,5.177,2.627,3.61,5.66c-0.317,0.914-0.985,1.581-1.839,2.229
			c1.414-0.568,1.947-1.638,2.505-2.899c0.078-0.564,0.691-0.863,0.829-0.463c-0.026,0.191-0.055,0.378-0.08,0.565
			c-0.266,0.538-0.744,1.237-1.386,1.719c-0.665,0.673-1.494,1.13-2.673,1.348c1.179-0.218,2.406-0.812,3.287-1.641
			c1.094-0.996,1.462-2.284,0.901-2.364c0.269-0.537,1.365-0.193,1.5,0.209l0,0c-0.19-1.368,1.334-1.345,2.209-3.516
			c0.533-1.073,0.178-2.651-0.442-3.696c2.617,4.571,0.789,9.479-2.9,11.263C81.302,119.544,76.448,118.679,73.443,116.924
			L73.443,116.924z" fill="#F1C618"/> <path d="M73.443,116.924c3.567,1.834,7.395,0.456,8.695-2.041c1.14-2.706,0.032-5.729-3.26-5.424
			c-1.151,0.035-2.191,0.653-2.511,1.564c-0.506,0.885-0.127,2.275,1.185,2.459c-1.312-0.184-1.69-1.574-1.373-2.484
			c0.532-1.073,1.761-1.667,2.726-1.722c2.727-0.39,5.177,2.627,3.61,5.66c-0.317,0.914-0.985,1.581-1.839,2.229
			c1.414-0.568,1.947-1.638,2.505-2.899c0.078-0.564,0.691-0.863,0.829-0.463c-0.026,0.191-0.055,0.378-0.08,0.565
			c-0.266,0.538-0.744,1.237-1.386,1.719c-0.665,0.673-1.494,1.13-2.673,1.348c1.179-0.218,2.406-0.812,3.287-1.641
			c1.094-0.996,1.462-2.284,0.901-2.364c0.269-0.537,1.365-0.193,1.5,0.209l0,0c-0.19-1.368,1.334-1.345,2.209-3.516
			c0.533-1.073,0.178-2.651-0.442-3.696c2.617,4.571,0.789,9.479-2.9,11.263C81.302,119.544,76.448,118.679,73.443,116.924
			L73.443,116.924z" fill="#F1C618"/> <path d="M106.558,107.001c6.032,1.983,10.316,9.651,6.619,15.641c-3.51,6.01-11.143,5.903-13.731,1.148
			c-0.917-1.66-1.355-4.013-0.131-5.947c0.24-0.349,0.479-0.694,0.879-0.83c-0.086-2.118,1.539-4.186,3.68-4.46
			c2.33-0.254,4.37,1.562,4.059,3.814c-0.207,1.499-1.569,3.033-3.256,2.795c1.313,0.183,2.619-0.973,2.991-2.259
			c0.662-2.012-0.766-4.125-3.041-4.247c-2.276-0.126-4.307,2.077-4.406,4.168c1.496-1.132,3.851-1.567,5.355-0.021
			c-1.72-1.385-4.073-0.947-5.382,0.21c-0.022,0.189-0.051,0.372,0.108,0.588c0.091,2.113,2.108,4.113,4.597,4.08
			c3.964,0.355,7.561-4.876,5.914-8.164c-1.05-2.06-2.578-2.078-2.579-3.417l0,0c-0.244,0.349-0.857,0.646-1.158,0.029
			c0.592-0.11,0.211-1.5-1.21-2.273c-2.793-1.915-6.966-0.772-9.289,0.813c-2.514,1.562-3.763,3.682-4.611,5.671
			c0.688-2.198,1.962-4.509,4.476-6.066C98.738,106.868,103.098,105.753,106.558,107.001L106.558,107.001z M109.297,109.288
			c1.615,2.136,2.588,4.762,2.01,7.545c-0.551,2.601-3.38,5.077-6.247,5.061c-2.302,0.061-4.558-1.591-4.835-3.73
			c-0.134-0.402-0.082-0.778-0.054-0.961c-0.216,0.154-0.428,0.316-0.67,0.667c-0.984,1.585-0.921,3.887,0.156,5.758
			c3.289,5.238,10.216,3.521,12.957-1.066C115.355,117.97,113.381,112.916,109.297,109.288L109.297,109.288z" fill="#F1C618"/> <path d="M106.558,107.001c6.032,1.983,10.316,9.651,6.619,15.641c-3.51,6.01-11.143,5.903-13.731,1.148
			c-0.917-1.66-1.355-4.013-0.131-5.947c0.24-0.349,0.479-0.694,0.879-0.83c-0.086-2.118,1.539-4.186,3.68-4.46
			c2.33-0.254,4.37,1.562,4.059,3.814c-0.207,1.499-1.569,3.033-3.256,2.795c1.313,0.183,2.619-0.973,2.991-2.259
			c0.662-2.012-0.766-4.125-3.041-4.247c-2.276-0.126-4.307,2.077-4.406,4.168c1.496-1.132,3.851-1.567,5.355-0.021
			c-1.72-1.385-4.073-0.947-5.382,0.21c-0.022,0.189-0.051,0.372,0.108,0.588c0.091,2.113,2.108,4.113,4.597,4.08
			c3.964,0.355,7.561-4.876,5.914-8.164c-1.05-2.06-2.578-2.078-2.579-3.417l0,0c-0.244,0.349-0.857,0.646-1.158,0.029
			c0.592-0.11,0.211-1.5-1.21-2.273c-2.793-1.915-6.966-0.772-9.289,0.813c-2.514,1.562-3.763,3.682-4.611,5.671
			c0.688-2.198,1.962-4.509,4.476-6.066C98.738,106.868,103.098,105.753,106.558,107.001L106.558,107.001z M109.297,109.288
			c1.615,2.136,2.588,4.762,2.01,7.545c-0.551,2.601-3.38,5.077-6.247,5.061c-2.302,0.061-4.558-1.591-4.835-3.73
			c-0.134-0.402-0.082-0.778-0.054-0.961c-0.216,0.154-0.428,0.316-0.67,0.667c-0.984,1.585-0.921,3.887,0.156,5.758
			c3.289,5.238,10.216,3.521,12.957-1.066C115.355,117.97,113.381,112.916,109.297,109.288L109.297,109.288z" fill="#F1C618"/> <path d="M75.855,117.452c2.463,0.15,4.786-1.439,5.692-3.795c0.023-0.189,0.05-0.377,0.05-0.377
			c-1.007,3.11-3.558,0.843-3.794,2.528l0,0c0.055-0.376-0.27-0.797-1.073-0.526c0.377,0.05,0.486,0.637,0.407,1.2
			c-0.242,0.349-0.666,0.673-1.068,0.811c-0.987,0.241-2.251-0.315-3.136-0.82C73.793,117.163,74.704,117.483,75.855,117.452
			L75.855,117.452z" fill="#F1C618"/> <path d="M75.855,117.452c2.463,0.15,4.786-1.439,5.692-3.795c0.023-0.189,0.05-0.377,0.05-0.377
			c-1.007,3.11-3.558,0.843-3.794,2.528l0,0c0.055-0.376-0.27-0.797-1.073-0.526c0.377,0.05,0.486,0.637,0.407,1.2
			c-0.242,0.349-0.666,0.673-1.068,0.811c-0.987,0.241-2.251-0.315-3.136-0.82C73.793,117.163,74.704,117.483,75.855,117.452
			L75.855,117.452z" fill="#F1C618"/> <path d="M109.75,108.779c2.205,2.025,5.442,2.097,6.831,0.376c1.572-1.692,1.187-4.42-1.037-4.923
			c-0.75-0.104-1.74,0.139-2.22,0.84c-0.455,0.508-0.396,1.474,0.49,1.977c-0.912-0.313-0.945-1.469-0.464-2.164
			c0.667-0.673,1.473-0.944,2.219-0.841c2.062,0.287,2.985,3.285,1.173,5.324C115.141,111.249,111.741,110.966,109.75,108.779
			L109.75,108.779z" fill="#F1C618"/> <path d="M109.75,108.779c2.205,2.025,5.442,2.097,6.831,0.376c1.572-1.692,1.187-4.42-1.037-4.923
			c-0.75-0.104-1.74,0.139-2.22,0.84c-0.455,0.508-0.396,1.474,0.49,1.977c-0.912-0.313-0.945-1.469-0.464-2.164
			c0.667-0.673,1.473-0.944,2.219-0.841c2.062,0.287,2.985,3.285,1.173,5.324C115.141,111.249,111.741,110.966,109.75,108.779
			L109.75,108.779z" fill="#F1C618"/> <path d="M49.915,117.673c-7,3.267-15.425,0.425-17.542-5.211c-1.908-5.472,1.356-12.23,7.404-11.351
			c2.169,0.462,4.118,2.104,4.754,3.926c0.472,2.037-0.128,4.606-2.752,4.972c2.463-0.154,3.388-3.149,2.752-4.972
			c-0.715-2.383-2.825-3.812-4.776-4.115c-5.326-1.173-10.171,5.237-7.733,11.779C34.46,119.244,42.967,121.315,49.915,117.673
			L49.915,117.673z" fill="#F1C618"/> <path d="M49.915,117.673c-7,3.267-15.425,0.425-17.542-5.211c-1.908-5.472,1.356-12.23,7.404-11.351
			c2.169,0.462,4.118,2.104,4.754,3.926c0.472,2.037-0.128,4.606-2.752,4.972c2.463-0.154,3.388-3.149,2.752-4.972
			c-0.715-2.383-2.825-3.812-4.776-4.115c-5.326-1.173-10.171,5.237-7.733,11.779C34.46,119.244,42.967,121.315,49.915,117.673
			L49.915,117.673z" fill="#F1C618"/> <path d="M51.152,116.924c-3.569,1.834-7.391,0.456-8.695-2.041c-1.141-2.706-0.031-5.729,3.263-5.424
			c1.15,0.035,2.189,0.653,2.51,1.564c0.503,0.885,0.126,2.275-1.188,2.459c1.313-0.184,1.69-1.574,1.376-2.484
			c-0.534-1.073-1.762-1.667-2.729-1.722c-2.727-0.39-5.174,2.627-3.604,5.66c0.315,0.914,0.984,1.581,1.837,2.229
			c-1.417-0.568-1.946-1.638-2.505-2.899c-0.08-0.564-0.692-0.863-0.83-0.463c0.025,0.191,0.053,0.378,0.078,0.565
			c0.267,0.538,0.747,1.237,1.387,1.719c0.667,0.673,1.495,1.13,2.672,1.348c-1.177-0.218-2.405-0.812-3.285-1.641
			c-1.096-0.996-1.463-2.284-0.904-2.364c-0.265-0.537-1.362-0.193-1.499,0.209l0,0c0.193-1.368-1.332-1.345-2.209-3.516
			c-0.53-1.073-0.178-2.651,0.442-3.696c-2.615,4.571-0.786,9.479,2.902,11.263C43.295,119.544,48.147,118.679,51.152,116.924
			L51.152,116.924z" fill="#F1C618"/> <path d="M51.152,116.924c-3.569,1.834-7.391,0.456-8.695-2.041c-1.141-2.706-0.031-5.729,3.263-5.424
			c1.15,0.035,2.189,0.653,2.51,1.564c0.503,0.885,0.126,2.275-1.188,2.459c1.313-0.184,1.69-1.574,1.376-2.484
			c-0.534-1.073-1.762-1.667-2.729-1.722c-2.727-0.39-5.174,2.627-3.604,5.66c0.315,0.914,0.984,1.581,1.837,2.229
			c-1.417-0.568-1.946-1.638-2.505-2.899c-0.08-0.564-0.692-0.863-0.83-0.463c0.025,0.191,0.053,0.378,0.078,0.565
			c0.267,0.538,0.747,1.237,1.387,1.719c0.667,0.673,1.495,1.13,2.672,1.348c-1.177-0.218-2.405-0.812-3.285-1.641
			c-1.096-0.996-1.463-2.284-0.904-2.364c-0.265-0.537-1.362-0.193-1.499,0.209l0,0c0.193-1.368-1.332-1.345-2.209-3.516
			c-0.53-1.073-0.178-2.651,0.442-3.696c-2.615,4.571-0.786,9.479,2.902,11.263C43.295,119.544,48.147,118.679,51.152,116.924
			L51.152,116.924z" fill="#F1C618"/> <path d="M18.038,107.001c3.46-1.248,7.819-0.133,10.118,1.272c2.512,1.558,3.788,3.868,4.475,6.066
			c-0.849-1.989-2.099-4.108-4.61-5.671c-2.325-1.586-6.496-2.729-9.287-0.813c-1.426,0.773-1.802,2.163-1.213,2.273
			c-0.3,0.616-0.912,0.319-1.155-0.029l0,0c-0.002,1.339-1.528,1.357-2.582,3.417c-1.646,3.288,1.949,8.52,5.912,8.164
			c2.491,0.033,4.507-1.967,4.597-4.08c0.161-0.216,0.135-0.398,0.108-0.588c-1.308-1.157-3.662-1.595-5.381-0.21
			c1.506-1.546,3.858-1.11,5.355,0.021c-0.099-2.091-2.126-4.294-4.404-4.168c-2.276,0.122-3.7,2.235-3.043,4.247
			c0.373,1.286,1.681,2.441,2.994,2.259c-1.688,0.238-3.05-1.296-3.257-2.795c-0.313-2.252,1.728-4.068,4.059-3.814
			c2.142,0.274,3.765,2.342,3.677,4.46c0.4,0.136,0.64,0.481,0.882,0.83c1.223,1.935,0.785,4.287-0.131,5.947
			c-2.59,4.755-10.219,4.861-13.733-1.148C7.721,116.652,12.007,108.984,18.038,107.001L18.038,107.001z M15.299,109.288
			c-4.084,3.628-6.059,8.682-3.317,13.272c2.742,4.588,9.667,6.305,12.956,1.066c1.08-1.871,1.14-4.173,0.156-5.758
			c-0.24-0.351-0.456-0.513-0.667-0.667c0.026,0.183,0.076,0.559-0.057,0.961c-0.274,2.14-2.531,3.791-4.836,3.73
			c-2.864,0.017-5.693-2.46-6.247-5.061C12.711,114.05,13.685,111.424,15.299,109.288L15.299,109.288z" fill="#F1C618"/> <path d="M18.038,107.001c3.46-1.248,7.819-0.133,10.118,1.272c2.512,1.558,3.788,3.868,4.475,6.066
			c-0.849-1.989-2.099-4.108-4.61-5.671c-2.325-1.586-6.496-2.729-9.287-0.813c-1.426,0.773-1.802,2.163-1.213,2.273
			c-0.3,0.616-0.912,0.319-1.155-0.029l0,0c-0.002,1.339-1.528,1.357-2.582,3.417c-1.646,3.288,1.949,8.52,5.912,8.164
			c2.491,0.033,4.507-1.967,4.597-4.08c0.161-0.216,0.135-0.398,0.108-0.588c-1.308-1.157-3.662-1.595-5.381-0.21
			c1.506-1.546,3.858-1.11,5.355,0.021c-0.099-2.091-2.126-4.294-4.404-4.168c-2.276,0.122-3.7,2.235-3.043,4.247
			c0.373,1.286,1.681,2.441,2.994,2.259c-1.688,0.238-3.05-1.296-3.257-2.795c-0.313-2.252,1.728-4.068,4.059-3.814
			c2.142,0.274,3.765,2.342,3.677,4.46c0.4,0.136,0.64,0.481,0.882,0.83c1.223,1.935,0.785,4.287-0.131,5.947
			c-2.59,4.755-10.219,4.861-13.733-1.148C7.721,116.652,12.007,108.984,18.038,107.001L18.038,107.001z M15.299,109.288
			c-4.084,3.628-6.059,8.682-3.317,13.272c2.742,4.588,9.667,6.305,12.956,1.066c1.08-1.871,1.14-4.173,0.156-5.758
			c-0.24-0.351-0.456-0.513-0.667-0.667c0.026,0.183,0.076,0.559-0.057,0.961c-0.274,2.14-2.531,3.791-4.836,3.73
			c-2.864,0.017-5.693-2.46-6.247-5.061C12.711,114.05,13.685,111.424,15.299,109.288L15.299,109.288z" fill="#F1C618"/> <path d="M48.739,117.452c-2.462,0.15-4.786-1.439-5.69-3.795c-0.026-0.189-0.052-0.377-0.052-0.377
			c1.009,3.11,3.562,0.843,3.795,2.528l0,0c-0.054-0.376,0.271-0.797,1.071-0.526c-0.375,0.05-0.486,0.637-0.406,1.2
			c0.242,0.349,0.667,0.673,1.07,0.811c0.986,0.241,2.248-0.315,3.135-0.82C50.802,117.163,49.891,117.483,48.739,117.452
			L48.739,117.452z" fill="#F1C618"/> <path d="M48.739,117.452c-2.462,0.15-4.786-1.439-5.69-3.795c-0.026-0.189-0.052-0.377-0.052-0.377
			c1.009,3.11,3.562,0.843,3.795,2.528l0,0c-0.054-0.376,0.271-0.797,1.071-0.526c-0.375,0.05-0.486,0.637-0.406,1.2
			c0.242,0.349,0.667,0.673,1.07,0.811c0.986,0.241,2.248-0.315,3.135-0.82C50.802,117.163,49.891,117.483,48.739,117.452
			L48.739,117.452z" fill="#F1C618"/> <path d="M14.845,108.779c-2.2,2.025-5.441,2.097-6.828,0.376c-1.575-1.692-1.188-4.42,1.035-4.923
			c0.751-0.104,1.741,0.139,2.218,0.84c0.456,0.508,0.399,1.474-0.488,1.977c0.913-0.313,0.944-1.469,0.463-2.164
			c-0.665-0.673-1.468-0.944-2.218-0.841c-2.062,0.287-2.985,3.285-1.172,5.324C9.456,111.249,12.856,110.966,14.845,108.779
			L14.845,108.779z" fill="#F1C618"/> <path d="M14.845,108.779c-2.2,2.025-5.441,2.097-6.828,0.376c-1.575-1.692-1.188-4.42,1.035-4.923
			c0.751-0.104,1.741,0.139,2.218,0.84c0.456,0.508,0.399,1.474-0.488,1.977c0.913-0.313,0.944-1.469,0.463-2.164
			c-0.665-0.673-1.468-0.944-2.218-0.841c-2.062,0.287-2.985,3.285-1.172,5.324C9.456,111.249,12.856,110.966,14.845,108.779
			L14.845,108.779z" fill="#F1C618"/> <polygon clip-rule="evenodd" fill="#F1C618" fill-rule="evenodd" points="62.298,102.668 64.524,109.558 71.764,109.544 
			65.896,113.785 68.146,120.67 62.298,116.398 56.449,120.67 58.699,113.785 52.833,109.544 60.076,109.558 62.298,102.668 		"/> <path d="M79.42,121.795c-5.336-3.646-6.395-5.292-5.373-9.856c2.011,1.801,0.366,4.6,3.715,7.041
			c-2.796-2.411-1.29-5.178-3.455-6.99c1.402,0.929,2.428,0.267,4.119,2.542C80.197,116.915,79.028,119.127,79.42,121.795
			L79.42,121.795z" fill="#F1C618"/> <path d="M67.891,115.649c1.566-3.143,2.496-3.84,5.772-3.66c-0.886,1.217-3.052,0.564-4.155,2.555
			c1.173-1.689,3.292-1.121,4.163-2.414c-0.398,0.816,0.229,1.31-1.029,2.401C71.324,115.681,69.632,115.225,67.891,115.649
			L67.891,115.649z" fill="#F1C618"/> <path d="M85.576,109.018c-6.353-1.516-8.335-1.217-11.28,2.523c2.742,0.269,3.86-2.728,7.993-1.908
			c-3.743-0.44-4.933,2.446-7.776,2.055c1.652,0.41,1.79,1.596,4.694,1.343C82.241,112.762,83.22,110.473,85.576,109.018
			L85.576,109.018z" fill="#F1C618"/> <path clip-rule="evenodd" d="M75.125,107.451c0.307,0.775-0.097,1.646-0.911,1.943
			c-0.808,0.287-1.715-0.09-2.024-0.885c-0.31-0.77,0.1-1.642,0.908-1.94C73.909,106.271,74.813,106.663,75.125,107.451
			L75.125,107.451z" fill="#F1C618" fill-rule="evenodd"/> <path d="M45.176,121.795c5.336-3.646,6.394-5.292,5.373-9.856c-2.011,1.801-0.363,4.6-3.717,7.041
			c2.802-2.411,1.292-5.178,3.46-6.99c-1.404,0.929-2.43,0.267-4.124,2.542C44.398,116.915,45.568,119.127,45.176,121.795
			L45.176,121.795z" fill="#F1C618"/> <path d="M56.709,115.649c-1.569-3.143-2.5-3.84-5.776-3.66c0.89,1.217,3.054,0.564,4.155,2.555
			c-1.169-1.689-3.294-1.121-4.159-2.414c0.396,0.816-0.231,1.31,1.029,2.401C53.272,115.681,54.966,115.225,56.709,115.649
			L56.709,115.649z" fill="#F1C618"/> <path d="M39.02,109.018c6.355-1.516,8.339-1.217,11.28,2.523c-2.738,0.269-3.859-2.728-7.993-1.908
			c3.743-0.44,4.934,2.446,7.779,2.055c-1.654,0.41-1.792,1.596-4.694,1.343C42.355,112.762,41.378,110.473,39.02,109.018
			L39.02,109.018z" fill="#F1C618"/> <path clip-rule="evenodd" d="M49.472,107.451c-0.31,0.775,0.099,1.646,0.909,1.943
			c0.812,0.287,1.718-0.09,2.025-0.885c0.31-0.77-0.102-1.642-0.91-1.94C50.687,106.271,49.781,106.663,49.472,107.451
			L49.472,107.451z" fill="#F1C618" fill-rule="evenodd"/> <polygon clip-rule="evenodd" fill="#F1C618" fill-rule="evenodd" points="62.298,105.112 63.934,110.178 69.261,110.171 
			64.946,113.29 66.6,118.353 62.298,115.213 57.996,118.353 59.65,113.29 55.337,110.171 60.661,110.178 62.298,105.112 		"/> <path d="M325.274,110.844c5.785-2.577,12.75-0.334,14.506,4.113c1.578,4.312-1.123,9.649-6.124,8.957
			c-1.79-0.367-3.401-1.66-3.93-3.097c-0.393-1.608,0.107-3.636,2.276-3.926c-2.037,0.122-2.8,2.483-2.276,3.926
			c0.588,1.881,2.337,3.006,3.952,3.246c4.399,0.924,8.403-4.135,6.39-9.296C338.053,109.603,331.02,107.968,325.274,110.844
			L325.274,110.844z" fill="#F1C618"/> <path d="M325.274,110.844c5.785-2.577,12.75-0.334,14.506,4.113c1.578,4.312-1.123,9.649-6.124,8.957
			c-1.79-0.367-3.401-1.66-3.93-3.097c-0.393-1.608,0.107-3.636,2.276-3.926c-2.037,0.122-2.8,2.483-2.276,3.926
			c0.588,1.881,2.337,3.006,3.952,3.246c4.399,0.924,8.403-4.135,6.39-9.296C338.053,109.603,331.02,107.968,325.274,110.844
			L325.274,110.844z" fill="#F1C618"/> <path d="M324.252,111.431c2.949-1.443,6.113-0.357,7.189,1.613c0.942,2.14,0.027,4.521-2.694,4.28
			c-0.957-0.025-1.812-0.515-2.079-1.232c-0.416-0.699-0.103-1.799,0.98-1.939c-1.083,0.141-1.396,1.24-1.135,1.958
			c0.439,0.851,1.457,1.316,2.252,1.363c2.257,0.304,4.282-2.077,2.986-4.471c-0.267-0.721-0.815-1.25-1.521-1.764
			c1.167,0.453,1.612,1.298,2.07,2.294c0.062,0.446,0.57,0.676,0.686,0.358c-0.019-0.144-0.042-0.295-0.065-0.442
			c-0.22-0.423-0.616-0.973-1.144-1.354c-0.557-0.532-1.237-0.893-2.211-1.068c0.974,0.176,1.99,0.643,2.72,1.3
			c0.898,0.791,1.205,1.804,0.746,1.864c0.22,0.424,1.127,0.154,1.237-0.164l0,0c-0.159,1.078,1.104,1.064,1.827,2.776
			c0.443,0.844,0.145,2.091-0.368,2.916c2.164-3.608,0.65-7.481-2.399-8.889C330.747,109.365,326.735,110.047,324.252,111.431
			L324.252,111.431z" fill="#F1C618"/> <path d="M324.252,111.431c2.949-1.443,6.113-0.357,7.189,1.613c0.942,2.14,0.027,4.521-2.694,4.28
			c-0.957-0.025-1.812-0.515-2.079-1.232c-0.416-0.699-0.103-1.799,0.98-1.939c-1.083,0.141-1.396,1.24-1.135,1.958
			c0.439,0.851,1.457,1.316,2.252,1.363c2.257,0.304,4.282-2.077,2.986-4.471c-0.267-0.721-0.815-1.25-1.521-1.764
			c1.167,0.453,1.612,1.298,2.07,2.294c0.062,0.446,0.57,0.676,0.686,0.358c-0.019-0.144-0.042-0.295-0.065-0.442
			c-0.22-0.423-0.616-0.973-1.144-1.354c-0.557-0.532-1.237-0.893-2.211-1.068c0.974,0.176,1.99,0.643,2.72,1.3
			c0.898,0.791,1.205,1.804,0.746,1.864c0.22,0.424,1.127,0.154,1.237-0.164l0,0c-0.159,1.078,1.104,1.064,1.827,2.776
			c0.443,0.844,0.145,2.091-0.368,2.916c2.164-3.608,0.65-7.481-2.399-8.889C330.747,109.365,326.735,110.047,324.252,111.431
			L324.252,111.431z" fill="#F1C618"/> <path d="M351.628,119.266c-2.858,0.984-6.462,0.104-8.363-1.001c-2.079-1.233-3.138-3.055-3.702-4.788
			c0.702,1.567,1.74,3.241,3.816,4.47c1.92,1.26,5.375,2.156,7.68,0.644c1.17-0.61,1.485-1.706,0.999-1.792
			c0.248-0.488,0.755-0.253,0.956,0.025l0,0c0.001-1.06,1.268-1.075,2.133-2.696c1.359-2.598-1.613-6.729-4.887-6.445
			c-2.061-0.027-3.73,1.549-3.798,3.219c-0.136,0.17-0.114,0.315-0.091,0.465c1.08,0.912,3.023,1.258,4.444,0.164
			c-1.243,1.219-3.188,0.874-4.427-0.017c0.084,1.648,1.759,3.391,3.644,3.29c1.879-0.1,3.062-1.763,2.512-3.351
			c-0.302-1.02-1.391-1.928-2.472-1.784c1.396-0.188,2.521,1.023,2.692,2.207c0.257,1.775-1.43,3.207-3.354,3.008
			c-1.771-0.215-3.112-1.846-3.039-3.518c-0.331-0.109-0.531-0.379-0.728-0.655c-1.016-1.526-0.652-3.384,0.105-4.693
			c2.139-3.754,8.451-3.837,11.351,0.908C360.159,111.646,356.615,117.701,351.628,119.266L351.628,119.266z M353.894,117.457
			c3.379-2.862,5.01-6.848,2.741-10.47c-2.265-3.626-7.988-4.978-10.711-0.844c-0.892,1.478-0.938,3.293-0.129,4.543
			c0.199,0.274,0.375,0.403,0.553,0.529c-0.021-0.146-0.068-0.442,0.042-0.76c0.231-1.688,2.097-2.993,3.999-2.947
			c2.371-0.011,4.714,1.945,5.17,3.997C356.028,113.702,355.229,115.775,353.894,117.457L353.894,117.457z" fill="#F1C618"/> <path d="M351.628,119.266c-2.858,0.984-6.462,0.104-8.363-1.001c-2.079-1.233-3.138-3.055-3.702-4.788
			c0.702,1.567,1.74,3.241,3.816,4.47c1.92,1.26,5.375,2.156,7.68,0.644c1.17-0.61,1.485-1.706,0.999-1.792
			c0.248-0.488,0.755-0.253,0.956,0.025l0,0c0.001-1.06,1.268-1.075,2.133-2.696c1.359-2.598-1.613-6.729-4.887-6.445
			c-2.061-0.027-3.73,1.549-3.798,3.219c-0.136,0.17-0.114,0.315-0.091,0.465c1.08,0.912,3.023,1.258,4.444,0.164
			c-1.243,1.219-3.188,0.874-4.427-0.017c0.084,1.648,1.759,3.391,3.644,3.29c1.879-0.1,3.062-1.763,2.512-3.351
			c-0.302-1.02-1.391-1.928-2.472-1.784c1.396-0.188,2.521,1.023,2.692,2.207c0.257,1.775-1.43,3.207-3.354,3.008
			c-1.771-0.215-3.112-1.846-3.039-3.518c-0.331-0.109-0.531-0.379-0.728-0.655c-1.016-1.526-0.652-3.384,0.105-4.693
			c2.139-3.754,8.451-3.837,11.351,0.908C360.159,111.646,356.615,117.701,351.628,119.266L351.628,119.266z M353.894,117.457
			c3.379-2.862,5.01-6.848,2.741-10.47c-2.265-3.626-7.988-4.978-10.711-0.844c-0.892,1.478-0.938,3.293-0.129,4.543
			c0.199,0.274,0.375,0.403,0.553,0.529c-0.021-0.146-0.068-0.442,0.042-0.76c0.231-1.688,2.097-2.993,3.999-2.947
			c2.371-0.011,4.714,1.945,5.17,3.997C356.028,113.702,355.229,115.775,353.894,117.457L353.894,117.457z" fill="#F1C618"/> <path d="M326.244,111.018c2.037-0.118,3.96,1.134,4.71,2.997c0.017,0.147,0.04,0.295,0.04,0.295
			c-0.828-2.455-2.943-0.666-3.139-1.995l0,0c0.045,0.297-0.224,0.629-0.884,0.417c0.309-0.042,0.4-0.503,0.333-0.952
			c-0.197-0.273-0.553-0.528-0.878-0.636c-0.822-0.19-1.865,0.248-2.596,0.647C324.54,111.241,325.296,110.994,326.244,111.018
			L326.244,111.018z" fill="#F1C618"/> <path d="M326.244,111.018c2.037-0.118,3.96,1.134,4.71,2.997c0.017,0.147,0.04,0.295,0.04,0.295
			c-0.828-2.455-2.943-0.666-3.139-1.995l0,0c0.045,0.297-0.224,0.629-0.884,0.417c0.309-0.042,0.4-0.503,0.333-0.952
			c-0.197-0.273-0.553-0.528-0.878-0.636c-0.822-0.19-1.865,0.248-2.596,0.647C324.54,111.241,325.296,110.994,326.244,111.018
			L326.244,111.018z" fill="#F1C618"/> <path d="M354.266,117.861c1.821-1.599,4.502-1.653,5.654-0.297c1.294,1.334,0.978,3.49-0.862,3.888
			c-0.62,0.081-1.437-0.11-1.837-0.665c-0.373-0.402-0.324-1.16,0.407-1.562c-0.753,0.252-0.78,1.159-0.381,1.714
			c0.552,0.524,1.212,0.743,1.834,0.657c1.702-0.225,2.465-2.589,0.97-4.198C358.726,115.911,355.912,116.136,354.266,117.861
			L354.266,117.861z" fill="#F1C618"/> <path d="M354.266,117.861c1.821-1.599,4.502-1.653,5.654-0.297c1.294,1.334,0.978,3.49-0.862,3.888
			c-0.62,0.081-1.437-0.11-1.837-0.665c-0.373-0.402-0.324-1.16,0.407-1.562c-0.753,0.252-0.78,1.159-0.381,1.714
			c0.552,0.524,1.212,0.743,1.834,0.657c1.702-0.225,2.465-2.589,0.97-4.198C358.726,115.911,355.912,116.136,354.266,117.861
			L354.266,117.861z" fill="#F1C618"/> <path d="M304.8,110.844c-5.785-2.577-12.752-0.334-14.503,4.113c-1.579,4.312,1.125,9.649,6.124,8.957
			c1.791-0.367,3.4-1.66,3.929-3.097c0.394-1.608-0.104-3.636-2.277-3.926c2.039,0.122,2.8,2.483,2.277,3.926
			c-0.591,1.881-2.338,3.006-3.952,3.246c-4.401,0.924-8.406-4.135-6.389-9.296C292.022,109.603,299.057,107.968,304.8,110.844
			L304.8,110.844z" fill="#F1C618"/> <path d="M304.8,110.844c-5.785-2.577-12.752-0.334-14.503,4.113c-1.579,4.312,1.125,9.649,6.124,8.957
			c1.791-0.367,3.4-1.66,3.929-3.097c0.394-1.608-0.104-3.636-2.277-3.926c2.039,0.122,2.8,2.483,2.277,3.926
			c-0.591,1.881-2.338,3.006-3.952,3.246c-4.401,0.924-8.406-4.135-6.389-9.296C292.022,109.603,299.057,107.968,304.8,110.844
			L304.8,110.844z" fill="#F1C618"/> <path d="M305.824,111.431c-2.949-1.443-6.113-0.357-7.188,1.613c-0.945,2.14-0.026,4.521,2.693,4.28
			c0.955-0.025,1.811-0.515,2.08-1.232c0.413-0.699,0.101-1.799-0.982-1.939c1.083,0.141,1.396,1.24,1.134,1.958
			c-0.437,0.851-1.452,1.316-2.25,1.363c-2.257,0.304-4.281-2.077-2.988-4.471c0.269-0.721,0.816-1.25,1.521-1.764
			c-1.169,0.453-1.609,1.298-2.069,2.294c-0.063,0.446-0.569,0.676-0.684,0.358c0.019-0.144,0.042-0.295,0.062-0.442
			c0.222-0.423,0.619-0.973,1.144-1.354c0.554-0.532,1.239-0.893,2.212-1.068c-0.973,0.176-1.988,0.643-2.713,1.3
			c-0.905,0.791-1.212,1.804-0.749,1.864c-0.222,0.424-1.129,0.154-1.241-0.164l0,0c0.161,1.078-1.1,1.064-1.824,2.776
			c-0.444,0.844-0.147,2.091,0.365,2.916c-2.163-3.608-0.65-7.481,2.401-8.889C299.328,109.365,303.337,110.047,305.824,111.431
			L305.824,111.431z" fill="#F1C618"/> <path d="M305.824,111.431c-2.949-1.443-6.113-0.357-7.188,1.613c-0.945,2.14-0.026,4.521,2.693,4.28
			c0.955-0.025,1.811-0.515,2.08-1.232c0.413-0.699,0.101-1.799-0.982-1.939c1.083,0.141,1.396,1.24,1.134,1.958
			c-0.437,0.851-1.452,1.316-2.25,1.363c-2.257,0.304-4.281-2.077-2.988-4.471c0.269-0.721,0.816-1.25,1.521-1.764
			c-1.169,0.453-1.609,1.298-2.069,2.294c-0.063,0.446-0.569,0.676-0.684,0.358c0.019-0.144,0.042-0.295,0.062-0.442
			c0.222-0.423,0.619-0.973,1.144-1.354c0.554-0.532,1.239-0.893,2.212-1.068c-0.973,0.176-1.988,0.643-2.713,1.3
			c-0.905,0.791-1.212,1.804-0.749,1.864c-0.222,0.424-1.129,0.154-1.241-0.164l0,0c0.161,1.078-1.1,1.064-1.824,2.776
			c-0.444,0.844-0.147,2.091,0.365,2.916c-2.163-3.608-0.65-7.481,2.401-8.889C299.328,109.365,303.337,110.047,305.824,111.431
			L305.824,111.431z" fill="#F1C618"/> <path d="M278.446,119.266c-4.987-1.564-8.53-7.619-5.47-12.341c2.898-4.745,9.212-4.662,11.348-0.908
			c0.76,1.31,1.124,3.167,0.107,4.693c-0.196,0.276-0.396,0.546-0.728,0.655c0.074,1.672-1.266,3.303-3.04,3.518
			c-1.927,0.199-3.611-1.232-3.354-3.008c0.175-1.184,1.298-2.395,2.694-2.207c-1.085-0.144-2.169,0.765-2.475,1.784
			c-0.55,1.588,0.631,3.251,2.512,3.351c1.887,0.101,3.564-1.642,3.644-3.29c-1.237,0.891-3.179,1.235-4.427,0.017
			c1.422,1.094,3.364,0.748,4.445-0.164c0.021-0.149,0.044-0.295-0.087-0.465c-0.074-1.67-1.742-3.246-3.803-3.219
			c-3.271-0.284-6.248,3.848-4.887,6.445c0.867,1.621,2.132,1.637,2.135,2.696l0,0c0.199-0.278,0.708-0.514,0.956-0.025
			c-0.488,0.086-0.173,1.182,1.001,1.792c2.311,1.513,5.756,0.616,7.678-0.644c2.076-1.229,3.113-2.902,3.818-4.47
			c-0.57,1.733-1.632,3.555-3.703,4.788C284.911,119.37,281.308,120.25,278.446,119.266L278.446,119.266z M276.184,117.457
			c-1.338-1.682-2.138-3.755-1.665-5.951c0.453-2.052,2.797-4.008,5.166-3.997c1.905-0.046,3.77,1.259,3.998,2.947
			c0.112,0.317,0.065,0.614,0.043,0.76c0.18-0.126,0.355-0.255,0.556-0.529c0.812-1.25,0.763-3.065-0.131-4.543
			c-2.719-4.134-8.444-2.782-10.711,0.844C271.172,110.609,272.805,114.595,276.184,117.457L276.184,117.457z" fill="#F1C618"/> <path d="M278.446,119.266c-4.987-1.564-8.53-7.619-5.47-12.341c2.898-4.745,9.212-4.662,11.348-0.908
			c0.76,1.31,1.124,3.167,0.107,4.693c-0.196,0.276-0.396,0.546-0.728,0.655c0.074,1.672-1.266,3.303-3.04,3.518
			c-1.927,0.199-3.611-1.232-3.354-3.008c0.175-1.184,1.298-2.395,2.694-2.207c-1.085-0.144-2.169,0.765-2.475,1.784
			c-0.55,1.588,0.631,3.251,2.512,3.351c1.887,0.101,3.564-1.642,3.644-3.29c-1.237,0.891-3.179,1.235-4.427,0.017
			c1.422,1.094,3.364,0.748,4.445-0.164c0.021-0.149,0.044-0.295-0.087-0.465c-0.074-1.67-1.742-3.246-3.803-3.219
			c-3.271-0.284-6.248,3.848-4.887,6.445c0.867,1.621,2.132,1.637,2.135,2.696l0,0c0.199-0.278,0.708-0.514,0.956-0.025
			c-0.488,0.086-0.173,1.182,1.001,1.792c2.311,1.513,5.756,0.616,7.678-0.644c2.076-1.229,3.113-2.902,3.818-4.47
			c-0.57,1.733-1.632,3.555-3.703,4.788C284.911,119.37,281.308,120.25,278.446,119.266L278.446,119.266z M276.184,117.457
			c-1.338-1.682-2.138-3.755-1.665-5.951c0.453-2.052,2.797-4.008,5.166-3.997c1.905-0.046,3.77,1.259,3.998,2.947
			c0.112,0.317,0.065,0.614,0.043,0.76c0.18-0.126,0.355-0.255,0.556-0.529c0.812-1.25,0.763-3.065-0.131-4.543
			c-2.719-4.134-8.444-2.782-10.711,0.844C271.172,110.609,272.805,114.595,276.184,117.457L276.184,117.457z" fill="#F1C618"/> <path d="M303.823,111.018c-2.028-0.118-3.952,1.134-4.698,2.997c-0.02,0.147-0.043,0.295-0.043,0.295
			c0.83-2.455,2.942-0.666,3.139-1.995l0,0c-0.049,0.297,0.223,0.629,0.886,0.417c-0.312-0.042-0.401-0.503-0.338-0.952
			c0.196-0.273,0.554-0.528,0.883-0.636c0.817-0.19,1.862,0.248,2.595,0.647C305.535,111.241,304.779,110.994,303.823,111.018
			L303.823,111.018z" fill="#F1C618"/> <path d="M303.823,111.018c-2.028-0.118-3.952,1.134-4.698,2.997c-0.02,0.147-0.043,0.295-0.043,0.295
			c0.83-2.455,2.942-0.666,3.139-1.995l0,0c-0.049,0.297,0.223,0.629,0.886,0.417c-0.312-0.042-0.401-0.503-0.338-0.952
			c0.196-0.273,0.554-0.528,0.883-0.636c0.817-0.19,1.862,0.248,2.595,0.647C305.535,111.241,304.779,110.994,303.823,111.018
			L303.823,111.018z" fill="#F1C618"/> <path d="M275.807,117.861c-1.817-1.599-4.499-1.653-5.646-0.297c-1.3,1.334-0.981,3.49,0.856,3.888
			c0.62,0.081,1.44-0.11,1.831-0.665c0.379-0.402,0.332-1.16-0.4-1.562c0.756,0.252,0.779,1.159,0.382,1.714
			c-0.555,0.524-1.214,0.743-1.832,0.657c-1.706-0.225-2.471-2.589-0.97-4.198C271.352,115.911,274.163,116.136,275.807,117.861
			L275.807,117.861z" fill="#F1C618"/> <path d="M275.807,117.861c-1.817-1.599-4.499-1.653-5.646-0.297c-1.3,1.334-0.981,3.49,0.856,3.888
			c0.62,0.081,1.44-0.11,1.831-0.665c0.379-0.402,0.332-1.16-0.4-1.562c0.756,0.252,0.779,1.159,0.382,1.714
			c-0.555,0.524-1.214,0.743-1.832,0.657c-1.706-0.225-2.471-2.589-0.97-4.198C271.352,115.911,274.163,116.136,275.807,117.861
			L275.807,117.861z" fill="#F1C618"/> <path d="M328.01,119.021c7.329,3.268,16.157,0.419,18.374-5.213c2.002-5.469-1.419-12.228-7.759-11.35
			c-2.269,0.464-4.31,2.104-4.974,3.928c-0.499,2.036,0.129,4.606,2.879,4.97c-2.582-0.15-3.548-3.148-2.879-4.97
			c0.743-2.387,2.956-3.813,5.004-4.114c5.577-1.174,10.652,5.234,8.099,11.777C344.198,120.593,335.283,122.661,328.01,119.021
			L328.01,119.021z" fill="#F1C618"/> <path d="M328.01,119.021c7.329,3.268,16.157,0.419,18.374-5.213c2.002-5.469-1.419-12.228-7.759-11.35
			c-2.269,0.464-4.31,2.104-4.974,3.928c-0.499,2.036,0.129,4.606,2.879,4.97c-2.582-0.15-3.548-3.148-2.879-4.97
			c0.743-2.387,2.956-3.813,5.004-4.114c5.577-1.174,10.652,5.234,8.099,11.777C344.198,120.593,335.283,122.661,328.01,119.021
			L328.01,119.021z" fill="#F1C618"/> <path d="M326.712,118.273c3.737,1.836,7.744,0.456,9.106-2.039c1.202-2.708,0.038-5.729-3.412-5.426
			c-1.208,0.033-2.296,0.65-2.631,1.562c-0.532,0.887-0.133,2.277,1.244,2.46c-1.377-0.183-1.776-1.573-1.44-2.485
			c0.558-1.076,1.843-1.665,2.856-1.725c2.856-0.385,5.42,2.632,3.776,5.665c-0.334,0.911-1.027,1.581-1.923,2.226
			c1.48-0.567,2.037-1.64,2.624-2.897c0.084-0.563,0.725-0.862,0.868-0.46c-0.024,0.188-0.057,0.376-0.082,0.562
			c-0.28,0.541-0.783,1.232-1.455,1.718c-0.694,0.675-1.562,1.131-2.794,1.352c1.231-0.221,2.521-0.814,3.438-1.647
			c1.146-0.993,1.534-2.281,0.947-2.361c0.278-0.533,1.431-0.191,1.571,0.208l0,0c-0.199-1.363,1.398-1.342,2.308-3.513
			c0.564-1.075,0.192-2.653-0.458-3.694c2.743,4.567,0.823,9.476-3.038,11.256C334.942,120.895,329.862,120.029,326.712,118.273
			L326.712,118.273z" fill="#F1C618"/> <path d="M326.712,118.273c3.737,1.836,7.744,0.456,9.106-2.039c1.202-2.708,0.038-5.729-3.412-5.426
			c-1.208,0.033-2.296,0.65-2.631,1.562c-0.532,0.887-0.133,2.277,1.244,2.46c-1.377-0.183-1.776-1.573-1.44-2.485
			c0.558-1.076,1.843-1.665,2.856-1.725c2.856-0.385,5.42,2.632,3.776,5.665c-0.334,0.911-1.027,1.581-1.923,2.226
			c1.48-0.567,2.037-1.64,2.624-2.897c0.084-0.563,0.725-0.862,0.868-0.46c-0.024,0.188-0.057,0.376-0.082,0.562
			c-0.28,0.541-0.783,1.232-1.455,1.718c-0.694,0.675-1.562,1.131-2.794,1.352c1.231-0.221,2.521-0.814,3.438-1.647
			c1.146-0.993,1.534-2.281,0.947-2.361c0.278-0.533,1.431-0.191,1.571,0.208l0,0c-0.199-1.363,1.398-1.342,2.308-3.513
			c0.564-1.075,0.192-2.653-0.458-3.694c2.743,4.567,0.823,9.476-3.038,11.256C334.942,120.895,329.862,120.029,326.712,118.273
			L326.712,118.273z" fill="#F1C618"/> <path d="M361.402,108.346c6.317,1.988,10.807,9.654,6.932,15.643c-3.679,6.013-11.672,5.907-14.384,1.148
			c-0.962-1.655-1.422-4.008-0.141-5.941c0.257-0.354,0.503-0.702,0.926-0.838c-0.096-2.113,1.609-4.181,3.856-4.459
			c2.437-0.248,4.576,1.563,4.247,3.816c-0.218,1.501-1.64,3.033-3.412,2.795c1.377,0.185,2.747-0.972,3.138-2.26
			c0.688-2.011-0.802-4.12-3.189-4.247c-2.388-0.124-4.511,2.079-4.609,4.172c1.562-1.132,4.025-1.569,5.608-0.022
			c-1.804-1.385-4.271-0.947-5.639,0.205c-0.025,0.188-0.056,0.377,0.115,0.59c0.091,2.113,2.207,4.115,4.814,4.08
			c4.148,0.358,7.919-4.873,6.194-8.164c-1.104-2.058-2.702-2.081-2.703-3.416l0,0c-0.255,0.349-0.897,0.647-1.214,0.03
			c0.622-0.11,0.223-1.497-1.27-2.272c-2.923-1.918-7.296-0.777-9.726,0.812c-2.636,1.566-3.947,3.685-4.83,5.671
			c0.716-2.199,2.054-4.507,4.685-6.071C353.209,108.218,357.778,107.102,361.402,108.346L361.402,108.346z M364.271,110.638
			c1.691,2.136,2.709,4.759,2.104,7.547c-0.578,2.598-3.546,5.072-6.544,5.057c-2.415,0.064-4.773-1.589-5.063-3.73
			c-0.14-0.399-0.088-0.776-0.058-0.966c-0.225,0.163-0.449,0.324-0.702,0.674c-1.029,1.583-0.965,3.886,0.166,5.759
			c3.44,5.236,10.697,3.521,13.573-1.066C370.614,119.321,368.549,114.265,364.271,110.638L364.271,110.638z" fill="#F1C618"/> <path d="M361.402,108.346c6.317,1.988,10.807,9.654,6.932,15.643c-3.679,6.013-11.672,5.907-14.384,1.148
			c-0.962-1.655-1.422-4.008-0.141-5.941c0.257-0.354,0.503-0.702,0.926-0.838c-0.096-2.113,1.609-4.181,3.856-4.459
			c2.437-0.248,4.576,1.563,4.247,3.816c-0.218,1.501-1.64,3.033-3.412,2.795c1.377,0.185,2.747-0.972,3.138-2.26
			c0.688-2.011-0.802-4.12-3.189-4.247c-2.388-0.124-4.511,2.079-4.609,4.172c1.562-1.132,4.025-1.569,5.608-0.022
			c-1.804-1.385-4.271-0.947-5.639,0.205c-0.025,0.188-0.056,0.377,0.115,0.59c0.091,2.113,2.207,4.115,4.814,4.08
			c4.148,0.358,7.919-4.873,6.194-8.164c-1.104-2.058-2.702-2.081-2.703-3.416l0,0c-0.255,0.349-0.897,0.647-1.214,0.03
			c0.622-0.11,0.223-1.497-1.27-2.272c-2.923-1.918-7.296-0.777-9.726,0.812c-2.636,1.566-3.947,3.685-4.83,5.671
			c0.716-2.199,2.054-4.507,4.685-6.071C353.209,108.218,357.778,107.102,361.402,108.346L361.402,108.346z M364.271,110.638
			c1.691,2.136,2.709,4.759,2.104,7.547c-0.578,2.598-3.546,5.072-6.544,5.057c-2.415,0.064-4.773-1.589-5.063-3.73
			c-0.14-0.399-0.088-0.776-0.058-0.966c-0.225,0.163-0.449,0.324-0.702,0.674c-1.029,1.583-0.965,3.886,0.166,5.759
			c3.44,5.236,10.697,3.521,13.573-1.066C370.614,119.321,368.549,114.265,364.271,110.638L364.271,110.638z" fill="#F1C618"/> <path d="M329.24,118.802c2.579,0.147,5.014-1.44,5.957-3.798c0.025-0.189,0.058-0.372,0.058-0.372
			c-1.057,3.105-3.725,0.842-3.976,2.526l0,0c0.059-0.374-0.282-0.802-1.117-0.529c0.386,0.052,0.502,0.64,0.418,1.202
			c-0.248,0.352-0.698,0.674-1.117,0.812c-1.031,0.241-2.355-0.317-3.284-0.82C327.079,118.512,328.038,118.833,329.24,118.802
			L329.24,118.802z" fill="#F1C618"/> <path d="M329.24,118.802c2.579,0.147,5.014-1.44,5.957-3.798c0.025-0.189,0.058-0.372,0.058-0.372
			c-1.057,3.105-3.725,0.842-3.976,2.526l0,0c0.059-0.374-0.282-0.802-1.117-0.529c0.386,0.052,0.502,0.64,0.418,1.202
			c-0.248,0.352-0.698,0.674-1.117,0.812c-1.031,0.241-2.355-0.317-3.284-0.82C327.079,118.512,328.038,118.833,329.24,118.802
			L329.24,118.802z" fill="#F1C618"/> <path d="M364.744,110.128c2.307,2.027,5.701,2.098,7.153,0.377c1.647-1.697,1.244-4.423-1.084-4.925
			c-0.789-0.103-1.82,0.143-2.325,0.84c-0.475,0.512-0.416,1.476,0.513,1.978c-0.957-0.313-0.987-1.466-0.484-2.167
			c0.699-0.67,1.539-0.94,2.322-0.836c2.161,0.285,3.127,3.283,1.229,5.323C370.392,112.596,366.828,112.317,364.744,110.128
			L364.744,110.128z" fill="#F1C618"/> <path d="M364.744,110.128c2.307,2.027,5.701,2.098,7.153,0.377c1.647-1.697,1.244-4.423-1.084-4.925
			c-0.789-0.103-1.82,0.143-2.325,0.84c-0.475,0.512-0.416,1.476,0.513,1.978c-0.957-0.313-0.987-1.466-0.484-2.167
			c0.699-0.67,1.539-0.94,2.322-0.836c2.161,0.285,3.127,3.283,1.229,5.323C370.392,112.596,366.828,112.317,364.744,110.128
			L364.744,110.128z" fill="#F1C618"/> <path d="M302.063,119.021c-7.329,3.268-16.154,0.419-18.373-5.213c-2-5.469,1.422-12.228,7.759-11.35
			c2.271,0.464,4.311,2.104,4.977,3.928c0.498,2.036-0.131,4.606-2.879,4.97c2.579-0.15,3.546-3.148,2.879-4.97
			c-0.75-2.387-2.96-3.813-5.002-4.114c-5.578-1.174-10.655,5.234-8.101,11.777C285.876,120.593,294.793,122.661,302.063,119.021
			L302.063,119.021z" fill="#F1C618"/> <path d="M302.063,119.021c-7.329,3.268-16.154,0.419-18.373-5.213c-2-5.469,1.422-12.228,7.759-11.35
			c2.271,0.464,4.311,2.104,4.977,3.928c0.498,2.036-0.131,4.606-2.879,4.97c2.579-0.15,3.546-3.148,2.879-4.97
			c-0.75-2.387-2.96-3.813-5.002-4.114c-5.578-1.174-10.655,5.234-8.101,11.777C285.876,120.593,294.793,122.661,302.063,119.021
			L302.063,119.021z" fill="#F1C618"/> <path d="M303.362,118.273c-3.737,1.836-7.741,0.456-9.106-2.039c-1.193-2.708-0.033-5.729,3.412-5.426
			c1.208,0.033,2.298,0.65,2.633,1.562c0.531,0.887,0.134,2.277-1.242,2.46c1.376-0.183,1.773-1.573,1.438-2.485
			c-0.559-1.076-1.845-1.665-2.854-1.725c-2.862-0.385-5.423,2.632-3.781,5.665c0.332,0.911,1.029,1.581,1.925,2.226
			c-1.485-0.567-2.037-1.64-2.626-2.897c-0.082-0.563-0.721-0.862-0.865-0.46c0.026,0.188,0.057,0.376,0.077,0.562
			c0.281,0.541,0.785,1.232,1.457,1.718c0.694,0.675,1.566,1.131,2.795,1.352c-1.229-0.221-2.515-0.814-3.438-1.647
			c-1.147-0.993-1.533-2.281-0.942-2.361c-0.282-0.533-1.434-0.191-1.578,0.208l0,0c0.201-1.363-1.395-1.342-2.311-3.513
			c-0.555-1.075-0.185-2.653,0.463-3.694c-2.741,4.567-0.821,9.476,3.038,11.256C295.133,120.895,300.215,120.029,303.362,118.273
			L303.362,118.273z" fill="#F1C618"/> <path d="M303.362,118.273c-3.737,1.836-7.741,0.456-9.106-2.039c-1.193-2.708-0.033-5.729,3.412-5.426
			c1.208,0.033,2.298,0.65,2.633,1.562c0.531,0.887,0.134,2.277-1.242,2.46c1.376-0.183,1.773-1.573,1.438-2.485
			c-0.559-1.076-1.845-1.665-2.854-1.725c-2.862-0.385-5.423,2.632-3.781,5.665c0.332,0.911,1.029,1.581,1.925,2.226
			c-1.485-0.567-2.037-1.64-2.626-2.897c-0.082-0.563-0.721-0.862-0.865-0.46c0.026,0.188,0.057,0.376,0.077,0.562
			c0.281,0.541,0.785,1.232,1.457,1.718c0.694,0.675,1.566,1.131,2.795,1.352c-1.229-0.221-2.515-0.814-3.438-1.647
			c-1.147-0.993-1.533-2.281-0.942-2.361c-0.282-0.533-1.434-0.191-1.578,0.208l0,0c0.201-1.363-1.395-1.342-2.311-3.513
			c-0.555-1.075-0.185-2.653,0.463-3.694c-2.741,4.567-0.821,9.476,3.038,11.256C295.133,120.895,300.215,120.029,303.362,118.273
			L303.362,118.273z" fill="#F1C618"/> <path d="M268.674,108.346c3.625-1.244,8.192-0.128,10.599,1.271c2.634,1.564,3.969,3.872,4.689,6.071
			c-0.89-1.986-2.199-4.104-4.83-5.671c-2.435-1.589-6.805-2.729-9.729-0.812c-1.492,0.775-1.89,2.162-1.271,2.272
			c-0.312,0.617-0.959,0.318-1.21-0.03l0,0c-0.004,1.335-1.601,1.358-2.703,3.416c-1.726,3.291,2.04,8.522,6.188,8.164
			c2.611,0.035,4.727-1.967,4.817-4.08c0.166-0.213,0.14-0.402,0.112-0.59c-1.366-1.152-3.829-1.59-5.634-0.205
			c1.576-1.547,4.043-1.109,5.607,0.022c-0.098-2.093-2.224-4.296-4.608-4.172c-2.389,0.127-3.88,2.236-3.19,4.247
			c0.391,1.288,1.761,2.444,3.137,2.26c-1.771,0.238-3.195-1.294-3.413-2.795c-0.327-2.253,1.811-4.064,4.252-3.816
			c2.245,0.278,3.947,2.346,3.85,4.459c0.421,0.136,0.673,0.484,0.926,0.838c1.281,1.934,0.823,4.286-0.134,5.941
			c-2.717,4.759-10.71,4.864-14.386-1.148C257.865,118,262.355,110.334,268.674,108.346L268.674,108.346z M265.805,110.638
			c-4.277,3.627-6.347,8.684-3.478,13.273c2.879,4.587,10.135,6.303,13.573,1.066c1.134-1.873,1.192-4.176,0.164-5.759
			c-0.249-0.35-0.475-0.511-0.7-0.674c0.026,0.189,0.083,0.566-0.058,0.966c-0.286,2.142-2.649,3.795-5.061,3.73
			c-3.003,0.016-5.967-2.459-6.544-5.057C263.092,115.396,264.111,112.773,265.805,110.638L265.805,110.638z" fill="#F1C618"/> <path d="M268.674,108.346c3.625-1.244,8.192-0.128,10.599,1.271c2.634,1.564,3.969,3.872,4.689,6.071
			c-0.89-1.986-2.199-4.104-4.83-5.671c-2.435-1.589-6.805-2.729-9.729-0.812c-1.492,0.775-1.89,2.162-1.271,2.272
			c-0.312,0.617-0.959,0.318-1.21-0.03l0,0c-0.004,1.335-1.601,1.358-2.703,3.416c-1.726,3.291,2.04,8.522,6.188,8.164
			c2.611,0.035,4.727-1.967,4.817-4.08c0.166-0.213,0.14-0.402,0.112-0.59c-1.366-1.152-3.829-1.59-5.634-0.205
			c1.576-1.547,4.043-1.109,5.607,0.022c-0.098-2.093-2.224-4.296-4.608-4.172c-2.389,0.127-3.88,2.236-3.19,4.247
			c0.391,1.288,1.761,2.444,3.137,2.26c-1.771,0.238-3.195-1.294-3.413-2.795c-0.327-2.253,1.811-4.064,4.252-3.816
			c2.245,0.278,3.947,2.346,3.85,4.459c0.421,0.136,0.673,0.484,0.926,0.838c1.281,1.934,0.823,4.286-0.134,5.941
			c-2.717,4.759-10.71,4.864-14.386-1.148C257.865,118,262.355,110.334,268.674,108.346L268.674,108.346z M265.805,110.638
			c-4.277,3.627-6.347,8.684-3.478,13.273c2.879,4.587,10.135,6.303,13.573,1.066c1.134-1.873,1.192-4.176,0.164-5.759
			c-0.249-0.35-0.475-0.511-0.7-0.674c0.026,0.189,0.083,0.566-0.058,0.966c-0.286,2.142-2.649,3.795-5.061,3.73
			c-3.003,0.016-5.967-2.459-6.544-5.057C263.092,115.396,264.111,112.773,265.805,110.638L265.805,110.638z" fill="#F1C618"/> <path d="M300.836,118.802c-2.581,0.147-5.014-1.44-5.96-3.798c-0.028-0.189-0.055-0.372-0.055-0.372
			c1.055,3.105,3.728,0.842,3.974,2.526l0,0c-0.056-0.374,0.283-0.802,1.127-0.529c-0.396,0.052-0.51,0.64-0.428,1.202
			c0.25,0.352,0.696,0.674,1.118,0.812c1.036,0.241,2.354-0.317,3.285-0.82C302.993,118.512,302.038,118.833,300.836,118.802
			L300.836,118.802z" fill="#F1C618"/> <path d="M300.836,118.802c-2.581,0.147-5.014-1.44-5.96-3.798c-0.028-0.189-0.055-0.372-0.055-0.372
			c1.055,3.105,3.728,0.842,3.974,2.526l0,0c-0.056-0.374,0.283-0.802,1.127-0.529c-0.396,0.052-0.51,0.64-0.428,1.202
			c0.25,0.352,0.696,0.674,1.118,0.812c1.036,0.241,2.354-0.317,3.285-0.82C302.993,118.512,302.038,118.833,300.836,118.802
			L300.836,118.802z" fill="#F1C618"/> <path d="M265.33,110.128c-2.306,2.027-5.701,2.098-7.153,0.377c-1.646-1.697-1.242-4.423,1.087-4.925
			c0.783-0.103,1.821,0.143,2.322,0.84c0.478,0.512,0.418,1.476-0.51,1.978c0.957-0.313,0.987-1.466,0.483-2.167
			c-0.701-0.67-1.54-0.94-2.324-0.836c-2.158,0.285-3.126,3.283-1.226,5.323C259.687,112.596,263.248,112.317,265.33,110.128
			L265.33,110.128z" fill="#F1C618"/> <path d="M265.33,110.128c-2.306,2.027-5.701,2.098-7.153,0.377c-1.646-1.697-1.242-4.423,1.087-4.925
			c0.783-0.103,1.821,0.143,2.322,0.84c0.478,0.512,0.418,1.476-0.51,1.978c0.957-0.313,0.987-1.466,0.483-2.167
			c-0.701-0.67-1.54-0.94-2.324-0.836c-2.158,0.285-3.126,3.283-1.226,5.323C259.687,112.596,263.248,112.317,265.33,110.128
			L265.33,110.128z" fill="#F1C618"/> <polygon clip-rule="evenodd" fill="#F1C618" fill-rule="evenodd" points="315.036,104.014 317.367,110.904 324.952,110.889 
			318.808,115.135 321.163,122.016 315.036,117.749 308.914,122.016 311.271,115.135 305.123,110.889 312.709,110.904 
			315.036,104.014 		"/> <path d="M332.973,123.141c-5.585-3.648-6.702-5.29-5.627-9.853c2.105,1.803,0.382,4.598,3.895,7.043
			c-2.936-2.415-1.358-5.178-3.625-6.996c1.473,0.931,2.549,0.271,4.317,2.544C333.793,118.264,332.562,120.475,332.973,123.141
			L332.973,123.141z" fill="#F1C618"/> <path d="M320.896,116.999c1.645-3.144,2.616-3.84,6.047-3.664c-0.931,1.22-3.198,0.567-4.356,2.556
			c1.23-1.687,3.454-1.12,4.361-2.411c-0.411,0.816,0.243,1.307-1.078,2.399C324.493,117.029,322.723,116.573,320.896,116.999
			L320.896,116.999z" fill="#F1C618"/> <path d="M339.42,110.367c-6.65-1.516-8.729-1.217-11.818,2.523c2.876,0.269,4.05-2.731,8.377-1.906
			c-3.916-0.446-5.166,2.445-8.148,2.053c1.735,0.409,1.88,1.598,4.92,1.34C335.927,114.106,336.953,111.819,339.42,110.367
			L339.42,110.367z" fill="#F1C618"/> <path clip-rule="evenodd" d="M328.476,108.8c0.32,0.776-0.105,1.645-0.958,1.945
			c-0.841,0.281-1.794-0.098-2.117-0.886c-0.325-0.771,0.101-1.642,0.952-1.94C327.199,107.614,328.15,108.015,328.476,108.8
			L328.476,108.8z" fill="#F1C618" fill-rule="evenodd"/> <path d="M297.104,123.141c5.584-3.648,6.694-5.29,5.629-9.853c-2.11,1.803-0.387,4.598-3.899,7.043
			c2.939-2.415,1.356-5.178,3.625-6.996c-1.474,0.931-2.546,0.271-4.314,2.544C296.285,118.264,297.516,120.475,297.104,123.141
			L297.104,123.141z" fill="#F1C618"/> <path d="M309.178,116.999c-1.64-3.144-2.612-3.84-6.045-3.664c0.933,1.22,3.197,0.567,4.354,2.556
			c-1.229-1.687-3.449-1.12-4.357-2.411c0.417,0.816-0.247,1.307,1.072,2.399C305.581,117.029,307.354,116.573,309.178,116.999
			L309.178,116.999z" fill="#F1C618"/> <path d="M290.656,110.367c6.658-1.516,8.73-1.217,11.814,2.523c-2.872,0.269-4.045-2.731-8.372-1.906
			c3.917-0.446,5.162,2.445,8.148,2.053c-1.736,0.409-1.883,1.598-4.919,1.34C294.148,114.106,293.124,111.819,290.656,110.367
			L290.656,110.367z" fill="#F1C618"/> <path clip-rule="evenodd" d="M301.604,108.8c-0.32,0.776,0.104,1.645,0.954,1.945
			c0.851,0.281,1.794-0.098,2.114-0.886c0.329-0.771-0.097-1.642-0.947-1.94C302.876,107.614,301.924,108.015,301.604,108.8
			L301.604,108.8z" fill="#F1C618" fill-rule="evenodd"/> <polygon clip-rule="evenodd" fill="#F1C618" fill-rule="evenodd" points="315.036,106.461 316.752,111.527 322.328,111.52 
			317.812,114.64 319.545,119.702 315.036,116.563 310.53,119.702 312.265,114.64 307.749,111.52 313.326,111.527 315.036,106.461 
					"/> </g> </g> </svg>