<svg version="1.1" id="Layer_1" xmlns="http://www.w3.org/2000/svg" xmlns:xlink="http://www.w3.org/1999/xlink" x="0px" y="0px" viewBox="0 0 759 439" enable-background="new 0 0 759 439" xml:space="preserve">
	<g id="band">
	<path id="background" fill-rule="evenodd" clip-rule="evenodd" fill="#EF5F7F" d="M759.5,170.3l-285.3,0.2c0-5.1-2.8-12.5-11-17.5
		c-5.7-3.5-12-4.4-16.9-3.7c-17.7-18.6-41.1-29.9-66.7-29.9c-26,0-49.7,11.6-67.4,30.6c-5.2-1.9-13.1-1.4-19.8,3
		c-7.7,5-11,12.2-11,17.5l-281.8-0.2v98.4l281.8-0.2c0,5.4,3.3,12.6,11,17.5c6.8,4.3,14.6,4.9,19.8,3c17.7,19,41.4,30.6,67.4,30.6
		c25.7,0,49.1-11.3,66.7-29.9c4.9,0.7,11.2-0.2,16.9-3.7c8.2-5,11-12.4,11-17.5l285.3,0.2V170.3z"/>
	<g opacity="0.35">
		<path fill="none" d="M159.2,211.6c-8.1,7.9-18.1,17.6-30.8,25c-5.5,3.8-10.1,7.7-10.7,11.4c-0.3,1.4,0.1,2.7,1,3.9
			c1.1,1.5,2.7,2.3,4.9,2.4c4.4,0.3,10.1-2.3,14.6-5.6c0.2-0.2,0.4-0.3,0.6-0.5c0.6-0.4,1-0.9,1.5-1.3c8.4-7.4,15.4-14.9,20.8-21.1
			l0.1,0.1l1-1.2c13.9-15.3,32.6-34.4,54.7-46.9c5.1-2.9,10.2-5.3,15.4-7.4l-13.8,0c-26.3,11.6-46.5,28.8-57.1,39L159.2,211.6z
			 M185.5,193.7c-0.5-0.3-5.6,6-6,6.4c-8.8,9.7-17.5,19.5-26.5,29.1c-4,4.3-8.1,8.8-12.6,12.6c-1.4,1.2-2.9,2.6-4.5,3.7
			c-1.6,1-7.4,3.3-8.9,1c-3-4.5,6.6-7.8,8.8-9.4c2.1-1.5,4.1-3.1,6.1-4.7c9.5-7.7,18.5-16.1,27.6-24.3
			C170.7,206.9,184.3,193,185.5,193.7z"/>
		<path fill="none" d="M715.6,216.2c-3,8.4-4.2,16.7-4.6,23.9c1-9,3.5-20.7,10.1-31.3c6.8-11.1,18.2-21.6,30.4-28.1
			c2.4-1.3,5-2.5,8-3.6v-5.7c-5.3,2-10.4,4.6-15,7.7C730.7,188.6,721,201.1,715.6,216.2z"/>
		<path fill="none" d="M296.6,265.7c0.7-2.3,1.7-4.3,2.7-6.4c-0.6,1.1-1.5,2-2,3.2c-2.8,5.8-5.3,13.7-5.3,23.3
			c0.1,0.1,0.2,0.2,0.4,0.3c0.6,0.4,1.2,0.7,1.8,1C293.7,279.8,294.5,272.5,296.6,265.7z"/>
		<path fill="none" d="M709.3,174.1c3.1,1.3,3.7,3.7,3.9,5.5c1.2-1.9,3.4-5.3,6.3-9.3l-12.7,0c-1.4,1.7-2.7,3.4-3.8,4.9
			C704.8,173.9,707,173.2,709.3,174.1z"/>
		<path fill="none" d="M720.2,199.6c-6.4,12-9.3,25.4-9.8,37.6c0.5-6.6,1.8-13.9,4.4-21.3c5.4-15.3,15.2-27.9,29.2-37.5
			c4.7-3.3,10-5.8,15.5-7.8v-0.3l-4.5,0c-7.4,3.3-17.2,9.3-27.4,20l-0.1,0c0.1-0.1,7-10.7,20.2-20l-3.2,0
			C735,177.5,726.1,187.5,720.2,199.6z"/>
		<path fill="none" d="M76.2,267.4c0.2,0,0.3,0,0.5,0c-0.4-0.3-0.9-0.5-1.4-0.5c-0.3,0-0.8,0.1-1.1,0.6c-0.3,0.4-0.4,0.8-0.6,1.2
			l1.5,0C75.2,268.1,75.6,267.5,76.2,267.4z"/>
		<path fill="none" d="M733,184.3c7.4-6.8,14.4-11.2,20.1-14l-4,0C741.9,175.2,736.4,180.4,733,184.3z"/>
		<path fill="none" d="M705.6,254.3c1.2,4.3,3,8.4,5,12.4c0.4,0.7,0.7,1.3,1.1,1.9l2.4,0c-1.6-3.6-3.1-7.9-4.3-12.5
			c-3.3-12.3-4-29.2,0.3-45.9c0.3-1.3,0.7-2.6,1.1-3.9c0.2-0.7,0.4-1.4,0.6-2c1.5-4.6,3.4-9.4,6.1-14.4c0.1-0.2,0.2-0.4,0.3-0.6
			c0.3-0.5,0.7-1.1,1-1.6c3.4-6,7.6-11.8,12.7-17.4l-7.4,0c-6.9,8.6-12.4,17.8-16.1,27.3C701,216.1,700.1,235.2,705.6,254.3z"/>
		<path fill="none" d="M554,268.6l0.7,0c-0.5-0.5-1-1.1-1.4-1.6C553.6,267.5,553.8,268,554,268.6z"/>
		<path fill="none" d="M721.8,209.3c-4.3,7-6.8,14.4-8.3,21.2c0,0,0.1,0,0.1,0c0.2-0.6,0.4-1.1,0.7-1.4l0.2-0.6
			c0.1-0.2,7.7-23.1,27.8-37.1c6.6-4.6,12.3-7.2,17.2-8.7V178c-2.8,1.1-5.3,2.3-7.6,3.5C739.8,187.9,728.6,198.3,721.8,209.3z"/>
		<path fill="none" d="M744.1,268.7l15.4,0v-20C752.6,250.1,745.9,258.7,744.1,268.7z"/>
		<path fill="none" d="M540.4,229.9c-3.6,5-7.8,9.3-12.3,14c-6.7,6.9-18.6,16.7-38.1,24.6l11.4,0c3.8-1.9,7.8-4.1,11.8-6.7
			C518.3,258.4,530.4,247.3,540.4,229.9z"/>
		<path fill="none" d="M10.2,265.2c-0.3-0.2-0.7-0.5-1-0.7c-3.4-2-6.6-4.2-9.7-6.6v10.8l17.4,0C14.7,267.6,12.4,266.4,10.2,265.2
			L10.2,265.2z"/>
		<path fill="none" d="M752.1,230.4c-8.2,0.8-13.2,4.8-16.1,8.3c0.5-0.5,1.1-1,1.7-1.4c2.3-1.7,5-2.3,7.5-1.6
			c2.2,0.6,3.5,2.3,4.8,4.1c1.4,2-1.2,9-3.8,12.6c-0.9,1.2-1.7,2.4-2.2,3.3c-1.6,3.1-3,7.1-3.1,13.1l2.4,0
			c1.9-10.5,9-19.4,16.3-20.9V231C757.6,230.4,755.1,230.1,752.1,230.4z"/>
		<path fill="none" d="M425.9,302.5c-1.2-0.3-2.8-1.2-4.3-3.6c-2.2-3.4-1.1-6.6,0.7-8.7c-1.7,0.2-3.7-0.2-5.2-2
			c-2.6-3.1-2.3-6.3-2-7.7c-1.8-0.5-6.7-1.8-9.2-2.3c-4.8-0.9-8.6-0.3-11.2,1.6c-1.5,1.1-2.4,2.6-2.9,3.8c1.5-1,3.2-1.4,4.9-0.9
			c2.7,0.8,4.8,3.4,5.1,6.3c0.2,2.9-0.9,5.6-3.1,7.5c-2.3,2-5.3,2.8-8.3,2.1c-6.3-1.4-11.9-8.1-10.5-16.8
			c1.1-6.8,7.5-10.8,10.8-12.4c-8.8-1.8-19.7-1.5-21.9,1.9c-0.9,1.4-1.1,2.5-0.5,3.2c0.1,0.1,0.2,0.1,0.3,0.2c0-0.1-0.1-0.1-0.1-0.2
			c-0.3-1.3,0.4-2.5,1.6-2.9c1.2-0.3,2.5,0.4,2.9,1.6c0.3,1.1-0.2,2.3-1.3,2.7l0,0c-1.6,0.8-3.5,0.5-4.4-0.6
			c-0.5-0.5-1.4-2.1,0.3-4.8c3.1-4.8,17-4.2,25.5-2.1l2.2,0.6l-2.1,0.8c-0.1,0-10.5,4-11.9,12.2c-1.3,7.9,3.8,14,9.4,15.2
			c2.5,0.6,5.1-0.1,7.1-1.8c1.8-1.6,2.8-3.9,2.6-6.3c-0.2-2.3-1.9-4.5-4-5.1c-1.9-0.6-3.8,0.2-5.3,2.2l-1.5,2l0.2-2.4
			c0-0.2,0.4-4.3,4.1-7.1c2.9-2.2,7.1-2.9,12.3-1.9c3.1,0.6,9.7,2.4,10,2.5l0.7,0.2l-0.2,0.7c-0.1,0.2-1.2,3.7,1.6,7.1
			c2.5,3,6.7,1.1,6.9,1l0.2,0.1c-0.2,0.2-5.7,4.7-2.5,9.7c2.3,3.5,4.5,3,4.5,3l1.1,0l0.1-0.2l0,0.2l-0.2,0l-0.8,1.2
			c-0.6,0.6-1.2,2.1-1.9,4c1.3-0.8,2.6-1.7,3.9-2.5c1.2-4.1,2.7-7.2,3.3-8.5c-3-1.4-5.8-4.5-4.9-9.5c0.6-3,2.9-5,4.6-6.2
			c-3.2-0.4-9.5-1.1-14.1-2.5l-0.3-0.1c-6.2-1.8-17.6-5-25.3-1.9c-7.3,3-8.1,7.4-7.9,9.7c0.3,3.4,2.9,6.7,5.9,7.4
			c1.1,0.3,2.1,0.1,3-0.3c-0.5-0.1-1-0.2-1.3-0.6c-0.9-1.2-0.7-2.9,0.6-4c1.3-1.1,3.1-1,4,0.2c0.6,0.8,0.5,1.8,0.1,2.7l0.2,0.1
			c-0.2,0.3-0.4,0.3-0.6,0.6c-0.2,0.2-0.2,0.5-0.4,0.6c-0.1,0.1-0.3,0.1-0.5,0.2c-1.6,1.6-3.5,2.5-5.6,2c-3.6-0.9-6.7-4.7-7-8.7
			c-0.4-4.6,2.9-8.7,8.8-11.1c8.1-3.3,19.9,0.1,26.2,1.9l0.3,0.1c6.2,1.8,15.8,2.6,15.9,2.6l2.6,0.2l-2.3,1.1c0,0-4.9,2.4-5.6,6.3
			c-0.8,4.5,2,7.3,4.7,8.3l0.7,0.3l-0.4,0.7c0,0.1-1.6,3-3,7.1c5.2-3.7,10.1-8,14.7-12.8c0.3,0,0.6,0.1,0.9,0.1
			c6.2-5,14.1-7.6,23.1-10.3c1.4-1.9,2.4-3.9,3-5.8c-7.7,1.6-15.3,2.2-22.4,2.1c-1.7,0.1-3.3,0.2-5,0.1c-10.3-0.3-21.1-3.4-31.2-7.1
			c-20.1-8.3-37.4-16-53.2-14.8c-15.5,0.8-25.5,7.3-29.1,8.9c-6.3,4.2-12.2,3.4-14.9-0.2c-5.6-7.3,7.1-16.2,12.3-18.4
			c8.6-3.7,18.4-5,27.6-4.7c18.3,0.2,41.9,12.3,60.3,22c8.7,4.1,17.6,4.7,26.3,5.7c-2.6-0.5-5.4-1.3-8.1-2.2
			c-10.5-3.2-19.6-8.2-29.1-13.5l-5.1-2.8c-17.3-9.5-43-21.4-67.3-15.6c-8.1,2-15.4,5.6-21.7,10.4c-1.1,0.9-2.1,1.9-3.1,2.9
			c-0.8,0.8-1.6,1.5-2.4,2.4c-4,4.8-7.2,10.6-9.2,17.2c-2.1,6.9-2.8,14.3-2.3,21.7c2.5,1.1,5,1.8,7.5,2.1c-2.4-3.8-3.7-9.8-2.2-18.3
			c1.3-7.6,4.6-14.8,9.9-20.6c3.5-3.8,7.6-6.9,12.3-9.1c3.8-1.8,9.3-3.9,13.3-4.9c-7.1,3.4-14.3,6.2-19.8,12.9
			c-2.7,3.3-4.1,7.2-3.4,10.9c0.6,3.2,2.5,5.9,5.5,7.5c6.4,3.5,13.8-1,19.8-4.5c2.2-1.3,4.2-2.5,6-3.2c11.1-4.5,28.6-7.6,66.1,8.8
			l12.2,5.1c0,0-12.7-3.8-12.7-3.8c-0.8-0.3-22.8-8.7-42.9-6.9c-18,1.6-34.2,12.9-36.1,25c-0.6,4,0.3,9.9,3.3,13.5
			c1.5,1.8,3.3,2.8,5.4,2.9c1.9,0.1,3.3-0.4,4.3-1.1c-0.9-0.2-1.7-0.8-2-1.8c-0.4-1.4,0.4-2.8,1.8-3.2c0.7-0.2,1.4-0.1,2,0.3
			c0.9,0.4,1.4,1.4,1.3,2.6c-0.4,2.4-3.1,4.8-7.4,4.6c-2.5-0.1-4.7-1.3-6.4-3.4c-3.3-4.1-4.2-10.4-3.6-14.6
			c2-12.7,18.7-24.5,37.4-26.2c9.9-0.9,20.2,0.6,28.3,2.5c-27.1-9.5-41-6.7-50.3-2.9c-1.7,0.7-3.7,1.9-5.8,3.1
			c-6.3,3.8-18,7.2-21.2,4.6c-2.9-2.4-5.5-4.8-6.2-8.4c-0.7-4.1,0.6-8.6,3.7-12.1c0.8-0.9,1.7-1.8,2.6-2.6
			c-6.1,4.3-13.4,12-15.8,25.4c-1.6,8.8,0,14.7,2.7,18.1c1.8,0.1,3.5-0.1,5-0.4c-0.1-0.1-0.1-0.2-0.2-0.4c-0.4-1.3,0.4-2.8,1.8-3.2
			c0.2-0.1,0.4-0.1,0.6-0.1V286c1.8-0.1,3.2,0.7,3.9,2.1c0.7,1.4,0.5,3.1-0.3,4.6c15.9,15.4,35.9,25.2,57.9,26.7
			c0.2-1.6,0.2-3.3,0.1-5c-0.4-4.7-2.4-9.3-6.3-11.3c-0.4-0.2-0.9-0.3-1.4-0.5c0,0.1,0.1,0.2,0.1,0.3c0.6,2.2-0.6,4.5-2.9,5.2
			c-2.2,0.6-4.6-0.6-5.2-2.9c-1.6-5.7,5-8.1,10-5.2c4.6,2.7,7,8.2,7.4,13.4c0.2,2,0,4-0.3,6c1.5,0.1,2.9,0.1,4.4,0.1
			c16,0,31-4.4,44.4-12.1C424.4,305.7,425.1,303.8,425.9,302.5z M428,295c0.4,1.2-0.4,2.5-1.6,2.9c-1.2,0.4-2.5-0.4-2.9-1.6
			c-0.4-1.2,0.3-2.5,1.6-2.9C426.3,293.1,427.6,293.8,428,295z M420.8,281c1.5-0.4,3.1,0.4,3.5,1.9c0.4,1.5-0.4,3.1-1.9,3.5
			c-1.5,0.4-3.1-0.4-3.5-1.9C418.4,283.1,419.3,281.5,420.8,281z M447.9,281.6c0.9-0.3,1.9,0.3,2.2,1.2c0.3,0.9-0.3,1.9-1.2,2.2
			c-0.9,0.3-1.9-0.3-2.2-1.2C446.4,282.9,446.9,281.9,447.9,281.6z M442.1,280.4c1.1-0.3,2.3,0.3,2.6,1.4c0.3,1.1-0.3,2.3-1.4,2.6
			c-1.1,0.3-2.3-0.3-2.6-1.4C440.3,281.9,440.9,280.7,442.1,280.4z M440.1,286.6c0.7,2.2-0.6,4.5-2.9,5.2c-2.2,0.6-4.5-0.7-5.2-2.9
			c-0.6-2.2,0.7-4.5,2.9-5.2C437.1,283.1,439.4,284.4,440.1,286.6z M394.9,306.6c-0.7,0.2-1.4-0.2-1.6-0.9c-0.2-0.7,0.2-1.4,0.9-1.7
			c0.7-0.2,1.4,0.2,1.6,0.9C396.1,305.7,395.7,306.4,394.9,306.6z M407.5,313.2c-1,0.3-1.9-0.3-2.2-1.2c-0.3-0.9,0.3-1.9,1.2-2.2
			c0.9-0.3,1.9,0.3,2.2,1.2C409,311.9,408.4,312.9,407.5,313.2z M409.9,305.5c-1.2,0.4-2.5-0.4-2.9-1.6c-0.4-1.2,0.3-2.5,1.6-2.9
			c1.2-0.4,2.5,0.4,2.9,1.6C411.9,303.9,411.1,305.2,409.9,305.5z"/>
		<path fill="none" d="M28.1,214.8c9,16.3,24.8,27.2,44.6,30.6c12.4,2.1,23.3,1.4,33.1-1c-12,2-25,1.5-36.1-1.9
			c-10.2-3.2-18.3-8.3-27.9-17.7c-8.9-8.8-16-26.6-15.5-38.9c0.2-5.5,1.9-9.7,4.8-12.1c2.5-2.1,5-1.7,6.6-0.7c2,1.2,2.5,3.5,2.3,5.8
			c-0.5,4.3-6.1,6.1-7.4,1.7c-0.4-1.5,0.4-3,1.9-3.4c1.5-0.4,3,0.4,3.5,1.9c0.1,0.2,0.1,0.5,0.1,0.7c0.2-0.4,0.4-0.8,0.6-1.3
			c0.4-1.6-0.2-3.3-1.7-4.2c-1.5-0.9-3.4-0.7-5,0.6c-2.6,2.2-4.2,6.1-4.4,11.1c-0.5,12,6.5,29.3,15.1,37.8
			c9.4,9.2,17.3,14.2,27.3,17.3c16.3,5.1,37.2,4,51.8-2.6l0,0c2-1,4-2.1,5.9-3.2c1-0.7,2.2-1.4,3.3-2.2c-13,6.2-29.1,9.9-43.6,6.9
			c-12.8-2.6-22.5-10.3-28.1-22.1c-2-4.3-2.1-9.1-0.1-12.7c1.3-2.4,3.3-3.9,5.5-4.2c2.3-0.3,4.1,0.5,4.9,2.2c0.8,1.7,0.4,4-1.1,5.3
			l0,0c-0.4,0.4-0.8,0.7-1.3,0.9c-1.5,0.4-3-0.4-3.5-1.9c-0.4-1.5,0.4-3,1.9-3.5c1.1-0.3,2.3,0.1,3,1c0-0.4-0.1-0.8-0.3-1.2
			c-0.5-1.2-1.8-1.6-3.5-1.4c-1.8,0.3-3.4,1.5-4.5,3.5c-1.7,3.2-1.7,7.5,0.2,11.4c5.4,11.6,14.5,18.7,27.1,21.3
			c17.7,3.7,38.1-2.8,51.7-11.7c7.1-5.5,13.5-11.3,18.7-16.4l2.2-2.1c10.3-9.9,29.6-26.4,54.7-38l-9.8,0l-7.8,4.1
			c-2.2,1.1-4.3,2.3-6.5,3.4l0.1,0.2l-4.9,2.8c-4,2.3-7.9,4.4-11.8,6.3c-1.7,1-3.4,1.9-5.1,3c-11.2,7.2-21.4,8.2-31.8,8.8l-2.2,0.1
			c-7.2,0.3-14.6,0.6-15.7,8.3c-0.4,2.8,0.4,5.2,2.1,6.8c1.7,1.5,4.3,2,6.8,1.3c3.3-1,4.3-3,4.5-4.9c-0.3,0.2-0.6,0.4-0.9,0.5
			c-1.5,0.4-3-0.4-3.5-1.9c-0.4-1.5,0.4-3,1.9-3.4c1.3-0.4,2.6,0.2,3.3,1.4l0.2,0.4c1.2,3.2,0.3,7.8-5.1,9.4c-3,0.9-6,0.3-8.1-1.5
			c-2.2-1.9-3.1-4.7-2.6-8c1.2-8.8,10-9.2,17-9.5l2.1-0.1c8.7-0.5,17.4-1.5,26.5-6.2c-4,1.2-7.9,1.7-11.7,1.1
			c-5.5-0.8-7.8-3.5-8.8-5.7c-1.4-3-0.9-6.5,0.2-8.3c1.5-2.3,4.5-2.7,6.7-2.4c1.3,0.2,2.4,0.7,3.1,1.3c0.7,0.3,1.3,0.9,1.5,1.8
			c0.4,1.5-0.4,3-1.9,3.5c-1.5,0.4-3-0.4-3.5-1.9c-0.4-1.2,0.2-2.5,1.2-3.1c-0.2-0.1-0.4-0.1-0.7-0.1c-1.9-0.3-4.2,0.2-5.3,1.8
			c-0.8,1.2-1.4,4.2-0.1,6.9c1.2,2.7,3.9,4.4,7.7,4.9c6.9,1,14.4-1.8,22.1-5.7c7.4-4.3,14.9-8.4,22.3-12.2l5.4-2.8l-18.1,0
			c-0.5,0.4-1.1,0.6-1.7,0.8c-1.7,0.5-3.4,0.1-4.8-0.8l-154.9-0.1C18.7,184.9,20.6,201.1,28.1,214.8z M58,223.1
			c0.5,1.8-0.5,3.6-2.3,4.1c-1.8,0.5-3.6-0.5-4.1-2.3c-0.5-1.8,0.5-3.6,2.3-4.1C55.7,220.4,57.5,221.4,58,223.1z M43.4,200.3
			L43.4,200.3c-0.1,0.9-0.6,1.7-1.5,1.9c-1.1,0.3-2.3-0.3-2.6-1.4c-0.3-1.1,0.3-2.3,1.4-2.6c0.4-0.1,0.8-0.1,1.1,0
			c-0.2-0.4-0.6-0.8-0.9-1c-0.8-0.6-1.7-0.6-2.4-0.2c-1.2,0.9-1.5,3.5-0.5,7.1c2.4,9.5,8.7,15.6,10.8,17.4c1.1-2.3,3.9-3.5,5.3-3.9
			c-1.4-3.1-1.5-7.4-1.2-9.7c0.5-4.1,2.3-7.4,5.1-9.5c2.3-1.8,5.3-2.5,8.2-2c3.6,0.6,6.7,2.9,7.9,6.1c1.1,2.8,0.7,5.7-1.2,8.1
			c-1.6,2.1-4.2,3.6-6.6,3.8c-0.6,0-1.2,0-1.7-0.1c1.6,3.6,6.3,12.4,17.3,17.4c8.7,3.9,14.5,2.8,17.2,0.5c1.3-1.1,1.8-2.5,1.4-3.9
			c-0.3-1.1-1-1.9-1.8-2c-0.7-0.2-1.5,0.1-2.1,0.9c-0.1,0.1-0.1,0.2-0.2,0.3c0.2-0.1,0.3-0.2,0.5-0.2c1.1-0.3,2.3,0.3,2.6,1.4
			c0.3,1.1-0.3,2.3-1.4,2.6c-0.4,0.1-0.8,0.1-1.1,0l-0.1,0.1c-0.8-0.5-1.9-1.4-2.1-2.6c-0.1-0.6-0.1-1.5,0.7-2.5
			c0.9-1.1,2.2-1.6,3.5-1.3c1.4,0.3,2.4,1.4,2.9,3c0.5,1.9-0.1,3.9-1.8,5.3c-3,2.6-9.4,3.8-18.7-0.3c-14.6-6.5-18.5-19.3-18.7-19.9
			l-0.8-2.6l1.9,1.9c0.7,0.7,1.7,0.8,2.4,0.7c2-0.2,4.2-1.4,5.6-3.2c1.6-2,1.9-4.4,1-6.7c-1.1-2.8-3.7-4.8-6.9-5.3
			c-2.6-0.4-5.1,0.2-7.2,1.7c-2.5,1.8-4.1,4.9-4.5,8.5c-0.3,2.8,0,7.2,1.4,9.7l0.4,0.8l-0.9,0.2c0,0-4.7,1.1-5.4,4.1l-0.2,1
			l-0.8-0.6c-0.4-0.3-9-6.9-12.1-18.8c-1.5-5.8,0-7.9,1.1-8.6c1.1-0.8,2.7-0.7,4,0.2C43.1,197,43.8,198.7,43.4,200.3z"/>
		<path fill="none" d="M717.2,226.5c0.4-0.1-0.9,1.5-0.3,1.7c0.1,0,0.2,0.1,0.3,0.2c0.4-1.2,1-2.6,1.6-3.9l0,0
			c0.1-0.1,0.1-0.2,0.2-0.3c2.4-5.2,5.7-10.5,7.4-12.8c5.9-7.6,11.1-12.2,11.2-12.3l0.3-0.3l0.2,0.2c0.3,0.2,3,1.7,5.8-1.2
			c2-2,0.4-4.4,0.3-4.4l-0.3-0.4l0.4-0.2c5.8-3.2,10.6-5.4,15.2-5.9v-3.3c-4.8,1.4-10.4,4-16.7,8.5
			C725.2,204.2,718.9,221.9,717.2,226.5z M742.9,196.5c-0.5,1.2-1.8,1.9-3.1,1.4c-0.3-0.1-0.5-0.3-0.8-0.5c1.1-1.1,2.2-2.1,3.6-2.9
			C743.2,195.1,743.3,195.6,742.9,196.5z"/>
		<path fill="none" d="M650.3,268.6l9.5,0C656.8,268.4,653.6,268.3,650.3,268.6z"/>
		<path fill="none" d="M419.4,215.7l1.2,1.3c4.8,5.3,14.9,16.4,28.9,25.1c17.4,10.7,35,14.1,52.4,10c3.3-0.8,11.6-3.1,19.6-8
			c-3.6,2-7.5,3.7-11.8,4.8c-17.8,5.3-39.2,4-52.6-6c-13.2-9.3-18.2-19.8-19.2-21.3c-3.7-6.8-2.1-14.1,2.1-15.1
			c4.1-1,8.8,2.5,11.7,7.9c0.8,1.2,4.1,10,13.4,18c8.7,8.4,26.1,11.8,43,8.9c7-0.9,13.3-3.7,18.7-7.4c-8.5,4.7-16.5,6.3-17.4,6.2
			c-3.3,0.3-6.1-1.6-6.3-4.2c-0.3-2.6,2.2-5,5.4-5.3c0.8,0,7.9-0.3,16-3.6c-4.4,1.6-8.8,2-12.8,1.1c-7.6-1.8-12.7-8.3-14.2-18.3
			c-0.9-6,1.5-11.8,6.2-15.4c4.4-3.2,10-3.7,15-1.3c3.8,1.9,5.8,5.2,6.2,8.6c0.4,2.6,0.2,5.8-1.9,8.5c-3.3,4.3-11.3,4.5-13.1,0.9
			c-1.8-3.6,2.2-4,4.5-3c1.8,0.8,5.4,1.1,7.4-1.4c1.5-1.9,2.1-5.4,0.4-8.6h0.1c-0.9-1.5-2.3-2.8-4.1-3.7c-4.6-2.2-9.5-1.8-13.6,1.2
			c-4.3,3.2-6.5,8.6-5.7,14c1.4,9.4,6.1,15.5,13.2,17.2c10.6,2.5,23.9-5.1,33.9-19.3c0.9-1.2,1.7-2.5,2.5-3.8
			c-1,1.3-2.1,2.6-3.3,3.7c-1.7,1.5-7.9,4.3-9.1,0.4c-1.1-3.7,3.4-5.1,5.7-7.1c3.4-2.9,6.5-5.9,9.5-9.2c2.1-2.4,4.1-4.9,5.9-7.5
			c3-4.5,6.4-8.7,10.1-12.7c0.3-0.3,0.5-0.5,0.8-0.8l-26.2,0c-0.8,4.3-3.7,7.6-8,8.6c-3.8,0.9-7.1-0.4-8.8-3.1
			c-1.1-1.7-1.4-3.8-0.9-5.5l-19.6,0c0.3,0.5,0.6,0.9,0.8,1.4c0.2,1,0,1.8-0.5,2.4c-0.2,0.2-0.4,0.4-0.7,0.5c-0.8,0.2-1.6-0.2-1.9-1
			c-0.2-0.8,0.2-1.6,1-1.9c0.2-0.1,0.4-0.1,0.6-0.1c-0.2-0.6-0.7-1.1-1.3-1.4l-2.9,0c-1.6,0.8-3.8,2.9-6.3,8.7
			c-3.8,9.2-1.1,20.3,0.9,26.2c0.4-7.1,5-14.5,13-16.9c5.2-1.5,10.1-0.8,14.3,2c6.9,4.6,7.7,14.1,5.7,18.9c-2,4.6-6.7,6.8-10.2,7.3
			c-2.4,0.3-6.3-0.6-8.6-2.8c-1.4-1.4-2.1-3-1.9-4.9c0.1-1.6,0.7-2.7,1.8-3.5c1.8-1.2,4.2-0.9,5.3-0.7c0.2-0.5,0.2-1.2-0.1-2.1
			c-0.6-1.6-2.1-3.7-4.8-4.2c-2.2-0.4-4.2,0.9-4.9,2.4c0,0,0,0.1,0,0.1c0.7-0.1,1.5,0.3,1.7,1c0.2,0.8-0.2,1.6-1,1.9
			c-0.5,0.1-0.9,0-1.3-0.2l0,0c-0.1-0.1-0.1-0.2-0.2-0.2c0,0-0.1-0.1-0.2-0.2c-0.7-0.8-0.8-1.9-0.2-3c0.9-2,3.6-3.7,6.4-3.2
			c3.2,0.6,5.2,3.1,5.9,5.1c0.5,1.6,0.4,3-0.3,3.8l-0.3,0.3l-0.4-0.1c0,0-3-0.8-4.7,0.4c-0.7,0.5-1.1,1.3-1.2,2.4
			c-0.1,1.4,0.4,2.7,1.5,3.8c2,1.8,5.4,2.7,7.4,2.4c3.1-0.4,7.4-2.4,9.1-6.5c1.6-3.8,1.3-12.9-5.2-17.2c-3.9-2.6-8.3-3.2-13.1-1.8
			c-9.1,2.6-14.7,13.6-10.4,25.5l-2.5-4.7c-0.3-0.7-8.5-18.3-2.8-32c1.8-4.2,3.5-6.7,5.1-8.2l-5,0c-1,2-2,4-2.6,6.1
			c-6.7,21.1,6.6,40.1,7.6,41.4l1.1,1l-1.5,0.2c0,0-2.4,0.3-3.2,1.9c-0.6,1.1-0.3,2.6,0.7,4.4l0.4,0.7l-0.7,0.3
			c-4.4,1.8-5.2,5-4.5,7.5c0.7,2.4,2.9,4.2,2.9,4.2l1.5,1.2l-2,0c-19.7,0-31.7-15.9-40-29.7c-2.7-4.5-6.3-7.4-9.8-7.8
			c-2.7-0.4-5.4,0.7-7.9,3.2c-5.6,5.6-0.6,19.3,2.6,24.2l-0.1,0c-16-17.4-43.8-52.9-42.8-89.8c0.2-7,1.3-13.1,2.9-18.4
			c-3.4-0.7-6.9-1.2-10.4-1.5C375.7,159.9,401.6,196.4,419.4,215.7z M496.3,221.2c1.1-0.3,2.3,0.3,2.6,1.4c0.3,1.1-0.3,2.3-1.4,2.6
			c-1.1,0.3-2.3-0.3-2.6-1.4C494.5,222.7,495.1,221.5,496.3,221.2z M491.8,233.4c-0.5-1.7,0.5-3.4,2.2-3.9c1.7-0.5,3.4,0.5,3.9,2.2
			c0.5,1.7-0.5,3.4-2.2,3.9C494,236,492.3,235.1,491.8,233.4z"/>
		<path fill="none" d="M314.7,288.7c0,0.8-0.4,1.5-1.1,1.9c0.3,0.3,0.6,0.7,1,1C315.1,290.7,315.1,289.6,314.7,288.7z"/>
		<path fill="none" d="M744.4,198.5c-2.8,2.9-5.7,1.9-6.6,1.4c-1,0.9-5.7,5.3-10.9,12c-1.3,1.7-3.5,5-5.5,8.7
			c0.7-0.5,1.4-0.7,2.1-0.6c0.3-0.7,1.1-1.6,2.5-1.5c0.7,0,1.2,0.2,1.6,0.6c0.1-2.3,0.6-6.3,3.3-7.8c1.3-0.7,2.6-0.8,3.6-0.2
			c0.9,0.5,1.5,1.6,1.4,2.7c0,1.2-1,2-1.7,2.3c-0.3,0.1-0.6,0.2-0.9,0.2c-0.2,0.1-0.4,0-0.7,0c-0.6-0.2-0.9-0.9-0.7-1.5
			c0.2-0.6,0.9-0.9,1.5-0.7c0.5,0.2,0.7,0.6,0.8,1.1c0.4-0.3,0.8-0.7,0.8-1.3c0-0.6-0.3-1.5-1-1.9c-0.7-0.5-1.7-0.4-2.7,0.2
			c-3.3,1.8-2.9,8.5-2.9,8.6l0,0.3c0-0.1-1.1-1.6-2.4-1.6c-1.5,0-1.8,1.3-1.8,1.3l-0.1,0.5l-0.5-0.2c-1.2-0.5-2.5,0.5-3.8,2.9
			c-0.9,1.8-1.6,3.7-2.2,5.3c0.2-0.4,0.8-1.3,2.2-2.2c1.4-0.9,3.5-0.8,4.5,0.1c0.6-1.2,1.1-2.4,1.7-3.2c1.6-2.3,3.9-3.6,6.2-3.4
			c1.7,0.2,3.1,1.2,3.9,2.8c0.7,1.4,0.3,2.8-0.6,4.3c0.3-0.1,0.6-0.2,1-0.1c0.7,0.1,1.4,0.5,1.9,1.2c0.9-0.7,3.2-2.7,6.2-5.1
			c2.7-2.2,5.7-5.3,5.7-7.6c0-0.7-0.3-1.2-0.8-1.6c-0.8-0.6-1.7-0.8-2.5-0.6c-0.2,0.1-0.3,0.1-0.5,0.2c0.1,0,0.1,0,0.2,0.1
			c0.8,0.3,1.2,1.2,0.9,2c-0.3,0.8-1.2,1.2-2,0.9c-0.7-0.3-1-0.9-1-1.5l-0.1,0c0.2-1.1,1.1-2.1,2.2-2.4c1.1-0.4,2.3-0.1,3.3,0.7
			c0.7,0.6,1.1,1.4,1.1,2.3c0,3.2-4.6,7.1-6,8.3c-3.8,3-6.5,5.3-6.5,5.3l-0.4,0.3l-0.2-0.4c-0.5-0.7-1-1.2-1.5-1.2
			c-1.1-0.1-2.7,1-2.8,1l-0.1-0.1c1.6-2,2.4-3.9,1.7-5.5c-0.6-1.4-1.7-2.2-3.2-2.3c-2-0.2-4,1-5.4,3.1c-2,2.9-4.6,10.8-4.6,10.9
			l-0.2,0.4c0,0,0.1-1.5-1.7-2.7c-1.4-0.9-3.3-0.1-3.4,0l-0.3,0.2l-0.2-0.3c-0.4-0.5,0.1,5.9-0.3,7c-0.1,0.3-0.3,0.9-0.3,0.9
			c-0.5,1.1-1.1,9.3-0.6,12.1c1,5.6,2.8,10.3,4.2,14.3c0.2,0.6,0.4,1.1,0.6,1.6l0.5,0c-0.2-0.6-0.4-1.2-0.6-1.8
			c-1.3-4-2.9-8.8-3.8-14.2c-0.4-2.7-0.6-5.6-0.1-8.6c0.4-2.7,2-6.6,4.9-5.9c0.5,0.2,0.9,0.5,1.2,0.9c2-7.4,5.1-12.9,5.6-13.4
			c1.6-2.2,4-3.2,5.2-2.1c1.2,1.1,1,3.4-0.4,5.4c-0.7,0.8-8.6,11.7-9,25.1c-0.5,5.3,0.3,10.4,1.4,14.6l0.8,0
			c-1.3-6.9-1.5-14.2,0.8-21.1c0.8-2.5,1.9-4.9,3.2-7.1l0,0c1.1-2.1,2.6-3.9,4.2-5.6c1-1.1,2.1-2,3.3-3c0.1-0.1,0.2-0.2,0.4-0.3
			c2.7-2.2,5.6-4.2,8.9-5.5c3.4-1.3,7.9-2.4,13.2-2.2v-36.1c-4.3,0.5-8.9,2.6-14.4,5.6C745.6,194.3,746.4,196.5,744.4,198.5z
			 M724.8,224.2c-0.4,0.9-1.4,1.4-2.3,1.1c-0.9-0.4-1.4-1.4-1.1-2.4c0.4-0.9,1.4-1.4,2.4-1.1C724.7,222.2,725.1,223.3,724.8,224.2z
			 M725.7,222c-0.6-0.2-0.8-0.8-0.6-1.4c0.2-0.6,0.8-0.8,1.4-0.6c0.5,0.2,0.8,0.8,0.6,1.4C726.9,222,726.2,222.2,725.7,222z
			 M737.8,207.3c-0.4-0.1-0.6-0.6-0.5-1c0.1-0.4,0.6-0.6,1-0.5c0.4,0.2,0.6,0.6,0.5,1C738.7,207.3,738.2,207.5,737.8,207.3z
			 M739.4,221.5c-0.6-0.2-0.9-0.9-0.6-1.4c0.2-0.6,0.9-0.9,1.4-0.6c0.6,0.2,0.9,0.9,0.6,1.4C740.6,221.5,739.9,221.7,739.4,221.5z
			 M740.3,215.8c-0.4-0.2-0.6-0.6-0.5-1c0.2-0.4,0.6-0.6,1-0.5c0.4,0.2,0.6,0.6,0.5,1C741.2,215.8,740.7,216,740.3,215.8z
			 M719.7,235.8c-0.3,0.8-1.1,1.2-1.9,0.9c-0.8-0.3-1.2-1.1-0.9-1.9c0.3-0.8,1.1-1.2,1.9-0.9C719.6,234.1,720,235,719.7,235.8z
			 M735.8,231.2c-0.5-0.2-0.7-0.7-0.5-1.2c0.2-0.5,0.7-0.7,1.2-0.5c0.5,0.2,0.7,0.7,0.5,1.2C736.8,231.2,736.3,231.4,735.8,231.2z"/>
		<path fill="none" d="M472.5,269.6c0,0,0.1-1.3,0.1-1.3c-2.3,0.1-5,0.6-8.1,0.5c-2.6-0.1-5.3,0.6-8,0.3c-0.7-0.1-1.4-0.1-2-0.2
			C461,269.9,467.1,270.7,472.5,269.6z"/>
		<path fill="none" d="M748.8,227.5c-4.1,0.9-7.7,2.5-10.8,4.7c-0.5,0.4-1,0.9-1.5,1.3c-0.7,0.6-1.3,1.1-1.9,1.7
			c-3.2,3.5-5.8,7.8-7.4,12.6c-2.3,6.8-2.1,14-0.8,20.9l3.8,0c-0.3-2.3-0.5-4.6-0.3-6.7c0.2-5.5,1.6-11.4,4.2-16.4
			c1.6-3,7.6-10.2,11.7-6.5c2,1.8,2.2,5.4-0.6,9c-1.2,2.1-5.6,7.8-6.8,17.1c-0.2,1.1-0.3,2.3-0.3,3.5l1.9,0
			c0.1-6.2,1.6-10.3,3.2-13.5c0.5-1,1.4-2.2,2.2-3.4c2.5-3.4,5.5-7.7,3.7-11.7c-0.8-1.9-2.3-3.2-4.2-3.7c-2.2-0.6-4.6,0-6.8,1.5
			c-4.3,3-6.3,7.2-8.7,11.3c0.8-2.4,2.3-5.5,3.6-7.8c1.5-2.7,3.6-5,6.1-6.9c3.7-2.9,8.2-4.5,12.9-5c3.1-0.3,5.6,0,7.5,0.6v-3.3
			C755.9,226.6,752.2,226.7,748.8,227.5z"/>
		<path fill="none" d="M539.8,236.7c3.5-6.9,6.4-14.1,8.7-20.5c-9.4,23.3-25.1,40.5-34.6,46.8c-3.2,2.1-6.4,3.9-9.5,5.6l2.9,0
			l1.2-0.7c-0.3,0.2-0.6,0.5-0.9,0.7l2.8,0c0.3-0.2,0.7-0.5,1-0.7l0,0.1c-0.2,0.2-0.4,0.4-0.6,0.6l5.2,0
			C522,263.1,532.8,251.6,539.8,236.7z"/>
		<path fill="none" d="M746.6,226.9c-0.7,0.3-1.3,0.7-2,1.1c1.3-0.5,2.6-1,4-1.3c3.5-0.8,7.2-1,10.9-0.6v-1.2
			C754.3,224.6,749.9,225.6,746.6,226.9z"/>
		<path fill="none" d="M463.2,286c2.2-1.4,4-2.9,5.5-4.5c-7.4,2.2-14,4.6-19.3,8.4C453.7,290,458.6,288.8,463.2,286z"/>
		<path fill="none" d="M306.2,247.9c0.2-0.2,0.4-0.4,0.6-0.6c1.7-1.7,3.4-3.5,5.3-5c3-2.4,6.2-4.6,9.7-6.1l0,0
			c3.8-1.9,7.9-3.3,12.1-4.4c16.4-4,33.3,0,48,5.9c-6.6-3.6-20.9-10-36.8-9.9c-22.1-1.1-41.2,10.3-42.6,11.4c-3.4,2.1-7.3,2.1-8.9,0
			c-1.6-2.1,0.3-5.9,4.2-8.3c1-0.9,10.4-5.2,22.8-7.5c-0.6-0.6-1.1-1.3-1.4-2.2c-0.7-5,5.8-7,10.3-7.3c4.9-0.4,9.6,0.3,14.1,1.3
			c8.9,2.2,16.5,5.6,22.9,8.2c12.8,5.5,19.9,10.6,19.9,10.5c0,0.1-6.8-5.4-19.5-11.3c-6.4-2.9-13.9-6.5-22.9-8.9
			c-4.5-1.1-18.1-1.2-20.1-0.6c0,0-1,0.3-1.5,0.5c-1.9,0.5-12.4-1.2-11.5-0.5l0.5,0.4l-0.3,0.5c0,0-1.7,3-0.4,5.5
			c1.7,3.1,4.2,3.2,4.2,3.2l-0.6,0.4c-0.1,0-13.5,3.3-18.5,6.2c-3.6,2-5.8,5.3-5.8,8.5c0,2.4,1.2,4.3,3.4,5.5
			c2.6,1.4,5.7,0.3,9.2-2.1l0.2,0.1c0,0-2,2.5-2,4.4c0,1,0.6,1.9,1.8,2.7l0.7,0.5l-0.6,0.6c0,0-4.2,4.2-9.7,10.1
			c-1.8,2-7.8,7.9-12.9,8.7l1,0c0,4.9,2.8,11.4,9.3,16.2c0.2-9.4,2.7-17.2,5.5-22.9C298.6,256.6,302.2,252,306.2,247.9z
			 M312.4,217.7c-0.4-1.3,0.4-2.7,1.7-3c1.3-0.4,2.6,0.4,3,1.7c0.4,1.3-0.4,2.6-1.7,3C314.1,219.8,312.8,219,312.4,217.7z
			 M302.8,246.1c-0.2-0.8,0.2-1.7,1.1-2c0.8-0.2,1.7,0.3,2,1.1c0.2,0.8-0.3,1.7-1.1,2C303.9,247.4,303,246.9,302.8,246.1z"/>
		<path fill="none" d="M115.2,262.1c-0.9-1.8,0.2-3.7,0.2-3.7c-1.6,0.3-4.1-0.3-5-2.9c-1.4-4,2-5.8,2-5.8c-2.4-0.4-3.3-2.8-3.3-4.7
			c-1.6,0.5-3.4,0.8-5,1.2c0.1,1.8-0.8,3.5-2.6,4c-2,0.6-4.2-0.6-4.8-2.6c0,0,0-0.1,0-0.1c-7.4,0.9-15.4,0.9-24.1-0.6
			c-20.2-3.5-36.4-14.6-45.6-31.3c-7.7-13.9-9.6-30.3-5.5-45.1l-21.9,0v84.5c3.5,3.3,7.1,6.3,10.7,8.6c3.2,1.9,6.6,3.7,10.1,5.3
			l51.8,0c0.1-0.7,0.4-1.3,0.9-2c0.5-0.7,1.3-1.2,2.2-1.2c1-0.1,2.1,0.4,2.7,1.1c0.5,0.7,0.6,1.4,0.5,2.1l24.3,0
			c3.7-1.5,7.1-3.1,10.3-4.6c-0.7-1.2-0.7-2.3-0.6-3.1c-1,0.1-2.4-0.1-3.7-1.1c-2.1-1.6-2.5-4.2-2.7-5.3c-1.5-0.4-2.4-1.5-2.9-2.2
			c-0.9,0.5-2,0.6-3.2,0.5c-1.9-0.3-3.9-1.3-4.9-2.5c-2.7,0.7-8.5,2.8-8.2,5.8c0.1,1.7,0.9,2.9,2.1,3.3c0.7,0.2,1.4,0.1,2-0.2
			c-1,0-1.9-0.6-2.2-1.6c-0.3-1.2,0.3-2.5,1.6-2.8c0.8-0.2,1.6,0,2.1,0.5c0.5,0.3,0.8,0.6,1,1.1c0.4,1.1,0,2.5-0.6,3.2
			c-1,1.2-2.7,1.6-4.2,1.1c-1.8-0.6-2.9-2.2-3.1-4.5c-0.4-5,9.3-7.3,9.7-7.4l0.5-0.1l0.3,0.4c0.7,1,2.6,2,4.3,2.3
			c1.2,0.2,2.2,0,2.8-0.6l0.7-0.6l0.4,0.9c0,0,0.9,2.1,2.8,2.3l0.6,0.1l0,0.6c0,0,0.1,3.2,2.2,4.8c1.6,1.2,3.6,0.9,3.6,0.9l1-0.2
			l-0.3,1c0,0.1-0.7,1.8,0.7,3.4l0.5,0.7l-0.8,0.4c-2.5,1.2-5.2,2.5-8,3.7l2.5,0c2.9-1.5,5.7-3,8.5-4.7
			C116.5,263.7,115.7,263,115.2,262.1z M107.9,251.2c-0.9,0.3-1.9-0.3-2.2-1.2c-0.3-0.9,0.3-1.9,1.2-2.2c0.9-0.3,1.9,0.3,2.2,1.2
			C109.4,249.9,108.8,250.9,107.9,251.2z"/>
		<path fill="none" d="M436.9,151.4c-0.4,0.1-0.8,0.1-1.2,0.2c1.6,2.5,7.5,9.7,19.7,8c6.4-0.9,9.1-3,10.3-4.8
			c-0.8-0.6-1.6-1.2-2.5-1.7c-0.4-0.2-0.8-0.5-1.2-0.7c-0.3,0.3-0.7,0.4-1.2,0.4c-0.7,0-1.2-0.4-1.6-0.9l-0.3,0.1c0-0.2,0-0.4,0-0.6
			c-0.1-0.2-0.2-0.3-0.2-0.5c-4.4-1.7-8.8-2-12.4-1.5c-1-1.1-2.1-2.2-3.2-3.2C441.9,148.6,439.8,150.6,436.9,151.4z"/>
		<path fill="none" d="M436,147.8c-1.6,0.4-3.1,0.2-4.4-0.5c-0.1,2.2,0.4,4.3,1.8,6.5c3.8,5.8,10.7,10.4,21.2,9.2
			c5.5-0.6,10.4-2.3,14.7-4.8c-0.7-0.9-1.6-1.7-2.5-2.6c-1.4,2.1-4.5,4.3-11.2,5.3c-15.3,2.2-21.6-9.4-21.6-9.5l-0.5-1l1.1,0
			c0.7,0,1.4-0.1,2-0.3c2.6-0.7,4.5-2.6,5.4-5c-0.6-0.6-1.2-1.1-1.8-1.6C439.7,145.4,438.2,147.2,436,147.8z"/>
		<path fill="none" d="M304.1,209.7l1-0.2c0.7-0.4,1.5-0.6,2.5-0.9c0,0,0-0.1,0-0.2c-11.4,1.6-23.9,4.8-36,10.9
			c-18.9,9.6-37.6,26.7-49.8,45.8c-0.7,1.1-1.4,2.3-2.1,3.5l7.4,0c3-5.5,7-11.5,12.3-18C265,219.3,303.7,209.8,304.1,209.7z"/>
		<path fill="none" d="M283.4,208.6c12.5-3.3,24.6-4.4,35.6-4.4c-20.1-0.8-42.6,2.1-63.2,11c-28.5,11.1-51.1,32.3-64.3,53.3l3.7,0
			c18.8-28.4,44.2-42.2,44.5-42.4l0.1,0.2c-19,15.2-30.1,30.4-36.6,42.2l3.5,0c3.3-6,7-11.7,11.3-16.9
			C235.5,229.9,257.6,215.5,283.4,208.6z"/>
		<path fill="none" d="M270.9,218.1c18.4-9.3,38-12,52.9-12.4c-12-0.4-25.8,0.5-40,4.3c-25.6,6.7-47.4,21.1-64.9,42.5
			c-4,5-7.6,10.4-10.8,16l9.9,0c0.9-1.5,1.7-2.9,2.6-4.2C232.9,245,251.8,227.7,270.9,218.1z"/>
		<path fill="none" d="M527.8,173.6c-0.3,0.1-0.5,0.1-0.8,0.1c0,0.4,0.1,0.7,0.3,1.1c0.5,1.1,2.3,3.3,6.1,2.6
			c3.7-0.7,6.1-3.3,6.9-6.9l-10.7,0C530,171.9,529.2,173.2,527.8,173.6z"/>
		<path fill="none" d="M375.8,145.7c1.3-0.4,2.4,0,3.3,0.4c-1-4.1-3.1-14.6-2.6-26.7c-5,0.2-10,0.8-14.8,1.8
			c2.7,8.6,6.5,17.1,11.7,26.4C373.7,146.9,374.5,146.1,375.8,145.7z M370.4,133.8c-0.9,0.3-1.9-0.3-2.2-1.2
			c-0.3-0.9,0.3-1.9,1.2-2.2c0.9-0.3,1.9,0.3,2.2,1.2C371.9,132.6,371.3,133.5,370.4,133.8z M371.1,125.9c-0.7,0.2-1.5-0.2-1.6-0.9
			c-0.2-0.7,0.2-1.5,0.9-1.7c0.7-0.2,1.4,0.2,1.6,0.9C372.2,125,371.8,125.7,371.1,125.9z"/>
		<path fill="none" d="M415.4,200.4c0.2-1.1,1-2,2.2-2.4c1.7-0.5,3.4,0.5,3.9,2.1c0.1,0.4,0.1,0.7,0.1,1.1c0.5-0.4,1.1-0.7,1.8-0.9
			c2.2-0.6,4.4,0.1,5.8,1.7c0-1.3,0.9-2.5,2.3-2.9c1.7-0.5,3.4,0.5,3.9,2.2c0.1,0.4,0.1,0.7,0.1,1.1c2.2-1.5,4.5-2.1,6.9-1.8
			c4,0.5,7.9,3.6,10.8,8.5c7.8,13.1,19.1,28.1,37,29c-0.8-0.9-1.6-2.1-2-3.6c-0.8-2.9,0-6.7,4.6-8.8c-1-2-1.1-3.7-0.4-5.1
			c0.7-1.4,2.2-2.1,3.2-2.4c-2.7-4.1-13.6-22-7.3-41.9c0.6-2,1.5-3.9,2.4-5.7l-16.4,0c0-3.2-1.1-7.3-4-11.2
			c-4.4,2.7-9.6,4.5-15.4,5.1c-9.6,1.1-19.3-3.1-24.2-10.4c-3.1-4.6-3.9-10.4-1.8-14.4c0.5-1.3,1.6-2.4,2.9-3.1
			c-0.7-0.5-1.4-1-2.1-1.4c-1.1,0.8-2.1,1.9-3,3.4c-0.6,1-5.5,10.4,5.9,21.8c8.3,8.3,8.7,15.5,8.4,18.2c-0.2,2.5-1.2,4.6-2.7,5.6
			c-1.7,1.2-3.4,1.6-4.7,1.1c-0.7-0.2-1.6-0.9-2.1-2.4c-0.4-1.3-0.1-2.6,0.8-3.6c0,0,0.1,0,0.1-0.1c0.2-0.4,0.6-0.8,1.1-0.9
			c0.3-0.1,0.5,0,0.8,0.1c0.2,0,0.4-0.1,0.6-0.1l0,0.2c0.4,0.2,0.7,0.5,0.8,1c0.3,0.9-0.3,1.9-1.2,2.2c-0.5,0.1-1,0-1.4-0.2
			c-0.1,0.4-0.3,0.7-0.2,1c0.2,0.8,0.6,1.3,1.2,1.5c0.8,0.3,2.1-0.1,3.5-1c1.1-0.8,1.9-2.5,2.1-4.6c0.5-5.2-2.5-11.6-8-17
			c-12.2-12.1-6.8-22.3-6.1-23.4c0.9-1.5,1.9-2.7,3-3.6c-9.2-6.1-19.4-10.5-30.2-12.9c-1.6,5.2-2.7,11.2-2.9,18.2
			C394.7,161.8,404.3,183.2,415.4,200.4z M483.5,227.4c0.3,1-0.3,1.9-1.2,2.2c-0.9,0.3-1.9-0.3-2.2-1.2c-0.3-0.9,0.3-1.9,1.2-2.2
			C482.3,225.9,483.3,226.5,483.5,227.4z M480.7,203.6c0.7-0.2,1.4,0.2,1.6,0.9c0.2,0.7-0.2,1.4-0.9,1.6c-0.7,0.2-1.4-0.2-1.6-0.9
			C479.5,204.5,480,203.8,480.7,203.6z M452,202.7c2.2,2.4,4.2,5.4,6.1,8.4c3.2,4.9,6.3,9.5,9.2,9.8c2.6,0.2,4.4-1.8,5-3.7
			c0.2-0.6,0.2-1.3,0.1-1.9c-0.2,0.3-0.5,0.6-0.9,0.7c-0.9,0.3-1.9-0.3-2.2-1.2c-0.3-0.9,0.3-1.9,1.2-2.2c0.5-0.2,1.1,0,1.5,0.4
			l0.1-0.3c1.5,0.8,2.1,2.7,1.5,4.8c-0.7,2.4-3,4.9-6.4,4.7c-3.6-0.2-6.9-5.2-10.3-10.4c-1.9-2.9-3.9-5.9-6-8.2
			c-6-6.5-12.9-4.2-13.2-4.2l-0.6,0.2l-0.3-0.6c0,0-0.9-1.9-2.8-2.3c-3-0.5-5.4,1.5-5.4,1.6l-0.4,0.4l-0.4-0.3
			c-1.6-1.1-4.1-0.7-4.1-0.7l-0.4,0.1l-0.2-0.4c-0.3-0.4-1.1-1.6-1.9-2.1c-1.2-0.7-2.2-0.9-3.1-0.6c-1.3,0.5-1.9,2-1.9,2l-0.5,1.4
			l-0.7-1.3c-1.4-2.4-7.6-14.9-9-19.8c-0.9-3-0.1-6.4,2-8.3c1.5-1.4,3.1-1.8,5.1-1l0,0.1c0.6,0.2,1.1,0.7,1.3,1.3
			c0.3,1.2-0.3,2.4-1.5,2.7c-1.1,0.3-2.4-0.3-2.7-1.5c-0.1-0.5,0-1,0.2-1.4c-0.6,0.2-1.1,0.5-1.4,0.8c-1.6,1.5-2.3,4.4-1.6,6.9
			c1.2,4,6.2,14.4,8.3,18.3c0.4-0.6,1.1-1.3,2.1-1.7c1.3-0.5,2.7-0.2,4.3,0.8c1,0.6,1.8,1.7,2.1,2.2c0.8-0.1,2.6-0.1,4.2,0.8
			c0.8-0.6,3.2-2.2,6.3-1.6c1.9,0.4,3.1,1.8,3.5,2.6C439.7,197.6,446.3,196.6,452,202.7z M425.7,187c2-0.6,4.2,0.6,4.8,2.6
			c0.6,2-0.6,4.2-2.6,4.8c-2,0.6-4.2-0.6-4.8-2.6C422.5,189.7,423.7,187.6,425.7,187z M404.2,125.7c2.1-0.2,4.2,1.1,5.1,3.2
			c0.5,1.3,0.2,2.5-0.4,3.6c-0.1,0.6-0.4,1-0.9,1.3c0,0,0,0.1-0.1,0.1l0,0c-0.1,0.1-0.2,0.2-0.4,0.3c-1.2,0.3-2.4-0.3-2.7-1.5
			c-0.3-1.2,0.3-2.4,1.5-2.7c0.7-0.2,1.4,0.1,1.9,0.5c0-0.4-0.1-0.8-0.2-1.1c-0.5-1.3-2-2.5-3.6-2.3c-2.4,0.3-4.3,3.4-5.1,8.6
			c-2.1,13.6,2.5,27.5,4,31.6c1.9-2.9,4.5-4.5,7.5-4.3c3.1,0.2,6,2.3,6.9,5.1c0.9,2.6,0,5.4-2.5,7.6c-1.8,1.6-4,0.8-5.3,0
			c0.7,3.9,4.2,10.2,5.4,12.2c0.6-0.5,1.3-0.7,1.9-0.7c0.7,0.1,1.3,0.5,1.8,0.9c0.4-1.3,1.2-2.8,2.5-4c1.6-1.3,3.5-1.8,5.5-1.5
			c7,1.1,7.8,6.4,7.9,8.6c1.1-0.3,2.1-0.4,3,0c1.4,0.6,2.3,1.8,2.8,2.7c4.8-3.8,4-8.7,3.1-13.4c-0.4-1.8-0.7-3.5-0.7-5.1
			c0-3,1-5.4,2.7-6.3c1.2-0.7,2.6-0.5,3.9,0.3l-0.1,0.2c0.4,0.3,0.8,0.7,0.9,1.2c0.3,1.2-0.3,2.4-1.5,2.7c-1.2,0.3-2.4-0.3-2.7-1.5
			c-0.2-0.6-0.1-1.2,0.2-1.7c0,0-0.1,0-0.1,0c-1.2,0.7-2,2.7-2,5.1c0,1.5,0.3,3.1,0.7,4.8c1,5.1,2.2,11-4.2,15.4l-0.7,0.5l-0.3-0.8
			c0,0-0.8-2.1-2.4-2.8c-0.9-0.3-1.8-0.3-2.9,0.3l-1.2,0.6l0.2-1.3c0-0.3,0.7-6.9-6.7-8.1c-1.6-0.3-3.1,0.2-4.4,1.2
			c-1.5,1.2-2.4,3.2-2.4,4.3l-0.1,2.5l-1.2-2.1c-0.2-0.3-0.9-1.2-1.6-1.3c-0.5,0-0.9,0.2-1.4,0.8l-0.6,0.7l-0.5-0.8
			c-0.3-0.4-6.3-10.4-6.1-15l0.1-1.5l1.1,1c0,0,2.9,2.5,4.8,0.9c2.1-1.9,2.8-4,2.1-6.1c-0.8-2.3-3.1-4-5.7-4.2
			c-1.7-0.1-4.7,0.3-6.9,4.7l-0.7,1.4l-0.6-1.4c-0.1-0.2-7.1-17.3-4.5-33.6C399.1,127.4,402.3,125.9,404.2,125.7z"/>
		<path fill="none" d="M425.9,209.1c1.9-0.5,2.9-2.5,2.4-4.3c-0.5-1.8-2.5-2.9-4.3-2.4c-1.8,0.5-2.9,2.5-2.4,4.3
			C422.1,208.6,424,209.6,425.9,209.1z M424.3,203.7c1.1-0.3,2.3,0.3,2.6,1.4c0.3,1.1-0.3,2.3-1.4,2.6c-1.1,0.3-2.3-0.3-2.6-1.4
			C422.6,205.2,423.2,204,424.3,203.7z"/>
		<path fill="none" d="M229,234.3c-8.7,6.6-21.4,18-32.3,34.3l4.8,0C206.8,258.9,215.3,246.8,229,234.3z"/>
		<path fill="none" d="M141.7,247.5c-8.6,7.6-18.6,15.2-29.7,21.2l7,0C127,262.5,134.6,255.1,141.7,247.5z"/>
		<path fill="none" d="M167.7,268.6l1.6,0c3.2-4.4,6.8-8.9,10.9-13.5C176.1,259.3,171.9,263.9,167.7,268.6z"/>
		<path fill="none" d="M236.5,211.8c0.9-0.4,1.8-1,2.8-1.4c0.3-0.2,0.6-0.4,1-0.5c8.6-3.7,16.7-6.3,24.5-8.1
			c1.1-0.3,2.3-0.5,3.4-0.7c2.2-0.5,4.4-0.9,6.5-1.2c28.2-4.8,55.9-1.3,75.7,5.8c21.9,7.5,38.6,20.4,38.8,20.5c0,0,9.5,8,25.4,18.2
			c-4.7-3.6-9.4-7.5-14.2-11.4c-3.7-3.1-7.5-6.1-11.3-9.1c-2.2-1.7-4.7-3.5-7.3-5.4c-4.2-3.1-9-6.5-14.2-9.9
			c-6.3-3.8-12.8-7.2-19.8-9.9c-30.8-11.6-62.3-12.7-93.6-3.3c-28.1,8.4-55.3,25.4-78.9,49c-7.7,7.8-15.1,16-22.2,24.3l12.6,0
			C188.9,242,212.2,223.3,236.5,211.8z"/>
		<path fill="none" d="M253.9,194c30.9-9.3,61.9-8.4,92.2,2.5c-5.5-2.6-11.2-4.8-17.2-6.6c-20.8-6.8-43.5-6.9-59.9-4.6
			c-16.3,3.1-27.7,8.2-29.6,8.7c-7.9,2.7-15,2.4-17.1-1.3c-2.2-3.8,3.4-10.5,12-13.4c2.2-0.6,14.4-5.1,33.2-7.1
			c18.7-1.1,42.5,1.2,64.1,10.3c21.6,8.7,39.5,22.9,51.9,33.9c3.6,3.2,6.8,6.1,9.6,8.6c12.5,10,24.2,21.4,38.2,29.3
			c3.9,2.2,8.1,4.1,12.4,5.6c4.3,1.4,8.8,2.1,13.3,2.7c-23.7-7-45.1-23.7-62.6-41c-10.7-10.5-22.6-19.5-34.7-28.4
			c-22.7-14.7-47.6-26.2-72.3-28.8c-1.6-0.2-3.2-0.2-4.8-0.3c-0.9,2.2-1.3,4.4-1.3,6.3l-45,0c-6.3,2.3-12.6,5.1-18.7,8.6
			c-22,12.4-40.6,31.5-54.4,46.6l-7.9,8.9c-10.3,11.6-21.4,24.2-33.9,34.1l21.5,0c3.3-3.5,6.5-7,9.8-10.5c7.1-7.7,13.8-15,20.6-21.7
			c17.1-17,42.2-30.9,50.7-35.3c-2.9-0.4-6.8-1.8-8.5-7.1c-1.2-3.9,0.2-7.5,2.7-10.3c-9.1,5.6-21.5,14.6-23.5,18.1
			c-0.9,1.7-0.9,3.1,0,4.1c0.9,1,2.6,1.3,3.9,0.7c1-0.5,1.6-1.2,1.6-2.1c0-0.1,0-0.2,0-0.3c-0.3,0.4-0.7,0.7-1.2,0.8
			c-1.1,0.3-2.3-0.3-2.6-1.4c-0.3-1.1,0.3-2.3,1.4-2.6c0.5-0.2,1.1-0.1,1.6,0.2l0-0.1c1.3,0.6,2.2,2,2.2,3.4c0,1.4-0.9,2.7-2.4,3.4
			c-1.9,0.8-4.2,0.4-5.5-1c-1.3-1.4-1.4-3.5-0.2-5.7c2.7-4.9,21.4-17.6,29.5-21.8l2-1.2c-0.1,0.1-10.3,8.4-8.2,15.2
			c2.3,7.6,11.1,6.9,14.1,6l-3.3,1.4c-0.3,0.2-32.6,16.1-53.2,36.6c-6.8,6.7-13.5,14-20.6,21.7c-2.9,3.2-5.9,6.4-8.9,9.6l6.6,0
			c7.4-8.5,15-17.2,23.1-25.2C198.2,219.6,225.7,202.5,253.9,194z"/>
		<path fill="none" d="M694.3,248.8c0.5,1.1,1.1,1.8,1.8,2.7c-5.2-11.6-8.7-23.7-8.9-35.4c-0.3-15.5,3.7-29.2,12.4-41.9
			c0.9-1.3,1.8-2.6,2.8-3.8l-4.8,0c-2.6,4.3-5,8.9-7,13.9C681.6,206.1,682.9,227.8,694.3,248.8z"/>
		<path fill="none" d="M671.3,207.3c-0.7,14.2,5.3,29.1,11.2,41.8c3.3,7.2,7.7,13.7,12.9,19.6l0.7,0l0,0
			c-8.5-12-10.1-16.1-10.7-17.5c-0.6-2,0-4.2,2.2-4.9c1.8-0.6,3.3-0.3,4.8,0.7c-5.2-10.2-8-20.6-8.5-31.1c-0.3,0-1.7-0.2-2.1-1.2
			c-0.6-1.4,0.4-3.5,2.2-3.4c-1.3,0.1-2.8,0.2-3.7-2.3c-0.6-1.8,0.5-3.5,2.1-4.3c0,0,0,0,0,0c-0.3-1.3,0.9-2.8,2.3-2.8
			c0.9-6,2.5-12.1,5-18.2c2-4.8,4.3-9.3,6.9-13.5l-3.1,0c-8.5,14.7-9.7,29.8-9.8,30l0,0.3l-0.3,0.1c-2.1,0.7-2,3.1-2,3.2l0,0.3
			l-0.3,0.1c-0.1,0-2.4,0.8-2.7,3.6c-0.2,2.6,1.9,4,2,4.1l0.3,0.2l-0.1,0.3c-1.1,3,1.5,4,1.6,4.1l0.3,0.1l0,0.3
			c-0.3,11.7,6.7,26.4,6.7,26.5l0.6,1.2l-1.2-0.6c-1-0.6-2-0.6-2.8-0.2c-1,0.5-1.7,1.6-1.9,3.1l-0.2,1.3l-0.6-1.1
			c-0.1-0.2-2.1-3.9-5.6-13.7c-5.2-14.8-5.9-29.1-2-42.4c2-6.8,5.2-12.5,9.2-19.2l0.4-0.6c0.2-0.3,0.3-0.6,0.5-0.8l-2.2,0
			c-1.1,1.8-2.3,3.8-3.5,5.9C679.1,177.9,671.4,188.7,671.3,207.3z"/>
		<path fill="none" d="M337.7,175.9c-1.4-2.5-1.8-5.1-0.6-7.9c1.4-3.5,5.1-4.2,8.4-2.9c2.2,1,8.6,4.3,27.3,19.9
			c0.7,0.6,11.3,10.1,11.1,10.5c0.4-0.8-9.9-10.5-10.6-11.2c-9.3-9.5-19.4-17.8-31.1-24.4c-8.3-4.7-17.3-9.5-26.6-13.6
			c-0.7,0.7-1.4,1.4-2,2.1c1.2,0.5,2.4,0.9,3.6,1.5c15.7,7,21.6,10.9,21.8,11l1.8,1.2l-2.1,0.1c-2.4,0.1-4.4,1.1-5.3,2.7
			c-0.8,1.3-0.8,2.9,0,4.6l0.9,2l-1.9-1.1c-0.2-0.1-23.4-13.6-42.7-14.7l-0.5,0l-0.1-0.2c-0.5,0.5-1.1,0.9-1.5,1.4
			c0.1,0.4,0.1,0.8,0.1,1C304.9,160,321.6,166,337.7,175.9z"/>
		<path fill="none" d="M638.9,180.8c3.1,13.6,7.2,25.3,9.9,32.4c-3.4-12.5-4.7-21.8-1.6-26.5c1.4-2.2,3.1-3.4,4.8-3.6
			c1.7-0.2,3,0.7,3.6,1.2c0.1-0.2,0.2-0.5,0.4-0.8c0.5-0.9,1.2-1.5,2.1-1.7c1.1-0.3,2.2,0.1,2.8,0.4c1.2-4.2,2.9-8.1,5.1-11.9
			l-27.8,0C637.7,173.2,637.9,176.6,638.9,180.8z"/>
		<path fill="none" d="M685.6,172.3c-4,6.7-7.2,12.3-9.1,19c-3.8,13.2-3.1,27.3,2,41.9c2.4,6.9,4.2,10.8,5,12.5
			c0.4-1.2,1.1-2.1,2.1-2.6c0.8-0.4,1.7-0.5,2.5-0.2c-1.5-3.5-6.5-15.5-6.4-25.6c-0.8-0.4-2.9-1.8-1.9-4.7c-0.7-0.5-2.4-2.1-2.2-4.7
			c0.3-2.8,2.2-3.9,3-4.2c0-1.1,0.5-2.9,2.3-3.7c0.2-2.1,1.8-16,9.6-29.7l-5.8,0c-0.3,0.5-0.5,0.9-0.8,1.3L685.6,172.3z"/>
		<path fill="none" d="M275.1,266.5c-1.2-1.8-1.5-3.8-0.7-5.6c0.7-1.7,2.4-3,4.3-3.2l0,0.1c1.1,0,2.1,0.7,2.4,1.8
			c0.4,1.4-0.4,2.8-1.8,3.2c-1.4,0.4-2.8-0.4-3.2-1.8c0-0.1,0-0.2-0.1-0.3c-0.2,0.2-0.3,0.5-0.4,0.7c-0.6,1.3-0.4,2.8,0.6,4.2
			c0.6,0.9,1.5,1.4,2.6,1.5c3.7,0.3,9.3-4.2,13.3-8.4c4.4-4.7,7.9-8.3,9.2-9.6c-1.1-1-1.7-2.1-1.8-3.3c0-0.6,0.1-1.1,0.3-1.6
			c-2.5,1.3-4.8,1.6-7.1,0.4c-2.6-1.4-4.1-3.9-4.1-6.7c0-3.7,2.5-7.5,6.5-9.7c1.4-0.8,3.3-1.6,5.5-2.3c-1.3-1.6-1.3-5.3,0.4-7.4
			c1.7-2.2,3.3-3.1,3.9-3.4c-2.8,0.6-5.9,1.6-9.1,2.8c-4.1,1.9-6,3.9-5.3,5.9l0.3,0.8l-0.8,0.1c-0.1,0-2.2,0.4-2.4,2.8
			c-0.2,2.3,2.1,4.2,2.4,4.2l-0.5,0c-0.1,0-11.2-1.6-14.6,3.5c-1.1,1.7-1.3,3.2-0.7,4.5c0.6,1.3,2,1.9,3,2c1,0.1,1.8-0.5,2.3-1.2
			c-0.7-0.1-1.4-0.6-1.6-1.4c-0.3-1,0.3-2.1,1.3-2.4c1-0.3,2.1,0.3,2.4,1.3c0.1,0.4,0.1,0.8,0,1.1c0,0.4-0.2,0.9-0.4,1.4
			c-0.6,1.2-2.1,2.7-4,2.6c-1.7-0.1-3.4-1.2-4.2-2.7c-0.8-1.7-0.6-3.8,0.8-5.9c2.7-4.2,9.4-4.6,13.2-4.4c-0.5-0.7-0.8-1.5-0.7-2.7
			c0.2-2.3,1.7-3.4,2.9-3.8c-0.2-1.2,0.3-2.3,1.2-3.4c-6.3,2.8-12.2,5.9-15.1,7.8c-11.8,7.6-19.5,14.7-21.2,16.3
			c0.6,1.5,1.9,6.5-3.2,10.6c-3.5,2.9-7.1,1.3-8.5,0.4c-3.1,4.7-5.7,9-7.7,13.1l43.5,0C276.8,268.3,275.8,267.6,275.1,266.5z
			 M294.1,220.4c1.6-0.5,3.3,0.5,3.7,2.1c0.5,1.6-0.5,3.3-2.1,3.7c-1.6,0.5-3.3-0.5-3.7-2.1C291.6,222.5,292.5,220.8,294.1,220.4z
			 M288.7,228.4c-0.3-0.9,0.3-1.9,1.2-2.2c0.9-0.3,1.9,0.3,2.2,1.2c0.3,0.9-0.3,1.9-1.2,2.2C289.9,229.8,288.9,229.3,288.7,228.4z
			 M287.1,248.6c1-0.3,2,0.3,2.3,1.2c0.3,1-0.3,2-1.2,2.3c-1,0.3-2-0.3-2.3-1.2C285.6,249.9,286.1,248.9,287.1,248.6z M278.2,249.7
			c0.7-0.2,1.4,0.2,1.7,0.9c0.2,0.7-0.2,1.5-0.9,1.7c-0.7,0.2-1.5-0.2-1.6-0.9C277.1,250.6,277.5,249.9,278.2,249.7z M265.3,247
			c-0.7,0.2-1.4-0.2-1.6-0.9c-0.2-0.7,0.2-1.5,0.9-1.6c0.7-0.2,1.4,0.2,1.6,0.9C266.4,246,266,246.8,265.3,247z"/>
		<path fill="none" d="M344.6,182.7c-1.5-1.3-2.4-2.4-4.3-3.4c-17.6-11.5-35.9-18.2-54.7-20.3c-1,1.3-1.8,2.6-2.5,3.9
			c1.4,0.1,2.8,0.1,4.3,0.3C306.8,165.1,326.2,172.5,344.6,182.7z"/>
		<path fill="none" d="M332.2,164.1c0.9-1.5,2.5-2.6,4.5-3c-2.7-1.6-8.9-5-20-9.9c-1.4-0.6-2.8-1.1-4.1-1.7
			c-0.2,0.2-0.4,0.4-0.5,0.6c-5.2-1.9-13.1-1.4-19.8,3c-0.7,0.4-1.2,0.9-1.8,1.3c16.6,1.2,35.6,10.9,41.1,13.9
			C331.3,166.8,331.5,165.3,332.2,164.1z"/>
		<path fill="none" d="M356.1,142.3c-0.7-1.2-1.5-2.3-2.3-3.5c-2.5-4.2-4.8-8.6-6.9-13c-1.8,0.7-3.6,1.5-5.4,2.4
			C346.7,132.7,351.6,137.4,356.1,142.3z"/>
		<path fill="none" d="M688,216.1c0.3,15,6,30.6,13.8,45c1.5,2.5,3.1,5.1,4.7,7.5l2.5,0c-4.6-7-9.3-15.5-12.3-25
			c-4.4-13.4-4.6-28-3-39.2c2.1-11.3,5.4-18.4,5.9-19.7c2.2-5,6.5-8.1,8.7-6.6c2.1,1.5,1.9,5.7-0.1,10.4c-0.4,1.1-4.1,7.8-6.7,17.5
			c-2.2,9.8-3.3,23.5-0.2,36.3c0.8,3.7,1.9,7.3,3.2,10.7c-5.1-18.8-4.1-37.6,3.1-55.8c3.7-9.4,9.1-18.5,15.8-27l-2.7,0
			c-4.7,6.3-7.7,11.3-7.7,11.4l-1,1.9c0.7-1.8,1.5-7-2.9-8.8c-4-1.6-9.5,4.2-9.6,4.2l0.8-1.1c1.2-1.9,3.3-4.8,5.6-7.6l-2.3,0
			c-1.1,1.4-2.2,2.8-3.2,4.3C691.7,187.2,687.7,200.8,688,216.1z"/>
		<path fill="none" d="M241.9,253.5l0.6,0.5c0.2,0.1,3.8,3,7.4,0c5-4.1,2.9-8.9,2.7-9.4l-0.3-0.4l0.4-0.4c0.1-0.1,8.3-8.1,21.7-16.7
			c4-2.6,13.2-7.3,22.1-10.5c0.2-0.1,0.3-0.1,0.5-0.2l0,0c2.3-0.8,4.6-1.6,6.7-2.1c-0.1-0.2-0.2-0.3-0.2-0.6c-0.2-1-3.1,0.9-2.9,0.2
			c-7.7,2.2-37.8,10.3-60.1,37.5c-5,6.1-8.9,11.8-11.8,17.1l4.4,0c2.1-4.5,5-9.3,8.5-14.5L241.9,253.5z M249.7,246.1
			c0.3,0.4,0.5,0.8,0.7,1.3c0.6,2.1-0.6,4.3-2.7,4.9c-1.4,0.4-2.3,0.3-3.3-0.7C245.9,249.5,247.7,247.8,249.7,246.1z"/>
		<path fill="none" d="M378,178.9c13.7,15.7,27,31.7,40,44.9c13.2,13.3,28.2,23,42.2,28.1c11.8,4.2,22.3,5.4,30.6,5.3
			c8.7-0.9,17.6-3.5,25.7-8c1.6-0.9,3.2-2,4.7-3.2c-7.8,4.6-15.8,6.8-19,7.6c-17.8,4.2-35.7,0.7-53.5-10.2
			c-14.2-8.8-24.4-20-29.2-25.4l-1.2-1.3c-18-19.5-44-56.4-33.3-97.1c-1.8-0.1-3.7-0.2-5.5-0.2c-0.6,0-1.1,0-1.7,0
			c-0.8,15.2,2.5,28,2.9,29.5c0.1,0.1,0.2,0.2,0.2,0.2l-0.1-0.1c0,0,0,0,0-0.1c-0.5-0.7-2.2-2.7-4.5-1.9c-1.7,0.6-2,2.3-2,2.3
			l-0.3,2.1l-1-1.8c-5.6-9.9-9.7-19-12.6-28.1c-0.6,0.1-1.2,0.3-1.8,0.4c1.3,4.1,2.8,8.1,4.6,12.1c15.2,35.5,39.6,66.3,39,66.5
			c0.5-0.4-21.4-21.4-40.9-50.4c-6.2-7.5-13.1-14.7-21-21.5c-2.3,1.2-4.6,2.4-6.8,3.8C349.8,146.6,363.3,162,378,178.9z M378,153
			c-1.1,0.3-2.3-0.3-2.6-1.4c-0.3-1.1,0.3-2.3,1.4-2.6c1.1-0.3,2.3,0.3,2.6,1.4C379.7,151.5,379.1,152.6,378,153z"/>
		<path fill="none" d="M675.7,259.9c3.7,2.9,7.1,5.9,10.2,8.7l3.5,0c-11.1-11.5-21.1-22.1-29.4-36.2c-10-16.9-12.9-38.1-11.9-40.1
			c0.4-4.1,3.2-6.8,5.6-6.2c2.6,0.6,4.1,3.7,3.7,7c-0.3,3.2-1.5,20,6.7,37.2c6.3,14.9,17.1,27.4,19.8,30.6
			c-12.8-16.4-23-35.7-23.2-53.4c-1.2-19.6,6-33.5,8.2-37.1l-2,0c-2.4,4.1-4.1,8.1-5.4,12.6l-0.2,0.5l-0.5-0.3c0,0-1.3-0.8-2.6-0.5
			c-0.6,0.2-1.2,0.6-1.6,1.3c-0.4,0.7-0.6,1.2-0.6,1.2l-0.2,0.6l-0.5-0.5c0,0-1.5-1.5-3.4-1.4c-1.5,0.1-2.9,1.2-4.2,3.2
			c-3.7,5.7-0.3,19.5,4,33.5l2.4,7l-3.2-6.7c-0.1-0.2-7.8-17.3-13-39.9c-1-4.2-1.2-7.8-0.7-10.6l-4.9,0c3.9,15.6,8.6,32,15.5,47.7
			C655.6,235.6,664.7,249.3,675.7,259.9z M657.5,185.2c0.3-0.9,1.3-1.4,2.3-1c0.9,0.3,1.3,1.3,1,2.2c-0.3,0.9-1.4,1.4-2.3,1
			C657.7,187.1,657.2,186.1,657.5,185.2z"/>
		<path fill="none" d="M328.3,135.9c-0.6,0.4-1.2,0.8-1.7,1.2c12.3,7.6,24.1,16.9,35,26.9C357.8,160.1,345.1,147.2,328.3,135.9z"/>
		<path fill="none" d="M561.9,185.3c-0.4,1.6-0.5,3.1-0.7,4.7c-0.3,1.9-0.4,3.8-0.3,5.7c0,2.6,0.4,5.2,1,7.7c0.2,1,0.8,1.9,0.7,3
			c0,0.8-0.5,1.7-1.1,2.2c-0.3,0.2-0.7,0.4-1.1,0.3c-1.7-0.2-2.5-2.3-2.7-3.7c-0.3-2.3-0.4-4.5-0.2-6.8c0.1-1.4,0.2-2.7,0.4-4.1
			c-1.1,5-2.1,10.8-2.1,16.9c-0.6,9.4,0.6,19,3.1,28c0.6,2,1.7,3.8,1.4,5.9c-0.3,1.7-1.3,3.3-2.9,4c-2.3,1.1-5.4-0.6-6.4-3.8
			c-0.5-0.8-1.4-6.2-1.7-13.4c-0.6,2.5-1.3,5-2.1,7.6c-2.9,10.9-8.2,21.1-13.2,29l8,0c-0.4-1.3-0.3-2.9,0.5-4.3
			c-3-1.3-1.1-4.4-1.1-4.4c1.2-2.1,3.6-6.9,4-7.8c0-0.1,0-0.2,0-0.2s0,0.1,0,0.2c0-0.1,0-0.1,0-0.1s0,0.1,0,0.2
			c0,1.7,0.2,11.3,1.8,16.4l2,0c-0.5-1.5-0.9-3.2-1.2-4.8c-2.4-10.7-0.1-20.9,0.4-22.7c0.1-0.6,0.2-1,0.2-1c0-0.1-0.5,9.1,3,17.3
			c0.8,1.9,1.7,3.7,3,5.3c1.8,2.2,3.9,4.1,6.4,5.4c0.3,0.2,0.7,0.3,1.1,0.5l4,0c-1.2-0.9-2.9-1.7-5-2.5c-3.2-1.2-6.2-4.7-6.5-7.9
			c-0.2-2.2,0.8-4.2,2.9-5.4c1.6-1,3.3-1,4.8-0.2c1.6,0.9,2.7,2.6,2.6,4.1c0,1-0.5,1.8-1.3,2.2l0-0.1c-0.1,0.1-0.3,0.2-0.4,0.2
			c-0.9,0.3-1.9-0.3-2.1-1.2c-0.3-0.9,0.3-1.9,1.2-2.2c0.4-0.1,0.8-0.1,1.2,0.1c-0.3-0.8-0.9-1.5-1.7-2c-0.8-0.4-2-0.8-3.4,0.1
			c-1.6,1-2.4,2.4-2.2,4.1c0.3,2.6,2.8,5.7,5.6,6.7c2.6,0.9,5.1,2,6.6,3.8l77.3,0.1c7.2-1.7,14.5-1,19.9,0l7.3,0c0,0,0-0.1,0-0.1
			c0.3-0.8,0.8-1.2,1.3-1.4c-11.5-7.7-21.3-11.5-33.7-13.1c-4.2-0.6-8.7-0.1-13,0.3c-5.4,0.5-10.6,1.1-14.1-0.7
			c-3.2-1.6-5.4-5.5-4.9-9.1c0.3-2.3,2.1-6.5,10.2-7.9c8.2-1.4,16.7-0.1,24.1,2.1c-0.1-0.1-0.1-0.3-0.1-0.5c0.2-1.5,1.7-2.6,3.2-2.3
			c0.8,0.1,1.4,0.5,1.8,1.1c0-0.1,0-0.1,0-0.2c0.7-1.8,2.6-2.6,4.4-2c0.2,0.1,0.4,0.2,0.5,0.3c-0.5-0.8-1-1.5-1.4-2.3l-0.4-0.6
			c-7.1-11.6-12.8-24.4-16.9-37.9c-1-3.4-1.9-6.9-2.8-10.3c-1.2-4.6-2.4-9.2-3.9-13.7l-14.3,0c0.8,1,1.5,2,2.2,3.1
			c6,9.7,3.8,18.6,1.9,23.1c-2.8,6.7-8.3,12-14,13.3c-8.6,2.1-15-1.6-18.2-5.7c-3.2-4.1-3.8-9.2-1.6-13.4c3.1-5.8,7.7-6.4,10.8-5.2
			c2.3,0.9,3.7,2.8,3.5,4.7c0,0.2,0.1,0.3,0.1,0.5c-0.2,1.6-1.6,2.8-3,2.6c-1.4-0.2-2.3-1.7-2.1-3.4c0.2-1.3,1.1-2,2.1-2.3
			c-0.4-0.3-0.6-0.6-1.1-0.8c-2.5-1-6.4-0.4-9,4.5c-1.9,3.6-1.4,8.2,1.4,11.8c2.9,3.7,8.8,7.1,16.8,5.2c5.3-1.2,10.4-6.1,13-12.5
			c1.8-4.2,3.9-12.7-1.8-21.8c-0.9-1.4-1.8-2.7-2.9-3.8l-23.1,0c1.8,2.5,2.2,6.1-0.7,9.3c-1.8,2-4.4,2.8-6.6,2.1
			c-1.5-0.5-2.7-1.8-2.9-3.4c-0.3-1.2,0.4-2.4,1.6-2.8c1.2-0.3,2.5,0.4,2.8,1.5c0.4,1.2-0.3,2.5-1.6,2.8c-0.1,0-0.2,0-0.3,0.1
			c0.2,0.2,0.5,0.3,0.8,0.4c1.6,0.5,3.7-0.2,5.1-1.7c2.6-2.9,1.9-6.2,0-8.2c0-0.1-0.1-0.1-0.2-0.1l-10.9,0c0,0,0,0-0.1,0
			c-10.3,7.8-11.6,23.1-8.5,33.9c1.9,6.7-1.8,8.5-3.5,9c-1.6,0.5-3-0.7-3.9-1.8c0,6,0.5,21.8,6.2,27.7c2.1,2.1,4,3,5.5,2.4
			c0.7-0.2,1.2-0.7,1.6-1.3c-1.1,0.1-2.1-0.6-2.4-1.6c-0.3-1.2,0.4-2.5,1.6-2.8c1.8-0.5,3.1,1,2.9,2.7c-0.1,1.6-1.3,3.7-3.2,4.3
			c-1.5,0.5-3.9,0.5-7-2.8c-7.5-7.8-6.2-30.5-6.2-31.4l0,0c0,0,2.6,3.8,4.5,3.2c1.6-0.5,4-2,2.5-7.3c-3.1-10.8-1.9-25.9,7.7-34.3
			l-2.3,0c-0.3,0.3-0.6,0.6-0.9,0.9C565.7,175.5,563.1,180,561.9,185.3z M664.7,263.3c0.5,0.2,0.8,0.8,0.6,1.4
			c-0.2,0.5-0.8,0.8-1.4,0.6c-0.6-0.2-0.8-0.8-0.6-1.4C663.6,263.4,664.2,263.1,664.7,263.3z M660.1,263.7c0.4,0.2,0.6,0.6,0.5,1
			c-0.2,0.4-0.6,0.6-1.1,0.5c-0.4-0.2-0.6-0.6-0.5-1C659.2,263.7,659.7,263.5,660.1,263.7z M641.2,234.9c-0.2,0.6-0.9,0.9-1.5,0.7
			c-0.6-0.2-0.9-0.9-0.7-1.5c0.2-0.6,0.9-0.9,1.5-0.7C641.2,233.6,641.5,234.3,641.2,234.9z M646.4,234.2c-0.3,0.8-1.2,1.2-1.9,0.9
			c-0.8-0.3-1.2-1.2-0.9-1.9c0.3-0.8,1.2-1.2,1.9-0.9C646.3,232.5,646.7,233.4,646.4,234.2z M581.3,212.4c1.5-0.9,3.5-1,5.1-0.2
			c1.7,0.9,2.5,2.4,2.2,4.1c-0.2,0.9-0.6,1.7-1.3,2.1c-0.5,0.6-1.3,0.9-2.1,0.6c-0.9-0.4-1.4-1.4-1.1-2.4c0.4-0.9,1.4-1.4,2.4-1.1
			c0.5,0.2,0.9,0.6,1.1,1.1c0.1-0.2,0.1-0.3,0.1-0.5c0.1-0.6,0.2-2.2-1.8-3.2c-1.4-0.7-3-0.7-4.3,0.1c-1.4,0.9-2.2,2.7-2.2,5
			c0,1.8,0.8,3.4,2.3,4.8c3.7,3.5,11.8,5.3,21.5,4.9c6-0.3,12,0.4,17.7,1.8c5.5,1.4,10.8,3.6,16.1,5.8c-0.1-0.4-0.1-0.9,0-1.4
			c0.1-0.8,0.6-1.4,1.2-1.8c1.4-0.9,2.9-0.3,3.6,0.1c0.6-0.9,1.3-1.5,2.2-1.7c0.7-0.2,1.5-0.1,2.1,0.1c-2.8-4-7.3-13.3-10.7-21.3
			c-0.9-2-1.6-3.9-2.3-5.6c-2.5-6-4.1-10-6.7-11.3c-1.3-0.6-2.9-0.5-4,0.2c-0.3,0.2-0.7,0.5-1,1c0.1,0,0.2,0,0.3,0.1
			c0.6,0.2,0.9,0.9,0.7,1.5c-0.2,0.6-0.9,0.9-1.5,0.7c-0.4-0.2-0.7-0.6-0.8-1c0-0.2,0-0.3,0.1-0.5c0.2-1,0.8-1.9,1.7-2.4
			c1.3-0.8,3.3-0.9,4.8-0.2c3,1.4,4.6,5.5,7.1,11.7c0.7,1.7,1.4,3.6,2.3,5.6c4.7,11,10.2,21.2,11.7,23.7c0,0-1.4-2-3.7-1.4
			c-0.8,0.2-1.4,0.7-1.9,1.6l-0.2,0.4l-0.4-0.3c0,0-1.7-1.1-3-0.3c-0.4,0.3-0.7,0.8-0.9,1.3c-0.1,0.6-0.1,1.8,1.1,2.8l-0.1,0
			l-1.2-0.5c-5.7-2.4-11.2-4.7-16.9-6.2c-5.6-1.5-11.5-2.1-17.4-1.8c-10.1,0.4-18.2-1.4-22.1-5.1c-1.6-1.5-2.5-3.4-2.5-5.4
			C578.7,215.4,579.6,213.4,581.3,212.4z M630.7,226.7c-0.3,0.9-1.3,1.3-2.2,1c-0.9-0.3-1.3-1.3-1-2.2c0.3-0.9,1.3-1.3,2.2-1
			C630.6,224.8,631,225.8,630.7,226.7z M630.4,212.5c0.2-0.5,0.8-0.8,1.4-0.6c0.6,0.2,0.8,0.8,0.6,1.4c-0.2,0.5-0.8,0.8-1.4,0.6
			C630.4,213.7,630.2,213.1,630.4,212.5z M628,205c-0.4-0.2-0.6-0.6-0.5-1c0.2-0.4,0.6-0.6,1-0.5c0.4,0.2,0.6,0.6,0.5,1
			C628.9,204.9,628.4,205.1,628,205z M627.9,211.7c0.4,0.2,0.6,0.6,0.5,1c-0.2,0.4-0.6,0.6-1,0.5c-0.4-0.2-0.6-0.6-0.5-1
			C627,211.7,627.5,211.5,627.9,211.7z M634.1,225.3c0.6-1.6,2.4-2.5,4.1-1.8c1.6,0.6,2.5,2.5,1.8,4.1c-0.6,1.6-2.5,2.5-4.1,1.8
			C634.3,228.8,633.5,226.9,634.1,225.3z"/>
		<path fill="none" d="M634.1,194.1c4.1,13.5,9.7,26.2,16.8,37.7l0.4,0.6c3.3,5.4,6.5,11.4,11.2,15.7l-0.1,0
			c-0.2-0.1-23.4-14.3-44.3-10.7c-5.6,1-9,3.5-9.5,7.1c-0.4,3.2,1.5,6.8,4.4,8.2c3.3,1.6,8.4,1.1,13.7,0.6c4.4-0.4,8.9-0.9,13.2-0.3
			c12.8,1.7,22.9,5.7,34.8,13.8l1,0.7l-1.3,0.1c0,0-0.9,0.1-1.4,1l1.6,0c0.3-0.2,0.7-0.2,1-0.1c0.1,0,0.1,0.1,0.1,0.1l3.9,0
			c-4.3-2.9-9-5.8-13.9-8.4c-10.3-5.5-21.5-8.8-30.1-9.3c-8.3-0.6-14.7,1-15.7,0.9c-4.3,0.5-8.2-1.6-8.9-5c-0.7-3.4,2.7-6.9,7.6-7.4
			c1.2,0,8.3-1,18.6,1.1c10,1.9,21.8,7.3,31.8,14.4c0.7,0.5,1.3,1,2,1.5c-9.3-10.1-17.3-22.6-24-38c-6.9-15.8-11.8-32.8-15.6-48
			l-4.1,0c1.5,4.5,2.7,9,3.8,13.5C632.2,187.3,633.1,190.8,634.1,194.1z"/>
		<path fill="#D91C5C" d="M554.3,262.7c-1.3-1.6-2.2-3.4-3-5.3c-3.5-8.2-2.9-17.4-3-17.3c0,0-0.1,0.4-0.2,1
			c-0.5,1.8-2.8,12-0.4,22.7c0.2,1.7,0.7,3.3,1.2,4.8l5.1,0c-0.2-0.5-0.5-1.1-0.8-1.6c0.4,0.6,1,1.1,1.4,1.6l7.1,0
			c-0.4-0.1-0.8-0.3-1.1-0.5C558.2,266.8,556,264.9,554.3,262.7z"/>
		<path fill="#D91C5C" d="M448.8,285c0.9-0.3,1.5-1.3,1.2-2.2c-0.3-0.9-1.3-1.5-2.2-1.2c-0.9,0.3-1.5,1.2-1.2,2.2
			C446.9,284.8,447.9,285.3,448.8,285z"/>
		<path fill="#D91C5C" d="M443.2,284.4c1.1-0.3,1.7-1.5,1.4-2.6c-0.3-1.1-1.5-1.8-2.6-1.4c-1.1,0.3-1.8,1.5-1.4,2.6
			C440.9,284.1,442.1,284.8,443.2,284.4z"/>
		<path fill="#D91C5C" d="M434.9,283.7c-2.2,0.6-3.5,3-2.9,5.2c0.7,2.2,3,3.5,5.2,2.9c2.2-0.7,3.5-3,2.9-5.2
			C439.4,284.4,437.1,283.1,434.9,283.7z"/>
		<path fill="#D91C5C" d="M561.2,264.8c-2.7-1-5.3-4.1-5.6-6.7c-0.2-1.7,0.6-3.1,2.2-4.1c1.4-0.9,2.6-0.5,3.4-0.1
			c0.8,0.5,1.5,1.2,1.7,2c-0.4-0.2-0.8-0.2-1.2-0.1c-0.9,0.3-1.5,1.2-1.2,2.2c0.3,0.9,1.2,1.5,2.1,1.2c0.2-0.1,0.3-0.1,0.4-0.2
			l0,0.1c0.8-0.5,1.3-1.3,1.3-2.2c0-1.5-1.1-3.2-2.6-4.1c-1.5-0.9-3.2-0.8-4.8,0.2c-2.1,1.3-3.1,3.2-2.9,5.4
			c0.3,3.2,3.2,6.7,6.5,7.9c2.1,0.8,3.8,1.5,5,2.5l2,0C566.3,266.8,563.8,265.7,561.2,264.8z"/>
		<path fill="#D91C5C" d="M545.2,251.9C545.2,251.9,545.2,251.9,545.2,251.9C545.2,251.9,545.2,251.8,545.2,251.9
			c0-0.1-0.1,0-0.1,0.1c-0.4,0.9-2.8,5.7-4,7.8c0,0-1.9,3.1,1.1,4.4c-0.8,1.5-0.9,3-0.5,4.3l5.1,0c-1.5-5.1-1.7-14.7-1.8-16.4
			C545.2,252,545.2,251.9,545.2,251.9z"/>
		<path fill="#D91C5C" d="M289.7,155.7c19.3,1.1,42.5,14.5,42.7,14.7l1.9,1.1l-0.9-2c-0.8-1.7-0.7-3.3,0-4.6c1-1.6,2.9-2.5,5.3-2.7
			l2.1-0.1l-1.8-1.2c-0.2-0.2-6.1-4-21.8-11c-1.2-0.5-2.4-1-3.6-1.5c-0.4,0.4-0.7,0.7-1.1,1.1c1.4,0.6,2.8,1.1,4.1,1.7
			c11.1,4.9,17.3,8.3,20,9.9c-2,0.5-3.6,1.5-4.5,3c-0.7,1.2-1,2.7-0.7,4.2c-5.5-3-24.5-12.8-41.1-13.9c-0.5,0.3-0.9,0.7-1.3,1.1
			l0.1,0.2L289.7,155.7z"/>
		<path fill="#D91C5C" d="M174.5,185.5c-7.8,3.9-15.2,6.6-22.1,5.7c-3.8-0.5-6.5-2.2-7.7-4.9c-1.3-2.8-0.7-5.7,0.1-6.9
			c1.1-1.6,3.4-2.1,5.3-1.8c0.2,0,0.4,0.1,0.7,0.1c-1,0.7-1.5,1.9-1.2,3.1c0.4,1.5,2,2.3,3.5,1.9c1.5-0.4,2.3-2,1.9-3.5
			c-0.2-0.8-0.8-1.4-1.5-1.8c-0.7-0.7-1.8-1.1-3.1-1.3c-2.1-0.3-5.2,0.1-6.7,2.4c-1.2,1.8-1.6,5.2-0.2,8.3c1,2.2,3.3,5,8.8,5.7
			c3.8,0.5,7.7,0,11.7-1.1c-9.2,4.7-17.8,5.7-26.5,6.2l-2.1,0.1c-7,0.3-15.8,0.6-17,9.5c-0.4,3.3,0.5,6.2,2.6,8
			c2.1,1.8,5.1,2.4,8.1,1.5c5.4-1.6,6.3-6.2,5.1-9.4l-0.2-0.4c-0.6-1.1-2-1.7-3.3-1.4c-1.5,0.4-2.3,2-1.9,3.4c0.4,1.5,2,2.4,3.5,1.9
			c0.3-0.1,0.7-0.3,0.9-0.5c-0.2,1.9-1.3,3.9-4.5,4.9c-2.5,0.7-5,0.3-6.8-1.3c-1.8-1.5-2.5-3.9-2.1-6.8c1.1-7.7,8.5-8,15.7-8.3
			l2.2-0.1c10.3-0.6,20.5-1.6,31.8-8.8c1.7-1.1,3.4-2,5.1-3c3.9-1.9,7.8-4.1,11.8-6.3l4.9-2.8l-0.1-0.2c2.2-1.1,4.4-2.3,6.5-3.4
			l7.8-4.1l-3,0l-5.4,2.8C189.4,177.1,181.9,181.2,174.5,185.5z"/>
		<path fill="#D91C5C" d="M564.6,204.8c1.5,5.3-0.9,6.8-2.5,7.3c-1.9,0.5-4.4-3.2-4.5-3.2l0,0c0,1-1.3,23.6,6.2,31.4
			c3.1,3.2,5.5,3.3,7,2.8c1.9-0.7,3.1-2.7,3.2-4.3c0.1-1.7-1.1-3.2-2.9-2.7c-1.2,0.3-1.9,1.6-1.6,2.8c0.3,1.1,1.3,1.7,2.4,1.6
			c-0.4,0.6-0.9,1-1.6,1.3c-1.6,0.6-3.5-0.3-5.5-2.4c-5.7-5.9-6.2-21.7-6.2-27.7c0.9,1.2,2.3,2.3,3.9,1.8c1.7-0.5,5.4-2.3,3.5-9
			c-3.1-10.8-1.8-26.1,8.5-33.9c0,0,0,0,0.1,0l-2.2,0C562.7,178.9,561.5,194,564.6,204.8z"/>
		<path fill="#D91C5C" d="M585.6,178.8c-1.4,1.6-3.5,2.3-5.1,1.7c-0.3-0.1-0.5-0.2-0.8-0.4c0.1,0,0.2,0,0.3-0.1
			c1.2-0.4,1.9-1.6,1.6-2.8c-0.4-1.2-1.6-1.9-2.8-1.5c-1.2,0.4-1.9,1.6-1.6,2.8c0.1,1.6,1.4,2.9,2.9,3.4c2.1,0.8,4.8-0.1,6.6-2.1
			c2.9-3.2,2.4-6.8,0.7-9.3l-1.8,0c0.1,0.1,0.1,0.1,0.2,0.1C587.5,172.6,588.2,175.9,585.6,178.8z"/>
		<path fill="#D91C5C" d="M316,288.1c-0.7-1.4-2.1-2.2-3.9-2.1v0.1c-0.2,0-0.4,0-0.6,0.1c-1.4,0.4-2.1,1.8-1.8,3.2
			c0,0.1,0.1,0.2,0.2,0.4c0.8-0.2,1.5-0.4,2.2-0.6c0.5,0.6,1.1,1.1,1.6,1.6c0.6-0.4,1-1.2,1.1-1.9c0.4,0.9,0.3,1.9-0.1,2.9
			c0.3,0.3,0.7,0.7,1,1C316.5,291.2,316.7,289.5,316,288.1z"/>
		<path fill="#D91C5C" d="M302.2,271.9c2.3-13.4,9.7-21.1,15.8-25.4c-0.9,0.8-1.8,1.6-2.6,2.6c-3.1,3.5-4.5,8-3.7,12.1
			c0.7,3.6,3.3,6.1,6.2,8.4c3.2,2.6,14.9-0.8,21.2-4.6c2.1-1.3,4.1-2.5,5.8-3.1c9.3-3.8,23.2-6.5,50.3,2.9
			c-8.1-1.9-18.4-3.4-28.3-2.5c-18.7,1.7-35.4,13.5-37.4,26.2c-0.6,4.2,0.2,10.5,3.6,14.6c1.7,2.1,4,3.3,6.4,3.4
			c4.3,0.2,7-2.2,7.4-4.6c0.2-1.2-0.3-2.2-1.3-2.6c-0.6-0.3-1.3-0.5-2-0.3c-1.4,0.4-2.2,1.8-1.8,3.2c0.3,1,1.1,1.6,2,1.8
			c-1,0.7-2.4,1.2-4.3,1.1c-2.1-0.1-3.9-1.1-5.4-2.9c-2.9-3.6-3.9-9.5-3.3-13.5c1.9-12.1,18.1-23.4,36.1-25
			c20.1-1.9,42.1,6.6,42.9,6.9c0,0,12.7,3.8,12.7,3.8l-12.2-5.1c-37.5-16.4-55-13.3-66.1-8.8c-1.8,0.7-3.8,1.9-6,3.2
			c-5.9,3.6-13.3,8-19.8,4.5c-2.9-1.6-4.9-4.2-5.5-7.5c-0.7-3.7,0.7-7.6,3.4-10.9c5.5-6.7,12.7-9.5,19.8-12.9c-4,1-9.5,3.1-13.3,4.9
			c-4.7,2.2-8.8,5.3-12.3,9.1c-5.3,5.7-8.5,12.9-9.9,20.6c-1.5,8.5-0.2,14.4,2.2,18.3c0.6,0.1,1.2,0.1,1.8,0.1
			C302.3,286.6,300.7,280.7,302.2,271.9z"/>
		<path fill="#D91C5C" d="M434.9,294.8l-0.7-0.3c-2.7-1-5.5-3.8-4.7-8.3c0.7-3.9,5.6-6.3,5.6-6.3l2.3-1.1l-2.6-0.2
			c-0.1,0-9.7-0.9-15.9-2.6l-0.3-0.1c-6.3-1.8-18.1-5.2-26.2-1.9c-5.9,2.4-9.1,6.5-8.8,11.1c0.3,4,3.4,7.8,7,8.7
			c2.2,0.5,4.1-0.4,5.6-2c0.1-0.1,0.3-0.1,0.5-0.2c0.2-0.2,0.2-0.4,0.4-0.6c0.2-0.2,0.4-0.3,0.6-0.6l-0.2-0.1
			c0.4-0.9,0.5-1.9-0.1-2.7c-0.9-1.1-2.8-1.2-4-0.2c-1.3,1.1-1.6,2.8-0.6,4c0.3,0.4,0.8,0.5,1.3,0.6c-0.9,0.4-1.9,0.5-3,0.3
			c-3.1-0.7-5.7-4-5.9-7.4c-0.2-2.3,0.6-6.7,7.9-9.7c7.7-3.1,19.1,0.1,25.3,1.9l0.3,0.1c4.6,1.3,10.9,2.1,14.1,2.5
			c-1.7,1.2-4.1,3.2-4.6,6.2c-0.9,4.9,2,8.1,4.9,9.5c-0.6,1.2-2.1,4.4-3.3,8.5c0.6-0.4,1.3-0.9,1.9-1.3c1.4-4.1,2.9-7,3-7.1
			L434.9,294.8z"/>
		<path fill="#D91C5C" d="M423.5,296.3c0.4,1.2,1.6,2,2.9,1.6c1.2-0.4,1.9-1.6,1.6-2.9c-0.4-1.2-1.6-1.9-2.9-1.6
			C423.8,293.8,423.1,295.1,423.5,296.3z"/>
		<path fill="#D91C5C" d="M507.3,268.5h0.3c0.3-0.2,0.6-0.5,0.9-0.7L507.3,268.5z"/>
		<path fill="#D91C5C" d="M422.3,286.5c1.5-0.4,2.4-2,1.9-3.5c-0.4-1.5-2-2.4-3.5-1.9c-1.5,0.4-2.4,2-1.9,3.5
			C419.3,286.1,420.9,286.9,422.3,286.5z"/>
		<path fill="#D91C5C" d="M394.2,304.1c-0.7,0.2-1.1,1-0.9,1.7c0.2,0.7,0.9,1.1,1.6,0.9c0.7-0.2,1.1-0.9,0.9-1.6
			C395.7,304.3,394.9,303.9,394.2,304.1z"/>
		<path fill="#D91C5C" d="M406.5,309.8c-0.9,0.3-1.5,1.2-1.2,2.2c0.3,0.9,1.2,1.5,2.2,1.2c0.9-0.3,1.5-1.2,1.2-2.2
			C408.4,310,407.5,309.5,406.5,309.8z"/>
		<path fill="#D91C5C" d="M428.4,301.2l-1.1,0c-0.1,0-2.3,0.5-4.5-3c-3.2-5,2.3-9.6,2.5-9.7l-0.2-0.1c-0.2,0.1-4.4,2-6.9-1
			c-2.8-3.4-1.7-6.9-1.6-7.1l0.2-0.7l-0.7-0.2c-0.3-0.1-6.9-1.9-10-2.5c-5.2-1-9.4-0.3-12.3,1.9c-3.6,2.8-4,6.9-4.1,7.1l-0.2,2.4
			l1.5-2c1.5-2,3.4-2.8,5.3-2.2c2.1,0.6,3.9,2.8,4,5.1c0.2,2.4-0.7,4.7-2.6,6.3c-2,1.7-4.5,2.4-7.1,1.8c-5.6-1.3-10.7-7.3-9.4-15.2
			c1.3-8.2,11.8-12.2,11.9-12.2l2.1-0.8l-2.2-0.6c-8.5-2.2-22.4-2.7-25.5,2.1c-1.8,2.7-0.8,4.3-0.3,4.8c1,1.1,2.8,1.4,4.4,0.6l0,0
			c1-0.5,1.6-1.6,1.3-2.7c-0.4-1.3-1.6-2-2.9-1.6c-1.2,0.4-1.9,1.6-1.6,2.9c0,0.1,0,0.1,0.1,0.2c-0.1-0.1-0.2-0.1-0.3-0.2
			c-0.6-0.7-0.4-1.8,0.5-3.2c2.2-3.4,13.1-3.8,21.9-1.9c-3.3,1.7-9.7,5.6-10.8,12.4c-1.4,8.8,4.2,15.4,10.5,16.8
			c3,0.7,6-0.1,8.3-2.1c2.2-1.9,3.3-4.6,3.1-7.5c-0.2-2.9-2.4-5.6-5.1-6.3c-1.7-0.5-3.4-0.2-4.9,0.9c0.5-1.2,1.4-2.6,2.9-3.8
			c2.6-2,6.4-2.5,11.2-1.6c2.5,0.5,7.4,1.8,9.2,2.3c-0.3,1.4-0.5,4.6,2,7.7c1.5,1.8,3.5,2.2,5.2,2c-1.7,2.2-2.9,5.3-0.7,8.7
			c1.5,2.4,3.1,3.3,4.3,3.6c-0.8,1.2-1.5,3.1-2,5c0.6-0.4,1.2-0.8,1.8-1.1c0.7-1.9,1.3-3.4,1.9-4L428.4,301.2z"/>
		<path fill="#D91C5C" d="M408.6,301.1c-1.2,0.3-1.9,1.6-1.6,2.9c0.3,1.2,1.6,2,2.9,1.6c1.2-0.4,2-1.6,1.6-2.9
			C411.1,301.4,409.8,300.7,408.6,301.1z"/>
		<polygon fill="#D91C5C" points="428.5,301 428.4,301.2 428.6,301.2 		"/>
		<path fill="#D91C5C" d="M317.1,216.4c-0.4-1.3-1.7-2.1-3-1.7c-1.3,0.4-2.1,1.7-1.7,3c0.4,1.3,1.7,2.1,3,1.7
			C316.7,219,317.5,217.7,317.1,216.4z"/>
		<path fill="#D91C5C" d="M174.2,237.3c20.6-20.4,52.9-36.4,53.2-36.6l3.3-1.4c-3,0.9-11.8,1.6-14.1-6c-2.1-6.8,8.1-15.1,8.2-15.2
			l-2,1.2c-8.1,4.2-26.8,16.9-29.5,21.8c-1.2,2.2-1.1,4.3,0.2,5.7c1.3,1.4,3.6,1.9,5.5,1c1.5-0.7,2.4-1.9,2.4-3.4
			c0-1.4-0.9-2.9-2.2-3.4l0,0.1c-0.5-0.3-1-0.3-1.6-0.2c-1.1,0.3-1.8,1.5-1.4,2.6c0.3,1.1,1.5,1.8,2.6,1.4c0.5-0.1,0.9-0.5,1.2-0.8
			c0,0.1,0,0.2,0,0.3c0,0.9-0.6,1.6-1.6,2.1c-1.3,0.6-3,0.3-3.9-0.7c-0.9-1-0.9-2.4,0-4.1c2-3.5,14.3-12.5,23.5-18.1
			c-2.5,2.8-3.9,6.4-2.7,10.3c1.6,5.3,5.6,6.7,8.5,7.1c-8.5,4.5-33.5,18.4-50.7,35.3c-6.8,6.7-13.5,14-20.6,21.7
			c-3.2,3.5-6.5,7-9.8,10.5l1.9,0c3-3.2,6-6.4,8.9-9.6C160.7,251.3,167.4,244,174.2,237.3z"/>
		<path fill="#D91C5C" d="M279,252.3c0.7-0.2,1.1-0.9,0.9-1.7c-0.2-0.7-1-1.1-1.7-0.9c-0.7,0.2-1.1,0.9-0.9,1.6
			C277.5,252.1,278.3,252.5,279,252.3z"/>
		<path fill="#D91C5C" d="M428.8,139.6c-2.1,4-1.3,9.8,1.8,14.4c4.9,7.3,14.7,11.5,24.2,10.4c5.8-0.7,11-2.5,15.4-5.1
			c-0.3-0.4-0.6-0.7-0.9-1.1c-4.2,2.5-9.1,4.2-14.7,4.8c-10.5,1.2-17.3-3.4-21.2-9.2c-1.5-2.2-2-4.4-1.8-6.5
			c1.3,0.7,2.9,0.9,4.4,0.5c2.2-0.6,3.7-2.3,4.2-4.4c-2.7-2.5-5.6-4.7-8.5-6.9C430.3,137.2,429.3,138.3,428.8,139.6z"/>
		<path fill="#D91C5C" d="M-0.5,254.8v3.1c3.1,2.4,6.3,4.6,9.7,6.6c0.3,0.2,0.7,0.5,1,0.7l0.1-0.1c2.2,1.3,4.4,2.5,6.7,3.6l3.3,0
			c-3.5-1.6-6.9-3.3-10.1-5.3C6.6,261.1,3,258.2-0.5,254.8z"/>
		<path fill="#D91C5C" d="M297.9,266.1c2-6.6,5.1-12.3,9.2-17.2c0.8-0.8,1.6-1.6,2.4-2.4c1-1,2-2,3.1-2.9
			c6.2-4.8,13.6-8.4,21.7-10.4c24.2-5.9,50,6.1,67.3,15.6l5.1,2.8c9.5,5.3,18.6,10.4,29.1,13.5c2.8,0.9,5.5,1.7,8.1,2.2
			c-8.7-1-17.6-1.6-26.3-5.7c-18.4-9.7-42-21.8-60.3-22c-9.1-0.3-19,1-27.6,4.7c-5.2,2.2-17.9,11.1-12.3,18.4
			c2.6,3.6,8.5,4.3,14.9,0.2c3.6-1.6,13.6-8.1,29.1-8.9c15.8-1.2,33.1,6.5,53.2,14.8c10.2,3.7,20.9,6.7,31.2,7.1
			c1.7,0.1,3.4,0,5-0.1c7,0.1,14.7-0.5,22.4-2.1c0.6-1.9,0.9-3.7,0.9-5.2l15.8,0c19.6-8,31.5-17.7,38.1-24.6c4.5-4.7,8.7-9,12.3-14
			c-10,17.3-22.1,28.5-27.2,31.9c-4,2.6-7.9,4.8-11.8,6.7l3.1,0c3.1-1.6,6.3-3.4,9.5-5.6c9.5-6.3,25.2-23.5,34.6-46.8
			c-2.3,6.4-5.2,13.6-8.7,20.5c-7,15-17.9,26.4-23.9,31.9l17.9,0c5-7.9,10.3-18.1,13.2-29c0.8-2.5,1.5-5.1,2.1-7.6
			c0.2,7.2,1.2,12.6,1.7,13.4c0.9,3.2,4.1,4.9,6.4,3.8c1.6-0.7,2.6-2.3,2.9-4c0.3-2.1-0.8-4-1.4-5.9c-2.5-9.1-3.7-18.7-3.1-28
			c0.1-6.1,1-12,2.1-16.9c-0.2,1.4-0.3,2.7-0.4,4.1c-0.1,2.3-0.1,4.6,0.2,6.8c0.2,1.4,1,3.6,2.7,3.7c0.4,0,0.8-0.1,1.1-0.3
			c0.7-0.5,1.1-1.5,1.1-2.2c0.1-1.1-0.5-2-0.7-3c-0.5-2.6-0.9-5.1-1-7.7c0-1.9,0.1-3.8,0.3-5.7c0.2-1.6,0.4-3.1,0.7-4.7
			c1.2-5.3,3.8-9.8,7.3-13.9c0.3-0.3,0.6-0.6,0.9-0.9l-2,0c-0.3,0.3-0.5,0.5-0.8,0.8c-3.7,3.9-7.1,8.1-10.1,12.7
			c-1.8,2.6-3.8,5.2-5.9,7.5c-3,3.3-6.1,6.3-9.5,9.2c-2.3,2-6.8,3.3-5.7,7.1c1.2,3.9,7.4,1.1,9.1-0.4c1.2-1.1,2.3-2.4,3.3-3.7
			c-0.8,1.3-1.7,2.6-2.5,3.8c-10.1,14.2-23.4,21.9-33.9,19.3c-7.1-1.7-11.7-7.8-13.2-17.2c-0.8-5.4,1.3-10.8,5.7-14
			c4-3,9-3.4,13.6-1.2c1.9,0.9,3.2,2.2,4.1,3.7h-0.1c1.6,3.2,1.1,6.7-0.4,8.6c-1.9,2.5-5.5,2.2-7.4,1.4c-2.2-1-6.2-0.6-4.5,3
			c1.8,3.6,9.7,3.5,13.1-0.9c2.1-2.7,2.3-5.9,1.9-8.5c-0.4-3.4-2.4-6.8-6.2-8.6c-5-2.4-10.6-1.9-15,1.3c-4.8,3.5-7.1,9.4-6.2,15.4
			c1.5,10,6.6,16.5,14.2,18.3c4,0.9,8.3,0.5,12.8-1.1c-8.1,3.4-15.3,3.7-16,3.6c-3.2,0.3-5.6,2.7-5.4,5.3c0.3,2.6,3.1,4.5,6.3,4.2
			c0.9,0.2,8.9-1.4,17.4-6.2c-5.5,3.7-11.8,6.4-18.7,7.4c-16.9,2.9-34.3-0.5-43-8.9c-9.2-8-12.6-16.9-13.4-18
			c-2.9-5.4-7.5-9-11.7-7.9c-4.2,1-5.7,8.3-2.1,15.1c1,1.5,6,12,19.2,21.3c13.4,10,34.8,11.3,52.6,6c4.3-1.1,8.1-2.8,11.8-4.8
			c-8,4.9-16.3,7.3-19.6,8c-17.4,4.1-35,0.7-52.4-10c-14.1-8.7-24.1-19.8-28.9-25.1l-1.2-1.3c-17.8-19.3-43.6-55.8-32.9-96
			c-0.5,0-0.9-0.1-1.4-0.1c-10.7,40.7,15.4,77.6,33.3,97.1l1.2,1.3c4.9,5.4,15,16.6,29.2,25.4c17.7,10.9,35.7,14.3,53.5,10.2
			c3.2-0.8,11.2-3,19-7.6c-1.5,1.2-3.1,2.3-4.7,3.2c-8.1,4.6-17,7.1-25.7,8c-8.2,0-18.7-1.1-30.6-5.3c-14-5.1-29-14.8-42.2-28.1
			c-13.1-13.2-26.3-29.2-40-44.9c-14.8-16.8-28.2-32.3-44.7-46.3c-1.7,1-3.4,2.1-5,3.3c16.7,11.3,29.4,24.2,33.3,28.1
			c-10.9-10-22.8-19.3-35-26.9c-3.8,2.8-7.4,5.9-10.9,9.2c9.3,4.1,18.3,8.9,26.6,13.6c11.6,6.5,21.8,14.8,31.1,24.4
			c0.6,0.6,10.9,10.4,10.6,11.2c0.2-0.4-10.4-9.8-11.1-10.5c-18.7-15.6-25.1-18.8-27.3-19.9c-3.3-1.3-6.9-0.6-8.4,2.9
			c-1.2,2.8-0.9,5.5,0.6,7.9c-16.1-9.9-32.8-16-50-18.2c0-0.2,0-0.5-0.1-1c-0.7,0.7-1.3,1.4-1.9,2.2c18.8,2.1,37.1,8.9,54.7,20.3
			c1.8,0.9,2.8,2.1,4.3,3.4c-18.4-10.1-37.8-17.5-57.1-19.5c-1.4-0.1-2.9-0.2-4.3-0.3c-0.2,0.5-0.5,0.9-0.6,1.4
			c1.6,0.1,3.2,0.2,4.8,0.3c24.7,2.5,49.5,14,72.3,28.8c12.1,8.8,24,17.8,34.7,28.4c17.5,17.2,38.8,34,62.6,41
			c-4.5-0.6-9-1.3-13.3-2.7c-4.3-1.4-8.4-3.4-12.4-5.6c-14-7.9-25.8-19.2-38.2-29.3c-2.8-2.5-6-5.4-9.6-8.6
			c-12.4-11-30.3-25.2-51.9-33.9c-21.5-9-45.4-11.4-64.1-10.3c-18.8,2-31,6.5-33.2,7.1c-8.6,2.9-14.1,9.6-12,13.4
			c2.1,3.7,9.2,4,17.1,1.3c1.9-0.5,13.4-5.7,29.6-8.7c16.4-2.3,39.1-2.2,59.9,4.6c5.9,1.8,11.7,4.1,17.2,6.6
			c-30.3-10.9-61.3-11.8-92.2-2.5c-28.3,8.5-55.7,25.5-79.4,49.3c-8.1,8.1-15.7,16.7-23.1,25.2l1.9,0c7.1-8.2,14.5-16.5,22.2-24.3
			c23.5-23.6,50.8-40.6,78.9-49c31.3-9.4,62.8-8.3,93.6,3.3c6.9,2.6,13.5,6,19.8,9.9c5.2,3.4,10,6.7,14.2,9.9c2.6,1.9,5,3.8,7.3,5.4
			c3.8,3,7.6,6.1,11.3,9.1c4.8,3.9,9.5,7.8,14.2,11.4c-16-10.2-25.4-18.2-25.4-18.2c-0.3-0.1-16.9-12.9-38.8-20.5
			c-19.8-7.1-47.5-10.6-75.7-5.8c-2.1,0.3-4.3,0.8-6.5,1.2c-1.1,0.3-2.3,0.4-3.4,0.7c-7.8,1.8-16,4.3-24.5,8.1
			c-0.3,0.1-0.6,0.3-1,0.5c-0.9,0.4-1.8,0.9-2.8,1.4c-24.3,11.4-47.7,30.1-70.7,56.8l2,0c4.2-4.7,8.3-9.3,12.5-13.5
			c-4.1,4.6-7.7,9.1-10.9,13.5l22.1,0c13.3-21,35.8-42.2,64.3-53.3c20.7-8.9,43.1-11.9,63.2-11c-10.9,0-23,1.1-35.6,4.4
			c-25.9,6.8-48,21.3-65.7,43c-4.3,5.2-8,10.9-11.3,16.9l1.5,0c3.2-5.7,6.8-11,10.8-16c17.5-21.5,39.4-35.8,64.9-42.5
			c14.3-3.8,28-4.7,40-4.3c-14.9,0.4-34.5,3-52.9,12.4c-19.2,9.7-38,27-50.4,46.3c-0.9,1.3-1.7,2.8-2.6,4.2l1.6,0
			c0.7-1.2,1.4-2.4,2.1-3.5c12.3-19.1,30.9-36.2,49.8-45.8c12.1-6.1,24.6-9.3,36-10.9c0,0.1,0,0.1,0,0.2c-1,0.3-1.8,0.5-2.5,0.9
			l-1,0.2c-0.4,0.1-39.1,9.6-64.8,40.8c-5.3,6.5-9.3,12.4-12.3,18l1.6,0c2.9-5.3,6.7-11,11.8-17.1c22.4-27.2,52.4-35.3,60.1-37.5
			c-0.2,0.6,2.7-1.3,2.9-0.2c0.1,0.2,0.1,0.4,0.2,0.6c-2.1,0.5-4.4,1.3-6.7,2.1l0,0c-0.2,0.1-0.3,0.1-0.5,0.2
			c-8.8,3.2-18.1,7.9-22.1,10.5c-13.4,8.7-21.6,16.6-21.7,16.7l-0.4,0.4l0.3,0.4c0.2,0.5,2.3,5.2-2.7,9.4c-3.6,2.9-7.2,0.1-7.4,0
			l-0.6-0.5l-0.4,0.6c-3.5,5.2-6.4,9.9-8.5,14.5l1.6,0c2-4.1,4.6-8.4,7.7-13.1c1.4,0.9,5,2.5,8.5-0.4c5.1-4.2,3.8-9.1,3.2-10.6
			c1.7-1.6,9.4-8.6,21.2-16.3c2.9-1.9,8.8-5,15.1-7.8c-0.9,1.1-1.4,2.2-1.2,3.4c-1.2,0.4-2.7,1.5-2.9,3.8c-0.1,1.2,0.2,2.1,0.7,2.7
			c-3.8-0.2-10.5,0.2-13.2,4.4c-1.3,2.1-1.6,4.2-0.8,5.9c0.8,1.5,2.5,2.6,4.2,2.7c1.9,0.1,3.3-1.3,4-2.6c0.2-0.5,0.4-1,0.4-1.4
			c0.1-0.3,0.1-0.7,0-1.1c-0.3-1-1.4-1.6-2.4-1.3c-1,0.3-1.6,1.4-1.3,2.4c0.2,0.8,0.9,1.3,1.6,1.4c-0.5,0.7-1.3,1.3-2.3,1.2
			c-1.1-0.1-2.4-0.7-3-2c-0.6-1.2-0.4-2.8,0.7-4.5c3.3-5.2,14.5-3.6,14.6-3.5l0.5,0c-0.2-0.1-2.5-2-2.4-4.2c0.2-2.4,2.3-2.8,2.4-2.8
			l0.8-0.1l-0.3-0.8c-0.7-2,1.1-4.1,5.3-5.9c3.2-1.2,6.3-2.2,9.1-2.8c-0.7,0.3-2.2,1.2-3.9,3.4c-1.7,2.1-1.7,5.7-0.4,7.4
			c-2.1,0.8-4.1,1.6-5.5,2.3c-4,2.2-6.5,6-6.5,9.7c0,2.9,1.5,5.3,4.1,6.7c2.3,1.3,4.6,0.9,7.1-0.4c-0.2,0.5-0.3,1-0.3,1.6
			c0,1.2,0.6,2.3,1.8,3.3c-1.3,1.3-4.8,4.9-9.2,9.6c-4,4.2-9.5,8.7-13.3,8.4c-1.1-0.1-2-0.6-2.6-1.5c-1-1.4-1.1-2.9-0.6-4.2
			c0.1-0.3,0.3-0.5,0.4-0.7c0,0.1,0,0.2,0.1,0.3c0.4,1.4,1.8,2.1,3.2,1.8c1.4-0.4,2.1-1.8,1.8-3.2c-0.3-1.1-1.3-1.8-2.4-1.8l0-0.1
			c-1.9,0.2-3.5,1.5-4.3,3.2c-0.8,1.8-0.5,3.8,0.7,5.6c0.7,1.1,1.7,1.7,2.9,2l2.2,0c5.1-0.8,11.1-6.7,12.9-8.7
			c5.5-5.9,9.6-10,9.7-10.1l0.6-0.6l-0.7-0.5c-1.2-0.8-1.8-1.7-1.8-2.7c0-1.9,1.9-4.4,2-4.4l-0.2-0.1c-3.5,2.4-6.7,3.5-9.2,2.1
			c-2.2-1.2-3.3-3.2-3.4-5.5c0-3.3,2.2-6.5,5.8-8.5c5.1-2.8,18.4-6.1,18.5-6.2l0.6-0.4c-0.1,0-2.6,0-4.2-3.2
			c-1.3-2.5,0.4-5.5,0.4-5.5l0.3-0.5l-0.5-0.4c-0.8-0.7,9.7,1,11.5,0.5c0.5-0.1,1.5-0.5,1.5-0.5c1.9-0.6,15.5-0.6,20.1,0.6
			c9,2.4,16.6,6,22.9,8.9c12.7,5.9,19.5,11.5,19.5,11.3c-0.1,0.1-7.1-5-19.9-10.5c-6.4-2.6-14.1-6-22.9-8.2
			c-4.4-1.1-9.2-1.8-14.1-1.3c-4.5,0.3-11.1,2.3-10.3,7.3c0.3,0.8,0.7,1.6,1.4,2.2c-12.5,2.2-21.9,6.6-22.8,7.5
			c-3.9,2.4-5.7,6.2-4.2,8.3c1.6,2.1,5.5,2.1,8.9,0c1.4-1.1,20.5-12.6,42.6-11.4c15.9-0.1,30.2,6.3,36.8,9.9
			c-14.7-5.9-31.6-9.9-48-5.9c-4.3,1-8.3,2.5-12.1,4.4l0,0c-3.6,1.6-6.7,3.7-9.7,6.1c-1.9,1.5-3.6,3.2-5.3,5
			c-0.2,0.2-0.4,0.4-0.6,0.6c-4.1,4.1-7.7,8.7-10.2,14c-2.8,5.8-5.3,13.5-5.5,22.9c0.5,0.3,0.9,0.7,1.4,1c0.1-9.7,2.5-17.5,5.3-23.3
			c0.5-1.1,1.4-2.1,2-3.2c-1,2.1-2,4.1-2.7,6.4c-2.1,6.8-2.9,14.1-2.5,21.4c0.5,0.3,1,0.5,1.5,0.7
			C295.1,280.4,295.8,273,297.9,266.1z M456.5,269.1c2.7,0.2,5.4-0.4,8-0.3c3.1,0.1,5.8-0.4,8.1-0.5c0,0-0.1,1.3-0.1,1.3
			c-5.4,1-11.5,0.3-18-0.7C455.2,269,455.9,269.1,456.5,269.1z"/>
		<path fill="#D91C5C" d="M615.1,196.1c-2.6,6.3-7.7,11.2-13,12.5c-8,1.9-13.9-1.4-16.8-5.2c-2.8-3.7-3.4-8.2-1.4-11.8
			c2.6-4.9,6.5-5.5,9-4.5c0.5,0.2,0.7,0.5,1.1,0.8c-1,0.3-1.9,1-2.1,2.3c-0.3,1.6,0.7,3.1,2.1,3.4c1.4,0.2,2.7-1,3-2.6
			c0-0.2-0.1-0.3-0.1-0.5c0.2-1.8-1.1-3.8-3.5-4.7c-3.1-1.2-7.7-0.6-10.8,5.2c-2.2,4.1-1.6,9.2,1.6,13.4c3.2,4.1,9.6,7.7,18.2,5.7
			c5.7-1.3,11.2-6.6,14-13.3c1.8-4.5,4.1-13.4-1.9-23.1c-0.7-1.1-1.4-2.1-2.2-3.1l-1.9,0c1,1.2,2,2.4,2.9,3.8
			C619,183.4,616.9,191.9,615.1,196.1z"/>
		<path fill="#D91C5C" d="M155.2,234.6l7.9-8.9c13.8-15.2,32.4-34.2,54.4-46.6c6.1-3.5,12.4-6.3,18.7-8.6l-4,0
			c-5.2,2.1-10.3,4.5-15.4,7.4c-22.1,12.5-40.9,31.7-54.7,46.9l-1,1.2l-0.1-0.1c-5.4,6.3-12.4,13.8-20.8,21.1
			c-0.5,0.4-0.9,0.9-1.5,1.3c-0.2,0.2-0.4,0.3-0.6,0.5c-4.5,3.3-10.2,5.8-14.6,5.6c-2.2-0.1-3.8-0.9-4.9-2.4c-0.9-1.2-1.3-2.5-1-3.9
			c0.7-3.7,5.2-7.6,10.7-11.4c12.7-7.4,22.7-17.1,30.8-25l2.2-2.1c10.6-10.2,30.8-27.4,57.1-39l-3.4,0c-25.1,11.7-44.4,28.1-54.7,38
			l-2.2,2.1c-5.2,5.1-11.6,10.9-18.7,16.4c-13.6,8.9-34,15.4-51.7,11.7c-12.5-2.6-21.7-9.8-27.1-21.3c-1.9-3.9-1.9-8.2-0.2-11.4
			c1.1-2,2.7-3.3,4.5-3.5c1.7-0.2,2.9,0.3,3.5,1.4c0.2,0.4,0.3,0.8,0.3,1.2c-0.7-0.9-1.8-1.3-3-1c-1.5,0.4-2.3,2-1.9,3.5
			c0.4,1.5,2,2.3,3.5,1.9c0.5-0.2,1-0.5,1.3-0.9l0,0c1.5-1.3,1.9-3.6,1.1-5.3c-0.8-1.7-2.6-2.5-4.9-2.2c-2.2,0.3-4.2,1.8-5.5,4.2
			c-1.9,3.6-1.9,8.4,0.1,12.7c5.6,11.8,15.3,19.5,28.1,22.1c14.4,3,30.6-0.7,43.6-6.9c-1.1,0.7-2.2,1.4-3.3,2.2
			c-1.9,1.1-3.9,2.2-5.9,3.2l0,0c-14.6,6.7-35.4,7.7-51.8,2.6c-10-3.1-17.9-8.1-27.3-17.3c-8.7-8.5-15.6-25.8-15.1-37.8
			c0.2-5.1,1.7-8.9,4.4-11.1c1.6-1.4,3.5-1.6,5-0.6c1.4,0.9,2.1,2.6,1.7,4.2c-0.1,0.5-0.3,0.9-0.6,1.3c0-0.2,0-0.5-0.1-0.7
			c-0.4-1.5-2-2.3-3.5-1.9c-1.5,0.4-2.3,2-1.9,3.4c1.2,4.3,6.9,2.6,7.4-1.7c0.3-2.3-0.3-4.5-2.3-5.8c-1.6-1-4.1-1.3-6.6,0.7
			c-2.9,2.5-4.6,6.7-4.8,12.1c-0.5,12.3,6.6,30.1,15.5,38.9c9.6,9.4,17.6,14.5,27.9,17.7c11.1,3.5,24.2,3.9,36.1,1.9
			c-9.8,2.4-20.7,3.2-33.1,1C53,242,37.1,231.1,28.1,214.8c-7.6-13.7-9.4-29.9-5.3-44.4l-1.4,0c-4.1,14.8-2.1,31.2,5.5,45.1
			c9.2,16.7,25.4,27.8,45.6,31.3c8.7,1.5,16.7,1.5,24.1,0.6c0,0.1,0,0.1,0,0.1c0.6,2,2.7,3.2,4.8,2.6c1.8-0.5,2.7-2.2,2.6-4
			c1.7-0.4,3.4-0.7,5-1.2c0,1.9,0.9,4.3,3.3,4.7c0,0-3.4,1.9-2,5.8c0.9,2.6,3.5,3.2,5,2.9c0,0-1.1,1.9-0.2,3.7
			c0.4,0.9,1.2,1.6,2.1,1.8c-2.7,1.7-5.6,3.2-8.5,4.7l3.1,0c11.1-6,21.1-13.5,29.7-21.2c-7.1,7.6-14.6,15-22.7,21.1l2.3,0
			C133.8,258.8,145,246.1,155.2,234.6z"/>
		<path fill="#D91C5C" d="M375.3,313.5c-0.4-5.2-2.8-10.7-7.4-13.4c-4.9-2.9-11.6-0.5-10,5.2c0.6,2.2,3,3.5,5.2,2.9
			c2.2-0.6,3.5-3,2.9-5.2c0-0.1-0.1-0.2-0.1-0.3c0.6,0.1,1.1,0.3,1.4,0.5c3.9,2,6,6.5,6.3,11.3c0.1,1.7,0.1,3.4-0.1,5
			c0.5,0,1,0.1,1.5,0.1C375.4,317.6,375.5,315.5,375.3,313.5z"/>
		<path fill="#D91C5C" d="M449.4,290c5.3-3.9,11.9-6.2,19.3-8.4c0.6-0.6,1.1-1.3,1.6-1.9c-9,2.6-17,5.2-23.1,10.3
			C447.9,289.9,448.6,290,449.4,290z"/>
		<path fill="#D91C5C" d="M290.8,229.5c0.9-0.3,1.5-1.2,1.2-2.2c-0.3-0.9-1.2-1.5-2.2-1.2c-0.9,0.3-1.5,1.3-1.2,2.2
			C288.9,229.3,289.9,229.8,290.8,229.5z"/>
		<path fill="#D91C5C" d="M288.1,252.1c1-0.3,1.5-1.3,1.2-2.3c-0.3-1-1.3-1.5-2.3-1.2c-1,0.3-1.5,1.3-1.3,2.3
			C286.1,251.8,287.2,252.4,288.1,252.1z"/>
		<path fill="#D91C5C" d="M239.6,226.3l-0.1-0.2c-0.3,0.2-25.6,14-44.5,42.4l1.6,0c10.8-16.4,23.6-27.7,32.3-34.3
			c-13.6,12.6-22.2,24.6-27.5,34.3l1.5,0C209.5,256.8,220.7,241.5,239.6,226.3z"/>
		<path fill="#D91C5C" d="M295.8,226.1c1.6-0.5,2.5-2.1,2.1-3.7c-0.5-1.6-2.1-2.5-3.7-2.1c-1.6,0.5-2.5,2.1-2.1,3.7
			C292.5,225.7,294.2,226.6,295.8,226.1z"/>
		<path fill="#D91C5C" d="M264.6,244.4c-0.7,0.2-1.1,0.9-0.9,1.6c0.2,0.7,0.9,1.1,1.6,0.9c0.7-0.2,1.1-0.9,0.9-1.7
			C266,244.6,265.3,244.2,264.6,244.4z"/>
		<path fill="#D91C5C" d="M135.8,237c-2.2,1.6-11.8,4.9-8.8,9.4c1.5,2.3,7.3,0,8.9-1c1.6-1.1,3.1-2.5,4.5-3.7
			c4.5-3.8,8.6-8.3,12.6-12.6c9-9.6,17.7-19.3,26.5-29.1c0.4-0.4,5.5-6.7,6-6.4c-1.2-0.7-14.8,13.2-16,14.2
			c-9.1,8.2-18.1,16.6-27.6,24.3C139.9,233.8,137.9,235.4,135.8,237z"/>
		<path fill="#D91C5C" d="M304.7,247.2c0.8-0.2,1.3-1.1,1.1-2c-0.2-0.8-1.1-1.3-2-1.1c-0.8,0.3-1.3,1.1-1.1,2
			C303,246.9,303.9,247.4,304.7,247.2z"/>
		<path fill="#D91C5C" d="M106.9,247.8c-0.9,0.3-1.5,1.2-1.2,2.2c0.3,0.9,1.2,1.5,2.2,1.2c0.9-0.3,1.5-1.2,1.2-2.2
			C108.8,248.1,107.9,247.5,106.9,247.8z"/>
		<path fill="#D91C5C" d="M77.9,266.6c-0.6-0.7-1.7-1.2-2.7-1.1c-0.9,0-1.7,0.5-2.2,1.2c-0.5,0.7-0.8,1.4-0.9,2l1.5,0
			c0.1-0.4,0.3-0.8,0.6-1.2c0.3-0.5,0.8-0.6,1.1-0.6c0.5,0,1.1,0.2,1.4,0.5c-0.2,0-0.3,0-0.5,0c-0.6,0.2-1,0.7-1.1,1.3l3.3,0
			C78.5,268,78.5,267.2,77.9,266.6z"/>
		<path fill="#D91C5C" d="M115.1,264.5l-0.5-0.7c-1.4-1.7-0.7-3.4-0.7-3.4l0.3-1l-1,0.2c0,0-2,0.4-3.6-0.9c-2.1-1.6-2.2-4.7-2.2-4.8
			l0-0.6l-0.6-0.1c-1.8-0.2-2.8-2.2-2.8-2.3l-0.4-0.9l-0.7,0.6c-0.6,0.6-1.6,0.8-2.8,0.6c-1.7-0.2-3.6-1.2-4.3-2.3l-0.3-0.4
			l-0.5,0.1c-0.4,0.1-10.1,2.4-9.7,7.4c0.2,2.3,1.3,3.9,3.1,4.5c1.5,0.5,3.3,0,4.2-1.1c0.6-0.8,1-2.2,0.6-3.2
			c-0.2-0.5-0.6-0.8-1-1.1c-0.6-0.5-1.3-0.7-2.1-0.5c-1.2,0.3-1.9,1.6-1.6,2.8c0.3,1,1.2,1.6,2.2,1.6c-0.6,0.3-1.3,0.4-2,0.2
			c-1.2-0.4-2-1.6-2.1-3.3c-0.2-3,5.5-5.1,8.2-5.8c1,1.2,3,2.2,4.9,2.5c1.3,0.2,2.4,0,3.2-0.5c0.5,0.7,1.4,1.8,2.9,2.2
			c0.1,1.1,0.6,3.7,2.7,5.3c1.3,1,2.7,1.1,3.7,1.1c-0.1,0.8-0.1,1.9,0.6,3.1c-3.1,1.6-6.6,3.2-10.3,4.6l3.6,0c2.8-1.2,5.6-2.5,8-3.7
			L115.1,264.5z"/>
		<path fill="#D91C5C" d="M247.7,252.3c2.1-0.6,3.3-2.8,2.7-4.9c-0.2-0.5-0.4-0.9-0.7-1.3c-2,1.7-3.8,3.4-5.3,5.5
			C245.3,252.6,246.2,252.7,247.7,252.3z"/>
		<path fill="#D91C5C" d="M53.9,220.9c-1.8,0.5-2.8,2.4-2.3,4.1c0.5,1.8,2.3,2.8,4.1,2.3c1.8-0.5,2.8-2.3,2.3-4.1
			C57.5,221.4,55.7,220.4,53.9,220.9z"/>
		<path fill="#D91C5C" d="M37.7,195.8c-1,0.7-2.6,2.8-1.1,8.6c3.1,11.9,11.7,18.5,12.1,18.8l0.8,0.6l0.2-1c0.7-3,5.4-4.1,5.4-4.1
			l0.9-0.2l-0.4-0.8c-1.4-2.5-1.7-6.9-1.4-9.7c0.5-3.7,2.1-6.7,4.5-8.5c2.1-1.5,4.5-2.2,7.2-1.7c3.1,0.5,5.8,2.5,6.9,5.3
			c0.9,2.3,0.6,4.7-1,6.7c-1.4,1.8-3.6,3.1-5.6,3.2c-0.7,0-1.7,0-2.4-0.7l-1.9-1.9l0.8,2.6c0.2,0.5,4.1,13.4,18.7,19.9
			c9.3,4.1,15.7,2.9,18.7,0.3c1.7-1.4,2.4-3.4,1.8-5.3c-0.5-1.6-1.5-2.7-2.9-3c-1.2-0.3-2.5,0.2-3.5,1.3c-0.8,1-0.9,1.9-0.7,2.5
			c0.2,1.2,1.3,2.2,2.1,2.6l0.1-0.1c0.4,0.1,0.8,0.1,1.1,0c1.1-0.3,1.8-1.5,1.4-2.6c-0.3-1.1-1.5-1.7-2.6-1.4
			c-0.2,0.1-0.4,0.2-0.5,0.2c0.1-0.1,0.1-0.2,0.2-0.3c0.6-0.7,1.4-1,2.1-0.9c0.8,0.2,1.5,0.9,1.8,2c0.4,1.4-0.1,2.8-1.4,3.9
			c-2.6,2.3-8.5,3.3-17.2-0.5c-11-4.9-15.7-13.7-17.3-17.4c0.5,0.1,1.1,0.2,1.7,0.1c2.4-0.2,5-1.7,6.6-3.8c1.8-2.4,2.3-5.3,1.2-8.1
			c-1.3-3.2-4.3-5.5-7.9-6.1c-3-0.5-5.9,0.2-8.2,2c-2.8,2.1-4.6,5.4-5.1,9.5c-0.3,2.3-0.2,6.6,1.2,9.7c-1.4,0.4-4.2,1.6-5.3,3.9
			c-2.1-1.9-8.4-7.9-10.8-17.4c-0.9-3.6-0.7-6.2,0.5-7.1c0.6-0.4,1.6-0.4,2.4,0.2c0.4,0.2,0.7,0.6,0.9,1c-0.4-0.1-0.8-0.1-1.1,0
			c-1.1,0.3-1.8,1.5-1.4,2.6c0.3,1.1,1.5,1.7,2.6,1.4c0.9-0.2,1.5-1,1.5-1.9l0,0c0.4-1.6-0.2-3.3-1.7-4.3
			C40.4,195.1,38.8,195,37.7,195.8z"/>
		<path fill="#D91C5C" d="M494.8,210.7l2.5,4.7c-4.3-12,1.3-22.9,10.4-25.5c4.8-1.4,9.2-0.8,13.1,1.8c6.5,4.3,6.8,13.4,5.2,17.2
			c-1.7,4.1-6,6-9.1,6.5c-2.1,0.3-5.5-0.5-7.4-2.4c-1.1-1.1-1.6-2.3-1.5-3.8c0.1-1.1,0.5-1.9,1.2-2.4c1.7-1.2,4.6-0.4,4.7-0.4
			l0.4,0.1l0.3-0.3c0.7-0.8,0.9-2.2,0.3-3.8c-0.7-2-2.6-4.5-5.9-5.1c-2.9-0.5-5.5,1.2-6.4,3.2c-0.5,1.1-0.4,2.2,0.2,3
			c0,0.1,0.1,0.1,0.2,0.2c0.1,0.1,0.1,0.1,0.2,0.2l0,0c0.4,0.2,0.8,0.3,1.3,0.2c0.8-0.2,1.3-1.1,1-1.9c-0.2-0.7-0.9-1.2-1.7-1
			c0,0,0-0.1,0-0.1c0.7-1.5,2.7-2.8,4.9-2.4c2.7,0.5,4.2,2.6,4.8,4.2c0.3,0.8,0.3,1.6,0.1,2.1c-1.1-0.2-3.5-0.5-5.3,0.7
			c-1.1,0.8-1.7,1.9-1.8,3.5c-0.2,1.8,0.5,3.5,1.9,4.9c2.3,2.2,6.2,3.1,8.6,2.8c3.5-0.5,8.2-2.7,10.2-7.3c2-4.8,1.2-14.3-5.7-18.9
			c-4.2-2.8-9.1-3.5-14.3-2c-8,2.3-12.5,9.8-13,16.9c-2-5.9-4.8-17-0.9-26.2c2.4-5.8,4.7-8,6.3-8.7l-2.5,0c-1.6,1.5-3.3,4-5.1,8.2
			C486.3,192.4,494.5,210,494.8,210.7z"/>
		<path fill="#D91C5C" d="M503.8,171.9c-0.2,0-0.4,0-0.6,0.1c-0.8,0.2-1.3,1.1-1,1.9c0.2,0.8,1.1,1.3,1.9,1c0.3-0.1,0.6-0.3,0.7-0.5
			c0.6-0.6,0.8-1.4,0.5-2.4c-0.1-0.5-0.4-1-0.8-1.4l-2,0C503.1,170.8,503.6,171.3,503.8,171.9z"/>
		<path fill="#D91C5C" d="M370.3,123.4c-0.7,0.2-1.1,0.9-0.9,1.7c0.2,0.7,0.9,1.1,1.6,0.9c0.7-0.2,1.1-0.9,0.9-1.7
			C371.8,123.6,371,123.2,370.3,123.4z"/>
		<path fill="#D91C5C" d="M481.3,226.2c-0.9,0.3-1.5,1.2-1.2,2.2c0.3,0.9,1.3,1.5,2.2,1.2c0.9-0.3,1.5-1.2,1.2-2.2
			C483.3,226.5,482.3,225.9,481.3,226.2z"/>
		<path fill="#D91C5C" d="M369.4,130.5c-0.9,0.3-1.5,1.2-1.2,2.2c0.3,0.9,1.2,1.5,2.2,1.2c0.9-0.3,1.5-1.2,1.2-2.2
			C371.3,130.7,370.4,130.2,369.4,130.5z"/>
		<path fill="#D91C5C" d="M511.4,267.8c-0.3,0.2-0.6,0.5-1,0.7h0.4C511,268.3,511.2,268.1,511.4,267.8L511.4,267.8z"/>
		<path fill="#D91C5C" d="M481.4,206.1c0.7-0.2,1.1-0.9,0.9-1.6c-0.2-0.7-0.9-1.1-1.6-0.9c-0.7,0.2-1.1,0.9-0.9,1.6
			C480,205.9,480.7,206.3,481.4,206.1z"/>
		<path fill="#D91C5C" d="M427.8,194.4c2-0.6,3.2-2.7,2.6-4.8c-0.6-2-2.7-3.2-4.8-2.6c-2,0.6-3.2,2.7-2.6,4.8
			C423.7,193.8,425.8,194.9,427.8,194.4z"/>
		<path fill="#D91C5C" d="M495.7,235.6c1.7-0.5,2.6-2.2,2.2-3.9c-0.5-1.7-2.2-2.6-3.9-2.2c-1.7,0.5-2.6,2.2-2.2,3.9
			C492.3,235.1,494,236,495.7,235.6z"/>
		<path fill="#D91C5C" d="M436.7,229.4l0.1,0c-3.2-4.9-8.2-18.6-2.6-24.2c2.5-2.5,5.2-3.6,7.9-3.2c3.5,0.5,7.1,3.3,9.8,7.8
			c8.3,13.9,20.3,29.8,40,29.7l2,0l-1.5-1.2c0,0-2.2-1.8-2.9-4.2c-0.7-2.4,0.1-5.7,4.5-7.5l0.7-0.3l-0.4-0.7c-1-1.9-1.3-3.3-0.7-4.4
			c0.8-1.6,3.2-1.9,3.2-1.9l1.5-0.2l-1.1-1c-1-1.4-14.3-20.4-7.6-41.4c0.7-2.1,1.6-4.2,2.6-6.1l-1.6,0c-0.9,1.8-1.8,3.7-2.4,5.7
			c-6.3,19.9,4.5,37.8,7.3,41.9c-1,0.3-2.5,1-3.2,2.4c-0.7,1.4-0.6,3.1,0.4,5.1c-4.6,2.2-5.4,5.9-4.6,8.8c0.4,1.5,1.3,2.7,2,3.6
			c-17.9-0.9-29.2-15.8-37-29c-2.9-4.9-6.9-8-10.8-8.5c-2.4-0.3-4.7,0.3-6.9,1.8c0-0.4,0-0.7-0.1-1.1c-0.5-1.7-2.2-2.6-3.9-2.2
			c-1.3,0.4-2.2,1.6-2.3,2.9c-1.4-1.6-3.6-2.3-5.8-1.7c-0.6,0.2-1.2,0.5-1.8,0.9c0-0.4,0-0.7-0.1-1.1c-0.5-1.7-2.2-2.6-3.9-2.1
			c-1.2,0.3-2,1.3-2.2,2.4c-11.2-17.2-20.7-38.6-20.1-60.8c0.2-6.9,1.3-12.9,2.9-18.2c-0.5-0.1-0.9-0.2-1.4-0.3
			c-1.6,5.3-2.7,11.4-2.9,18.4C392.9,176.4,420.7,212,436.7,229.4z M424,202.4c1.8-0.5,3.8,0.5,4.3,2.4c0.5,1.9-0.5,3.8-2.4,4.3
			c-1.8,0.5-3.8-0.5-4.3-2.4C421,204.8,422.1,202.9,424,202.4z"/>
		<path fill="#D91C5C" d="M525.1,175.9c1.7,2.7,4.9,4,8.8,3.1c4.3-1,7.2-4.2,8-8.6l-1.4,0c-0.8,3.6-3.2,6.2-6.9,6.9
			c-3.8,0.7-5.7-1.5-6.1-2.6c-0.2-0.4-0.3-0.8-0.3-1.1c0.3,0,0.5,0,0.8-0.1c1.4-0.4,2.2-1.7,1.9-3.1l-5.6,0
			C523.7,172.2,524,174.3,525.1,175.9z"/>
		<path fill="#D91C5C" d="M425.5,207.8c1.1-0.3,1.8-1.5,1.4-2.6c-0.3-1.1-1.5-1.8-2.6-1.4c-1.1,0.3-1.8,1.5-1.4,2.6
			C423.2,207.4,424.4,208.1,425.5,207.8z"/>
		<path fill="#D91C5C" d="M497.4,225.2c1.1-0.3,1.8-1.5,1.4-2.6c-0.3-1.1-1.5-1.8-2.6-1.4c-1.1,0.3-1.7,1.5-1.4,2.6
			C495.2,224.9,496.3,225.5,497.4,225.2z"/>
		<path fill="#D91C5C" d="M437.8,198c-0.5-0.8-1.6-2.2-3.5-2.6c-3.1-0.6-5.5,1-6.3,1.6c-1.6-0.9-3.4-0.9-4.2-0.8
			c-0.3-0.5-1.1-1.6-2.1-2.2c-1.6-1-3-1.2-4.3-0.8c-1,0.3-1.7,1-2.1,1.7c-2.1-3.9-7.1-14.3-8.3-18.3c-0.7-2.5,0-5.4,1.6-6.9
			c0.3-0.3,0.8-0.6,1.4-0.8c-0.2,0.4-0.3,0.9-0.2,1.4c0.3,1.2,1.5,1.8,2.7,1.5c1.2-0.3,1.8-1.5,1.5-2.7c-0.2-0.7-0.7-1.1-1.3-1.3
			l0-0.1c-2.1-0.8-3.6-0.4-5.1,1c-2,1.9-2.9,5.3-2,8.3c1.4,4.9,7.6,17.4,9,19.8l0.7,1.3l0.5-1.4c0,0,0.6-1.6,1.9-2
			c0.9-0.3,1.9-0.1,3.1,0.6c0.8,0.5,1.6,1.7,1.9,2.1l0.2,0.4l0.4-0.1c0,0,2.5-0.4,4.1,0.7l0.4,0.3l0.4-0.4c0,0,2.4-2.1,5.4-1.6
			c1.9,0.4,2.8,2.3,2.8,2.3l0.3,0.6l0.6-0.2c0.3-0.1,7.3-2.3,13.2,4.2c2.1,2.3,4.1,5.3,6,8.2c3.4,5.2,6.7,10.2,10.3,10.4
			c3.4,0.2,5.7-2.3,6.4-4.7c0.6-2.1,0-4-1.5-4.8L472,213c-0.4-0.3-0.9-0.5-1.5-0.4c-0.9,0.3-1.5,1.2-1.2,2.2
			c0.3,0.9,1.2,1.4,2.2,1.2c0.4-0.1,0.7-0.4,0.9-0.7c0.1,0.6,0.1,1.3-0.1,1.9c-0.6,1.9-2.3,3.9-5,3.7c-2.9-0.2-6-4.9-9.2-9.8
			c-2-3-4-6-6.1-8.4C446.3,196.6,439.7,197.6,437.8,198z"/>
		<path fill="#D91C5C" d="M402.4,169.1l0.6,1.4l0.7-1.4c2.2-4.3,5.3-4.8,6.9-4.7c2.6,0.2,4.9,1.9,5.7,4.2c0.7,2.1,0,4.3-2.1,6.1
			c-1.8,1.6-4.8-0.9-4.8-0.9l-1.1-1l-0.1,1.5c-0.2,4.6,5.9,14.6,6.1,15l0.5,0.8l0.6-0.7c0.5-0.6,1-0.8,1.4-0.8
			c0.7,0.1,1.4,1,1.6,1.3l1.2,2.1l0.1-2.5c0-1.2,0.9-3.1,2.4-4.3c1.3-1.1,2.8-1.5,4.4-1.2c7.4,1.1,6.7,7.8,6.7,8.1l-0.2,1.3l1.2-0.6
			c1.1-0.5,2-0.6,2.9-0.3c1.6,0.7,2.4,2.8,2.4,2.8l0.3,0.8l0.7-0.5c6.4-4.4,5.3-10.3,4.2-15.4c-0.4-1.7-0.7-3.4-0.7-4.8
			c0-2.5,0.8-4.5,2-5.1c0,0,0.1,0,0.1,0c-0.3,0.5-0.4,1.1-0.2,1.7c0.3,1.1,1.5,1.8,2.7,1.5c1.2-0.3,1.8-1.5,1.5-2.7
			c-0.1-0.5-0.5-0.9-0.9-1.2l0.1-0.2c-1.4-0.9-2.7-1-3.9-0.3c-1.7,0.9-2.7,3.3-2.7,6.3c0,1.6,0.4,3.3,0.7,5.1
			c0.9,4.7,1.8,9.5-3.1,13.4c-0.5-0.9-1.3-2.1-2.8-2.7c-0.9-0.4-1.9-0.3-3,0c-0.1-2.2-0.9-7.5-7.9-8.6c-2-0.3-3.9,0.2-5.5,1.5
			c-1.4,1.1-2.1,2.6-2.5,4c-0.5-0.4-1-0.9-1.8-0.9c-0.7-0.1-1.3,0.2-1.9,0.7c-1.2-2-4.7-8.3-5.4-12.2c1.4,0.8,3.5,1.7,5.3,0
			c2.5-2.2,3.4-5,2.5-7.6c-1-2.8-3.8-4.9-6.9-5.1c-3-0.2-5.6,1.4-7.5,4.3c-1.5-4.1-6.1-18.1-4-31.6c0.8-5.2,2.7-8.3,5.1-8.6
			c1.7-0.2,3.1,1.1,3.6,2.3c0.1,0.2,0.2,0.6,0.2,1.1c-0.5-0.4-1.2-0.7-1.9-0.5c-1.2,0.3-1.8,1.5-1.5,2.7c0.3,1.2,1.5,1.8,2.7,1.5
			c0.2-0.1,0.2-0.2,0.4-0.3l0,0c0,0,0-0.1,0.1-0.1c0.5-0.3,0.8-0.7,0.9-1.3c0.7-1.1,0.9-2.3,0.4-3.6c-0.8-2.1-3-3.4-5.1-3.2
			c-1.8,0.2-5.1,1.8-6.3,9.8C395.3,151.8,402.3,168.9,402.4,169.1z"/>
		<path fill="#D91C5C" d="M436.5,150c-0.7,0.2-1.3,0.3-2,0.3l-1.1,0l0.5,1c0.1,0.1,6.3,11.7,21.6,9.5c6.7-0.9,9.7-3.2,11.2-5.3
			c-0.4-0.3-0.7-0.6-1.1-0.9c-1.2,1.8-3.9,3.9-10.3,4.8c-12.2,1.7-18-5.5-19.7-8c0.4-0.1,0.8-0.1,1.2-0.2c2.8-0.8,5-2.8,6.1-5.3
			c-0.4-0.3-0.7-0.7-1.1-1C441,147.4,439.1,149.3,436.5,150z"/>
		<path fill="#D91C5C" d="M425.4,137.9c-0.7,1.1-6,11.3,6.1,23.4c5.5,5.5,8.5,11.8,8,17c-0.2,2.1-1,3.8-2.1,4.6
			c-1.4,0.9-2.6,1.3-3.5,1c-0.6-0.2-1-0.7-1.2-1.5c-0.1-0.4,0.2-0.7,0.2-1c0.4,0.3,0.9,0.4,1.4,0.2c0.9-0.3,1.5-1.2,1.2-2.2
			c-0.1-0.4-0.4-0.8-0.8-1l0-0.2c-0.2,0-0.4,0-0.6,0.1c-0.3-0.1-0.5-0.2-0.8-0.1c-0.5,0.1-0.8,0.5-1.1,0.9c0,0-0.1,0.1-0.1,0.1
			c-0.9,0.9-1.1,2.3-0.8,3.6c0.5,1.5,1.4,2.2,2.1,2.4c1.3,0.5,3,0.1,4.7-1.1c1.5-1,2.5-3.1,2.7-5.6c0.2-2.7-0.1-9.9-8.4-18.2
			c-11.4-11.4-6.5-20.7-5.9-21.8c0.9-1.5,1.9-2.6,3-3.4c-0.4-0.3-0.8-0.6-1.2-0.8C427.2,135.2,426.2,136.4,425.4,137.9z"/>
		<path fill="#D91C5C" d="M458.9,151.9l0.3-0.1c0.4,0.5,0.9,0.9,1.6,0.9c0.4,0,0.8-0.2,1.2-0.4c-1.1-0.6-2.2-1.1-3.3-1.5
			c0,0.2,0.2,0.4,0.2,0.5C458.9,151.5,458.8,151.7,458.9,151.9z"/>
		<path fill="#D91C5C" d="M361.2,150.3c19.5,29,41.4,50,40.9,50.4c0.7-0.2-23.7-31-39-66.5c-1.7-4-3.2-8.1-4.6-12.1
			c-4,1-7.8,2.2-11.6,3.8c2.1,4.4,4.4,8.8,6.9,13c0.7,1.2,1.5,2.3,2.3,3.5c-4.5-4.9-9.4-9.6-14.6-14.2c-0.4,0.2-0.9,0.4-1.3,0.6
			C348,135.6,355,142.7,361.2,150.3z"/>
		<path fill="#D91C5C" d="M182.5,171.3c0.6-0.2,1.2-0.5,1.7-0.8l-6.4,0C179,171.4,180.8,171.8,182.5,171.3z"/>
		<path fill="#D91C5C" d="M373.8,151.4l0.3-2.1c0,0,0.3-1.7,2-2.3c2.3-0.8,4,1.2,4.5,1.9c-0.4-1.5-3.7-14.4-2.9-29.5
			c-0.4,0-0.9,0-1.3,0c-0.5,12.1,1.6,22.6,2.6,26.7c-0.9-0.5-2.1-0.8-3.3-0.4c-1.3,0.4-2,1.2-2.5,1.9c-5.1-9.3-8.9-17.8-11.7-26.4
			c-0.5,0.1-0.9,0.2-1.4,0.3c2.9,9.1,7,18.2,12.6,28.1L373.8,151.4z"/>
		<path fill="#D91C5C" d="M376.8,148.9c-1.1,0.3-1.8,1.5-1.4,2.6c0.3,1.1,1.5,1.8,2.6,1.4c1.1-0.3,1.8-1.5,1.4-2.6
			C379.1,149.3,377.9,148.6,376.8,148.9z"/>
		<path fill="#D91C5C" d="M380.8,149.2c0,0-0.1-0.1-0.2-0.2c0,0.1,0,0.1,0,0.1L380.8,149.2z"/>
		<path fill="#D91C5C" d="M671.2,256.5c-0.7-0.5-1.3-1-2-1.5c-10-7.1-21.7-12.5-31.8-14.4c-10.3-2.1-17.4-1-18.6-1.1
			c-4.9,0.5-8.3,4.1-7.6,7.4c0.7,3.4,4.6,5.5,8.9,5c1,0,7.4-1.6,15.7-0.9c8.6,0.5,19.8,3.8,30.1,9.3c4.9,2.6,9.6,5.5,13.9,8.4l6.1,0
			c-3.1-2.9-6.5-5.8-10.2-8.7c-11-10.6-20.2-24.3-27.8-41.8c-6.9-15.7-11.6-32.1-15.5-47.7l-0.9,0c3.8,15.2,8.7,32.2,15.6,48
			C653.9,233.9,661.9,246.4,671.2,256.5z"/>
		<path fill="#D91C5C" d="M658.6,187.5c0.9,0.3,1.9-0.1,2.3-1c0.3-0.9-0.1-1.9-1-2.2c-0.9-0.3-1.9,0.1-2.3,1
			C657.2,186.1,657.7,187.1,658.6,187.5z"/>
		<path fill="#D91C5C" d="M674.8,268.7l1.2,0c0,0-0.1-0.1-0.1-0.1C675.4,268.4,675.1,268.5,674.8,268.7z"/>
		<path fill="#D91C5C" d="M684.9,171.8c-4,6.7-7.3,12.4-9.2,19.2c-3.9,13.3-3.2,27.6,2,42.4c3.5,9.8,5.5,13.5,5.6,13.7l0.6,1.1
			l0.2-1.3c0.2-1.5,0.9-2.6,1.9-3.1c0.8-0.4,1.8-0.3,2.8,0.2l1.2,0.6l-0.6-1.2c-0.1-0.1-7-14.8-6.7-26.5l0-0.3l-0.3-0.1
			c-0.1,0-2.7-1.1-1.6-4.1l0.1-0.3l-0.3-0.2c-0.1-0.1-2.3-1.5-2-4.1c0.3-2.9,2.6-3.6,2.7-3.6l0.3-0.1l0-0.3c0-0.1-0.1-2.6,2-3.2
			l0.3-0.1l0-0.3c0-0.2,1.3-15.3,9.8-30l-1,0c-7.7,13.6-9.4,27.6-9.6,29.7c-1.8,0.7-2.3,2.5-2.3,3.7c-0.8,0.3-2.7,1.4-3,4.2
			c-0.2,2.5,1.5,4.1,2.2,4.7c-0.9,2.9,1.2,4.3,1.9,4.7c-0.2,10.1,4.8,22.2,6.4,25.6c-0.9-0.2-1.8-0.2-2.5,0.2
			c-0.9,0.5-1.7,1.4-2.1,2.6c-0.8-1.7-2.6-5.6-5-12.5c-5.1-14.6-5.8-28.7-2-41.9c1.9-6.7,5.1-12.3,9.1-19l0.4-0.6
			c0.2-0.4,0.5-0.8,0.8-1.3l-1,0c-0.2,0.3-0.4,0.6-0.5,0.8L684.9,171.8z"/>
		<path fill="#D91C5C" d="M638.1,181c5.2,22.6,12.9,39.7,13,39.9l3.2,6.7l-2.4-7c-4.3-14-7.7-27.8-4-33.5c1.3-2,2.7-3.1,4.2-3.2
			c1.9-0.2,3.4,1.4,3.4,1.4l0.5,0.5l0.2-0.6c0,0,0.2-0.5,0.6-1.2c0.4-0.7,0.9-1.1,1.6-1.3c1.3-0.3,2.6,0.5,2.6,0.5l0.5,0.3l0.2-0.5
			c1.3-4.5,3-8.6,5.4-12.6l-1,0c-2.2,3.8-3.9,7.7-5.1,11.9c-0.6-0.3-1.7-0.6-2.8-0.4c-0.9,0.2-1.6,0.8-2.1,1.7
			c-0.2,0.3-0.3,0.6-0.4,0.8c-0.7-0.5-2-1.4-3.6-1.2c-1.8,0.1-3.4,1.3-4.8,3.6c-3.1,4.7-1.8,14,1.6,26.5c-2.7-7.1-6.8-18.7-9.9-32.4
			c-1-4.2-1.2-7.7-0.7-10.4l-0.8,0C636.9,173.3,637.1,176.8,638.1,181z"/>
		<path fill="#D91C5C" d="M699.3,179.1c0.1,0,5.6-5.8,9.6-4.2c4.5,1.8,3.6,7.1,2.9,8.8l1-1.9c0.1-0.1,3-5,7.7-11.4l-1,0
			c-2.9,4-5.1,7.3-6.3,9.3c-0.1-1.8-0.7-4.2-3.9-5.5c-2.3-0.9-4.5-0.2-6.3,1.1c1.1-1.5,2.5-3.2,3.8-4.9l-1.1,0
			c-2.3,2.8-4.4,5.7-5.6,7.6L699.3,179.1z"/>
		<path fill="#D91C5C" d="M752,229.5c-4.7,0.4-9.2,2.1-12.9,5c-2.5,1.9-4.5,4.2-6.1,6.9c-1.3,2.2-2.8,5.4-3.6,7.8
			c2.4-4.1,4.5-8.3,8.7-11.3c2.1-1.5,4.5-2.1,6.8-1.5c1.9,0.5,3.4,1.8,4.2,3.7c1.8,4.1-1.3,8.3-3.7,11.7c-0.9,1.2-1.7,2.4-2.2,3.4
			c-1.6,3.2-3.1,7.3-3.2,13.5l0.8,0c0.1-6,1.6-10,3.1-13.1c0.5-1,1.3-2.1,2.2-3.3c2.6-3.6,5.2-10.5,3.8-12.6
			c-1.3-1.9-2.6-3.5-4.8-4.1c-2.5-0.7-5.2-0.1-7.5,1.6c-0.6,0.5-1.2,0.9-1.7,1.4c2.9-3.5,7.9-7.5,16.1-8.3c3.1-0.3,5.5,0,7.4,0.6
			v-0.9C757.5,229.5,755,229.3,752,229.5z"/>
		<path fill="#D91C5C" d="M743.2,268.7l0.9,0c1.9-10,8.6-18.6,15.4-20v-0.9C752.2,249.3,745.1,258.2,743.2,268.7z"/>
		<path fill="#D91C5C" d="M739.1,197.4c0.2,0.2,0.5,0.4,0.8,0.5c1.3,0.5,2.6-0.2,3.1-1.4c0.3-0.9,0.3-1.4-0.3-2
			C741.3,195.3,740.2,196.3,739.1,197.4z"/>
		<path fill="#D91C5C" d="M740.9,214.3c-0.4-0.2-0.9,0-1,0.5c-0.2,0.4,0,0.9,0.5,1c0.4,0.2,0.9-0.1,1-0.5
			C741.5,215,741.3,214.5,740.9,214.3z"/>
		<path fill="#D91C5C" d="M726.4,220c-0.6-0.2-1.2,0.1-1.4,0.6c-0.2,0.6,0.1,1.2,0.6,1.4c0.5,0.2,1.2-0.1,1.4-0.6
			C727.3,220.9,727,220.2,726.4,220z"/>
		<path fill="#D91C5C" d="M736.5,229.5c-0.5-0.2-1,0.1-1.2,0.5c-0.2,0.5,0.1,1,0.5,1.2c0.5,0.2,1.1-0.1,1.2-0.6
			C737.2,230.2,736.9,229.6,736.5,229.5z"/>
		<path fill="#D91C5C" d="M718.9,233.8c-0.8-0.3-1.6,0.1-1.9,0.9c-0.3,0.8,0.1,1.6,0.9,1.9c0.8,0.3,1.6-0.1,1.9-0.9
			C720,235,719.6,234.1,718.9,233.8z"/>
		<path fill="#D91C5C" d="M723.7,221.9c-0.9-0.4-2,0.1-2.4,1.1c-0.4,0.9,0.1,2,1.1,2.4c0.9,0.4,2-0.1,2.3-1.1
			C725.1,223.3,724.7,222.2,723.7,221.9z"/>
		<path fill="#D91C5C" d="M727.6,190.3L727.6,190.3c10.2-10.7,20-16.7,27.5-20l-1.9,0c-5.8,2.8-12.7,7.2-20.1,14
			c3.5-3.9,8.9-9.1,16.2-14l-1.3,0C734.6,179.6,727.7,190.2,727.6,190.3z"/>
		<path fill="#D91C5C" d="M740.2,219.5c-0.6-0.2-1.2,0.1-1.4,0.6c-0.2,0.6,0.1,1.2,0.6,1.4c0.6,0.2,1.2-0.1,1.4-0.6
			C741,220.3,740.7,219.7,740.2,219.5z"/>
		<path fill="#D91C5C" d="M738.4,205.8c-0.4-0.2-0.9,0.1-1,0.5c-0.2,0.4,0,0.9,0.5,1c0.4,0.2,0.9-0.1,1-0.5
			C739,206.5,738.8,206,738.4,205.8z"/>
		<path fill="#D91C5C" d="M746.3,226.1c-3.3,1.3-6.2,3.2-8.9,5.5c-0.1,0.1-0.2,0.2-0.4,0.3c-1.1,1-2.3,1.9-3.3,3
			c-1.6,1.7-3.1,3.5-4.2,5.6l0,0c-1.3,2.2-2.4,4.6-3.2,7.1c-2.3,6.9-2.1,14.2-0.8,21.1l0.8,0c-1.3-6.9-1.5-14.1,0.8-20.9
			c1.6-4.8,4.1-9,7.4-12.6c0.6-0.6,1.3-1.2,1.9-1.7c0.5-0.5,1-0.9,1.5-1.3c3.1-2.2,6.7-3.8,10.8-4.7c3.5-0.8,7.1-0.9,10.7-0.6V226
			c-3.7-0.3-7.4-0.1-10.9,0.6c-1.4,0.3-2.7,0.8-4,1.3c0.7-0.3,1.3-0.8,2-1.1c3.3-1.3,7.7-2.3,12.9-2.1v-0.9
			C754.2,223.7,749.7,224.8,746.3,226.1z"/>
		<path fill="#D91C5C" d="M745.2,248.1c2.8-3.6,2.6-7.2,0.6-9c-4.1-3.7-10.2,3.5-11.7,6.5c-2.6,5-3.9,10.9-4.2,16.4
			c-0.2,2.1,0,4.4,0.3,6.7l7.8,0c0-1.2,0.1-2.4,0.3-3.5C739.6,255.9,744.1,250.2,745.2,248.1z"/>
		<path fill="#D91C5C" d="M723.4,254.1c0.4-13.4,8.3-24.4,9-25.1c1.4-1.9,1.6-4.3,0.4-5.4c-1.2-1-3.6-0.1-5.2,2.1
			c-0.6,0.5-3.7,6-5.6,13.4c-0.3-0.4-0.7-0.7-1.2-0.9c-3-0.7-4.5,3.2-4.9,5.9c-0.5,2.9-0.3,5.8,0.1,8.6c0.9,5.5,2.5,10.2,3.8,14.2
			c0.2,0.6,0.4,1.2,0.6,1.8l4.4,0C723.7,264.5,722.9,259.4,723.4,254.1z"/>
		<path fill="#D91C5C" d="M718.1,189.4c-0.1,0.2-0.2,0.4-0.3,0.6c-2.7,5-4.6,9.8-6.1,14.4c-0.2,0.7-0.4,1.4-0.6,2
			c-0.4,1.3-0.8,2.6-1.1,3.9c-4.3,16.8-3.6,33.7-0.3,45.9c1.2,4.6,2.7,8.9,4.3,12.5l5.9,0c-0.2-0.5-0.4-1-0.6-1.6
			c-1.4-4-3.2-8.7-4.2-14.3c-0.5-2.8,0.2-11,0.6-12.1c0,0,0.2-0.6,0.3-0.9c0.4-1.1-0.1-7.5,0.3-7l0.2,0.3l0.3-0.2c0,0,1.9-0.9,3.4,0
			c1.8,1.2,1.7,2.7,1.7,2.7l0.2-0.4c0-0.1,2.7-8,4.6-10.9c1.4-2.1,3.5-3.2,5.4-3.1c1.4,0.1,2.5,0.9,3.2,2.3c0.7,1.6-0.1,3.5-1.7,5.5
			l0.1,0.1c0,0,1.6-1.1,2.8-1c0.6,0.1,1.1,0.5,1.5,1.2l0.2,0.4l0.4-0.3c0,0,2.7-2.3,6.5-5.3c1.4-1.1,6-5,6-8.3
			c0-0.9-0.4-1.7-1.1-2.3c-1-0.8-2.2-1.1-3.3-0.7c-1.1,0.4-1.9,1.3-2.2,2.4l0.1,0c0,0.7,0.3,1.3,1,1.5c0.8,0.3,1.7-0.1,2-0.9
			c0.3-0.8-0.1-1.7-0.9-2c-0.1,0-0.1,0-0.2-0.1c0.1-0.1,0.3-0.2,0.5-0.2c0.8-0.3,1.7-0.1,2.5,0.6c0.5,0.4,0.8,1,0.8,1.6
			c0,2.3-3,5.4-5.7,7.6c-3,2.4-5.4,4.4-6.2,5.1c-0.5-0.7-1.2-1.2-1.9-1.2c-0.4,0-0.7,0-1,0.1c0.9-1.5,1.2-2.8,0.6-4.3
			c-0.7-1.6-2.1-2.6-3.9-2.8c-2.3-0.2-4.6,1.1-6.2,3.4c-0.5,0.8-1.1,1.9-1.7,3.2c-0.9-0.9-3.1-1-4.5-0.1c-1.4,0.9-2,1.8-2.2,2.2
			c0.5-1.7,1.3-3.5,2.2-5.3c1.3-2.4,2.7-3.4,3.8-2.9l0.5,0.2l0.1-0.5c0-0.1,0.3-1.3,1.8-1.3c1.4,0,2.4,1.5,2.4,1.6l0-0.3
			c0-0.1-0.4-6.8,2.9-8.6c1.1-0.6,2-0.6,2.7-0.2c0.7,0.4,1.1,1.3,1,1.9c0,0.6-0.4,1-0.8,1.3c0-0.5-0.3-0.9-0.8-1.1
			c-0.6-0.2-1.3,0.1-1.5,0.7c-0.2,0.6,0.1,1.3,0.7,1.5c0.2,0.1,0.5,0.1,0.7,0c0.3,0,0.6-0.1,0.9-0.2c0.8-0.3,1.7-1.1,1.7-2.3
			c0-1.1-0.6-2.1-1.4-2.7c-1-0.6-2.3-0.5-3.6,0.2c-2.7,1.4-3.2,5.5-3.3,7.8c-0.4-0.3-0.9-0.6-1.6-0.6c-1.4,0-2.2,0.9-2.5,1.5
			c-0.7-0.2-1.4,0.1-2.1,0.6c2-3.7,4.2-7.1,5.5-8.7c5.2-6.7,9.8-11.1,10.9-12c0.9,0.4,3.8,1.5,6.6-1.4c1.9-2,1.1-4.2,0.7-5.1
			c5.5-3,10.1-5.1,14.4-5.6v-0.9c-4.5,0.5-9.4,2.7-15.2,5.9l-0.4,0.2l0.3,0.4c0.1,0.1,1.6,2.4-0.3,4.4c-2.7,2.8-5.5,1.3-5.8,1.2
			l-0.2-0.2l-0.3,0.3c-0.1,0-5.3,4.6-11.2,12.3c-1.7,2.3-5.1,7.6-7.4,12.8c-0.1,0.1-0.1,0.2-0.2,0.3l0,0c-0.6,1.3-1.2,2.7-1.6,3.9
			c-0.1-0.1-0.2-0.1-0.3-0.2c-0.6-0.2,0.7-1.8,0.3-1.7c1.7-4.5,8.1-22.3,25.6-34.4c6.4-4.4,11.9-7,16.7-8.5v-0.9
			c-4.9,1.4-10.6,4.1-17.2,8.7c-20.1,14-27.8,36.9-27.8,37.1l-0.2,0.6c-0.2,0.4-0.5,0.9-0.7,1.4c0,0-0.1,0-0.1,0
			c1.5-6.8,4.1-14.2,8.3-21.2c6.7-11,18-21.4,30.1-27.8c2.3-1.2,4.8-2.4,7.6-3.5v-0.9c-2.9,1.1-5.6,2.4-8,3.6
			c-12.3,6.5-23.6,17-30.4,28.1c-6.5,10.7-9.1,22.3-10.1,31.3c0.3-7.3,1.6-15.5,4.6-23.9c5.3-15.1,15-27.6,28.9-37.1
			c4.6-3.2,9.7-5.7,15-7.7v-0.8c-5.5,2-10.8,4.6-15.5,7.8c-14,9.6-23.8,22.2-29.2,37.5c-2.6,7.4-3.9,14.7-4.4,21.3
			c0.5-12.2,3.4-25.6,9.8-37.6c5.9-12.1,14.9-22,24.4-29.2l-12.9,0c-5,5.7-9.2,11.5-12.7,17.4C718.7,188.3,718.4,188.8,718.1,189.4z
			"/>
		<path fill="#D91C5C" d="M684.7,202.1c-1.4,0-2.6,1.5-2.3,2.8c0,0,0,0,0,0c-1.7,0.8-2.8,2.5-2.1,4.3c0.9,2.4,2.4,2.4,3.7,2.3
			c-1.8-0.1-2.8,2-2.2,3.4c0.4,1,1.8,1.1,2.1,1.2c0.5,10.5,3.3,20.8,8.5,31.1c-1.4-1-3-1.3-4.8-0.7c-2.2,0.7-2.8,2.9-2.2,4.9
			c0.5,1.4,2.2,5.4,10.7,17.5l0,0l10.4,0c-1.6-2.5-3.2-5-4.7-7.5c-7.8-14.4-13.5-30-13.8-45c-0.3-15.3,3.7-28.9,12.2-41.4
			c1-1.5,2.1-2.9,3.2-4.3l-1,0c-1,1.3-1.9,2.5-2.8,3.8c-8.6,12.7-12.7,26.4-12.4,41.9c0.2,11.7,3.7,23.8,8.9,35.4
			c-0.7-1-1.4-1.6-1.8-2.7c-11.4-21.1-12.7-42.8-3.8-64.6c2-5,4.4-9.6,7-13.9l-1,0c-2.5,4.2-4.9,8.7-6.9,13.5
			C687.3,190,685.7,196,684.7,202.1z"/>
		<path fill="#D91C5C" d="M704.4,253.1c-1.3-3.4-2.4-7-3.2-10.7c-3-12.9-2-26.6,0.2-36.3c2.6-9.7,6.3-16.3,6.7-17.5
			c2-4.6,2.2-8.9,0.1-10.4c-2.2-1.5-6.5,1.5-8.7,6.6c-0.5,1.3-3.8,8.4-5.9,19.7c-1.6,11.2-1.4,25.7,3,39.2c3,9.5,7.7,18,12.3,25
			l2.7,0c-0.4-0.7-0.7-1.3-1.1-1.9c-2-4-3.7-8.1-5-12.4c-5.5-19.1-4.6-38.2,2.6-56.6c3.7-9.5,9.2-18.7,16.1-27.3l-1.1,0
			c-6.7,8.5-12.1,17.6-15.8,27C700.3,215.6,699.3,234.3,704.4,253.1z"/>
		<path fill="#D91C5C" d="M660.7,207.5c0.2,17.7,10.5,37,23.2,53.4c-2.7-3.2-13.6-15.7-19.8-30.6c-8.3-17.2-7.1-34.1-6.7-37.2
			c0.3-3.2-1.2-6.3-3.7-7c-2.5-0.6-5.2,2.1-5.6,6.2c-1,2,1.9,23.2,11.9,40.1c8.4,14.2,18.3,24.8,29.4,36.2l6,0
			c-5.2-6-9.6-12.4-12.9-19.6c-5.9-12.7-11.9-27.6-11.2-41.8c0.1-18.6,7.8-29.3,8.7-31c1.3-2.1,2.5-4.1,3.5-5.9l-14.6,0
			C666.8,174,659.5,187.9,660.7,207.5z"/>
		<path fill="#D91C5C" d="M659.5,265.2c0.4,0.2,0.9-0.1,1.1-0.5c0.2-0.4-0.1-0.9-0.5-1c-0.4-0.2-0.9,0.1-1.1,0.5
			C658.9,264.5,659.1,265,659.5,265.2z"/>
		<path fill="#D91C5C" d="M633.3,194.4c4.1,13.6,9.8,26.3,16.9,37.9l0.4,0.6c0.5,0.8,0.9,1.5,1.4,2.3c-0.2-0.1-0.3-0.2-0.5-0.3
			c-1.8-0.7-3.7,0.2-4.4,2c0,0,0,0.1,0,0.2c-0.4-0.6-1.1-1-1.8-1.1c-1.5-0.2-3,0.8-3.2,2.3c0,0.2,0,0.3,0.1,0.5
			c-7.4-2.2-15.9-3.5-24.1-2.1c-8.1,1.4-9.9,5.5-10.2,7.9c-0.5,3.5,1.6,7.5,4.9,9.1c3.5,1.7,8.7,1.2,14.1,0.7
			c4.3-0.4,8.8-0.9,13-0.3c12.4,1.6,22.2,5.5,33.7,13.1c-0.5,0.2-1,0.6-1.3,1.4c0,0,0,0.1,0,0.1l0.9,0c0.5-0.8,1.4-1,1.4-1l1.3-0.1
			l-1-0.7c-11.9-8.1-22-12.1-34.8-13.8c-4.3-0.6-8.8-0.1-13.2,0.3c-5.3,0.5-10.3,1-13.7-0.6c-2.9-1.4-4.9-5-4.4-8.2
			c0.5-3.6,3.9-6.2,9.5-7.1c20.9-3.6,44.1,10.5,44.3,10.7l0.1,0c-4.7-4.4-7.9-10.3-11.2-15.7l-0.4-0.6
			c-7.1-11.5-12.7-24.3-16.8-37.7c-1-3.4-1.9-6.9-2.8-10.2c-1.2-4.5-2.4-9-3.8-13.5l-0.9,0c1.5,4.5,2.7,9.1,3.9,13.7
			C631.4,187.5,632.3,191,633.3,194.4z"/>
		<path fill="#D91C5C" d="M645.1,268.6l5.2,0c3.3-0.3,6.5-0.3,9.5,0l5.2,0C659.6,267.6,652.3,267,645.1,268.6z"/>
		<path fill="#D91C5C" d="M664,265.3c0.5,0.2,1.2-0.1,1.4-0.6c0.2-0.5-0.1-1.2-0.6-1.4c-0.5-0.2-1.2,0.1-1.4,0.6
			C663.2,264.5,663.4,265.1,664,265.3z"/>
		<path fill="#D91C5C" d="M628.6,203.5c-0.4-0.2-0.9,0.1-1,0.5c-0.2,0.4,0.1,0.9,0.5,1c0.4,0.2,0.9,0,1-0.5
			C629.2,204.1,629,203.6,628.6,203.5z"/>
		<path fill="#D91C5C" d="M626.9,212.1c-0.2,0.4,0,0.9,0.5,1c0.4,0.2,0.9-0.1,1-0.5c0.2-0.4-0.1-0.9-0.5-1
			C627.5,211.5,627,211.7,626.9,212.1z"/>
		<path fill="#D91C5C" d="M632.3,213.3c0.2-0.5-0.1-1.2-0.6-1.4c-0.5-0.2-1.2,0.1-1.4,0.6c-0.2,0.5,0.1,1.2,0.6,1.4
			C631.5,214.1,632.1,213.8,632.3,213.3z"/>
		<path fill="#D91C5C" d="M640.6,233.4c-0.6-0.2-1.3,0.1-1.5,0.7c-0.2,0.6,0.1,1.3,0.7,1.5c0.6,0.2,1.3-0.1,1.5-0.7
			C641.5,234.3,641.2,233.6,640.6,233.4z"/>
		<path fill="#D91C5C" d="M603.4,228.6c6-0.3,11.8,0.4,17.4,1.8c5.7,1.5,11.1,3.8,16.9,6.2l1.2,0.5l0.1,0c-1.2-1.1-1.2-2.2-1.1-2.8
			c0.1-0.5,0.4-1,0.9-1.3c1.3-0.9,3,0.3,3,0.3l0.4,0.3l0.2-0.4c0.5-0.9,1.1-1.5,1.9-1.6c2.3-0.5,3.6,1.4,3.7,1.4
			c-1.5-2.5-7-12.7-11.7-23.7c-0.8-2-1.6-3.9-2.3-5.6c-2.5-6.2-4.2-10.3-7.1-11.7c-1.6-0.7-3.5-0.6-4.8,0.2
			c-0.9,0.6-1.5,1.4-1.7,2.4c-0.1,0.2-0.1,0.3-0.1,0.5c0,0.5,0.3,0.9,0.8,1c0.6,0.2,1.3-0.1,1.5-0.7c0.2-0.6-0.1-1.3-0.7-1.5
			c-0.1,0-0.2-0.1-0.3-0.1c0.3-0.4,0.6-0.8,1-1c1.1-0.7,2.7-0.8,4-0.2c2.7,1.2,4.3,5.2,6.7,11.3c0.7,1.7,1.4,3.6,2.3,5.6
			c3.4,8,7.9,17.3,10.7,21.3c-0.6-0.2-1.4-0.3-2.1-0.1c-0.9,0.2-1.6,0.8-2.2,1.7c-0.7-0.4-2.2-1-3.6-0.1c-0.6,0.4-1.1,1.1-1.2,1.8
			c-0.1,0.5-0.1,0.9,0,1.4c-5.2-2.2-10.6-4.4-16.1-5.8c-5.7-1.5-11.6-2.1-17.7-1.8c-9.8,0.4-17.8-1.4-21.5-4.9
			c-1.5-1.4-2.2-3-2.3-4.8c0-2.3,0.7-4.1,2.2-5c1.3-0.8,2.9-0.8,4.3-0.1c1.9,1,1.9,2.6,1.8,3.2c0,0.2-0.1,0.3-0.1,0.5
			c-0.2-0.5-0.5-0.9-1.1-1.1c-0.9-0.4-2,0.1-2.4,1.1c-0.4,1,0.1,2,1.1,2.4c0.7,0.3,1.6,0,2.1-0.6c0.6-0.5,1.1-1.2,1.3-2.1
			c0.3-1.7-0.5-3.2-2.2-4.1c-1.6-0.8-3.6-0.8-5.1,0.2c-1.7,1.1-2.6,3.1-2.6,5.7c0,2,0.9,3.8,2.5,5.4
			C585.2,227.1,593.3,229,603.4,228.6z"/>
		<path fill="#D91C5C" d="M645.5,232.2c-0.8-0.3-1.6,0.1-1.9,0.9c-0.3,0.8,0.1,1.6,0.9,1.9c0.8,0.3,1.6-0.1,1.9-0.9
			C646.7,233.4,646.3,232.5,645.5,232.2z"/>
		<path fill="#D91C5C" d="M640.1,227.5c0.6-1.6-0.2-3.5-1.8-4.1c-1.6-0.6-3.5,0.2-4.1,1.8c-0.6,1.6,0.2,3.5,1.8,4.1
			C637.6,230,639.4,229.2,640.1,227.5z"/>
		<path fill="#D91C5C" d="M629.7,224.5c-0.9-0.3-1.9,0.1-2.2,1c-0.3,0.9,0.1,1.9,1,2.2c0.9,0.3,1.9-0.1,2.2-1
			C631,225.8,630.6,224.8,629.7,224.5z"/>
	</g>
			<path id="circle" fill="#FFFFFF" d="M380.2,292.3c-35.2,0-64.7-26.4-68.7-61.4c-4.4-37.9,23-72.4,60.9-76.7c2.6-0.3,5.3-0.5,8-0.5
				c35.2,0,64.7,26.4,68.7,61.4c2.1,18.4-3.1,36.5-14.6,51c-11.5,14.5-28,23.6-46.3,25.7C385.5,292.2,382.9,292.3,380.2,292.3z
				 M380.4,155.5c-2.6,0-5.2,0.1-7.8,0.4c-37,4.2-63.6,37.8-59.4,74.8c3.9,34.1,32.7,59.8,67,59.8c2.6,0,5.2-0.2,7.8-0.4
				c17.9-2.1,34-11,45.2-25.1c11.2-14.1,16.3-31.8,14.2-49.7C443.4,181.2,414.6,155.5,380.4,155.5z"/>
			<path id="outer_circle" fill="#FFFFFF" d="M380.2,299.3c-38.7,0-71.3-29-75.7-67.6c-2.3-20.2,3.4-40.2,16-56.1c12.7-16,30.8-26,51-28.3
				c2.9-0.3,5.9-0.5,8.8-0.5c38.7,0,71.3,29.1,75.7,67.6c2.3,20.2-3.4,40.2-16,56.1c-12.7,16-30.8,26-51,28.3
				C386.1,299.1,383.1,299.3,380.2,299.3z M380.4,148.7c-2.8,0-5.7,0.2-8.6,0.5c-19.7,2.3-37.4,12.1-49.7,27.6
				c-12.3,15.5-17.9,35-15.6,54.7c4.3,37.5,36,65.9,73.8,65.9c2.8,0,5.7-0.2,8.6-0.5c19.7-2.3,37.4-12.1,49.7-27.6
				c12.3-15.5,17.9-35,15.6-54.7C449.8,177,418.1,148.7,380.4,148.7z"/>
			<g id="love">
				<path fill-rule="evenodd" clip-rule="evenodd" fill="#FFFFFF" d="M431.1,174.3c0-3.3-0.3-6.8-1.2-10c-0.9-3.1-2.6-6.8-6.2-7.5
					c-3.8-0.7-6.3,2.5-7.5,5.6c-2.3,5.8-2.2,14.1-0.8,20.2c1.3,5.7,4.8,11,11.3,10.8c3.4-0.1,7.1-1.1,10.3-2.3
					c3.6-1.3,7.4-3.1,10.5-5.5c2.6-2,5.3-5,4.6-8.6c-0.8-3.8-4.7-4.9-8.1-4.8c-3.9,0.1-8.1,1.3-11.7,2.9l-1.3,0.5V174.3z"/>
				<path fill-rule="evenodd" clip-rule="evenodd" fill="#FFFFFF" d="M403.1,171.8c-1-1.2-2.3-2.5-3.6-3.4c-1.3-0.9-3.2-1.7-4.7-0.8
					c-1.6,1-1.6,2.9-1,4.5c1,2.9,3.7,6,6.1,7.8c2.3,1.7,5.3,2.6,7.6,0.4c1.3-1.1,2.3-2.7,3.1-4.1c0.9-1.6,1.8-3.5,2.2-5.4
					c0.3-1.6,0.4-3.6-1-4.6c-1.5-1.2-3.3-0.3-4.5,0.8c-1.4,1.3-2.6,3.1-3.5,4.8l-0.3,0.6L403.1,171.8z"/>
			</g>
			<text x="120" y="225" id="welcome" fill="#FFFFFF" font-family="'ArialMT'" font-size="18">WELCOME BABY</text>
			<text x="475" y="225" id="lucy" fill="#FFFFFF" font-family="'ArialMT'" font-size="18">LUCY LEE</text>
		<text x="336" y="214" id="its" transform="rotate(345,363.5,205.02173913043478)" fill="#FFFFFF" font-family="'MongolianBaiti'" font-size="27">Its a</text>

	
<text x="322" y="262" id="girl" font-size="65" font-family="Scarlet" fill="#FFFFFF" transform="rotate(330,370.5,241.47826086956522)">Girl!</text>
</g>
</svg>