<svg version="1.1" id="Layer_1" xmlns="http://www.w3.org/2000/svg" xmlns:xlink="http://www.w3.org/1999/xlink" x="0px" y="0px" viewBox="0 0 759 439" enable-background="new 0 0 759 439" xml:space="preserve">
<g id="band">
	<path id="path" fill-rule="evenodd" clip-rule="evenodd" fill="#652D90" d="M759.5,164.6c0,0-222,17.3-283.8-17.6
		c-10.9-6.2-15.6-19.1-26.7-23.5c-11.6-4.6-26.2-4.3-38.3-0.9c-5.1-6.7-12.1-9.9-19.5-10.2l-0.4,0l-0.4,0c-3.9,0.1-7.7,1.3-11,3.5
		c-3.4-2.3-7.1-3.4-11-3.5l-0.4,0l-0.4,0c-7.4,0.4-14.4,3.6-19.5,10.3c-12.4-3.5-26.2-4-38.3,0.8c-11.1,4.4-15.8,17.4-26.7,23.5
		C221.5,181.9-0.5,164.6-0.5,164.6v112.6c0,0,232.4-20.6,295.7,17.6c12.2,7.3,17.9,20.6,29.6,25.3c17.3,7,37,9.3,54.6,2.5
		c17.6,6.9,37.3,4.5,54.6-2.5c11.8-4.7,17.4-17.9,29.6-25.3c63.3-38.2,295.7-17.6,295.7-17.6V164.6z"/>
	<path id="path1" fill-rule="evenodd" clip-rule="evenodd" fill="none" stroke="#F1F1F2" stroke-width="0.8796" stroke-miterlimit="10" d="
		M759.5,268c-16.8-1.3-74.8-4.9-131.6-4.9c-84.4,0-140.5,8-166.8,23.9c-6.3,3.8-10.9,8.9-15.1,13.4c-4.6,5-8.6,9.4-13.8,11.5
		c-10.1,4.1-20.5,6.2-30,6.2c-7.4,0-14.5-1.3-20.9-3.8l-1.8-0.7l-1.8,0.7c-6.4,2.5-13.4,3.8-20.9,3.8c-9.6,0-19.9-2.1-30-6.2
		c-5.3-2.1-9.2-6.5-13.8-11.5c-4.1-4.5-8.8-9.7-15.1-13.4c-26.3-15.8-82.4-23.9-166.8-23.9c-56.7,0-114.8,3.3-131.6,4.6"/>
	<g id="line">
					<path fill-rule="evenodd" clip-rule="evenodd" fill="#FFFFFF" d="M752,260.1c0.1-1.4,1.3-2.4,2.7-2.3c1.4,0.1,2.4,1.3,2.3,2.7
						c-0.1,1.4-1.3,2.4-2.7,2.3C753,262.7,751.9,261.5,752,260.1z"/>

					<path fill-rule="evenodd" clip-rule="evenodd" fill="#FFFFFF" d="M744.5,259.6c0.1-1.4,1.3-2.4,2.7-2.3
						c1.4,0.1,2.4,1.3,2.3,2.7c-0.1,1.4-1.3,2.4-2.7,2.3C745.5,262.2,744.4,261,744.5,259.6z"/>
					<path fill-rule="evenodd" clip-rule="evenodd" fill="#FFFFFF" d="M737,259.2c0.1-1.4,1.3-2.4,2.6-2.3c1.4,0.1,2.4,1.3,2.4,2.6
						c-0.1,1.4-1.3,2.4-2.6,2.3C738,261.7,736.9,260.5,737,259.2z"/>
					<path fill-rule="evenodd" clip-rule="evenodd" fill="#FFFFFF" d="M729.5,258.7c0.1-1.4,1.3-2.4,2.6-2.3
						c1.4,0.1,2.4,1.3,2.4,2.6c-0.1,1.4-1.3,2.4-2.6,2.3C730.5,261.3,729.4,260.1,729.5,258.7z"/>
					<path fill-rule="evenodd" clip-rule="evenodd" fill="#FFFFFF" d="M722,258.3c0.1-1.4,1.2-2.4,2.6-2.4c1.4,0.1,2.4,1.2,2.4,2.6
						c-0.1,1.4-1.3,2.4-2.6,2.4C723,260.9,721.9,259.7,722,258.3z"/>
					<path fill-rule="evenodd" clip-rule="evenodd" fill="#FFFFFF" d="M714.5,258c0.1-1.4,1.2-2.4,2.6-2.4c1.4,0.1,2.4,1.2,2.4,2.6
						c-0.1,1.4-1.2,2.4-2.6,2.4C715.5,260.5,714.4,259.3,714.5,258z"/>
					<path fill-rule="evenodd" clip-rule="evenodd" fill="#FFFFFF" d="M707,257.6c0.1-1.4,1.2-2.4,2.6-2.4c1.4,0.1,2.5,1.2,2.4,2.6
						c-0.1,1.4-1.2,2.4-2.6,2.4C708,260.1,706.9,259,707,257.6z"/>
						<ellipse transform="matrix(-0.9991 -4.278060e-002 4.278060e-002 -0.9991 1392.3208 544.5983)" fill-rule="evenodd" clip-rule="evenodd" fill="#FFFFFF" cx="702" cy="257.4" rx="2.5" ry="2.5"/>
						<ellipse transform="matrix(-0.9993 -3.840709e-002 3.840709e-002 -0.9993 1378.5676 540.686)" fill-rule="evenodd" clip-rule="evenodd" fill="#FFFFFF" cx="694.5" cy="257.1" rx="2.5" ry="2.5"/>
						<ellipse transform="matrix(-0.9994 -3.379884e-002 3.379884e-002 -0.9994 1364.8584 536.726)" fill-rule="evenodd" clip-rule="evenodd" fill="#FFFFFF" cx="687" cy="256.8" rx="2.5" ry="2.5"/>
					<path fill-rule="evenodd" clip-rule="evenodd" fill="#FFFFFF" d="M677,256.5c0-1.4,1.2-2.5,2.6-2.4c1.4,0,2.5,1.2,2.4,2.6
						c0,1.4-1.2,2.4-2.6,2.4C678,259,676.9,257.9,677,256.5z"/>
						<ellipse transform="matrix(-0.9996 -2.816820e-002 2.816820e-002 -0.9996 1336.4135 531.5503)" fill-rule="evenodd" clip-rule="evenodd" fill="#FFFFFF" cx="672" cy="256.4" rx="2.5" ry="2.5"/>
					
						<ellipse transform="matrix(-0.9997 -2.339665e-002 2.339665e-002 -0.9997 1322.7024 527.8249)" fill-rule="evenodd" clip-rule="evenodd" fill="#FFFFFF" cx="664.4" cy="256.2" rx="2.5" ry="2.5"/>
					<path fill-rule="evenodd" clip-rule="evenodd" fill="#FFFFFF" d="M654.4,256c0-1.4,1.2-2.5,2.6-2.4c1.4,0,2.5,1.2,2.5,2.5
						c0,1.4-1.2,2.5-2.6,2.4C655.5,258.5,654.4,257.3,654.4,256z"/>
					<path fill-rule="evenodd" clip-rule="evenodd" fill="#FFFFFF" d="M646.9,255.9c0-1.4,1.2-2.5,2.5-2.5c1.4,0,2.5,1.2,2.5,2.5
						c0,1.4-1.2,2.5-2.5,2.4C648,258.4,646.9,257.2,646.9,255.9z"/>
					
						<ellipse transform="matrix(-0.9999 -1.095956e-002 1.095956e-002 -0.9999 1280.959 518.6197)" fill-rule="evenodd" clip-rule="evenodd" fill="#FFFFFF" cx="641.9" cy="255.8" rx="2.5" ry="2.5"/>
					<path fill-rule="evenodd" clip-rule="evenodd" fill="#FFFFFF" d="M631.9,255.7c0-1.4,1.1-2.5,2.5-2.5c1.4,0,2.5,1.1,2.5,2.5
						c0,1.4-1.1,2.5-2.5,2.5C633,258.2,631.9,257.1,631.9,255.7z"/>
					<path fill-rule="evenodd" clip-rule="evenodd" fill="#FFFFFF" d="M624.4,255.7c0-1.4,1.1-2.5,2.5-2.5c1.4,0,2.5,1.1,2.5,2.5
						c0,1.4-1.1,2.5-2.5,2.5C625.5,258.2,624.4,257.1,624.4,255.7z"/>
					<path fill-rule="evenodd" clip-rule="evenodd" fill="#FFFFFF" d="M616.9,255.8c0-1.4,1.1-2.5,2.5-2.5c1.4,0,2.5,1.1,2.5,2.5
						c0,1.4-1.1,2.5-2.5,2.5C618,258.3,616.9,257.2,616.9,255.8z"/>
					<path fill-rule="evenodd" clip-rule="evenodd" fill="#FFFFFF" d="M609.3,255.9c0-1.4,1.1-2.5,2.5-2.5c1.4,0,2.5,1.1,2.5,2.5
						c0,1.4-1.1,2.5-2.5,2.5C610.5,258.3,609.4,257.3,609.3,255.9z"/>
					<path fill-rule="evenodd" clip-rule="evenodd" fill="#FFFFFF" d="M601.8,256c0-1.4,1.1-2.5,2.5-2.5c1.4,0,2.5,1.1,2.6,2.4
						c0,1.4-1.1,2.5-2.5,2.5C603,258.5,601.9,257.4,601.8,256z"/>
					<path fill-rule="evenodd" clip-rule="evenodd" fill="#FFFFFF" d="M594.3,256.2c0-1.4,1-2.5,2.4-2.6c1.4,0,2.5,1.1,2.6,2.4
						c0,1.4-1.1,2.5-2.4,2.5C595.5,258.7,594.4,257.6,594.3,256.2z"/>
					<path fill-rule="evenodd" clip-rule="evenodd" fill="#FFFFFF" d="M586.8,256.5c-0.1-1.4,1-2.5,2.4-2.6c1.4,0,2.5,1,2.6,2.4
						c0,1.4-1,2.5-2.4,2.6C588,258.9,586.9,257.8,586.8,256.5z"/>
					<path fill-rule="evenodd" clip-rule="evenodd" fill="#FFFFFF" d="M579.3,256.8c-0.1-1.4,1-2.5,2.4-2.6c1.4-0.1,2.6,1,2.6,2.4
						c0.1,1.4-1,2.5-2.4,2.6C580.5,259.2,579.4,258.1,579.3,256.8z"/>
					<path fill-rule="evenodd" clip-rule="evenodd" fill="#FFFFFF" d="M571.8,257.1c-0.1-1.4,1-2.5,2.4-2.6c1.4-0.1,2.6,1,2.6,2.4
						c0.1,1.4-1,2.5-2.4,2.6C573,259.6,571.9,258.5,571.8,257.1z"/>
					<path fill-rule="evenodd" clip-rule="evenodd" fill="#FFFFFF" d="M564.3,257.6c-0.1-1.4,1-2.6,2.3-2.7c1.4-0.1,2.6,0.9,2.7,2.3
						c0.1,1.4-1,2.6-2.3,2.6C565.6,260,564.4,259,564.3,257.6z"/>
					<path fill-rule="evenodd" clip-rule="evenodd" fill="#FFFFFF" d="M556.8,258.1c-0.1-1.4,0.9-2.6,2.3-2.7
						c1.4-0.1,2.6,0.9,2.7,2.3c0.1,1.4-0.9,2.6-2.3,2.6C558.1,260.5,556.9,259.5,556.8,258.1z"/>
					<path fill-rule="evenodd" clip-rule="evenodd" fill="#FFFFFF" d="M549.3,258.7c-0.1-1.4,0.9-2.6,2.3-2.7
						c1.4-0.1,2.6,0.9,2.7,2.3c0.1,1.4-0.9,2.6-2.3,2.7C550.6,261.1,549.4,260.1,549.3,258.7z"/>
					<path fill-rule="evenodd" clip-rule="evenodd" fill="#FFFFFF" d="M541.8,259.4c-0.1-1.4,0.9-2.6,2.3-2.7
						c1.4-0.1,2.6,0.9,2.7,2.3c0.1,1.4-0.9,2.6-2.3,2.7C543.2,261.8,542,260.8,541.8,259.4z"/>
					<path fill-rule="evenodd" clip-rule="evenodd" fill="#FFFFFF" d="M534.4,260.2c-0.2-1.4,0.8-2.6,2.2-2.7
						c1.4-0.1,2.6,0.8,2.8,2.2c0.1,1.4-0.8,2.6-2.2,2.7C535.8,262.6,534.5,261.6,534.4,260.2z"/>
					<path fill-rule="evenodd" clip-rule="evenodd" fill="#FFFFFF" d="M526.9,261.2c-0.2-1.4,0.8-2.6,2.2-2.8
						c1.4-0.2,2.6,0.8,2.8,2.1c0.2,1.4-0.8,2.6-2.2,2.8C528.3,263.5,527.1,262.5,526.9,261.2z"/>
					<path fill-rule="evenodd" clip-rule="evenodd" fill="#FFFFFF" d="M519.5,262.2c-0.2-1.4,0.7-2.6,2.1-2.9
						c1.4-0.2,2.7,0.8,2.8,2.1c0.2,1.4-0.8,2.6-2.1,2.8C520.9,264.5,519.7,263.6,519.5,262.2z"/>
					<path fill-rule="evenodd" clip-rule="evenodd" fill="#FFFFFF" d="M512,263.4c-0.2-1.4,0.7-2.7,2.1-2.9c1.4-0.2,2.7,0.7,2.9,2.1
						c0.2,1.4-0.7,2.6-2.1,2.8C513.6,265.7,512.3,264.8,512,263.4z"/>
					<path fill-rule="evenodd" clip-rule="evenodd" fill="#FFFFFF" d="M504.7,264.8c-0.3-1.3,0.6-2.7,2-2.9c1.4-0.3,2.7,0.6,2.9,2
						c0.2,1.4-0.6,2.7-2,2.9C506.2,267,504.9,266.2,504.7,264.8z"/>
					<path fill-rule="evenodd" clip-rule="evenodd" fill="#FFFFFF" d="M497.3,266.4c-0.3-1.3,0.5-2.7,1.9-3c1.4-0.3,2.7,0.5,3,1.9
						c0.3,1.3-0.6,2.7-1.9,3C499,268.6,497.6,267.7,497.3,266.4z"/>
					<path fill-rule="evenodd" clip-rule="evenodd" fill="#FFFFFF" d="M490,268.2c-0.4-1.3,0.4-2.7,1.8-3.1c1.4-0.4,2.7,0.4,3,1.8
						c0.3,1.3-0.5,2.7-1.8,3C491.8,270.3,490.4,269.5,490,268.2z"/>
					<path fill-rule="evenodd" clip-rule="evenodd" fill="#FFFFFF" d="M482.8,270.3c-0.4-1.3,0.3-2.7,1.7-3.1
						c1.3-0.4,2.7,0.4,3.1,1.7c0.4,1.3-0.4,2.7-1.7,3.1C484.6,272.4,483.2,271.6,482.8,270.3z"/>
					<path fill-rule="evenodd" clip-rule="evenodd" fill="#FFFFFF" d="M475.7,272.8c-0.5-1.3,0.2-2.7,1.5-3.2
						c1.3-0.5,2.8,0.2,3.2,1.5c0.4,1.3-0.3,2.7-1.5,3.2C477.6,274.7,476.2,274,475.7,272.8z"/>
					<path fill-rule="evenodd" clip-rule="evenodd" fill="#FFFFFF" d="M468.8,275.6c-0.6-1.2,0-2.7,1.3-3.3c1.3-0.6,2.8,0,3.3,1.3
						c0.5,1.3-0.1,2.7-1.3,3.3C470.8,277.5,469.4,276.9,468.8,275.6z"/>
					<path fill-rule="evenodd" clip-rule="evenodd" fill="#FFFFFF" d="M462.1,279.1c-0.7-1.2-0.2-2.7,1-3.4c1.3-0.7,2.8-0.2,3.4,1
						c0.6,1.2,0.1,2.8-1,3.4C464.3,280.7,462.8,280.3,462.1,279.1z"/>
					<path fill-rule="evenodd" clip-rule="evenodd" fill="#FFFFFF" d="M455.9,283.3c-0.9-1.1-0.7-2.7,0.5-3.5
						c1.2-0.9,2.8-0.6,3.5,0.6c0.7,1.2,0.5,2.7-0.6,3.4C458.3,284.6,456.8,284.4,455.9,283.3z"/>
					<path fill-rule="evenodd" clip-rule="evenodd" fill="#FFFFFF" d="M450.4,288.4c-1-1-1-2.6,0-3.6c1-1,2.7-0.9,3.6,0.1
						c0.9,1,0.8,2.6-0.1,3.5C452.9,289.4,451.4,289.4,450.4,288.4z"/>
					<path fill-rule="evenodd" clip-rule="evenodd" fill="#FFFFFF" d="M445.3,293.9c-1-0.9-1.1-2.5-0.1-3.5c0.9-1,2.5-1.1,3.5-0.2
						c1,0.9,1.1,2.5,0.1,3.5C447.9,294.8,446.3,294.8,445.3,293.9z"/>
					<path fill-rule="evenodd" clip-rule="evenodd" fill="#FFFFFF" d="M440,299.3c-0.9-1-0.9-2.6,0-3.5c0.9-0.9,2.5-1,3.5-0.1
						c1,0.9,1,2.5,0,3.6C442.6,300.3,441,300.3,440,299.3z"/>
					<path fill-rule="evenodd" clip-rule="evenodd" fill="#FFFFFF" d="M434,303.7c-0.6-1.2-0.2-2.7,0.8-3.3c1-0.7,2.5-0.5,3.4,0.6
						c0.9,1.1,0.7,2.7-0.6,3.6C436.2,305.4,434.6,304.9,434,303.7z"/>
					<path fill-rule="evenodd" clip-rule="evenodd" fill="#FFFFFF" d="M427,306.4c-0.4-1.3,0.3-2.7,1.5-3.2c1.3-0.4,2.7,0.2,3.2,1.5
						c0.5,1.3-0.1,2.7-1.5,3.2C428.9,308.4,427.4,307.7,427,306.4z"/>
					<path fill-rule="evenodd" clip-rule="evenodd" fill="#FFFFFF" d="M419.8,308.5c-0.3-1.3,0.5-2.7,1.8-3c1.3-0.3,2.7,0.4,3.1,1.7
						c0.4,1.3-0.4,2.7-1.8,3.1C421.5,310.7,420.1,309.8,419.8,308.5z"/>
					<path fill-rule="evenodd" clip-rule="evenodd" fill="#FFFFFF" d="M412.4,309.9c-0.2-1.4,0.7-2.6,2-2.8c1.3-0.2,2.6,0.6,2.9,2
						c0.3,1.3-0.6,2.7-2,2.9C413.9,312.2,412.6,311.3,412.4,309.9z"/>
					<path fill-rule="evenodd" clip-rule="evenodd" fill="#FFFFFF" d="M404.9,310.6c0-1.4,1-2.5,2.3-2.6c1.3-0.1,2.5,0.9,2.7,2.2
						c0.2,1.4-0.9,2.6-2.3,2.7C406.2,313.1,405,312,404.9,310.6z"/>
					<path fill-rule="evenodd" clip-rule="evenodd" fill="#FFFFFF" d="M397.4,310.5c0.1-1.4,1.3-2.4,2.6-2.3c1.3,0,2.4,1.2,2.4,2.5
						c0,1.4-1.1,2.5-2.6,2.4C398.4,313.1,397.3,311.9,397.4,310.5z"/>
					<path fill-rule="evenodd" clip-rule="evenodd" fill="#FFFFFF" d="M390,309.5c0.3-1.3,1.6-2.2,2.9-2c1.3,0.2,2.2,1.4,2.1,2.8
						c-0.2,1.4-1.4,2.3-2.9,2.1C390.6,312.2,389.7,310.8,390,309.5z"/>
					<path fill-rule="evenodd" clip-rule="evenodd" fill="#FFFFFF" d="M382.7,307.5c0.5-1.3,1.9-2,3.1-1.6c1.3,0.4,2,1.7,1.7,3.1
						c-0.3,1.3-1.7,2.1-3.1,1.7C383,310.2,382.3,308.7,382.7,307.5z"/>
					<path fill-rule="evenodd" clip-rule="evenodd" fill="#FFFFFF" d="M371.5,308.9c-0.3-1.3,0.4-2.7,1.7-3.1
						c1.3-0.4,2.6,0.3,3.1,1.6c0.5,1.3-0.3,2.7-1.7,3.2C373.2,311.1,371.8,310.2,371.5,308.9z"/>
					<path fill-rule="evenodd" clip-rule="evenodd" fill="#FFFFFF" d="M364.1,310.3c-0.2-1.4,0.8-2.6,2.1-2.8c1.3-0.2,2.6,0.7,2.9,2
						c0.3,1.3-0.6,2.7-2.1,2.9C365.5,312.6,364.2,311.6,364.1,310.3z"/>
					<path fill-rule="evenodd" clip-rule="evenodd" fill="#FFFFFF" d="M356.6,310.7c0-1.4,1.1-2.5,2.4-2.5c1.3,0,2.5,1,2.6,2.3
						c0.1,1.4-1,2.6-2.4,2.6C357.7,313.2,356.6,312.1,356.6,310.7z"/>
					<path fill-rule="evenodd" clip-rule="evenodd" fill="#FFFFFF" d="M349.1,310.3c0.2-1.4,1.4-2.4,2.7-2.2
						c1.3,0.1,2.4,1.3,2.3,2.6c0,1.4-1.3,2.4-2.7,2.3C350,312.9,348.9,311.6,349.1,310.3z"/>
					<path fill-rule="evenodd" clip-rule="evenodd" fill="#FFFFFF" d="M341.7,309.1c0.3-1.3,1.6-2.2,2.9-2c1.3,0.2,2.2,1.5,2,2.8
						c-0.2,1.4-1.5,2.3-2.9,2.1C342.3,311.7,341.4,310.4,341.7,309.1z"/>
					<path fill-rule="evenodd" clip-rule="evenodd" fill="#FFFFFF" d="M334.4,307.2c0.4-1.3,1.8-2.1,3.1-1.7c1.3,0.4,2.1,1.7,1.8,3
						c-0.3,1.3-1.7,2.2-3.1,1.8C334.8,309.9,334,308.5,334.4,307.2z"/>
					<path fill-rule="evenodd" clip-rule="evenodd" fill="#FFFFFF" d="M327.3,304.7c0.5-1.3,1.9-1.9,3.2-1.5
						c1.3,0.5,1.9,1.8,1.5,3.2c-0.4,1.3-1.9,2-3.2,1.5C327.4,307.5,326.8,306,327.3,304.7z"/>
					<path fill-rule="evenodd" clip-rule="evenodd" fill="#FFFFFF" d="M320.9,300.9c0.9-1.1,2.4-1.3,3.4-0.6c1,0.7,1.4,2.1,0.8,3.3
						c-0.6,1.2-2.2,1.7-3.5,0.8C320.2,303.6,320,302,320.9,300.9z"/>
					<path fill-rule="evenodd" clip-rule="evenodd" fill="#FFFFFF" d="M315.4,295.7c1-0.9,2.6-0.9,3.5,0.1c0.9,0.9,0.9,2.5,0,3.5
						c-0.9,1-2.6,1-3.6,0C314.4,298.3,314.4,296.7,315.4,295.7z"/>
					<path fill-rule="evenodd" clip-rule="evenodd" fill="#FFFFFF" d="M310.3,290.2c1-0.9,2.6-0.9,3.5,0.2c0.9,1,0.9,2.6-0.1,3.5
						c-1,0.9-2.6,0.8-3.5-0.2C309.3,292.7,309.3,291.2,310.3,290.2z"/>
					<path fill-rule="evenodd" clip-rule="evenodd" fill="#FFFFFF" d="M305,284.9c0.9-1,2.5-1.1,3.6-0.1c1,1,1,2.6,0,3.6
						c-1,1-2.5,1-3.5,0C304.1,287.5,304.1,286,305,284.9z"/>
					<path fill-rule="evenodd" clip-rule="evenodd" fill="#FFFFFF" d="M299.1,280.3c0.7-1.2,2.3-1.5,3.5-0.6
						c1.2,0.9,1.4,2.5,0.5,3.5c-0.9,1.1-2.4,1.2-3.5,0.5C298.6,283,298.3,281.5,299.1,280.3z"/>
					<path fill-rule="evenodd" clip-rule="evenodd" fill="#FFFFFF" d="M292.5,276.7c0.6-1.2,2.1-1.7,3.4-1c1.3,0.7,1.7,2.2,1,3.4
						c-0.7,1.2-2.2,1.6-3.4,1C292.4,279.4,291.9,277.9,292.5,276.7z"/>
					<path fill-rule="evenodd" clip-rule="evenodd" fill="#FFFFFF" d="M285.6,273.6c0.5-1.3,2-1.9,3.3-1.3c1.3,0.6,1.9,2.1,1.3,3.3
						c-0.6,1.2-2,1.8-3.3,1.3C285.7,276.3,285.1,274.9,285.6,273.6z"/>
					<path fill-rule="evenodd" clip-rule="evenodd" fill="#FFFFFF" d="M278.6,271.1c0.4-1.3,1.9-2.1,3.2-1.5c1.3,0.5,2,1.9,1.5,3.2
						c-0.5,1.3-1.9,1.9-3.2,1.5C278.9,273.7,278.1,272.4,278.6,271.1z"/>
					<path fill-rule="evenodd" clip-rule="evenodd" fill="#FFFFFF" d="M271.4,268.9c0.4-1.3,1.8-2.1,3.1-1.7
						c1.3,0.4,2.1,1.8,1.7,3.1c-0.4,1.3-1.8,2-3.1,1.6C271.8,271.5,271,270.2,271.4,268.9z"/>
					<path fill-rule="evenodd" clip-rule="evenodd" fill="#FFFFFF" d="M264.1,266.9c0.3-1.4,1.7-2.1,3-1.8c1.4,0.4,2.2,1.7,1.8,3.1
						c-0.4,1.3-1.7,2.1-3,1.8C264.6,269.6,263.8,268.3,264.1,266.9z"/>
					<path fill-rule="evenodd" clip-rule="evenodd" fill="#FFFFFF" d="M256.8,265.3c0.3-1.3,1.6-2.2,3-1.9c1.4,0.3,2.2,1.6,1.9,3
						s-1.6,2.2-3,1.9C257.4,268,256.5,266.7,256.8,265.3z"/>
					<path fill-rule="evenodd" clip-rule="evenodd" fill="#FFFFFF" d="M249.4,263.9c0.2-1.4,1.6-2.2,2.9-2c1.4,0.3,2.3,1.6,2,2.9
						c-0.3,1.3-1.6,2.2-2.9,2C250.1,266.5,249.2,265.2,249.4,263.9z"/>
					<path fill-rule="evenodd" clip-rule="evenodd" fill="#FFFFFF" d="M242,262.6c0.2-1.4,1.5-2.3,2.9-2.1c1.4,0.2,2.3,1.5,2.1,2.9
						c-0.2,1.3-1.5,2.3-2.9,2C242.7,265.3,241.8,264,242,262.6z"/>
					<path fill-rule="evenodd" clip-rule="evenodd" fill="#FFFFFF" d="M234.6,261.5c0.2-1.4,1.5-2.3,2.8-2.1
						c1.4,0.2,2.3,1.5,2.1,2.9c-0.2,1.4-1.5,2.3-2.8,2.1C235.4,264.1,234.4,262.9,234.6,261.5z"/>
					<path fill-rule="evenodd" clip-rule="evenodd" fill="#FFFFFF" d="M227.1,260.5c0.2-1.4,1.4-2.3,2.8-2.1
						c1.4,0.2,2.4,1.4,2.2,2.8c-0.2,1.4-1.4,2.3-2.8,2.1C227.9,263.1,227,261.9,227.1,260.5z"/>
					<path fill-rule="evenodd" clip-rule="evenodd" fill="#FFFFFF" d="M219.7,259.7c0.1-1.4,1.4-2.4,2.8-2.2
						c1.4,0.1,2.4,1.4,2.2,2.7c-0.2,1.4-1.4,2.4-2.8,2.2C220.5,262.3,219.5,261.1,219.7,259.7z"/>
					<path fill-rule="evenodd" clip-rule="evenodd" fill="#FFFFFF" d="M212.2,258.9c0.1-1.4,1.4-2.4,2.7-2.3
						c1.4,0.1,2.4,1.4,2.3,2.7c-0.1,1.4-1.4,2.4-2.7,2.2C213.1,261.5,212.1,260.3,212.2,258.9z"/>
					<path fill-rule="evenodd" clip-rule="evenodd" fill="#FFFFFF" d="M204.7,258.3c0.1-1.4,1.3-2.4,2.7-2.3
						c1.4,0.1,2.4,1.3,2.3,2.7c-0.1,1.4-1.3,2.4-2.7,2.3C205.6,260.9,204.6,259.7,204.7,258.3z"/>
					<path fill-rule="evenodd" clip-rule="evenodd" fill="#FFFFFF" d="M197.2,257.8c0.1-1.4,1.3-2.4,2.7-2.3
						c1.4,0.1,2.4,1.3,2.3,2.7c-0.1,1.4-1.3,2.4-2.7,2.3C198.2,260.3,197.1,259.1,197.2,257.8z"/>
					<path fill-rule="evenodd" clip-rule="evenodd" fill="#FFFFFF" d="M189.7,257.3c0.1-1.4,1.3-2.4,2.7-2.3
						c1.4,0.1,2.4,1.3,2.3,2.7c-0.1,1.4-1.3,2.4-2.7,2.3C190.7,259.8,189.6,258.6,189.7,257.3z"/>
					<path fill-rule="evenodd" clip-rule="evenodd" fill="#FFFFFF" d="M182.2,256.9c0.1-1.4,1.2-2.4,2.6-2.4
						c1.4,0.1,2.4,1.2,2.4,2.6c-0.1,1.4-1.3,2.4-2.6,2.4C183.2,259.4,182.1,258.3,182.2,256.9z"/>
					<path fill-rule="evenodd" clip-rule="evenodd" fill="#FFFFFF" d="M174.7,256.5c0.1-1.4,1.2-2.5,2.6-2.4
						c1.4,0.1,2.5,1.2,2.4,2.6c-0.1,1.4-1.2,2.4-2.6,2.4C175.7,259.1,174.6,257.9,174.7,256.5z"/>
					<path fill-rule="evenodd" clip-rule="evenodd" fill="#FFFFFF" d="M167.2,256.3c0-1.4,1.2-2.5,2.6-2.4c1.4,0,2.5,1.2,2.4,2.6
						c-0.1,1.4-1.2,2.5-2.6,2.4C168.2,258.8,167.2,257.7,167.2,256.3z"/>
					<path fill-rule="evenodd" clip-rule="evenodd" fill="#FFFFFF" d="M159.7,256.1c0-1.4,1.2-2.5,2.6-2.4c1.4,0,2.5,1.2,2.4,2.6
						c0,1.4-1.2,2.5-2.6,2.4C160.7,258.6,159.7,257.4,159.7,256.1z"/>
					<path fill-rule="evenodd" clip-rule="evenodd" fill="#FFFFFF" d="M152.2,255.9c0-1.4,1.2-2.5,2.6-2.4c1.4,0,2.5,1.2,2.5,2.5
						c0,1.4-1.2,2.5-2.6,2.4C153.2,258.4,152.1,257.3,152.2,255.9z"/>
					<path fill-rule="evenodd" clip-rule="evenodd" fill="#FFFFFF" d="M144.7,255.8c0-1.4,1.1-2.5,2.5-2.5c1.4,0,2.5,1.2,2.5,2.5
						c0,1.4-1.2,2.5-2.5,2.4C145.8,258.3,144.6,257.2,144.7,255.8z"/>
					<path fill-rule="evenodd" clip-rule="evenodd" fill="#FFFFFF" d="M137.1,255.8c0-1.4,1.1-2.5,2.5-2.5c1.4,0,2.5,1.1,2.5,2.5
						c0,1.4-1.1,2.5-2.5,2.5C138.3,258.3,137.1,257.1,137.1,255.8z"/>
					<path fill-rule="evenodd" clip-rule="evenodd" fill="#FFFFFF" d="M129.6,255.7c0-1.4,1.1-2.5,2.5-2.5c1.4,0,2.5,1.1,2.5,2.5
						c0,1.4-1.1,2.5-2.5,2.5C130.8,258.2,129.6,257.1,129.6,255.7z"/>
					<path fill-rule="evenodd" clip-rule="evenodd" fill="#FFFFFF" d="M122.1,255.8c0-1.4,1.1-2.5,2.5-2.5c1.4,0,2.5,1.1,2.5,2.5
						c0,1.4-1.1,2.5-2.5,2.5C123.3,258.2,122.1,257.1,122.1,255.8z"/>
						<ellipse transform="matrix(-0.9999 1.004146e-002 -1.004146e-002 -0.9999 236.7818 510.4005)" fill-rule="evenodd" clip-rule="evenodd" fill="#FFFFFF" cx="117.1" cy="255.8" rx="2.5" ry="2.5"/>
					<path fill-rule="evenodd" clip-rule="evenodd" fill="#FFFFFF" d="M107.1,255.9c0-1.4,1.1-2.5,2.5-2.5c1.4,0,2.5,1.1,2.5,2.5
						c0,1.4-1.1,2.5-2.5,2.5C108.2,258.4,107.1,257.3,107.1,255.9z"/>
					<path fill-rule="evenodd" clip-rule="evenodd" fill="#FFFFFF" d="M99.6,256c0-1.4,1.1-2.5,2.5-2.5c1.4,0,2.5,1.1,2.5,2.5
						c0,1.4-1.1,2.5-2.5,2.5C100.7,258.5,99.6,257.4,99.6,256z"/>
						<ellipse transform="matrix(-0.9998 2.134152e-002 -2.134152e-002 -0.9998 194.5878 510.1949)" fill-rule="evenodd" clip-rule="evenodd" fill="#FFFFFF" cx="94.6" cy="256.1" rx="2.5" ry="2.5"/>
					<path fill-rule="evenodd" clip-rule="evenodd" fill="#FFFFFF" d="M84.6,256.4c0-1.4,1.1-2.5,2.4-2.6c1.4,0,2.5,1.1,2.6,2.4
						c0,1.4-1.1,2.5-2.4,2.6C85.7,258.8,84.6,257.7,84.6,256.4z"/>
					<path fill-rule="evenodd" clip-rule="evenodd" fill="#FFFFFF" d="M77,256.6c0-1.4,1-2.5,2.4-2.6c1.4,0,2.5,1,2.6,2.4
						c0,1.4-1.1,2.5-2.4,2.6C78.2,259,77.1,258,77,256.6z"/>
						<ellipse transform="matrix(-0.9995 3.098246e-002 -3.098246e-002 -0.9995 151.9952 511.1095)" fill-rule="evenodd" clip-rule="evenodd" fill="#FFFFFF" cx="72" cy="256.7" rx="2.5" ry="2.5"/>
							<ellipse transform="matrix(-0.9994 3.533692e-002 -3.533692e-002 -0.9994 138.0924 511.5279)" fill-rule="evenodd" clip-rule="evenodd" fill="#FFFFFF" cx="64.5" cy="257" rx="2.5" ry="2.5"/>
						<ellipse transform="matrix(-0.9992 3.934932e-002 -3.934932e-002 -0.9992 124.12 512.0764)" fill-rule="evenodd" clip-rule="evenodd" fill="#FFFFFF" cx="57" cy="257.3" rx="2.5" ry="2.5"/>
					<path fill-rule="evenodd" clip-rule="evenodd" fill="#FFFFFF" d="M47,257.7c-0.1-1.4,1-2.5,2.4-2.6c1.4-0.1,2.6,1,2.6,2.4
						c0.1,1.4-1,2.5-2.4,2.6C48.2,260.1,47.1,259,47,257.7z"/>
					<path fill-rule="evenodd" clip-rule="evenodd" fill="#FFFFFF" d="M39.5,258c-0.1-1.4,1-2.5,2.4-2.6c1.4-0.1,2.6,1,2.6,2.4
						c0.1,1.4-1,2.5-2.4,2.6C40.7,260.4,39.6,259.4,39.5,258z"/>
					<path fill-rule="evenodd" clip-rule="evenodd" fill="#FFFFFF" d="M32,258.4c-0.1-1.4,1-2.5,2.4-2.6c1.4-0.1,2.6,1,2.6,2.4
						c0.1,1.4-1,2.5-2.4,2.6C33.2,260.8,32.1,259.7,32,258.4z"/>
					<path fill-rule="evenodd" clip-rule="evenodd" fill="#FFFFFF" d="M24.5,258.7c-0.1-1.4,1-2.6,2.4-2.6c1.4-0.1,2.6,1,2.6,2.4
						c0.1,1.4-1,2.5-2.4,2.6C25.7,261.2,24.6,260.1,24.5,258.7z"/>
					<path fill-rule="evenodd" clip-rule="evenodd" fill="#FFFFFF" d="M17,259.2c-0.1-1.4,1-2.6,2.4-2.6c1.4-0.1,2.6,1,2.6,2.3
						c0.1,1.4-1,2.5-2.4,2.6C18.3,261.6,17.1,260.5,17,259.2z"/>
					<path fill-rule="evenodd" clip-rule="evenodd" fill="#FFFFFF" d="M9.5,259.6c-0.1-1.4,1-2.6,2.3-2.6c1.4-0.1,2.6,1,2.7,2.3
						c0.1,1.4-1,2.5-2.3,2.6C10.8,262,9.6,261,9.5,259.6z"/>
					<path fill-rule="evenodd" clip-rule="evenodd" fill="#FFFFFF" d="M2,260.1c-0.1-1.4,0.9-2.6,2.3-2.7c1.4-0.1,2.6,0.9,2.7,2.3
						c0.1,1.4-1,2.6-2.3,2.7C3.3,262.5,2.1,261.5,2,260.1z"/>
				</g>
	<path id="path4" fill-rule="evenodd" clip-rule="evenodd" fill="none" stroke="#F1F1F2" stroke-width="0.8796" stroke-miterlimit="10" d="
		M-0.5,173.2c15.5,1.1,67,4.3,118,4.3c85.2,0,141.8-7.6,168.2-22.5c5.9-3.3,9.9-8.1,13.9-12.6c3.8-4.5,7.5-8.7,12.2-10.6
		c5.2-2.1,11.1-3.1,17.4-3.1c5.7,0,11.7,0.9,17.6,2.5l3.3,0.9l2.1-2.7c3.9-5.2,9.4-8,15.7-8.3l0.3,0c3.1,0.1,5.9,1,8.4,2.7l2.8,1.9
		l2.8-1.9c2.5-1.7,5.3-2.6,8.4-2.7h0.3c6.4,0.3,11.8,3.2,15.8,8.3l2.1,2.7l3.3-0.9c5.6-1.6,11.7-2.4,17.4-2.4
		c6.5,0,12.6,1.1,17.7,3.1c4.7,1.9,8.4,6.1,12.2,10.6c3.9,4.6,8,9.3,13.9,12.6c26.5,15,83.1,22.5,168.2,22.5c51,0,102.5-3.4,118-4.5
		"/>
	<g id="line2">

					<path fill-rule="evenodd" clip-rule="evenodd" fill="#FFFFFF" d="M7.2,180.4c-0.1,1.4-1.3,2.4-2.7,2.3
						c-1.4-0.1-2.4-1.3-2.3-2.6c0.1-1.4,1.3-2.4,2.7-2.3C6.3,177.8,7.3,179,7.2,180.4z"/>
					<path fill-rule="evenodd" clip-rule="evenodd" fill="#FFFFFF" d="M14.7,180.9c-0.1,1.4-1.3,2.4-2.6,2.3
						c-1.4-0.1-2.4-1.3-2.3-2.6c0.1-1.4,1.3-2.4,2.6-2.3C13.7,178.3,14.8,179.5,14.7,180.9z"/>
					<circle fill-rule="evenodd" clip-rule="evenodd" fill="#FFFFFF" cx="19.7" cy="181.1" r="2.5"/>
					<circle fill-rule="evenodd" clip-rule="evenodd" fill="#FFFFFF" cx="27.1" cy="181.5" r="2.5"/>
					<circle fill-rule="evenodd" clip-rule="evenodd" fill="#FFFFFF" cx="34.6" cy="181.9" r="2.5"/>
					<circle fill-rule="evenodd" clip-rule="evenodd" fill="#FFFFFF" cx="42.1" cy="182.3" r="2.5"/>
					<circle fill-rule="evenodd" clip-rule="evenodd" fill="#FFFFFF" cx="49.6" cy="182.6" r="2.5"/>
					<circle fill-rule="evenodd" clip-rule="evenodd" fill="#FFFFFF" cx="57" cy="182.9" r="2.5"/>
					<circle fill-rule="evenodd" clip-rule="evenodd" fill="#FFFFFF" cx="64.5" cy="183.2" r="2.5"/>
					<path fill-rule="evenodd" clip-rule="evenodd" fill="#FFFFFF" d="M74.5,183.5c0,1.4-1.2,2.5-2.6,2.4c-1.4,0-2.5-1.2-2.4-2.6
						c0-1.4,1.2-2.4,2.6-2.4C73.5,181,74.5,182.1,74.5,183.5z"/>
					<path fill-rule="evenodd" clip-rule="evenodd" fill="#FFFFFF" d="M82,183.7c0,1.4-1.2,2.5-2.6,2.4c-1.4,0-2.5-1.2-2.4-2.6
						c0-1.4,1.2-2.5,2.6-2.4C80.9,181.2,82,182.3,82,183.7z"/>
					<circle fill-rule="evenodd" clip-rule="evenodd" fill="#FFFFFF" cx="87" cy="183.8" r="2.5"/>
					<path fill-rule="evenodd" clip-rule="evenodd" fill="#FFFFFF" d="M96.9,184c0,1.4-1.2,2.5-2.5,2.4c-1.4,0-2.5-1.2-2.5-2.5
						c0-1.4,1.2-2.5,2.5-2.4C95.9,181.5,97,182.6,96.9,184z"/>
					<path fill-rule="evenodd" clip-rule="evenodd" fill="#FFFFFF" d="M104.4,184.1c0,1.4-1.1,2.5-2.5,2.5c-1.4,0-2.5-1.1-2.5-2.5
						c0-1.4,1.1-2.5,2.5-2.5C103.3,181.6,104.4,182.7,104.4,184.1z"/>
					<path fill-rule="evenodd" clip-rule="evenodd" fill="#FFFFFF" d="M111.9,184.2c0,1.4-1.1,2.5-2.5,2.5c-1.4,0-2.5-1.1-2.5-2.5
						c0-1.4,1.1-2.5,2.5-2.5C110.8,181.7,111.9,182.8,111.9,184.2z"/>
					<path fill-rule="evenodd" clip-rule="evenodd" fill="#FFFFFF" d="M119.4,184.2c0,1.4-1.1,2.5-2.5,2.5c-1.4,0-2.5-1.1-2.5-2.5
						c0-1.4,1.1-2.5,2.5-2.5C118.3,181.7,119.4,182.8,119.4,184.2z"/>
					<path fill-rule="evenodd" clip-rule="evenodd" fill="#FFFFFF" d="M126.9,184.1c0,1.4-1.1,2.5-2.5,2.5c-1.4,0-2.5-1.1-2.5-2.5
						c0-1.4,1.1-2.5,2.5-2.5C125.7,181.6,126.9,182.7,126.9,184.1z"/>
					<path fill-rule="evenodd" clip-rule="evenodd" fill="#FFFFFF" d="M134.4,184.1c0,1.4-1.1,2.5-2.5,2.5c-1.4,0-2.5-1.1-2.5-2.5
						c0-1.4,1.1-2.5,2.5-2.5C133.2,181.6,134.3,182.7,134.4,184.1z"/>
					<path fill-rule="evenodd" clip-rule="evenodd" fill="#FFFFFF" d="M141.8,183.9c0,1.4-1.1,2.5-2.5,2.5c-1.4,0-2.5-1.1-2.5-2.4
						c0-1.4,1.1-2.5,2.5-2.5C140.7,181.5,141.8,182.6,141.8,183.9z"/>
					<path fill-rule="evenodd" clip-rule="evenodd" fill="#FFFFFF" d="M149.3,183.8c0,1.4-1.1,2.5-2.4,2.5c-1.4,0-2.5-1.1-2.6-2.4
						c0-1.4,1.1-2.5,2.4-2.5C148.2,181.3,149.3,182.4,149.3,183.8z"/>
					<path fill-rule="evenodd" clip-rule="evenodd" fill="#FFFFFF" d="M156.8,183.6c0,1.4-1,2.5-2.4,2.6c-1.4,0-2.5-1-2.6-2.4
						c0-1.4,1-2.5,2.4-2.6C155.6,181.1,156.8,182.2,156.8,183.6z"/>
					<path fill-rule="evenodd" clip-rule="evenodd" fill="#FFFFFF" d="M164.3,183.3c0.1,1.4-1,2.6-2.4,2.6c-1.4,0-2.5-1-2.6-2.4
						c0-1.4,1-2.5,2.4-2.6C163.1,180.9,164.2,181.9,164.3,183.3z"/>
					<path fill-rule="evenodd" clip-rule="evenodd" fill="#FFFFFF" d="M171.8,183c0.1,1.4-1,2.5-2.4,2.6c-1.4,0.1-2.5-1-2.6-2.4
						c-0.1-1.4,1-2.5,2.4-2.6C170.5,180.5,171.7,181.6,171.8,183z"/>
					<path fill-rule="evenodd" clip-rule="evenodd" fill="#FFFFFF" d="M179.2,182.6c0.1,1.4-1,2.6-2.4,2.6c-1.4,0.1-2.6-1-2.6-2.4
						c-0.1-1.4,1-2.5,2.4-2.6C178,180.2,179.2,181.2,179.2,182.6z"/>
					<path fill-rule="evenodd" clip-rule="evenodd" fill="#FFFFFF" d="M186.7,182.1c0.1,1.4-1,2.6-2.3,2.6c-1.4,0.1-2.6-1-2.6-2.3
						c-0.1-1.4,1-2.6,2.3-2.6C185.4,179.7,186.6,180.7,186.7,182.1z"/>
					<path fill-rule="evenodd" clip-rule="evenodd" fill="#FFFFFF" d="M194.2,181.6c0.1,1.4-0.9,2.6-2.3,2.7
						c-1.4,0.1-2.6-0.9-2.7-2.3c-0.1-1.4,0.9-2.6,2.3-2.7C192.9,179.2,194.1,180.2,194.2,181.6z"/>
					<path fill-rule="evenodd" clip-rule="evenodd" fill="#FFFFFF" d="M201.6,181c0.1,1.4-0.9,2.6-2.3,2.7c-1.4,0.1-2.6-0.9-2.7-2.3
						c-0.1-1.4,0.9-2.6,2.3-2.7C200.3,178.6,201.5,179.6,201.6,181z"/>
					<path fill-rule="evenodd" clip-rule="evenodd" fill="#FFFFFF" d="M209.1,180.2c0.1,1.4-0.9,2.6-2.2,2.7
						c-1.4,0.1-2.6-0.9-2.7-2.2c-0.1-1.4,0.9-2.6,2.2-2.7C207.7,177.9,208.9,178.9,209.1,180.2z"/>
					<path fill-rule="evenodd" clip-rule="evenodd" fill="#FFFFFF" d="M216.5,179.4c0.2,1.4-0.8,2.6-2.2,2.8
						c-1.4,0.2-2.6-0.8-2.8-2.2c-0.1-1.4,0.8-2.6,2.2-2.7C215.1,177.1,216.4,178,216.5,179.4z"/>
					<path fill-rule="evenodd" clip-rule="evenodd" fill="#FFFFFF" d="M224,178.5c0.2,1.4-0.8,2.6-2.2,2.8c-1.4,0.2-2.6-0.8-2.8-2.2
						c-0.2-1.4,0.8-2.6,2.2-2.8C222.5,176.2,223.8,177.1,224,178.5z"/>
					<path fill-rule="evenodd" clip-rule="evenodd" fill="#FFFFFF" d="M231.4,177.4c0.2,1.4-0.7,2.6-2.1,2.8
						c-1.4,0.2-2.6-0.7-2.8-2.1c-0.2-1.4,0.8-2.6,2.1-2.8C229.9,175.1,231.1,176.1,231.4,177.4z"/>
					<path fill-rule="evenodd" clip-rule="evenodd" fill="#FFFFFF" d="M238.7,176.2c0.2,1.4-0.7,2.6-2,2.9c-1.4,0.2-2.7-0.7-2.9-2
						c-0.2-1.3,0.7-2.6,2-2.9C237.2,173.9,238.5,174.8,238.7,176.2z"/>
					<path fill-rule="evenodd" clip-rule="evenodd" fill="#FFFFFF" d="M246.1,174.8c0.3,1.3-0.6,2.7-2,3c-1.4,0.2-2.7-0.7-2.9-2
						c-0.2-1.4,0.6-2.6,2-2.9C244.5,172.6,245.8,173.5,246.1,174.8z"/>
					<path fill-rule="evenodd" clip-rule="evenodd" fill="#FFFFFF" d="M253.4,173.2c0.3,1.3-0.5,2.7-1.9,3c-1.4,0.3-2.7-0.6-3-1.9
						c-0.3-1.3,0.6-2.7,1.9-2.9C251.8,171.1,253.1,171.9,253.4,173.2z"/>
					<path fill-rule="evenodd" clip-rule="evenodd" fill="#FFFFFF" d="M260.7,171.4c0.4,1.3-0.4,2.7-1.8,3c-1.4,0.3-2.7-0.5-3-1.8
						c-0.3-1.3,0.5-2.7,1.8-3C258.9,169.3,260.3,170.1,260.7,171.4z"/>
					<path fill-rule="evenodd" clip-rule="evenodd" fill="#FFFFFF" d="M267.9,169.3c0.4,1.3-0.3,2.7-1.7,3.1
						c-1.3,0.4-2.7-0.4-3.1-1.7c-0.4-1.3,0.4-2.7,1.7-3.1C266,167.2,267.4,168,267.9,169.3z"/>
					<path fill-rule="evenodd" clip-rule="evenodd" fill="#FFFFFF" d="M274.9,166.8c0.5,1.3-0.2,2.7-1.5,3.2
						c-1.3,0.5-2.8-0.2-3.2-1.5s0.2-2.7,1.5-3.2C273,164.8,274.4,165.5,274.9,166.8z"/>
					<path fill-rule="evenodd" clip-rule="evenodd" fill="#FFFFFF" d="M281.8,163.8c0.6,1.2,0.1,2.8-1.2,3.3c-1.3,0.6-2.8,0-3.3-1.3
						c-0.5-1.3,0-2.7,1.3-3.2C279.7,162.1,281.1,162.5,281.8,163.8z"/>
					<path fill-rule="evenodd" clip-rule="evenodd" fill="#FFFFFF" d="M288.3,160.2c0.8,1.1,0.4,2.7-0.9,3.5c-1.3,0.7-2.8,0.2-3.5-1
						c-0.6-1.2-0.2-2.7,1-3.3C286,158.7,287.5,159.1,288.3,160.2z"/>
					<path fill-rule="evenodd" clip-rule="evenodd" fill="#FFFFFF" d="M294,155.4c1,1,0.9,2.6-0.2,3.6c-1.1,1-2.7,0.8-3.6-0.3
						c-0.8-1.1-0.7-2.6,0.2-3.5C291.5,154.4,293.1,154.4,294,155.4z"/>
					<path fill-rule="evenodd" clip-rule="evenodd" fill="#FFFFFF" d="M299.1,149.9c1,0.9,1.2,2.5,0.2,3.5c-0.9,1.1-2.5,1.1-3.5,0.2
						c-1-0.9-1.1-2.5-0.2-3.5C296.5,149.1,298,149,299.1,149.9z"/>
					<path fill-rule="evenodd" clip-rule="evenodd" fill="#FFFFFF" d="M304,144.3c1,1,1.1,2.5,0.2,3.5c-0.9,1-2.5,1.1-3.5,0.2
						c-1-0.9-1.2-2.5-0.2-3.5C301.4,143.4,303.1,143.3,304,144.3z"/>
					<path fill-rule="evenodd" clip-rule="evenodd" fill="#FFFFFF" d="M309.8,139.5c0.7,1.2,0.4,2.6-0.5,3.4c-1,0.7-2.5,0.6-3.4-0.4
						c-0.9-1-0.8-2.6,0.4-3.6C307.4,138,309.1,138.3,309.8,139.5z"/>
					<path fill-rule="evenodd" clip-rule="evenodd" fill="#FFFFFF" d="M316.8,136.8c0.3,1.3-0.4,2.7-1.6,3.1
						c-1.2,0.4-2.6-0.2-3.1-1.5c-0.5-1.3,0.2-2.8,1.6-3.2C315,134.7,316.4,135.5,316.8,136.8z"/>
					<path fill-rule="evenodd" clip-rule="evenodd" fill="#FFFFFF" d="M324.1,135.5c0.1,1.4-0.8,2.6-2.1,2.8c-1.3,0.2-2.5-0.7-2.8-2
						c-0.3-1.3,0.6-2.7,2.1-2.9C322.7,133.1,324,134.1,324.1,135.5z"/>
					<path fill-rule="evenodd" clip-rule="evenodd" fill="#FFFFFF" d="M331.6,135.3c-0.1,1.4-1.2,2.4-2.5,2.5c-1.3,0-2.4-1-2.5-2.4
						c-0.1-1.4,1-2.6,2.5-2.6C330.5,132.7,331.6,133.9,331.6,135.3z"/>
					<path fill-rule="evenodd" clip-rule="evenodd" fill="#FFFFFF" d="M339,136c-0.2,1.4-1.5,2.3-2.8,2.1c-1.3-0.2-2.3-1.3-2.2-2.7
						c0.1-1.4,1.3-2.4,2.8-2.2C338.3,133.4,339.3,134.7,339,136z"/>
					<path fill-rule="evenodd" clip-rule="evenodd" fill="#FFFFFF" d="M346.3,137.6c-0.4,1.3-1.7,2.1-3,1.8c-1.3-0.3-2.1-1.6-1.9-3
						c0.3-1.3,1.6-2.2,3-1.9C345.9,134.9,346.7,136.3,346.3,137.6z"/>
					<path fill-rule="evenodd" clip-rule="evenodd" fill="#FFFFFF" d="M356.2,132.1c0.8,1.1,0.8,2.5,0,3.4c-0.8,0.8-2.3,0.9-3.4,0
						c-1.1-0.8-1.2-2.5-0.2-3.5C353.8,130.9,355.4,131,356.2,132.1z"/>
					<path fill-rule="evenodd" clip-rule="evenodd" fill="#FFFFFF" d="M362.5,128.7c0.4,1.3-0.1,2.7-1.2,3.1c-1,0.5-2.4,0-3.2-1.1
						c-0.8-1.1-0.3-2.8,1-3.4C360.6,126.7,362.1,127.4,362.5,128.7z"/>
					<path fill-rule="evenodd" clip-rule="evenodd" fill="#FFFFFF" d="M369.6,127.7c-0.1,0.7-0.4,1.3-0.8,1.7
						c-0.4,0.4-0.8,0.7-1.4,0.8c-1.1,0.1-2.3-0.8-2.6-2.1c-0.3-1.3,0.6-2.7,2.1-2.8c0.7-0.1,1.5,0.2,2,0.7
						C369.5,126.4,369.7,127,369.6,127.7z"/>
					<path fill-rule="evenodd" clip-rule="evenodd" fill="#FFFFFF" d="M376.4,129.9c-0.8,1.2-2.1,1.6-3.1,1.2c-1-0.4-1.6-1.7-1.3-3
						c0.3-1.3,1.8-2.2,3.2-1.5C376.6,127.2,377.1,128.8,376.4,129.9z"/>
					<path fill-rule="evenodd" clip-rule="evenodd" fill="#FFFFFF" d="M387.5,128.1c0.3,1.4-0.3,2.6-1.3,3c-1,0.4-2.3,0-3.1-1.2
						c-0.8-1.1-0.3-2.8,1.2-3.4C385.7,125.9,387.2,126.8,387.5,128.1z"/>
					<path fill-rule="evenodd" clip-rule="evenodd" fill="#FFFFFF" d="M394.6,128.1c-0.3,1.3-1.5,2.2-2.6,2.1c-0.6,0-1-0.4-1.4-0.8
						c-0.4-0.4-0.7-1-0.8-1.7c-0.1-0.7,0.1-1.3,0.6-1.8c0.5-0.5,1.3-0.7,2-0.7C394,125.4,394.9,126.7,394.6,128.1z"/>
					<path fill-rule="evenodd" clip-rule="evenodd" fill="#FFFFFF" d="M401.2,130.7c-0.7,1.2-2.1,1.6-3.1,1.1
						c-1-0.5-1.6-1.8-1.2-3.1c0.4-1.3,1.9-2,3.3-1.4C401.6,127.9,402,129.5,401.2,130.7z"/>
					<path fill-rule="evenodd" clip-rule="evenodd" fill="#FFFFFF" d="M406.6,135.4c-1.1,0.8-2.5,0.8-3.4,0c-0.8-0.8-0.9-2.3,0-3.4
						c0.8-1.1,2.5-1.2,3.5-0.2C407.8,132.9,407.6,134.6,406.6,135.4z"/>
					<path fill-rule="evenodd" clip-rule="evenodd" fill="#FFFFFF" d="M418,136.4c0.2,1.4-0.6,2.6-1.9,2.9c-1.3,0.3-2.6-0.5-3-1.8
						c-0.4-1.3,0.5-2.7,1.9-3C416.4,134.2,417.7,135,418,136.4z"/>
					<path fill-rule="evenodd" clip-rule="evenodd" fill="#FFFFFF" d="M425.4,135.4c0.1,1.4-0.9,2.6-2.2,2.7
						c-1.3,0.1-2.5-0.8-2.7-2.2c-0.2-1.4,0.8-2.6,2.2-2.8C424,133,425.3,134.1,425.4,135.4z"/>
					<path fill-rule="evenodd" clip-rule="evenodd" fill="#FFFFFF" d="M432.9,135.4c-0.1,1.4-1.2,2.4-2.5,2.4
						c-1.3,0-2.4-1.1-2.5-2.5c-0.1-1.4,1.1-2.5,2.5-2.5C431.8,132.8,432.9,134,432.9,135.4z"/>
					<path fill-rule="evenodd" clip-rule="evenodd" fill="#FFFFFF" d="M440.3,136.3c-0.3,1.4-1.5,2.2-2.8,2
						c-1.3-0.2-2.2-1.4-2.1-2.8c0.1-1.4,1.4-2.4,2.8-2.2C439.6,133.6,440.6,134.9,440.3,136.3z"/>
					<path fill-rule="evenodd" clip-rule="evenodd" fill="#FFFFFF" d="M447.4,138.4c-0.5,1.3-1.9,1.9-3.1,1.5
						c-1.2-0.4-2-1.7-1.6-3.1c0.3-1.3,1.8-2.1,3.2-1.7C447.3,135.6,448,137.1,447.4,138.4z"/>
					<path fill-rule="evenodd" clip-rule="evenodd" fill="#FFFFFF" d="M453.6,142.5c-0.9,1-2.5,1.1-3.4,0.4c-1-0.7-1.2-2.2-0.5-3.4
						c0.7-1.2,2.3-1.5,3.6-0.6C454.5,139.8,454.6,141.5,453.6,142.5z"/>
					<path fill-rule="evenodd" clip-rule="evenodd" fill="#FFFFFF" d="M458.8,148c-1,0.9-2.6,0.8-3.5-0.2c-0.9-1-0.8-2.5,0.2-3.5
						c1-1,2.6-0.9,3.5,0.2C459.9,145.5,459.8,147.1,458.8,148z"/>
					<path fill-rule="evenodd" clip-rule="evenodd" fill="#FFFFFF" d="M463.7,153.6c-1,0.9-2.6,0.9-3.5-0.2
						c-0.9-1.1-0.8-2.6,0.2-3.5c1-0.9,2.6-0.8,3.5,0.2C464.8,151.1,464.7,152.6,463.7,153.6z"/>
					<path fill-rule="evenodd" clip-rule="evenodd" fill="#FFFFFF" d="M469.2,158.7c-0.8,1.1-2.5,1.2-3.6,0.2
						c-1.1-1-1.1-2.6-0.2-3.6c1-1,2.5-1,3.5-0.1C469.9,156.1,470,157.6,469.2,158.7z"/>
					<path fill-rule="evenodd" clip-rule="evenodd" fill="#FFFFFF" d="M475.5,162.6c-0.6,1.2-2.2,1.7-3.5,1
						c-1.3-0.7-1.7-2.4-0.9-3.5c0.8-1.1,2.3-1.5,3.4-0.8C475.7,160,476.1,161.4,475.5,162.6z"/>
					<path fill-rule="evenodd" clip-rule="evenodd" fill="#FFFFFF" d="M482.3,165.8c-0.5,1.3-2,1.9-3.3,1.3
						c-1.3-0.5-1.8-2.1-1.2-3.3c0.6-1.2,2-1.7,3.3-1.2C482.2,163.1,482.8,164.5,482.3,165.8z"/>
					<path fill-rule="evenodd" clip-rule="evenodd" fill="#FFFFFF" d="M489.3,168.5c-0.4,1.3-1.9,2-3.2,1.5c-1.3-0.5-2-1.9-1.5-3.2
						c0.5-1.3,1.9-1.9,3.2-1.5C489,165.7,489.7,167.2,489.3,168.5z"/>
					<path fill-rule="evenodd" clip-rule="evenodd" fill="#FFFFFF" d="M496.4,170.7c-0.4,1.3-1.8,2.1-3.1,1.7
						c-1.3-0.4-2.1-1.8-1.7-3.1c0.4-1.3,1.8-2.1,3.1-1.7C496,168,496.8,169.4,496.4,170.7z"/>
					<path fill-rule="evenodd" clip-rule="evenodd" fill="#FFFFFF" d="M503.6,172.6c-0.3,1.3-1.7,2.1-3,1.8c-1.4-0.3-2.2-1.7-1.8-3
						c0.4-1.3,1.7-2.1,3-1.8C503.2,169.9,504,171.3,503.6,172.6z"/>
					<path fill-rule="evenodd" clip-rule="evenodd" fill="#FFFFFF" d="M510.9,174.3c-0.3,1.3-1.6,2.2-3,1.9c-1.4-0.3-2.2-1.6-1.9-3
						c0.3-1.3,1.6-2.1,3-1.9C510.4,171.6,511.2,172.9,510.9,174.3z"/>
					<path fill-rule="evenodd" clip-rule="evenodd" fill="#FFFFFF" d="M518.3,175.8c-0.2,1.4-1.6,2.3-2.9,2c-1.4-0.3-2.2-1.6-2-3
						c0.3-1.3,1.6-2.2,2.9-1.9C517.6,173.1,518.5,174.4,518.3,175.8z"/>
					<path fill-rule="evenodd" clip-rule="evenodd" fill="#FFFFFF" d="M525.6,177c-0.2,1.4-1.5,2.3-2.9,2c-1.4-0.2-2.3-1.5-2-2.9
						c0.2-1.4,1.5-2.3,2.9-2C524.9,174.4,525.9,175.7,525.6,177z"/>
					<path fill-rule="evenodd" clip-rule="evenodd" fill="#FFFFFF" d="M533.1,178.1c-0.2,1.4-1.5,2.3-2.8,2.1
						c-1.4-0.2-2.3-1.5-2.1-2.8c0.2-1.4,1.5-2.3,2.8-2.1C532.3,175.5,533.2,176.8,533.1,178.1z"/>
					<path fill-rule="evenodd" clip-rule="evenodd" fill="#FFFFFF" d="M540.5,179.1c-0.2,1.4-1.4,2.3-2.8,2.2
						c-1.4-0.2-2.3-1.4-2.2-2.8c0.2-1.4,1.4-2.3,2.8-2.2C539.7,176.5,540.6,177.7,540.5,179.1z"/>
					<path fill-rule="evenodd" clip-rule="evenodd" fill="#FFFFFF" d="M547.9,180c-0.1,1.4-1.4,2.4-2.8,2.2
						c-1.4-0.2-2.4-1.4-2.2-2.8c0.2-1.4,1.4-2.3,2.8-2.2C547.1,177.4,548.1,178.6,547.9,180z"/>
					<path fill-rule="evenodd" clip-rule="evenodd" fill="#FFFFFF" d="M555.4,180.7c-0.1,1.4-1.3,2.4-2.7,2.2
						c-1.4-0.1-2.4-1.4-2.2-2.7c0.1-1.4,1.4-2.4,2.7-2.2C554.5,178.1,555.5,179.3,555.4,180.7z"/>
					<path fill-rule="evenodd" clip-rule="evenodd" fill="#FFFFFF" d="M562.8,181.4c-0.1,1.4-1.3,2.4-2.7,2.3
						c-1.4-0.1-2.4-1.3-2.3-2.7c0.1-1.4,1.3-2.4,2.7-2.3C561.9,178.8,562.9,180,562.8,181.4z"/>
					<path fill-rule="evenodd" clip-rule="evenodd" fill="#FFFFFF" d="M570.3,182c-0.1,1.4-1.3,2.4-2.7,2.3
						c-1.4-0.1-2.4-1.3-2.3-2.7c0.1-1.4,1.3-2.4,2.7-2.3C569.3,179.4,570.4,180.6,570.3,182z"/>
					<path fill-rule="evenodd" clip-rule="evenodd" fill="#FFFFFF" d="M577.7,182.4c-0.1,1.4-1.3,2.4-2.6,2.3
						c-1.4-0.1-2.4-1.3-2.3-2.6c0.1-1.4,1.3-2.4,2.6-2.3C576.8,179.9,577.8,181,577.7,182.4z"/>
					<path fill-rule="evenodd" clip-rule="evenodd" fill="#FFFFFF" d="M585.2,182.8c-0.1,1.4-1.2,2.4-2.6,2.4
						c-1.4-0.1-2.4-1.3-2.4-2.6c0.1-1.4,1.3-2.4,2.6-2.3C584.2,180.3,585.3,181.5,585.2,182.8z"/>
					<path fill-rule="evenodd" clip-rule="evenodd" fill="#FFFFFF" d="M592.7,183.2c-0.1,1.4-1.2,2.4-2.6,2.4
						c-1.4-0.1-2.4-1.2-2.4-2.6c0.1-1.4,1.2-2.4,2.6-2.4C591.7,180.6,592.8,181.8,592.7,183.2z"/>
					<path fill-rule="evenodd" clip-rule="evenodd" fill="#FFFFFF" d="M600.2,183.5c0,1.4-1.2,2.5-2.6,2.4c-1.4,0-2.5-1.2-2.4-2.6
						c0.1-1.4,1.2-2.4,2.6-2.4C599.1,181,600.2,182.1,600.2,183.5z"/>
					<path fill-rule="evenodd" clip-rule="evenodd" fill="#FFFFFF" d="M607.7,183.7c0,1.4-1.2,2.5-2.6,2.4c-1.4,0-2.5-1.2-2.4-2.6
						c0-1.4,1.2-2.5,2.6-2.4C606.6,181.2,607.7,182.3,607.7,183.7z"/>
					<path fill-rule="evenodd" clip-rule="evenodd" fill="#FFFFFF" d="M615.1,183.9c0,1.4-1.2,2.5-2.6,2.4c-1.4,0-2.5-1.2-2.4-2.5
						c0-1.4,1.2-2.5,2.6-2.4C614.1,181.4,615.2,182.5,615.1,183.9z"/>
					<path fill-rule="evenodd" clip-rule="evenodd" fill="#FFFFFF" d="M622.6,184c0,1.4-1.2,2.5-2.5,2.4c-1.4,0-2.5-1.2-2.5-2.5
						c0-1.4,1.2-2.5,2.5-2.4C621.5,181.5,622.6,182.6,622.6,184z"/>
					<path fill-rule="evenodd" clip-rule="evenodd" fill="#FFFFFF" d="M630.1,184.1c0,1.4-1.1,2.5-2.5,2.5c-1.4,0-2.5-1.1-2.5-2.5
						c0-1.4,1.1-2.5,2.5-2.5C629,181.6,630.1,182.7,630.1,184.1z"/>
					<path fill-rule="evenodd" clip-rule="evenodd" fill="#FFFFFF" d="M637.6,184.2c0,1.4-1.1,2.5-2.5,2.5c-1.4,0-2.5-1.1-2.5-2.5
						c0-1.4,1.1-2.5,2.5-2.5C636.5,181.7,637.6,182.8,637.6,184.2z"/>
					<path fill-rule="evenodd" clip-rule="evenodd" fill="#FFFFFF" d="M645.1,184.2c0,1.4-1.1,2.5-2.5,2.5c-1.4,0-2.5-1.1-2.5-2.5
						c0-1.4,1.1-2.5,2.5-2.5C644,181.7,645.1,182.8,645.1,184.2z"/>
					<path fill-rule="evenodd" clip-rule="evenodd" fill="#FFFFFF" d="M652.6,184.1c0,1.4-1.1,2.5-2.5,2.5c-1.4,0-2.5-1.1-2.5-2.5
						c0-1.4,1.1-2.5,2.5-2.5C651.4,181.6,652.5,182.7,652.6,184.1z"/>
					<path fill-rule="evenodd" clip-rule="evenodd" fill="#FFFFFF" d="M660,184c0,1.4-1.1,2.5-2.5,2.5c-1.4,0-2.5-1.1-2.5-2.5
						c0-1.4,1.1-2.5,2.5-2.5C658.9,181.6,660,182.7,660,184z"/>
					<path fill-rule="evenodd" clip-rule="evenodd" fill="#FFFFFF" d="M667.5,183.9c0,1.4-1.1,2.5-2.4,2.5c-1.4,0-2.5-1.1-2.5-2.4
						c0-1.4,1.1-2.5,2.4-2.5C666.4,181.4,667.5,182.5,667.5,183.9z"/>
					<path fill-rule="evenodd" clip-rule="evenodd" fill="#FFFFFF" d="M675,183.7c0,1.4-1.1,2.5-2.4,2.6c-1.4,0-2.5-1.1-2.6-2.4
						c0-1.4,1.1-2.5,2.4-2.5S675,182.4,675,183.7z"/>
					<path fill-rule="evenodd" clip-rule="evenodd" fill="#FFFFFF" d="M682.5,183.5c0,1.4-1,2.5-2.4,2.6c-1.4,0-2.5-1.1-2.6-2.4
						c0-1.4,1-2.5,2.4-2.6C681.3,181.1,682.5,182.2,682.5,183.5z"/>
					<path fill-rule="evenodd" clip-rule="evenodd" fill="#FFFFFF" d="M690,183.3c0,1.4-1,2.5-2.4,2.6c-1.4,0-2.5-1-2.6-2.4
						c0-1.4,1-2.5,2.4-2.6C688.8,180.9,689.9,181.9,690,183.3z"/>
					<circle fill-rule="evenodd" clip-rule="evenodd" fill="#FFFFFF" cx="695" cy="183.1" r="2.5"/>
					<circle fill-rule="evenodd" clip-rule="evenodd" fill="#FFFFFF" cx="702.4" cy="182.8" r="2.5"/>
					<circle fill-rule="evenodd" clip-rule="evenodd" fill="#FFFFFF" cx="709.9" cy="182.5" r="2.5"/>
					<circle fill-rule="evenodd" clip-rule="evenodd" fill="#FFFFFF" cx="717.4" cy="182.2" r="2.5"/>
					<circle fill-rule="evenodd" clip-rule="evenodd" fill="#FFFFFF" cx="724.9" cy="181.8" r="2.5"/>
					<circle fill-rule="evenodd" clip-rule="evenodd" fill="#FFFFFF" cx="732.4" cy="181.4" r="2.5"/>
					<circle fill-rule="evenodd" clip-rule="evenodd" fill="#FFFFFF" cx="739.8" cy="181" r="2.5"/>
					<circle fill-rule="evenodd" clip-rule="evenodd" fill="#FFFFFF" cx="747.3" cy="180.5" r="2.5"/>
					<circle fill-rule="evenodd" clip-rule="evenodd" fill="#FFFFFF" cx="754.8" cy="180" r="2.5"/>
	</g>
	<g id="poly2">
	<polygon fill-rule="evenodd" clip-rule="evenodd" fill="#FFFFFF" points="437.6,150.3 438.9,154.4 443.3,154.4 439.8,156.9 
		441.1,161.1 437.6,158.5 434.1,161.1 435.4,156.9 431.9,154.4 436.3,154.4 	"/>
	<polygon fill-rule="evenodd" clip-rule="evenodd" fill="#FFFFFF" points="328.4,154.3 329.7,158.4 334.1,158.4 330.6,160.9 
		331.9,165.1 328.4,162.5 324.9,165.1 326.2,160.9 322.7,158.4 327.1,158.4 	"/>
	</g>
	<g id="path3">
		<path fill-rule="evenodd" clip-rule="evenodd" fill="#FFFFFF" d="M379.7,152.3c0.3-0.8,1-2.9,1.7-3.8c1-1-0.3-2.4-0.3-2.4
			s0.9-0.9,0.2-1.9c-0.6-0.8-1.3-1.7-1.6-2c-0.3,0.3-1,1.1-1.6,2c-0.7,1,0.2,1.9,0.2,1.9s-1.3,1.4-0.3,2.4
			C378.7,149.4,379.4,151.5,379.7,152.3z"/>
		<path fill-rule="evenodd" clip-rule="evenodd" fill="#FFFFFF" d="M379.7,157.9c0,0-1.2,1.8-2.9,0.2c-0.7-0.7-1.2-1.7-1.7-2.7
			c-0.8-1.5-1.8-2.9-3.8-3.2c-1.3-0.2-2.2,0-2.9,0.5c-1.1,0.7-1.7,1.9-2.3,3.2c-1,2-2.4,0.6-2-0.4c0,0-1.2,2.2,0.5,3
			c0,0,1.4,1.3,2.6,0.2c1.1-1.1,0.2-2.2,0.2-2.2s0.7-3.8,3.6-3.3c2.9,0.5,3.4,2,4.2,3.7C376.1,158.6,378.3,160.5,379.7,157.9z"/>
		<path fill-rule="evenodd" clip-rule="evenodd" fill="#FFFFFF" d="M379.7,163.3c0,0-1.7,0.1-4-2.3c-1.6-1.6-3.1-2.2-4-2
			c-1.3,0.4-2,2.2-4.2,1.8c-1.6-0.3-3.9-1.1-4.5-3.5c-1.1-3.9-7.8-3.1-8.4,0.1c-0.6,3.2-2.6,1.4-2.6,1.4s3.6,1.7,4.2-0.2
			c0,0,1.2,0.6,1.6-1c0.4-1.7,0.9-2.1,2.3-1.8c1.4,0.3,2.1,1.7,3,3.5c0.9,1.8,5.2,3.8,7.4,1.8c2.1-2,4.2-0.9,5.3,0.7
			C376.8,163.5,379.7,163.3,379.7,163.3z"/>
		<path fill-rule="evenodd" clip-rule="evenodd" fill="#FFFFFF" d="M376.9,154.6c0,0,0.8-2.3-3-2.9c-3.8-0.6-2.8-2.5-2.8-2.5
			s0.7,1.8,2.2,0.6c1.5-1.2,3.9,0.3,3.9,1.5C377.3,152.6,376.9,154.6,376.9,154.6z"/>
		<path fill-rule="evenodd" clip-rule="evenodd" fill="#FFFFFF" d="M382.4,154.6c0,0-0.8-2.3,3-2.9c3.8-0.6,2.8-2.5,2.8-2.5
			s-0.7,1.8-2.2,0.6c-1.5-1.2-3.9,0.3-3.9,1.5C382,152.6,382.4,154.6,382.4,154.6z"/>
		<path fill-rule="evenodd" clip-rule="evenodd" fill="#FFFFFF" d="M379.7,157.9c0,0,1.2,1.8,2.9,0.2c0.7-0.7,1.2-1.7,1.8-2.7
			c0.8-1.5,1.8-2.9,3.8-3.2c1.3-0.2,2.2,0,2.9,0.5c1.1,0.7,1.7,1.9,2.3,3.2c1,2,2.4,0.6,2-0.4c0,0,1.2,2.2-0.5,3
			c0,0-1.4,1.3-2.6,0.2c-1.1-1.1-0.2-2.2-0.2-2.2s-0.7-3.8-3.6-3.3c-2.9,0.5-3.4,2-4.2,3.7C383.3,158.6,381,160.5,379.7,157.9z"/>
		<path fill-rule="evenodd" clip-rule="evenodd" fill="#FFFFFF" d="M379.7,163.3c0,0,1.7,0.1,4-2.3c1.6-1.6,3.1-2.2,4-2
			c1.3,0.4,2,2.2,4.2,1.8c1.6-0.3,3.9-1.1,4.5-3.5c1.1-3.9,7.8-3.1,8.4,0.1c0.6,3.2,2.6,1.4,2.6,1.4s-3.6,1.7-4.2-0.2
			c0,0-1.2,0.6-1.6-1c-0.4-1.7-0.9-2.1-2.3-1.8c-1.4,0.3-2.1,1.7-3,3.5c-0.9,1.8-5.2,3.8-7.4,1.8c-2.1-2-4.2-0.9-5.3,0.7
			C382.5,163.5,379.7,163.3,379.7,163.3z"/>
		<path fill-rule="evenodd" clip-rule="evenodd" fill="#FFFFFF" d="M379.7,156.5c0.6,0,1.1,0.5,1.1,1.1c0,0.6-0.5,1.1-1.1,1.1
			c-0.6,0-1.1-0.5-1.1-1.1C378.6,157,379,156.5,379.7,156.5z"/>
		<path fill-rule="evenodd" clip-rule="evenodd" fill="#FFFFFF" d="M379.7,161.5c0.6,0,1.1,0.5,1.1,1.1c0,0.6-0.5,1.1-1.1,1.1
			c-0.6,0-1.1-0.5-1.1-1.1C378.6,162,379,161.5,379.7,161.5z"/>
		<path fill-rule="evenodd" clip-rule="evenodd" fill="#FFFFFF" d="M379.7,150.9l-1,3.2c0,0,0.1,0.7,0.4,0.9c0,0-1.1,1-1,1.8
			c0.2,0.8,1.1,0.9,1.1,0.9s0.8,1.1,0,2c-0.8,0.9,0.6,2.8,0.6,2.8c0,0,1.4-1.9,0.6-2.8c-0.8-0.9,0-2,0-2s0.9-0.1,1.1-0.9
			c0.2-0.8-1-1.8-1-1.8c0.2-0.2,0.4-0.9,0.4-0.9L379.7,150.9z"/>
		<path fill-rule="evenodd" clip-rule="evenodd" fill="#FFFFFF" d="M379.3,162.5c0,0-0.9,2.3-4.1,0.2c-3.2-2.1-3.7,0-3.7,0
			s1.7-0.8,2.1,1.1c0.3,1.9,3.2,2.4,4,1.5C378.2,164.3,379.3,162.5,379.3,162.5z"/>
		<path fill-rule="evenodd" clip-rule="evenodd" fill="#FFFFFF" d="M379.9,162.5c0,0,0.9,2.3,4.1,0.2c3.2-2.1,3.7,0,3.7,0
			s-1.7-0.8-2.1,1.1c-0.3,1.9-3.2,2.4-3.9,1.5C381,164.3,379.9,162.5,379.9,162.5z"/>
	</g>
	<g id="path5">
					<path fill-rule="evenodd" clip-rule="evenodd" fill="#FFFFFF" d="M443.6,242.3c-1.6-0.3-2.7-1.8-2.4-3.2
						c0.1-1.5,1.5-2.6,3.1-2.5c1.6,0.1,2.9,1.5,2.7,3.3C446.7,241.5,445.2,242.7,443.6,242.3z"/>
					<path fill-rule="evenodd" clip-rule="evenodd" fill="#FFFFFF" d="M441.3,250.7c-1.5-0.6-2.3-2.2-1.9-3.6
						c0.4-1.4,2.1-2.3,3.6-1.9c1.6,0.4,2.5,2,2,3.7C444.5,250.5,442.8,251.3,441.3,250.7z"/>
					<path fill-rule="evenodd" clip-rule="evenodd" fill="#FFFFFF" d="M437.5,258.6c-1.4-0.8-1.9-2.6-1.2-3.9
						c0.8-1.3,2.3-1.9,3.8-1.3c1.4,0.6,2.2,2.5,1.4,4C440.7,258.9,438.9,259.4,437.5,258.6z"/>
					<path fill-rule="evenodd" clip-rule="evenodd" fill="#FFFFFF" d="M432.5,265.7c-1.3-1.1-1.3-2.8-0.5-4c0.9-1.2,2.7-1.5,4-0.6
						c1.4,0.9,1.6,2.7,0.7,4.1C435.7,266.6,433.7,266.7,432.5,265.7z"/>
					<path fill-rule="evenodd" clip-rule="evenodd" fill="#FFFFFF" d="M426.4,271.9c-1.1-1.2-1-3,0.1-4.1c1.1-1,2.9-1.1,4.1,0
						c1.2,1.1,1.3,3,0,4.2C429.3,273.2,427.5,273.1,426.4,271.9z"/>
					<path fill-rule="evenodd" clip-rule="evenodd" fill="#FFFFFF" d="M419.5,277.2c-0.9-1.4-0.5-3,0.7-4c1.2-0.9,3-0.7,4,0.6
						c1,1.2,0.8,3.1-0.6,4.1C422.3,279,420.3,278.5,419.5,277.2z"/>
					<path fill-rule="evenodd" clip-rule="evenodd" fill="#FFFFFF" d="M411.9,281.5c-0.7-1.5-0.2-3.2,1.2-3.9
						c1.4-0.7,3.1-0.2,3.9,1.1c0.9,1.4,0.4,3.2-1.1,4C414.4,283.5,412.6,283,411.9,281.5z"/>
					<path fill-rule="evenodd" clip-rule="evenodd" fill="#FFFFFF" d="M403.9,284.8c-0.5-1.6,0.3-3.1,1.7-3.7
						c1.4-0.6,3.1,0.1,3.7,1.6c0.7,1.5-0.1,3.2-1.6,3.8C406.1,287.3,404.4,286.4,403.9,284.8z"/>
					<path fill-rule="evenodd" clip-rule="evenodd" fill="#FFFFFF" d="M395.5,287.1c-0.3-1.6,0.6-3.1,2.1-3.5c1.5-0.3,3,0.5,3.5,2.1
						c0.5,1.5-0.4,3.3-2.1,3.6C397.4,289.7,395.8,288.7,395.5,287.1z"/>
					<path fill-rule="evenodd" clip-rule="evenodd" fill="#FFFFFF" d="M386.8,288.4c-0.1-1.6,1-3.1,2.5-3.3c1.5-0.2,3,0.9,3.2,2.5
						c0.3,1.6-0.8,3.1-2.5,3.3C388.4,291.2,387,290.1,386.8,288.4z"/>
					<path fill-rule="evenodd" clip-rule="evenodd" fill="#FFFFFF" d="M378.1,288.6c0.1-1.6,1.3-2.8,2.9-2.9
						c1.5-0.1,2.8,1.2,2.9,2.8c0.1,1.6-1.2,3-2.9,3C379.4,291.7,378.1,290.2,378.1,288.6z"/>
					<path fill-rule="evenodd" clip-rule="evenodd" fill="#FFFFFF" d="M369.4,287.9c0.2-1.6,1.7-2.7,3.2-2.5
						c1.5,0.3,2.7,1.5,2.6,3.2c-0.1,1.6-1.5,2.9-3.2,2.7C370.4,290.9,369.2,289.5,369.4,287.9z"/>
					<path fill-rule="evenodd" clip-rule="evenodd" fill="#FFFFFF" d="M360.9,286.1c0.4-1.5,2-2.5,3.5-2.2c1.5,0.3,2.5,1.9,2.2,3.5
						c-0.3,1.6-1.8,2.6-3.5,2.2C361.4,289.3,360.5,287.7,360.9,286.1z"/>
					<path fill-rule="evenodd" clip-rule="evenodd" fill="#FFFFFF" d="M352.7,283.3c0.6-1.5,2.3-2.2,3.7-1.6
						c1.5,0.5,2.3,2.1,1.8,3.6c-0.5,1.5-2.2,2.4-3.8,1.9C352.8,286.5,352.1,284.8,352.7,283.3z"/>
					<path fill-rule="evenodd" clip-rule="evenodd" fill="#FFFFFF" d="M344.8,279.5c0.8-1.4,2.6-2,3.9-1.3c1.4,0.7,1.9,2.5,1.3,3.9
						c-0.7,1.5-2.4,2.1-3.9,1.3C344.6,282.7,344,280.9,344.8,279.5z"/>
					<path fill-rule="evenodd" clip-rule="evenodd" fill="#FFFFFF" d="M337.6,274.7c1-1.3,2.7-1.5,4-0.6c1.3,0.8,1.6,2.6,0.8,4
						c-0.9,1.4-2.7,1.7-4.1,0.8C336.8,277.9,336.6,275.9,337.6,274.7z"/>
					<path fill-rule="evenodd" clip-rule="evenodd" fill="#FFFFFF" d="M331,268.9c1.2-1.1,3-1.2,4.1-0.1c1.1,1,1.2,2.9,0.1,4.1
						c-1.1,1.3-2.9,1.4-4.1,0.2C329.9,271.9,329.9,270,331,268.9z"/>
					<path fill-rule="evenodd" clip-rule="evenodd" fill="#FFFFFF" d="M325.5,262.2c1.3-0.9,3.1-0.7,4,0.5c1,1.1,0.8,2.9-0.4,4
						c-1.2,1.1-3.1,0.9-4.2-0.4C323.9,265,324.2,263.1,325.5,262.2z"/>
					<path fill-rule="evenodd" clip-rule="evenodd" fill="#FFFFFF" d="M321,254.7c1.4-0.7,3.2-0.2,3.9,1.1c0.7,1.3,0.2,3.1-1.1,4
						c-1.4,0.9-3.1,0.4-4-1.1C319,257.2,319.5,255.4,321,254.7z"/>
					<path fill-rule="evenodd" clip-rule="evenodd" fill="#FFFFFF" d="M318,246.6c1.6-0.4,3.2,0.4,3.6,1.8c0.4,1.4-0.2,3-1.7,3.7
						c-1.5,0.6-3.3-0.1-3.8-1.7C315.6,248.7,316.4,247,318,246.6z"/>
					<path fill-rule="evenodd" clip-rule="evenodd" fill="#FFFFFF" d="M316.4,238c1.6-0.1,2.9,1,3.3,2.4c0.3,1.5-0.8,2.9-2.4,3.3
						c-1.6,0.4-3.1-0.7-3.4-2.4C313.5,239.7,314.8,238.2,316.4,238z"/>
					<path fill-rule="evenodd" clip-rule="evenodd" fill="#FFFFFF" d="M316.4,229.3c1.6,0.2,2.8,1.5,2.8,3c-0.2,1.5-1.3,2.7-2.9,2.8
						c-1.6,0.1-3.1-1.3-2.9-3C313.4,230.4,314.8,229.2,316.4,229.3z"/>
					<path fill-rule="evenodd" clip-rule="evenodd" fill="#FFFFFF" d="M318,220.8c1.6,0.5,2.3,2,2.1,3.4c-0.3,1.5-1.8,2.5-3.4,2.2
						c-1.6-0.2-2.7-1.8-2.3-3.5C314.7,221.3,316.5,220.3,318,220.8z"/>
					<path fill-rule="evenodd" clip-rule="evenodd" fill="#FFFFFF" d="M321,212.6c1.4,0.7,2.1,2.4,1.6,3.8c-0.6,1.4-2.3,2.1-3.8,1.6
						c-1.6-0.5-2.3-2.3-1.6-3.8C317.9,212.6,319.6,211.9,321,212.6z"/>
					<path fill-rule="evenodd" clip-rule="evenodd" fill="#FFFFFF" d="M325.5,205.2c1.3,0.9,1.7,2.7,0.8,3.9c-0.7,1.3-2.5,1.7-3.9,1
						c-1.4-0.8-1.9-2.6-1.1-4.1C322.3,204.6,324.2,204.2,325.5,205.2z"/>
					<path fill-rule="evenodd" clip-rule="evenodd" fill="#FFFFFF" d="M331,198.4c1.1,1.1,1.3,3,0.3,4.1c-1,1.1-2.8,1.3-4.1,0.3
						c-1.3-1-1.4-2.8-0.3-4.1C328,197.4,329.9,197.3,331,198.4z"/>
					<path fill-rule="evenodd" clip-rule="evenodd" fill="#FFFFFF" d="M337.6,192.7c1,1.3,0.8,3.1-0.4,4c-1.2,1-2.9,0.9-4-0.3
						c-1.1-1.2-1-3.1,0.3-4.2C334.7,191.2,336.6,191.4,337.6,192.7z"/>
					<path fill-rule="evenodd" clip-rule="evenodd" fill="#FFFFFF" d="M344.8,187.8c0.8,1.4,0.4,3.2-0.9,4c-1.3,0.8-3.1,0.4-4-0.9
						c-0.9-1.3-0.5-3.1,0.9-4C342.2,186,344,186.4,344.8,187.8z"/>
					<path fill-rule="evenodd" clip-rule="evenodd" fill="#FFFFFF" d="M352.7,184.1c0.6,1.5-0.1,3.2-1.5,3.8
						c-1.4,0.7-3.1,0.1-3.8-1.3c-0.7-1.4-0.2-3.2,1.4-4C350.3,181.9,352.1,182.6,352.7,184.1z"/>
					<path fill-rule="evenodd" clip-rule="evenodd" fill="#FFFFFF" d="M360.9,181.2c0.4,1.6-0.4,3.2-1.9,3.7
						c-1.5,0.5-3.1-0.4-3.7-1.9c-0.6-1.5,0.3-3.2,1.9-3.7C358.9,178.8,360.5,179.7,360.9,181.2z"/>
					<path fill-rule="evenodd" clip-rule="evenodd" fill="#FFFFFF" d="M369.4,179.5c0.2,1.6-0.8,3-2.3,3.3c-1.5,0.3-3-0.7-3.4-2.2
						c-0.4-1.6,0.7-3.1,2.3-3.5C367.7,176.7,369.2,177.9,369.4,179.5z"/>
					<path fill-rule="evenodd" clip-rule="evenodd" fill="#FFFFFF" d="M378.1,178.7c0,1.6-1.2,3-2.7,3c-1.5,0-2.9-1-3.1-2.7
						c-0.2-1.6,1-3.1,2.7-3.2C376.7,175.9,378.1,177.1,378.1,178.7z"/>
					<path fill-rule="evenodd" clip-rule="evenodd" fill="#FFFFFF" d="M386.8,178.9c-0.2,1.6-1.5,2.9-3,2.8c-1.5-0.1-2.8-1.4-2.8-3
						c0-1.6,1.4-2.9,3-2.8C385.8,175.9,387,177.3,386.8,178.9z"/>
					<path fill-rule="evenodd" clip-rule="evenodd" fill="#FFFFFF" d="M395.5,180.2c-0.3,1.6-1.8,2.5-3.3,2.3
						c-1.5-0.2-2.6-1.7-2.4-3.3c0.2-1.6,1.7-2.7,3.4-2.5C394.7,177,395.8,178.7,395.5,180.2z"/>
					<path fill-rule="evenodd" clip-rule="evenodd" fill="#FFFFFF" d="M403.9,182.5c-0.5,1.5-2.1,2.4-3.6,1.9c-1.4-0.5-2.4-2-2-3.6
						c0.4-1.6,2-2.6,3.6-2C403.5,179.3,404.4,181,403.9,182.5z"/>
					<path fill-rule="evenodd" clip-rule="evenodd" fill="#FFFFFF" d="M411.9,185.8c-0.7,1.4-2.4,2-3.8,1.5
						c-1.4-0.6-2.1-2.3-1.5-3.8c0.6-1.5,2.3-2.2,3.9-1.6C412,182.5,412.6,184.4,411.9,185.8z"/>
					<path fill-rule="evenodd" clip-rule="evenodd" fill="#FFFFFF" d="M419.5,190.2c-0.9,1.3-2.7,1.8-4,0.9c-1.3-0.9-1.8-2.5-1-3.9
						c0.7-1.4,2.6-2,4-1.1C420,187,420.4,188.8,419.5,190.2z"/>
					<path fill-rule="evenodd" clip-rule="evenodd" fill="#FFFFFF" d="M426.4,195.4c-1.1,1.2-2.8,1.3-4.1,0.4
						c-1.2-0.9-1.4-2.8-0.5-4.1c0.9-1.3,2.8-1.5,4.1-0.5C427.4,192.3,427.5,194.2,426.4,195.4z"/>
					<path fill-rule="evenodd" clip-rule="evenodd" fill="#FFFFFF" d="M432.5,201.7c-1.2,1-3.1,0.9-4.1-0.2c-0.9-1.2-1-2.9,0.1-4.1
						c1.1-1.1,3.1-1.2,4.2,0.1C433.8,198.8,433.7,200.7,432.5,201.7z"/>
					<path fill-rule="evenodd" clip-rule="evenodd" fill="#FFFFFF" d="M437.5,208.8c-1.4,0.8-3,0.4-4-0.8c-0.9-1.2-0.5-3,0.8-4
						c1.3-1,3.1-0.6,4.1,0.7C439.4,206.1,438.9,208,437.5,208.8z"/>
					<path fill-rule="evenodd" clip-rule="evenodd" fill="#FFFFFF" d="M441.3,216.6c-1.5,0.6-3.2-0.1-3.8-1.5
						c-0.5-1.4,0-3.1,1.4-3.8c1.4-0.8,3.3-0.2,3.9,1.4C443.5,214.3,442.8,216.1,441.3,216.6z"/>
					<path fill-rule="evenodd" clip-rule="evenodd" fill="#FFFFFF" d="M443.6,225c-1.6,0.3-3-0.7-3.4-2.1c-0.4-1.4,0.5-3,2-3.5
						c1.5-0.5,3.2,0.4,3.7,2.1C446.3,223.1,445.2,224.7,443.6,225z"/>
					<path fill-rule="evenodd" clip-rule="evenodd" fill="#FFFFFF" d="M444.5,233.7c-1.6,0-3-1.2-3.1-2.7c-0.1-1.5,1.2-2.9,2.7-3.1
						c1.6-0.2,3,1,3.1,2.7C447.3,232.3,446.1,233.7,444.5,233.7z"/>
	</g>
	<g id="path6">
					<path fill="#FFFFFF" d="M479.9,212.3c-0.1-0.5-0.3-1-0.4-1.5c-0.1-0.5-0.1-1,0-1.6c0.2-0.5,0.5-1.1,1-1.5
						c0.5-0.4,1-0.7,1.6-0.9c1.2-0.3,2.3-0.4,3.3-0.5c0.5,0,1-0.1,1.4-0.4c0.4-0.2,0.7-0.7,0.8-1.1c0,0.5,0.2,1.1,0,1.8
						c-0.3,0.7-0.9,1.2-1.4,1.7c-1.1,0.7-2.2,1.2-2.8,1.5c-0.4,0-0.7,0-1,0c-0.3,0-0.6,0-0.9,0.2c-0.4,0.1-0.8,0.5-1.1,0.9
						C480,211.2,479.8,211.8,479.9,212.3z"/>
						<path fill="#FFFFFF" d="M515.5,224.6c-0.4,0.3-0.9,0.5-1.4,0.6c-0.5,0.1-1,0.1-1.5,0.1c-1,0-1.9-0.2-2.9-0.4
							c-1-0.1-2-0.2-3.1-0.1c-0.5,0.1-1.1,0.2-1.6,0.3c-0.5,0.2-1,0.4-1.4,0.7c0.5-0.2,1-0.3,1.5-0.2c0.5,0,1,0.2,1.4,0.4
							c0.9,0.2,1.7,0.6,2.6,0.9c1,0.1,2.1,0.1,3.4-0.3c0.6-0.2,1.2-0.6,1.7-0.9C514.8,225.3,515.1,224.9,515.5,224.6z"/>
						<path fill="#FFFFFF" d="M503.6,225.8c0.3,0,0.7,0,1,0.1c0.3,0.1,0.6,0.2,0.8,0.4c0.5,0.3,0.9,0.8,1.2,1.3
							c0.4,0.4,0.8,0.9,1.3,1.3c0.3,0.2,0.6,0.3,0.9,0.5c0.3,0.1,0.7,0.2,1,0.2c-0.3-0.1-0.5-0.4-0.6-0.8c-0.1-0.3-0.2-0.6-0.2-0.9
							c-0.1-0.2-0.3-0.5-0.5-0.7c-0.2-0.2-0.3-0.5-0.6-0.7c-0.6-0.4-1.3-0.7-2.1-0.9c-0.4-0.1-0.9-0.1-1.3,0
							C504.3,225.7,504,225.8,503.6,225.8z"/>
						<path fill="#FFFFFF" d="M474.4,214.5c-0.4,0.3-0.9,0.5-1.4,0.6c-0.5,0.1-1,0.1-1.5,0.1c-1,0-1.9-0.2-2.9-0.4
							c-1-0.1-2-0.2-3.1-0.1c-0.5,0.1-1.1,0.2-1.6,0.3c-0.5,0.2-1,0.4-1.4,0.7c0.5-0.2,1-0.3,1.5-0.2c0.5,0,1,0.2,1.4,0.4
							c0.9,0.2,1.7,0.6,2.6,0.9c1,0.1,2.1,0.1,3.4-0.3c0.6-0.2,1.2-0.6,1.7-0.9C473.7,215.2,474,214.8,474.4,214.5z"/>
						<path fill="#FFFFFF" d="M462.6,215.7c0.3,0,0.7,0,1,0.1c0.3,0.1,0.6,0.2,0.8,0.4c0.5,0.3,0.9,0.8,1.2,1.3
							c0.4,0.4,0.8,0.9,1.3,1.3c0.3,0.2,0.6,0.3,0.9,0.5c0.3,0.1,0.7,0.2,1,0.2c-0.3-0.1-0.5-0.4-0.6-0.8c-0.1-0.3-0.2-0.6-0.2-0.9
							c-0.1-0.2-0.3-0.5-0.5-0.7c-0.2-0.2-0.3-0.5-0.6-0.7c-0.6-0.4-1.3-0.7-2.1-0.9c-0.4-0.1-0.9-0.1-1.3,0
							C463.2,215.6,462.9,215.7,462.6,215.7z"/>
						<path fill="#FFFFFF" d="M512.3,221.7c0,0-0.2,0.2-0.6,0.5c-0.2,0.2-0.5,0.4-0.8,0.6c-0.3,0.2-0.6,0.4-1,0.7
							c-0.8,0.5-1.7,1-2.7,1.3c-1,0.4-2.2,0.6-3.4,0.7c-1.2,0-2.3-0.1-3.4-0.4c-1.1-0.3-2-0.6-2.8-1c-0.8-0.4-1.5-0.7-1.9-0.9
							c-0.5-0.2-0.7-0.4-0.7-0.4s-0.5-0.3-1.3-0.8c-0.7-0.5-1.7-1.1-2.7-1.8c-1-0.7-1.9-1.4-2.6-1.9c-0.7-0.5-1.2-0.9-1.2-0.9
							c-2.5-1.9-5.1-3.9-8.1-5.2c-1.5-0.7-3.1-1.2-4.7-1.5c-0.8-0.1-1.7-0.2-2.5-0.1c-0.4,0-0.8,0.1-1.2,0.1c-0.2,0-0.4,0.1-0.6,0.1
							c-0.2,0-0.4,0.1-0.6,0.1c-0.8,0.2-1.6,0.5-2.3,0.8c-0.7,0.4-1.5,0.8-2.1,1.2c-1.4,0.9-2.6,2-3.7,3.2c-0.3,0.3-0.5,0.6-0.8,0.9
							c-0.3,0.3-0.5,0.6-0.8,0.9c-0.5,0.7-0.9,1.4-1.2,2.2c-0.6,1.5-0.8,3.2-0.7,4.8c0.1,1.6,0.4,3.2,1.1,4.7
							c0.3,0.7,0.7,1.4,1.2,2.1c0.2,0.3,0.5,0.6,0.8,0.9c0.3,0.2,0.7,0.5,1,0.6l0,0c-0.4-0.2-0.7-0.4-1-0.6
							c-0.3-0.3-0.6-0.5-0.8-0.9c-0.5-0.6-0.8-1.3-1.1-2.1c-0.6-1.5-0.9-3-0.9-4.6c0-1.6,0.2-3.1,0.8-4.6c0.3-0.7,0.7-1.4,1.2-2
							c0.2-0.3,0.5-0.6,0.8-0.9c0.3-0.3,0.5-0.6,0.8-0.8c1.1-1.1,2.3-2.1,3.7-2.9c0.7-0.4,1.4-0.8,2.1-1.1c0.7-0.3,1.4-0.5,2.2-0.7
							c0.2,0,0.4-0.1,0.6-0.1c0.2,0,0.4,0,0.6-0.1c0.4,0,0.8-0.1,1.1,0c0.8,0,1.5,0.1,2.2,0.2c1.5,0.3,2.9,0.8,4.3,1.5
							c2.8,1.3,5.4,3,8.1,4.8c0,0,0.5,0.3,1.2,0.8c0.7,0.5,1.7,1.2,2.7,1.8c1,0.7,2,1.3,2.8,1.7c0.8,0.4,1.3,0.7,1.3,0.7
							s0.3,0.1,0.7,0.4c0.5,0.2,1.2,0.6,2,0.9c0.8,0.3,1.9,0.7,3,0.9c1.1,0.2,2.3,0.3,3.5,0.2c1.2-0.1,2.4-0.4,3.4-0.8
							c1.1-0.4,2-1,2.7-1.4c0.4-0.3,0.7-0.5,1-0.7c0.3-0.2,0.5-0.4,0.7-0.6C512.1,221.9,512.3,221.7,512.3,221.7L512.3,221.7z"/>
					<path fill="#FFFFFF" d="M462.7,232.3c0-0.5-0.5-0.9-1-0.8c-0.5,0-0.9,0.5-0.8,1c0,0.5,0.5,0.9,1,0.8
						C462.4,233.2,462.8,232.8,462.7,232.3z"/>
					<circle fill="#FFFFFF" cx="491.5" cy="221.4" r="1.5"/>
				<circle fill="#FFFFFF" cx="512.3" cy="221.8" r="1.1"/>
					<path fill="#FFFFFF" d="M503.1,209.3c-0.1-0.5-0.3-1-0.4-1.5c-0.1-0.5-0.1-1,0-1.6c0.2-0.5,0.5-1.1,1-1.5
						c0.5-0.4,1-0.7,1.6-0.9c1.2-0.3,2.3-0.4,3.3-0.5c0.5,0,1-0.1,1.4-0.4c0.4-0.2,0.7-0.7,0.8-1.2c0,0.5,0.2,1.1,0,1.8
						c-0.3,0.7-0.9,1.2-1.4,1.7c-1.1,0.7-2.2,1.2-2.8,1.5c-0.4,0-0.7,0-1,0c-0.3,0-0.6,0-0.9,0.2c-0.4,0.1-0.8,0.5-1.1,0.9
						C503.2,208.3,503,208.8,503.1,209.3z"/>
						<path fill="#FFFFFF" d="M538.7,221.6c-0.4,0.3-0.9,0.5-1.4,0.6c-0.5,0.1-1,0.1-1.5,0.1c-1,0-1.9-0.2-2.9-0.4
							c-1-0.1-2-0.2-3.1-0.1c-0.5,0.1-1.1,0.2-1.6,0.3c-0.5,0.2-1,0.4-1.4,0.7c0.5-0.2,1-0.3,1.5-0.2c0.5,0,1,0.2,1.4,0.4
							c0.9,0.2,1.7,0.6,2.6,0.9c1,0.1,2.1,0.1,3.4-0.3c0.6-0.2,1.2-0.6,1.7-0.9C538,222.4,538.3,221.9,538.7,221.6z"/>
						<path fill="#FFFFFF" d="M526.8,222.9c0.3,0,0.7,0,1,0.1c0.3,0.1,0.6,0.2,0.8,0.4c0.5,0.3,0.9,0.8,1.2,1.3
							c0.4,0.4,0.8,0.9,1.3,1.3c0.3,0.2,0.6,0.3,0.9,0.5c0.3,0.1,0.7,0.2,1,0.2c-0.3-0.1-0.5-0.4-0.6-0.8c-0.1-0.3-0.1-0.6-0.2-0.9
							c-0.1-0.2-0.3-0.5-0.5-0.7c-0.2-0.2-0.3-0.5-0.6-0.7c-0.6-0.3-1.3-0.7-2.1-0.9c-0.4-0.1-0.9-0.1-1.3,0
							C527.5,222.7,527.2,222.8,526.8,222.9z"/>
					<path fill="#FFFFFF" d="M497.6,211.5c-0.4,0.3-0.9,0.5-1.4,0.6c-0.5,0.1-1,0.1-1.5,0.1c-1,0-1.9-0.2-2.9-0.4
							c-1-0.1-2-0.2-3.1-0.1c-0.5,0.1-1.1,0.2-1.6,0.3c-0.5,0.2-1,0.4-1.4,0.7c0.5-0.2,1-0.3,1.5-0.2c0.5,0,1,0.2,1.4,0.4
							c0.9,0.2,1.7,0.6,2.6,0.9c1,0.1,2.1,0.1,3.4-0.3c0.6-0.2,1.2-0.6,1.7-0.9C496.9,212.3,497.3,211.8,497.6,211.5z"/>
						<path fill="#FFFFFF" d="M485.8,212.8c0.3,0,0.7,0,1,0.1c0.3,0.1,0.6,0.2,0.8,0.4c0.5,0.3,0.9,0.8,1.2,1.3
							c0.4,0.4,0.8,0.9,1.3,1.3c0.3,0.2,0.6,0.3,0.9,0.5c0.3,0.1,0.7,0.2,1,0.2c-0.3-0.1-0.5-0.4-0.6-0.8c-0.1-0.3-0.2-0.6-0.2-0.9
							c-0.1-0.2-0.3-0.5-0.5-0.7c-0.2-0.2-0.3-0.5-0.6-0.7c-0.6-0.4-1.3-0.7-2.1-0.9c-0.4-0.1-0.9-0.1-1.3,0
							C486.4,212.6,486.1,212.7,485.8,212.8z"/>
						<path fill="#FFFFFF" d="M535.5,218.7c0,0-0.2,0.2-0.6,0.5c-0.2,0.2-0.5,0.4-0.7,0.6c-0.3,0.2-0.6,0.4-1,0.7
							c-0.8,0.5-1.7,1-2.7,1.3c-1,0.4-2.2,0.6-3.4,0.7c-1.2,0-2.3-0.1-3.4-0.4c-1.1-0.3-2-0.6-2.8-1c-0.8-0.4-1.5-0.7-1.9-0.9
							c-0.5-0.2-0.7-0.4-0.7-0.4s-0.5-0.3-1.3-0.8c-0.7-0.5-1.7-1.1-2.7-1.8c-1-0.7-1.9-1.4-2.6-1.9c-0.7-0.5-1.2-0.9-1.2-0.9
							c-2.5-1.9-5.1-3.9-8.1-5.2c-1.5-0.7-3.1-1.2-4.7-1.5c-0.8-0.1-1.7-0.2-2.5-0.1c-0.4,0-0.8,0.1-1.2,0.1c-0.2,0-0.4,0.1-0.6,0.1
							c-0.2,0-0.4,0.1-0.6,0.1c-0.8,0.2-1.6,0.5-2.3,0.8c-0.7,0.4-1.5,0.8-2.1,1.2c-1.4,0.9-2.6,2-3.7,3.2c-0.3,0.3-0.5,0.6-0.8,0.9
							c-0.3,0.3-0.5,0.6-0.8,0.9c-0.5,0.7-0.9,1.4-1.2,2.2c-0.6,1.5-0.8,3.2-0.7,4.8c0.1,1.6,0.4,3.2,1.1,4.7
							c0.3,0.7,0.7,1.4,1.2,2.1c0.2,0.3,0.5,0.6,0.8,0.9c0.3,0.2,0.7,0.5,1,0.6l0,0c-0.4-0.2-0.7-0.4-1-0.6
							c-0.3-0.3-0.6-0.6-0.8-0.9c-0.5-0.6-0.8-1.3-1.1-2.1c-0.6-1.5-0.9-3-0.9-4.6c0-1.6,0.2-3.1,0.8-4.6c0.3-0.7,0.7-1.4,1.2-2
							c0.2-0.3,0.5-0.6,0.8-0.9c0.3-0.3,0.5-0.6,0.8-0.8c1.1-1.1,2.3-2.1,3.7-2.9c0.7-0.4,1.3-0.8,2-1.1c0.7-0.3,1.4-0.5,2.2-0.7
							c0.2,0,0.4-0.1,0.6-0.1c0.2,0,0.4,0,0.6-0.1c0.4,0,0.8-0.1,1.1,0c0.8,0,1.5,0.1,2.2,0.2c1.5,0.3,2.9,0.8,4.3,1.5
							c2.8,1.3,5.4,3,8.1,4.8c0,0,0.5,0.3,1.2,0.8c0.7,0.5,1.7,1.2,2.7,1.8c1,0.7,2,1.3,2.8,1.7c0.8,0.4,1.3,0.7,1.3,0.7
							s0.3,0.1,0.7,0.4c0.5,0.2,1.2,0.6,2,0.9c0.8,0.3,1.9,0.7,3,0.9c1.1,0.2,2.3,0.3,3.5,0.2c1.2-0.1,2.4-0.4,3.4-0.8
							c1.1-0.4,2-1,2.7-1.4c0.4-0.3,0.7-0.5,1-0.7c0.3-0.2,0.5-0.4,0.7-0.6C535.3,218.9,535.5,218.7,535.5,218.7L535.5,218.7z"/>
					<path fill="#FFFFFF" d="M485.9,229.3c0-0.5-0.5-0.9-1-0.8c-0.5,0-0.9,0.5-0.8,1c0,0.5,0.5,0.9,1,0.8
						C485.6,230.3,486,229.8,485.9,229.3z"/>
					<path fill="#FFFFFF" d="M516.2,218.3c-0.1-0.8-0.8-1.4-1.5-1.3c-0.8,0.1-1.4,0.7-1.4,1.5c0.1,0.8,0.7,1.4,1.6,1.4
						C515.6,219.8,516.2,219.1,516.2,218.3z"/>
				<path fill="#FFFFFF" d="M535.5,217.7c0.6,0,1.1,0.4,1.1,1c0,0.6-0.4,1.1-1,1.1c-0.6,0-1.1-0.4-1.1-1
					C534.4,218.3,534.9,217.7,535.5,217.7z"/>
					<path fill="#FFFFFF" d="M516,231.2c0.1,0.5,0.3,1,0.4,1.5c0.1,0.5,0.1,1,0,1.6c-0.2,0.5-0.5,1.1-1,1.5c-0.5,0.4-1,0.7-1.6,0.9
						c-1.2,0.3-2.3,0.4-3.3,0.5c-0.5,0-1,0.1-1.4,0.4c-0.4,0.2-0.7,0.7-0.8,1.1c0-0.5-0.2-1.1,0-1.8c0.3-0.7,0.9-1.2,1.4-1.7
						c1.1-0.7,2.2-1.2,2.8-1.5c0.4,0,0.7,0,1,0c0.3,0,0.6,0,0.9-0.2c0.4-0.1,0.8-0.5,1.1-0.9C515.9,232.2,516.1,231.7,516,231.2z"/>
						<path fill="#FFFFFF" d="M480.4,218.9c0.4-0.3,0.9-0.5,1.4-0.6c0.5-0.1,1-0.1,1.5-0.1c1,0,1.9,0.2,2.9,0.4c1,0.1,2,0.2,3.1,0.1
							c0.5-0.1,1.1-0.2,1.6-0.3c0.5-0.2,1-0.4,1.4-0.7c-0.5,0.2-1,0.3-1.5,0.2c-0.5,0-1-0.2-1.4-0.4c-0.9-0.2-1.7-0.6-2.6-0.9
							c-1-0.1-2.1-0.1-3.4,0.3c-0.6,0.2-1.2,0.6-1.7,0.9C481.1,218.1,480.8,218.6,480.4,218.9z"/>
						<path fill="#FFFFFF" d="M492.3,217.6c-0.3,0-0.7,0-1-0.1c-0.3-0.1-0.6-0.2-0.8-0.4c-0.5-0.3-0.9-0.8-1.2-1.3
							c-0.4-0.4-0.8-0.9-1.3-1.3c-0.3-0.2-0.6-0.3-0.9-0.5c-0.3-0.1-0.7-0.2-1-0.2c0.3,0.1,0.5,0.4,0.6,0.8c0.1,0.3,0.2,0.6,0.2,0.9
							c0.1,0.2,0.3,0.5,0.5,0.7c0.2,0.2,0.3,0.5,0.6,0.7c0.6,0.4,1.3,0.7,2.1,0.9c0.4,0.1,0.9,0.1,1.3,0
							C491.6,217.8,491.9,217.7,492.3,217.6z"/>
						<path fill="#FFFFFF" d="M521.5,229c0.4-0.3,0.9-0.5,1.4-0.6c0.5-0.1,1-0.1,1.5-0.1c1,0,1.9,0.2,2.9,0.4c1,0.1,2,0.2,3.1,0.1
							c0.5-0.1,1.1-0.2,1.6-0.3c0.5-0.2,1-0.4,1.4-0.7c-0.5,0.2-1,0.3-1.5,0.2c-0.5,0-1-0.2-1.4-0.4c-0.9-0.2-1.7-0.6-2.6-0.9
							c-1-0.1-2.1-0.1-3.4,0.3c-0.6,0.2-1.2,0.6-1.7,0.9C522.2,228.2,521.8,228.7,521.5,229z"/>
						<path fill="#FFFFFF" d="M533.3,227.7c-0.3,0-0.7,0-1-0.1c-0.3-0.1-0.6-0.2-0.8-0.4c-0.5-0.3-0.9-0.8-1.2-1.3
							c-0.4-0.4-0.8-0.9-1.3-1.3c-0.3-0.2-0.6-0.3-0.9-0.5c-0.3-0.1-0.7-0.2-1-0.2c0.3,0.1,0.5,0.4,0.6,0.8c0.1,0.3,0.2,0.6,0.2,0.9
							c0.1,0.2,0.3,0.5,0.5,0.7c0.2,0.2,0.3,0.5,0.6,0.7c0.6,0.4,1.3,0.7,2.1,0.9c0.4,0.1,0.9,0.1,1.3,0
							C532.6,227.9,533,227.8,533.3,227.7z"/>
						<path fill="#FFFFFF" d="M483.6,221.8c0,0,0.2-0.2,0.6-0.5c0.2-0.2,0.5-0.4,0.8-0.6c0.3-0.2,0.6-0.4,1-0.7
							c0.8-0.5,1.7-1,2.7-1.3c1-0.4,2.2-0.6,3.4-0.7c1.2,0,2.3,0.1,3.4,0.4c1.1,0.3,2,0.6,2.8,1c0.8,0.4,1.5,0.7,1.9,0.9
							c0.5,0.2,0.7,0.4,0.7,0.4s0.5,0.3,1.3,0.8c0.7,0.5,1.7,1.1,2.7,1.8c1,0.7,1.9,1.4,2.6,1.9c0.7,0.5,1.2,0.9,1.2,0.9
							c2.5,1.9,5.1,3.9,8.1,5.2c1.5,0.7,3.1,1.2,4.7,1.5c0.8,0.1,1.7,0.2,2.5,0.1c0.4,0,0.8-0.1,1.2-0.1c0.2,0,0.4-0.1,0.6-0.1
							c0.2,0,0.4-0.1,0.6-0.1c0.8-0.2,1.6-0.5,2.3-0.8c0.7-0.4,1.5-0.8,2.1-1.2c1.4-0.9,2.6-2,3.7-3.2c0.3-0.3,0.5-0.6,0.8-0.9
							c0.3-0.3,0.5-0.6,0.8-0.9c0.5-0.7,0.9-1.4,1.2-2.2c0.6-1.5,0.8-3.2,0.7-4.8c-0.1-1.6-0.4-3.2-1.1-4.7
							c-0.3-0.7-0.7-1.4-1.2-2.1c-0.3-0.3-0.5-0.6-0.8-0.9c-0.3-0.2-0.7-0.5-1-0.6l0,0c0.4,0.2,0.7,0.4,1,0.6
							c0.3,0.3,0.6,0.5,0.8,0.9c0.5,0.6,0.8,1.3,1.1,2.1c0.6,1.5,0.9,3,0.9,4.6c0,1.6-0.2,3.1-0.8,4.6c-0.3,0.7-0.7,1.4-1.2,2
							c-0.2,0.3-0.5,0.6-0.8,0.9c-0.3,0.3-0.5,0.6-0.8,0.8c-1.1,1.1-2.3,2.1-3.7,2.9c-0.7,0.4-1.3,0.8-2,1.1
							c-0.7,0.3-1.4,0.5-2.2,0.7c-0.2,0-0.4,0.1-0.6,0.1c-0.2,0-0.4,0-0.6,0.1c-0.4,0-0.8,0.1-1.1,0c-0.7,0-1.5-0.1-2.2-0.2
							c-1.5-0.3-2.9-0.8-4.3-1.5c-2.8-1.3-5.4-3-8.1-4.8c0,0-0.5-0.3-1.2-0.8c-0.7-0.5-1.7-1.2-2.7-1.8c-1-0.7-2-1.3-2.8-1.7
							c-0.8-0.4-1.3-0.7-1.3-0.7s-0.3-0.1-0.7-0.4c-0.5-0.2-1.2-0.6-2-0.9c-0.8-0.3-1.9-0.7-3-0.9c-1.1-0.2-2.3-0.3-3.5-0.2
							c-1.2,0.1-2.4,0.4-3.4,0.8c-1.1,0.4-2,1-2.7,1.4c-0.4,0.3-0.7,0.5-1,0.7c-0.3,0.2-0.5,0.4-0.7,0.6
							C483.8,221.6,483.6,221.8,483.6,221.8L483.6,221.8z"/>
					<path fill="#FFFFFF" d="M533.2,211.1c0,0.5,0.5,0.9,1,0.8c0.5,0,0.9-0.5,0.8-1c0-0.5-0.5-0.9-1-0.8
						C533.5,210.2,533.1,210.7,533.2,211.1z"/>
					<circle fill="#FFFFFF" cx="504.4" cy="222.1" r="1.5"/>
				<circle fill="#FFFFFF" cx="483.6" cy="221.7" r="1.1"/>
					<path fill="#FFFFFF" d="M492.8,234.1c0.1,0.5,0.3,1,0.4,1.5c0.1,0.5,0.1,1,0,1.6c-0.2,0.5-0.5,1.1-1,1.5
						c-0.5,0.4-1,0.7-1.6,0.9c-1.2,0.3-2.3,0.4-3.3,0.5c-0.5,0-1,0.1-1.4,0.4c-0.4,0.2-0.7,0.7-0.8,1.1c0-0.5-0.2-1.1,0-1.8
						c0.3-0.7,0.9-1.2,1.4-1.7c1.1-0.7,2.2-1.2,2.8-1.5c0.4,0,0.7,0,1,0c0.3,0,0.6,0,0.9-0.2c0.4-0.1,0.8-0.5,1.1-0.9
						C492.6,235.2,492.8,234.6,492.8,234.1z"/>
						<path fill="#FFFFFF" d="M457.2,221.8c0.4-0.3,0.9-0.5,1.4-0.6c0.5-0.1,1-0.1,1.5-0.1c1,0,1.9,0.2,2.9,0.4c1,0.1,2,0.2,3.1,0.1
							c0.5-0.1,1.1-0.2,1.6-0.3c0.5-0.2,1-0.4,1.4-0.7c-0.5,0.2-1,0.3-1.5,0.2c-0.5,0-1-0.2-1.4-0.4c-0.9-0.2-1.7-0.6-2.6-0.9
							c-1-0.1-2.1-0.1-3.4,0.3c-0.6,0.2-1.2,0.6-1.7,0.9C457.9,221.1,457.6,221.5,457.2,221.8z"/>
						<path fill="#FFFFFF" d="M469,220.6c-0.3,0-0.7,0-1-0.1c-0.3-0.1-0.6-0.2-0.8-0.4c-0.5-0.3-0.9-0.8-1.2-1.3
							c-0.4-0.4-0.8-0.9-1.3-1.3c-0.3-0.2-0.6-0.3-0.9-0.5c-0.3-0.1-0.7-0.2-1-0.2c0.3,0.1,0.5,0.4,0.6,0.8c0.1,0.3,0.2,0.6,0.2,0.9
							c0.1,0.2,0.3,0.5,0.5,0.7c0.2,0.2,0.3,0.5,0.6,0.7c0.6,0.3,1.3,0.7,2.1,0.9c0.4,0.1,0.9,0.1,1.3,0
							C468.4,220.7,468.7,220.6,469,220.6z"/>
						<path fill="#FFFFFF" d="M498.3,231.9c0.4-0.3,0.9-0.5,1.4-0.6c0.5-0.1,1-0.1,1.5-0.1c1,0,1.9,0.2,2.9,0.4c1,0.1,2,0.2,3.1,0.1
							c0.5-0.1,1.1-0.2,1.6-0.3c0.5-0.2,1-0.4,1.4-0.7c-0.5,0.2-1,0.3-1.5,0.2c-0.5,0-1-0.2-1.4-0.4c-0.9-0.2-1.7-0.6-2.6-0.9
							c-1-0.1-2.1-0.1-3.4,0.3c-0.6,0.2-1.2,0.6-1.7,0.9C499,231.2,498.6,231.6,498.3,231.9z"/>
						<path fill="#FFFFFF" d="M510.1,230.7c-0.3,0-0.7,0-1-0.1c-0.3-0.1-0.6-0.2-0.8-0.4c-0.5-0.3-0.9-0.8-1.2-1.3
							c-0.4-0.4-0.8-0.9-1.3-1.3c-0.3-0.2-0.6-0.3-0.9-0.5c-0.3-0.1-0.7-0.2-1-0.2c0.3,0.1,0.5,0.4,0.6,0.8c0.1,0.3,0.2,0.6,0.2,0.9
							c0.1,0.2,0.3,0.5,0.5,0.7c0.2,0.2,0.3,0.5,0.6,0.7c0.6,0.4,1.3,0.7,2.1,0.9c0.4,0.1,0.9,0.1,1.3,0
							C509.4,230.8,509.8,230.7,510.1,230.7z"/>
						<path fill="#FFFFFF" d="M460.4,224.7c0,0,0.2-0.2,0.6-0.5c0.2-0.2,0.5-0.4,0.8-0.6c0.3-0.2,0.6-0.4,1-0.7
							c0.8-0.5,1.7-1,2.7-1.3c1-0.4,2.2-0.6,3.4-0.7c1.2,0,2.3,0.1,3.4,0.4c1.1,0.3,2,0.6,2.8,1c0.8,0.4,1.5,0.7,1.9,0.9
							c0.5,0.2,0.7,0.4,0.7,0.4s0.5,0.3,1.3,0.8c0.7,0.5,1.7,1.1,2.7,1.8c1,0.7,1.9,1.4,2.6,1.9c0.7,0.5,1.2,0.9,1.2,0.9
							c2.5,1.9,5.1,3.9,8.1,5.2c1.5,0.7,3.1,1.2,4.7,1.5c0.8,0.1,1.7,0.2,2.5,0.1c0.4,0,0.8-0.1,1.2-0.1c0.2,0,0.4-0.1,0.6-0.1
							c0.2,0,0.4-0.1,0.6-0.1c0.8-0.2,1.6-0.5,2.3-0.8c0.7-0.4,1.5-0.8,2.1-1.2c1.4-0.9,2.6-2,3.7-3.2c0.3-0.3,0.6-0.6,0.8-0.9
							c0.3-0.3,0.5-0.6,0.8-0.9c0.5-0.7,0.9-1.4,1.2-2.2c0.6-1.5,0.8-3.2,0.7-4.8c-0.1-1.6-0.4-3.2-1.1-4.7
							c-0.3-0.7-0.7-1.4-1.2-2.1c-0.2-0.3-0.5-0.6-0.8-0.9c-0.3-0.2-0.7-0.5-1-0.6l0,0c0.4,0.2,0.7,0.4,1,0.6
							c0.3,0.3,0.6,0.5,0.8,0.9c0.5,0.6,0.8,1.3,1.1,2.1c0.6,1.5,0.9,3,0.9,4.6c0,1.6-0.2,3.1-0.8,4.6c-0.3,0.7-0.7,1.4-1.2,2
							c-0.2,0.3-0.5,0.6-0.8,0.9c-0.3,0.3-0.5,0.6-0.8,0.8c-1.1,1.1-2.3,2.1-3.6,2.9c-0.7,0.4-1.3,0.8-2,1.1
							c-0.7,0.3-1.4,0.5-2.2,0.7c-0.2,0-0.4,0.1-0.6,0.1c-0.2,0-0.4,0-0.6,0.1c-0.4,0-0.8,0.1-1.1,0c-0.8,0-1.5-0.1-2.2-0.2
							c-1.5-0.3-2.9-0.8-4.3-1.5c-2.8-1.3-5.4-3-8.1-4.8c0,0-0.5-0.3-1.2-0.8c-0.7-0.5-1.7-1.2-2.7-1.8c-1-0.7-2-1.3-2.8-1.7
							c-0.8-0.4-1.3-0.7-1.3-0.7s-0.3-0.1-0.7-0.4c-0.5-0.2-1.2-0.6-2-0.9c-0.8-0.3-1.9-0.7-3-0.9c-1.1-0.2-2.3-0.3-3.5-0.2
							c-1.2,0.1-2.4,0.4-3.4,0.8c-1.1,0.4-2,1-2.7,1.4c-0.4,0.3-0.7,0.5-1,0.7c-0.3,0.2-0.5,0.4-0.7,0.6
							C460.6,224.5,460.4,224.7,460.4,224.7L460.4,224.7z"/>
					<path fill="#FFFFFF" d="M510,214.1c0,0.5,0.5,0.9,1,0.8c0.5,0,0.9-0.5,0.8-1c0-0.5-0.5-0.9-1-0.8
						C510.3,213.2,509.9,213.6,510,214.1z"/>
					<path fill="#FFFFFF" d="M479.7,225.1c0.1,0.8,0.7,1.4,1.5,1.3c0.8-0.1,1.4-0.7,1.4-1.5c-0.1-0.8-0.7-1.4-1.6-1.4
						C480.3,223.6,479.7,224.3,479.7,225.1z"/>
				<circle fill="#FFFFFF" cx="460.4" cy="224.6" r="1.1"/>
	</g>
	<g id="path7">

					<path fill="#FFFFFF" d="M243,212.8c-0.1-0.5-0.3-1-0.4-1.5c-0.1-0.5-0.1-1,0-1.6c0.2-0.5,0.5-1.1,1-1.5c0.5-0.4,1-0.7,1.6-0.9
						c1.2-0.3,2.3-0.4,3.3-0.5c0.5,0,1-0.1,1.4-0.4c0.4-0.2,0.7-0.7,0.8-1.1c0,0.5,0.2,1.1,0,1.8c-0.3,0.7-0.9,1.2-1.4,1.7
						c-1.1,0.7-2.2,1.2-2.8,1.5c-0.4,0-0.7,0-1,0c-0.3,0-0.6,0-0.9,0.2c-0.4,0.1-0.8,0.5-1.1,0.9C243.1,211.8,242.9,212.3,243,212.8
						z"/>

						<path fill="#FFFFFF" d="M278.6,225.1c-0.4,0.3-0.9,0.5-1.4,0.6c-0.5,0.1-1,0.1-1.5,0.1c-1,0-1.9-0.2-2.9-0.4
							c-1-0.1-2-0.2-3.1-0.1c-0.5,0.1-1.1,0.2-1.6,0.3c-0.5,0.2-1,0.4-1.4,0.7c0.5-0.2,1-0.3,1.5-0.2c0.5,0,1,0.2,1.4,0.4
							c0.9,0.2,1.7,0.6,2.6,0.9c1,0.1,2.1,0.1,3.4-0.3c0.6-0.2,1.2-0.6,1.7-0.9C277.8,225.9,278.2,225.4,278.6,225.1z"/>

						<path fill="#FFFFFF" d="M266.7,226.4c0.3,0,0.7,0,1,0.1c0.3,0.1,0.6,0.2,0.8,0.4c0.5,0.3,0.9,0.8,1.2,1.3
							c0.4,0.4,0.8,0.9,1.3,1.3c0.3,0.2,0.6,0.3,0.9,0.5c0.3,0.1,0.7,0.2,1,0.2c-0.3-0.1-0.5-0.4-0.6-0.8c-0.1-0.3-0.2-0.6-0.2-0.9
							c-0.1-0.2-0.3-0.5-0.5-0.7c-0.2-0.2-0.3-0.5-0.6-0.7c-0.6-0.4-1.3-0.7-2.1-0.9c-0.4-0.1-0.9-0.1-1.3,0
							C267.4,226.2,267,226.3,266.7,226.4z"/>

						<path fill="#FFFFFF" d="M237.5,215c-0.4,0.3-0.9,0.5-1.4,0.6c-0.5,0.1-1,0.1-1.5,0.1c-1,0-1.9-0.2-2.9-0.4
							c-1-0.1-2-0.2-3.1-0.1c-0.5,0.1-1.1,0.2-1.6,0.3c-0.5,0.2-1,0.4-1.4,0.7c0.5-0.2,1-0.3,1.5-0.2c0.5,0,1,0.2,1.4,0.4
							c0.9,0.2,1.7,0.6,2.6,0.9c1,0.1,2.1,0.1,3.4-0.3c0.6-0.2,1.2-0.6,1.7-0.9C236.8,215.8,237.1,215.3,237.5,215z"/>

						<path fill="#FFFFFF" d="M225.6,216.3c0.3,0,0.7,0,1,0.1c0.3,0.1,0.6,0.2,0.8,0.4c0.5,0.3,0.9,0.8,1.2,1.3
							c0.4,0.4,0.8,0.9,1.3,1.3c0.3,0.2,0.6,0.3,0.9,0.5c0.3,0.1,0.7,0.2,1,0.2c-0.3-0.1-0.5-0.4-0.6-0.8c-0.1-0.3-0.2-0.6-0.2-0.9
							c-0.1-0.2-0.3-0.5-0.5-0.7c-0.2-0.2-0.3-0.5-0.6-0.7c-0.6-0.4-1.3-0.7-2.1-0.9c-0.4-0.1-0.9-0.1-1.3,0
							C226.3,216.1,226,216.2,225.6,216.3z"/>

						<path fill="#FFFFFF" d="M275.4,222.2c0,0-0.2,0.2-0.6,0.5c-0.2,0.2-0.5,0.4-0.8,0.6c-0.3,0.2-0.6,0.4-1,0.7
							c-0.8,0.5-1.7,1-2.7,1.3c-1,0.4-2.2,0.6-3.4,0.7c-1.2,0-2.3-0.1-3.4-0.4c-1.1-0.3-2-0.6-2.8-1c-0.8-0.4-1.5-0.7-1.9-0.9
							c-0.5-0.2-0.7-0.4-0.7-0.4s-0.5-0.3-1.3-0.8c-0.7-0.5-1.7-1.1-2.7-1.8c-1-0.7-1.9-1.4-2.6-1.9c-0.7-0.5-1.2-0.9-1.2-0.9
							c-2.5-1.9-5.1-3.9-8.1-5.2c-1.5-0.7-3.1-1.2-4.7-1.5c-0.8-0.1-1.7-0.2-2.5-0.1c-0.4,0-0.8,0.1-1.2,0.1c-0.2,0-0.4,0.1-0.6,0.1
							c-0.2,0-0.4,0.1-0.6,0.1c-0.8,0.2-1.6,0.5-2.3,0.8c-0.7,0.4-1.5,0.8-2.1,1.2c-1.4,0.9-2.6,2-3.7,3.2c-0.3,0.3-0.5,0.6-0.8,0.9
							c-0.3,0.3-0.5,0.6-0.8,0.9c-0.5,0.7-0.9,1.4-1.2,2.2c-0.6,1.5-0.8,3.2-0.7,4.8c0.1,1.6,0.4,3.2,1.1,4.7
							c0.3,0.7,0.7,1.4,1.2,2.1c0.2,0.3,0.5,0.6,0.8,0.9c0.3,0.2,0.7,0.5,1,0.6l0,0c-0.4-0.2-0.7-0.4-1-0.6
							c-0.3-0.3-0.6-0.5-0.8-0.9c-0.5-0.6-0.8-1.3-1.1-2.1c-0.6-1.5-0.9-3-0.9-4.6c0-1.6,0.2-3.1,0.8-4.6c0.3-0.7,0.7-1.4,1.2-2
							c0.2-0.3,0.5-0.6,0.8-0.9c0.3-0.3,0.5-0.6,0.8-0.8c1.1-1.1,2.3-2.1,3.7-2.9c0.7-0.4,1.4-0.8,2.1-1.1c0.7-0.3,1.4-0.5,2.2-0.7
							c0.2,0,0.4-0.1,0.6-0.1c0.2,0,0.4,0,0.6-0.1c0.4,0,0.8-0.1,1.1,0c0.8,0,1.5,0.1,2.2,0.2c1.5,0.3,2.9,0.8,4.3,1.5
							c2.8,1.3,5.4,3,8.1,4.8c0,0,0.5,0.3,1.2,0.8c0.7,0.5,1.7,1.2,2.7,1.8c1,0.7,2,1.3,2.8,1.7c0.8,0.4,1.3,0.7,1.3,0.7
							s0.3,0.1,0.7,0.4c0.5,0.2,1.2,0.6,2,0.9c0.8,0.3,1.9,0.7,3,0.9c1.1,0.2,2.3,0.3,3.5,0.2c1.2-0.1,2.4-0.4,3.4-0.8
							c1.1-0.4,2-1,2.7-1.4c0.4-0.3,0.7-0.5,1-0.7c0.3-0.2,0.5-0.4,0.7-0.6C275.2,222.4,275.4,222.2,275.4,222.2L275.4,222.2z"/>

					<path fill="#FFFFFF" d="M225.8,232.8c0-0.5-0.5-0.9-1-0.8c-0.5,0-0.9,0.5-0.8,1c0,0.5,0.5,0.9,1,0.8
						C225.4,233.8,225.8,233.3,225.8,232.8z"/>
					<circle fill="#FFFFFF" cx="254.6" cy="221.9" r="1.5"/>

				<circle fill="#FFFFFF" cx="275.4" cy="222.3" r="1.1"/>

					<path fill="#FFFFFF" d="M266.2,209.8c-0.1-0.5-0.3-1-0.4-1.5c-0.1-0.5-0.1-1,0-1.6c0.2-0.5,0.5-1.1,1-1.5
						c0.5-0.4,1-0.7,1.6-0.9c1.2-0.3,2.3-0.4,3.3-0.5c0.5,0,1-0.1,1.4-0.4c0.4-0.2,0.7-0.7,0.8-1.2c0,0.5,0.2,1.1,0,1.8
						c-0.3,0.7-0.9,1.2-1.4,1.7c-1.1,0.7-2.2,1.2-2.8,1.5c-0.4,0-0.7,0-1,0c-0.3,0-0.6,0-0.9,0.2c-0.4,0.1-0.8,0.5-1.1,0.9
						C266.3,208.8,266.1,209.4,266.2,209.8z"/>

						<path fill="#FFFFFF" d="M301.8,222.1c-0.4,0.3-0.9,0.5-1.4,0.6c-0.5,0.1-1,0.1-1.5,0.1c-1,0-1.9-0.2-2.9-0.4
							c-1-0.1-2-0.2-3.1-0.1c-0.5,0.1-1.1,0.2-1.6,0.3c-0.5,0.2-1,0.4-1.4,0.7c0.5-0.2,1-0.3,1.5-0.2c0.5,0,1,0.2,1.4,0.4
							c0.9,0.2,1.7,0.6,2.6,0.9c1,0.1,2.1,0.1,3.4-0.3c0.6-0.2,1.2-0.6,1.7-0.9C301,222.9,301.4,222.5,301.8,222.1z"/>

						<path fill="#FFFFFF" d="M289.9,223.4c0.3,0,0.7,0,1,0.1c0.3,0.1,0.6,0.2,0.8,0.4c0.5,0.3,0.9,0.8,1.2,1.3
							c0.4,0.4,0.8,0.9,1.3,1.3c0.3,0.2,0.6,0.3,0.9,0.5c0.3,0.1,0.7,0.2,1,0.2c-0.3-0.1-0.5-0.4-0.6-0.8c-0.1-0.3-0.1-0.6-0.2-0.9
							c-0.1-0.2-0.3-0.5-0.5-0.7c-0.2-0.2-0.3-0.5-0.6-0.7c-0.6-0.3-1.3-0.7-2.1-0.9c-0.4-0.1-0.9-0.1-1.3,0
							C290.6,223.2,290.2,223.4,289.9,223.4z"/>

						<path fill="#FFFFFF" d="M260.7,212c-0.4,0.3-0.9,0.5-1.4,0.6c-0.5,0.1-1,0.1-1.5,0.1c-1,0-1.9-0.2-2.9-0.4
							c-1-0.1-2-0.2-3.1-0.1c-0.5,0.1-1.1,0.2-1.6,0.3c-0.5,0.2-1,0.4-1.4,0.7c0.5-0.2,1-0.3,1.5-0.2c0.5,0,1,0.2,1.4,0.4
							c0.9,0.2,1.7,0.6,2.6,0.9c1,0.1,2.1,0.1,3.4-0.3c0.6-0.2,1.2-0.6,1.7-0.9C260,212.8,260.3,212.4,260.7,212z"/>

						<path fill="#FFFFFF" d="M248.8,213.3c0.3,0,0.7,0,1,0.1c0.3,0.1,0.6,0.2,0.8,0.4c0.5,0.3,0.9,0.8,1.2,1.3
							c0.4,0.4,0.8,0.9,1.3,1.3c0.3,0.2,0.6,0.3,0.9,0.5c0.3,0.1,0.7,0.2,1,0.2c-0.3-0.1-0.5-0.4-0.6-0.8c-0.1-0.3-0.2-0.6-0.2-0.9
							c-0.1-0.2-0.3-0.5-0.5-0.7c-0.2-0.2-0.3-0.5-0.6-0.7c-0.6-0.4-1.3-0.7-2.1-0.9c-0.4-0.1-0.9-0.1-1.3,0
							C249.5,213.1,249.2,213.3,248.8,213.3z"/>

						<path fill="#FFFFFF" d="M298.6,219.2c0,0-0.2,0.2-0.6,0.5c-0.2,0.2-0.5,0.4-0.7,0.6c-0.3,0.2-0.6,0.4-1,0.7
							c-0.8,0.5-1.7,1-2.7,1.3c-1,0.4-2.2,0.6-3.4,0.7c-1.2,0-2.3-0.1-3.4-0.4c-1.1-0.3-2-0.6-2.8-1c-0.8-0.4-1.5-0.7-1.9-0.9
							c-0.5-0.2-0.7-0.4-0.7-0.4s-0.5-0.3-1.3-0.8c-0.7-0.5-1.7-1.1-2.7-1.8c-1-0.7-1.9-1.4-2.6-1.9c-0.7-0.5-1.2-0.9-1.2-0.9
							c-2.5-1.9-5.1-3.9-8.1-5.2c-1.5-0.7-3.1-1.2-4.7-1.5c-0.8-0.1-1.7-0.2-2.5-0.1c-0.4,0-0.8,0.1-1.2,0.1c-0.2,0-0.4,0.1-0.6,0.1
							c-0.2,0-0.4,0.1-0.6,0.1c-0.8,0.2-1.6,0.5-2.3,0.8c-0.7,0.4-1.5,0.8-2.1,1.2c-1.4,0.9-2.6,2-3.7,3.2c-0.3,0.3-0.5,0.6-0.8,0.9
							c-0.3,0.3-0.5,0.6-0.8,0.9c-0.5,0.7-0.9,1.4-1.2,2.2c-0.6,1.5-0.8,3.2-0.7,4.8c0.1,1.6,0.4,3.2,1.1,4.7
							c0.3,0.7,0.7,1.4,1.2,2.1c0.2,0.3,0.5,0.6,0.8,0.9c0.3,0.2,0.7,0.5,1,0.6l0,0c-0.4-0.2-0.7-0.4-1-0.6
							c-0.3-0.3-0.6-0.6-0.8-0.9c-0.5-0.6-0.8-1.3-1.1-2.1c-0.6-1.5-0.9-3-0.9-4.6c0-1.6,0.2-3.1,0.8-4.6c0.3-0.7,0.7-1.4,1.2-2
							c0.2-0.3,0.5-0.6,0.8-0.9c0.3-0.3,0.5-0.6,0.8-0.8c1.1-1.1,2.3-2.1,3.7-2.9c0.7-0.4,1.3-0.8,2-1.1c0.7-0.3,1.4-0.5,2.2-0.7
							c0.2,0,0.4-0.1,0.6-0.1c0.2,0,0.4,0,0.6-0.1c0.4,0,0.8-0.1,1.1,0c0.8,0,1.5,0.1,2.2,0.2c1.5,0.3,2.9,0.8,4.3,1.5
							c2.8,1.3,5.4,3,8.1,4.8c0,0,0.5,0.3,1.2,0.8c0.7,0.5,1.7,1.2,2.7,1.8c1,0.7,2,1.3,2.8,1.7c0.8,0.4,1.3,0.7,1.3,0.7
							s0.3,0.1,0.7,0.4c0.5,0.2,1.2,0.6,2,0.9c0.8,0.3,1.9,0.7,3,0.9c1.1,0.2,2.3,0.3,3.5,0.2c1.2-0.1,2.4-0.4,3.4-0.8
							c1.1-0.4,2-1,2.7-1.4c0.4-0.3,0.7-0.5,1-0.7c0.3-0.2,0.5-0.4,0.7-0.6C298.4,219.5,298.6,219.3,298.6,219.2L298.6,219.2z"/>

					<path fill="#FFFFFF" d="M249,229.9c0-0.5-0.5-0.9-1-0.8c-0.5,0-0.9,0.5-0.8,1c0,0.5,0.5,0.9,1,0.8
						C248.7,230.8,249,230.4,249,229.9z"/>
					<path fill="#FFFFFF" d="M279.2,218.9c-0.1-0.8-0.8-1.4-1.5-1.3c-0.8,0.1-1.4,0.7-1.4,1.5c0.1,0.8,0.7,1.4,1.6,1.4
						C278.7,220.4,279.3,219.7,279.2,218.9z"/>

				<path fill="#FFFFFF" d="M298.5,218.3c0.6,0,1.1,0.4,1.1,1c0,0.6-0.4,1.1-1,1.1c-0.6,0-1.1-0.4-1.1-1
					C297.5,218.8,297.9,218.3,298.5,218.3z"/>

					<path fill="#FFFFFF" d="M279,231.7c0.1,0.5,0.3,1,0.4,1.5c0.1,0.5,0.1,1,0,1.6c-0.2,0.5-0.5,1.1-1,1.5c-0.5,0.4-1,0.7-1.6,0.9
						c-1.2,0.3-2.3,0.4-3.3,0.5c-0.5,0-1,0.1-1.4,0.4c-0.4,0.2-0.7,0.7-0.8,1.1c0-0.5-0.2-1.1,0-1.8c0.3-0.7,0.9-1.2,1.4-1.7
						c1.1-0.7,2.2-1.2,2.8-1.5c0.4,0,0.7,0,1,0c0.3,0,0.6,0,0.9-0.2c0.4-0.1,0.8-0.5,1.1-0.9C278.9,232.7,279.1,232.2,279,231.7z"/>

						<path fill="#FFFFFF" d="M243.4,219.4c0.4-0.3,0.9-0.5,1.4-0.6c0.5-0.1,1-0.1,1.5-0.1c1,0,1.9,0.2,2.9,0.4c1,0.1,2,0.2,3.1,0.1
							c0.5-0.1,1.1-0.2,1.6-0.3c0.5-0.2,1-0.4,1.4-0.7c-0.5,0.2-1,0.3-1.5,0.2c-0.5,0-1-0.2-1.4-0.4c-0.9-0.2-1.7-0.6-2.6-0.9
							c-1-0.1-2.1-0.1-3.4,0.3c-0.6,0.2-1.2,0.6-1.7,0.9C244.2,218.7,243.8,219.1,243.4,219.4z"/>

						<path fill="#FFFFFF" d="M255.3,218.1c-0.3,0-0.7,0-1-0.1c-0.3-0.1-0.6-0.2-0.8-0.4c-0.5-0.3-0.9-0.8-1.2-1.3
							c-0.4-0.4-0.8-0.9-1.3-1.3c-0.3-0.2-0.6-0.3-0.9-0.5c-0.3-0.1-0.7-0.2-1-0.2c0.3,0.1,0.5,0.4,0.6,0.8c0.1,0.3,0.2,0.6,0.2,0.9
							c0.1,0.2,0.3,0.5,0.5,0.7c0.2,0.2,0.3,0.5,0.6,0.7c0.6,0.4,1.3,0.7,2.1,0.9c0.4,0.1,0.9,0.1,1.3,0
							C254.6,218.3,255,218.2,255.3,218.1z"/>

						<path fill="#FFFFFF" d="M284.5,229.5c0.4-0.3,0.9-0.5,1.4-0.6c0.5-0.1,1-0.1,1.5-0.1c1,0,1.9,0.2,2.9,0.4c1,0.1,2,0.2,3.1,0.1
							c0.5-0.1,1.1-0.2,1.6-0.3c0.5-0.2,1-0.4,1.4-0.7c-0.5,0.2-1,0.3-1.5,0.2c-0.5,0-1-0.2-1.4-0.4c-0.9-0.2-1.7-0.6-2.6-0.9
							c-1-0.1-2.1-0.1-3.4,0.3c-0.6,0.2-1.2,0.6-1.7,0.9C285.2,228.8,284.9,229.2,284.5,229.5z"/>

						<path fill="#FFFFFF" d="M296.4,228.2c-0.3,0-0.7,0-1-0.1c-0.3-0.1-0.6-0.2-0.8-0.4c-0.5-0.3-0.9-0.8-1.2-1.3
							c-0.4-0.4-0.8-0.9-1.3-1.3c-0.3-0.2-0.6-0.3-0.9-0.5c-0.3-0.1-0.7-0.2-1-0.2c0.3,0.1,0.5,0.4,0.6,0.8c0.1,0.3,0.2,0.6,0.2,0.9
							c0.1,0.2,0.3,0.5,0.5,0.7c0.2,0.2,0.3,0.5,0.6,0.7c0.6,0.4,1.3,0.7,2.1,0.9c0.4,0.1,0.9,0.1,1.3,0
							C295.7,228.4,296.1,228.3,296.4,228.2z"/>

						<path fill="#FFFFFF" d="M246.6,222.3c0,0,0.2-0.2,0.6-0.5c0.2-0.2,0.5-0.4,0.8-0.6c0.3-0.2,0.6-0.4,1-0.7
							c0.8-0.5,1.7-1,2.7-1.3c1-0.4,2.2-0.6,3.4-0.7c1.2,0,2.3,0.1,3.4,0.4c1.1,0.3,2,0.6,2.8,1c0.8,0.4,1.5,0.7,1.9,0.9
							c0.5,0.2,0.7,0.4,0.7,0.4s0.5,0.3,1.3,0.8c0.7,0.5,1.7,1.1,2.7,1.8c1,0.7,1.9,1.4,2.6,1.9c0.7,0.5,1.2,0.9,1.2,0.9
							c2.5,1.9,5.1,3.9,8.1,5.2c1.5,0.7,3.1,1.2,4.7,1.5c0.8,0.1,1.7,0.2,2.5,0.1c0.4,0,0.8-0.1,1.2-0.1c0.2,0,0.4-0.1,0.6-0.1
							c0.2,0,0.4-0.1,0.6-0.1c0.8-0.2,1.6-0.5,2.3-0.8c0.7-0.4,1.5-0.8,2.1-1.2c1.4-0.9,2.6-2,3.7-3.2c0.3-0.3,0.5-0.6,0.8-0.9
							c0.3-0.3,0.5-0.6,0.8-0.9c0.5-0.7,0.9-1.4,1.2-2.2c0.6-1.5,0.8-3.2,0.7-4.8c-0.1-1.6-0.4-3.2-1.1-4.7
							c-0.3-0.7-0.7-1.4-1.2-2.1c-0.3-0.3-0.5-0.6-0.8-0.9c-0.3-0.2-0.7-0.5-1-0.6l0,0c0.4,0.2,0.7,0.4,1,0.6
							c0.3,0.3,0.6,0.5,0.8,0.9c0.5,0.6,0.8,1.3,1.1,2.1c0.6,1.5,0.9,3,0.9,4.6c0,1.6-0.2,3.1-0.8,4.6c-0.3,0.7-0.7,1.4-1.2,2
							c-0.2,0.3-0.5,0.6-0.8,0.9c-0.3,0.3-0.5,0.6-0.8,0.8c-1.1,1.1-2.3,2.1-3.7,2.9c-0.7,0.4-1.3,0.8-2,1.1
							c-0.7,0.3-1.4,0.5-2.2,0.7c-0.2,0-0.4,0.1-0.6,0.1c-0.2,0-0.4,0-0.6,0.1c-0.4,0-0.8,0.1-1.1,0c-0.7,0-1.5-0.1-2.2-0.2
							c-1.5-0.3-2.9-0.8-4.3-1.5c-2.8-1.3-5.4-3-8.1-4.8c0,0-0.5-0.3-1.2-0.8c-0.7-0.5-1.7-1.2-2.7-1.8c-1-0.7-2-1.3-2.8-1.7
							c-0.8-0.4-1.3-0.7-1.3-0.7s-0.3-0.1-0.7-0.4c-0.5-0.2-1.2-0.6-2-0.9c-0.8-0.3-1.9-0.7-3-0.9c-1.1-0.2-2.3-0.3-3.5-0.2
							c-1.2,0.1-2.4,0.4-3.4,0.8c-1.1,0.4-2,1-2.7,1.4c-0.4,0.3-0.7,0.5-1,0.7c-0.3,0.2-0.5,0.4-0.7,0.6
							C246.9,222.1,246.6,222.3,246.6,222.3L246.6,222.3z"/>

					<path fill="#FFFFFF" d="M296.2,211.7c0,0.5,0.5,0.9,1,0.8c0.5,0,0.9-0.5,0.8-1c0-0.5-0.5-0.9-1-0.8
						C296.6,210.8,296.2,211.2,296.2,211.7z"/>
					<circle fill="#FFFFFF" cx="267.4" cy="222.6" r="1.5"/>

				<circle fill="#FFFFFF" cx="246.6" cy="222.2" r="1.1"/>

					<path fill="#FFFFFF" d="M255.8,234.7c0.1,0.5,0.3,1,0.4,1.5c0.1,0.5,0.1,1,0,1.6c-0.2,0.5-0.5,1.1-1,1.5
						c-0.5,0.4-1,0.7-1.6,0.9c-1.2,0.3-2.3,0.4-3.3,0.5c-0.5,0-1,0.1-1.4,0.4c-0.4,0.2-0.7,0.7-0.8,1.1c0-0.5-0.2-1.1,0-1.8
						c0.3-0.7,0.9-1.2,1.4-1.7c1.1-0.7,2.2-1.2,2.8-1.5c0.4,0,0.7,0,1,0c0.3,0,0.6,0,0.9-0.2c0.4-0.1,0.8-0.5,1.1-0.9
						C255.7,235.7,255.9,235.2,255.8,234.7z"/>

						<path fill="#FFFFFF" d="M220.2,222.4c0.4-0.3,0.9-0.5,1.4-0.6c0.5-0.1,1-0.1,1.5-0.1c1,0,1.9,0.2,2.9,0.4c1,0.1,2,0.2,3.1,0.1
							c0.5-0.1,1.1-0.2,1.6-0.3c0.5-0.2,1-0.4,1.4-0.7c-0.5,0.2-1,0.3-1.5,0.2c-0.5,0-1-0.2-1.4-0.4c-0.9-0.2-1.7-0.6-2.6-0.9
							c-1-0.1-2.1-0.1-3.4,0.3c-0.6,0.2-1.2,0.6-1.7,0.9C221,221.6,220.6,222.1,220.2,222.4z"/>

						<path fill="#FFFFFF" d="M232.1,221.1c-0.3,0-0.7,0-1-0.1c-0.3-0.1-0.6-0.2-0.8-0.4c-0.5-0.3-0.9-0.8-1.2-1.3
							c-0.4-0.4-0.8-0.9-1.3-1.3c-0.3-0.2-0.6-0.3-0.9-0.5c-0.3-0.1-0.7-0.2-1-0.2c0.3,0.1,0.5,0.4,0.6,0.8c0.1,0.3,0.2,0.6,0.2,0.9
							c0.1,0.2,0.3,0.5,0.5,0.7c0.2,0.2,0.3,0.5,0.6,0.7c0.6,0.3,1.3,0.7,2.1,0.9c0.4,0.1,0.9,0.1,1.3,0
							C231.4,221.3,231.8,221.2,232.1,221.1z"/>

						<path fill="#FFFFFF" d="M261.3,232.5c0.4-0.3,0.9-0.5,1.4-0.6c0.5-0.1,1-0.1,1.5-0.1c1,0,1.9,0.2,2.9,0.4c1,0.1,2,0.2,3.1,0.1
							c0.5-0.1,1.1-0.2,1.6-0.3c0.5-0.2,1-0.4,1.4-0.7c-0.5,0.2-1,0.3-1.5,0.2c-0.5,0-1-0.2-1.4-0.4c-0.9-0.2-1.7-0.6-2.6-0.9
							c-1-0.1-2.1-0.1-3.4,0.3c-0.6,0.2-1.2,0.6-1.7,0.9C262,231.7,261.7,232.1,261.3,232.5z"/>

						<path fill="#FFFFFF" d="M273.2,231.2c-0.3,0-0.7,0-1-0.1c-0.3-0.1-0.6-0.2-0.8-0.4c-0.5-0.3-0.9-0.8-1.2-1.3
							c-0.4-0.4-0.8-0.9-1.3-1.3c-0.3-0.2-0.6-0.3-0.9-0.5c-0.3-0.1-0.7-0.2-1-0.2c0.3,0.1,0.5,0.4,0.6,0.8c0.1,0.3,0.2,0.6,0.2,0.9
							c0.1,0.2,0.3,0.5,0.5,0.7c0.2,0.2,0.3,0.5,0.6,0.7c0.6,0.4,1.3,0.7,2.1,0.9c0.4,0.1,0.9,0.1,1.3,0
							C272.5,231.4,272.8,231.3,273.2,231.2z"/>

						<path fill="#FFFFFF" d="M223.4,225.3c0,0,0.2-0.2,0.6-0.5c0.2-0.2,0.5-0.4,0.8-0.6c0.3-0.2,0.6-0.4,1-0.7
							c0.8-0.5,1.7-1,2.7-1.3c1-0.4,2.2-0.6,3.4-0.7c1.2,0,2.3,0.1,3.4,0.4c1.1,0.3,2,0.6,2.8,1c0.8,0.4,1.5,0.7,1.9,0.9
							c0.5,0.2,0.7,0.4,0.7,0.4s0.5,0.3,1.3,0.8c0.7,0.5,1.7,1.1,2.7,1.8c1,0.7,1.9,1.4,2.6,1.9c0.7,0.5,1.2,0.9,1.2,0.9
							c2.5,1.9,5.1,3.9,8.1,5.2c1.5,0.7,3.1,1.2,4.7,1.5c0.8,0.1,1.7,0.2,2.5,0.1c0.4,0,0.8-0.1,1.2-0.1c0.2,0,0.4-0.1,0.6-0.1
							c0.2,0,0.4-0.1,0.6-0.1c0.8-0.2,1.6-0.5,2.3-0.8c0.7-0.4,1.5-0.8,2.1-1.2c1.4-0.9,2.6-2,3.7-3.2c0.3-0.3,0.6-0.6,0.8-0.9
							c0.3-0.3,0.5-0.6,0.8-0.9c0.5-0.7,0.9-1.4,1.2-2.2c0.6-1.5,0.8-3.2,0.7-4.8c-0.1-1.6-0.4-3.2-1.1-4.7
							c-0.3-0.7-0.7-1.4-1.2-2.1c-0.2-0.3-0.5-0.6-0.8-0.9c-0.3-0.2-0.7-0.5-1-0.6l0,0c0.4,0.2,0.7,0.4,1,0.6
							c0.3,0.3,0.6,0.5,0.8,0.9c0.5,0.6,0.8,1.3,1.1,2.1c0.6,1.5,0.9,3,0.9,4.6c0,1.6-0.2,3.1-0.8,4.6c-0.3,0.7-0.7,1.4-1.2,2
							c-0.2,0.3-0.5,0.6-0.8,0.9c-0.3,0.3-0.5,0.6-0.8,0.8c-1.1,1.1-2.3,2.1-3.6,2.9c-0.7,0.4-1.3,0.8-2,1.1
							c-0.7,0.3-1.4,0.5-2.2,0.7c-0.2,0-0.4,0.1-0.6,0.1c-0.2,0-0.4,0-0.6,0.1c-0.4,0-0.8,0.1-1.1,0c-0.8,0-1.5-0.1-2.2-0.2
							c-1.5-0.3-2.9-0.8-4.3-1.5c-2.8-1.3-5.4-3-8.1-4.8c0,0-0.5-0.3-1.2-0.8c-0.7-0.5-1.7-1.2-2.7-1.8c-1-0.7-2-1.3-2.8-1.7
							c-0.8-0.4-1.3-0.7-1.3-0.7s-0.3-0.1-0.7-0.4c-0.5-0.2-1.2-0.6-2-0.9c-0.8-0.3-1.9-0.7-3-0.9c-1.1-0.2-2.3-0.3-3.5-0.2
							c-1.2,0.1-2.4,0.4-3.4,0.8c-1.1,0.4-2,1-2.7,1.4c-0.4,0.3-0.7,0.5-1,0.7c-0.3,0.2-0.5,0.4-0.7,0.6
							C223.6,225.1,223.4,225.3,223.4,225.3L223.4,225.3z"/>
	
					<path fill="#FFFFFF" d="M273,214.6c0,0.5,0.5,0.9,1,0.8c0.5,0,0.9-0.5,0.8-1c0-0.5-0.5-0.9-1-0.8
						C273.4,213.7,273,214.1,273,214.6z"/>
					<path fill="#FFFFFF" d="M242.8,225.7c0.1,0.8,0.7,1.4,1.5,1.3c0.8-0.1,1.4-0.7,1.4-1.5c-0.1-0.8-0.7-1.4-1.6-1.4
						C243.3,224.2,242.7,224.9,242.8,225.7z"/>

				<circle fill="#FFFFFF" cx="223.4" cy="225.2" r="1.1"/>

	</g>
	<ellipse id="round" fill-rule="evenodd" clip-rule="evenodd" fill="#FFFFFF" cx="380.3" cy="233.7" rx="54.6" ry="47.4"/>
</g>
</svg>