<?xml version="1.0" encoding="utf-8"?>
<!-- Generator: Adobe Illustrator 18.1.1, SVG Export Plug-In . SVG Version: 6.00 Build 0)  -->
<svg version="1.1" id="Layer_1" xmlns="http://www.w3.org/2000/svg" xmlns:xlink="http://www.w3.org/1999/xlink" x="0px" y="0px"
	 viewBox="0 0 283.5 113.4" enable-background="new 0 0 283.5 113.4" xml:space="preserve">
<g>
	<path fill-rule="evenodd" clip-rule="evenodd" fill="#652D90" d="M249.7,41.1c0,0-63.1,4.9-80.6-5c-3.1-1.8-4.4-5.4-7.6-6.7
		c-3.3-1.3-7.4-1.2-10.9-0.2c-1.5-1.9-3.4-2.8-5.5-2.9l-0.1,0l-0.1,0c-1.1,0-2.2,0.4-3.1,1c-1-0.6-2-1-3.1-1l-0.1,0l-0.1,0
		c-2.1,0.1-4.1,1-5.5,2.9c-3.5-1-7.5-1.2-10.9,0.2c-3.1,1.3-4.5,4.9-7.6,6.7c-17.5,9.9-80.6,5-80.6,5v32c0,0,66-5.8,84,5
		c3.5,2.1,5.1,5.8,8.4,7.2c4.9,2,10.5,2.6,15.5,0.7c5,2,10.6,1.3,15.5-0.7c3.3-1.3,5-5.1,8.4-7.2c18-10.8,84-5,84-5V41.1z"/>
	<path fill-rule="evenodd" clip-rule="evenodd" fill="none" stroke="#F1F1F2" stroke-width="0.25" stroke-miterlimit="10" d="
		M249.7,70.5c-4.8-0.4-21.3-1.4-37.4-1.4c-24,0-39.9,2.3-47.4,6.8c-1.8,1.1-3.1,2.5-4.3,3.8c-1.3,1.4-2.4,2.7-3.9,3.3
		c-2.9,1.2-5.8,1.8-8.5,1.8c-2.1,0-4.1-0.4-5.9-1.1l-0.5-0.2l-0.5,0.2c-1.8,0.7-3.8,1.1-5.9,1.1c-2.7,0-5.7-0.6-8.5-1.8
		c-1.5-0.6-2.6-1.8-3.9-3.3c-1.2-1.3-2.5-2.7-4.3-3.8c-7.5-4.5-23.4-6.8-47.4-6.8c-16.1,0-32.6,0.9-37.4,1.3"/>
	<g>
		<g>
			<g>
				<g>
					<circle fill-rule="evenodd" clip-rule="evenodd" fill="#FFFFFF" cx="248.3" cy="68.3" r="0.7"/>
				</g>
				<g>
					<circle fill-rule="evenodd" clip-rule="evenodd" fill="#FFFFFF" cx="246.2" cy="68.1" r="0.7"/>
				</g>
				<g>
					<circle fill-rule="evenodd" clip-rule="evenodd" fill="#FFFFFF" cx="244" cy="68" r="0.7"/>
				</g>
				<g>
					<circle fill-rule="evenodd" clip-rule="evenodd" fill="#FFFFFF" cx="241.9" cy="67.9" r="0.7"/>
				</g>
				<g>
					<circle fill-rule="evenodd" clip-rule="evenodd" fill="#FFFFFF" cx="239.8" cy="67.8" r="0.7"/>
				</g>
				<g>
					<circle fill-rule="evenodd" clip-rule="evenodd" fill="#FFFFFF" cx="237.7" cy="67.7" r="0.7"/>
				</g>
				<g>
					<circle fill-rule="evenodd" clip-rule="evenodd" fill="#FFFFFF" cx="235.5" cy="67.6" r="0.7"/>
				</g>
				<g>
					<circle fill-rule="evenodd" clip-rule="evenodd" fill="#FFFFFF" cx="233.4" cy="67.5" r="0.7"/>
				</g>
				<g>
					<circle fill-rule="evenodd" clip-rule="evenodd" fill="#FFFFFF" cx="231.2" cy="67.4" r="0.7"/>
				</g>
				<g>
					<circle fill-rule="evenodd" clip-rule="evenodd" fill="#FFFFFF" cx="229.1" cy="67.3" r="0.7"/>
				</g>
				<g>
					<circle fill-rule="evenodd" clip-rule="evenodd" fill="#FFFFFF" cx="227" cy="67.2" r="0.7"/>
				</g>
				<g>
					<circle fill-rule="evenodd" clip-rule="evenodd" fill="#FFFFFF" cx="224.8" cy="67.2" r="0.7"/>
				</g>
				<g>
					<circle fill-rule="evenodd" clip-rule="evenodd" fill="#FFFFFF" cx="222.7" cy="67.1" r="0.7"/>
				</g>
				<g>
					<circle fill-rule="evenodd" clip-rule="evenodd" fill="#FFFFFF" cx="220.6" cy="67.1" r="0.7"/>
				</g>
				<g>
					<circle fill-rule="evenodd" clip-rule="evenodd" fill="#FFFFFF" cx="218.4" cy="67" r="0.7"/>
				</g>
				<g>
					<circle fill-rule="evenodd" clip-rule="evenodd" fill="#FFFFFF" cx="216.3" cy="67" r="0.7"/>
				</g>
				<g>
					<circle fill-rule="evenodd" clip-rule="evenodd" fill="#FFFFFF" cx="214.2" cy="67" r="0.7"/>
				</g>
				<g>
					<path fill-rule="evenodd" clip-rule="evenodd" fill="#FFFFFF" d="M211.3,67c0-0.4,0.3-0.7,0.7-0.7c0.4,0,0.7,0.3,0.7,0.7
						c0,0.4-0.3,0.7-0.7,0.7C211.6,67.7,211.3,67.4,211.3,67z"/>
				</g>
				<g>
					<circle fill-rule="evenodd" clip-rule="evenodd" fill="#FFFFFF" cx="209.9" cy="67" r="0.7"/>
				</g>
				<g>
					<path fill-rule="evenodd" clip-rule="evenodd" fill="#FFFFFF" d="M207.1,67c0-0.4,0.3-0.7,0.7-0.7c0.4,0,0.7,0.3,0.7,0.7
						c0,0.4-0.3,0.7-0.7,0.7C207.4,67.7,207.1,67.4,207.1,67z"/>
				</g>
				<g>
					<circle fill-rule="evenodd" clip-rule="evenodd" fill="#FFFFFF" cx="205.6" cy="67.1" r="0.7"/>
				</g>
				<g>
					<path fill-rule="evenodd" clip-rule="evenodd" fill="#FFFFFF" d="M202.8,67.1c0-0.4,0.3-0.7,0.7-0.7c0.4,0,0.7,0.3,0.7,0.7
						c0,0.4-0.3,0.7-0.7,0.7C203.1,67.8,202.8,67.5,202.8,67.1z"/>
				</g>
				<g>
					<circle fill-rule="evenodd" clip-rule="evenodd" fill="#FFFFFF" cx="201.4" cy="67.2" r="0.7"/>
				</g>
				<g>
					<path fill-rule="evenodd" clip-rule="evenodd" fill="#FFFFFF" d="M198.5,67.3c0-0.4,0.3-0.7,0.7-0.7c0.4,0,0.7,0.3,0.7,0.7
						c0,0.4-0.3,0.7-0.7,0.7C198.9,68,198.5,67.7,198.5,67.3z"/>
				</g>
				<g>
					<circle fill-rule="evenodd" clip-rule="evenodd" fill="#FFFFFF" cx="197.1" cy="67.4" r="0.7"/>
				</g>
				<g>
					<circle fill-rule="evenodd" clip-rule="evenodd" fill="#FFFFFF" cx="195" cy="67.5" r="0.7"/>
				</g>
				<g>
					<circle fill-rule="evenodd" clip-rule="evenodd" fill="#FFFFFF" cx="192.8" cy="67.6" r="0.7"/>
				</g>
				<g>
					<circle fill-rule="evenodd" clip-rule="evenodd" fill="#FFFFFF" cx="190.7" cy="67.8" r="0.7"/>
				</g>
				<g>
					<path fill-rule="evenodd" clip-rule="evenodd" fill="#FFFFFF" d="M187.9,68c0-0.4,0.2-0.7,0.6-0.8c0.4,0,0.7,0.3,0.8,0.6
						c0,0.4-0.3,0.7-0.6,0.8C188.3,68.7,187.9,68.4,187.9,68z"/>
				</g>
				<g>
					<path fill-rule="evenodd" clip-rule="evenodd" fill="#FFFFFF" d="M185.7,68.3c0-0.4,0.2-0.7,0.6-0.8c0.4,0,0.7,0.2,0.8,0.6
						c0,0.4-0.2,0.7-0.6,0.8C186.1,68.9,185.8,68.7,185.7,68.3z"/>
				</g>
				<g>
					<circle fill-rule="evenodd" clip-rule="evenodd" fill="#FFFFFF" cx="184.3" cy="68.4" r="0.7"/>
				</g>
				<g>
					<path fill-rule="evenodd" clip-rule="evenodd" fill="#FFFFFF" d="M181.5,68.8c-0.1-0.4,0.2-0.7,0.6-0.8
						c0.4-0.1,0.8,0.2,0.8,0.6c0.1,0.4-0.2,0.7-0.6,0.8C181.9,69.5,181.6,69.2,181.5,68.8z"/>
				</g>
				<g>
					<path fill-rule="evenodd" clip-rule="evenodd" fill="#FFFFFF" d="M179.4,69.2c-0.1-0.4,0.2-0.8,0.6-0.8
						c0.4-0.1,0.8,0.2,0.8,0.6c0.1,0.4-0.2,0.7-0.6,0.8C179.8,69.8,179.5,69.6,179.4,69.2z"/>
				</g>
				<g>
					<path fill-rule="evenodd" clip-rule="evenodd" fill="#FFFFFF" d="M177.3,69.6c-0.1-0.4,0.2-0.8,0.6-0.8
						c0.4-0.1,0.8,0.2,0.8,0.6c0.1,0.4-0.2,0.8-0.6,0.8C177.8,70.2,177.4,70,177.3,69.6z"/>
				</g>
				<g>
					<path fill-rule="evenodd" clip-rule="evenodd" fill="#FFFFFF" d="M175.2,70c-0.1-0.4,0.2-0.8,0.5-0.8c0.4-0.1,0.8,0.2,0.8,0.5
						c0.1,0.4-0.2,0.8-0.5,0.8C175.7,70.6,175.3,70.4,175.2,70z"/>
				</g>
				<g>
					<path fill-rule="evenodd" clip-rule="evenodd" fill="#FFFFFF" d="M173.1,70.5c-0.1-0.4,0.1-0.8,0.5-0.9
						c0.4-0.1,0.8,0.1,0.9,0.5c0.1,0.4-0.1,0.8-0.5,0.9C173.6,71.1,173.2,70.9,173.1,70.5z"/>
				</g>
				<g>
					<path fill-rule="evenodd" clip-rule="evenodd" fill="#FFFFFF" d="M171.1,71.1c-0.1-0.4,0.1-0.8,0.5-0.9
						c0.4-0.1,0.8,0.1,0.9,0.5c0.1,0.4-0.1,0.8-0.5,0.9C171.6,71.7,171.2,71.5,171.1,71.1z"/>
				</g>
				<g>
					<path fill-rule="evenodd" clip-rule="evenodd" fill="#FFFFFF" d="M169.1,71.8c-0.1-0.4,0.1-0.8,0.4-0.9
						c0.4-0.1,0.8,0.1,0.9,0.4c0.1,0.4-0.1,0.8-0.4,0.9C169.6,72.4,169.2,72.2,169.1,71.8z"/>
				</g>
				<g>
					<path fill-rule="evenodd" clip-rule="evenodd" fill="#FFFFFF" d="M167.1,72.7c-0.2-0.4,0-0.8,0.4-0.9c0.4-0.2,0.8,0,0.9,0.4
						c0.1,0.4,0,0.8-0.4,0.9C167.7,73.2,167.3,73,167.1,72.7z"/>
				</g>
				<g>
					<path fill-rule="evenodd" clip-rule="evenodd" fill="#FFFFFF" d="M165.2,73.6c-0.2-0.3-0.1-0.8,0.3-1c0.4-0.2,0.8-0.1,1,0.3
						c0.2,0.3,0,0.8-0.3,1C165.8,74.1,165.4,74,165.2,73.6z"/>
				</g>
				<g>
					<path fill-rule="evenodd" clip-rule="evenodd" fill="#FFFFFF" d="M163.4,74.8c-0.2-0.3-0.2-0.8,0.1-1c0.3-0.2,0.8-0.2,1,0.2
						c0.2,0.3,0.1,0.8-0.2,1C164.1,75.2,163.7,75.1,163.4,74.8z"/>
				</g>
				<g>
					<path fill-rule="evenodd" clip-rule="evenodd" fill="#FFFFFF" d="M161.9,76.3c-0.3-0.3-0.3-0.7,0-1c0.3-0.3,0.8-0.3,1,0
						c0.3,0.3,0.2,0.7,0,1C162.6,76.5,162.2,76.6,161.9,76.3z"/>
				</g>
				<g>
					<path fill-rule="evenodd" clip-rule="evenodd" fill="#FFFFFF" d="M160.4,77.8c-0.3-0.3-0.3-0.7,0-1c0.3-0.3,0.7-0.3,1,0
						c0.3,0.3,0.3,0.7,0,1C161.2,78.1,160.7,78.1,160.4,77.8z"/>
				</g>
				<g>
					<path fill-rule="evenodd" clip-rule="evenodd" fill="#FFFFFF" d="M158.9,79.4c-0.3-0.3-0.3-0.7,0-1c0.3-0.3,0.7-0.3,1,0
						c0.3,0.3,0.3,0.7,0,1C159.7,79.7,159.2,79.7,158.9,79.4z"/>
				</g>
				<g>
					<path fill-rule="evenodd" clip-rule="evenodd" fill="#FFFFFF" d="M157.2,80.6c-0.2-0.3-0.1-0.8,0.2-1c0.3-0.2,0.7-0.1,1,0.2
						c0.2,0.3,0.2,0.8-0.2,1C157.9,81.1,157.4,81,157.2,80.6z"/>
				</g>
				<g>
					<path fill-rule="evenodd" clip-rule="evenodd" fill="#FFFFFF" d="M155.2,81.4c-0.1-0.4,0.1-0.8,0.4-0.9c0.4-0.1,0.8,0,0.9,0.4
						c0.1,0.4,0,0.8-0.4,0.9C155.8,82,155.3,81.8,155.2,81.4z"/>
				</g>
				<g>
					<path fill-rule="evenodd" clip-rule="evenodd" fill="#FFFFFF" d="M153.2,82c-0.1-0.4,0.1-0.8,0.5-0.9c0.4-0.1,0.8,0.1,0.9,0.5
						c0.1,0.4-0.1,0.8-0.5,0.9C153.7,82.6,153.3,82.4,153.2,82z"/>
				</g>
				<g>
					<path fill-rule="evenodd" clip-rule="evenodd" fill="#FFFFFF" d="M151.1,82.4c-0.1-0.4,0.2-0.7,0.6-0.8
						c0.4-0.1,0.7,0.2,0.8,0.6c0.1,0.4-0.2,0.8-0.6,0.8C151.5,83.1,151.1,82.8,151.1,82.4z"/>
				</g>
				<g>
					<path fill-rule="evenodd" clip-rule="evenodd" fill="#FFFFFF" d="M149,82.6c0-0.4,0.3-0.7,0.7-0.7c0.4,0,0.7,0.3,0.8,0.6
						c0,0.4-0.2,0.7-0.7,0.8C149.3,83.3,149,83,149,82.6z"/>
				</g>
				<g>
					<path fill-rule="evenodd" clip-rule="evenodd" fill="#FFFFFF" d="M146.8,82.6c0-0.4,0.4-0.7,0.7-0.7c0.4,0,0.7,0.3,0.7,0.7
						c0,0.4-0.3,0.7-0.7,0.7C147.1,83.3,146.8,83,146.8,82.6z"/>
				</g>
				<g>
					<path fill-rule="evenodd" clip-rule="evenodd" fill="#FFFFFF" d="M144.7,82.3c0.1-0.4,0.4-0.6,0.8-0.6c0.4,0.1,0.6,0.4,0.6,0.8
						c0,0.4-0.4,0.7-0.8,0.6C144.9,83,144.6,82.6,144.7,82.3z"/>
				</g>
				<g>
					<path fill-rule="evenodd" clip-rule="evenodd" fill="#FFFFFF" d="M142.7,81.7c0.1-0.4,0.5-0.6,0.9-0.5c0.4,0.1,0.6,0.5,0.5,0.9
						c-0.1,0.4-0.5,0.6-0.9,0.5C142.7,82.5,142.5,82.1,142.7,81.7z"/>
				</g>
				<g>
					<path fill-rule="evenodd" clip-rule="evenodd" fill="#FFFFFF" d="M139.4,82.1c-0.1-0.4,0.1-0.8,0.5-0.9
						c0.4-0.1,0.7,0.1,0.9,0.5c0.1,0.4-0.1,0.8-0.5,0.9C139.9,82.7,139.5,82.5,139.4,82.1z"/>
				</g>
				<g>
					<path fill-rule="evenodd" clip-rule="evenodd" fill="#FFFFFF" d="M137.3,82.5c0-0.4,0.2-0.7,0.6-0.8c0.4-0.1,0.7,0.2,0.8,0.6
						c0.1,0.4-0.2,0.8-0.6,0.8C137.8,83.2,137.4,82.9,137.3,82.5z"/>
				</g>
				<g>
					<path fill-rule="evenodd" clip-rule="evenodd" fill="#FFFFFF" d="M135.2,82.6c0-0.4,0.3-0.7,0.7-0.7c0.4,0,0.7,0.3,0.7,0.7
						c0,0.4-0.3,0.7-0.7,0.7C135.5,83.3,135.2,83,135.2,82.6z"/>
				</g>
				<g>
					<path fill-rule="evenodd" clip-rule="evenodd" fill="#FFFFFF" d="M133.1,82.5c0-0.4,0.4-0.7,0.8-0.6c0.4,0,0.7,0.4,0.7,0.7
						c0,0.4-0.4,0.7-0.8,0.7C133.3,83.2,133,82.9,133.1,82.5z"/>
				</g>
				<g>
					<path fill-rule="evenodd" clip-rule="evenodd" fill="#FFFFFF" d="M131,82.1c0.1-0.4,0.5-0.6,0.8-0.6c0.4,0.1,0.6,0.4,0.6,0.8
						c-0.1,0.4-0.4,0.7-0.8,0.6C131.2,82.9,130.9,82.5,131,82.1z"/>
				</g>
				<g>
					<path fill-rule="evenodd" clip-rule="evenodd" fill="#FFFFFF" d="M128.9,81.6c0.1-0.4,0.5-0.6,0.9-0.5c0.4,0.1,0.6,0.5,0.5,0.9
						c-0.1,0.4-0.5,0.6-0.9,0.5C129,82.4,128.8,82,128.9,81.6z"/>
				</g>
				<g>
					<path fill-rule="evenodd" clip-rule="evenodd" fill="#FFFFFF" d="M126.9,80.9c0.1-0.4,0.5-0.5,0.9-0.4c0.4,0.1,0.6,0.5,0.4,0.9
						c-0.1,0.4-0.5,0.6-0.9,0.4C126.9,81.7,126.8,81.3,126.9,80.9z"/>
				</g>
				<g>
					<path fill-rule="evenodd" clip-rule="evenodd" fill="#FFFFFF" d="M125.1,79.8c0.3-0.3,0.7-0.4,1-0.2c0.3,0.2,0.4,0.6,0.2,1
						c-0.2,0.4-0.6,0.5-1,0.2C124.9,80.6,124.8,80.1,125.1,79.8z"/>
				</g>
				<g>
					<path fill-rule="evenodd" clip-rule="evenodd" fill="#FFFFFF" d="M123.5,78.4c0.3-0.3,0.7-0.3,1,0c0.3,0.3,0.3,0.7,0,1
						c-0.3,0.3-0.7,0.3-1,0C123.2,79.1,123.2,78.6,123.5,78.4z"/>
				</g>
				<g>
					<path fill-rule="evenodd" clip-rule="evenodd" fill="#FFFFFF" d="M122.1,76.8c0.3-0.3,0.7-0.2,1,0c0.3,0.3,0.2,0.7,0,1
						c-0.3,0.3-0.7,0.2-1,0C121.8,77.5,121.8,77.1,122.1,76.8z"/>
				</g>
				<g>
					<path fill-rule="evenodd" clip-rule="evenodd" fill="#FFFFFF" d="M120.6,75.3c0.3-0.3,0.7-0.3,1,0c0.3,0.3,0.3,0.7,0,1
						c-0.3,0.3-0.7,0.3-1,0C120.3,76,120.3,75.6,120.6,75.3z"/>
				</g>
				<g>
					<path fill-rule="evenodd" clip-rule="evenodd" fill="#FFFFFF" d="M118.9,74c0.2-0.3,0.7-0.4,1-0.2c0.3,0.2,0.4,0.7,0.1,1
						c-0.3,0.3-0.7,0.4-1,0.1C118.7,74.7,118.7,74.3,118.9,74z"/>
				</g>
				<g>
					<path fill-rule="evenodd" clip-rule="evenodd" fill="#FFFFFF" d="M117,72.9c0.2-0.4,0.6-0.5,1-0.3c0.4,0.2,0.5,0.6,0.3,1
						c-0.2,0.3-0.6,0.5-1,0.3C117,73.7,116.8,73.3,117,72.9z"/>
				</g>
				<g>
					<path fill-rule="evenodd" clip-rule="evenodd" fill="#FFFFFF" d="M115.1,72.1c0.1-0.4,0.6-0.5,0.9-0.4c0.4,0.2,0.5,0.6,0.4,0.9
						c-0.2,0.4-0.6,0.5-0.9,0.4C115.1,72.8,114.9,72.4,115.1,72.1z"/>
				</g>
				<g>
					<path fill-rule="evenodd" clip-rule="evenodd" fill="#FFFFFF" d="M113,71.4c0.1-0.4,0.5-0.6,0.9-0.4c0.4,0.1,0.6,0.6,0.4,0.9
						c-0.1,0.4-0.5,0.6-0.9,0.4C113.1,72.1,112.9,71.7,113,71.4z"/>
				</g>
				<g>
					<path fill-rule="evenodd" clip-rule="evenodd" fill="#FFFFFF" d="M111,70.7c0.1-0.4,0.5-0.6,0.9-0.5c0.4,0.1,0.6,0.5,0.5,0.9
						c-0.1,0.4-0.5,0.6-0.9,0.5C111.1,71.5,110.9,71.1,111,70.7z"/>
				</g>
				<g>
					<path fill-rule="evenodd" clip-rule="evenodd" fill="#FFFFFF" d="M108.9,70.2c0.1-0.4,0.5-0.6,0.9-0.5c0.4,0.1,0.6,0.5,0.5,0.9
						c-0.1,0.4-0.5,0.6-0.9,0.5C109.1,70.9,108.9,70.6,108.9,70.2z"/>
				</g>
				<g>
					<path fill-rule="evenodd" clip-rule="evenodd" fill="#FFFFFF" d="M106.9,69.7c0.1-0.4,0.5-0.6,0.8-0.5c0.4,0.1,0.6,0.5,0.5,0.8
						c-0.1,0.4-0.5,0.6-0.8,0.5C107,70.5,106.8,70.1,106.9,69.7z"/>
				</g>
				<g>
					<path fill-rule="evenodd" clip-rule="evenodd" fill="#FFFFFF" d="M104.8,69.3c0.1-0.4,0.4-0.6,0.8-0.6c0.4,0.1,0.6,0.4,0.6,0.8
						c-0.1,0.4-0.5,0.6-0.8,0.6S104.7,69.7,104.8,69.3z"/>
				</g>
				<g>
					<path fill-rule="evenodd" clip-rule="evenodd" fill="#FFFFFF" d="M102.7,69c0.1-0.4,0.4-0.6,0.8-0.6c0.4,0.1,0.7,0.4,0.6,0.8
						c-0.1,0.4-0.4,0.6-0.8,0.6C102.9,69.7,102.6,69.3,102.7,69z"/>
				</g>
				<g>
					<path fill-rule="evenodd" clip-rule="evenodd" fill="#FFFFFF" d="M100.5,68.6c0.1-0.4,0.4-0.7,0.8-0.6c0.4,0.1,0.7,0.4,0.6,0.8
						c-0.1,0.4-0.4,0.7-0.8,0.6C100.8,69.4,100.5,69,100.5,68.6z"/>
				</g>
				<g>
					<circle fill-rule="evenodd" clip-rule="evenodd" fill="#FFFFFF" cx="99.1" cy="68.4" r="0.7"/>
				</g>
				<g>
					<path fill-rule="evenodd" clip-rule="evenodd" fill="#FFFFFF" d="M96.3,68.1c0-0.4,0.4-0.7,0.8-0.6c0.4,0,0.7,0.4,0.6,0.8
						c0,0.4-0.4,0.7-0.8,0.6S96.3,68.5,96.3,68.1z"/>
				</g>
				<g>
					<path fill-rule="evenodd" clip-rule="evenodd" fill="#FFFFFF" d="M94.2,67.9c0-0.4,0.4-0.7,0.8-0.6c0.4,0,0.7,0.4,0.6,0.8
						s-0.4,0.7-0.8,0.6C94.4,68.6,94.1,68.3,94.2,67.9z"/>
				</g>
				<g>
					<circle fill-rule="evenodd" clip-rule="evenodd" fill="#FFFFFF" cx="92.8" cy="67.8" r="0.7"/>
				</g>
				<g>
					<path fill-rule="evenodd" clip-rule="evenodd" fill="#FFFFFF" d="M89.9,67.6c0-0.4,0.4-0.7,0.8-0.7c0.4,0,0.7,0.4,0.7,0.8
						c0,0.4-0.4,0.7-0.8,0.7C90.2,68.3,89.9,68,89.9,67.6z"/>
				</g>
				<g>
					<circle fill-rule="evenodd" clip-rule="evenodd" fill="#FFFFFF" cx="88.5" cy="67.5" r="0.7"/>
				</g>
				<g>
					<circle fill-rule="evenodd" clip-rule="evenodd" fill="#FFFFFF" cx="86.4" cy="67.4" r="0.7"/>
				</g>
				<g>
					<path fill-rule="evenodd" clip-rule="evenodd" fill="#FFFFFF" d="M83.5,67.2c0-0.4,0.3-0.7,0.7-0.7c0.4,0,0.7,0.4,0.7,0.7
						c0,0.4-0.3,0.7-0.7,0.7C83.8,67.9,83.5,67.6,83.5,67.2z"/>
				</g>
				<g>
					<circle fill-rule="evenodd" clip-rule="evenodd" fill="#FFFFFF" cx="82.1" cy="67.2" r="0.7"/>
				</g>
				<g>
					<path fill-rule="evenodd" clip-rule="evenodd" fill="#FFFFFF" d="M79.3,67.1c0-0.4,0.3-0.7,0.7-0.7c0.4,0,0.7,0.3,0.7,0.7
						c0,0.4-0.3,0.7-0.7,0.7C79.6,67.8,79.2,67.5,79.3,67.1z"/>
				</g>
				<g>
					<circle fill-rule="evenodd" clip-rule="evenodd" fill="#FFFFFF" cx="77.8" cy="67.1" r="0.7"/>
				</g>
				<g>
					<path fill-rule="evenodd" clip-rule="evenodd" fill="#FFFFFF" d="M75,67c0-0.4,0.3-0.7,0.7-0.7c0.4,0,0.7,0.3,0.7,0.7
						c0,0.4-0.3,0.7-0.7,0.7C75.3,67.7,75,67.4,75,67z"/>
				</g>
				<g>
					<circle fill-rule="evenodd" clip-rule="evenodd" fill="#FFFFFF" cx="73.6" cy="67" r="0.7"/>
				</g>
				<g>
					<circle fill-rule="evenodd" clip-rule="evenodd" fill="#FFFFFF" cx="71.4" cy="67" r="0.7"/>
				</g>
				<g>
					<circle fill-rule="evenodd" clip-rule="evenodd" fill="#FFFFFF" cx="69.3" cy="67" r="0.7"/>
				</g>
				<g>
					<circle fill-rule="evenodd" clip-rule="evenodd" fill="#FFFFFF" cx="67.2" cy="67" r="0.7"/>
				</g>
				<g>
					<circle fill-rule="evenodd" clip-rule="evenodd" fill="#FFFFFF" cx="65" cy="67" r="0.7"/>
				</g>
				<g>
					<circle fill-rule="evenodd" clip-rule="evenodd" fill="#FFFFFF" cx="62.9" cy="67.1" r="0.7"/>
				</g>
				<g>
					<circle fill-rule="evenodd" clip-rule="evenodd" fill="#FFFFFF" cx="60.8" cy="67.1" r="0.7"/>
				</g>
				<g>
					<circle fill-rule="evenodd" clip-rule="evenodd" fill="#FFFFFF" cx="58.6" cy="67.2" r="0.7"/>
				</g>
				<g>
					<circle fill-rule="evenodd" clip-rule="evenodd" fill="#FFFFFF" cx="56.5" cy="67.2" r="0.7"/>
				</g>
				<g>
					<circle fill-rule="evenodd" clip-rule="evenodd" fill="#FFFFFF" cx="54.3" cy="67.3" r="0.7"/>
				</g>
				<g>
					<circle fill-rule="evenodd" clip-rule="evenodd" fill="#FFFFFF" cx="52.2" cy="67.3" r="0.7"/>
				</g>
				<g>
					<circle fill-rule="evenodd" clip-rule="evenodd" fill="#FFFFFF" cx="50.1" cy="67.4" r="0.7"/>
				</g>
				<g>
					<circle fill-rule="evenodd" clip-rule="evenodd" fill="#FFFFFF" cx="47.9" cy="67.5" r="0.7"/>
				</g>
				<g>
					<circle fill-rule="evenodd" clip-rule="evenodd" fill="#FFFFFF" cx="45.8" cy="67.6" r="0.7"/>
				</g>
				<g>
					<circle fill-rule="evenodd" clip-rule="evenodd" fill="#FFFFFF" cx="43.7" cy="67.7" r="0.7"/>
				</g>
				<g>
					<circle fill-rule="evenodd" clip-rule="evenodd" fill="#FFFFFF" cx="41.5" cy="67.8" r="0.7"/>
				</g>
				<g>
					<circle fill-rule="evenodd" clip-rule="evenodd" fill="#FFFFFF" cx="39.4" cy="67.9" r="0.7"/>
				</g>
				<g>
					<circle fill-rule="evenodd" clip-rule="evenodd" fill="#FFFFFF" cx="37.3" cy="68.1" r="0.7"/>
				</g>
				<g>
					<circle fill-rule="evenodd" clip-rule="evenodd" fill="#FFFFFF" cx="35.2" cy="68.2" r="0.7"/>
				</g>
			</g>
		</g>
	</g>
	<path fill-rule="evenodd" clip-rule="evenodd" fill="none" stroke="#F1F1F2" stroke-width="0.25" stroke-miterlimit="10" d="
		M33.7,43.5c4.4,0.3,19,1.2,33.5,1.2c24.2,0,40.3-2.2,47.8-6.4c1.7-0.9,2.8-2.3,3.9-3.6c1.1-1.3,2.1-2.5,3.5-3
		c1.5-0.6,3.1-0.9,4.9-0.9c1.6,0,3.3,0.2,5,0.7l0.9,0.3l0.6-0.8c1.1-1.5,2.7-2.3,4.5-2.4l0.1,0c0.9,0,1.7,0.3,2.4,0.8l0.8,0.5
		l0.8-0.5c0.7-0.5,1.5-0.7,2.4-0.8h0.1c1.8,0.1,3.4,0.9,4.5,2.4l0.6,0.8l0.9-0.3c1.6-0.4,3.3-0.7,5-0.7c1.8,0,3.6,0.3,5,0.9
		c1.3,0.5,2.4,1.7,3.5,3c1.1,1.3,2.3,2.7,3.9,3.6c7.5,4.3,23.6,6.4,47.8,6.4c14.5,0,29.1-1,33.5-1.3"/>
	<g>
		<g>
			<g>
				<g>
					<circle fill-rule="evenodd" clip-rule="evenodd" fill="#FFFFFF" cx="35.2" cy="45.5" r="0.7"/>
				</g>
				<g>
					<circle fill-rule="evenodd" clip-rule="evenodd" fill="#FFFFFF" cx="37.3" cy="45.7" r="0.7"/>
				</g>
				<g>
					<circle fill-rule="evenodd" clip-rule="evenodd" fill="#FFFFFF" cx="39.5" cy="45.8" r="0.7"/>
				</g>
				<g>
					<circle fill-rule="evenodd" clip-rule="evenodd" fill="#FFFFFF" cx="41.6" cy="45.9" r="0.7"/>
				</g>
				<g>
					<circle fill-rule="evenodd" clip-rule="evenodd" fill="#FFFFFF" cx="43.7" cy="46" r="0.7"/>
				</g>
				<g>
					<circle fill-rule="evenodd" clip-rule="evenodd" fill="#FFFFFF" cx="45.8" cy="46.1" r="0.7"/>
				</g>
				<g>
					<circle fill-rule="evenodd" clip-rule="evenodd" fill="#FFFFFF" cx="48" cy="46.2" r="0.7"/>
				</g>
				<g>
					<circle fill-rule="evenodd" clip-rule="evenodd" fill="#FFFFFF" cx="50.1" cy="46.3" r="0.7"/>
				</g>
				<g>
					<circle fill-rule="evenodd" clip-rule="evenodd" fill="#FFFFFF" cx="52.2" cy="46.4" r="0.7"/>
				</g>
				<g>
					<circle fill-rule="evenodd" clip-rule="evenodd" fill="#FFFFFF" cx="54.3" cy="46.4" r="0.7"/>
				</g>
				<g>
					<circle fill-rule="evenodd" clip-rule="evenodd" fill="#FFFFFF" cx="56.5" cy="46.5" r="0.7"/>
				</g>
				<g>
					<circle fill-rule="evenodd" clip-rule="evenodd" fill="#FFFFFF" cx="58.6" cy="46.6" r="0.7"/>
				</g>
				<g>
					<circle fill-rule="evenodd" clip-rule="evenodd" fill="#FFFFFF" cx="60.7" cy="46.6" r="0.7"/>
				</g>
				<g>
					<circle fill-rule="evenodd" clip-rule="evenodd" fill="#FFFFFF" cx="62.8" cy="46.6" r="0.7"/>
				</g>
				<g>
					<circle fill-rule="evenodd" clip-rule="evenodd" fill="#FFFFFF" cx="65" cy="46.6" r="0.7"/>
				</g>
				<g>
					<circle fill-rule="evenodd" clip-rule="evenodd" fill="#FFFFFF" cx="67.1" cy="46.7" r="0.7"/>
				</g>
				<g>
					<circle fill-rule="evenodd" clip-rule="evenodd" fill="#FFFFFF" cx="69.2" cy="46.6" r="0.7"/>
				</g>
				<g>
					<circle fill-rule="evenodd" clip-rule="evenodd" fill="#FFFFFF" cx="71.4" cy="46.6" r="0.7"/>
				</g>
				<g>
					<circle fill-rule="evenodd" clip-rule="evenodd" fill="#FFFFFF" cx="73.5" cy="46.6" r="0.7"/>
				</g>
				<g>
					<circle fill-rule="evenodd" clip-rule="evenodd" fill="#FFFFFF" cx="75.6" cy="46.6" r="0.7"/>
				</g>
				<g>
					<circle fill-rule="evenodd" clip-rule="evenodd" fill="#FFFFFF" cx="77.7" cy="46.5" r="0.7"/>
				</g>
				<g>
					<path fill-rule="evenodd" clip-rule="evenodd" fill="#FFFFFF" d="M80.6,46.4c0,0.4-0.3,0.7-0.7,0.7c-0.4,0-0.7-0.3-0.7-0.7
						c0-0.4,0.3-0.7,0.7-0.7C80.2,45.7,80.5,46,80.6,46.4z"/>
				</g>
				<g>
					<circle fill-rule="evenodd" clip-rule="evenodd" fill="#FFFFFF" cx="82" cy="46.3" r="0.7"/>
				</g>
				<g>
					<path fill-rule="evenodd" clip-rule="evenodd" fill="#FFFFFF" d="M84.8,46.2c0,0.4-0.3,0.7-0.7,0.8c-0.4,0-0.7-0.3-0.7-0.7
						c0-0.4,0.3-0.7,0.7-0.7C84.5,45.5,84.8,45.8,84.8,46.2z"/>
				</g>
				<g>
					<circle fill-rule="evenodd" clip-rule="evenodd" fill="#FFFFFF" cx="86.2" cy="46.1" r="0.7"/>
				</g>
				<g>
					<path fill-rule="evenodd" clip-rule="evenodd" fill="#FFFFFF" d="M89.1,45.9c0,0.4-0.3,0.7-0.7,0.8c-0.4,0-0.7-0.3-0.8-0.6
						c0-0.4,0.3-0.7,0.7-0.8C88.7,45.2,89,45.5,89.1,45.9z"/>
				</g>
				<g>
					<path fill-rule="evenodd" clip-rule="evenodd" fill="#FFFFFF" d="M91.2,45.7c0,0.4-0.3,0.7-0.6,0.8c-0.4,0-0.7-0.3-0.8-0.6
						c0-0.4,0.3-0.7,0.6-0.8C90.8,45.1,91.1,45.4,91.2,45.7z"/>
				</g>
				<g>
					<circle fill-rule="evenodd" clip-rule="evenodd" fill="#FFFFFF" cx="92.6" cy="45.6" r="0.7"/>
				</g>
				<g>
					<path fill-rule="evenodd" clip-rule="evenodd" fill="#FFFFFF" d="M95.4,45.3c0,0.4-0.2,0.7-0.6,0.8c-0.4,0.1-0.7-0.2-0.8-0.6
						c0-0.4,0.2-0.7,0.6-0.8C95,44.6,95.4,44.9,95.4,45.3z"/>
				</g>
				<g>
					<path fill-rule="evenodd" clip-rule="evenodd" fill="#FFFFFF" d="M97.5,45c0.1,0.4-0.2,0.7-0.6,0.8c-0.4,0-0.7-0.2-0.8-0.6
						c0-0.4,0.2-0.7,0.6-0.8C97.1,44.4,97.5,44.7,97.5,45z"/>
				</g>
				<g>
					<path fill-rule="evenodd" clip-rule="evenodd" fill="#FFFFFF" d="M99.6,44.7c0.1,0.4-0.2,0.7-0.6,0.8c-0.4,0.1-0.8-0.2-0.8-0.6
						s0.2-0.7,0.6-0.8C99.2,44.1,99.6,44.3,99.6,44.7z"/>
				</g>
				<g>
					<path fill-rule="evenodd" clip-rule="evenodd" fill="#FFFFFF" d="M101.7,44.4c0.1,0.4-0.2,0.8-0.6,0.8
						c-0.4,0.1-0.8-0.2-0.8-0.6c-0.1-0.4,0.2-0.8,0.6-0.8C101.3,43.7,101.7,44,101.7,44.4z"/>
				</g>
				<g>
					<path fill-rule="evenodd" clip-rule="evenodd" fill="#FFFFFF" d="M103.8,44c0.1,0.4-0.2,0.8-0.6,0.8c-0.4,0.1-0.8-0.2-0.8-0.6
						c-0.1-0.4,0.2-0.8,0.6-0.8C103.4,43.4,103.7,43.6,103.8,44z"/>
				</g>
				<g>
					<path fill-rule="evenodd" clip-rule="evenodd" fill="#FFFFFF" d="M105.9,43.5c0.1,0.4-0.1,0.8-0.5,0.8
						c-0.4,0.1-0.8-0.2-0.8-0.5c-0.1-0.4,0.2-0.8,0.5-0.8C105.4,42.9,105.8,43.2,105.9,43.5z"/>
				</g>
				<g>
					<path fill-rule="evenodd" clip-rule="evenodd" fill="#FFFFFF" d="M108,43c0.1,0.4-0.1,0.8-0.5,0.9c-0.4,0.1-0.8-0.1-0.9-0.5
						c-0.1-0.4,0.1-0.8,0.5-0.9C107.5,42.4,107.9,42.7,108,43z"/>
				</g>
				<g>
					<path fill-rule="evenodd" clip-rule="evenodd" fill="#FFFFFF" d="M110,42.4c0.1,0.4-0.1,0.8-0.5,0.9c-0.4,0.1-0.8-0.1-0.9-0.5
						c-0.1-0.4,0.1-0.8,0.5-0.9C109.5,41.8,109.9,42.1,110,42.4z"/>
				</g>
				<g>
					<path fill-rule="evenodd" clip-rule="evenodd" fill="#FFFFFF" d="M112,41.7c0.1,0.4,0,0.8-0.4,0.9c-0.4,0.1-0.8-0.1-0.9-0.4
						c-0.1-0.4,0.1-0.8,0.4-0.9C111.5,41.2,111.9,41.4,112,41.7z"/>
				</g>
				<g>
					<path fill-rule="evenodd" clip-rule="evenodd" fill="#FFFFFF" d="M114,40.9c0.2,0.3,0,0.8-0.4,0.9c-0.4,0.2-0.8,0-0.9-0.4
						c-0.1-0.4,0-0.8,0.4-0.9C113.4,40.4,113.8,40.5,114,40.9z"/>
				</g>
				<g>
					<path fill-rule="evenodd" clip-rule="evenodd" fill="#FFFFFF" d="M115.8,39.8c0.2,0.3,0.1,0.8-0.2,1c-0.4,0.2-0.8,0.1-1-0.3
						c-0.2-0.3,0-0.8,0.3-0.9C115.2,39.4,115.6,39.5,115.8,39.8z"/>
				</g>
				<g>
					<path fill-rule="evenodd" clip-rule="evenodd" fill="#FFFFFF" d="M117.4,38.5c0.3,0.3,0.3,0.7,0,1c-0.3,0.3-0.8,0.2-1-0.1
						c-0.2-0.3-0.2-0.7,0.1-1C116.7,38.2,117.2,38.2,117.4,38.5z"/>
				</g>
				<g>
					<path fill-rule="evenodd" clip-rule="evenodd" fill="#FFFFFF" d="M118.9,36.9c0.3,0.3,0.3,0.7,0.1,1c-0.3,0.3-0.7,0.3-1,0.1
						c-0.3-0.3-0.3-0.7-0.1-1C118.1,36.7,118.6,36.6,118.9,36.9z"/>
				</g>
				<g>
					<path fill-rule="evenodd" clip-rule="evenodd" fill="#FFFFFF" d="M120.3,35.3c0.3,0.3,0.3,0.7,0,1c-0.3,0.3-0.7,0.3-1,0.1
						c-0.3-0.3-0.3-0.7-0.1-1C119.5,35.1,120,35,120.3,35.3z"/>
				</g>
				<g>
					<path fill-rule="evenodd" clip-rule="evenodd" fill="#FFFFFF" d="M121.9,34c0.2,0.3,0.1,0.8-0.2,1c-0.3,0.2-0.7,0.2-1-0.1
						c-0.3-0.3-0.2-0.8,0.1-1C121.2,33.5,121.7,33.6,121.9,34z"/>
				</g>
				<g>
					<path fill-rule="evenodd" clip-rule="evenodd" fill="#FFFFFF" d="M123.9,33.2c0.1,0.4-0.1,0.8-0.5,0.9
						c-0.3,0.1-0.7-0.1-0.9-0.4c-0.1-0.4,0-0.8,0.4-0.9C123.4,32.6,123.8,32.8,123.9,33.2z"/>
				</g>
				<g>
					<path fill-rule="evenodd" clip-rule="evenodd" fill="#FFFFFF" d="M126,32.8c0,0.4-0.2,0.7-0.6,0.8c-0.4,0.1-0.7-0.2-0.8-0.6
						c-0.1-0.4,0.2-0.8,0.6-0.8C125.6,32.1,126,32.4,126,32.8z"/>
				</g>
				<g>
					<path fill-rule="evenodd" clip-rule="evenodd" fill="#FFFFFF" d="M128.1,32.8c0,0.4-0.3,0.7-0.7,0.7c-0.4,0-0.7-0.3-0.7-0.7
						c0-0.4,0.3-0.7,0.7-0.7C127.8,32,128.1,32.4,128.1,32.8z"/>
				</g>
				<g>
					<path fill-rule="evenodd" clip-rule="evenodd" fill="#FFFFFF" d="M130.2,33c-0.1,0.4-0.4,0.6-0.8,0.6c-0.4,0-0.6-0.4-0.6-0.8
						c0-0.4,0.4-0.7,0.8-0.6C130,32.2,130.3,32.6,130.2,33z"/>
				</g>
				<g>
					<path fill-rule="evenodd" clip-rule="evenodd" fill="#FFFFFF" d="M132.3,33.4c-0.1,0.4-0.5,0.6-0.8,0.5
						c-0.4-0.1-0.6-0.5-0.5-0.8c0.1-0.4,0.5-0.6,0.9-0.5C132.2,32.6,132.4,33,132.3,33.4z"/>
				</g>
				<g>
					<path fill-rule="evenodd" clip-rule="evenodd" fill="#FFFFFF" d="M135.1,31.9c0.2,0.3,0.2,0.7,0,1c-0.2,0.2-0.6,0.2-1,0
						c-0.3-0.2-0.3-0.7,0-1C134.4,31.5,134.9,31.5,135.1,31.9z"/>
				</g>
				<g>
					<path fill-rule="evenodd" clip-rule="evenodd" fill="#FFFFFF" d="M136.9,30.9c0.1,0.4,0,0.8-0.3,0.9c-0.3,0.1-0.7,0-0.9-0.3
						c-0.2-0.3-0.1-0.8,0.3-1C136.4,30.3,136.8,30.5,136.9,30.9z"/>
				</g>
				<g>
					<path fill-rule="evenodd" clip-rule="evenodd" fill="#FFFFFF" d="M138.9,30.6c0,0.2-0.1,0.4-0.2,0.5c-0.1,0.1-0.2,0.2-0.4,0.2
						c-0.3,0-0.7-0.2-0.7-0.6c-0.1-0.4,0.2-0.8,0.6-0.8c0.2,0,0.4,0,0.6,0.2C138.9,30.2,138.9,30.4,138.9,30.6z"/>
				</g>
				<g>
					<path fill-rule="evenodd" clip-rule="evenodd" fill="#FFFFFF" d="M140.8,31.2c-0.2,0.3-0.6,0.5-0.9,0.3
						c-0.3-0.1-0.5-0.5-0.4-0.9c0.1-0.4,0.5-0.6,0.9-0.4C140.9,30.5,141,30.9,140.8,31.2z"/>
				</g>
				<g>
					<path fill-rule="evenodd" clip-rule="evenodd" fill="#FFFFFF" d="M144,30.7c0.1,0.4-0.1,0.7-0.4,0.9c-0.3,0.1-0.7,0-0.9-0.3
						c-0.2-0.3-0.1-0.8,0.3-1C143.5,30.1,143.9,30.3,144,30.7z"/>
				</g>
				<g>
					<path fill-rule="evenodd" clip-rule="evenodd" fill="#FFFFFF" d="M146,30.7c-0.1,0.4-0.4,0.6-0.7,0.6c-0.2,0-0.3-0.1-0.4-0.2
						c-0.1-0.1-0.2-0.3-0.2-0.5c0-0.2,0-0.4,0.2-0.5c0.1-0.1,0.4-0.2,0.6-0.2C145.8,29.9,146.1,30.3,146,30.7z"/>
				</g>
				<g>
					<path fill-rule="evenodd" clip-rule="evenodd" fill="#FFFFFF" d="M147.9,31.4c-0.2,0.3-0.6,0.5-0.9,0.3
						c-0.3-0.1-0.4-0.5-0.3-0.9c0.1-0.4,0.5-0.6,0.9-0.4C148,30.7,148.1,31.1,147.9,31.4z"/>
				</g>
				<g>
					<path fill-rule="evenodd" clip-rule="evenodd" fill="#FFFFFF" d="M149.4,32.8c-0.3,0.2-0.7,0.2-1,0c-0.2-0.2-0.2-0.6,0-1
						c0.2-0.3,0.7-0.4,1-0.1C149.8,32.1,149.7,32.6,149.4,32.8z"/>
				</g>
				<g>
					<path fill-rule="evenodd" clip-rule="evenodd" fill="#FFFFFF" d="M152.7,33.1c0.1,0.4-0.2,0.8-0.5,0.8
						c-0.4,0.1-0.7-0.1-0.8-0.5c-0.1-0.4,0.1-0.8,0.5-0.9C152.2,32.4,152.6,32.7,152.7,33.1z"/>
				</g>
				<g>
					<path fill-rule="evenodd" clip-rule="evenodd" fill="#FFFFFF" d="M154.8,32.8c0,0.4-0.3,0.7-0.6,0.8c-0.4,0-0.7-0.2-0.8-0.6
						c-0.1-0.4,0.2-0.8,0.6-0.8C154.4,32.1,154.7,32.4,154.8,32.8z"/>
				</g>
				<g>
					<path fill-rule="evenodd" clip-rule="evenodd" fill="#FFFFFF" d="M156.9,32.8c0,0.4-0.3,0.7-0.7,0.7c-0.4,0-0.7-0.3-0.7-0.7
						c0-0.4,0.3-0.7,0.7-0.7C156.6,32.1,156.9,32.4,156.9,32.8z"/>
				</g>
				<g>
					<path fill-rule="evenodd" clip-rule="evenodd" fill="#FFFFFF" d="M159,33c-0.1,0.4-0.4,0.6-0.8,0.6c-0.4-0.1-0.6-0.4-0.6-0.8
						c0-0.4,0.4-0.7,0.8-0.6C158.8,32.3,159.1,32.7,159,33z"/>
				</g>
				<g>
					<path fill-rule="evenodd" clip-rule="evenodd" fill="#FFFFFF" d="M161,33.6c-0.2,0.4-0.5,0.5-0.9,0.4c-0.3-0.1-0.6-0.5-0.5-0.9
						c0.1-0.4,0.5-0.6,0.9-0.5C161,32.9,161.2,33.3,161,33.6z"/>
				</g>
				<g>
					<path fill-rule="evenodd" clip-rule="evenodd" fill="#FFFFFF" d="M162.8,34.8c-0.3,0.3-0.7,0.3-1,0.1c-0.3-0.2-0.3-0.6-0.2-1
						c0.2-0.3,0.7-0.4,1-0.2C163,34.1,163.1,34.5,162.8,34.8z"/>
				</g>
				<g>
					<path fill-rule="evenodd" clip-rule="evenodd" fill="#FFFFFF" d="M164.3,36.4c-0.3,0.3-0.7,0.2-1-0.1c-0.3-0.3-0.2-0.7,0-1
						c0.3-0.3,0.7-0.3,1,0.1C164.6,35.7,164.6,36.1,164.3,36.4z"/>
				</g>
				<g>
					<path fill-rule="evenodd" clip-rule="evenodd" fill="#FFFFFF" d="M165.7,38c-0.3,0.3-0.7,0.2-1-0.1c-0.3-0.3-0.2-0.7,0.1-1
						c0.3-0.3,0.7-0.2,1,0.1C166,37.3,165.9,37.7,165.7,38z"/>
				</g>
				<g>
					<path fill-rule="evenodd" clip-rule="evenodd" fill="#FFFFFF" d="M167.2,39.4c-0.2,0.3-0.7,0.4-1,0.1c-0.3-0.3-0.3-0.7,0-1
						c0.3-0.3,0.7-0.3,1,0C167.4,38.7,167.4,39.1,167.2,39.4z"/>
				</g>
				<g>
					<path fill-rule="evenodd" clip-rule="evenodd" fill="#FFFFFF" d="M169,40.5c-0.2,0.3-0.6,0.5-1,0.3c-0.4-0.2-0.5-0.7-0.2-1
						c0.2-0.3,0.6-0.4,1-0.2C169.1,39.8,169.2,40.2,169,40.5z"/>
				</g>
				<g>
					<path fill-rule="evenodd" clip-rule="evenodd" fill="#FFFFFF" d="M170.9,41.4c-0.1,0.4-0.6,0.5-0.9,0.4
						c-0.4-0.1-0.5-0.6-0.4-0.9c0.2-0.4,0.6-0.5,0.9-0.3C170.9,40.7,171.1,41.1,170.9,41.4z"/>
				</g>
				<g>
					<path fill-rule="evenodd" clip-rule="evenodd" fill="#FFFFFF" d="M172.9,42.2c-0.1,0.4-0.5,0.6-0.9,0.4
						c-0.4-0.1-0.6-0.5-0.4-0.9c0.1-0.4,0.5-0.6,0.9-0.4C172.9,41.4,173.1,41.8,172.9,42.2z"/>
				</g>
				<g>
					<path fill-rule="evenodd" clip-rule="evenodd" fill="#FFFFFF" d="M175,42.8c-0.1,0.4-0.5,0.6-0.9,0.5c-0.4-0.1-0.6-0.5-0.5-0.9
						c0.1-0.4,0.5-0.6,0.9-0.5C174.9,42.1,175.1,42.5,175,42.8z"/>
				</g>
				<g>
					<path fill-rule="evenodd" clip-rule="evenodd" fill="#FFFFFF" d="M177,43.4c-0.1,0.4-0.5,0.6-0.9,0.5c-0.4-0.1-0.6-0.5-0.5-0.9
						c0.1-0.4,0.5-0.6,0.9-0.5C176.9,42.6,177.1,43,177,43.4z"/>
				</g>
				<g>
					<path fill-rule="evenodd" clip-rule="evenodd" fill="#FFFFFF" d="M179.1,43.8c-0.1,0.4-0.5,0.6-0.8,0.5
						c-0.4-0.1-0.6-0.5-0.5-0.8c0.1-0.4,0.5-0.6,0.8-0.5C178.9,43.1,179.2,43.5,179.1,43.8z"/>
				</g>
				<g>
					<path fill-rule="evenodd" clip-rule="evenodd" fill="#FFFFFF" d="M181.2,44.3c-0.1,0.4-0.4,0.6-0.8,0.6
						c-0.4-0.1-0.6-0.5-0.6-0.8c0.1-0.4,0.4-0.6,0.8-0.5C181,43.5,181.2,43.9,181.2,44.3z"/>
				</g>
				<g>
					<path fill-rule="evenodd" clip-rule="evenodd" fill="#FFFFFF" d="M183.3,44.6c-0.1,0.4-0.4,0.6-0.8,0.6
						c-0.4-0.1-0.6-0.4-0.6-0.8c0.1-0.4,0.4-0.6,0.8-0.6C183.1,43.9,183.3,44.2,183.3,44.6z"/>
				</g>
				<g>
					<path fill-rule="evenodd" clip-rule="evenodd" fill="#FFFFFF" d="M185.4,44.9c-0.1,0.4-0.4,0.7-0.8,0.6
						c-0.4-0.1-0.7-0.4-0.6-0.8c0.1-0.4,0.4-0.7,0.8-0.6C185.2,44.2,185.4,44.6,185.4,44.9z"/>
				</g>
				<g>
					<path fill-rule="evenodd" clip-rule="evenodd" fill="#FFFFFF" d="M187.5,45.2c0,0.4-0.4,0.7-0.8,0.6c-0.4,0-0.7-0.4-0.6-0.8
						c0.1-0.4,0.4-0.7,0.8-0.6C187.3,44.5,187.5,44.8,187.5,45.2z"/>
				</g>
				<g>
					<path fill-rule="evenodd" clip-rule="evenodd" fill="#FFFFFF" d="M189.6,45.5c0,0.4-0.4,0.7-0.8,0.6c-0.4,0-0.7-0.4-0.6-0.8
						c0-0.4,0.4-0.7,0.8-0.6C189.4,44.7,189.6,45.1,189.6,45.5z"/>
				</g>
				<g>
					<circle fill-rule="evenodd" clip-rule="evenodd" fill="#FFFFFF" cx="191" cy="45.6" r="0.7"/>
				</g>
				<g>
					<path fill-rule="evenodd" clip-rule="evenodd" fill="#FFFFFF" d="M193.8,45.9c0,0.4-0.4,0.7-0.8,0.6c-0.4,0-0.7-0.4-0.6-0.8
						c0-0.4,0.4-0.7,0.8-0.6C193.6,45.1,193.9,45.5,193.8,45.9z"/>
				</g>
				<g>
					<path fill-rule="evenodd" clip-rule="evenodd" fill="#FFFFFF" d="M195.9,46c0,0.4-0.4,0.7-0.8,0.6c-0.4,0-0.7-0.4-0.7-0.8
						c0-0.4,0.4-0.7,0.8-0.6C195.7,45.3,196,45.6,195.9,46z"/>
				</g>
				<g>
					<circle fill-rule="evenodd" clip-rule="evenodd" fill="#FFFFFF" cx="197.4" cy="46.1" r="0.7"/>
				</g>
				<g>
					<path fill-rule="evenodd" clip-rule="evenodd" fill="#FFFFFF" d="M200.2,46.3c0,0.4-0.4,0.7-0.7,0.7c-0.4,0-0.7-0.4-0.7-0.8
						c0-0.4,0.4-0.7,0.7-0.7C199.9,45.6,200.2,45.9,200.2,46.3z"/>
				</g>
				<g>
					<circle fill-rule="evenodd" clip-rule="evenodd" fill="#FFFFFF" cx="201.6" cy="46.3" r="0.7"/>
				</g>
				<g>
					<path fill-rule="evenodd" clip-rule="evenodd" fill="#FFFFFF" d="M204.4,46.5c0,0.4-0.3,0.7-0.7,0.7c-0.4,0-0.7-0.3-0.7-0.7
						c0-0.4,0.3-0.7,0.7-0.7C204.2,45.7,204.5,46.1,204.4,46.5z"/>
				</g>
				<g>
					<circle fill-rule="evenodd" clip-rule="evenodd" fill="#FFFFFF" cx="205.9" cy="46.5" r="0.7"/>
				</g>
				<g>
					<path fill-rule="evenodd" clip-rule="evenodd" fill="#FFFFFF" d="M208.7,46.6c0,0.4-0.3,0.7-0.7,0.7c-0.4,0-0.7-0.3-0.7-0.7
						c0-0.4,0.3-0.7,0.7-0.7C208.4,45.9,208.7,46.2,208.7,46.6z"/>
				</g>
				<g>
					<circle fill-rule="evenodd" clip-rule="evenodd" fill="#FFFFFF" cx="210.1" cy="46.6" r="0.7"/>
				</g>
				<g>
					<circle fill-rule="evenodd" clip-rule="evenodd" fill="#FFFFFF" cx="212.2" cy="46.6" r="0.7"/>
				</g>
				<g>
					<circle fill-rule="evenodd" clip-rule="evenodd" fill="#FFFFFF" cx="214.4" cy="46.6" r="0.7"/>
				</g>
				<g>
					<circle fill-rule="evenodd" clip-rule="evenodd" fill="#FFFFFF" cx="216.5" cy="46.7" r="0.7"/>
				</g>
				<g>
					<circle fill-rule="evenodd" clip-rule="evenodd" fill="#FFFFFF" cx="218.6" cy="46.6" r="0.7"/>
				</g>
				<g>
					<circle fill-rule="evenodd" clip-rule="evenodd" fill="#FFFFFF" cx="220.8" cy="46.6" r="0.7"/>
				</g>
				<g>
					<circle fill-rule="evenodd" clip-rule="evenodd" fill="#FFFFFF" cx="222.9" cy="46.6" r="0.7"/>
				</g>
				<g>
					<circle fill-rule="evenodd" clip-rule="evenodd" fill="#FFFFFF" cx="225" cy="46.5" r="0.7"/>
				</g>
				<g>
					<circle fill-rule="evenodd" clip-rule="evenodd" fill="#FFFFFF" cx="227.1" cy="46.5" r="0.7"/>
				</g>
				<g>
					<circle fill-rule="evenodd" clip-rule="evenodd" fill="#FFFFFF" cx="229.3" cy="46.4" r="0.7"/>
				</g>
				<g>
					<circle fill-rule="evenodd" clip-rule="evenodd" fill="#FFFFFF" cx="231.4" cy="46.4" r="0.7"/>
				</g>
				<g>
					<circle fill-rule="evenodd" clip-rule="evenodd" fill="#FFFFFF" cx="233.5" cy="46.3" r="0.7"/>
				</g>
				<g>
					<circle fill-rule="evenodd" clip-rule="evenodd" fill="#FFFFFF" cx="235.6" cy="46.2" r="0.7"/>
				</g>
				<g>
					<circle fill-rule="evenodd" clip-rule="evenodd" fill="#FFFFFF" cx="237.8" cy="46.1" r="0.7"/>
				</g>
				<g>
					<circle fill-rule="evenodd" clip-rule="evenodd" fill="#FFFFFF" cx="239.9" cy="46" r="0.7"/>
				</g>
				<g>
					<circle fill-rule="evenodd" clip-rule="evenodd" fill="#FFFFFF" cx="242" cy="45.9" r="0.7"/>
				</g>
				<g>
					<circle fill-rule="evenodd" clip-rule="evenodd" fill="#FFFFFF" cx="244.1" cy="45.7" r="0.7"/>
				</g>
				<g>
					<circle fill-rule="evenodd" clip-rule="evenodd" fill="#FFFFFF" cx="246.3" cy="45.6" r="0.7"/>
				</g>
				<g>
					<circle fill-rule="evenodd" clip-rule="evenodd" fill="#FFFFFF" cx="248.4" cy="45.5" r="0.7"/>
				</g>
			</g>
		</g>
	</g>
	<polygon fill-rule="evenodd" clip-rule="evenodd" fill="#FFFFFF" points="158.2,37 158.6,38.2 159.9,38.2 158.9,38.9 159.2,40.1 
		158.2,39.4 157.2,40.1 157.6,38.9 156.6,38.2 157.9,38.2 	"/>
	<polygon fill-rule="evenodd" clip-rule="evenodd" fill="#FFFFFF" points="127.2,38.2 127.6,39.3 128.8,39.3 127.8,40 128.2,41.2 
		127.2,40.5 126.2,41.2 126.6,40 125.6,39.3 126.8,39.3 	"/>
	<g>
		<path fill-rule="evenodd" clip-rule="evenodd" fill="#FFFFFF" d="M141.8,37.6c0.1-0.2,0.3-0.8,0.5-1.1c0.3-0.3-0.1-0.7-0.1-0.7
			s0.3-0.3,0-0.5c-0.2-0.2-0.4-0.5-0.5-0.6c-0.1,0.1-0.3,0.3-0.5,0.6c-0.2,0.3,0,0.5,0,0.5s-0.4,0.4-0.1,0.7
			C141.5,36.8,141.7,37.4,141.8,37.6z"/>
		<path fill-rule="evenodd" clip-rule="evenodd" fill="#FFFFFF" d="M141.8,39.2c0,0-0.3,0.5-0.8,0c-0.2-0.2-0.3-0.5-0.5-0.8
			c-0.2-0.4-0.5-0.8-1.1-0.9c-0.4-0.1-0.6,0-0.8,0.1c-0.3,0.2-0.5,0.5-0.7,0.9c-0.3,0.6-0.7,0.2-0.6-0.1c0,0-0.3,0.6,0.1,0.9
			c0,0,0.4,0.4,0.7,0c0.3-0.3,0.1-0.6,0.1-0.6s0.2-1.1,1-0.9c0.8,0.1,1,0.6,1.2,1C140.8,39.4,141.4,39.9,141.8,39.2z"/>
		<path fill-rule="evenodd" clip-rule="evenodd" fill="#FFFFFF" d="M141.8,40.7c0,0-0.5,0-1.1-0.7c-0.4-0.5-0.9-0.6-1.1-0.6
			c-0.4,0.1-0.6,0.6-1.2,0.5c-0.5-0.1-1.1-0.3-1.3-1c-0.3-1.1-2.2-0.9-2.4,0c-0.2,0.9-0.7,0.4-0.7,0.4s1,0.5,1.2-0.1
			c0,0,0.3,0.2,0.5-0.3c0.1-0.5,0.2-0.6,0.7-0.5c0.4,0.1,0.6,0.5,0.8,1c0.3,0.5,1.5,1.1,2.1,0.5c0.6-0.6,1.2-0.3,1.5,0.2
			C141,40.8,141.8,40.7,141.8,40.7z"/>
		<path fill-rule="evenodd" clip-rule="evenodd" fill="#FFFFFF" d="M141,38.3c0,0,0.2-0.7-0.8-0.8c-1.1-0.2-0.8-0.7-0.8-0.7
			s0.2,0.5,0.6,0.2c0.4-0.3,1.1,0.1,1.1,0.4S141,38.3,141,38.3z"/>
		<path fill-rule="evenodd" clip-rule="evenodd" fill="#FFFFFF" d="M142.6,38.3c0,0-0.2-0.7,0.8-0.8c1.1-0.2,0.8-0.7,0.8-0.7
			s-0.2,0.5-0.6,0.2c-0.4-0.3-1.1,0.1-1.1,0.4S142.6,38.3,142.6,38.3z"/>
		<path fill-rule="evenodd" clip-rule="evenodd" fill="#FFFFFF" d="M141.8,39.2c0,0,0.3,0.5,0.8,0c0.2-0.2,0.3-0.5,0.5-0.8
			c0.2-0.4,0.5-0.8,1.1-0.9c0.4-0.1,0.6,0,0.8,0.1c0.3,0.2,0.5,0.5,0.7,0.9c0.3,0.6,0.7,0.2,0.6-0.1c0,0,0.3,0.6-0.1,0.9
			c0,0-0.4,0.4-0.7,0c-0.3-0.3-0.1-0.6-0.1-0.6s-0.2-1.1-1-0.9c-0.8,0.1-1,0.6-1.2,1C142.8,39.4,142.2,39.9,141.8,39.2z"/>
		<path fill-rule="evenodd" clip-rule="evenodd" fill="#FFFFFF" d="M141.8,40.7c0,0,0.5,0,1.1-0.7c0.4-0.5,0.9-0.6,1.1-0.6
			c0.4,0.1,0.6,0.6,1.2,0.5c0.5-0.1,1.1-0.3,1.3-1c0.3-1.1,2.2-0.9,2.4,0c0.2,0.9,0.7,0.4,0.7,0.4s-1,0.5-1.2-0.1
			c0,0-0.3,0.2-0.5-0.3c-0.1-0.5-0.2-0.6-0.7-0.5c-0.4,0.1-0.6,0.5-0.8,1c-0.3,0.5-1.5,1.1-2.1,0.5c-0.6-0.6-1.2-0.3-1.5,0.2
			C142.6,40.8,141.8,40.7,141.8,40.7z"/>
		<circle fill-rule="evenodd" clip-rule="evenodd" fill="#FFFFFF" cx="141.8" cy="39.1" r="0.3"/>
		<circle fill-rule="evenodd" clip-rule="evenodd" fill="#FFFFFF" cx="141.8" cy="40.5" r="0.3"/>
		<path fill-rule="evenodd" clip-rule="evenodd" fill="#FFFFFF" d="M141.8,37.2l-0.3,0.9c0,0,0,0.2,0.1,0.3c0,0-0.3,0.3-0.3,0.5
			c0,0.2,0.3,0.2,0.3,0.2s0.2,0.3,0,0.6c-0.2,0.3,0.2,0.8,0.2,0.8c0,0,0.4-0.5,0.2-0.8c-0.2-0.3,0-0.6,0-0.6s0.3,0,0.3-0.2
			c0-0.2-0.3-0.5-0.3-0.5c0.1-0.1,0.1-0.3,0.1-0.3L141.8,37.2z"/>
		<path fill-rule="evenodd" clip-rule="evenodd" fill="#FFFFFF" d="M141.7,40.5c0,0-0.3,0.6-1.2,0.1c-0.9-0.6-1.1,0-1.1,0
			s0.5-0.2,0.6,0.3c0.1,0.5,0.9,0.7,1.1,0.4C141.4,41,141.7,40.5,141.7,40.5z"/>
		<path fill-rule="evenodd" clip-rule="evenodd" fill="#FFFFFF" d="M141.8,40.5c0,0,0.3,0.6,1.2,0.1c0.9-0.6,1.1,0,1.1,0
			s-0.5-0.2-0.6,0.3c-0.1,0.5-0.9,0.7-1.1,0.4C142.1,41,141.8,40.5,141.8,40.5z"/>
	</g>
	<g>
		<g>
			<g>
				<g>
					<path fill-rule="evenodd" clip-rule="evenodd" fill="#FFFFFF" d="M159.4,63.1c-0.4-0.1-0.7-0.5-0.7-0.9c0-0.4,0.4-0.7,0.9-0.7
						c0.4,0,0.8,0.4,0.7,0.9C160.2,62.9,159.8,63.2,159.4,63.1z"/>
				</g>
				<g>
					<path fill-rule="evenodd" clip-rule="evenodd" fill="#FFFFFF" d="M158.7,65.4c-0.4-0.2-0.6-0.6-0.5-1c0.1-0.4,0.6-0.6,1-0.5
						c0.4,0.1,0.7,0.6,0.5,1C159.6,65.4,159.2,65.6,158.7,65.4z"/>
				</g>
				<g>
					<path fill-rule="evenodd" clip-rule="evenodd" fill="#FFFFFF" d="M157.7,67.6c-0.4-0.2-0.5-0.7-0.3-1.1
						c0.2-0.4,0.6-0.5,1.1-0.4c0.4,0.2,0.6,0.7,0.4,1.1C158.6,67.7,158.1,67.8,157.7,67.6z"/>
				</g>
				<g>
					<path fill-rule="evenodd" clip-rule="evenodd" fill="#FFFFFF" d="M156.3,69.5c-0.3-0.3-0.4-0.8-0.1-1.1
						c0.2-0.3,0.7-0.4,1.1-0.2c0.4,0.2,0.5,0.8,0.2,1.1C157.2,69.8,156.6,69.8,156.3,69.5z"/>
				</g>
				<g>
					<path fill-rule="evenodd" clip-rule="evenodd" fill="#FFFFFF" d="M154.6,71.2c-0.3-0.3-0.3-0.8,0-1.1c0.3-0.3,0.8-0.3,1.1,0
						c0.3,0.3,0.4,0.8,0,1.1C155.4,71.6,154.9,71.6,154.6,71.2z"/>
				</g>
				<g>
					<path fill-rule="evenodd" clip-rule="evenodd" fill="#FFFFFF" d="M152.7,72.7c-0.2-0.4-0.1-0.8,0.2-1.1
						c0.3-0.3,0.8-0.2,1.1,0.2c0.3,0.3,0.2,0.9-0.2,1.1C153.5,73.2,153,73.1,152.7,72.7z"/>
				</g>
				<g>
					<path fill-rule="evenodd" clip-rule="evenodd" fill="#FFFFFF" d="M150.7,73.9c-0.2-0.4,0-0.9,0.3-1.1c0.4-0.2,0.9-0.1,1.1,0.3
						c0.2,0.4,0.1,0.9-0.3,1.1C151.3,74.4,150.8,74.3,150.7,73.9z"/>
				</g>
				<g>
					<path fill-rule="evenodd" clip-rule="evenodd" fill="#FFFFFF" d="M148.4,74.8c-0.1-0.4,0.1-0.8,0.5-1c0.4-0.2,0.8,0,1,0.4
						c0.2,0.4,0,0.9-0.4,1.1C149.1,75.5,148.6,75.2,148.4,74.8z"/>
				</g>
				<g>
					<path fill-rule="evenodd" clip-rule="evenodd" fill="#FFFFFF" d="M146.1,75.4c-0.1-0.4,0.2-0.9,0.6-1c0.4-0.1,0.8,0.1,1,0.6
						c0.1,0.4-0.1,0.9-0.6,1C146.6,76.1,146.2,75.9,146.1,75.4z"/>
				</g>
				<g>
					<path fill-rule="evenodd" clip-rule="evenodd" fill="#FFFFFF" d="M143.8,75.8c0-0.4,0.3-0.8,0.7-0.9c0.4-0.1,0.8,0.3,0.9,0.7
						c0.1,0.4-0.2,0.8-0.7,0.9C144.2,76.5,143.8,76.2,143.8,75.8z"/>
				</g>
				<g>
					<path fill-rule="evenodd" clip-rule="evenodd" fill="#FFFFFF" d="M141.4,75.8c0-0.5,0.4-0.8,0.8-0.8c0.4,0,0.8,0.3,0.8,0.8
						c0,0.4-0.3,0.8-0.8,0.8C141.7,76.7,141.3,76.3,141.4,75.8z"/>
				</g>
				<g>
					<path fill-rule="evenodd" clip-rule="evenodd" fill="#FFFFFF" d="M139,75.6c0.1-0.4,0.5-0.8,0.9-0.7c0.4,0.1,0.7,0.4,0.7,0.9
						c0,0.4-0.4,0.8-0.9,0.7C139.2,76.5,138.9,76.1,139,75.6z"/>
				</g>
				<g>
					<path fill-rule="evenodd" clip-rule="evenodd" fill="#FFFFFF" d="M136.6,75.2c0.1-0.4,0.5-0.7,1-0.6c0.4,0.1,0.7,0.5,0.6,1
						c-0.1,0.4-0.5,0.7-1,0.6C136.8,76,136.5,75.6,136.6,75.2z"/>
				</g>
				<g>
					<path fill-rule="evenodd" clip-rule="evenodd" fill="#FFFFFF" d="M134.4,74.4c0.2-0.4,0.6-0.6,1-0.5c0.4,0.1,0.6,0.6,0.5,1
						s-0.6,0.7-1,0.5C134.4,75.3,134.2,74.8,134.4,74.4z"/>
				</g>
				<g>
					<path fill-rule="evenodd" clip-rule="evenodd" fill="#FFFFFF" d="M132.2,73.3c0.2-0.4,0.7-0.5,1.1-0.3c0.4,0.2,0.5,0.7,0.3,1.1
						c-0.2,0.4-0.7,0.6-1.1,0.4C132.1,74.2,132,73.7,132.2,73.3z"/>
				</g>
				<g>
					<path fill-rule="evenodd" clip-rule="evenodd" fill="#FFFFFF" d="M130.2,72c0.3-0.4,0.8-0.4,1.1-0.2c0.4,0.2,0.4,0.7,0.2,1.1
						c-0.2,0.4-0.7,0.5-1.1,0.2C130,72.9,129.9,72.3,130.2,72z"/>
				</g>
				<g>
					<path fill-rule="evenodd" clip-rule="evenodd" fill="#FFFFFF" d="M128.4,70.4c0.3-0.3,0.8-0.3,1.1,0c0.3,0.3,0.3,0.8,0,1.1
						c-0.3,0.3-0.8,0.4-1.1,0C128.1,71.2,128.1,70.7,128.4,70.4z"/>
				</g>
				<g>
					<path fill-rule="evenodd" clip-rule="evenodd" fill="#FFFFFF" d="M126.9,68.6c0.4-0.3,0.9-0.2,1.1,0.2c0.3,0.3,0.2,0.8-0.1,1.1
						c-0.3,0.3-0.8,0.3-1.2-0.1C126.4,69.3,126.5,68.8,126.9,68.6z"/>
				</g>
				<g>
					<path fill-rule="evenodd" clip-rule="evenodd" fill="#FFFFFF" d="M125.6,66.5c0.4-0.2,0.9,0,1.1,0.3c0.2,0.4,0.1,0.8-0.3,1.1
						c-0.4,0.2-0.9,0.1-1.1-0.3C125.1,67.2,125.2,66.7,125.6,66.5z"/>
				</g>
				<g>
					<path fill-rule="evenodd" clip-rule="evenodd" fill="#FFFFFF" d="M124.8,64.3c0.4-0.1,0.9,0.1,1,0.5c0.1,0.4,0,0.8-0.5,1
						c-0.4,0.2-0.9,0-1.1-0.5C124.1,64.9,124.4,64.4,124.8,64.3z"/>
				</g>
				<g>
					<path fill-rule="evenodd" clip-rule="evenodd" fill="#FFFFFF" d="M124.4,61.9c0.4,0,0.8,0.3,0.9,0.7c0.1,0.4-0.2,0.8-0.7,0.9
						c-0.4,0.1-0.9-0.2-0.9-0.7C123.6,62.4,123.9,62,124.4,61.9z"/>
				</g>
				<g>
					<path fill-rule="evenodd" clip-rule="evenodd" fill="#FFFFFF" d="M124.4,59.5c0.4,0,0.8,0.4,0.8,0.8c0,0.4-0.4,0.8-0.8,0.8
						c-0.4,0-0.8-0.4-0.8-0.8C123.6,59.8,123.9,59.5,124.4,59.5z"/>
				</g>
				<g>
					<path fill-rule="evenodd" clip-rule="evenodd" fill="#FFFFFF" d="M124.8,57.2c0.4,0.1,0.6,0.5,0.6,0.9
						c-0.1,0.4-0.5,0.7-0.9,0.6c-0.4-0.1-0.7-0.5-0.6-1C123.9,57.3,124.4,57.1,124.8,57.2z"/>
				</g>
				<g>
					<path fill-rule="evenodd" clip-rule="evenodd" fill="#FFFFFF" d="M125.6,54.9c0.4,0.2,0.6,0.7,0.4,1c-0.2,0.4-0.6,0.6-1,0.4
						c-0.4-0.1-0.6-0.6-0.5-1.1C124.8,54.9,125.3,54.7,125.6,54.9z"/>
				</g>
				<g>
					<path fill-rule="evenodd" clip-rule="evenodd" fill="#FFFFFF" d="M126.9,52.9c0.4,0.3,0.5,0.7,0.2,1.1
						c-0.2,0.4-0.7,0.5-1.1,0.3c-0.4-0.2-0.5-0.7-0.3-1.1C126,52.7,126.5,52.6,126.9,52.9z"/>
				</g>
				<g>
					<path fill-rule="evenodd" clip-rule="evenodd" fill="#FFFFFF" d="M128.4,51c0.3,0.3,0.3,0.8,0.1,1.1c-0.3,0.3-0.8,0.3-1.1,0.1
						c-0.4-0.3-0.4-0.8-0.1-1.1C127.6,50.7,128.1,50.7,128.4,51z"/>
				</g>
				<g>
					<path fill-rule="evenodd" clip-rule="evenodd" fill="#FFFFFF" d="M130.2,49.4c0.3,0.4,0.2,0.9-0.1,1.1
						c-0.3,0.3-0.8,0.3-1.1-0.1c-0.3-0.3-0.3-0.9,0.1-1.2C129.4,49,129.9,49.1,130.2,49.4z"/>
				</g>
				<g>
					<path fill-rule="evenodd" clip-rule="evenodd" fill="#FFFFFF" d="M132.2,48.1c0.2,0.4,0.1,0.9-0.2,1.1
						c-0.4,0.2-0.8,0.1-1.1-0.2c-0.3-0.4-0.1-0.9,0.2-1.1C131.5,47.6,132,47.7,132.2,48.1z"/>
				</g>
				<g>
					<path fill-rule="evenodd" clip-rule="evenodd" fill="#FFFFFF" d="M134.4,47.1c0.2,0.4,0,0.9-0.4,1c-0.4,0.2-0.8,0-1-0.4
						c-0.2-0.4,0-0.9,0.4-1.1C133.7,46.5,134.2,46.7,134.4,47.1z"/>
				</g>
				<g>
					<path fill-rule="evenodd" clip-rule="evenodd" fill="#FFFFFF" d="M136.6,46.3c0.1,0.4-0.1,0.9-0.5,1c-0.4,0.1-0.9-0.1-1-0.5
						c-0.2-0.4,0.1-0.9,0.5-1C136.1,45.6,136.5,45.9,136.6,46.3z"/>
				</g>
				<g>
					<path fill-rule="evenodd" clip-rule="evenodd" fill="#FFFFFF" d="M139,45.8c0.1,0.4-0.2,0.8-0.6,0.9c-0.4,0.1-0.8-0.2-0.9-0.6
						c-0.1-0.4,0.2-0.9,0.6-1C138.5,45,138.9,45.4,139,45.8z"/>
				</g>
				<g>
					<path fill-rule="evenodd" clip-rule="evenodd" fill="#FFFFFF" d="M141.4,45.6c0,0.4-0.3,0.8-0.7,0.8c-0.4,0-0.8-0.3-0.9-0.7
						c0-0.4,0.3-0.9,0.7-0.9C141,44.8,141.3,45.2,141.4,45.6z"/>
				</g>
				<g>
					<path fill-rule="evenodd" clip-rule="evenodd" fill="#FFFFFF" d="M143.8,45.7c0,0.4-0.4,0.8-0.8,0.8c-0.4,0-0.8-0.4-0.8-0.8
						c0-0.4,0.4-0.8,0.8-0.8C143.5,44.8,143.8,45.2,143.8,45.7z"/>
				</g>
				<g>
					<path fill-rule="evenodd" clip-rule="evenodd" fill="#FFFFFF" d="M146.1,46c-0.1,0.4-0.5,0.7-0.9,0.6c-0.4-0.1-0.7-0.5-0.7-0.9
						s0.5-0.8,0.9-0.7C145.9,45.1,146.2,45.6,146.1,46z"/>
				</g>
				<g>
					<path fill-rule="evenodd" clip-rule="evenodd" fill="#FFFFFF" d="M148.4,46.6c-0.1,0.4-0.6,0.7-1,0.5c-0.4-0.1-0.6-0.6-0.5-1
						c0.1-0.4,0.6-0.7,1-0.6C148.3,45.8,148.6,46.2,148.4,46.6z"/>
				</g>
				<g>
					<path fill-rule="evenodd" clip-rule="evenodd" fill="#FFFFFF" d="M150.7,47.6c-0.2,0.4-0.7,0.6-1,0.4c-0.4-0.2-0.6-0.6-0.4-1
						c0.2-0.4,0.6-0.6,1.1-0.4C150.7,46.7,150.9,47.2,150.7,47.6z"/>
				</g>
				<g>
					<path fill-rule="evenodd" clip-rule="evenodd" fill="#FFFFFF" d="M152.7,48.8c-0.2,0.4-0.7,0.5-1.1,0.3
						c-0.3-0.2-0.5-0.7-0.3-1.1c0.2-0.4,0.7-0.6,1.1-0.3C152.9,47.9,153,48.4,152.7,48.8z"/>
				</g>
				<g>
					<path fill-rule="evenodd" clip-rule="evenodd" fill="#FFFFFF" d="M154.6,50.2c-0.3,0.3-0.8,0.4-1.1,0.1
						c-0.3-0.3-0.4-0.8-0.1-1.1c0.3-0.4,0.8-0.4,1.1-0.1C154.9,49.3,154.9,49.9,154.6,50.2z"/>
				</g>
				<g>
					<path fill-rule="evenodd" clip-rule="evenodd" fill="#FFFFFF" d="M156.3,51.9c-0.3,0.3-0.8,0.3-1.1-0.1c-0.3-0.3-0.3-0.8,0-1.1
						c0.3-0.3,0.9-0.3,1.2,0C156.7,51.1,156.7,51.6,156.3,51.9z"/>
				</g>
				<g>
					<path fill-rule="evenodd" clip-rule="evenodd" fill="#FFFFFF" d="M157.7,53.9c-0.4,0.2-0.8,0.1-1.1-0.2
						c-0.2-0.3-0.1-0.8,0.2-1.1c0.4-0.3,0.9-0.2,1.1,0.2C158.2,53.1,158.1,53.7,157.7,53.9z"/>
				</g>
				<g>
					<path fill-rule="evenodd" clip-rule="evenodd" fill="#FFFFFF" d="M158.7,56c-0.4,0.2-0.9,0-1-0.4c-0.1-0.4,0-0.8,0.4-1.1
						c0.4-0.2,0.9,0,1.1,0.4C159.3,55.4,159.2,55.9,158.7,56z"/>
				</g>
				<g>
					<path fill-rule="evenodd" clip-rule="evenodd" fill="#FFFFFF" d="M159.4,58.3c-0.4,0.1-0.8-0.2-0.9-0.6c-0.1-0.4,0.1-0.8,0.6-1
						c0.4-0.1,0.9,0.1,1,0.6C160.1,57.8,159.8,58.3,159.4,58.3z"/>
				</g>
				<g>
					<path fill-rule="evenodd" clip-rule="evenodd" fill="#FFFFFF" d="M159.6,60.7c-0.4,0-0.8-0.3-0.9-0.7c0-0.4,0.3-0.8,0.8-0.8
						c0.5-0.1,0.8,0.3,0.9,0.7C160.4,60.4,160.1,60.7,159.6,60.7z"/>
				</g>
			</g>
		</g>
	</g>
	<g>
		<g>
			<g>
				<g>
					<path fill="#FFFFFF" d="M171.1,54.6c0-0.1-0.1-0.3-0.1-0.4c0-0.1,0-0.3,0-0.5c0-0.2,0.1-0.3,0.3-0.4c0.1-0.1,0.3-0.2,0.5-0.3
						c0.3-0.1,0.7-0.1,0.9-0.1c0.1,0,0.3,0,0.4-0.1c0.1-0.1,0.2-0.2,0.2-0.3c0,0.1,0.1,0.3,0,0.5c-0.1,0.2-0.2,0.3-0.4,0.5
						c-0.3,0.2-0.6,0.3-0.8,0.4c-0.1,0-0.2,0-0.3,0c-0.1,0-0.2,0-0.3,0.1c-0.1,0-0.2,0.1-0.3,0.3C171.1,54.3,171.1,54.5,171.1,54.6z
						"/>
				</g>
				<g>
					<g>
						<path fill="#FFFFFF" d="M181.2,58.1c-0.1,0.1-0.3,0.1-0.4,0.2c-0.1,0-0.3,0-0.4,0c-0.3,0-0.5-0.1-0.8-0.1c-0.3,0-0.6,0-0.9,0
							c-0.2,0-0.3,0.1-0.4,0.1c-0.1,0.1-0.3,0.1-0.4,0.2c0.1-0.1,0.3-0.1,0.4-0.1c0.1,0,0.3,0.1,0.4,0.1c0.2,0.1,0.5,0.2,0.7,0.3
							c0.3,0,0.6,0,1-0.1c0.2-0.1,0.3-0.2,0.5-0.3C181,58.3,181.1,58.2,181.2,58.1z"/>
					</g>
					<g>
						<path fill="#FFFFFF" d="M177.8,58.5c0.1,0,0.2,0,0.3,0c0.1,0,0.2,0.1,0.2,0.1c0.1,0.1,0.2,0.2,0.3,0.4
							c0.1,0.1,0.2,0.3,0.4,0.4c0.1,0.1,0.2,0.1,0.3,0.1c0.1,0,0.2,0,0.3,0.1c-0.1,0-0.1-0.1-0.2-0.2c0-0.1,0-0.2-0.1-0.3
							c0-0.1-0.1-0.1-0.1-0.2c0-0.1-0.1-0.1-0.2-0.2c-0.2-0.1-0.4-0.2-0.6-0.3c-0.1,0-0.2,0-0.4,0C178,58.4,177.9,58.5,177.8,58.5z"
							/>
					</g>
				</g>
				<g>
					<g>
						<path fill="#FFFFFF" d="M169.5,55.3c-0.1,0.1-0.3,0.1-0.4,0.2c-0.1,0-0.3,0-0.4,0c-0.3,0-0.5-0.1-0.8-0.1c-0.3,0-0.6,0-0.9,0
							c-0.2,0-0.3,0-0.4,0.1c-0.1,0.1-0.3,0.1-0.4,0.2c0.1-0.1,0.3-0.1,0.4-0.1c0.1,0,0.3,0.1,0.4,0.1c0.2,0.1,0.5,0.2,0.7,0.3
							c0.3,0,0.6,0,1-0.1c0.2-0.1,0.3-0.2,0.5-0.3C169.3,55.5,169.4,55.4,169.5,55.3z"/>
					</g>
					<g>
						<path fill="#FFFFFF" d="M166.2,55.6c0.1,0,0.2,0,0.3,0c0.1,0,0.2,0.1,0.2,0.1c0.1,0.1,0.2,0.2,0.3,0.4
							c0.1,0.1,0.2,0.3,0.4,0.4c0.1,0.1,0.2,0.1,0.3,0.1c0.1,0,0.2,0,0.3,0.1c-0.1,0-0.1-0.1-0.2-0.2c0-0.1,0-0.2-0.1-0.3
							c0-0.1-0.1-0.1-0.1-0.2c0-0.1-0.1-0.1-0.2-0.2c-0.2-0.1-0.4-0.2-0.6-0.3c-0.1,0-0.2,0-0.4,0C166.4,55.6,166.3,55.6,166.2,55.6
							z"/>
					</g>
				</g>
				<g>
					<g>
						<path fill="#FFFFFF" d="M180.3,57.3c0,0-0.1,0.1-0.2,0.1c-0.1,0-0.1,0.1-0.2,0.2c-0.1,0.1-0.2,0.1-0.3,0.2
							c-0.2,0.1-0.5,0.3-0.8,0.4c-0.3,0.1-0.6,0.2-1,0.2c-0.3,0-0.7,0-1-0.1c-0.3-0.1-0.6-0.2-0.8-0.3c-0.2-0.1-0.4-0.2-0.5-0.3
							c-0.1-0.1-0.2-0.1-0.2-0.1s-0.1-0.1-0.4-0.2c-0.2-0.1-0.5-0.3-0.8-0.5c-0.3-0.2-0.5-0.4-0.7-0.5c-0.2-0.2-0.3-0.3-0.3-0.3
							c-0.7-0.5-1.5-1.1-2.3-1.5c-0.4-0.2-0.9-0.3-1.3-0.4c-0.2,0-0.5,0-0.7,0c-0.1,0-0.2,0-0.4,0c-0.1,0-0.1,0-0.2,0
							c-0.1,0-0.1,0-0.2,0c-0.2,0.1-0.4,0.1-0.7,0.2c-0.2,0.1-0.4,0.2-0.6,0.3c-0.4,0.3-0.7,0.6-1,0.9c-0.1,0.1-0.2,0.2-0.2,0.3
							c-0.1,0.1-0.1,0.2-0.2,0.3c-0.1,0.2-0.2,0.4-0.3,0.6c-0.2,0.4-0.2,0.9-0.2,1.4c0,0.5,0.1,0.9,0.3,1.3c0.1,0.2,0.2,0.4,0.3,0.6
							c0.1,0.1,0.2,0.2,0.2,0.2c0.1,0.1,0.2,0.1,0.3,0.2l0,0c-0.1,0-0.2-0.1-0.3-0.2c-0.1-0.1-0.2-0.2-0.2-0.2
							c-0.1-0.2-0.2-0.4-0.3-0.6c-0.2-0.4-0.2-0.9-0.3-1.3c0-0.4,0.1-0.9,0.2-1.3c0.1-0.2,0.2-0.4,0.3-0.6c0.1-0.1,0.1-0.2,0.2-0.2
							c0.1-0.1,0.2-0.2,0.2-0.2c0.3-0.3,0.7-0.6,1-0.8c0.2-0.1,0.4-0.2,0.6-0.3c0.2-0.1,0.4-0.1,0.6-0.2c0.1,0,0.1,0,0.2,0
							c0.1,0,0.1,0,0.2,0c0.1,0,0.2,0,0.3,0c0.2,0,0.4,0,0.6,0.1c0.4,0.1,0.8,0.2,1.2,0.4c0.8,0.4,1.5,0.9,2.3,1.4
							c0,0,0.1,0.1,0.3,0.2c0.2,0.1,0.5,0.3,0.8,0.5c0.3,0.2,0.6,0.4,0.8,0.5c0.2,0.1,0.4,0.2,0.4,0.2s0.1,0,0.2,0.1
							c0.1,0.1,0.3,0.2,0.6,0.3c0.2,0.1,0.5,0.2,0.8,0.3c0.3,0.1,0.7,0.1,1,0.1c0.3,0,0.7-0.1,1-0.2c0.3-0.1,0.6-0.3,0.8-0.4
							c0.1-0.1,0.2-0.1,0.3-0.2c0.1-0.1,0.2-0.1,0.2-0.2C180.2,57.4,180.3,57.3,180.3,57.3L180.3,57.3z"/>
					</g>
					<circle fill="#FFFFFF" cx="166" cy="60.3" r="0.3"/>
					<circle fill="#FFFFFF" cx="174.4" cy="57.2" r="0.4"/>
				</g>
				<circle fill="#FFFFFF" cx="180.3" cy="57.3" r="0.3"/>
			</g>
			<g>
				<g>
					<path fill="#FFFFFF" d="M177.7,53.8c0-0.1-0.1-0.3-0.1-0.4c0-0.1,0-0.3,0-0.5c0-0.2,0.1-0.3,0.3-0.4c0.1-0.1,0.3-0.2,0.5-0.3
						c0.3-0.1,0.7-0.1,0.9-0.1c0.1,0,0.3,0,0.4-0.1c0.1-0.1,0.2-0.2,0.2-0.3c0,0.1,0.1,0.3,0,0.5c-0.1,0.2-0.2,0.3-0.4,0.5
						c-0.3,0.2-0.6,0.3-0.8,0.4c-0.1,0-0.2,0-0.3,0c-0.1,0-0.2,0-0.3,0.1c-0.1,0-0.2,0.1-0.3,0.3C177.7,53.5,177.7,53.7,177.7,53.8z
						"/>
				</g>
				<g>
					<g>
						<path fill="#FFFFFF" d="M187.8,57.3c-0.1,0.1-0.3,0.1-0.4,0.2c-0.1,0-0.3,0-0.4,0c-0.3,0-0.5-0.1-0.8-0.1c-0.3,0-0.6,0-0.9,0
							c-0.2,0-0.3,0-0.4,0.1c-0.1,0.1-0.3,0.1-0.4,0.2c0.1-0.1,0.3-0.1,0.4-0.1c0.1,0,0.3,0.1,0.4,0.1c0.2,0.1,0.5,0.2,0.7,0.3
							c0.3,0,0.6,0,1-0.1c0.2-0.1,0.3-0.2,0.5-0.3C187.6,57.5,187.7,57.4,187.8,57.3z"/>
					</g>
					<g>
						<path fill="#FFFFFF" d="M184.4,57.7c0.1,0,0.2,0,0.3,0c0.1,0,0.2,0.1,0.2,0.1c0.1,0.1,0.2,0.2,0.3,0.4
							c0.1,0.1,0.2,0.3,0.4,0.4c0.1,0.1,0.2,0.1,0.2,0.1c0.1,0,0.2,0,0.3,0.1c-0.1,0-0.1-0.1-0.2-0.2c0-0.1,0-0.2-0.1-0.3
							c0-0.1-0.1-0.1-0.1-0.2c0-0.1-0.1-0.1-0.2-0.2c-0.2-0.1-0.4-0.2-0.6-0.3c-0.1,0-0.2,0-0.4,0C184.6,57.6,184.5,57.6,184.4,57.7
							z"/>
					</g>
				</g>
				<g>
					<g>
						<path fill="#FFFFFF" d="M176.1,54.4c-0.1,0.1-0.3,0.1-0.4,0.2c-0.1,0-0.3,0-0.4,0c-0.3,0-0.5-0.1-0.8-0.1c-0.3,0-0.6,0-0.9,0
							c-0.1,0-0.3,0-0.4,0.1c-0.1,0.1-0.3,0.1-0.4,0.2c0.1-0.1,0.3-0.1,0.4-0.1c0.1,0,0.3,0.1,0.4,0.1c0.2,0.1,0.5,0.2,0.7,0.3
							c0.3,0,0.6,0,1-0.1c0.2-0.1,0.3-0.2,0.5-0.3C175.9,54.6,176,54.5,176.1,54.4z"/>
					</g>
					<g>
						<path fill="#FFFFFF" d="M172.8,54.8c0.1,0,0.2,0,0.3,0c0.1,0,0.2,0.1,0.2,0.1c0.1,0.1,0.2,0.2,0.3,0.4
							c0.1,0.1,0.2,0.3,0.4,0.4c0.1,0.1,0.2,0.1,0.3,0.1c0.1,0,0.2,0,0.3,0.1c-0.1,0-0.1-0.1-0.2-0.2c0-0.1,0-0.2-0.1-0.3
							c0-0.1-0.1-0.1-0.1-0.2c0-0.1-0.1-0.1-0.2-0.2c-0.2-0.1-0.4-0.2-0.6-0.3c-0.1,0-0.2,0-0.4,0C173,54.7,172.9,54.8,172.8,54.8z"
							/>
					</g>
				</g>
				<g>
					<g>
						<path fill="#FFFFFF" d="M186.9,56.5c0,0-0.1,0.1-0.2,0.1c-0.1,0-0.1,0.1-0.2,0.2c-0.1,0.1-0.2,0.1-0.3,0.2
							c-0.2,0.1-0.5,0.3-0.8,0.4c-0.3,0.1-0.6,0.2-1,0.2c-0.3,0-0.7,0-1-0.1c-0.3-0.1-0.6-0.2-0.8-0.3c-0.2-0.1-0.4-0.2-0.5-0.3
							c-0.1-0.1-0.2-0.1-0.2-0.1s-0.1-0.1-0.4-0.2c-0.2-0.1-0.5-0.3-0.8-0.5c-0.3-0.2-0.5-0.4-0.7-0.5c-0.2-0.2-0.3-0.3-0.3-0.3
							c-0.7-0.5-1.5-1.1-2.3-1.5c-0.4-0.2-0.9-0.3-1.3-0.4c-0.2,0-0.5,0-0.7,0c-0.1,0-0.2,0-0.4,0c-0.1,0-0.1,0-0.2,0
							c-0.1,0-0.1,0-0.2,0c-0.2,0.1-0.4,0.1-0.7,0.2c-0.2,0.1-0.4,0.2-0.6,0.3c-0.4,0.3-0.7,0.6-1,0.9c-0.1,0.1-0.2,0.2-0.2,0.3
							c-0.1,0.1-0.1,0.2-0.2,0.3c-0.1,0.2-0.3,0.4-0.3,0.6c-0.2,0.4-0.2,0.9-0.2,1.4c0,0.5,0.1,0.9,0.3,1.3c0.1,0.2,0.2,0.4,0.3,0.6
							c0.1,0.1,0.2,0.2,0.2,0.2c0.1,0.1,0.2,0.1,0.3,0.2l0,0c-0.1,0-0.2-0.1-0.3-0.2c-0.1-0.1-0.2-0.2-0.2-0.2
							c-0.1-0.2-0.2-0.4-0.3-0.6c-0.2-0.4-0.2-0.9-0.3-1.3c0-0.4,0.1-0.9,0.2-1.3c0.1-0.2,0.2-0.4,0.3-0.6c0.1-0.1,0.1-0.2,0.2-0.2
							c0.1-0.1,0.2-0.2,0.2-0.2c0.3-0.3,0.7-0.6,1-0.8c0.2-0.1,0.4-0.2,0.6-0.3c0.2-0.1,0.4-0.1,0.6-0.2c0.1,0,0.1,0,0.2,0
							c0.1,0,0.1,0,0.2,0c0.1,0,0.2,0,0.3,0c0.2,0,0.4,0,0.6,0.1c0.4,0.1,0.8,0.2,1.2,0.4c0.8,0.4,1.5,0.9,2.3,1.4
							c0,0,0.1,0.1,0.3,0.2c0.2,0.1,0.5,0.3,0.8,0.5c0.3,0.2,0.6,0.4,0.8,0.5c0.2,0.1,0.4,0.2,0.4,0.2s0.1,0,0.2,0.1
							c0.1,0.1,0.3,0.2,0.6,0.3c0.2,0.1,0.5,0.2,0.8,0.3c0.3,0.1,0.7,0.1,1,0.1c0.3,0,0.7-0.1,1-0.2c0.3-0.1,0.6-0.3,0.8-0.4
							c0.1-0.1,0.2-0.1,0.3-0.2c0.1-0.1,0.2-0.1,0.2-0.2C186.8,56.5,186.9,56.5,186.9,56.5L186.9,56.5z"/>
					</g>
					<circle fill="#FFFFFF" cx="172.6" cy="59.5" r="0.3"/>
					<circle fill="#FFFFFF" cx="181" cy="56.4" r="0.4"/>
				</g>
				<circle fill="#FFFFFF" cx="186.9" cy="56.5" r="0.3"/>
			</g>
		</g>
		<g>
			<g>
				<g>
					<path fill="#FFFFFF" d="M181.4,60c0,0.1,0.1,0.3,0.1,0.4c0,0.1,0,0.3,0,0.5c0,0.2-0.1,0.3-0.3,0.4c-0.1,0.1-0.3,0.2-0.5,0.3
						c-0.3,0.1-0.7,0.1-1,0.1c-0.1,0-0.3,0-0.4,0.1c-0.1,0.1-0.2,0.2-0.2,0.3c0-0.1-0.1-0.3,0-0.5c0.1-0.2,0.2-0.3,0.4-0.5
						c0.3-0.2,0.6-0.3,0.8-0.4c0.1,0,0.2,0,0.3,0c0.1,0,0.2,0,0.3-0.1c0.1,0,0.2-0.1,0.3-0.3C181.3,60.3,181.4,60.2,181.4,60z"/>
				</g>
				<g>
					<g>
						<path fill="#FFFFFF" d="M171.2,56.5c0.1-0.1,0.3-0.1,0.4-0.2c0.1,0,0.3,0,0.4,0c0.3,0,0.6,0.1,0.8,0.1c0.3,0,0.6,0,0.9,0
							c0.2,0,0.3-0.1,0.4-0.1c0.1-0.1,0.3-0.1,0.4-0.2c-0.1,0.1-0.3,0.1-0.4,0.1c-0.1,0-0.3-0.1-0.4-0.1c-0.2-0.1-0.5-0.2-0.7-0.3
							c-0.3,0-0.6,0-1,0.1c-0.2,0.1-0.3,0.2-0.5,0.3C171.4,56.3,171.3,56.4,171.2,56.5z"/>
					</g>
					<g>
						<path fill="#FFFFFF" d="M174.6,56.2c-0.1,0-0.2,0-0.3,0c-0.1,0-0.2-0.1-0.2-0.1c-0.1-0.1-0.2-0.2-0.3-0.4
							c-0.1-0.1-0.2-0.3-0.4-0.4c-0.1-0.1-0.2-0.1-0.3-0.1c-0.1,0-0.2,0-0.3-0.1c0.1,0,0.1,0.1,0.2,0.2c0,0.1,0,0.2,0.1,0.3
							c0,0.1,0.1,0.1,0.1,0.2c0,0.1,0.1,0.1,0.2,0.2c0.2,0.1,0.4,0.2,0.6,0.3c0.1,0,0.2,0,0.4,0C174.4,56.2,174.5,56.2,174.6,56.2z"
							/>
					</g>
				</g>
				<g>
					<g>
						<path fill="#FFFFFF" d="M182.9,59.4c0.1-0.1,0.3-0.1,0.4-0.2c0.1,0,0.3,0,0.4,0c0.3,0,0.5,0.1,0.8,0.1c0.3,0,0.6,0,0.9,0
							c0.2,0,0.3,0,0.4-0.1c0.1-0.1,0.3-0.1,0.4-0.2c-0.1,0.1-0.3,0.1-0.4,0.1c-0.1,0-0.3-0.1-0.4-0.1c-0.2-0.1-0.5-0.2-0.7-0.3
							c-0.3,0-0.6,0-1,0.1c-0.2,0.1-0.3,0.2-0.5,0.3C183.1,59.2,183,59.3,182.9,59.4z"/>
					</g>
					<g>
						<path fill="#FFFFFF" d="M186.3,59c-0.1,0-0.2,0-0.3,0c-0.1,0-0.2-0.1-0.2-0.1c-0.1-0.1-0.2-0.2-0.3-0.4
							c-0.1-0.1-0.2-0.3-0.4-0.4c-0.1-0.1-0.2-0.1-0.2-0.1c-0.1,0-0.2,0-0.3-0.1c0.1,0,0.1,0.1,0.2,0.2c0,0.1,0,0.2,0.1,0.3
							c0,0.1,0.1,0.1,0.1,0.2c0,0.1,0.1,0.1,0.2,0.2c0.2,0.1,0.4,0.2,0.6,0.3c0.1,0,0.2,0,0.4,0C186.1,59.1,186.2,59,186.3,59z"/>
					</g>
				</g>
				<g>
					<g>
						<path fill="#FFFFFF" d="M172.1,57.3c0,0,0.1-0.1,0.2-0.1c0.1,0,0.1-0.1,0.2-0.2c0.1-0.1,0.2-0.1,0.3-0.2
							c0.2-0.1,0.5-0.3,0.8-0.4c0.3-0.1,0.6-0.2,1-0.2c0.3,0,0.7,0,1,0.1c0.3,0.1,0.6,0.2,0.8,0.3c0.2,0.1,0.4,0.2,0.5,0.3
							c0.1,0.1,0.2,0.1,0.2,0.1s0.1,0.1,0.4,0.2c0.2,0.1,0.5,0.3,0.8,0.5c0.3,0.2,0.5,0.4,0.7,0.5c0.2,0.2,0.3,0.3,0.3,0.3
							c0.7,0.5,1.5,1.1,2.3,1.5c0.4,0.2,0.9,0.3,1.3,0.4c0.2,0,0.5,0,0.7,0c0.1,0,0.2,0,0.4,0c0.1,0,0.1,0,0.2,0c0.1,0,0.1,0,0.2,0
							c0.2-0.1,0.4-0.1,0.7-0.2c0.2-0.1,0.4-0.2,0.6-0.3c0.4-0.3,0.7-0.6,1-0.9c0.1-0.1,0.2-0.2,0.2-0.3c0.1-0.1,0.2-0.2,0.2-0.3
							c0.1-0.2,0.3-0.4,0.3-0.6c0.2-0.4,0.2-0.9,0.2-1.4c0-0.5-0.1-0.9-0.3-1.3c-0.1-0.2-0.2-0.4-0.3-0.6c-0.1-0.1-0.2-0.2-0.2-0.2
							c-0.1-0.1-0.2-0.1-0.3-0.2l0,0c0.1,0,0.2,0.1,0.3,0.2c0.1,0.1,0.2,0.2,0.2,0.2c0.1,0.2,0.2,0.4,0.3,0.6
							c0.2,0.4,0.2,0.9,0.3,1.3c0,0.4-0.1,0.9-0.2,1.3c-0.1,0.2-0.2,0.4-0.3,0.6c-0.1,0.1-0.1,0.2-0.2,0.2c-0.1,0.1-0.2,0.2-0.2,0.2
							c-0.3,0.3-0.7,0.6-1,0.8c-0.2,0.1-0.4,0.2-0.6,0.3c-0.2,0.1-0.4,0.1-0.6,0.2c-0.1,0-0.1,0-0.2,0c-0.1,0-0.1,0-0.2,0
							c-0.1,0-0.2,0-0.3,0c-0.2,0-0.4,0-0.6-0.1c-0.4-0.1-0.8-0.2-1.2-0.4c-0.8-0.4-1.5-0.9-2.3-1.4c0,0-0.1-0.1-0.3-0.2
							c-0.2-0.1-0.5-0.3-0.8-0.5c-0.3-0.2-0.6-0.4-0.8-0.5c-0.2-0.1-0.4-0.2-0.4-0.2s-0.1,0-0.2-0.1c-0.1-0.1-0.3-0.2-0.6-0.3
							c-0.2-0.1-0.5-0.2-0.8-0.3c-0.3-0.1-0.7-0.1-1-0.1c-0.3,0-0.7,0.1-1,0.2c-0.3,0.1-0.6,0.3-0.8,0.4c-0.1,0.1-0.2,0.1-0.3,0.2
							c-0.1,0.1-0.2,0.1-0.2,0.2C172.2,57.3,172.1,57.3,172.1,57.3L172.1,57.3z"/>
					</g>
					<circle fill="#FFFFFF" cx="186.5" cy="54.3" r="0.3"/>
					<circle fill="#FFFFFF" cx="178" cy="57.4" r="0.4"/>
				</g>
				<circle fill="#FFFFFF" cx="172.1" cy="57.3" r="0.3"/>
			</g>
			<g>
				<g>
					<path fill="#FFFFFF" d="M174.8,60.9c0,0.1,0.1,0.3,0.1,0.4c0,0.1,0,0.3,0,0.5c0,0.2-0.1,0.3-0.3,0.4c-0.1,0.1-0.3,0.2-0.5,0.3
						c-0.3,0.1-0.7,0.1-0.9,0.1c-0.1,0-0.3,0-0.4,0.1c-0.1,0.1-0.2,0.2-0.2,0.3c0-0.1-0.1-0.3,0-0.5c0.1-0.2,0.2-0.3,0.4-0.5
						c0.3-0.2,0.6-0.3,0.8-0.4c0.1,0,0.2,0,0.3,0c0.1,0,0.2,0,0.3-0.1c0.1,0,0.2-0.1,0.3-0.3C174.7,61.1,174.8,61,174.8,60.9z"/>
				</g>
				<g>
					<g>
						<path fill="#FFFFFF" d="M164.6,57.4c0.1-0.1,0.3-0.1,0.4-0.2c0.1,0,0.3,0,0.4,0c0.3,0,0.5,0.1,0.8,0.1c0.3,0,0.6,0,0.9,0
							c0.2,0,0.3,0,0.4-0.1c0.1-0.1,0.3-0.1,0.4-0.2c-0.1,0.1-0.3,0.1-0.4,0.1c-0.1,0-0.3-0.1-0.4-0.1c-0.2-0.1-0.5-0.2-0.7-0.3
							c-0.3,0-0.6,0-1,0.1c-0.2,0.1-0.3,0.2-0.5,0.3C164.8,57.1,164.7,57.3,164.6,57.4z"/>
					</g>
					<g>
						<path fill="#FFFFFF" d="M168,57c-0.1,0-0.2,0-0.3,0c-0.1,0-0.2-0.1-0.2-0.1c-0.1-0.1-0.2-0.2-0.3-0.4
							c-0.1-0.1-0.2-0.3-0.4-0.4c-0.1-0.1-0.2-0.1-0.3-0.1c-0.1,0-0.2,0-0.3-0.1c0.1,0,0.1,0.1,0.2,0.2c0,0.1,0,0.2,0.1,0.3
							c0,0.1,0.1,0.1,0.1,0.2c0,0.1,0.1,0.1,0.2,0.2c0.2,0.1,0.4,0.2,0.6,0.3c0.1,0,0.2,0,0.4,0C167.8,57,167.9,57,168,57z"/>
					</g>
				</g>
				<g>
					<g>
						<path fill="#FFFFFF" d="M176.3,60.2c0.1-0.1,0.3-0.1,0.4-0.2c0.1,0,0.3,0,0.4,0c0.3,0,0.6,0.1,0.8,0.1c0.3,0,0.6,0,0.9,0
							c0.1,0,0.3,0,0.4-0.1c0.1-0.1,0.3-0.1,0.4-0.2c-0.1,0.1-0.3,0.1-0.4,0.1c-0.1,0-0.3-0.1-0.4-0.1c-0.2-0.1-0.5-0.2-0.7-0.3
							c-0.3,0-0.6,0-1,0.1c-0.2,0.1-0.3,0.2-0.5,0.3C176.5,60,176.4,60.1,176.3,60.2z"/>
					</g>
					<g>
						<path fill="#FFFFFF" d="M179.7,59.9c-0.1,0-0.2,0-0.3,0c-0.1,0-0.2-0.1-0.2-0.1c-0.1-0.1-0.2-0.2-0.3-0.4
							c-0.1-0.1-0.2-0.3-0.4-0.4c-0.1-0.1-0.2-0.1-0.2-0.1c-0.1,0-0.2,0-0.3-0.1c0.1,0,0.1,0.1,0.2,0.2c0,0.1,0,0.2,0.1,0.3
							c0,0.1,0.1,0.1,0.1,0.2c0,0.1,0.1,0.1,0.2,0.2c0.2,0.1,0.4,0.2,0.6,0.3c0.1,0,0.2,0,0.4,0C179.5,59.9,179.6,59.9,179.7,59.9z"
							/>
					</g>
				</g>
				<g>
					<g>
						<path fill="#FFFFFF" d="M165.5,58.2c0,0,0.1-0.1,0.2-0.1c0.1,0,0.1-0.1,0.2-0.2c0.1-0.1,0.2-0.1,0.3-0.2
							c0.2-0.1,0.5-0.3,0.8-0.4c0.3-0.1,0.6-0.2,1-0.2c0.3,0,0.7,0,1,0.1c0.3,0.1,0.6,0.2,0.8,0.3c0.2,0.1,0.4,0.2,0.5,0.3
							c0.1,0.1,0.2,0.1,0.2,0.1s0.1,0.1,0.4,0.2c0.2,0.1,0.5,0.3,0.8,0.5c0.3,0.2,0.5,0.4,0.7,0.5c0.2,0.2,0.3,0.3,0.3,0.3
							c0.7,0.5,1.5,1.1,2.3,1.5c0.4,0.2,0.9,0.3,1.3,0.4c0.2,0,0.5,0,0.7,0c0.1,0,0.2,0,0.4,0c0.1,0,0.1,0,0.2,0c0.1,0,0.1,0,0.2,0
							c0.2-0.1,0.4-0.1,0.7-0.2c0.2-0.1,0.4-0.2,0.6-0.3c0.4-0.3,0.7-0.6,1-0.9c0.1-0.1,0.2-0.2,0.2-0.3c0.1-0.1,0.2-0.2,0.2-0.3
							c0.1-0.2,0.2-0.4,0.3-0.6c0.2-0.4,0.2-0.9,0.2-1.4c0-0.5-0.1-0.9-0.3-1.3c-0.1-0.2-0.2-0.4-0.3-0.6c-0.1-0.1-0.2-0.2-0.2-0.2
							c-0.1-0.1-0.2-0.1-0.3-0.2l0,0c0.1,0,0.2,0.1,0.3,0.2c0.1,0.1,0.2,0.2,0.2,0.2c0.1,0.2,0.2,0.4,0.3,0.6
							c0.2,0.4,0.2,0.9,0.3,1.3c0,0.4-0.1,0.9-0.2,1.3c-0.1,0.2-0.2,0.4-0.3,0.6c-0.1,0.1-0.1,0.2-0.2,0.2c-0.1,0.1-0.2,0.2-0.2,0.2
							c-0.3,0.3-0.7,0.6-1,0.8c-0.2,0.1-0.4,0.2-0.6,0.3c-0.2,0.1-0.4,0.1-0.6,0.2c-0.1,0-0.1,0-0.2,0c-0.1,0-0.1,0-0.2,0
							c-0.1,0-0.2,0-0.3,0c-0.2,0-0.4,0-0.6-0.1c-0.4-0.1-0.8-0.2-1.2-0.4c-0.8-0.4-1.5-0.9-2.3-1.4c0,0-0.1-0.1-0.3-0.2
							c-0.2-0.1-0.5-0.3-0.8-0.5c-0.3-0.2-0.6-0.4-0.8-0.5c-0.2-0.1-0.4-0.2-0.4-0.2s-0.1,0-0.2-0.1c-0.1-0.1-0.3-0.2-0.6-0.3
							c-0.2-0.1-0.5-0.2-0.8-0.3c-0.3-0.1-0.7-0.1-1-0.1c-0.3,0-0.7,0.1-1,0.2c-0.3,0.1-0.6,0.3-0.8,0.4c-0.1,0.1-0.2,0.1-0.3,0.2
							c-0.1,0.1-0.2,0.1-0.2,0.2C165.6,58.1,165.5,58.2,165.5,58.2L165.5,58.2z"/>
					</g>
					<circle fill="#FFFFFF" cx="179.9" cy="55.1" r="0.3"/>
					<circle fill="#FFFFFF" cx="171.5" cy="58.3" r="0.4"/>
				</g>
				<circle fill="#FFFFFF" cx="165.5" cy="58.2" r="0.3"/>
			</g>
		</g>
	</g>
	<g>
		<g>
			<g>
				<g>
					<path fill="#FFFFFF" d="M103.8,55c0-0.1-0.1-0.3-0.1-0.4c0-0.1,0-0.3,0-0.5c0-0.2,0.1-0.3,0.3-0.4c0.1-0.1,0.3-0.2,0.5-0.3
						c0.3-0.1,0.7-0.1,0.9-0.1c0.2,0,0.3,0,0.4-0.1c0.1-0.1,0.2-0.2,0.2-0.3c0,0.1,0.1,0.3,0,0.5c-0.1,0.2-0.2,0.3-0.4,0.5
						c-0.3,0.2-0.6,0.3-0.8,0.4c-0.1,0-0.2,0-0.3,0c-0.1,0-0.2,0-0.3,0.1c-0.1,0-0.2,0.1-0.3,0.3C103.8,54.7,103.8,54.8,103.8,55z"
						/>
				</g>
				<g>
					<g>
						<path fill="#FFFFFF" d="M113.9,58.5c-0.1,0.1-0.3,0.1-0.4,0.2c-0.1,0-0.3,0-0.4,0c-0.3,0-0.5-0.1-0.8-0.1c-0.3,0-0.6,0-0.9,0
							c-0.2,0-0.3,0.1-0.4,0.1c-0.1,0.1-0.3,0.1-0.4,0.2c0.1-0.1,0.3-0.1,0.4-0.1c0.1,0,0.3,0.1,0.4,0.1c0.2,0.1,0.5,0.2,0.7,0.3
							c0.3,0,0.6,0,1-0.1c0.2-0.1,0.3-0.2,0.5-0.3C113.7,58.7,113.8,58.6,113.9,58.5z"/>
					</g>
					<g>
						<path fill="#FFFFFF" d="M110.5,58.8c0.1,0,0.2,0,0.3,0c0.1,0,0.2,0.1,0.2,0.1c0.1,0.1,0.2,0.2,0.3,0.4
							c0.1,0.1,0.2,0.3,0.4,0.4c0.1,0.1,0.2,0.1,0.3,0.1c0.1,0,0.2,0,0.3,0.1c-0.1,0-0.1-0.1-0.2-0.2c0-0.1,0-0.2-0.1-0.3
							c0-0.1-0.1-0.1-0.1-0.2c0-0.1-0.1-0.1-0.2-0.2c-0.2-0.1-0.4-0.2-0.6-0.3c-0.1,0-0.2,0-0.4,0C110.7,58.8,110.6,58.8,110.5,58.8
							z"/>
					</g>
				</g>
				<g>
					<g>
						<path fill="#FFFFFF" d="M102.2,55.6c-0.1,0.1-0.3,0.1-0.4,0.2c-0.1,0-0.3,0-0.4,0c-0.3,0-0.5-0.1-0.8-0.1c-0.3,0-0.6,0-0.9,0
							c-0.2,0-0.3,0-0.4,0.1c-0.1,0.1-0.3,0.1-0.4,0.2c0.1-0.1,0.3-0.1,0.4-0.1c0.1,0,0.3,0.1,0.4,0.1c0.2,0.1,0.5,0.2,0.7,0.3
							c0.3,0,0.6,0,1-0.1c0.2-0.1,0.3-0.2,0.5-0.3C102,55.8,102.1,55.7,102.2,55.6z"/>
					</g>
					<g>
						<path fill="#FFFFFF" d="M98.8,56c0.1,0,0.2,0,0.3,0c0.1,0,0.2,0.1,0.2,0.1c0.1,0.1,0.2,0.2,0.3,0.4c0.1,0.1,0.2,0.3,0.4,0.4
							c0.1,0.1,0.2,0.1,0.3,0.1c0.1,0,0.2,0,0.3,0.1c-0.1,0-0.1-0.1-0.2-0.2c0-0.1,0-0.2-0.1-0.3c0-0.1-0.1-0.1-0.1-0.2
							c0-0.1-0.1-0.1-0.2-0.2c-0.2-0.1-0.4-0.2-0.6-0.3c-0.1,0-0.2,0-0.4,0C99,55.9,98.9,56,98.8,56z"/>
					</g>
				</g>
				<g>
					<g>
						<path fill="#FFFFFF" d="M113,57.7c0,0-0.1,0.1-0.2,0.1c-0.1,0-0.1,0.1-0.2,0.2c-0.1,0.1-0.2,0.1-0.3,0.2
							c-0.2,0.1-0.5,0.3-0.8,0.4c-0.3,0.1-0.6,0.2-1,0.2c-0.3,0-0.7,0-1-0.1c-0.3-0.1-0.6-0.2-0.8-0.3c-0.2-0.1-0.4-0.2-0.5-0.3
							c-0.1-0.1-0.2-0.1-0.2-0.1s-0.1-0.1-0.4-0.2c-0.2-0.1-0.5-0.3-0.8-0.5c-0.3-0.2-0.5-0.4-0.7-0.5c-0.2-0.2-0.3-0.3-0.3-0.3
							c-0.7-0.5-1.5-1.1-2.3-1.5c-0.4-0.2-0.9-0.3-1.3-0.4c-0.2,0-0.5,0-0.7,0c-0.1,0-0.2,0-0.4,0c-0.1,0-0.1,0-0.2,0
							c-0.1,0-0.1,0-0.2,0c-0.2,0.1-0.4,0.1-0.7,0.2c-0.2,0.1-0.4,0.2-0.6,0.3c-0.4,0.3-0.7,0.6-1,0.9c-0.1,0.1-0.2,0.2-0.2,0.3
							c-0.1,0.1-0.2,0.2-0.2,0.3c-0.1,0.2-0.2,0.4-0.3,0.6c-0.2,0.4-0.2,0.9-0.2,1.4c0,0.5,0.1,0.9,0.3,1.3c0.1,0.2,0.2,0.4,0.3,0.6
							c0.1,0.1,0.2,0.2,0.2,0.2c0.1,0.1,0.2,0.1,0.3,0.2l0,0c-0.1,0-0.2-0.1-0.3-0.2c-0.1-0.1-0.2-0.2-0.2-0.2
							c-0.1-0.2-0.2-0.4-0.3-0.6c-0.2-0.4-0.2-0.9-0.3-1.3c0-0.4,0.1-0.9,0.2-1.3c0.1-0.2,0.2-0.4,0.3-0.6c0.1-0.1,0.1-0.2,0.2-0.2
							c0.1-0.1,0.2-0.2,0.2-0.2c0.3-0.3,0.7-0.6,1-0.8c0.2-0.1,0.4-0.2,0.6-0.3c0.2-0.1,0.4-0.1,0.6-0.2c0.1,0,0.1,0,0.2,0
							c0.1,0,0.1,0,0.2,0c0.1,0,0.2,0,0.3,0c0.2,0,0.4,0,0.6,0.1c0.4,0.1,0.8,0.2,1.2,0.4c0.8,0.4,1.5,0.9,2.3,1.4
							c0,0,0.1,0.1,0.3,0.2c0.2,0.1,0.5,0.3,0.8,0.5c0.3,0.2,0.6,0.4,0.8,0.5c0.2,0.1,0.4,0.2,0.4,0.2s0.1,0,0.2,0.1
							c0.1,0.1,0.3,0.2,0.6,0.3c0.2,0.1,0.5,0.2,0.8,0.3c0.3,0.1,0.7,0.1,1,0.1c0.3,0,0.7-0.1,1-0.2c0.3-0.1,0.6-0.3,0.8-0.4
							c0.1-0.1,0.2-0.1,0.3-0.2c0.1-0.1,0.2-0.1,0.2-0.2C112.9,57.7,113,57.7,113,57.7L113,57.7z"/>
					</g>
					<circle fill="#FFFFFF" cx="98.6" cy="60.7" r="0.3"/>
					<circle fill="#FFFFFF" cx="107.1" cy="57.6" r="0.4"/>
				</g>
				<circle fill="#FFFFFF" cx="113" cy="57.7" r="0.3"/>
			</g>
			<g>
				<g>
					<path fill="#FFFFFF" d="M110.4,54.1c0-0.1-0.1-0.3-0.1-0.4c0-0.1,0-0.3,0-0.5c0-0.2,0.1-0.3,0.3-0.4c0.1-0.1,0.3-0.2,0.5-0.3
						c0.3-0.1,0.7-0.1,0.9-0.1c0.1,0,0.3,0,0.4-0.1c0.1-0.1,0.2-0.2,0.2-0.3c0,0.1,0.1,0.3,0,0.5c-0.1,0.2-0.2,0.3-0.4,0.5
						c-0.3,0.2-0.6,0.3-0.8,0.4c-0.1,0-0.2,0-0.3,0c-0.1,0-0.2,0-0.3,0.1c-0.1,0-0.2,0.1-0.3,0.3C110.4,53.9,110.3,54,110.4,54.1z"
						/>
				</g>
				<g>
					<g>
						<path fill="#FFFFFF" d="M120.5,57.6c-0.1,0.1-0.3,0.1-0.4,0.2c-0.1,0-0.3,0-0.4,0c-0.3,0-0.5-0.1-0.8-0.1c-0.3,0-0.6,0-0.9,0
							c-0.2,0-0.3,0-0.4,0.1c-0.1,0.1-0.3,0.1-0.4,0.2c0.1-0.1,0.3-0.1,0.4-0.1c0.1,0,0.3,0.1,0.4,0.1c0.2,0.1,0.5,0.2,0.7,0.3
							c0.3,0,0.6,0,1-0.1c0.2-0.1,0.3-0.2,0.5-0.3C120.3,57.9,120.4,57.7,120.5,57.6z"/>
					</g>
					<g>
						<path fill="#FFFFFF" d="M117.1,58c0.1,0,0.2,0,0.3,0c0.1,0,0.2,0.1,0.2,0.1c0.1,0.1,0.2,0.2,0.3,0.4c0.1,0.1,0.2,0.3,0.4,0.4
							c0.1,0.1,0.2,0.1,0.2,0.1c0.1,0,0.2,0,0.3,0.1c-0.1,0-0.1-0.1-0.2-0.2c0-0.1,0-0.2-0.1-0.3c0-0.1-0.1-0.1-0.1-0.2
							c0-0.1-0.1-0.1-0.2-0.2c-0.2-0.1-0.4-0.2-0.6-0.3c-0.1,0-0.2,0-0.4,0C117.3,57.9,117.2,58,117.1,58z"/>
					</g>
				</g>
				<g>
					<g>
						<path fill="#FFFFFF" d="M108.8,54.8c-0.1,0.1-0.3,0.1-0.4,0.2c-0.1,0-0.3,0-0.4,0c-0.3,0-0.5-0.1-0.8-0.1c-0.3,0-0.6,0-0.9,0
							c-0.1,0-0.3,0-0.4,0.1c-0.1,0.1-0.3,0.1-0.4,0.2c0.1-0.1,0.3-0.1,0.4-0.1c0.1,0,0.3,0.1,0.4,0.1c0.2,0.1,0.5,0.2,0.7,0.3
							c0.3,0,0.6,0,1-0.1c0.2-0.1,0.3-0.2,0.5-0.3C108.6,55,108.7,54.9,108.8,54.8z"/>
					</g>
					<g>
						<path fill="#FFFFFF" d="M105.4,55.1c0.1,0,0.2,0,0.3,0c0.1,0,0.2,0.1,0.2,0.1c0.1,0.1,0.2,0.2,0.3,0.4
							c0.1,0.1,0.2,0.3,0.4,0.4c0.1,0.1,0.2,0.1,0.3,0.1c0.1,0,0.2,0,0.3,0.1c-0.1,0-0.1-0.1-0.2-0.2c0-0.1,0-0.2-0.1-0.3
							c0-0.1-0.1-0.1-0.1-0.2c0-0.1-0.1-0.1-0.2-0.2c-0.2-0.1-0.4-0.2-0.6-0.3c-0.1,0-0.2,0-0.4,0C105.6,55.1,105.5,55.1,105.4,55.1
							z"/>
					</g>
				</g>
				<g>
					<g>
						<path fill="#FFFFFF" d="M119.6,56.8c0,0-0.1,0.1-0.2,0.1c-0.1,0-0.1,0.1-0.2,0.2c-0.1,0.1-0.2,0.1-0.3,0.2
							c-0.2,0.1-0.5,0.3-0.8,0.4c-0.3,0.1-0.6,0.2-1,0.2c-0.3,0-0.7,0-1-0.1c-0.3-0.1-0.6-0.2-0.8-0.3c-0.2-0.1-0.4-0.2-0.5-0.3
							c-0.1-0.1-0.2-0.1-0.2-0.1s-0.1-0.1-0.4-0.2c-0.2-0.1-0.5-0.3-0.8-0.5c-0.3-0.2-0.5-0.4-0.7-0.5c-0.2-0.2-0.3-0.3-0.3-0.3
							c-0.7-0.5-1.5-1.1-2.3-1.5c-0.4-0.2-0.9-0.3-1.3-0.4c-0.2,0-0.5,0-0.7,0c-0.1,0-0.2,0-0.4,0c-0.1,0-0.1,0-0.2,0
							c-0.1,0-0.1,0-0.2,0c-0.2,0.1-0.4,0.1-0.7,0.2c-0.2,0.1-0.4,0.2-0.6,0.3c-0.4,0.3-0.7,0.6-1,0.9c-0.1,0.1-0.2,0.2-0.2,0.3
							c-0.1,0.1-0.1,0.2-0.2,0.3c-0.1,0.2-0.3,0.4-0.3,0.6c-0.2,0.4-0.2,0.9-0.2,1.4c0,0.5,0.1,0.9,0.3,1.3c0.1,0.2,0.2,0.4,0.3,0.6
							c0.1,0.1,0.2,0.2,0.2,0.2c0.1,0.1,0.2,0.1,0.3,0.2l0,0c-0.1,0-0.2-0.1-0.3-0.2c-0.1-0.1-0.2-0.2-0.2-0.2
							c-0.1-0.2-0.2-0.4-0.3-0.6c-0.2-0.4-0.2-0.9-0.3-1.3c0-0.4,0.1-0.9,0.2-1.3c0.1-0.2,0.2-0.4,0.3-0.6c0.1-0.1,0.1-0.2,0.2-0.2
							c0.1-0.1,0.2-0.2,0.2-0.2c0.3-0.3,0.7-0.6,1-0.8c0.2-0.1,0.4-0.2,0.6-0.3c0.2-0.1,0.4-0.1,0.6-0.2c0.1,0,0.1,0,0.2,0
							c0.1,0,0.1,0,0.2,0c0.1,0,0.2,0,0.3,0c0.2,0,0.4,0,0.6,0.1c0.4,0.1,0.8,0.2,1.2,0.4c0.8,0.4,1.5,0.9,2.3,1.4
							c0,0,0.1,0.1,0.3,0.2c0.2,0.1,0.5,0.3,0.8,0.5c0.3,0.2,0.6,0.4,0.8,0.5c0.2,0.1,0.4,0.2,0.4,0.2s0.1,0,0.2,0.1
							c0.1,0.1,0.3,0.2,0.6,0.3c0.2,0.1,0.5,0.2,0.8,0.3c0.3,0.1,0.7,0.1,1,0.1c0.3,0,0.7-0.1,1-0.2c0.3-0.1,0.6-0.3,0.8-0.4
							c0.1-0.1,0.2-0.1,0.3-0.2c0.1-0.1,0.2-0.1,0.2-0.2C119.5,56.9,119.6,56.8,119.6,56.8L119.6,56.8z"/>
					</g>
					<circle fill="#FFFFFF" cx="105.2" cy="59.9" r="0.3"/>
					<circle fill="#FFFFFF" cx="113.7" cy="56.7" r="0.4"/>
				</g>
				<circle fill="#FFFFFF" cx="119.6" cy="56.8" r="0.3"/>
			</g>
		</g>
		<g>
			<g>
				<g>
					<path fill="#FFFFFF" d="M114,60.4c0,0.1,0.1,0.3,0.1,0.4c0,0.1,0,0.3,0,0.5c0,0.2-0.1,0.3-0.3,0.4c-0.1,0.1-0.3,0.2-0.5,0.3
						c-0.3,0.1-0.7,0.1-1,0.1c-0.1,0-0.3,0-0.4,0.1c-0.1,0.1-0.2,0.2-0.2,0.3c0-0.1-0.1-0.3,0-0.5c0.1-0.2,0.2-0.3,0.4-0.5
						c0.3-0.2,0.6-0.3,0.8-0.4c0.1,0,0.2,0,0.3,0c0.1,0,0.2,0,0.3-0.1c0.1,0,0.2-0.1,0.3-0.3C114,60.6,114,60.5,114,60.4z"/>
				</g>
				<g>
					<g>
						<path fill="#FFFFFF" d="M103.9,56.9c0.1-0.1,0.3-0.1,0.4-0.2c0.1,0,0.3,0,0.4,0c0.3,0,0.6,0.1,0.8,0.1c0.3,0,0.6,0,0.9,0
							c0.2,0,0.3-0.1,0.4-0.1c0.1-0.1,0.3-0.1,0.4-0.2c-0.1,0.1-0.3,0.1-0.4,0.1c-0.1,0-0.3-0.1-0.4-0.1c-0.2-0.1-0.5-0.2-0.7-0.3
							c-0.3,0-0.6,0-1,0.1c-0.2,0.1-0.3,0.2-0.5,0.3C104.1,56.6,104,56.8,103.9,56.9z"/>
					</g>
					<g>
						<path fill="#FFFFFF" d="M107.3,56.5c-0.1,0-0.2,0-0.3,0c-0.1,0-0.2-0.1-0.2-0.1c-0.1-0.1-0.2-0.2-0.3-0.4
							c-0.1-0.1-0.2-0.3-0.4-0.4c-0.1-0.1-0.2-0.1-0.3-0.1c-0.1,0-0.2,0-0.3-0.1c0.1,0,0.1,0.1,0.2,0.2c0,0.1,0,0.2,0.1,0.3
							c0,0.1,0.1,0.1,0.1,0.2c0,0.1,0.1,0.1,0.2,0.2c0.2,0.1,0.4,0.2,0.6,0.3c0.1,0,0.2,0,0.4,0C107.1,56.6,107.2,56.5,107.3,56.5z"
							/>
					</g>
				</g>
				<g>
					<g>
						<path fill="#FFFFFF" d="M115.6,59.7c0.1-0.1,0.3-0.1,0.4-0.2c0.1,0,0.3,0,0.4,0c0.3,0,0.5,0.1,0.8,0.1c0.3,0,0.6,0,0.9,0
							c0.2,0,0.3,0,0.4-0.1c0.1-0.1,0.3-0.1,0.4-0.2c-0.1,0.1-0.3,0.1-0.4,0.1c-0.1,0-0.3-0.1-0.4-0.1c-0.2-0.1-0.5-0.2-0.7-0.3
							c-0.3,0-0.6,0-1,0.1c-0.2,0.1-0.3,0.2-0.5,0.3C115.8,59.5,115.7,59.6,115.6,59.7z"/>
					</g>
					<g>
						<path fill="#FFFFFF" d="M119,59.4c-0.1,0-0.2,0-0.3,0c-0.1,0-0.2-0.1-0.2-0.1c-0.1-0.1-0.2-0.2-0.3-0.4
							c-0.1-0.1-0.2-0.3-0.4-0.4c-0.1-0.1-0.2-0.1-0.2-0.1c-0.1,0-0.2,0-0.3-0.1c0.1,0,0.1,0.1,0.2,0.2c0,0.1,0,0.2,0.1,0.3
							c0,0.1,0.1,0.1,0.1,0.2c0,0.1,0.1,0.1,0.2,0.2c0.2,0.1,0.4,0.2,0.6,0.3c0.1,0,0.2,0,0.4,0C118.8,59.4,118.9,59.4,119,59.4z"/>
					</g>
				</g>
				<g>
					<g>
						<path fill="#FFFFFF" d="M104.8,57.7c0,0,0.1-0.1,0.2-0.1c0.1,0,0.1-0.1,0.2-0.2c0.1-0.1,0.2-0.1,0.3-0.2
							c0.2-0.1,0.5-0.3,0.8-0.4c0.3-0.1,0.6-0.2,1-0.2c0.3,0,0.7,0,1,0.1c0.3,0.1,0.6,0.2,0.8,0.3c0.2,0.1,0.4,0.2,0.5,0.3
							c0.1,0.1,0.2,0.1,0.2,0.1s0.1,0.1,0.4,0.2c0.2,0.1,0.5,0.3,0.8,0.5c0.3,0.2,0.5,0.4,0.7,0.5c0.2,0.2,0.3,0.3,0.3,0.3
							c0.7,0.5,1.5,1.1,2.3,1.5c0.4,0.2,0.9,0.3,1.3,0.4c0.2,0,0.5,0,0.7,0c0.1,0,0.2,0,0.4,0c0.1,0,0.1,0,0.2,0c0.1,0,0.1,0,0.2,0
							c0.2-0.1,0.4-0.1,0.7-0.2c0.2-0.1,0.4-0.2,0.6-0.3c0.4-0.3,0.7-0.6,1-0.9c0.1-0.1,0.2-0.2,0.2-0.3c0.1-0.1,0.2-0.2,0.2-0.3
							c0.1-0.2,0.3-0.4,0.3-0.6c0.2-0.4,0.2-0.9,0.2-1.4c0-0.5-0.1-0.9-0.3-1.3c-0.1-0.2-0.2-0.4-0.3-0.6c-0.1-0.1-0.2-0.2-0.2-0.2
							c-0.1-0.1-0.2-0.1-0.3-0.2l0,0c0.1,0,0.2,0.1,0.3,0.2c0.1,0.1,0.2,0.2,0.2,0.2c0.1,0.2,0.2,0.4,0.3,0.6
							c0.2,0.4,0.2,0.9,0.3,1.3c0,0.4-0.1,0.9-0.2,1.3c-0.1,0.2-0.2,0.4-0.3,0.6c-0.1,0.1-0.1,0.2-0.2,0.2c-0.1,0.1-0.2,0.2-0.2,0.2
							c-0.3,0.3-0.7,0.6-1,0.8c-0.2,0.1-0.4,0.2-0.6,0.3c-0.2,0.1-0.4,0.1-0.6,0.2c-0.1,0-0.1,0-0.2,0c-0.1,0-0.1,0-0.2,0
							c-0.1,0-0.2,0-0.3,0c-0.2,0-0.4,0-0.6-0.1c-0.4-0.1-0.8-0.2-1.2-0.4c-0.8-0.4-1.5-0.9-2.3-1.4c0,0-0.1-0.1-0.3-0.2
							c-0.2-0.1-0.5-0.3-0.8-0.5c-0.3-0.2-0.6-0.4-0.8-0.5c-0.2-0.1-0.4-0.2-0.4-0.2s-0.1,0-0.2-0.1c-0.1-0.1-0.3-0.2-0.6-0.3
							c-0.2-0.1-0.5-0.2-0.8-0.3c-0.3-0.1-0.7-0.1-1-0.1c-0.3,0-0.7,0.1-1,0.2c-0.3,0.1-0.6,0.3-0.8,0.4c-0.1,0.1-0.2,0.1-0.3,0.2
							c-0.1,0.1-0.2,0.1-0.2,0.2C104.9,57.6,104.8,57.7,104.8,57.7L104.8,57.7z"/>
					</g>
					<circle fill="#FFFFFF" cx="119.2" cy="54.6" r="0.3"/>
					<circle fill="#FFFFFF" cx="110.7" cy="57.8" r="0.4"/>
				</g>
				<circle fill="#FFFFFF" cx="104.8" cy="57.7" r="0.3"/>
			</g>
			<g>
				<g>
					<path fill="#FFFFFF" d="M107.4,61.2c0,0.1,0.1,0.3,0.1,0.4c0,0.1,0,0.3,0,0.5c0,0.2-0.1,0.3-0.3,0.4c-0.1,0.1-0.3,0.2-0.5,0.3
						c-0.3,0.1-0.7,0.1-0.9,0.1c-0.2,0-0.3,0-0.4,0.1c-0.1,0.1-0.2,0.2-0.2,0.3c0-0.1-0.1-0.3,0-0.5c0.1-0.2,0.2-0.3,0.4-0.5
						c0.3-0.2,0.6-0.3,0.8-0.4c0.1,0,0.2,0,0.3,0c0.1,0,0.2,0,0.3-0.1c0.1,0,0.2-0.1,0.3-0.3C107.4,61.5,107.5,61.3,107.4,61.2z"/>
				</g>
				<g>
					<g>
						<path fill="#FFFFFF" d="M97.3,57.7c0.1-0.1,0.3-0.1,0.4-0.2c0.1,0,0.3,0,0.4,0c0.3,0,0.5,0.1,0.8,0.1c0.3,0,0.6,0,0.9,0
							c0.2,0,0.3,0,0.4-0.1c0.1-0.1,0.3-0.1,0.4-0.2c-0.1,0.1-0.3,0.1-0.4,0.1c-0.1,0-0.3-0.1-0.4-0.1c-0.2-0.1-0.5-0.2-0.7-0.3
							c-0.3,0-0.6,0-1,0.1c-0.2,0.1-0.3,0.2-0.5,0.3C97.5,57.5,97.4,57.6,97.3,57.7z"/>
					</g>
					<g>
						<path fill="#FFFFFF" d="M100.7,57.3c-0.1,0-0.2,0-0.3,0c-0.1,0-0.2-0.1-0.2-0.1c-0.1-0.1-0.2-0.2-0.3-0.4
							c-0.1-0.1-0.2-0.3-0.4-0.4c-0.1-0.1-0.2-0.1-0.3-0.1c-0.1,0-0.2,0-0.3-0.1c0.1,0,0.1,0.1,0.2,0.2c0,0.1,0,0.2,0.1,0.3
							c0,0.1,0.1,0.1,0.1,0.2c0,0.1,0.1,0.1,0.2,0.2c0.2,0.1,0.4,0.2,0.6,0.3c0.1,0,0.2,0,0.4,0C100.5,57.4,100.6,57.4,100.7,57.3z"
							/>
					</g>
				</g>
				<g>
					<g>
						<path fill="#FFFFFF" d="M109,60.6c0.1-0.1,0.3-0.1,0.4-0.2c0.1,0,0.3,0,0.4,0c0.3,0,0.6,0.1,0.8,0.1c0.3,0,0.6,0,0.9,0
							c0.2,0,0.3,0,0.4-0.1c0.1-0.1,0.3-0.1,0.4-0.2c-0.1,0.1-0.3,0.1-0.4,0.1c-0.1,0-0.3-0.1-0.4-0.1c-0.2-0.1-0.5-0.2-0.7-0.3
							c-0.3,0-0.6,0-1,0.1c-0.2,0.1-0.3,0.2-0.5,0.3C109.2,60.4,109.1,60.5,109,60.6z"/>
					</g>
					<g>
						<path fill="#FFFFFF" d="M112.4,60.2c-0.1,0-0.2,0-0.3,0c-0.1,0-0.2-0.1-0.2-0.1c-0.1-0.1-0.2-0.2-0.3-0.4
							c-0.1-0.1-0.2-0.3-0.4-0.4c-0.1-0.1-0.2-0.1-0.2-0.1c-0.1,0-0.2,0-0.3-0.1c0.1,0,0.1,0.1,0.2,0.2c0,0.1,0,0.2,0.1,0.3
							c0,0.1,0.1,0.1,0.1,0.2c0,0.1,0.1,0.1,0.2,0.2c0.2,0.1,0.4,0.2,0.6,0.3c0.1,0,0.2,0,0.4,0C112.2,60.3,112.3,60.2,112.4,60.2z"
							/>
					</g>
				</g>
				<g>
					<g>
						<path fill="#FFFFFF" d="M98.2,58.5c0,0,0.1-0.1,0.2-0.1c0.1,0,0.1-0.1,0.2-0.2c0.1-0.1,0.2-0.1,0.3-0.2
							c0.2-0.1,0.5-0.3,0.8-0.4c0.3-0.1,0.6-0.2,1-0.2c0.3,0,0.7,0,1,0.1c0.3,0.1,0.6,0.2,0.8,0.3c0.2,0.1,0.4,0.2,0.5,0.3
							c0.1,0.1,0.2,0.1,0.2,0.1s0.1,0.1,0.4,0.2c0.2,0.1,0.5,0.3,0.8,0.5c0.3,0.2,0.5,0.4,0.7,0.5c0.2,0.2,0.3,0.3,0.3,0.3
							c0.7,0.5,1.5,1.1,2.3,1.5c0.4,0.2,0.9,0.3,1.3,0.4c0.2,0,0.5,0,0.7,0c0.1,0,0.2,0,0.4,0c0.1,0,0.1,0,0.2,0c0.1,0,0.1,0,0.2,0
							c0.2-0.1,0.4-0.1,0.7-0.2c0.2-0.1,0.4-0.2,0.6-0.3c0.4-0.3,0.7-0.6,1-0.9c0.1-0.1,0.2-0.2,0.2-0.3c0.1-0.1,0.2-0.2,0.2-0.3
							c0.1-0.2,0.2-0.4,0.3-0.6c0.2-0.4,0.2-0.9,0.2-1.4c0-0.5-0.1-0.9-0.3-1.3c-0.1-0.2-0.2-0.4-0.3-0.6c-0.1-0.1-0.2-0.2-0.2-0.2
							c-0.1-0.1-0.2-0.1-0.3-0.2l0,0c0.1,0,0.2,0.1,0.3,0.2c0.1,0.1,0.2,0.2,0.2,0.2c0.1,0.2,0.2,0.4,0.3,0.6
							c0.2,0.4,0.2,0.9,0.3,1.3c0,0.4-0.1,0.9-0.2,1.3c-0.1,0.2-0.2,0.4-0.3,0.6c-0.1,0.1-0.1,0.2-0.2,0.2c-0.1,0.1-0.2,0.2-0.2,0.2
							c-0.3,0.3-0.7,0.6-1,0.8c-0.2,0.1-0.4,0.2-0.6,0.3c-0.2,0.1-0.4,0.1-0.6,0.2c-0.1,0-0.1,0-0.2,0c-0.1,0-0.1,0-0.2,0
							c-0.1,0-0.2,0-0.3,0c-0.2,0-0.4,0-0.6-0.1c-0.4-0.1-0.8-0.2-1.2-0.4c-0.8-0.4-1.5-0.9-2.3-1.4c0,0-0.1-0.1-0.3-0.2
							c-0.2-0.1-0.5-0.3-0.8-0.5c-0.3-0.2-0.6-0.4-0.8-0.5c-0.2-0.1-0.4-0.2-0.4-0.2s-0.1,0-0.2-0.1c-0.1-0.1-0.3-0.2-0.6-0.3
							c-0.2-0.1-0.5-0.2-0.8-0.3c-0.3-0.1-0.7-0.1-1-0.1c-0.3,0-0.7,0.1-1,0.2c-0.3,0.1-0.6,0.3-0.8,0.4c-0.1,0.1-0.2,0.1-0.3,0.2
							c-0.1,0.1-0.2,0.1-0.2,0.2C98.3,58.5,98.2,58.5,98.2,58.5L98.2,58.5z"/>
					</g>
					<circle fill="#FFFFFF" cx="112.6" cy="55.5" r="0.3"/>
					<circle fill="#FFFFFF" cx="104.1" cy="58.6" r="0.4"/>
				</g>
				<circle fill="#FFFFFF" cx="98.2" cy="58.5" r="0.3"/>
			</g>
		</g>
	</g>
	<ellipse fill-rule="evenodd" clip-rule="evenodd" fill="#FFFFFF" cx="142" cy="60.7" rx="14.7" ry="12.7"/>
</g>
</svg>
