<svg enable-background="new 0 0 759 439" id="Layer_1" version="1.1" viewBox="0 0 759 439" x="0px" xml:space="preserve" xmlns="http://www.w3.org/2000/svg" xmlns:xlink="http://www.w3.org/1999/xlink" y="0px"> <g id="band"> <rect fill="#26A9E0" height="86.9" id="rect" width="760" x="-0.5" y="176"/> <rect fill="#224099" height="69.4" id="rect1" width="760" x="-0.5" y="184.8"/> <path d="M523.9,219.5c0-0.2,0-0.4,0-0.6h0c-0.4-31.3-14.1-50-14.1-50c-26.7,0-22-26.9-22-26.9l-108.3-32l-108.3,32
		c0,0,4.7,26.9-22,26.9c0,0-13.7,18.7-14.1,50h0c0,0.2,0,0.4,0,0.6c0,0.2,0,0.4,0,0.6h0c0.4,31.3,14.1,50,14.1,50
		c26.7,0,22,26.9,22,26.9l108.3,32l108.3-32c0,0-4.7-26.9,22-26.9c0,0,13.7-18.7,14.1-50h0C523.9,219.9,523.9,219.7,523.9,219.5z" fill="#26A9E0" id="container"/> <path d="M379.5,321.4l-100.2-29.6c-0.3-5.9-2-13.9-7.8-20.3c-3.4-3.8-9.3-8.2-19-9.5c-3.6-6.6-10.1-21.4-10.3-42
		l0-0.3l0-0.6c0.3-20.7,6.8-35.5,10.4-42.1c9.7-1.3,15.6-5.7,19-9.5c5.8-6.4,7.5-14.3,7.8-20.3l100.2-29.6l100.2,29.6
		c0.3,5.9,2,13.9,7.8,20.3c3.4,3.8,9.3,8.1,19,9.5c3.6,6.6,10.1,21.4,10.3,42v0c0,0,0,0.3,0,0.5v0.3l0,0.6
		c-0.3,20.4-6.8,35.1-10.4,41.7c-9.7,1.3-15.6,5.7-19,9.5c-5.8,6.4-7.5,14.3-7.8,20.3L379.5,321.4L379.5,321.4z" fill="#224099" id="container1"/> <path d="M379.5,316.3l-95.4-28.2c-0.8-6-3-13.5-8.7-19.8c-3.5-3.9-9.6-8.7-19.5-10.7c-3.6-7.2-8.5-20.2-8.7-37.7
		l0-0.2l0-0.2l0-0.2l0-0.6c0.2-17.3,5.1-30.4,8.7-37.5c9.8-2,16-6.8,19.5-10.7c5.7-6.3,7.9-13.8,8.7-19.7l95.4-28.2l95.4,28.2
		c0.8,6,3,13.4,8.7,19.7c3.5,3.9,9.6,8.7,19.5,10.7c3.6,7.2,8.5,20.2,8.7,37.7v0.1l0,0.9l0,0.6c-0.2,17.1-5.1,30-8.7,37.1
		c-9.9,2-16,6.8-19.5,10.7c-5.7,6.3-7.9,13.8-8.7,19.8L379.5,316.3L379.5,316.3z" fill="#26A9E0" id="container2"/> <path d="M460.5,153.2l-11.7-3.5l-56.8,54.5l40.9-59.2l-10-3l-35.5,59.7l21.5-63.9l-9.7-2.9l-17,65.5
		l2.5-69.8l-5.2-1.5l-5.3,1.6l2.5,69.8l-17-65.5L350,138l21.5,63.9L336,142.1l-10.1,3l40.9,59.2l-56.8-54.5l-11.7,3.5l64.6,54.5
		l-74.9-41.9c-1.2,2.7-2.9,5.4-5.1,7.9c-0.2,0.2-0.4,0.5-0.7,0.7l78,37.5l-96.4-26.3c-1.3,2.7-2.6,6.2-3.8,10.2l98.8,20.8l-101.9-3
		c-0.1,1.6-0.2,3.1-0.2,4.7l0,0.5l0,0.2l0,0.2l0,0.2c0,1.7,0.1,3.3,0.2,5l101.9-3l-98.7,20.7c1.2,4.1,2.5,7.5,3.8,10.2l96.4-26.2
		l-78,37.5c0.2,0.2,0.4,0.4,0.6,0.7c2.3,2.5,3.9,5.2,5.1,7.9l75-41.9l-64.6,54.5l11.7,3.4l56.8-54.5L326,293l10,3l35.5-59.7
		l-21.5,63.9l9.7,2.9l17-65.5l-2.5,69.8l5.2,1.5l5.2-1.5l-2.5-69.8l17,65.5l9.8-2.9l-21.5-63.9L423,296l10-3l-40.9-59.2l56.8,54.5
		l11.7-3.4L396,230.4l75,41.9c1.2-2.7,2.9-5.4,5.1-7.9c0.2-0.2,0.4-0.4,0.7-0.7l-78-37.5l96.4,26.3c1.3-2.8,2.6-6.2,3.8-10.2
		l-98.8-20.8l101.9,3c0.1-1.4,0.2-2.9,0.2-4.4l0-0.5l0-0.8v-0.1c0-1.7-0.1-3.4-0.2-5l-101.9,3l98.7-20.8c-1.2-4-2.5-7.5-3.8-10.2
		l-96.4,26.3l78-37.5c-0.2-0.2-0.4-0.4-0.6-0.6c-2.3-2.5-3.9-5.2-5.1-7.9l-75,41.9L460.5,153.2z" fill="#FFFFFF" id="lines" opacity="0.25"/> <g id="star"> <polygon fill="#224099" points="335.9,150.5 339.8,158.5 348.6,159.7 342.3,165.9 343.8,174.6 335.9,170.5 328.1,174.6 
			329.6,165.9 323.2,159.7 332,158.5 		"/> <polygon fill="#224099" points="379.5,141.7 383.4,149.7 392.2,151 385.8,157.1 387.3,165.9 379.5,161.8 371.7,165.9 373.2,157.1 
			366.8,151 375.6,149.7 		"/> <polygon fill="#224099" points="424.4,150.5 428.3,158.5 437,159.7 430.7,165.9 432.2,174.6 424.4,170.5 416.5,174.6 418,165.9 
			411.7,159.7 420.4,158.5 		"/> </g> </g> </svg>