<?xml version="1.0" encoding="utf-8"?>
<!-- Generator: Adobe Illustrator 18.1.0, SVG Export Plug-In . SVG Version: 6.00 Build 0)  -->
<svg version="1.1" id="Layer_1" xmlns="http://www.w3.org/2000/svg" xmlns:xlink="http://www.w3.org/1999/xlink" x="0px" y="0px"
	 viewBox="0 0 283.5 113.4" enable-background="new 0 0 283.5 113.4" xml:space="preserve">
<g id="band">
	<rect id="rect" x="33.7" y="38.2" fill-rule="evenodd" clip-rule="evenodd" fill="#1E2E3D" width="216" height="37"/>
	<path id="rer" fill-rule="evenodd" clip-rule="evenodd" fill="#37596E" d="M141.7,28.8c15.4,0,27.9,12.5,27.9,27.9
		c0,15.4-12.5,27.9-27.9,27.9c-15.4,0-27.9-12.5-27.9-27.9C113.8,41.3,126.3,28.8,141.7,28.8z"/>
	<circle id="cir" fill-rule="evenodd" clip-rule="evenodd" fill="#1E2E3D" cx="141.7" cy="56.7" r="25.3"/>
	<g id="fdfdsf">
		<path id="path" fill-rule="evenodd" clip-rule="evenodd" fill="#58595B" d="M141.7,34.8c1.6,0,3.1,0.2,4.6,0.5l-4.6,21.4l11.9-18.4
			c2.6,1.7,4.8,3.9,6.5,6.5l-18.4,11.9l21.4-4.6c0.3,1.5,0.5,3,0.5,4.6c0,1.6-0.2,3.1-0.5,4.6l-21.4-4.6l18.4,11.9
			c-1.7,2.6-3.9,4.8-6.5,6.5l-11.9-18.4l4.6,21.4c-1.5,0.3-3,0.5-4.6,0.5c-1.6,0-3.1-0.2-4.6-0.5l4.6-21.4l-11.9,18.4
			c-2.6-1.7-4.8-3.9-6.5-6.5l18.4-11.9l-21.4,4.6c-0.3-1.5-0.5-3-0.5-4.6c0-1.6,0.2-3.1,0.5-4.6l21.4,4.6l-18.4-11.9
			c1.7-2.6,3.9-4.8,6.5-6.5l11.9,18.4l-4.6-21.4C138.6,35,140.2,34.8,141.7,34.8z"/>
			</g>
		<g id="eererer">
			<path id="dsdsd" fill-rule="evenodd" clip-rule="evenodd" fill="#FFFFFF" d="M124.9,69.6c3.9,5.3,13.6,5.5,20.7,5.5c4.9,0,9.5-1.7,13.1-4.5c0,0,0,0,0,0c0-0.5,0-1.1,0-1.6
				c0-0.4,0-0.7,0-1.1c0-0.1,0-0.2,0-0.2c0.1-0.4,0.1-0.8-0.2-1.2c-0.1-0.2-0.3-0.4-0.3-0.7c0-0.3-0.2-0.5-0.5-0.6
				c-0.2-0.1-0.3-0.2-0.4-0.4c-0.1-0.3-0.1-0.5-0.2-0.8c0.4,0,0.9-0.1,1.4-0.1c0.6,0,1.2-0.1,1.7-0.1c0.2,0,0.3,0,0.5,0
				c0.2,0,0.3,0,0.3-0.1c0-0.1,0.1-0.2,0.1-0.3c0-0.3-0.1-0.6-0.1-0.8c0-0.1-0.1-0.2-0.1-0.3c0,0-0.1-0.1-0.2-0.1c-0.3,0-0.7,0-1,0
				c-1.2,0.1-2.3,0.2-3.5,0.2c-0.1,0-0.2,0-0.3,0c0-0.2,0.1-0.4,0.1-0.6c0-0.2,0-0.4-0.2-0.5c-0.2-0.2-0.5-0.4-0.9-0.3
				c-0.3,0.1-0.6,0.2-1,0.3c0,0,0,0-0.1,0.1c-0.1,0.1-0.2,0.2-0.3,0.3c-0.2,0.3-0.4,0.5-0.6,0.8c0,0-0.1,0.1-0.1,0.1
				c-0.2,0-0.5,0-0.7,0c-0.5,0-0.8,0.4-0.7,0.9c0,0.2,0.1,0.3,0.2,0.5c0.2,0.1,0.2,0.2,0.1,0.4c-0.3,0.5-0.5,1.1-0.8,1.6
				c0,0-0.1-0.1-0.1-0.1c-0.1-0.2-0.3-0.4-0.4-0.6c-0.1-0.1-0.1-0.2-0.2-0.3c-0.3-0.8-0.7-1.5-1.4-1.9c0,0-0.1-0.1-0.1-0.1
				c-0.1-0.2-0.2-0.5-0.3-0.7c-0.2-0.5-0.4-0.9-0.6-1.4c-0.3-0.5-0.6-1.1-0.9-1.6c0-0.1,0-0.2,0-0.3c0,0,0-0.1,0-0.1
				c-0.1-0.2-0.1-0.3,0.1-0.3c0.2-0.1,0.3-0.2,0.3-0.4c0,0,0-0.1,0.1-0.1c0.1-0.1,0.2-0.2,0.4-0.3c0,0,0-0.1,0.1-0.1
				c0.3-0.1,0.4-0.3,0.5-0.5c0-0.1,0.2-0.2,0.1-0.3c0-0.1,0.1-0.1,0.1-0.2c-0.2,0,0-0.2-0.1-0.2c0,0,0,0,0,0c0,0,0,0.1,0.1,0.1
				c0,0,0-0.1,0-0.1c0.1,0,0.2,0.1,0.3,0.1c0.2,0,0.4-0.1,0.6-0.1c0.2-0.1,0.4-0.2,0.4-0.4c0.1-0.4,0-0.8,0-1.2
				c-0.1-0.4-0.2-0.7-0.2-1.1c0-0.3,0-0.6,0-1c0-0.3-0.1-0.7,0-1c0.1-0.2,0.2-0.3,0.3-0.4c0.2-0.1,0.5-0.2,0.6-0.6
				c0.1-0.4,0.2-0.7,0.3-1.1c0-0.3,0-0.7,0-1c0,0,0,0,0.1,0c0.3,0,0.6,0.1,0.9,0.1c0.4,0,0.9,0,1.3,0.1c0.8,0.1,1.5,0.1,2.3,0
				c0.5-0.1,0.9-0.3,1.3-0.6c0.1,0,0.1-0.1,0.1-0.2c-0.1,0-0.1,0-0.2,0c-0.1,0-0.3,0-0.4-0.1c-0.3-0.1-0.6-0.3-0.9-0.4
				c-1-0.4-2-0.8-3-1.2c-0.4-0.2-0.8-0.3-1.2-0.5c0,0.2,0,0.3,0,0.4c0-0.3,0-0.6,0-1c0-0.2,0.1-0.4-0.1-0.6c0,0,0-0.1,0-0.1
				c0-0.9-0.1-1.8-0.1-2.7c-0.1-1.1-0.2-2.1-0.3-3.1c0-0.3-0.2-0.5-0.5-0.6c-0.6-0.2-1.2-0.4-1.7-0.5c-0.6-0.2-1.3-0.2-1.9-0.3
				c-0.2,0-0.4-0.1-0.6-0.1c-0.4-0.1-0.8-0.1-1.2-0.2c-0.2,0-0.3,0-0.5-0.1c-0.3,0-0.5-0.1-0.8-0.1c-0.5,0-1-0.1-1.5-0.1
				c-0.6,0-1.3,0-1.9,0c-0.6,0-1.2,0.1-1.8,0.2c-0.2,0-0.5,0.1-0.7,0.2c-0.3,0.2-0.5,0.5-0.7,0.8c-0.4,0.7-0.6,1.5-0.8,2.2
				c-0.3,1.2-0.6,2.4-1,3.6c0,0.1-0.1,0.2-0.2,0.1c-0.7,0-1.3-0.1-2-0.1c-0.8,0-1.6,0.1-2.5,0.2c-0.1,0-0.2,0.1-0.3,0.1
				c0,0-0.1,0.1,0,0.2c0.1,0.2,0.2,0.4,0.4,0.6c0.3,0.4,0.7,0.7,1.1,1.1c0.1,0.1,0.2,0.2,0.4,0.2c0.6,0.2,1.2,0.3,1.8,0.3
				c0.3,0,0.7,0,1,0c0,0.1,0,0.1,0,0.1c-0.1,0.2-0.2,0.5-0.2,0.7c-0.1,0.5-0.2,1-0.3,1.4c0,0.1-0.1,0.2-0.2,0.2
				c-0.1,0-0.2,0.1-0.4,0.1c-0.3,0.1-0.5,0.2-0.7,0.4c-0.2,0.2-0.4,0.4-0.6,0.6c-0.2,0.2-0.3,0.3-0.5,0.5c-0.2,0.3-0.4,0.6-0.4,1
				c0,0.3-0.1,0.6-0.1,0.9c0,0.2,0,0.5,0.1,0.7c0,0,0,0,0,0c0,0-0.1,0.1-0.1,0.1c-0.4,0.6-0.8,1.2-1.2,1.8c-0.1,0.2-0.2,0.5-0.4,0.7
				c-0.4,0.5-0.5,1-0.2,1.5c0.1,0.1,0.1,0.3,0,0.4c-0.1,0.1-0.2,0.3-0.3,0.4c0,0.1-0.2,0.2-0.3,0.3c-0.3,0.2-0.3,0.4-0.3,0.7
				c0,0,0,0,0,0.1C127.3,62.1,124.4,67.5,124.9,69.6z"/>
			</g>
			<g id="dsadasre">
				<polygon fill-rule="evenodd" clip-rule="evenodd" fill="#FFFFFF" points="145.3,32 145.4,33 146.4,33.1 145.5,33.5 145.7,34.5 
					145,33.8 144.2,34.3 144.6,33.4 143.9,32.7 144.9,32.9 				"/>
				<polygon fill-rule="evenodd" clip-rule="evenodd" fill="#FFFFFF" points="148.7,32.8 148.8,33.7 149.7,34 148.8,34.3 
					148.8,35.3 148.2,34.5 147.3,34.8 147.9,34.1 147.3,33.3 148.2,33.6 				"/>
				<polygon fill-rule="evenodd" clip-rule="evenodd" fill="#FFFFFF" points="152.1,34 152,35 152.8,35.4 151.9,35.6 151.8,36.5 
					151.3,35.7 150.4,35.9 151,35.2 150.6,34.3 151.4,34.7 				"/>
				<polygon fill-rule="evenodd" clip-rule="evenodd" fill="#FFFFFF" points="155.2,35.7 155,36.6 155.8,37.2 154.8,37.2 
					154.6,38.1 154.2,37.3 153.3,37.3 154,36.7 153.6,35.8 154.5,36.3 				"/>
				<polygon fill-rule="evenodd" clip-rule="evenodd" fill="#FFFFFF" points="158,37.8 157.7,38.7 158.4,39.4 157.4,39.3 
					157.1,40.2 156.9,39.2 155.9,39.1 156.7,38.6 156.5,37.7 157.2,38.3 				"/>
				<polygon fill-rule="evenodd" clip-rule="evenodd" fill="#FFFFFF" points="160.6,40.4 160.1,41.2 160.7,41.9 159.8,41.7 
					159.3,42.5 159.2,41.6 158.2,41.3 159.1,41 159,40 159.7,40.7 				"/>
				<polygon fill-rule="evenodd" clip-rule="evenodd" fill="#FFFFFF" points="162.7,43.2 162.1,43.9 162.6,44.7 161.7,44.4 
					161.1,45.1 161.2,44.2 160.3,43.8 161.2,43.6 161.2,42.6 161.8,43.4 				"/>
				<polygon fill-rule="evenodd" clip-rule="evenodd" fill="#FFFFFF" points="164.4,46.3 163.7,47 164.1,47.8 163.3,47.4 162.5,48 
					162.7,47.1 161.9,46.6 162.9,46.5 163,45.6 163.4,46.4 				"/>
				<polygon fill-rule="evenodd" clip-rule="evenodd" fill="#FFFFFF" points="165.6,49.6 164.8,50.2 165.1,51.1 164.4,50.5 
					163.6,51.1 163.9,50.2 163.1,49.6 164.1,49.6 164.4,48.7 164.7,49.6 				"/>
				<polygon fill-rule="evenodd" clip-rule="evenodd" fill="#FFFFFF" points="166.4,53.1 165.5,53.5 165.7,54.5 165,53.8 
					164.2,54.2 164.6,53.4 163.9,52.7 164.9,52.9 165.3,52 165.5,53 				"/>
				<polygon fill-rule="evenodd" clip-rule="evenodd" fill="#FFFFFF" points="166.7,56.7 165.7,57 165.7,57.9 165.2,57.1 
					164.3,57.4 164.8,56.7 164.3,55.9 165.2,56.2 165.7,55.4 165.7,56.4 				"/>
				<polygon fill-rule="evenodd" clip-rule="evenodd" fill="#FFFFFF" points="166.4,60.2 165.5,60.4 165.3,61.3 164.9,60.5 
					163.9,60.6 164.6,60 164.2,59.1 165,59.5 165.7,58.8 165.5,59.8 				"/>
				<polygon fill-rule="evenodd" clip-rule="evenodd" fill="#FFFFFF" points="165.7,63.7 164.7,63.7 164.4,64.6 164.1,63.7 
					163.2,63.8 163.9,63.2 163.6,62.3 164.4,62.8 165.1,62.2 164.9,63.1 				"/>
				<polygon fill-rule="evenodd" clip-rule="evenodd" fill="#FFFFFF" points="117.8,63.8 118.6,63.3 118.4,62.3 119.1,62.9 
					119.9,62.4 119.6,63.3 120.3,63.9 119.4,63.8 119.1,64.7 118.8,63.8 				"/>
				<polygon fill-rule="evenodd" clip-rule="evenodd" fill="#FFFFFF" points="117.1,60.3 117.9,59.9 117.8,59 118.5,59.6 
					119.3,59.2 118.9,60.1 119.5,60.7 118.6,60.6 118.2,61.4 118,60.5 				"/>
				<polygon fill-rule="evenodd" clip-rule="evenodd" fill="#FFFFFF" points="116.8,56.8 117.7,56.5 117.7,55.5 118.3,56.3 
					119.2,56 118.6,56.8 119.2,57.6 118.3,57.3 117.7,58 117.7,57.1 				"/>
				<polygon fill-rule="evenodd" clip-rule="evenodd" fill="#FFFFFF" points="117,53.2 118,53.1 118.1,52.1 118.6,53 119.5,52.8 
					118.8,53.5 119.3,54.3 118.4,53.9 117.8,54.6 117.9,53.7 				"/>
				<polygon fill-rule="evenodd" clip-rule="evenodd" fill="#FFFFFF" points="117.8,49.8 118.7,49.7 119,48.8 119.3,49.7 
					120.3,49.7 119.5,50.3 119.9,51.2 119.1,50.6 118.3,51.2 118.6,50.3 				"/>
				<polygon fill-rule="evenodd" clip-rule="evenodd" fill="#FFFFFF" points="119,46.4 120,46.5 120.4,45.7 120.6,46.6 121.5,46.7 
					120.7,47.2 120.9,48.1 120.2,47.5 119.3,47.9 119.7,47.1 				"/>
				<polygon fill-rule="evenodd" clip-rule="evenodd" fill="#FFFFFF" points="120.7,43.3 121.6,43.5 122.1,42.7 122.2,43.7 
					123.1,43.9 122.2,44.3 122.3,45.2 121.7,44.5 120.8,44.9 121.3,44 				"/>
				<polygon fill-rule="evenodd" clip-rule="evenodd" fill="#FFFFFF" points="122.8,40.5 123.7,40.8 124.3,40.1 124.2,41.1 
					125.1,41.4 124.2,41.6 124.1,42.6 123.6,41.8 122.7,42 123.3,41.3 				"/>
				<polygon fill-rule="evenodd" clip-rule="evenodd" fill="#FFFFFF" points="125.3,37.9 126.1,38.4 126.9,37.8 126.7,38.7 
					127.5,39.2 126.5,39.3 126.3,40.2 125.9,39.4 125,39.4 125.7,38.8 				"/>
				<polygon fill-rule="evenodd" clip-rule="evenodd" fill="#FFFFFF" points="128.2,35.8 128.9,36.4 129.7,35.9 129.4,36.8 
					130.1,37.4 129.1,37.3 128.8,38.2 128.6,37.3 127.6,37.2 128.4,36.7 				"/>
				<polygon fill-rule="evenodd" clip-rule="evenodd" fill="#FFFFFF" points="131.3,34.1 131.9,34.8 132.8,34.4 132.3,35.2 
					133,35.9 132,35.7 131.6,36.6 131.5,35.6 130.5,35.4 131.4,35 				"/>
				<polygon fill-rule="evenodd" clip-rule="evenodd" fill="#FFFFFF" points="134.6,32.8 135.1,33.6 136.1,33.3 135.5,34.1 
					136,34.9 135.1,34.6 134.5,35.3 134.6,34.4 133.7,34 134.6,33.8 				"/>
				<polygon fill-rule="evenodd" clip-rule="evenodd" fill="#FFFFFF" points="138.1,32 138.5,32.9 139.4,32.8 138.8,33.4 
					139.2,34.3 138.3,33.8 137.6,34.5 137.8,33.6 137,33.1 137.9,33 				"/>
				<polygon fill-rule="evenodd" clip-rule="evenodd" fill="#FFFFFF" points="164.4,67 163.5,66.9 163.1,67.8 162.9,66.8 
					161.9,66.7 162.8,66.3 162.6,65.3 163.3,66 164.1,65.5 163.7,66.4 				"/>
				<polygon fill-rule="evenodd" clip-rule="evenodd" fill="#FFFFFF" points="162.7,70.1 161.8,69.9 161.3,70.7 161.2,69.7 
					160.3,69.5 161.2,69.2 161.1,68.2 161.7,68.9 162.6,68.6 162.1,69.4 				"/>
				<polygon fill-rule="evenodd" clip-rule="evenodd" fill="#FFFFFF" points="160.6,73 159.7,72.6 159.1,73.3 159.2,72.4 158.3,72 
					159.2,71.8 159.3,70.8 159.8,71.7 160.7,71.4 160.1,72.2 				"/>
				<polygon fill-rule="evenodd" clip-rule="evenodd" fill="#FFFFFF" points="158.1,75.5 157.3,75 156.5,75.6 156.8,74.7 
					155.9,74.2 156.9,74.1 157.1,73.2 157.5,74.1 158.4,74 157.7,74.6 				"/>
				<polygon fill-rule="evenodd" clip-rule="evenodd" fill="#FFFFFF" points="155.2,77.6 154.5,77 153.7,77.5 154.1,76.7 
					153.3,76.1 154.3,76.1 154.6,75.2 154.8,76.1 155.8,76.2 155,76.7 				"/>
				<polygon fill-rule="evenodd" clip-rule="evenodd" fill="#FFFFFF" points="152.1,79.3 151.5,78.6 150.6,79 151.1,78.2 
					150.4,77.5 151.4,77.7 151.8,76.9 152,77.8 152.9,78 152,78.4 				"/>
				<polygon fill-rule="evenodd" clip-rule="evenodd" fill="#FFFFFF" points="148.8,80.6 148.3,79.8 147.3,80.1 147.9,79.3 
					147.4,78.5 148.3,78.9 148.9,78.1 148.8,79 149.7,79.4 148.8,79.6 				"/>
				<polygon fill-rule="evenodd" clip-rule="evenodd" fill="#FFFFFF" points="145.3,81.4 144.9,80.5 144,80.6 144.7,80 144.2,79.1 
					145.1,79.6 145.8,78.9 145.6,79.8 146.4,80.3 145.5,80.4 				"/>
				<polygon fill-rule="evenodd" clip-rule="evenodd" fill="#FFFFFF" points="138.2,81.4 138.1,80.4 137.1,80.3 138,79.9 
					137.8,78.9 138.5,79.6 139.3,79.1 138.9,80 139.6,80.6 138.7,80.5 				"/>
				<polygon fill-rule="evenodd" clip-rule="evenodd" fill="#FFFFFF" points="134.8,80.6 134.7,79.7 133.8,79.4 134.7,79.1 
					134.7,78.1 135.3,78.9 136.2,78.6 135.6,79.3 136.2,80.1 135.3,79.8 				"/>
				<polygon fill-rule="evenodd" clip-rule="evenodd" fill="#FFFFFF" points="131.4,79.4 131.5,78.4 130.7,78.1 131.6,77.9 
					131.7,76.9 132.2,77.7 133.1,77.5 132.5,78.3 133,79.1 132.1,78.7 				"/>
				<polygon fill-rule="evenodd" clip-rule="evenodd" fill="#FFFFFF" points="128.3,77.7 128.6,76.8 127.8,76.3 128.7,76.2 
					128.9,75.3 129.3,76.2 130.3,76.1 129.5,76.7 129.9,77.6 129.1,77.1 				"/>
				<polygon fill-rule="evenodd" clip-rule="evenodd" fill="#FFFFFF" points="125.5,75.6 125.8,74.7 125.1,74.1 126.1,74.2 
					126.4,73.3 126.7,74.2 127.6,74.3 126.8,74.8 127,75.7 126.3,75.1 				"/>
				<polygon fill-rule="evenodd" clip-rule="evenodd" fill="#FFFFFF" points="122.9,73.1 123.4,72.3 122.8,71.5 123.7,71.7 
					124.2,70.9 124.3,71.9 125.2,72.1 124.4,72.5 124.5,73.4 123.8,72.7 				"/>
				<polygon fill-rule="evenodd" clip-rule="evenodd" fill="#FFFFFF" points="120.8,70.2 121.4,69.5 120.9,68.7 121.8,69 
					122.4,68.3 122.3,69.3 123.2,69.6 122.3,69.8 122.3,70.8 121.7,70 				"/>
				<polygon fill-rule="evenodd" clip-rule="evenodd" fill="#FFFFFF" points="119.1,67.1 119.8,66.5 119.4,65.6 120.2,66.1 
					120.9,65.4 120.7,66.4 121.6,66.8 120.6,66.9 120.4,67.9 120,67 				"/>
				<polygon fill-rule="evenodd" clip-rule="evenodd" fill="#FFFFFF" points="141.7,31.8 142,32.7 143,32.7 142.2,33.2 142.5,34.2 
					141.7,33.6 141,34.2 141.3,33.2 140.5,32.7 141.4,32.7 				"/>
				<polygon fill-rule="evenodd" clip-rule="evenodd" fill="#FFFFFF" points="141.8,81.6 141.5,80.7 140.5,80.7 141.3,80.1 
					141,79.2 141.8,79.8 142.6,79.2 142.3,80.1 143,80.7 142.1,80.7 				"/>
			</g>
			<g id="dsadase">
				<path fill-rule="evenodd" clip-rule="evenodd" fill="#37596E" d="M115.7,68c8.7-1.4,17.3-2.4,26-2.4c8.7,0,17.3,1,26,2.4
					c0,1.8,0,3.5,0,5.3c0,1.8,0,3.5,0,5.3c-8.7-1.4-17.3-2.4-26-2.4c-8.7,0-17.3,1-26,2.4c0-1.8,0-3.5,0-5.3
					C115.7,71.5,115.7,69.8,115.7,68z"/>
			</g>
			<g id="dasrer">
				<circle fill-rule="evenodd" clip-rule="evenodd" fill="#FFFFFF" cx="118" cy="73" r="0.8"/>
				<circle fill-rule="evenodd" clip-rule="evenodd" fill="#FFFFFF" cx="165.4" cy="73" r="0.8"/>
			</g>
		
</g>
</svg>
