<svg version="1.1" id="Layer_1" xmlns="http://www.w3.org/2000/svg" xmlns:xlink="http://www.w3.org/1999/xlink" x="0px" y="0px" viewBox="0 0 759 439" enable-background="new 0 0 759 439" xml:space="preserve">
	<g id="band">
	<path id="background" fill-rule="evenodd" clip-rule="evenodd" fill="#FBE485" d="M759.3,164.9H529c-1.2-6.2-6.6-10.8-13.1-10.8h-13.2v-1.2
		c0-7.4-6-13.4-13.4-13.4h-18.7c-21.1-16.5-47.1-26.2-73.7-29.1c-4.2-5.4-10.6-8.6-17.5-8.6c-6.9,0-13.4,3.2-17.5,8.6
		c-26.6,2.9-52.6,12.6-73.7,29.1h-18.7c-7.4,0-13.4,6-13.4,13.4v1.2h-13.2c-6.5,0-11.9,4.7-13.1,10.8H-0.5v109.2h230.2
		c0.7,6.7,6.3,12,13.2,12h13.2v1.2c0,7.4,6,13.4,13.4,13.4h18.7c21.4,16.8,47.8,26.5,74.8,29.2c4.2,4.6,10.1,7.3,16.5,7.3
		c6.3,0,12.3-2.7,16.5-7.3c27-2.8,53.4-12.5,74.8-29.2h18.7c7.4,0,13.4-6,13.4-13.4v-1.2h13.2c6.9,0,12.5-5.3,13.2-12h230.2V164.9z"/>
	<g>
		<polygon fill="none" points="137.6,164.9 1.1,274.1 19.7,274.1 156.3,164.9 		"/>
		<path fill="none" d="M288.4,139.5h-16.6l-15.4,12.3c0,0.4-0.1,0.7-0.1,1.1v1.2h-2.7l-150.1,120h18.6L302,130.3
			C297.3,133.1,292.7,136.1,288.4,139.5z"/>
		<path fill="none" d="M410.3,112.5L208.2,274.1h18.6L424.6,116C419.9,114.6,415.1,113.4,410.3,112.5z"/>
		<path fill="none" d="M362.1,110.4c-8.9,1-17.7,2.8-26.3,5.3L137.6,274.1h20.9l214-171.1C368.4,104.4,364.8,106.9,362.1,110.4z"/>
		<path fill="none" d="M502.9,154.1v-1.2c0-1.6-0.3-3.2-0.9-4.6L300.8,309.2c3.6,2.2,7.3,4.2,11,6.1l201.6-161.2H502.9z"/>
		<path fill="none" d="M489.6,139.5h-10.7L277.4,300.6h11c1.3,1,2.7,1.9,4,2.9L495.6,141C493.8,140.1,491.7,139.5,489.6,139.5z"/>
		<path fill="none" d="M456.7,130L256.6,290c0.8,4,3.5,7.4,7.1,9.2l203.2-162.5C463.6,134.3,460.2,132,456.7,130z"/>
		<path fill="none" d="M397.1,110.4c-2.5-3.2-5.8-5.6-9.5-7.1L174,274.1h18.6l204.7-163.7C397.3,110.4,397.2,110.4,397.1,110.4z"/>
		<polygon fill="none" points="69.3,164.9 -0.3,220.6 -0.3,235.5 88,164.9 		"/>
		<polygon fill="none" points="35.2,164.9 -0.3,193.3 -0.3,208.2 53.9,164.9 		"/>
		<polygon fill="none" points="-0.3,164.9 -0.3,180.9 19.7,164.9 		"/>
		<polygon fill="none" points="103.5,164.9 -0.3,247.9 -0.3,262.8 122.1,164.9 		"/>
		<polygon fill="none" points="205.9,164.9 69.4,274.1 88,274.1 224.6,164.9 		"/>
		<polygon fill="none" points="171.8,164.9 35.2,274.1 53.9,274.1 190.4,164.9 		"/>
		<path fill="none" d="M435.5,119.6L233.1,281.4c2.4,2.8,6,4.7,10,4.7h2.8L447.5,125C443.5,123,439.6,121.2,435.5,119.6z"/>
		<polygon fill="none" points="759.5,164.9 753.5,164.9 617,274.1 635.6,274.1 759.5,175 		"/>
		<polygon fill="none" points="719.4,164.9 582.8,274.1 601.4,274.1 738,164.9 		"/>
		<polygon fill="none" points="759.5,187.4 651.1,274.1 669.7,274.1 759.5,202.3 		"/>
		<polygon fill="none" points="685.2,164.9 548.7,274.1 567.3,274.1 703.9,164.9 		"/>
		<polygon fill="none" points="755.7,274.1 759.5,274.1 759.5,271.1 		"/>
		<polygon fill="none" points="759.5,214.7 685.2,274.1 706.1,274.1 759.5,231.4 		"/>
		<polygon fill="none" points="759.5,243.8 721.6,274.1 740.2,274.1 759.5,258.7 		"/>
		<path fill="none" d="M582.8,164.9L370.1,335c2.9,1.4,6.2,2.2,9.6,2.2c3,0,5.8-0.6,8.5-1.7l213.4-170.6H582.8z"/>
		<path fill="none" d="M616.9,164.9L414.4,326.8c11.6-2.6,22.8-6.6,33.4-11.8l187.7-150.1H616.9z"/>
		<path fill="none" d="M529.2,164.9c-0.6-3-2.2-5.6-4.4-7.5l-203,162.3c4.3,1.7,8.6,3.2,13,4.5L534,164.9H529.2z"/>
		<path fill="none" d="M549.5,164.9l-203,162.3c4.9,1,9.8,1.9,14.7,2.4l206-164.7H549.5z"/>
		<path fill="none" d="M651.1,164.9L481.3,300.6h8.2c7.4,0,13.4-6,13.4-13.4v-1.2h13.2c0.8,0,1.6-0.1,2.4-0.2l9.8-7.8
			c0.5-1.2,0.9-2.6,1.1-4h3.9l136.6-109.2H651.1z"/>
		<path fill="#F1EEEC" d="M302,130.3L122.1,274.1h15.5l198.2-158.4C324,119.1,312.6,123.9,302,130.3z"/>
		<path fill="#F1EEEC" d="M243.1,154.1c-6.5,0-11.9,4.7-13.1,10.8h-5.5L88,274.1h15.5l150.1-120H243.1z"/>
		<path fill="#F1EEEC" d="M269.7,139.5c-7,0-12.7,5.4-13.3,12.3l15.4-12.3H269.7z"/>
		<polygon fill="#F1EEEC" points="190.4,164.9 53.9,274.1 69.4,274.1 205.9,164.9 		"/>
		<polygon fill="#F1EEEC" points="156.3,164.9 19.7,274.1 35.2,274.1 171.8,164.9 		"/>
		<polygon fill="#F1EEEC" points="122.1,164.9 -0.3,262.8 -0.3,274.1 1.1,274.1 137.6,164.9 		"/>
		<polygon fill="#F1EEEC" points="88,164.9 -0.3,235.5 -0.3,247.9 103.5,164.9 		"/>
		<polygon fill="#F1EEEC" points="53.9,164.9 -0.3,208.2 -0.3,220.6 69.3,164.9 		"/>
		<polygon fill="#F1EEEC" points="19.7,164.9 -0.3,180.9 -0.3,193.3 35.2,164.9 		"/>
		<path fill="#F1EEEC" d="M534,164.9L334.8,324.2c3.9,1.2,7.8,2.1,11.8,3l203-162.3H534z"/>
		<path fill="#F1EEEC" d="M516.1,154.1h-2.6L311.9,315.3c3.3,1.6,6.6,3.1,9.9,4.4l203-162.3C522.5,155.3,519.4,154.1,516.1,154.1z"/>
		<path fill="#F1EEEC" d="M495.6,141L292.4,303.5c2.8,2,5.6,3.9,8.5,5.6l201.2-160.9C500.9,145.1,498.6,142.6,495.6,141z"/>
		<path fill="#F1EEEC" d="M470.9,139.5c-1.3-1-2.6-1.9-3.9-2.8L263.7,299.2c1.8,0.9,3.8,1.5,6,1.5h7.7l201.5-161.1H470.9z"/>
		<path fill="#F1EEEC" d="M447.5,125L245.9,286.1h10.4v1.2c0,0.9,0.1,1.8,0.3,2.7l200.1-160C453.7,128.2,450.6,126.5,447.5,125z"/>
		<path fill="#F1EEEC" d="M424.6,116L226.8,274.1h3.1c0.3,2.8,1.5,5.3,3.2,7.3l202.4-161.8C431.9,118.3,428.2,117.1,424.6,116z"/>
		<path fill="#F1EEEC" d="M397.4,110.4L192.7,274.1h15.5l202.1-161.6C406,111.6,401.7,110.9,397.4,110.4z"/>
		<path fill="#F1EEEC" d="M379.6,101.8c-2.4,0-4.8,0.4-7.1,1.2l-214,171.1H174l213.6-170.8C385.1,102.3,382.4,101.8,379.6,101.8z"/>
		<polygon fill="#F1EEEC" points="759.5,202.3 669.7,274.1 685.2,274.1 759.5,214.7 		"/>
		<polygon fill="#F1EEEC" points="759.5,175 635.6,274.1 651.1,274.1 759.5,187.4 		"/>
		<polygon fill="#F1EEEC" points="738,164.9 601.4,274.1 617,274.1 753.5,164.9 		"/>
		<polygon fill="#F1EEEC" points="703.9,164.9 567.3,274.1 582.8,274.1 719.4,164.9 		"/>
		<path fill="#F1EEEC" d="M528.2,278l-9.8,7.8C522.9,285.1,526.5,282.1,528.2,278z"/>
		<polygon fill="#F1EEEC" points="669.7,164.9 533.2,274.1 548.7,274.1 685.2,164.9 		"/>
		<path fill="#F1EEEC" d="M635.6,164.9L447.8,315c8.1-4,15.9-8.8,23-14.4h10.5l169.8-135.7H635.6z"/>
		<path fill="#F1EEEC" d="M601.4,164.9L388.1,335.5c3-1.3,5.8-3.2,8-5.6c6.2-0.6,12.3-1.7,18.3-3l202.5-161.9H601.4z"/>
		<path fill="#F1EEEC" d="M567.3,164.9l-206,164.7c0.6,0.1,1.2,0.2,1.9,0.3c2,2.2,4.3,3.9,6.9,5.1l212.8-170.1H567.3z"/>
		<polygon fill="#F1EEEC" points="759.5,258.7 740.2,274.1 755.7,274.1 759.5,271.1 		"/>
		<polygon fill="#F1EEEC" points="759.5,231.4 706.1,274.1 721.6,274.1 759.5,243.8 		"/>
	</g>
	<rect id="rect" x="-0.5" y="188.9" fill="#F6CC11" width="759.8" height="61.1"/>
		<path id="border" fill-rule="evenodd" clip-rule="evenodd" fill="#F6CC11" d="M379.4,307.2c-1.8,0-3.6-0.7-4.8-2c-2.3-2.4-5.6-3.9-9-4.2
			c-23.5-2.2-45-10-62.1-22.3c-2.5-1.8-5.5-2.8-8.7-2.8h-15.7c-0.3-6.9-6.5-12.4-14.1-12.4h-10.5v-87H265c7.6,0,13.8-5.5,14.1-12.4
			h15.7c3.1,0,6.2-1,8.7-2.8c16.9-12.2,38.1-19.9,61.2-22.3c3.8-0.4,7.3-2.2,9.6-5c1.2-1.4,3.1-2.3,5.1-2.3c2,0,3.9,0.8,5.1,2.3
			c2.3,2.8,5.8,4.6,9.6,5c23.1,2.3,44.3,10,61.2,22.3c2.5,1.8,5.5,2.8,8.7,2.8h15.7c0.3,6.9,6.5,12.4,14.1,12.4h10.5v87h-10.5
			c-7.6,0-13.8,5.5-14.1,12.4H464c-3.1,0-6.2,1-8.7,2.8c-17.1,12.4-38.6,20.1-62.1,22.3c-3.5,0.3-6.7,1.8-9,4.2
			C383,306.5,381.2,307.2,379.4,307.2z"/>
	<path id="content" opacity="0.4" fill-rule="evenodd" clip-rule="evenodd" fill="#D0CFC4" d="M379.4,293.8c-3.5-2.3-7.5-3.7-11.7-4.1
		c-19.8-2-37.7-9-51.9-20.1c-4.6-3.6-10.4-5.6-16.3-5.6H294c-4.1-6.8-11.2-11.6-19.4-12.6v-63.1c8.3-1,15.3-5.8,19.4-12.6h5.4
		c5.9,0,11.7-2,16.3-5.6c14.1-11,31.8-17.9,51.2-20.1c4.5-0.5,8.8-2.2,12.5-4.8c3.7,2.6,8,4.3,12.5,4.8c19.4,2.1,37.1,9.1,51.2,20.1
		c4.6,3.6,10.4,5.6,16.3,5.6h5.4c4.1,6.8,11.2,11.6,19.4,12.6v63.1c-8.2,1-15.3,5.8-19.4,12.6h-5.4c-5.9,0-11.7,2-16.3,5.6
		c-14.2,11.1-32.2,18.1-51.9,20.1C386.9,290.1,382.9,291.5,379.4,293.8z"/>
	<g id="design">
		<path fill-rule="evenodd" clip-rule="evenodd" fill="#FFFFFF" d="M379.4,275.8c0.2,0.8,0.9,2.8,1.7,3.6c0.9,1-0.3,2.3-0.3,2.3
			s0.8,0.9,0.2,1.9c-0.6,0.8-1.3,1.6-1.5,1.9c-0.3-0.3-1-1.1-1.5-1.9c-0.7-1,0.2-1.9,0.2-1.9s-1.2-1.3-0.3-2.3
			C378.4,278.6,379.1,276.5,379.4,275.8z"/>
		<path fill-rule="evenodd" clip-rule="evenodd" fill="#FFFFFF" d="M379.4,270.4c0,0-1.2-1.7-2.8-0.2c-0.7,0.6-1.1,1.6-1.7,2.6
			c-0.8,1.4-1.8,2.8-3.6,3.1c-1.2,0.2-2.1,0-2.8-0.4c-1.1-0.7-1.6-1.9-2.2-3c-1-1.9-2.3-0.5-1.9,0.4c0,0-1.1-2.1,0.5-2.9
			c0,0,1.4-1.2,2.5-0.1c1.1,1.1,0.2,2.1,0.2,2.1s0.7,3.6,3.5,3.1c2.8-0.4,3.2-1.9,4.1-3.5C375.9,269.8,378.1,267.9,379.4,270.4z"/>
		<path fill-rule="evenodd" clip-rule="evenodd" fill="#FFFFFF" d="M379.4,265.2c0,0-1.6-0.1-3.8,2.2c-1.5,1.6-3,2.2-3.8,1.9
			c-1.3-0.3-1.9-2.1-4-1.7c-1.6,0.3-3.7,1-4.4,3.3c-1.1,3.8-7.5,3-8.1-0.1c-0.6-3.1-2.5-1.4-2.5-1.4s3.5-1.6,4,0.2
			c0,0,1.2-0.6,1.6,1c0.4,1.6,0.8,2,2.2,1.7c1.4-0.3,2-1.6,2.9-3.4c0.8-1.8,5-3.7,7.1-1.8c2,1.9,4,0.8,5.1-0.7
			C376.6,265.1,379.4,265.2,379.4,265.2z"/>
		<path fill-rule="evenodd" clip-rule="evenodd" fill="#FFFFFF" d="M376.8,273.5c0,0,0.8,2.2-2.9,2.8c-3.6,0.5-2.7,2.4-2.7,2.4
			s0.7-1.7,2.2-0.5c1.5,1.1,3.8-0.3,3.8-1.5C377.1,275.5,376.8,273.5,376.8,273.5z"/>
		<path fill-rule="evenodd" clip-rule="evenodd" fill="#FFFFFF" d="M382,273.5c0,0-0.8,2.2,2.9,2.8c3.6,0.5,2.7,2.4,2.7,2.4
			s-0.7-1.7-2.2-0.5c-1.5,1.1-3.8-0.3-3.8-1.5C381.6,275.5,382,273.5,382,273.5z"/>
		<path fill-rule="evenodd" clip-rule="evenodd" fill="#FFFFFF" d="M379.4,270.4c0,0,1.2-1.7,2.8-0.2c0.7,0.6,1.1,1.6,1.7,2.6
			c0.8,1.4,1.8,2.8,3.6,3.1c1.2,0.2,2.1,0,2.8-0.4c1-0.7,1.6-1.9,2.2-3c1-1.9,2.3-0.5,1.9,0.4c0,0,1.2-2.1-0.5-2.9
			c0,0-1.4-1.2-2.5-0.1c-1.1,1.1-0.2,2.1-0.2,2.1s-0.7,3.6-3.5,3.1c-2.8-0.4-3.2-1.9-4.1-3.5C382.8,269.8,380.7,267.9,379.4,270.4z"/>
		<path fill-rule="evenodd" clip-rule="evenodd" fill="#FFFFFF" d="M379.4,265.2c0,0,1.6-0.1,3.8,2.2c1.5,1.6,3,2.2,3.8,1.9
			c1.3-0.3,1.9-2.1,4-1.7c1.6,0.3,3.7,1,4.4,3.3c1.1,3.8,7.5,3,8.1-0.1c0.6-3.1,2.5-1.4,2.5-1.4s-3.5-1.6-4,0.2c0,0-1.2-0.6-1.5,1
			c-0.4,1.6-0.8,2-2.2,1.7c-1.4-0.3-2-1.6-2.9-3.4c-0.8-1.8-5-3.7-7.1-1.8c-2,1.9-4,0.8-5.1-0.7
			C382.2,265.1,379.4,265.2,379.4,265.2z"/>
		<path fill-rule="evenodd" clip-rule="evenodd" fill="#FFFFFF" d="M379.4,271.7c0.6,0,1.1-0.5,1.1-1.1c0-0.6-0.5-1.1-1.1-1.1
			c-0.6,0-1.1,0.5-1.1,1.1C378.3,271.2,378.8,271.7,379.4,271.7z"/>
		<path fill-rule="evenodd" clip-rule="evenodd" fill="#FFFFFF" d="M379.4,267c0.6,0,1.1-0.5,1.1-1.1c0-0.6-0.5-1.1-1.1-1.1
			c-0.6,0-1.1,0.5-1.1,1.1C378.3,266.5,378.8,267,379.4,267z"/>
		<path fill-rule="evenodd" clip-rule="evenodd" fill="#FFFFFF" d="M379.4,277.1l-1-3.1c0,0,0.1-0.7,0.4-0.9c0,0-1.1-1-0.9-1.7
			c0.2-0.8,1.1-0.8,1.1-0.8s0.7-1.1,0-1.9c-0.8-0.8,0.5-2.7,0.5-2.7c0,0,1.3,1.8,0.5,2.7c-0.8,0.9,0,1.9,0,1.9s0.9,0.1,1.1,0.8
			c0.2,0.7-0.9,1.7-0.9,1.7c0.2,0.2,0.4,0.9,0.4,0.9L379.4,277.1z"/>
		<path fill-rule="evenodd" clip-rule="evenodd" fill="#FFFFFF" d="M379,266c0,0-0.9-2.2-4-0.2c-3.1,2-3.6,0-3.6,0s1.6,0.8,2-1
			c0.3-1.9,3-2.3,3.8-1.4C378,264.2,379,266,379,266z"/>
		<path fill-rule="evenodd" clip-rule="evenodd" fill="#FFFFFF" d="M379.6,266c0,0,0.9-2.2,4-0.2c3.1,2,3.6,0,3.6,0s-1.6,0.8-2-1
			c-0.3-1.9-3-2.3-3.8-1.4C380.6,264.2,379.6,266,379.6,266z"/>
	</g>
	<text x="88.5" y="229" id="more_text" fill="#FFFFFF" font-family="'ArialMT'" font-size="21.105">More text here</text>
	<text x="544.5" y="232" id="more_text1" fill="#FFFFFF" font-family="'ArialMT'" font-size="21.105">More text here</text>
	<text x="319" y="194.5" id="mike_txt" transform="rotate(345,364,186.15217391304347)" fill="#FFFFFF" font-family="'ArialMT'" font-size="28.5574">MIKE’s</text>
	<text x="275" y="251.5" id="party_txt" fill="#FFFFFF" font-family="aaaiight" font-size="70.7795">party</text>
</g>
</svg>