<svg enable-background="new 0 0 380 220" height="440px" id="Layer_1" version="1.1" viewBox="0 0 380 220" width="760px" x="0px" xml:space="preserve" xmlns="http://www.w3.org/2000/svg" xmlns:xlink="http://www.w3.org/1999/xlink" y="0px"> <g id="Swim"><rect fill="#FBCC34" height="77" id="Outline" width="374.5" x="2" y="56"/> <rect fill="#2E4799" height="74.177" id="Background" width="371.233" x="3.604" y="57.443"/> <g id="BadgeStrip2"> <path d="M195.793,148.822c2.779-1.671,5.954-3.353,9.025-4.795c0.356-0.147,0.7-0.305,1.051-0.459l-14.226-36.275
			L195.793,148.822z" fill="#0057A1"/> <path d="M171.478,143.603c0.284,0.122,0.562,0.251,0.849,0.367c3.128,1.464,6.346,3.168,9.154,4.859l4.139-41.283
			L171.478,143.603z" fill="#0057A1"/> <path d="M195.57,105.081l21.383,32.709c2.85-1.81,5.323-3.706,7.429-5.702l-27.942-27.781
			C196.165,104.579,195.874,104.837,195.57,105.081z" fill="#0057A1"/> <path d="M181.682,87.895l-28.365-43.39l-4.646,5.389c0.19,0.216-2.625,3.842-2.498,4.062
			c1.037,0.985,1.958,2.018,2.772,3.087l31.844,31.661C181.072,88.417,181.368,88.147,181.682,87.895z" fill="#0057A1"/> <path d="M181.318,42.699c-3.638,1.342-7.621,2.19-11.645,2.238l15.945,40.658L181.318,42.699z" fill="#0057A1"/> <path d="M180.888,104.341l-27.953,27.791c2.11,1.996,4.591,3.894,7.442,5.702l21.388-32.718
			C181.46,104.872,181.165,104.613,180.888,104.341z" fill="#0057A1"/> <path d="M196.536,88.738l31.825-31.642c0.781-1.022,1.651-2.013,2.636-2.957c0.156-0.28-4.185-5.78-3.968-6.029
			l-3.033-3.531L195.655,87.93C195.964,88.184,196.257,88.453,196.536,88.738z" fill="#0057A1"/> <path d="M191.647,85.837l16.032-40.886c-4.061-0.034-8.07-0.887-11.727-2.24l-4.31,43.126
			C191.644,85.837,191.646,85.837,191.647,85.837z" fill="#0057A1"/> </g> <path d="M224.848,63.494c0.8-2.215,1.965-4.371,3.514-6.397l-31.825,31.642
		c-0.279-0.285-0.572-0.555-0.881-0.809l28.341-43.351l-2.715-3.155c-4.299,2.553-8.981,3.568-13.602,3.527l-16.032,40.886
		c-0.002,0-0.004,0-0.004,0l4.31-43.126c-2.669-0.986-5.149-2.238-7.319-3.631c-2.17,1.389-4.649,2.635-7.315,3.619l4.301,42.896
		l-15.945-40.658c-4.581,0.056-9.213-0.928-13.438-3.418c-0.096-0.031-1.226,1.156-1.312,1.122l-1.607,1.863l28.365,43.39
		c-0.313,0.253-0.609,0.522-0.894,0.809l-31.844-31.661c4.561,5.99,5.724,13.121,4.374,19.392l24.73,16.471l-27.635-9.018
		c-1.067,2.235-2.028,4.413-2.866,6.537c-0.385,0.975-0.737,1.932-1.075,2.882l28.36,3.326l-30.407,3.563
		c-0.954,4.067-1.37,7.904-1.194,11.523l34.464-11.247l-32.147,21.411c1.601,3.675,4.04,7.081,7.387,10.249l27.953-27.791
		c0.277,0.272,0.572,0.531,0.877,0.775l-21.388,32.718c2.206,1.399,4.622,2.748,7.289,4.041c1.234,0.589,2.511,1.17,3.812,1.728
		l14.142-36.057l-4.139,41.283c3.131,1.885,5.754,3.749,7.153,5.23c1.391-1.488,4.023-3.355,7.159-5.237l-4.149-41.529
		l14.226,36.275c1.259-0.545,2.502-1.107,3.698-1.693c2.702-1.309,5.158-2.67,7.386-4.085l-21.383-32.709
		c0.304-0.244,0.595-0.502,0.869-0.774l27.942,27.781c3.346-3.166,5.771-6.576,7.364-10.249l-32.013-21.323l34.318,11.199
		c0.176-3.617-0.233-7.45-1.191-11.521l-30.403-3.562l28.353-3.325c-1.072-3.021-2.391-6.155-3.951-9.415l-27.479,8.968
		l24.597-16.381C223.079,72.329,223.282,67.809,224.848,63.494z" fill="#2E3393" id="BadgeStrip1"/> <g id="FaceBackground"> <path d="M188.5,159.994l-2.398-2.534
			c-2.169-2.294-8.588-6.226-15.265-9.35c-1.38-0.569-2.893-1.252-4.733-2.131c-13.306-6.453-21.374-14.334-24.663-24.094
			c-3.692-10.943-1.406-23.963,7.195-40.976c2.981-6.501,2.639-16.284-4.872-23.435l-0.41-0.429l-0.191-0.339
			c-1.058-1.891-0.108-3.265,1.329-5.346l0.29-0.421l0.38-0.476l8.541-10.101c0.572-0.498,1.274-0.978,2.375-0.978h0.528
			l0.902,0.315l0.237,0.14c3.341,1.972,7.183,2.972,11.415,2.972c5.849,0,12.248-1.949,17.554-5.347l1.772-1.132l1.766,1.132
			c5.309,3.406,11.702,5.359,17.542,5.359c4.306,0,8.232-1.033,11.667-3.072l2.376-1.414l8.427,10.444l0.367,0.348
			c0.255,0.362,0.534,0.749,0.785,1.097l0.162,0.229c2.472,3.426,3.217,4.46,2.14,6.415l-0.32,0.511l-0.284,0.271
			c-7.913,7.584-7.517,17.28-4.772,23.279c8.603,16.993,10.896,30.015,7.203,40.951c-3.291,9.758-11.372,17.638-24.703,24.089
			c-1.563,0.766-3.198,1.506-4.854,2.202c-6.648,3.125-13.013,7.028-15.111,9.268L188.5,159.994z M144.515,56.271l0.206,0.191
			c8.014,7.626,8.37,18.077,5.171,25.053c-8.434,16.681-10.695,29.357-7.131,39.925c3.165,9.389,10.998,17.004,23.949,23.283
			c1.814,0.866,3.304,1.54,4.689,2.111c6.844,3.203,13.441,7.261,15.715,9.666l1.377,1.459l1.366-1.467
			c2.203-2.355,8.747-6.387,15.561-9.589c1.659-0.698,3.27-1.428,4.813-2.184c12.979-6.28,20.827-13.896,23.991-23.28
			c3.566-10.561,1.298-23.239-7.137-39.902c-2.946-6.438-3.377-16.799,5.063-24.89l0.212-0.2l0.137-0.249
			c0.625-1.138,0.344-1.606-2.05-4.927l-0.164-0.229c-0.239-0.328-0.5-0.693-0.745-1.038l-0.324-0.299l-7.703-9.55l-1.34,0.797
			c-3.652,2.168-7.816,3.268-12.378,3.268c-6.1,0-12.767-2.034-18.294-5.58l-1.016-0.65l-1.019,0.651
			c-5.524,3.537-12.196,5.567-18.306,5.567c-4.485,0-8.562-1.065-12.125-3.166l-0.172-0.102l-0.484-0.16h-0.302
			c-0.61,0-0.986,0.224-1.431,0.609l-0.198,0.195l-8.804,10.558c-1.477,2.139-1.873,2.8-1.267,3.883L144.515,56.271z
			 M188.484,155.446l-0.487-0.472c-2.712-2.622-9.094-6.514-15.881-9.683c-1.414-0.583-2.887-1.247-4.669-2.103
			c-12.513-6.066-20.059-13.358-23.072-22.294c-3.409-10.114-1.173-22.384,7.036-38.613l0.04-0.074
			c3.393-7.38,3.084-18.54-5.305-26.732l-0.396-0.385l0.286-0.474c0.212-0.35,0.589-0.898,0.99-1.479
			c0.323-0.466,0.725-1.049,0.992-1.468l0.33-0.517l-0.061-0.062l0.387-0.508l6.046-7.017l0.058,0.021l0.606-0.568
			c0.092-0.089,0.187-0.179,0.268-0.252l0.374-0.336l0.437,0.249c3.754,2.141,8.027,3.228,12.699,3.231
			c6.301,0,13.207-2.063,18.948-5.663l0.37-0.232l0.371,0.232c5.742,3.608,12.646,5.677,18.941,5.677
			c4.713,0,9.048-1.109,12.88-3.297l0.498-0.285l5.96,6.93l-0.082,0.088l0.343,0.523c0.409,0.628,1.153,1.663,1.679,2.388
			l0.178,0.249c0.73,1.013,1.306,1.814,1.587,2.287l0.28,0.471l-0.392,0.383c-8.849,8.687-8.323,19.754-5.188,26.592l0.032,0.08
			c8.206,16.188,10.451,28.457,7.044,38.561c-3.017,8.933-10.581,16.224-23.126,22.292c-1.502,0.737-3.097,1.459-4.734,2.148
			c-6.928,3.254-13.112,7.03-15.784,9.639L188.484,155.446z M147.525,54.881c8.479,8.627,8.733,20.206,5.169,27.957l-0.053,0.097
			c-8.017,15.852-10.229,27.779-6.946,37.515c2.889,8.563,10.202,15.591,22.357,21.484c1.755,0.842,3.205,1.496,4.562,2.055
			l0.07,0.029c6.668,3.113,12.743,6.779,15.796,9.506c2.983-2.677,9.006-6.316,15.648-9.435l0.073-0.034
			c1.624-0.685,3.195-1.397,4.676-2.121c12.192-5.896,19.524-12.924,22.416-21.485c3.277-9.725,1.059-21.651-6.988-37.533
			l-0.046-0.104c-3.266-7.118-3.859-18.612,5.088-27.74c-0.302-0.447-0.742-1.06-1.229-1.736l-0.178-0.247
			c-0.532-0.733-1.289-1.787-1.715-2.44l-0.787-1.202l-4.579-5.325c-3.919,2.125-8.313,3.201-13.066,3.201
			c-6.416,0-13.43-2.06-19.312-5.661c-5.883,3.593-12.899,5.646-19.318,5.646c-4.732-0.003-9.082-1.066-12.938-3.162l-0.831,0.78
			l-5.575,6.52l-0.623,0.977c-0.276,0.433-0.691,1.034-0.993,1.472C147.948,54.26,147.712,54.6,147.525,54.881z" fill="#FBC926" id="Badge_Outline" stroke="#FBCC34" stroke-miterlimit="10"/> <polygon fill="#FBCC34" points="188.619,140.216 188.886,141.041 189.753,141.041 189.054,141.549 189.319,142.374 
			188.619,141.864 187.918,142.374 188.186,141.549 187.485,141.041 188.353,141.041 		"/> <polygon fill="#FBCC34" points="165.511,130.543 165.778,131.366 166.644,131.366 165.943,131.874 166.212,132.697 
			165.511,132.189 164.81,132.697 165.078,131.874 164.376,131.366 165.243,131.366 		"/> <polygon fill="#FBCC34" points="211.729,130.543 211.995,131.366 212.862,131.366 212.161,131.874 212.43,132.697 
			211.729,132.189 211.025,132.697 211.295,131.874 210.592,131.366 211.458,131.366 		"/> <polygon fill="#FBCC34" points="175.946,135.708 176.214,136.531 177.082,136.531 176.379,137.04 176.647,137.864 
			175.946,137.356 175.246,137.864 175.514,137.04 174.813,136.531 175.678,136.531 		"/> <polygon fill="#FBCC34" points="201.292,135.708 201.56,136.531 202.425,136.531 201.726,137.04 201.993,137.864 201.292,137.356 
			200.59,137.864 200.858,137.04 200.158,136.531 201.022,136.531 		"/> </g> <ellipse cx="188.642" cy="90.14" fill="#E5E4D1" id="CenterCircle" rx="49.399" ry="32.697"/> <g id="CenterCircleOutline"> <path d="M136.784,90.142c0-18.791,23.263-34.077,51.857-34.077
			c28.593,0,51.857,15.286,51.857,34.077c0,18.788-23.265,34.075-51.857,34.075C160.047,124.217,136.784,108.93,136.784,90.142z
			 M237.528,90.142c0-17.98-21.931-32.608-48.887-32.608c-26.957,0-48.888,14.628-48.888,32.608s21.931,32.606,48.888,32.606
			C215.598,122.748,237.528,108.122,237.528,90.142z" fill="#E2C675" stroke="#FFFFFF" stroke-miterlimit="10"/> <path d="M134.61,90.142c0-19.578,24.237-35.506,54.031-35.506
			c29.792,0,54.029,15.928,54.029,35.506s-24.237,35.504-54.029,35.504C158.848,125.646,134.61,109.72,134.61,90.142z
			 M239.576,90.142c0-18.735-22.847-33.976-50.935-33.976c-28.087,0-50.938,15.24-50.938,33.976
			c0,18.732,22.851,33.974,50.938,33.974C216.729,124.115,239.576,108.874,239.576,90.142z" fill="#E2C675" stroke="#FFFFFF" stroke-miterlimit="10"/> </g> <g id="Ribbon"> <linearGradient gradientUnits="userSpaceOnUse" id="SVGID_1_" x1="117.7002" x2="259.5811" y1="124.5801" y2="124.5801"> <stop offset="0" style="stop-color:#000022"/> <stop offset="0.0388" style="stop-color:#000039"/> <stop offset="0.1014" style="stop-color:#031A54"/> <stop offset="0.1654" style="stop-color:#062E6B"/> <stop offset="0.2299" style="stop-color:#033D7E"/> <stop offset="0.2948" style="stop-color:#00488C"/> <stop offset="0.3605" style="stop-color:#005097"/> <stop offset="0.4273" style="stop-color:#00559E"/> <stop offset="0.497" style="stop-color:#0057A1"/> <stop offset="0.6234" style="stop-color:#00559F"/> <stop offset="0.695" style="stop-color:#005299"/> <stop offset="0.753" style="stop-color:#004C92"/> <stop offset="0.8036" style="stop-color:#004487"/> <stop offset="0.8494" style="stop-color:#05397A"/> <stop offset="0.8918" style="stop-color:#062C68"/> <stop offset="0.9315" style="stop-color:#031A54"/> <stop offset="0.9681" style="stop-color:#00003E"/> <stop offset="1" style="stop-color:#000022"/> </linearGradient> <path d="M240.893,114.675c1.354-1.212,16.454-1.584,17.992,0.095
			c-3.028,2.936-6.058,5.873-9.041,8.809c2.983,3.218,6.013,6.435,9.041,9.603c-1.304-1.632-16.361-1.725-17.946-0.094
			c-3.446,3.965-11.839,2.425-12.397,0.094v-18.552C228.636,117.193,237.397,118.777,240.893,114.675L240.893,114.675z
			 M136.342,114.675c-1.352-1.212-16.406-1.584-17.944,0.095c3.028,2.936,6.012,5.873,9.042,8.809
			c-3.03,3.218-6.014,6.435-9.042,9.603c1.304-1.632,16.36-1.725,17.898-0.094c3.449,3.965,11.841,2.425,12.398,0.094v-18.552
			C148.603,117.193,139.883,118.777,136.342,114.675z" fill="#FFFFFF" stroke="url(#SVGID_1_)" stroke-miterlimit="10"/> <linearGradient gradientUnits="userSpaceOnUse" id="SVGID_2_" x1="135.6572" x2="149.1943" y1="128.709" y2="128.709"> <stop offset="0" style="stop-color:#000022"/> <stop offset="0.0388" style="stop-color:#000039"/> <stop offset="0.1014" style="stop-color:#031A54"/> <stop offset="0.1654" style="stop-color:#062E6B"/> <stop offset="0.2299" style="stop-color:#033D7E"/> <stop offset="0.2948" style="stop-color:#00488C"/> <stop offset="0.3605" style="stop-color:#005097"/> <stop offset="0.4273" style="stop-color:#00559E"/> <stop offset="0.497" style="stop-color:#0057A1"/> <stop offset="0.6234" style="stop-color:#00559F"/> <stop offset="0.695" style="stop-color:#005299"/> <stop offset="0.753" style="stop-color:#004C92"/> <stop offset="0.8036" style="stop-color:#004487"/> <stop offset="0.8494" style="stop-color:#05397A"/> <stop offset="0.8918" style="stop-color:#062C68"/> <stop offset="0.9315" style="stop-color:#031A54"/> <stop offset="0.9681" style="stop-color:#00003E"/> <stop offset="1" style="stop-color:#000022"/> </linearGradient> <path d="M148.694,133.273c0-1.304-2.891-2.424-6.245-2.424
			c-3.402,0-6.292-1.072-6.292-2.472c0-1.257,3.122-2.562,6.292-3.261c1.958-0.419,4.146-0.56,6.245-0.419V133.273z" fill="#E5E4D1" stroke="url(#SVGID_2_)" stroke-miterlimit="10"/> <linearGradient gradientUnits="userSpaceOnUse" id="SVGID_3_" x1="228.041" x2="241.6299" y1="128.709" y2="128.709"> <stop offset="0" style="stop-color:#000022"/> <stop offset="0.0388" style="stop-color:#000039"/> <stop offset="0.1014" style="stop-color:#031A54"/> <stop offset="0.1654" style="stop-color:#062E6B"/> <stop offset="0.2299" style="stop-color:#033D7E"/> <stop offset="0.2948" style="stop-color:#00488C"/> <stop offset="0.3605" style="stop-color:#005097"/> <stop offset="0.4273" style="stop-color:#00559E"/> <stop offset="0.497" style="stop-color:#0057A1"/> <stop offset="0.6234" style="stop-color:#00559F"/> <stop offset="0.695" style="stop-color:#005299"/> <stop offset="0.753" style="stop-color:#004C92"/> <stop offset="0.8036" style="stop-color:#004487"/> <stop offset="0.8494" style="stop-color:#05397A"/> <stop offset="0.8918" style="stop-color:#062C68"/> <stop offset="0.9315" style="stop-color:#031A54"/> <stop offset="0.9681" style="stop-color:#00003E"/> <stop offset="1" style="stop-color:#000022"/> </linearGradient> <path d="M228.541,133.273c0-1.304,2.939-2.424,6.292-2.424
			c3.404,0,6.297-1.072,6.297-2.472c0-1.257-3.172-2.562-6.156-3.261c-2.098-0.419-4.286-0.56-6.433-0.419V133.273z" fill="#E5E4D1" stroke="url(#SVGID_3_)" stroke-miterlimit="10"/> <linearGradient gradientUnits="userSpaceOnUse" id="SVGID_4_" x1="135.6113" x2="241.6299" y1="119.1904" y2="119.1904"> <stop offset="0" style="stop-color:#000022"/> <stop offset="0.0388" style="stop-color:#000039"/> <stop offset="0.1014" style="stop-color:#031A54"/> <stop offset="0.1654" style="stop-color:#062E6B"/> <stop offset="0.2299" style="stop-color:#033D7E"/> <stop offset="0.2948" style="stop-color:#00488C"/> <stop offset="0.3605" style="stop-color:#005097"/> <stop offset="0.4273" style="stop-color:#00559E"/> <stop offset="0.497" style="stop-color:#0057A1"/> <stop offset="0.6234" style="stop-color:#00559F"/> <stop offset="0.695" style="stop-color:#005299"/> <stop offset="0.753" style="stop-color:#004C92"/> <stop offset="0.8036" style="stop-color:#004487"/> <stop offset="0.8494" style="stop-color:#05397A"/> <stop offset="0.8918" style="stop-color:#062C68"/> <stop offset="0.9315" style="stop-color:#031A54"/> <stop offset="0.9681" style="stop-color:#00003E"/> <stop offset="1" style="stop-color:#000022"/> </linearGradient> <path d="M188.644,113.836c-19.3,0-34.121-10.022-46.194-6.99
			c-1.399,0.278-6.245,1.491-6.338,3.262l0.046,18.411c0.047-1.958,4.474-2.889,6.292-3.307c12.073-3.124,26.895,6.895,46.194,6.895
			c19.296,0,34.069-10.019,46.189-6.895c1.771,0.418,6.247,1.349,6.297,3.307v-18.411c-0.05-1.771-4.945-2.983-6.297-3.262
			C222.713,103.813,207.939,113.836,188.644,113.836z" fill="#FFFFFF" stroke="url(#SVGID_4_)" stroke-miterlimit="10"/> </g> <g id="CornerDesign"> <path d="M26.813,64.207c-2.558,0.508-5.136,2.334-6.988,5.01c-1.859,2.659-3.053,6.251-2.794,10.11
			c0.271,3.15,1.293,6.421,3.208,9.358c-0.069,0.113-0.14,0.228-0.204,0.346c-2.38,4.595-2.124,9.839-0.735,14.302
			c1.484,4.518,4.484,8.17,7.802,10.869c3.304,2.827,7.218,4.314,10.763,5.534c3.588,1.227,7.056,2.002,10.259,2.377
			c13.098,1.568,20.357-3.67,20.145-3.562c0.206-0.092-7.184,4.879-20.081,3.061c-3.155-0.432-6.568-1.262-10.097-2.523
			c-3.531-1.288-7.282-2.765-10.448-5.543c-3.193-2.662-6.04-6.204-7.424-10.514c-1.307-4.198-1.478-9.296,0.659-13.43
			c0.231,0.314,0.471,0.627,0.725,0.933c1.427,1.606,3.56,3.036,6.04,2.84c2.432-0.202,4.708-2.251,4.698-5.001
			c-0.595-2.915-3.784-3.739-6.158-3.509c-2.136,0.191-4.115,1.395-5.437,3.093c-1.735-2.705-2.745-5.799-3.024-8.681
			c-0.309-3.687,0.774-7.168,2.521-9.776c1.739-2.621,4.193-4.438,6.64-4.98c2.464-0.604,4.697,0.264,6.054,1.366
			c0.668,0.716,0.871,1.62,0.75,2.334c0.033-0.648-0.279-1.295-0.871-1.663c-0.865-0.539-2.005-0.271-2.543,0.596
			c-0.539,0.867-0.271,2.006,0.595,2.545c0.868,0.537,2.007,0.27,2.545-0.597c0.052-0.081,0.092-0.164,0.128-0.249
			c0.444-0.751,0.416-2.057-0.507-3.09C31.685,64.604,29.396,63.638,26.813,64.207z M26.285,85.856
			c2.103-0.271,4.788,0.691,5.094,2.626c0.048,1.92-1.835,3.881-3.822,3.98c-2.045,0.188-3.977-1.011-5.326-2.504
			c-0.311-0.362-0.604-0.736-0.881-1.119C22.52,87.185,24.32,86.046,26.285,85.856z" fill="#FFFFFF"/> <path d="M52.968,100.942c-3.444,2.638-5.035,7.455-3.564,11.249c1.493,3.742,4.716,6.088,7.565,7.238
			c2.967,1.121,5.694,0.698,7.389,0.18c1.73-0.54,2.586-1.15,2.586-1.141c0-0.01-0.869,0.585-2.602,1.086
			c-1.698,0.488-4.409,0.846-7.3-0.314c-2.774-1.166-5.91-3.583-7.254-7.185c-1.333-3.641,0.282-8.183,3.569-10.602
			c1.619-1.215,3.669-1.902,5.625-1.642c1.926,0.303,3.77,1.381,4.838,2.903c2.324,3.006,1.085,7.872-1.96,8.333
			c-1.399,0.235-2.979-0.122-3.812-0.823c-0.849-0.747-0.918-1.865-0.646-2.671c0.701-1.764,1.884-1.45,2.144-1.38
			c0.772,0.151,1.321,0.691,1.56,1.23c-0.488-0.254-1.098-0.105-1.399,0.369c-0.319,0.5-0.173,1.162,0.326,1.484
			c0.344,0.217,0.76,0.213,1.092,0.03c0.312-0.08,0.7-0.332,0.984-0.954c0.504-1.188-0.494-3.069-2.277-3.418
			c-0.217-0.041-0.693-0.188-1.564,0.032c-0.829,0.255-1.648,1.065-2.035,2.221c-0.383,1.119-0.249,2.844,1.055,3.945
			c1.324,0.993,2.988,1.303,4.804,0.996c4.025-0.851,5.105-6.615,2.441-9.914c-1.274-1.718-3.279-2.841-5.454-3.144
			C56.874,98.805,54.665,99.616,52.968,100.942z" fill="#FFFFFF"/> <path d="M53.934,107.473c0,0-3.645,0.193-2.483,4.839c1.162,4.645,6.654,6.7,8.305,6.991
			c0,0-3.199-1.814-3.662-5.399c-0.461-3.584-1.362-3.014-2.269-3.749C52.915,109.423,52.633,107.712,53.934,107.473z" fill="#FFFFFF"/> <path d="M66.138,92.097c-0.882,0.66-0.286,1.043,0.017,0.93c0.302-0.114,0.342-0.775,0.994-0.358
			c0.65,0.415,0.094,2.126-1.546,1.459c-1.639-0.665-5.65-4.994-10.962-0.201c-2.532,2.281-2.423,6.178-2.423,6.178
			s0.95-4.595,6.979-3.494c6.028,1.103,7.484-0.339,8.435-2.182C68.578,92.587,67.019,91.436,66.138,92.097z" fill="#FFFFFF"/> <path d="M50.133,99.273c0.162,3.649-0.832,5.816-0.785,5.801c-0.05,0.01,1.072-2.092,1.038-5.811
			c0.062-3.518-2.213-9.358-7.997-10.977c-1.412-0.32-3.055,0.165-3.89,1.324c-0.993,1.071-0.829,2.863,0.172,3.723
			c0.853,0.964,2.459,1.191,3.339,0.341c0.87-0.737,1.158-2.077,0.481-2.875c-0.697-0.705-1.671-0.85-2.384-0.583
			c-0.737,0.369-0.778,1.222-0.58,1.674c0.459,0.893,1.163,0.666,1.301,0.63c-0.138,0.027-0.842,0.205-1.227-0.657
			c-0.171-0.44-0.078-1.22,0.571-1.5c0.611-0.219,1.573-0.026,2.122,0.597c0.544,0.673,0.27,1.829-0.508,2.449
			c-0.774,0.693-2.047,0.483-2.812-0.373c-2.009-1.756,0.658-5.098,3.327-4.251c2.698,0.479,4.587,2.646,5.928,4.527
			C49.528,95.312,50.037,97.475,50.133,99.273z" fill="#FFFFFF"/> <path d="M49.787,93.5c2.216,3.711,1.106,7.362,1.106,7.362c2.204-4.405-0.101-10.851-1.356-10.2
			C48.277,91.311,49.787,93.5,49.787,93.5z" fill="#FFFFFF"/> <path d="M40.745,100.341c1.15,0.353,1.113-0.667,1.215-1.061c0.099-0.395,1.005-0.735,1.111,0.177
			c0.107,0.907-0.918,3.466,1.306,3.816c2.225,0.351,3.485-0.062,4.225,3.085c0,0,0.831-5.13-3.305-7.392
			C41.158,96.704,39.595,99.988,40.745,100.341z" fill="#FFFFFF"/> <path d="M42.52,109.889c-1.51,0.565-2.428,0.208-2.662-0.86c0,0-2.219,8.374,12.543,11.845
			c0,0-5.798-2.175-9.633-6.468c0,0,8.353,6.797,12.115,6.295c0,0-3.678,0.251-6.102-5.891
			C46.356,108.671,44.028,109.324,42.52,109.889z" fill="#FFFFFF"/> <path d="M38.429,112.937c-0.541-5.017-1.048-4.344-2.376-5.497c-1.326-1.155-0.93-3.809,1.769-3.843
			c2.7-0.033,3.445,2.508,2.257,3.05c-1.187,0.542-1.854-0.805-1.216-1.084c0,0-1.554,0.153-0.647,1.726
			c0.905,1.574,4.493-0.567,1.698-3.731c-2.796-3.165-9.249,0.586-7.992,6.517c0,0,1.503,8.533,13.937,9.909
			C45.857,119.982,38.972,117.947,38.429,112.937z" fill="#FFFFFF"/> <path d="M27.156,105.803c0,0-0.226-3.357-0.798-4.259c-0.571-0.899-3.16-1.637-1.98-5.396
			c0,0-4.938,5.334,0.729,12.86c0,0,5.02,6.268,10.921,8.282C36.027,117.29,28.472,113.91,27.156,105.803z" fill="#FFFFFF"/> <path d="M31.441,98.98c-3.857,4.953-1.424,12.631,0.262,13.707c0,0-3.372-4.482-0.595-10.555
			c2.11-4.617,5.423-4.411,6.342-4.054c0.917,0.357,2.553,0.791,2.571-1.031C40.04,95.223,35.297,94.026,31.441,98.98z" fill="#FFFFFF"/> <path d="M32.155,118.561c-2.727-1.36-7.474-2.79-10.746-2.817c0,0,3.136-0.595,8.138,1.15
			c0,0-7.945-3.244-11.806-12.521c-3.86-9.277,1.265-10.59-1.059-15.212c-2.323-4.623-4.096-1.014-2.708-0.432
			c0,0,0.103-1.235,1.242-0.506c1.14,0.729,1.351,1.476,0.339,2.817s-6.201,3.837-4.474,9.15c1.728,5.312,7.412,6.114,7.123,8.839
			c0,0-0.342,0.775-1.27-0.046c-0.929-0.825-3.703-7.014-10.721-5.611c0,0-2.018,0.512-2.61,1.768v1.404
			c0.593,1.675,2.24,0.479,2.011,0.042c0,0-0.626,0.62-1.356-0.154c-0.729-0.772-0.081-1.605,0.903-1.587
			c0.983,0.017,1.22,0.155,1.905,2.431c0.688,2.275,1.929,4.059,4.353,3.618c2.423-0.441,6.399-1.267,7.311,0.539
			c0.91,1.806-0.734,1.748-1.591,0.816c-0.859-0.93-4.972-0.96-4.632,1.857c0,0,0.104-1.233,0.842,0.003
			c0.739,1.236,2.007,4.879,6.168,5.55c4.159,0.671,6.533-1.484,11.473-0.237c4.94,1.249,6.37,1.166,7.477,1.109
			C38.467,120.532,34.88,119.919,32.155,118.561z" fill="#FFFFFF"/> <path d="M11.733,78.957c0.569,0.9,0.335,1.745,2.11,1.962c1.774,0.216,3.184,1.96,3.184,1.96
			c-0.681-2.883-1.969-5.773-4.6-5.849c-2.629-0.074-2.905,2.272-2.905,2.272C9.721,78.513,11.159,78.057,11.733,78.957z" fill="#FFFFFF"/> <path d="M23.399,80.451c-0.743-1.47,1.043-2.47,1.043-2.47c-6.346,1.068-3.787,7.6-3.787,7.6
			c-0.364-3.14,1.107-4.723,1.107-4.723c-0.825,1.767-0.775,4.322-0.775,4.322C23.544,84.292,24.143,81.921,23.399,80.451z" fill="#FFFFFF"/> <path d="M25.831,74.535c-4.643-0.317-7.011,4.823-6.907,7.414c0,0,0.62-4.644,4.011-6.156
			c3.104-1.382,4.485,1.721,3.193,2.425s-0.371,2.667,1.216,1.925C30.18,78.82,28.823,74.739,25.831,74.535z" fill="#FFFFFF"/> <path d="M348.993,71.332c-0.837,0.938-0.864,2.122-0.459,2.803c0.032,0.077,0.069,0.153,0.115,0.226
			c0.487,0.786,1.521,1.027,2.307,0.541c0.786-0.488,1.028-1.521,0.541-2.308c-0.488-0.786-1.521-1.028-2.31-0.541
			c-0.535,0.334-0.818,0.92-0.789,1.508c-0.108-0.647,0.078-1.467,0.683-2.115c1.229-1.002,3.255-1.788,5.489-1.239
			c2.219,0.493,4.445,2.139,6.022,4.517c1.584,2.365,2.566,5.522,2.286,8.867c-0.254,2.612-1.168,5.419-2.744,7.872
			c-1.197-1.54-2.991-2.632-4.93-2.805c-2.153-0.21-5.045,0.538-5.584,3.182c-0.01,2.495,2.056,4.353,4.261,4.536
			c2.25,0.178,4.183-1.119,5.478-2.576c0.23-0.276,0.447-0.561,0.659-0.846c1.936,3.75,1.781,8.374,0.594,12.182
			c-1.253,3.907-3.833,7.12-6.73,9.534c-2.871,2.518-6.272,3.859-9.477,5.025c-3.2,1.148-6.293,1.9-9.156,2.294
			c-11.697,1.646-18.399-2.863-18.213-2.778c-0.193-0.099,6.394,4.655,18.271,3.23c2.903-0.341,6.05-1.046,9.304-2.153
			c3.216-1.108,6.765-2.458,9.762-5.021c3.009-2.449,5.73-5.76,7.074-9.859c1.259-4.047,1.492-8.803-0.666-12.971
			c-0.06-0.106-0.122-0.209-0.185-0.313c1.736-2.663,2.661-5.63,2.909-8.488c0.235-3.499-0.848-6.756-2.535-9.169
			c-1.679-2.426-4.017-4.082-6.337-4.543C352.291,69.405,350.213,70.281,348.993,71.332z M359.588,92.263
			c-0.253,0.348-0.517,0.687-0.798,1.015c-1.224,1.354-2.977,2.441-4.832,2.271c-1.801-0.09-3.508-1.869-3.466-3.61
			c0.276-1.755,2.712-2.627,4.62-2.381C356.895,89.729,358.527,90.762,359.588,92.263z" fill="#FFFFFF"/> <path d="M330.914,103.237c3.122,2.393,4.563,6.764,3.232,10.202c-1.355,3.396-4.278,5.526-6.864,6.566
			c-2.689,1.017-5.162,0.634-6.699,0.162c-1.57-0.489-2.346-1.043-2.346-1.033c0-0.01,0.787,0.528,2.358,0.986
			c1.541,0.44,4.001,0.766,6.622-0.288c2.516-1.058,5.359-3.249,6.579-6.516c1.208-3.3-0.257-7.422-3.237-9.615
			c-1.471-1.102-3.327-1.725-5.104-1.487c-1.744,0.274-3.415,1.252-4.386,2.632c-2.107,2.728-0.984,7.14,1.779,7.56
			c1.269,0.212,2.702-0.112,3.454-0.749c0.771-0.678,0.835-1.69,0.588-2.423c-0.639-1.599-1.71-1.314-1.945-1.25
			c-0.701,0.136-1.197,0.627-1.414,1.115c0.442-0.23,0.996-0.095,1.269,0.335c0.29,0.452,0.157,1.054-0.295,1.346
			c-0.312,0.197-0.689,0.194-0.991,0.03c-0.282-0.075-0.635-0.304-0.893-0.867c-0.455-1.078,0.449-2.782,2.067-3.099
			c0.194-0.037,0.628-0.171,1.418,0.028c0.752,0.23,1.495,0.966,1.846,2.013c0.348,1.017,0.226,2.582-0.957,3.578
			c-1.201,0.901-2.71,1.183-4.356,0.904c-3.651-0.772-4.63-6-2.215-8.99c1.157-1.557,2.976-2.577,4.947-2.853
			C327.37,101.3,329.374,102.035,330.914,103.237z" fill="#FFFFFF"/> <path d="M330.038,109.162c0,0,3.304,0.176,2.25,4.388c-1.053,4.213-6.033,6.078-7.53,6.341
			c0,0,2.9-1.646,3.32-4.896c0.418-3.253,1.236-2.734,2.059-3.4C330.961,110.929,331.217,109.377,330.038,109.162z" fill="#FFFFFF"/> <path d="M318.969,95.217c0.8,0.599,0.258,0.945-0.017,0.843c-0.271-0.104-0.311-0.703-0.901-0.325
			c-0.59,0.377-0.085,1.928,1.402,1.323c1.486-0.603,5.125-4.529,9.942-0.183c2.296,2.07,2.197,5.604,2.197,5.604
			s-0.862-4.168-6.329-3.171c-5.468,0.999-6.789-0.307-7.648-1.978C316.757,95.66,318.169,94.617,318.969,95.217z" fill="#FFFFFF"/> <path d="M333.483,101.725c-0.147,3.311,0.754,5.275,0.714,5.262c0.044,0.011-0.975-1.898-0.942-5.27
			c-0.056-3.191,2.008-8.488,7.253-9.955c1.28-0.291,2.771,0.148,3.526,1.2c0.901,0.973,0.753,2.598-0.154,3.377
			c-0.775,0.873-2.23,1.08-3.028,0.309c-0.791-0.668-1.053-1.884-0.438-2.606c0.632-0.642,1.517-0.771,2.162-0.529
			c0.669,0.333,0.706,1.107,0.526,1.519c-0.417,0.809-1.056,0.604-1.181,0.57c0.125,0.025,0.764,0.187,1.113-0.595
			c0.154-0.401,0.069-1.106-0.519-1.361c-0.556-0.198-1.427-0.024-1.925,0.54c-0.494,0.61-0.243,1.66,0.459,2.222
			c0.703,0.63,1.858,0.438,2.554-0.338c1.821-1.593-0.599-4.623-3.018-3.855c-2.449,0.435-4.16,2.399-5.377,4.106
			C334.032,98.132,333.572,100.094,333.483,101.725z" fill="#FFFFFF"/> <path d="M333.797,96.488c-2.009,3.366-1.003,6.679-1.003,6.679c-1.999-3.995,0.092-9.841,1.231-9.253
			C335.164,94.504,333.797,96.488,333.797,96.488z" fill="#FFFFFF"/> <path d="M341.996,102.692c-1.043,0.321-1.008-0.604-1.099-0.961c-0.092-0.357-0.912-0.665-1.009,0.158
			c-0.098,0.826,0.83,3.147-1.186,3.464c-2.016,0.318-3.159-0.06-3.83,2.797c0,0-0.756-4.651,2.997-6.703
			C341.622,99.396,343.042,102.372,341.996,102.692z" fill="#FFFFFF"/> <path d="M340.389,111.353c1.369,0.513,2.201,0.188,2.414-0.779c0,0,2.013,7.593-11.376,10.744
			c0,0,5.259-1.976,8.738-5.865c0,0-7.577,6.163-10.989,5.707c0,0,3.336,0.226,5.533-5.341
			C336.907,110.248,339.02,110.841,340.389,111.353z" fill="#FFFFFF"/> <path d="M344.097,114.115c0.493-4.547,0.952-3.938,2.155-4.985c1.204-1.047,0.844-3.453-1.603-3.483
			c-2.448-0.032-3.126,2.273-2.047,2.765c1.076,0.491,1.683-0.729,1.104-0.982c0,0,1.409,0.139,0.588,1.565
			c-0.822,1.428-4.076-0.515-1.542-3.385c2.536-2.87,8.39,0.534,7.249,5.912c0,0-1.363,7.739-12.642,8.984
			C337.359,120.506,343.605,118.66,344.097,114.115z" fill="#FFFFFF"/> <path d="M354.322,107.646c0,0,0.204-3.044,0.724-3.862c0.517-0.814,2.865-1.484,1.796-4.894
			c0,0,4.479,4.836-0.661,11.663c0,0-4.552,5.686-9.903,7.512C346.277,118.064,353.13,115.001,354.322,107.646z" fill="#FFFFFF"/> <path d="M350.437,101.459c3.498,4.493,1.289,11.457-0.237,12.431c0,0,3.056-4.063,0.539-9.571
			c-1.915-4.188-4.918-4.001-5.752-3.676c-0.832,0.323-2.315,0.718-2.333-0.937C342.637,98.052,346.938,96.966,350.437,101.459z" fill="#FFFFFF"/> <path d="M374.789,107.293v-0.536c0-0.927-1.842-1.313-1.842-1.313c-6.363-1.272-8.628,4.34-9.468,5.089
			c-0.843,0.746-1.097,0.043-1.097,0.043c-0.261-2.472,4.922-3.199,6.49-8.019c1.565-4.817-3.129-7.08-4.046-8.298
			c-0.916-1.217-0.718-1.894,0.315-2.555c1.035-0.663,1.132,0.458,1.132,0.458c1.259-0.527-0.349-3.8-2.455,0.392
			c-2.107,4.192,2.541,5.383-0.96,13.798c-3.5,8.413-10.707,11.355-10.707,11.355c4.539-1.584,7.383-1.044,7.383-1.044
			c-2.968,0.025-7.274,1.321-9.746,2.557c-2.472,1.231-5.726,1.785-5.726,1.785c1.004,0.051,2.301,0.126,6.781-1.004
			s6.632,0.821,10.405,0.215c3.774-0.61,4.923-3.912,5.594-5.035c0.669-1.121,0.761,0,0.761,0c0.308-2.556-3.421-2.53-4.2-1.687
			c-0.779,0.847-2.27,0.897-1.443-0.741c0.825-1.638,4.427-0.889,6.624-0.489c2.197,0.4,3.315-1.216,3.938-3.279
			c0.622-2.063,0.593-2.19,1.484-2.206C374.487,106.77,374.789,106.985,374.789,107.293z" fill="#FFFFFF"/> <path d="M374.789,107.888c0,0.11,0.108,0.223,0.003,0.332c-0.662,0.7-1.413,0.138-1.413,0.138
			c-0.189,0.36,1.41,1.292,1.41,0.309V107.888z" fill="#FFFFFF"/> <path d="M368.311,83.3c-0.519,0.817-0.307,1.583-1.914,1.778c-1.609,0.196-2.889,1.778-2.889,1.778
			c0.618-2.615,1.785-5.236,4.171-5.304c2.385-0.067,2.636,2.061,2.636,2.061C370.134,82.896,368.829,82.482,368.311,83.3z" fill="#FFFFFF"/> <path d="M357.729,84.653c0.674-1.332-0.947-2.238-0.947-2.238c5.755,0.969,3.436,6.892,3.436,6.892
			c0.33-2.847-1.004-4.283-1.004-4.283c0.748,1.603,0.702,3.921,0.702,3.921C357.598,88.138,357.055,85.987,357.729,84.653z" fill="#FFFFFF"/> <path d="M355.523,79.289c4.21-0.288,6.359,4.374,6.265,6.724c0,0-0.561-4.212-3.637-5.582
			c-2.814-1.254-4.067,1.56-2.897,2.198c1.171,0.639,0.338,2.419-1.104,1.746C351.58,83.175,352.812,79.474,355.523,79.289z" fill="#FFFFFF"/> </g> </g> </svg>