<svg version="1.1" id="Layer_1" xmlns="http://www.w3.org/2000/svg" xmlns:xlink="http://www.w3.org/1999/xlink" x="0px" y="0px" viewBox="0 0 283.5 113.4" enable-background="new 0 0 283.5 113.4" xml:space="preserve">
<g>
	<path fill-rule="evenodd" clip-rule="evenodd" fill="#303231" d="M249.8,41.2l-81.1,0.1c0-1.4-0.8-3.6-3.1-5
		c-1.6-1-3.4-1.3-4.8-1.1c-5-5.3-11.7-8.5-19-8.5c-7.4,0-14.1,3.3-19.2,8.7c-1.5-0.5-3.7-0.4-5.6,0.8c-2.2,1.4-3.1,3.5-3.1,5
		l-80.1-0.1v31l80.1-0.1c0,1.5,0.9,3.6,3.1,5c1.9,1.2,4.1,1.4,5.6,0.9c5,5.4,11.8,8.7,19.2,8.7c7.3,0,13.9-3.2,19-8.5
		c1.4,0.2,3.2-0.1,4.8-1.1c2.3-1.4,3.1-3.5,3.1-5l81.1,0.1V41.2z"/>
	<polygon fill-rule="evenodd" clip-rule="evenodd" fill="#015C6B" points="249.8,63.6 165.8,63.6 117.5,63.6 33.6,63.6 33.7,50.3 
		118,50.5 165.1,50.5 249.8,50.3 	"/>
	<g>
		<path fill="#F1F1F2" d="M142.1,82.3c-14,0-25.3-11.4-25.3-25.3c0-14,11.4-25.3,25.3-25.3c14,0,25.3,11.4,25.3,25.3
			C167.4,71,156.1,82.3,142.1,82.3z"/>
		<circle fill="#F9F5E3" cx="142.1" cy="57" r="23.8"/>
		<circle fill="#015C6B" cx="142.1" cy="56.8" r="20.2"/>
		<g>
			<g>
				<circle fill="#F9F5E3" cx="136.8" cy="43.1" r="0.3"/>
				<path fill="#F9F5E3" d="M147.7,43.6c-0.2,0-0.3,0.1-0.3,0.3c0,0,0,0,0,0c0-0.2-0.1-0.3-0.2-0.5c-0.1-0.3-0.3-0.5-0.5-0.7
					c0,0,0.1,0,0.1,0c0.1,0,0.3-0.1,0.3-0.3c0-0.1-0.1-0.3-0.3-0.3c-0.1,0-0.3,0.1-0.3,0.3c0,0.1,0,0.1,0.1,0.2
					c-0.5-0.4-1.2-0.7-1.9-0.8c0.1,0,0.2-0.1,0.2-0.2c0-0.1-0.1-0.2-0.2-0.2c-0.1,0-0.2,0.1-0.2,0.2c0,0.1,0,0.1,0.1,0.2
					c-0.1,0-0.2-0.1-0.3-0.1c0,0-0.1,0-0.1,0c0.1,0,0.1-0.1,0.1-0.1c0-0.1-0.1-0.1-0.1-0.1c-0.1,0-0.1,0.1-0.1,0.1c0,0,0,0.1,0,0.1
					c-0.1,0-0.3-0.1-0.4-0.1c0,0,0,0,0-0.1c0,0,0-0.1-0.1-0.1s-0.1,0-0.1,0.1c0,0,0,0,0,0c0,0-0.1,0-0.1,0c0,0-0.2,0-0.3,0
					c-0.1-0.1-0.3-0.2-0.4-0.2c-0.4-0.2-0.2,0.2-0.1,0.4c0.4,0.4,1,0.7,1.4,1.1c0.4,0.5,0.6,1.1,0.4,1.7l0,0c-0.3,0-0.6-0.1-0.7,0.3
					c-0.1,0.3,0,0.7,0.2,0.8c0-0.2,0.1-0.6,0.3-0.4c0.1,0.1-0.1,0.5,0,0.6c-0.2,0-0.3,0.2-0.2,0.3c-0.1,0.1-0.3,0-0.4,0
					c-0.2,0-0.2,0-0.3-0.1c-0.1-0.2-0.4-0.2-0.5,0.1c-0.1,0-0.3,0-0.4,0h0c0-0.1,0.2-0.2,0-0.3c0,0,0,0,0,0c0-0.2-0.1-0.3,0.1-0.5
					c0.1-0.2,0.3,0,0.4-0.1c0,0,0-0.1,0-0.1c0.1,0.1,0,0.3-0.1,0.4c0,0,0,0,0,0c0.4-0.3,0.5-1.2-0.1-1.3h0c0-0.5,0.1-1.1-0.1-1.7
					c-0.1-0.5-0.3-1-0.3-1.5c0,0,0.1,0,0.1,0c0.1-0.1,0-0.3-0.1-0.2c0-0.3,0.1-0.4,0.2-0.6c0.2,0,0.1,0.2,0.2,0.3
					c0.2-0.2,0.4-0.4,0.3-0.7c-0.1-0.2-0.5-0.5-0.6-0.2c0-0.4-0.2-0.8-0.4-1h0c-0.3,0.2-0.4,0.7-0.4,1c-0.1-0.3-0.5,0.1-0.6,0.2
					c-0.1,0.3,0.1,0.5,0.3,0.7c0.1-0.1,0-0.3,0.2-0.3c0.1,0.2,0.2,0.3,0.2,0.6c-0.1-0.1-0.2,0.1-0.1,0.2c0.1,0,0.1,0,0.2,0
					c0,0.5-0.1,1-0.3,1.5c-0.1,0.6,0,1.1-0.1,1.7h0c-0.6,0.1-0.5,1-0.1,1.3c0,0,0,0,0,0c0-0.1-0.2-0.3-0.1-0.4c0,0,0,0.1,0,0.1
					c0.1,0.1,0.3-0.1,0.4,0.1c0.1,0.2,0,0.3,0.1,0.5c0,0,0,0,0,0c-0.2,0.1,0.1,0.3,0,0.3h0c-0.1,0-0.3,0-0.4,0
					c0-0.3-0.3-0.2-0.5-0.1c-0.1,0.1-0.1,0.1-0.3,0.1c-0.1,0-0.3,0-0.4,0c0.1-0.2,0-0.4-0.2-0.3c0-0.2-0.2-0.5,0-0.6
					c0.2-0.2,0.3,0.2,0.3,0.4c0.3-0.1,0.3-0.5,0.2-0.8c-0.1-0.4-0.4-0.3-0.7-0.3l0,0c-0.1-0.6,0-1.2,0.4-1.7c0.4-0.4,1-0.7,1.4-1.1
					c0.2-0.2,0.4-0.5-0.1-0.4c-0.1,0.1-0.3,0.1-0.4,0.2c-0.1,0-0.2,0-0.3,0c0,0,0,0-0.1,0c0,0,0,0,0,0c0,0,0-0.1-0.1-0.1
					c0,0-0.1,0-0.1,0.1c0,0,0,0.1,0,0.1c-0.1,0-0.3,0.1-0.4,0.1c0,0,0,0,0-0.1c0-0.1-0.1-0.1-0.1-0.1c-0.1,0-0.1,0.1-0.1,0.1
					c0,0.1,0,0.1,0.1,0.1c0,0-0.1,0-0.1,0c-0.1,0-0.2,0-0.3,0.1c0,0,0.1-0.1,0.1-0.1c0-0.1-0.1-0.2-0.2-0.2c-0.1,0-0.2,0.1-0.2,0.2
					c0,0.1,0.1,0.2,0.1,0.2c-0.2,0-0.3,0.1-0.5,0.1c0.1,0,0.1-0.1,0.1-0.2c0-0.1-0.1-0.2-0.2-0.2c-0.1,0-0.2,0.1-0.2,0.2
					c0,0.1,0.1,0.2,0.2,0.2c0,0,0,0,0,0c-0.2,0.1-0.4,0.1-0.6,0.2c0,0,0.1-0.1,0.1-0.2c0-0.1-0.1-0.3-0.3-0.3
					c-0.1,0-0.3,0.1-0.3,0.3c0,0.1,0.1,0.3,0.3,0.3c0,0,0,0,0,0c-0.2,0.1-0.3,0.2-0.5,0.3c0,0,0-0.1,0-0.1c0-0.1-0.1-0.3-0.3-0.3
					c-0.1,0-0.3,0.1-0.3,0.3c0,0.1,0.1,0.3,0.3,0.3c0,0,0,0,0.1,0c-0.2,0.2-0.4,0.4-0.5,0.6c-0.1,0.1-0.1,0.3-0.2,0.4
					c0-0.1-0.1-0.2-0.3-0.2c-0.2,0-0.3,0.1-0.3,0.3c0,0.2,0.1,0.3,0.3,0.3c0.1,0,0.2,0,0.2-0.1c0,0.1,0,0.3,0,0.4
					c-0.4-0.2,0.1,0.4,0.1,0.5c0.1,0.2,0.3,0.4,0.4,0.6c0.1,0.2,0.3,0.4,0.4,0.7c0,0.1,0.1,0.3,0.1,0.4c0.1,0.1,0.2,0,0.2,0.1
					c0,0,0.1,0.2,0.1,0.2V47c0,0.2-0.3,0.3-0.2,0.5c0.1,0,0.3-0.1,0.4,0c0.1,0.1,0,0.3,0,0.4c0.1,0.2,0.2,0.2,0.2,0.4
					c0,0.1-0.1,0.2,0,0.4c0.1,0.2,0.6,0.3,0.8,0.3c0.3,0,0.7,0.1,1,0c0.6,0,1.2,0,1.8,0h0c0.6,0,1.3,0,1.8,0c0.3,0,0.7,0,1,0
					c0.2,0,0.6-0.1,0.8-0.3c0.1-0.2,0-0.2,0-0.4c0-0.2,0.1-0.2,0.2-0.4c0-0.1-0.1-0.3,0-0.4c0.1-0.1,0.3,0,0.4,0
					c0.1-0.2-0.2-0.3-0.2-0.5v-0.1c0,0,0-0.1,0.1-0.2c0,0,0.1,0,0.2-0.1c0.1-0.1,0.1-0.3,0.1-0.4c0.1-0.2,0.3-0.4,0.4-0.7
					c0.1-0.2,0.3-0.4,0.4-0.6c0.1-0.1,0.5-0.6,0.1-0.5c0-0.2,0-0.3-0.1-0.5c0,0.1,0.1,0.2,0.3,0.2c0.2,0,0.3-0.1,0.3-0.3
					C148,43.7,147.9,43.6,147.7,43.6z M138.5,44.8L138.5,44.8c-0.3,0.2-0.3,0.5-0.2,0.7c-0.2-0.2-0.4-0.4-0.8-0.3
					c0-0.2,0-0.4-0.2-0.4l0,0c0.1-0.3,0-0.6,0-0.9c0-0.3,0.2-0.6,0.4-0.8c0.3-0.4,0.9-0.7,1.4-0.9c0.5-0.2,1.1-0.3,1.7-0.4
					c-0.1,0-0.2,0.1-0.3,0.1c0,0-0.1,0-0.1,0c-0.1,0-0.1,0.1-0.1,0.1c0,0,0,0,0,0c-0.1,0-0.1,0.1-0.2,0.1c0,0-0.1,0.1-0.1,0.1
					c0-0.1-0.1-0.1-0.2-0.1c-0.1,0-0.2,0.1-0.2,0.2c0,0.1,0,0.1,0.1,0.1c-0.1,0.1-0.1,0.1-0.2,0.2c0-0.1-0.1-0.1-0.2-0.1
					c-0.1,0-0.3,0.1-0.3,0.3c0,0.1,0,0.1,0,0.1c-0.1,0.1-0.1,0.1-0.2,0.2c0,0-0.1,0-0.1,0c-0.2,0-0.3,0.1-0.3,0.3
					c0,0.1,0,0.2,0.1,0.2c0,0.2,0,0.4,0,0.6C138.5,44.3,138.6,44.6,138.5,44.8z M146.9,44.8L146.9,44.8c-0.2,0.1-0.3,0.3-0.3,0.5
					c-0.4-0.2-0.5,0-0.8,0.3c0.1-0.2,0.1-0.5-0.2-0.6l0-0.1c-0.1-0.1,0-0.5,0.1-0.6c0-0.2,0-0.4,0-0.5c0.1-0.1,0.1-0.2,0.1-0.3
					c0-0.2-0.1-0.3-0.3-0.3c0,0-0.1,0-0.1,0c-0.1-0.1-0.1-0.1-0.2-0.2c0,0,0.1-0.1,0.1-0.2c0-0.1-0.1-0.3-0.3-0.3
					c-0.1,0-0.2,0-0.2,0.1c-0.1-0.1-0.2-0.1-0.2-0.2c0.1,0,0.1-0.1,0.1-0.2c0-0.1-0.1-0.2-0.2-0.2c-0.1,0-0.2,0.1-0.2,0.1
					c-0.1,0-0.1-0.1-0.2-0.1c0,0-0.1,0-0.1-0.1c0,0,0,0,0,0c0-0.1-0.1-0.1-0.1-0.1c0,0-0.1,0-0.1,0.1c-0.1,0-0.2-0.1-0.3-0.1
					c0,0,0,0,0,0v0c0.6,0.1,1.1,0.2,1.7,0.4c0.5,0.2,1,0.5,1.4,0.9c0.2,0.2,0.3,0.5,0.4,0.8C147,44.2,146.9,44.5,146.9,44.8z"/>
				<circle fill="#F9F5E3" cx="147.4" cy="43.1" r="0.3"/>
				<circle fill="#F9F5E3" cx="146.1" cy="42.1" r="0.3"/>
				<path fill="#F9F5E3" d="M145.4,42c0.1,0,0.2-0.1,0.2-0.2c0-0.1-0.1-0.2-0.2-0.2c-0.1,0-0.2,0.1-0.2,0.2
					C145.2,41.9,145.3,42,145.4,42z"/>
			</g>
			<path fill="#F9F5E3" d="M138.4,46c-0.1-0.1-0.2-0.3-0.3-0.3c-0.2,0-0.2,0.2-0.2,0.3c0,0.4,0.2,0.4,0.5,0.3
				c-0.2,0.3,0.4,0.5,0.4,0c0.1,0,0.3,0.2,0.4,0c0.1-0.1,0.1-0.4,0-0.5c0-0.1-0.1-0.3-0.3-0.3c-0.2,0-0.2,0.3-0.2,0.4
				C138.7,45.7,138.4,45.7,138.4,46L138.4,46z"/>
			<path fill="#F9F5E3" d="M145.9,46c0.1-0.1,0.2-0.3,0.3-0.3c0.2,0,0.2,0.2,0.2,0.3c0,0.4-0.3,0.4-0.5,0.3c0.2,0.3-0.4,0.5-0.4,0
				c-0.1,0-0.3,0.2-0.4,0c-0.1-0.1,0-0.4,0-0.5c0-0.1,0.1-0.3,0.3-0.3c0.2,0,0.2,0.3,0.2,0.4C145.6,45.7,145.9,45.7,145.9,46
				L145.9,46z"/>
			<circle fill="#F9F5E3" cx="142.1" cy="42.9" r="0.3"/>
			<circle fill="#F9F5E3" cx="142.1" cy="42.1" r="0.2"/>
			<circle fill="#F9F5E3" cx="142.1" cy="41.6" r="0.1"/>
		</g>
		<g>
			<polygon fill="#015C6B" points="138.5,80.7 141.6,76.4 144.5,80.8 			"/>
			<polygon fill="#015C6B" points="132.2,78.7 136.3,75.5 137.8,80.5 			"/>
			<polygon fill="#015C6B" points="126.5,75 131.5,73.2 131.4,78.5 			"/>
			<polygon fill="#015C6B" points="122.1,70.1 127.3,69.5 126,74.6 			"/>
			<polygon fill="#015C6B" points="119,64.2 124.2,64.9 121.7,69.5 			"/>
			<polygon fill="#015C6B" points="118.2,57.6 122.8,60.2 118.7,63.6 			"/>
			<polygon fill="#015C6B" points="118.7,51.1 122.8,54.4 118.2,57 			"/>
			<polygon fill="#015C6B" points="121.5,44.9 124.2,49.4 119,50.3 			"/>
			<polygon fill="#015C6B" points="125.3,39.7 127,44.7 121.8,44.5 			"/>
			<polygon fill="#015C6B" points="130.4,35.8 130.7,41.1 125.7,39.4 			"/>
			<polygon fill="#015C6B" points="136.5,33.4 135.3,38.5 130.9,35.6 			"/>
			<polygon fill="#015C6B" points="142.9,32.9 140.1,37.4 136.9,33.2 			"/>
			<polygon fill="#015C6B" points="149.3,33.8 145.6,37.6 143.4,32.8 			"/>
			<polygon fill="#015C6B" points="155.3,36.7 150.7,39.3 149.9,34 			"/>
			<polygon fill="#015C6B" points="160.3,41 155.2,42.3 155.9,37 			"/>
			<polygon fill="#015C6B" points="163.9,46.5 158.7,46.4 160.7,41.5 			"/>
			<polygon fill="#015C6B" points="165.8,52.7 160.8,51 164.1,46.9 			"/>
			<polygon fill="#015C6B" points="166.2,59.1 161.7,56.3 165.9,53.1 			"/>
			<polygon fill="#015C6B" points="164.6,65.4 161.2,61.4 166.2,59.6 			"/>
			<polygon fill="#015C6B" points="161.4,71 159.2,66.2 164.5,65.9 			"/>
			<polygon fill="#015C6B" points="156.9,75.6 155.9,70.4 161.1,71.4 			"/>
			<polygon fill="#015C6B" points="151.3,78.9 151.7,73.6 156.5,75.9 			"/>
			<polygon fill="#015C6B" points="145.2,80.7 146.8,75.6 150.9,79 			"/>
		</g>
		<g>
			<path fill="#F9F5E3" d="M125.5,54.2c0.6-0.1,1.1-0.3,1.7-0.4c0.3-0.1,0.6-0.1,0.8-0.1c0.2,0,0.3,0,0.4,0.1
				c0.1,0.1,0.2,0.2,0.3,0.4c0.1,0.2,0.1,0.4,0.1,0.7c0,0.3-0.1,0.5-0.2,0.8c-0.1,0.2-0.3,0.4-0.4,0.5c0.3,0.1,0.5,0.3,0.6,0.5
				c0.1,0.3,0.2,0.6,0.2,0.9c0,0.3,0,0.5-0.1,0.8c-0.1,0.2-0.2,0.4-0.4,0.5c-0.2,0.1-0.3,0.2-0.6,0.1c-0.1,0-0.5-0.1-1-0.2
				c-0.5-0.1-1-0.2-1.4-0.4C125.5,57,125.5,55.6,125.5,54.2z M126.3,54.7c0,0.4,0,0.7,0,1.1c0.2,0,0.4,0,0.6,0c0.3,0,0.5,0,0.6,0
				c0.1,0,0.3-0.1,0.3-0.2c0.1-0.1,0.1-0.3,0.1-0.4c0-0.2,0-0.3-0.1-0.4c-0.1-0.1-0.2-0.1-0.3-0.1c-0.1,0-0.3,0-0.7,0.1
				C126.7,54.7,126.5,54.7,126.3,54.7z M126.3,56.6c0,0.4,0,0.8,0,1.3c0.3,0,0.5,0.1,0.8,0.1c0.3,0,0.5,0.1,0.6,0.1
				c0.1,0,0.2-0.1,0.3-0.2c0.1-0.1,0.1-0.3,0.1-0.5c0-0.2,0-0.3-0.1-0.4c-0.1-0.1-0.2-0.2-0.3-0.3s-0.4-0.1-0.8-0.1
				C126.8,56.6,126.6,56.6,126.3,56.6z"/>
			<path fill="#F9F5E3" d="M133.6,60.1c-0.3,0-0.6-0.1-0.9-0.1c-0.1-0.6-0.2-1.1-0.4-1.7c-0.6,0-1.1-0.1-1.7-0.2
				c-0.1,0.5-0.2,1-0.4,1.4c-0.3-0.1-0.6-0.1-0.9-0.2c0.6-1.9,1.1-4.1,1.7-6.4c0.3-0.1,0.6-0.1,0.9-0.2
				C132.5,55.1,133.1,57.5,133.6,60.1z M132,57.1c-0.2-0.9-0.4-1.7-0.6-2.6c-0.2,0.9-0.4,1.7-0.6,2.5C131.3,57,131.6,57,132,57.1z"/>
			<path fill="#F9F5E3" d="M136.9,57.4c0.3,0.2,0.6,0.4,0.8,0.5c-0.1,0.9-0.3,1.6-0.6,2c-0.3,0.4-0.7,0.6-1.1,0.6
				c-0.6-0.1-1-0.5-1.4-1.2c-0.4-0.7-0.6-1.7-0.6-2.9c0-1.3,0.2-2.2,0.6-3c0.4-0.7,0.9-1.2,1.5-1.2c0.5-0.1,1,0.2,1.3,0.8
				c0.2,0.3,0.3,0.8,0.4,1.5c-0.3,0.1-0.6,0.3-0.9,0.4c-0.1-0.4-0.2-0.8-0.3-1c-0.2-0.2-0.4-0.3-0.6-0.3c-0.3,0-0.6,0.3-0.8,0.7
				c-0.2,0.4-0.3,1.1-0.3,2c0,1,0.1,1.7,0.3,2.1c0.2,0.4,0.5,0.7,0.8,0.7c0.2,0,0.4-0.1,0.6-0.4C136.7,58.4,136.8,58,136.9,57.4z"/>
			<path fill="#F9F5E3" d="M138.5,60.5c0-2.8,0-5.6,0-8.4c0.3,0,0.6,0,0.9,0c0,1.1,0,2.2,0,3.4c0.6,0,1.1,0,1.7,0c0-1.1,0-2.3,0-3.4
				c0.3,0,0.6,0,0.9,0c0,2.9,0,5.8,0,8.6c-0.3,0-0.6,0-0.9,0c0-1.3,0-2.5,0-3.8c-0.6,0-1.1,0-1.7,0c0,1.2,0,2.5,0,3.7
				C139,60.6,138.7,60.6,138.5,60.5z"/>
			<path fill="#F9F5E3" d="M142.8,60.6c0-2.9,0-5.8,0-8.6c1.1,0,2.1,0,3.2,0.1c0,0.5,0,1,0,1.4c-0.8,0-1.6-0.1-2.3-0.1
				c0,0.6,0,1.3,0,1.9c0.7,0,1.4,0,2.2,0c0,0.5,0,0.9,0,1.4c-0.7,0-1.4,0-2.2,0c0,0.8,0,1.6,0,2.3c0.8,0,1.6,0,2.4-0.1
				c0,0.5,0,0.9,0,1.4C145,60.6,143.9,60.6,142.8,60.6z"/>
			<path fill="#F9F5E3" d="M146.9,60.5c0-2.8,0-5.5,0-8.3c0.3,0,0.6,0,0.9,0.1c0,2.2,0,4.5,0,6.7c0.7,0,1.4-0.1,2.2-0.1
				c0,0.4,0,0.9,0,1.3C148.9,60.3,147.9,60.4,146.9,60.5z"/>
			<path fill="#F9F5E3" d="M150.4,56.4c0-0.8,0.1-1.4,0.2-1.9c0.1-0.4,0.2-0.7,0.4-1c0.2-0.3,0.4-0.5,0.6-0.6
				c0.3-0.2,0.6-0.2,0.9-0.1c0.6,0.1,1.1,0.5,1.5,1.2c0.4,0.7,0.6,1.5,0.6,2.5c0,1-0.2,1.8-0.6,2.5c-0.4,0.6-0.9,1.1-1.5,1.2
				c-0.6,0.1-1.1-0.1-1.5-0.8C150.6,58.5,150.4,57.6,150.4,56.4z M151.3,56.3c0,0.8,0.1,1.5,0.3,1.9c0.2,0.4,0.5,0.6,0.9,0.6
				c0.3,0,0.6-0.3,0.9-0.7c0.2-0.4,0.3-1,0.3-1.8c0-0.8-0.1-1.3-0.3-1.7c-0.2-0.4-0.5-0.6-0.9-0.7c-0.4,0-0.6,0.1-0.9,0.5
				C151.4,54.8,151.3,55.5,151.3,56.3z"/>
			<path fill="#F9F5E3" d="M155.2,59.4c0-2,0-4,0-6.1c0.6,0.1,1.2,0.3,1.8,0.4c0.5,0.1,0.8,0.2,1,0.4c0.2,0.1,0.4,0.3,0.5,0.6
				c0.1,0.2,0.2,0.5,0.2,0.7c0,0.3-0.1,0.6-0.3,0.8c-0.2,0.2-0.5,0.4-0.8,0.5c0.2,0.1,0.3,0.3,0.5,0.4c0.1,0.1,0.3,0.4,0.5,0.7
				c0.2,0.3,0.3,0.5,0.5,0.8c-0.3,0.1-0.7,0.2-1,0.3c-0.2-0.3-0.4-0.6-0.6-1c-0.2-0.4-0.4-0.6-0.5-0.7c-0.1-0.1-0.2-0.2-0.3-0.2
				c-0.1,0-0.2-0.1-0.4,0l-0.2,0c0,0.8,0,1.6,0,2.4C155.8,59.2,155.5,59.3,155.2,59.4z M156.1,55.9c0.2,0,0.4,0,0.6,0
				c0.4,0,0.7,0,0.8,0c0.1,0,0.2-0.1,0.2-0.2c0.1-0.1,0.1-0.2,0.1-0.4c0-0.2,0-0.3-0.1-0.4c-0.1-0.1-0.2-0.2-0.3-0.2
				c-0.1,0-0.3-0.1-0.6-0.1c-0.2,0-0.4-0.1-0.7-0.1C156.1,54.9,156.1,55.4,156.1,55.9z"/>
		</g>
		<g>
			<path fill="#FFFFFF" d="M133.4,66.5v-2.7h0.4v2.4h1.3v0.3H133.4z"/>
			<path fill="#FFFFFF" d="M136.7,66.3c-0.1,0.1-0.2,0.2-0.4,0.2c-0.1,0-0.2,0.1-0.4,0.1c-0.2,0-0.4-0.1-0.5-0.2
				c-0.1-0.1-0.2-0.2-0.2-0.4c0-0.1,0-0.2,0.1-0.3c0-0.1,0.1-0.1,0.2-0.2c0.1,0,0.1-0.1,0.2-0.1c0.1,0,0.2,0,0.3,0
				c0.3,0,0.5-0.1,0.6-0.1c0,0,0-0.1,0-0.1c0-0.1,0-0.2-0.1-0.3c-0.1-0.1-0.2-0.1-0.4-0.1c-0.2,0-0.3,0-0.3,0.1
				c-0.1,0.1-0.1,0.2-0.2,0.3l-0.3,0c0-0.1,0.1-0.3,0.1-0.3c0.1-0.1,0.2-0.2,0.3-0.2c0.1,0,0.3-0.1,0.4-0.1c0.2,0,0.3,0,0.4,0.1
				c0.1,0,0.2,0.1,0.2,0.1c0,0.1,0.1,0.1,0.1,0.2c0,0.1,0,0.2,0,0.3v0.4c0,0.3,0,0.5,0,0.6c0,0.1,0,0.2,0.1,0.2h-0.3
				C136.8,66.5,136.8,66.4,136.7,66.3z M136.7,65.6c-0.1,0-0.3,0.1-0.5,0.1c-0.1,0-0.2,0-0.3,0.1c-0.1,0-0.1,0.1-0.1,0.1
				c0,0,0,0.1,0,0.2c0,0.1,0,0.2,0.1,0.2c0.1,0.1,0.2,0.1,0.3,0.1c0.1,0,0.2,0,0.3-0.1c0.1-0.1,0.2-0.1,0.2-0.2
				c0-0.1,0.1-0.2,0.1-0.3V65.6z"/>
			<path fill="#FFFFFF" d="M137.4,66l0.3-0.1c0,0.1,0.1,0.2,0.2,0.3c0.1,0.1,0.2,0.1,0.4,0.1c0.2,0,0.3,0,0.3-0.1
				c0.1-0.1,0.1-0.1,0.1-0.2c0-0.1,0-0.1-0.1-0.2c0,0-0.2-0.1-0.3-0.1c-0.2-0.1-0.4-0.1-0.5-0.2c-0.1,0-0.2-0.1-0.2-0.2
				c0-0.1-0.1-0.2-0.1-0.3c0-0.1,0-0.2,0.1-0.2c0-0.1,0.1-0.1,0.2-0.2c0.1,0,0.1-0.1,0.2-0.1c0.1,0,0.2,0,0.3,0c0.2,0,0.3,0,0.4,0.1
				c0.1,0,0.2,0.1,0.3,0.2c0.1,0.1,0.1,0.2,0.1,0.3l-0.3,0c0-0.1-0.1-0.2-0.1-0.2c-0.1-0.1-0.2-0.1-0.3-0.1c-0.2,0-0.3,0-0.3,0.1
				c-0.1,0.1-0.1,0.1-0.1,0.2c0,0,0,0.1,0,0.1c0,0,0.1,0.1,0.1,0.1c0,0,0.1,0,0.3,0.1c0.2,0.1,0.4,0.1,0.5,0.2
				c0.1,0,0.2,0.1,0.2,0.2c0.1,0.1,0.1,0.2,0.1,0.3c0,0.1,0,0.2-0.1,0.3c-0.1,0.1-0.2,0.2-0.3,0.2c-0.1,0.1-0.3,0.1-0.4,0.1
				c-0.3,0-0.4-0.1-0.6-0.2C137.6,66.3,137.5,66.2,137.4,66z"/>
			<path fill="#FFFFFF" d="M141.3,66.5l-1-2.7h0.4l0.7,2c0.1,0.2,0.1,0.3,0.1,0.4c0-0.1,0.1-0.3,0.1-0.4l0.7-2h0.4l-1.1,2.7H141.3z"/>
			<path fill="#FFFFFF" d="M144.1,65.9l0.3,0c-0.1,0.2-0.2,0.4-0.3,0.5c-0.1,0.1-0.3,0.2-0.6,0.2c-0.3,0-0.5-0.1-0.7-0.3
				c-0.2-0.2-0.3-0.4-0.3-0.7c0-0.3,0.1-0.6,0.3-0.8c0.2-0.2,0.4-0.3,0.7-0.3c0.3,0,0.5,0.1,0.6,0.3c0.2,0.2,0.2,0.4,0.2,0.7
				c0,0,0,0,0,0.1H143c0,0.2,0.1,0.4,0.2,0.5c0.1,0.1,0.2,0.2,0.4,0.2c0.1,0,0.2,0,0.3-0.1C144,66.1,144.1,66,144.1,65.9z M143,65.4
				h1.1c0-0.2-0.1-0.3-0.1-0.4c-0.1-0.1-0.2-0.2-0.4-0.2c-0.2,0-0.3,0.1-0.4,0.2C143.1,65.1,143,65.2,143,65.4z"/>
			<path fill="#FFFFFF" d="M144.8,66.7l0.3,0c0,0.1,0.1,0.2,0.1,0.2c0.1,0.1,0.2,0.1,0.3,0.1c0.2,0,0.3,0,0.4-0.1
				c0.1-0.1,0.1-0.1,0.2-0.3c0-0.1,0-0.2,0-0.4c-0.1,0.2-0.3,0.3-0.5,0.3c-0.3,0-0.5-0.1-0.6-0.3c-0.1-0.2-0.2-0.4-0.2-0.7
				c0-0.2,0-0.4,0.1-0.5c0.1-0.2,0.2-0.3,0.3-0.4c0.1-0.1,0.3-0.1,0.5-0.1c0.2,0,0.4,0.1,0.6,0.3v-0.2h0.3v1.7c0,0.3,0,0.5-0.1,0.6
				c-0.1,0.1-0.2,0.2-0.3,0.3c-0.1,0.1-0.3,0.1-0.5,0.1c-0.2,0-0.4-0.1-0.6-0.2C144.9,67.1,144.8,66.9,144.8,66.7z M145.1,65.5
				c0,0.3,0.1,0.4,0.2,0.6c0.1,0.1,0.2,0.2,0.4,0.2c0.2,0,0.3-0.1,0.4-0.2c0.1-0.1,0.2-0.3,0.2-0.6c0-0.2-0.1-0.4-0.2-0.5
				s-0.2-0.2-0.4-0.2c-0.1,0-0.3,0.1-0.4,0.2C145.1,65.1,145.1,65.3,145.1,65.5z"/>
			<path fill="#FFFFFF" d="M148.2,66.3c-0.1,0.1-0.2,0.2-0.4,0.2c-0.1,0-0.2,0.1-0.4,0.1c-0.2,0-0.4-0.1-0.5-0.2
				c-0.1-0.1-0.2-0.2-0.2-0.4c0-0.1,0-0.2,0.1-0.3c0-0.1,0.1-0.1,0.2-0.2c0.1,0,0.1-0.1,0.2-0.1c0.1,0,0.2,0,0.3,0
				c0.3,0,0.5-0.1,0.6-0.1c0,0,0-0.1,0-0.1c0-0.1,0-0.2-0.1-0.3c-0.1-0.1-0.2-0.1-0.4-0.1c-0.2,0-0.3,0-0.3,0.1
				c-0.1,0.1-0.1,0.2-0.2,0.3l-0.3,0c0-0.1,0.1-0.3,0.1-0.3c0.1-0.1,0.2-0.2,0.3-0.2c0.1,0,0.3-0.1,0.4-0.1c0.2,0,0.3,0,0.4,0.1
				c0.1,0,0.2,0.1,0.2,0.1c0,0.1,0.1,0.1,0.1,0.2c0,0.1,0,0.2,0,0.3v0.4c0,0.3,0,0.5,0,0.6c0,0.1,0,0.2,0.1,0.2h-0.3
				C148.3,66.5,148.2,66.4,148.2,66.3z M148.2,65.6c-0.1,0-0.3,0.1-0.5,0.1c-0.1,0-0.2,0-0.3,0.1c-0.1,0-0.1,0.1-0.1,0.1
				c0,0,0,0.1,0,0.2c0,0.1,0,0.2,0.1,0.2c0.1,0.1,0.2,0.1,0.3,0.1c0.1,0,0.2,0,0.3-0.1c0.1-0.1,0.2-0.1,0.2-0.2
				c0-0.1,0.1-0.2,0.1-0.3V65.6z"/>
			<path fill="#FFFFFF" d="M148.9,66l0.3-0.1c0,0.1,0.1,0.2,0.2,0.3c0.1,0.1,0.2,0.1,0.4,0.1c0.2,0,0.3,0,0.3-0.1
				c0.1-0.1,0.1-0.1,0.1-0.2c0-0.1,0-0.1-0.1-0.2c0,0-0.2-0.1-0.3-0.1c-0.2-0.1-0.4-0.1-0.5-0.2c-0.1,0-0.2-0.1-0.2-0.2
				c0-0.1-0.1-0.2-0.1-0.3c0-0.1,0-0.2,0.1-0.2c0-0.1,0.1-0.1,0.2-0.2c0.1,0,0.1-0.1,0.2-0.1c0.1,0,0.2,0,0.3,0c0.2,0,0.3,0,0.4,0.1
				c0.1,0,0.2,0.1,0.3,0.2c0.1,0.1,0.1,0.2,0.1,0.3l-0.3,0c0-0.1-0.1-0.2-0.1-0.2c-0.1-0.1-0.2-0.1-0.3-0.1c-0.2,0-0.3,0-0.3,0.1
				c-0.1,0.1-0.1,0.1-0.1,0.2c0,0,0,0.1,0,0.1c0,0,0.1,0.1,0.1,0.1c0,0,0.1,0,0.3,0.1c0.2,0.1,0.4,0.1,0.5,0.2
				c0.1,0,0.2,0.1,0.2,0.2c0.1,0.1,0.1,0.2,0.1,0.3c0,0.1,0,0.2-0.1,0.3c-0.1,0.1-0.2,0.2-0.3,0.2c-0.1,0.1-0.3,0.1-0.4,0.1
				c-0.3,0-0.4-0.1-0.6-0.2C149,66.3,149,66.2,148.9,66z"/>
			<path fill="#FFFFFF" d="M139.6,70.7V71h-1.8c0-0.1,0-0.2,0-0.2c0-0.1,0.1-0.2,0.2-0.4c0.1-0.1,0.2-0.3,0.4-0.4
				c0.3-0.2,0.5-0.4,0.6-0.6c0.1-0.1,0.2-0.3,0.2-0.4c0-0.1,0-0.2-0.1-0.3c-0.1-0.1-0.2-0.1-0.4-0.1c-0.2,0-0.3,0-0.4,0.1
				c-0.1,0.1-0.1,0.2-0.1,0.4l-0.3,0c0-0.3,0.1-0.4,0.3-0.6c0.2-0.1,0.4-0.2,0.6-0.2c0.3,0,0.5,0.1,0.6,0.2c0.2,0.1,0.2,0.3,0.2,0.5
				c0,0.1,0,0.2-0.1,0.3c0,0.1-0.1,0.2-0.2,0.3c-0.1,0.1-0.3,0.3-0.5,0.5c-0.2,0.2-0.3,0.3-0.4,0.3c-0.1,0.1-0.1,0.1-0.1,0.2H139.6z
				"/>
			<path fill="#FFFFFF" d="M140,69.7c0-0.3,0-0.6,0.1-0.8c0.1-0.2,0.2-0.3,0.3-0.4c0.1-0.1,0.3-0.2,0.5-0.2c0.1,0,0.3,0,0.4,0.1
				c0.1,0.1,0.2,0.1,0.3,0.3c0.1,0.1,0.1,0.2,0.2,0.4c0,0.2,0.1,0.4,0.1,0.6c0,0.3,0,0.6-0.1,0.8c-0.1,0.2-0.2,0.3-0.3,0.4
				c-0.1,0.1-0.3,0.2-0.5,0.2c-0.3,0-0.5-0.1-0.6-0.3C140.1,70.6,140,70.2,140,69.7z M140.3,69.7c0,0.4,0.1,0.7,0.2,0.9
				c0.1,0.1,0.2,0.2,0.4,0.2c0.2,0,0.3-0.1,0.4-0.2c0.1-0.1,0.2-0.4,0.2-0.9c0-0.4-0.1-0.7-0.2-0.9c-0.1-0.1-0.2-0.2-0.4-0.2
				c-0.2,0-0.3,0.1-0.4,0.2C140.4,69,140.3,69.3,140.3,69.7z"/>
			<path fill="#FFFFFF" d="M143.3,71H143v-2.1c-0.1,0.1-0.2,0.2-0.3,0.2c-0.1,0.1-0.2,0.1-0.3,0.2V69c0.2-0.1,0.3-0.2,0.5-0.3
				c0.1-0.1,0.2-0.2,0.3-0.4h0.2V71z"/>
			<path fill="#FFFFFF" d="M144.2,70.3l0.3,0c0,0.2,0.1,0.3,0.2,0.4c0.1,0.1,0.2,0.1,0.3,0.1c0.2,0,0.3-0.1,0.4-0.2
				c0.1-0.1,0.2-0.3,0.2-0.5c0-0.2-0.1-0.3-0.2-0.4c-0.1-0.1-0.2-0.2-0.4-0.2c-0.1,0-0.2,0-0.3,0.1c-0.1,0-0.2,0.1-0.2,0.2l-0.3,0
				l0.3-1.4h1.3v0.3h-1.1l-0.1,0.7c0.2-0.1,0.3-0.2,0.5-0.2c0.2,0,0.4,0.1,0.6,0.2c0.2,0.2,0.2,0.4,0.2,0.6c0,0.2-0.1,0.5-0.2,0.6
				c-0.2,0.2-0.4,0.3-0.7,0.3c-0.2,0-0.4-0.1-0.6-0.2C144.3,70.7,144.2,70.6,144.2,70.3z"/>
		</g>
	</g>
	<g>
		<path fill="#D0D2D3" d="M72.8,57.2l0.2-0.7v0.8l-0.6,1.9h-0.1l-1-2.8c0,0,0,0,0,0c0,0,0,0,0,0c0-0.1,0-0.1-0.1-0.1
			c0,0-0.1,0-0.1,0c-0.1,0-0.1,0-0.1-0.1c0,0,0-0.1,0-0.1c0,0,0-0.1,0-0.1c0,0,0.1,0,0.1,0l1.1,0L72.8,57.2z M71.6,57.7v0.7
			c0,0.1,0,0.2,0,0.3c0,0.1,0.1,0.1,0.1,0.2l0.1,0.1c0,0,0.1,0,0.1,0.1c0,0,0,0,0,0.1c0,0,0,0.1,0,0.1c0,0-0.1,0-0.1,0h-0.6
			c-0.1,0-0.1,0-0.1,0c0,0,0,0,0-0.1c0,0,0,0,0,0c0,0,0,0,0,0c0,0,0,0,0,0c0,0,0,0,0,0c0.1-0.1,0.2-0.1,0.2-0.2
			c0-0.1,0.1-0.2,0.1-0.3v-1.5L71.6,57.7z M74.3,55.8L74.3,55.8c0.1,0,0.2,0,0.2,0c0,0,0,0.1,0,0.1c0,0,0,0.1,0,0.1c0,0,0,0-0.1,0
			c0,0,0,0,0,0c0,0,0,0,0,0c0,0-0.1,0-0.1,0.1c0,0,0,0.1,0,0.1v2.4c0,0.1,0,0.1,0,0.1c0,0,0,0,0.1,0.1c0,0,0,0,0,0c0,0,0,0,0,0
			c0,0,0.1,0,0.1,0c0,0,0,0,0,0.1c0,0,0,0.1,0,0.1c0,0-0.1,0-0.1,0h-0.1h-1.1h-0.1c-0.1,0-0.1,0-0.2,0c0,0-0.1-0.1-0.1-0.1
			c0,0,0-0.1,0-0.1c0,0,0,0,0.1,0c0,0,0,0,0,0c0,0,0,0,0,0c0.1,0,0.1,0,0.1-0.1c0,0,0-0.1,0-0.1v-2.9H74.3z"/>
		<path fill="#D0D2D3" d="M76,56.1c0,0.1-0.1,0.1-0.1,0.2v2.2c0,0.1,0,0.2,0.1,0.3c0,0.1,0.1,0.1,0.2,0.1v0.3c-0.4,0-0.8-0.2-1-0.5
			c-0.3-0.3-0.4-0.7-0.4-1.2c0-0.5,0.1-0.9,0.4-1.2c0.3-0.3,0.6-0.5,1-0.5V56C76.1,56,76.1,56.1,76,56.1z M76.4,56v-0.3
			c0.4,0,0.8,0.2,1,0.5c0.3,0.3,0.4,0.7,0.4,1.2c0,0.5-0.1,0.9-0.4,1.2c-0.2,0.3-0.6,0.5-1,0.5v-0.3c0.1,0,0.1-0.1,0.2-0.1
			c0-0.1,0-0.2,0-0.3v-2.2c0-0.1,0-0.2,0-0.2C76.6,56.1,76.5,56,76.4,56L76.4,56z"/>
		<path fill="#D0D2D3" d="M79.4,58.7c0,0.1,0,0.1,0,0.1c0,0,0,0,0.1,0.1c0,0,0,0,0,0c0,0,0,0,0,0c0,0,0.1,0,0.1,0c0,0,0,0.1,0,0.1
			c0,0,0,0.1,0,0.1c0,0-0.1,0-0.2,0h-0.1h-1.1h-0.1c-0.1,0-0.1,0-0.1,0c0,0,0-0.1,0-0.1c0,0,0-0.1,0-0.1c0,0,0,0,0.1,0c0,0,0,0,0,0
			c0,0,0,0,0,0c0,0,0.1,0,0.1-0.1c0,0,0-0.1,0-0.1v-2.4c0,0,0-0.1,0-0.1c0,0,0,0-0.1-0.1c0,0,0,0,0,0c0,0,0,0,0,0c0,0-0.1,0-0.1-0.1
			c0,0,0,0,0-0.1c0,0,0-0.1,0-0.1c0,0,0.1,0,0.1,0l0.1,0h1.1V58.7z M79.6,56.1v-0.3h0.1c0.2,0,0.4,0,0.5,0c0.1,0,0.2,0,0.3,0.1
			c0,0,0,0,0,0c0,0,0,0,0,0c0.1,0.1,0.2,0.2,0.3,0.3c0.1,0.1,0.1,0.3,0.1,0.4c0,0.1,0,0.2-0.1,0.3c0,0.1-0.1,0.2-0.2,0.3
			c0,0,0,0,0,0c0,0-0.1,0.1-0.1,0.1c0,0-0.1,0-0.1,0.1c0,0-0.1,0-0.1,0c0,0-0.1,0-0.2,0c0,0,0,0,0,0c0,0,0,0,0,0
			c0.1,0,0.2,0,0.2,0.1c0.1,0,0.1,0,0.2,0.1c0,0,0,0,0,0c0,0,0,0,0,0c0.1,0,0.1,0.1,0.2,0.2c0,0.1,0.1,0.2,0.1,0.2v0.5
			c0,0,0,0,0,0.1c0,0,0,0,0,0c0,0,0,0,0,0c0,0,0,0,0,0c0,0,0,0,0,0c0,0,0,0,0,0c0,0,0,0,0,0c0,0,0,0,0,0c0,0,0,0,0,0c0,0,0,0,0,0
			c0,0,0,0,0,0c0,0,0,0,0,0c0,0,0,0,0.1,0c0,0,0,0,0,0.1c0,0,0,0,0,0c0,0,0,0,0,0c0,0,0,0.1,0,0.1c0,0,0,0.1-0.1,0.1
			c0,0-0.1,0.1-0.1,0.1c0,0-0.1,0.1-0.1,0.1c-0.1,0-0.1,0.1-0.2,0.1c-0.1,0-0.2,0-0.2,0c-0.2,0-0.4-0.1-0.5-0.2
			c-0.1-0.1-0.2-0.3-0.2-0.5v-0.4c0-0.1,0-0.2-0.1-0.3c0-0.1-0.1-0.1-0.2-0.1v-0.3c0.1,0,0.2,0,0.2-0.1c0,0,0.1-0.1,0.1-0.2v-0.6
			c0-0.1,0-0.2-0.1-0.2C79.8,56.1,79.7,56.1,79.6,56.1L79.6,56.1z"/>
		<path fill="#D0D2D3" d="M82.9,59.1h-1.1h-0.1c-0.1,0-0.1,0-0.1,0c0,0,0-0.1,0-0.1c0,0,0-0.1,0-0.1c0,0,0,0,0.1,0c0,0,0,0,0,0
			c0,0,0,0,0,0c0,0,0.1,0,0.1-0.1c0,0,0-0.1,0-0.1v-2.4c0,0,0-0.1,0-0.1c0,0,0,0-0.1-0.1c0,0,0,0,0,0c0,0,0,0,0,0c0,0-0.1,0-0.1,0
			c0,0,0,0,0-0.1c0,0,0-0.1,0-0.1c0,0,0.1,0,0.1,0l0.1,0h1.1V59.1z M84.1,55.8v0.9c0,0.1,0,0.1,0,0.1c0,0,0,0-0.1,0c0,0-0.1,0-0.1,0
			s0,0,0-0.1c0,0,0,0,0,0c0,0,0,0,0,0c-0.1-0.2-0.2-0.3-0.3-0.4c-0.1-0.1-0.3-0.2-0.5-0.2v-0.3H84.1z M83.1,57.3
			c0.1,0,0.2-0.1,0.2-0.1c0-0.1,0.1-0.1,0.1-0.2c0-0.1,0-0.1,0.1-0.1c0,0,0,0,0.1,0c0,0,0.1,0,0.1,0c0,0,0,0.1,0,0.2v0.9
			c0,0.1,0,0.1,0,0.2c0,0,0,0-0.1,0c0,0-0.1,0-0.1,0c0,0,0-0.1-0.1-0.1c0-0.1-0.1-0.2-0.1-0.3c0-0.1-0.1-0.1-0.2-0.1V57.3z
			 M83.1,58.9c0.2,0,0.4-0.1,0.5-0.2c0.1-0.1,0.2-0.3,0.3-0.4c0,0,0,0,0,0c0,0,0,0,0,0c0,0,0-0.1,0-0.1c0,0,0,0,0.1,0
			c0,0,0.1,0,0.1,0c0,0,0,0.1,0,0.1v0.9h-1V58.9z"/>
		<path fill="#D0D2D3" d="M86.5,55.8v0.3c-0.1,0-0.2,0.1-0.2,0.2c-0.1,0.1-0.1,0.2-0.1,0.4l0,0.1c0,0.1,0,0.1,0,0.1c0,0-0.1,0-0.1,0
			c0,0-0.1,0-0.1,0c0,0,0-0.1,0-0.1v-1H86.5z M87.7,58.7c0,0.1,0,0.1,0,0.1c0,0,0.1,0,0.1,0.1c0,0,0,0,0,0c0,0,0,0,0,0
			c0,0,0.1,0,0.1,0c0,0,0,0.1,0,0.1c0,0,0,0.1-0.1,0.1c0,0-0.1,0-0.2,0h-0.1h-1.1h-0.1c-0.1,0-0.1,0-0.2,0c0,0-0.1-0.1-0.1-0.1
			c0,0,0-0.1,0-0.1c0,0,0,0,0.1,0c0,0,0,0,0,0c0,0,0,0,0,0c0.1,0,0.1,0,0.1-0.1c0,0,0-0.1,0-0.1v-2.9h1.1V58.7z M88.6,56.8
			c0,0,0,0.1,0,0.1c0,0-0.1,0-0.1,0c0,0-0.1,0-0.1,0c0,0,0-0.1-0.1-0.1l0-0.2c0-0.1-0.1-0.3-0.1-0.3c-0.1-0.1-0.1-0.2-0.2-0.2v-0.3
			h0.6V56.8z"/>
		<path fill="#D0D2D3" d="M90.2,59.1h-1.1h-0.1c-0.1,0-0.1,0-0.1,0c0,0,0-0.1,0-0.1c0,0,0-0.1,0-0.1c0,0,0,0,0.1,0c0,0,0,0,0,0
			c0,0,0,0,0,0c0,0,0.1,0,0.1-0.1c0,0,0-0.1,0-0.1v-2.4c0,0,0-0.1,0-0.1c0,0,0,0-0.1-0.1c0,0,0,0,0,0c0,0,0,0,0,0c0,0-0.1,0-0.1,0
			c0,0,0,0,0-0.1c0,0,0-0.1,0-0.1c0,0,0.1,0,0.1,0l0.1,0h1.1V59.1z M91.4,55.8v0.9c0,0.1,0,0.1,0,0.1c0,0,0,0-0.1,0c0,0-0.1,0-0.1,0
			c0,0,0,0,0-0.1c0,0,0,0,0,0c0,0,0,0,0,0c-0.1-0.2-0.2-0.3-0.3-0.4c-0.1-0.1-0.3-0.2-0.5-0.2v-0.3H91.4z M90.4,57.3
			c0.1,0,0.2-0.1,0.2-0.1c0-0.1,0.1-0.1,0.1-0.2c0-0.1,0-0.1,0.1-0.1c0,0,0,0,0.1,0c0,0,0.1,0,0.1,0c0,0,0,0.1,0,0.2v0.9
			c0,0.1,0,0.1,0,0.2c0,0,0,0-0.1,0c0,0-0.1,0-0.1,0c0,0,0-0.1-0.1-0.1c0-0.1-0.1-0.2-0.1-0.3c0-0.1-0.1-0.1-0.2-0.1V57.3z
			 M90.4,58.9c0.2,0,0.4-0.1,0.5-0.2c0.1-0.1,0.2-0.3,0.3-0.4c0,0,0,0,0,0c0,0,0,0,0,0c0,0,0-0.1,0-0.1c0,0,0,0,0.1,0
			c0,0,0.1,0,0.1,0c0,0,0,0.1,0,0.1v0.9h-1V58.9z"/>
		<path fill="#D0D2D3" d="M93.2,56.2l1.2,2.5c0,0,0,0,0,0c0,0,0,0,0,0c0,0,0,0,0,0c0,0,0,0,0,0c0,0,0,0,0,0c0,0,0,0,0,0c0,0,0,0,0,0
			c0,0,0,0,0,0c0,0,0,0,0,0c0,0,0,0,0,0.1c0,0,0,0.1-0.1,0.1c0,0-0.1,0-0.2,0h-1.1c-0.1,0-0.1,0-0.1,0c0,0,0,0-0.1,0c0,0,0,0,0,0
			c0,0,0,0,0,0c0,0,0,0,0,0c0,0,0,0,0-0.1c0,0,0,0,0,0c0,0,0,0,0,0c0,0,0,0,0,0c0,0,0,0,0,0c0,0,0,0,0,0c0,0,0,0,0,0c0,0,0,0,0,0
			c0,0,0,0,0,0c0,0,0,0,0,0c0,0,0,0,0,0c0,0,0,0,0,0c0,0,0,0,0,0l-1.2-2.4c0,0,0-0.1-0.1-0.1c0,0-0.1,0-0.1-0.1c0,0-0.1,0-0.1-0.1
			c0,0,0,0,0-0.1c0-0.1,0-0.1,0-0.1c0,0,0.1,0,0.2,0l1.1,0c0.1,0,0.1,0,0.2,0c0,0,0.1,0.1,0.1,0.1c0,0,0,0,0,0.1c0,0,0,0,0,0
			c0,0,0,0,0,0c0,0,0,0,0,0c0,0,0,0,0,0c0,0,0,0,0,0C93.1,56.1,93.1,56.1,93.2,56.2C93.1,56.1,93.1,56.1,93.2,56.2
			C93.1,56.2,93.1,56.2,93.2,56.2C93.1,56.2,93.1,56.2,93.2,56.2L93.2,56.2z M92.7,58.2l-0.1,0.3c0,0.1-0.1,0.1-0.1,0.1
			c0,0,0,0.1,0,0.1c0,0,0,0.1,0,0.1c0,0,0.1,0.1,0.1,0.1c0,0,0,0,0,0c0,0,0,0,0,0c0,0,0.1,0,0.1,0.1c0,0,0,0,0,0.1c0,0,0,0.1,0,0.1
			c0,0-0.1,0-0.2,0h-0.6c-0.1,0-0.1,0-0.1,0c0,0,0,0,0-0.1c0,0,0-0.1,0-0.1c0,0,0.1,0,0.1-0.1c0.1,0,0.1-0.1,0.2-0.1
			c0,0,0.1-0.1,0.1-0.1l0.4-0.7L92.7,58.2z M93.6,56.6l0.1-0.2c0,0,0,0,0-0.1c0,0,0,0,0-0.1c0,0,0-0.1,0-0.1c0,0,0-0.1-0.1-0.1
			L93.5,56c0,0,0,0,0,0c0,0,0,0,0-0.1c0,0,0,0,0,0c0,0,0,0,0,0c0,0,0-0.1,0-0.1c0,0,0.1,0,0.1,0l0.7,0c0,0,0.1,0,0.1,0
			c0,0,0,0,0,0.1c0,0,0,0,0,0.1c0,0,0,0,0,0c0,0,0,0,0,0c0,0,0,0-0.1,0c-0.1,0-0.1,0.1-0.2,0.1c0,0-0.1,0.1-0.1,0.2l-0.4,0.6
			L93.6,56.6z"/>
		<path fill="#D0D2D3" d="M95.4,55.8v0.3c-0.1,0-0.2,0.1-0.2,0.2c-0.1,0.1-0.1,0.2-0.1,0.4l0,0.1c0,0.1,0,0.1,0,0.1c0,0-0.1,0-0.1,0
			c0,0-0.1,0-0.1,0c0,0,0-0.1,0-0.1v-1H95.4z M96.7,58.7c0,0.1,0,0.1,0,0.1c0,0,0.1,0,0.1,0.1c0,0,0,0,0,0c0,0,0,0,0,0
			c0,0,0.1,0,0.1,0c0,0,0,0.1,0,0.1c0,0,0,0.1-0.1,0.1c0,0-0.1,0-0.2,0h-0.1h-1.1h-0.1c-0.1,0-0.1,0-0.2,0c0,0-0.1-0.1-0.1-0.1
			c0,0,0-0.1,0-0.1c0,0,0,0,0.1,0c0,0,0,0,0,0c0,0,0,0,0,0c0.1,0,0.1,0,0.1-0.1c0,0,0-0.1,0-0.1v-2.9h1.1V58.7z M97.5,56.8
			c0,0,0,0.1,0,0.1c0,0-0.1,0-0.1,0c0,0-0.1,0-0.1,0c0,0,0-0.1-0.1-0.1l0-0.2c0-0.1-0.1-0.3-0.1-0.3c-0.1-0.1-0.1-0.2-0.2-0.2v-0.3
			h0.6V56.8z"/>
		<path fill="#D0D2D3" d="M99.5,59.1L99.5,59.1c-0.1,0-0.2,0-0.2,0c0,0,0-0.1,0-0.1c0,0,0-0.1,0-0.1c0,0,0,0,0.1,0c0,0,0,0,0,0
			c0,0,0,0,0,0c0,0,0.1,0,0.1-0.1c0,0,0-0.1,0-0.1v-2.4c0,0,0-0.1,0-0.1c0,0,0,0-0.1-0.1c0,0,0,0,0,0c0,0,0,0,0,0c0,0-0.1,0-0.1,0
			c0,0,0-0.1,0-0.1c0,0,0-0.1,0-0.1c0,0,0.1,0,0.1,0l0.1,0h1.1h0.1c0.1,0,0.1,0,0.1,0c0,0,0,0.1,0,0.1c0,0,0,0.1,0,0.1
			c0,0,0,0-0.1,0l-0.1,0c0,0,0,0-0.1,0.1c0,0,0,0.1,0,0.1v2.4c0,0,0,0.1,0,0.1c0,0,0,0,0.1,0.1l0.1,0c0,0,0.1,0,0.1,0.1
			c0,0,0,0,0,0.1c0,0,0,0.1,0,0.1c0,0-0.1,0-0.1,0h-0.1H99.5z M101.2,57.3v-1.1c0,0,0-0.1,0-0.1c0,0,0,0-0.1-0.1l-0.1,0
			c0,0-0.1,0-0.1,0c0,0,0-0.1,0-0.1c0,0,0-0.1,0-0.1c0,0,0.1,0,0.1,0l0.1,0h1.1h0.1c0.1,0,0.1,0,0.1,0c0,0,0,0.1,0,0.1
			c0,0,0,0.1,0,0.1c0,0,0,0-0.1,0c0,0,0,0,0,0c0,0,0,0,0,0c0,0-0.1,0-0.1,0.1c0,0,0,0.1,0,0.1v2.4c0,0.1,0,0.1,0,0.1
			c0,0,0,0,0.1,0.1c0,0,0,0,0,0c0,0,0,0,0,0c0,0,0.1,0,0.1,0c0,0,0,0,0,0.1c0,0,0,0.1,0,0.1c0,0-0.1,0-0.1,0h-0.1h-1.1h-0.1
			c-0.1,0-0.1,0-0.1,0c0,0,0-0.1,0-0.1c0,0,0-0.1,0-0.1c0,0,0,0,0.1-0.1l0.1,0c0,0,0,0,0.1,0c0,0,0-0.1,0-0.1v-1.1h-0.4v-0.3H101.2z
			"/>
		<path fill="#D0D2D3" d="M104.3,59.1h-1.1h-0.1c-0.1,0-0.1,0-0.1,0c0,0,0-0.1,0-0.1c0,0,0-0.1,0-0.1c0,0,0,0,0.1,0c0,0,0,0,0,0
			c0,0,0,0,0,0c0,0,0.1,0,0.1-0.1c0,0,0-0.1,0-0.1v-2.4c0,0,0-0.1,0-0.1c0,0,0,0-0.1-0.1c0,0,0,0,0,0c0,0,0,0,0,0c0,0-0.1,0-0.1,0
			c0,0,0,0,0-0.1c0,0,0-0.1,0-0.1c0,0,0.1,0,0.1,0l0.1,0h1.1V59.1z M105.5,55.8v0.9c0,0.1,0,0.1,0,0.1c0,0,0,0-0.1,0
			c0,0-0.1,0-0.1,0s0,0,0-0.1c0,0,0,0,0,0c0,0,0,0,0,0c-0.1-0.2-0.2-0.3-0.3-0.4c-0.1-0.1-0.3-0.2-0.5-0.2v-0.3H105.5z M104.5,57.3
			c0.1,0,0.2-0.1,0.2-0.1c0-0.1,0.1-0.1,0.1-0.2c0-0.1,0-0.1,0.1-0.1c0,0,0,0,0.1,0c0,0,0.1,0,0.1,0c0,0,0,0.1,0,0.2v0.9
			c0,0.1,0,0.1,0,0.2c0,0,0,0-0.1,0c0,0-0.1,0-0.1,0c0,0,0-0.1-0.1-0.1c0-0.1-0.1-0.2-0.1-0.3c0-0.1-0.1-0.1-0.2-0.1V57.3z
			 M104.5,58.9c0.2,0,0.4-0.1,0.5-0.2c0.1-0.1,0.2-0.3,0.3-0.4c0,0,0,0,0,0c0,0,0,0,0,0c0,0,0-0.1,0-0.1c0,0,0,0,0.1,0
			c0,0,0.1,0,0.1,0c0,0,0,0.1,0,0.1v0.9h-1V58.9z"/>
		<path fill="#D0D2D3" d="M107.3,58.7c0,0.1,0,0.1,0,0.1c0,0,0,0,0.1,0.1c0,0,0,0,0,0c0,0,0,0,0,0c0,0,0.1,0,0.1,0c0,0,0,0.1,0,0.1
			c0,0,0,0.1,0,0.1c0,0-0.1,0-0.2,0h-0.1h-1.1h-0.1c-0.1,0-0.1,0-0.1,0c0,0,0-0.1,0-0.1c0,0,0-0.1,0-0.1c0,0,0,0,0.1,0c0,0,0,0,0,0
			c0,0,0,0,0,0c0,0,0.1,0,0.1-0.1c0,0,0-0.1,0-0.1v-2.4c0,0,0-0.1,0-0.1c0,0,0,0-0.1-0.1c0,0,0,0,0,0c0,0,0,0,0,0c0,0-0.1,0-0.1-0.1
			c0,0,0,0,0-0.1c0,0,0-0.1,0-0.1c0,0,0.1,0,0.1,0l0.1,0h1.1V58.7z M107.5,56.1v-0.3h0.1c0.2,0,0.4,0,0.5,0c0.1,0,0.2,0,0.3,0.1
			c0,0,0,0,0,0c0,0,0,0,0,0c0.1,0.1,0.2,0.2,0.3,0.3c0.1,0.1,0.1,0.3,0.1,0.4c0,0.1,0,0.2-0.1,0.3c0,0.1-0.1,0.2-0.2,0.3
			c0,0,0,0,0,0c0,0-0.1,0.1-0.1,0.1c0,0-0.1,0-0.1,0.1c0,0-0.1,0-0.1,0c0,0-0.1,0-0.2,0c0,0,0,0,0,0c0,0,0,0,0,0
			c0.1,0,0.2,0,0.2,0.1c0.1,0,0.1,0,0.2,0.1c0,0,0,0,0,0c0,0,0,0,0,0c0.1,0,0.1,0.1,0.2,0.2c0,0.1,0.1,0.2,0.1,0.2v0.5
			c0,0,0,0,0,0.1c0,0,0,0,0,0c0,0,0,0,0,0c0,0,0,0,0,0c0,0,0,0,0,0c0,0,0,0,0,0c0,0,0,0,0,0c0,0,0,0,0,0c0,0,0,0,0,0c0,0,0,0,0,0
			c0,0,0,0,0,0c0,0,0,0,0,0c0,0,0,0,0.1,0c0,0,0,0,0,0.1c0,0,0,0,0,0c0,0,0,0,0,0c0,0,0,0.1,0,0.1c0,0,0,0.1-0.1,0.1
			c0,0-0.1,0.1-0.1,0.1c0,0-0.1,0.1-0.1,0.1c-0.1,0-0.1,0.1-0.2,0.1c-0.1,0-0.2,0-0.2,0c-0.2,0-0.4-0.1-0.5-0.2
			c-0.1-0.1-0.2-0.3-0.2-0.5v-0.4c0-0.1,0-0.2-0.1-0.3c0-0.1-0.1-0.1-0.2-0.1v-0.3c0.1,0,0.2,0,0.2-0.1c0,0,0.1-0.1,0.1-0.2v-0.6
			c0-0.1,0-0.2-0.1-0.2C107.6,56.1,107.6,56.1,107.5,56.1L107.5,56.1z"/>
		<path fill="#D0D2D3" d="M110.8,59.1h-1.1h-0.1c-0.1,0-0.1,0-0.1,0c0,0,0-0.1,0-0.1c0,0,0-0.1,0-0.1c0,0,0,0,0.1,0c0,0,0,0,0,0
			c0,0,0,0,0,0c0,0,0.1,0,0.1-0.1c0,0,0-0.1,0-0.1v-2.4c0,0,0-0.1,0-0.1c0,0,0,0-0.1-0.1c0,0,0,0,0,0c0,0,0,0,0,0c0,0-0.1,0-0.1,0
			c0,0,0,0,0-0.1c0,0,0-0.1,0-0.1c0,0,0.1,0,0.1,0l0.1,0h1.1V59.1z M112,55.8v0.9c0,0.1,0,0.1,0,0.1c0,0,0,0-0.1,0c0,0-0.1,0-0.1,0
			c0,0,0,0,0-0.1c0,0,0,0,0,0c0,0,0,0,0,0c-0.1-0.2-0.2-0.3-0.3-0.4c-0.1-0.1-0.3-0.2-0.5-0.2v-0.3H112z M111,57.3
			c0.1,0,0.2-0.1,0.2-0.1c0-0.1,0.1-0.1,0.1-0.2c0-0.1,0-0.1,0.1-0.1c0,0,0,0,0.1,0c0,0,0.1,0,0.1,0c0,0,0,0.1,0,0.2v0.9
			c0,0.1,0,0.1,0,0.2c0,0,0,0-0.1,0c0,0-0.1,0-0.1,0c0,0,0-0.1-0.1-0.1c0-0.1-0.1-0.2-0.1-0.3c0-0.1-0.1-0.1-0.2-0.1V57.3z
			 M111,58.9c0.2,0,0.4-0.1,0.5-0.2c0.1-0.1,0.2-0.3,0.3-0.4c0,0,0,0,0,0c0,0,0,0,0,0c0,0,0-0.1,0-0.1c0,0,0,0,0.1,0
			c0,0,0.1,0,0.1,0c0,0,0,0.1,0,0.1v0.9h-1V58.9z"/>
	</g>
	<g>
		<path fill="#D0D2D3" d="M173.1,57.2l0.2-0.7v0.8l-0.6,1.9h-0.1l-0.9-2.8c0,0,0,0,0,0c0,0,0,0,0,0c0-0.1,0-0.1-0.1-0.1
			c0,0-0.1,0-0.1,0c-0.1,0-0.1,0-0.1-0.1c0,0,0-0.1,0-0.1c0,0,0-0.1,0-0.1c0,0,0.1,0,0.1,0l1.1,0L173.1,57.2z M171.9,57.7v0.7
			c0,0.1,0,0.2,0,0.3c0,0.1,0.1,0.1,0.1,0.2l0.1,0.1c0,0,0.1,0,0.1,0.1c0,0,0,0,0,0.1c0,0,0,0.1,0,0.1c0,0-0.1,0-0.1,0h-0.6
			c-0.1,0-0.1,0-0.1,0c0,0,0,0,0-0.1c0,0,0,0,0,0c0,0,0,0,0,0c0,0,0,0,0,0c0,0,0,0,0,0c0.1-0.1,0.2-0.1,0.2-0.2
			c0-0.1,0.1-0.2,0.1-0.3v-1.5L171.9,57.7z M174.6,55.8L174.6,55.8c0.1,0,0.2,0,0.2,0c0,0,0,0.1,0,0.1c0,0,0,0.1,0,0.1
			c0,0,0,0-0.1,0c0,0,0,0,0,0c0,0,0,0,0,0c0,0-0.1,0-0.1,0.1c0,0,0,0.1,0,0.1v2.4c0,0.1,0,0.1,0,0.1c0,0,0,0,0.1,0.1c0,0,0,0,0,0
			c0,0,0,0,0,0c0,0,0.1,0,0.1,0c0,0,0,0,0,0.1c0,0,0,0.1,0,0.1c0,0-0.1,0-0.1,0h-0.1h-1.1h-0.1c-0.1,0-0.1,0-0.2,0
			c0,0-0.1-0.1-0.1-0.1c0,0,0-0.1,0-0.1c0,0,0,0,0.1,0c0,0,0,0,0,0c0,0,0,0,0,0c0.1,0,0.1,0,0.1-0.1c0,0,0-0.1,0-0.1v-2.9H174.6z"/>
		<path fill="#D0D2D3" d="M176.3,56.1c0,0.1,0,0.1,0,0.2v2.2c0,0.1,0,0.2,0,0.3c0,0.1,0.1,0.1,0.2,0.1v0.3c-0.4,0-0.8-0.2-1-0.5
			c-0.3-0.3-0.4-0.7-0.4-1.2c0-0.5,0.1-0.9,0.4-1.2c0.3-0.3,0.6-0.5,1-0.5V56C176.4,56,176.4,56.1,176.3,56.1z M176.7,56v-0.3
			c0.4,0,0.8,0.2,1,0.5c0.3,0.3,0.4,0.7,0.4,1.2c0,0.5-0.1,0.9-0.4,1.2c-0.2,0.3-0.6,0.5-1,0.5v-0.3c0.1,0,0.1-0.1,0.2-0.1
			c0-0.1,0.1-0.2,0.1-0.3v-2.2c0-0.1,0-0.2-0.1-0.2C176.9,56.1,176.8,56,176.7,56L176.7,56z"/>
		<path fill="#D0D2D3" d="M179.7,58.7c0,0.1,0,0.1,0,0.1c0,0,0,0,0.1,0.1c0,0,0,0,0,0c0,0,0,0,0,0c0,0,0.1,0,0.1,0c0,0,0,0.1,0,0.1
			c0,0,0,0.1,0,0.1c0,0-0.1,0-0.2,0h-0.1h-1.1h-0.1c-0.1,0-0.1,0-0.1,0c0,0,0-0.1,0-0.1c0,0,0-0.1,0-0.1c0,0,0,0,0.1,0c0,0,0,0,0,0
			c0,0,0,0,0,0c0,0,0.1,0,0.1-0.1c0,0,0-0.1,0-0.1v-2.4c0,0,0-0.1,0-0.1c0,0,0,0-0.1-0.1c0,0,0,0,0,0c0,0,0,0,0,0c0,0-0.1,0-0.1-0.1
			c0,0,0,0,0-0.1c0,0,0-0.1,0-0.1c0,0,0.1,0,0.1,0l0.1,0h1.1V58.7z M179.9,56.1v-0.3h0.1c0.2,0,0.4,0,0.5,0c0.1,0,0.2,0,0.3,0.1
			c0,0,0,0,0,0c0,0,0,0,0,0c0.1,0.1,0.2,0.2,0.3,0.3c0.1,0.1,0.1,0.3,0.1,0.4c0,0.1,0,0.2-0.1,0.3c0,0.1-0.1,0.2-0.2,0.3
			c0,0,0,0,0,0c0,0-0.1,0.1-0.1,0.1c0,0-0.1,0-0.1,0.1c0,0-0.1,0-0.1,0c0,0-0.1,0-0.2,0c0,0,0,0,0,0c0,0,0,0,0,0
			c0.1,0,0.2,0,0.2,0.1c0.1,0,0.1,0,0.2,0.1c0,0,0,0,0,0c0,0,0,0,0,0c0.1,0,0.1,0.1,0.2,0.2c0,0.1,0.1,0.2,0.1,0.2v0.5
			c0,0,0,0,0,0.1c0,0,0,0,0,0c0,0,0,0,0,0c0,0,0,0,0,0c0,0,0,0,0,0c0,0,0,0,0,0c0,0,0,0,0,0c0,0,0,0,0,0c0,0,0,0,0,0c0,0,0,0,0,0
			c0,0,0,0,0,0c0,0,0,0,0,0c0,0,0,0,0.1,0c0,0,0,0,0,0.1c0,0,0,0,0,0c0,0,0,0,0,0c0,0,0,0.1,0,0.1c0,0,0,0.1-0.1,0.1
			c0,0-0.1,0.1-0.1,0.1c0,0-0.1,0.1-0.1,0.1c-0.1,0-0.1,0.1-0.2,0.1c-0.1,0-0.2,0-0.2,0c-0.2,0-0.4-0.1-0.5-0.2
			c-0.1-0.1-0.2-0.3-0.2-0.5v-0.4c0-0.1,0-0.2-0.1-0.3c0-0.1-0.1-0.1-0.2-0.1v-0.3c0.1,0,0.2,0,0.2-0.1c0,0,0.1-0.1,0.1-0.2v-0.6
			c0-0.1,0-0.2-0.1-0.2C180.1,56.1,180,56.1,179.9,56.1L179.9,56.1z"/>
		<path fill="#D0D2D3" d="M183.2,59.1h-1.1h-0.1c-0.1,0-0.1,0-0.1,0c0,0,0-0.1,0-0.1c0,0,0-0.1,0-0.1c0,0,0,0,0.1,0c0,0,0,0,0,0
			c0,0,0,0,0,0c0,0,0.1,0,0.1-0.1c0,0,0-0.1,0-0.1v-2.4c0,0,0-0.1,0-0.1c0,0,0,0-0.1-0.1c0,0,0,0,0,0c0,0,0,0,0,0c0,0-0.1,0-0.1,0
			s0,0,0-0.1c0,0,0-0.1,0-0.1c0,0,0.1,0,0.1,0l0.1,0h1.1V59.1z M184.4,55.8v0.9c0,0.1,0,0.1,0,0.1c0,0,0,0-0.1,0c0,0-0.1,0-0.1,0
			c0,0,0,0,0-0.1c0,0,0,0,0,0c0,0,0,0,0,0c-0.1-0.2-0.2-0.3-0.3-0.4c-0.1-0.1-0.3-0.2-0.5-0.2v-0.3H184.4z M183.4,57.3
			c0.1,0,0.2-0.1,0.2-0.1c0-0.1,0.1-0.1,0.1-0.2c0-0.1,0-0.1,0.1-0.1c0,0,0,0,0.1,0c0,0,0.1,0,0.1,0c0,0,0,0.1,0,0.2v0.9
			c0,0.1,0,0.1,0,0.2c0,0,0,0-0.1,0c0,0-0.1,0-0.1,0c0,0,0-0.1-0.1-0.1c0-0.1-0.1-0.2-0.1-0.3c0-0.1-0.1-0.1-0.2-0.1V57.3z
			 M183.4,58.9c0.2,0,0.4-0.1,0.5-0.2c0.1-0.1,0.2-0.3,0.3-0.4c0,0,0,0,0,0c0,0,0,0,0,0c0,0,0-0.1,0-0.1c0,0,0,0,0.1,0
			c0,0,0.1,0,0.1,0c0,0,0,0.1,0,0.1v0.9h-1V58.9z"/>
		<path fill="#D0D2D3" d="M186.8,55.8v0.3c-0.1,0-0.2,0.1-0.2,0.2c-0.1,0.1-0.1,0.2-0.1,0.4l0,0.1c0,0.1,0,0.1,0,0.1
			c0,0-0.1,0-0.1,0c0,0-0.1,0-0.1,0c0,0,0-0.1,0-0.1v-1H186.8z M188.1,58.7c0,0.1,0,0.1,0,0.1c0,0,0.1,0,0.1,0.1c0,0,0,0,0,0
			c0,0,0,0,0,0c0,0,0.1,0,0.1,0c0,0,0,0.1,0,0.1c0,0,0,0.1-0.1,0.1c0,0-0.1,0-0.2,0h-0.1H187h-0.1c-0.1,0-0.1,0-0.2,0
			c0,0-0.1-0.1-0.1-0.1c0,0,0-0.1,0-0.1c0,0,0,0,0.1,0c0,0,0,0,0,0c0,0,0,0,0,0c0.1,0,0.1,0,0.1-0.1c0,0,0-0.1,0-0.1v-2.9h1.1V58.7z
			 M188.9,56.8c0,0,0,0.1,0,0.1c0,0-0.1,0-0.1,0c0,0-0.1,0-0.1,0c0,0,0-0.1-0.1-0.1l0-0.2c0-0.1-0.1-0.3-0.1-0.3
			c-0.1-0.1-0.1-0.2-0.2-0.2v-0.3h0.6V56.8z"/>
		<path fill="#D0D2D3" d="M190.5,59.1h-1.1h-0.1c-0.1,0-0.1,0-0.1,0c0,0,0-0.1,0-0.1c0,0,0-0.1,0-0.1c0,0,0,0,0.1,0c0,0,0,0,0,0
			c0,0,0,0,0,0c0,0,0.1,0,0.1-0.1c0,0,0-0.1,0-0.1v-2.4c0,0,0-0.1,0-0.1c0,0,0,0-0.1-0.1c0,0,0,0,0,0c0,0,0,0,0,0c0,0-0.1,0-0.1,0
			s0,0,0-0.1c0,0,0-0.1,0-0.1c0,0,0.1,0,0.1,0l0.1,0h1.1V59.1z M191.7,55.8v0.9c0,0.1,0,0.1,0,0.1c0,0,0,0-0.1,0c0,0-0.1,0-0.1,0
			s0,0,0-0.1c0,0,0,0,0,0c0,0,0,0,0,0c-0.1-0.2-0.2-0.3-0.3-0.4c-0.1-0.1-0.3-0.2-0.5-0.2v-0.3H191.7z M190.7,57.3
			c0.1,0,0.2-0.1,0.2-0.1c0-0.1,0.1-0.1,0.1-0.2c0-0.1,0-0.1,0.1-0.1c0,0,0,0,0.1,0c0,0,0.1,0,0.1,0c0,0,0,0.1,0,0.2v0.9
			c0,0.1,0,0.1,0,0.2c0,0,0,0-0.1,0c0,0-0.1,0-0.1,0c0,0,0-0.1-0.1-0.1c0-0.1-0.1-0.2-0.1-0.3c0-0.1-0.1-0.1-0.2-0.1V57.3z
			 M190.7,58.9c0.2,0,0.4-0.1,0.5-0.2c0.1-0.1,0.2-0.3,0.3-0.4c0,0,0,0,0,0c0,0,0,0,0,0c0,0,0-0.1,0-0.1c0,0,0,0,0.1,0
			c0,0,0.1,0,0.1,0c0,0,0,0.1,0,0.1v0.9h-1V58.9z"/>
		<path fill="#D0D2D3" d="M193.5,56.2l1.2,2.5c0,0,0,0,0,0c0,0,0,0,0,0c0,0,0,0,0,0c0,0,0,0,0,0c0,0,0,0,0,0c0,0,0,0,0,0
			c0,0,0,0,0,0c0,0,0,0,0,0c0,0,0,0,0,0c0,0,0,0,0,0.1c0,0,0,0.1,0,0.1c0,0-0.1,0-0.2,0h-1.1c-0.1,0-0.1,0-0.1,0c0,0,0,0-0.1,0
			c0,0,0,0,0,0c0,0,0,0,0,0c0,0,0,0,0,0c0,0,0,0,0-0.1c0,0,0,0,0,0c0,0,0,0,0,0c0,0,0,0,0,0c0,0,0,0,0,0c0,0,0,0,0,0c0,0,0,0,0,0
			c0,0,0,0,0,0c0,0,0,0,0,0c0,0,0,0,0,0c0,0,0,0,0,0c0,0,0,0,0,0c0,0,0,0,0,0l-1.2-2.4c0,0,0-0.1-0.1-0.1c0,0-0.1,0-0.1-0.1
			c0,0-0.1,0-0.1-0.1c0,0,0,0,0-0.1c0-0.1,0-0.1,0.1-0.1c0,0,0.1,0,0.2,0l1.1,0c0.1,0,0.1,0,0.2,0c0,0,0.1,0.1,0.1,0.1
			c0,0,0,0,0,0.1c0,0,0,0,0,0c0,0,0,0,0,0c0,0,0,0,0,0c0,0,0,0,0,0c0,0,0,0,0,0C193.4,56.1,193.4,56.1,193.5,56.2
			C193.4,56.1,193.4,56.1,193.5,56.2C193.4,56.2,193.4,56.2,193.5,56.2C193.4,56.2,193.5,56.2,193.5,56.2L193.5,56.2z M193,58.2
			l-0.2,0.3c0,0.1-0.1,0.1-0.1,0.1c0,0,0,0.1,0,0.1c0,0,0,0.1,0,0.1c0,0,0.1,0.1,0.1,0.1c0,0,0,0,0,0c0,0,0,0,0,0c0,0,0.1,0,0.1,0.1
			c0,0,0,0,0,0.1c0,0,0,0.1,0,0.1c0,0-0.1,0-0.2,0h-0.6c-0.1,0-0.1,0-0.1,0c0,0,0,0,0-0.1c0,0,0-0.1,0-0.1c0,0,0.1,0,0.1-0.1
			c0.1,0,0.1-0.1,0.2-0.1c0,0,0.1-0.1,0.1-0.1l0.4-0.7L193,58.2z M193.9,56.6l0.1-0.2c0,0,0,0,0-0.1c0,0,0,0,0-0.1c0,0,0-0.1,0-0.1
			c0,0,0-0.1-0.1-0.1l-0.1-0.1c0,0,0,0,0,0c0,0,0,0,0-0.1c0,0,0,0,0,0c0,0,0,0,0,0c0,0,0-0.1,0-0.1c0,0,0.1,0,0.1,0l0.7,0
			c0,0,0.1,0,0.1,0c0,0,0,0,0,0.1c0,0,0,0,0,0.1c0,0,0,0,0,0c0,0,0,0,0,0c0,0,0,0-0.1,0c-0.1,0-0.1,0.1-0.2,0.1c0,0-0.1,0.1-0.1,0.2
			l-0.4,0.6L193.9,56.6z"/>
		<path fill="#D0D2D3" d="M195.7,55.8v0.3c-0.1,0-0.2,0.1-0.2,0.2c-0.1,0.1-0.1,0.2-0.1,0.4l0,0.1c0,0.1,0,0.1,0,0.1
			c0,0-0.1,0-0.1,0c0,0-0.1,0-0.1,0c0,0,0-0.1,0-0.1v-1H195.7z M197,58.7c0,0.1,0,0.1,0,0.1c0,0,0.1,0,0.1,0.1c0,0,0,0,0,0
			c0,0,0,0,0,0c0,0,0.1,0,0.1,0c0,0,0,0.1,0,0.1c0,0,0,0.1-0.1,0.1c0,0-0.1,0-0.2,0H197h-1.1h-0.1c-0.1,0-0.1,0-0.2,0
			c0,0-0.1-0.1-0.1-0.1c0,0,0-0.1,0-0.1c0,0,0,0,0.1,0c0,0,0,0,0,0c0,0,0,0,0,0c0.1,0,0.1,0,0.1-0.1c0,0,0-0.1,0-0.1v-2.9h1.1V58.7z
			 M197.8,56.8c0,0,0,0.1,0,0.1c0,0-0.1,0-0.1,0c0,0-0.1,0-0.1,0c0,0,0-0.1-0.1-0.1l0-0.2c0-0.1-0.1-0.3-0.1-0.3
			c-0.1-0.1-0.1-0.2-0.2-0.2v-0.3h0.6V56.8z"/>
		<path fill="#D0D2D3" d="M199.8,59.1L199.8,59.1c-0.1,0-0.2,0-0.2,0c0,0,0-0.1,0-0.1c0,0,0-0.1,0-0.1c0,0,0,0,0.1,0c0,0,0,0,0,0
			c0,0,0,0,0,0c0,0,0.1,0,0.1-0.1c0,0,0-0.1,0-0.1v-2.4c0,0,0-0.1,0-0.1c0,0,0,0-0.1-0.1c0,0,0,0,0,0c0,0,0,0,0,0c0,0-0.1,0-0.1,0
			c0,0,0-0.1,0-0.1c0,0,0-0.1,0-0.1c0,0,0.1,0,0.1,0l0.1,0h1.1h0.1c0.1,0,0.1,0,0.1,0c0,0,0,0.1,0,0.1c0,0,0,0.1,0,0.1
			c0,0,0,0-0.1,0l-0.1,0c0,0,0,0-0.1,0.1c0,0,0,0.1,0,0.1v2.4c0,0,0,0.1,0,0.1c0,0,0,0,0.1,0.1l0.1,0c0,0,0.1,0,0.1,0.1
			c0,0,0,0,0,0.1c0,0,0,0.1,0,0.1c0,0-0.1,0-0.1,0h-0.1H199.8z M201.5,57.3v-1.1c0,0,0-0.1,0-0.1c0,0,0,0-0.1-0.1l-0.1,0
			c0,0-0.1,0-0.1,0c0,0,0-0.1,0-0.1c0,0,0-0.1,0-0.1c0,0,0.1,0,0.1,0l0.1,0h1.1h0.1c0.1,0,0.1,0,0.1,0c0,0,0,0.1,0,0.1
			c0,0,0,0.1,0,0.1c0,0,0,0-0.1,0c0,0,0,0,0,0c0,0,0,0,0,0c0,0-0.1,0-0.1,0.1c0,0,0,0.1,0,0.1v2.4c0,0.1,0,0.1,0,0.1
			c0,0,0,0,0.1,0.1c0,0,0,0,0,0c0,0,0,0,0,0c0,0,0.1,0,0.1,0c0,0,0,0,0,0.1c0,0,0,0.1,0,0.1c0,0-0.1,0-0.1,0h-0.1h-1.1h-0.1
			c-0.1,0-0.1,0-0.1,0c0,0,0-0.1,0-0.1c0,0,0-0.1,0-0.1c0,0,0,0,0.1-0.1l0.1,0c0,0,0,0,0.1,0c0,0,0-0.1,0-0.1v-1.1h-0.4v-0.3H201.5z
			"/>
		<path fill="#D0D2D3" d="M204.6,59.1h-1.1h-0.1c-0.1,0-0.1,0-0.1,0c0,0,0-0.1,0-0.1c0,0,0-0.1,0-0.1c0,0,0,0,0.1,0c0,0,0,0,0,0
			c0,0,0,0,0,0c0,0,0.1,0,0.1-0.1c0,0,0-0.1,0-0.1v-2.4c0,0,0-0.1,0-0.1c0,0,0,0-0.1-0.1c0,0,0,0,0,0c0,0,0,0,0,0c0,0-0.1,0-0.1,0
			c0,0,0,0,0-0.1c0,0,0-0.1,0-0.1c0,0,0.1,0,0.1,0l0.1,0h1.1V59.1z M205.8,55.8v0.9c0,0.1,0,0.1,0,0.1c0,0,0,0-0.1,0
			c0,0-0.1,0-0.1,0c0,0,0,0,0-0.1c0,0,0,0,0,0c0,0,0,0,0,0c-0.1-0.2-0.2-0.3-0.3-0.4c-0.1-0.1-0.3-0.2-0.5-0.2v-0.3H205.8z
			 M204.8,57.3c0.1,0,0.2-0.1,0.2-0.1c0-0.1,0.1-0.1,0.1-0.2c0-0.1,0-0.1,0.1-0.1c0,0,0,0,0.1,0c0,0,0.1,0,0.1,0c0,0,0,0.1,0,0.2
			v0.9c0,0.1,0,0.1,0,0.2c0,0,0,0-0.1,0c0,0-0.1,0-0.1,0c0,0,0-0.1-0.1-0.1c0-0.1-0.1-0.2-0.1-0.3c0-0.1-0.1-0.1-0.2-0.1V57.3z
			 M204.8,58.9c0.2,0,0.4-0.1,0.5-0.2c0.1-0.1,0.2-0.3,0.3-0.4c0,0,0,0,0,0c0,0,0,0,0,0c0,0,0-0.1,0-0.1c0,0,0,0,0.1,0
			c0,0,0.1,0,0.1,0c0,0,0,0.1,0,0.1v0.9h-1V58.9z"/>
		<path fill="#D0D2D3" d="M207.6,58.7c0,0.1,0,0.1,0,0.1c0,0,0,0,0.1,0.1c0,0,0,0,0,0c0,0,0,0,0,0c0,0,0.1,0,0.1,0c0,0,0,0.1,0,0.1
			c0,0,0,0.1,0,0.1c0,0-0.1,0-0.2,0h-0.1h-1.1h-0.1c-0.1,0-0.1,0-0.1,0c0,0,0-0.1,0-0.1c0,0,0-0.1,0-0.1c0,0,0,0,0.1,0c0,0,0,0,0,0
			c0,0,0,0,0,0c0,0,0.1,0,0.1-0.1c0,0,0-0.1,0-0.1v-2.4c0,0,0-0.1,0-0.1c0,0,0,0-0.1-0.1c0,0,0,0,0,0c0,0,0,0,0,0c0,0-0.1,0-0.1-0.1
			c0,0,0,0,0-0.1c0,0,0-0.1,0-0.1c0,0,0.1,0,0.1,0l0.1,0h1.1V58.7z M207.8,56.1v-0.3h0.1c0.2,0,0.4,0,0.5,0c0.1,0,0.2,0,0.3,0.1
			c0,0,0,0,0,0c0,0,0,0,0,0c0.1,0.1,0.2,0.2,0.3,0.3c0.1,0.1,0.1,0.3,0.1,0.4c0,0.1,0,0.2-0.1,0.3c0,0.1-0.1,0.2-0.2,0.3
			c0,0,0,0,0,0c0,0-0.1,0.1-0.1,0.1c0,0-0.1,0-0.1,0.1c0,0-0.1,0-0.1,0c0,0-0.1,0-0.2,0c0,0,0,0,0,0c0,0,0,0,0,0
			c0.1,0,0.2,0,0.2,0.1c0.1,0,0.1,0,0.2,0.1c0,0,0,0,0,0c0,0,0,0,0,0c0.1,0,0.1,0.1,0.2,0.2c0,0.1,0.1,0.2,0.1,0.2v0.5
			c0,0,0,0,0,0.1c0,0,0,0,0,0c0,0,0,0,0,0c0,0,0,0,0,0c0,0,0,0,0,0c0,0,0,0,0,0c0,0,0,0,0,0c0,0,0,0,0,0c0,0,0,0,0,0c0,0,0,0,0,0
			c0,0,0,0,0,0c0,0,0,0,0,0c0,0,0,0,0.1,0c0,0,0,0,0,0.1c0,0,0,0,0,0c0,0,0,0,0,0c0,0,0,0.1,0,0.1c0,0,0,0.1-0.1,0.1
			c0,0-0.1,0.1-0.1,0.1c0,0-0.1,0.1-0.1,0.1c-0.1,0-0.1,0.1-0.2,0.1c-0.1,0-0.2,0-0.2,0c-0.2,0-0.4-0.1-0.5-0.2
			c-0.1-0.1-0.2-0.3-0.2-0.5v-0.4c0-0.1,0-0.2-0.1-0.3c0-0.1-0.1-0.1-0.2-0.1v-0.3c0.1,0,0.2,0,0.2-0.1c0,0,0.1-0.1,0.1-0.2v-0.6
			c0-0.1,0-0.2-0.1-0.2C207.9,56.1,207.9,56.1,207.8,56.1L207.8,56.1z"/>
		<path fill="#D0D2D3" d="M211.1,59.1H210h-0.1c-0.1,0-0.1,0-0.1,0c0,0,0-0.1,0-0.1c0,0,0-0.1,0-0.1c0,0,0,0,0.1,0c0,0,0,0,0,0
			c0,0,0,0,0,0c0,0,0.1,0,0.1-0.1c0,0,0-0.1,0-0.1v-2.4c0,0,0-0.1,0-0.1c0,0,0,0-0.1-0.1c0,0,0,0,0,0c0,0,0,0,0,0c0,0-0.1,0-0.1,0
			s0,0,0-0.1c0,0,0-0.1,0-0.1c0,0,0.1,0,0.1,0l0.1,0h1.1V59.1z M212.3,55.8v0.9c0,0.1,0,0.1,0,0.1c0,0,0,0-0.1,0c0,0-0.1,0-0.1,0
			s0,0,0-0.1c0,0,0,0,0,0c0,0,0,0,0,0c-0.1-0.2-0.2-0.3-0.3-0.4c-0.1-0.1-0.3-0.2-0.5-0.2v-0.3H212.3z M211.3,57.3
			c0.1,0,0.2-0.1,0.2-0.1c0-0.1,0.1-0.1,0.1-0.2c0-0.1,0-0.1,0.1-0.1c0,0,0,0,0.1,0c0,0,0.1,0,0.1,0c0,0,0,0.1,0,0.2v0.9
			c0,0.1,0,0.1,0,0.2c0,0,0,0-0.1,0c0,0-0.1,0-0.1,0c0,0,0-0.1-0.1-0.1c0-0.1-0.1-0.2-0.1-0.3c0-0.1-0.1-0.1-0.2-0.1V57.3z
			 M211.3,58.9c0.2,0,0.4-0.1,0.5-0.2c0.1-0.1,0.2-0.3,0.3-0.4c0,0,0,0,0,0c0,0,0,0,0,0c0,0,0-0.1,0-0.1c0,0,0,0,0.1,0
			c0,0,0.1,0,0.1,0c0,0,0,0.1,0,0.1v0.9h-1V58.9z"/>
	</g>
</g>
</svg>