<?xml version="1.0" encoding="utf-8"?>
<!-- Generator: Adobe Illustrator 16.0.0, SVG Export Plug-In . SVG Version: 6.00 Build 0)  -->
<!DOCTYPE svg PUBLIC "-//W3C//DTD SVG 1.1//EN" "http://www.w3.org/Graphics/SVG/1.1/DTD/svg11.dtd">
<svg version="1.1" id="Layer_1" xmlns="http://www.w3.org/2000/svg" xmlns:xlink="http://www.w3.org/1999/xlink" x="0px" y="0px"
	 width="380px" height="220px" viewBox="0 0 380 220" enable-background="new 0 0 380 220" xml:space="preserve">
	 <g><path id="Background" fill="none" stroke="#000000" stroke-width="4" stroke-linejoin="round" stroke-miterlimit="10" d="M265.461,79.344h113.235
	 	v61.314H265.461c0,9.886-16.854,17.886-37.685,17.886c-20.881,0-37.775,5.68-37.775,12.696c0-7.018-16.896-12.696-37.775-12.696
	 		c-20.83,0-37.685-8-37.685-17.886H1.304V79.344h113.237c0-5.738-4.397-10.381-9.835-10.381c47.145,0,85.295-9.037,85.295-20.203
	 			c0,11.166,38.149,20.203,85.294,20.203C269.859,68.963,265.461,73.605,265.461,79.344z"/></g>
	 			</svg>
