<?xml version="1.0" encoding="utf-8"?>
<!-- Generator: Adobe Illustrator 16.0.0, SVG Export Plug-In . SVG Version: 6.00 Build 0)  -->
<!DOCTYPE svg PUBLIC "-//W3C//DTD SVG 1.1//EN" "http://www.w3.org/Graphics/SVG/1.1/DTD/svg11.dtd">
<svg version="1.1" id="Layer_1" xmlns="http://www.w3.org/2000/svg" xmlns:xlink="http://www.w3.org/1999/xlink" x="0px" y="0px"
	 width="380px" height="220px" viewBox="0 0 380 220" enable-background="new 0 0 380 220" xml:space="preserve">
	 <g><g id="Background">
	 	<path fill="none" stroke="#000000" stroke-width="2" stroke-miterlimit="10" d="M190,185.235
	 			c-8.325-14.546-40.758-27.619-61.23-28.408c-1.494-15.011-21.924-21.382-126.095-21.461V84.635
	 					c104.171-0.08,124.601-6.449,126.095-21.461c20.474-0.789,52.905-13.861,61.23-28.408c8.325,14.547,40.758,27.619,61.233,28.408
	 							c1.492,15.012,21.924,21.383,126.094,21.461v50.731c-104.17,0.079-124.602,6.45-126.094,21.461
	 									C230.758,157.616,198.324,170.689,190,185.235z"/>
	 										<path fill="none" stroke="#000000" stroke-width="2" stroke-miterlimit="10" d="M190,38.275
	 												c10.493,13.854,39.381,25.492,59.489,26.812c1.279,6.388,6.691,12.759,25.957,16.431c18.107,3.45,49.004,5.037,99.881,5.115v46.735
	 														c-50.877,0.078-81.771,1.665-99.881,5.116c-11.668,2.224-23.57,5.953-25.898,16.426c-20.107,1.3-49.045,12.946-59.547,26.813
	 																c-10.492-13.854-39.382-25.491-59.488-26.811c-1.279-6.388-6.691-12.759-25.957-16.43c-18.109-3.451-49.003-5.038-99.88-5.116
	 																		V86.632c50.877-0.078,81.771-1.666,99.88-5.116c11.67-2.224,23.571-5.955,25.898-16.426C150.562,63.791,179.498,52.145,190,38.275
	 																				 M190,27.945c0,15.127-39.045,33.266-63.139,33.266c0,15.104-19.418,21.425-126.188,21.425v54.729
	 																				 		c106.77,0,126.188,6.32,126.188,21.425c24.094,0,63.139,18.139,63.139,33.265c0-15.126,39.045-33.265,63.139-33.265
	 																				 				c0-15.104,19.418-21.425,126.188-21.425V82.636c-106.771,0-126.188-6.321-126.188-21.425C229.045,61.211,190,43.072,190,27.945
	 																				 						L190,27.945z"/>
	 																				 						</g></g>
	 																				 						</svg>
