<svg xmlns:xlink="http://www.w3.org/1999/xlink" width="380" height="220" xmlns="http://www.w3.org/2000/svg">
 <g>
  
  <rect height="75.41242" width="369.99999" fill="#410000" y="71.17113" x="5" id="Background" class="svg_element" onclick="choose_color(Background,0)"><title xmlns="">Background</title></rect>
  <path d="m127.54626,135.18167c0,13.68294 -3.67209,25.19006 -8.64964,28.55031c1.15137,-0.28879 2.34727,-0.44781 3.58186,-0.44781c8.81181,0 15.95242,7.77626 15.95242,17.36827c0,2.99893 -0.69649,5.81787 -1.92679,8.28015c0.03383,0.01051 0.06607,0.01811 0.0972,0.03157c2.31506,-6.47379 24.17352,-11.54803 50.79901,-11.54803c25.40649,0 46.47017,4.6212 50.35707,10.66763c-0.98059,-2.25302 -1.53317,-4.77318 -1.53317,-7.43132c0,-9.59201 7.14491,-17.36827 15.95567,-17.36827c1.19699,0 2.36818,0.15025 3.49109,0.42384c-4.96249,-3.38829 -8.61473,-14.8732 -8.61473,-28.52634c0,-16.31775 5.21974,-29.54591 11.65421,-29.54591l0,-43.29491c-2.00681,0.99381 -4.23862,1.55386 -6.58968,1.55386c-8.80962,0 -15.95186,-7.77864 -15.95186,-17.36882c0,-2.71017 0.57083,-5.27536 1.58847,-7.56288c-5.61014,-1.83036 -12.03116,-2.8686 -18.85176,-2.8686l-63.21147,0c-6.82108,0 -13.23943,1.03823 -18.8512,2.8686c1.01602,2.28751 1.58794,4.85212 1.58794,7.56288c0,9.59024 -7.14063,17.36882 -15.95242,17.36882c-2.34995,0 -4.57909,-0.56005 -6.58749,-1.55386l0,43.29491c6.43552,0 11.65527,13.22816 11.65527,29.54591z" id="Face" fill="#410000" class="svg_element" onclick="choose_color(Face,0)"><title xmlns="">Face</title></path>
  <g fill="#FBB040" id="Trim" class="svg_element" onclick="choose_color(Trim,0)">
   <path id="svg_2" d="m115.89098,106.16483c6.14715,0 11.14725,13.00718 11.14725,28.99694c0,13.19249 -3.45726,24.73996 -8.41064,28.07974l-2.59753,1.7567l2.97934,-0.75122c1.14706,-0.28528 2.31505,-0.43085 3.46854,-0.43085c8.51804,0 15.44762,7.54358 15.44762,16.81464c0,2.80081 -0.64494,5.57234 -1.86395,8.01828l-0.29535,0.59219l1.13631,0.38173l0.17078,-0.48053c2.24686,-6.27792 24.35341,-11.19728 50.32698,-11.19728c24.64987,0 46.12057,4.48674 49.94516,10.43614l0.17992,0.28119l0.4178,-0.26776l0.14551,0.15141l-0.07248,-0.19643l0.33453,-0.21397l-0.13531,-0.30867c-0.98488,-2.26062 -1.48322,-4.68375 -1.48322,-7.19574c0,-9.27048 6.92796,-16.81464 15.44763,-16.81464c1.13092,0 2.26886,0.13855 3.37994,0.40921l2.87784,0.70445l-2.4971,-1.70996c-4.93298,-3.36609 -8.38004,-14.90651 -8.38004,-28.05809c0,-15.98978 5.00223,-28.99696 11.15048,-28.99696l0.50586,0l0,-44.70552l-0.71637,0.35894c-2.01489,0.9979 -4.16187,1.50357 -6.37918,1.50357c-8.51805,0 -15.4487,-7.54602 -15.4487,-16.81702c0,-2.56578 0.51874,-5.03042 1.54175,-7.32436l0.25563,-0.58342l-0.56653,-0.18298c-5.80618,-1.89058 -12.37383,-2.89022 -18.99783,-2.89022l-63.21147,0c-6.62238,0 -13.19272,0.99907 -18.99779,2.89022l-0.56654,0.18298l0.25829,0.58635c1.02087,2.29102 1.53801,4.75566 1.53801,7.32143c0,9.27105 -6.92957,16.81702 -15.44762,16.81702c-2.21946,0 -4.36428,-0.50566 -6.37914,-1.50357l-0.71368,-0.35432l0,44.7009l0.50533,0l0,-0.00058l0,0l0,0l0,0l0,0l0,0l0,0l0,0l0,0l0,0l0,0l0,0l0,0l-0.00002,0.00002l-0.00001,0.00002zm23.04633,-59.6594c0,-2.51258 -0.46562,-4.93864 -1.38925,-7.21563c5.5688,-1.74266 11.83246,-2.6634 18.14609,-2.6634l63.21147,0c6.31416,0 12.57625,0.92015 18.14612,2.6634c-0.92096,2.27582 -1.38979,4.70305 -1.38979,7.21563c0,9.8802 7.3828,17.91775 16.45879,17.91775c2.10565,0 4.14842,-0.42675 6.08437,-1.26915l0,41.93573c-6.56335,0.64598 -11.65582,13.70168 -11.65582,30.07201c0,12.13263 2.8972,22.96219 7.30284,27.64595c-0.5601,-0.06314 -1.11755,-0.0941 -1.67227,-0.0941c-9.07547,0 -16.4615,8.03638 -16.4615,17.91658c0,1.80054 0.24379,3.56601 0.72012,5.25723c-6.65628,-5.36949 -26.32263,-9.04597 -49.03761,-9.04597c-23.07909,0 -42.76213,3.7332 -49.23149,9.20033c0.50479,-1.74739 0.76901,-3.59117 0.76901,-5.41217c0,-9.8802 -7.38228,-17.91658 -16.45882,-17.91658c-0.57514,0 -1.15673,0.03214 -1.73615,0.10054c4.40938,-4.67792 7.30923,-15.51099 7.30923,-27.65239c0,-16.37093 -5.09248,-29.42606 -11.65527,-30.07201l0,-41.93457c1.93431,0.84182 3.97657,1.26856 6.08218,1.26856c9.07545,0 16.45776,-8.03755 16.45776,-17.91769l0,-0.00006l0,0l0,0l0,0l0,0l0,0l0,0l0,0l0,0l0,0l0,0l0,0l0,0.00001z" fill="#FBB040"></path>
   <path id="svg_3" d="m157.84276,137.14238c-1.17659,0.14906 -2.25169,0.21747 -3.42827,0.21747c-16.5179,0 -29.89912,-14.63528 -29.89912,-32.4817c0,-17.84702 13.38123,-32.47995 29.89912,-32.47995c1.17604,0 2.19208,0.15316 3.28918,0.28119c-0.1391,-1.17327 -0.28032,-2.36818 -0.28032,-3.71333c0,-17.8476 13.46283,-32.47937 29.91736,-32.47937c16.45294,0 29.8363,14.63176 29.8363,32.47937c0,1.34515 -0.05748,2.54006 -0.19656,3.71333c1.01711,-0.12803 2.11475,-0.28119 3.26932,-0.28119c16.4556,0 29.85669,14.56805 29.85669,32.47995c0,17.91132 -13.40109,32.5647 -29.85669,32.5647c-1.15457,0 -2.3129,-0.15199 -3.41109,-0.30107c0.1987,1.19609 0.28032,2.38513 0.28032,3.64728c0,17.91249 -13.32535,32.47998 -29.77827,32.47998c-16.45453,0 -29.91737,-14.56746 -29.91737,-32.47998c0,-1.26157 0.14122,-2.45061 0.4194,-3.64667l0,0l0,-0.00002zm-5.74547,6.16805c-18.36897,-1.2639 -33.04814,-17.98032 -33.04814,-38.36916c0,-20.27892 14.5406,-36.93103 32.98906,-38.12535c1.15459,-19.9954 16.59415,-36.21492 35.30197,-36.21492c18.64983,0 34.0658,16.06577 35.16235,36.06466c18.37111,1.26039 33.04651,18.06332 33.04651,38.36565c0,20.29879 -14.73607,37.17014 -33.10452,38.36093c-1.09818,19.99951 -16.53453,35.89166 -35.18275,35.89166c-18.62888,0.00058 -34.06847,-15.97867 -35.16449,-35.97346l0,0l0.00003,0l-0.00002,-0.00002z" fill="#FBB040" clip-rule="evenodd" fill-rule="evenodd"></path>
   <path id="svg_4" d="m166.99554,127.32765c-3.68657,2.45529 -7.99501,3.86824 -12.58105,3.86824c-13.30551,0 -24.09674,-11.75146 -24.09674,-26.16401c0,-14.4184 10.79123,-26.25112 24.09674,-26.25112c4.50604,0 8.75325,1.71519 12.36304,4.10384c-2.25328,-4.01732 -3.61032,-8.79343 -3.61032,-13.76482c0,-14.50491 10.85136,-26.24995 24.17297,-26.24995c13.24429,0 24.03389,11.74505 24.03389,26.24995c0,4.90649 -1.29688,9.50957 -3.41002,13.45908c3.68767,-2.45296 7.63683,-3.86298 12.22452,-3.86298c13.3839,0 24.17351,11.80994 24.17351,26.31601c0,14.41254 -10.78961,26.16402 -24.17351,26.16402c-4.44861,0 -8.67326,-1.41296 -12.3029,-3.71509c2.25221,4.0144 3.4884,8.31351 3.4884,13.30942c0,14.47977 -10.7896,26.22832 -24.03389,26.22832c-13.24266,0 -24.11389,-11.74911 -24.11389,-26.22832c0.00053,-4.90881 1.57611,-9.59433 3.76926,-13.46258l0,0l0,-0.00001zm-4.98561,5.27769c-0.69649,2.60437 -1.31462,5.36014 -1.31462,8.1843c0,15.98041 11.88513,28.92096 26.50685,28.92096c14.6797,0 26.62657,-12.94055 26.62657,-28.92096c0,-2.91129 -0.48167,-5.42969 -1.21901,-8.10245c2.39455,0.74243 4.98723,1.17386 7.57883,1.17386c14.67915,0 26.62657,-12.91541 26.62657,-28.9192c0,-15.89098 -11.94742,-28.89641 -26.62657,-28.89641c-2.67218,0 -4.98505,0.43553 -7.43706,1.25921c0.67769,-2.60551 1.07672,-5.36246 1.07672,-8.25034c0,-15.91728 -11.94688,-28.92213 -26.62657,-28.92213c-14.62172,0 -26.50685,13.00484 -26.50685,28.92213c0,2.8873 0.3582,5.70853 1.17819,8.40176c-2.47345,-0.82603 -4.92867,-1.41119 -7.52028,-1.41119c-14.68024,0 -26.56805,13.00542 -26.56805,28.89639c0,15.91611 11.88779,28.9192 26.56805,28.9192c2.67323,0 5.2654,-0.51854 7.65723,-1.25513l0,0l-0.00002,0l0.00002,0z" fill="#FBB040" clip-rule="evenodd" fill-rule="evenodd"></path>
  <title xmlns="">Trim</title></g>
  <path d="m220.15042,78.69308c-4.58981,0 -8.53632,1.41003 -12.22664,3.86357c2.11368,-3.95009 3.41,-8.55259 3.41,-13.45907c0,-14.50549 -10.78958,-26.25053 -24.03389,-26.25053c-13.31999,0 -24.17297,11.74504 -24.17297,26.25053c0,4.97021 1.35542,9.74749 3.61032,13.7654c-3.61032,-2.38689 -7.8586,-4.10442 -12.36465,-4.10442c-13.30441,0 -24.09457,11.8339 -24.09457,26.24879c0,14.41605 10.79016,26.16341 24.09457,26.16341c4.58768,0 8.8961,-1.41061 12.58324,-3.86355c-2.19316,3.86355 -3.76874,8.55259 -3.76874,13.45965c0,14.47977 10.87068,26.22891 24.11281,26.22891c13.24483,0 24.03389,-11.74974 24.03389,-26.22891c0,-4.99417 -1.23566,-9.29385 -3.4884,-13.30941c3.62912,2.30213 7.85646,3.71331 12.30505,3.71331c13.38231,0 24.17029,-11.74737 24.17029,-26.16341c-0.00052,-14.50433 -10.78853,-26.31425 -24.17029,-26.31425l-0.00002,-0.00002z" fill="#E6E7C6" id="Mid" class="svg_element" onclick="choose_color(Mid,0)"><title xmlns="">Mid</title></path>
  <g fill="#FBB040" id="Crown" class="svg_element" onclick="choose_color(Crown,0)">
   <path id="svg_5" d="m183.48232,68.10902c0.01019,-0.00174 0.022,-0.00291 0.03328,-0.00526c0.35336,-5.92367 1.20883,-11.83916 1.56592,-17.76225c0.92691,5.80909 1.36349,11.64859 2.28285,17.46236c0.01181,-0.00175 0.02469,-0.00293 0.0435,-0.00293c0.96016,-5.81786 1.74474,-11.63046 2.72478,-17.44306c0.30771,5.90789 0.81035,11.81695 1.12451,17.72484c0.00159,0 0.00859,0.00293 0.01503,0.00293c1.19162,-5.57702 2.40311,-11.14935 3.63449,-16.71643c-0.13104,5.74888 -0.26152,11.49951 -0.38824,17.2484c2.0809,-4.74864 4.26761,-9.402 6.6369,-13.9928c-0.91183,4.00037 -1.82959,8.05743 -2.73553,12.16595c-0.6922,3.12874 -1.37581,6.28845 -2.05942,9.47507l-1.09764,-0.40161c-4.98883,-1.82744 -10.75256,-1.82744 -15.72421,0.05145l-1.1041,0.41447c-0.70187,-3.18486 -1.40376,-6.34399 -2.10884,-9.46922c-0.92419,-4.10455 -1.86557,-8.15343 -2.79836,-12.14737c2.39345,4.57326 4.60164,9.21913 6.71477,13.95024c-0.16542,-5.74888 -0.32542,-11.49788 -0.48492,-17.24676c1.26573,5.56012 2.50516,11.12257 3.72525,16.69197l0,0l-0.00002,0.00001zm12.63101,9.33479c-0.14444,0.65883 -0.28729,1.31767 -0.42584,1.98235c-5.25731,-1.92448 -11.31534,-1.92565 -16.55925,0.05671c-0.14444,-0.66235 -0.28731,-1.32059 -0.43285,-1.97768l0.84364,-0.31744c4.97592,-1.88181 10.7402,-1.87946 15.72578,-0.05203l0.84848,0.30809l0,0l0.00003,0z" fill="#FBB040" clip-rule="evenodd" fill-rule="evenodd"></path>
   <circle id="svg_6" r="0.82538" cy="49.44241" cx="190.14875" fill="#FBB040" clip-rule="evenodd" fill-rule="evenodd"></circle>
   <path id="svg_7" d="m195.87328,50.51046c0,0.49515 -0.36946,0.89735 -0.82269,0.89735c-0.45699,0 -0.82753,-0.4022 -0.82753,-0.89735c0,-0.4969 0.37054,-0.89968 0.82753,-0.89968c0.45271,0 0.82269,0.40278 0.82269,0.89968z" fill="#FBB040" clip-rule="evenodd" fill-rule="evenodd"></path>
   <path id="svg_8" d="m202.24382,53.79353c0,0.4969 -0.3716,0.89851 -0.82753,0.89851c-0.45647,0 -0.82323,-0.40161 -0.82323,-0.89851c0,-0.49573 0.36731,-0.89794 0.82323,-0.89794c0.4554,0 0.82753,0.40221 0.82753,0.89794z" fill="#FBB040" clip-rule="evenodd" fill-rule="evenodd"></path>
   <circle id="svg_9" r="0.82538" cy="49.44241" cx="185.00849" fill="#FBB040" clip-rule="evenodd" fill-rule="evenodd"></circle>
   <circle id="svg_10" r="0.82484" cy="50.54729" cx="179.61153" fill="#FBB040" clip-rule="evenodd" fill-rule="evenodd"></circle>
   <circle id="svg_11" r="0.82484" cy="53.8783" cx="173.18245" fill="#FBB040" clip-rule="evenodd" fill-rule="evenodd"></circle>
  <title xmlns="">Crown</title></g>
  <g fill="#FBB040" id="Ribbon" class="svg_element" onclick="choose_color(Ribbon,0)">
   <path id="svg_12" d="m234.50632,138.45537c1.22008,-1.18964 14.85316,-1.55618 16.23972,0.09236c-2.73499,2.8838 -5.46944,5.76759 -8.16147,8.65724c2.69258,3.15971 5.42648,6.3212 8.16147,9.43414c-1.17551,-1.60353 -14.76613,-1.69415 -16.19672,-0.09297c-3.11682,3.89633 -10.68759,2.38281 -11.19293,0.09297l0,-18.22935c0.0838,2.52019 7.99504,4.07697 11.14995,0.04561l0,0l-0.00002,0zm-94.37308,0c-1.22008,-1.18964 -14.80968,-1.55618 -16.19731,0.09236c2.73501,2.8838 5.42703,5.76759 8.16148,8.65724c-2.73445,3.15971 -5.42648,6.3212 -8.16148,9.43414c1.17767,-1.60353 14.76617,-1.69415 16.15703,-0.09297c3.11197,3.89633 10.68596,2.38281 11.19078,0.09297l0,-18.22935c-0.08325,2.52019 -7.95259,4.07697 -11.15048,0.04561l-0.00002,0z" fill="#FBB040"></path>
   <path id="svg_13" d="m151.28426,156.73032c0,-1.28319 -2.60986,-2.3822 -5.63861,-2.3822c-3.07117,0 -5.67995,-1.05521 -5.67995,-2.42841c0,-1.23466 2.81876,-2.51901 5.67995,-3.20416c1.76782,-0.41211 3.74513,-0.55066 5.63861,-0.41211l0,8.42691l0,-0.00003z" fill="#FBB040"></path>
   <path id="svg_14" d="m223.35637,156.73032c0,-1.28319 2.65178,-2.3822 5.67996,-2.3822c3.07118,0 5.68158,-1.05521 5.68158,-2.42841c0,-1.23466 -2.86279,-2.51901 -5.55592,-3.20416c-1.89296,-0.41211 -3.86967,-0.55066 -5.80614,-0.41211l0,8.42691l0.00052,0l0,-0.00003z" fill="#FBB040"></path>
   <path id="svg_15" d="m187.34073,137.63226c-17.41901,0 -30.797,-9.84979 -41.69508,-6.87189c-1.26251,0.27417 -5.63806,1.46675 -5.72075,3.20531l0.04135,18.09314c0.04189,-1.92389 4.03882,-2.83878 5.67995,-3.25092c10.8981,-3.06912 24.27609,6.77718 41.69507,6.77718c17.42062,0 30.75566,-9.8463 41.69615,-6.77718c1.59651,0.41156 5.63806,1.32703 5.68155,3.25092l0,-18.09314c-0.04349,-1.73917 -4.46146,-2.93172 -5.68155,-3.20531c-10.94104,-2.97791 -24.27608,6.87189 -41.69669,6.87189z" fill="#FBB040"></path>
  <title xmlns="">Ribbon</title></g>
  <g id="Year" fill="#282829" class="svg_element" onclick="choose_color(Year,0)">
   <path fill="#282829" d="m177.94305,140.58037c0,0.05554 -0.66054,1.19606 -1.98212,3.42162c-1.05792,1.77893 -1.78825,3.09248 -2.19261,3.93901c-0.40492,0.84474 -0.70993,1.6994 -0.91348,2.5605c-0.20888,-0.05026 -0.38933,-0.07597 -0.54129,-0.07597c-0.16808,0 -0.48224,0.03915 -0.94194,0.1134c0.39688,-1.25981 1.60298,-3.21585 3.62106,-5.86931c1.23997,-1.62985 2.0632,-2.79025 2.47186,-3.48828c-1.51329,1.94786 -3.03197,3.55725 -4.55598,4.82292c-0.98273,0.81606 -1.57396,1.22295 -1.77266,1.22295c-0.04564,0 -0.06877,-0.01636 -0.06877,-0.05611c0,-0.04269 0.03546,-0.08186 0.10365,-0.11459c1.47784,-0.72664 3.6216,-2.78909 6.43178,-6.1879l0.11438,-0.13449c0.11009,-0.12567 0.17561,-0.18939 0.19119,-0.18939c0.02199,0 0.0349,0.01054 0.0349,0.03566l0.00003,-0.00002z" id="svg_16"></path>
   <path fill="#282829" d="m187.16673,141.6069c0,1.11131 -1.23297,2.06419 -3.70053,2.85692c0.54828,0.5647 0.91399,1.01778 1.10086,1.35742c0.18527,0.34372 0.27763,0.72546 0.27763,1.15105c0,0.94646 -0.44087,1.79237 -1.32428,2.54005c-0.88446,0.75005 -1.88275,1.12184 -2.99867,1.12184c-0.80443,0 -1.45584,-0.1976 -1.95308,-0.59396c-0.49942,-0.39867 -0.74861,-0.9178 -0.74861,-1.56903c0,-0.76347 0.34422,-1.4305 1.03482,-1.99814c0.68895,-0.56822 1.86932,-1.15691 3.53944,-1.77249c-0.58215,-0.61848 -0.87265,-1.20134 -0.87265,-1.74792c0,-0.7395 0.37752,-1.41412 1.13094,-2.02269c0.75505,-0.61208 1.58847,-0.91664 2.50302,-0.91664c0.5687,0 1.045,0.15259 1.43329,0.46124c0.38556,0.30399 0.57782,0.68222 0.57782,1.13235l0,0l0,0l0,0l0,0l0,0l0,0l0,0l0,0l0,0zm-3.22046,5.97455c0,-0.53374 -0.15681,-1.04585 -0.46988,-1.53984c-0.09398,-0.13969 -0.4366,-0.56001 -1.03105,-1.26329c-2.62975,1.04292 -3.9438,2.38571 -3.9438,4.02609c0,1.14462 0.6675,1.71637 2.00304,1.71637c0.93547,0 1.74313,-0.28938 2.42299,-0.87047c0.67934,-0.57933 1.01871,-1.27325 1.01871,-2.06886zm2.63617,-6.27094c0,-0.3338 -0.13747,-0.61209 -0.40918,-0.83656c-0.27228,-0.22507 -0.61166,-0.33614 -1.01817,-0.33614c-0.7341,0 -1.38496,0.23267 -1.94881,0.69684c-0.56439,0.46416 -0.84848,0.99846 -0.84848,1.6053c0,0.349 0.11922,0.70734 0.35817,1.07445c0.09236,0.14557 0.32489,0.43495 0.69757,0.87222c0.96608,-0.35954 1.73564,-0.81726 2.30806,-1.37495c0.57353,-0.55945 0.86082,-1.12592 0.86082,-1.70116l0.00002,0z" id="svg_17"></path>
   <path fill="#282829" d="m195.71162,141.6069c0,1.11131 -1.23404,2.06419 -3.70108,2.85692c0.54614,0.5647 0.91023,1.01778 1.09924,1.35742c0.18636,0.34372 0.27927,0.72546 0.27927,1.15105c0,0.94646 -0.44249,1.79237 -1.32535,2.54005c-0.88284,0.75005 -1.88167,1.12184 -2.99811,1.12184c-0.80554,0 -1.45532,-0.1976 -1.95474,-0.59396c-0.49727,-0.39867 -0.74591,-0.9178 -0.74591,-1.56903c0,-0.76347 0.34424,-1.4305 1.0332,-1.99814c0.68845,-0.56822 1.86827,-1.15691 3.53944,-1.77249c-0.5816,-0.61848 -0.87265,-1.20134 -0.87265,-1.74792c0,-0.7395 0.37537,-1.41412 1.13147,-2.02269c0.7545,-0.61208 1.5885,-0.91664 2.50192,-0.91664c0.57085,0 1.04663,0.15259 1.43382,0.46124c0.38556,0.30399 0.57941,0.68222 0.57941,1.13235l0.00003,0l0.00003,0zm-3.22206,5.97455c0,-0.53374 -0.15572,-1.04585 -0.47148,-1.53984c-0.09076,-0.13969 -0.43605,-0.56001 -1.02945,-1.26329c-2.6292,1.04292 -3.94328,2.38571 -3.94328,4.02609c0,1.14462 0.66751,1.71637 2.00252,1.71637c0.93549,0 1.74422,-0.28938 2.42354,-0.87047c0.6777,-0.57933 1.01816,-1.27325 1.01816,-2.06886zm2.63673,-6.27094c0,-0.3338 -0.13855,-0.61209 -0.40974,-0.83656c-0.27335,-0.22507 -0.61165,-0.33614 -1.01817,-0.33614c-0.73302,0 -1.38278,0.23267 -1.94881,0.69684c-0.56386,0.46416 -0.84795,0.99846 -0.84795,1.6053c0,0.349 0.11922,0.70734 0.35927,1.07445c0.09183,0.14557 0.32544,0.43495 0.69812,0.87222c0.96231,-0.35954 1.73401,-0.81726 2.30591,-1.37495c0.57515,-0.55945 0.86137,-1.12592 0.86137,-1.70116z" id="svg_18"></path>
   <path fill="#282829" d="m204.11961,139.76779c0,0.28937 -0.14447,0.69391 -0.42799,1.20601c-0.23521,0.40921 -0.46399,0.75296 -0.69113,1.02538c-0.26155,0.33029 -0.86246,0.99263 -1.79846,1.98587c-2.33867,2.48859 -3.55716,4.65512 -3.64899,6.49773c-0.26796,-0.06371 -0.537,-0.09412 -0.80338,-0.09412c-0.24597,0 -0.47256,0.03041 -0.68037,0.09412c0.20139,-1.22939 0.72549,-2.39917 1.56485,-3.50696c0.84148,-1.10602 2.20872,-2.44124 4.10274,-3.99803c1.01819,-0.83536 1.68729,-1.62105 2.00629,-2.35706c-0.41884,0.67171 -1.04987,1.00783 -1.89565,1.00783c-0.43713,0 -1.00903,-0.14206 -1.71844,-0.42676c-0.70885,-0.28529 -1.16747,-0.42616 -1.37688,-0.42616c-0.17346,0 -0.34689,0.05435 -0.51608,0.15843l-0.05208,0.11574c-0.45268,0.98097 -0.78189,1.47142 -0.98596,1.47142c-0.06873,0 -0.10469,-0.03682 -0.10469,-0.11165c0,-0.3186 0.34044,-0.8085 1.01976,-1.47491c0.12889,-0.28995 0.19333,-0.53723 0.19333,-0.73834c0,-0.08359 -0.0188,-0.18529 -0.05263,-0.31508l0,-0.03683c0,-0.07541 0.03383,-0.1134 0.10475,-0.1134c0.07677,0 0.1122,0.06372 0.1122,0.18823c0,0.23445 -0.06656,0.52673 -0.19974,0.87515c0.46451,-0.41216 0.93599,-0.61676 1.41179,-0.61676c0.2798,0 0.86621,0.16075 1.756,0.48578c0.49406,0.18007 0.90541,0.27127 1.2319,0.27127c0.80928,0 1.21097,-0.31277 1.21097,-0.93886c0,-0.05086 -0.00484,-0.10757 -0.01558,-0.1707l0,-0.05612c0,-0.10991 0.03923,-0.16368 0.12297,-0.16368c0.08647,-0.00116 0.13051,0.0526 0.13051,0.16252l0,0l0,0l0,0l0,0l0,0l0,0l0,0l0,0l0,0l0,-0.00003l0,-0.00002z" id="svg_19"></path>
   <path fill="#282829" d="m167.64748,143.4063c-1.27754,-0.37241 -2.52768,-0.75238 -3.74939,-1.12477c-7.27113,-2.21268 -13.5477,-4.12372 -19.17125,-2.58798l-0.11491,-0.5004c5.74066,-1.57196 12.0784,0.35834 19.41397,2.59032c1.22119,0.37239 2.46919,0.75119 3.74353,1.12358l-0.12192,0.49925l-0.00003,0z" id="svg_20"></path>
   <path fill="#282829" d="m205.38158,143.31683l-0.12726,-0.49806c1.16368,-0.34315 2.30269,-0.6904 3.4229,-1.03122c7.33661,-2.23549 13.6696,-4.16698 19.43976,-2.59442l-0.11545,0.50041c-5.64452,-1.53632 -11.9227,0.37589 -19.19597,2.59265c-1.12183,0.342 -2.26457,0.69098 -3.42398,1.03064z" id="svg_21"></path>
  <title xmlns="">Year</title></g>
  <g fill="#F6D56B" id="Lace" class="svg_element" onclick="choose_color(Lace,0)">
   <path fill="#F6D56B" d="m71.64081,102.60583c5.52477,-2.80605 12.17134,-0.36304 13.84412,4.47388c1.50524,4.6972 -1.07133,10.50687 -5.84482,9.74982c-1.7093,-0.39635 -3.24731,-1.80814 -3.74834,-3.37192c-0.37321,-1.75085 0.09936,-3.95652 2.1706,-4.26929c-1.94344,0.13039 -2.67216,2.702 -2.1706,4.26929c0.5628,2.04782 2.22913,3.2743 3.76929,3.53386c4.20264,1.00726 8.02509,-4.49786 6.1015,-10.11695c-1.92519,-5.6197 -8.63727,-7.39744 -14.12176,-4.26869l0,0l0.00001,0z" id="svg_22"></path>
   <path fill="#F6D56B" d="m71.64081,102.60583c5.52477,-2.80605 12.17134,-0.36304 13.84412,4.47388c1.50524,4.6972 -1.07133,10.50687 -5.84482,9.74982c-1.7093,-0.39635 -3.24731,-1.80814 -3.74834,-3.37192c-0.37321,-1.75085 0.09936,-3.95652 2.1706,-4.26929c-1.94344,0.13039 -2.67216,2.702 -2.1706,4.26929c0.5628,2.04782 2.22913,3.2743 3.76929,3.53386c4.20264,1.00726 8.02509,-4.49786 6.1015,-10.11695c-1.92519,-5.6197 -8.63727,-7.39744 -14.12176,-4.26869l0,0l0.00001,0z" id="svg_23"></path>
   <path fill="#F6D56B" d="m70.66668,103.24713c2.81501,-1.57489 5.83247,-0.39168 6.85976,1.75202c0.90057,2.32726 0.02578,4.92168 -2.57173,4.65919c-0.9097,-0.02689 -1.73078,-0.55945 -1.9821,-1.3428c-0.39901,-0.75996 -0.09882,-1.95488 0.93655,-2.11097c-1.03535,0.15668 -1.33556,1.35159 -1.08369,2.13319c0.41887,0.92307 1.38925,1.43224 2.14965,1.48135c2.15287,0.3303 4.08504,-2.25945 2.84723,-4.8638c-0.25024,-0.78336 -0.77598,-1.36094 -1.45046,-1.91571c1.11752,0.48814 1.53693,1.40945 1.97727,2.49211c0.06121,0.48463 0.54561,0.73893 0.65462,0.3952c-0.02094,-0.16194 -0.04295,-0.3233 -0.06283,-0.48405c-0.20943,-0.46066 -0.58695,-1.05988 -1.09389,-1.4761c-0.52626,-0.577 -1.17874,-0.97102 -2.10938,-1.15925c0.93063,0.18822 1.89994,0.69801 2.59429,1.41354c0.86244,0.85642 1.15511,1.96072 0.71154,2.02911c0.20998,0.4589 1.07616,0.16544 1.1825,-0.18063l0,0c-0.15038,1.17326 1.0536,1.15573 1.74421,3.02117c0.4194,0.92014 0.14016,2.27757 -0.3496,3.17258c2.06428,-3.92439 0.62186,-8.13928 -2.2898,-9.66975c-2.46434,-1.59711 -6.29268,-0.85526 -8.66412,0.65358l0,0l0,0l-0.00002,0.00002z" id="svg_24"></path>
   <path id="svg_25" d="m70.66668,103.24713c2.81501,-1.57489 5.83247,-0.39168 6.85976,1.75202c0.90057,2.32726 0.02578,4.92168 -2.57173,4.65919c-0.9097,-0.02689 -1.73078,-0.55945 -1.9821,-1.3428c-0.39901,-0.75996 -0.09882,-1.95488 0.93655,-2.11097c-1.03535,0.15668 -1.33556,1.35159 -1.08369,2.13319c0.41887,0.92307 1.38925,1.43224 2.14965,1.48135c2.15287,0.3303 4.08504,-2.25945 2.84723,-4.8638c-0.25024,-0.78336 -0.77598,-1.36094 -1.45046,-1.91571c1.11752,0.48814 1.53693,1.40945 1.97727,2.49211c0.06121,0.48463 0.54561,0.73893 0.65462,0.3952c-0.02094,-0.16194 -0.04295,-0.3233 -0.06283,-0.48405c-0.20943,-0.46066 -0.58695,-1.05988 -1.09389,-1.4761c-0.52626,-0.577 -1.17874,-0.97102 -2.10938,-1.15925c0.93063,0.18822 1.89994,0.69801 2.59429,1.41354c0.86244,0.85642 1.15511,1.96072 0.71154,2.02911c0.20998,0.4589 1.07616,0.16544 1.1825,-0.18063l0,0c-0.15038,1.17326 1.0536,1.15573 1.74421,3.02117c0.4194,0.92014 0.14016,2.27757 -0.3496,3.17258c2.06428,-3.92439 0.62186,-8.13928 -2.2898,-9.66975c-2.46434,-1.59711 -6.29268,-0.85526 -8.66412,0.65358l0,0l0,0l-0.00002,0.00002z" fill="#F6D56B"></path>
   <path id="svg_26" d="m96.79383,111.77282c-2.72962,1.06981 -6.17078,0.11224 -7.98374,-1.09143c-1.98102,-1.34048 -2.98845,-3.32458 -3.52975,-5.21281c0.66911,1.70584 1.65614,3.52625 3.63824,4.86906c1.83282,1.36443 5.12577,2.34421 7.32858,0.69742c1.12181,-0.66293 1.42094,-1.85725 0.95641,-1.95137c0.23521,-0.52906 0.72013,-0.27299 0.91077,0.02631l0,0c0.00269,-1.14989 1.20773,-1.16685 2.03688,-2.93523c1.30009,-2.82475 -1.53907,-7.31966 -4.66501,-7.0116c-1.96492,-0.03098 -3.55663,1.68772 -3.62589,3.50288c-0.12727,0.18414 -0.1058,0.34608 -0.08538,0.50626c1.03051,0.99322 2.88803,1.36909 4.24613,0.17947c-1.18894,1.32761 -3.04646,0.95345 -4.22626,-0.01696c0.0784,1.79353 1.67815,3.68703 3.47445,3.57887c1.79578,-0.10757 2.92133,-1.9198 2.40044,-3.64669c-0.29212,-1.10721 -1.32481,-2.09869 -2.36069,-1.94202c1.33231,-0.20226 2.40527,1.11308 2.57011,2.40267c0.24651,1.93266 -1.36507,3.48943 -3.20272,3.27605c-1.68944,-0.23676 -2.97182,-2.01392 -2.90146,-3.83083c-0.31738,-0.11633 -0.50587,-0.41563 -0.69436,-0.71671c-0.96716,-1.65791 -0.62186,-3.68233 0.10095,-5.10583c2.04333,-4.08453 8.06482,-4.17457 10.83578,0.98796c2.91864,5.14265 -0.46397,11.72926 -5.2235,13.43452l0,0l0,0.00002l0,-0.00001zm2.162,-1.96773c3.2226,-3.11588 4.78046,-7.45649 2.61793,-11.39781c-2.16254,-3.94307 -7.62877,-5.41391 -10.22414,-0.91663c-0.85007,1.60646 -0.89895,3.58354 -0.12244,4.94331c0.18957,0.30106 0.35818,0.43787 0.52681,0.57874c-0.02148,-0.16135 -0.06229,-0.48345 0.04404,-0.82777c0.21803,-1.83972 1.99821,-3.25793 3.81545,-3.20533c2.26082,-0.01344 4.49263,2.11272 4.92921,4.34644c0.45541,2.39274 -0.31308,4.644 -1.58685,6.47905l0,0l-0.00001,0z" fill="#F6D56B"></path>
   <path id="svg_27" d="m96.79383,111.77282c-2.72962,1.06981 -6.17078,0.11224 -7.98374,-1.09143c-1.98102,-1.34048 -2.98845,-3.32458 -3.52975,-5.21281c0.66911,1.70584 1.65614,3.52625 3.63824,4.86906c1.83282,1.36443 5.12577,2.34421 7.32858,0.69742c1.12181,-0.66293 1.42094,-1.85725 0.95641,-1.95137c0.23521,-0.52906 0.72013,-0.27299 0.91077,0.02631l0,0c0.00269,-1.14989 1.20773,-1.16685 2.03688,-2.93523c1.30009,-2.82475 -1.53907,-7.31966 -4.66501,-7.0116c-1.96492,-0.03098 -3.55663,1.68772 -3.62589,3.50288c-0.12727,0.18414 -0.1058,0.34608 -0.08538,0.50626c1.03051,0.99322 2.88803,1.36909 4.24613,0.17947c-1.18894,1.32761 -3.04646,0.95345 -4.22626,-0.01696c0.0784,1.79353 1.67815,3.68703 3.47445,3.57887c1.79578,-0.10757 2.92133,-1.9198 2.40044,-3.64669c-0.29212,-1.10721 -1.32481,-2.09869 -2.36069,-1.94202c1.33231,-0.20226 2.40527,1.11308 2.57011,2.40267c0.24651,1.93266 -1.36507,3.48943 -3.20272,3.27605c-1.68944,-0.23676 -2.97182,-2.01392 -2.90146,-3.83083c-0.31738,-0.11633 -0.50587,-0.41563 -0.69436,-0.71671c-0.96716,-1.65791 -0.62186,-3.68233 0.10095,-5.10583c2.04333,-4.08453 8.06482,-4.17457 10.83578,0.98796c2.91864,5.14265 -0.46397,11.72926 -5.2235,13.43452l0,0l0,0.00002l0,-0.00001zm2.162,-1.96773c3.2226,-3.11588 4.78046,-7.45649 2.61793,-11.39781c-2.16254,-3.94307 -7.62877,-5.41391 -10.22414,-0.91663c-0.85007,1.60646 -0.89895,3.58354 -0.12244,4.94331c0.18957,0.30106 0.35818,0.43787 0.52681,0.57874c-0.02148,-0.16135 -0.06229,-0.48345 0.04404,-0.82777c0.21803,-1.83972 1.99821,-3.25793 3.81545,-3.20533c2.26082,-0.01344 4.49263,2.11272 4.92921,4.34644c0.45541,2.39274 -0.31308,4.644 -1.58685,6.47905l0,0l-0.00001,0z" fill="#F6D56B"></path>
   <path fill="#F6D56B" d="m72.56984,102.79406c1.94505,-0.12918 3.77679,1.23525 4.48994,3.26145c0.01987,0.16135 0.04082,0.32386 0.04082,0.32386c-0.79424,-2.67276 -2.80803,-0.72606 -2.99383,-2.17585l0,0c0.04242,0.32328 -0.21265,0.68806 -0.84525,0.45715c0.29535,-0.0456 0.38235,-0.55011 0.31898,-1.03415c-0.18957,-0.30106 -0.52573,-0.57816 -0.84203,-0.69508c-0.78082,-0.20811 -1.7759,0.27009 -2.47348,0.70386c0.67664,-0.59453 1.39569,-0.86755 2.30486,-0.84124l0,0l0,0l-0.00001,0z" id="svg_28"></path>
   <path fill="#F6D56B" d="m72.56984,102.79406c1.94505,-0.12918 3.77679,1.23525 4.48994,3.26145c0.01987,0.16135 0.04082,0.32386 0.04082,0.32386c-0.79424,-2.67276 -2.80803,-0.72606 -2.99383,-2.17585l0,0c0.04242,0.32328 -0.21265,0.68806 -0.84525,0.45715c0.29535,-0.0456 0.38235,-0.55011 0.31898,-1.03415c-0.18957,-0.30106 -0.52573,-0.57816 -0.84203,-0.69508c-0.78082,-0.20811 -1.7759,0.27009 -2.47348,0.70386c0.67664,-0.59453 1.39569,-0.86755 2.30486,-0.84124l0,0l0,0l-0.00001,0z" id="svg_29"></path>
   <path fill="#F6D56B" d="m99.3124,110.24294c1.73993,-1.74152 4.29609,-1.79879 5.38998,-0.32269c1.24156,1.4533 0.93708,3.79868 -0.81841,4.22952c-0.59124,0.0877 -1.37152,-0.12218 -1.75119,-0.72138c-0.35765,-0.43903 -0.31255,-1.26565 0.38665,-1.70058c-0.71959,0.27184 -0.7443,1.26154 -0.3657,1.8625c0.52626,0.57582 1.16047,0.81025 1.75064,0.71906c1.62822,-0.24612 2.35587,-2.81774 0.92528,-4.57211c-1.26198,-1.61523 -3.94595,-1.37321 -5.51725,0.50568l0,0z" id="svg_30"></path>
   <path fill="#F6D56B" d="m99.3124,110.24294c1.73993,-1.74152 4.29609,-1.79879 5.38998,-0.32269c1.24156,1.4533 0.93708,3.79868 -0.81841,4.22952c-0.59124,0.0877 -1.37152,-0.12218 -1.75119,-0.72138c-0.35765,-0.43903 -0.31255,-1.26565 0.38665,-1.70058c-0.71959,0.27184 -0.7443,1.26154 -0.3657,1.8625c0.52626,0.57582 1.16047,0.81025 1.75064,0.71906c1.62822,-0.24612 2.35587,-2.81774 0.92528,-4.57211c-1.26198,-1.61523 -3.94595,-1.37321 -5.51725,0.50568l0,0z" id="svg_31"></path>
   <path id="svg_32" d="m52.1017,102.60583c-5.52315,-2.80605 -12.17027,-0.36304 -13.84198,4.47388c-1.50631,4.6972 1.07187,10.50687 5.84428,9.74982c1.7093,-0.39635 3.2473,-1.80814 3.74833,-3.37192c0.37322,-1.75085 -0.09827,-3.95652 -2.1706,-4.26929c1.94452,0.13039 2.67216,2.702 2.1706,4.26929c-0.56279,2.04782 -2.22913,3.2743 -3.76928,3.53386c-4.20156,1.00726 -8.02454,-4.49786 -6.10151,-10.11695c1.92572,-5.6197 8.63834,-7.39744 14.12015,-4.26869l0,0l0.00001,0z" fill="#F6D56B"></path>
   <path id="svg_33" d="m52.1017,102.60583c-5.52315,-2.80605 -12.17027,-0.36304 -13.84198,4.47388c-1.50631,4.6972 1.07187,10.50687 5.84428,9.74982c1.7093,-0.39635 3.2473,-1.80814 3.74833,-3.37192c0.37322,-1.75085 -0.09827,-3.95652 -2.1706,-4.26929c1.94452,0.13039 2.67216,2.702 2.1706,4.26929c-0.56279,2.04782 -2.22913,3.2743 -3.76928,3.53386c-4.20156,1.00726 -8.02454,-4.49786 -6.10151,-10.11695c1.92572,-5.6197 8.63834,-7.39744 14.12015,-4.26869l0,0l0.00001,0z" fill="#F6D56B"></path>
   <path id="svg_34" d="m53.07745,103.24713c-2.81447,-1.57489 -5.83247,-0.39168 -6.85977,1.75202c-0.90056,2.32726 -0.02577,4.92168 2.57228,4.65919c0.90916,-0.02689 1.72971,-0.55945 1.98157,-1.3428c0.399,-0.75996 0.09935,-1.95488 -0.93655,-2.11097c1.03589,0.15668 1.33554,1.35159 1.08476,2.13319c-0.42102,0.92307 -1.38925,1.43224 -2.15019,1.48135c-2.15395,0.3303 -4.08557,-2.25945 -2.8483,-4.8638c0.25024,-0.78336 0.77652,-1.36094 1.45046,-1.91571c-1.11859,0.48814 -1.53692,1.40945 -1.97673,2.49211c-0.06229,0.48463 -0.54614,0.73893 -0.65408,0.3952c0.01987,-0.16194 0.04135,-0.3233 0.06176,-0.48405c0.20943,-0.46066 0.58748,-1.05988 1.09443,-1.4761c0.52573,-0.577 1.17927,-0.97102 2.10723,-1.15925c-0.92849,0.18822 -1.89833,0.69801 -2.59269,1.41354c-0.86297,0.85642 -1.15403,1.96072 -0.71153,2.02911c-0.20997,0.4589 -1.07671,0.16544 -1.18304,-0.18063l0,0c0.15036,1.17326 -1.05362,1.15573 -1.74314,3.02117c-0.41994,0.92014 -0.14016,2.27757 0.34906,3.17258c-2.0648,-3.92439 -0.62078,-8.13928 2.28981,-9.66975c2.46488,-1.59711 6.29322,-0.85526 8.66466,0.65358l0,0l0,0l0,0l0,0l0,0l0,0.00002z" fill="#F6D56B"></path>
   <path fill="#F6D56B" d="m53.07745,103.24713c-2.81447,-1.57489 -5.83247,-0.39168 -6.85977,1.75202c-0.90056,2.32726 -0.02577,4.92168 2.57228,4.65919c0.90916,-0.02689 1.72971,-0.55945 1.98157,-1.3428c0.399,-0.75996 0.09935,-1.95488 -0.93655,-2.11097c1.03589,0.15668 1.33554,1.35159 1.08476,2.13319c-0.42102,0.92307 -1.38925,1.43224 -2.15019,1.48135c-2.15395,0.3303 -4.08557,-2.25945 -2.8483,-4.8638c0.25024,-0.78336 0.77652,-1.36094 1.45046,-1.91571c-1.11859,0.48814 -1.53692,1.40945 -1.97673,2.49211c-0.06229,0.48463 -0.54614,0.73893 -0.65408,0.3952c0.01987,-0.16194 0.04135,-0.3233 0.06176,-0.48405c0.20943,-0.46066 0.58748,-1.05988 1.09443,-1.4761c0.52573,-0.577 1.17927,-0.97102 2.10723,-1.15925c-0.92849,0.18822 -1.89833,0.69801 -2.59269,1.41354c-0.86297,0.85642 -1.15403,1.96072 -0.71153,2.02911c-0.20997,0.4589 -1.07671,0.16544 -1.18304,-0.18063l0,0c0.15036,1.17326 -1.05362,1.15573 -1.74314,3.02117c-0.41994,0.92014 -0.14016,2.27757 0.34906,3.17258c-2.0648,-3.92439 -0.62078,-8.13928 2.28981,-9.66975c2.46488,-1.59711 6.29322,-0.85526 8.66466,0.65358l0,0l0,0l0,0l0,0l0,0.00002z" id="svg_35"></path>
   <path fill="#F6D56B" d="m26.95029,111.77282c-4.76006,-1.70525 -8.14108,-8.29243 -5.22296,-13.43393c2.77098,-5.16254 8.79193,-5.07309 10.83579,-0.98796c0.72282,1.42406 1.06919,3.44792 0.10149,5.10583c-0.18956,0.30106 -0.37751,0.59979 -0.69542,0.71671c0.07034,1.81634 -1.2115,3.5935 -2.90093,3.83084c-1.83818,0.21337 -3.44868,-1.34339 -3.20219,-3.27606c0.16433,-1.28961 1.23727,-2.60494 2.57067,-2.40267c-1.03643,-0.15667 -2.06803,0.83538 -2.36177,1.94202c-0.52036,1.72688 0.60468,3.5397 2.40044,3.64668c1.79684,0.10815 3.39767,-1.78535 3.47446,-3.57887c-1.17981,0.97041 -3.03679,1.34457 -4.2252,0.01694c1.3581,1.18965 3.21454,0.81435 4.24507,-0.17947c0.02094,-0.16018 0.04081,-0.32211 -0.08431,-0.50626c-0.07035,-1.81516 -1.66098,-3.53387 -3.62643,-3.50288c-3.12701,-0.30808 -5.96511,4.18686 -4.66554,7.0116c0.82968,1.7678 2.03473,1.78535 2.03741,2.93524l0,0c0.1901,-0.29932 0.67502,-0.55537 0.91077,-0.02631c-0.46558,0.09412 -0.16647,1.28844 0.95695,1.95137c2.20228,1.6462 5.49522,0.66702 7.32804,-0.69743c1.9821,-1.3428 2.96913,-3.16322 3.63824,-4.86907c-0.54131,1.88824 -1.54874,3.87234 -3.53138,5.21282c-1.81295,1.20367 -5.25303,2.16065 -7.98319,1.09084l0,0l0,0l-0.00001,0.00002zm-2.16147,-1.96773c-1.27486,-1.83504 -2.04279,-4.08631 -1.58686,-6.47963c0.43659,-2.23314 2.6684,-4.35989 4.92814,-4.34645c1.81832,-0.05261 3.59851,1.36562 3.81546,3.20532c0.10579,0.34431 0.0639,0.66644 0.04404,0.82777c0.16861,-0.14088 0.33831,-0.27826 0.5268,-0.57874c0.77652,-1.35976 0.72872,-3.33686 -0.12297,-4.94331c-2.59376,-4.4967 -8.05945,-3.02644 -10.22306,0.91665c-2.162,3.94189 -0.60414,8.2825 2.61846,11.39838l0,0l-0.00001,0.00002z" id="svg_36"></path>
   <path fill="#F6D56B" d="m26.95029,111.77282c-4.76006,-1.70525 -8.14108,-8.29243 -5.22296,-13.43393c2.77098,-5.16254 8.79193,-5.07309 10.83579,-0.98796c0.72282,1.42406 1.06919,3.44792 0.10149,5.10583c-0.18956,0.30106 -0.37751,0.59979 -0.69542,0.71671c0.07034,1.81634 -1.2115,3.5935 -2.90093,3.83084c-1.83818,0.21337 -3.44868,-1.34339 -3.20219,-3.27606c0.16433,-1.28961 1.23727,-2.60494 2.57067,-2.40267c-1.03643,-0.15667 -2.06803,0.83538 -2.36177,1.94202c-0.52036,1.72688 0.60468,3.5397 2.40044,3.64668c1.79684,0.10815 3.39767,-1.78535 3.47446,-3.57887c-1.17981,0.97041 -3.03679,1.34457 -4.2252,0.01694c1.3581,1.18965 3.21454,0.81435 4.24507,-0.17947c0.02094,-0.16018 0.04081,-0.32211 -0.08431,-0.50626c-0.07035,-1.81516 -1.66098,-3.53387 -3.62643,-3.50288c-3.12701,-0.30808 -5.96511,4.18686 -4.66554,7.0116c0.82968,1.7678 2.03473,1.78535 2.03741,2.93524l0,0c0.1901,-0.29932 0.67502,-0.55537 0.91077,-0.02631c-0.46558,0.09412 -0.16647,1.28844 0.95695,1.95137c2.20228,1.6462 5.49522,0.66702 7.32804,-0.69743c1.9821,-1.3428 2.96913,-3.16322 3.63824,-4.86907c-0.54131,1.88824 -1.54874,3.87234 -3.53138,5.21282c-1.81295,1.20367 -5.25303,2.16065 -7.98319,1.09084l0,0l0,0l-0.00001,0.00002zm-2.16147,-1.96773c-1.27486,-1.83504 -2.04279,-4.08631 -1.58686,-6.47963c0.43659,-2.23314 2.6684,-4.35989 4.92814,-4.34645c1.81832,-0.05261 3.59851,1.36562 3.81546,3.20532c0.10579,0.34431 0.0639,0.66644 0.04404,0.82777c0.16861,-0.14088 0.33831,-0.27826 0.5268,-0.57874c0.77652,-1.35976 0.72872,-3.33686 -0.12297,-4.94331c-2.59376,-4.4967 -8.05945,-3.02644 -10.22306,0.91665c-2.162,3.94189 -0.60414,8.2825 2.61846,11.39838l0,0l-0.00001,0.00002z" id="svg_37"></path>
   <path id="svg_38" d="m51.17375,102.79406c-1.94398,-0.12918 -3.77572,1.23525 -4.48887,3.26145c-0.02095,0.16135 -0.04082,0.32386 -0.04082,0.32386c0.79424,-2.67276 2.8091,-0.72606 2.9933,-2.17585l0,0c-0.04189,0.32328 0.21319,0.68806 0.84686,0.45715c-0.29589,-0.0456 -0.38289,-0.55011 -0.32113,-1.03415c0.18957,-0.30106 0.52627,-0.57816 0.84364,-0.69508c0.77974,-0.20811 1.77535,0.27009 2.47293,0.70386c-0.67771,-0.59453 -1.39676,-0.86755 -2.30592,-0.84124l0,0l0.00001,0z" fill="#F6D56B"></path>
   <path id="svg_39" d="m51.17375,102.79406c-1.94398,-0.12918 -3.77572,1.23525 -4.48887,3.26145c-0.02095,0.16135 -0.04082,0.32386 -0.04082,0.32386c0.79424,-2.67276 2.8091,-0.72606 2.9933,-2.17585l0,0c-0.04189,0.32328 0.21319,0.68806 0.84686,0.45715c-0.29589,-0.0456 -0.38289,-0.55011 -0.32113,-1.03415c0.18957,-0.30106 0.52627,-0.57816 0.84364,-0.69508c0.77974,-0.20811 1.77535,0.27009 2.47293,0.70386c-0.67771,-0.59453 -1.39676,-0.86755 -2.30592,-0.84124l0,0l0.00001,0z" fill="#F6D56B"></path>
   <path id="svg_40" d="m24.43064,110.24294c-1.7383,-1.74152 -4.29393,-1.79879 -5.38889,-0.32269c-1.24049,1.4533 -0.93708,3.79868 0.81787,4.22952c0.59178,0.0877 1.37313,-0.12218 1.75065,-0.72138c0.35872,-0.43903 0.31361,-1.26565 -0.38504,-1.70058c0.71959,0.27184 0.7443,1.26154 0.36571,1.8625c-0.52627,0.57582 -1.16048,0.81025 -1.75066,0.71906c-1.62714,-0.24612 -2.35586,-2.81774 -0.92473,-4.57211c1.26144,-1.61523 3.94542,-1.37321 5.51509,0.50568l0,0z" fill="#F6D56B"></path>
   <path fill="#F6D56B" d="m24.43064,110.24294c-1.7383,-1.74152 -4.29393,-1.79879 -5.38889,-0.32269c-1.24049,1.4533 -0.93708,3.79868 0.81787,4.22952c0.59178,0.0877 1.37313,-0.12218 1.75065,-0.72138c0.35872,-0.43903 0.31361,-1.26565 -0.38504,-1.70058c0.71959,0.27184 0.7443,1.26154 0.36571,1.8625c-0.52627,0.57582 -1.16048,0.81025 -1.75066,0.71906c-1.62714,-0.24612 -2.35586,-2.81774 -0.92473,-4.57211c1.26144,-1.61523 3.94542,-1.37321 5.51509,0.50568l0,0z" id="svg_41"></path>
   <path fill="#F6D56B" d="m74.25014,111.50333c6.99886,3.5555 15.42133,0.46066 17.53983,-5.66821c1.908,-5.95409 -1.3581,-13.31177 -7.40483,-12.35477c-2.1647,0.50333 -4.11457,2.28984 -4.74986,4.27512c-0.47311,2.21677 0.12512,5.01172 2.75111,5.40749c-2.46381,-0.16428 -3.38586,-3.42397 -2.75111,-5.40749c0.71207,-2.59676 2.82468,-4.1506 4.7767,-4.47973c5.32446,-1.27616 10.16721,5.69978 7.73026,12.81894c-2.43964,7.12151 -10.94479,9.37276 -17.89211,5.40865l0,0l0.00001,0z" id="svg_42"></path>
   <path fill="#F6D56B" d="m74.25014,111.50333c6.99886,3.5555 15.42133,0.46066 17.53983,-5.66821c1.908,-5.95409 -1.3581,-13.31177 -7.40483,-12.35477c-2.1647,0.50333 -4.11457,2.28984 -4.74986,4.27512c-0.47311,2.21677 0.12512,5.01172 2.75111,5.40749c-2.46381,-0.16428 -3.38586,-3.42397 -2.75111,-5.40749c0.71207,-2.59676 2.82468,-4.1506 4.7767,-4.47973c5.32446,-1.27616 10.16721,5.69978 7.73026,12.81894c-2.43964,7.12151 -10.94479,9.37276 -17.89211,5.40865l0,0l0.00001,0z" id="svg_43"></path>
   <path id="svg_44" d="m73.01609,110.6925c3.56575,1.99522 7.3898,0.49398 8.69151,-2.22146c1.14062,-2.94751 0.03222,-6.23701 -3.25858,-5.90321c-1.15242,0.03391 -2.19261,0.70794 -2.5116,1.70058c-0.50479,0.96341 -0.12514,2.47691 1.18626,2.67509c-1.31191,-0.19817 -1.69158,-1.71169 -1.37314,-2.70316c0.53111,-1.16918 1.75979,-1.81456 2.72426,-1.87712c2.72693,-0.41798 5.1757,2.86275 3.60816,6.16335c-0.31738,0.99265 -0.98434,1.72279 -1.83872,2.4249c1.41609,-0.61674 1.94667,-1.78477 2.50623,-3.15446c0.0768,-0.6144 0.69114,-0.93768 0.82861,-0.50157c-0.02685,0.20576 -0.05424,0.40921 -0.08001,0.61264c-0.26528,0.58576 -0.74376,1.34515 -1.38548,1.87188c-0.66644,0.73132 -1.49397,1.22939 -2.67216,1.46908c1.17766,-0.23969 2.40634,-0.88625 3.28651,-1.79178c1.0928,-1.08324 1.46335,-2.48277 0.90108,-2.56987c0.26691,-0.58225 1.36454,-0.20987 1.49934,0.22681l0,0c-0.19118,-1.48486 1.33501,-1.46148 2.20818,-3.82616c0.53271,-1.16685 0.1783,-2.88496 -0.44195,-4.01848c2.61576,4.97137 0.78618,10.31221 -2.90147,12.2513c-3.12218,2.02327 -7.97353,1.08149 -10.97704,-0.82837l0,0l0,0.00001l0.00001,0z" fill="#F6D56B"></path>
   <path id="svg_45" d="m73.01609,110.6925c3.56575,1.99522 7.3898,0.49398 8.69151,-2.22146c1.14062,-2.94751 0.03222,-6.23701 -3.25858,-5.90321c-1.15242,0.03391 -2.19261,0.70794 -2.5116,1.70058c-0.50479,0.96341 -0.12514,2.47691 1.18626,2.67509c-1.31191,-0.19817 -1.69158,-1.71169 -1.37314,-2.70316c0.53111,-1.16918 1.75979,-1.81456 2.72426,-1.87712c2.72693,-0.41798 5.1757,2.86275 3.60816,6.16335c-0.31738,0.99265 -0.98434,1.72279 -1.83872,2.4249c1.41609,-0.61674 1.94667,-1.78477 2.50623,-3.15446c0.0768,-0.6144 0.69114,-0.93768 0.82861,-0.50157c-0.02685,0.20576 -0.05424,0.40921 -0.08001,0.61264c-0.26528,0.58576 -0.74376,1.34515 -1.38548,1.87188c-0.66644,0.73132 -1.49397,1.22939 -2.67216,1.46908c1.17766,-0.23969 2.40634,-0.88625 3.28651,-1.79178c1.0928,-1.08324 1.46335,-2.48277 0.90108,-2.56987c0.26691,-0.58225 1.36454,-0.20987 1.49934,0.22681l0,0c-0.19118,-1.48486 1.33501,-1.46148 2.20818,-3.82616c0.53271,-1.16685 0.1783,-2.88496 -0.44195,-4.01848c2.61576,4.97137 0.78618,10.31221 -2.90147,12.2513c-3.12218,2.02327 -7.97353,1.08149 -10.97704,-0.82837l0,0l0,0.00001l0.00001,0z" fill="#F6D56B"></path>
   <path id="svg_46" d="m106.11954,99.88806c6.03008,2.16124 10.31543,10.50745 6.61865,17.02274c-3.51204,6.54042 -11.14135,6.42642 -13.72974,1.25044c-0.9156,-1.80289 -1.35381,-4.36633 -0.12888,-6.46793c0.23951,-0.38174 0.47794,-0.76057 0.88016,-0.90846c-0.08807,-2.30096 1.53639,-4.55222 3.67744,-4.85387c2.32687,-0.27068 4.36964,1.70233 4.05658,4.15119c-0.20837,1.63393 -1.56754,3.30061 -3.25591,3.04455c1.31245,0.1982 2.62061,-1.05869 2.99115,-2.46053c0.66052,-2.18755 -0.76578,-4.48499 -3.04163,-4.62061c-2.27586,-0.1368 -4.30413,2.26178 -4.40133,4.53643c1.49342,-1.23116 3.8466,-1.70701 5.35345,-0.02338c-1.72057,-1.5071 -4.07376,-1.03181 -5.38029,0.22681c-0.02525,0.20461 -0.05264,0.40746 0.10793,0.64188c0.0886,2.30095 2.10561,4.47797 4.59518,4.43938c3.96207,0.39051 7.55735,-5.30575 5.91087,-8.88405c-1.05093,-2.24075 -2.57764,-2.26236 -2.58031,-3.718l0,0c-0.2422,0.37823 -0.856,0.70267 -1.15458,0.03275c0.5891,-0.11926 0.20997,-1.63277 -1.21149,-2.47224c-2.79085,-2.08582 -6.96341,-0.84473 -9.28545,0.88391c-2.51213,1.70116 -3.76229,4.00854 -4.6097,6.16861c0.68575,-2.39215 1.96223,-4.90414 4.47276,-6.60355c2.29733,-1.52811 6.65678,-2.73999 10.11512,-1.38607l0,0l0.00002,0.00002l0,-0.00001zm2.73875,2.49328c1.61372,2.3261 2.58731,5.1789 2.00949,8.21119c-0.55206,2.83001 -3.38101,5.52322 -6.24543,5.50569c-2.30215,0.06839 -4.55708,-1.7298 -4.83416,-4.06c-0.1348,-0.4361 -0.08216,-0.84532 -0.05477,-1.04875c-0.21427,0.17596 -0.428,0.35192 -0.66805,0.7319c-0.9838,1.72279 -0.92204,4.22836 0.15574,6.26625c3.28757,5.69685 10.21286,3.83258 12.95377,-1.16335c2.74036,-4.99417 0.76685,-10.49577 -3.31657,-14.44294l0,0l-0.00001,0.00001l-0.00001,0z" fill="#F6D56B"></path>
   <path id="svg_47" d="m106.11954,99.88806c6.03008,2.16124 10.31543,10.50745 6.61865,17.02274c-3.51204,6.54042 -11.14135,6.42642 -13.72974,1.25044c-0.9156,-1.80289 -1.35381,-4.36633 -0.12888,-6.46793c0.23951,-0.38174 0.47794,-0.76057 0.88016,-0.90846c-0.08807,-2.30096 1.53639,-4.55222 3.67744,-4.85387c2.32687,-0.27068 4.36964,1.70233 4.05658,4.15119c-0.20837,1.63393 -1.56754,3.30061 -3.25591,3.04455c1.31245,0.1982 2.62061,-1.05869 2.99115,-2.46053c0.66052,-2.18755 -0.76578,-4.48499 -3.04163,-4.62061c-2.27586,-0.1368 -4.30413,2.26178 -4.40133,4.53643c1.49342,-1.23116 3.8466,-1.70701 5.35345,-0.02338c-1.72057,-1.5071 -4.07376,-1.03181 -5.38029,0.22681c-0.02525,0.20461 -0.05264,0.40746 0.10793,0.64188c0.0886,2.30095 2.10561,4.47797 4.59518,4.43938c3.96207,0.39051 7.55735,-5.30575 5.91087,-8.88405c-1.05093,-2.24075 -2.57764,-2.26236 -2.58031,-3.718l0,0c-0.2422,0.37823 -0.856,0.70267 -1.15458,0.03275c0.5891,-0.11926 0.20997,-1.63277 -1.21149,-2.47224c-2.79085,-2.08582 -6.96341,-0.84473 -9.28545,0.88391c-2.51213,1.70116 -3.76229,4.00854 -4.6097,6.16861c0.68575,-2.39215 1.96223,-4.90414 4.47276,-6.60355c2.29733,-1.52811 6.65678,-2.73999 10.11512,-1.38607l0,0l0.00002,0.00002l0,-0.00001zm2.73875,2.49328c1.61372,2.3261 2.58731,5.1789 2.00949,8.21119c-0.55206,2.83001 -3.38101,5.52322 -6.24543,5.50569c-2.30215,0.06839 -4.55708,-1.7298 -4.83416,-4.06c-0.1348,-0.4361 -0.08216,-0.84532 -0.05477,-1.04875c-0.21427,0.17596 -0.428,0.35192 -0.66805,0.7319c-0.9838,1.72279 -0.92204,4.22836 0.15574,6.26625c3.28757,5.69685 10.21286,3.83258 12.95377,-1.16335c2.74036,-4.99417 0.76685,-10.49577 -3.31657,-14.44294l0,0l-0.00001,0.00001l-0.00001,0z" fill="#F6D56B"></path>
   <path id="svg_48" d="m75.42673,111.2654c2.46381,0.16369 4.78532,-1.56612 5.68855,-4.13248c0.0247,-0.20519 0.05102,-0.40922 0.05102,-0.40922c-1.00636,3.38538 -3.55769,0.9184 -3.79237,2.75519l0,0c0.05317,-0.40746 -0.27065,-0.87163 -1.07294,-0.57699c0.37483,0.05729 0.48492,0.69741 0.40491,1.30948c-0.24005,0.3794 -0.66644,0.73191 -1.06651,0.87923c-0.98864,0.2654 -2.25008,-0.34023 -3.13508,-0.89091c0.85922,0.75237 1.77106,1.1002 2.92241,1.06572l0,0l0,-0.00001l0.00001,-0.00001z" fill="#F6D56B"></path>
   <path id="svg_49" d="m75.42673,111.2654c2.46381,0.16369 4.78532,-1.56612 5.68855,-4.13248c0.0247,-0.20519 0.05102,-0.40922 0.05102,-0.40922c-1.00636,3.38538 -3.55769,0.9184 -3.79237,2.75519l0,0c0.05317,-0.40746 -0.27065,-0.87163 -1.07294,-0.57699c0.37483,0.05729 0.48492,0.69741 0.40491,1.30948c-0.24005,0.3794 -0.66644,0.73191 -1.06651,0.87923c-0.98864,0.2654 -2.25008,-0.34023 -3.13508,-0.89091c0.85922,0.75237 1.77106,1.1002 2.92241,1.06572l0,0l0,-0.00001l0.00001,-0.00001z" fill="#F6D56B"></path>
   <path id="svg_50" d="m109.31046,101.82716c2.20389,2.20448 5.44205,2.27932 6.82915,0.40862c1.57236,-1.84264 1.18786,-4.81178 -1.03643,-5.35838c-0.74966,-0.11224 -1.73938,0.15316 -2.21947,0.9137c-0.45324,0.55478 -0.39577,1.60355 0.49029,2.15364c-0.91292,-0.3455 -0.94353,-1.59827 -0.46397,-2.35883c0.66696,-0.73074 1.47086,-1.02597 2.21785,-0.91255c2.06266,0.31217 2.98524,3.57244 1.17284,5.79389c-1.59922,2.04665 -5.00009,1.74091 -6.99026,-0.64012l0,0l0,0.00002l0.00002,0z" fill="#F6D56B"></path>
   <path id="svg_51" d="m109.31046,101.82716c2.20389,2.20448 5.44205,2.27932 6.82915,0.40862c1.57236,-1.84264 1.18786,-4.81178 -1.03643,-5.35838c-0.74966,-0.11224 -1.73938,0.15316 -2.21947,0.9137c-0.45324,0.55478 -0.39577,1.60355 0.49029,2.15364c-0.91292,-0.3455 -0.94353,-1.59827 -0.46397,-2.35883c0.66696,-0.73074 1.47086,-1.02597 2.21785,-0.91255c2.06266,0.31217 2.98524,3.57244 1.17284,5.79389c-1.59922,2.04665 -5.00009,1.74091 -6.99026,-0.64012l0,0l0,0.00002l0.00002,0z" fill="#F6D56B"></path>
   <path id="svg_52" d="m49.49344,111.50333c-6.99778,3.5555 -15.42025,0.46066 -17.53821,-5.66821c-1.90907,-5.95409 1.35702,-13.31177 7.4043,-12.35477c2.16576,0.50333 4.11457,2.28984 4.74932,4.27512c0.47364,2.21677 -0.12459,5.01172 -2.74896,5.40749c2.46219,-0.16428 3.38531,-3.42397 2.74896,-5.40749c-0.71315,-2.59676 -2.8236,-4.1506 -4.7751,-4.47973c-5.32392,-1.27616 -10.16721,5.69978 -7.7308,12.81894c2.43964,7.12151 10.94427,9.37276 17.8905,5.40865l0,0l-0.00001,0z" fill="#F6D56B"></path>
   <path id="svg_53" d="m49.49344,111.50333c-6.99778,3.5555 -15.42025,0.46066 -17.53821,-5.66821c-1.90907,-5.95409 1.35702,-13.31177 7.4043,-12.35477c2.16576,0.50333 4.11457,2.28984 4.74932,4.27512c0.47364,2.21677 -0.12459,5.01172 -2.74896,5.40749c2.46219,-0.16428 3.38531,-3.42397 2.74896,-5.40749c-0.71315,-2.59676 -2.8236,-4.1506 -4.7751,-4.47973c-5.32392,-1.27616 -10.16721,5.69978 -7.7308,12.81894c2.43964,7.12151 10.94427,9.37276 17.8905,5.40865l0,0l-0.00001,0z" fill="#F6D56B"></path>
   <path id="svg_54" d="m50.72856,110.6925c-3.56575,1.99522 -7.38873,0.49398 -8.69151,-2.22146c-1.14061,-2.94751 -0.03222,-6.23701 3.25912,-5.90321c1.15189,0.03391 2.19154,0.70794 2.51105,1.70058c0.50479,0.96341 0.12566,2.47691 -1.18625,2.67509c1.31192,-0.19817 1.69158,-1.71169 1.37421,-2.70316c-0.53272,-1.16918 -1.76086,-1.81456 -2.72533,-1.87712c-2.72908,-0.41798 -5.1757,2.86275 -3.60763,6.16335c0.31684,0.99265 0.9838,1.72279 1.83765,2.4249c-1.41717,-0.61674 -1.94666,-1.78477 -2.50515,-3.15446c-0.0784,-0.6144 -0.69113,-0.93768 -0.82914,-0.50157c0.02631,0.20576 0.0537,0.40921 0.07894,0.61264c0.26636,0.58576 0.74483,1.34515 1.38656,1.87188c0.66589,0.73132 1.49397,1.22939 2.67109,1.46908c-1.17659,-0.23969 -2.40527,-0.88625 -3.28489,-1.79178c-1.09443,-1.08324 -1.46282,-2.48277 -0.90218,-2.56987c-0.26528,-0.58225 -1.36401,-0.20987 -1.49933,0.22681l0,0c0.19064,-1.48486 -1.33447,-1.46148 -2.20819,-3.82616c-0.53217,-1.16685 -0.17829,-2.88496 0.44143,-4.01848c-2.61578,4.97137 -0.78618,10.31221 2.90146,12.2513c3.12379,2.02327 7.97514,1.08149 10.9781,-0.82837l0,0l-0.00001,0.00001z" fill="#F6D56B"></path>
   <path id="svg_55" d="m50.72856,110.6925c-3.56575,1.99522 -7.38873,0.49398 -8.69151,-2.22146c-1.14061,-2.94751 -0.03222,-6.23701 3.25912,-5.90321c1.15189,0.03391 2.19154,0.70794 2.51105,1.70058c0.50479,0.96341 0.12566,2.47691 -1.18625,2.67509c1.31192,-0.19817 1.69158,-1.71169 1.37421,-2.70316c-0.53272,-1.16918 -1.76086,-1.81456 -2.72533,-1.87712c-2.72908,-0.41798 -5.1757,2.86275 -3.60763,6.16335c0.31684,0.99265 0.9838,1.72279 1.83765,2.4249c-1.41717,-0.61674 -1.94666,-1.78477 -2.50515,-3.15446c-0.0784,-0.6144 -0.69113,-0.93768 -0.82914,-0.50157c0.02631,0.20576 0.0537,0.40921 0.07894,0.61264c0.26636,0.58576 0.74483,1.34515 1.38656,1.87188c0.66589,0.73132 1.49397,1.22939 2.67109,1.46908c-1.17659,-0.23969 -2.40527,-0.88625 -3.28489,-1.79178c-1.09443,-1.08324 -1.46282,-2.48277 -0.90218,-2.56987c-0.26528,-0.58225 -1.36401,-0.20987 -1.49933,0.22681l0,0c0.19064,-1.48486 -1.33447,-1.46148 -2.20819,-3.82616c-0.53217,-1.16685 -0.17829,-2.88496 0.44143,-4.01848c-2.61578,4.97137 -0.78618,10.31221 2.90146,12.2513c3.12379,2.02327 7.97514,1.08149 10.9781,-0.82837l0,0l-0.00001,0.00001z" fill="#F6D56B"></path>
   <path id="svg_56" d="m17.62403,99.88806c3.45942,-1.35392 7.81833,-0.14205 10.11566,1.38373c2.51159,1.69942 3.78807,4.2114 4.47383,6.60355c-0.8474,-2.15949 -2.09756,-4.46745 -4.60916,-6.16862c-2.32364,-1.72865 -6.49514,-2.96973 -9.28598,-0.8839c-1.422,0.84006 -1.80113,2.35297 -1.21203,2.47224c-0.29858,0.66994 -0.91291,0.34608 -1.15403,-0.03274l0,0c-0.00376,1.45563 -1.52994,1.47726 -2.58087,3.718c-1.64755,3.57829 1.94989,9.27456 5.91034,8.88405c2.49065,0.03859 4.50552,-2.13844 4.59412,-4.43939c0.1611,-0.23384 0.13425,-0.43727 0.10847,-0.64188c-1.30547,-1.25803 -3.65812,-1.73389 -5.3787,-0.22683c1.50524,-1.68362 3.85896,-1.20776 5.35292,0.0234c-0.0972,-2.27464 -2.12495,-4.67323 -4.40133,-4.53645c-2.27585,0.13564 -3.70161,2.43308 -3.04216,4.62063c0.37215,1.40185 1.67923,2.65872 2.99222,2.46055c-1.68944,0.25607 -3.04914,-1.41061 -3.25643,-3.04456c-0.31307,-2.44827 1.72864,-4.42127 4.05657,-4.1512c2.1416,0.30166 3.76605,2.55293 3.67637,4.85387c0.40276,0.1479 0.64065,0.52613 0.88177,0.90846c1.22438,2.10218 0.78672,4.66504 -0.12888,6.46792c-2.59,5.17598 -10.21823,5.29057 -13.72974,-1.25043c-3.69732,-6.51295 0.58695,-14.85917 6.61704,-17.02042l0,0l0,0.00002zm-2.73768,2.49328c-4.08342,3.94717 -6.0564,9.44877 -3.31818,14.44236c2.74197,4.99593 9.66672,6.8602 12.95429,1.16333c1.07885,-2.03729 1.139,-4.54286 0.15574,-6.26624c-0.23843,-0.37997 -0.45431,-0.55595 -0.6675,-0.7319c0.02631,0.20344 0.07894,0.61266 -0.05585,1.04876c-0.27441,2.33018 -2.52986,4.12897 -4.83363,4.05999c-2.86334,0.01754 -5.69177,-2.67568 -6.24436,-5.50569c-0.5789,-3.0317 0.3947,-5.88509 2.00949,-8.2106l0,0l0,-0.00001z" fill="#F6D56B"></path>
   <path id="svg_57" d="m17.62403,99.88806c3.45942,-1.35392 7.81833,-0.14205 10.11566,1.38373c2.51159,1.69942 3.78807,4.2114 4.47383,6.60355c-0.8474,-2.15949 -2.09756,-4.46745 -4.60916,-6.16862c-2.32364,-1.72865 -6.49514,-2.96973 -9.28598,-0.8839c-1.422,0.84006 -1.80113,2.35297 -1.21203,2.47224c-0.29858,0.66994 -0.91291,0.34608 -1.15403,-0.03274l0,0c-0.00376,1.45563 -1.52994,1.47726 -2.58087,3.718c-1.64755,3.57829 1.94989,9.27456 5.91034,8.88405c2.49065,0.03859 4.50552,-2.13844 4.59412,-4.43939c0.1611,-0.23384 0.13425,-0.43727 0.10847,-0.64188c-1.30547,-1.25803 -3.65812,-1.73389 -5.3787,-0.22683c1.50524,-1.68362 3.85896,-1.20776 5.35292,0.0234c-0.0972,-2.27464 -2.12495,-4.67323 -4.40133,-4.53645c-2.27585,0.13564 -3.70161,2.43308 -3.04216,4.62063c0.37215,1.40185 1.67923,2.65872 2.99222,2.46055c-1.68944,0.25607 -3.04914,-1.41061 -3.25643,-3.04456c-0.31307,-2.44827 1.72864,-4.42127 4.05657,-4.1512c2.1416,0.30166 3.76605,2.55293 3.67637,4.85387c0.40276,0.1479 0.64065,0.52613 0.88177,0.90846c1.22438,2.10218 0.78672,4.66504 -0.12888,6.46792c-2.59,5.17598 -10.21823,5.29057 -13.72974,-1.25043c-3.69732,-6.51295 0.58695,-14.85917 6.61704,-17.02042l0,0l0,0.00002zm-2.73768,2.49328c-4.08342,3.94717 -6.0564,9.44877 -3.31818,14.44236c2.74197,4.99593 9.66672,6.8602 12.95429,1.16333c1.07885,-2.03729 1.139,-4.54286 0.15574,-6.26624c-0.23843,-0.37997 -0.45431,-0.55595 -0.6675,-0.7319c0.02631,0.20344 0.07894,0.61266 -0.05585,1.04876c-0.27441,2.33018 -2.52986,4.12897 -4.83363,4.05999c-2.86334,0.01754 -5.69177,-2.67568 -6.24436,-5.50569c-0.5789,-3.0317 0.3947,-5.88509 2.00949,-8.2106l0,0l0,-0.00001z" fill="#F6D56B"></path>
   <path id="svg_58" d="m48.31739,111.2654c-2.46326,0.16369 -4.78476,-1.56612 -5.68801,-4.13248c-0.02577,-0.20519 -0.05209,-0.40922 -0.05209,-0.40922c1.00743,3.38538 3.55877,0.9184 3.7929,2.75519l0,0c-0.05263,-0.40746 0.27011,-0.87163 1.07295,-0.57699c-0.37484,0.05729 -0.48546,0.69741 -0.40598,1.30948c0.24058,0.3794 0.66643,0.73191 1.06811,0.87923c0.98864,0.2654 2.24954,-0.34023 3.13454,-0.89091c-0.85922,0.75237 -1.77106,1.1002 -2.92241,1.06572l0,0l-0.00001,-0.00001l0,-0.00001z" fill="#F6D56B"></path>
   <path id="svg_59" d="m48.31739,111.2654c-2.46326,0.16369 -4.78476,-1.56612 -5.68801,-4.13248c-0.02577,-0.20519 -0.05209,-0.40922 -0.05209,-0.40922c1.00743,3.38538 3.55877,0.9184 3.7929,2.75519l0,0c-0.05263,-0.40746 0.27011,-0.87163 1.07295,-0.57699c-0.37484,0.05729 -0.48546,0.69741 -0.40598,1.30948c0.24058,0.3794 0.66643,0.73191 1.06811,0.87923c0.98864,0.2654 2.24954,-0.34023 3.13454,-0.89091c-0.85922,0.75237 -1.77106,1.1002 -2.92241,1.06572l0,0l-0.00001,-0.00001l0,-0.00001z" fill="#F6D56B"></path>
   <path id="svg_60" d="m14.43258,101.82716c-2.20282,2.20448 -5.44099,2.27932 -6.82755,0.40862c-1.5729,-1.84264 -1.18733,-4.81178 1.03536,-5.35838c0.74913,-0.11224 1.73938,0.15316 2.21839,0.9137c0.45539,0.55478 0.39739,1.60355 -0.48868,2.15364c0.91292,-0.3455 0.94406,-1.59827 0.46344,-2.35883c-0.66697,-0.73074 -1.47034,-1.02597 -2.21839,-0.91255c-2.06212,0.31217 -2.9847,3.57244 -1.17229,5.79389c1.60083,2.04665 5.00118,1.74091 6.98973,-0.64012l0,0l-0.00001,0.00002z" fill="#F6D56B"></path>
   <path id="svg_61" d="m14.43258,101.82716c-2.20282,2.20448 -5.44099,2.27932 -6.82755,0.40862c-1.5729,-1.84264 -1.18733,-4.81178 1.03536,-5.35838c0.74913,-0.11224 1.73938,0.15316 2.21839,0.9137c0.45539,0.55478 0.39739,1.60355 -0.48868,2.15364c0.91292,-0.3455 0.94406,-1.59827 0.46344,-2.35883c-0.66697,-0.73074 -1.47034,-1.02597 -2.21839,-0.91255c-2.06212,0.31217 -2.9847,3.57244 -1.17229,5.79389c1.60083,2.04665 5.00118,1.74091 6.98973,-0.64012l0,0l-0.00001,0.00002z" fill="#F6D56B"></path>
   <polygon id="svg_62" points="61.87206268310547,95.17332458496094 64.09635162353516,102.67130279541016 71.334716796875,102.6561050415039 65.47002410888672,107.27555084228516 67.71902465820312,114.7641830444336 61.87206268310547,110.12017822265625 56.02509307861328,114.7641830444336 58.27570343017578,107.27555084228516 52.41154861450195,102.6561050415039 59.64990997314453,102.67130279541016 61.87206268310547,95.17332458496094 " fill="#F6D56B" clip-rule="evenodd" fill-rule="evenodd"></polygon>
   <path id="svg_63" d="m78.98818,115.99183c-5.33251,-3.97055 -6.39257,-5.75941 -5.3701,-10.72668c2.01003,1.95955 0.36463,5.0041 3.71558,7.66576c-2.79729,-2.62833 -1.29311,-5.63782 -3.45727,-7.61374c1.4032,1.01368 2.42835,0.2923 4.12048,2.76629c1.77105,2.59676 0.60197,5.00237 0.99131,7.90837l0,0z" fill="#F6D56B"></path>
   <path id="svg_64" d="m67.46234,109.3035c1.56699,-3.4222 2.49763,-4.17751 5.77339,-3.98634c-0.88821,1.32468 -3.05183,0.61732 -4.15592,2.78325c1.17176,-1.83855 3.2924,-1.22122 4.16183,-2.62717c-0.39792,0.89149 0.22878,1.42524 -1.02944,2.61079c-1.31515,1.25453 -3.00726,0.75646 -4.74986,1.21946l0,0l0,0.00001z" fill="#F6D56B"></path>
   <path id="svg_65" d="m85.14447,102.08671c-6.35069,-1.6503 -8.33386,-1.32526 -11.27776,2.74818c2.74091,0.29169 3.86003,-2.97207 7.99017,-2.07881c-3.73973,-0.4823 -4.92975,2.66399 -7.77537,2.23313c1.65346,0.44839 1.79147,1.73858 4.69347,1.46324c3.03465,-0.29346 4.01254,-2.78442 6.36948,-4.36575l0,0l0.00001,0l0,0.00001z" fill="#F6D56B"></path>
   <path id="svg_66" d="m74.69694,100.38262c0.30609,0.84182 -0.09881,1.78827 -0.91131,2.11506c-0.80712,0.30866 -1.71467,-0.1029 -2.02345,-0.96282c-0.30878,-0.84064 0.0988,-1.78885 0.90862,-2.11331c0.81034,-0.32677 1.71468,0.10464 2.02614,0.96107l0,0z" fill="#F6D56B" clip-rule="evenodd" fill-rule="evenodd"></path>
   <path id="svg_67" d="m44.75593,115.99183c5.33359,-3.97055 6.39149,-5.75941 5.37064,-10.72668c-2.01164,1.95955 -0.36409,5.0041 -3.71665,7.66576c2.79943,-2.62833 1.29258,-5.63782 3.45781,-7.61374c-1.40321,1.01368 -2.4289,0.2923 -4.12048,2.76629c-1.76998,2.59676 -0.60091,5.00237 -0.99132,7.90837l0,0z" fill="#F6D56B"></path>
   <path id="svg_68" d="m56.28339,109.3035c-1.56646,-3.4222 -2.49817,-4.17751 -5.77286,-3.98634c0.88875,1.32468 3.05183,0.61732 4.15592,2.78325c-1.17229,-1.83855 -3.29403,-1.22122 -4.16076,-2.62717c0.39685,0.89149 -0.23199,1.42524 1.02784,2.61079c1.31675,1.25453 3.00726,0.75646 4.74986,1.21946l0,0l0,0.00001z" fill="#F6D56B"></path>
   <path id="svg_69" d="m38.60019,102.08671c6.35229,-1.6503 8.33493,-1.32526 11.27721,2.74818c-2.74036,0.29169 -3.85949,-2.97207 -7.99017,-2.07881c3.74081,-0.4823 4.92975,2.66399 7.77752,2.23313c-1.65506,0.44839 -1.79361,1.73858 -4.69401,1.46324c-3.03518,-0.29346 -4.01307,-2.78442 -6.37055,-4.36575l0,0l0,0.00001z" fill="#F6D56B"></path>
   <path id="svg_70" d="m49.04987,100.38262c-0.30825,0.84182 0.09881,1.78827 0.90916,2.11506c0.80981,0.30866 1.71521,-0.1029 2.02399,-0.96282c0.30878,-0.84064 -0.09935,-1.78885 -0.90863,-2.11331c-0.80981,-0.32677 -1.71574,0.10464 -2.02452,0.96107l0,0z" fill="#F6D56B" clip-rule="evenodd" fill-rule="evenodd"></path>
   <polygon id="svg_71" points="61.873130798339844,97.83438873291016 63.50725555419922,103.34943389892578 68.83171081542969,103.33890533447266 64.51844787597656,106.73538970947266 66.17350769042969,112.24458312988281 61.873130798339844,108.82881164550781 57.571685791015625,112.24458312988281 59.22621154785156,106.73538970947266 54.912410736083984,103.33890533447266 60.23686218261719,103.34943389892578 61.873130798339844,97.83438873291016 " fill="#F6D56B" clip-rule="evenodd" fill-rule="evenodd"></polygon>
   <path id="svg_72" d="m324.383,104.07375c5.52478,-2.80605 12.17136,-0.36304 13.84415,4.47388c1.50525,4.6972 -1.0719,10.50687 -5.84534,9.74983c-1.70929,-0.39635 -3.24731,-1.80814 -3.74835,-3.37193c-0.3732,-1.75085 0.09988,-3.95651 2.17111,-4.26927c-1.94342,0.13037 -2.67267,2.70198 -2.17111,4.26927c0.56332,2.04784 2.22913,3.27431 3.76981,3.53387c4.20212,1.00726 8.02454,-4.49786 6.10098,-10.11694c-1.92462,-5.61969 -8.63675,-7.39743 -14.12125,-4.26869l0,0l0,-0.00001l0,-0.00001z" fill="#F6D56B"></path>
   <path id="svg_73" d="m324.383,104.07375c5.52478,-2.80605 12.17136,-0.36304 13.84415,4.47388c1.50525,4.6972 -1.0719,10.50687 -5.84534,9.74983c-1.70929,-0.39635 -3.24731,-1.80814 -3.74835,-3.37193c-0.3732,-1.75085 0.09988,-3.95651 2.17111,-4.26927c-1.94342,0.13037 -2.67267,2.70198 -2.17111,4.26927c0.56332,2.04784 2.22913,3.27431 3.76981,3.53387c4.20212,1.00726 8.02454,-4.49786 6.10098,-10.11694c-1.92462,-5.61969 -8.63675,-7.39743 -14.12125,-4.26869l0,0l0,-0.00001l0,-0.00001z" fill="#F6D56B"></path>
   <path id="svg_74" d="m323.40942,104.71504c2.81503,-1.57489 5.83249,-0.39169 6.85925,1.75201c0.90106,2.32726 0.02628,4.92168 -2.57178,4.65919c-0.90915,-0.02689 -1.73077,-0.55946 -1.98157,-1.3428c-0.39899,-0.75996 -0.09933,-1.95488 0.93594,-2.11097c-1.03534,0.15668 -1.33493,1.35159 -1.08368,2.13318c0.41888,0.92308 1.38977,1.43225 2.15027,1.48135c2.15228,0.3303 4.08444,-2.25945 2.8472,-4.8638c-0.25021,-0.78336 -0.77597,-1.36093 -1.44989,-1.91571c1.11691,0.48814 1.53641,1.40945 1.9772,2.49211c0.06064,0.48463 0.54559,0.73894 0.6546,0.3952c-0.02094,-0.16194 -0.04294,-0.3233 -0.06284,-0.48405c-0.20996,-0.46066 -0.58746,-1.05987 -1.09387,-1.4761c-0.52628,-0.57699 -1.17874,-0.97099 -2.10938,-1.15923c0.93011,0.18824 1.89993,0.69801 2.5943,1.41354c0.8624,0.85641 1.15512,1.96072 0.71155,2.02911c0.20996,0.45891 1.07614,0.16544 1.18246,-0.18064l0,0c-0.15033,1.17328 1.05362,1.15575 1.74368,3.02119c0.4194,0.92014 0.14072,2.27757 -0.34909,3.17258c2.0643,-3.92436 0.62137,-8.13927 -2.28979,-9.66975c-2.46539,-1.59768 -6.29376,-0.85526 -8.66464,0.65359l0,0l0.00003,0l0.00003,0.00002z" fill="#F6D56B"></path>
   <path id="svg_75" d="m323.40942,104.71504c2.81503,-1.57489 5.83249,-0.39169 6.85925,1.75201c0.90106,2.32726 0.02628,4.92168 -2.57178,4.65919c-0.90915,-0.02689 -1.73077,-0.55946 -1.98157,-1.3428c-0.39899,-0.75996 -0.09933,-1.95488 0.93594,-2.11097c-1.03534,0.15668 -1.33493,1.35159 -1.08368,2.13318c0.41888,0.92308 1.38977,1.43225 2.15027,1.48135c2.15228,0.3303 4.08444,-2.25945 2.8472,-4.8638c-0.25021,-0.78336 -0.77597,-1.36093 -1.44989,-1.91571c1.11691,0.48814 1.53641,1.40945 1.9772,2.49211c0.06064,0.48463 0.54559,0.73894 0.6546,0.3952c-0.02094,-0.16194 -0.04294,-0.3233 -0.06284,-0.48405c-0.20996,-0.46066 -0.58746,-1.05987 -1.09387,-1.4761c-0.52628,-0.57699 -1.17874,-0.97099 -2.10938,-1.15923c0.93011,0.18824 1.89993,0.69801 2.5943,1.41354c0.8624,0.85641 1.15512,1.96072 0.71155,2.02911c0.20996,0.45891 1.07614,0.16544 1.18246,-0.18064l0,0c-0.15033,1.17328 1.05362,1.15575 1.74368,3.02119c0.4194,0.92014 0.14072,2.27757 -0.34909,3.17258c2.0643,-3.92436 0.62137,-8.13927 -2.28979,-9.66975c-2.46539,-1.59768 -6.29376,-0.85526 -8.66464,0.65359l0,0l0.00003,0l0.00003,0.00002z" fill="#F6D56B"></path>
   <path id="svg_76" d="m349.53604,113.24074c-2.7291,1.0698 -6.17023,0.11224 -7.9837,-1.09144c-1.98105,-1.34048 -2.98798,-3.32458 -3.52927,-5.21281c0.66858,1.70585 1.65616,3.52627 3.63773,4.86906c1.83282,1.36444 5.12631,2.34422 7.32858,0.69743c1.12183,-0.66293 1.42093,-1.85725 0.95639,-1.95137c0.23526,-0.52906 0.72012,-0.273 0.91022,0.02631l0,0c0.00323,-1.14989 1.20776,-1.16685 2.03693,-2.93524c1.30063,-2.82475 -1.53854,-7.31968 -4.66556,-7.0116c-1.96439,-0.03098 -3.55609,1.68773 -3.62589,3.50288c-0.12674,0.18417 -0.10583,0.34608 -0.08539,0.50626c1.03055,0.99323 2.88803,1.36912 4.24612,0.17948c-1.18945,1.32761 -3.047,0.95346 -4.22629,-0.01696c0.07843,1.79353 1.67764,3.68703 3.47449,3.57887c1.79578,-0.10757 2.92188,-1.91981 2.40094,-3.64668c-0.29266,-1.10722 -1.32532,-2.09869 -2.36069,-1.94202c1.33234,-0.20226 2.40527,1.11308 2.57016,2.40267c0.24701,1.93267 -1.36511,3.48944 -3.20273,3.27606c-1.68945,-0.23676 -2.97128,-2.01392 -2.90149,-3.83083c-0.31738,-0.11633 -0.50586,-0.41564 -0.69437,-0.71671c-0.96765,-1.65791 -0.62137,-3.68234 0.10092,-5.10583c2.0433,-4.08454 8.06482,-4.17458 10.83578,0.98796c2.91919,5.14208 -0.46344,11.72926 -5.22296,13.43452l0,0l0.00003,-0.00002l0.00003,0.00001zm2.16147,-1.96774c3.22314,-3.11588 4.78046,-7.45648 2.61792,-11.3978c-2.16254,-3.94307 -7.62823,-5.41391 -10.22415,-0.91663c-0.85007,1.60646 -0.89893,3.58353 -0.12241,4.94331c0.18954,0.30106 0.35818,0.43786 0.52676,0.57875c-0.0209,-0.16135 -0.06226,-0.48347 0.04407,-0.82779c0.21802,-1.83971 1.99823,-3.25793 3.81494,-3.20532c2.26077,-0.01344 4.49258,2.11272 4.9292,4.34644c0.4559,2.39216 -0.31256,4.644 -1.58633,6.47904l0,0z" fill="#F6D56B"></path>
   <path id="svg_77" d="m349.53604,113.24074c-2.7291,1.0698 -6.17023,0.11224 -7.9837,-1.09144c-1.98105,-1.34048 -2.98798,-3.32458 -3.52927,-5.21281c0.66858,1.70585 1.65616,3.52627 3.63773,4.86906c1.83282,1.36444 5.12631,2.34422 7.32858,0.69743c1.12183,-0.66293 1.42093,-1.85725 0.95639,-1.95137c0.23526,-0.52906 0.72012,-0.273 0.91022,0.02631l0,0c0.00323,-1.14989 1.20776,-1.16685 2.03693,-2.93524c1.30063,-2.82475 -1.53854,-7.31968 -4.66556,-7.0116c-1.96439,-0.03098 -3.55609,1.68773 -3.62589,3.50288c-0.12674,0.18417 -0.10583,0.34608 -0.08539,0.50626c1.03055,0.99323 2.88803,1.36912 4.24612,0.17948c-1.18945,1.32761 -3.047,0.95346 -4.22629,-0.01696c0.07843,1.79353 1.67764,3.68703 3.47449,3.57887c1.79578,-0.10757 2.92188,-1.91981 2.40094,-3.64668c-0.29266,-1.10722 -1.32532,-2.09869 -2.36069,-1.94202c1.33234,-0.20226 2.40527,1.11308 2.57016,2.40267c0.24701,1.93267 -1.36511,3.48944 -3.20273,3.27606c-1.68945,-0.23676 -2.97128,-2.01392 -2.90149,-3.83083c-0.31738,-0.11633 -0.50586,-0.41564 -0.69437,-0.71671c-0.96765,-1.65791 -0.62137,-3.68234 0.10092,-5.10583c2.0433,-4.08454 8.06482,-4.17458 10.83578,0.98796c2.91919,5.14208 -0.46344,11.72926 -5.22296,13.43452l0,0l0.00003,-0.00002l0.00003,0.00001zm2.16147,-1.96774c3.22314,-3.11588 4.78046,-7.45648 2.61792,-11.3978c-2.16254,-3.94307 -7.62823,-5.41391 -10.22415,-0.91663c-0.85007,1.60646 -0.89893,3.58353 -0.12241,4.94331c0.18954,0.30106 0.35818,0.43786 0.52676,0.57875c-0.0209,-0.16135 -0.06226,-0.48347 0.04407,-0.82779c0.21802,-1.83971 1.99823,-3.25793 3.81494,-3.20532c2.26077,-0.01344 4.49258,2.11272 4.9292,4.34644c0.4559,2.39216 -0.31256,4.644 -1.58633,6.47904l0,0z" fill="#F6D56B"></path>
   <path id="svg_78" d="m325.31204,104.2614c1.94504,-0.1292 3.77679,1.23524 4.48993,3.26144c0.0199,0.16135 0.04083,0.32386 0.04083,0.32386c-0.79422,-2.67276 -2.80801,-0.72606 -2.9938,-2.17585l0,0c0.04239,0.32328 -0.21268,0.68806 -0.84528,0.45715c0.29535,-0.0456 0.38235,-0.55009 0.31897,-1.03415c-0.18954,-0.30106 -0.52573,-0.57816 -0.84146,-0.69508c-0.78137,-0.20811 -1.77591,0.27008 -2.47348,0.70385c0.67609,-0.59454 1.39517,-0.86695 2.30429,-0.84122l0,0z" fill="#F6D56B"></path>
   <path id="svg_79" d="m325.31204,104.2614c1.94504,-0.1292 3.77679,1.23524 4.48993,3.26144c0.0199,0.16135 0.04083,0.32386 0.04083,0.32386c-0.79422,-2.67276 -2.80801,-0.72606 -2.9938,-2.17585l0,0c0.04239,0.32328 -0.21268,0.68806 -0.84528,0.45715c0.29535,-0.0456 0.38235,-0.55009 0.31897,-1.03415c-0.18954,-0.30106 -0.52573,-0.57816 -0.84146,-0.69508c-0.78137,-0.20811 -1.77591,0.27008 -2.47348,0.70385c0.67609,-0.59454 1.39517,-0.86695 2.30429,-0.84122l0,0z" fill="#F6D56B"></path>
   <path id="svg_80" d="m352.05463,111.71085c1.73935,-1.7415 4.29556,-1.79878 5.38995,-0.3227c1.24158,1.45331 0.9371,3.79868 -0.81839,4.22953c-0.59122,0.08768 -1.37152,-0.12218 -1.75122,-0.72138c-0.35764,-0.43903 -0.3125,-1.26565 0.38669,-1.70058c-0.7196,0.27184 -0.74432,1.26155 -0.36572,1.86253c0.52573,0.57582 1.16049,0.81023 1.75067,0.71904c1.6282,-0.24611 2.35638,-2.81773 0.92578,-4.57209c-1.26303,-1.61523 -3.94647,-1.37321 -5.51776,0.50567l0,0l0,-0.00001l0,-0.00001z" fill="#F6D56B"></path>
   <path id="svg_81" d="m352.05463,111.71085c1.73935,-1.7415 4.29556,-1.79878 5.38995,-0.3227c1.24158,1.45331 0.9371,3.79868 -0.81839,4.22953c-0.59122,0.08768 -1.37152,-0.12218 -1.75122,-0.72138c-0.35764,-0.43903 -0.3125,-1.26565 0.38669,-1.70058c-0.7196,0.27184 -0.74432,1.26155 -0.36572,1.86253c0.52573,0.57582 1.16049,0.81023 1.75067,0.71904c1.6282,-0.24611 2.35638,-2.81773 0.92578,-4.57209c-1.26303,-1.61523 -3.94647,-1.37321 -5.51776,0.50567l0,0l0,-0.00001l0,-0.00001z" fill="#F6D56B"></path>
   <path id="svg_82" d="m304.84387,104.07375c-5.52313,-2.80605 -12.17023,-0.36304 -13.84195,4.47388c-1.50629,4.6972 1.07187,10.50687 5.8443,9.74983c1.70981,-0.39635 3.24731,-1.80814 3.74835,-3.37193c0.37323,-1.75085 -0.0983,-3.95651 -2.1701,-4.26927c1.94455,0.13037 2.67218,2.70198 2.1701,4.26927c-0.56284,2.04784 -2.22861,3.27431 -3.76877,3.53387c-4.20154,1.00726 -8.02451,-4.49786 -6.1015,-10.11694c1.9252,-5.61969 8.63782,-7.39743 14.11957,-4.26869l0,0l0,-0.00001l0,-0.00001z" fill="#F6D56B"></path>
   <path id="svg_83" d="m304.84387,104.07375c-5.52313,-2.80605 -12.17023,-0.36304 -13.84195,4.47388c-1.50629,4.6972 1.07187,10.50687 5.8443,9.74983c1.70981,-0.39635 3.24731,-1.80814 3.74835,-3.37193c0.37323,-1.75085 -0.0983,-3.95651 -2.1701,-4.26927c1.94455,0.13037 2.67218,2.70198 2.1701,4.26927c-0.56284,2.04784 -2.22861,3.27431 -3.76877,3.53387c-4.20154,1.00726 -8.02451,-4.49786 -6.1015,-10.11694c1.9252,-5.61969 8.63782,-7.39743 14.11957,-4.26869l0,0l0,-0.00001l0,-0.00001z" fill="#F6D56B"></path>
   <path id="svg_84" d="m305.81964,104.71504c-2.81442,-1.57489 -5.83243,-0.39169 -6.85974,1.75201c-0.90005,2.32726 -0.02524,4.92168 2.57281,4.65919c0.9086,-0.02689 1.72974,-0.55946 1.98102,-1.3428c0.39957,-0.75996 0.09988,-1.95488 -0.93652,-2.11097c1.03641,0.15668 1.33609,1.35159 1.08475,2.13318c-0.42047,0.92308 -1.38922,1.43225 -2.15018,1.48135c-2.15341,0.3303 -4.08505,-2.25945 -2.84781,-4.8638c0.24976,-0.78336 0.776,-1.36093 1.45053,-1.91571c-1.11862,0.48814 -1.53696,1.40945 -1.97729,2.49211c-0.06177,0.48463 -0.54614,0.73894 -0.65408,0.3952c0.01987,-0.16194 0.04135,-0.3233 0.06122,-0.48405c0.20996,-0.46066 0.58801,-1.05987 1.09442,-1.4761c0.52573,-0.57699 1.17929,-0.97099 2.10776,-1.15923c-0.92847,0.18824 -1.89832,0.69801 -2.59265,1.41354c-0.86298,0.85641 -1.15408,1.96072 -0.71103,2.02911c-0.21051,0.45891 -1.07724,0.16544 -1.18304,-0.18064l0,0c0.14981,1.17328 -1.05417,1.15575 -1.74307,3.02119c-0.42047,0.92014 -0.14075,2.27757 0.34851,3.17258c-2.06482,-3.92436 -0.62024,-8.13927 2.29031,-9.66975c2.46432,-1.59768 6.29321,-0.85526 8.66409,0.65359l0,0l0,0.00002z" fill="#F6D56B"></path>
   <path id="svg_85" d="m305.81964,104.71504c-2.81442,-1.57489 -5.83243,-0.39169 -6.85974,1.75201c-0.90005,2.32726 -0.02524,4.92168 2.57281,4.65919c0.9086,-0.02689 1.72974,-0.55946 1.98102,-1.3428c0.39957,-0.75996 0.09988,-1.95488 -0.93652,-2.11097c1.03641,0.15668 1.33609,1.35159 1.08475,2.13318c-0.42047,0.92308 -1.38922,1.43225 -2.15018,1.48135c-2.15341,0.3303 -4.08505,-2.25945 -2.84781,-4.8638c0.24976,-0.78336 0.776,-1.36093 1.45053,-1.91571c-1.11862,0.48814 -1.53696,1.40945 -1.97729,2.49211c-0.06177,0.48463 -0.54614,0.73894 -0.65408,0.3952c0.01987,-0.16194 0.04135,-0.3233 0.06122,-0.48405c0.20996,-0.46066 0.58801,-1.05987 1.09442,-1.4761c0.52573,-0.57699 1.17929,-0.97099 2.10776,-1.15923c-0.92847,0.18824 -1.89832,0.69801 -2.59265,1.41354c-0.86298,0.85641 -1.15408,1.96072 -0.71103,2.02911c-0.21051,0.45891 -1.07724,0.16544 -1.18304,-0.18064l0,0c0.14981,1.17328 -1.05417,1.15575 -1.74307,3.02119c-0.42047,0.92014 -0.14075,2.27757 0.34851,3.17258c-2.06482,-3.92436 -0.62024,-8.13927 2.29031,-9.66975c2.46432,-1.59768 6.29321,-0.85526 8.66409,0.65359l0,0l0,0.00002z" fill="#F6D56B"></path>
   <path id="svg_86" d="m279.69196,113.24074c-4.75949,-1.70526 -8.14105,-8.29243 -5.22348,-13.43394c2.77094,-5.16254 8.79245,-5.07309 10.83578,-0.98796c0.72336,1.42406 1.06921,3.44792 0.1015,5.10583c-0.18958,0.30106 -0.3775,0.5998 -0.69543,0.71671c0.07086,1.81632 -1.21152,3.59349 -2.90091,3.83083c-1.83768,0.21338 -3.4487,-1.34339 -3.20224,-3.27605c0.16489,-1.28961 1.23785,-2.60495 2.57071,-2.40267c-1.03644,-0.15668 -2.06802,0.83537 -2.36179,1.94201c-0.52036,1.72689 0.60522,3.53971 2.40097,3.64669c1.79681,0.10815 3.39713,-1.78535 3.47391,-3.57887c-1.17929,0.97041 -3.03622,1.34455 -4.22464,0.01694c1.35809,1.18965 3.21399,0.81435 4.24454,-0.17947c0.02094,-0.16017 0.0408,-0.32211 -0.0838,-0.50626c-0.07031,-1.81516 -1.6615,-3.53386 -3.62698,-3.50288c-3.12698,-0.30808 -5.96509,4.18684 -4.6655,7.0116c0.82968,1.7678 2.0347,1.78534 2.03741,2.93523l0,0c0.19006,-0.29932 0.67502,-0.55537 0.91074,-0.02631c-0.46555,0.09412 -0.16699,1.28844 0.95642,1.95137c2.20227,1.64621 5.49466,0.66702 7.32806,-0.69742c1.98209,-1.34281 2.96915,-3.16323 3.63824,-4.86907c-0.54132,1.88824 -1.54874,3.87234 -3.53137,5.21281c-1.81134,1.20309 -5.25198,2.16065 -7.98215,1.09085l0,0l0,0.00003zm-2.16092,-1.96774c-1.27487,-1.83504 -2.04279,-4.0863 -1.5863,-6.47962c0.43658,-2.23314 2.6684,-4.35989 4.9281,-4.34645c1.81836,-0.0526 3.59796,1.36561 3.81491,3.20533c0.10583,0.34432 0.06393,0.66643 0.04407,0.82777c0.16861,-0.14088 0.33884,-0.27826 0.52679,-0.57874c0.77652,-1.35976 0.72818,-3.33685 -0.12296,-4.94332c-2.59375,-4.49669 -8.05945,-3.02644 -10.22311,0.91665c-2.16141,3.94189 -0.60413,8.2825 2.6185,11.39838l0,0z" fill="#F6D56B"></path>
   <path id="svg_87" d="m279.69196,113.24074c-4.75949,-1.70526 -8.14105,-8.29243 -5.22348,-13.43394c2.77094,-5.16254 8.79245,-5.07309 10.83578,-0.98796c0.72336,1.42406 1.06921,3.44792 0.1015,5.10583c-0.18958,0.30106 -0.3775,0.5998 -0.69543,0.71671c0.07086,1.81632 -1.21152,3.59349 -2.90091,3.83083c-1.83768,0.21338 -3.4487,-1.34339 -3.20224,-3.27605c0.16489,-1.28961 1.23785,-2.60495 2.57071,-2.40267c-1.03644,-0.15668 -2.06802,0.83537 -2.36179,1.94201c-0.52036,1.72689 0.60522,3.53971 2.40097,3.64669c1.79681,0.10815 3.39713,-1.78535 3.47391,-3.57887c-1.17929,0.97041 -3.03622,1.34455 -4.22464,0.01694c1.35809,1.18965 3.21399,0.81435 4.24454,-0.17947c0.02094,-0.16017 0.0408,-0.32211 -0.0838,-0.50626c-0.07031,-1.81516 -1.6615,-3.53386 -3.62698,-3.50288c-3.12698,-0.30808 -5.96509,4.18684 -4.6655,7.0116c0.82968,1.7678 2.0347,1.78534 2.03741,2.93523l0,0c0.19006,-0.29932 0.67502,-0.55537 0.91074,-0.02631c-0.46555,0.09412 -0.16699,1.28844 0.95642,1.95137c2.20227,1.64621 5.49466,0.66702 7.32806,-0.69742c1.98209,-1.34281 2.96915,-3.16323 3.63824,-4.86907c-0.54132,1.88824 -1.54874,3.87234 -3.53137,5.21281c-1.81134,1.20309 -5.25198,2.16065 -7.98215,1.09085l0,0l0,0.00003zm-2.16092,-1.96774c-1.27487,-1.83504 -2.04279,-4.0863 -1.5863,-6.47962c0.43658,-2.23314 2.6684,-4.35989 4.9281,-4.34645c1.81836,-0.0526 3.59796,1.36561 3.81491,3.20533c0.10583,0.34432 0.06393,0.66643 0.04407,0.82777c0.16861,-0.14088 0.33884,-0.27826 0.52679,-0.57874c0.77652,-1.35976 0.72818,-3.33685 -0.12296,-4.94332c-2.59375,-4.49669 -8.05945,-3.02644 -10.22311,0.91665c-2.16141,3.94189 -0.60413,8.2825 2.6185,11.39838l0,0z" fill="#F6D56B"></path>
   <path id="svg_88" d="m303.91595,104.2614c-1.94397,-0.1292 -3.77521,1.23524 -4.48886,3.26144c-0.02042,0.16135 -0.04028,0.32386 -0.04028,0.32386c0.79422,-2.67276 2.80859,-0.72606 2.99277,-2.17585l0,0c-0.04135,0.32328 0.2132,0.68806 0.84686,0.45715c-0.2959,-0.0456 -0.3829,-0.55009 -0.32114,-1.03415c0.18958,-0.30106 0.52628,-0.57816 0.84311,-0.69508c0.77975,-0.20811 1.77588,0.27008 2.4729,0.70385c-0.67712,-0.59454 -1.39621,-0.86695 -2.30536,-0.84122l0,0z" fill="#F6D56B"></path>
   <path id="svg_89" d="m303.91595,104.2614c-1.94397,-0.1292 -3.77521,1.23524 -4.48886,3.26144c-0.02042,0.16135 -0.04028,0.32386 -0.04028,0.32386c0.79422,-2.67276 2.80859,-0.72606 2.99277,-2.17585l0,0c-0.04135,0.32328 0.2132,0.68806 0.84686,0.45715c-0.2959,-0.0456 -0.3829,-0.55009 -0.32114,-1.03415c0.18958,-0.30106 0.52628,-0.57816 0.84311,-0.69508c0.77975,-0.20811 1.77588,0.27008 2.4729,0.70385c-0.67712,-0.59454 -1.39621,-0.86695 -2.30536,-0.84122l0,0z" fill="#F6D56B"></path>
   <path id="svg_90" d="m277.17285,111.71085c-1.73828,-1.7415 -4.29395,-1.79878 -5.38892,-0.3227c-1.241,1.45331 -0.93704,3.79868 0.81787,4.22953c0.5918,0.08768 1.37314,-0.12218 1.75067,-0.72138c0.3587,-0.43903 0.3136,-1.26565 -0.38559,-1.70058c0.72015,0.27184 0.74429,1.26155 0.36572,1.86253c-0.52631,0.57582 -1.16046,0.81023 -1.75064,0.71904c-1.62717,-0.24611 -2.3559,-2.81773 -0.92529,-4.57209c1.26251,-1.61523 3.9465,-1.37321 5.51617,0.50567l0,0l0,-0.00001l0,-0.00001z" fill="#F6D56B"></path>
   <path id="svg_91" d="m277.17285,111.71085c-1.73828,-1.7415 -4.29395,-1.79878 -5.38892,-0.3227c-1.241,1.45331 -0.93704,3.79868 0.81787,4.22953c0.5918,0.08768 1.37314,-0.12218 1.75067,-0.72138c0.3587,-0.43903 0.3136,-1.26565 -0.38559,-1.70058c0.72015,0.27184 0.74429,1.26155 0.36572,1.86253c-0.52631,0.57582 -1.16046,0.81023 -1.75064,0.71904c-1.62717,-0.24611 -2.3559,-2.81773 -0.92529,-4.57209c1.26251,-1.61523 3.9465,-1.37321 5.51617,0.50567l0,0l0,-0.00001l0,-0.00001z" fill="#F6D56B"></path>
   <path id="svg_92" d="m326.99237,112.97124c6.99884,3.5555 15.4213,0.46066 17.53979,-5.66821c1.90802,-5.95408 -1.35809,-13.31176 -7.40482,-12.35477c-2.1647,0.50333 -4.11459,2.28984 -4.75037,4.27512c-0.47314,2.21677 0.12564,5.01171 2.7511,5.40748c-2.46387,-0.16427 -3.38586,-3.42396 -2.7511,-5.40748c0.71207,-2.59676 2.8252,-4.1506 4.77661,-4.47973c5.32449,-1.27616 10.16782,5.69978 7.73035,12.81895c-2.43909,7.1215 -10.94437,9.37276 -17.89157,5.40865l0,0l0,-0.00002l0,0.00001z" fill="#F6D56B"></path>
   <path id="svg_93" d="m326.99237,112.97124c6.99884,3.5555 15.4213,0.46066 17.53979,-5.66821c1.90802,-5.95408 -1.35809,-13.31176 -7.40482,-12.35477c-2.1647,0.50333 -4.11459,2.28984 -4.75037,4.27512c-0.47314,2.21677 0.12564,5.01171 2.7511,5.40748c-2.46387,-0.16427 -3.38586,-3.42396 -2.7511,-5.40748c0.71207,-2.59676 2.8252,-4.1506 4.77661,-4.47973c5.32449,-1.27616 10.16782,5.69978 7.73035,12.81895c-2.43909,7.1215 -10.94437,9.37276 -17.89157,5.40865l0,0l0,-0.00002l0,0.00001z" fill="#F6D56B"></path>
   <path id="svg_94" d="m325.75833,112.16041c3.56573,1.99522 7.38977,0.49398 8.6915,-2.22145c1.14114,-2.94752 0.03275,-6.23701 -3.25858,-5.90321c-1.1524,0.03391 -2.19208,0.70794 -2.5116,1.70058c-0.50479,0.96341 -0.12512,2.47692 1.18677,2.67509c-1.31189,-0.19817 -1.69156,-1.71169 -1.37314,-2.70316c0.53058,-1.16918 1.75925,-1.81456 2.72372,-1.87712c2.72696,-0.41798 5.17624,2.86275 3.60815,6.16336c-0.31677,0.99264 -0.98431,1.72279 -1.83868,2.42489c1.41608,-0.61674 1.94717,-1.78477 2.50623,-3.15446c0.07733,-0.6144 0.69113,-0.93768 0.82858,-0.50158c-0.02682,0.20578 -0.05423,0.40922 -0.07999,0.61265c-0.26532,0.58577 -0.74377,1.34516 -1.38498,1.87187c-0.66641,0.73132 -1.49399,1.22941 -2.67215,1.46908c1.17761,-0.23967 2.40576,-0.88623 3.28595,-1.79177c1.09277,-1.08325 1.4639,-2.48277 0.90164,-2.56987c0.26691,-0.58224 1.3645,-0.20987 1.49933,0.22681l0,0c-0.19061,-1.48486 1.33499,-1.46147 2.20819,-3.82616c0.5322,-1.16685 0.17825,-2.88496 -0.44202,-4.01849c2.61578,4.97137 0.78674,10.31221 -2.90091,12.2513c-3.12323,2.02327 -7.97461,1.08149 -10.97809,-0.82837l0,0l0.00003,0l0.00003,0.00001z" fill="#F6D56B"></path>
   <path id="svg_95" d="m325.75833,112.16041c3.56573,1.99522 7.38977,0.49398 8.6915,-2.22145c1.14114,-2.94752 0.03275,-6.23701 -3.25858,-5.90321c-1.1524,0.03391 -2.19208,0.70794 -2.5116,1.70058c-0.50479,0.96341 -0.12512,2.47692 1.18677,2.67509c-1.31189,-0.19817 -1.69156,-1.71169 -1.37314,-2.70316c0.53058,-1.16918 1.75925,-1.81456 2.72372,-1.87712c2.72696,-0.41798 5.17624,2.86275 3.60815,6.16336c-0.31677,0.99264 -0.98431,1.72279 -1.83868,2.42489c1.41608,-0.61674 1.94717,-1.78477 2.50623,-3.15446c0.07733,-0.6144 0.69113,-0.93768 0.82858,-0.50158c-0.02682,0.20578 -0.05423,0.40922 -0.07999,0.61265c-0.26532,0.58577 -0.74377,1.34516 -1.38498,1.87187c-0.66641,0.73132 -1.49399,1.22941 -2.67215,1.46908c1.17761,-0.23967 2.40576,-0.88623 3.28595,-1.79177c1.09277,-1.08325 1.4639,-2.48277 0.90164,-2.56987c0.26691,-0.58224 1.3645,-0.20987 1.49933,0.22681l0,0c-0.19061,-1.48486 1.33499,-1.46147 2.20819,-3.82616c0.5322,-1.16685 0.17825,-2.88496 -0.44202,-4.01849c2.61578,4.97137 0.78674,10.31221 -2.90091,12.2513c-3.12323,2.02327 -7.97461,1.08149 -10.97809,-0.82837l0,0l0.00003,0l0.00003,0.00001z" fill="#F6D56B"></path>
   <path id="svg_96" d="m358.86124,101.35596c6.03009,2.16124 10.31595,10.50748 6.61862,17.02275c-3.51202,6.54041 -11.14133,6.42643 -13.72971,1.25044c-0.91562,-1.80289 -1.35379,-4.36632 -0.12891,-6.46793c0.2395,-0.38174 0.47852,-0.76057 0.88019,-0.90845c-0.0881,-2.30096 1.53641,-4.55222 3.67798,-4.85387c2.32687,-0.27066 4.37018,1.70234 4.05655,4.1512c-0.20779,1.63393 -1.5675,3.30061 -3.25589,3.04456c1.31192,0.19819 2.62009,-1.05869 2.99115,-2.46056c0.65997,-2.18754 -0.76633,-4.48499 -3.04163,-4.62061c-2.27585,-0.13681 -4.30414,2.26178 -4.40134,4.53643c1.49344,-1.23115 3.84662,-1.70701 5.354,-0.02339c-1.72113,-1.50706 -4.07376,-1.0318 -5.38083,0.22682c-0.0253,0.20461 -0.05267,0.40746 0.10791,0.64189c0.08911,2.30096 2.10617,4.47797 4.59564,4.43938c3.96216,0.39053 7.55737,-5.30575 5.91089,-8.88404c-1.05084,-2.24075 -2.57816,-2.26237 -2.58026,-3.71801l0,0c-0.24222,0.37823 -0.85602,0.70268 -1.15457,0.03275c0.58914,-0.11926 0.20999,-1.63277 -1.21152,-2.47224c-2.79083,-2.08582 -6.96341,-0.84473 -9.2854,0.8839c-2.51266,1.70116 -3.76236,4.00854 -4.60971,6.16862c0.68521,-2.39216 1.9617,-4.90414 4.47223,-6.60355c2.2973,-1.52813 6.65677,-2.74059 10.11453,-1.38609l0,0l0.00003,0.00002l0.00003,-0.00002zm2.73984,2.49271c1.61371,2.3261 2.58676,5.17891 2.00946,8.21119c-0.55203,2.83002 -3.38153,5.52322 -6.24597,5.50568c-2.30215,0.06841 -4.55704,-1.7298 -4.83414,-4.05999c-0.13425,-0.4361 -0.08167,-0.84533 -0.05475,-1.04876c-0.21432,0.17596 -0.42804,0.35194 -0.66809,0.7319c-0.9838,1.7228 -0.92206,4.22837 0.15573,6.26625c3.2876,5.69685 10.21341,3.83258 12.95377,-1.16333c2.73981,-4.99359 0.76685,-10.49579 -3.31601,-14.44296l0,0l0,0.00002z" fill="#F6D56B"></path>
   <path id="svg_97" d="m358.86124,101.35596c6.03009,2.16124 10.31595,10.50748 6.61862,17.02275c-3.51202,6.54041 -11.14133,6.42643 -13.72971,1.25044c-0.91562,-1.80289 -1.35379,-4.36632 -0.12891,-6.46793c0.2395,-0.38174 0.47852,-0.76057 0.88019,-0.90845c-0.0881,-2.30096 1.53641,-4.55222 3.67798,-4.85387c2.32687,-0.27066 4.37018,1.70234 4.05655,4.1512c-0.20779,1.63393 -1.5675,3.30061 -3.25589,3.04456c1.31192,0.19819 2.62009,-1.05869 2.99115,-2.46056c0.65997,-2.18754 -0.76633,-4.48499 -3.04163,-4.62061c-2.27585,-0.13681 -4.30414,2.26178 -4.40134,4.53643c1.49344,-1.23115 3.84662,-1.70701 5.354,-0.02339c-1.72113,-1.50706 -4.07376,-1.0318 -5.38083,0.22682c-0.0253,0.20461 -0.05267,0.40746 0.10791,0.64189c0.08911,2.30096 2.10617,4.47797 4.59564,4.43938c3.96216,0.39053 7.55737,-5.30575 5.91089,-8.88404c-1.05084,-2.24075 -2.57816,-2.26237 -2.58026,-3.71801l0,0c-0.24222,0.37823 -0.85602,0.70268 -1.15457,0.03275c0.58914,-0.11926 0.20999,-1.63277 -1.21152,-2.47224c-2.79083,-2.08582 -6.96341,-0.84473 -9.2854,0.8839c-2.51266,1.70116 -3.76236,4.00854 -4.60971,6.16862c0.68521,-2.39216 1.9617,-4.90414 4.47223,-6.60355c2.2973,-1.52813 6.65677,-2.74059 10.11453,-1.38609l0,0l0.00003,0.00002l0.00003,-0.00002zm2.73984,2.49271c1.61371,2.3261 2.58676,5.17891 2.00946,8.21119c-0.55203,2.83002 -3.38153,5.52322 -6.24597,5.50568c-2.30215,0.06841 -4.55704,-1.7298 -4.83414,-4.05999c-0.13425,-0.4361 -0.08167,-0.84533 -0.05475,-1.04876c-0.21432,0.17596 -0.42804,0.35194 -0.66809,0.7319c-0.9838,1.7228 -0.92206,4.22837 0.15573,6.26625c3.2876,5.69685 10.21341,3.83258 12.95377,-1.16333c2.73981,-4.99359 0.76685,-10.49579 -3.31601,-14.44296l0,0l0,0.00002z" fill="#F6D56B"></path>
   <path id="svg_98" d="m328.16895,112.7333c2.46436,0.1637 4.78531,-1.56611 5.68909,-4.13248c0.02469,-0.20518 0.05154,-0.40921 0.05154,-0.40921c-1.00635,3.38538 -3.55771,0.91839 -3.79291,2.75518l0,0c0.05374,-0.40746 -0.27063,-0.87162 -1.07239,-0.577c0.37479,0.0573 0.48489,0.69743 0.40491,1.30949c-0.24008,0.37941 -0.66647,0.7319 -1.06598,0.87923c-0.98917,0.26541 -2.25006,-0.34023 -3.13507,-0.89091c0.8576,0.75238 1.76892,1.09962 2.92081,1.0657l0,0l0,-0.00001l0,0.00001z" fill="#F6D56B"></path>
   <path id="svg_99" d="m328.16895,112.7333c2.46436,0.1637 4.78531,-1.56611 5.68909,-4.13248c0.02469,-0.20518 0.05154,-0.40921 0.05154,-0.40921c-1.00635,3.38538 -3.55771,0.91839 -3.79291,2.75518l0,0c0.05374,-0.40746 -0.27063,-0.87162 -1.07239,-0.577c0.37479,0.0573 0.48489,0.69743 0.40491,1.30949c-0.24008,0.37941 -0.66647,0.7319 -1.06598,0.87923c-0.98917,0.26541 -2.25006,-0.34023 -3.13507,-0.89091c0.8576,0.75238 1.76892,1.09962 2.92081,1.0657l0,0l0,-0.00001l0,0.00001z" fill="#F6D56B"></path>
   <path id="svg_100" d="m362.05322,103.29507c2.20389,2.20449 5.4415,2.27932 6.82913,0.40862c1.57239,-1.84263 1.18735,-4.81177 -1.03641,-5.35836c-0.74969,-0.11224 -1.73938,0.15316 -2.21948,0.91371c-0.45322,0.55478 -0.39578,1.60353 0.48975,2.15364c-0.91235,-0.3455 -0.94296,-1.59827 -0.46341,-2.35883c0.66696,-0.73074 1.47034,-1.02596 2.21783,-0.91254c2.06268,0.31217 2.98526,3.57244 1.17285,5.7939c-1.59976,2.04665 -5.00067,1.74033 -6.99026,-0.64013l0,0l0,-0.00002l0,0.00001z" fill="#F6D56B"></path>
   <path id="svg_101" d="m362.05322,103.29507c2.20389,2.20449 5.4415,2.27932 6.82913,0.40862c1.57239,-1.84263 1.18735,-4.81177 -1.03641,-5.35836c-0.74969,-0.11224 -1.73938,0.15316 -2.21948,0.91371c-0.45322,0.55478 -0.39578,1.60353 0.48975,2.15364c-0.91235,-0.3455 -0.94296,-1.59827 -0.46341,-2.35883c0.66696,-0.73074 1.47034,-1.02596 2.21783,-0.91254c2.06268,0.31217 2.98526,3.57244 1.17285,5.7939c-1.59976,2.04665 -5.00067,1.74033 -6.99026,-0.64013l0,0l0,-0.00002l0,0.00001z" fill="#F6D56B"></path>
   <path id="svg_102" d="m302.23511,112.97124c-6.99777,3.5555 -15.42026,0.46066 -17.53769,-5.66821c-1.90906,-5.95408 1.35706,-13.31176 7.40433,-12.35477c2.16577,0.50333 4.11453,2.28984 4.74982,4.27512c0.47314,2.21677 -0.12454,5.01171 -2.7489,5.40748c2.46164,-0.16427 3.38474,-3.42396 2.7489,-5.40748c-0.71313,-2.59676 -2.82413,-4.1506 -4.7756,-4.47973c-5.32388,-1.27616 -10.16776,5.69978 -7.73074,12.81895c2.43967,7.1215 10.94418,9.37276 17.88989,5.40865l0,0l0,-0.00002l0,0.00001z" fill="#F6D56B"></path>
   <path id="svg_103" d="m302.23511,112.97124c-6.99777,3.5555 -15.42026,0.46066 -17.53769,-5.66821c-1.90906,-5.95408 1.35706,-13.31176 7.40433,-12.35477c2.16577,0.50333 4.11453,2.28984 4.74982,4.27512c0.47314,2.21677 -0.12454,5.01171 -2.7489,5.40748c2.46164,-0.16427 3.38474,-3.42396 2.7489,-5.40748c-0.71313,-2.59676 -2.82413,-4.1506 -4.7756,-4.47973c-5.32388,-1.27616 -10.16776,5.69978 -7.73074,12.81895c2.43967,7.1215 10.94418,9.37276 17.88989,5.40865l0,0l0,-0.00002l0,0.00001z" fill="#F6D56B"></path>
   <path id="svg_104" d="m303.47079,112.16041c-3.56577,1.99522 -7.38928,0.49398 -8.6915,-2.22145c-1.14066,-2.94752 -0.03223,-6.23701 3.25906,-5.90321c1.15192,0.03391 2.19156,0.70794 2.51111,1.70058c0.50479,0.96341 0.12564,2.47692 -1.18631,2.67509c1.31195,-0.19817 1.6911,-1.71169 1.37424,-2.70316c-0.53275,-1.16918 -1.76083,-1.81456 -2.72534,-1.87712c-2.72906,-0.41798 -5.17569,2.86275 -3.6076,6.16336c0.31683,0.99264 0.98383,1.72279 1.83765,2.42489c-1.41721,-0.61674 -1.94666,-1.78477 -2.50461,-3.15446c-0.0784,-0.6144 -0.69116,-0.93768 -0.82971,-0.50158c0.02695,0.20578 0.05374,0.40922 0.07895,0.61265c0.2659,0.58577 0.74484,1.34516 1.38611,1.87187c0.6658,0.73132 1.49451,1.22941 2.67157,1.46908c-1.17657,-0.23967 -2.40527,-0.88623 -3.28491,-1.79177c-1.09439,-1.08325 -1.46332,-2.48277 -0.90216,-2.56987c-0.26526,-0.58224 -1.36453,-0.20987 -1.49933,0.22681l0,0c0.19006,-1.48486 -1.33447,-1.46147 -2.20819,-3.82616c-0.53162,-1.16685 -0.17776,-2.88496 0.44144,-4.01849c-2.61575,4.97137 -0.78616,10.31221 2.90149,12.2513c3.12433,2.02327 7.97513,1.08149 10.97809,-0.82837l0,0l0,0l-0.00003,0.00001z" fill="#F6D56B"></path>
   <path id="svg_105" d="m303.47079,112.16041c-3.56577,1.99522 -7.38928,0.49398 -8.6915,-2.22145c-1.14066,-2.94752 -0.03223,-6.23701 3.25906,-5.90321c1.15192,0.03391 2.19156,0.70794 2.51111,1.70058c0.50479,0.96341 0.12564,2.47692 -1.18631,2.67509c1.31195,-0.19817 1.6911,-1.71169 1.37424,-2.70316c-0.53275,-1.16918 -1.76083,-1.81456 -2.72534,-1.87712c-2.72906,-0.41798 -5.17569,2.86275 -3.6076,6.16336c0.31683,0.99264 0.98383,1.72279 1.83765,2.42489c-1.41721,-0.61674 -1.94666,-1.78477 -2.50461,-3.15446c-0.0784,-0.6144 -0.69116,-0.93768 -0.82971,-0.50158c0.02695,0.20578 0.05374,0.40922 0.07895,0.61265c0.2659,0.58577 0.74484,1.34516 1.38611,1.87187c0.6658,0.73132 1.49451,1.22941 2.67157,1.46908c-1.17657,-0.23967 -2.40527,-0.88623 -3.28491,-1.79177c-1.09439,-1.08325 -1.46332,-2.48277 -0.90216,-2.56987c-0.26526,-0.58224 -1.36453,-0.20987 -1.49933,0.22681l0,0c0.19006,-1.48486 -1.33447,-1.46147 -2.20819,-3.82616c-0.53162,-1.16685 -0.17776,-2.88496 0.44144,-4.01849c-2.61575,4.97137 -0.78616,10.31221 2.90149,12.2513c3.12433,2.02327 7.97513,1.08149 10.97809,-0.82837l0,0l0,0l-0.00003,0.00001z" fill="#F6D56B"></path>
   <path id="svg_106" d="m270.36627,101.35596c3.45938,-1.3539 7.8183,-0.14204 10.11566,1.38374c2.5116,1.6994 3.78857,4.2114 4.47327,6.60355c-0.84741,-2.15948 -2.09756,-4.46745 -4.60916,-6.16862c-2.32364,-1.72865 -6.49515,-2.96973 -9.28595,-0.8839c-1.42151,0.84006 -1.80115,2.35297 -1.21152,2.47224c-0.2991,0.66994 -0.91345,0.34608 -1.15402,-0.03274l0,0c-0.00378,1.45563 -1.52997,1.47726 -2.58087,3.71801c-1.64755,3.57828 1.94989,9.27454 5.91031,8.88404c2.49066,0.03859 4.50607,-2.13844 4.59412,-4.43938c0.1611,-0.23384 0.13428,-0.43728 0.10794,-0.64189c-1.30545,-1.25803 -3.65811,-1.73389 -5.37869,-0.22681c1.50522,-1.68362 3.85901,-1.20776 5.35349,0.02338c-0.09778,-2.27466 -2.12497,-4.67324 -4.40134,-4.53645c-2.27585,0.13564 -3.70163,2.43307 -3.04218,4.62062c0.37213,1.40186 1.67978,2.65873 2.99222,2.46055c-1.68887,0.25606 -3.04913,-1.41061 -3.25644,-3.04456c-0.31253,-2.44827 1.72919,-4.42126 4.05713,-4.15118c2.1416,0.30164 3.76605,2.55292 3.67639,4.85387c0.40274,0.1479 0.64063,0.52613 0.88232,0.90846c1.22382,2.10219 0.78668,4.66504 -0.12894,6.46793c-2.59,5.17598 -10.21875,5.29057 -13.72974,-1.25045c-3.69891,-6.51353 0.58588,-14.85918 6.616,-17.02042l0,0l0,0.00002l0,-0.00002zm-2.7377,2.49271c-4.08344,3.94717 -6.05585,9.44878 -3.31766,14.44236c2.74146,4.99593 9.66672,6.8602 12.95377,1.16334c1.07886,-2.03728 1.13901,-4.54286 0.15576,-6.26624c-0.23898,-0.37999 -0.4549,-0.55595 -0.66806,-0.73193c0.02682,0.20345 0.07892,0.61266 -0.05588,1.04877c-0.27493,2.33018 -2.53036,4.12897 -4.83414,4.05997c-2.86282,0.01756 -5.69177,-2.67567 -6.24384,-5.50568c-0.57834,-3.03111 0.39523,-5.88451 2.01004,-8.21059l0,0l0,-0.00001z" fill="#F6D56B"></path>
   <path id="svg_107" d="m270.36627,101.35596c3.45938,-1.3539 7.8183,-0.14204 10.11566,1.38374c2.5116,1.6994 3.78857,4.2114 4.47327,6.60355c-0.84741,-2.15948 -2.09756,-4.46745 -4.60916,-6.16862c-2.32364,-1.72865 -6.49515,-2.96973 -9.28595,-0.8839c-1.42151,0.84006 -1.80115,2.35297 -1.21152,2.47224c-0.2991,0.66994 -0.91345,0.34608 -1.15402,-0.03274l0,0c-0.00378,1.45563 -1.52997,1.47726 -2.58087,3.71801c-1.64755,3.57828 1.94989,9.27454 5.91031,8.88404c2.49066,0.03859 4.50607,-2.13844 4.59412,-4.43938c0.1611,-0.23384 0.13428,-0.43728 0.10794,-0.64189c-1.30545,-1.25803 -3.65811,-1.73389 -5.37869,-0.22681c1.50522,-1.68362 3.85901,-1.20776 5.35349,0.02338c-0.09778,-2.27466 -2.12497,-4.67324 -4.40134,-4.53645c-2.27585,0.13564 -3.70163,2.43307 -3.04218,4.62062c0.37213,1.40186 1.67978,2.65873 2.99222,2.46055c-1.68887,0.25606 -3.04913,-1.41061 -3.25644,-3.04456c-0.31253,-2.44827 1.72919,-4.42126 4.05713,-4.15118c2.1416,0.30164 3.76605,2.55292 3.67639,4.85387c0.40274,0.1479 0.64063,0.52613 0.88232,0.90846c1.22382,2.10219 0.78668,4.66504 -0.12894,6.46793c-2.59,5.17598 -10.21875,5.29057 -13.72974,-1.25045c-3.69891,-6.51353 0.58588,-14.85918 6.616,-17.02042l0,0l0,0.00002l0,-0.00002zm-2.7377,2.49271c-4.08344,3.94717 -6.05585,9.44878 -3.31766,14.44236c2.74146,4.99593 9.66672,6.8602 12.95377,1.16334c1.07886,-2.03728 1.13901,-4.54286 0.15576,-6.26624c-0.23898,-0.37999 -0.4549,-0.55595 -0.66806,-0.73193c0.02682,0.20345 0.07892,0.61266 -0.05588,1.04877c-0.27493,2.33018 -2.53036,4.12897 -4.83414,4.05997c-2.86282,0.01756 -5.69177,-2.67567 -6.24384,-5.50568c-0.57834,-3.03111 0.39523,-5.88451 2.01004,-8.21059l0,0l0,-0.00001z" fill="#F6D56B"></path>
   <path id="svg_108" d="m301.05957,112.7333c-2.46271,0.1637 -4.78418,-1.56611 -5.68799,-4.13248c-0.02634,-0.20518 -0.05209,-0.40921 -0.05209,-0.40921c1.00745,3.38538 3.55881,0.91839 3.79291,2.75518l0,0c-0.05264,-0.40746 0.27011,-0.87162 1.07294,-0.577c-0.37482,0.0573 -0.48544,0.69743 -0.40649,1.30949c0.2406,0.37941 0.66696,0.7319 1.06815,0.87923c0.98862,0.26541 2.24896,-0.34023 3.13449,-0.89091c-0.85916,0.75238 -1.77051,1.09962 -2.92191,1.0657l0,0l0,-0.00001l0,0.00001z" fill="#F6D56B"></path>
   <path id="svg_109" d="m301.05957,112.7333c-2.46271,0.1637 -4.78418,-1.56611 -5.68799,-4.13248c-0.02634,-0.20518 -0.05209,-0.40921 -0.05209,-0.40921c1.00745,3.38538 3.55881,0.91839 3.79291,2.75518l0,0c-0.05264,-0.40746 0.27011,-0.87162 1.07294,-0.577c-0.37482,0.0573 -0.48544,0.69743 -0.40649,1.30949c0.2406,0.37941 0.66696,0.7319 1.06815,0.87923c0.98862,0.26541 2.24896,-0.34023 3.13449,-0.89091c-0.85916,0.75238 -1.77051,1.09962 -2.92191,1.0657l0,0l0,-0.00001l0,0.00001z" fill="#F6D56B"></path>
   <path id="svg_110" d="m267.17532,103.29507c-2.20337,2.20449 -5.4415,2.27932 -6.82809,0.40862c-1.57288,-1.84263 -1.18732,-4.81177 1.03592,-5.35836c0.74966,-0.11224 1.73935,0.15316 2.21838,0.91371c0.45538,0.55478 0.3974,1.60353 -0.48868,2.15364c0.9129,-0.3455 0.94406,-1.59827 0.46344,-2.35883c-0.66696,-0.73074 -1.46979,-1.02596 -2.21841,-0.91254c-2.06262,0.31217 -2.98468,3.57244 -1.17227,5.7939c1.60028,2.04665 5.00119,1.74033 6.98972,-0.64013l0,0l0,-0.00002l0,0.00001z" fill="#F6D56B"></path>
   <path id="svg_111" d="m267.17532,103.29507c-2.20337,2.20449 -5.4415,2.27932 -6.82809,0.40862c-1.57288,-1.84263 -1.18732,-4.81177 1.03592,-5.35836c0.74966,-0.11224 1.73935,0.15316 2.21838,0.91371c0.45538,0.55478 0.3974,1.60353 -0.48868,2.15364c0.9129,-0.3455 0.94406,-1.59827 0.46344,-2.35883c-0.66696,-0.73074 -1.46979,-1.02596 -2.21841,-0.91254c-2.06262,0.31217 -2.98468,3.57244 -1.17227,5.7939c1.60028,2.04665 5.00119,1.74033 6.98972,-0.64013l0,0l0,-0.00002l0,0.00001z" fill="#F6D56B"></path>
   <polygon id="svg_112" points="314.61480712890625,96.6406478881836 316.8380432128906,104.13921356201172 324.0769348144531,104.12401580810547 318.2122497558594,108.74346160888672 320.46124267578125,116.23208618164062 314.61480712890625,111.58808898925781 308.7673034667969,116.23208618164062 311.01788330078125,108.74346160888672 305.1537780761719,104.12401580810547 312.3921203613281,104.13921356201172 314.61480712890625,96.6406478881836 " fill="#F6D56B" clip-rule="evenodd" fill-rule="evenodd"></polygon>
   <path id="svg_113" d="m331.73038,117.45974c-5.33249,-3.97056 -6.39203,-5.75941 -5.37009,-10.72669c2.01004,1.95956 0.36462,5.00411 3.71558,7.66576c-2.79727,-2.62833 -1.29315,-5.63781 -3.45728,-7.61373c1.4032,1.01368 2.42834,0.2923 4.12103,2.76629c1.77051,2.59676 0.60147,5.00237 0.99075,7.90837l0,0z" fill="#F6D56B"></path>
   <path id="svg_114" d="m320.20456,110.77142c1.5675,-3.4222 2.49759,-4.17751 5.77341,-3.98634c-0.88821,1.32468 -3.05185,0.61733 -4.1554,2.78325c1.17175,-1.83855 3.29242,-1.22121 4.1618,-2.62716c-0.39789,0.8915 0.22879,1.42524 -1.02997,2.61079c-1.31567,1.25453 -3.00729,0.75588 -4.74985,1.21947l0,0l0,-0.00001z" fill="#F6D56B"></path>
   <path id="svg_115" d="m337.88666,103.55463c-6.35068,-1.65031 -8.33331,-1.32526 -11.27719,2.74816c2.74088,0.29173 3.86005,-2.97207 7.9902,-2.07882c-3.74033,-0.48228 -4.92978,2.664 -7.77539,2.23315c1.65292,0.44838 1.79144,1.73858 4.69293,1.46323c3.03464,-0.29404 4.01254,-2.78442 6.36945,-4.36574l0,0l0,0.00001l0,0.00001z" fill="#F6D56B"></path>
   <path id="svg_116" d="m327.43918,101.84995c0.30609,0.84182 -0.09885,1.78825 -0.91132,2.11504c-0.80771,0.30866 -1.71469,-0.10289 -2.02347,-0.96281c-0.30881,-0.84065 0.09882,-1.78885 0.9086,-2.1133c0.81036,-0.3268 1.71469,0.10522 2.02618,0.96107l0,0z" fill="#F6D56B" clip-rule="evenodd" fill-rule="evenodd"></path>
   <path id="svg_117" d="m297.49869,117.45974c5.33359,-3.97056 6.39148,-5.75941 5.37064,-10.72669c-2.01111,1.95956 -0.36462,5.00411 -3.71664,7.66576c2.79944,-2.62833 1.29205,-5.63781 3.45779,-7.61373c-1.40317,1.01368 -2.42886,0.2923 -4.12097,2.76629c-1.77002,2.59676 -0.60092,5.00237 -0.99081,7.90837l0,0z" fill="#F6D56B"></path>
   <path id="svg_118" d="m309.0256,110.77142c-1.56592,-3.4222 -2.49817,-4.17751 -5.77283,-3.98634c0.88818,1.32468 3.05182,0.61733 4.15536,2.78325c-1.17175,-1.83855 -3.29349,-1.22121 -4.1608,-2.62716c0.3974,0.8915 -0.23196,1.42524 1.0278,2.61079c1.31732,1.25453 3.00784,0.75588 4.75046,1.21947l0,0l0,-0.00001z" fill="#F6D56B"></path>
   <path id="svg_119" d="m291.34293,103.55463c6.35175,-1.65031 8.33493,-1.32526 11.27722,2.74816c-2.74091,0.29173 -3.86005,-2.97207 -7.99014,-2.07882c3.74023,-0.48228 4.92975,2.664 7.77695,2.23315c-1.65506,0.44838 -1.79361,1.73858 -4.694,1.46323c-3.03516,-0.29404 -4.01306,-2.78442 -6.37003,-4.36574l0,0l0,0.00001l0,0.00001z" fill="#F6D56B"></path>
   <path id="svg_120" d="m301.79208,101.84995c-0.30771,0.84182 0.09933,1.78825 0.90915,2.11504c0.81036,0.30866 1.71521,-0.10289 2.02402,-0.96281c0.30933,-0.84065 -0.09937,-1.78885 -0.90811,-2.1133c-0.80981,-0.3268 -1.71628,0.10522 -2.02505,0.96107l0,0z" fill="#F6D56B" clip-rule="evenodd" fill-rule="evenodd"></path>
   <polygon id="svg_121" points="314.6153564453125,99.30229949951172 316.2494812011719,104.81733703613281 321.5739440917969,104.80681610107422 317.2606506347656,108.20329284667969 318.916259765625,113.71249389648438 314.6153564453125,110.29672241210938 310.31390380859375,113.71249389648438 311.9684143066406,108.20329284667969 307.65460205078125,104.80681610107422 312.9790954589844,104.81733703613281 314.6153564453125,99.30229949951172 " fill="#F6D56B" clip-rule="evenodd" fill-rule="evenodd"></polygon>
  <title xmlns="">Lace</title></g>
  <path d="m222.60564,100.33001c-5.39963,0.26657 -10.13016,2.78325 -13.84145,3.94366c-0.94406,-0.0152 -1.90961,0.05087 -2.86868,-0.0152c-0.84151,-0.06138 -1.67496,-0.08184 -2.51375,-0.13562c-0.27603,-0.01579 -0.5542,0.00409 -0.83345,0.03274c-2.14696,-0.74068 -4.65373,-1.76196 -7.75227,-1.6468c-0.95964,-3.51223 -3.91533,-6.09262 -7.45586,-6.09262c-3.53781,0 -6.49191,2.57747 -7.45207,6.09262c-3.09911,-0.11692 -5.60693,0.9067 -7.75444,1.6468c-0.27924,-0.02865 -0.55687,-0.04852 -0.83237,-0.03274c-0.83934,0.05437 -1.67331,0.07424 -2.5132,0.13562c-0.95857,0.06606 -1.92467,0 -2.86873,0.0152c-3.71072,-1.16041 -8.44286,-3.67709 -13.84412,-3.94366c-7.5117,-0.3718 -13.78668,5.20229 -13.78668,5.20229l3.03679,-0.22099c0.47578,0.17889 1.01817,0.16486 1.41502,0.45774c0.7137,0.51736 1.27379,0.71787 2.04227,0.46066c0.15466,-0.05437 1.6046,0.895 1.5439,1.32937c-0.07785,0.54776 2.31291,2.24364 2.58516,2.39683c0.53218,0.30692 1.1116,0.41331 1.64755,0.04736c0.23628,-0.63371 0.67824,-1.30305 1.05736,-1.57138c0.61166,-0.43552 1.60458,0.64305 2.09381,1.42348c0.30397,0.10405 0.70454,0.83714 0.99722,1.10662c0.37268,0.34433 0.82378,0.60799 1.17444,0.97044c0.29483,0.29346 1.19324,0.43201 1.35756,0.39167c0.71638,0.60271 2.54329,-0.41389 2.29251,-2.46873c-0.036,-0.29755 -0.24596,-0.64423 -0.15036,-0.98329c0.4108,-0.10698 0.82431,-0.12101 1.23619,-0.16778c0.11868,-0.01285 0.83397,-0.00701 0.89894,-0.19466c0.10902,-0.31802 0.97093,-0.31217 1.21365,-0.70737c0.33348,-0.54484 0.13051,-1.87653 -0.24272,-1.36443c-0.39578,-0.17596 0.23036,-0.68981 0.48758,-0.50159c0.57138,0.42326 1.28131,0.30517 1.81993,0.79974c0.74162,0.67345 1.41986,1.71751 2.12764,2.52544c0.80174,0.91429 1.73294,1.08968 2.64854,0.90904c0.70938,-0.13914 1.04231,-0.52497 1.5267,-1.4457c-0.02365,-0.86227 1.02298,-0.5764 1.29259,-0.78218c0.2728,-0.21221 0.51714,-0.53373 0.75719,-0.85234c0.09398,-0.76757 0.52681,-0.32504 0.8157,-0.26891c0.24542,-0.45482 1.09444,-0.5583 1.43384,-0.83247c-0.11171,-0.73775 1.6411,0.07951 1.92357,0.15023c0.81999,0.2169 1.56966,0.75237 2.31288,1.39719c0.0999,-0.01402 0.21588,0.02805 0.33511,0.08475c1.04073,3.3655 3.93143,5.80502 7.37207,5.80502c3.44545,0 6.33617,-2.43951 7.37581,-5.8091c0.11975,-0.05261 0.23305,-0.0947 0.33351,-0.08067c0.74483,-0.64481 1.49181,-1.18029 2.31128,-1.39719c0.28247,-0.07072 2.03421,-0.88799 1.92464,-0.15023c0.33618,0.27417 1.18788,0.37766 1.43274,0.83247c0.28999,-0.05613 0.72499,-0.49924 0.81413,0.26891c0.24326,0.31861 0.48653,0.64013 0.75986,0.85234c0.26636,0.20578 1.31354,-0.08009 1.29045,0.78218c0.48491,0.92015 0.81947,1.30598 1.52832,1.4457c0.91507,0.18122 1.84625,0.00584 2.64908,-0.90904c0.70831,-0.80791 1.38441,-1.85199 2.12709,-2.52544c0.54131,-0.49458 1.24908,-0.37708 1.821,-0.79974c0.25723,-0.18765 0.88339,0.32621 0.48492,0.50159c-0.37268,-0.5121 -0.57356,0.8196 -0.23628,1.36443c0.23843,0.3952 1.10033,0.38934 1.21149,0.70737c0.06123,0.18764 0.77759,0.18182 0.89682,0.19466c0.41296,0.04677 0.82536,0.0608 1.23833,0.16778c0.09236,0.33907 -0.11597,0.68575 -0.15088,0.98329c-0.25131,2.05484 1.57506,3.07144 2.29251,2.46873c0.16377,0.04034 1.05951,-0.09821 1.35379,-0.39167c0.3539,-0.36245 0.80553,-0.62611 1.17821,-0.97044c0.28999,-0.26949 0.69275,-1.00257 0.99562,-1.10662c0.48921,-0.78043 1.48322,-1.85901 2.09486,-1.42348c0.37697,0.26833 0.81894,0.93768 1.05629,1.57138c0.53593,0.36596 1.11269,0.25956 1.64647,-0.04736c0.27333,-0.15318 2.66411,-1.84907 2.58786,-2.39683c-0.0623,-0.43436 1.38763,-1.38374 1.5439,-1.32937c0.76791,0.25664 1.32588,0.05669 2.04117,-0.46066c0.39688,-0.29288 0.93707,-0.27943 1.41394,-0.45774l3.03679,0.22099c-0.00104,0 -6.2771,-5.57409 -13.78934,-5.20229l0,0l0,0l0,0l0,0l0,0l0,0l0,0l0,0l0,0l0,0l0,0l0,0l0.00003,0l0.00002,0zm-80.00807,4.88778c-0.01126,0.00409 -0.01451,0.00409 -0.01878,0l0.01878,0l0,0zm27.14481,-0.44488c-0.20676,0.03333 0.00751,-0.11517 0.04509,0.03098c-0.02199,-0.00058 -0.03383,-0.01637 -0.04509,-0.03098zm35.1994,0c-0.01183,0.01462 -0.02576,0.03098 -0.04619,0.03098c0.03651,-0.14673 0.25131,0.00176 0.04619,-0.03098zm27.14639,0.44488l0,0l0.01665,0c-0.00322,0.00409 -0.01076,0.00409 -0.01665,0z" fill="#D29C45" clip-rule="evenodd" fill-rule="evenodd" id="Bat" class="svg_element" onclick="choose_color(Bat,0)"><title xmlns="">Bat</title></path>
  <text id="Name" x="150" y="111" font-family="'147-CAI978'" font-size="24.2" class="svg_element" onclick="choose_text(Name)">YOUR TEXT<title xmlns="">Name</title></text>
 </g>
</svg>
