<?xml version="1.0" encoding="utf-8"?>
<!-- Generator: Adobe Illustrator 16.0.0, SVG Export Plug-In . SVG Version: 6.00 Build 0)  -->
<!DOCTYPE svg PUBLIC "-//W3C//DTD SVG 1.1//EN" "http://www.w3.org/Graphics/SVG/1.1/DTD/svg11.dtd">
<svg version="1.1" id="Layer_1" xmlns="http://www.w3.org/2000/svg" xmlns:xlink="http://www.w3.org/1999/xlink" x="0px" y="0px"
	 width="380px" height="220px" viewBox="0 0 380 220" enable-background="new 0 0 380 220" xml:space="preserve">
<g id="Suit">
	<rect id="Suit_Color" x="1" y="58.753" fill="#333333" width="377.62" height="107.507"/>
	<path id="Sacks" fill-rule="evenodd" clip-rule="evenodd" fill="#FCFCFC" d="M200.257,146.335
		c-0.644-0.476-1.385-0.477-2.141-0.471c-0.488,0.004-1.004-0.074-1.003-0.733c0-0.482,0.369-0.806,0.783-0.788
		c1.129,0.047,1.6-0.572,2.063-1.506c0.591-1.189,1.781-1.63,3.074-1.67c1.394-0.042,2.449,0.544,2.63,2
		c0.175,1.425-0.578,2.32-2.014,2.588c-0.395,0.073-0.789,0.144-1.42,0.258c0.431,0.688,0.843,1.26,1.164,1.879
		c0.979,1.877,0.29,4.072-1.564,5.09c-1.775,0.976-4.143,0.466-5.095-1.1c-0.963-1.576-0.367-3.623,1.167-4.902
		c0.778-0.647,1.702-0.079,2.393-0.641 M230.946,142.825c0.207-0.506,0.485-1.149-0.139-1.453c-0.742-0.362-1.084,0.282-1.323,0.874
		c-0.709,1.767-1.503,3.509-2.07,5.322c-0.281,0.9-1.741,2.182-0.32,2.764c1.273,0.524,1.083-1.511,1.825-2.207
		c0.64,0.11,0.688,0.786,1.071,1.133c0.469,0.424,0.563,1.679,1.587,0.975c0.869-0.598,0.057-1.229-0.291-1.722
		c-0.469-0.669-0.587-1.125,0.244-1.59c0.504-0.284,1.196-0.697,0.582-1.417c-0.504-0.59-0.982,0-1.425,0.256
		c-0.288,0.168-0.527,0.441-1.079,0.242C230.065,144.917,230.516,143.874,230.946,142.825z M214.113,150.195
		c0.49-0.257,0.759-0.961,0.187-1.058c-2.038-0.349-0.545-1.326-0.474-2.047c0.062-0.627,0.977-1.715-0.285-1.701
		c-0.859,0.01-1.66-0.308-2.504-0.19c-1.421,0.196-2.689,1.87-2.532,3.456c0.182,1.855,1.426,1.865,2.832,1.607
		c0.319-0.059,0.658-0.009,0.728-0.009C212.931,150.439,213.55,150.492,214.113,150.195z M222.855,149.698
		c0.104-1.35-1.215-0.497-1.86-0.747c-0.182-0.07-0.414-0.005-0.604-0.067c-0.425-0.138-0.702-0.45-0.632-0.905
		c0.085-0.549,0.311-1.073,0.881-1.283c0.627-0.23,0.615,0.25,0.671,0.662c0.055,0.404,0.333,0.569,0.721,0.499
		c0.46-0.085,0.74-0.434,0.768-0.848c0.062-1.03-0.433-1.661-1.493-1.802c-1.521-0.201-3.038,1.081-3.229,2.743
		c-0.18,1.558,0.775,2.419,2.803,2.445C221.529,150.239,222.773,150.783,222.855,149.698z M239.854,149.185
		c0.217-0.467-0.869-4.439-1.321-4.656c-0.206-0.097-0.623-0.105-0.739,0.026c-0.725,0.828-1.177,1.822-1.377,2.892
		c-0.081,0.443,0.282,0.719,0.805,0.646c0.367-0.052,0.756-1.204,1.081-0.08c0.265,0.914-0.534,0.909-1.154,0.926
		c-0.689,0.017-1.575-0.014-1.443,0.931c0.105,0.758,0.992,0.464,1.512,0.534C238.775,150.399,239.43,150.089,239.854,149.185z
		 M200.288,146.339c-0.32,0.358-0.396,0.834-0.6,1.268c-0.135,0.285-0.325,0.553-0.678,0.756c-0.504,0.291-0.866,0.714-0.998,1.2
		s-0.033,1.034,0.384,1.574c0.661,0.854,1.625,0.969,2.531,0.333c1.07-0.752,1.459-1.768,0.766-2.98
		c-0.428-0.748-0.954-1.438-1.437-2.154C200.257,146.335,200.295,146.339,200.288,146.339z M203.891,143.734
		c0.283-0.312-0.044-0.713-0.319-0.814c-1.049-0.394-1.813,0.032-2.522,1.238C202.214,144.328,203.153,144.545,203.891,143.734z
		 M211.504,146.551c-0.874,0.076-1.249,0.709-1.341,1.513c-0.047,0.409-0.007,0.904,0.557,0.855
		c0.973-0.083,0.948-0.997,1.235-1.621C211.97,146.924,211.948,146.511,211.504,146.551z"/>
	<path id="Ryan" fill-rule="evenodd" clip-rule="evenodd" fill="#FDFDFD" d="M141.616,132.098c0.973-0.738,1.016-1.958,1.514-2.942
		c0.334-0.659-0.218-0.594-0.593-0.654c-0.468-0.075-0.763-0.328-0.653-0.822c0.097-0.436,0.466-0.747,0.872-0.754
		c1.22-0.02,2.452-0.035,3.659,0.111c0.866,0.107,1.438,0.727,1.593,1.644c0.197,1.166-0.106,2.181-1.023,2.928
		c-0.6,0.489-1.512,0.739-0.751,1.799c0.749,1.042,0.403,3.015,2.557,2.848c1.141-0.089,2.295-0.016,3.472-0.016
		c-0.803-1.294-0.432-4.047,0.625-5.006c0.274-0.25,0.565-0.402,0.914-0.244c0.354,0.162,0.436,0.484,0.351,0.847
		c-0.047,0.198-0.137,0.39-0.161,0.59c-0.092,0.728-1.277,1.707-0.404,2.034c1.153,0.434,1.244-1.098,1.676-1.877
		c0.196-0.354,0.284-0.771,0.497-1.113c0.268-0.43,0.67-0.737,1.196-0.434c0.421,0.242,0.414,0.664,0.251,1.078
		c-0.272,0.695-0.64,1.368-0.805,2.089c-0.181,0.787-1.637,1.767,0.392,2.374c0.703,0.21,0.047,1.136-0.419,1.11
		c-1.285-0.066-1.765,0.68-2.227,1.646c-0.555,1.163-1.538,1.732-2.827,1.573c-1.328-0.163-2.1-0.973-2.094-2.322
		c0.001-0.549-0.113-0.789-0.63-0.695c-2.299,0.415-2.895-1.223-3.516-2.861c-0.327-0.864-0.696-1.713-1.105-2.714
		c-0.877,1.032-1.049,2.205-1.539,3.222c-0.415,0.857-0.794,1.736-1.511,2.403c-1.268,1.183-2.701,1.622-4.288,0.754
		c-1.575-0.86-1.734-2.355-1.414-3.915c0.435-2.117,3.078-4.029,5.183-3.874c0.805,0.059,1.286,0.367,1.263,1.234 M166.78,135.555
		c0.236-0.347,0.095-0.82-0.195-0.846c-2.077-0.187-0.52-1.25-0.457-1.896c0.064-0.652,0.915-1.697-0.188-1.771
		c-0.87-0.057-1.781-0.32-2.68-0.172c-1.402,0.23-2.646,2.002-2.43,3.521c0.234,1.658,1.388,1.853,2.711,1.519
		c0.583-0.148,1.054,0.082,1.578,0.132C165.707,135.99,166.364,136.167,166.78,135.555z M171.801,131.668
		c-0.454,1.061-0.879,2.135-1.287,3.215c-0.174,0.458-0.264,0.982,0.339,1.201c0.567,0.203,0.88-0.247,1.125-0.651
		c0.21-0.344,0.305-0.755,0.492-1.115c0.405-0.779,0.464-2.281,1.615-1.87c0.766,0.273-0.226,1.376-0.41,2.104
		c-0.209,0.818-0.056,1.416,0.837,1.453c0.831,0.033,1.824,0.394,2.413-0.562c0.198-0.322-0.029-0.758-0.401-0.771
		c-1.592-0.059-0.732-0.904-0.528-1.538c0.573-1.782,0.007-2.473-1.818-2.189c-0.31,0.049-0.564,0.417-0.946,0.131
		C172.533,130.695,172.077,131.022,171.801,131.668z M141.671,132.14c-0.649,0.593-1.526,0.466-2.289,0.701
		c-1.121,0.347-1.928,0.974-2.331,2.087c-0.342,0.947-0.192,1.785,0.728,2.285c0.889,0.484,1.634,0.014,2.099-0.7
		c0.874-1.342,1.736-2.718,1.739-4.415C141.616,132.098,141.669,132.138,141.671,132.14z M146.316,129.384
		c0.009-0.382-0.241-0.804-0.529-0.758c-1.205,0.195-0.971,1.375-1.491,2.276C145.681,130.938,146.294,130.49,146.316,129.384z
		 M150.864,138.601c-0.137,0.341,0.12,0.734,0.448,0.818c1.194,0.307,1.456-0.63,1.95-1.58
		C152.264,137.869,151.321,137.463,150.864,138.601z M163.775,132.172c-0.87,0.158-1.211,0.825-1.298,1.621
		c-0.049,0.449,0.153,0.878,0.677,0.772c0.914-0.186,0.88-1.089,1.164-1.663C164.332,132.441,164.212,132.093,163.775,132.172z"/>
	<g id="Shirt">
		<path fill-rule="evenodd" clip-rule="evenodd" fill="#FEFEFE" d="M188.555,133.369c-0.135-0.368-0.244-0.749-0.408-1.105
			c-6.829-14.856-14.289-29.405-21.568-44.042c-0.77-1.547-0.669-2.093,1.014-2.686c4.501-1.588,8.939-3.355,13.376-5.12
			c0.893-0.355,1.396-0.333,2.067,0.455c1.315,1.539,3.007,2.145,4.936,1.112c0.633-0.34,1.073-0.275,1.681,0.037
			c1.855,0.956,3.519,0.391,4.786-1.062c0.756-0.866,1.29-1.044,2.388-0.6c4.678,1.892,9.396,3.692,14.13,5.439
			c1.173,0.433,1.41,0.792,0.819,1.999c-7.224,14.765-14.382,29.562-21.577,44.34c-0.309,0.636-0.37,1.507-1.271,1.729
			C188.663,133.805,188.637,133.566,188.555,133.369z"/>
		<path fill-rule="evenodd" clip-rule="evenodd" fill="#FDFDFD" d="M225.381,59.981c-1.865,3.686-3.73,7.371-5.735,11.331
			c-1.635-2.458-3.222-4.714-4.656-7.063c-0.684-1.12-1.268-1.399-2.572-0.891c-5.269,2.054-10.605,3.935-15.891,5.948
			c-1.022,0.39-1.788,0.47-2.452-0.514c-0.146-0.214-0.41-0.357-0.641-0.502c-0.714-0.449-1.644-0.903-2.315-0.524
			c-2.475,1.396-5.528-1.474-7.744,1.116c-0.677,0.79-1.296,0.668-2.141,0.349c-5.293-1.994-10.618-3.903-15.9-5.925
			c-1.098-0.421-1.646-0.301-2.275,0.738c-1.446,2.384-3.054,4.669-4.738,7.21c-2.02-3.883-3.945-7.586-5.871-11.288
			c0.251-1.264,1.286-0.77,1.971-0.776c5.049-0.053,10.097-0.029,15.146-0.029c17.806,0,35.61-0.008,53.417,0.028
			C223.803,59.191,224.938,58.662,225.381,59.981z"/>
		<path fill-rule="evenodd" clip-rule="evenodd" fill="#FAFAFA" d="M185.514,133.738c-0.47,0.318-0.812,0.846-1.454,0.055
			c-8.468-10.432-16.972-20.832-25.456-31.25c-0.104-0.126-0.069-0.364-0.119-0.68c0.925-0.131,1.193,0.626,1.584,1.065
			c7.214,8.098,14.405,16.214,21.609,24.318c0.402,0.452,0.872,0.848,1.31,1.268c0.688,0.083,0.601,0.821,0.983,1.161
			c0.503,1.267,2.046,1.736,2.391,3.125C186.331,133.341,186.027,133.633,185.514,133.738z"/>
		<path fill-rule="evenodd" clip-rule="evenodd" fill="#FAFAFA" d="M219.716,105.215c-6.281,7.628-12.269,15.489-18.971,22.784
			c-3.635,3.956-7.657,7.354-11.867,10.601c-0.771,0.594-0.777,0.587-2.129,0.837c8.813-7.922,16.257-16.897,24.034-25.561
			c2.778-3.094,5.577-6.17,8.365-9.253C219.634,104.535,219.827,104.729,219.716,105.215z"/>
		<path fill-rule="evenodd" clip-rule="evenodd" fill="#030303" d="M225.381,59.981c-0.34-0.955-1.159-0.533-1.753-0.534
			c-23.138-0.023-46.277-0.023-69.415-0.001c-0.597,0-1.41-0.423-1.765,0.521c-0.631-0.761-1.472-0.782-2.387-0.832
			c-2.224-0.12-4.479,0.438-6.671-0.311c3.62-0.024,7.239-0.069,10.859-0.07c26.785-0.003,53.569,0.001,80.354,0.007
			c0.612,0,1.227,0.041,1.841,0.062c-2.877,0.733-5.803,0.18-8.704,0.32C226.839,59.187,225.968,59.13,225.381,59.981z"/>
		<path fill-rule="evenodd" clip-rule="evenodd" fill="#FCFCFC" d="M188.949,152.496c-1.918,0.007-3.491-1.597-3.468-3.533
			c0.022-1.867,1.501-3.377,3.357-3.427c1.903-0.052,3.58,1.536,3.61,3.422C192.479,150.843,190.851,152.487,188.949,152.496z"/>
		<path fill-rule="evenodd" clip-rule="evenodd" fill="#E9E9E9" d="M181.568,161.225c-0.32-0.005-0.642-0.009-0.962-0.014
			c0.041-6.272,0.081-12.545,0.122-18.818c0.423-0.185,0.594,0.103,0.756,0.404C181.512,148.939,181.54,155.082,181.568,161.225z"/>
		<path fill-rule="evenodd" clip-rule="evenodd" fill="#EDEDED" d="M181.484,142.797c-0.252-0.136-0.504-0.269-0.756-0.404
			c2.608-3.008,5.218-6.016,7.826-9.023c0.124,0.165,0.247,0.332,0.371,0.497c0,0.776-0.362,1.35-0.892,1.909
			C185.829,138.094,183.664,140.453,181.484,142.797z"/>
		<path fill-rule="evenodd" clip-rule="evenodd" fill="#050505" d="M183.971,129.676c-0.327-0.387-0.655-0.774-0.983-1.161
			c0.457-0.269,0.888-0.603,1.377-0.789c0.51-0.193,0.909,0.122,1.144,0.569c0.175,0.333,0.49,0.703,0.096,1.084
			c-0.383,0.367-0.708,0.102-1.057-0.122C184.062,128.948,184.023,129.342,183.971,129.676z"/>
		<path fill-rule="evenodd" clip-rule="evenodd" fill="#DAD9D9" d="M219.716,105.215c-0.188-0.197-0.379-0.396-0.567-0.592
			c0.662-0.947,1.249-1.971,2.632-2.556C221.584,103.64,220.508,104.337,219.716,105.215z"/>
		<path fill-rule="evenodd" clip-rule="evenodd" fill="#CDCBCB" d="M156.035,98.923c0.377,0.107,0.615,0.102,0.714,0.216
			c0.51,0.594,1.265,1.02,1.385,1.884c0.012,0.086-0.347,0.331-0.394,0.3C156.936,100.767,156.241,100.121,156.035,98.923z"/>
		<path fill-rule="evenodd" clip-rule="evenodd" fill="#D4D3D3" d="M222.038,101.977c0.073-1.275,0.778-1.592,1.399-1.989
			C223.56,100.947,223.073,101.479,222.038,101.977z"/>
		<path fill-rule="evenodd" clip-rule="evenodd" fill="#050505" d="M185.514,133.738c0.282-0.313,0.565-0.626,0.848-0.938
			c0.072,0.462,0.97,0.634,0.608,1.124C186.539,134.511,186.002,133.863,185.514,133.738z"/>
		<path fill-rule="evenodd" clip-rule="evenodd" fill="#D2D1D1" d="M226.674,96.688c-0.469,0.872-0.761,1.414-1.795,1.647
			C225.284,97.449,225.562,96.924,226.674,96.688z"/>
		<path fill-rule="evenodd" clip-rule="evenodd" fill="#040404" d="M189.08,89.032c1.588,0.015,2.881,1.271,2.891,2.811
			c0.01,1.57-1.488,3.016-3.046,2.939c-1.489-0.073-2.814-1.5-2.777-2.992C186.187,90.241,187.486,89.02,189.08,89.032z"/>
		<path fill-rule="evenodd" clip-rule="evenodd" fill="#050505" d="M189.146,100.48c1.578,0.047,2.844,1.35,2.812,2.892
			c-0.03,1.52-1.382,2.854-2.899,2.865c-1.586,0.012-2.986-1.46-2.906-3.054C186.232,101.62,187.548,100.431,189.146,100.48z"/>
		<path fill-rule="evenodd" clip-rule="evenodd" fill="#040404" d="M189.239,112.063c1.555-0.018,2.858,1.247,2.899,2.813
			c0.042,1.602-1.141,2.874-2.734,2.939c-1.68,0.069-3.033-1.222-3.015-2.873C186.408,113.382,187.694,112.082,189.239,112.063z"/>
	</g>
</g>
</svg>
