<?xml version="1.0" encoding="utf-8"?>
<!-- Generator: Adobe Illustrator 16.0.0, SVG Export Plug-In . SVG Version: 6.00 Build 0)  -->
<!DOCTYPE svg PUBLIC "-//W3C//DTD SVG 1.1//EN" "http://www.w3.org/Graphics/SVG/1.1/DTD/svg11.dtd">
<svg version="1.1" id="Layer_1" xmlns="http://www.w3.org/2000/svg" xmlns:xlink="http://www.w3.org/1999/xlink" x="0px" y="0px"
	 width="380px" height="220px" viewBox="0 0 380 220" enable-background="new 0 0 380 220" xml:space="preserve">
	 <g><g id="Background">
	 	<path fill="none" stroke="#000000" stroke-width="4" stroke-miterlimit="10" d="M190,177.35"/>
	 		<path fill="none" stroke="#000000" stroke-width="4" stroke-linejoin="round" stroke-miterlimit="10" d="M190,184.65
	 				c0-9.258-20.582-16.748-46.018-16.748"/>
	 					<path fill="none" stroke="#000000" stroke-width="4" stroke-linejoin="round" stroke-miterlimit="10" d="M190,184.65
	 							c0-9.258,20.582-16.748,46.017-16.748"/>
	 								<path fill="none" stroke="#000000" stroke-width="4" stroke-linejoin="round" stroke-miterlimit="10" d="M236.017,52.097
	 										c-25.435,0-46.017-7.49-46.017-16.748c0,9.258-20.582,16.748-46.018,16.748"/>
	 											<path fill="none" stroke="#000000" stroke-width="4" stroke-linejoin="round" stroke-miterlimit="10" d="M143.982,52.097
	 													c-15.982,0-28.916,12.934-28.916,28.916H2.622v57.973h112.444c0,15.982,12.934,28.916,28.916,28.916
	 															c25.436,0,46.018,7.49,46.018,16.748c0-9.258-20.582-16.748-46.018-16.748c-15.982,0-28.916-12.934-28.916-28.916H2.622V81.013
	 																	h112.444"/>
	 																		<path fill="none" stroke="#000000" stroke-width="4" stroke-linejoin="round" stroke-miterlimit="10" d="M236.017,52.097
	 																				c15.983,0,28.916,12.934,28.916,28.916h112.445v57.973H264.933c0,15.982-12.934,28.916-28.916,28.916
	 																						c-25.435,0-46.017,7.49-46.017,16.748c0-9.258,20.582-16.748,46.017-16.748c15.982,0,28.916-12.934,28.916-28.916h112.445V81.013
	 																								H264.933"/>
	 																								</g></g>
	 																								</svg>

