<?xml version="1.0" encoding="utf-8"?>
<!-- Generator: Adobe Illustrator 16.0.0, SVG Export Plug-In . SVG Version: 6.00 Build 0)  -->
<!DOCTYPE svg PUBLIC "-//W3C//DTD SVG 1.1//EN" "http://www.w3.org/Graphics/SVG/1.1/DTD/svg11.dtd">
<svg version="1.1" id="Layer_1" xmlns="http://www.w3.org/2000/svg" xmlns:xlink="http://www.w3.org/1999/xlink" x="0px" y="0px"
	 width="380px" height="220px" viewBox="0 0 380 220" enable-background="new 0 0 380 220" xml:space="preserve">
	 <g><path id="Background" fill="none" stroke="#000000" stroke-width="4" stroke-miterlimit="10" d="M265.165,80.923h112.794v58.152H265.165
	 	c0,8.569-8.258,15.504-18.464,15.504c0,7.465-25.36,13.504-56.701,13.504c-31.34,0-56.701-6.039-56.701-13.504
	 		c-10.205,0-18.464-6.935-18.464-15.504H2.041V80.923h112.794c0-8.568,8.259-15.503,18.464-15.503
	 			c0-7.464,25.361-13.503,56.701-13.503c31.341,0,56.701,6.039,56.701,13.503C256.907,65.42,265.165,72.354,265.165,80.923z"/></g>
	 			</svg>

