<?xml version="1.0" encoding="utf-8"?>
<!-- Generator: Adobe Illustrator 16.0.0, SVG Export Plug-In . SVG Version: 6.00 Build 0)  -->
<!DOCTYPE svg PUBLIC "-//W3C//DTD SVG 1.1//EN" "http://www.w3.org/Graphics/SVG/1.1/DTD/svg11.dtd">
<svg version="1.1" id="Layer_2" xmlns="http://www.w3.org/2000/svg" xmlns:xlink="http://www.w3.org/1999/xlink" x="0px" y="0px"
	 width="759px" height="439px" viewBox="0 0 759 439" style="enable-background:new 0 0 759 439;" xml:space="preserve">
<style type="text/css">
<![CDATA[
	.st0{fill:#4659A7;}
	.st1{fill:#7DA0D4;}
	.st2{fill:#7F5E26;}
	.st3{fill:#151943;}
	.st4{fill:#171719;}
	.st5{fill:#172919;}
	.st6{fill:#18331B;}
	.st7{fill:#E72834;}
	.st8{fill:#E7E9E9;}
	.st9{fill:#E8EAEA;}
	.st10{fill-rule:evenodd;clip-rule:evenodd;fill:none;stroke:#E4C54B;stroke-width:1.7463;stroke-miterlimit:10;}
	.st11{fill:#EAE71E;}
	.st12{fill:#EB185B;}
	.st13{fill:#EC2127;}
	.st14{fill:#503C2C;}
	.st15{fill:#507FC1;}
	.st16{fill:#542D8B;}
	.st17{fill:#8C6828;}
	.st18{fill:#BF2327;}
	.st19{fill:#231F20;}
	.st20{fill:#F7F3A3;}
	.st21{fill-rule:evenodd;clip-rule:evenodd;fill:none;stroke:#E4C54B;stroke-width:2.6195;stroke-miterlimit:10;}
	.st22{fill:#C2922E;}
	.st23{fill:#C597C5;}
	.st24{fill:#966828;}
	.st25{fill:#2B378B;}
	.st26{fill:#FAA532;}
	.st27{fill:#FBCA28;}
	.st28{fill:#FBCD36;}
	.st29{fill-rule:evenodd;clip-rule:evenodd;}
	.st30{fill:#FFFFFF;}
	.st31{fill-rule:evenodd;clip-rule:evenodd;fill:#F0CEE3;}
	.st32{fill:#FFFFFF;stroke:#7DA0D4;stroke-miterlimit:10;}
	.st33{fill:none;}
	.st34{fill:#231F20;stroke:#231F20;stroke-width:0.5;stroke-miterlimit:10;}
	.st35{fill:#679B9B;}
	.st36{fill:#9B732B;}
	.st37{fill:#CB7361;}
	.st38{fill:#CC2228;}
	.st39{fill:#311C10;}
	.st40{fill:#EC2127;stroke:#EC2127;stroke-width:0.5;stroke-miterlimit:10;}
	.st41{fill:#381414;}
	.st42{fill-rule:evenodd;clip-rule:evenodd;fill:#FBCDCD;}
	.st43{fill:#010101;}
	.st44{fill-rule:evenodd;clip-rule:evenodd;fill:#FFFFFF;}
	.st45{fill:#FFFFFF;stroke:#FFFFFF;stroke-miterlimit:10;}
	.st46{fill-rule:evenodd;clip-rule:evenodd;fill:#641E0F;}
	.st47{fill:#D3D3D3;}
	.st48{fill:#060707;}
	.st49{fill:#080908;}
	.st50{fill:#721212;}
	.st51{fill:#0E8141;}
	.st52{fill:#424143;}
	.st53{fill:#4259A8;}
]]>
</style>
<path id="XMLID_270_" class="st12" d="M759,152H472.2c-19.5-35.3-53.7-58.8-92.7-58.8c-39,0-73.2,23.4-92.7,58.8H0v135.5h286.8
	c19.5,35.3,53.7,58.8,92.7,58.8c39,0,73.2-23.4,92.7-58.8H759V152z"/>
<g id="XMLID_16_">
	<path id="XMLID_17_" class="st33" d="M344.7,194.6c-2.5,6.8-7.2,15.8-10.1,20.6c5.4,0.2,6,0.9,7.3-1c1.1-1.6,5.4-14.8,13.4-27.2
		C350.7,188.5,346.1,190.9,344.7,194.6z"/>
	<path id="XMLID_110_" class="st33" d="M387.8,251.9c2.5,0.5,5.3-0.2,8.5-1.9c-2,0.3-3.9,0.7-5.8,1.1
		C389.6,251.4,388.7,251.6,387.8,251.9z"/>
	<path id="XMLID_111_" class="st33" d="M390,237.6c-0.3,0-0.5,0-0.8,0c3.3,4.4,8.9,4.2,17.4,1.3c4-1.3,8.9-3.5,13.9-5.1
		c0.4-0.2,0.8-0.3,1.3-0.5l-3.9,0.1C409,235.3,395.7,237.5,390,237.6z"/>
	<path id="XMLID_114_" class="st30" d="M460,231.2c1.9-7.4-5.6-13.8-13.7-16.5c-8.3-2.7-37.2-7.9-42.9-7.9c-1.9-0.7-3.2-1.3-3.7-1.9
		c-0.6,0.2-4-6.4-4.4-8.6c-0.4-2.2,2.9-21.3,3.6-21.6c7.9-4,5.6-18.4,4.3-17.9c-1.3,0.5-4.3-0.6-6.6-1c-1.3-0.2-3.9-0.2-6.3-0.1
		c-0.7-0.2-1.4-0.4-2.3-0.7c-4.5-1.3-8-2.9-10.9-8.5c-1-2.7-1.8-5.8-2-6.3c-0.3-1.1-0.2-1.9,1.9-5.2c2.1-3.3,0.2-5-1.2-4.9
		c-1.4,0.1-1.4,0-1.8-1.2c-0.4-1.2-1.5-0.7-1.7-0.3c-0.2,0.4-0.1-0.6-0.4-1.4c-0.4-0.8-1.2-0.6-1.6,0c-0.5,0.5-1.1,0.5-1,0.1
		s0.4-3.5-0.2-3.7c-0.5-0.2-3.6,1.1-5.3,2c-1.8,0.9-2.8-0.4-4-1.3c-1.2-0.9-12.1-4-17.9,4.9c-4.3,6.5-3,10.9-2.8,12.9
		c0.4,4.1,1.3,8.2-0.5,10.2c-2.2,2.5-5.6,6.1-8.5,9c-6.7,6.9-2.2,12.3-6.4,14.8c-2.6,1.5-6.7,1.3-8,1.4c-0.8,0.1-2.9-0.7,2,1.1
		c6.4,2.4,9.9,1.9,13.5,1.4s5.8,0.5,2.8,1.8c-2.9,1.3-5.3,4.9-8.9,6.5c-3.7,1.6-8.2,0.6-2.7,1.5c5.5,0.9,7.8-1.1,10.8-2.5
		c3-1.4,3.2-0.2,2.4,1.1c-6.2,9.3-9.9,20.6-12.2,28.8c-1.4,0.7-2.4,1.5-3.1,2.1c-1.7,1.3-1.9,2.3,1.8,2.9c-0.8,3.2-1.3,5.5-1.7,6.1
		c-1.1,2.3-1.8,1.3-8.8,2.3s-10.3,4.3-11.9,6c-1.6,1.7-1.6,2.7,3.5,2.5c5.1-0.2,5.7-0.5,7.6-1.2c2-0.7,4.5-1,4.5-0.7
		c0,0.3-0.3,0.8-2.7,2.6c-2.5,1.9-1,3.4,1.5,2.6c2.5-0.8,3.8-3.2,8-4.9c4.2-1.7,5.2-5.2,5.3-8.3c0.1-1.8,1.2-4.3,2.6-6.8
		c0.3-0.1,0.6-0.1,1-0.2c2-0.4,4.6-0.3,4.5,0c-0.1,0.3-0.4,0.7-3.1,2.2c-2.7,1.5-1.5,3.2,1.1,2.8c2.6-0.4,4.3-2.6,8.6-3.6
		c4.4-1,5.9-4.3,6.5-7.5c0.6-3.1,4.5-7.7,7.5-11c2.6-2.8,8.4-10.6,12.7-17.4c3.3,4.7,8.6,13.1,8.3,14.6c-0.5,2-12.7,12.2-5.5,26.3
		c2.1,4.1,6.1,6.5,10.3,7.7c-1.3,0.8-2.1,2-2.2,2.9c-0.1,2.5-0.4,6.2-2.8,7.8c-2.4,1.6-6.1,1.7-8.5,4.9c-2.4,3.2-2.7,9-0.1,11
		c2.7,2,2.8-0.6,2.7-2.1c-0.1-1.5,2-3.9,3.4-4.3c0.7-0.2,1.3-0.4,1.9-0.6c0.5,2.3,0.9,5.2-0.7,7.2c-1.8,2.3-5.4,3.4-6.8,7.1
		c-1.4,3.8,0,9.4,3.1,10.6c3.1,1.1,2.5-1.4,2-2.8c-0.5-1.4,0.8-4.3,2-5.1c7.5-5.2,9.1-7.3,13.8-10c10.5-6.1,26.8-11.5,38.9-14.9
		c3.9,0,7.5,0.1,10.5,0.3c12.4,0.6,15.1-1.1,18.3-6.1C460.2,238.1,460.8,234.4,460,231.2z M341.9,214.2c-1.3,1.9-1.9,1.2-7.3,1
		c2.9-4.8,7.6-13.9,10.1-20.6c1.4-3.7,6-6.1,10.6-7.6C347.4,199.4,343.1,212.6,341.9,214.2z M387.8,251.9c0.9-0.3,1.8-0.5,2.8-0.8
		c1.8-0.4,3.7-0.8,5.8-1.1C393.1,251.7,390.3,252.4,387.8,251.9z M420.6,233.8c-5,1.6-9.9,3.7-13.9,5.1c-8.6,2.9-14.1,3-17.4-1.3
		c0.3,0,0.6,0,0.8,0c5.6-0.1,19-2.3,27.9-4.2l3.9-0.1C421.4,233.5,421,233.7,420.6,233.8z"/>
</g>
<g id="XMLID_9356_">
	<path id="XMLID_9357_" class="st45" d="M323.9,288.1c-1.4,1.3-3.5,1.8-6.1,1.4c-4-0.5-7.3-2.1-9.8-4.9c-0.3-0.3-0.5-0.6-0.6-0.7
		c-0.8-1-1.1-2-1.1-3c0.1-1,0.5-2,1.4-2.8c0.9-0.8,2.1-1.4,3.5-1.9c1.8-0.6,4.2-0.6,7,0.1c3.2,0.7,5.7,2.2,7.6,4.3
		c1,1.1,1.6,2.2,1.7,3.2c0.1,1-0.2,1.8-0.9,2.4c-0.4,0.4-1.1,0.7-2,0.9C324.5,287.5,324.2,287.9,323.9,288.1z M325,286.5
		c0.4-0.1,0.7-0.3,1.1-0.6c0.3-0.3,0.6-0.7,0.7-1.3c0.2-1.1-0.2-2.3-1.3-3.5c-1.5-1.7-3.5-2.9-6-3.5c-2.4-0.6-4.9-0.6-7.2,0
		c-1.7,0.4-3.1,1-4,1.9c-1.5,1.3-1.6,2.8-0.4,4.4c0.1,0.2,0.3,0.3,0.4,0.5c2,2.3,4.8,3.6,8.5,4c2.6,0.3,4.6,0,5.8-0.9
		c-1.2,0-2.9-0.4-5.1-1l-0.2-0.1c0,0,0,0,0,0c0,0,0.3,0,0.9,0.1l1.6,0.3c1.5,0.2,2.6,0.3,3.4,0.2c0.6-0.7,0.8-1.4,0.8-2.3
		c0-0.9-0.2-1.7-0.6-2.5c-0.2-0.4-0.6-0.9-1.2-1.6c-0.6-0.7-0.8-1-0.8-1.1c0,0,0.1,0,0.1,0c0.6,0.4,1.2,0.8,1.6,1.3
		c0.4,0.5,0.9,1.1,1.3,1.9C325.3,283.9,325.5,285.2,325,286.5z"/>
	<path id="XMLID_9360_" class="st45" d="M327.6,291.7c0.3,0.3,0.4,0.5,0.2,0.8c-0.1,0.1-0.1,0.1-0.2,0.2c-2.3,0.7-3.8,1.3-4.6,1.9
		c5-0.7,7.8-0.7,8.4-0.3c0.1,0,0.1,0.1,0.2,0.1c0.3,0.3,0.4,0.5,0.2,0.8c0,0.1-0.1,0.1-0.2,0.2c-0.1,0-0.6,0.2-1.5,0.4
		c-1,0.2-1.9,0.5-2.8,0.8c-0.8,0.3-1.4,0.6-1.7,1c-0.3,0.4-0.4,0.6-0.2,0.8c0.5,0.4,2,0.4,4.5-0.1c0,0,0.1,0,0.3-0.1
		c0.4-0.1,0.5-0.1,0.6-0.1c0,0,0,0.1-0.1,0.2c-0.1,0.1-0.3,0.2-0.6,0.3c-2.8,0.6-4.6,0.6-5.2,0.1c-0.6-0.5-0.6-1-0.1-1.7
		c0.5-0.7,1.3-1.2,2.5-1.7l2.6-1c-1.3,0-2.5,0.1-3.7,0.3c-1.2,0.2-2.3,0.5-3.4,0.8c-1.1,0.3-1.6,0.4-1.7,0.3
		c-0.2-0.1-0.3-0.3-0.3-0.6c0-0.2,0.1-0.5,0.3-0.7c0.2-0.2,0.5-0.5,0.9-0.7c0.4-0.3,1-0.6,1.7-0.9l-2,0.3c-0.5,0.1-0.7,0.1-0.8,0
		c-0.1-0.1-0.1-0.1,0-0.2c0.1-0.1,0.2-0.1,0.3-0.2c0.8-0.1,1.5-0.2,2.2-0.4c0.6-0.2,1.9-0.5,3.8-0.9
		C327.3,291.6,327.5,291.6,327.6,291.7z"/>
	<path id="XMLID_9362_" class="st45" d="M330.8,303.3c-0.1-0.1-0.3-0.2-0.4-0.3c-0.7-0.7-0.8-1.5-0.4-2.2c0.6-0.9,1.8-1.6,3.7-2.1
		c1.9-0.5,3.3-0.5,4.2,0.1c0.3,0.2,0.5,0.4,0.6,0.7c0.1,0.3,0.1,0.5-0.1,0.8c-0.4,0.7-1.4,1.1-2.9,1.1c-1.5,0-2.6-0.2-3.3-0.6
		c-0.1-0.1-0.2-0.1-0.3-0.2c-0.4,0.2-0.7,0.6-1,0.9c-0.4,0.7-0.3,1.2,0.4,1.6c0.7,0.4,1.8,0.5,3.3,0.2c1.2-0.2,2.3-0.4,3.3-0.8
		c0.2-0.1,0.4-0.1,0.4-0.1c0.1,0.1,0.1,0.1,0.1,0.2c0,0.1-0.2,0.2-0.4,0.2c-1.3,0.5-2.6,0.8-4.1,0.9
		C332.6,303.8,331.5,303.7,330.8,303.3z M337.9,299.8c0.1-0.2,0-0.3-0.4-0.5c-0.3-0.2-1-0.2-1.9-0.1c-1.2,0.2-2.3,0.5-3.2,1
		c0.1,0.1,0.1,0.1,0.2,0.2c0.5,0.3,1.3,0.4,2.5,0.4c1.2,0,2-0.3,2.6-0.8C337.9,299.9,337.9,299.9,337.9,299.8z"/>
	<path id="XMLID_9365_" class="st45" d="M367.1,303.3c-0.4,1.2-1.4,2.3-3,3.5c-1.3,0.9-2.8,1.6-4.4,1.8c-1.7,0.3-3.2,0.2-4.4-0.2
		c-0.5-0.1-0.8-0.3-1.1-0.5c-0.9,0.6-2.3,1.5-4.2,2.7c0.3,0.9,1,1.9,2.1,3c1.1,1.1,2.2,1.8,3.1,2.1c1,0.3,1.7,0.4,2.3,0.3
		c0.8-0.1,1.2-0.5,1.4-1.1c0.1-0.2,0.1-0.3,0.1-0.5s0.1-0.2,0.2-0.2c0.1,0,0.2,0.2,0.2,0.4c0,0.2,0,0.4,0,0.6
		c-0.2,0.5-0.6,0.9-1.3,1.2c-0.9,0.3-1.9,0.3-3.1-0.1s-2.3-1.1-3.4-2c-1.1-1-1.9-2.1-2.4-3.3c-1.5,0.8-2.8,1-3.9,0.7
		c-0.3-0.1-0.6-0.3-0.8-0.4c-0.4-0.5-0.5-1.1-0.2-1.9c0.3-0.8,0.9-1.7,2-2.7c1.1-1,1.8-1.4,2.2-1.4c0.3,0.1,0.5,0.5,0.6,1.2l0.5,3.1
		c1.1-0.8,2.3-1.6,3.5-2.6c-1-0.9-1.4-1.9-1-2.9c0.3-0.8,0.8-1.4,1.7-1.7c0.5-0.2,0.9-0.2,1.3,0c0.4,0.1,0.7,0.5,0.8,1
		c0,0.1,0,0.2,0,0.2c0,0-0.1,0-0.1,0c-0.2-0.4-0.5-0.6-0.8-0.7c0,0,0,0,0,0c-0.4-0.1-0.9,0-1.3,0.3c-0.5,0.4-0.8,0.7-0.9,1.1
		c0,0,0,0.1,0,0.1c-0.2,0.8,0.1,1.6,0.9,2.5c0.3-0.2,0.7-0.5,1.2-1c0.6-0.5,1-0.8,1.3-1.1c4.3-3.3,7.4-4.7,9.3-4
		C367.1,301.2,367.5,302,367.1,303.3z M349,310.2c-0.2-0.6-0.4-1.3-0.5-2.2c-0.1-0.9-0.2-1.4-0.3-1.6c-0.1-0.2-0.1-0.3-0.2-0.3
		c0,0-0.1,0-0.1,0c-0.3,0-0.7,0.3-1.3,1.1c-0.6,0.8-1,1.6-1.3,2.5c-0.3,0.9-0.2,1.4,0.4,1.5c0.4,0.1,0.9,0.1,1.6-0.1
		C347.9,310.8,348.5,310.5,349,310.2z M365.7,301.1c-0.7-0.2-1.8,0.1-3.3,1c-1,0.6-2.3,1.5-3.7,2.6c-1.5,1.1-2.8,2.1-3.9,2.9
		c0.2,0.1,0.4,0.2,0.6,0.3c1,0.3,2.3,0.4,3.8,0.1c1.5-0.3,2.9-0.8,4-1.6c1.9-1.4,3-2.6,3.4-3.6c0.2-0.6,0.1-1-0.4-1.4
		C366,301.3,365.8,301.2,365.7,301.1z"/>
	<path id="XMLID_9369_" class="st45" d="M370.5,309.6l0.3,0c0.2,0,0.3,0.1,0.4,0.3c0.1,0.2,0.2,0.3,0.2,0.4c0,0.1-0.6,0.7-1.7,2
		c-1.1,1.3-1.7,2.2-1.8,2.7c0,0,0,0.1,0,0.1c0,0.4,0.2,0.6,0.4,0.6c0.8,0.1,2.4-1,4.9-3.3c0.1-0.1,0.1-0.1,0.2-0.1
		c0.1,0,0.1,0.1,0.1,0.2c0,0.1-0.1,0.3-0.3,0.4c-2.3,2.3-4,3.4-5,3.3c-0.1,0-0.3-0.1-0.4-0.1c-0.6-0.4-0.9-0.9-0.8-1.6
		c0-0.3,0.1-0.5,0.2-0.8l-1.6,1.2c-1,0.7-1.7,1-2.1,0.9c-0.4-0.1-0.8-0.2-1.1-0.5c-0.4-0.4-0.5-0.8-0.4-1.3c0.2-1.1,1.1-2.3,2.9-3.6
		c1.8-1.3,3.3-1.9,4.6-1.7c0.5,0.1,0.8,0.3,0.9,0.7c0,0.1,0.1,0.2,0.1,0.3C370.4,309.6,370.4,309.6,370.5,309.6z M362.9,314.3
		c-0.1,0.5,0.1,0.8,0.5,0.9c0.9,0.1,2.2-0.7,4-2.4l2.9-3c-0.1-0.2-0.3-0.4-0.5-0.4c-0.9-0.1-2.3,0.4-4,1.6
		C363.9,312.2,363,313.3,362.9,314.3z"/>
	<path id="XMLID_9372_" class="st45" d="M378.5,316.6c-0.4,0.3-1,0.4-1.6,0.4c-0.7,0-1.1-0.2-1.5-0.7c-0.3-0.4-0.6-1.1-0.9-2.1
		c-0.3,0.3-0.5,0.4-0.6,0.4c-0.1,0-0.1-0.1-0.1-0.2c0-0.1,0-0.2,0.1-0.3c0.5-0.6,1.4-1.5,2.6-2.7l2.9-2.7c0.8-0.8,1.3-1.2,1.5-1.2
		c0.5,0,0.7,0.2,0.7,0.6c0,0.2-0.1,0.4-0.2,0.5c-0.1,0.2-0.3,0.3-0.3,0.4c-0.1,0.1-0.1,0.2-0.2,0.3c-0.3,0.5-0.6,1.5-0.9,2.9
		c-0.3,1.5-0.5,2.5-0.7,3.1c1.3,0,2.6-0.8,4-2.4c0.2-0.2,0.3-0.2,0.3-0.2s0.1,0.1,0.1,0.2c0,0.1-0.1,0.2-0.2,0.4
		c-0.9,1-1.7,1.8-2.5,2.2c-0.5,0.2-1.1,0.4-1.8,0.6L378.5,316.6z M375.5,314c0,0.5,0.2,0.9,0.5,1.3c0.3,0.3,0.7,0.5,1.2,0.5
		c0.4,0,0.8-0.1,1-0.2c0.3-0.2,0.6-0.9,0.9-2.1c0.3-1.2,0.5-2.3,0.6-3.3l0.1-0.8c-0.9,0.6-1.8,1.4-2.7,2.4c-1,1-1.5,1.6-1.5,2
		C375.5,313.8,375.5,313.9,375.5,314z"/>
	<path id="XMLID_9375_" class="st45" d="M390.6,308.8l3.3-0.4c0,0,0.1,0,0.1,0.1c0,0.1-0.9,0.4-2.8,0.9c-1.9,0.4-2.9,0.7-3,0.7
		c-0.3,0.3-0.7,1.1-1.4,2.5c-0.6,1.4-0.9,2.3-0.9,2.9c0.1,0.6,0.5,0.8,1.3,0.7c0.4,0,0.8-0.2,1.4-0.5c0.6-0.3,1-0.5,1.3-0.8
		c0.8-0.6,1.6-1.5,2.5-2.6c0.2-0.2,0.3-0.4,0.4-0.4c0,0,0.1,0,0.1,0.1c0,0.1-0.1,0.3-0.3,0.6c-0.7,1.1-1.5,1.9-2.4,2.6
		c-1.1,0.9-2.2,1.3-3.3,1.4c-0.5,0-0.9,0-1.2-0.2c-0.3-0.2-0.5-0.6-0.6-1.2c-0.1-0.6,0.1-1.5,0.6-2.7c0.4-1.1,0.8-2,1-2.6
		c-0.2,0.1-0.4,0.1-0.5,0.1c-0.4,0-0.7-0.1-0.7-0.5c0-0.3,0.1-0.5,0.5-0.6c0,0,0.1,0,0.2,0l1.3-0.1c0.2-0.4,0.5-0.8,0.8-1.3
		c0.4-0.6,0.6-0.9,0.8-0.9c0.2,0,0.3,0,0.6,0.1c0.2,0.1,0.4,0.2,0.4,0.4c0,0.2-0.3,0.7-0.9,1.6C389.4,309,389.9,308.9,390.6,308.8z"
		/>
	<path id="XMLID_9377_" class="st45" d="M411.3,311c-0.1,0.7-0.2,1.1-0.1,1.2c0.1,0.2,0.2,0.2,0.3,0.3c0,0-0.1,0.2-0.2,0.4
		c-0.2,0.2-0.5,0.4-0.9,0.6c-0.4,0.2-0.7,0.1-0.7-0.1c-0.1-0.4,0.1-1.9,0.7-4.5c0.6-2.6,1-4.4,1.1-5.4c0.3-2.1,0.2-3.7-0.2-4.7
		c-0.2-0.4-0.4-0.7-0.7-1c-0.4-0.4-1.1-0.4-2.1-0.1c-1.7,0.7-3.2,2.1-4.5,4.4c-1,1.8-1.6,3.4-1.9,5c-0.2,1.5-0.2,2.7,0.2,3.7
		c0.5,1.4,1.4,1.8,2.7,1.4c0.1,0,0.1,0,0.2-0.1c1.7-0.7,2.7-1.7,3.1-3.3c0.2-0.6,0.2-1.1,0-1.4c-0.1-0.3-0.3-0.5-0.5-0.5
		c0,0,0,0-0.1-0.1c0,0,0-0.1,0.1-0.1c0.4-0.1,0.7,0,0.8,0.5c0.1,0.3,0.1,0.8,0,1.4s-0.4,1.3-1,2.1c-0.6,0.7-1.3,1.3-2.3,1.7
		c-1,0.4-1.8,0.4-2.6,0c-0.8-0.3-1.3-1-1.7-1.9c-0.9-2.2-0.3-5.2,1.8-8.8c0.5-0.9,1.3-1.8,2.4-2.7c1.1-0.9,2.1-1.5,3.1-1.9
		s1.8-0.5,2.4-0.3c0.6,0.2,1,0.7,1.2,1.3c0.6,1.6,0.5,4.3-0.3,8.1c0.2-0.7,0.7-1.7,1.3-3c2.4-4.4,4.7-7.5,6.9-9.5
		c0.1-0.1,0.2-0.2,0.4-0.3c0.5-0.2,1,0,1.4,0.5c0.2,0.2,0,0.9-0.4,1.9c-1.1,2.5-1.8,5.1-2.2,7.8c-0.4,2.7-0.4,4.5,0,5.4
		c0.1,0.2,0.2,0.4,0.3,0.4c0.1,0.1,0.3,0,0.4-0.1s0.5-0.4,1-0.9c0.5-0.5,0.8-0.8,1-0.9c0.1,0,0.1,0,0.1,0.1c0.1,0.2-0.2,0.7-0.8,1.3
		c-0.6,0.7-1.1,1.1-1.5,1.2c-0.4,0.1-0.6,0.2-0.8,0.1c-0.4-0.3-0.7-0.7-0.9-1.2c-0.5-1.2-0.5-3.2-0.1-6.1c0.3-1.8,0.8-4.2,1.6-7.3
		c-1.8,0.9-3.7,3.4-5.6,7.4C412.6,306.3,411.6,309,411.3,311z"/>
	<path id="XMLID_9379_" class="st45" d="M426.3,304.4c-0.7,0.4-1.3,0.2-1.8-0.7c-0.4-0.7-0.7-1.9-0.7-3.6c0-1.7,0.2-2.7,0.7-3
		c0.1-0.1,0.3-0.1,0.5-0.1s0.4,0.1,0.4,0.2c0,0.1,0,0.3,0,0.4c0,0.2,0,0.3-0.1,0.5c0,0.2-0.1,0.5-0.1,0.8s-0.1,0.7-0.1,1
		c-0.2,1.9-0.1,3,0.2,3.5c0.3,0.5,0.6,0.6,0.9,0.4c0.3-0.2,0.6-0.6,0.8-1.1c0.7-1.4,1.1-2.6,1.2-3.8c0-0.4,0.1-0.7,0.2-0.7
		c0.1-0.1,0.2,0,0.2,0.1c0.1,0.1,0,0.4-0.1,0.9c-0.1,0.5-0.2,0.9-0.3,1.2c-0.1,0.3-0.1,0.5-0.1,0.6s-0.1,0.3-0.2,0.6
		c-0.1,0.3-0.1,0.5-0.2,0.6c-0.1,0.1-0.1,0.3-0.2,0.5c-0.1,0.2-0.2,0.4-0.3,0.6c-0.1,0.1-0.2,0.3-0.3,0.5
		C426.9,303.9,426.6,304.2,426.3,304.4z M425.4,293.9c0.3,0,0.4,0.1,0.5,0.3c0.1,0.2,0.1,0.4,0,0.6c-0.1,0.2-0.2,0.4-0.4,0.5
		c-0.2,0.1-0.4,0.2-0.7,0.1s-0.4-0.2-0.5-0.3c-0.2-0.4-0.1-0.7,0.4-1C424.9,293.9,425.1,293.8,425.4,293.9z"/>
	<path id="XMLID_9382_" class="st45" d="M433.9,290.1l0.2-0.3c0.2-0.1,0.3-0.2,0.5-0.1c0.2,0,0.3,0.1,0.3,0.1c0,0.1,0.1,0.1,0.1,0.2
		c0,0.1,0.1,0.5,0.2,1.3c0.2,1.1,0.3,2,0.4,2.7c0.4,2.6,0.7,4.4,0.7,5.5c0,2.3-0.4,3.9-1.5,4.7c-0.4,0.3-0.8,0.4-1.3,0.3
		c-0.5-0.1-0.9-0.3-1.2-0.7c-0.1-0.2-0.1-0.3,0-0.3c0,0,0.1,0,0.2,0.1c0.3,0.3,0.6,0.4,0.9,0.5c0.3,0,0.5,0,0.7-0.1
		c0.7-0.5,1.1-1.6,1.2-3.1c0-1-0.1-2.3-0.3-4l-0.5-2.5l-0.3,2.4c-0.2,1.5-0.5,2.4-0.8,2.6c-0.3,0.2-0.7,0.4-1.2,0.4
		c-0.5,0-0.9-0.2-1.2-0.6c-0.7-0.9-0.9-2.4-0.6-4.6c0.3-2.2,0.9-3.7,2-4.5c0.4-0.3,0.8-0.4,1.1-0.2c0.1,0.1,0.2,0.1,0.3,0.2
		C433.8,290.1,433.9,290.1,433.9,290.1z M431.9,298.8c0.3,0.4,0.7,0.5,1,0.3c0.7-0.5,1.1-2.1,1.1-4.5l-0.1-4.1
		c-0.2-0.1-0.4-0.1-0.7,0.1c-0.8,0.6-1.3,1.9-1.6,4C431.2,296.7,431.4,298.1,431.9,298.8z"/>
	<path id="XMLID_9385_" class="st45" d="M444.8,289.3c-0.6,0.6-1.3,0.6-2.1-0.2c-0.4-0.4-0.7-1-1-1.9c-0.2-0.8-0.5-1.8-0.7-2.9
		c-0.7,2.1-0.9,4.4-0.7,6.8c0.3,1.6,0.4,2.4,0.3,2.5c-0.3,0.3-0.6,0.4-0.7,0.2c-0.1-0.1-0.2-0.3-0.3-0.7c-0.8-2.9-1.4-5.1-1.7-6.5
		c-0.8-3.4-1-5.4-0.6-6.1c0,0,0-0.1,0-0.1c0.1-0.1,0.4-0.1,0.6,0c0.2,0.3,0.5,1.6,0.8,4.2c0.3,2.6,0.6,4.2,0.9,4.8
		c0.1-0.7,0.3-1.9,0.6-3.6c0.3-1.8,0.7-2.9,1-3.3c0.3-0.3,0.7-0.4,0.9-0.1c0,0,0.1,0.1,0.1,0.1c0,0,0.1,0.9,0.4,2.7s0.6,2.9,1.1,3.3
		c0.3,0.2,0.5,0.3,0.7,0.1c0.6-0.6,0.7-2.2,0.5-4.8c0-0.2,0-0.3,0.1-0.4s0.1,0,0.2,0c0.2,0.2,0.3,1.3,0.2,3.4
		C445.2,288.3,445.1,289,444.8,289.3z"/>
	<path id="XMLID_9387_" class="st45" d="M446.9,275.6l2-2.6c0.1,0,0.1,0,0.1,0c0.1,0.1-0.3,1-1.3,2.6s-1.5,2.6-1.6,2.7
		c0,0.4,0.3,1.3,0.8,2.7c0.5,1.4,1,2.3,1.5,2.7c0.4,0.4,0.9,0.2,1.4-0.4c0.2-0.3,0.4-0.7,0.6-1.4c0.2-0.6,0.3-1.1,0.3-1.5
		c0.1-1,0.1-2.2-0.2-3.6c0-0.3,0-0.5,0-0.5c0,0,0.1,0,0.2,0c0.1,0.1,0.1,0.3,0.2,0.6c0.3,1.2,0.3,2.4,0.2,3.6
		c-0.2,1.4-0.6,2.5-1.3,3.4c-0.3,0.4-0.6,0.6-1,0.7c-0.3,0.1-0.8,0-1.3-0.4c-0.5-0.4-1-1.1-1.5-2.3c-0.5-1.1-0.9-1.9-1.1-2.5
		c-0.1,0.2-0.2,0.4-0.3,0.5c-0.3,0.3-0.6,0.4-0.8,0.2c-0.2-0.2-0.2-0.4-0.1-0.8c0,0,0.1-0.1,0.1-0.2l0.8-1c-0.1-0.4-0.2-0.9-0.4-1.5
		c-0.2-0.7-0.2-1.1-0.1-1.2c0.1-0.1,0.3-0.2,0.5-0.3c0.2-0.1,0.4-0.1,0.6,0c0.1,0.1,0.3,0.7,0.5,1.8
		C446.2,276.5,446.5,276.1,446.9,275.6z"/>
</g>
</svg>
